<?xml version="1.0" encoding="utf-8"?>
<!-- Generator: Adobe Illustrator 16.0.0, SVG Export Plug-In . SVG Version: 6.00 Build 0)  -->
<!DOCTYPE svg PUBLIC "-//W3C//DTD SVG 1.1//EN" "http://www.w3.org/Graphics/SVG/1.1/DTD/svg11.dtd">
<svg version="1.1" id="Layer_1" xmlns="http://www.w3.org/2000/svg" xmlns:xlink="http://www.w3.org/1999/xlink" x="0px" y="0px"
	 width="559.472px" height="506.975px" viewBox="0 0 559.472 506.975" enable-background="new 0 0 559.472 506.975"
	 xml:space="preserve">
<path fill="#2BB673" d="M502.658,255.903c0,124.75-101.131,225.881-225.881,225.881c-124.746,0-225.875-101.131-225.875-225.881
	c0-124.746,101.128-225.873,225.875-225.873C401.527,30.031,502.658,131.157,502.658,255.903z"/>
<path fill="#2BB673" d="M260.588,293.431c-9.76,0.414-17.532,4.061-17.36,8.143c0.176,4.082,8.23,7.053,17.995,6.634
	c9.76-0.414,17.532-4.06,17.36-8.142C278.407,295.984,270.353,293.012,260.588,293.431z"/>
<g>
	<g>
		<path fill="#F0D4C0" d="M525.805,188.659l-25.555-10.188c0,0-12.775-5.091-17.867,7.688l-5.092,12.784
			c0,0-10.188,25.55,15.372,35.747c25.551,10.174,35.747-15.38,35.747-15.38l5.092-12.78
			C533.502,206.53,538.589,193.746,525.805,188.659z"/>
	</g>
	<g>
		<path fill="#F0D4C0" d="M476.644,185.939c-8.569-10.765-19.33-2.191-19.33-2.191l25.709,32.287
			c10.761-8.574,2.19-19.339,2.19-19.339L476.644,185.939z"/>
	</g>
	<g>
		<path fill="#F0D4C0" d="M497.138,148.482c-3.817-0.697-7.481,1.838-8.169,5.656l-5.029,27.658
			c-0.688,3.831,1.843,7.481,5.66,8.177c3.822,0.692,7.477-1.838,8.173-5.656l5.03-27.667
			C503.49,152.829,500.96,149.174,497.138,148.482z"/>
	</g>
	<g>
		<path fill="#F0D4C0" d="M519.369,146.194c-3.606-1.437-7.697,0.322-9.13,3.923l-10.403,26.119
			c-1.441,3.606,0.317,7.693,3.923,9.134c3.606,1.437,7.692-0.322,9.13-3.933l10.412-26.114
			C524.729,151.713,522.975,147.626,519.369,146.194z"/>
	</g>
	<g>
		<path fill="#F0D4C0" d="M531.818,157.461c-3.611-1.437-7.702,0.317-9.144,3.923L512.268,187.5c-1.438,3.61,0.326,7.692,3.936,9.13
			c3.602,1.441,7.697-0.317,9.126-3.928l10.417-26.115C537.174,162.985,535.41,158.89,531.818,157.461z"/>
	</g>
	<g>
		<path fill="#F0D4C0" d="M544.373,173.561c-3.382-1.909-7.666-0.709-9.575,2.667l-13.82,24.484
			c-1.913,3.381-0.718,7.67,2.663,9.579c3.385,1.904,7.67,0.71,9.588-2.667l13.811-24.488
			C548.944,179.754,547.75,175.469,544.373,173.561z"/>
	</g>
</g>
<g>
	<path fill="#237378" d="M481.333,226.652c-0.961,41.3-13.83,71.902-38.25,90.955c-48.533,37.866-128.218,20.407-129.016,20.227
		l-6.023,26.406c1.764,0.403,22.259,4.942,49.601,4.942c30.987,0,70.765-5.835,101.987-30.134
		c31.207-24.287,47.618-61.891,48.779-111.766L481.333,226.652z"/>
</g>
<g>
	<g>
		<polygon fill="#216264" points="474.285,217.392 468.902,243.494 518.284,253.66 523.667,227.562 		"/>
	</g>
	<g>
		<polygon fill="#F79643" points="474.285,217.392 472.896,224.142 522.265,234.307 523.667,227.562 		"/>
	</g>
</g>
<path fill="#237378" d="M178.828,356.999v103.736c28.958,13.498,61.247,21.05,95.303,21.05c38.851,0,75.406-9.817,107.333-27.092
	v-97.694H178.828z"/>
<path fill="#455B5F" d="M399.935,214.355c-34.032-1.357,19.568-139.011-117.076-139.073l-35.782,2.385
	c-102.643,17.717-64.048,147.515-97.595,153.374c-33.556,5.858-58.485-68.633-53.671,3.575c4.809,72.208,72.997,76.73,72.997,76.73
	l111.314-7.414l111.318-7.415c0,0,51.521-12.502,46.711-84.71C433.336,139.599,433.971,215.713,399.935,214.355z"/>
<g>
	<path fill="#D85138" d="M158.827,374.778c15.645,7.842,29.765-12.507,29.765-12.507l-37.585-10.998
		C151.007,351.273,143.169,366.931,158.827,374.778z"/>
</g>
<g>
	<g>
		<path fill="#D85138" d="M138.743,278.015l-42.928-7.494c39.834,123.477,160.339,88.32,160.339,88.32l-9.354-5.92
			c24.634,2.481,36.479-16.231,36.479-16.231l-9.359-5.911c15.275-3.452,30.073-26.847,30.073-26.847
			C246.459,322.38,138.743,278.015,138.743,278.015z"/>
	</g>
	<g>
		<path fill="#D85138" d="M138.743,278.015l-38.247-4.536c42.311,98.825,126.342,79.932,126.342,79.932l-14.045-8.896
			c12.326,1.248,25.885-9.825,25.885-9.825l-9.354-5.916c15.27-3.443,19.476-20.45,19.476-20.45
			C188.927,309.755,138.743,278.015,138.743,278.015z"/>
	</g>
	<g>
		<path fill="#D85138" d="M94.093,262.873c37.155,75.925,84.712,73.24,84.712,73.24c-1.72-7.636-11.087-13.552-11.087-13.552
			c21.684,7.164,33.525-11.559,33.525-11.559c-29.315-5.448-62.501-32.987-62.501-32.987L94.093,262.873z"/>
	</g>
</g>
<g>
	<path fill="#D85138" d="M88.951,275.542c0,0,14.913,123.317,100.69,84.533l-75.23-92.892L88.951,275.542z"/>
</g>
<g>
	<path fill="#D85138" d="M78.519,225.579l10.433,49.964l65.146,15.222c0,0-8.045-18.211-30.349-51.33
		C94.402,195.88,78.519,225.579,78.519,225.579z"/>
</g>
<g>
	<path fill="#FFFFFF" d="M82.909,228.951c0,0,6.042,46.592,4.032,31.061c-2.019-15.53,39.838,2.715,39.838,2.715
		C111.951,209.391,82.909,228.951,82.909,228.951z"/>
</g>
<g>
	<path fill="#414142" d="M105.015,231.993c-1.208-0.921-2.953-0.696-3.883,0.511c-0.935,1.208-0.706,2.949,0.504,3.884
		c1.215,0.935,2.958,0.697,3.884-0.507C106.457,234.673,106.231,232.932,105.015,231.993z"/>
</g>
<g>
	<path fill="#595A5C" d="M82.568,234.902l-13.522,17.554c6.758-8.772,17.547,13.511,17.547,13.511
		C90.326,233.893,82.568,234.902,82.568,234.902z"/>
</g>
<g>
	<g>
		<path fill="#28A5D3" d="M152.594,294.643l-42.747-8.529c36.862,124.384,158.183,92.115,158.183,92.115l-9.213-6.132
			c24.567,3.06,36.853-15.371,36.853-15.371l-9.213-6.146c15.354-3.068,30.717-26.098,30.717-26.098
			C259.204,341.561,152.594,294.643,152.594,294.643z"/>
	</g>
	<g>
		<path fill="#EB9759" d="M114.449,289.186c39.935,99.809,124.398,82.894,124.398,82.894l-13.825-9.204
			c12.299,1.534,26.115-9.209,26.115-9.209l-9.222-6.154c15.359-3.072,24.572-16.888,24.572-16.888
			c-59.891,0-113.893-35.981-113.893-35.981L114.449,289.186z"/>
	</g>
	<g>
		<path fill="#FFE6C6" d="M116.212,285.232c23.126,89.074,96.674,83.859,96.674,83.859l-10.743-9.324
			c10.271,2.632,23.17-5.012,23.17-5.012l-7.168-6.203c13.375-0.943,22.685-11.69,22.685-11.69
			c-50.85-6.463-92.821-42.871-92.821-42.871L116.212,285.232z"/>
	</g>
	<g>
		<path fill="#D85138" d="M108.308,278.434c35.328,76.771,82.929,75.236,82.929,75.236c-1.534-7.684-10.743-13.815-10.743-13.815
			c21.5,7.67,33.79-10.756,33.79-10.756c-29.183-6.146-61.689-34.456-61.689-34.456L108.308,278.434z"/>
	</g>
</g>
<g>
	<path fill="#BBBCBC" d="M78.519,225.579c0,0-26.798,17.999-11.461,37.426c0,0-2.651-7.353,19.134-27.715
		C86.191,235.29,88.539,230.273,78.519,225.579z"/>
</g>
<path fill="#F0D4C0" d="M176.063,276.94c-10.205,0.683-17.792,11.624-16.941,24.435c0.855,12.819,9.826,22.659,20.036,21.98
	c10.214-0.684,17.796-11.625,16.945-24.439C195.249,286.095,186.277,276.261,176.063,276.94z"/>
<path fill="#F0D4C0" d="M379.409,263.393c-10.209,0.679-17.796,11.62-16.94,24.436c0.855,12.814,9.826,22.653,20.031,21.975
	c10.214-0.679,17.801-11.62,16.945-24.439C398.595,272.549,389.624,262.714,379.409,263.393z"/>
<path fill="#754D29" d="M178.836,418.556v42.183c28.957,13.495,61.241,21.046,95.294,21.046c38.853,0,75.41-9.818,107.338-27.095
	v-36.134H178.836z"/>
<path fill="#237378" d="M141.607,397.421c2.021-9.054,28.226-17.705,50.479-19.808l-1.18-12.609l1.169,12.61l-1.169-12.61
	l-1.169-12.61c-0.624,0.058-15.46,1.471-31.197,6.125c-24.283,7.183-38.296,18.405-41.648,33.357
	c-2.877,12.834,2.274,26.05,15.979,40.274c15.411,12.369,32.477,22.755,50.816,30.779l10.103-17.103
	C139.7,413.876,141.252,399.011,141.607,397.421z"/>
<path fill="#F0D4C0" d="M380.503,297.245l-1.685-25.273c0,0-5.615-63.091-105.301-56.443c-99.689,6.639-96.881,69.915-96.881,69.915
	l1.684,25.269l0.278,4.188c1.737,15.843,14.362,70.995,105.866,64.898c91.503-6.097,96.696-62.439,96.316-78.37L380.503,297.245z"/>
<path fill="#333333" d="M327.29,250.018c-17.443,1.164-30.646,16.249-29.482,33.697c1.159,17.448,16.249,30.646,33.692,29.487
	c17.443-1.164,30.646-16.254,29.487-33.693C359.823,262.062,344.734,248.854,327.29,250.018z"/>
<rect x="263.44" y="283.734" transform="matrix(-0.7496 -0.6619 0.6619 -0.7496 378.1265 717.5518)" fill="#333333" width="122.705" height="7.035"/>
<path fill="#414142" d="M175.874,274.03l-0.08-1.221C175.794,272.809,175.813,273.241,175.874,274.03z"/>
<path fill="#414142" d="M378.057,260.563c-0.045-0.793-0.084-1.226-0.084-1.226L378.057,260.563z"/>
<path fill="#57ACCD" d="M273.518,215.528c-103.899,6.921-97.256,64.281-97.256,64.281s39.948-14.221,100.324-18.241
	c60.372-4.024,101.858,4.774,101.858,4.774S377.417,208.602,273.518,215.528z"/>
<path fill="#333333" d="M260.258,279.43c-5.356,0.357-9.403,4.986-9.046,10.342c0.353,5.356,4.981,9.407,10.337,9.051
	c5.356-0.357,9.407-4.986,9.05-10.342C270.242,283.125,265.614,279.074,260.258,279.43z"/>
<rect x="317.104" y="244.14" transform="matrix(-0.9969 -0.0792 0.0792 -0.9969 642.9413 524.93)" fill="#333333" width="29.554" height="11.148"/>
<path fill="#333333" d="M280.818,110.429c-7.477,0.498-13.736,2.875-18.775,7.234c-5.039,4.359-7.273,10.06-6.793,17.205
	c0.674,10.179,7.009,17.047,18.885,20.609c1.151,0.326,2.482,0.679,3.862,1.031c1.958,0.494,3.822-1.058,3.69-3.068l-0.882-13.242
	c-0.079-1.19-0.864-2.23-1.997-2.601c-0.225-0.07-0.44-0.15-0.657-0.229c-2.341-0.829-3.183-1.966-3.324-4.131
	c-0.119-1.741,1.014-3.231,3.235-4.175c1.164-0.494,1.887-1.666,1.803-2.918l-0.119-1.79c-0.106-1.631,1.125-3.042,2.76-3.147
	l0.855-0.062c1.631-0.106,3.042,1.128,3.152,2.76l0.128,1.917c0.088,1.313,1.04,2.376,2.323,2.693
	c2.204,0.538,4.192,1.499,5.973,2.883c1.146,0.895,2.791,0.762,3.835-0.256l8.667-8.481c1.195-1.173,1.208-3.121-0.018-4.259
	C300.871,112.342,292.002,109.684,280.818,110.429z"/>
<path fill="#333333" d="M295.612,141.534c-1.314-0.383-2.716-0.758-4.117-1.106c-1.949-0.494-3.809,1.058-3.677,3.068l0.904,13.551
	c0.079,1.229,0.921,2.274,2.103,2.636c0.004,0,0.009,0.009,0.018,0.009c2.998,0.997,4.395,2.319,4.532,4.373
	c0.15,2.288-1.124,3.955-3.822,4.977c-1.19,0.45-1.922,1.662-1.838,2.932l0.132,1.993c0.11,1.631-1.124,3.042-2.755,3.147
	l-0.855,0.057c-1.636,0.11-3.046-1.124-3.152-2.755l-0.119-1.75c-0.093-1.401-1.159-2.521-2.548-2.729
	c-4.832-0.728-9.169-2.888-12.436-5.951c-1.089-1.023-2.799-0.996-3.919-0.009l-9.46,8.332c-1.229,1.084-1.375,2.98-0.264,4.188
	c2.971,3.24,6.723,5.995,11.303,8.261c5.735,2.773,12.767,3.826,21.213,3.262c20.04-1.332,29.492-11.321,28.517-25.938
	C314.687,151.792,308.921,145.321,295.612,141.534z"/>
<path fill="#E4F1DF" d="M280.536,106.242c-7.476,0.498-13.732,2.87-18.771,7.234c-5.043,4.36-7.273,10.055-6.797,17.201
	c0.679,10.183,7.014,17.047,18.885,20.609c1.155,0.331,2.486,0.688,3.866,1.036c1.953,0.494,3.822-1.062,3.69-3.068l-0.886-13.243
	c-0.079-1.19-0.864-2.23-1.992-2.601c-0.225-0.07-0.441-0.15-0.662-0.229c-2.336-0.829-3.178-1.966-3.324-4.135
	c-0.115-1.737,1.014-3.227,3.24-4.174c1.159-0.494,1.887-1.662,1.803-2.914l-0.119-1.79c-0.11-1.631,1.125-3.042,2.76-3.147
	l0.851-0.062c1.636-0.106,3.046,1.128,3.157,2.76l0.127,1.913c0.084,1.323,1.041,2.38,2.319,2.698
	c2.208,0.542,4.196,1.499,5.978,2.883c1.146,0.899,2.79,0.758,3.835-0.256l8.663-8.481c1.194-1.173,1.212-3.125-0.013-4.258
	C300.589,108.15,291.724,105.497,280.536,106.242z"/>
<path fill="#E4F1DF" d="M295.334,137.342c-1.314-0.379-2.72-0.759-4.117-1.107c-1.949-0.494-3.813,1.063-3.677,3.068l0.899,13.556
	c0.083,1.225,0.921,2.274,2.103,2.636c0.004,0,0.009,0.004,0.018,0.009c3.002,0.996,4.399,2.318,4.536,4.373
	c0.149,2.288-1.125,3.954-3.822,4.973c-1.19,0.449-1.922,1.666-1.838,2.936l0.132,1.988c0.11,1.636-1.124,3.046-2.76,3.152
	l-0.851,0.062c-1.636,0.105-3.046-1.129-3.152-2.76l-0.119-1.755c-0.092-1.401-1.164-2.521-2.548-2.724
	c-4.836-0.732-9.169-2.887-12.436-5.956c-1.089-1.022-2.804-0.992-3.919-0.004l-9.465,8.332c-1.229,1.08-1.371,2.98-0.26,4.188
	c2.971,3.24,6.718,5.996,11.303,8.261c5.731,2.769,12.767,3.826,21.213,3.262c20.04-1.336,29.491-11.321,28.518-25.938
	C314.404,147.604,308.643,141.133,295.334,137.342z"/>
<circle fill="#593C24" cx="282.043" cy="450.565" r="8.927"/>
<path fill="#593C24" d="M327.185,441.638c-4.929,0-8.923,3.994-8.923,8.927s3.994,8.927,8.923,8.927
	c4.933,0,8.931-3.994,8.931-8.927S332.117,441.638,327.185,441.638z"/>
<path fill="#593C24" d="M358.787,441.638c-4.933,0-8.927,3.994-8.927,8.927s3.994,8.927,8.927,8.927
	c4.934,0,8.928-3.994,8.928-8.927S363.721,441.638,358.787,441.638z"/>
<path fill="#593C24" d="M223.36,441.638c-4.933,0-8.932,3.994-8.932,8.927s3.999,8.927,8.932,8.927c4.928,0,8.927-3.994,8.927-8.927
	S228.289,441.638,223.36,441.638z"/>
<path fill="#F79643" d="M322.367,435.44c0-13.965-11.362-25.327-25.327-25.327h-29.553c-13.965,0-25.327,11.362-25.327,25.327
	v29.554c0,5.694,1.89,10.955,5.075,15.19c8.821,1.047,17.792,1.601,26.895,1.601c15.426,0,30.487-1.555,45.044-4.501
	c2.03-3.642,3.192-7.832,3.192-12.29V435.44z M305.481,464.994c0,4.654-3.787,8.44-8.44,8.44h-29.553
	c-4.654,0-8.441-3.786-8.441-8.44V435.44c0-4.654,3.787-8.44,8.441-8.44h29.553c4.654,0,8.44,3.786,8.44,8.44V464.994z"/>
<path fill="#333333" d="M380.597,298.708c-1.649,17.74-9.423,35.121-34.214,36.771c0,0-23.399-33.697-51.952-17.695
	c-30.422-12.07-49.135,24.431-49.135,24.431c-47.998,3.2-68.686-58.6-69.422-68.184l4.832,72.486
	c3.43,51.489,68.095,48.351,68.095,48.351l52.225,21.908h0.005l48.856-28.645c0,0,36.426-3.598,32.996-55.082L380.597,298.708z
	 M296.538,349.381h-0.004c-35.024,3.509-38.608-8.006-38.608-8.006c19.947,3.368,37.166-13.021,37.206-13.057
	c0.044,0.03,19.286,13.987,38.607,8.005C333.739,336.324,331.712,348.208,296.538,349.381z"/>
<path fill="#333333" d="M378.057,260.563l2.54,38.145C382.139,282.111,378.32,265.2,378.057,260.563z"/>
<rect x="242.157" y="443.886" fill="#E7E7E7" width="37.991" height="12.661"/>
<path fill="#216264" d="M190.373,435.22l-21.856,20.385c8.477,4.492,17.272,8.462,26.346,11.863l13.685-12.769L190.373,435.22z"/>
<path fill="#E1B08E" d="M291.852,306.678c-10.62,0.71-19.026,4.307-18.775,8.036c0.247,3.734,9.055,6.181,19.674,5.476
	c10.615-0.706,19.022-4.303,18.771-8.037C311.275,308.419,302.467,305.968,291.852,306.678z"/>
<path fill="#333333" d="M232.537,244.998l10.318,8.771c0.488-0.574,12.09-13.941,25.458-5.302l7.351-11.374
	C257.077,225.08,239.325,237.01,232.537,244.998z"/>
<path fill="#F0D4C0" d="M278.583,300.066c0.172,4.082-7.6,7.729-17.359,8.143c-9.765,0.418-17.818-2.553-17.995-6.635
	c-0.172-4.082,7.6-7.729,17.36-8.143C270.352,293.013,278.407,295.984,278.583,300.066z"/>
</svg>
