<svg width="18" height="18" viewBox="0 0 18 18" fill="none" xmlns="http://www.w3.org/2000/svg">
<path fill-rule="evenodd" clip-rule="evenodd" d="M2.78285 9.75009L17.2302 9.75009C17.4288 9.75009 17.618 9.67134 17.7585 9.53072C17.8989 9.39009 17.9795 9.19884 17.9795 9.00009C17.9795 8.80134 17.8989 8.61009 17.7585 8.46946C17.618 8.32884 17.4288 8.25009 17.2302 8.25009L2.77892 8.25009L6.49855 5.07008C6.64841 4.94071 6.74207 4.75696 6.75893 4.55821C6.77391 4.36134 6.71023 4.16447 6.58098 4.01259C6.45173 3.86259 6.26816 3.76884 6.0696 3.75197C5.87291 3.73697 5.67622 3.80072 5.52448 3.93009L0.262629 8.43009C0.110899 8.55947 0.0172348 8.74321 0.00224876 8.94196C-0.0127373 9.13884 0.0509415 9.33571 0.17832 9.48758C0.220842 9.53708 0.269728 9.5804 0.322927 9.61696L5.52448 14.0701C5.67622 14.1995 5.87104 14.2632 6.0696 14.2482C6.26816 14.2332 6.45173 14.1395 6.58098 13.9876C6.71023 13.8357 6.77391 13.6407 6.75893 13.442C6.74394 13.2432 6.65028 13.0595 6.49855 12.9301L2.78285 9.75009Z" fill="#949494"/>
</svg>
