<svg width="4" height="6" viewBox="0 0 4 6" fill="none" xmlns="http://www.w3.org/2000/svg">
<path d="M0.0731277 0.426876C0.0262527 0.380001 0 0.31625 0 0.25C0 0.18375 0.0262527 0.119999 0.0731277 0.0731239C0.120003 0.0262489 0.18375 0 0.25 0C0.31625 0 0.380001 0.0262489 0.426876 0.0731239L3.10375 2.75L0.426876 5.42688C0.380001 5.47375 0.31625 5.5 0.25 5.5C0.18375 5.5 0.120003 5.47375 0.0731277 5.42688C0.0262527 5.38 0 5.31625 0 5.25C0 5.18375 0.0262527 5.12 0.0731277 5.07312L2.39625 2.75L0.0731277 0.426876Z" fill="#7D7D7D"/>
</svg>
