<svg width="36" height="36" viewBox="0 0 36 36" fill="none" xmlns="http://www.w3.org/2000/svg">
<circle cx="18" cy="18" r="18" fill="#F1F5F5"/>
<path d="M26.0095 11.5905H22.2644V10.9799C22.2644 9.88816 21.3762 9 20.2845 9H16.7245C15.6328 9 14.7447 9.88816 14.7447 10.9799V11.5905H10.9996C10.722 11.5905 10.5 11.8125 10.5 12.09C10.5 12.3676 10.722 12.5896 10.9996 12.5896H11.9025V24.3281C11.9025 25.801 13.1016 27 14.5744 27H22.4346C23.9075 27 25.1065 25.801 25.1065 24.3281V12.5896H26.0095C26.287 12.5896 26.509 12.3676 26.509 12.09C26.509 11.8125 26.287 11.5905 26.0095 11.5905ZM15.7438 10.9799C15.7438 10.4396 16.1842 9.99918 16.7245 9.99918H20.2845C20.8248 9.99918 21.2652 10.4396 21.2652 10.9799V11.5905H15.7438V10.9799ZM24.1073 24.3281C24.1073 25.2496 23.3561 26.0008 22.4346 26.0008H14.5744C13.653 26.0008 12.9017 25.2496 12.9017 24.3281V12.5896H24.111V24.3281H24.1073Z" fill="#323232"/>
<path d="M18.5054 24.2108C18.783 24.2108 19.005 23.9887 19.005 23.7112V14.8814C19.005 14.6039 18.783 14.3818 18.5054 14.3818C18.2279 14.3818 18.0059 14.6039 18.0059 14.8814V23.7075C18.0059 23.985 18.2279 24.2108 18.5054 24.2108Z" fill="#323232"/>
<path d="M15.2437 23.6595C15.5213 23.6595 15.7433 23.4375 15.7433 23.16V15.4293C15.7433 15.1517 15.5213 14.9297 15.2437 14.9297C14.9662 14.9297 14.7441 15.1517 14.7441 15.4293V23.16C14.7441 23.4375 14.9699 23.6595 15.2437 23.6595Z" fill="#323232"/>
<path d="M21.7652 23.6595C22.0428 23.6595 22.2648 23.4375 22.2648 23.16V15.4293C22.2648 15.1517 22.0428 14.9297 21.7652 14.9297C21.4877 14.9297 21.2656 15.1517 21.2656 15.4293V23.16C21.2656 23.4375 21.4877 23.6595 21.7652 23.6595Z" fill="#323232"/>
</svg>
