<svg width="18" height="18" viewBox="0 0 18 18" fill="none" xmlns="http://www.w3.org/2000/svg">
<path d="M8.43816 5.33137L6.69448 7.07759C6.05208 7.72094 5.406 8.36429 4.76726 9.01499C4.61676 9.16939 4.50296 9.37526 4.45891 9.57746C4.22764 10.6399 4.00372 11.7023 3.77979 12.7648L3.65498 13.353C3.59625 13.6397 3.67334 13.9265 3.86789 14.1213C4.0184 14.2721 4.22764 14.3566 4.44789 14.3566C4.5103 14.3566 4.57271 14.3493 4.63511 14.3382L5.28119 14.2022C6.30904 13.9853 7.34056 13.7647 8.36841 13.5515C8.60702 13.5 8.80892 13.3934 8.98145 13.2206C11.8668 10.3274 14.7521 7.43787 17.6374 4.552C17.8503 4.33877 17.9678 4.08511 17.9972 3.77263C18.0008 3.72116 17.9972 3.66969 17.9862 3.6219C17.9678 3.54838 17.9531 3.47117 17.9348 3.39765C17.8944 3.21016 17.8503 2.99694 17.7622 2.79106C17.2226 1.55584 16.3269 0.673533 15.1008 0.177237C14.8549 0.0779774 14.5943 0.044891 14.3667 0.0154808L14.3043 0.00812826C13.9739 -0.0323107 13.6729 0.0779774 13.4122 0.342669C11.7603 2.00434 10.0974 3.66969 8.43816 5.33137ZM14.1831 0.894109C14.1905 0.894109 14.1941 0.894109 14.2015 0.894109L14.2639 0.901462C14.4548 0.923519 14.631 0.945577 14.7705 1.0044C15.7689 1.40879 16.5031 2.12934 16.9473 3.14399C16.9987 3.26163 17.0317 3.41235 17.0648 3.57043C17.0758 3.62925 17.0905 3.68807 17.1015 3.74689C17.0868 3.81307 17.0611 3.85718 17.0097 3.90497C14.1207 6.79085 11.2354 9.68407 8.35006 12.5736C8.30234 12.6214 8.25829 12.6435 8.19221 12.6582C7.16069 12.8751 6.13284 13.092 5.10131 13.3089L4.55802 13.4228L4.66081 12.9412C4.88473 11.8825 5.10866 10.82 5.33625 9.76127C5.34359 9.72818 5.37296 9.67672 5.406 9.63995C6.04473 8.99293 6.68347 8.34958 7.32588 7.70991L9.06955 5.96369C10.7325 4.29834 12.3954 2.63298 14.0546 0.963958C14.1244 0.905138 14.1574 0.894109 14.1831 0.894109Z" fill="#323232"/>
<path d="M1.42798 4.00837H7.83736C8.08699 4.00837 8.28888 3.80617 8.28888 3.55619C8.28888 3.3062 8.08699 3.104 7.83736 3.104H1.42798C0.638736 3.104 0 3.74735 0 4.53407V16.5702C0 17.3606 0.642407 18.0002 1.42798 18.0002H13.4428C14.2321 18.0002 14.8708 17.3569 14.8708 16.5702V10.4124C14.8708 10.1624 14.6689 9.96025 14.4193 9.96025C14.1697 9.96025 13.9678 10.1624 13.9678 10.4124V16.5702C13.9678 16.8606 13.7292 17.0996 13.4392 17.0996H1.42798C1.13798 17.0996 0.89937 16.8606 0.89937 16.5702V4.53775C0.89937 4.24732 1.13798 4.00837 1.42798 4.00837Z" fill="#323232"/>
</svg>
