<svg width="36" height="36" viewBox="0 0 36 36" fill="none" 
    xmlns="http://www.w3.org/2000/svg">
    <circle cx="18" cy="18" r="18" fill="#FFF"/>
    <path d="M17.4391 14.3314L15.6955 16.0776C15.0531 16.7209 14.407 17.3643 13.7682 18.015C13.6177 18.1694 13.5039 18.3753 13.4599 18.5775C13.2286 19.6399 13.0047 20.7023 12.7808 21.7648L12.656 22.353C12.5972 22.6397 12.6743 22.9265 12.8689 23.1213C13.0194 23.2721 13.2286 23.3566 13.4489 23.3566C13.5113 23.3566 13.5737 23.3493 13.6361 23.3382L14.2822 23.2022C15.31 22.9853 16.3415 22.7647 17.3694 22.5515C17.608 22.5 17.8099 22.3934 17.9824 22.2206C20.8678 19.3274 23.7531 16.4379 26.6384 13.552C26.8513 13.3388 26.9688 13.0851 26.9982 12.7726C27.0018 12.7212 26.9982 12.6697 26.9871 12.6219C26.9688 12.5484 26.9541 12.4712 26.9357 12.3976C26.8954 12.2102 26.8513 11.9969 26.7632 11.7911C26.2236 10.5558 25.3279 9.67353 24.1018 9.17724C23.8559 9.07798 23.5952 9.04489 23.3676 9.01548L23.3052 9.00813C22.9748 8.96769 22.6738 9.07798 22.4132 9.34267C20.7613 11.0043 19.0984 12.6697 17.4391 14.3314ZM23.1841 9.89411C23.1914 9.89411 23.1951 9.89411 23.2024 9.89411L23.2649 9.90146C23.4557 9.92352 23.6319 9.94558 23.7714 10.0044C24.7699 10.4088 25.5041 11.1293 25.9483 12.144C25.9997 12.2616 26.0327 12.4124 26.0657 12.5704C26.0768 12.6293 26.0914 12.6881 26.1025 12.7469C26.0878 12.8131 26.0621 12.8572 26.0107 12.905C23.1217 15.7908 20.2364 18.6841 17.351 21.5736C17.3033 21.6214 17.2593 21.6435 17.1932 21.6582C16.1617 21.8751 15.1338 22.092 14.1023 22.3089L13.559 22.4228L13.6618 21.9412C13.8857 20.8825 14.1096 19.82 14.3372 18.7613C14.3446 18.7282 14.3739 18.6767 14.407 18.64C15.0457 17.9929 15.6844 17.3496 16.3269 16.7099L18.0705 14.9637C19.7334 13.2983 21.3964 11.633 23.0556 9.96396C23.1254 9.90514 23.1584 9.89411 23.1841 9.89411Z" fill="#323232"/>
    <path d="M10.428 13.0084H16.8374C17.087 13.0084 17.2889 12.8062 17.2889 12.5562C17.2889 12.3062 17.087 12.104 16.8374 12.104H10.428C9.63874 12.104 9 12.7474 9 13.5341V25.5702C9 26.3606 9.64241 27.0002 10.428 27.0002H22.4428C23.2321 27.0002 23.8708 26.3569 23.8708 25.5702V19.4124C23.8708 19.1624 23.6689 18.9602 23.4193 18.9602C23.1697 18.9602 22.9678 19.1624 22.9678 19.4124V25.5702C22.9678 25.8606 22.7292 26.0996 22.4392 26.0996H10.428C10.138 26.0996 9.89937 25.8606 9.89937 25.5702V13.5377C9.89937 13.2473 10.138 13.0084 10.428 13.0084Z" fill="#323232"/>
</svg>
