<svg width="36" height="36" viewBox="0 0 36 36" fill="none" xmlns="http://www.w3.org/2000/svg">
<path d="M18 0C8.07484 0 0 8.07484 0 18C0 27.9244 8.07484 36 18 36C27.9244 36 36 27.9244 36 18C36 8.07484 27.9259 0 18 0ZM22.4764 18.6337H19.548C19.548 23.3124 19.548 29.0715 19.548 29.0715H15.2086C15.2086 29.0715 15.2086 23.3682 15.2086 18.6337H13.1458V14.9447H15.2086V12.5585C15.2086 10.8496 16.0206 8.17925 19.5879 8.17925L22.8034 8.19157V11.7726C22.8034 11.7726 20.8494 11.7726 20.4695 11.7726C20.0896 11.7726 19.5494 11.9625 19.5494 12.7775V14.9454H22.8556L22.4764 18.6337Z" fill="#21125E"/>
</svg>
