<svg width="10" height="12" viewBox="0 0 10 12" fill="none" xmlns="http://www.w3.org/2000/svg">
<path d="M9.52412 2.20159H7.30482V1.83975C7.30482 1.19282 6.7785 0.666504 6.13157 0.666504H4.02192C3.375 0.666504 2.84868 1.19282 2.84868 1.83975V2.20159H0.629381C0.464907 2.20159 0.333328 2.33317 0.333328 2.49764C0.333328 2.66212 0.464907 2.7937 0.629381 2.7937H1.16447V9.74984C1.16447 10.6226 1.87499 11.3332 2.7478 11.3332H7.4057C8.2785 11.3332 8.98903 10.6226 8.98903 9.74984V2.7937H9.52412C9.68859 2.7937 9.82017 2.66212 9.82017 2.49764C9.82017 2.33317 9.68859 2.20159 9.52412 2.20159ZM3.44078 1.83975C3.44078 1.51957 3.70175 1.25861 4.02192 1.25861H6.13157C6.45175 1.25861 6.71271 1.51957 6.71271 1.83975V2.20159H3.44078V1.83975ZM8.39692 9.74984C8.39692 10.2959 7.95175 10.7411 7.4057 10.7411H2.7478C2.20175 10.7411 1.75657 10.2959 1.75657 9.74984V2.7937H8.39912V9.74984H8.39692Z" fill="black"/>
<path d="M5.07674 9.68003C5.24121 9.68003 5.37279 9.54845 5.37279 9.38398V4.15152C5.37279 3.98705 5.24121 3.85547 5.07674 3.85547C4.91226 3.85547 4.78069 3.98705 4.78069 4.15152V9.38178C4.78069 9.54626 4.91226 9.68003 5.07674 9.68003Z" fill="black"/>
<path d="M3.14473 9.35342C3.3092 9.35342 3.44078 9.22184 3.44078 9.05737V4.47623C3.44078 4.31175 3.3092 4.18018 3.14473 4.18018C2.98026 4.18018 2.84868 4.31175 2.84868 4.47623V9.05737C2.84868 9.22184 2.98245 9.35342 3.14473 9.35342Z" fill="black"/>
<path d="M7.00874 9.35342C7.17322 9.35342 7.3048 9.22184 7.3048 9.05737V4.47623C7.3048 4.31175 7.17322 4.18018 7.00874 4.18018C6.84427 4.18018 6.71269 4.31175 6.71269 4.47623V9.05737C6.71269 9.22184 6.84427 9.35342 7.00874 9.35342Z" fill="black"/>
</svg>
