<svg width="24" height="24" viewBox="0 0 24 24" fill="none" xmlns="http://www.w3.org/2000/svg">
<path d="M22.5 16.875H20.25C19.422 16.875 18.75 17.547 18.75 18.375C18.75 19.203 19.422 19.875 20.25 19.875H22.5C23.328 19.875 24 19.203 24 18.375C24 17.547 23.328 16.875 22.5 16.875Z" fill="#3EE7CD"/>
<path d="M13.5 16.875H1.5C0.672 16.875 0 17.547 0 18.375C0 19.203 0.672 19.875 1.5 19.875H13.5C14.328 19.875 15 19.203 15 18.375C15 17.547 14.328 16.875 13.5 16.875Z" fill="#3EE7CD"/>
<path d="M1.5 3.375H3.75C4.578 3.375 5.25 4.047 5.25 4.875C5.25 5.703 4.578 6.375 3.75 6.375H1.5C0.672 6.375 0 5.703 0 4.875C0 4.047 0.672 3.375 1.5 3.375Z" fill="#3EE7CD"/>
<path d="M10.5 3.375H22.5C23.328 3.375 24 4.047 24 4.875C24 5.703 23.328 6.375 22.5 6.375H10.5C9.672 6.375 9 5.703 9 4.875C9 4.047 9.672 3.375 10.5 3.375Z" fill="#3EE7CD"/>
<path d="M6.375 10.125H22.5C23.328 10.125 24 10.797 24 11.625C24 12.453 23.328 13.125 22.5 13.125H6.375C5.547 13.125 4.875 12.453 4.875 11.625C4.875 10.797 5.547 10.125 6.375 10.125Z" fill="#3EE7CD"/>
</svg>
