<svg width="36" height="36" viewBox="0 0 36 36" fill="none" xmlns="http://www.w3.org/2000/svg">
<path fill-rule="evenodd" clip-rule="evenodd" d="M18 36C27.9409 36 36 27.9414 36 18C36 8.05859 27.9409 0 18 0C8.05908 0 0 8.05859 0 18C0 27.9414 8.05908 36 18 36ZM25.4355 6.13184H10.4653C8.07617 6.13184 6.13184 8.07617 6.13184 10.4648V25.4355C6.13184 27.8252 8.07617 29.7695 10.4653 29.7695H25.4355C27.8252 29.7695 29.769 27.8252 29.769 25.4355V10.4648C29.769 8.07617 27.8252 6.13184 25.4355 6.13184ZM11.8262 8.25195C9.85547 8.25195 8.25195 9.85547 8.25195 11.8262V24.1738C8.25195 26.1445 9.85547 27.748 11.8262 27.748H24.1738C26.1445 27.748 27.748 26.1445 27.748 24.1738V11.8262C27.748 9.85547 26.1445 8.25195 24.1738 8.25195H11.8262ZM17.9995 24.418C14.4609 24.418 11.5815 21.5391 11.5815 18C11.5815 14.4609 14.4609 11.582 17.9995 11.582C21.5386 11.582 24.418 14.4609 24.418 18C24.418 21.5391 21.5386 24.418 17.9995 24.418ZM24.6245 12.9092C23.7866 12.9092 23.1055 12.2275 23.1055 11.3906C23.1055 11.084 23.1963 10.7988 23.3525 10.5615C23.4258 10.4492 23.5137 10.3477 23.6133 10.2588C23.8818 10.0186 24.2363 9.87207 24.6245 9.87207C25.2632 9.87207 25.811 10.2686 26.0347 10.8281C26.1045 11.002 26.1431 11.1914 26.1431 11.3906C26.1431 12.2275 25.4619 12.9092 24.6245 12.9092ZM14.2935 17.999C14.2935 15.957 15.957 14.2939 18 14.2939C20.0435 14.2939 21.7056 15.957 21.7056 17.999C21.7056 20.043 20.0435 21.7061 18 21.7061C15.957 21.7061 14.2935 20.043 14.2935 17.999Z" fill="#21125E"/>
</svg>
