<svg version="1.1" id="Layer_1" xmlns="http://www.w3.org/2000/svg" xmlns:xlink="http://www.w3.org/1999/xlink" x="0px" y="0px"
	 viewBox="0 0 57.6 19.5" style="enable-background:new 0 0 57.6 19.5;" xml:space="preserve">
<style type="text/css">
	.st0{fill:#54BABA;}
	.st1{fill:#222046;}
</style>
<g>
	<g>
		<path class="st0" d="M15.5,3.1H0L3.1,0h15.5L15.5,3.1z"/>
		<path class="st1" d="M8.9,19.5c3.8,0,4.8-1.5,4.8-3.6c0-2.6-2.3-3.1-4.3-3.4c-1.5-0.3-2.2-0.4-2.2-1.3c0-0.7,0.6-0.9,1.5-0.9
			c1.2,0,1.5,0.3,1.6,1.3l3.1-0.5C13.3,9,12.1,7.9,8.9,7.9c-3.5,0-4.7,1.4-4.7,3.6c0,2.9,2.7,3.2,4.7,3.5c1.2,0.2,1.7,0.4,1.7,1.3
			c0,0.7-0.4,1-1.7,1c-1.4,0-1.8-0.2-2-1.3l-3,0.4C4.3,18.6,5.6,19.5,8.9,19.5z"/>
		<path class="st1" d="M17.5,19.5c1.7,0,2.5-0.5,3-1.3v1.2h3.1v-7.6c0-2.5-1-3.8-4.4-3.8c-3.3,0-4.4,0.9-4.9,3.2l3.1,0.5
			c0.2-1,0.5-1.3,1.7-1.3c1.2,0,1.4,0.5,1.4,1.3v0.8h-1.4c-3.9,0-5.2,1.2-5.2,3.6C13.9,18.3,15.1,19.5,17.5,19.5z M18.9,17.2
			c-1.5,0-2-0.3-2-1.4c0-0.9,0.5-1.3,2.1-1.3h1.6v1.1C20.6,16.6,20.1,17.2,18.9,17.2z"/>
		<path class="st1" d="M24.4,19.3h3.1V3.1l-3.1,3.1V19.3z"/>
		<path class="st1" d="M33.2,19.5c3.6,0,4.6-1.7,4.8-3.4l-3-0.4c-0.1,1-0.3,1.5-1.8,1.5c-1.5,0-1.8-0.7-1.8-1.7v-0.9H38v-2
			c0-2.8-1.1-4.7-4.8-4.7c-3.6,0-4.9,1.9-4.9,4.3v3C28.3,17.5,29.6,19.5,33.2,19.5z M31.4,12.5v-0.6c0-1,0.5-1.7,1.8-1.7
			c1.3,0,1.8,0.6,1.8,1.7v0.6H31.4z"/>
		<g>
			<path class="st1" d="M43.8,7.9c-3.6,0-5,1.8-5,4.3v3c0,2.5,1.4,4.3,5,4.3c3.6,0,5.1-1.8,5.1-4.3v-3C48.9,9.7,47.4,7.9,43.8,7.9z
				 M45.8,15.3c0,1.1-0.7,1.7-1.9,1.7s-1.9-0.7-1.9-1.7v-3.2c0-1.1,0.6-1.7,1.9-1.7s1.9,0.7,1.9,1.7V15.3z"/>
			<polygon class="st1" points="52.8,8 49.7,11.1 49.7,19.3 52.8,19.3 52.8,11.1 54.5,11.1 57.6,8 			"/>
		</g>
	</g>
</g>
</svg>
