<svg width="18" height="19" viewBox="0 0 18 19" fill="none" xmlns="http://www.w3.org/2000/svg">
<path fill-rule="evenodd" clip-rule="evenodd" d="M8.94742 7.44768L2.56043 1.0607C1.97495 0.475211 1.0246 0.475211 0.439113 1.0607C-0.146371 1.64618 -0.146371 2.59653 0.439113 3.18202L6.8261 9.569L0.439126 15.956C-0.146358 16.5415 -0.146358 17.4918 0.439126 18.0773C1.02461 18.6628 1.97496 18.6628 2.56045 18.0773L8.94742 11.6903L15.2884 18.0313C15.8738 18.6167 16.8242 18.6167 17.4097 18.0313C17.9952 17.4458 17.9952 16.4954 17.4097 15.9099L11.0687 9.569L17.4097 3.22805C17.9952 2.64257 17.9952 1.69222 17.4097 1.10673C16.8242 0.521249 15.8739 0.521249 15.2884 1.10673L8.94742 7.44768Z" fill="#C4C4C4"/>
</svg>
