<svg width="24" height="24" viewBox="0 0 24 24" fill="none" xmlns="http://www.w3.org/2000/svg">
<path fill-rule="evenodd" clip-rule="evenodd" d="M19.494 18.4335C21.2036 16.4779 22.2399 13.9191 22.2399 11.1201C22.2399 4.98262 17.2573 0 11.1201 0C4.98262 0 0 4.98262 0 11.1201C0 17.2573 4.98262 22.2399 11.1201 22.2399C13.9187 22.2399 16.4773 21.2038 18.4328 19.4946L22.7168 23.7769C22.8574 23.9175 23.0486 23.9981 23.2474 23.9981C23.4461 23.9981 23.6374 23.9175 23.778 23.7769C23.9186 23.6362 23.9974 23.4469 23.9974 23.2481C23.9974 23.0494 23.9186 22.8581 23.778 22.7175L19.494 18.4335ZM18.0846 17.7546C18.8854 16.9127 19.5298 15.9332 19.9849 14.8631C20.4836 13.6781 20.7405 12.4069 20.7405 11.1206C20.7405 11.1188 20.7405 11.1187 20.7405 11.1187C20.7405 9.83438 20.4836 8.56125 19.9849 7.37812C19.4993 6.23438 18.798 5.19563 17.9205 4.32C17.043 3.44063 16.0043 2.74125 14.8624 2.25563C13.6774 1.755 12.4061 1.49813 11.1199 1.5C9.83362 1.49813 8.56238 1.755 7.37738 2.25563C6.2355 2.74125 5.19675 3.44063 4.31925 4.32C3.44175 5.19563 2.7405 6.23438 2.25675 7.37625C1.75613 8.56125 1.49925 9.83438 1.49925 11.1206C1.49925 12.405 1.75613 13.6781 2.25675 14.8631C2.7405 16.005 3.44175 17.0438 4.31925 17.9213C5.19675 18.7987 6.2355 19.5 7.37738 19.9838C8.56238 20.4844 9.83362 20.7413 11.118 20.7394H11.1199C11.1199 20.7394 11.1199 20.7394 11.1217 20.7394C12.4061 20.7413 13.6793 20.4844 14.8624 19.9838C15.9326 19.5304 16.9121 18.8861 17.7538 18.0853C17.7891 18.0148 17.8357 17.9499 17.8924 17.8931C17.9492 17.8363 18.0143 17.7898 18.0846 17.7546Z" fill="#323232"/>
</svg>
