<svg width="36" height="36" viewBox="0 0 36 36" fill="none" xmlns="http://www.w3.org/2000/svg">
<path d="M18 0C8.07484 0 0 8.07484 0 18C0 27.9244 8.07484 36 18 36C27.9244 36 36 27.9244 36 18C36 8.07484 27.9259 0 18 0ZM26.0299 13.8803C26.0379 14.0586 26.0422 14.2385 26.0422 14.4183C26.0422 19.8931 21.8761 26.2039 14.2537 26.2039C11.914 26.2039 9.73592 25.5202 7.903 24.3442C8.2271 24.3826 8.557 24.4022 8.89124 24.4022C10.8329 24.4022 12.6187 23.7395 14.0369 22.6287C12.2243 22.5953 10.6937 21.3976 10.1666 19.751C10.4189 19.7988 10.6792 19.8257 10.9453 19.8257C11.323 19.8257 11.6899 19.7764 12.0372 19.6814C10.1419 19.3015 8.71433 17.6273 8.71433 15.6189C8.71433 15.6015 8.71433 15.5834 8.71506 15.5667C9.27334 15.8763 9.91211 16.0634 10.5908 16.0844C9.47998 15.3427 8.74841 14.0739 8.74841 12.6368C8.74841 11.877 8.95215 11.165 9.30887 10.5531C11.3513 13.0603 14.4052 14.709 17.8477 14.883C17.7767 14.5792 17.7412 14.2638 17.7412 13.9383C17.7412 11.6508 19.5958 9.79538 21.8833 9.79538C23.0753 9.79538 24.1506 10.2986 24.9075 11.1034C25.8523 10.9177 26.7368 10.5741 27.5394 10.0977C27.2277 11.0657 26.5729 11.877 25.7152 12.3903C26.5541 12.2903 27.3545 12.0684 28.0948 11.7385C27.5423 12.568 26.8398 13.2981 26.0299 13.8803Z" fill="#21125E"/>
</svg>
