<?xml version="1.0" encoding="utf-8"?>
<!-- Generator: Adobe Illustrator 19.1.0, SVG Export Plug-In . SVG Version: 6.00 Build 0)  -->
<svg version="1.1" id="Layer_1" xmlns="http://www.w3.org/2000/svg" xmlns:xlink="http://www.w3.org/1999/xlink" x="0px" y="0px"
	 viewBox="0 0 159.6 71.2" style="enable-background:new 0 0 159.6 71.2;" xml:space="preserve">
<style type="text/css">
	.st0{fill:#231F20;}
</style>
<g>
	<g>
		<path class="st0" d="M6.6,54.5l3.4-30.1l4.5-0.4l8.3,16l12.7-17.8l4.7-0.4l-3.4,30.1l-5,0.4l2.3-20.1L22.2,48.7l-8.1-15.4
			l-2.4,20.8L6.6,54.5z"/>
		<path class="st0" d="M43.4,51.3l3.4-30.1l18.8-1.6l-0.6,4.9l-13.5,1.2l-0.8,7.2l12.6-1.1l-0.5,4.8l-12.6,1.1L49.3,46l13.8-1.2
			l-0.6,4.9L43.4,51.3z"/>
		<path class="st0" d="M65.1,49.4l15.8-31.2l4.5-0.4l8.9,29l-5.2,0.5l-1.7-5.8l-13.1,1.1L71,48.9L65.1,49.4z M76.4,38.1l9.6-0.8
			l-3.4-11.5L76.4,38.1z"/>
		<path class="st0" d="M98.3,46.5l3.4-30.1l4.5-0.4l13.4,19.9l2.4-21.3l5.1-0.4l-3.4,30.1l-4.2,0.4l-13.7-20.3l-2.5,21.7L98.3,46.5z
			"/>
		<path class="st0" d="M133,34.3c1.3,3.1,3.7,4.5,7.3,4.2c1.5-0.1,2.8-0.7,3.7-1.6c1-1,1.4-2,1.3-3.1c-0.2-2.2-1.8-3-5.7-4.4
			c-4.4-1.5-7.1-3.5-7.5-7.3c-0.2-2.4,0.5-4.5,2.3-6.4c1.8-1.9,4.1-3,6.9-3.2c4.4-0.4,7.9,1.5,9.3,4.5l-4,2.9
			c-0.9-1.8-2.8-2.8-5.2-2.6c-2.5,0.2-4.3,2-4.1,3.9c0.1,1.1,0.5,1.8,1.8,2.5l1.7,0.8l2.6,0.9c4.5,1.5,6.8,4,7.1,7.4
			c0.2,2.6-0.6,5-2.5,7.1c-1.9,2.1-4.5,3.3-7.8,3.5c-2.8,0.2-5.2-0.2-7.3-1.3c-2.1-1.1-3.4-2.8-4.1-4.9L133,34.3z"/>
	</g>
	<g>
		<polygon class="st0" points="6.4,62.6 6.4,58.6 152.7,46 152.7,50 		"/>
	</g>
	<g>
		<polygon class="st0" points="10,20.2 10,16.2 156.4,3.5 156.3,7.5 		"/>
	</g>
</g>
</svg>
