<svg class="tile__icon" width="134" height="128" fill="none" xmlns="http://www.w3.org/2000/svg"><path d="M109.207 47.57c-3.298-8.044-2.006-16.192 2.886-18.198 4.892-2.006 11.532 2.89 14.831 10.935 3.298 8.045 2.006 16.192-2.886 18.198-4.892 2.006-11.532-2.89-14.831-10.934z" fill="#EBF1F6" stroke="#32335A" stroke-linecap="round" stroke-linejoin="round"/><path d="M118.088 30.046v13.892l-7.639-13.674c1.95-1.494 4.649-1.704 7.639-.218z" fill="#fff" stroke="#32335A" stroke-linecap="round" stroke-linejoin="round"/><path d="M123.467 69.902l-8.104-4.047M112.665 64.515l-5.406-2.699M117.831 71.157l-10.803-5.388" stroke="#32335A" stroke-miterlimit="10"/><path d="M82.197 35.296c-3.299-8.045-2.007-16.193 2.885-18.2 4.893-2.005 11.533 2.89 14.831 10.936 3.299 8.045 2.007 16.193-2.885 18.199-4.893 2.005-11.532-2.89-14.831-10.935z" fill="#EBF1F6" stroke="#32335A" stroke-linecap="round" stroke-linejoin="round"/><path d="M83.502 17.867c1.994-1.558 4.739-1.771 7.77-.26V31.74l-7.77 6.12a24.453 24.453 0 01-3.218-11.6c0-3.913 1.234-6.825 3.218-8.392z" fill="#fff" stroke="#32335A" stroke-linecap="round" stroke-linejoin="round"/><path d="M99.154 57.778l-16.198-8.086M99.154 61.251l-8.103-4.038" stroke="#32335A" stroke-miterlimit="10"/><path d="M72.1 12.473l.436-.245.21.373-.337.265-.309-.393zm0 0l-.434.248-.214-.374.34-.267.308.393zm-7.639-7.876h-.5v-.808l.723.36-.223.448zm0 13.892h.5v.243l-.19.15-.31-.393zm0 0l-.224.448-.704-.353.619-.487.31.392zm0 0l.224-.447.276.139v.309h-.5zm0 0l.314.39-.814.656V18.49h.5zm0 0l-.314-.389.25-.201.287.143-.223.448zm10.802 5.388l.5-.01.018.827-.74-.37.222-.447zm-2.854-11.01l-.618-.787.618.786zM64.684 4.15c3.097 1.543 5.86 4.539 7.852 8.078l-.871.49c-1.928-3.425-4.562-6.246-7.427-7.673l.446-.895zm-.723 14.34V4.596h1v13.892h-1zm.19-.393l.62.785-.62-.785zm.087.84l.447-.895-.447.895zm-.277-.447h1-1zm.814.389l-.628-.779.628.779zm10.265 5.445l-10.802-5.387.446-.895 10.803 5.388-.447.895zm-2.506-12.099a24.539 24.539 0 013.23 11.641l-1 .022a23.537 23.537 0 00-3.098-11.167l.868-.496z" fill="#32335A"/><path d="M56.812 4.861c1.96-1.54 4.659-1.75 7.649-.264V18.49l10.802 5.387c0 3.838-1.213 6.71-3.163 8.25-1.951 1.54-4.658 1.741-7.64.255a19.143 19.143 0 01-7.648-7.876 24.038 24.038 0 01-3.163-11.404c0-3.838 1.213-6.7 3.163-8.24z" fill="#fff" stroke="#32335A" stroke-linecap="round" stroke-linejoin="round"/><path d="M72.565 45.082l-2.708-1.34M67.16 42.393l-10.803-5.388M72.565 48.555l-13.51-6.727" stroke="#32335A" stroke-miterlimit="10"/><path d="M6.337 77.848l98.161 49.068V50.152L6.337 1.084v76.764z" fill="#EBF1F6" stroke="#32335A" stroke-width="1.34"/><path d="M51.895 88.719l-37.31-18.656V22.72l37.31 18.656v47.343zM96.623 111.041l-37.31-18.656V45.042l37.31 18.655v47.344z" stroke="#32335A" stroke-opacity=".4" stroke-width=".5" stroke-miterlimit="10" stroke-linecap="round" stroke-linejoin="round" stroke-dasharray="1 3"/><path d="M38.024 60.721l.001-6.01-5.015-6.529-5.156 1.48v6.01l5.154 6.5 5.016-1.45z" fill="#fff"/><path d="M38.025 54.711v6.01l-5.017 1.45-5.155-6.499.001-6.01m10.171 5.05l-5.015-6.53-5.156 1.48m10.171 5.05l-5.016 1.45-5.155-6.5M32.952 56.1v5.356" stroke="#32335A" stroke-opacity=".4" stroke-width=".5" stroke-linecap="round" stroke-dasharray="1 3"/><path d="M84.664 71.622l-5.092 2.546L42.308 55.56l5.092-2.546 37.264 18.608z" fill="#fff" stroke="#32335A" stroke-width=".75" stroke-miterlimit="10" stroke-linecap="round" stroke-linejoin="round"/><path d="M84.665 119.053l-5.04 2.52V74.131l5.04-2.52v47.442z" fill="#fff" stroke="#32335A" stroke-width=".7" stroke-miterlimit="10" stroke-linecap="round" stroke-linejoin="round"/><path d="M79.626 121.574l-37.311-18.656V55.575l37.31 18.655v47.344z" fill="#fff" stroke="#32335A" stroke-width=".75" stroke-miterlimit="10" stroke-linecap="round" stroke-linejoin="round"/><path d="M60.907 94.607l4.687-1.355v-5.694l-4.686-6.101-4.822 1.384v5.689l4.82 6.077z" fill="#fff" stroke="#32335A" stroke-width=".7"/><path d="M60.853 88.955v5.356" stroke="#32335A" stroke-width=".7"/><path d="M99.04 50.251L1 1.231v4.105L99.04 54.33V50.25z" fill="#EBF1F6" stroke="#32335A" stroke-width=".59" stroke-miterlimit="10"/><path d="M7.956 7.484c-.308-.385-.359-.846-.128-1.026.23-.18.667-.026.95.36.307.384.358.846.127 1.025-.23.205-.667.026-.949-.359zM5.212 6.099c-.308-.385-.36-.847-.128-1.026.23-.18.667-.026.949.359.308.385.359.847.128 1.026-.23.18-.667.026-.949-.359zM2.468 4.688c-.308-.385-.36-.846-.129-1.026.231-.18.667-.026.95.36.307.384.359.846.128 1.025-.231.205-.667.026-.95-.359z" fill="#fff" stroke="#28234A" stroke-width=".59" stroke-miterlimit="10" stroke-linecap="round" stroke-linejoin="round"/></svg>