<svg class="tile__icon" fill="none" viewBox="0 0 106 128" xmlns="http://www.w3.org/2000/svg"><path d="M6.337 77.848l98.16 49.068V50.152L6.338 1.084v76.764z" fill="#EBF1F6" stroke="#28234A" stroke-width="1.34"/><path d="M52.302 89.124L14.991 70.469V23.126l37.311 18.655v47.343z" fill="#fff" opacity=".8" stroke="#32335A" stroke-linejoin="round" stroke-miterlimit="10" stroke-width=".75"/><g opacity=".4" stroke="#247FFF" stroke-width=".5"><path transform="matrix(.94652 .46984 .00012 -.93987 18.148 47.644)" d="M0-.25h3.174"/><path transform="matrix(.94652 .46984 .00012 -.93987 19.808 44.53)" opacity=".4" d="M0-.25h3.6"/><path transform="matrix(.94652 .46984 .00012 -.93987 19.531 47.021)" d="M0-.25h2.288"/><path transform="matrix(.94652 .46984 .00012 -.93987 22.29 48.391)" d="M0-.25h2.288"/><path transform="matrix(.94652 .46984 .00012 -.93987 21.903 49.508)" opacity=".44" d="M0-.25h7.275"/><path transform="matrix(.94652 .46984 .00012 -.93987 18.148 30.301)" d="M0-.25h3.174"/><path transform="matrix(.94652 .46984 .00012 -.93987 21.903 32.165)" opacity=".44" d="M0-.25h7.275"/><path transform="matrix(.94652 .46984 .00012 -.93987 29.919 53.487)" d="M0-.25h2.464"/><path transform="matrix(.94652 .46984 .00012 -.93987 29.16 53.11)" d="M0-.25h.459"/><path transform="matrix(.94652 .46984 .00012 -.93987 25.002 49.737)" d="M0-.25h.459"/><path transform="matrix(.94652 .46984 .00012 -.93987 23.421 46.324)" d="M0-.25h.459"/><path transform="matrix(.94652 .46984 .00012 -.93987 24.239 46.73)" d="M0-.25h2.552"/><path transform="matrix(.94652 .46984 .00012 -.93987 31.641 50.404)" opacity=".4" d="M0-.25h2.917"/><path transform="matrix(.94652 .46984 .00012 -.93987 27.952 48.573)" d="M0-.25h2.913"/><path transform="matrix(.94652 .46984 .00012 -.93987 27.137 48.168)" d="M0-.25h.459"/><path transform="matrix(.94652 .46984 .00012 -.93987 30.931 50.052)" d="M0-.25h.459"/><path transform="matrix(.94652 .46984 .00012 -.93987 34.971 52.057)" d="M0-.25h.459"/><path transform="matrix(.94652 .46984 .00012 -.93987 35.888 52.512)" d="M0-.25h.459"/><path transform="matrix(.94652 .46984 .00012 -.93987 36.876 53.003)" d="M0-.25h.459"/><path transform="matrix(.94652 .46984 .00012 -.93987 25.847 50.157)" d="M0-.25h1.019"/><path transform="matrix(.94652 .46984 .00012 -.93987 21.255 43.864)" opacity=".4" d="M0-.25h2.288"/><path transform="matrix(.94652 .46984 .00012 -.93987 24.014 45.233)" d="M0-.25h1.503"/><path transform="matrix(.94652 .46984 .00012 -.93987 25.963 46.201)" d="M0-.25h.459"/><path transform="matrix(.94652 .46984 .00012 -.93987 32.038 49.216)" d="M0-.25h.459"/><path transform="matrix(.94652 .46984 .00012 -.93987 40.307 53.321)" d="M0-.25h.459"/><path transform="matrix(.94652 .46984 .00012 -.93987 41.034 53.682)" d="M0-.25h.459"/><path transform="matrix(.94652 .46984 .00012 -.93987 41.778 54.051)" d="M0-.25h.459"/><path transform="matrix(.94652 .46984 .00012 -.93987 42.474 54.396)" d="M0-.25h.459"/><path transform="matrix(.94652 .46984 .00012 -.93987 26.812 46.623)" opacity=".4" d="M0-.25h2.172"/><path transform="matrix(.94652 .46984 .00012 -.93987 21.255 42.526)" d="M0-.25h2.288"/><path transform="matrix(.94652 .46984 .00012 -.93987 24.014 43.896)" d="M0-.25h2.288"/><path transform="matrix(.94652 .46984 .00012 -.93987 26.726 45.242)" d="M0-.25h.459"/><path transform="matrix(.94652 .46984 .00012 -.93987 27.572 45.662)" d="M0-.25h1.779"/><path transform="matrix(.94652 .46984 .00012 -.93987 32.346 48.032)" d="M0-.25h2.172"/><path transform="matrix(.94652 .46984 .00012 -.93987 34.971 49.335)" d="M0-.25h4.51"/><path transform="matrix(.94652 .46984 .00012 -.93987 39.501 51.583)" d="M0-.25h.393"/><path transform="matrix(.94652 .46984 .00012 -.93987 41.098 52.376)" d="M0-.25h.393"/><path transform="matrix(.94652 .46984 .00012 -.93987 40.308 51.984)" d="M0-.25h.393"/><path transform="matrix(.94652 .46984 .00012 -.93987 41.904 52.776)" d="M0-.25h.393"/><path transform="matrix(.94652 .46984 .00012 -.93987 42.691 53.167)" d="M0-.25h.393"/><path transform="matrix(.94652 .46984 .00012 -.93987 43.418 53.528)" d="M0-.25h.393"/><path transform="matrix(.94652 .46984 .00012 -.93987 21.255 41.189)" d="M0-.25h2.288"/><path transform="matrix(.94652 .46984 .00012 -.93987 24.014 42.558)" d="M0-.25h2.288"/><path transform="matrix(.94652 .46984 .00012 -.93987 26.726 43.904)" d="M0-.25h.459"/><path transform="matrix(.94652 .46984 .00012 -.93987 30.069 45.564)" d="M0-.25h.727"/><path transform="matrix(.94652 .46984 .00012 -.93987 38.243 49.621)" d="M0-.25h1.137"/><path transform="matrix(.94652 .46984 .00012 -.93987 39.666 50.328)" d="M0-.25h.678"/><path transform="matrix(.94652 .46984 .00012 -.93987 27.572 44.324)" d="M0-.25h2.322"/><path transform="matrix(.94652 .46984 .00012 -.93987 29.309 47.862)" d="M0-.25h2.332"/><path transform="matrix(.94652 .46984 .00012 -.93987 33.112 49.75)" d="M0-.25h2.332"/><path transform="matrix(.94652 .46984 .00012 -.93987 35.773 51.07)" d="M0-.25h4.523"/><path transform="matrix(.94652 .46984 .00012 -.93987 29.682 46.709)" d="M0-.25h2.297"/><path transform="matrix(.94652 .46984 .00012 -.93987 31.082 46.066)" d="M0-.25h2.322"/><path transform="matrix(.94652 .46984 .00012 -.93987 33.691 47.361)" d="M0-.25h4.552"/></g><path transform="matrix(.94652 .46984 .00012 -.93987 21.256 38.551)" stroke="#247FFF" stroke-width=".5" d="M0-.25h3.049"/><path transform="matrix(.94652 .46984 .00012 -.93987 23.509 38.332)" stroke="#247FFF" stroke-width=".5" d="M0-.25h5.579"/><path transform="matrix(.94652 .46984 .00012 -.93987 23.509 36.994)" stroke="#247FFF" stroke-width=".5" d="M0-.25h3.742"/><path transform="matrix(.94652 .46984 .00012 -.93987 29.958 40.196)" stroke="#247FFF" stroke-width=".5" d="M0-.25h2.181"/><path transform="matrix(.94652 .46984 .00012 -.93987 33.28 41.844)" stroke="#247FFF" stroke-width=".5" d="M0-.25h2.181"/><path transform="matrix(.94652 .46984 .00012 -.93987 36.585 43.485)" stroke="#247FFF" stroke-width=".5" d="M0-.25h2.673"/><path transform="matrix(.94652 .46983 .00012 -.93987 32.379 41.397)" stroke="#247FFF" stroke-width=".5" d="M0-.25h.501"/><path transform="matrix(.94652 .46983 .00012 -.93987 35.608 43)" stroke="#247FFF" stroke-width=".5" d="M0-.25h.501"/><path transform="matrix(.94652 .46984 .00012 -.93987 32.023 42.558)" stroke="#247FFF" stroke-width=".5" d="M0-.25h3.809"/><path transform="matrix(.94652 .46984 .00012 -.93987 30.379 41.742)" stroke="#247FFF" stroke-width=".5" d="M0-.25h.677"/><path transform="matrix(.94652 .46984 .00012 -.93987 31.216 42.158)" stroke="#247FFF" stroke-width=".5" d="M0-.25h.677"/><path transform="matrix(.94652 .46984 .00012 -.93987 35.912 44.489)" stroke="#247FFF" stroke-width=".5" d="M0-.25h7.162"/><path transform="matrix(.94652 .46984 .00012 -.93987 43.063 48.038)" stroke="#247FFF" stroke-width=".5" d="M0-.25h4.706"/><path transform="matrix(.94652 .46984 .00012 -.93987 47.806 50.393)" stroke="#247FFF" stroke-width=".5" d="M0-.25h1.09"/><path transform="matrix(.94652 .46984 .00012 -.93987 24.738 40.28)" stroke="#247FFF" stroke-width=".5" d="M0-.25h3.049"/><path transform="matrix(.94652 .46984 .00012 -.93987 28.22 42.008)" stroke="#247FFF" stroke-width=".5" d="M0-.25h.601"/><path transform="matrix(.94652 .46984 .00012 -.93987 29.114 42.452)" stroke="#247FFF" stroke-width=".5" d="M0-.25h.601"/><path transform="matrix(.94652 .46984 .00012 -.93987 21.382 34.62)" stroke="#247FFF" stroke-width=".5" d="M0-.25h.601"/><path transform="matrix(.94652 .46984 .00012 -.93987 19.809 32.444)" stroke="#247FFF" stroke-width=".5" d="M0-.25h.601"/><path transform="matrix(.94652 .46984 .00012 -.93987 29.958 42.871)" stroke="#247FFF" stroke-width=".5" d="M0-.25h.601"/><path d="M94.148 109.84L56.837 91.184V43.841l37.311 18.655v47.343z" stroke="#32335A" stroke-dasharray="1 5" stroke-linecap="round" stroke-linejoin="round" stroke-miterlimit="10" stroke-opacity=".4" stroke-width=".75"/><path d="M85.26 111.83L47.949 93.174V45.831L85.26 64.486v47.343z" fill="#fff" stroke="#28234A" stroke-linecap="round" stroke-linejoin="round" stroke-miterlimit="10" stroke-width=".75"/><g opacity=".4" stroke="#247FFF" stroke-width=".5"><path transform="matrix(.94652 .46984 .00012 -.93987 50.224 69.952)" d="M0-.25h3.174"/><path transform="matrix(.94652 .46984 .00012 -.93987 51.884 66.838)" opacity=".4" d="M0-.25h3.6"/><path transform="matrix(.94652 .46984 .00012 -.93987 51.608 69.329)" d="M0-.25h2.288"/><path transform="matrix(.94652 .46984 .00012 -.93987 54.366 70.698)" d="M0-.25h2.288"/><path transform="matrix(.94652 .46984 .00012 -.93987 53.979 71.816)" opacity=".44" d="M0-.25h7.275"/><path transform="matrix(.94652 .46984 .00012 -.93987 50.224 52.608)" d="M0-.25h3.174"/><path transform="matrix(.94652 .46984 .00012 -.93987 53.979 54.472)" opacity=".44" d="M0-.25h7.275"/><path transform="matrix(.94652 .46984 .00012 -.93987 61.995 75.795)" d="M0-.25h2.464"/><path transform="matrix(.94652 .46984 .00012 -.93987 61.236 75.418)" d="M0-.25h.459"/><path transform="matrix(.94652 .46984 .00012 -.93987 57.078 72.044)" d="M0-.25h.459"/><path transform="matrix(.94652 .46984 .00012 -.93987 55.497 68.631)" d="M0-.25h.459"/><path transform="matrix(.94652 .46984 .00012 -.93987 56.316 69.038)" d="M0-.25h2.552"/><path transform="matrix(.94652 .46984 .00012 -.93987 63.717 72.712)" opacity=".4" d="M0-.25h2.917"/><path transform="matrix(.94652 .46984 .00012 -.93987 60.029 70.881)" d="M0-.25h2.913"/><path transform="matrix(.94652 .46984 .00012 -.93987 59.213 70.476)" d="M0-.25h.459"/><path transform="matrix(.94652 .46984 .00012 -.93987 63.008 72.359)" d="M0-.25h.459"/><path transform="matrix(.94652 .46984 .00012 -.93987 67.047 74.365)" d="M0-.25h.459"/><path transform="matrix(.94652 .46984 .00012 -.93987 67.964 74.82)" d="M0-.25h.459"/><path transform="matrix(.94652 .46984 .00012 -.93987 68.952 75.31)" d="M0-.25h.459"/><path transform="matrix(.94652 .46984 .00012 -.93987 57.924 72.464)" d="M0-.25h1.019"/><path transform="matrix(.94652 .46984 .00012 -.93987 53.331 66.172)" opacity=".4" d="M0-.25h2.288"/><path transform="matrix(.94652 .46984 .00012 -.93987 56.09 67.541)" d="M0-.25h1.503"/><path transform="matrix(.94652 .46984 .00012 -.93987 58.039 68.508)" d="M0-.25h.459"/><path transform="matrix(.94652 .46984 .00012 -.93987 64.115 71.524)" d="M0-.25h.459"/><path transform="matrix(.94652 .46984 .00012 -.93987 72.384 75.629)" d="M0-.25h.459"/><path transform="matrix(.94652 .46984 .00012 -.93987 73.111 75.99)" d="M0-.25h.459"/><path transform="matrix(.94652 .46984 .00012 -.93987 73.854 76.359)" d="M0-.25h.459"/><path transform="matrix(.94652 .46984 .00012 -.93987 74.55 76.704)" d="M0-.25h.459"/><path transform="matrix(.94652 .46984 .00012 -.93987 58.889 68.93)" opacity=".4" d="M0-.25h2.172"/><path transform="matrix(.94652 .46984 .00012 -.93987 53.332 64.834)" d="M0-.25h2.288"/><path transform="matrix(.94652 .46984 .00012 -.93987 56.091 66.203)" d="M0-.25h2.288"/><path transform="matrix(.94652 .46984 .00012 -.93987 58.802 67.549)" d="M0-.25h.459"/><path transform="matrix(.94652 .46984 .00012 -.93987 59.648 67.969)" d="M0-.25h1.779"/><path transform="matrix(.94652 .46984 .00012 -.93987 64.423 70.34)" d="M0-.25h2.172"/><path transform="matrix(.94652 .46984 .00012 -.93987 67.048 71.642)" d="M0-.25h4.51"/><path transform="matrix(.94652 .46984 .00012 -.93987 71.578 73.891)" d="M0-.25h.393"/><path transform="matrix(.94652 .46984 .00012 -.93987 73.174 74.684)" d="M0-.25h.393"/><path transform="matrix(.94652 .46984 .00012 -.93987 72.384 74.291)" d="M0-.25h.393"/><path transform="matrix(.94652 .46984 .00012 -.93987 73.981 75.084)" d="M0-.25h.393"/><path transform="matrix(.94652 .46984 .00012 -.93987 74.768 75.474)" d="M0-.25h.393"/><path transform="matrix(.94652 .46984 .00012 -.93987 75.495 75.835)" d="M0-.25h.393"/><path transform="matrix(.94652 .46984 .00012 -.93987 53.332 63.496)" d="M0-.25h2.288"/><path transform="matrix(.94652 .46984 .00012 -.93987 56.091 64.866)" d="M0-.25h2.288"/><path transform="matrix(.94652 .46984 .00012 -.93987 58.802 66.212)" d="M0-.25h.459"/><path transform="matrix(.94652 .46984 .00012 -.93987 62.145 67.871)" d="M0-.25h.727"/><path transform="matrix(.94652 .46984 .00012 -.93987 70.32 71.929)" d="M0-.25h1.137"/><path transform="matrix(.94652 .46984 .00012 -.93987 71.743 72.635)" d="M0-.25h.678"/><path transform="matrix(.94652 .46984 .00012 -.93987 59.648 66.632)" d="M0-.25h2.322"/><path transform="matrix(.94652 .46984 .00012 -.93987 61.386 70.17)" d="M0-.25h2.332"/><path transform="matrix(.94652 .46984 .00012 -.93987 65.189 72.057)" d="M0-.25h2.332"/><path transform="matrix(.94652 .46984 .00012 -.93987 67.849 73.378)" d="M0-.25h4.523"/><path transform="matrix(.94652 .46984 .00012 -.93987 61.759 69.017)" d="M0-.25h2.297"/><path transform="matrix(.94652 .46984 .00012 -.93987 63.159 68.374)" d="M0-.25h2.322"/><path transform="matrix(.94652 .46984 .00012 -.93987 65.768 69.669)" d="M0-.25h4.552"/></g><path transform="matrix(.94652 .46984 .00012 -.93987 53.332 60.859)" stroke="#247FFF" stroke-width=".5" d="M0-.25h3.049"/><path d="M52.427 55.662v6.176l29.286 14.366v-6.176L52.427 55.662z" stroke="#2D294F" stroke-dasharray="2 6" stroke-linecap="round" stroke-linejoin="round" stroke-width=".2"/><path transform="matrix(.94652 .46984 .00012 -.93987 55.585 60.639)" stroke="#247FFF" stroke-width=".5" d="M0-.25h5.579"/><path transform="matrix(.94652 .46984 .00012 -.93987 55.585 59.302)" stroke="#247FFF" stroke-width=".5" d="M0-.25h3.742"/><path transform="matrix(.94652 .46984 .00012 -.93987 62.034 62.503)" stroke="#247FFF" stroke-width=".5" d="M0-.25h2.181"/><path transform="matrix(.94652 .46984 .00012 -.93987 65.356 64.152)" stroke="#247FFF" stroke-width=".5" d="M0-.25h2.181"/><path transform="matrix(.94652 .46984 .00012 -.93987 68.661 65.792)" stroke="#247FFF" stroke-width=".5" d="M0-.25h2.673"/><path transform="matrix(.94652 .46983 .00012 -.93987 64.455 63.705)" stroke="#247FFF" stroke-width=".5" d="M0-.25h.501"/><path transform="matrix(.94652 .46983 .00012 -.93987 67.684 65.308)" stroke="#247FFF" stroke-width=".5" d="M0-.25h.501"/><path transform="matrix(.94652 .46984 .00012 -.93987 64.099 64.866)" stroke="#247FFF" stroke-width=".5" d="M0-.25h3.809"/><path transform="matrix(.94652 .46984 .00012 -.93987 62.455 64.05)" stroke="#247FFF" stroke-width=".5" d="M0-.25h.677"/><path transform="matrix(.94652 .46984 .00012 -.93987 63.292 64.466)" stroke="#247FFF" stroke-width=".5" d="M0-.25h.677"/><path transform="matrix(.94652 .46984 .00012 -.93987 67.988 66.796)" stroke="#247FFF" stroke-width=".5" d="M0-.25h7.162"/><path transform="matrix(.94652 .46984 .00012 -.93987 75.139 70.346)" stroke="#247FFF" stroke-width=".5" d="M0-.25h4.706"/><path transform="matrix(.94652 .46984 .00012 -.93987 79.882 72.7)" stroke="#247FFF" stroke-width=".5" d="M0-.25h1.09"/><path transform="matrix(.94652 .46984 .00012 -.93987 56.814 62.587)" stroke="#247FFF" stroke-width=".5" d="M0-.25h3.049"/><path transform="matrix(.94652 .46984 .00012 -.93987 60.296 64.316)" stroke="#247FFF" stroke-width=".5" d="M0-.25h.601"/><path transform="matrix(.94652 .46984 .00012 -.93987 61.19 64.759)" stroke="#247FFF" stroke-width=".5" d="M0-.25h.601"/><path transform="matrix(.94652 .46984 .00012 -.93987 53.459 56.927)" stroke="#247FFF" stroke-width=".5" d="M0-.25h.601"/><path transform="matrix(.94652 .46984 .00012 -.93987 51.886 54.752)" stroke="#247FFF" stroke-width=".5" d="M0-.25h.601"/><path transform="matrix(.94652 .46984 .00012 -.93987 62.034 65.178)" stroke="#247FFF" stroke-width=".5" d="M0-.25h.601"/><g opacity=".4" stroke="#247FFF" stroke-width=".5"><path transform="matrix(.94652 .46984 .00012 -.93987 50.224 88.686)" d="M0-.25h3.174"/><path transform="matrix(.94652 .46984 .00012 -.93987 51.884 85.572)" opacity=".4" d="M0-.25h3.6"/><path transform="matrix(.94652 .46984 .00012 -.93987 51.608 88.063)" d="M0-.25h2.288"/><path transform="matrix(.94652 .46984 .00012 -.93987 54.366 89.433)" d="M0-.25h2.288"/><path transform="matrix(.94652 .46984 .00012 -.93987 53.979 90.55)" opacity=".44" d="M0-.25h7.275"/><path transform="matrix(.94652 .46984 .00012 -.93987 50.224 71.343)" d="M0-.25h3.174"/><path transform="matrix(.94652 .46984 .00012 -.93987 53.979 73.207)" opacity=".44" d="M0-.25h7.275"/><path transform="matrix(.94652 .46984 .00012 -.93987 61.995 94.529)" d="M0-.25h2.464"/><path transform="matrix(.94652 .46984 .00012 -.93987 61.236 94.152)" d="M0-.25h.459"/><path transform="matrix(.94652 .46984 .00012 -.93987 57.078 90.779)" d="M0-.25h.459"/><path transform="matrix(.94652 .46984 .00012 -.93987 55.497 87.366)" d="M0-.25h.459"/><path transform="matrix(.94652 .46984 .00012 -.93987 56.316 87.772)" d="M0-.25h2.552"/><path transform="matrix(.94652 .46984 .00012 -.93987 63.717 91.446)" opacity=".4" d="M0-.25h2.917"/><path transform="matrix(.94652 .46984 .00012 -.93987 60.029 89.615)" d="M0-.25h2.913"/><path transform="matrix(.94652 .46984 .00012 -.93987 59.213 89.21)" d="M0-.25h.459"/><path transform="matrix(.94652 .46984 .00012 -.93987 63.008 91.094)" d="M0-.25h.459"/><path transform="matrix(.94652 .46984 .00012 -.93987 67.047 93.099)" d="M0-.25h.459"/><path transform="matrix(.94652 .46984 .00012 -.93987 67.964 93.554)" d="M0-.25h.459"/><path transform="matrix(.94652 .46984 .00012 -.93987 68.952 94.045)" d="M0-.25h.459"/><path transform="matrix(.94652 .46984 .00012 -.93987 57.924 91.199)" d="M0-.25h1.019"/><path transform="matrix(.94652 .46984 .00012 -.93987 53.331 84.906)" opacity=".4" d="M0-.25h2.288"/><path transform="matrix(.94652 .46984 .00012 -.93987 56.09 86.275)" d="M0-.25h1.503"/><path transform="matrix(.94652 .46984 .00012 -.93987 58.039 87.243)" d="M0-.25h.459"/><path transform="matrix(.94652 .46984 .00012 -.93987 64.115 90.258)" d="M0-.25h.459"/><path transform="matrix(.94652 .46984 .00012 -.93987 72.384 94.363)" d="M0-.25h.459"/><path transform="matrix(.94652 .46984 .00012 -.93987 73.111 94.724)" d="M0-.25h.459"/><path transform="matrix(.94652 .46984 .00012 -.93987 73.854 95.093)" d="M0-.25h.459"/><path transform="matrix(.94652 .46984 .00012 -.93987 74.55 95.438)" d="M0-.25h.459"/><path transform="matrix(.94652 .46984 .00012 -.93987 58.889 87.665)" opacity=".4" d="M0-.25h2.172"/><path transform="matrix(.94652 .46984 .00012 -.93987 53.332 83.568)" d="M0-.25h2.288"/><path transform="matrix(.94652 .46984 .00012 -.93987 56.091 84.938)" d="M0-.25h2.288"/><path transform="matrix(.94652 .46984 .00012 -.93987 58.802 86.284)" d="M0-.25h.459"/><path transform="matrix(.94652 .46984 .00012 -.93987 59.648 86.704)" d="M0-.25h1.779"/><path transform="matrix(.94652 .46984 .00012 -.93987 64.423 89.074)" d="M0-.25h2.172"/><path transform="matrix(.94652 .46984 .00012 -.93987 67.048 90.377)" d="M0-.25h4.51"/><path transform="matrix(.94652 .46984 .00012 -.93987 71.578 92.625)" d="M0-.25h.393"/><path transform="matrix(.94652 .46984 .00012 -.93987 73.174 93.418)" d="M0-.25h.393"/><path transform="matrix(.94652 .46984 .00012 -.93987 72.384 93.026)" d="M0-.25h.393"/><path transform="matrix(.94652 .46984 .00012 -.93987 73.981 93.818)" d="M0-.25h.393"/><path transform="matrix(.94652 .46984 .00012 -.93987 74.768 94.209)" d="M0-.25h.393"/><path transform="matrix(.94652 .46984 .00012 -.93987 75.495 94.57)" d="M0-.25h.393"/><path transform="matrix(.94652 .46984 .00012 -.93987 53.332 82.231)" d="M0-.25h2.288"/><path transform="matrix(.94652 .46984 .00012 -.93987 56.091 83.6)" d="M0-.25h2.288"/><path transform="matrix(.94652 .46984 .00012 -.93987 58.802 84.946)" d="M0-.25h.459"/><path transform="matrix(.94652 .46984 .00012 -.93987 62.145 86.606)" d="M0-.25h.727"/><path transform="matrix(.94652 .46984 .00012 -.93987 70.32 90.663)" d="M0-.25h1.137"/><path transform="matrix(.94652 .46984 .00012 -.93987 71.743 91.37)" d="M0-.25h.678"/><path transform="matrix(.94652 .46984 .00012 -.93987 59.648 85.366)" d="M0-.25h2.322"/><path transform="matrix(.94652 .46984 .00012 -.93987 61.386 88.904)" d="M0-.25h2.332"/><path transform="matrix(.94652 .46984 .00012 -.93987 65.189 90.792)" d="M0-.25h2.332"/><path transform="matrix(.94652 .46984 .00012 -.93987 67.849 92.112)" d="M0-.25h4.523"/><path transform="matrix(.94652 .46984 .00012 -.93987 61.759 87.751)" d="M0-.25h2.297"/><path transform="matrix(.94652 .46984 .00012 -.93987 63.159 87.108)" d="M0-.25h2.322"/><path transform="matrix(.94652 .46984 .00012 -.93987 65.768 88.403)" d="M0-.25h4.552"/></g><path transform="matrix(.94652 .46984 .00012 -.93987 53.332 79.593)" stroke="#247FFF" stroke-width=".5" d="M0-.25h3.049"/><path d="M52.427 74.397v6.176L81.713 94.94v-6.176L52.427 74.397z" stroke="#2D294F" stroke-dasharray="2 6" stroke-linecap="round" stroke-linejoin="round" stroke-width=".2"/><path transform="matrix(.94652 .46984 .00012 -.93987 55.585 79.374)" stroke="#247FFF" stroke-width=".5" d="M0-.25h5.579"/><path transform="matrix(.94652 .46984 .00012 -.93987 55.585 78.036)" stroke="#247FFF" stroke-width=".5" d="M0-.25h3.742"/><path transform="matrix(.94652 .46984 .00012 -.93987 62.034 81.238)" stroke="#247FFF" stroke-width=".5" d="M0-.25h2.181"/><path transform="matrix(.94652 .46984 .00012 -.93987 65.356 82.886)" stroke="#247FFF" stroke-width=".5" d="M0-.25h2.181"/><path transform="matrix(.94652 .46984 .00012 -.93987 68.661 84.527)" stroke="#247FFF" stroke-width=".5" d="M0-.25h2.673"/><path transform="matrix(.94652 .46983 .00012 -.93987 64.455 82.439)" stroke="#247FFF" stroke-width=".5" d="M0-.25h.501"/><path transform="matrix(.94652 .46983 .00012 -.93987 67.684 84.042)" stroke="#247FFF" stroke-width=".5" d="M0-.25h.501"/><path transform="matrix(.94652 .46984 .00012 -.93987 64.099 83.6)" stroke="#247FFF" stroke-width=".5" d="M0-.25h3.809"/><path transform="matrix(.94652 .46984 .00012 -.93987 62.455 82.784)" stroke="#247FFF" stroke-width=".5" d="M0-.25h.677"/><path transform="matrix(.94652 .46984 .00012 -.93987 63.292 83.2)" stroke="#247FFF" stroke-width=".5" d="M0-.25h.677"/><path transform="matrix(.94652 .46984 .00012 -.93987 67.988 85.531)" stroke="#247FFF" stroke-width=".5" d="M0-.25h7.162"/><path transform="matrix(.94652 .46984 .00012 -.93987 75.139 89.08)" stroke="#247FFF" stroke-width=".5" d="M0-.25h4.706"/><path transform="matrix(.94652 .46984 .00012 -.93987 79.882 91.435)" stroke="#247FFF" stroke-width=".5" d="M0-.25h1.09"/><path transform="matrix(.94652 .46984 .00012 -.93987 56.814 81.322)" stroke="#247FFF" stroke-width=".5" d="M0-.25h3.049"/><path transform="matrix(.94652 .46984 .00012 -.93987 60.296 83.05)" stroke="#247FFF" stroke-width=".5" d="M0-.25h.601"/><path transform="matrix(.94652 .46984 .00012 -.93987 61.19 83.494)" stroke="#247FFF" stroke-width=".5" d="M0-.25h.601"/><path transform="matrix(.94652 .46984 .00012 -.93987 53.459 75.662)" stroke="#247FFF" stroke-width=".5" d="M0-.25h.601"/><path transform="matrix(.94652 .46984 .00012 -.93987 51.886 73.486)" stroke="#247FFF" stroke-width=".5" d="M0-.25h.601"/><path transform="matrix(.94652 .46984 .00012 -.93987 62.034 83.913)" stroke="#247FFF" stroke-width=".5" d="M0-.25h.601"/><path d="M99.039 50.251L1 1.231v4.104L99.039 54.33v-4.078z" fill="#fff" stroke="#28234A" stroke-miterlimit="10" stroke-width=".59"/><path d="M7.956 7.484c-.308-.385-.359-.847-.128-1.026.23-.18.667-.026.949.36.308.384.36.846.128 1.025-.23.205-.667.026-.949-.359zM5.212 6.099c-.308-.385-.36-.847-.128-1.026.23-.18.667-.026.949.36.308.384.359.846.128 1.025s-.667.026-.949-.359zM2.468 4.688c-.308-.385-.36-.846-.129-1.026s.667-.026.95.36c.307.384.359.846.128 1.025-.231.205-.667.026-.95-.359z" fill="#fff" stroke="#33345A" stroke-linecap="round" stroke-linejoin="round" stroke-miterlimit="10" stroke-width=".59"/></svg>