<svg class="splash" viewBox="0 0 862 762" fill="none" xmlns="http://www.w3.org/2000/svg"><path opacity=".5" d="M317.184 719.569l431.435-215.717-78.442-39.222-441.242 215.718 88.249 39.221z" fill="#BDD2DF"/><path d="M134.508 441.424l179.22-89.665V174.173l-179.22 89.665v177.586z" fill="#fff" stroke="#33345A" stroke-width=".804" stroke-miterlimit="10" stroke-linecap="round" stroke-linejoin="round"/><path d="M223.333 338.431l-15.539-4.492-.003-18.706 15.536-20.228 15.977 4.589.002 18.699-15.973 20.138z" stroke="#32335A" stroke-width=".796"/><path d="M223.297 319.176v19.748" stroke="#33345A" stroke-width=".796"/><path d="M83.956 260.57l39.222-19.611 39.221 19.611" stroke="#F26424" stroke-width=".402" stroke-miterlimit="10"/><path d="M123.177 221.348v9.806l-39.22 19.61v-9.805l39.22-19.611z" fill="#F26424"/><path d="M258.349 562.684V312.865L470.907 206.64v249.819L258.349 562.684z" fill="#247FFF"/><path d="M320.131 691.57V359.168l422.611-211.251v332.402L320.131 691.57z" fill="#ECF7F9"/><path d="M320.131 691.57V359.168l422.611-211.251v332.402L320.131 691.57z" fill="#F7FCFD"/><path d="M320.131 691.57V359.168l422.611-211.251v332.402L320.131 691.57z" fill="#fff"/><path d="M320.131 691.57V359.168l422.611-211.251v332.402L320.131 691.57z" stroke="#33345A" stroke-width="1.609" stroke-miterlimit="10" stroke-linecap="round" stroke-linejoin="round"/><path d="M32.825 400.242V373.55l33.447-16.778v26.801l-33.447 16.669zM696.162 253.548l61.12-30.615M696.161 277.952l97.292-48.7M696.161 288.846l97.292-48.7M696.161 299.85l97.292-48.7" stroke="#33345A" stroke-width=".804" stroke-miterlimit="10" stroke-linecap="round" stroke-linejoin="round"/><path d="M703.897 354.324l97.291-49.135v23.968l-97.291 49.136v-23.969z" fill="#fff" stroke="#33345A" stroke-width=".804" stroke-miterlimit="10" stroke-linecap="round" stroke-linejoin="round"/><path d="M787.924 369.577l17.214-8.607M796.641 357.484v16.124" stroke="#33345A" stroke-width=".804" stroke-miterlimit="10" stroke-linecap="round" stroke-linejoin="round"/><path d="M696.161 317.772l97.292-49.136v23.969l-97.292 49.136v-23.969z" fill="#fff" stroke="#33345A" stroke-width=".804" stroke-miterlimit="10" stroke-linecap="round" stroke-linejoin="round"/><path d="M775.366 406.838l85.633-43.253v36.716l-85.633 43.252v-36.715z" fill="#fff" stroke="#33345A" stroke-width="1.207" stroke-miterlimit="10" stroke-linecap="round" stroke-linejoin="round"/><path d="M431 658V377.307L670 258v280.693L431 658z" stroke="#33345A" stroke-opacity=".4" stroke-width="1.609" stroke-miterlimit="10" stroke-linecap="round" stroke-linejoin="round"/><mask id="path-23-inside-1" fill="#fff"><path fill-rule="evenodd" clip-rule="evenodd" d="M610.507 363.026l3.751-1.862-3.749 5.742-.002-3.88zm8.896-15.811l-.002-.001-.007-.001-.028-.015 7.433-3.69.001 7.69-7.397-3.983zm-20.236 102.8l.156-70.503 9.067-13.885.001 4.976.001.006.026 65.241-9.251 14.165zM469.1 456.991l-13.366 6.634-8.281-4.458 13.365-6.634 8.282 4.458zm62.163 7.14c.201.108.466.09.746-.049l6.129-3.043-20.148 30.856-9.414 4.672 21.573-33.035 1.114.599zm-28.479 99.131c.171-.136.332-.293.46-.49l23.623-36.175 12.448-6.18a1.99 1.99 0 00.748-.691l50.196-76.868c.153-.05.308-.104.468-.184 1.591-.79 2.884-2.77 2.884-4.415s-1.294-2.342-2.885-1.552c-1.589.789-2.882 2.769-2.882 4.414 0 .658.213 1.155.563 1.475l-49.531 75.85-12.449 6.179c-.282.14-.547.386-.748.693l-21.461 32.865v-4.737l25.594-39.195 9.63-4.78c.282-.14.547-.385.75-.692l20.249-31.011c.196-.3.309-.639.309-.927v-3.811c0-.603-.475-.859-1.058-.57-.584.291-1.058 1.017-1.058 1.621v3.357l-19.629 30.061-7.077 3.513 43.72-66.953a2.895 2.895 0 001.146-.32c1.589-.789 2.882-2.769 2.882-4.414 0-1.645-1.294-2.342-2.883-1.553-1.589.789-2.882 2.769-2.882 4.414 0 .422.087.779.24 1.066l-45.217 69.246-9.317 4.624a1.986 1.986 0 00-.748.691l-47.862 73.295c-.2.306-.311.636-.311.93l.001 7.168L454.44 624.1c-.2.306-.31.637-.31.93v1.905c0 .605.476.86 1.059.57.583-.289 1.058-1.016 1.058-1.621v-1.452l16.256-24.894c.2-.306.311-.637.311-.93l-.001-7.168 47.242-72.345 6.763-3.358-24.409 37.381c-.198.306-.307.634-.307.925l.001 7.167-77.612 118.837c-.035.053-.049.11-.079.165l-12.138 6.025 37.116-56.839c.302-.466.392-.979.228-1.306-.166-.329-.549-.403-.978-.19l-8.755 4.346 36.852-56.435c.303-.465.393-.978.229-1.307-.164-.328-.547-.403-.978-.19l-4.809 2.388 27.647-42.339c.306-.468.395-.981.23-1.306-.164-.331-.547-.407-.978-.193l-19.539 9.699 27.921-42.756 11.967-5.941c.284-.141.551-.388.748-.692l21.956-33.623 22.069-10.954c.584-.29 1.059-1.017 1.058-1.621 0-.604-.474-.859-1.058-.569l-30.752 15.265-8.282-4.459 45.809-22.739 6.341-3.148c.584-.29 1.058-1.016 1.058-1.62 0-.604-.474-.859-1.059-.569l-6.34 3.147-48.364 24.008-4.76 2.363-8.281-4.459 53.327-26.471 3.138 1.689c.199.107.464.089.746-.051l10.534-5.229c.584-.29 1.058-1.017 1.058-1.62 0-.604-.474-.86-1.059-.57l-10.094 5.011-3.138-1.689c-.199-.107-.464-.089-.747.051l-56.32 27.957-4.769 2.367-6.16-2.938 33.368-16.564c.584-.29 1.059-1.017 1.059-1.621 0-.603-.475-.859-1.059-.569l-35.942 17.841c-.041.015-.078.014-.12.035l-4.749 2.357-3.736-2.353 24.95-12.385 42.81-21.251 1.875 1.009c.199.109.466.091.749-.05.284-.141.551-.388.748-.692.412-.632.412-1.326 0-1.549l-2.187-1.177c-.199-.107-.464-.089-.746.051l-43.249 21.469-27.359 13.58-9.406 4.669-8.281-4.458 36.97-18.351 3.137 1.688c.2.107.465.089.747-.051l38.539-19.13c.584-.29 1.059-1.017 1.059-1.621 0-.603-.475-.86-1.059-.57l-38.101 18.913-3.136-1.687c-.199-.109-.466-.09-.749.051l-39.524 19.619-13.034-7.017 16.478-8.179 3.398 1.828c.2.108.467.089.749-.051.283-.141.548-.386.749-.693.41-.631.41-1.325-.001-1.548l-3.709-1.995c-.2-.108-.465-.09-.748.051l-19.471 9.665-4.426 2.197-7.909 3.926-15.991-8.608 68.085-33.797c.428-.213.813-.669.977-1.161.165-.493.074-.916-.229-1.08l-7.519-4.047c-.401-.217-1.1.132-1.496.741-.201.307-.311.637-.311.929 0 .293.11.514.31.621l5.713 3.075-68.085 33.797-11.619 5.767-5.325-2.867 35.074-17.41c.429-.213.812-.668.978-1.161.163-.491.074-.915-.23-1.08l-10.969-5.903 71.384-35.434c.423.893 1.461 1.163 2.677.559 1.589-.789 2.88-2.768 2.88-4.413 0-1.645-1.292-2.342-2.881-1.553-1.216.603-2.253 1.902-2.677 3.216l-73.938 36.703c-.429.213-.813.669-.977 1.161-.165.493-.074.916.23 1.08l10.968 5.903-34.768 17.259a1.094 1.094 0 00-.387.112l-21.652 10.826-16.428-8.843 59.596-29.583c.584-.29 1.058-1.016 1.058-1.62 0-.604-.475-.86-1.058-.571l-61.713 30.634-4.886-2.63 158.964-78.909 51.308 27.559.002.001 4.259 2.292c.199.107.464.089.746-.051.282-.14.549-.386.75-.692l14.859-22.756 2.971-1.475c.584-.29 1.059-1.017 1.058-1.621 0-.604-.474-.859-1.058-.569l-3.41 1.692c-.282.14-.547.386-.748.692l-14.422 22.085-2.762-1.488 21.031-32.207 32.263-16.016 8.932 4.808-8.493 4.216c-.431.214-.814.67-.976 1.159-.165.493-.076.918.228 1.082l1.093.588-8.458 12.951-.001.003-11.177 17.119c-.201.306-.313.636-.313.928l-.161 73.16-59.035 90.404-.001-8.676 10.737-16.44c.199-.305.309-.634.309-.928l-.001-2.347 21.781-33.354c.201-.307.31-.638.31-.93-.001-.293-.111-.512-.311-.618-.412-.222-1.084.112-1.496.743l-22.092 33.831c-.198.306-.308.634-.308.925l.001 2.348-10.737 16.44c-.199.305-.309.634-.309.927l.002 10.894-26.767 13.286c-.285.142-.552.39-.748.693l-75.429 115.51-5.588 2.774 75.42-115.485zm114.028-205.556l-4.808 2.386 6.65-10.182 6.651 3.58-4.81 2.388-3.683 1.828zm4.742-.164l3.751-1.861-3.75 5.743-.001-3.882zm7.363-16.181a.835.835 0 00-.083-.382.547.547 0 00-.228-.238l-11.047-5.948c-.199-.108-.466-.09-.75.051l-33.137 16.449c-.282.14-.549.386-.75.693l-21.342 32.683-50.87-27.323c-.199-.107-.466-.088-.748.052l-161.956 80.394c-.43.214-.815.67-.977 1.161-.165.493-.075.916.229 1.08l5.196 2.797-17.325 8.6c-.431.214-.815.67-.978 1.162-.164.492-.074.916.23 1.079l5.182 2.791c.2.107.466.089.748-.051.283-.14.549-.386.75-.694.41-.63.41-1.324-.001-1.547l-3.376-1.818 16.887-8.383L371 452.814l-18.551 9.208-1.689-.909c-.2-.108-.466-.09-.748.05a1.98 1.98 0 00-.747.692c-.201.307-.311.637-.311.929 0 .293.11.513.31.62l1.999 1.077c.2.108.465.09.748-.051l43.276-21.482 7.132 3.839c.2.107.466.09.748-.05l11.619-5.767 17.798 9.58c.2.108.466.09.748-.05l8.347-4.143 3.988-1.98 13.034 7.016-13.803 6.852c-.431.214-.815.67-.978 1.162-.165.492-.074.916.23 1.079l10.398 5.597c.2.108.466.09.748-.05l16.358-8.12 9.396-4.664 5.396 3.399c.2.108.465.09.749-.051l.73-.362c.041-.015.076-.013.117-.034l3.945-1.958 8.083 3.855c.199.107.464.089.746-.051l4.76-2.363 10.088 5.43c.199.108.466.09.749-.051l4.761-2.363 7.477 4.026-53.415 81.801c-.304.465-.394.978-.23 1.307.166.328.55.402.978.189l19.539-9.699-27.647 42.339c-.305.466-.394.98-.229 1.307.163.33.548.405.977.192l4.809-2.387-36.851 56.432c-.304.466-.394.981-.229 1.308.164.329.548.404.978.191l8.754-4.346-37.116 56.839c-.302.466-.391.979-.228 1.305.164.33.549.404.978.191l23.671-11.75c.282-.14.548-.385.749-.692l75.428-115.51 27.179-13.492c.28-.139.545-.384.747-.691l72.734-111.381c.197-.305.307-.634.307-.926l-.024-65.252 6.741-10.323 2.186-1.085v6.526c.001.445.257.715.654.687a1.06 1.06 0 00.405-.117c.279-.138.551-.39.748-.693l7.364-11.276c.025-.038.026-.078.048-.118.047-.08.082-.153.116-.236.016-.04.05-.072.064-.113.013-.041 0-.071.01-.111a1.44 1.44 0 00.042-.232c.003-.039.03-.081.03-.119l-.001-11.43z"/></mask><path fill-rule="evenodd" clip-rule="evenodd" d="M610.507 363.026l3.751-1.862-3.749 5.742-.002-3.88zm8.896-15.811l-.002-.001-.007-.001-.028-.015 7.433-3.69.001 7.69-7.397-3.983zm-20.236 102.8l.156-70.503 9.067-13.885.001 4.976.001.006.026 65.241-9.251 14.165zM469.1 456.991l-13.366 6.634-8.281-4.458 13.365-6.634 8.282 4.458zm62.163 7.14c.201.108.466.09.746-.049l6.129-3.043-20.148 30.856-9.414 4.672 21.573-33.035 1.114.599zm-28.479 99.131c.171-.136.332-.293.46-.49l23.623-36.175 12.448-6.18a1.99 1.99 0 00.748-.691l50.196-76.868c.153-.05.308-.104.468-.184 1.591-.79 2.884-2.77 2.884-4.415s-1.294-2.342-2.885-1.552c-1.589.789-2.882 2.769-2.882 4.414 0 .658.213 1.155.563 1.475l-49.531 75.85-12.449 6.179c-.282.14-.547.386-.748.693l-21.461 32.865v-4.737l25.594-39.195 9.63-4.78c.282-.14.547-.385.75-.692l20.249-31.011c.196-.3.309-.639.309-.927v-3.811c0-.603-.475-.859-1.058-.57-.584.291-1.058 1.017-1.058 1.621v3.357l-19.629 30.061-7.077 3.513 43.72-66.953a2.895 2.895 0 001.146-.32c1.589-.789 2.882-2.769 2.882-4.414 0-1.645-1.294-2.342-2.883-1.553-1.589.789-2.882 2.769-2.882 4.414 0 .422.087.779.24 1.066l-45.217 69.246-9.317 4.624a1.986 1.986 0 00-.748.691l-47.862 73.295c-.2.306-.311.636-.311.93l.001 7.168L454.44 624.1c-.2.306-.31.637-.31.93v1.905c0 .605.476.86 1.059.57.583-.289 1.058-1.016 1.058-1.621v-1.452l16.256-24.894c.2-.306.311-.637.311-.93l-.001-7.168 47.242-72.345 6.763-3.358-24.409 37.381c-.198.306-.307.634-.307.925l.001 7.167-77.612 118.837c-.035.053-.049.11-.079.165l-12.138 6.025 37.116-56.839c.302-.466.392-.979.228-1.306-.166-.329-.549-.403-.978-.19l-8.755 4.346 36.852-56.435c.303-.465.393-.978.229-1.307-.164-.328-.547-.403-.978-.19l-4.809 2.388 27.647-42.339c.306-.468.395-.981.23-1.306-.164-.331-.547-.407-.978-.193l-19.539 9.699 27.921-42.756 11.967-5.941c.284-.141.551-.388.748-.692l21.956-33.623 22.069-10.954c.584-.29 1.059-1.017 1.058-1.621 0-.604-.474-.859-1.058-.569l-30.752 15.265-8.282-4.459 45.809-22.739 6.341-3.148c.584-.29 1.058-1.016 1.058-1.62 0-.604-.474-.859-1.059-.569l-6.34 3.147-48.364 24.008-4.76 2.363-8.281-4.459 53.327-26.471 3.138 1.689c.199.107.464.089.746-.051l10.534-5.229c.584-.29 1.058-1.017 1.058-1.62 0-.604-.474-.86-1.059-.57l-10.094 5.011-3.138-1.689c-.199-.107-.464-.089-.747.051l-56.32 27.957-4.769 2.367-6.16-2.938 33.368-16.564c.584-.29 1.059-1.017 1.059-1.621 0-.603-.475-.859-1.059-.569l-35.942 17.841c-.041.015-.078.014-.12.035l-4.749 2.357-3.736-2.353 24.95-12.385 42.81-21.251 1.875 1.009c.199.109.466.091.749-.05.284-.141.551-.388.748-.692.412-.632.412-1.326 0-1.549l-2.187-1.177c-.199-.107-.464-.089-.746.051l-43.249 21.469-27.359 13.58-9.406 4.669-8.281-4.458 36.97-18.351 3.137 1.688c.2.107.465.089.747-.051l38.539-19.13c.584-.29 1.059-1.017 1.059-1.621 0-.603-.475-.86-1.059-.57l-38.101 18.913-3.136-1.687c-.199-.109-.466-.09-.749.051l-39.524 19.619-13.034-7.017 16.478-8.179 3.398 1.828c.2.108.467.089.749-.051.283-.141.548-.386.749-.693.41-.631.41-1.325-.001-1.548l-3.709-1.995c-.2-.108-.465-.09-.748.051l-19.471 9.665-4.426 2.197-7.909 3.926-15.991-8.608 68.085-33.797c.428-.213.813-.669.977-1.161.165-.493.074-.916-.229-1.08l-7.519-4.047c-.401-.217-1.1.132-1.496.741-.201.307-.311.637-.311.929 0 .293.11.514.31.621l5.713 3.075-68.085 33.797-11.619 5.767-5.325-2.867 35.074-17.41c.429-.213.812-.668.978-1.161.163-.491.074-.915-.23-1.08l-10.969-5.903 71.384-35.434c.423.893 1.461 1.163 2.677.559 1.589-.789 2.88-2.768 2.88-4.413 0-1.645-1.292-2.342-2.881-1.553-1.216.603-2.253 1.902-2.677 3.216l-73.938 36.703c-.429.213-.813.669-.977 1.161-.165.493-.074.916.23 1.08l10.968 5.903-34.768 17.259a1.094 1.094 0 00-.387.112l-21.652 10.826-16.428-8.843 59.596-29.583c.584-.29 1.058-1.016 1.058-1.62 0-.604-.475-.86-1.058-.571l-61.713 30.634-4.886-2.63 158.964-78.909 51.308 27.559.002.001 4.259 2.292c.199.107.464.089.746-.051.282-.14.549-.386.75-.692l14.859-22.756 2.971-1.475c.584-.29 1.059-1.017 1.058-1.621 0-.604-.474-.859-1.058-.569l-3.41 1.692c-.282.14-.547.386-.748.692l-14.422 22.085-2.762-1.488 21.031-32.207 32.263-16.016 8.932 4.808-8.493 4.216c-.431.214-.814.67-.976 1.159-.165.493-.076.918.228 1.082l1.093.588-8.458 12.951-.001.003-11.177 17.119c-.201.306-.313.636-.313.928l-.161 73.16-59.035 90.404-.001-8.676 10.737-16.44c.199-.305.309-.634.309-.928l-.001-2.347 21.781-33.354c.201-.307.31-.638.31-.93-.001-.293-.111-.512-.311-.618-.412-.222-1.084.112-1.496.743l-22.092 33.831c-.198.306-.308.634-.308.925l.001 2.348-10.737 16.44c-.199.305-.309.634-.309.927l.002 10.894-26.767 13.286c-.285.142-.552.39-.748.693l-75.429 115.51-5.588 2.774 75.42-115.485zm114.028-205.556l-4.808 2.386 6.65-10.182 6.651 3.58-4.81 2.388-3.683 1.828zm4.742-.164l3.751-1.861-3.75 5.743-.001-3.882zm7.363-16.181a.835.835 0 00-.083-.382.547.547 0 00-.228-.238l-11.047-5.948c-.199-.108-.466-.09-.75.051l-33.137 16.449c-.282.14-.549.386-.75.693l-21.342 32.683-50.87-27.323c-.199-.107-.466-.088-.748.052l-161.956 80.394c-.43.214-.815.67-.977 1.161-.165.493-.075.916.229 1.08l5.196 2.797-17.325 8.6c-.431.214-.815.67-.978 1.162-.164.492-.074.916.23 1.079l5.182 2.791c.2.107.466.089.748-.051.283-.14.549-.386.75-.694.41-.63.41-1.324-.001-1.547l-3.376-1.818 16.887-8.383L371 452.814l-18.551 9.208-1.689-.909c-.2-.108-.466-.09-.748.05a1.98 1.98 0 00-.747.692c-.201.307-.311.637-.311.929 0 .293.11.513.31.62l1.999 1.077c.2.108.465.09.748-.051l43.276-21.482 7.132 3.839c.2.107.466.09.748-.05l11.619-5.767 17.798 9.58c.2.108.466.09.748-.05l8.347-4.143 3.988-1.98 13.034 7.016-13.803 6.852c-.431.214-.815.67-.978 1.162-.165.492-.074.916.23 1.079l10.398 5.597c.2.108.466.09.748-.05l16.358-8.12 9.396-4.664 5.396 3.399c.2.108.465.09.749-.051l.73-.362c.041-.015.076-.013.117-.034l3.945-1.958 8.083 3.855c.199.107.464.089.746-.051l4.76-2.363 10.088 5.43c.199.108.466.09.749-.051l4.761-2.363 7.477 4.026-53.415 81.801c-.304.465-.394.978-.23 1.307.166.328.55.402.978.189l19.539-9.699-27.647 42.339c-.305.466-.394.98-.229 1.307.163.33.548.405.977.192l4.809-2.387-36.851 56.432c-.304.466-.394.981-.229 1.308.164.329.548.404.978.191l8.754-4.346-37.116 56.839c-.302.466-.391.979-.228 1.305.164.33.549.404.978.191l23.671-11.75c.282-.14.548-.385.749-.692l75.428-115.51 27.179-13.492c.28-.139.545-.384.747-.691l72.734-111.381c.197-.305.307-.634.307-.926l-.024-65.252 6.741-10.323 2.186-1.085v6.526c.001.445.257.715.654.687a1.06 1.06 0 00.405-.117c.279-.138.551-.39.748-.693l7.364-11.276c.025-.038.026-.078.048-.118.047-.08.082-.153.116-.236.016-.04.05-.072.064-.113.013-.041 0-.071.01-.111a1.44 1.44 0 00.042-.232c.003-.039.03-.081.03-.119l-.001-11.43z" fill="#33345A" stroke="#fff" stroke-width=".364" mask="url(#path-23-inside-1)"/><path d="M524.185 696.435v-28.872l24.622-12.311v28.871l-24.622 12.312z" stroke="#3B385C" stroke-width=".804" stroke-linecap="round" stroke-linejoin="round"/><path d="M14.615 594.87l39.221-19.611 19.61 49.027" stroke="#F26424" stroke-width=".402" stroke-miterlimit="10"/><path d="M34.228 565.454v9.806l-19.61 9.805v-9.805l19.61-9.806z" fill="#F26424"/><path d="M346.164 361.348l416.401-208.201v17.432L346.164 378.67v-17.322z" fill="#fff" stroke="#010101" stroke-width=".804" stroke-miterlimit="10"/><path d="M357.825 367.011c1.307-1.634 1.525-3.595.545-4.358-.981-.763-2.833-.109-4.031 1.525-1.308 1.635-1.526 3.596-.545 4.358.98.872 2.833.109 4.031-1.525zM369.48 361.128c1.308-1.634 1.526-3.595.545-4.358-.98-.762-2.832-.109-4.031 1.526-1.307 1.634-1.525 3.595-.545 4.358.981.762 2.833.109 4.031-1.526zM381.137 355.136c1.307-1.634 1.525-3.595.545-4.358-.981-.763-2.833-.109-4.032 1.525-1.307 1.635-1.525 3.596-.544 4.358.98.872 2.832.109 4.031-1.525z" fill="#fff" stroke="#33345A" stroke-width=".804" stroke-miterlimit="10" stroke-linecap="round" stroke-linejoin="round"/><path d="M610.472 99.348l12.334 6.121 90.181-45.044-12.335-6.122-90.18 45.045zM610.472 167.507l12.152 6.122v-67.704l-12.152-6.121v67.703z" stroke="#33345A" stroke-width=".804" stroke-miterlimit="10" stroke-linecap="round" stroke-linejoin="round"/><path d="M622.721 173.446l90.363-45.135V60.515l-90.363 45.136v67.795z" fill="#fff" stroke="#33345A" stroke-width=".804" stroke-miterlimit="10" stroke-linecap="round" stroke-linejoin="round"/><path d="M670.649 97.733c2.723-1.307 4.902-.218 4.902 2.397v14.599c0 2.615-2.179 5.883-4.902 7.191-2.724 1.307-4.903.217-4.903-2.397v-14.599c0-2.615 2.179-5.884 4.903-7.191z" stroke="#33345A" stroke-width=".804"/><path d="M681.873 110.044c0 7.408-5.012 15.906-11.222 18.957-6.21 3.05-11.222-.436-11.222-7.845" stroke="#33345A" stroke-width=".804"/><path d="M669.669 130.744l1.961-.981v7.191l-1.961.981v-7.191z" fill="#33345A"/><path d="M677.842 72.994l10.785-33.774 39.222-19.61" stroke="#F26424" stroke-width=".402" stroke-miterlimit="10"/><path d="M727.851 0v9.805l-19.393 9.806V9.805L727.851 0z" fill="#F26424"/><path d="M493.671 297.938l49.027-117.665 39.221-19.61" stroke="#F26424" stroke-width=".402" stroke-miterlimit="10"/><path d="M581.918 141.053v9.805l-39.221 19.611v-9.805l39.221-19.611z" fill="#F26424"/><path d="M1 641.064l80.404 40.202 80.295-40.202-80.295-40.202L1 641.064zM1 721.36v-80.295l80.404 40.202v80.294L1 721.36zM161.699 721.36l-80.295 40.201v-80.294l80.295-40.202v80.295z" stroke="#33345A" stroke-width=".804" stroke-miterlimit="10" stroke-linecap="round" stroke-linejoin="round"/><path d="M1 651.087l60.248 30.179L71.272 696.3l10.132 5.012 80.295-40.202" stroke="#33345A" stroke-width=".804" stroke-miterlimit="10" stroke-linecap="round" stroke-linejoin="round"/><path d="M228.931 503.851l39.221 19.611v137.275l-39.221-19.611V503.851zM248.549 494.046l-19.611 9.805 39.221 19.611 19.611-9.805-39.221-19.611z" fill="#A6D7F9" stroke="#33345A" stroke-width=".804" stroke-miterlimit="10" stroke-linecap="round" stroke-linejoin="round"/><path d="M268.153 660.737l19.61-9.805V513.657l-19.61 9.805v137.275z" fill="#A6D7F9" stroke="#33345A" stroke-width=".804" stroke-miterlimit="10" stroke-linecap="round" stroke-linejoin="round"/><path d="M148.29 622.169l99.708-49.462" stroke="#F26424" stroke-width=".402" stroke-miterlimit="10"/><path d="M247.456 575.54l-.545-.218.981-2.506-2.615-.763.109-.435 3.16.871-1.09 3.051zM781.191 330.406l.109-.545-2.506-.762.872-2.506-.436-.218-1.198 3.05 3.159.981z" fill="#F26424"/><path d="M181.304 751.756l19.611-9.805v-68.638l-19.611-9.805v-9.805l58.832-29.416M191.112 732.146v-19.611" stroke="#F26423" stroke-width=".402" stroke-miterlimit="10"/><path d="M681.265 432.48l101.322-54.365a6.042 6.042 0 015.774.327c1.744 1.089 2.833 3.05 2.833 5.011v270.41c0 2.288-1.307 4.249-3.268 5.23l-101.105 51.859c-.871.436-1.743.654-2.614.654a5.856 5.856 0 01-3.051-.872c-1.743-1.089-2.833-2.941-2.833-5.011l-.109-267.795c-.217-2.397 1.09-4.467 3.051-5.448z" fill="#fff" stroke="#28244A" stroke-width=".981" stroke-miterlimit="10" stroke-linecap="round" stroke-linejoin="round"/><path d="M790.54 385.306l-103.827 52.949v272.371l103.827-52.949V385.306z" fill="#247FFF"/><path d="M696.847 452.637l7.735-3.813M696.847 458.629l7.735-3.814M696.847 482.924l28.108-13.946" stroke="#33345A" stroke-width=".981" stroke-linecap="round" stroke-linejoin="round"/><path d="M790.652 562.893c0-4.794-3.922-6.755-8.716-4.249l-89.447 45.649c-3.05 1.634-5.665 5.339-5.665 8.498v95.894c0 3.05 2.506 1.07 5.665-.564l92.607-47.175c3.05-1.634 6.053-2.101 6.053-5.26l-.497-92.793z" fill="#fff"/><path d="M768.861 396.637l-62.754 31.921v.109c.109.218.218.545.327.872.327.654.981 1.525 1.852 2.07 1.852 1.198 5.339 1.852 11.44-1.307 3.159-1.635 6.864-3.487 10.786-5.557 11.984-6.21 26.256-13.618 32.684-16.778 4.14-2.07 5.448-5.011 5.775-7.408.217-1.199.108-2.288 0-3.051 0-.436-.001-.762-.11-.871z" fill="#fff" stroke="#28244A" stroke-width=".49"/><path d="M702.509 680.339v-21.681l73.541-36.716v21.681l-73.541 36.716zM727.894 658.004l26.039-12.965" stroke="#33345A" stroke-width="1.609" stroke-linecap="round" stroke-linejoin="round"/><path d="M701.311 626.627l17.759-8.716M701.311 638.719l41.619-20.591M723.427 615.731l30.833-15.362" stroke="#33345A" stroke-width=".981" stroke-linecap="round" stroke-linejoin="round"/><path d="M791.41 384.543l-104.373 53.276v273.243l104.373-53.276V384.543z" stroke="#28244A" stroke-width=".49"/><path d="M171.012 455.2l22.661 11.331 22.552-11.331-22.552-11.33-22.661 11.33zM171.008 477.753v-22.552l22.661 11.33v22.552l-22.661-11.33z" fill="#F2F8F9" stroke="#33345A" stroke-width=".804" stroke-miterlimit="10" stroke-linecap="round" stroke-linejoin="round"/><path d="M216.22 477.753l-22.553 11.33v-22.552l22.553-11.33v22.552z" fill="#F2F8F9" stroke="#33345A" stroke-width=".804" stroke-miterlimit="10" stroke-linecap="round" stroke-linejoin="round"/></svg>