<svg class="tile__icon" width="49" height="130" fill="none" xmlns="http://www.w3.org/2000/svg"><path d="M45 28.092l-.079 99.448a.462.462 0 01-.693.399L1.225 103.307a.468.468 0 01-.225-.399L1.079 3.46A.46.46 0 011.54 3c.08 0 .16.02.23.06l43.004 24.633a.464.464 0 01.225.4z" fill="#EBF1F6" stroke="#28234A" stroke-width=".593" stroke-miterlimit="10"/><path d="M47.971 26.363v-.041a.046.046 0 00-.018-.013L3.87 1.017a.121.121 0 00-.124 0L1.178 2.515a.225.225 0 00-.036.013.146.146 0 00-.039.036.124.124 0 00-.024.138L1 103.256c.04.191.103.377.184.554L45.043 129H45.158l2.642-1.511a.126.126 0 00.063-.108l.092-100.987a.175.175 0 00.016-.031v0z" stroke="#28234A" stroke-width="1.337" stroke-linejoin="round"/><path d="M14.357 10.619l16.827 9.709v2.204c0 .273-.095.37-.147.4-.055.031-.196.062-.443-.078h-.001l-15.3-8.834a2.078 2.078 0 01-.936-1.619V10.62z" fill="#fff" stroke="#28234A" stroke-width=".715"/><path d="M48.433 46.126l-.049 8.846-1.43.818.049-8.846 1.43-.818zM48.433 55.982l-.049 8.843-1.43.82.049-8.847 1.43-.816z" fill="#E8F4F8" stroke="#28234A" stroke-width=".593" stroke-linecap="round" stroke-linejoin="round"/><path d="M40.432 43.995l-.127 36.826L5.493 60.72l.127-36.826 34.812 20.102z" fill="#FFFAF8"/><path d="M9.774 18.092a.372.372 0 01.171.291c0 .108-.078.151-.171.096l-4.7-2.713a.37.37 0 01-.169-.291c0-.105.076-.149.169-.096l4.7 2.713zM9.783 15.777a.378.378 0 01.169.291c0 .108-.076.151-.172.096l-4.7-2.714a.368.368 0 01-.168-.29c0-.108.078-.152.171-.1l4.7 2.717z" fill="#28234A"/><path d="M39.384 113.11L8.521 95.3a.584.584 0 01-.253-.426l.025-8.349 30.861 17.789a.586.586 0 01.255.442l-.025 8.354z" stroke="#28234A" stroke-width=".75" opacity=".8"/><path d="M37.976 106.381l-.026 8.519c0 .273-.193.364-.433.244m.459-8.763a.96.96 0 00-.43-.747m.43.747l-.375.021v-.01m.375-.011l-.375-.001v.012m-.055-.758L6.558 87.766m30.988 17.868l-.187.325-.011-.006m.198-.319l-.206.313.008.006M6.558 87.765c-.24-.138-.433-.029-.433.245l-.026 8.519m.46-8.763l-.141.243v.001l-.04.07a.159.159 0 00.058-.02.159.159 0 00.054-.05s0 0 0 0a.101.101 0 00.008-.014c.003-.005.003-.008.003-.008l-.001.022v0h0v.154m.058-.398l-.14.243-.001.001-.04.07a.108.108 0 01-.024 0h-.006s.008.001.024.01c0 0 0 0 0 0l.128.074m-.4 8.365a.955.955 0 00.434.728m-.434-.728l.374-.029.001.013m-.375.016h.375v-.016m.059.744l30.984 17.887M6.533 97.257l.187-.325.01.006m-.197.32l.203-.316a2.077 2.077 0 01-.007-.004m30.788 18.206l.122-.244v-.001l.036-.072a.104.104 0 00-.028.012.159.159 0 00-.064.06v.001a.029.029 0 00-.004.007c-.008.017-.004.019-.004-.007v-.155m-.058.399l.14-.244.001-.001.045-.078h.012c.006 0-.002.001-.023-.009l-.116-.067m0 0l.025-8.353m-.025 8.353L6.729 96.938m30.872 9.454a.59.59 0 00-.253-.439m0 0L6.499 88.164m0 0l-.025 8.349m0 0a.58.58 0 00.255.425" fill="#FFFAF8" stroke="#28234A" stroke-width=".75"/><path d="M13.797 97.033a1.267 1.267 0 01.4.89c0 .429-.296.64-.913.296l-1.084-.661v-2.84l1.058.611a1.615 1.615 0 01.889 1.298c-.003.297-.149.415-.35.406zm-.575.436c.184.107.276.056.276-.077a.49.49 0 00-.27-.394l-.326-.187v.474l.32.184zm-.317-1.648v.436l.296.18c.175.101.255.045.255-.07a.466.466 0 00-.255-.368l-.296-.178zM16.677 97.309v1.686c0 .711-.42.984-1.108.593a2.193 2.193 0 01-1.085-1.853V96.05l.72.418v1.668a.755.755 0 00.365.697c.24.136.38.05.38-.27v-1.671l.728.418zM19.404 98.882l-.924 1.224-.003 1.085-.72-.418.003-1.078-.919-2.294.806.468.489 1.31.015.006.489-.744.764.441zM22.513 100.675l-.01 2.839-.687-.397-.886-2.036-.008 1.521-.682-.395.009-2.838.684.397.886 2.012.01-1.497.684.394zM24.134 101.54a2.756 2.756 0 011.307 2.247c0 .889-.575 1.164-1.316.738a2.78 2.78 0 01-1.306-2.253c0-.877.58-1.155 1.315-.732zm0 2.232c.297.172.593.071.593-.403a1.3 1.3 0 00-.593-1.076c-.296-.175-.592-.071-.592.397a1.29 1.29 0 00.592 1.082zM29.236 104.557l-.72 2.43-.72-.415-.43-1.985-.432 1.488-.747-.433-.726-3.263.726.418.397 2.092.45-1.603.661.382.445 2.125.391-1.642.705.406z" fill="#32335A"/><path transform="matrix(-.91537 -.52796 -.05874 .93803 36.731 87.705)" stroke="#28234A" stroke-width="2" stroke-linecap="round" stroke-linejoin="round" d="M1-1h9.599"/><path transform="matrix(-.91537 -.52796 -.05874 .93803 24.38 80.582)" stroke="#28234A" stroke-width="2" stroke-linecap="round" stroke-linejoin="round" d="M1-1h17.658"/><path transform="matrix(-.91537 -.52796 -.05874 .93803 18.742 82.105)" stroke="#28234A" stroke-width="2" stroke-linecap="round" stroke-linejoin="round" d="M1-1h11.813"/></svg>