<?xml version="1.0" encoding="utf-8"?>
<!-- Generator: Adobe Illustrator 20.1.0, SVG Export Plug-In . SVG Version: 6.00 Build 0)  -->
<svg version="1.1" id="Layer_1" xmlns="http://www.w3.org/2000/svg" xmlns:xlink="http://www.w3.org/1999/xlink" x="0px" y="0px"
	 viewBox="0 0 30 30" style="enable-background:new 0 0 30 30;" xml:space="preserve">
<path d="M29.6,14.3c0,0.7-0.2,1.2-0.7,1.7L16.7,28.2c-0.5,0.5-1.1,0.7-1.7,0.7c-0.7,0-1.2-0.2-1.7-0.7L1.1,16
	c-0.5-0.5-0.7-1-0.7-1.7c0-0.7,0.2-1.2,0.7-1.7l1.4-1.4c0.5-0.5,1.1-0.7,1.7-0.7c0.7,0,1.2,0.2,1.7,0.7l5.5,5.5V3.5
	c0-0.7,0.2-1.2,0.7-1.7c0.5-0.5,1-0.7,1.7-0.7h2.4c0.7,0,1.2,0.2,1.7,0.7c0.5,0.5,0.7,1,0.7,1.7v13.2l5.5-5.5c0.5-0.5,1-0.7,1.7-0.7
	c0.7,0,1.2,0.2,1.7,0.7l1.4,1.4C29.4,13.1,29.6,13.6,29.6,14.3z"/>
</svg>
