<svg width="35" height="30" viewBox="0 0 35 30" version="1.1" xmlns="http://www.w3.org/2000/svg" xmlns:xlink="http://www.w3.org/1999/xlink" xmlns:figma="http://www.figma.com/figma/ns">
<title>&#239;&#138;&#145;</title>
<desc>Created using Figma</desc>
<g id="Canvas" transform="translate(473 1328)" figma:type="canvas">
<g id="&#239;&#138;&#145;" style="mix-blend-mode:normal;" figma:type="text">
<use xlink:href="#path0_fill" transform="translate(-473 -1328)" fill="#333333" style="mix-blend-mode:normal;"/>
</g>
</g>
<defs>
<path id="path0_fill" d="M 32.1429 12.8571C 32.7344 12.8571 33.2366 13.0692 33.6496 13.4933C 34.0737 13.9062 34.2857 14.4085 34.2857 15C 34.2857 15.5915 34.0737 16.0993 33.6496 16.5234C 33.2366 16.9364 32.7344 17.1429 32.1429 17.1429L 31.8917 17.1429L 29.9665 28.2254C 29.8772 28.7388 29.6317 29.1629 29.2299 29.4978C 28.8281 29.8326 28.3705 30 27.8571 30L 6.42857 30C 5.91518 30 5.45759 29.8326 5.0558 29.4978C 4.65402 29.1629 4.40848 28.7388 4.3192 28.2254L 2.39397 17.1429L 2.14286 17.1429C 1.55134 17.1429 1.04353 16.9364 0.61942 16.5234C 0.206473 16.0993 0 15.5915 0 15C 0 14.4085 0.206473 13.9062 0.61942 13.4933C 1.04353 13.0692 1.55134 12.8571 2.14286 12.8571L 32.1429 12.8571ZM 8.11942 26.25C 8.4096 26.2277 8.64955 26.0993 8.83929 25.865C 9.04018 25.6417 9.12946 25.385 9.10714 25.0949L 8.57143 18.1306C 8.54911 17.8404 8.42076 17.6004 8.18638 17.4107C 7.96317 17.2098 7.70647 17.1205 7.41629 17.1429C 7.12612 17.1652 6.88058 17.2935 6.67969 17.5279C 6.48996 17.7511 6.40625 18.0078 6.42857 18.298L 6.96429 25.2623C 6.98661 25.5413 7.09821 25.7757 7.29911 25.9654C 7.51116 26.1551 7.7567 26.25 8.03571 26.25L 8.11942 26.25ZM 15 25.1786L 15 18.2143C 15 17.9241 14.894 17.673 14.6819 17.4609C 14.4699 17.2489 14.2188 17.1429 13.9286 17.1429C 13.6384 17.1429 13.3873 17.2489 13.1752 17.4609C 12.9632 17.673 12.8571 17.9241 12.8571 18.2143L 12.8571 25.1786C 12.8571 25.4687 12.9632 25.7199 13.1752 25.9319C 13.3873 26.144 13.6384 26.25 13.9286 26.25C 14.2188 26.25 14.4699 26.144 14.6819 25.9319C 14.894 25.7199 15 25.4687 15 25.1786ZM 21.4286 25.1786L 21.4286 18.2143C 21.4286 17.9241 21.3225 17.673 21.1105 17.4609C 20.8984 17.2489 20.6473 17.1429 20.3571 17.1429C 20.067 17.1429 19.8158 17.2489 19.6038 17.4609C 19.3917 17.673 19.2857 17.9241 19.2857 18.2143L 19.2857 25.1786C 19.2857 25.4687 19.3917 25.7199 19.6038 25.9319C 19.8158 26.144 20.067 26.25 20.3571 26.25C 20.6473 26.25 20.8984 26.144 21.1105 25.9319C 21.3225 25.7199 21.4286 25.4687 21.4286 25.1786ZM 27.3214 25.2623L 27.8571 18.298C 27.8795 18.0078 27.7902 17.7511 27.5893 17.5279C 27.3996 17.2935 27.1596 17.1652 26.8694 17.1429C 26.5792 17.1205 26.317 17.2098 26.0826 17.4107C 25.8594 17.6004 25.7366 17.8404 25.7143 18.1306L 25.1786 25.0949C 25.1563 25.385 25.24 25.6417 25.4297 25.865C 25.6306 26.0993 25.8761 26.2277 26.1663 26.25L 26.25 26.25C 26.529 26.25 26.769 26.1551 26.9699 25.9654C 27.1819 25.7757 27.2991 25.5413 27.3214 25.2623ZM 7.96875 4.88839L 6.41183 11.7857L 4.20201 11.7857L 5.89286 4.4029C 6.10491 3.42076 6.60156 2.62277 7.38281 2.00893C 8.16406 1.38393 9.05692 1.07143 10.0614 1.07143L 12.8571 1.07143C 12.8571 0.78125 12.9632 0.530134 13.1752 0.31808C 13.3873 0.106027 13.6384 -1.07288e-06 13.9286 -1.07288e-06L 20.3571 -1.07288e-06C 20.6473 -1.07288e-06 20.8984 0.106027 21.1105 0.31808C 21.3225 0.530134 21.4286 0.78125 21.4286 1.07143L 24.2243 1.07143C 25.2288 1.07143 26.1217 1.38393 26.9029 2.00893C 27.6842 2.62277 28.1808 3.42076 28.3929 4.4029L 30.0837 11.7857L 27.8739 11.7857L 26.317 4.88839C 26.1942 4.39732 25.9375 3.99554 25.5469 3.68303C 25.1674 3.37053 24.7266 3.21428 24.2243 3.21428L 21.4286 3.21428C 21.4286 3.50446 21.3225 3.75558 21.1105 3.96763C 20.8984 4.17969 20.6473 4.28571 20.3571 4.28571L 13.9286 4.28571C 13.6384 4.28571 13.3873 4.17969 13.1752 3.96763C 12.9632 3.75558 12.8571 3.50446 12.8571 3.21428L 10.0614 3.21428C 9.55915 3.21428 9.11272 3.37053 8.7221 3.68303C 8.34263 3.99554 8.09152 4.39732 7.96875 4.88839Z"/>
</defs>
</svg>
