<svg width="15" height="22" viewBox="0 0 15 22" version="1.1" xmlns="http://www.w3.org/2000/svg" xmlns:xlink="http://www.w3.org/1999/xlink" xmlns:figma="http://www.figma.com/figma/ns">
<title>icon_trash_01</title>
<desc>Created using Figma</desc>
<g id="Canvas" transform="translate(-3786 1358)" figma:type="canvas">
<g id="icon_trash_01" style="mix-blend-mode:normal;" figma:type="frame">
<g id="Vector" style="mix-blend-mode:normal;" figma:type="vector">
<use xlink:href="#path0_fill" transform="translate(3786.5 -1354.98)" fill="#828282" style="mix-blend-mode:normal;"/>
</g>
<g id="Group" style="mix-blend-mode:normal;" figma:type="frame">
<g id="Vector" style="mix-blend-mode:normal;" figma:type="vector">
<use xlink:href="#path1_fill" transform="translate(3790.15 -1357.28)" fill="#828282" style="mix-blend-mode:normal;"/>
</g>
</g>
<g id="Vector" style="mix-blend-mode:normal;" figma:type="vector">
<use xlink:href="#path2_fill" transform="translate(3787.04 -1352.31)" fill="#828282" style="mix-blend-mode:normal;"/>
</g>
</g>
</g>
<defs>
<path id="path0_fill" d="M 14 0L 0 0L 0 2.03664L 14 2.03664L 14 0Z"/>
<path id="path1_fill" d="M 6.70048 3.56383L 5.7447 3.56383L 5.7447 2.03664C 5.7447 1.10638 5.00897 1.02246 4.78336 1.01891L 1.91379 1.01891C 1.03914 1.01891 0.96134 1.80142 0.956894 2.04019L 0.956894 3.56383L -5.51143e-08 3.56383L -5.51143e-08 2.03664C -5.51143e-08 1.21868 0.50901 -1.91637e-08 1.91379 -1.91637e-08L 4.7867 -1.91637e-08C 5.55577 -1.91637e-08 6.70048 0.541371 6.70048 2.03664L 6.70048 3.56383Z"/>
<path id="path2_fill" d="M 2.62853e-07 -1.80364e-08L 2.62853e-07 14.8913C 2.62853e-07 14.8913 1.32486e-07 16.0366 1.07692 16.0366L 11.8462 16.0366C 11.8462 16.0366 12.9231 16.0366 12.9231 14.8913L 12.9231 -1.80364e-08L 2.62853e-07 -1.80364e-08ZM 3.51417 13.9362C 3.51417 14.253 3.24966 14.5083 2.92403 14.5083C 2.5984 14.5083 2.33389 14.2518 2.33389 13.9362L 2.33389 2.10047C 2.33389 1.78369 2.5984 1.52719 2.92403 1.52719C 3.24966 1.52719 3.51417 1.78369 3.51417 2.10047L 3.51417 13.9362ZM 7.05057 13.9362C 7.05057 14.253 6.78717 14.5083 6.46154 14.5083C 6.13591 14.5083 5.87251 14.2518 5.87251 13.9362L 5.87251 2.10047C 5.87251 1.78369 6.13591 1.52719 6.46154 1.52719C 6.78717 1.52719 7.05057 1.78369 7.05057 2.10047L 7.05057 13.9362ZM 10.5903 13.9362C 10.5903 14.253 10.3258 14.5083 10.0024 14.5083C 9.67564 14.5083 9.41224 14.2518 9.41224 13.9362L 9.41224 2.10047C 9.41224 1.78369 9.67564 1.52719 10.0024 1.52719C 10.3258 1.52719 10.5903 1.78369 10.5903 2.10047L 10.5903 13.9362Z"/>
</defs>
</svg>
