<?xml version="1.0" encoding="utf-8"?>
<!-- Generator: Adobe Illustrator 16.0.0, SVG Export Plug-In . SVG Version: 6.00 Build 0)  -->
<!DOCTYPE svg PUBLIC "-//W3C//DTD SVG 1.1//EN" "http://www.w3.org/Graphics/SVG/1.1/DTD/svg11.dtd">
<svg version="1.1" id="Layer_1" xmlns="http://www.w3.org/2000/svg" xmlns:xlink="http://www.w3.org/1999/xlink" x="0px" y="0px"
	 width="360px" height="210px" viewBox="0 0 360 210" enable-background="new 0 0 360 210" xml:space="preserve">
<path fill="#F2F2F2" stroke="#595A5C" stroke-width="0.5" stroke-miterlimit="10" d="M124.972,205.335
	c-1.743,0-3.157-1.413-3.157-3.157c0-1.742,1.414-3.156,3.157-3.156c1.743,0,3.156,1.414,3.156,3.156
	C128.127,203.922,126.715,205.335,124.972,205.335"/>
<path fill="#F2F2F2" stroke="#595A5C" stroke-width="0.5" stroke-miterlimit="10" d="M124.972,204.433
	c-1.246,0-2.254-1.01-2.254-2.255s1.009-2.254,2.254-2.254c1.245,0,2.254,1.009,2.254,2.254S126.216,204.433,124.972,204.433"/>
<polygon fill="#F2F2F2" stroke="#595A5C" stroke-width="0.5" stroke-miterlimit="10" points="123.118,198.621 124.561,202.229 
	125.283,202.229 126.726,198.621 "/>
<polygon fill="#F2F2F2" stroke="#595A5C" stroke-width="0.5" stroke-miterlimit="10" points="88.849,182.389 121.314,178.781 
	128.528,178.781 160.993,182.389 160.993,185.095 88.849,185.095 "/>
<circle fill="#F2F2F2" stroke="#595A5C" stroke-width="0.5" stroke-miterlimit="10" cx="92.006" cy="189.152" r="3.156"/>
<circle fill="#F2F2F2" stroke="#595A5C" stroke-width="0.5" stroke-miterlimit="10" cx="92.006" cy="189.152" r="2.255"/>
<circle fill="#F2F2F2" stroke="#595A5C" stroke-width="0.5" stroke-miterlimit="10" cx="157.837" cy="189.152" r="3.156"/>
<circle fill="#F2F2F2" stroke="#595A5C" stroke-width="0.5" stroke-miterlimit="10" cx="157.837" cy="189.152" r="2.255"/>
<polygon fill="#F2F2F2" stroke="#595A5C" stroke-width="0.5" stroke-miterlimit="10" points="121.314,178.781 123.118,200.425 
	126.726,200.425 128.528,178.781 "/>
<g>
	<path fill="#F2F2F2" stroke="#595A5C" stroke-width="0.5" stroke-miterlimit="10" d="M122.409,157.644v21.823
		c0,0.694,1.125,1.257,2.513,1.257c1.387,0,2.514-0.563,2.514-1.257v-21.823H122.409z"/>
	
		<ellipse fill="#F2F2F2" stroke="#595A5C" stroke-width="0.5" stroke-miterlimit="10" cx="124.922" cy="157.644" rx="2.513" ry="1.256"/>
	<path fill="#F2F2F2" stroke="#595A5C" stroke-width="0.5" stroke-miterlimit="10" d="M123.037,147.275v10.053
		c0,0.521,0.843,0.943,1.885,0.943c1.04,0,1.885-0.422,1.885-0.943v-10.053H123.037z"/>
	
		<ellipse fill="#F2F2F2" stroke="#595A5C" stroke-width="0.5" stroke-miterlimit="10" cx="124.922" cy="147.275" rx="1.885" ry="0.942"/>
</g>
<polygon fill="#F2F2F2" stroke="#595A5C" stroke-width="0.5" stroke-miterlimit="10" points="89.751,185.095 91.555,189.604 
	92.457,189.604 94.261,185.095 "/>
<polygon fill="#F2F2F2" stroke="#595A5C" stroke-width="0.5" stroke-miterlimit="10" points="155.582,185.095 157.386,189.604 
	158.287,189.604 160.091,185.095 "/>
<polygon fill="#D1D2D3" stroke="#595A5C" stroke-width="0.5" stroke-miterlimit="10" points="213.044,183.018 220.38,186.685 
	227.716,120.666 220.38,120.666 "/>
<polygon fill="#D1D2D3" stroke="#595A5C" stroke-width="0.5" stroke-miterlimit="10" points="271.729,157.343 264.394,153.676 
	257.058,102.327 264.394,102.327 "/>
<polygon fill="#F2F2F2" stroke="#595A5C" stroke-width="0.5" stroke-miterlimit="10" points="154.685,157.682 155.364,162.844 
	156.247,166.376 162.021,166.376 179.137,156.188 177.642,152.521 162.699,151.298 "/>
<path fill="#F2F2F2" stroke="#595A5C" stroke-width="0.5" stroke-miterlimit="10" d="M131.591,119.375
	c0.408,0.271,23.773-4.483,23.773-4.483l10.052,36.271l-6.25,8.693l-5.84-1.222l-7.607-26.354l-18.746,3.803L131.591,119.375z"/>
<g>
	<g>
		<polygon fill="#F2F2F2" stroke="#595A5C" stroke-width="0.5" stroke-miterlimit="10" points="97.716,154.953 125.015,168.602 
			152.315,154.953 125.015,141.301 		"/>
		<polygon fill="#F2F2F2" stroke="#595A5C" stroke-width="0.5" stroke-miterlimit="10" points="97.716,154.953 97.716,158.364 
			125.015,172.015 125.015,168.602 		"/>
		<polygon fill="#F2F2F2" stroke="#595A5C" stroke-width="0.5" stroke-miterlimit="10" points="125.015,172.015 152.315,158.364 
			152.315,154.953 125.015,168.602 		"/>
	</g>
	<g>
		<polygon fill="#F2F2F2" stroke="#595A5C" stroke-width="0.5" stroke-miterlimit="10" points="94.682,152.108 125.015,167.274 
			155.349,152.108 125.015,136.941 		"/>
		<polygon fill="#F2F2F2" stroke="#595A5C" stroke-width="0.5" stroke-miterlimit="10" points="94.682,152.108 94.682,155.899 
			125.015,171.066 125.015,167.274 		"/>
		<polygon fill="#F2F2F2" stroke="#595A5C" stroke-width="0.5" stroke-miterlimit="10" points="125.015,171.066 155.349,155.899 
			155.349,152.108 125.015,167.274 		"/>
	</g>
</g>
<polygon fill="#D1D2D3" stroke="#595A5C" stroke-width="0.5" stroke-miterlimit="10" points="209.376,128.001 209.376,135.337 
	268.061,105.995 268.061,98.66 "/>
<polygon fill="#D1D2D3" stroke="#595A5C" stroke-width="0.5" stroke-miterlimit="10" points="99.342,72.985 99.342,80.32 
	209.376,135.337 209.376,128.001 "/>
<polygon fill="#F2F2F2" stroke="#595A5C" stroke-width="0.5" stroke-miterlimit="10" points="95.673,69.317 213.044,128.001 
	271.729,98.66 154.357,39.976 "/>
<polygon fill="#D1D2D3" stroke="#595A5C" stroke-width="0.5" stroke-miterlimit="10" points="95.673,69.317 95.673,72.985 
	213.044,131.669 213.044,128.001 "/>
<path fill="#F2F2F2" stroke="#595A5C" stroke-width="0.5" stroke-miterlimit="10" d="M208.153,97.883l-6.538-3.27
	c-0.307-0.153-0.668-0.153-0.974,0l-13.079,6.539c-0.37,0.185-0.603,0.563-0.603,0.975c0,0.412,0.232,0.79,0.603,0.975l6.538,3.27
	c0.153,0.076,0.32,0.115,0.489,0.115c0.165,0,0.333-0.039,0.486-0.115l13.077-6.54c0.371-0.185,0.604-0.562,0.604-0.975
	C208.757,98.445,208.524,98.068,208.153,97.883z"/>
<polygon fill="#D1D2D3" stroke="#595A5C" stroke-width="0.5" stroke-miterlimit="10" points="271.729,98.66 271.729,102.327 
	213.044,131.669 213.044,128.001 "/>
<g>
	<polygon fill="#F2F2F2" stroke="#595A5C" stroke-width="0.5" stroke-miterlimit="10" points="147.021,79.099 176.365,93.769 
		191.036,86.434 161.693,71.762 	"/>
	<polygon fill="#F2F2F2" stroke="#595A5C" stroke-width="0.5" stroke-miterlimit="10" points="150.691,79.099 176.365,91.935 
		187.369,86.434 161.693,73.596 	"/>
	<polygon fill="#F2F2F2" stroke="#595A5C" stroke-width="0.5" stroke-miterlimit="10" points="147.021,79.099 147.021,80.32 
		176.365,94.991 176.365,93.769 	"/>
	<polygon fill="#F2F2F2" stroke="#595A5C" stroke-width="0.5" stroke-miterlimit="10" points="176.365,93.769 176.365,94.991 
		191.036,87.656 191.036,86.434 	"/>
	
		<line fill="#F2F2F2" stroke="#595A5C" stroke-width="0.5" stroke-miterlimit="10" x1="154.357" y1="77.264" x2="180.031" y2="90.101"/>
	
		<line fill="#F2F2F2" stroke="#595A5C" stroke-width="0.5" stroke-miterlimit="10" x1="158.026" y1="75.431" x2="183.7" y2="88.268"/>
</g>
<polygon fill="#F2F2F2" stroke="#595A5C" stroke-width="0.5" stroke-miterlimit="10" points="182.466,97.029 186.608,94.381 
	200.058,94.381 202.91,99.406 188.911,104.908 182.466,104.908 "/>
<polygon fill="#F2F2F2" stroke="#595A5C" stroke-width="0.5" stroke-miterlimit="10" points="171.925,161.198 171.925,165.017 
	172.752,169.772 178.321,170.994 189.189,164.61 200.058,158.837 200.464,152.249 196.254,150.008 179.815,152.112 "/>
<path fill="#D1D2D3" stroke="#595A5C" stroke-width="0.5" stroke-miterlimit="10" d="M107.819,73.731c0,0-4.674,0.544-4.81,0.951
	c-0.135,0.408-8.367,7.607-8.367,7.607l-5.434,28.527l4.891,5.568l13.721-5.299V73.731z"/>
<polygon fill="#F2F2F2" stroke="#595A5C" stroke-width="0.5" stroke-miterlimit="10" points="138.791,130.175 171.937,120.666 
	180.031,122.499 186.608,155.645 177.778,162.844 169.083,160.399 167.182,141.381 142.188,156.867 125.887,159.313 "/>
<polygon fill="#D1D2D3" stroke="#595A5C" stroke-width="0.5" stroke-miterlimit="10" points="181.175,95.739 159.167,103.074 
	140.829,92.07 129.825,81.067 107.819,73.731 96.815,84.735 95.673,117.745 93.147,139.751 104.15,154.423 126.158,161.758 
	140.829,128.748 140.829,115.544 151.832,117.745 184.842,106.741 184.842,99.405 "/>
<polygon fill="#F2F2F2" stroke="#595A5C" stroke-width="0.5" stroke-miterlimit="10" points="114.21,79.022 109.449,59.332 
	113.252,49.417 130.776,44.39 137.16,50.774 137.16,60.148 138.111,64.223 136.21,66.261 134.037,74.818 129.146,75.497 
	127.381,82.29 118.008,81.61 "/>
<polygon fill="#D1D2D3" stroke="#595A5C" stroke-width="0.5" stroke-miterlimit="10" points="126.836,63.34 129.961,60.691 
	130.505,66.125 132.679,65.445 133.494,57.838 134.987,53.491 134.987,56.208 137.16,50.774 130.776,44.39 113.252,49.417 
	109.449,59.332 112.931,73.731 116.988,76.788 123.305,74.683 "/>
<g>
	<g>
		<polygon fill="#F2F2F2" stroke="#595A5C" stroke-width="0.5" stroke-miterlimit="10" points="184.142,65.962 176.658,69.703 
			199.104,80.926 206.588,77.185 		"/>
		<polygon fill="#F2F2F2" stroke="#595A5C" stroke-width="0.5" stroke-miterlimit="10" points="176.658,69.703 176.658,70.638 
			199.104,81.862 199.104,80.926 		"/>
		<polygon fill="#F2F2F2" stroke="#595A5C" stroke-width="0.5" stroke-miterlimit="10" points="199.104,80.926 199.104,81.862 
			206.588,78.121 206.588,77.185 		"/>
	</g>
	<polygon fill="#F2F2F2" stroke="#595A5C" stroke-width="0.5" stroke-miterlimit="10" points="186.635,70.638 196.61,75.626 
		196.61,59.415 186.635,54.427 	"/>
	<polygon fill="#F2F2F2" stroke="#595A5C" stroke-width="0.5" stroke-miterlimit="10" points="196.61,59.415 199.104,58.168 
		199.104,74.379 196.61,75.626 	"/>
	<polygon fill="#F2F2F2" stroke="#595A5C" stroke-width="0.5" stroke-miterlimit="10" points="161.693,4.546 161.693,49.438 
		221.554,79.367 221.554,34.474 	"/>
	<polygon fill="#F2F2F2" stroke="#595A5C" stroke-width="0.5" stroke-miterlimit="10" points="161.693,4.546 164.187,3.298 
		224.048,33.227 221.554,34.474 	"/>
	<polygon fill="#F2F2F2" stroke="#595A5C" stroke-width="0.5" stroke-miterlimit="10" points="221.554,34.474 221.554,79.367 
		224.048,78.121 224.048,33.227 	"/>
	<polygon fill="#20BAB3" stroke="#595A5C" stroke-width="0.5" stroke-miterlimit="10" points="162.94,7.039 162.94,48.191 
		220.306,76.873 220.306,35.721 	"/>
</g>
<path fill="#F2F2F2" stroke="#595A5C" stroke-width="0.5" stroke-miterlimit="10" d="M110.344,164.679
	c-2.592-2.594-5.186-15.561-2.592-20.748c2.592-5.188,2.592-18.154,2.592-18.154l-5.186-2.593c0,0,0,12.968-2.593,18.154
	c-2.594,5.187,0,18.154,2.593,20.747L110.344,164.679z"/>
<polygon fill="#F2F2F2" stroke="#595A5C" stroke-width="0.5" stroke-miterlimit="10" points="113.524,73.731 112.574,78.487 
	120.045,80.931 131.456,80.253 134.037,85.279 119.366,85.279 110.944,80.524 "/>
<g>
	<path fill="#F2F2F2" stroke="#595A5C" stroke-width="0.5" stroke-miterlimit="10" d="M222.414,99.418c0,0-0.62-0.311-1.242,0
		l-16.146,8.073c0,0-0.622,0.311,0,0.621l8.694,4.347c0,0,0.62,0.31,1.241,0l16.146-8.073c0,0,0.621-0.31,0-0.621L222.414,99.418z"
		/>
	<path fill="#F2F2F2" stroke="#595A5C" stroke-width="0.5" stroke-miterlimit="10" d="M222.414,98.797c0,0-0.62-0.311-1.242,0
		l-16.146,8.073c0,0-0.622,0.311,0,0.621l8.694,4.348c0,0,0.62,0.31,1.241,0l16.146-8.074c0,0,0.621-0.31,0-0.621L222.414,98.797z"
		/>
	<polygon fill="#20BAB3" stroke="#595A5C" stroke-width="0.5" stroke-miterlimit="10" points="216.204,111.217 206.268,106.249 
		220.552,99.108 230.486,104.076 	"/>
</g>
<path fill="#F2F2F2" stroke="#595A5C" stroke-width="0.5" stroke-miterlimit="10" d="M92.006,98.66c0,0,6.877,13.754,36.678,18.338
	v18.339c0,0-20.631-2.293-36.678-18.339V98.66z"/>
<g>
	<g>
		<path fill="#F2F2F2" stroke="#595A5C" stroke-width="0.5" stroke-miterlimit="10" d="M255.328,96.675l-4.803,0.761v-1.334
			l4.803-0.761c0.826-0.131,0.929-0.805,0.935-1.088v-6.397c0-0.825-0.658-0.824-0.941-0.785l-4.796,0.759v-1.334l4.803-0.761
			c0.911-0.145,2.268,0.245,2.268,1.91v6.403C257.596,94.959,256.992,96.412,255.328,96.675z"/>
	</g>
	<path fill="#F2F2F2" stroke="#595A5C" stroke-width="0.5" stroke-miterlimit="10" d="M239.985,85.429v12.808
		c0,1.768,2.867,3.202,6.405,3.202c3.536,0,6.402-1.434,6.402-3.202V85.429H239.985z"/>
	
		<ellipse fill="#F2F2F2" stroke="#595A5C" stroke-width="0.5" stroke-miterlimit="10" cx="246.389" cy="85.429" rx="6.404" ry="3.201"/>
	
		<ellipse fill="#F2F2F2" stroke="#595A5C" stroke-width="0.5" stroke-miterlimit="10" cx="246.39" cy="85.429" rx="5.604" ry="2.801"/>
	<g>
		<defs>
			<ellipse id="SVGID_1_" cx="246.39" cy="85.429" rx="5.604" ry="2.801"/>
		</defs>
		<clipPath id="SVGID_2_">
			<use xlink:href="#SVGID_1_"  overflow="visible"/>
		</clipPath>
		
			<ellipse clip-path="url(#SVGID_2_)" fill="#6E6F71" stroke="#595A5C" stroke-width="0.5" stroke-miterlimit="10" cx="246.39" cy="87.429" rx="5.604" ry="2.803"/>
	</g>
</g>
<g>
	<polygon fill="#F2F2F2" stroke="#595A5C" stroke-width="0.5" stroke-miterlimit="10" points="148.454,53.943 156.884,58.158 
		156.884,62.375 148.454,58.158 	"/>
	<polygon fill="#F2F2F2" stroke="#595A5C" stroke-width="0.5" stroke-miterlimit="10" points="148.454,53.943 156.884,49.726 
		165.317,53.943 156.884,58.158 	"/>
	<polygon fill="#F2F2F2" stroke="#595A5C" stroke-width="0.5" stroke-miterlimit="10" points="156.884,58.158 156.884,62.375 
		165.317,58.158 165.317,53.943 	"/>
	<line fill="none" stroke="#595A5C" stroke-width="0.5" stroke-miterlimit="10" x1="148.454" y1="54.47" x2="156.884" y2="58.686"/>
	
		<line fill="none" stroke="#595A5C" stroke-width="0.5" stroke-miterlimit="10" x1="148.454" y1="54.996" x2="156.884" y2="59.212"/>
	
		<line fill="none" stroke="#595A5C" stroke-width="0.5" stroke-miterlimit="10" x1="148.454" y1="55.523" x2="156.884" y2="59.739"/>
	<line fill="none" stroke="#595A5C" stroke-width="0.5" stroke-miterlimit="10" x1="148.454" y1="56.05" x2="156.884" y2="60.266"/>
	
		<line fill="none" stroke="#595A5C" stroke-width="0.5" stroke-miterlimit="10" x1="148.454" y1="56.577" x2="156.884" y2="60.793"/>
	<line fill="none" stroke="#595A5C" stroke-width="0.5" stroke-miterlimit="10" x1="148.454" y1="57.105" x2="156.884" y2="61.32"/>
	
		<line fill="none" stroke="#595A5C" stroke-width="0.5" stroke-miterlimit="10" x1="148.454" y1="57.632" x2="156.884" y2="61.847"/>
	<line fill="none" stroke="#595A5C" stroke-width="0.5" stroke-miterlimit="10" x1="156.884" y1="58.686" x2="165.317" y2="54.47"/>
	
		<line fill="none" stroke="#595A5C" stroke-width="0.5" stroke-miterlimit="10" x1="165.317" y1="54.996" x2="156.884" y2="59.212"/>
	
		<line fill="none" stroke="#595A5C" stroke-width="0.5" stroke-miterlimit="10" x1="156.884" y1="59.739" x2="165.317" y2="55.523"/>
	<line fill="none" stroke="#595A5C" stroke-width="0.5" stroke-miterlimit="10" x1="165.317" y1="56.05" x2="156.884" y2="60.266"/>
	
		<line fill="none" stroke="#595A5C" stroke-width="0.5" stroke-miterlimit="10" x1="156.884" y1="60.793" x2="165.317" y2="56.577"/>
	<line fill="none" stroke="#595A5C" stroke-width="0.5" stroke-miterlimit="10" x1="165.317" y1="57.105" x2="156.884" y2="61.32"/>
	
		<line fill="none" stroke="#595A5C" stroke-width="0.5" stroke-miterlimit="10" x1="156.884" y1="61.847" x2="165.317" y2="57.632"/>
	<path fill="#F2F2F2" stroke="#595A5C" stroke-width="0.5" stroke-miterlimit="10" d="M165.317,53.943l-8.433-4.217
		c0,0-6.85,2.635-8.958,1.582l7.905,4.216C155.831,55.523,159.52,57.105,165.317,53.943z"/>
</g>
</svg>
