<?xml version="1.0" encoding="utf-8"?>
<!-- Generator: Adobe Illustrator 16.0.0, SVG Export Plug-In . SVG Version: 6.00 Build 0)  -->
<!DOCTYPE svg PUBLIC "-//W3C//DTD SVG 1.1//EN" "http://www.w3.org/Graphics/SVG/1.1/DTD/svg11.dtd">
<svg version="1.1" id="Layer_1" xmlns="http://www.w3.org/2000/svg" xmlns:xlink="http://www.w3.org/1999/xlink" x="0px" y="0px"
	 width="348.4px" height="50.302px" viewBox="0 0 348.4 50.302" enable-background="new 0 0 348.4 50.302" xml:space="preserve">
<g>
	<g>
		<path fill="#FFFFFF" d="M328.713,33.252l-3.392-4.05c-0.094-0.189-0.188-0.378-0.188-0.565v-6.218l0.659-0.659
			c0.094-0.095,0.188-0.283,0.188-0.376v-1.602c0-0.283-0.283-0.565-0.564-0.565h-4.898c-0.283,0-0.565,0.283-0.565,0.565v1.602
			c0,0.094,0.094,0.283,0.094,0.376l0.565,0.659v6.312c0,0.189-0.094,0.377-0.188,0.565l-3.297,4.05
			c-0.094,0.189-0.188,0.377-0.188,0.565v4.803c0,0.471,0.377,0.848,0.848,0.848h10.269c0.469,0,0.848-0.377,0.848-0.848v-4.803
			C328.903,33.535,328.807,33.346,328.713,33.252z M324.097,19.782c0-0.188,0.096-0.377,0.189-0.377h0.849
			c0.094,0,0.188,0.189,0.188,0.377v0.754c0,0.188-0.094,0.377-0.188,0.377l-0.849-0.283c-0.094,0-0.189-0.189-0.189-0.377V19.782z
			 M327.865,37.115c0,0.377-0.282,0.753-0.563,0.941c-0.095,0.471-0.283,0.848-0.66,0.848h-0.754
			c0.283-0.188,0.378-0.377,0.378-0.753h-7.159c-0.564,0-1.037-0.471-1.037-1.036v-3.392h8.102c0-0.282-0.094-0.564-0.188-0.848
			l-1.318-3.391c-0.094-0.282-0.188-0.754-0.188-1.13v-5.37l0,0c0-0.565,0-0.754,0.377-0.942h0.094h-3.957
			c-0.094,0-0.094,0-0.094-0.095l-0.377-0.376c-0.094-0.094,0-0.283,0.094-0.283h4.806c0.188,0,0.188,0.189,0.094,0.283
			l-0.377,0.376l0,0l-0.378,0.565c0,0,0,0,0,0.188v5.652c0,0.471,0.095,0.848,0.282,1.225l2.168,3.485
			c0.095,0.189,0.188,0.377,0.188,0.66h0.564v3.391L327.865,37.115L327.865,37.115z M322.119,31.086c0.188,0,0.472,0.188,0.472,0.47
			v0.942c0,0.188-0.189,0.47-0.472,0.47h-0.941c-0.189,0-0.472-0.188-0.472-0.47v-0.942c0-0.189,0.189-0.47,0.472-0.47H322.119z
			 M321.649,27.789v-0.471c0-0.094,0.095-0.188,0.188-0.188h0.471c0.095,0,0.188,0.094,0.188,0.188v0.471
			c0,0.094-0.094,0.189-0.188,0.189h-0.471C321.743,27.978,321.649,27.883,321.649,27.789z M323.062,29.013h0.754
			c0.188,0,0.281,0.094,0.281,0.283v0.753c0,0.189-0.094,0.283-0.281,0.283h-0.754c-0.189,0-0.283-0.094-0.283-0.283v-0.753
			C322.779,29.203,322.968,29.013,323.062,29.013z M323.062,24.681v-0.378c0-0.094,0.094-0.188,0.188-0.188h0.378
			c0.093,0,0.188,0.094,0.188,0.188v0.378c0,0.094-0.095,0.188-0.188,0.188h-0.378C323.156,24.774,323.062,24.774,323.062,24.681z"
			/>
	</g>
	<g>
		<g>
			<g>
				<path fill="#FFFFFF" d="M323.438,13.376h-1.318l0,0l0,0c0,0-0.282,0-0.471-0.189l-0.471-0.471
					c-0.188-0.188-0.188-0.471-0.188-0.471v-1.319c0-0.378-0.283-0.659-0.659-0.659h-1.413c-0.376,0-0.658,0.281-0.658,0.659v1.413
					c0,0.377,0.282,0.66,0.658,0.66h1.319l0,0c0,0,0.282,0,0.565,0.188l0.47,0.471l0,0c0.188,0.188,0.188,0.565,0.188,0.565l0,0l0,0
					v1.318c0,0.377,0.283,0.659,0.659,0.659h1.414c0.376,0,0.658-0.282,0.658-0.659v-1.413
					C324.097,13.659,323.816,13.376,323.438,13.376z"/>
			</g>
		</g>
		<g>
			<g>
				<path fill="#FFFFFF" d="M311.664,12.906h1.317l0,0l0,0c0,0,0.283,0,0.471,0.188l0.472,0.47c0.188,0.189,0.188,0.471,0.188,0.471
					v1.318c0,0.377,0.283,0.659,0.66,0.659h1.412c0.377,0,0.659-0.282,0.659-0.659v-1.413c0-0.377-0.283-0.659-0.659-0.659h-1.317
					l0,0c0,0-0.283,0-0.565-0.188l-0.471-0.471l0,0c-0.188-0.188-0.188-0.564-0.188-0.564l0,0l0,0v-1.319
					c0-0.377-0.283-0.66-0.66-0.66h-1.412c-0.378,0-0.659,0.283-0.659,0.66v1.413C311.005,12.623,311.286,12.906,311.664,12.906z"/>
			</g>
		</g>
		<g>
			<g>
				<path fill="#FFFFFF" d="M317.786,14.318v1.319l0,0l0,0c0,0,0,0.283-0.188,0.471l-0.472,0.471
					c-0.188,0.188-0.47,0.188-0.47,0.188h-1.32c-0.376,0-0.659,0.283-0.659,0.659v1.413c0,0.377,0.283,0.659,0.659,0.659h1.414
					c0.376,0,0.659-0.283,0.659-0.659v-1.318l0,0c0,0,0-0.283,0.188-0.565l0.47-0.471l0,0c0.189-0.188,0.565-0.188,0.565-0.188l0,0
					l0,0h1.318c0.377,0,0.659-0.283,0.659-0.66v-1.413c0-0.377-0.282-0.66-0.659-0.66h-1.412
					C318.069,13.753,317.786,14.036,317.786,14.318z"/>
			</g>
		</g>
	</g>
	<g>
		<g>
			<g>
				<g>
					<path fill="#FFFFFF" d="M278.505,10.739h3.391v0.659h-1.412v5.464h-0.659v-5.464h-1.414v-0.659H278.505z"/>
				</g>
			</g>
			<g>
				<g>
					<path fill="#FFFFFF" d="M282.65,16.861v-6.123h0.659v0.753h0.66v0.753h-0.66v4.616H282.65z M284.063,13.659v-1.413h0.66v1.413
						h0.659v0.753h-0.659v-0.753H284.063z M285.382,13.659v-1.413h0.659v1.413H285.382z M286.795,16.861v-4.616h-0.659v-0.753h0.659
						v-0.753h0.659v6.123H286.795z"/>
				</g>
			</g>
		</g>
		<g>
			<g>
				<g>
					<path fill="#FFFFFF" d="M193.444,17.05h-6.312h-1.318h-8.573v16.203h3.77V20.818h3.768v12.435h3.769V20.818h3.768v12.435h3.768
						V19.499h-2.543V17.05H193.444z M207.197,17.05v2.449h-2.543v13.753h3.769V20.818h4.333v-3.769L207.197,17.05L207.197,17.05z
						 M198.436,33.252h3.769V17.05h-3.769V33.252z"/>
				</g>
			</g>
		</g>
		<g>
			<g>
				<polygon fill="#FFFFFF" points="247.702,17.05 241.391,17.05 240.073,17.05 231.499,17.05 231.499,33.252 235.173,33.252 
					235.173,20.818 238.942,20.818 238.942,33.252 242.709,33.252 242.709,20.818 246.478,20.818 246.478,33.252 250.152,33.252 
					250.152,19.499 247.702,19.499 				"/>
			</g>
		</g>
		<g>
			<g>
				<g>
					<path fill="#FFFFFF" d="M262.585,17.05h-7.44v2.544h-2.449v11.209h2.449v2.449h9.702v-3.769h-8.478v-2.449h8.667v-7.536h-2.545
						V17.05H262.585z M256.462,20.724h4.898v2.544h-4.898V20.724z"/>
				</g>
			</g>
		</g>
		<g>
			<g>
				<g>
					<path fill="#FFFFFF" d="M277.564,17.05h-7.442v2.544h-2.449v11.209h2.449v2.449h9.703v-3.769h-8.478v-2.449h8.665v-7.536
						h-2.543V17.05H277.564z M271.347,20.724h4.897v2.544h-4.897V20.724z"/>
				</g>
			</g>
		</g>
		<g>
			<g>
				<rect x="198.436" y="10.739" fill="#FFFFFF" width="3.769" height="3.769"/>
			</g>
		</g>
		<g>
			<g>
				<polygon fill="#FFFFFF" points="225.189,29.673 218.971,29.673 218.971,17.05 215.298,17.05 215.298,30.803 217.747,30.803 
					217.747,33.252 226.32,33.252 228.956,33.252 228.956,30.803 228.956,17.05 225.189,17.05 				"/>
			</g>
		</g>
	</g>
	<g>
		<path fill="#FFFFFF" d="M300.171,0h-2.261H156.706v50.302H297.91h2.354h48.136V0H300.171z M297.91,47.947H159.06V2.261h138.85
			V47.947L297.91,47.947z M346.045,47.947h-45.874V2.261h45.874V47.947z"/>
	</g>
</g>
<g>
	<path fill="#FFFFFF" d="M16.91,29.509c0.153,0,0.292,0.063,0.417,0.187l1.091,1.191c-0.842,0.977-1.864,1.737-3.065,2.283
		c-1.202,0.546-2.649,0.818-4.343,0.818c-1.484,0-2.828-0.256-4.034-0.768c-1.206-0.512-2.235-1.229-3.087-2.153
		c-0.852-0.924-1.513-2.032-1.981-3.324c-0.469-1.292-0.704-2.713-0.704-4.264s0.251-2.972,0.754-4.264s1.208-2.402,2.118-3.331
		c0.909-0.928,1.998-1.648,3.266-2.161c1.269-0.512,2.668-0.768,4.2-0.768c1.512,0,2.816,0.235,3.913,0.704
		c1.096,0.469,2.069,1.105,2.921,1.909l-0.904,1.278c-0.067,0.096-0.144,0.175-0.23,0.237c-0.086,0.062-0.21,0.093-0.373,0.093
		c-0.125,0-0.256-0.045-0.395-0.137c-0.139-0.091-0.304-0.203-0.495-0.337c-0.192-0.134-0.417-0.277-0.675-0.431
		c-0.258-0.153-0.565-0.296-0.919-0.431c-0.354-0.134-0.766-0.246-1.235-0.337c-0.469-0.091-1.01-0.136-1.622-0.136
		c-1.101,0-2.108,0.189-3.022,0.567c-0.914,0.378-1.701,0.917-2.362,1.615c-0.66,0.699-1.175,1.551-1.543,2.556
		s-0.553,2.13-0.553,3.374c0,1.283,0.184,2.426,0.553,3.431c0.369,1.005,0.871,1.855,1.508,2.549
		c0.636,0.694,1.39,1.223,2.261,1.586c0.871,0.364,1.809,0.545,2.814,0.545c0.612,0,1.163-0.036,1.651-0.107
		c0.488-0.072,0.94-0.185,1.357-0.337c0.417-0.153,0.804-0.347,1.163-0.582s0.72-0.515,1.084-0.84
		C16.599,29.582,16.757,29.509,16.91,29.509z"/>
	<path fill="#FFFFFF" d="M21.677,33.759V19.215h1.464c0.277,0,0.469,0.053,0.574,0.158c0.105,0.105,0.177,0.288,0.215,0.546
		l0.172,2.269c0.498-1.015,1.113-1.807,1.845-2.376c0.732-0.569,1.591-0.854,2.577-0.854c0.402,0,0.766,0.045,1.091,0.136
		c0.325,0.091,0.627,0.218,0.905,0.38l-0.331,1.91c-0.067,0.239-0.215,0.359-0.445,0.359c-0.134,0-0.34-0.045-0.618-0.136
		c-0.277-0.091-0.665-0.137-1.163-0.137c-0.89,0-1.635,0.259-2.232,0.775c-0.599,0.517-1.099,1.269-1.5,2.254v9.26H21.677z"/>
	<path fill="#FFFFFF" d="M43.385,33.759H42.25c-0.249,0-0.45-0.038-0.603-0.115c-0.153-0.077-0.253-0.239-0.301-0.488l-0.287-1.35
		c-0.383,0.345-0.756,0.653-1.12,0.926c-0.364,0.272-0.747,0.502-1.148,0.689s-0.831,0.328-1.285,0.423
		c-0.455,0.096-0.96,0.144-1.515,0.144c-0.564,0-1.093-0.079-1.586-0.237s-0.921-0.396-1.285-0.713
		c-0.364-0.317-0.653-0.718-0.869-1.203c-0.215-0.485-0.323-1.059-0.323-1.721c0-0.576,0.158-1.131,0.474-1.664
		c0.316-0.533,0.826-1.006,1.529-1.419s1.625-0.751,2.764-1.016c1.139-0.264,2.532-0.396,4.178-0.396v-1.142
		c0-1.136-0.242-1.996-0.725-2.579c-0.483-0.583-1.199-0.874-2.146-0.874c-0.623,0-1.146,0.079-1.572,0.237
		s-0.794,0.335-1.105,0.531s-0.579,0.373-0.804,0.531c-0.225,0.158-0.448,0.237-0.668,0.237c-0.172,0-0.323-0.045-0.452-0.136
		s-0.232-0.204-0.309-0.337l-0.459-0.818c0.804-0.775,1.67-1.354,2.599-1.737c0.928-0.383,1.958-0.574,3.087-0.574
		c0.813,0,1.536,0.134,2.168,0.402s1.163,0.642,1.594,1.12c0.431,0.479,0.756,1.058,0.976,1.737c0.22,0.68,0.33,1.426,0.33,2.24
		V33.759z M36.752,32.194c0.45,0,0.861-0.045,1.235-0.136c0.373-0.091,0.725-0.22,1.055-0.388c0.33-0.167,0.646-0.371,0.947-0.61
		c0.302-0.239,0.596-0.512,0.883-0.818v-3c-1.177,0-2.178,0.075-3.001,0.224c-0.823,0.149-1.493,0.344-2.01,0.585
		c-0.517,0.241-0.893,0.525-1.127,0.852c-0.235,0.328-0.352,0.693-0.352,1.097c0,0.385,0.062,0.718,0.187,0.997
		c0.125,0.279,0.292,0.508,0.503,0.686c0.21,0.178,0.459,0.308,0.747,0.39C36.106,32.153,36.416,32.194,36.752,32.194z"/>
	<path fill="#FFFFFF" d="M47.835,33.759V21.397l-1.608-0.187c-0.201-0.048-0.366-0.122-0.496-0.223
		c-0.129-0.1-0.194-0.246-0.194-0.438v-1.048h2.297v-1.407c0-0.833,0.117-1.572,0.352-2.218c0.235-0.646,0.57-1.192,1.005-1.637
		c0.436-0.445,0.959-0.783,1.572-1.012c0.613-0.23,1.302-0.345,2.068-0.345c0.65,0,1.253,0.096,1.809,0.287l-0.057,1.278
		c-0.01,0.191-0.091,0.307-0.244,0.345c-0.153,0.038-0.369,0.057-0.646,0.057h-0.445c-0.44,0-0.84,0.058-1.199,0.172
		s-0.667,0.302-0.926,0.56c-0.259,0.258-0.458,0.598-0.596,1.02c-0.139,0.421-0.208,0.943-0.208,1.565v1.335h4.207v1.852h-4.121
		v12.405H47.835z"/>
	<path fill="#FFFFFF" d="M61.345,33.989c-1.148,0-2.032-0.32-2.649-0.962c-0.617-0.641-0.926-1.565-0.926-2.771v-8.901h-1.751
		c-0.153,0-0.282-0.045-0.388-0.136s-0.158-0.232-0.158-0.424v-1.019l2.383-0.302l0.588-4.494c0.019-0.144,0.082-0.261,0.187-0.352
		c0.105-0.091,0.239-0.137,0.402-0.137h1.292v5.011h4.164v1.852h-4.164v8.729c0,0.612,0.148,1.067,0.445,1.364
		c0.296,0.297,0.679,0.445,1.148,0.445c0.268,0,0.5-0.036,0.696-0.108s0.366-0.151,0.51-0.237c0.144-0.086,0.266-0.165,0.366-0.237
		s0.189-0.108,0.266-0.108c0.134,0,0.253,0.082,0.359,0.244l0.747,1.22c-0.44,0.412-0.972,0.735-1.594,0.969
		S62.005,33.989,61.345,33.989z"/>
	<path fill="#FFFFFF" d="M73.405,18.986c0.871,0,1.675,0.146,2.412,0.438c0.737,0.292,1.373,0.713,1.909,1.264
		s0.955,1.23,1.256,2.039c0.302,0.809,0.452,1.73,0.452,2.764c0,0.402-0.043,0.67-0.129,0.804c-0.086,0.134-0.249,0.201-0.488,0.201
		h-9.677c0.019,0.919,0.144,1.718,0.373,2.397c0.23,0.68,0.546,1.247,0.948,1.701c0.402,0.455,0.88,0.795,1.436,1.02
		c0.555,0.225,1.178,0.337,1.867,0.337c0.641,0,1.194-0.074,1.658-0.223c0.464-0.148,0.864-0.309,1.199-0.481
		s0.615-0.333,0.84-0.481c0.225-0.148,0.419-0.222,0.582-0.222c0.21,0,0.374,0.081,0.488,0.244l0.718,0.934
		c-0.316,0.383-0.694,0.715-1.134,0.998c-0.44,0.283-0.912,0.515-1.414,0.696c-0.502,0.182-1.022,0.318-1.558,0.409
		c-0.536,0.091-1.067,0.137-1.594,0.137c-1.005,0-1.931-0.17-2.778-0.51c-0.847-0.34-1.579-0.837-2.197-1.493
		c-0.617-0.656-1.098-1.467-1.443-2.434c-0.344-0.967-0.517-2.077-0.517-3.331c0-1.014,0.155-1.962,0.466-2.843
		c0.311-0.88,0.759-1.644,1.343-2.29c0.583-0.646,1.297-1.153,2.139-1.521C71.405,19.17,72.352,18.986,73.405,18.986z
		 M73.462,20.866c-1.234,0-2.206,0.357-2.914,1.07c-0.708,0.713-1.149,1.701-1.321,2.965h7.911c0-0.593-0.082-1.137-0.244-1.629
		c-0.163-0.493-0.402-0.919-0.718-1.278s-0.701-0.637-1.156-0.833C74.565,20.965,74.046,20.866,73.462,20.866z"/>
	<path fill="#FFFFFF" d="M92.93,33.759c-0.364,0-0.594-0.177-0.689-0.531l-0.229-1.766c-0.622,0.756-1.333,1.362-2.132,1.816
		c-0.799,0.455-1.716,0.682-2.75,0.682c-0.833,0-1.589-0.161-2.269-0.481c-0.68-0.321-1.259-0.792-1.737-1.415
		c-0.479-0.622-0.847-1.397-1.105-2.326c-0.258-0.928-0.388-1.996-0.388-3.202c0-1.072,0.144-2.07,0.431-2.994
		c0.287-0.923,0.701-1.725,1.242-2.405c0.541-0.68,1.199-1.213,1.974-1.601c0.775-0.388,1.656-0.582,2.642-0.582
		c0.89,0,1.651,0.15,2.283,0.452c0.632,0.301,1.196,0.725,1.694,1.271v-8.069h2.556v21.148H92.93z M87.977,31.893
		c0.833,0,1.562-0.191,2.189-0.575c0.626-0.382,1.203-0.923,1.73-1.622v-7.035c-0.469-0.632-0.983-1.074-1.543-1.328
		c-0.56-0.253-1.18-0.38-1.859-0.38c-1.359,0-2.402,0.483-3.13,1.45s-1.091,2.345-1.091,4.135c0,0.948,0.082,1.759,0.244,2.434
		s0.402,1.23,0.718,1.666c0.316,0.436,0.704,0.753,1.163,0.955S87.384,31.893,87.977,31.893z"/>
	<path fill="#FFFFFF" d="M104.372,33.759V12.611h2.57v8.701c0.603-0.699,1.294-1.261,2.074-1.687
		c0.78-0.426,1.673-0.639,2.678-0.639c0.842,0,1.603,0.158,2.283,0.474s1.259,0.787,1.737,1.414s0.847,1.402,1.105,2.326
		c0.259,0.923,0.388,1.988,0.388,3.194c0,1.072-0.144,2.07-0.431,2.994s-0.701,1.723-1.242,2.397
		c-0.541,0.675-1.201,1.206-1.981,1.594s-1.658,0.582-2.635,0.582c-0.938,0-1.735-0.182-2.39-0.546
		c-0.656-0.363-1.228-0.871-1.716-1.521l-0.129,1.321c-0.077,0.364-0.296,0.545-0.66,0.545H104.372z M110.862,21.024
		c-0.833,0-1.563,0.191-2.189,0.574c-0.627,0.383-1.204,0.924-1.73,1.623v7.035c0.459,0.632,0.969,1.077,1.529,1.335
		s1.185,0.388,1.874,0.388c1.359,0,2.402-0.483,3.13-1.45s1.091-2.345,1.091-4.135c0-0.948-0.084-1.761-0.251-2.441
		c-0.167-0.679-0.409-1.237-0.725-1.672c-0.316-0.436-0.704-0.754-1.163-0.955C111.968,21.125,111.446,21.024,110.862,21.024z"/>
	<path fill="#FFFFFF" d="M124.229,38.052c-0.086,0.191-0.194,0.344-0.323,0.459c-0.129,0.115-0.328,0.172-0.596,0.172h-1.895
		l2.656-5.771l-6.001-13.697h2.211c0.22,0,0.392,0.055,0.517,0.165c0.125,0.11,0.215,0.232,0.273,0.366l3.891,9.16
		c0.086,0.21,0.16,0.421,0.223,0.631c0.062,0.211,0.117,0.426,0.165,0.646c0.067-0.22,0.134-0.435,0.201-0.646
		c0.067-0.21,0.144-0.426,0.229-0.646l3.776-9.146c0.057-0.153,0.155-0.28,0.294-0.38s0.29-0.151,0.453-0.151h2.039L124.229,38.052z
		"/>
</g>
</svg>
