<?xml version="1.0" encoding="utf-8"?>
<!-- Generator: Adobe Illustrator 16.0.0, SVG Export Plug-In . SVG Version: 6.00 Build 0)  -->
<!DOCTYPE svg PUBLIC "-//W3C//DTD SVG 1.1//EN" "http://www.w3.org/Graphics/SVG/1.1/DTD/svg11.dtd">
<svg version="1.1" id="Layer_1" xmlns="http://www.w3.org/2000/svg" xmlns:xlink="http://www.w3.org/1999/xlink" x="0px" y="0px"
	 width="360px" height="210px" viewBox="0 0 360 210" enable-background="new 0 0 360 210" xml:space="preserve">
<g>
	<g>
		<polyline fill="none" stroke="#595A5C" stroke-width="0.5" stroke-miterlimit="10" points="69.565,113.632 69.565,109.328 
			164.262,61.979 164.262,66.284 		"/>
		
			<line fill="none" stroke="#595A5C" stroke-width="0.5" stroke-miterlimit="10" x1="78.174" y1="105.023" x2="78.174" y2="109.328"/>
		
			<line fill="none" stroke="#595A5C" stroke-width="0.5" stroke-miterlimit="10" x1="95.392" y1="96.415" x2="95.392" y2="100.719"/>
		
			<line fill="none" stroke="#595A5C" stroke-width="0.5" stroke-miterlimit="10" x1="112.609" y1="87.806" x2="112.609" y2="92.11"/>
		
			<line fill="none" stroke="#595A5C" stroke-width="0.5" stroke-miterlimit="10" x1="129.827" y1="79.197" x2="129.827" y2="83.501"/>
		
			<line fill="none" stroke="#595A5C" stroke-width="0.5" stroke-miterlimit="10" x1="147.044" y1="70.588" x2="147.044" y2="74.892"/>
	</g>
	<path fill="#D1D2D3" stroke="#595A5C" stroke-width="0.5" stroke-miterlimit="10" d="M60.956,135.154
		c0,0,15.064,12.912,43.044,4.305l90.393-45.197l4.305-10.761l-34.436-17.218l-94.696,47.348L60.956,135.154z"/>
	<polygon fill="#F2F2F2" stroke="#595A5C" stroke-width="0.5" stroke-miterlimit="10" points="69.565,113.632 104,130.85 
		198.697,83.501 164.262,66.284 	"/>
	<polygon fill="#F2F2F2" stroke="#595A5C" stroke-width="0.5" stroke-miterlimit="10" points="69.565,113.632 69.565,130.85 
		104,130.85 	"/>
	<g>
		<polygon fill="#F2F2F2" stroke="#595A5C" stroke-width="0.5" stroke-miterlimit="10" points="187.937,168.782 187.937,186 
			222.371,186 		"/>
		<path fill="#D1D2D3" stroke="#595A5C" stroke-width="0.5" stroke-miterlimit="10" d="M187.937,186c0,0,15.065,12.913,43.044,4.305
			l75.327-38.74l2.152-8.607l-34.437-17.218l-86.088,43.044L187.937,186L187.937,186z"/>
		<g>
			
				<line fill="none" stroke="#595A5C" stroke-width="0.5" stroke-miterlimit="10" x1="196.545" y1="177.391" x2="278.329" y2="136.499"/>
			
				<line fill="none" stroke="#595A5C" stroke-width="0.5" stroke-miterlimit="10" x1="196.545" y1="181.695" x2="282.633" y2="138.65"/>
			
				<line fill="none" stroke="#595A5C" stroke-width="0.5" stroke-miterlimit="10" x1="199.896" y1="184.248" x2="286.521" y2="141.012"/>
			
				<line fill="none" stroke="#595A5C" stroke-width="0.5" stroke-miterlimit="10" x1="208.039" y1="184.557" x2="290.687" y2="143.232"/>
			
				<line fill="none" stroke="#595A5C" stroke-width="0.5" stroke-miterlimit="10" x1="216.04" y1="184.861" x2="294.853" y2="145.455"/>
		</g>
		<polygon fill="#F2F2F2" stroke="#595A5C" stroke-width="0.5" stroke-miterlimit="10" points="274.024,125.738 274.024,134.348 
			306.308,151.564 308.46,142.956 		"/>
		<polygon fill="#D1D2D3" stroke="#595A5C" stroke-width="0.5" stroke-miterlimit="10" points="222.371,186 230.98,190.305 
			306.308,151.564 308.46,142.956 		"/>
		<path fill="#F2F2F2" stroke="#595A5C" stroke-width="0.5" stroke-miterlimit="10" d="M189.436,169.531
			c0,0,86.151-43.012,86.024-43.075c-0.128-0.063-1.437-0.718-1.437-0.718l-86.088,43.044L189.436,169.531z"/>
		<polygon fill="#F2F2F2" stroke="#595A5C" stroke-width="0.5" stroke-miterlimit="10" points="274.024,127.199 305.448,142.956 
			297.521,146.879 274.024,134.348 		"/>
		<path fill="none" stroke="#595A5C" stroke-width="0.5" stroke-miterlimit="10" d="M248.084,150.302c0,0-6.15,5.188,8.84,2.979
			c14.989-2.209-23.766-6.053-7.751,1.506s19.474-4.164,10.186-4.934c-9.289-0.769-24.343,4.418-9.031,7.461
			c15.31,3.045,16.976-9.15,0.191-7.537s-4.036,7.892,6.405,5.267c10.441-2.627-20.242-3.716-7.303,1.151"/>
		<polygon fill="#F2F2F2" stroke="#595A5C" stroke-width="0.5" stroke-miterlimit="10" points="187.937,186 222.371,186 
			220.427,185.027 189.371,183.848 189.436,169.531 187.937,168.782 		"/>
		<polyline fill="#D1D2D3" stroke="#595A5C" stroke-width="0.5" stroke-miterlimit="10" points="189.436,169.531 196.545,173.087 
			274.024,134.348 		"/>
		<polygon fill="#F2F2F2" stroke="#595A5C" stroke-width="0.5" stroke-miterlimit="10" points="218.067,158.021 226.676,153.717 
			256.807,168.782 248.198,173.087 		"/>
		<polygon fill="#F2F2F2" stroke="#595A5C" stroke-width="0.5" stroke-miterlimit="10" points="218.067,158.021 218.067,159.501 
			246.647,173.861 248.198,173.087 		"/>
		<polygon fill="#F2F2F2" stroke="#595A5C" stroke-width="0.5" stroke-miterlimit="10" points="243.894,145.107 252.502,140.805 
			282.633,155.869 274.024,160.174 		"/>
		<polygon fill="#F2F2F2" stroke="#595A5C" stroke-width="0.5" stroke-miterlimit="10" points="243.894,145.107 243.894,146.305 
			272.733,160.818 274.024,160.174 		"/>
		<polygon fill="#F2F2F2" stroke="#595A5C" stroke-width="0.5" stroke-miterlimit="10" points="222.371,186 220.427,185.027 
			306.962,142.207 308.46,142.956 		"/>
		
			<line fill="none" stroke="#595A5C" stroke-width="0.5" stroke-miterlimit="10" x1="196.545" y1="173.087" x2="196.545" y2="184.12"/>
		<g>
			<polygon fill="#F2F2F2" stroke="#595A5C" stroke-width="0.5" stroke-miterlimit="10" points="260.955,164.688 262.699,165.559 
				267.932,162.941 266.188,162.068 			"/>
			<polygon fill="#F2F2F2" stroke="#595A5C" stroke-width="0.5" stroke-miterlimit="10" points="260.955,164.688 260.955,165.122 
				262.699,165.994 262.699,165.559 			"/>
			<polygon fill="#F2F2F2" stroke="#595A5C" stroke-width="0.5" stroke-miterlimit="10" points="267.932,162.941 267.932,163.378 
				262.699,165.994 262.699,165.559 			"/>
			<g>
				<g>
					<path fill="#F2F2F2" stroke="#595A5C" stroke-width="0.5" stroke-miterlimit="10" d="M264.553,163.938
						c-0.147,0-0.267-0.119-0.267-0.267v-2.069c0-0.146,0.118-0.267,0.267-0.267c0.146,0,0.267,0.119,0.267,0.267v2.069
						C264.819,163.818,264.699,163.938,264.553,163.938z"/>
				</g>
				<g>
					<path fill="#F2F2F2" stroke="#595A5C" stroke-width="0.5" stroke-miterlimit="10" d="M264.443,161.697
						c-0.665,0-1.187-0.856-1.187-1.95c0-0.32,0.046-0.638,0.135-0.917c0.034-0.107,0.15-0.168,0.259-0.135
						c0.109,0.035,0.168,0.15,0.135,0.26c-0.076,0.238-0.116,0.513-0.116,0.792c0,0.431,0.093,0.833,0.261,1.132
						c0.146,0.258,0.333,0.406,0.515,0.406c0.183,0,0.369-0.148,0.516-0.406c0.168-0.299,0.261-0.701,0.261-1.132
						c0-0.575-0.168-1.103-0.439-1.375c-0.079-0.08-0.079-0.21,0.002-0.291c0.079-0.08,0.211-0.08,0.29,0.001
						c0.352,0.352,0.561,0.975,0.561,1.665C265.631,160.841,265.109,161.697,264.443,161.697z"/>
				</g>
			</g>
		</g>
		<g>
			<polygon fill="#F2F2F2" stroke="#595A5C" stroke-width="0.5" stroke-miterlimit="10" points="228.241,147.786 229.985,148.658 
				235.219,146.042 233.474,145.17 			"/>
			<polygon fill="#F2F2F2" stroke="#595A5C" stroke-width="0.5" stroke-miterlimit="10" points="228.241,147.786 228.241,148.223 
				229.985,149.095 229.985,148.658 			"/>
			<polygon fill="#F2F2F2" stroke="#595A5C" stroke-width="0.5" stroke-miterlimit="10" points="235.219,146.042 235.219,146.479 
				229.985,149.095 229.985,148.658 			"/>
			<g>
				<g>
					<path fill="#F2F2F2" stroke="#595A5C" stroke-width="0.5" stroke-miterlimit="10" d="M231.839,147.038
						c-0.147,0-0.268-0.119-0.268-0.267v-2.069c0-0.147,0.119-0.267,0.268-0.267c0.147,0,0.267,0.119,0.267,0.267v2.069
						C232.105,146.919,231.986,147.038,231.839,147.038z"/>
				</g>
				<g>
					<path fill="#F2F2F2" stroke="#595A5C" stroke-width="0.5" stroke-miterlimit="10" d="M231.729,144.797
						c-0.665,0-1.187-0.855-1.187-1.949c0-0.32,0.046-0.638,0.135-0.916c0.034-0.108,0.15-0.168,0.259-0.135
						c0.109,0.034,0.168,0.15,0.134,0.26c-0.075,0.238-0.114,0.512-0.114,0.791c0,0.432,0.092,0.834,0.261,1.133
						c0.145,0.258,0.332,0.405,0.514,0.405c0.183,0,0.369-0.147,0.516-0.405c0.168-0.299,0.261-0.701,0.261-1.133
						c0-0.576-0.168-1.103-0.438-1.375c-0.081-0.08-0.08-0.211,0-0.291c0.081-0.08,0.211-0.08,0.291,0
						c0.352,0.354,0.561,0.976,0.561,1.666C232.917,143.939,232.396,144.797,231.729,144.797z"/>
				</g>
			</g>
		</g>
	</g>
	<g>
		<g>
			<path fill="#D1D2D3" stroke="#595A5C" stroke-width="0.5" stroke-miterlimit="10" d="M248.198,111.479l-4.305,2.152
				l-17.218-8.609l-4.305-6.456l-4.305-2.152l-99.002,49.5v17.218c0,0,15.065,12.913,43.044,4.306l90.393-45.196v-8.609
				L248.198,111.479z"/>
			<polygon fill="#F2F2F2" stroke="#595A5C" stroke-width="0.5" stroke-miterlimit="10" points="119.065,145.915 119.065,163.133 
				153.501,163.133 			"/>
			<polygon fill="#F2F2F2" stroke="#595A5C" stroke-width="0.5" stroke-miterlimit="10" points="119.065,145.915 153.501,163.133 
				248.198,115.784 209.458,100.719 			"/>
			<polygon fill="#F2F2F2" stroke="#595A5C" stroke-width="0.5" stroke-miterlimit="10" points="119.065,145.915 119.065,163.133 
				153.501,163.133 			"/>
			<polygon fill="#F2F2F2" stroke="#595A5C" stroke-width="0.5" stroke-miterlimit="10" points="218.067,96.415 218.067,105.023 
				127.675,150.22 119.065,145.915 			"/>
			<polyline fill="none" stroke="#595A5C" stroke-width="0.5" stroke-miterlimit="10" points="119.065,163.133 114.762,158.828 
				114.762,141.609 119.065,145.915 			"/>
			<g>
				<polygon fill="#F2F2F2" stroke="#595A5C" stroke-width="0.5" stroke-miterlimit="10" points="152.739,128.413 186.061,112.677 
					215.681,127.486 182.358,143.223 				"/>
				<polygon fill="#F2F2F2" stroke="#595A5C" stroke-width="0.5" stroke-miterlimit="10" points="164.078,120.082 186.292,108.975 
					209.896,120.082 186.292,131.189 				"/>
				<polygon fill="#F2F2F2" stroke="#595A5C" stroke-width="0.5" stroke-miterlimit="10" points="165.929,120.082 186.349,109.872 
					208.044,120.082 186.349,130.291 				"/>
				<polygon fill="#F2F2F2" stroke="#595A5C" stroke-width="0.5" stroke-miterlimit="10" points="164.078,120.082 152.739,128.413 
					182.358,143.223 186.292,131.189 				"/>
				<polygon fill="#F2F2F2" stroke="#595A5C" stroke-width="0.5" stroke-miterlimit="10" points="215.681,127.486 182.358,143.223 
					186.292,131.189 209.896,120.082 210.127,125.636 213.829,123.784 				"/>
				<polygon fill="#D1D2D3" stroke="#595A5C" stroke-width="0.5" stroke-miterlimit="10" points="162.813,121.012 185.864,132.499 
					182.83,141.781 154,127.486 				"/>
				<polygon fill="#D1D2D3" stroke="#595A5C" stroke-width="0.5" stroke-miterlimit="10" points="185.864,132.499 197.271,127.486 
					203.133,132.252 182.83,141.781 				"/>
				<polygon fill="#F2F2F2" stroke="#595A5C" stroke-width="0.5" stroke-miterlimit="10" points="193.966,129.051 193.972,136.559 
					195.303,135.922 195.297,128.421 				"/>
			</g>
			<polygon fill="#F2F2F2" stroke="#595A5C" stroke-width="0.5" stroke-miterlimit="10" points="121.266,147.016 153.501,130.982 
				182.762,145.614 184.591,147.588 153.501,163.133 			"/>
			<polyline fill="none" stroke="#595A5C" stroke-width="0.5" stroke-miterlimit="10" points="114.762,158.828 153.501,158.828 
				153.501,163.133 			"/>
			<polygon fill="#F2F2F2" stroke="#595A5C" stroke-width="0.5" stroke-miterlimit="10" points="152.739,128.413 153.501,130.982 
				182.762,145.614 182.358,143.223 			"/>
			
				<line fill="none" stroke="#595A5C" stroke-width="0.5" stroke-miterlimit="10" x1="215.681" y1="127.486" x2="221.798" y2="128.984"/>
			<polygon fill="#F2F2F2" stroke="#595A5C" stroke-width="0.5" stroke-miterlimit="10" points="248.198,111.479 243.894,113.632 
				226.676,105.023 222.371,98.567 218.067,96.415 218.067,105.023 243.894,117.938 252.502,113.632 			"/>
			<g>
				<polygon fill="#F2F2F2" stroke="#595A5C" stroke-width="0.5" stroke-miterlimit="10" points="201.727,107.415 206.03,109.566 
					214.64,105.262 210.335,103.11 				"/>
				<polygon fill="#F2F2F2" stroke="#595A5C" stroke-width="0.5" stroke-miterlimit="10" points="201.727,107.415 201.727,108.371 
					206.03,110.523 206.03,109.566 				"/>
				<polygon fill="#F2F2F2" stroke="#595A5C" stroke-width="0.5" stroke-miterlimit="10" points="214.64,105.262 214.64,106.219 
					206.03,110.523 206.03,109.566 				"/>
			</g>
			<path fill="#F2F2F2" stroke="#595A5C" stroke-width="0.5" stroke-miterlimit="10" d="M161.869,144.105l-8.937-4.469
				c-0.244-0.121-0.532-0.121-0.777,0l-8.936,4.469c-0.294,0.146-0.479,0.447-0.479,0.776s0.186,0.63,0.479,0.777l8.936,4.468
				c0.123,0.063,0.257,0.092,0.39,0.092s0.266-0.029,0.388-0.092l8.937-4.468c0.294-0.147,0.479-0.448,0.479-0.777
				S162.163,144.253,161.869,144.105z"/>
			<path fill="#F2F2F2" stroke="#595A5C" stroke-width="0.5" stroke-miterlimit="10" d="M161.869,143.389l-8.937-4.468
				c-0.244-0.122-0.532-0.122-0.777,0l-8.936,4.468c-0.294,0.147-0.479,0.448-0.479,0.777c0,0.328,0.186,0.63,0.479,0.775
				l8.936,4.47c0.123,0.062,0.257,0.091,0.39,0.091s0.266-0.029,0.388-0.091l8.937-4.47c0.294-0.146,0.479-0.447,0.479-0.775
				C162.349,143.837,162.163,143.536,161.869,143.389z"/>
			
				<line fill="none" stroke="#595A5C" stroke-width="0.5" stroke-miterlimit="10" x1="114.762" y1="150.22" x2="119.065" y2="154.523"/>
			
				<line fill="none" stroke="#595A5C" stroke-width="0.5" stroke-miterlimit="10" x1="134.131" y1="158.828" x2="134.131" y2="163.133"/>
		</g>
		<polyline fill="none" stroke="#595A5C" stroke-width="0.5" stroke-miterlimit="10" points="127.675,141.609 127.675,137.307 
			114.762,141.609 		"/>
		<polyline fill="none" stroke="#595A5C" stroke-width="0.5" stroke-miterlimit="10" points="162.11,158.828 162.11,154.523 
			153.501,158.828 		"/>
		<g>
			<polygon fill="#F2F2F2" stroke="#595A5C" stroke-width="0.5" stroke-miterlimit="10" points="207.077,117.368 205.731,121.402 
				208.422,120.059 209.767,116.023 			"/>
			<polygon fill="#F2F2F2" stroke="#595A5C" stroke-width="0.5" stroke-miterlimit="10" points="185.555,106.607 184.21,110.643 
				186.9,109.298 188.245,105.262 			"/>
			<polygon fill="#F2F2F2" stroke="#595A5C" stroke-width="0.5" stroke-miterlimit="10" points="185.555,106.607 188.245,105.262 
				209.767,116.023 207.077,117.368 			"/>
		</g>
		<polygon fill="#F2F2F2" stroke="#595A5C" stroke-width="0.5" stroke-miterlimit="10" points="136.762,142.361 138.606,143.285 
			149.675,137.75 147.83,136.828 		"/>
		<polygon fill="#F2F2F2" stroke="#595A5C" stroke-width="0.5" stroke-miterlimit="10" points="155.095,152.525 156.939,153.448 
			168.008,147.913 166.164,146.991 		"/>
	</g>
	<g>
		<g>
			<path fill="#26A5D4" stroke="#595A5C" stroke-width="0.5" stroke-miterlimit="10" d="M301.387,171.488l-0.543-0.822l-1.086-1.643
				l-9.857,6.516c0,0-1.643,1.085-1.921,2.45c-0.277,1.364-2.742,2.993-2.742,2.993l-27.105,17.916l0.543,0.821l27.104-17.917
				c0,0,2.466-1.629,3.829-1.35c1.364,0.277,3.008-0.809,3.008-0.809l9.855-6.516L301.387,171.488z"/>
			
				<rect x="265.31" y="188.506" transform="matrix(-0.5508 -0.8346 0.8346 -0.5508 249.9405 523.3445)" fill="#E7E7E7" stroke="#595A5C" stroke-width="0.5" stroke-miterlimit="10" width="0.984" height="11.815"/>
		</g>
		<g>
			<path fill="#26A5D4" stroke="#595A5C" stroke-width="0.5" stroke-miterlimit="10" d="M305.557,177.037l-0.376-0.91l-0.751-1.82
				l-10.922,4.508c0,0-1.82,0.75-2.355,2.037c-0.533,1.285-3.265,2.412-3.265,2.412l-30.036,12.394l0.376,0.911l30.036-12.396
				c0,0,2.729-1.127,4.016-0.592c1.285,0.534,3.106-0.217,3.106-0.217l10.922-4.507L305.557,177.037z"/>
			
				<rect x="265.725" y="186.816" transform="matrix(-0.3809 -0.9246 0.9246 -0.3809 189.4408 512.2848)" fill="#E7E7E7" stroke="#595A5C" stroke-width="0.5" stroke-miterlimit="10" width="0.984" height="11.814"/>
		</g>
	</g>
	<g>
		
			<ellipse fill="#F2F2F2" stroke="#595A5C" stroke-width="0.5" stroke-miterlimit="10" cx="266.312" cy="106.033" rx="2.313" ry="4.628"/>
		<polygon fill="#26A5D4" stroke="#595A5C" stroke-width="0.5" stroke-miterlimit="10" points="265.54,81.491 262.455,83.034 
			262.455,107.715 265.54,106.172 268.625,79.949 		"/>
		<polygon fill="#E7E7E7" stroke="#595A5C" stroke-width="0.5" stroke-miterlimit="10" points="255.514,84.576 264.769,89.204 
			274.024,84.576 264.769,79.949 		"/>
		<polygon fill="#E7E7E7" stroke="#595A5C" stroke-width="0.5" stroke-miterlimit="10" points="255.514,79.949 264.769,84.576 
			274.024,79.949 264.769,75.321 		"/>
		<polygon fill="#26A5D4" stroke="#595A5C" stroke-width="0.5" stroke-miterlimit="10" points="255.514,79.949 255.514,84.576 
			264.769,89.204 264.769,84.576 		"/>
		<polygon fill="#26A5D4" stroke="#595A5C" stroke-width="0.5" stroke-miterlimit="10" points="274.024,79.949 274.024,84.576 
			264.769,89.204 264.769,84.576 		"/>
		<polygon fill="#26A5D4" stroke="#595A5C" stroke-width="0.5" stroke-miterlimit="10" points="255.514,82.52 255.514,87.147 
			264.769,91.775 264.769,87.147 		"/>
		<polygon fill="#26A5D4" stroke="#595A5C" stroke-width="0.5" stroke-miterlimit="10" points="274.024,82.52 274.024,87.147 
			264.769,91.775 264.769,87.147 		"/>
		<polygon fill="#26A5D4" stroke="#595A5C" stroke-width="0.5" stroke-miterlimit="10" points="255.514,79.949 256.284,79.135 
			264.769,83.419 264.769,84.576 		"/>
		<polygon fill="#26A5D4" stroke="#595A5C" stroke-width="0.5" stroke-miterlimit="10" points="274.024,79.949 273.253,79.135 
			264.769,83.419 264.769,84.576 		"/>
		<polygon fill="#26A5D4" stroke="#595A5C" stroke-width="0.5" stroke-miterlimit="10" points="256.284,79.135 264.769,83.376 
			273.253,79.135 264.769,74.892 		"/>
		<polygon fill="#E7E7E7" stroke="#595A5C" stroke-width="0.5" stroke-miterlimit="10" points="267.083,85.733 267.083,84.576 
			271.711,82.263 271.711,83.419 		"/>
		<polygon fill="#E7E7E7" stroke="#595A5C" stroke-width="0.5" stroke-miterlimit="10" points="267.083,88.047 267.083,86.89 
			271.711,84.576 271.711,85.733 		"/>
		<polygon fill="#E7E7E7" stroke="#595A5C" stroke-width="0.5" stroke-miterlimit="10" points="267.083,89.204 267.083,88.047 
			271.711,85.733 271.711,86.89 		"/>
		<polygon fill="#E7E7E7" stroke="#595A5C" stroke-width="0.5" stroke-miterlimit="10" points="267.083,86.89 267.083,85.733 
			271.711,83.419 271.711,84.576 		"/>
		<g>
			<path fill="#26A5D4" stroke="#595A5C" stroke-width="0.5" stroke-miterlimit="10" d="M266.373,106.092
				c0-0.349-0.188-0.632-0.421-0.632c-0.063,0-0.124,0.021-0.178,0.06l-3.308,1.648l0.223,1.221l3.357-1.681v-0.001
				C266.234,106.643,266.373,106.393,266.373,106.092z"/>
			<g>
				
					<ellipse fill="#26A5D4" stroke="#595A5C" stroke-width="0.5" stroke-miterlimit="10" cx="262.579" cy="107.778" rx="0.422" ry="0.632"/>
			</g>
		</g>
	</g>
	<path fill="#F2F2F2" stroke="#595A5C" stroke-width="0.5" stroke-miterlimit="10" d="M69.565,113.632c0,0-8.608,8.609-8.608,21.522
		c0,0,30.131,4.305,43.044-4.305L69.565,113.632z"/>
	<polygon fill="#F2F2F2" stroke="#595A5C" stroke-width="0.5" stroke-miterlimit="10" points="69.565,113.632 73.869,111.479 
		108.305,128.697 104,130.85 	"/>
	<polygon fill="#F2F2F2" stroke="#595A5C" stroke-width="0.5" stroke-miterlimit="10" points="164.262,66.284 164.262,70.588 
		78.174,113.632 73.869,111.479 	"/>
	<polygon fill="#F2F2F2" stroke="#595A5C" stroke-width="0.5" stroke-miterlimit="10" points="164.262,66.284 164.262,70.588 
		194.393,85.653 198.697,83.501 	"/>
	<g>
		<polygon fill="#F2F2F2" stroke="#595A5C" stroke-width="0.5" stroke-miterlimit="10" points="107.545,93.81 110.981,105.837 
			135.035,107.557 135.035,112.71 107.545,112.71 		"/>
		<polygon fill="#F2F2F2" stroke="#595A5C" stroke-width="0.5" stroke-miterlimit="10" points="135.035,107.557 155.653,97.247 
			155.653,102.401 135.035,112.71 		"/>
		<polygon fill="#F2F2F2" stroke="#595A5C" stroke-width="0.5" stroke-miterlimit="10" points="128.163,83.501 107.545,93.81 
			110.981,105.837 135.035,107.557 155.653,97.247 		"/>
		
			<line fill="none" stroke="#595A5C" stroke-width="0.5" stroke-miterlimit="10" x1="110.981" y1="105.837" x2="107.545" y2="112.71"/>
		<polygon fill="#F2F2F2" stroke="#595A5C" stroke-width="0.5" stroke-miterlimit="10" points="140.189,107.557 150.499,102.401 
			150.499,104.119 140.189,109.273 		"/>
	</g>
	<g>
		<polygon fill="#F2F2F2" stroke="#595A5C" stroke-width="0.5" stroke-miterlimit="10" points="95.587,118.523 101.848,115.393 
			100.283,114.609 94.022,117.74 		"/>
		<polygon fill="#F2F2F2" stroke="#595A5C" stroke-width="0.5" stroke-miterlimit="10" points="94.022,117.74 93.239,118.523 
			94.805,119.307 95.587,118.523 		"/>
		<polygon fill="#F2F2F2" stroke="#595A5C" stroke-width="0.5" stroke-miterlimit="10" points="94.805,119.307 95.587,118.523 
			101.848,115.393 101.848,116.176 		"/>
	</g>
	<g>
		<polyline fill="none" stroke="#595A5C" stroke-width="0.5" stroke-miterlimit="10" points="104,130.85 104,126.545 
			198.697,79.197 198.697,83.501 		"/>
		
			<line fill="none" stroke="#595A5C" stroke-width="0.5" stroke-miterlimit="10" x1="112.609" y1="122.241" x2="112.609" y2="126.545"/>
		
			<line fill="none" stroke="#595A5C" stroke-width="0.5" stroke-miterlimit="10" x1="129.827" y1="113.632" x2="129.827" y2="117.938"/>
		
			<line fill="none" stroke="#595A5C" stroke-width="0.5" stroke-miterlimit="10" x1="147.044" y1="105.023" x2="147.044" y2="109.328"/>
		
			<line fill="none" stroke="#595A5C" stroke-width="0.5" stroke-miterlimit="10" x1="164.262" y1="96.415" x2="164.262" y2="100.719"/>
		
			<line fill="none" stroke="#595A5C" stroke-width="0.5" stroke-miterlimit="10" x1="181.479" y1="87.806" x2="181.479" y2="92.11"/>
	</g>
	<g>
		<polygon fill="#F2F2F2" stroke="#595A5C" stroke-width="0.5" stroke-miterlimit="10" points="122.697,93.687 180.548,64.761 
			179.343,63.556 121.492,92.481 		"/>
		<path fill="#26A5D4" stroke="#595A5C" stroke-width="0.5" stroke-miterlimit="10" d="M122.299,11.171
			c0,0,24.75,42.576,1.761,80.026c0,0,51.72-38.663,54.349-27.174c-0.114-2.556-33.063-54.893-56.109-53.412"/>
		<g>
			
				<ellipse fill="#F2F2F2" stroke="#595A5C" stroke-width="0.5" stroke-miterlimit="10" cx="122.299" cy="98.395" rx="3.498" ry="1.749"/>
			<path fill="#F2F2F2" stroke="#595A5C" stroke-width="0.5" stroke-miterlimit="10" d="M123.418,10.612h-2.238l-1.259,87.783
				c0,0.656,1.064,1.188,2.378,1.188c1.313,0,2.378-0.532,2.378-1.188L123.418,10.612z"/>
			
				<ellipse fill="#F2F2F2" stroke="#595A5C" stroke-width="0.5" stroke-miterlimit="10" cx="122.299" cy="10.612" rx="1.119" ry="0.559"/>
		</g>
	</g>
	<path fill="#26A5D4" stroke="#595A5C" stroke-width="0.5" stroke-miterlimit="10" d="M69.565,117.35
		c0,0-2.952-38.729,50.355-103.915c0,0-37.87,54.788-2.103,80.375C117.818,93.81,91.887,68.36,69.565,117.35z"/>
	<line fill="none" stroke="#595A5C" stroke-width="0.5" stroke-miterlimit="10" x1="69.565" y1="117.35" x2="57.369" y2="130.291"/>
	<path fill="none" stroke="#595A5C" stroke-width="0.5" stroke-miterlimit="10" d="M104,126.545c0,0-12.076,7.612-46.631,3.746
		c0,0,2.392-15.702,11.718-20.963"/>
	
		<line fill="none" stroke="#595A5C" stroke-width="0.5" stroke-miterlimit="10" x1="57.369" y1="130.291" x2="60.956" y2="135.154"/>
	<g>
		<path fill="none" stroke="#595A5C" stroke-width="0.5" stroke-miterlimit="10" d="M209.033,44.404c0,0-6.235-1.381-9.265,2.761
			c-3.027,4.142-2.005,8.373-2.315,12.559c-0.313,4.187,5.593,6.849,11.58,6.235c5.985-0.613,5.12,0.667,6.591,0.534
			c1.47-0.133,9.977-3.786,7.749-11.891C221.146,46.498,217.673,42.578,209.033,44.404z"/>
		<g>
			<path fill="none" d="M217.504,51.889c-0.912-1.665-2.549-2.962-4.557-3.583c-0.836-0.258-1.731-0.406-2.668-0.406
				c-1.046,0-2.043,0.181-2.959,0.5c-1.875,0.652-3.397,1.906-4.266,3.489c-0.502,0.917-0.792,1.94-0.792,3.025
				c0,0.516,0.067,1.017,0.188,1.5c0.493,1.979,1.939,3.644,3.898,4.61c1.162,0.573,2.501,0.904,3.93,0.904
				c1.428,0,2.767-0.331,3.928-0.903c1.961-0.967,3.408-2.632,3.901-4.612c0.121-0.484,0.188-0.985,0.188-1.5
				C218.297,53.829,218.007,52.806,217.504,51.889z"/>
			<path fill="#F2F2F2" stroke="#595A5C" stroke-width="0.5" stroke-miterlimit="10" d="M203.055,51.889
				c0.868-1.583,2.391-2.837,4.266-3.489c0.358-1.952-0.745-3.188-1.804-3.9c-3.109,1.09-5.615,3.211-6.966,5.884
				C200.605,50.167,202.172,51.132,203.055,51.889z"/>
			<path fill="#F2F2F2" stroke="#595A5C" stroke-width="0.5" stroke-miterlimit="10" d="M212.948,48.306
				c2.008,0.621,3.645,1.918,4.557,3.583c0.884-0.756,2.45-1.721,4.504-1.506c-1.407-2.785-4.07-4.966-7.361-6.01
				C212.341,45.504,212.523,47.225,212.948,48.306z"/>
			<path fill="#F2F2F2" stroke="#595A5C" stroke-width="0.5" stroke-miterlimit="10" d="M218.109,56.415
				c-0.493,1.98-1.94,3.645-3.901,4.612c0.661,1.15,0.899,2.773-0.6,4.716c4.396-1.033,7.853-4.052,9.041-7.896
				C222.095,56.709,220.856,55.635,218.109,56.415z"/>
			<path fill="#F2F2F2" stroke="#595A5C" stroke-width="0.5" stroke-miterlimit="10" d="M206.35,61.025
				c-1.959-0.967-3.405-2.631-3.898-4.61c-2.748-0.78-3.987,0.296-4.54,1.433c1.159,3.75,4.474,6.721,8.719,7.823
				C206.267,64.754,205.615,62.664,206.35,61.025z"/>
			<path fill="#26A5D4" stroke="#595A5C" stroke-width="0.5" stroke-miterlimit="10" d="M214.207,61.026
				c-1.161,0.572-2.5,0.903-3.928,0.903c-1.429,0-2.768-0.331-3.93-0.904c-0.735,1.639-0.083,3.729,0.28,4.645
				c1.157,0.3,2.38,0.467,3.649,0.467c1.153,0,2.265-0.146,3.328-0.395C215.107,63.8,214.868,62.177,214.207,61.026z"/>
			<path fill="#26A5D4" stroke="#595A5C" stroke-width="0.5" stroke-miterlimit="10" d="M202.451,56.415
				c-0.121-0.484-0.188-0.985-0.188-1.5c0-1.085,0.29-2.108,0.792-3.025c-0.883-0.757-2.45-1.722-4.504-1.506
				c-0.701,1.387-1.098,2.917-1.098,4.531c0,1.017,0.168,1.997,0.458,2.933C198.464,56.71,199.703,55.635,202.451,56.415z"/>
			<path fill="#26A5D4" stroke="#595A5C" stroke-width="0.5" stroke-miterlimit="10" d="M217.504,51.889
				c0.503,0.917,0.793,1.94,0.793,3.025c0,0.516-0.067,1.017-0.188,1.5c2.747-0.78,3.986,0.295,4.54,1.431
				c0.289-0.936,0.457-1.916,0.457-2.932c0-1.614-0.396-3.145-1.098-4.531C219.954,50.167,218.388,51.132,217.504,51.889z"/>
			<path fill="#26A5D4" stroke="#595A5C" stroke-width="0.5" stroke-miterlimit="10" d="M207.321,48.399
				c0.916-0.319,1.913-0.5,2.959-0.5c0.937,0,1.832,0.148,2.668,0.406c-0.425-1.082-0.606-2.802,1.699-3.934
				c-1.365-0.433-2.831-0.682-4.367-0.682c-1.685,0-3.289,0.292-4.763,0.808C206.575,45.212,207.679,46.448,207.321,48.399z"/>
		</g>
		
			<rect x="208.053" y="65.425" fill="#E7E7E7" stroke="#595A5C" stroke-width="0.5" stroke-miterlimit="10" width="4.275" height="1.069"/>
		
			<rect x="195.657" y="53.129" transform="matrix(0.098 -0.9952 0.9952 0.098 124.7876 244.8304)" fill="#E7E7E7" stroke="#595A5C" stroke-width="0.5" stroke-miterlimit="10" width="3.589" height="0.897"/>
		
			<rect x="221.301" y="53.57" transform="matrix(-0.1619 -0.9868 0.9868 -0.1619 205.9189 282.9163)" fill="#E7E7E7" stroke="#595A5C" stroke-width="0.5" stroke-miterlimit="10" width="3.588" height="0.897"/>
	</g>
</g>
</svg>
