<?xml version="1.0" encoding="utf-8"?>
<!-- Generator: Adobe Illustrator 16.0.0, SVG Export Plug-In . SVG Version: 6.00 Build 0)  -->
<!DOCTYPE svg PUBLIC "-//W3C//DTD SVG 1.1//EN" "http://www.w3.org/Graphics/SVG/1.1/DTD/svg11.dtd">
<svg version="1.1" id="Layer_1" xmlns="http://www.w3.org/2000/svg" xmlns:xlink="http://www.w3.org/1999/xlink" x="0px" y="0px"
	 width="360px" height="210px" viewBox="0 0 360 210" enable-background="new 0 0 360 210" xml:space="preserve">
<g>
	<polygon fill="#D0D2D3" stroke="#58595B" stroke-width="0.5" stroke-miterlimit="10" points="120.552,54.226 209.105,9.95 
		209.105,83.744 120.552,128.021 	"/>
	<path fill="#D0D2D3" stroke="#58595B" stroke-width="0.5" stroke-miterlimit="10" d="M209.105,83.744V9.95
		C209.105,9.95,161.139,39.467,209.105,83.744z"/>
	<path fill="#F1F1F2" stroke="#58595B" stroke-width="0.5" stroke-miterlimit="10" d="M120.552,128.021V54.226
		C120.552,54.226,72.586,83.744,120.552,128.021z"/>
	<path fill="#F1F1F2" stroke="#58595B" stroke-width="0.5" stroke-miterlimit="10" d="M116.862,115.248v-48.25
		C116.862,66.999,85.5,86.298,116.862,115.248z"/>
	<polygon fill="#F1F1F2" stroke="#58595B" stroke-width="0.5" stroke-miterlimit="10" points="120.552,54.226 127.932,50.537 
		127.932,124.33 120.552,128.021 	"/>
	<polygon fill="#D0D2D3" stroke="#58595B" stroke-width="0.5" stroke-miterlimit="10" points="120.552,124.33 209.105,80.054 
		209.105,83.744 120.552,128.021 	"/>
	<polygon fill="#F1F1F2" stroke="#58595B" stroke-width="0.5" stroke-miterlimit="10" points="201.727,13.639 201.727,87.434 
		209.105,83.744 209.105,9.95 	"/>
	<polygon fill="#F1F1F2" stroke="#58595B" stroke-width="0.5" stroke-miterlimit="10" points="120.552,54.226 209.105,9.95 
		209.105,13.639 120.552,57.916 	"/>
</g>
<polygon fill="#D0D2D3" stroke="#58595B" stroke-width="0.5" stroke-miterlimit="10" points="120.552,172.296 209.105,128.021 
	268.141,157.538 179.588,201.814 "/>
<polygon fill="#D0D2D3" stroke="#58595B" stroke-width="0.5" stroke-miterlimit="10" points="209.105,83.744 268.141,113.262 
	268.141,157.538 209.105,128.021 "/>
<polygon fill="#D0D2D3" stroke="#58595B" stroke-width="0.5" stroke-miterlimit="10" points="120.552,128.021 209.105,83.744 
	209.105,128.021 120.552,172.296 "/>
<polygon fill="#F1F1F2" stroke="#58595B" stroke-width="0.5" stroke-miterlimit="10" points="120.552,128.021 179.588,157.538 
	179.588,201.814 120.552,172.296 "/>
<g>
	
		<rect x="177.578" y="66.949" transform="matrix(0.991 -0.1338 0.1338 0.991 -8.3332 28.8958)" fill="#BBBDBF" stroke="#58595B" stroke-width="0.5" stroke-miterlimit="10" width="66.503" height="19.002"/>
	<path fill="#F1F1F2" stroke="#58595B" stroke-width="0.5" stroke-miterlimit="10" d="M253.786,56.564
		c-6.646,3.249-17.603-5.841-18.611-6.901c-12.27-12.869-29.502-10.542-29.502-10.542s-17.233,2.327-25.648,17.988
		c-0.693,1.294-9.314,13.402-16.112,11.59c-9.846-2.623-2.26,5.416-2.26,5.416l12.481,14.454l9.957-1.344
		c4.536-6.626,11.062-11.178,26.292-13.233c15.229-2.056,24.785,1.37,28.858,5.787l9.955-1.345l8.2-17.246
		C257.398,61.187,262.931,52.093,253.786,56.564z"/>
	<path fill="#F1F1F2" stroke="#58595B" stroke-width="0.5" stroke-miterlimit="10" d="M255.662,58.731
		c-6.889,3.283-18.172-5.763-19.212-6.819c-12.626-12.821-30.457-10.414-30.457-10.414s-17.833,2.407-26.605,18.119
		c-0.725,1.296-9.695,13.452-16.715,11.67c-10.166-2.579-2.359,5.431-2.359,5.431l12.839,14.406l10.304-1.392
		c4.722-6.65,11.487-11.234,27.247-13.362c15.756-2.126,25.624,1.258,29.813,5.659l10.303-1.391l8.562-17.295
		C259.377,63.342,265.14,54.215,255.662,58.731z"/>
	<path fill="none" stroke="#58595B" stroke-width="0.5" stroke-miterlimit="10" d="M260.523,61.134
		c-6.889,3.281-19.911-0.302-23.35-3.858c-12.509-12.935-30.457-10.413-30.457-10.413s-17.468,2.616-26.604,18.118
		c-3.394,5.755-12.777,13.519-19.8,11.737"/>
	<path fill="none" stroke="#58595B" stroke-width="0.5" stroke-miterlimit="10" d="M259.377,63.342
		c-6.89,3.282-20.949-3.424-21.989-4.481c-12.625-12.821-30.457-10.414-30.457-10.414s-17.947,2.344-26.604,18.118
		c-2.86,5.213-11.788,13.286-18.811,11.504"/>
	<g>
		<polygon fill="#2AB573" stroke="#58595B" stroke-width="0.5" stroke-miterlimit="10" points="228.943,60.536 237.533,76.417 
			238.748,72.339 242.827,73.555 234.238,57.672 		"/>
		<polygon fill="#2AB573" stroke="#58595B" stroke-width="0.5" stroke-miterlimit="10" points="230.96,62.427 237.055,73.693 
			237.916,70.801 240.81,71.663 234.717,60.396 		"/>
		<polygon fill="#2AB573" stroke="#58595B" stroke-width="0.5" stroke-miterlimit="10" points="230.938,49.762 232.013,48.07 
			232.821,49.905 234.226,48.473 234.636,50.436 236.307,49.328 236.299,51.333 238.163,50.596 237.739,52.557 239.718,52.223 
			238.896,54.051 240.899,54.137 239.713,55.754 241.656,56.254 240.158,57.591 241.955,58.484 240.214,59.479 241.786,60.726 
			239.875,61.339 241.154,62.885 239.159,63.086 240.087,64.864 238.093,64.646 238.631,66.579 236.726,65.953 236.852,67.953 
			235.117,66.945 234.823,68.928 233.339,67.581 232.638,69.46 231.466,67.833 230.39,69.526 229.581,67.691 228.177,69.123 
			227.768,67.159 226.097,68.268 226.104,66.262 224.239,67 224.664,65.04 222.687,65.373 223.509,63.543 221.506,63.458 
			222.69,61.84 220.748,61.341 222.244,60.005 220.447,59.112 222.188,58.116 220.616,56.869 222.527,56.257 221.249,54.71 
			223.245,54.509 222.317,52.73 224.312,52.949 223.772,51.016 225.677,51.644 225.554,49.641 227.285,50.651 227.58,48.666 
			229.066,50.014 229.765,48.135 		"/>
		<circle fill="#2AB573" stroke="#58595B" stroke-width="0.5" stroke-miterlimit="10" cx="231.201" cy="58.797" r="7.111"/>
	</g>
</g>
<polygon fill="#F1F1F2" stroke="#58595B" stroke-width="0.5" stroke-miterlimit="10" points="120.552,128.021 120.552,135.4 
	127.932,131.71 "/>
<g>
	<path fill="#F1F1F2" stroke="#58595B" stroke-width="0.5" stroke-miterlimit="10" d="M227.549,114.465
		c-0.138-3.264-2.892-5.799-6.155-5.664l-33.242,1.385l0.49,11.819l33.243-1.383C225.147,120.484,227.686,117.729,227.549,114.465z"
		/>
	<path fill="#F1F1F2" stroke="#58595B" stroke-width="0.5" stroke-miterlimit="10" d="M225.332,114.559
		c-0.138-3.265-2.894-5.801-6.155-5.664l-33.242,1.387l0.492,11.816l33.242-1.383C222.933,120.577,225.47,117.82,225.332,114.559z"
		/>
	<path fill="#F1F1F2" stroke="#58595B" stroke-width="0.5" stroke-miterlimit="10" d="M192.46,115.926
		c-0.204-4.895-4.339-8.699-9.233-8.494l-26.595,1.106l0.739,17.729l26.595-1.108C188.86,124.957,192.664,120.82,192.46,115.926z"/>
	<path fill="#F1F1F2" stroke="#58595B" stroke-width="0.5" stroke-miterlimit="10" d="M189.136,116.064
		c-0.204-4.896-4.339-8.699-9.233-8.496l-26.595,1.105l0.738,17.73l26.594-1.107C185.535,125.095,189.34,120.961,189.136,116.064z"
		/>
	<path fill="#F1F1F2" stroke="#58595B" stroke-width="0.5" stroke-miterlimit="10" d="M161.064,117.232
		c-0.271-6.526-5.783-11.6-12.312-11.326l-35.458,1.477l0.982,23.641l35.458-1.478C156.265,129.273,161.336,123.764,161.064,117.232
		z"/>
	<path fill="#F1F1F2" stroke="#58595B" stroke-width="0.5" stroke-miterlimit="10" d="M156.633,117.419
		c-0.272-6.528-5.785-11.601-12.313-11.329l-35.459,1.479l0.985,23.64l35.459-1.478
		C151.833,129.458,156.904,123.945,156.633,117.419z"/>
	
		<line fill="none" stroke="#58595B" stroke-width="0.5" stroke-miterlimit="10" x1="125.152" y1="125.848" x2="154.752" y2="124.32"/>
	
		<line fill="none" stroke="#58595B" stroke-width="0.5" stroke-miterlimit="10" x1="160.069" y1="122.646" x2="187.802" y2="121.484"/>
	
		<line fill="none" stroke="#58595B" stroke-width="0.5" stroke-miterlimit="10" x1="192.337" y1="117.809" x2="225.135" y2="116.343"/>
	<path fill="#F1F1F2" stroke="#58595B" stroke-width="0.5" stroke-miterlimit="10" d="M116.335,132.286
		c7.289-0.304,12.951-6.459,12.646-13.746c-0.303-7.287-6.457-12.95-13.746-12.647l-6.783,0.314l1.099,26.393L116.335,132.286z"/>
	<circle fill="#E6E7E8" stroke="#58595B" stroke-width="0.5" stroke-miterlimit="10" cx="109" cy="119.402" r="13.207"/>
	<circle fill="#E6E7E8" stroke="#58595B" stroke-width="0.5" stroke-miterlimit="10" cx="109" cy="119.403" r="12.217"/>
	<circle fill="#2AB573" stroke="#58595B" stroke-width="0.5" stroke-miterlimit="10" cx="109" cy="119.404" r="10.566"/>
	<circle fill="#FFFFFF" stroke="#58595B" stroke-width="0.5" stroke-miterlimit="10" cx="112.794" cy="115.28" r="3.962"/>
</g>
<g>
	<path fill="#F1F1F2" stroke="#58595B" stroke-width="0.5" stroke-miterlimit="10" d="M229.487,86.018c0,0,1.037-1.486,2.523-0.447
		l20.806,14.531c0,0,1.485,1.037,0.448,2.522l-26.987,38.638c0,0-1.038,1.487-2.521,0.449L202.95,127.18
		c0,0-1.486-1.039-0.448-2.522L229.487,86.018z"/>
	
		<rect x="213.9" y="92.051" transform="matrix(0.8198 0.5726 -0.5726 0.8198 105.8001 -110.4451)" fill="#FFFFFF" stroke="#58595B" stroke-width="0.5" stroke-miterlimit="10" width="29.001" height="41.69"/>
	<circle fill="#F1F1F2" stroke="#58595B" stroke-width="0.5" stroke-miterlimit="10" cx="214.965" cy="132.133" r="1.813"/>
	<g>
		<g>
			<circle fill="#F1F1F2" stroke="#58595B" stroke-width="0.5" stroke-miterlimit="10" cx="233.789" cy="89.18" r="0.906"/>
			<circle fill="#F1F1F2" stroke="#58595B" stroke-width="0.5" stroke-miterlimit="10" cx="233.789" cy="89.18" r="0.453"/>
		</g>
		<path fill="#F1F1F2" stroke="#58595B" stroke-width="0.5" stroke-miterlimit="10" d="M236.634,91.175c0,0,0.307-0.442,0.751-0.134
			l8.403,5.871c0,0,0.438,0.309,0.132,0.751c0,0-0.31,0.442-0.75,0.133l-8.403-5.869C236.767,91.927,236.324,91.618,236.634,91.175z
			"/>
	</g>
	
		<rect x="227.857" y="95.116" transform="matrix(0.8213 0.5705 -0.5705 0.8213 100.2753 -115.762)" fill="#2AB573" stroke="#58595B" stroke-width="0.5" stroke-miterlimit="10" width="14.153" height="14.152"/>
	
		<rect x="222.622" y="108.291" transform="matrix(0.8214 0.5704 -0.5704 0.8214 102.9769 -110.5017)" fill="#F1F1F2" stroke="#58595B" stroke-width="0.5" stroke-miterlimit="10" width="10.616" height="1.769"/>
	
		<rect x="215.753" y="112.549" transform="matrix(0.8214 0.5704 -0.5704 0.8214 108.0334 -105.7302)" fill="#2AB573" stroke="#58595B" stroke-width="0.5" stroke-miterlimit="10" width="14.154" height="14.153"/>
	
		<rect x="210.362" y="126.229" transform="matrix(0.8213 0.5705 -0.5705 0.8213 111.2167 -100.8297)" fill="#F1F1F2" stroke="#58595B" stroke-width="0.5" stroke-miterlimit="10" width="12.386" height="1.767"/>
</g>
<g>
	<g>
		<path fill="#E6E7E8" stroke="#58595B" stroke-width="0.5" stroke-miterlimit="10" d="M170.9,123.182
			c-1.423,1.424-3.738,1.424-5.163,0c-1.422-1.424-1.422-3.738,0-5.162c1.425-1.424,3.74-1.424,5.163,0
			C172.323,119.441,172.323,121.758,170.9,123.182z M166.676,118.957c-0.905,0.906-0.905,2.379,0,3.285
			c0.906,0.904,2.38,0.904,3.285,0c0.906-0.906,0.906-2.379,0-3.285C169.056,118.052,167.582,118.052,166.676,118.957z"/>
	</g>
	
		<rect x="169.557" y="123.33" transform="matrix(0.7072 -0.707 0.707 0.7072 -37.7307 158.5417)" fill="#E6E7E8" stroke="#58595B" stroke-width="0.5" stroke-miterlimit="10" width="5.972" height="2.986"/>
	
		<rect x="168.95" y="121.207" transform="matrix(0.7073 -0.7069 0.7069 0.7073 -36.8486 156.4118)" fill="#E6E7E8" stroke="#58595B" stroke-width="0.5" stroke-miterlimit="10" width="2.987" height="2.987"/>
	<circle fill="#E6E7E8" stroke="#58595B" stroke-width="0.5" stroke-miterlimit="10" cx="183.102" cy="135.383" r="14.935"/>
	<circle fill="#E6E7E8" stroke="#58595B" stroke-width="0.5" stroke-miterlimit="10" cx="183.102" cy="135.383" r="13.441"/>
	<circle fill="#FFFFFF" stroke="#58595B" stroke-width="0.5" stroke-miterlimit="10" cx="183.103" cy="135.383" r="11.947"/>
	<polygon fill="#2AB573" stroke="#58595B" stroke-width="0.5" stroke-miterlimit="10" points="175.71,127.991 180.989,137.495 
		185.215,133.271 	"/>
	<polygon fill="#E6E7E8" stroke="#58595B" stroke-width="0.5" stroke-miterlimit="10" points="190.494,142.773 185.215,133.271 
		180.989,137.495 	"/>
	
		<line fill="none" stroke="#58595B" stroke-width="0.5" stroke-miterlimit="10" x1="175.71" y1="142.773" x2="177.823" y2="140.663"/>
	
		<line fill="none" stroke="#58595B" stroke-width="0.5" stroke-miterlimit="10" x1="190.494" y1="127.991" x2="188.383" y2="130.104"/>
	
		<line fill="none" stroke="#58595B" stroke-width="0.5" stroke-miterlimit="10" x1="172.542" y1="135.382" x2="174.655" y2="135.382"/>
	
		<line fill="none" stroke="#58595B" stroke-width="0.5" stroke-miterlimit="10" x1="183.102" y1="124.822" x2="183.102" y2="126.936"/>
	
		<line fill="none" stroke="#58595B" stroke-width="0.5" stroke-miterlimit="10" x1="183.102" y1="145.943" x2="183.102" y2="143.831"/>
	
		<line fill="none" stroke="#58595B" stroke-width="0.5" stroke-miterlimit="10" x1="193.662" y1="135.382" x2="191.55" y2="135.382"/>
	<circle fill="#E6E7E8" stroke="#58595B" stroke-width="0.5" stroke-miterlimit="10" cx="183.102" cy="135.384" r="1.707"/>
</g>
<polygon fill="#F1F1F2" stroke="#58595B" stroke-width="0.5" stroke-miterlimit="10" points="179.588,157.538 268.141,113.262 
	268.141,157.538 179.588,201.814 "/>
<polygon fill="#F1F1F2" stroke="#58595B" stroke-width="0.5" stroke-miterlimit="10" points="127.932,139.089 172.208,161.229 
	172.208,190.745 127.932,168.607 "/>
<line fill="none" stroke="#58595B" stroke-width="0.5" stroke-miterlimit="10" x1="135.311" y1="142.779" x2="135.311" y2="172.296"/>
<line fill="none" stroke="#58595B" stroke-width="0.5" stroke-miterlimit="10" x1="142.69" y1="146.469" x2="142.69" y2="175.986"/>
<line fill="none" stroke="#58595B" stroke-width="0.5" stroke-miterlimit="10" x1="150.069" y1="150.158" x2="150.069" y2="179.677"/>
<line fill="none" stroke="#58595B" stroke-width="0.5" stroke-miterlimit="10" x1="157.449" y1="153.848" x2="157.449" y2="183.365"/>
<line fill="none" stroke="#58595B" stroke-width="0.5" stroke-miterlimit="10" x1="164.829" y1="157.538" x2="164.829" y2="187.057"/>
<polygon fill="none" stroke="#58595B" stroke-width="0.5" stroke-miterlimit="10" points="120.552,164.917 127.932,175.986 
	120.552,172.296 "/>
<polygon fill="none" stroke="#58595B" stroke-width="0.5" stroke-miterlimit="10" points="172.208,198.124 179.588,194.436 
	179.588,201.814 "/>
<polygon fill="none" stroke="#58595B" stroke-width="0.5" stroke-miterlimit="10" points="186.967,198.124 179.588,194.436 
	179.588,201.814 "/>
<polygon fill="none" stroke="#58595B" stroke-width="0.5" stroke-miterlimit="10" points="186.967,161.229 260.762,124.33 
	260.762,153.848 186.967,190.745 "/>
<polygon fill="none" stroke="#58595B" stroke-width="0.5" stroke-miterlimit="10" points="268.141,150.158 260.762,161.229 
	268.141,157.538 "/>
<line fill="none" stroke="#58595B" stroke-width="0.5" stroke-miterlimit="10" x1="194.346" y1="157.538" x2="194.346" y2="187.057"/>
<line fill="none" stroke="#58595B" stroke-width="0.5" stroke-miterlimit="10" x1="201.727" y1="153.848" x2="201.727" y2="183.365"/>
<line fill="none" stroke="#58595B" stroke-width="0.5" stroke-miterlimit="10" x1="209.105" y1="150.158" x2="209.105" y2="179.677"/>
<line fill="none" stroke="#58595B" stroke-width="0.5" stroke-miterlimit="10" x1="216.484" y1="146.469" x2="216.484" y2="175.986"/>
<line fill="none" stroke="#58595B" stroke-width="0.5" stroke-miterlimit="10" x1="223.863" y1="142.779" x2="223.863" y2="172.296"/>
<line fill="none" stroke="#58595B" stroke-width="0.5" stroke-miterlimit="10" x1="231.244" y1="139.089" x2="231.244" y2="168.607"/>
<line fill="none" stroke="#58595B" stroke-width="0.5" stroke-miterlimit="10" x1="238.623" y1="135.4" x2="238.623" y2="164.917"/>
<line fill="none" stroke="#58595B" stroke-width="0.5" stroke-miterlimit="10" x1="246.002" y1="131.71" x2="246.002" y2="161.229"/>
<line fill="none" stroke="#58595B" stroke-width="0.5" stroke-miterlimit="10" x1="253.381" y1="128.021" x2="253.381" y2="157.538"/>
<polygon fill="#F1F1F2" stroke="#58595B" stroke-width="0.5" stroke-miterlimit="10" points="172.208,153.848 179.588,164.917 
	179.588,157.538 "/>
<polygon fill="#F1F1F2" stroke="#58595B" stroke-width="0.5" stroke-miterlimit="10" points="186.967,153.848 179.588,157.538 
	179.588,164.917 "/>
<polygon fill="#F1F1F2" stroke="#58595B" stroke-width="0.5" stroke-miterlimit="10" points="260.762,116.951 268.141,120.641 
	268.141,113.262 "/>
<polygon fill="#F1F1F2" stroke="#58595B" stroke-width="0.5" stroke-miterlimit="10" points="220.174,139.089 227.555,135.4 
	227.555,142.779 220.174,146.469 "/>
</svg>
