<?xml version="1.0" encoding="utf-8"?>
<!-- Generator: Adobe Illustrator 16.0.0, SVG Export Plug-In . SVG Version: 6.00 Build 0)  -->
<!DOCTYPE svg PUBLIC "-//W3C//DTD SVG 1.1//EN" "http://www.w3.org/Graphics/SVG/1.1/DTD/svg11.dtd">
<svg version="1.1" id="Layer_1" xmlns="http://www.w3.org/2000/svg" xmlns:xlink="http://www.w3.org/1999/xlink" x="0px" y="0px"
	 width="20px" height="20px" viewBox="0 0 20 20" enable-background="new 0 0 20 20" xml:space="preserve">
<path fill="#D85039" d="M10.012,0.219c-5.467,0-9.9,4.433-9.9,9.9c0,4.374,2.836,8.084,6.771,9.395
	c0.495,0.092,0.675-0.216,0.675-0.478c0-0.235-0.008-0.858-0.013-1.685c-2.753,0.598-3.334-1.328-3.334-1.328
	c-0.451-1.144-1.1-1.447-1.1-1.447c-0.899-0.614,0.069-0.604,0.069-0.604c0.994,0.071,1.516,1.021,1.516,1.021
	c0.883,1.513,2.318,1.074,2.882,0.822c0.089-0.641,0.346-1.076,0.628-1.324c-2.199-0.249-4.51-1.098-4.51-4.892
	c0-1.081,0.386-1.964,1.019-2.657c-0.101-0.25-0.442-1.257,0.097-2.62c0,0,0.832-0.267,2.724,1.016
	c0.789-0.22,1.636-0.331,2.479-0.334c0.84,0.003,1.688,0.114,2.479,0.334c1.89-1.282,2.719-1.016,2.719-1.016
	c0.539,1.363,0.201,2.37,0.1,2.62C15.948,7.635,16.33,8.519,16.33,9.6c0,3.804-2.314,4.64-4.521,4.884
	c0.357,0.307,0.674,0.91,0.674,1.834c0,1.324-0.012,2.392-0.012,2.717c0,0.265,0.178,0.572,0.68,0.477
	c3.932-1.312,6.767-5.021,6.767-9.394C19.913,4.651,15.479,0.219,10.012,0.219z"/>
</svg>
