<?xml version="1.0" encoding="utf-8"?>
<!-- Generator: Adobe Illustrator 16.0.0, SVG Export Plug-In . SVG Version: 6.00 Build 0)  -->
<!DOCTYPE svg PUBLIC "-//W3C//DTD SVG 1.1//EN" "http://www.w3.org/Graphics/SVG/1.1/DTD/svg11.dtd">
<svg version="1.1" id="Layer_1" xmlns="http://www.w3.org/2000/svg" xmlns:xlink="http://www.w3.org/1999/xlink" x="0px" y="0px"
	 width="360px" height="210px" viewBox="0 0 360 210" enable-background="new 0 0 360 210" xml:space="preserve">
<g>
	<g>
		<polygon fill="#F99144" stroke="#58595B" stroke-width="0.5" stroke-miterlimit="10" points="329.662,94.334 289.393,114.471 
			289.393,154.74 329.662,134.605 		"/>
		<polygon fill="#F99144" stroke="#58595B" stroke-width="0.5" stroke-miterlimit="10" points="329.662,134.605 329.662,142.156 
			289.393,162.291 289.393,154.74 		"/>
		<polygon fill="#F99144" stroke="#58595B" stroke-width="0.5" stroke-miterlimit="10" points="327.146,99.369 291.909,116.986 
			291.909,153.482 327.146,135.863 		"/>
		<polygon fill="#F99144" stroke="#58595B" stroke-width="0.5" stroke-miterlimit="10" points="329.662,94.334 208.851,33.929 
			168.58,54.064 289.393,114.471 		"/>
		<polygon fill="#F99144" stroke="#58595B" stroke-width="0.5" stroke-miterlimit="10" points="289.393,114.471 289.393,154.74 
			168.58,94.334 168.58,54.064 		"/>
		<polygon fill="#F99144" stroke="#58595B" stroke-width="0.5" stroke-miterlimit="10" points="289.393,154.74 289.393,162.291 
			168.58,101.886 168.58,94.334 		"/>
		<polygon fill="#F99144" stroke="#58595B" stroke-width="0.5" stroke-miterlimit="10" points="286.876,157.258 286.876,154.74 
			276.809,149.707 276.809,152.225 		"/>
		<polygon fill="#F99144" stroke="#58595B" stroke-width="0.5" stroke-miterlimit="10" points="317.078,144.674 317.078,142.156 
			327.146,137.123 327.146,139.641 		"/>
		<polygon fill="#F99144" stroke="#58595B" stroke-width="0.5" stroke-miterlimit="10" points="291.909,157.258 291.909,154.74 
			301.977,149.707 301.977,152.225 		"/>
		<polygon fill="#F99144" stroke="#58595B" stroke-width="0.5" stroke-miterlimit="10" points="234.02,130.971 234.02,128.453 
			223.953,123.42 223.953,125.936 		"/>
		<polygon fill="#F99144" stroke="#58595B" stroke-width="0.5" stroke-miterlimit="10" points="181.165,104.402 181.165,101.886 
			171.097,96.852 171.097,99.369 		"/>
		<polygon fill="#F99144" stroke="#58595B" stroke-width="0.5" stroke-miterlimit="10" points="286.876,116.986 286.876,149.707 
			171.097,91.818 171.097,59.098 		"/>
		
			<line fill="none" stroke="#58595B" stroke-width="0.5" stroke-miterlimit="10" x1="281.842" y1="114.471" x2="281.842" y2="147.189"/>
		
			<line fill="none" stroke="#58595B" stroke-width="0.5" stroke-miterlimit="10" x1="276.809" y1="144.674" x2="276.809" y2="111.953"/>
		
			<line fill="none" stroke="#58595B" stroke-width="0.5" stroke-miterlimit="10" x1="271.774" y1="109.438" x2="271.774" y2="142.157"/>
		
			<line fill="none" stroke="#58595B" stroke-width="0.5" stroke-miterlimit="10" x1="266.74" y1="139.641" x2="266.74" y2="106.92"/>
		
			<line fill="none" stroke="#58595B" stroke-width="0.5" stroke-miterlimit="10" x1="261.706" y1="104.402" x2="261.706" y2="137.123"/>
		
			<line fill="none" stroke="#58595B" stroke-width="0.5" stroke-miterlimit="10" x1="256.673" y1="134.605" x2="256.673" y2="101.886"/>
		
			<line fill="none" stroke="#58595B" stroke-width="0.5" stroke-miterlimit="10" x1="251.639" y1="99.369" x2="251.639" y2="132.088"/>
		
			<line fill="none" stroke="#58595B" stroke-width="0.5" stroke-miterlimit="10" x1="246.604" y1="129.57" x2="246.604" y2="96.852"/>
		
			<line fill="none" stroke="#58595B" stroke-width="0.5" stroke-miterlimit="10" x1="241.57" y1="94.334" x2="241.57" y2="127.055"/>
		
			<line fill="none" stroke="#58595B" stroke-width="0.5" stroke-miterlimit="10" x1="236.537" y1="124.538" x2="236.537" y2="91.818"/>
		
			<line fill="none" stroke="#58595B" stroke-width="0.5" stroke-miterlimit="10" x1="231.504" y1="89.301" x2="231.504" y2="122.021"/>
		
			<line fill="none" stroke="#58595B" stroke-width="0.5" stroke-miterlimit="10" x1="226.47" y1="119.504" x2="226.47" y2="86.784"/>
		
			<line fill="none" stroke="#58595B" stroke-width="0.5" stroke-miterlimit="10" x1="221.436" y1="84.267" x2="221.436" y2="116.986"/>
		
			<line fill="none" stroke="#58595B" stroke-width="0.5" stroke-miterlimit="10" x1="216.402" y1="114.471" x2="216.402" y2="81.75"/>
		
			<line fill="none" stroke="#58595B" stroke-width="0.5" stroke-miterlimit="10" x1="211.368" y1="111.953" x2="211.368" y2="79.233"/>
		
			<line fill="none" stroke="#58595B" stroke-width="0.5" stroke-miterlimit="10" x1="206.334" y1="109.438" x2="206.334" y2="76.716"/>
		<line fill="none" stroke="#58595B" stroke-width="0.5" stroke-miterlimit="10" x1="201.301" y1="106.92" x2="201.301" y2="74.2"/>
		
			<line fill="none" stroke="#58595B" stroke-width="0.5" stroke-miterlimit="10" x1="196.266" y1="104.402" x2="196.266" y2="71.683"/>
		
			<line fill="none" stroke="#58595B" stroke-width="0.5" stroke-miterlimit="10" x1="191.232" y1="101.886" x2="191.232" y2="69.166"/>
		
			<line fill="none" stroke="#58595B" stroke-width="0.5" stroke-miterlimit="10" x1="186.199" y1="99.369" x2="186.199" y2="66.649"/>
		
			<line fill="none" stroke="#58595B" stroke-width="0.5" stroke-miterlimit="10" x1="181.165" y1="96.852" x2="181.165" y2="64.132"/>
		
			<line fill="none" stroke="#58595B" stroke-width="0.5" stroke-miterlimit="10" x1="176.131" y1="94.334" x2="176.131" y2="61.615"/>
		
			<line fill="none" stroke="#58595B" stroke-width="0.5" stroke-miterlimit="10" x1="309.527" y1="104.402" x2="309.527" y2="144.674"/>
		<polygon fill="#F99144" stroke="#58595B" stroke-width="0.5" stroke-miterlimit="10" points="309.527,122.021 304.494,124.538 
			304.494,137.123 309.527,134.605 		"/>
		<polygon fill="#F99144" stroke="#58595B" stroke-width="0.5" stroke-miterlimit="10" points="314.562,119.504 309.527,122.021 
			309.527,134.605 314.562,132.088 		"/>
		<polygon fill="#F99144" stroke="#58595B" stroke-width="0.5" stroke-miterlimit="10" points="314.562,124.538 304.494,129.57 
			304.494,132.088 314.562,127.055 		"/>
		<polygon fill="#F99144" stroke="#58595B" stroke-width="0.5" stroke-miterlimit="10" points="329.662,94.334 324.63,91.818 
			284.358,111.953 289.393,114.471 		"/>
		<polygon fill="#F99144" stroke="#58595B" stroke-width="0.5" stroke-miterlimit="10" points="208.851,33.929 213.885,36.445 
			173.614,56.582 168.58,54.064 		"/>
	</g>
	<g>
		<g>
			<path fill="#F1F1F2" stroke="#58595B" stroke-width="0.5" stroke-miterlimit="10" d="M183.505,107.75
				c-0.13-0.082-0.294-0.09-0.431-0.02l-4.248,2.123c-0.15,0.074-0.245,0.229-0.245,0.396v3.187c0,0.153,0.079,0.295,0.209,0.377
				c0.07,0.043,0.151,0.065,0.232,0.065c0.068,0,0.137-0.017,0.198-0.047l4.249-2.125c0.148-0.074,0.244-0.228,0.244-0.396v-3.188
				C183.715,107.973,183.635,107.83,183.505,107.75z"/>
		</g>
		<path fill="#58595B" d="M183.252,138.857c-0.003-6.043-2.431-12.287-5.421-13.949c-1.822-1.014-3.434-0.09-4.414,2.15
			c-0.016-0.009-0.031-0.019-0.046-0.026c-2.991-1.661-5.414,1.89-5.41,7.933s2.431,12.288,5.422,13.949
			c0.854,0.475,1.662,0.523,2.379,0.211l0,0l0.009-0.004c0.046-0.02,0.091-0.041,0.136-0.064l4.365-2.078
			c0.021-0.01,0.042-0.02,0.063-0.028l0.013-0.007l0,0C182.076,146.076,183.255,143.074,183.252,138.857z"/>
		<g>
			<path fill="#58595B" d="M144.694,141.9c2.992,1.662,5.419,7.908,5.423,13.949c0.003,6.045-2.419,9.596-5.41,7.934
				c-2.991-1.66-5.419-7.906-5.422-13.949C139.281,143.791,141.703,140.24,144.694,141.9z"/>
		</g>
		<g>
			<path fill="#58595B" d="M115.278,133.285c2.111,1.172,3.825,5.58,3.827,9.846s-1.708,6.771-3.818,5.6
				c-2.112-1.174-3.825-5.582-3.828-9.847C111.457,134.618,113.166,132.111,115.278,133.285z"/>
		</g>
		<polygon fill="#D0D2D3" stroke="#58595B" stroke-width="0.5" stroke-miterlimit="10" points="98.925,134.059 149.905,159.549 
			183.893,142.555 132.912,117.064 		"/>
		<g>
			<g>
				
					<line fill="none" stroke="#58595B" stroke-width="0.5" stroke-linecap="round" stroke-linejoin="round" stroke-miterlimit="10" x1="66.266" y1="128.217" x2="70.514" y2="130.34"/>
				
					<ellipse fill="#F1F1F2" stroke="#58595B" stroke-width="0.5" stroke-miterlimit="10" cx="71.576" cy="130.871" rx="1.062" ry="1.594"/>
				<path fill="none" stroke="#58595B" stroke-width="0.5" stroke-miterlimit="10" d="M70.514,130.34"/>
				<path fill="none" stroke="#58595B" stroke-width="0.5" stroke-miterlimit="10" d="M72.639,149.459v-14.87v-2.124
					c0,0,0-0.665-1.052-1.469"/>
			</g>
			
				<line fill="none" stroke="#58595B" stroke-width="0.5" stroke-miterlimit="10" x1="74.763" y1="135.65" x2="74.763" y2="148.396"/>
			
				<line fill="none" stroke="#58595B" stroke-width="0.5" stroke-miterlimit="10" x1="104.501" y1="150.52" x2="104.501" y2="161.406"/>
			
				<line fill="none" stroke="#58595B" stroke-width="0.5" stroke-miterlimit="10" x1="100.252" y1="148.396" x2="100.252" y2="159.813"/>
			
				<line fill="none" stroke="#58595B" stroke-width="0.5" stroke-miterlimit="10" x1="59.894" y1="140.961" x2="59.894" y2="155.83"/>
			
				<line fill="none" stroke="#58595B" stroke-width="0.5" stroke-miterlimit="10" x1="64.142" y1="138.838" x2="64.142" y2="153.707"/>
			
				<line fill="none" stroke="#58595B" stroke-width="0.5" stroke-miterlimit="10" x1="68.39" y1="136.713" x2="68.39" y2="151.582"/>
			<g>
				
					<ellipse transform="matrix(-0.1075 -0.9942 0.9942 -0.1075 -61.003 285.1605)" fill="#FFFFFF" stroke="#58595B" stroke-width="0.5" stroke-miterlimit="10" cx="97.488" cy="169.96" rx="1.594" ry="1.061"/>
				
					<ellipse transform="matrix(-0.1085 -0.9941 0.9941 -0.1085 -61.5769 285.1733)" fill="#FFFFFF" stroke="#58595B" stroke-width="0.5" stroke-miterlimit="10" cx="97.076" cy="170.196" rx="1.592" ry="1.062"/>
				
					<ellipse transform="matrix(-0.1064 -0.9943 0.9943 -0.1064 -61.841 284.8279)" fill="#FFFFFF" stroke="#58595B" stroke-width="0.5" stroke-miterlimit="10" cx="97.067" cy="170.202" rx="0.798" ry="0.53"/>
				<polygon fill="#FFFFFF" stroke="#58595B" stroke-width="0.5" stroke-miterlimit="10" points="96.68,169.902 97.21,170.168 
					97.477,168.045 96.414,167.514 				"/>
			</g>
			<path fill="none" stroke="#58595B" stroke-width="0.5" stroke-miterlimit="10" d="M68.39,157.955l-10.621,5.311
				c-2.124,1.063,0,2.123,0,2.123l25.49,12.746c0,0,2.124,1.063,4.249,0l12.745-6.373c0,0,2.125-1.063,0-2.125l-8.497-4.248"/>
			<polyline fill="none" stroke="#58595B" stroke-width="0.5" stroke-miterlimit="10" points="55.645,145.209 72.639,136.713 
				106.625,153.707 			"/>
			<polygon fill="none" stroke="#58595B" stroke-width="0.5" stroke-miterlimit="10" points="72.639,149.459 55.645,157.955 
				89.632,170.699 106.625,162.203 			"/>
			<polygon fill="none" stroke="#58595B" stroke-width="0.5" stroke-miterlimit="10" points="72.639,149.459 106.625,162.203 
				106.625,151.582 72.639,134.589 			"/>
			<polygon fill="none" stroke="#58595B" stroke-width="0.5" stroke-miterlimit="10" points="72.639,134.589 72.639,149.459 
				55.645,157.955 55.645,143.086 			"/>
			<g>
				
					<ellipse transform="matrix(-0.1085 -0.9941 0.9941 -0.1085 -101.1751 244.9408)" fill="#FFFFFF" stroke="#58595B" stroke-width="0.5" stroke-miterlimit="10" cx="59.245" cy="167.838" rx="1.593" ry="1.062"/>
				
					<ellipse transform="matrix(-0.1077 -0.9942 0.9942 -0.1077 -101.9178 244.6656)" fill="#FFFFFF" stroke="#58595B" stroke-width="0.5" stroke-miterlimit="10" cx="58.841" cy="168.071" rx="1.592" ry="1.062"/>
				
					<ellipse transform="matrix(-0.1084 -0.9941 0.9941 -0.1084 -101.8751 244.7805)" fill="#FFFFFF" stroke="#58595B" stroke-width="0.5" stroke-miterlimit="10" cx="58.831" cy="168.075" rx="0.797" ry="0.531"/>
				<polygon fill="#FFFFFF" stroke="#58595B" stroke-width="0.5" stroke-miterlimit="10" points="58.438,167.779 58.969,168.045 
					59.235,165.92 58.173,165.389 				"/>
			</g>
			<g>
				
					<ellipse transform="matrix(-0.1075 -0.9942 0.9942 -0.1075 -87.4264 280.5098)" fill="#FFFFFF" stroke="#58595B" stroke-width="0.5" stroke-miterlimit="10" cx="82.193" cy="179.496" rx="1.594" ry="1.061"/>
				
					<ellipse transform="matrix(-0.1075 -0.9942 0.9942 -0.1075 -88.1064 280.3622)" fill="#FFFFFF" stroke="#58595B" stroke-width="0.5" stroke-miterlimit="10" cx="81.787" cy="179.728" rx="1.594" ry="1.062"/>
				
					<ellipse transform="matrix(-0.1068 -0.9943 0.9943 -0.1068 -88.2051 280.2341)" fill="#FFFFFF" stroke="#58595B" stroke-width="0.5" stroke-miterlimit="10" cx="81.771" cy="179.736" rx="0.796" ry="0.531"/>
				<polygon fill="#FFFFFF" stroke="#58595B" stroke-width="0.5" stroke-miterlimit="10" points="81.385,179.438 81.916,179.703 
					82.182,177.58 81.119,177.049 				"/>
			</g>
			<g>
				
					<line fill="none" stroke="#58595B" stroke-width="0.5" stroke-linecap="round" stroke-linejoin="round" stroke-miterlimit="10" x1="49.272" y1="136.713" x2="53.521" y2="138.838"/>
				
					<ellipse fill="#F1F1F2" stroke="#58595B" stroke-width="0.5" stroke-miterlimit="10" cx="54.583" cy="139.368" rx="1.062" ry="1.593"/>
				<path fill="none" stroke="#58595B" stroke-width="0.5" stroke-miterlimit="10" d="M53.521,138.838"/>
				<path fill="none" stroke="#58595B" stroke-width="0.5" stroke-miterlimit="10" d="M55.645,157.955v-14.869v-2.125
					c0,0,0-0.664-1.052-1.469"/>
			</g>
			<g>
				<polygon fill="#F99144" stroke="#58595B" stroke-width="0.5" stroke-miterlimit="10" points="61.31,150.594 72.166,156.021 
					83.023,150.594 72.166,145.166 				"/>
				<polygon fill="#F99144" stroke="#58595B" stroke-width="0.5" stroke-miterlimit="10" points="61.31,150.594 61.31,156.021 
					72.166,161.451 72.166,156.021 				"/>
				<polygon fill="#F99144" stroke="#58595B" stroke-width="0.5" stroke-miterlimit="10" points="72.166,156.021 72.166,161.451 
					83.023,156.021 83.023,150.594 				"/>
				<polygon fill="#F99144" stroke="#58595B" stroke-width="0.5" stroke-miterlimit="10" points="61.31,150.594 70.81,149.916 
					73.523,151.271 72.166,156.021 				"/>
				<polygon fill="#F99144" stroke="#58595B" stroke-width="0.5" stroke-miterlimit="10" points="72.166,145.166 70.81,149.916 
					73.523,151.271 83.023,150.594 				"/>
			</g>
			<g>
				<polygon fill="#F99144" stroke="#58595B" stroke-width="0.5" stroke-miterlimit="10" points="77.654,153.32 88.511,158.748 
					99.368,153.32 88.511,147.893 				"/>
				<polygon fill="#F99144" stroke="#58595B" stroke-width="0.5" stroke-miterlimit="10" points="77.654,153.32 77.654,164.178 
					88.511,169.605 88.511,158.748 				"/>
				<polygon fill="#F99144" stroke="#58595B" stroke-width="0.5" stroke-miterlimit="10" points="88.511,158.748 88.511,169.605 
					99.368,164.178 99.368,153.32 				"/>
				<polygon fill="#F99144" stroke="#58595B" stroke-width="0.5" stroke-miterlimit="10" points="77.654,153.32 87.153,152.643 
					89.868,153.998 88.511,158.748 				"/>
				<polygon fill="#F99144" stroke="#58595B" stroke-width="0.5" stroke-miterlimit="10" points="88.511,147.893 87.153,152.643 
					89.868,153.998 99.368,153.32 				"/>
			</g>
			<g>
				<polygon fill="#F99144" stroke="#58595B" stroke-width="0.5" stroke-miterlimit="10" points="64.731,144.266 71.34,147.57 
					77.949,144.266 71.34,140.961 				"/>
				<polygon fill="#F99144" stroke="#58595B" stroke-width="0.5" stroke-miterlimit="10" points="64.731,144.266 64.731,150.875 
					71.34,154.178 71.34,147.57 				"/>
				<polygon fill="#F99144" stroke="#58595B" stroke-width="0.5" stroke-miterlimit="10" points="71.34,147.57 71.34,154.178 
					77.949,150.875 77.949,144.266 				"/>
				<polygon fill="#F99144" stroke="#58595B" stroke-width="0.5" stroke-miterlimit="10" points="64.731,144.266 70.514,143.854 
					72.166,144.68 71.34,147.57 				"/>
				<polygon fill="#F99144" stroke="#58595B" stroke-width="0.5" stroke-miterlimit="10" points="71.34,140.961 70.514,143.854 
					72.166,144.68 77.949,144.266 				"/>
			</g>
			<g>
				<polygon fill="#F99144" stroke="#58595B" stroke-width="0.5" stroke-miterlimit="10" points="75.353,141.079 86.209,146.508 
					97.066,141.079 86.209,135.65 				"/>
				<polygon fill="#F99144" stroke="#58595B" stroke-width="0.5" stroke-miterlimit="10" points="75.353,141.079 75.353,151.936 
					86.209,157.365 86.209,146.508 				"/>
				<polygon fill="#F99144" stroke="#58595B" stroke-width="0.5" stroke-miterlimit="10" points="86.209,146.508 86.209,157.365 
					97.066,151.936 97.066,141.079 				"/>
				<polygon fill="#F99144" stroke="#58595B" stroke-width="0.5" stroke-miterlimit="10" points="75.353,141.079 84.853,140.4 
					87.567,141.758 86.209,146.508 				"/>
				<polygon fill="#F99144" stroke="#58595B" stroke-width="0.5" stroke-miterlimit="10" points="86.209,135.65 84.853,140.4 
					87.567,141.758 97.066,141.079 				"/>
			</g>
			<g>
				<polygon fill="#F99144" stroke="#58595B" stroke-width="0.5" stroke-miterlimit="10" points="79.011,136.83 85.62,140.135 
					92.228,136.83 85.62,133.525 				"/>
				<polygon fill="#F99144" stroke="#58595B" stroke-width="0.5" stroke-miterlimit="10" points="79.011,136.83 79.011,140.135 
					85.62,143.439 85.62,140.135 				"/>
				<polygon fill="#F99144" stroke="#58595B" stroke-width="0.5" stroke-miterlimit="10" points="85.62,140.135 85.62,143.439 
					92.228,140.135 92.228,136.83 				"/>
				<polygon fill="#F99144" stroke="#58595B" stroke-width="0.5" stroke-miterlimit="10" points="79.011,136.83 84.793,136.418 
					86.446,137.244 85.62,140.135 				"/>
				<polygon fill="#F99144" stroke="#58595B" stroke-width="0.5" stroke-miterlimit="10" points="85.62,133.525 84.793,136.418 
					86.446,137.244 92.228,136.83 				"/>
			</g>
			
				<line fill="none" stroke="#58595B" stroke-width="0.5" stroke-miterlimit="10" x1="93.88" y1="168.576" x2="93.88" y2="157.955"/>
			
				<line fill="none" stroke="#58595B" stroke-width="0.5" stroke-miterlimit="10" x1="98.129" y1="166.451" x2="98.129" y2="155.83"/>
			
				<line fill="none" stroke="#58595B" stroke-width="0.5" stroke-miterlimit="10" x1="102.377" y1="164.328" x2="102.377" y2="153.707"/>
			<polygon fill="none" stroke="#58595B" stroke-width="0.5" stroke-miterlimit="10" points="106.625,151.582 106.625,162.203 
				89.632,170.699 89.632,160.078 			"/>
			<polyline fill="none" stroke="#58595B" stroke-width="0.5" stroke-miterlimit="10" points="55.645,145.209 89.632,162.203 
				106.625,153.707 			"/>
			<polygon fill="none" stroke="#58595B" stroke-width="0.5" stroke-miterlimit="10" points="55.645,143.086 55.645,157.955 
				89.632,170.699 89.632,160.078 			"/>
			
				<line fill="none" stroke="#58595B" stroke-width="0.5" stroke-miterlimit="10" x1="58.173" y1="165.389" x2="55.645" y2="157.955"/>
			
				<line fill="none" stroke="#58595B" stroke-width="0.5" stroke-miterlimit="10" x1="57.769" y1="144.146" x2="57.769" y2="158.748"/>
			
				<line fill="none" stroke="#58595B" stroke-width="0.5" stroke-miterlimit="10" x1="62.017" y1="146.271" x2="62.017" y2="160.344"/>
			
				<line fill="none" stroke="#58595B" stroke-width="0.5" stroke-miterlimit="10" x1="66.266" y1="148.396" x2="66.266" y2="161.973"/>
			
				<line fill="none" stroke="#58595B" stroke-width="0.5" stroke-miterlimit="10" x1="70.514" y1="163.531" x2="70.514" y2="150.52"/>
			
				<line fill="none" stroke="#58595B" stroke-width="0.5" stroke-miterlimit="10" x1="74.763" y1="165.158" x2="74.763" y2="152.645"/>
			
				<line fill="none" stroke="#58595B" stroke-width="0.5" stroke-miterlimit="10" x1="79.011" y1="166.717" x2="79.011" y2="154.768"/>
			
				<line fill="none" stroke="#58595B" stroke-width="0.5" stroke-miterlimit="10" x1="83.259" y1="168.281" x2="83.259" y2="156.893"/>
			
				<line fill="none" stroke="#58595B" stroke-width="0.5" stroke-miterlimit="10" x1="87.508" y1="169.902" x2="87.508" y2="159.016"/>
		</g>
		<polygon fill="#F1F1F2" stroke="#58595B" stroke-width="0.5" stroke-miterlimit="10" points="98.925,134.059 98.925,129.811 
			149.905,155.299 149.905,159.549 		"/>
		<polygon fill="#F1F1F2" stroke="#58595B" stroke-width="0.5" stroke-miterlimit="10" points="132.912,117.064 132.912,112.816 
			183.893,138.307 183.893,142.555 		"/>
		<polygon fill="#F1F1F2" stroke="#58595B" stroke-width="0.5" stroke-miterlimit="10" points="149.905,155.299 183.893,138.307 
			183.893,142.555 149.905,159.549 		"/>
		<polygon fill="#F1F1F2" stroke="#58595B" stroke-width="0.5" stroke-miterlimit="10" points="98.925,129.811 98.925,121.313 
			105.297,124.499 105.297,132.996 		"/>
		<polygon fill="#F1F1F2" stroke="#58595B" stroke-width="0.5" stroke-miterlimit="10" points="132.912,113.879 132.912,105.382 
			139.284,108.568 139.284,117.064 		"/>
		<polygon fill="#F1F1F2" stroke="#58595B" stroke-width="0.5" stroke-miterlimit="10" points="98.925,121.313 132.912,104.319 
			139.284,107.506 105.297,124.499 		"/>
		<polygon fill="#F1F1F2" stroke="#58595B" stroke-width="0.5" stroke-miterlimit="10" points="105.297,132.996 105.297,114.939 
			124.415,124.499 124.415,142.555 		"/>
		<polygon fill="#F1F1F2" stroke="#58595B" stroke-width="0.5" stroke-miterlimit="10" points="139.284,116.002 139.284,97.947 
			158.402,107.506 158.402,125.561 		"/>
		<g>
			<path fill="#E6E7E8" d="M111.243,139.27c1.056,0.586,1.911,2.791,1.912,4.924c0.002,2.133-0.853,3.387-1.908,2.8
				c-1.057-0.586-1.913-2.79-1.914-4.923S110.187,138.684,111.243,139.27z"/>
		</g>
		<g>
			<path fill="#F1F1F2" stroke="#58595B" stroke-width="0.5" stroke-miterlimit="10" d="M111.244,141.416
				c0.469,0.26,0.849,1.24,0.85,2.188c0.001,0.948-0.379,1.504-0.848,1.244c-0.47-0.262-0.851-1.24-0.852-2.188
				C110.395,141.712,110.775,141.154,111.244,141.416z"/>
		</g>
		<g>
			<path fill="#58595B" d="M111.241,135.408c2.11,1.173,3.824,5.581,3.826,9.847c0.002,4.265-1.707,6.772-3.817,5.599
				c-2.111-1.172-3.825-5.58-3.827-9.846C107.419,136.742,109.129,134.236,111.241,135.408z M111.247,146.992
				c1.056,0.587,1.91-0.667,1.908-2.799c-0.001-2.133-0.856-4.338-1.912-4.924c-1.057-0.586-1.911,0.668-1.909,2.799
				C109.334,144.202,110.191,146.406,111.247,146.992"/>
		</g>
		<polygon fill="#F1F1F2" stroke="#58595B" stroke-width="0.5" stroke-miterlimit="10" points="132.912,146.803 132.912,139.368 
			149.905,147.865 149.905,155.299 		"/>
		<polygon fill="#F1F1F2" stroke="#58595B" stroke-width="0.5" stroke-miterlimit="10" points="132.912,139.368 166.898,122.375 
			183.893,130.872 149.905,147.865 		"/>
		<polygon fill="#F1F1F2" stroke="#58595B" stroke-width="0.5" stroke-miterlimit="10" points="149.905,147.865 149.905,155.299 
			183.893,138.307 183.893,130.872 		"/>
		<polygon fill="#D0D2D3" stroke="#58595B" stroke-width="0.5" stroke-miterlimit="10" points="105.297,114.939 139.284,97.947 
			158.402,107.506 124.415,124.499 		"/>
		<polygon fill="#D0D2D3" stroke="#58595B" stroke-width="0.5" stroke-miterlimit="10" points="124.415,124.499 124.415,142.555 
			158.402,125.561 158.402,107.506 		"/>
		<polygon fill="#F1F1F2" stroke="#58595B" stroke-width="0.5" stroke-miterlimit="10" points="105.297,91.575 105.297,114.939 
			107.422,116.002 107.422,92.637 		"/>
		<polygon fill="#F1F1F2" stroke="#58595B" stroke-width="0.5" stroke-miterlimit="10" points="139.284,74.582 139.284,97.947 
			141.409,99.009 141.409,75.643 		"/>
		<polygon fill="#F1F1F2" stroke="#58595B" stroke-width="0.5" stroke-miterlimit="10" points="105.297,91.575 139.284,74.582 
			175.395,92.637 141.409,109.631 		"/>
		<polygon fill="#F1F1F2" stroke="#58595B" stroke-width="0.5" stroke-miterlimit="10" points="171.147,94.761 179.644,132.996 
			183.893,130.872 175.395,92.637 		"/>
		<polygon fill="#F1F1F2" stroke="#58595B" stroke-width="0.5" stroke-miterlimit="10" points="115.918,144.68 118.043,143.616 
			114.856,135.119 112.732,136.182 		"/>
		<polygon fill="#F1F1F2" stroke="#58595B" stroke-width="0.5" stroke-miterlimit="10" points="110.608,132.996 107.422,138.307 
			105.297,139.368 108.484,134.059 		"/>
		<g>
			<polygon fill="#F1F1F2" stroke="#58595B" stroke-width="0.5" stroke-miterlimit="10" points="137.16,138.482 137.16,132.287 
				151.322,139.368 151.322,145.564 			"/>
			<polygon fill="#D0D2D3" stroke="#58595B" stroke-width="0.5" stroke-miterlimit="10" points="137.16,132.287 165.482,118.127 
				179.644,125.207 151.322,139.368 			"/>
			<polygon fill="#F1F1F2" stroke="#58595B" stroke-width="0.5" stroke-miterlimit="10" points="151.322,139.368 151.322,145.564 
				179.644,131.402 179.644,125.207 			"/>
		</g>
		<polygon fill="#F1F1F2" stroke="#58595B" stroke-width="0.5" stroke-miterlimit="10" points="112.732,136.182 108.484,134.059 
			110.608,132.996 114.856,135.119 		"/>
		<polygon fill="#F1F1F2" stroke="#58595B" stroke-width="0.5" stroke-miterlimit="10" points="158.402,140.432 177.52,130.872 
			177.52,128.748 158.402,138.307 		"/>
		<polygon fill="#F1F1F2" stroke="#58595B" stroke-width="0.5" stroke-miterlimit="10" points="158.402,125.561 177.52,116.002 
			177.52,113.879 158.402,123.438 		"/>
		<polygon fill="#F1F1F2" stroke="#58595B" stroke-width="0.5" stroke-miterlimit="10" points="158.402,110.691 177.52,101.133 
			177.52,99.009 158.402,108.568 		"/>
		<polygon fill="#F1F1F2" stroke="#58595B" stroke-width="0.5" stroke-miterlimit="10" points="175.395,147.865 175.395,84.14 
			179.644,82.016 179.644,145.74 		"/>
		<polygon fill="#F1F1F2" stroke="#58595B" stroke-width="0.5" stroke-miterlimit="10" points="149.905,149.99 149.905,152.113 
			154.154,149.99 154.154,147.865 		"/>
		<polygon fill="#F1F1F2" stroke="#58595B" stroke-width="0.5" stroke-miterlimit="10" points="179.644,135.119 179.644,137.244 
			183.893,135.119 183.893,132.996 		"/>
		<polygon fill="#58595B" points="112.85,151.031 117.138,148.793 117.138,146.916 112.496,148.885 		"/>
		<polygon fill="#F1F1F2" stroke="#58595B" stroke-width="0.5" stroke-miterlimit="10" points="149.905,149.99 147.781,148.928 
			147.781,151.051 149.905,152.113 		"/>
		<polygon fill="#F1F1F2" stroke="#58595B" stroke-width="0.5" stroke-miterlimit="10" points="132.912,146.803 132.912,148.928 
			126.54,145.74 124.415,142.555 		"/>
		<polygon fill="#F1F1F2" stroke="#58595B" stroke-width="0.5" stroke-miterlimit="10" points="99.987,123.438 99.987,128.748 
			104.235,130.872 104.235,125.561 		"/>
		
			<line fill="none" stroke="#58595B" stroke-width="0.5" stroke-miterlimit="10" x1="99.987" y1="125.561" x2="104.235" y2="127.686"/>
		
			<line fill="none" stroke="#58595B" stroke-width="0.5" stroke-miterlimit="10" x1="99.987" y1="127.686" x2="104.235" y2="129.811"/>
		
			<line fill="none" stroke="#58595B" stroke-width="0.5" stroke-miterlimit="10" x1="99.987" y1="126.623" x2="104.235" y2="128.748"/>
		
			<line fill="none" stroke="#58595B" stroke-width="0.5" stroke-miterlimit="10" x1="104.235" y1="126.623" x2="99.987" y2="124.499"/>
		<g>
			<polygon fill="#F1F1F2" stroke="#58595B" stroke-width="0.5" stroke-miterlimit="10" points="138.222,142.555 135.036,147.865 
				132.912,148.928 136.098,143.616 			"/>
			<g>
				<path fill="#E6E7E8" d="M140.238,149.496c1.495,0.83,2.709,3.953,2.711,6.975s-1.211,4.797-2.705,3.967
					c-1.496-0.83-2.709-3.953-2.711-6.975C137.53,150.441,138.742,148.666,140.238,149.496z"/>
			</g>
			<g>
				<path fill="#F1F1F2" stroke="#58595B" stroke-width="0.5" stroke-miterlimit="10" d="M140.238,150.211
					c1.301,0.723,2.355,3.438,2.356,6.064c0.001,2.625-1.051,4.168-2.351,3.447c-1.301-0.724-2.355-3.438-2.357-6.064
					C137.886,151.033,138.938,149.49,140.238,150.211z"/>
			</g>
			<g>
				<path fill="#F1F1F2" stroke="#58595B" stroke-width="0.5" stroke-miterlimit="10" d="M140.24,153.191
					c0.484,0.27,0.879,1.283,0.879,2.264s-0.393,1.557-0.877,1.287c-0.486-0.27-0.88-1.283-0.881-2.264
					C139.361,153.497,139.754,152.922,140.24,153.191z"/>
			</g>
			<g>
				<path fill="#58595B" d="M140.235,144.025c2.991,1.662,5.419,7.906,5.423,13.949c0.003,6.043-2.42,9.596-5.411,7.934
					c-2.992-1.662-5.418-7.906-5.422-13.949C134.82,145.916,137.244,142.363,140.235,144.025z M140.244,160.438
					c1.494,0.83,2.707-0.944,2.705-3.967c-0.002-3.021-1.216-6.145-2.711-6.975s-2.706,0.945-2.705,3.967
					C137.534,156.482,138.748,159.607,140.244,160.438"/>
			</g>
			<polygon fill="#F1F1F2" stroke="#58595B" stroke-width="0.5" stroke-miterlimit="10" points="145.657,155.299 147.781,154.238 
				144.595,145.74 142.471,146.803 			"/>
			<polygon fill="#F1F1F2" stroke="#58595B" stroke-width="0.5" stroke-miterlimit="10" points="142.471,146.803 136.098,143.616 
				138.222,142.555 144.595,145.74 			"/>
		</g>
		<polygon fill="#F1F1F2" stroke="#58595B" stroke-width="0.5" stroke-miterlimit="10" points="132.912,120.25 132.912,128.748 
			152.029,119.188 152.029,110.691 		"/>
		<g>
			<polygon fill="#D0D2D3" stroke="#58595B" stroke-width="0.5" stroke-miterlimit="10" points="132.912,120.428 122.291,115.117 
				141.409,105.559 152.029,110.869 			"/>
			<polygon fill="#D0D2D3" stroke="#58595B" stroke-width="0.5" stroke-miterlimit="10" points="141.409,105.559 141.409,114.057 
				152.029,119.365 152.029,110.869 			"/>
			<polygon fill="#D0D2D3" stroke="#58595B" stroke-width="0.5" stroke-miterlimit="10" points="141.409,114.057 130.788,119.365 
				132.912,120.428 132.912,128.924 152.029,119.365 			"/>
			<path fill="#D0D2D3" stroke="#58595B" stroke-width="0.5" stroke-miterlimit="10" d="M141.094,124.834
				c-1.731-3.541-8.954-6.145-8.954-6.145"/>
			<path fill="#D0D2D3" stroke="#58595B" stroke-width="0.5" stroke-miterlimit="10" d="M136.862,116.328
				c0,0,7.223,2.605,8.953,6.145"/>
			<path fill="#D0D2D3" stroke="#58595B" stroke-width="0.5" stroke-miterlimit="10" d="M132.141,118.689
				c0,0,2.093-3.392-0.565-8.215"/>
			<path fill="#D0D2D3" stroke="#58595B" stroke-width="0.5" stroke-miterlimit="10" d="M136.862,116.328
				c0,0,2.094-3.391-0.565-8.213"/>
		</g>
		<polygon fill="#D0D2D3" stroke="#58595B" stroke-width="0.5" stroke-miterlimit="10" points="132.912,128.748 132.912,129.811 
			152.029,120.25 152.029,119.188 		"/>
		<polygon fill="#F1F1F2" stroke="#58595B" stroke-width="0.5" stroke-miterlimit="10" points="122.291,100.071 122.291,123.438 
			124.415,124.499 124.415,101.133 		"/>
		<polygon fill="#F1F1F2" stroke="#58595B" stroke-width="0.5" stroke-miterlimit="10" points="141.409,109.631 149.905,147.865 
			154.154,145.74 145.657,107.506 		"/>
		<polygon fill="#F1F1F2" stroke="#58595B" stroke-width="0.5" stroke-miterlimit="10" points="105.297,91.575 107.422,89.45 
			139.284,105.382 141.409,109.631 		"/>
		
			<rect x="138.347" y="96.635" transform="matrix(0.8944 -0.4472 0.4472 0.8944 -27.6672 80.8198)" fill="#F1F1F2" stroke="#58595B" stroke-width="0.5" stroke-miterlimit="10" width="37.998" height="4.75"/>
		<polygon fill="#F1F1F2" stroke="#58595B" stroke-width="0.5" stroke-miterlimit="10" points="173.271,88.388 141.409,72.457 
			107.422,89.45 139.284,105.382 		"/>
		<path fill="#F1F1F2" stroke="#58595B" stroke-width="0.5" stroke-miterlimit="10" d="M111.67,88.388c0,0-1.564,0.856,1.062,2.125
			l24.429,11.683c0,0,2.124,1.063,4.249,0L167.96,89.45c0,0,3.187-1.062-1.063-3.186l-23.365-11.683c0,0-1.534-0.796-3.188,0
			L111.67,88.388z"/>
		<polygon fill="#F1F1F2" stroke="#58595B" stroke-width="0.5" stroke-miterlimit="10" points="155.216,158.486 155.216,94.761 
			159.464,92.637 159.464,156.361 		"/>
		<polygon fill="#58595B" points="142.626,166.119 147.212,163.936 146.719,162.734 141.409,163.797 		"/>
		<g>
			<path fill="#F1F1F2" stroke="#58595B" stroke-width="0.5" stroke-miterlimit="10" d="M145.27,125.627
				c-0.13-0.08-0.293-0.088-0.43-0.02l-4.249,2.125c-0.149,0.074-0.245,0.229-0.245,0.395v3.188c0,0.152,0.08,0.295,0.21,0.377
				c0.071,0.043,0.152,0.064,0.232,0.064c0.067,0,0.136-0.015,0.197-0.046l4.249-2.124c0.149-0.074,0.245-0.229,0.245-0.396v-3.186
				C145.48,125.852,145.4,125.708,145.27,125.627z"/>
			<polygon fill="#F1F1F2" stroke="#58595B" stroke-width="0.5" stroke-miterlimit="10" points="145.126,127.508 146.719,128.039 
				146.719,129.633 145.126,129.102 			"/>
		</g>
		<polygon fill="#F1F1F2" stroke="#58595B" stroke-width="0.5" stroke-miterlimit="10" points="155.216,158.486 195.574,178.666 
			199.824,176.541 159.464,156.361 		"/>
		<polygon fill="#F1F1F2" stroke="#58595B" stroke-width="0.5" stroke-miterlimit="10" points="175.395,147.865 215.754,168.045 
			220.003,165.92 179.644,145.74 		"/>
		<polygon fill="#F1F1F2" stroke="#58595B" stroke-width="0.5" stroke-miterlimit="10" points="157.34,160.609 189.202,176.541 
			218.941,161.672 187.078,145.74 		"/>
		<g>
			<polygon fill="#F99144" stroke="#58595B" stroke-width="0.5" stroke-miterlimit="10" points="157.34,130.872 189.202,146.803 
				218.941,131.934 187.078,116.002 			"/>
			<polygon fill="#F99144" stroke="#58595B" stroke-width="0.5" stroke-miterlimit="10" points="157.34,130.872 157.34,160.609 
				189.202,176.541 189.202,146.803 			"/>
			<polygon fill="#F99144" stroke="#58595B" stroke-width="0.5" stroke-miterlimit="10" points="189.202,146.803 218.941,131.934 
				218.941,161.672 189.202,176.541 			"/>
			<polygon fill="#F99144" stroke="#58595B" stroke-width="0.5" stroke-miterlimit="10" points="157.34,160.609 157.34,158.486 
				189.202,174.418 189.202,176.541 			"/>
			<polygon fill="#F99144" stroke="#58595B" stroke-width="0.5" stroke-miterlimit="10" points="189.202,174.418 218.941,159.549 
				218.941,161.672 189.202,176.541 			"/>
			<polygon fill="#F99144" stroke="#58595B" stroke-width="0.5" stroke-miterlimit="10" points="157.34,132.996 189.202,148.928 
				189.202,146.803 157.34,130.872 			"/>
			<polygon fill="#F99144" stroke="#58595B" stroke-width="0.5" stroke-miterlimit="10" points="189.202,146.803 218.941,131.934 
				218.941,134.059 189.202,148.928 			"/>
			
				<line fill="none" stroke="#58595B" stroke-width="0.5" stroke-miterlimit="10" x1="161.588" y1="128.748" x2="193.451" y2="144.68"/>
			
				<line fill="none" stroke="#58595B" stroke-width="0.5" stroke-miterlimit="10" x1="165.836" y1="126.623" x2="197.699" y2="142.555"/>
			
				<line fill="none" stroke="#58595B" stroke-width="0.5" stroke-miterlimit="10" x1="170.085" y1="124.499" x2="201.947" y2="140.432"/>
			
				<line fill="none" stroke="#58595B" stroke-width="0.5" stroke-miterlimit="10" x1="174.333" y1="122.375" x2="206.195" y2="138.307"/>
			
				<line fill="none" stroke="#58595B" stroke-width="0.5" stroke-miterlimit="10" x1="178.582" y1="120.25" x2="210.443" y2="136.182"/>
			
				<line fill="none" stroke="#58595B" stroke-width="0.5" stroke-miterlimit="10" x1="182.83" y1="118.127" x2="214.692" y2="134.059"/>
		</g>
	</g>
</g>
</svg>
