<?xml version="1.0" encoding="utf-8"?>
<!-- Generator: Adobe Illustrator 19.2.1, SVG Export Plug-In . SVG Version: 6.00 Build 0)  -->
<svg version="1.1" id="Layer_1" xmlns="http://www.w3.org/2000/svg" xmlns:xlink="http://www.w3.org/1999/xlink" x="0px" y="0px"
	 viewBox="0 0 347.7 260.8" style="enable-background:new 0 0 347.7 260.8;" xml:space="preserve">
<style type="text/css">
	.st0{fill-rule:evenodd;clip-rule:evenodd;fill:#FF5959;}
	.st1{fill:#FF5959;}
	.st2{fill-rule:evenodd;clip-rule:evenodd;}
	.st3{fill-rule:evenodd;clip-rule:evenodd;fill:#FFFFFF;}
	.st4{fill:#FFFFFF;}
</style>
<g>
	<path class="st3" d="M257.7,140.7l-3.6-4.3c-0.1-0.2-0.2-0.4-0.2-0.6v-6.6l0.7-0.7c0.1-0.1,0.2-0.3,0.2-0.4v-1.7
		c0-0.3-0.3-0.6-0.6-0.6h-5.2c-0.3,0-0.6,0.3-0.6,0.6v1.7c0,0.1,0.1,0.3,0.1,0.4l0.6,0.7v6.7c0,0.2-0.1,0.4-0.2,0.6l-3.5,4.3
		c-0.1,0.2-0.2,0.4-0.2,0.6v5.1c0,0.5,0.4,0.9,0.9,0.9H257c0.5,0,0.9-0.4,0.9-0.9v-5.1C257.9,141,257.8,140.8,257.7,140.7z
		 M252.8,126.4c0-0.2,0.1-0.4,0.2-0.4h0.9c0.1,0,0.2,0.2,0.2,0.4v0.8c0,0.2-0.1,0.4-0.2,0.4l-0.9-0.3c-0.1,0-0.2-0.2-0.2-0.4V126.4z
		 M256.8,144.8c0,0.4-0.3,0.8-0.6,1c-0.1,0.5-0.3,0.9-0.7,0.9h-0.8c0.3-0.2,0.4-0.4,0.4-0.8h-7.6c-0.6,0-1.1-0.5-1.1-1.1v-3.6h8.6
		c0-0.3-0.1-0.6-0.2-0.9l-1.4-3.6c-0.1-0.3-0.2-0.8-0.2-1.2v-5.7c0,0,0,0,0,0c0-0.6,0-0.8,0.4-1l0.1,0h-4.2c-0.1,0-0.1,0-0.1-0.1
		l-0.4-0.4c-0.1-0.1,0-0.3,0.1-0.3h5.1c0.2,0,0.2,0.2,0.1,0.3l-0.4,0.4l0,0l-0.4,0.6c0,0,0,0,0,0.2v6c0,0.5,0.1,0.9,0.3,1.3l2.3,3.7
		c0.1,0.2,0.2,0.4,0.2,0.7h0.6V144.8z M250.7,138.4c0.2,0,0.5,0.2,0.5,0.5v1c0,0.2-0.2,0.5-0.5,0.5h-1c-0.2,0-0.5-0.2-0.5-0.5v-1
		c0-0.2,0.2-0.5,0.5-0.5H250.7z M250.2,134.9v-0.5c0-0.1,0.1-0.2,0.2-0.2h0.5c0.1,0,0.2,0.1,0.2,0.2v0.5c0,0.1-0.1,0.2-0.2,0.2h-0.5
		C250.3,135.1,250.2,135,250.2,134.9z M251.7,136.2h0.8c0.2,0,0.3,0.1,0.3,0.3v0.8c0,0.2-0.1,0.3-0.3,0.3h-0.8
		c-0.2,0-0.3-0.1-0.3-0.3v-0.8C251.4,136.4,251.6,136.2,251.7,136.2z M251.7,131.6v-0.4c0-0.1,0.1-0.2,0.2-0.2h0.4
		c0.1,0,0.2,0.1,0.2,0.2v0.4c0,0.1-0.1,0.2-0.2,0.2h-0.4C251.8,131.7,251.7,131.7,251.7,131.6z"/>
	<g>
		<g>
			<path class="st4" d="M252.1,119.6h-1.4l0,0l0,0c0,0-0.3,0-0.5-0.2l-0.5-0.5c-0.2-0.2-0.2-0.5-0.2-0.5v-1.4c0-0.4-0.3-0.7-0.7-0.7
				h-1.5c-0.4,0-0.7,0.3-0.7,0.7v1.5c0,0.4,0.3,0.7,0.7,0.7h1.4h0c0,0,0.3,0,0.6,0.2l0.5,0.5l0,0c0.2,0.2,0.2,0.6,0.2,0.6l0,0v0v1.4
				c0,0.4,0.3,0.7,0.7,0.7h1.5c0.4,0,0.7-0.3,0.7-0.7v-1.5C252.8,119.9,252.5,119.6,252.1,119.6z"/>
		</g>
		<g>
			<path class="st4" d="M239.6,119.1h1.4l0,0l0,0c0,0,0.3,0,0.5,0.2l0.5,0.5c0.2,0.2,0.2,0.5,0.2,0.5v1.4c0,0.4,0.3,0.7,0.7,0.7h1.5
				c0.4,0,0.7-0.3,0.7-0.7v-1.5c0-0.4-0.3-0.7-0.7-0.7h-1.4h0c0,0-0.3,0-0.6-0.2l-0.5-0.5l0,0c-0.2-0.2-0.2-0.6-0.2-0.6l0,0v0v-1.4
				c0-0.4-0.3-0.7-0.7-0.7h-1.5c-0.4,0-0.7,0.3-0.7,0.7v1.5C238.9,118.8,239.2,119.1,239.6,119.1z"/>
		</g>
		<g>
			<path class="st4" d="M246.1,120.6v1.4l0,0l0,0c0,0,0,0.3-0.2,0.5l-0.5,0.5c-0.2,0.2-0.5,0.2-0.5,0.2h-1.4c-0.4,0-0.7,0.3-0.7,0.7
				v1.5c0,0.4,0.3,0.7,0.7,0.7h1.5c0.4,0,0.7-0.3,0.7-0.7v-1.4v0c0,0,0-0.3,0.2-0.6l0.5-0.5l0,0c0.2-0.2,0.6-0.2,0.6-0.2l0,0h0h1.4
				c0.4,0,0.7-0.3,0.7-0.7v-1.5c0-0.4-0.3-0.7-0.7-0.7h-1.5C246.4,120,246.1,120.3,246.1,120.6z"/>
		</g>
	</g>
	<g>
		<g>
			<g>
				<path class="st4" d="M204.4,116.8h3.6v0.7h-1.5v5.8h-0.7v-5.8h-1.5V116.8z"/>
			</g>
			<g>
				<path class="st4" d="M208.8,123.3v-6.5h0.7v0.8h0.7v0.8h-0.7v4.9H208.8z M210.3,119.9v-1.5h0.7v1.5h0.7v0.8H211v-0.8H210.3z
					 M211.7,119.9v-1.5h0.7v1.5H211.7z M213.2,123.3v-4.9h-0.7v-0.8h0.7v-0.8h0.7v6.5H213.2z"/>
			</g>
		</g>
		<g>
			<g>
				<path class="st4" d="M114.1,123.5h-6.7H106h-9.1v17.2h4v-13.2h4v13.2h4v-13.2h4v13.2h4v-14.6h-2.7V123.5z M128.7,123.5v2.6H126
					v14.6h4v-13.2h4.6v-4H128.7z M119.4,140.7h4v-17.2h-4V140.7z"/>
			</g>
		</g>
		<g>
			<polygon class="st4" points="171.7,123.5 165,123.5 163.6,123.5 154.5,123.5 154.5,140.7 158.4,140.7 158.4,127.5 162.4,127.5 
				162.4,140.7 166.4,140.7 166.4,127.5 170.4,127.5 170.4,140.7 174.3,140.7 174.3,126.1 171.7,126.1 			"/>
		</g>
		<g>
			<g>
				<path class="st4" d="M187.5,123.5h-7.9v2.7H177v11.9h2.6v2.6h10.3v-4h-9v-2.6h9.2v-8h-2.7V123.5z M181,127.4h5.2v2.7H181V127.4z
					"/>
			</g>
		</g>
		<g>
			<g>
				<path class="st4" d="M203.4,123.5h-7.9v2.7h-2.6v11.9h2.6v2.6h10.3v-4h-9v-2.6h9.2v-8h-2.7V123.5z M196.8,127.4h5.2v2.7h-5.2
					V127.4z"/>
			</g>
		</g>
		<g>
			<rect x="119.4" y="116.8" class="st4" width="4" height="4"/>
		</g>
		<g>
			<polygon class="st4" points="147.8,136.9 141.2,136.9 141.2,123.5 137.3,123.5 137.3,138.1 139.9,138.1 139.9,140.7 149,140.7 
				151.8,140.7 151.8,138.1 151.8,123.5 147.8,123.5 			"/>
		</g>
	</g>
	<path class="st4" d="M227.4,105.4H225H75.1v53.4H225h2.5h51.1v-53.4H227.4z M225,156.3H77.6v-48.5H225V156.3z M276.1,156.3h-48.7
		v-48.5h48.7V156.3z"/>
</g>
</svg>
