<?xml version="1.0" encoding="utf-8"?>
<!-- Generator: Adobe Illustrator 16.0.0, SVG Export Plug-In . SVG Version: 6.00 Build 0)  -->
<!DOCTYPE svg PUBLIC "-//W3C//DTD SVG 1.1//EN" "http://www.w3.org/Graphics/SVG/1.1/DTD/svg11.dtd">
<svg version="1.1" id="Layer_1" xmlns="http://www.w3.org/2000/svg" xmlns:xlink="http://www.w3.org/1999/xlink" x="0px" y="0px"
	 width="348.401px" height="91.423px" viewBox="0 0 348.401 91.423" enable-background="new 0 0 348.401 91.423"
	 xml:space="preserve">
<g>
	<path fill="#333333" d="M312.62,60.435l-6.163-7.361c-0.172-0.343-0.343-0.686-0.343-1.027v-11.3l1.198-1.198
		c0.171-0.172,0.343-0.514,0.343-0.685v-2.911c0-0.514-0.514-1.027-1.027-1.027h-8.902c-0.514,0-1.027,0.514-1.027,1.027v2.911
		c0,0.171,0.171,0.514,0.171,0.685l1.027,1.198v11.471c0,0.343-0.171,0.685-0.343,1.027l-5.992,7.361
		c-0.171,0.343-0.342,0.686-0.342,1.027v8.731c0,0.856,0.685,1.541,1.54,1.541h18.662c0.855,0,1.54-0.685,1.54-1.541v-8.731
		C312.962,60.949,312.791,60.606,312.62,60.435z M304.231,35.953c0-0.342,0.172-0.685,0.343-0.685h1.541
		c0.171,0,0.343,0.343,0.343,0.685v1.37c0,0.342-0.172,0.685-0.343,0.685l-1.541-0.514c-0.171,0-0.343-0.343-0.343-0.685V35.953z
		 M311.079,67.455c0,0.685-0.514,1.37-1.027,1.712c-0.171,0.856-0.514,1.541-1.198,1.541h-1.37c0.514-0.343,0.686-0.685,0.686-1.37
		h-13.012c-1.027,0-1.884-0.855-1.884-1.883v-6.163h14.724c0-0.514-0.171-1.027-0.342-1.541l-2.397-6.163
		c-0.171-0.514-0.342-1.37-0.342-2.055v-9.759l0,0c0-1.027,0-1.37,0.685-1.712h0.171h-7.19c-0.171,0-0.171,0-0.171-0.172
		l-0.685-0.685c-0.172-0.171,0-0.514,0.171-0.514h8.731c0.342,0,0.342,0.343,0.171,0.514l-0.685,0.685l0,0l-0.685,1.027
		c0,0,0,0,0,0.343v10.272c0,0.855,0.171,1.541,0.514,2.226l3.938,6.334c0.171,0.343,0.342,0.686,0.342,1.199h1.027v6.163H311.079z
		 M300.636,56.498c0.342,0,0.855,0.343,0.855,0.855v1.713c0,0.342-0.342,0.855-0.855,0.855h-1.712c-0.343,0-0.856-0.342-0.856-0.855
		v-1.713c0-0.342,0.343-0.855,0.856-0.855H300.636z M299.78,50.505v-0.856c0-0.171,0.172-0.342,0.343-0.342h0.855
		c0.172,0,0.343,0.171,0.343,0.342v0.856c0,0.171-0.171,0.343-0.343,0.343h-0.855C299.951,50.848,299.78,50.676,299.78,50.505z
		 M302.348,52.731h1.37c0.342,0,0.513,0.171,0.513,0.514v1.369c0,0.343-0.171,0.514-0.513,0.514h-1.37
		c-0.343,0-0.514-0.171-0.514-0.514v-1.369C301.834,53.074,302.177,52.731,302.348,52.731z M302.348,44.856V44.17
		c0-0.171,0.171-0.342,0.343-0.342h0.685c0.171,0,0.342,0.171,0.342,0.342v0.686c0,0.171-0.171,0.342-0.342,0.342h-0.685
		C302.519,45.027,302.348,45.027,302.348,44.856z"/>
	<g>
		<g>
			<path fill="#333333" d="M303.032,24.311h-2.396l0,0l0,0c0,0-0.514,0-0.856-0.343l-0.855-0.855
				c-0.343-0.343-0.343-0.856-0.343-0.856V19.86c0-0.686-0.514-1.199-1.198-1.199h-2.568c-0.685,0-1.198,0.513-1.198,1.199v2.567
				c0,0.686,0.514,1.199,1.198,1.199h2.397l0,0c0,0,0.514,0,1.027,0.342l0.855,0.856l0,0c0.343,0.342,0.343,1.027,0.343,1.027l0,0
				l0,0v2.396c0,0.685,0.514,1.198,1.198,1.198h2.568c0.685,0,1.198-0.514,1.198-1.198V25.68
				C304.231,24.825,303.718,24.311,303.032,24.311z"/>
		</g>
		<g>
			<path fill="#333333" d="M281.632,23.455h2.396l0,0l0,0c0,0,0.514,0,0.856,0.343l0.856,0.855c0.342,0.343,0.342,0.856,0.342,0.856
				v2.396c0,0.686,0.514,1.199,1.198,1.199h2.568c0.685,0,1.198-0.514,1.198-1.199v-2.567c0-0.686-0.514-1.198-1.198-1.198h-2.396
				l0,0c0,0-0.514,0-1.027-0.343l-0.856-0.856l0,0c-0.342-0.342-0.342-1.026-0.342-1.026l0,0l0,0v-2.397
				c0-0.685-0.514-1.198-1.199-1.198h-2.567c-0.686,0-1.198,0.514-1.198,1.198v2.568C280.434,22.941,280.948,23.455,281.632,23.455z
				"/>
		</g>
		<g>
			<path fill="#333333" d="M292.76,26.023v2.396l0,0l0,0c0,0,0,0.514-0.342,0.856l-0.856,0.856
				c-0.342,0.342-0.855,0.342-0.855,0.342h-2.397c-0.685,0-1.198,0.514-1.198,1.198v2.568c0,0.685,0.514,1.198,1.198,1.198h2.568
				c0.685,0,1.198-0.514,1.198-1.198v-2.396l0,0c0,0,0-0.514,0.343-1.027l0.855-0.856l0,0c0.343-0.342,1.027-0.342,1.027-0.342l0,0
				l0,0h2.397c0.685,0,1.198-0.514,1.198-1.199v-2.567c0-0.686-0.514-1.199-1.198-1.199h-2.568
				C293.274,24.996,292.76,25.509,292.76,26.023z"/>
		</g>
	</g>
	<g>
		<g>
			<g>
				<path fill="#333333" d="M221.367,19.517h6.164v1.198h-2.568v9.93h-1.198v-9.93h-2.568v-1.198H221.367z"/>
			</g>
			<g>
				<path fill="#333333" d="M228.901,30.645V19.517h1.198v1.37h1.199v1.369h-1.199v8.389H228.901z M231.469,24.825v-2.568h1.198
					v2.568h1.198v1.369h-1.198v-1.369H231.469z M233.865,24.825v-2.568h1.199v2.568H233.865z M236.434,30.645v-8.389h-1.198v-1.369
					h1.198v-1.37h1.198v11.128H236.434z"/>
			</g>
		</g>
		<g>
			<g>
				<path fill="#333333" d="M66.77,30.988H55.299h-2.396h-15.58v29.447h6.849V37.836h6.848v22.599h6.849V37.836h6.848v22.599h6.849
					V35.439h-4.623v-4.451H66.77z M91.766,30.988v4.451h-4.623v24.996h6.849V37.836h7.875v-6.849H91.766z M75.844,60.435h6.848
					V30.988h-6.848V60.435z"/>
			</g>
		</g>
		<g>
			<polygon fill="#333333" points="165.384,30.988 153.913,30.988 151.517,30.988 135.937,30.988 135.937,60.435 142.614,60.435 
				142.614,37.836 149.462,37.836 149.462,60.435 156.31,60.435 156.31,37.836 163.158,37.836 163.158,60.435 169.835,60.435 
				169.835,35.439 165.384,35.439 			"/>
		</g>
		<g>
			<g>
				<path fill="#333333" d="M192.434,30.988h-13.524v4.623h-4.451v20.373h4.451v4.451h17.634v-6.848h-15.408v-4.452h15.751V35.439
					h-4.623v-4.451H192.434z M181.306,37.665h8.902v4.623h-8.902V37.665z"/>
			</g>
		</g>
		<g>
			<g>
				<path fill="#333333" d="M219.656,30.988H206.13v4.623h-4.451v20.373h4.451v4.451h17.635v-6.848h-15.408v-4.452h15.75V35.439
					h-4.622v-4.451H219.656z M208.357,37.665h8.902v4.623h-8.902V37.665z"/>
			</g>
		</g>
		<g>
			<rect x="75.844" y="19.517" fill="#333333" width="6.848" height="6.849"/>
		</g>
		<g>
			<polygon fill="#333333" points="124.466,53.929 113.166,53.929 113.166,30.988 106.49,30.988 106.49,55.984 110.941,55.984 
				110.941,60.435 126.521,60.435 131.314,60.435 131.314,55.984 131.314,30.988 124.466,30.988 			"/>
		</g>
	</g>
	<path fill="#333333" d="M260.745,0h-4.109H0v91.423h256.636h4.28h87.485V0H260.745z M256.636,87.143H4.28V4.109h252.356V87.143z
		 M344.122,87.143h-83.377V4.109h83.377V87.143z"/>
</g>
</svg>
