<?xml version="1.0" encoding="utf-8"?>
<!-- Generator: Adobe Illustrator 16.0.0, SVG Export Plug-In . SVG Version: 6.00 Build 0)  -->
<!DOCTYPE svg PUBLIC "-//W3C//DTD SVG 1.1//EN" "http://www.w3.org/Graphics/SVG/1.1/DTD/svg11.dtd">
<svg version="1.1" id="Layer_1" xmlns="http://www.w3.org/2000/svg" xmlns:xlink="http://www.w3.org/1999/xlink" x="0px" y="0px"
	 width="360px" height="210px" viewBox="0 0 360 210" enable-background="new 0 0 360 210" xml:space="preserve">
<g>
	<g>
		
			<line fill="none" stroke="#595A5C" stroke-width="0.5" stroke-miterlimit="10" x1="259.245" y1="75.783" x2="182.521" y2="33.393"/>
		
			<line fill="none" stroke="#595A5C" stroke-width="0.5" stroke-miterlimit="10" x1="184.233" y1="30.292" x2="260.957" y2="72.683"/>
		
			<line fill="none" stroke="#595A5C" stroke-width="0.5" stroke-miterlimit="10" x1="180.808" y1="36.492" x2="257.532" y2="78.882"/>
		
			<line fill="none" stroke="#595A5C" stroke-width="0.5" stroke-miterlimit="10" x1="182.521" y1="33.393" x2="193.824" y2="35.591"/>
		
			<line fill="none" stroke="#595A5C" stroke-width="0.5" stroke-miterlimit="10" x1="192.114" y1="38.691" x2="184.233" y2="30.292"/>
		
			<line fill="none" stroke="#595A5C" stroke-width="0.5" stroke-miterlimit="10" x1="180.808" y1="36.492" x2="192.114" y2="38.691"/>
		
			<line fill="none" stroke="#595A5C" stroke-width="0.5" stroke-miterlimit="10" x1="190.398" y1="41.792" x2="182.521" y2="33.393"/>
		
			<line fill="none" stroke="#595A5C" stroke-width="0.5" stroke-miterlimit="10" x1="190.398" y1="41.792" x2="193.824" y2="35.591"/>
		
			<line fill="none" stroke="#595A5C" stroke-width="0.5" stroke-miterlimit="10" x1="192.114" y1="38.691" x2="203.415" y2="40.891"/>
		
			<line fill="none" stroke="#595A5C" stroke-width="0.5" stroke-miterlimit="10" x1="201.702" y1="43.99" x2="193.824" y2="35.591"/>
		
			<line fill="none" stroke="#595A5C" stroke-width="0.5" stroke-miterlimit="10" x1="190.398" y1="41.792" x2="201.702" y2="43.99"/>
		
			<line fill="none" stroke="#595A5C" stroke-width="0.5" stroke-miterlimit="10" x1="199.99" y1="47.089" x2="192.114" y2="38.691"/>
		
			<line fill="none" stroke="#595A5C" stroke-width="0.5" stroke-miterlimit="10" x1="199.99" y1="47.089" x2="203.415" y2="40.891"/>
		
			<line fill="none" stroke="#595A5C" stroke-width="0.5" stroke-miterlimit="10" x1="201.702" y1="43.99" x2="213.006" y2="46.188"/>
		
			<line fill="none" stroke="#595A5C" stroke-width="0.5" stroke-miterlimit="10" x1="211.292" y1="49.289" x2="203.415" y2="40.891"/>
		
			<line fill="none" stroke="#595A5C" stroke-width="0.5" stroke-miterlimit="10" x1="199.99" y1="47.089" x2="211.292" y2="49.289"/>
		
			<line fill="none" stroke="#595A5C" stroke-width="0.5" stroke-miterlimit="10" x1="209.581" y1="52.388" x2="201.702" y2="43.99"/>
		
			<line fill="none" stroke="#595A5C" stroke-width="0.5" stroke-miterlimit="10" x1="209.581" y1="52.388" x2="213.006" y2="46.188"/>
		
			<line fill="none" stroke="#595A5C" stroke-width="0.5" stroke-miterlimit="10" x1="211.292" y1="49.289" x2="222.597" y2="51.487"/>
		
			<line fill="none" stroke="#595A5C" stroke-width="0.5" stroke-miterlimit="10" x1="220.883" y1="54.587" x2="213.006" y2="46.188"/>
		
			<line fill="none" stroke="#595A5C" stroke-width="0.5" stroke-miterlimit="10" x1="209.581" y1="52.388" x2="220.883" y2="54.587"/>
		
			<line fill="none" stroke="#595A5C" stroke-width="0.5" stroke-miterlimit="10" x1="219.17" y1="57.688" x2="211.292" y2="49.289"/>
		
			<line fill="none" stroke="#595A5C" stroke-width="0.5" stroke-miterlimit="10" x1="219.17" y1="57.688" x2="222.597" y2="51.487"/>
		
			<line fill="none" stroke="#595A5C" stroke-width="0.5" stroke-miterlimit="10" x1="220.883" y1="54.587" x2="232.186" y2="56.787"/>
		
			<line fill="none" stroke="#595A5C" stroke-width="0.5" stroke-miterlimit="10" x1="230.474" y1="59.887" x2="222.597" y2="51.487"/>
		
			<line fill="none" stroke="#595A5C" stroke-width="0.5" stroke-miterlimit="10" x1="219.17" y1="57.688" x2="230.474" y2="59.887"/>
		
			<line fill="none" stroke="#595A5C" stroke-width="0.5" stroke-miterlimit="10" x1="228.76" y1="62.986" x2="220.883" y2="54.587"/>
		
			<line fill="none" stroke="#595A5C" stroke-width="0.5" stroke-miterlimit="10" x1="228.76" y1="62.986" x2="232.186" y2="56.787"/>
		
			<line fill="none" stroke="#595A5C" stroke-width="0.5" stroke-miterlimit="10" x1="230.474" y1="59.887" x2="241.776" y2="62.086"/>
		
			<line fill="none" stroke="#595A5C" stroke-width="0.5" stroke-miterlimit="10" x1="240.063" y1="65.185" x2="232.186" y2="56.787"/>
		
			<line fill="none" stroke="#595A5C" stroke-width="0.5" stroke-miterlimit="10" x1="228.76" y1="62.986" x2="240.063" y2="65.185"/>
		
			<line fill="none" stroke="#595A5C" stroke-width="0.5" stroke-miterlimit="10" x1="238.351" y1="68.285" x2="230.474" y2="59.887"/>
		
			<line fill="none" stroke="#595A5C" stroke-width="0.5" stroke-miterlimit="10" x1="238.351" y1="68.285" x2="241.776" y2="62.086"/>
		
			<line fill="none" stroke="#595A5C" stroke-width="0.5" stroke-miterlimit="10" x1="240.063" y1="65.185" x2="251.366" y2="67.385"/>
		
			<line fill="none" stroke="#595A5C" stroke-width="0.5" stroke-miterlimit="10" x1="249.653" y1="70.484" x2="241.776" y2="62.086"/>
		
			<line fill="none" stroke="#595A5C" stroke-width="0.5" stroke-miterlimit="10" x1="238.351" y1="68.285" x2="249.653" y2="70.484"/>
		
			<line fill="none" stroke="#595A5C" stroke-width="0.5" stroke-miterlimit="10" x1="247.941" y1="73.583" x2="240.063" y2="65.185"/>
		
			<line fill="none" stroke="#595A5C" stroke-width="0.5" stroke-miterlimit="10" x1="247.941" y1="73.583" x2="251.366" y2="67.385"/>
		
			<line fill="none" stroke="#595A5C" stroke-width="0.5" stroke-miterlimit="10" x1="249.653" y1="70.484" x2="260.957" y2="72.683"/>
		
			<line fill="none" stroke="#595A5C" stroke-width="0.5" stroke-miterlimit="10" x1="259.245" y1="75.783" x2="251.366" y2="67.385"/>
		
			<line fill="none" stroke="#595A5C" stroke-width="0.5" stroke-miterlimit="10" x1="247.941" y1="73.583" x2="259.245" y2="75.783"/>
		
			<line fill="none" stroke="#595A5C" stroke-width="0.5" stroke-miterlimit="10" x1="257.532" y1="78.882" x2="249.653" y2="70.484"/>
		
			<line fill="none" stroke="#595A5C" stroke-width="0.5" stroke-miterlimit="10" x1="180.808" y1="36.492" x2="184.233" y2="30.292"/>
	</g>
	<g>
		
			<rect x="154.238" y="84.995" fill="#26A5D4" stroke="#595A5C" stroke-width="0.5" stroke-miterlimit="10" width="8.677" height="17.346"/>
		
			<rect x="162.914" y="84.995" fill="#26A5D4" stroke="#595A5C" stroke-width="0.5" stroke-miterlimit="10" width="43.37" height="17.346"/>
		
			<rect x="154.238" y="102.341" fill="#26A5D4" stroke="#595A5C" stroke-width="0.5" stroke-miterlimit="10" width="8.677" height="2.169"/>
		
			<rect x="162.914" y="102.341" fill="#26A5D4" stroke="#595A5C" stroke-width="0.5" stroke-miterlimit="10" width="43.37" height="2.169"/>
		
			<line fill="none" stroke="#595A5C" stroke-width="0.5" stroke-miterlimit="10" x1="158.576" y1="84.995" x2="158.576" y2="102.341"/>
		<path fill="#26A5D4" stroke="#595A5C" stroke-width="0.5" stroke-miterlimit="10" d="M167.25,100.173"/>
		<path fill="#26A5D4" stroke="#595A5C" stroke-width="0.5" stroke-miterlimit="10" d="M171.586,100.173"/>
		<path fill="#26A5D4" stroke="#595A5C" stroke-width="0.5" stroke-miterlimit="10" d="M175.924,100.173"/>
		<path fill="#26A5D4" stroke="#595A5C" stroke-width="0.5" stroke-miterlimit="10" d="M180.26,100.173"/>
		<path fill="#26A5D4" stroke="#595A5C" stroke-width="0.5" stroke-miterlimit="10" d="M184.599,100.173"/>
		<path fill="#26A5D4" stroke="#595A5C" stroke-width="0.5" stroke-miterlimit="10" d="M188.933,100.173"/>
		<path fill="#26A5D4" stroke="#595A5C" stroke-width="0.5" stroke-miterlimit="10" d="M193.272,100.173"/>
		<path fill="#26A5D4" stroke="#595A5C" stroke-width="0.5" stroke-miterlimit="10" d="M197.608,100.173"/>
		<g>
			
				<rect x="165.081" y="87.163" fill="#26A5D4" stroke="#1B8BA5" stroke-width="0.5" stroke-miterlimit="10" width="39.032" height="13.01"/>
			<path fill="#26A5D4" stroke="#1B8BA5" stroke-width="0.5" stroke-miterlimit="10" d="M167.25,87.163"/>
			
				<line fill="none" stroke="#1B8BA5" stroke-width="0.5" stroke-miterlimit="10" x1="169.419" y1="87.163" x2="169.419" y2="100.173"/>
			<path fill="#26A5D4" stroke="#1B8BA5" stroke-width="0.5" stroke-miterlimit="10" d="M171.586,87.163"/>
			
				<line fill="none" stroke="#1B8BA5" stroke-width="0.5" stroke-miterlimit="10" x1="173.755" y1="100.173" x2="173.755" y2="87.163"/>
			<path fill="#26A5D4" stroke="#1B8BA5" stroke-width="0.5" stroke-miterlimit="10" d="M175.924,87.163"/>
			
				<line fill="none" stroke="#1B8BA5" stroke-width="0.5" stroke-miterlimit="10" x1="178.092" y1="100.173" x2="178.092" y2="87.163"/>
			<path fill="#26A5D4" stroke="#1B8BA5" stroke-width="0.5" stroke-miterlimit="10" d="M180.26,87.163"/>
			
				<line fill="none" stroke="#1B8BA5" stroke-width="0.5" stroke-miterlimit="10" x1="182.43" y1="87.163" x2="182.43" y2="100.173"/>
			<path fill="#26A5D4" stroke="#1B8BA5" stroke-width="0.5" stroke-miterlimit="10" d="M184.599,87.163"/>
			
				<line fill="none" stroke="#1B8BA5" stroke-width="0.5" stroke-miterlimit="10" x1="186.766" y1="100.173" x2="186.766" y2="87.163"/>
			<path fill="#26A5D4" stroke="#1B8BA5" stroke-width="0.5" stroke-miterlimit="10" d="M188.933,87.163"/>
			
				<line fill="none" stroke="#1B8BA5" stroke-width="0.5" stroke-miterlimit="10" x1="191.104" y1="100.173" x2="191.104" y2="87.163"/>
			<path fill="#26A5D4" stroke="#1B8BA5" stroke-width="0.5" stroke-miterlimit="10" d="M193.272,87.163"/>
			
				<line fill="none" stroke="#1B8BA5" stroke-width="0.5" stroke-miterlimit="10" x1="195.441" y1="100.173" x2="195.441" y2="87.163"/>
			<path fill="#26A5D4" stroke="#1B8BA5" stroke-width="0.5" stroke-miterlimit="10" d="M197.608,87.163"/>
			
				<line fill="none" stroke="#1B8BA5" stroke-width="0.5" stroke-miterlimit="10" x1="199.777" y1="100.173" x2="199.777" y2="87.163"/>
			<path fill="#26A5D4" stroke="#1B8BA5" stroke-width="0.5" stroke-miterlimit="10" d="M201.948,87.163"/>
		</g>
		<path fill="#26A5D4" stroke="#595A5C" stroke-width="0.5" stroke-miterlimit="10" d="M201.948,100.173"/>
	</g>
	<g>
		
			<rect x="147.273" y="108.932" fill="#26A5D4" stroke="#595A5C" stroke-width="0.5" stroke-miterlimit="10" width="8.677" height="17.348"/>
		
			<rect x="155.949" y="108.932" fill="#26A5D4" stroke="#595A5C" stroke-width="0.5" stroke-miterlimit="10" width="43.37" height="17.348"/>
		
			<rect x="147.273" y="126.277" fill="#26A5D4" stroke="#595A5C" stroke-width="0.5" stroke-miterlimit="10" width="8.677" height="2.168"/>
		
			<rect x="155.949" y="126.277" fill="#26A5D4" stroke="#595A5C" stroke-width="0.5" stroke-miterlimit="10" width="43.37" height="2.168"/>
		
			<line fill="none" stroke="#595A5C" stroke-width="0.5" stroke-miterlimit="10" x1="151.611" y1="108.932" x2="151.611" y2="126.277"/>
		<path fill="#26A5D4" stroke="#595A5C" stroke-width="0.5" stroke-miterlimit="10" d="M160.285,124.109"/>
		<path fill="#26A5D4" stroke="#595A5C" stroke-width="0.5" stroke-miterlimit="10" d="M164.623,124.109"/>
		<path fill="#26A5D4" stroke="#595A5C" stroke-width="0.5" stroke-miterlimit="10" d="M168.959,124.109"/>
		<path fill="#26A5D4" stroke="#595A5C" stroke-width="0.5" stroke-miterlimit="10" d="M173.295,124.109"/>
		<path fill="#26A5D4" stroke="#595A5C" stroke-width="0.5" stroke-miterlimit="10" d="M177.634,124.109"/>
		<path fill="#26A5D4" stroke="#595A5C" stroke-width="0.5" stroke-miterlimit="10" d="M181.969,124.109"/>
		<path fill="#26A5D4" stroke="#595A5C" stroke-width="0.5" stroke-miterlimit="10" d="M186.308,124.109"/>
		<path fill="#26A5D4" stroke="#595A5C" stroke-width="0.5" stroke-miterlimit="10" d="M190.645,124.109"/>
		<g>
			
				<rect x="158.117" y="111.1" fill="#26A5D4" stroke="#1B8BA5" stroke-width="0.5" stroke-miterlimit="10" width="39.033" height="13.012"/>
			<path fill="#26A5D4" stroke="#1B8BA5" stroke-width="0.5" stroke-miterlimit="10" d="M160.285,111.1"/>
			
				<line fill="none" stroke="#1B8BA5" stroke-width="0.5" stroke-miterlimit="10" x1="162.454" y1="111.1" x2="162.454" y2="124.109"/>
			<path fill="#26A5D4" stroke="#1B8BA5" stroke-width="0.5" stroke-miterlimit="10" d="M164.623,111.1"/>
			
				<line fill="none" stroke="#1B8BA5" stroke-width="0.5" stroke-miterlimit="10" x1="166.791" y1="124.109" x2="166.791" y2="111.1"/>
			<path fill="#26A5D4" stroke="#1B8BA5" stroke-width="0.5" stroke-miterlimit="10" d="M168.959,111.1"/>
			
				<line fill="none" stroke="#1B8BA5" stroke-width="0.5" stroke-miterlimit="10" x1="171.128" y1="124.109" x2="171.128" y2="111.1"/>
			<path fill="#26A5D4" stroke="#1B8BA5" stroke-width="0.5" stroke-miterlimit="10" d="M173.295,111.1"/>
			
				<line fill="none" stroke="#1B8BA5" stroke-width="0.5" stroke-miterlimit="10" x1="175.465" y1="111.1" x2="175.465" y2="124.109"/>
			<path fill="#26A5D4" stroke="#1B8BA5" stroke-width="0.5" stroke-miterlimit="10" d="M177.634,111.1"/>
			
				<line fill="none" stroke="#1B8BA5" stroke-width="0.5" stroke-miterlimit="10" x1="179.802" y1="124.109" x2="179.802" y2="111.1"/>
			<path fill="#26A5D4" stroke="#1B8BA5" stroke-width="0.5" stroke-miterlimit="10" d="M181.969,111.1"/>
			
				<line fill="none" stroke="#1B8BA5" stroke-width="0.5" stroke-miterlimit="10" x1="184.139" y1="124.109" x2="184.139" y2="111.1"/>
			<path fill="#26A5D4" stroke="#1B8BA5" stroke-width="0.5" stroke-miterlimit="10" d="M186.308,111.1"/>
			
				<line fill="none" stroke="#1B8BA5" stroke-width="0.5" stroke-miterlimit="10" x1="188.476" y1="124.109" x2="188.476" y2="111.1"/>
			<path fill="#26A5D4" stroke="#1B8BA5" stroke-width="0.5" stroke-miterlimit="10" d="M190.645,111.1"/>
			
				<line fill="none" stroke="#1B8BA5" stroke-width="0.5" stroke-miterlimit="10" x1="192.813" y1="124.109" x2="192.813" y2="111.1"/>
			<path fill="#26A5D4" stroke="#1B8BA5" stroke-width="0.5" stroke-miterlimit="10" d="M194.982,111.1"/>
		</g>
		<path fill="#26A5D4" stroke="#595A5C" stroke-width="0.5" stroke-miterlimit="10" d="M194.982,124.109"/>
	</g>
	<g>
		
			<rect x="103.608" y="108.92" fill="#26A5D4" stroke="#595A5C" stroke-width="0.5" stroke-miterlimit="10" width="8.677" height="17.346"/>
		
			<rect x="112.284" y="108.92" fill="#26A5D4" stroke="#595A5C" stroke-width="0.5" stroke-miterlimit="10" width="43.368" height="17.346"/>
		
			<rect x="103.608" y="126.266" fill="#26A5D4" stroke="#595A5C" stroke-width="0.5" stroke-miterlimit="10" width="8.677" height="2.168"/>
		
			<rect x="112.284" y="126.266" fill="#26A5D4" stroke="#595A5C" stroke-width="0.5" stroke-miterlimit="10" width="43.368" height="2.168"/>
		
			<line fill="none" stroke="#595A5C" stroke-width="0.5" stroke-miterlimit="10" x1="107.945" y1="108.92" x2="107.945" y2="126.266"/>
		<path fill="#26A5D4" stroke="#595A5C" stroke-width="0.5" stroke-miterlimit="10" d="M116.62,124.1"/>
		<path fill="#26A5D4" stroke="#595A5C" stroke-width="0.5" stroke-miterlimit="10" d="M120.957,124.1"/>
		<path fill="#26A5D4" stroke="#595A5C" stroke-width="0.5" stroke-miterlimit="10" d="M125.293,124.1"/>
		<path fill="#26A5D4" stroke="#595A5C" stroke-width="0.5" stroke-miterlimit="10" d="M129.63,124.1"/>
		<path fill="#26A5D4" stroke="#595A5C" stroke-width="0.5" stroke-miterlimit="10" d="M133.968,124.1"/>
		<path fill="#26A5D4" stroke="#595A5C" stroke-width="0.5" stroke-miterlimit="10" d="M138.303,124.1"/>
		<path fill="#26A5D4" stroke="#595A5C" stroke-width="0.5" stroke-miterlimit="10" d="M142.642,124.1"/>
		<path fill="#26A5D4" stroke="#595A5C" stroke-width="0.5" stroke-miterlimit="10" d="M146.979,124.1"/>
		<g>
			
				<rect x="114.452" y="111.088" fill="#26A5D4" stroke="#1B8BA5" stroke-width="0.5" stroke-miterlimit="10" width="39.031" height="13.012"/>
			<path fill="#26A5D4" stroke="#1B8BA5" stroke-width="0.5" stroke-miterlimit="10" d="M116.62,111.088"/>
			
				<line fill="none" stroke="#1B8BA5" stroke-width="0.5" stroke-miterlimit="10" x1="118.789" y1="111.088" x2="118.789" y2="124.1"/>
			<path fill="#26A5D4" stroke="#1B8BA5" stroke-width="0.5" stroke-miterlimit="10" d="M120.957,111.088"/>
			
				<line fill="none" stroke="#1B8BA5" stroke-width="0.5" stroke-miterlimit="10" x1="123.125" y1="124.1" x2="123.125" y2="111.088"/>
			<path fill="#26A5D4" stroke="#1B8BA5" stroke-width="0.5" stroke-miterlimit="10" d="M125.293,111.088"/>
			
				<line fill="none" stroke="#1B8BA5" stroke-width="0.5" stroke-miterlimit="10" x1="127.462" y1="124.1" x2="127.462" y2="111.088"/>
			<path fill="#26A5D4" stroke="#1B8BA5" stroke-width="0.5" stroke-miterlimit="10" d="M129.63,111.088"/>
			
				<line fill="none" stroke="#1B8BA5" stroke-width="0.5" stroke-miterlimit="10" x1="131.799" y1="111.088" x2="131.799" y2="124.1"/>
			<path fill="#26A5D4" stroke="#1B8BA5" stroke-width="0.5" stroke-miterlimit="10" d="M133.968,111.088"/>
			
				<line fill="none" stroke="#1B8BA5" stroke-width="0.5" stroke-miterlimit="10" x1="136.135" y1="124.1" x2="136.135" y2="111.088"/>
			<path fill="#26A5D4" stroke="#1B8BA5" stroke-width="0.5" stroke-miterlimit="10" d="M138.303,111.088"/>
			
				<line fill="none" stroke="#1B8BA5" stroke-width="0.5" stroke-miterlimit="10" x1="140.474" y1="124.1" x2="140.474" y2="111.088"/>
			<path fill="#26A5D4" stroke="#1B8BA5" stroke-width="0.5" stroke-miterlimit="10" d="M142.642,111.088"/>
			
				<line fill="none" stroke="#1B8BA5" stroke-width="0.5" stroke-miterlimit="10" x1="144.811" y1="124.1" x2="144.811" y2="111.088"/>
			<path fill="#26A5D4" stroke="#1B8BA5" stroke-width="0.5" stroke-miterlimit="10" d="M146.979,111.088"/>
			
				<line fill="none" stroke="#1B8BA5" stroke-width="0.5" stroke-miterlimit="10" x1="149.148" y1="124.1" x2="149.148" y2="111.088"/>
			<path fill="#26A5D4" stroke="#1B8BA5" stroke-width="0.5" stroke-miterlimit="10" d="M151.317,111.088"/>
		</g>
		<path fill="#26A5D4" stroke="#595A5C" stroke-width="0.5" stroke-miterlimit="10" d="M151.317,124.1"/>
	</g>
	<g>
		
			<rect x="103.607" y="89.578" fill="#26A5D4" stroke="#595A5C" stroke-width="0.5" stroke-miterlimit="10" width="8.676" height="17.345"/>
		
			<rect x="112.283" y="89.578" fill="#26A5D4" stroke="#595A5C" stroke-width="0.5" stroke-miterlimit="10" width="43.368" height="17.345"/>
		
			<rect x="103.607" y="106.923" fill="#26A5D4" stroke="#595A5C" stroke-width="0.5" stroke-miterlimit="10" width="8.676" height="2.17"/>
		
			<rect x="112.283" y="106.923" fill="#26A5D4" stroke="#595A5C" stroke-width="0.5" stroke-miterlimit="10" width="43.368" height="2.17"/>
		
			<line fill="none" stroke="#595A5C" stroke-width="0.5" stroke-miterlimit="10" x1="107.945" y1="89.578" x2="107.945" y2="106.923"/>
		<path fill="#26A5D4" stroke="#595A5C" stroke-width="0.5" stroke-miterlimit="10" d="M116.619,104.756"/>
		<path fill="#26A5D4" stroke="#595A5C" stroke-width="0.5" stroke-miterlimit="10" d="M120.957,104.756"/>
		<path fill="#26A5D4" stroke="#595A5C" stroke-width="0.5" stroke-miterlimit="10" d="M125.292,104.756"/>
		<path fill="#26A5D4" stroke="#595A5C" stroke-width="0.5" stroke-miterlimit="10" d="M129.629,104.756"/>
		<path fill="#26A5D4" stroke="#595A5C" stroke-width="0.5" stroke-miterlimit="10" d="M133.967,104.756"/>
		<path fill="#26A5D4" stroke="#595A5C" stroke-width="0.5" stroke-miterlimit="10" d="M138.303,104.756"/>
		<path fill="#26A5D4" stroke="#595A5C" stroke-width="0.5" stroke-miterlimit="10" d="M142.641,104.756"/>
		<path fill="#26A5D4" stroke="#595A5C" stroke-width="0.5" stroke-miterlimit="10" d="M146.979,104.756"/>
		<g>
			
				<rect x="114.451" y="91.746" fill="#26A5D4" stroke="#1B8BA5" stroke-width="0.5" stroke-miterlimit="10" width="39.032" height="13.01"/>
			<path fill="#26A5D4" stroke="#1B8BA5" stroke-width="0.5" stroke-miterlimit="10" d="M116.619,91.746"/>
			
				<line fill="none" stroke="#1B8BA5" stroke-width="0.5" stroke-miterlimit="10" x1="118.788" y1="91.746" x2="118.788" y2="104.756"/>
			<path fill="#26A5D4" stroke="#1B8BA5" stroke-width="0.5" stroke-miterlimit="10" d="M120.957,91.746"/>
			
				<line fill="none" stroke="#1B8BA5" stroke-width="0.5" stroke-miterlimit="10" x1="123.124" y1="104.756" x2="123.124" y2="91.746"/>
			<path fill="#26A5D4" stroke="#1B8BA5" stroke-width="0.5" stroke-miterlimit="10" d="M125.292,91.746"/>
			
				<line fill="none" stroke="#1B8BA5" stroke-width="0.5" stroke-miterlimit="10" x1="127.462" y1="104.756" x2="127.462" y2="91.746"/>
			<path fill="#26A5D4" stroke="#1B8BA5" stroke-width="0.5" stroke-miterlimit="10" d="M129.629,91.746"/>
			
				<line fill="none" stroke="#1B8BA5" stroke-width="0.5" stroke-miterlimit="10" x1="131.799" y1="91.746" x2="131.799" y2="104.756"/>
			<path fill="#26A5D4" stroke="#1B8BA5" stroke-width="0.5" stroke-miterlimit="10" d="M133.967,91.746"/>
			
				<line fill="none" stroke="#1B8BA5" stroke-width="0.5" stroke-miterlimit="10" x1="136.135" y1="104.756" x2="136.135" y2="91.746"/>
			<path fill="#26A5D4" stroke="#1B8BA5" stroke-width="0.5" stroke-miterlimit="10" d="M138.303,91.746"/>
			
				<line fill="none" stroke="#1B8BA5" stroke-width="0.5" stroke-miterlimit="10" x1="140.473" y1="104.756" x2="140.473" y2="91.746"/>
			<path fill="#26A5D4" stroke="#1B8BA5" stroke-width="0.5" stroke-miterlimit="10" d="M142.641,91.746"/>
			
				<line fill="none" stroke="#1B8BA5" stroke-width="0.5" stroke-miterlimit="10" x1="144.811" y1="104.756" x2="144.811" y2="91.746"/>
			<path fill="#26A5D4" stroke="#1B8BA5" stroke-width="0.5" stroke-miterlimit="10" d="M146.979,91.746"/>
			
				<line fill="none" stroke="#1B8BA5" stroke-width="0.5" stroke-miterlimit="10" x1="149.147" y1="104.756" x2="149.147" y2="91.746"/>
			<path fill="#26A5D4" stroke="#1B8BA5" stroke-width="0.5" stroke-miterlimit="10" d="M151.316,91.746"/>
		</g>
		<path fill="#26A5D4" stroke="#595A5C" stroke-width="0.5" stroke-miterlimit="10" d="M151.316,104.756"/>
	</g>
	<line fill="none" stroke="#595A5C" stroke-width="0.5" stroke-miterlimit="10" x1="181.63" y1="76.776" x2="154.238" y2="84.995"/>
	<line fill="none" stroke="#595A5C" stroke-width="0.5" stroke-miterlimit="10" x1="162.457" y1="84.995" x2="181.63" y2="76.776"/>
	<line fill="none" stroke="#595A5C" stroke-width="0.5" stroke-miterlimit="10" x1="181.63" y1="76.776" x2="206.284" y2="84.995"/>
	<line fill="none" stroke="#595A5C" stroke-width="0.5" stroke-miterlimit="10" x1="198.064" y1="84.995" x2="181.63" y2="76.776"/>
	<line fill="none" stroke="#595A5C" stroke-width="0.5" stroke-miterlimit="10" x1="181.63" y1="76.776" x2="181.63" y2="29.25"/>
	<g>
		
			<rect x="238.371" y="68.681" fill="#F2F2F2" stroke="#595A5C" stroke-width="0.5" stroke-miterlimit="10" width="44.454" height="21.168"/>
		
			<rect x="238.371" y="68.681" fill="#F2F2F2" stroke="#595A5C" stroke-width="0.5" stroke-miterlimit="10" width="16.934" height="21.168"/>
		
			<line fill="none" stroke="#595A5C" stroke-width="0.5" stroke-miterlimit="10" x1="259.539" y1="68.681" x2="268.008" y2="68.681"/>
		<polygon fill="#F2F2F2" stroke="#595A5C" stroke-width="0.5" stroke-miterlimit="10" points="242.604,68.681 244.721,66.563 
			253.189,66.563 251.071,68.681 		"/>
		<polygon fill="#F2F2F2" stroke="#595A5C" stroke-width="0.5" stroke-miterlimit="10" points="253.189,66.563 268.008,66.563 
			270.123,68.681 251.071,68.681 		"/>
		<g>
			<polygon fill="#F2F2F2" stroke="#595A5C" stroke-width="0.5" stroke-miterlimit="10" points="227.786,75.031 225.67,79.265 
				234.136,79.265 236.254,75.031 			"/>
			
				<rect x="225.67" y="79.265" fill="#D1D2D3" stroke="#595A5C" stroke-width="0.5" stroke-miterlimit="10" width="8.466" height="4.233"/>
			
				<rect x="225.67" y="83.498" fill="#F2F2F2" stroke="#595A5C" stroke-width="0.5" stroke-miterlimit="10" width="8.466" height="6.351"/>
			<polygon fill="#F2F2F2" stroke="#595A5C" stroke-width="0.5" stroke-miterlimit="10" points="236.254,75.031 248.956,75.031 
				251.071,79.265 251.071,89.849 234.136,89.849 234.136,79.265 			"/>
			
				<rect x="234.136" y="79.265" fill="#D1D2D3" stroke="#595A5C" stroke-width="0.5" stroke-miterlimit="10" width="6.352" height="4.233"/>
		</g>
		
			<rect x="255.305" y="75.031" fill="#D1D2D3" stroke="#595A5C" stroke-width="0.5" stroke-miterlimit="10" width="27.521" height="4.234"/>
		
			<rect x="229.903" y="89.849" fill="#F2F2F2" stroke="#595A5C" stroke-width="0.5" stroke-miterlimit="10" width="12.701" height="2.117"/>
		
			<rect x="242.604" y="89.849" fill="#F2F2F2" stroke="#595A5C" stroke-width="0.5" stroke-miterlimit="10" width="33.869" height="2.117"/>
		<polygon fill="#F2F2F2" stroke="#595A5C" stroke-width="0.5" stroke-miterlimit="10" points="240.487,91.965 242.604,96.199 
			246.839,96.199 244.721,91.965 		"/>
		<polygon fill="#F2F2F2" stroke="#595A5C" stroke-width="0.5" stroke-miterlimit="10" points="244.721,91.965 246.839,96.199 
			270.123,96.199 272.239,91.965 		"/>
		
			<rect x="242.604" y="96.199" fill="#F2F2F2" stroke="#595A5C" stroke-width="0.5" stroke-miterlimit="10" width="4.234" height="2.117"/>
		
			<rect x="246.839" y="96.199" fill="#F2F2F2" stroke="#595A5C" stroke-width="0.5" stroke-miterlimit="10" width="23.284" height="2.117"/>
		
			<rect x="257.422" y="75.031" fill="#F2F2F2" stroke="#595A5C" stroke-width="0.5" stroke-miterlimit="10" width="2.117" height="4.234"/>
		
			<rect x="263.771" y="75.031" fill="#F2F2F2" stroke="#595A5C" stroke-width="0.5" stroke-miterlimit="10" width="2.117" height="4.234"/>
		
			<rect x="272.239" y="75.031" fill="#F2F2F2" stroke="#595A5C" stroke-width="0.5" stroke-miterlimit="10" width="2.118" height="4.234"/>
		
			<rect x="278.591" y="75.031" fill="#F2F2F2" stroke="#595A5C" stroke-width="0.5" stroke-miterlimit="10" width="2.115" height="4.234"/>
		
			<rect x="248.956" y="98.315" fill="#F2F2F2" stroke="#595A5C" stroke-width="0.5" stroke-miterlimit="10" width="4.232" height="8.468"/>
		
			<rect x="253.189" y="98.315" fill="#F2F2F2" stroke="#595A5C" stroke-width="0.5" stroke-miterlimit="10" width="12.699" height="8.468"/>
		<polygon fill="#F2F2F2" stroke="#595A5C" stroke-width="0.5" stroke-miterlimit="10" points="238.371,111.018 227.786,117.367 
			232.021,117.367 242.604,111.018 		"/>
		
			<rect x="227.786" y="117.367" fill="#F2F2F2" stroke="#595A5C" stroke-width="0.5" stroke-miterlimit="10" width="4.233" height="2.115"/>
		<polygon fill="#F2F2F2" stroke="#595A5C" stroke-width="0.5" stroke-miterlimit="10" points="242.604,111.018 232.021,117.367 
			232.021,119.482 284.94,119.482 284.94,117.367 274.357,111.018 		"/>
		
			<rect x="246.839" y="106.783" fill="#F2F2F2" stroke="#595A5C" stroke-width="0.5" stroke-miterlimit="10" width="4.231" height="4.232"/>
		
			<rect x="251.071" y="106.783" fill="#F2F2F2" stroke="#595A5C" stroke-width="0.5" stroke-miterlimit="10" width="16.938" height="4.232"/>
	</g>
	<circle fill="#F2F2F2" stroke="#595A5C" stroke-width="0.5" stroke-miterlimit="10" cx="182.139" cy="36.597" r="2.739"/>
	
		<rect x="176.745" y="27.455" transform="matrix(-0.4836 0.8753 -0.8753 -0.4836 295.3907 -111.6133)" fill="#F2F2F2" stroke="#595A5C" stroke-width="0.5" stroke-miterlimit="10" width="7.748" height="7.747"/>
	<circle fill="#F2F2F2" stroke="#595A5C" stroke-width="0.5" stroke-miterlimit="10" cx="181.631" cy="76.776" r="1.37"/>
	<g>
		<g>
			<polygon fill="#D1D2D3" stroke="#595A5C" stroke-width="0.5" stroke-miterlimit="10" points="279.138,138.473 276.628,143.49 
				274.117,143.49 276.628,138.473 			"/>
			<circle fill="#D1D2D3" stroke="#595A5C" stroke-width="0.5" stroke-miterlimit="10" cx="309.248" cy="143.49" r="5.019"/>
			
				<rect x="297.956" y="137.218" fill="#D1D2D3" stroke="#595A5C" stroke-width="0.5" stroke-miterlimit="10" width="13.801" height="5.019"/>
			<circle fill="#D1D2D3" stroke="#595A5C" stroke-width="0.5" stroke-miterlimit="10" cx="305.485" cy="143.49" r="5.019"/>
			<circle fill="#F2F2F2" stroke="#595A5C" stroke-width="0.5" stroke-miterlimit="10" cx="305.484" cy="143.49" r="2.508"/>
			<circle fill="#D1D2D3" stroke="#595A5C" stroke-width="0.5" stroke-miterlimit="10" cx="305.484" cy="143.49" r="1.254"/>
			<circle fill="#D1D2D3" stroke="#595A5C" stroke-width="0.5" stroke-miterlimit="10" cx="285.411" cy="143.49" r="5.018"/>
			<circle fill="#D1D2D3" stroke="#595A5C" stroke-width="0.5" stroke-miterlimit="10" cx="281.647" cy="143.49" r="5.019"/>
			<circle fill="#F2F2F2" stroke="#595A5C" stroke-width="0.5" stroke-miterlimit="10" cx="281.647" cy="143.49" r="2.509"/>
			<circle fill="#D1D2D3" stroke="#595A5C" stroke-width="0.5" stroke-miterlimit="10" cx="281.647" cy="143.49" r="1.254"/>
			<polygon fill="#F2F2F2" stroke="#595A5C" stroke-width="0.5" stroke-miterlimit="10" points="316.775,143.49 311.757,143.49 
				309.247,137.218 301.72,137.218 299.211,143.49 294.192,143.49 294.192,118.398 319.283,118.398 319.283,143.49 			"/>
			<polygon fill="#D1D2D3" stroke="#595A5C" stroke-width="0.5" stroke-miterlimit="10" points="318.029,118.398 319.283,128.436 
				323.049,128.436 321.795,118.398 			"/>
			
				<rect x="319.283" y="128.436" fill="#F2F2F2" stroke="#595A5C" stroke-width="0.5" stroke-miterlimit="10" width="3.766" height="15.056"/>
			
				<rect x="318.029" y="139.727" fill="#F2F2F2" stroke="#595A5C" stroke-width="0.5" stroke-miterlimit="10" width="5.021" height="2.51"/>
			
				<rect x="318.029" y="139.727" fill="#F2F2F2" stroke="#595A5C" stroke-width="0.5" stroke-miterlimit="10" width="1.255" height="2.51"/>
			
				<rect x="319.283" y="128.436" fill="#F2F2F2" stroke="#595A5C" stroke-width="0.5" stroke-miterlimit="10" width="3.766" height="1.254"/>
			
				<rect x="318.029" y="117.145" fill="#F2F2F2" stroke="#595A5C" stroke-width="0.5" stroke-miterlimit="10" width="3.767" height="1.256"/>
			
				<rect x="294.192" y="117.145" fill="#F2F2F2" stroke="#595A5C" stroke-width="0.5" stroke-miterlimit="10" width="23.837" height="1.256"/>
			<polygon fill="#D1D2D3" stroke="#595A5C" stroke-width="0.5" stroke-miterlimit="10" points="319.283,128.436 309.247,128.436 
				309.247,118.398 318.029,118.398 			"/>
			
				<rect x="295.447" y="119.652" fill="#F2F2F2" stroke="#595A5C" stroke-width="0.5" stroke-miterlimit="10" width="7.528" height="3.764"/>
			<polygon fill="#D1D2D3" stroke="#595A5C" stroke-width="0.5" stroke-miterlimit="10" points="284.156,138.473 286.666,143.49 
				289.175,143.49 286.666,138.473 			"/>
			<polygon fill="#D1D2D3" stroke="#595A5C" stroke-width="0.5" stroke-miterlimit="10" points="287.919,138.473 290.429,143.49 
				292.938,143.49 290.429,138.473 			"/>
			<polygon fill="#D1D2D3" stroke="#595A5C" stroke-width="0.5" stroke-miterlimit="10" points="244.637,138.473 242.128,143.49 
				239.617,143.49 242.128,138.473 			"/>
			<circle fill="#D1D2D3" stroke="#595A5C" stroke-width="0.5" stroke-miterlimit="10" cx="250.909" cy="143.49" r="5.019"/>
			<circle fill="#D1D2D3" stroke="#595A5C" stroke-width="0.5" stroke-miterlimit="10" cx="247.146" cy="143.49" r="5.018"/>
			<circle fill="#F2F2F2" stroke="#595A5C" stroke-width="0.5" stroke-miterlimit="10" cx="247.146" cy="143.49" r="2.51"/>
			<circle fill="#D1D2D3" stroke="#595A5C" stroke-width="0.5" stroke-miterlimit="10" cx="247.146" cy="143.49" r="1.255"/>
			<polygon fill="#D1D2D3" stroke="#595A5C" stroke-width="0.5" stroke-miterlimit="10" points="249.656,138.473 252.164,143.49 
				254.673,143.49 252.164,138.473 			"/>
			<polygon fill="#D1D2D3" stroke="#595A5C" stroke-width="0.5" stroke-miterlimit="10" points="253.419,138.473 255.928,143.49 
				258.438,143.49 255.928,138.473 			"/>
			
				<rect x="290.429" y="137.218" fill="#D1D2D3" stroke="#595A5C" stroke-width="0.5" stroke-miterlimit="10" width="3.764" height="1.255"/>
			
				<rect x="238.363" y="137.218" fill="#D1D2D3" stroke="#595A5C" stroke-width="0.5" stroke-miterlimit="10" width="52.065" height="1.255"/>
			
				<rect x="290.429" y="134.708" fill="#D1D2D3" stroke="#595A5C" stroke-width="0.5" stroke-miterlimit="10" width="3.764" height="2.51"/>
			
				<rect x="238.363" y="134.708" fill="#F2F2F2" stroke="#595A5C" stroke-width="0.5" stroke-miterlimit="10" width="52.065" height="2.51"/>
			
				<rect x="320.538" y="129.689" fill="#F2F2F2" stroke="#595A5C" stroke-width="0.5" stroke-miterlimit="10" width="1.257" height="10.037"/>
			
				<ellipse fill="#F2F2F2" stroke="#595A5C" stroke-width="0.5" stroke-miterlimit="10" cx="322.422" cy="132.198" rx="0.627" ry="1.255"/>
			
				<ellipse fill="#F2F2F2" stroke="#595A5C" stroke-width="0.5" stroke-miterlimit="10" cx="319.911" cy="132.198" rx="0.627" ry="1.255"/>
			
				<rect x="315.521" y="118.398" fill="#F2F2F2" stroke="#595A5C" stroke-width="0.5" stroke-miterlimit="10" width="1.254" height="10.035"/>
		</g>
		<g>
			
				<rect x="283.745" y="114.926" fill="#26A5D4" stroke="#595A5C" stroke-width="0.5" stroke-miterlimit="10" width="8.674" height="17.346"/>
			
				<rect x="240.375" y="114.926" fill="#26A5D4" stroke="#595A5C" stroke-width="0.5" stroke-miterlimit="10" width="43.37" height="17.346"/>
			
				<rect x="283.745" y="132.271" fill="#26A5D4" stroke="#595A5C" stroke-width="0.5" stroke-miterlimit="10" width="8.674" height="2.17"/>
			
				<rect x="240.375" y="132.271" fill="#26A5D4" stroke="#595A5C" stroke-width="0.5" stroke-miterlimit="10" width="43.37" height="2.17"/>
			
				<rect x="242.543" y="117.094" fill="#26A5D4" stroke="#1B8BA5" stroke-width="0.5" stroke-miterlimit="10" width="39.035" height="13.01"/>
			
				<line fill="none" stroke="#595A5C" stroke-width="0.5" stroke-miterlimit="10" x1="288.083" y1="114.926" x2="288.083" y2="132.271"/>
			<path fill="#26A5D4" stroke="#595A5C" stroke-width="0.5" stroke-miterlimit="10" d="M279.408,130.104"/>
			<path fill="#26A5D4" stroke="#595A5C" stroke-width="0.5" stroke-miterlimit="10" d="M279.408,117.094"/>
			
				<line fill="#26A5D4" stroke="#1B8BA5" stroke-width="0.5" stroke-miterlimit="10" x1="277.24" y1="117.094" x2="277.24" y2="130.104"/>
			<path fill="#26A5D4" stroke="#595A5C" stroke-width="0.5" stroke-miterlimit="10" d="M275.072,117.094"/>
			<path fill="#26A5D4" stroke="#595A5C" stroke-width="0.5" stroke-miterlimit="10" d="M275.072,130.104"/>
			
				<line fill="#26A5D4" stroke="#1B8BA5" stroke-width="0.5" stroke-miterlimit="10" x1="272.903" y1="130.104" x2="272.903" y2="117.094"/>
			<path fill="#26A5D4" stroke="#595A5C" stroke-width="0.5" stroke-miterlimit="10" d="M270.733,117.094"/>
			<path fill="#26A5D4" stroke="#595A5C" stroke-width="0.5" stroke-miterlimit="10" d="M270.733,130.104"/>
			
				<line fill="#26A5D4" stroke="#1B8BA5" stroke-width="0.5" stroke-miterlimit="10" x1="268.564" y1="130.104" x2="268.564" y2="117.094"/>
			<path fill="#26A5D4" stroke="#595A5C" stroke-width="0.5" stroke-miterlimit="10" d="M266.396,117.094"/>
			<path fill="#26A5D4" stroke="#595A5C" stroke-width="0.5" stroke-miterlimit="10" d="M266.396,130.104"/>
			
				<line fill="#26A5D4" stroke="#1B8BA5" stroke-width="0.5" stroke-miterlimit="10" x1="264.229" y1="117.094" x2="264.229" y2="130.104"/>
			<path fill="#26A5D4" stroke="#595A5C" stroke-width="0.5" stroke-miterlimit="10" d="M262.061,117.094"/>
			<path fill="#26A5D4" stroke="#595A5C" stroke-width="0.5" stroke-miterlimit="10" d="M262.061,130.104"/>
			
				<line fill="#26A5D4" stroke="#1B8BA5" stroke-width="0.5" stroke-miterlimit="10" x1="259.892" y1="130.104" x2="259.892" y2="117.094"/>
			<path fill="#26A5D4" stroke="#595A5C" stroke-width="0.5" stroke-miterlimit="10" d="M257.725,117.094"/>
			<path fill="#26A5D4" stroke="#595A5C" stroke-width="0.5" stroke-miterlimit="10" d="M257.725,130.104"/>
			
				<line fill="#26A5D4" stroke="#1B8BA5" stroke-width="0.5" stroke-miterlimit="10" x1="255.554" y1="130.104" x2="255.554" y2="117.094"/>
			<path fill="#26A5D4" stroke="#595A5C" stroke-width="0.5" stroke-miterlimit="10" d="M253.386,117.094"/>
			<path fill="#26A5D4" stroke="#595A5C" stroke-width="0.5" stroke-miterlimit="10" d="M253.386,130.104"/>
			
				<line fill="#26A5D4" stroke="#1B8BA5" stroke-width="0.5" stroke-miterlimit="10" x1="251.218" y1="130.104" x2="251.218" y2="117.094"/>
			<path fill="#26A5D4" stroke="#595A5C" stroke-width="0.5" stroke-miterlimit="10" d="M249.049,117.094"/>
			<path fill="#26A5D4" stroke="#595A5C" stroke-width="0.5" stroke-miterlimit="10" d="M249.049,130.104"/>
			
				<line fill="#26A5D4" stroke="#1B8BA5" stroke-width="0.5" stroke-miterlimit="10" x1="246.88" y1="130.104" x2="246.88" y2="117.094"/>
			<path fill="#26A5D4" stroke="#595A5C" stroke-width="0.5" stroke-miterlimit="10" d="M244.711,117.094"/>
			<path fill="#26A5D4" stroke="#595A5C" stroke-width="0.5" stroke-miterlimit="10" d="M244.711,130.104"/>
		</g>
	</g>
	<g>
		
			<rect x="78.784" y="111.37" fill="#F2F2F2" stroke="#595A5C" stroke-width="0.5" stroke-miterlimit="10" width="20.382" height="16.782"/>
		<path fill="#F2F2F2" stroke="#595A5C" stroke-width="0.5" stroke-miterlimit="10" d="M204.951,128.445
			c0,0-1.888,14.726-7.551,17.558H78.938l-1.887-17.558H204.951z"/>
		
			<line fill="none" stroke="#595A5C" stroke-width="0.5" stroke-miterlimit="10" x1="204.374" y1="131.717" x2="77.439" y2="131.365"/>
		
			<rect x="77.051" y="126.559" fill="#F2F2F2" stroke="#595A5C" stroke-width="0.5" stroke-miterlimit="10" width="24.118" height="1.889"/>
		
			<rect x="195.624" y="126.559" fill="#F2F2F2" stroke="#595A5C" stroke-width="0.5" stroke-miterlimit="10" width="9.327" height="1.889"/>
		<polygon fill="#F2F2F2" stroke="#595A5C" stroke-width="0.5" stroke-miterlimit="10" points="77.051,128.445 72.876,146.003 
			78.938,146.003 		"/>
		<circle fill="#F2F2F2" stroke="#595A5C" stroke-width="0.5" stroke-miterlimit="10" cx="197.275" cy="136.063" r="1.456"/>
		
			<rect x="95.451" y="101.091" fill="#F2F2F2" stroke="#595A5C" stroke-width="0.5" stroke-miterlimit="10" width="2.045" height="3.603"/>
		
			<rect x="80.326" y="102.893" fill="#F2F2F2" stroke="#595A5C" stroke-width="0.5" stroke-miterlimit="10" width="12.059" height="1.801"/>
		<polygon fill="#F2F2F2" stroke="#595A5C" stroke-width="0.5" stroke-miterlimit="10" points="99.167,111.37 101.454,104.694 
			78.784,104.694 78.784,111.37 		"/>
		<polygon fill="#F2F2F2" stroke="#595A5C" stroke-width="0.5" stroke-miterlimit="10" points="100.784,106.652 90.12,106.652 
			90.12,109.032 99.968,109.032 		"/>
		
			<rect x="87.579" y="106.652" fill="#F2F2F2" stroke="#595A5C" stroke-width="0.5" stroke-miterlimit="10" width="1.396" height="2.38"/>
		
			<rect x="79.789" y="106.652" fill="#F2F2F2" stroke="#595A5C" stroke-width="0.5" stroke-miterlimit="10" width="1.396" height="2.38"/>
		
			<rect x="78.784" y="114.54" fill="#F2F2F2" stroke="#595A5C" stroke-width="0.5" stroke-miterlimit="10" width="20.382" height="2.283"/>
		
			<rect x="94.962" y="114.54" fill="#F2F2F2" stroke="#595A5C" stroke-width="0.5" stroke-miterlimit="10" width="1.088" height="2.283"/>
		
			<rect x="81.9" y="114.54" fill="#F2F2F2" stroke="#595A5C" stroke-width="0.5" stroke-miterlimit="10" width="1.087" height="2.283"/>
	</g>
	<g>
		<path fill="#D1D2D3" stroke="#595A5C" stroke-width="0.5" stroke-miterlimit="10" d="M42.798,176.686c0,0,0,5.612,5.872,5.612
			h176.157c0,0,5.872,0.519,5.872-5.612H42.798z"/>
		<path fill="#F2F2F2" stroke="#595A5C" stroke-width="0.5" stroke-miterlimit="10" d="M213.084,66.588H59.802
			c-5.872,0-5.872,5.872-5.872,5.872l0.612,82.206h164.413V72.46C218.955,66.588,213.084,66.588,213.084,66.588z M213.696,149.023
			H61.026l-0.61-76.333h153.281L213.696,149.023L213.696,149.023z"/>
		<g>
			<g>
				<path fill="#F2F2F2" stroke="#595A5C" stroke-width="0.5" stroke-miterlimit="10" d="M54.542,154.666l-11.744,22.02
					c0,0,0,1.47,5.872,1.47h176.157c0,0,5.872,0,5.872-1.47l-11.744-22.02H54.542z"/>
				
					<rect x="61.026" y="156.134" fill="#F2F2F2" stroke="#595A5C" stroke-width="0.5" stroke-miterlimit="10" width="152.67" height="1.468"/>
				<polygon fill="#F2F2F2" stroke="#595A5C" stroke-width="0.5" stroke-miterlimit="10" points="213.696,159.127 61.026,159.127 
					58.417,169.402 216.305,169.402 				"/>
				
					<rect x="96.257" y="166.467" fill="#F2F2F2" stroke="#595A5C" stroke-width="0.5" stroke-miterlimit="10" width="82.207" height="2.938"/>
				<polygon fill="#F2F2F2" stroke="#595A5C" stroke-width="0.5" stroke-miterlimit="10" points="215.545,166.467 59.176,166.467 
					59.908,163.531 214.814,163.531 				"/>
				<polygon fill="#F2F2F2" stroke="#595A5C" stroke-width="0.5" stroke-miterlimit="10" points="214.814,163.531 59.908,163.531 
					60.654,160.596 213.965,160.326 				"/>
			</g>
			<path fill="#F2F2F2" stroke="#595A5C" stroke-width="0.5" stroke-miterlimit="10" d="M119.133,172.281c0,0,0-1.102,4.404-1.102
				h26.423c0,0,4.403,0,4.403,1.102l0.653,3.304c0,0,0,1.101-4.404,1.101h-27.728c0,0-4.404,0-4.404-1.101L119.133,172.281z"/>
			<g>
				
					<line fill="none" stroke="#595A5C" stroke-width="0.5" stroke-miterlimit="10" x1="125.618" y1="166.467" x2="125.618" y2="163.531"/>
				
					<line fill="none" stroke="#595A5C" stroke-width="0.5" stroke-miterlimit="10" x1="143.233" y1="163.531" x2="143.233" y2="166.467"/>
				
					<line fill="none" stroke="#595A5C" stroke-width="0.5" stroke-miterlimit="10" x1="108.001" y1="166.467" x2="108.001" y2="163.531"/>
				
					<line fill="none" stroke="#595A5C" stroke-width="0.5" stroke-miterlimit="10" x1="160.849" y1="166.467" x2="160.849" y2="163.531"/>
			</g>
			
				<line fill="none" stroke="#595A5C" stroke-width="0.5" stroke-miterlimit="10" x1="90.386" y1="163.531" x2="90.386" y2="166.467"/>
			
				<line fill="none" stroke="#595A5C" stroke-width="0.5" stroke-miterlimit="10" x1="72.77" y1="163.531" x2="72.77" y2="166.467"/>
			
				<line fill="none" stroke="#595A5C" stroke-width="0.5" stroke-miterlimit="10" x1="178.464" y1="163.531" x2="178.464" y2="166.467"/>
			
				<line fill="none" stroke="#595A5C" stroke-width="0.5" stroke-miterlimit="10" x1="196.08" y1="163.531" x2="196.08" y2="166.467"/>
			
				<line fill="none" stroke="#595A5C" stroke-width="0.5" stroke-miterlimit="10" x1="78.642" y1="163.531" x2="78.642" y2="160.596"/>
			
				<line fill="none" stroke="#595A5C" stroke-width="0.5" stroke-miterlimit="10" x1="96.257" y1="163.531" x2="96.257" y2="160.596"/>
			
				<line fill="none" stroke="#595A5C" stroke-width="0.5" stroke-miterlimit="10" x1="113.874" y1="163.531" x2="113.874" y2="160.596"/>
			
				<line fill="none" stroke="#595A5C" stroke-width="0.5" stroke-miterlimit="10" x1="131.49" y1="163.531" x2="131.49" y2="160.596"/>
			
				<line fill="none" stroke="#595A5C" stroke-width="0.5" stroke-miterlimit="10" x1="149.105" y1="163.531" x2="149.105" y2="160.596"/>
			
				<line fill="none" stroke="#595A5C" stroke-width="0.5" stroke-miterlimit="10" x1="166.721" y1="163.531" x2="166.721" y2="160.596"/>
			
				<line fill="none" stroke="#595A5C" stroke-width="0.5" stroke-miterlimit="10" x1="184.336" y1="163.531" x2="184.336" y2="160.596"/>
			
				<line fill="none" stroke="#595A5C" stroke-width="0.5" stroke-miterlimit="10" x1="201.952" y1="163.531" x2="201.952" y2="160.596"/>
			
				<line fill="none" stroke="#595A5C" stroke-width="0.5" stroke-miterlimit="10" x1="72.77" y1="160.596" x2="72.77" y2="159.127"/>
			
				<line fill="none" stroke="#595A5C" stroke-width="0.5" stroke-miterlimit="10" x1="90.386" y1="160.596" x2="90.386" y2="159.127"/>
			
				<line fill="none" stroke="#595A5C" stroke-width="0.5" stroke-miterlimit="10" x1="108.001" y1="160.596" x2="108.001" y2="159.127"/>
			
				<line fill="none" stroke="#595A5C" stroke-width="0.5" stroke-miterlimit="10" x1="125.618" y1="160.596" x2="125.618" y2="159.127"/>
			
				<line fill="none" stroke="#595A5C" stroke-width="0.5" stroke-miterlimit="10" x1="143.233" y1="160.596" x2="143.233" y2="159.127"/>
			
				<line fill="none" stroke="#595A5C" stroke-width="0.5" stroke-miterlimit="10" x1="160.849" y1="160.596" x2="160.849" y2="159.127"/>
			
				<line fill="none" stroke="#595A5C" stroke-width="0.5" stroke-miterlimit="10" x1="178.464" y1="160.596" x2="178.464" y2="159.127"/>
			
				<line fill="none" stroke="#595A5C" stroke-width="0.5" stroke-miterlimit="10" x1="196.08" y1="160.596" x2="196.08" y2="159.127"/>
			
				<line fill="none" stroke="#595A5C" stroke-width="0.5" stroke-miterlimit="10" x1="72.77" y1="166.467" x2="72.77" y2="169.402"/>
			
				<line fill="none" stroke="#595A5C" stroke-width="0.5" stroke-miterlimit="10" x1="84.514" y1="166.467" x2="84.514" y2="169.402"/>
			
				<line fill="none" stroke="#595A5C" stroke-width="0.5" stroke-miterlimit="10" x1="190.209" y1="166.467" x2="190.209" y2="169.402"/>
			
				<line fill="none" stroke="#595A5C" stroke-width="0.5" stroke-miterlimit="10" x1="201.952" y1="166.467" x2="201.952" y2="169.402"/>
		</g>
	</g>
	<g>
		<path fill="#FFFFFF" d="M171.544,92.498l2.58,1.175l2.599-2.28c0.04-0.189,0.054-0.373,0.054-0.572
			c0-1.603-1.305-2.908-2.906-2.908c-0.961,0-1.854,0.473-2.396,1.266l-0.433,2.245L171.544,92.498z"/>
		<path fill="#FFFFFF" d="M168.875,95.227c-0.04,0.189-0.055,0.383-0.055,0.583c0,1.608,1.31,2.913,2.918,2.913
			c0.966,0,1.866-0.478,2.409-1.274l0.43-2.235l-0.573-1.096l-2.589-1.18L168.875,95.227z"/>
		<path fill="#FFFFFF" d="M168.861,90.765l1.769,0.419l0.388-2.006c-0.239-0.184-0.537-0.285-0.846-0.285
			c-0.768,0-1.395,0.623-1.395,1.395C168.776,90.451,168.806,90.616,168.861,90.765"/>
		<path fill="#FFFFFF" d="M168.707,91.189c-0.787,0.259-1.339,1.015-1.339,1.847c0,0.812,0.503,1.533,1.254,1.822l2.479-2.241
			l-0.453-0.971L168.707,91.189z"/>
		<path fill="#FFFFFF" d="M174.596,97.447c0.245,0.184,0.538,0.289,0.842,0.289c0.768,0,1.395-0.622,1.395-1.394
			c0-0.169-0.03-0.333-0.085-0.484l-1.763-0.412L174.596,97.447z"/>
		<path fill="#FFFFFF" d="M174.955,94.982l1.941,0.453c0.792-0.259,1.339-1.015,1.339-1.852c0-0.807-0.502-1.534-1.254-1.817
			l-2.539,2.225L174.955,94.982z"/>
		<path fill="#FFFFFF" d="M183.384,95.685l0.234-0.025l0.015,0.478c-0.617,0.084-1.146,0.129-1.583,0.129
			c-0.582,0-0.996-0.169-1.24-0.507c-0.244-0.339-0.364-0.867-0.364-1.579c0-1.424,0.569-2.136,1.699-2.136
			c0.548,0,0.956,0.154,1.226,0.458c0.269,0.304,0.402,0.786,0.402,1.438l-0.035,0.463h-2.679c0,0.449,0.08,0.782,0.244,0.997
			c0.165,0.213,0.442,0.322,0.847,0.322C182.557,95.734,182.966,95.72,183.384,95.685z M183.165,93.927
			c0-0.498-0.08-0.851-0.239-1.056c-0.159-0.204-0.418-0.309-0.776-0.309s-0.633,0.11-0.813,0.324
			c-0.179,0.214-0.273,0.563-0.278,1.041H183.165z"/>
		<path fill="#FFFFFF" d="M184.619,96.192v-5.825h0.606v5.825H184.619z"/>
		<path fill="#FFFFFF" d="M189.064,93.359v1.997c0,0.204,0.503,0.244,0.503,0.244l-0.028,0.538c-0.43,0-0.782,0.035-0.996-0.169
			c-0.488,0.214-0.972,0.304-1.459,0.304c-0.373,0-0.657-0.104-0.853-0.319c-0.193-0.209-0.293-0.513-0.293-0.911
			c0-0.393,0.1-0.687,0.299-0.871c0.199-0.185,0.514-0.304,0.94-0.344l1.274-0.119v-0.35c0-0.274-0.061-0.473-0.18-0.591
			c-0.12-0.12-0.284-0.18-0.487-0.18h-1.599V92.05h1.559c0.458,0,0.792,0.104,1.001,0.319
			C188.96,92.578,189.064,92.912,189.064,93.359z M186.564,95.013c0,0.498,0.205,0.747,0.618,0.747c0.368,0,0.731-0.06,1.086-0.185
			l0.185-0.064v-1.339l-1.199,0.115c-0.245,0.02-0.419,0.089-0.528,0.209C186.616,94.616,186.564,94.789,186.564,95.013z"/>
		<path fill="#FFFFFF" d="M191.439,92.593c-0.588,0-0.887,0.204-0.887,0.617c0,0.189,0.07,0.324,0.204,0.403
			c0.135,0.079,0.444,0.16,0.927,0.244c0.483,0.084,0.821,0.199,1.021,0.354c0.197,0.149,0.298,0.432,0.298,0.851
			c0,0.418-0.135,0.722-0.403,0.916s-0.657,0.293-1.175,0.293c-0.333,0-1.454-0.125-1.454-0.125l0.035-0.527
			c0.642,0.059,1.11,0.109,1.424,0.109c0.314,0,0.553-0.05,0.717-0.149c0.165-0.1,0.249-0.269,0.249-0.503
			c0-0.234-0.068-0.393-0.209-0.478c-0.14-0.084-0.448-0.164-0.926-0.239c-0.479-0.075-0.817-0.184-1.017-0.334
			c-0.199-0.144-0.3-0.418-0.3-0.811s0.142-0.688,0.418-0.876c0.279-0.189,0.629-0.284,1.042-0.284c0.328,0,1.474,0.085,1.474,0.085
			v0.533C192.275,92.637,191.783,92.593,191.439,92.593z"/>
		<path fill="#FFFFFF" d="M195.94,92.662h-1.289v1.942c0,0.462,0.033,0.771,0.101,0.917c0.068,0.144,0.229,0.219,0.481,0.219
			l0.723-0.05l0.04,0.502c-0.364,0.06-0.638,0.09-0.826,0.09c-0.424,0-0.712-0.105-0.876-0.309
			c-0.165-0.205-0.245-0.598-0.245-1.175v-2.136h-0.577v-0.527h0.577v-1.244h0.604v1.239h1.289L195.94,92.662L195.94,92.662z"/>
		<path fill="#FFFFFF" d="M196.786,91.213v-0.701h0.607v0.706L196.786,91.213L196.786,91.213z M196.786,96.192v-4.057h0.607v4.057
			H196.786z"/>
		<path fill="#FFFFFF" d="M200.032,92.05c0.18,0,0.482,0.036,0.911,0.1l0.194,0.025l-0.026,0.493
			c-0.432-0.05-0.751-0.075-0.954-0.075c-0.458,0-0.771,0.109-0.937,0.328c-0.164,0.22-0.249,0.628-0.249,1.22
			c0,0.593,0.074,1.006,0.229,1.241c0.153,0.233,0.473,0.348,0.962,0.348l0.955-0.075l0.024,0.503
			c-0.504,0.075-0.882,0.115-1.13,0.115c-0.633,0-1.07-0.165-1.311-0.488c-0.238-0.324-0.363-0.872-0.363-1.644
			c0-0.771,0.13-1.313,0.389-1.623C198.993,92.209,199.426,92.05,200.032,92.05z"/>
	</g>
	<g>
		<g>
			<g>
				
					<rect x="131.207" y="91.721" transform="matrix(-0.8662 -0.4997 0.4997 -0.8662 196.9195 246.6115)" fill="#FFFFFF" width="0.542" height="10.439"/>
			</g>
		</g>
		<g>
			<g>
				<rect x="128.521" y="100.601" fill="#FFFFFF" width="10.438" height="0.54"/>
			</g>
		</g>
		<g>
			<g>
				
					<rect x="128.459" y="101.902" transform="matrix(-0.866 -0.5 0.5 -0.866 194.2465 256.3942)" fill="#FFFFFF" width="6.028" height="0.541"/>
			</g>
		</g>
		<g>
			<g>
				
					<rect x="132.99" y="94.048" transform="matrix(-0.866 -0.5001 0.5001 -0.866 206.616 244.009)" fill="#FFFFFF" width="6.027" height="0.541"/>
			</g>
		</g>
		<g>
			<g>
				
					<rect x="131.206" y="91.3" transform="matrix(-0.4998 -0.8661 0.8661 -0.4998 115.5043 255.3307)" fill="#FFFFFF" width="0.541" height="6.029"/>
			</g>
		</g>
		<g>
			<g>
				
					<rect x="130.792" y="96.664" transform="matrix(-0.5 -0.866 0.866 -0.5 120.0689 263.1916)" fill="#FFFFFF" width="10.437" height="0.541"/>
			</g>
		</g>
		<g>
			<g>
				<rect x="128.935" y="95.233" fill="#FFFFFF" width="0.541" height="6.029"/>
			</g>
		</g>
		<g>
			<g>
				<rect x="138.007" y="95.233" fill="#FFFFFF" width="0.541" height="6.029"/>
			</g>
		</g>
		<g>
			<g>
				
					<rect x="135.777" y="99.555" transform="matrix(-0.4977 -0.8674 0.8674 -0.4977 115.0836 271.0008)" fill="#FFFFFF" width="0.473" height="5.243"/>
			</g>
		</g>
		<path fill="#FFFFFF" d="M139.265,101.438c-0.313,0.545-1.01,0.73-1.555,0.417c-0.544-0.313-0.73-1.01-0.417-1.554
			c0.313-0.545,1.01-0.73,1.554-0.417C139.396,100.2,139.581,100.893,139.265,101.438"/>
		<path fill="#FFFFFF" d="M130.186,96.194c-0.313,0.544-1.01,0.73-1.555,0.417c-0.544-0.313-0.729-1.01-0.417-1.554
			s1.01-0.73,1.554-0.417C130.313,94.956,130.498,95.65,130.186,96.194"/>
		<path fill="#FFFFFF" d="M128.217,101.438c-0.313-0.544-0.127-1.238,0.418-1.554c0.544-0.313,1.238-0.127,1.554,0.417
			c0.313,0.544,0.127,1.238-0.417,1.554C129.225,102.168,128.53,101.982,128.217,101.438"/>
		<path fill="#FFFFFF" d="M137.296,96.194c-0.313-0.544-0.126-1.238,0.417-1.554c0.544-0.313,1.238-0.126,1.555,0.417
			c0.313,0.544,0.127,1.238-0.417,1.554C138.308,96.924,137.61,96.739,137.296,96.194"/>
		<path fill="#FFFFFF" d="M133.741,104.628c-0.63,0-1.138-0.509-1.138-1.138c0-0.628,0.508-1.137,1.138-1.137
			c0.628,0,1.138,0.508,1.138,1.137C134.879,104.117,134.37,104.628,133.741,104.628"/>
		<path fill="#FFFFFF" d="M133.741,94.141c-0.63,0-1.138-0.508-1.138-1.137s0.508-1.138,1.138-1.138
			c0.628,0,1.138,0.509,1.138,1.138S134.37,94.141,133.741,94.141"/>
	</g>
	<g id="g2303_2_">
		<path id="path46_2_" fill="#FFFFFF" d="M174.161,117.721c0-1.211-0.347-1.832-1.035-1.867c-0.275-0.012-0.543,0.031-0.805,0.133
			c-0.208,0.076-0.349,0.148-0.422,0.224v2.89c0.442,0.277,0.833,0.405,1.177,0.387C173.799,119.436,174.161,118.85,174.161,117.721
			z M175.013,117.771c0,0.614-0.145,1.125-0.435,1.53c-0.323,0.46-0.771,0.696-1.345,0.71c-0.433,0.014-0.876-0.123-1.334-0.406
			v2.625l-0.74-0.263v-5.829c0.121-0.147,0.276-0.277,0.467-0.386c0.44-0.257,0.977-0.389,1.606-0.396l0.01,0.011
			c0.576-0.009,1.021,0.229,1.333,0.709C174.867,116.518,175.013,117.081,175.013,117.771z"/>
		<path id="path48_2_" fill="#FFFFFF" d="M179.539,119.494c0,0.824-0.083,1.396-0.248,1.714c-0.166,0.317-0.482,0.569-0.949,0.76
			c-0.378,0.148-0.788,0.229-1.228,0.243l-0.121-0.467c0.445-0.061,0.761-0.121,0.943-0.184c0.359-0.119,0.604-0.308,0.739-0.557
			c0.109-0.204,0.163-0.591,0.163-1.166v-0.193c-0.506,0.229-1.038,0.346-1.592,0.346c-0.365,0-0.688-0.115-0.964-0.346
			c-0.312-0.25-0.467-0.566-0.467-0.951v-3.082l0.74-0.254v3.103c0,0.332,0.106,0.587,0.321,0.767
			c0.214,0.178,0.491,0.265,0.831,0.258c0.34-0.008,0.703-0.139,1.09-0.396v-3.618h0.74V119.494L179.539,119.494z"/>
		<path id="path50_2_" fill="#FFFFFF" d="M182.43,119.97c-0.09,0.009-0.17,0.011-0.245,0.011c-0.418,0-0.745-0.1-0.979-0.299
			c-0.232-0.201-0.35-0.478-0.35-0.83v-2.916h-0.508v-0.466h0.508v-1.237l0.74-0.264v1.501h0.832v0.466h-0.832v2.896
			c0,0.275,0.074,0.475,0.224,0.59c0.129,0.096,0.332,0.148,0.608,0.162L182.43,119.97L182.43,119.97z"/>
		<path id="path52_2_" fill="#FFFFFF" d="M186.913,119.909h-0.74v-2.859c0-0.289-0.069-0.54-0.203-0.749
			c-0.158-0.236-0.374-0.355-0.653-0.355c-0.339,0-0.764,0.181-1.271,0.537v3.428h-0.741v-6.833l0.741-0.232v3.111
			c0.473-0.345,0.99-0.517,1.551-0.517c0.392,0,0.71,0.133,0.952,0.396c0.245,0.263,0.366,0.591,0.366,0.983L186.913,119.909
			L186.913,119.909z"/>
		<path id="path54_2_" fill="#FFFFFF" d="M190.85,117.604c0-0.467-0.089-0.85-0.266-1.153c-0.208-0.37-0.533-0.565-0.974-0.585
			c-0.812,0.046-1.217,0.628-1.217,1.742c0,0.513,0.085,0.938,0.254,1.281c0.219,0.438,0.544,0.652,0.979,0.646
			C190.441,119.527,190.85,118.885,190.85,117.604z M191.66,117.607c0,0.662-0.17,1.215-0.509,1.652
			c-0.372,0.492-0.885,0.74-1.541,0.74c-0.648,0-1.155-0.248-1.521-0.74c-0.331-0.438-0.496-0.99-0.496-1.652
			c0-0.621,0.179-1.146,0.536-1.572c0.38-0.451,0.876-0.678,1.492-0.678c0.613,0,1.113,0.227,1.501,0.678
			C191.48,116.463,191.66,116.986,191.66,117.607z"/>
		<path id="path56_2_" fill="#FFFFFF" d="M195.904,119.909h-0.739v-3.021c0-0.332-0.1-0.591-0.299-0.775
			c-0.198-0.188-0.465-0.276-0.796-0.27c-0.353,0.006-0.688,0.12-1.004,0.346v3.72h-0.74v-3.813c0.426-0.31,0.816-0.513,1.176-0.606
			c0.339-0.089,0.637-0.132,0.894-0.132c0.176,0,0.341,0.018,0.496,0.051c0.291,0.066,0.528,0.191,0.71,0.375
			c0.203,0.203,0.304,0.445,0.304,0.73L195.904,119.909L195.904,119.909z"/>
		<path id="path1948_2_" fill="#FFFFFF" d="M163.845,113.104c-0.38,0.002-0.745,0.035-1.065,0.092
			c-0.941,0.166-1.113,0.515-1.113,1.158v0.85h2.229v0.283h-2.229h-0.836c-0.647,0-1.215,0.389-1.394,1.13
			c-0.205,0.849-0.214,1.379,0,2.265c0.159,0.66,0.537,1.131,1.186,1.131h0.766v-1.02c0-0.735,0.637-1.385,1.393-1.385h2.228
			c0.62,0,1.114-0.51,1.114-1.133v-2.121c0-0.604-0.512-1.059-1.114-1.158C164.624,113.132,164.227,113.104,163.845,113.104z
			 M162.64,113.788c0.23,0,0.419,0.19,0.419,0.425c0,0.235-0.188,0.424-0.419,0.424c-0.23,0-0.418-0.188-0.418-0.424
			C162.222,113.979,162.409,113.788,162.64,113.788z"/>
		<path id="path1950_2_" fill="#FFFFFF" d="M166.399,115.486v0.988c0,0.768-0.649,1.414-1.393,1.414h-2.228
			c-0.609,0-1.113,0.521-1.113,1.133v2.121c0,0.604,0.524,0.961,1.113,1.133c0.707,0.207,1.383,0.246,2.228,0
			c0.561-0.161,1.114-0.489,1.114-1.133v-0.85h-2.228v-0.282h2.228h1.113c0.647,0,0.89-0.452,1.114-1.131
			c0.232-0.698,0.223-1.369,0-2.265c-0.16-0.646-0.466-1.131-1.114-1.131h-0.835V115.486z M165.147,120.859
			c0.23,0,0.418,0.189,0.418,0.424s-0.188,0.428-0.418,0.428c-0.229,0-0.419-0.191-0.419-0.428
			C164.728,121.05,164.917,120.859,165.147,120.859z"/>
	</g>
	<g>
		<g>
			<path id="outline_2_" fill="#FFFFFF" d="M122.944,115.122h1.471v1.489h0.744c0.343,0,0.695-0.061,1.021-0.17
				c0.16-0.053,0.339-0.129,0.497-0.223c-0.208-0.269-0.313-0.607-0.344-0.941c-0.043-0.454,0.05-1.047,0.359-1.402l0.155-0.177
				l0.183,0.146c0.465,0.369,0.854,0.885,0.924,1.475c0.558-0.163,1.213-0.125,1.706,0.156l0.2,0.115l-0.105,0.205
				c-0.416,0.807-1.286,1.057-2.137,1.012c-1.272,3.144-4.043,4.631-7.403,4.631c-1.735,0-3.327-0.644-4.233-2.17l-0.016-0.024
				l-0.131-0.267c-0.308-0.672-0.409-1.408-0.339-2.146l0.021-0.22h1.257v-1.49h1.471v-1.458h2.938v-1.458h1.764v2.917H122.944z"/>
			<g id="body_colors_2_">
				<path fill="#FFFFFF" d="M127.707,115.674c0.099-0.761-0.475-1.355-0.83-1.64c-0.41,0.469-0.474,1.7,0.169,2.219
					c-0.358,0.315-1.115,0.603-1.888,0.603h-9.422c-0.073,0.802,0.067,1.537,0.392,2.172l0.106,0.192
					c0.067,0.114,0.143,0.226,0.223,0.331l0,0c0.388,0.024,0.745,0.032,1.07,0.025l0,0c0.644-0.014,1.167-0.09,1.564-0.227
					c0.059-0.02,0.123,0.012,0.143,0.07c0.021,0.059-0.011,0.121-0.069,0.143c-0.054,0.019-0.107,0.033-0.164,0.052l0,0
					c-0.313,0.089-0.648,0.147-1.081,0.174c0.024,0.001-0.027,0.005-0.027,0.005c-0.014,0-0.033,0.003-0.047,0.003
					c-0.17,0.011-0.354,0.013-0.542,0.013c-0.206,0-0.408-0.004-0.634-0.016l-0.006,0.003c0.785,0.875,2.012,1.399,3.55,1.399
					c3.256,0,6.018-1.432,7.241-4.646c0.867,0.089,1.7-0.13,2.081-0.864C128.931,115.34,128.154,115.451,127.707,115.674z"/>
				<path fill="#FFFFFF" d="M127.707,115.674c0.099-0.761-0.475-1.355-0.83-1.64c-0.41,0.469-0.474,1.7,0.169,2.219
					c-0.358,0.315-1.115,0.603-1.888,0.603h-8.862c-0.039,1.228,0.42,2.158,1.231,2.722l0,0c0.644-0.015,1.167-0.089,1.564-0.228
					c0.059-0.019,0.123,0.012,0.143,0.071c0.021,0.058-0.011,0.121-0.069,0.142c-0.054,0.02-0.107,0.035-0.164,0.053l0,0
					c-0.313,0.089-0.677,0.154-1.109,0.182l-0.011-0.01c1.107,0.563,2.714,0.563,4.557-0.139c2.065-0.789,3.987-2.287,5.328-4.002
					C127.746,115.655,127.726,115.663,127.707,115.674z"/>
				<path fill="#FFFFFF" d="M115.756,117.829c0.057,0.429,0.184,0.83,0.372,1.196l0.106,0.193c0.067,0.114,0.143,0.225,0.223,0.331
					c0.388,0.024,0.745,0.032,1.07,0.025c0.644-0.015,1.167-0.089,1.564-0.228c0.059-0.019,0.123,0.012,0.143,0.071
					c0.021,0.058-0.011,0.121-0.069,0.142c-0.054,0.02-0.107,0.034-0.164,0.053l0,0c-0.313,0.089-0.675,0.152-1.108,0.179
					c-0.014,0-0.041,0-0.055,0.001c-0.17,0.01-0.353,0.016-0.54,0.016c-0.205,0-0.416-0.002-0.643-0.016
					c0.785,0.875,2.021,1.4,3.559,1.4c2.788,0,5.212-1.049,6.62-3.365L115.756,117.829L115.756,117.829z"/>
				<path fill="#FFFFFF" d="M116.379,117.829c0.167,0.753,0.567,1.344,1.147,1.747c0.644-0.014,1.167-0.09,1.564-0.227
					c0.059-0.02,0.123,0.012,0.143,0.07c0.021,0.059-0.011,0.121-0.069,0.143c-0.054,0.019-0.107,0.033-0.164,0.052l0,0
					c-0.313,0.089-0.684,0.151-1.116,0.179c1.108,0.563,2.71,0.555,4.553-0.146c1.114-0.426,2.187-1.058,3.148-1.817H116.379z"/>
			</g>
			<g id="Containers_2_">
				<path fill="#FFFFFF" d="M118.083,115.471h0.101v1.053h-0.101V115.471z M117.89,115.471h0.104v1.053h-0.104V115.471z
					 M117.697,115.471h0.104v1.053h-0.104V115.471z M117.504,115.471h0.104v1.053h-0.104V115.471z M117.311,115.471h0.105v1.053
					h-0.105V115.471z M117.123,115.471h0.1v1.053h-0.1V115.471z M117.017,115.365h1.273v1.263h-1.273V115.365z"/>
				<path fill="#FFFFFF" d="M119.553,114.014h0.101v1.053h-0.101V114.014z M119.36,114.014h0.104v1.053h-0.104V114.014z
					 M119.167,114.014h0.104v1.053h-0.104V114.014z M118.974,114.014h0.105v1.053h-0.105V114.014z M118.781,114.014h0.105v1.053
					h-0.105V114.014z M118.593,114.014h0.1v1.053h-0.1V114.014z M118.485,113.907h1.274v1.264h-1.274V113.907z"/>
				<path fill="#FFFFFF" d="M119.553,115.471h0.101v1.053h-0.101V115.471z M119.36,115.471h0.104v1.053h-0.104V115.471z
					 M119.167,115.471h0.104v1.053h-0.104V115.471z M118.974,115.471h0.105v1.053h-0.105V115.471z M118.781,115.471h0.105v1.053
					h-0.105V115.471z M118.593,115.471h0.1v1.053h-0.1V115.471z M118.485,115.365h1.274v1.263h-1.274V115.365z"/>
				<path fill="#FFFFFF" d="M121.023,115.471h0.102v1.053h-0.102V115.471z M120.83,115.471h0.104v1.053h-0.104V115.471z
					 M120.637,115.471h0.104v1.053h-0.104V115.471z M120.445,115.471h0.104v1.053h-0.104V115.471z M120.251,115.471h0.104v1.053
					h-0.104V115.471z M120.062,115.471h0.102v1.053h-0.102V115.471z M119.956,115.365h1.274v1.263h-1.274V115.365z"/>
				<path fill="#FFFFFF" d="M121.023,114.014h0.102v1.053h-0.102V114.014z M120.83,114.014h0.104v1.053h-0.104V114.014z
					 M120.637,114.014h0.104v1.053h-0.104V114.014z M120.445,114.014h0.104v1.053h-0.104V114.014z M120.251,114.014h0.104v1.053
					h-0.104V114.014z M120.062,114.014h0.102v1.053h-0.102V114.014z M119.956,113.907h1.274v1.264h-1.274V113.907z"/>
				<path fill="#FFFFFF" d="M122.493,115.471h0.101v1.053h-0.101V115.471z M122.3,115.471h0.104v1.053H122.3V115.471z
					 M122.106,115.471h0.105v1.053h-0.105V115.471z M121.914,115.471h0.104v1.053h-0.104V115.471z M121.721,115.471h0.104v1.053
					h-0.104V115.471z M121.532,115.471h0.101v1.053h-0.101V115.471z M121.426,115.365h1.274v1.263h-1.274V115.365z"/>
				<path fill="#FFFFFF" d="M122.493,114.014h0.101v1.053h-0.101V114.014z M122.3,114.014h0.104v1.053H122.3V114.014z
					 M122.106,114.014h0.105v1.053h-0.105V114.014z M121.914,114.014h0.104v1.053h-0.104V114.014z M121.721,114.014h0.104v1.053
					h-0.104V114.014z M121.532,114.014h0.101v1.053h-0.101V114.014z M121.426,113.907h1.274v1.264h-1.274V113.907z"/>
				<path fill="#FFFFFF" d="M122.493,112.555h0.101v1.053h-0.101V112.555z M122.3,112.555h0.104v1.053H122.3V112.555z
					 M122.106,112.555h0.105v1.053h-0.105V112.555z M121.914,112.555h0.104v1.053h-0.104V112.555z M121.721,112.555h0.104v1.053
					h-0.104V112.555z M121.532,112.555h0.101v1.053h-0.101V112.555z M121.426,112.449h1.274v1.264h-1.274V112.449z"/>
				<path fill="#FFFFFF" d="M123.962,115.471h0.101v1.053h-0.101V115.471z M123.77,115.471h0.104v1.053h-0.104V115.471z
					 M123.577,115.471h0.104v1.053h-0.104V115.471z M123.384,115.471h0.104v1.053h-0.104V115.471z M123.19,115.471h0.105v1.053
					h-0.105V115.471z M123.002,115.471h0.101v1.053h-0.101V115.471z M122.896,115.365h1.274v1.263h-1.274V115.365z"/>
			</g>
			<path fill="#FFFFFF" d="M119.68,118.677c0.194,0,0.353,0.155,0.353,0.351c0,0.19-0.158,0.348-0.353,0.348
				s-0.352-0.156-0.352-0.348C119.329,118.832,119.486,118.677,119.68,118.677"/>
			<path fill="#FFFFFF" d="M119.68,118.775c0.033,0,0.063,0.007,0.091,0.018c-0.03,0.018-0.052,0.051-0.052,0.088
				c0,0.057,0.046,0.104,0.103,0.104c0.039,0,0.073-0.021,0.091-0.055c0.012,0.029,0.019,0.063,0.019,0.098
				c0,0.137-0.113,0.248-0.251,0.248c-0.139,0-0.252-0.111-0.252-0.248C119.428,118.889,119.541,118.775,119.68,118.775"/>
			<path fill="#FFFFFF" d="M120.614,121.188c-0.87-0.408-1.348-0.965-1.612-1.572c-0.324,0.092-0.712,0.15-1.164,0.175
				c-0.17,0.01-0.35,0.015-0.537,0.015c-0.216,0-0.444-0.007-0.684-0.019c0.798,0.79,1.779,1.399,3.598,1.41
				C120.349,121.195,120.481,121.193,120.614,121.188z"/>
			<path fill="#FFFFFF" d="M119.323,120.175c-0.119-0.161-0.236-0.366-0.321-0.561c-0.324,0.092-0.712,0.149-1.164,0.175
				C118.147,119.956,118.59,120.109,119.323,120.175z"/>
		</g>
		<path fill="#FFFFFF" d="M146.991,118.626c0.502-0.428,1.005-0.854,1.507-1.285c0.172-0.146,0.358-0.298,0.529-0.452
			c-0.138-0.171-0.364-0.294-0.559-0.367c-0.391-0.147-0.776-0.099-1.135,0.106c-0.469,0.269-0.669,0.697-0.652,1.229
			c0.007,0.209,0.064,0.41,0.176,0.59C146.898,118.51,146.942,118.568,146.991,118.626 M147.572,119.031
			c0.246,0.085,0.528,0.072,0.781,0.029c0.129-0.056,0.46-0.199,0.582-0.179l0.021,0.005l0.018,0.008
			c0.074,0.037,0.146,0.086,0.185,0.162c0.088,0.176,0.045,0.354-0.129,0.451l-0.058,0.033c-0.643,0.368-1.327,0.316-1.967-0.025
			c-0.308-0.164-0.542-0.408-0.714-0.705l-0.041-0.068c-0.412-0.709-0.357-1.456,0.108-2.131c0.161-0.23,0.371-0.411,0.616-0.553
			l0.093-0.053c0.606-0.348,1.255-0.324,1.876-0.02c0.334,0.164,0.605,0.406,0.792,0.728l0.033,0.058
			c0.136,0.233-0.04,0.438-0.221,0.576c-0.211,0.16-0.423,0.354-0.625,0.526C148.471,118.261,148.022,118.646,147.572,119.031z
			 M152.389,115.809h0.067c0.203,0,0.339,0.135,0.339,0.336c0,0.277-0.269,0.35-0.5,0.35c-0.305,0-0.595,0.183-0.805,0.388
			c-0.263,0.257-0.377,0.583-0.377,0.942v1.627c0,0.188-0.116,0.337-0.313,0.337h-0.053c-0.195,0-0.313-0.149-0.313-0.337v-1.721
			c0-0.66,0.324-1.198,0.865-1.578C151.625,115.926,151.994,115.809,152.389,115.809z M143.943,116.962
			c0.264-0.263,0.528-0.522,0.795-0.778c0.074-0.072,0.356-0.375,0.468-0.375h0.122l0.013,0.002
			c0.155,0.031,0.271,0.129,0.271,0.293v0.067c0,0.111-0.133,0.242-0.206,0.318c-0.156,0.163-0.319,0.321-0.479,0.481l-0.819,0.824
			c0.354,0.352,0.705,0.701,1.056,1.055c0.097,0.098,0.192,0.195,0.289,0.295c0.032,0.035,0.083,0.08,0.11,0.127
			c0.03,0.047,0.049,0.098,0.049,0.152v0.069l-0.005,0.015c-0.038,0.154-0.135,0.278-0.307,0.278h-0.054
			c-0.112,0-0.238-0.126-0.315-0.198c-0.157-0.146-0.311-0.304-0.466-0.455l-0.521-0.506v0.811c0,0.187-0.117,0.336-0.312,0.336
			h-0.053c-0.194,0-0.313-0.149-0.313-0.336v-4.563c0-0.188,0.118-0.336,0.313-0.336h0.053c0.194,0,0.312,0.148,0.312,0.336
			L143.943,116.962L143.943,116.962z M141.745,116.507c-0.103-0.048-0.294-0.063-0.405-0.067c-0.566-0.021-0.976,0.295-1.215,0.791
			c-0.083,0.17-0.121,0.352-0.121,0.541c0,0.574,0.305,0.979,0.822,1.224c0.189,0.09,0.434,0.106,0.641,0.106
			c0.182,0,0.438-0.109,0.6-0.187l0.029-0.013h0.125h0.014c0.154,0.033,0.271,0.131,0.271,0.295v0.066
			c0,0.408-0.754,0.502-1.042,0.521c-1.016,0.07-1.775-0.482-2.064-1.443c-0.05-0.167-0.072-0.332-0.072-0.506v-0.134
			c0-0.729,0.364-1.306,0.994-1.677c0.294-0.174,0.617-0.26,0.958-0.26h0.135c0.36,0,0.693,0.102,0.992,0.305l0.024,0.016
			l0.015,0.025c0.032,0.054,0.061,0.113,0.061,0.178v0.066c0,0.172-0.129,0.264-0.286,0.293l-0.013,0.002h-0.04
			C142.065,116.652,141.836,116.549,141.745,116.507z M135.566,117.783c0,0.511,0.253,0.887,0.688,1.15
			c0.204,0.125,0.428,0.182,0.668,0.182c0.508,0,0.884-0.256,1.146-0.682c0.125-0.205,0.183-0.429,0.183-0.664
			c0-0.476-0.231-0.838-0.625-1.101c-0.216-0.146-0.458-0.218-0.717-0.218c-0.567,0-0.977,0.283-1.223,0.79
			C135.604,117.413,135.566,117.594,135.566,117.783z M136.841,115.78h0.094c0.786,0,1.382,0.378,1.761,1.058
			c0.151,0.271,0.232,0.568,0.232,0.88v0.134c0,0.729-0.362,1.309-0.995,1.678c-0.293,0.17-0.618,0.259-0.958,0.259h-0.134
			c-0.735,0-1.318-0.36-1.691-0.987c-0.173-0.291-0.261-0.611-0.261-0.949v-0.133c0-0.729,0.365-1.307,0.995-1.679
			C136.176,115.867,136.501,115.78,136.841,115.78z M131.128,117.783c0,0.527,0.257,0.922,0.723,1.175
			c0.188,0.103,0.393,0.157,0.606,0.157c0.521,0,0.908-0.244,1.174-0.682c0.124-0.205,0.181-0.428,0.181-0.664
			c0-0.455-0.217-0.813-0.589-1.076c-0.224-0.16-0.477-0.241-0.753-0.241c-0.568,0-0.977,0.284-1.222,0.79
			C131.166,117.413,131.128,117.594,131.128,117.783z M133.813,116.282v-1.421c0-0.186,0.117-0.336,0.313-0.336h0.054
			c0.194,0,0.312,0.15,0.312,0.336v2.988c0,0.729-0.363,1.309-0.995,1.678c-0.293,0.172-0.617,0.26-0.957,0.26h-0.135
			c-0.733,0-1.317-0.36-1.69-0.987c-0.173-0.291-0.262-0.61-0.262-0.948v-0.134c0-0.729,0.363-1.309,0.995-1.679
			c0.294-0.171,0.617-0.259,0.957-0.259h0.135C133.035,115.78,133.457,115.971,133.813,116.282z"/>
	</g>
</g>
</svg>
