<?xml version="1.0" encoding="utf-8"?>
<!-- Generator: Adobe Illustrator 16.0.0, SVG Export Plug-In . SVG Version: 6.00 Build 0)  -->
<!DOCTYPE svg PUBLIC "-//W3C//DTD SVG 1.1//EN" "http://www.w3.org/Graphics/SVG/1.1/DTD/svg11.dtd">
<svg version="1.1" id="Layer_1" xmlns="http://www.w3.org/2000/svg" xmlns:xlink="http://www.w3.org/1999/xlink" x="0px" y="0px"
	 width="360px" height="210px" viewBox="0 0 360 210" enable-background="new 0 0 360 210" xml:space="preserve">
<pattern  width="144.388" height="144.775" patternUnits="userSpaceOnUse" id="New_Pattern_Swatch_1" viewBox="0 -144.775 144.388 144.775" overflow="visible">
	<g>
		<polygon fill="none" points="0,0 144.388,0 144.388,-144.775 0,-144.775 		"/>
		<polyline fill="none" stroke="#595A5C" stroke-width="0.5481" stroke-miterlimit="10" points="0.194,-138.388 6.194,-144.388 
			12.194,-138.388 18.194,-144.388 24.194,-138.388 30.194,-144.388 36.194,-138.388 42.194,-144.388 48.194,-138.388 
			54.194,-144.388 60.194,-138.388 66.194,-144.388 72.194,-138.388 78.194,-144.388 84.194,-138.388 90.194,-144.388 
			96.194,-138.388 102.194,-144.388 108.194,-138.388 114.194,-144.388 120.194,-138.388 126.194,-144.388 132.194,-138.388 
			138.194,-144.388 144.194,-138.388 		"/>
		<polyline fill="none" stroke="#595A5C" stroke-width="0.5481" stroke-miterlimit="10" points="0.194,-132.388 6.194,-138.388 
			12.194,-132.388 18.194,-138.388 24.194,-132.388 30.194,-138.388 36.194,-132.388 42.194,-138.388 48.194,-132.388 
			54.194,-138.388 60.194,-132.388 66.194,-138.388 72.194,-132.388 78.194,-138.388 84.194,-132.388 90.194,-138.388 
			96.194,-132.388 102.194,-138.388 108.194,-132.388 114.194,-138.388 120.194,-132.388 126.194,-138.388 132.194,-132.388 
			138.194,-138.388 144.194,-132.388 		"/>
		<polyline fill="none" stroke="#595A5C" stroke-width="0.5481" stroke-miterlimit="10" points="0.194,-126.388 6.194,-132.388 
			12.194,-126.388 18.194,-132.388 24.194,-126.388 30.194,-132.388 36.194,-126.388 42.194,-132.388 48.194,-126.388 
			54.194,-132.388 60.194,-126.388 66.194,-132.388 72.194,-126.388 78.194,-132.388 84.194,-126.388 90.194,-132.388 
			96.194,-126.388 102.194,-132.388 108.194,-126.388 114.194,-132.388 120.194,-126.388 126.194,-132.388 132.194,-126.388 
			138.194,-132.388 144.194,-126.388 		"/>
		<polyline fill="none" stroke="#595A5C" stroke-width="0.5481" stroke-miterlimit="10" points="0.194,-120.388 6.194,-126.388 
			12.194,-120.388 18.194,-126.388 24.194,-120.388 30.194,-126.388 36.194,-120.388 42.194,-126.388 48.194,-120.388 
			54.194,-126.388 60.194,-120.388 66.194,-126.388 72.194,-120.388 78.194,-126.388 84.194,-120.388 90.194,-126.388 
			96.194,-120.388 102.194,-126.388 108.194,-120.388 114.194,-126.388 120.194,-120.388 126.194,-126.388 132.194,-120.388 
			138.194,-126.388 144.194,-120.388 		"/>
		<polyline fill="none" stroke="#595A5C" stroke-width="0.5481" stroke-miterlimit="10" points="0.194,-114.388 6.194,-120.388 
			12.194,-114.388 18.194,-120.388 24.194,-114.388 30.194,-120.388 36.194,-114.388 42.194,-120.388 48.194,-114.388 
			54.194,-120.388 60.194,-114.388 66.194,-120.388 72.194,-114.388 78.194,-120.388 84.194,-114.388 90.194,-120.388 
			96.194,-114.388 102.194,-120.388 108.194,-114.388 114.194,-120.388 120.194,-114.388 126.194,-120.388 132.194,-114.388 
			138.194,-120.388 144.194,-114.388 		"/>
		<polyline fill="none" stroke="#595A5C" stroke-width="0.5481" stroke-miterlimit="10" points="0.194,-108.388 6.194,-114.388 
			12.194,-108.388 18.194,-114.388 24.194,-108.388 30.194,-114.388 36.194,-108.388 42.194,-114.388 48.194,-108.388 
			54.194,-114.388 60.194,-108.388 66.194,-114.388 72.194,-108.388 78.194,-114.388 84.194,-108.388 90.194,-114.388 
			96.194,-108.388 102.194,-114.388 108.194,-108.388 114.194,-114.388 120.194,-108.388 126.194,-114.388 132.194,-108.388 
			138.194,-114.388 144.194,-108.388 		"/>
		<polyline fill="none" stroke="#595A5C" stroke-width="0.5481" stroke-miterlimit="10" points="0.194,-102.388 6.194,-108.388 
			12.194,-102.388 18.194,-108.388 24.194,-102.388 30.194,-108.388 36.194,-102.388 42.194,-108.388 48.194,-102.388 
			54.194,-108.388 60.194,-102.388 66.194,-108.388 72.194,-102.388 78.194,-108.388 84.194,-102.388 90.194,-108.388 
			96.194,-102.388 102.194,-108.388 108.194,-102.388 114.194,-108.388 120.194,-102.388 126.194,-108.388 132.194,-102.388 
			138.194,-108.388 144.194,-102.388 		"/>
		<polyline fill="none" stroke="#595A5C" stroke-width="0.5481" stroke-miterlimit="10" points="0.194,-96.388 6.194,-102.388 
			12.194,-96.388 18.194,-102.388 24.194,-96.388 30.194,-102.388 36.194,-96.388 42.194,-102.388 48.194,-96.388 54.194,-102.388 
			60.194,-96.388 66.194,-102.388 72.194,-96.388 78.194,-102.388 84.194,-96.388 90.194,-102.388 96.194,-96.388 102.194,-102.388 
			108.194,-96.388 114.194,-102.388 120.194,-96.388 126.194,-102.388 132.194,-96.388 138.194,-102.388 144.194,-96.388 		"/>
		<polyline fill="none" stroke="#595A5C" stroke-width="0.5481" stroke-miterlimit="10" points="0.194,-90.388 6.194,-96.388 
			12.194,-90.388 18.194,-96.388 24.194,-90.388 30.194,-96.388 36.194,-90.388 42.194,-96.388 48.194,-90.388 54.194,-96.388 
			60.194,-90.388 66.194,-96.388 72.194,-90.388 78.194,-96.388 84.194,-90.388 90.194,-96.388 96.194,-90.388 102.194,-96.388 
			108.194,-90.388 114.194,-96.388 120.194,-90.388 126.194,-96.388 132.194,-90.388 138.194,-96.388 144.194,-90.388 		"/>
		<polyline fill="none" stroke="#595A5C" stroke-width="0.5481" stroke-miterlimit="10" points="0.194,-84.388 6.194,-90.388 
			12.194,-84.388 18.194,-90.388 24.194,-84.388 30.194,-90.388 36.194,-84.388 42.194,-90.388 48.194,-84.388 54.194,-90.388 
			60.194,-84.388 66.194,-90.388 72.194,-84.388 78.194,-90.388 84.194,-84.388 90.194,-90.388 96.194,-84.388 102.194,-90.388 
			108.194,-84.388 114.194,-90.388 120.194,-84.388 126.194,-90.388 132.194,-84.388 138.194,-90.388 144.194,-84.388 		"/>
		<polyline fill="none" stroke="#595A5C" stroke-width="0.5481" stroke-miterlimit="10" points="0.194,-78.388 6.194,-84.388 
			12.194,-78.388 18.194,-84.388 24.194,-78.388 30.194,-84.388 36.194,-78.388 42.194,-84.388 48.194,-78.388 54.194,-84.388 
			60.194,-78.388 66.194,-84.388 72.194,-78.388 78.194,-84.388 84.194,-78.388 90.194,-84.388 96.194,-78.388 102.194,-84.388 
			108.194,-78.388 114.194,-84.388 120.194,-78.388 126.194,-84.388 132.194,-78.388 138.194,-84.388 144.194,-78.388 		"/>
		<polyline fill="none" stroke="#595A5C" stroke-width="0.5481" stroke-miterlimit="10" points="0.194,-72.388 6.194,-78.388 
			12.194,-72.388 18.194,-78.388 24.194,-72.388 30.194,-78.388 36.194,-72.388 42.194,-78.388 48.194,-72.388 54.194,-78.388 
			60.194,-72.388 66.194,-78.388 72.194,-72.388 78.194,-78.388 84.194,-72.388 90.194,-78.388 96.194,-72.388 102.194,-78.388 
			108.194,-72.388 114.194,-78.388 120.194,-72.388 126.194,-78.388 132.194,-72.388 138.194,-78.388 144.194,-72.388 		"/>
		<polyline fill="none" stroke="#595A5C" stroke-width="0.5481" stroke-miterlimit="10" points="0.194,-66.388 6.194,-72.388 
			12.194,-66.388 18.194,-72.388 24.194,-66.388 30.194,-72.388 36.194,-66.388 42.194,-72.388 48.194,-66.388 54.194,-72.388 
			60.194,-66.388 66.194,-72.388 72.194,-66.388 78.194,-72.388 84.194,-66.388 90.194,-72.388 96.194,-66.388 102.194,-72.388 
			108.194,-66.388 114.194,-72.388 120.194,-66.388 126.194,-72.388 132.194,-66.388 138.194,-72.388 144.194,-66.388 		"/>
		<polyline fill="none" stroke="#595A5C" stroke-width="0.5481" stroke-miterlimit="10" points="0.194,-60.388 6.194,-66.388 
			12.194,-60.388 18.194,-66.388 24.194,-60.388 30.194,-66.388 36.194,-60.388 42.194,-66.388 48.194,-60.388 54.194,-66.388 
			60.194,-60.388 66.194,-66.388 72.194,-60.388 78.194,-66.388 84.194,-60.388 90.194,-66.388 96.194,-60.388 102.194,-66.388 
			108.194,-60.388 114.194,-66.388 120.194,-60.388 126.194,-66.388 132.194,-60.388 138.194,-66.388 144.194,-60.388 		"/>
		<polyline fill="none" stroke="#595A5C" stroke-width="0.5481" stroke-miterlimit="10" points="0.194,-54.388 6.194,-60.388 
			12.194,-54.388 18.194,-60.388 24.194,-54.388 30.194,-60.388 36.194,-54.388 42.194,-60.388 48.194,-54.388 54.194,-60.388 
			60.194,-54.388 66.194,-60.388 72.194,-54.388 78.194,-60.388 84.194,-54.388 90.194,-60.388 96.194,-54.388 102.194,-60.388 
			108.194,-54.388 114.194,-60.388 120.194,-54.388 126.194,-60.388 132.194,-54.388 138.194,-60.388 144.194,-54.388 		"/>
		<polyline fill="none" stroke="#595A5C" stroke-width="0.5481" stroke-miterlimit="10" points="0.194,-48.388 6.194,-54.388 
			12.194,-48.388 18.194,-54.388 24.194,-48.388 30.194,-54.388 36.194,-48.388 42.194,-54.388 48.194,-48.388 54.194,-54.388 
			60.194,-48.388 66.194,-54.388 72.194,-48.388 78.194,-54.388 84.194,-48.388 90.194,-54.388 96.194,-48.388 102.194,-54.388 
			108.194,-48.388 114.194,-54.388 120.194,-48.388 126.194,-54.388 132.194,-48.388 138.194,-54.388 144.194,-48.388 		"/>
		<polyline fill="none" stroke="#595A5C" stroke-width="0.5481" stroke-miterlimit="10" points="0.194,-42.388 6.194,-48.388 
			12.194,-42.388 18.194,-48.388 24.194,-42.388 30.194,-48.388 36.194,-42.388 42.194,-48.388 48.194,-42.388 54.194,-48.388 
			60.194,-42.388 66.194,-48.388 72.194,-42.388 78.194,-48.388 84.194,-42.388 90.194,-48.388 96.194,-42.388 102.194,-48.388 
			108.194,-42.388 114.194,-48.388 120.194,-42.388 126.194,-48.388 132.194,-42.388 138.194,-48.388 144.194,-42.388 		"/>
		<polyline fill="none" stroke="#595A5C" stroke-width="0.5481" stroke-miterlimit="10" points="0.194,-36.388 6.194,-42.388 
			12.194,-36.388 18.194,-42.388 24.194,-36.388 30.194,-42.388 36.194,-36.388 42.194,-42.388 48.194,-36.388 54.194,-42.388 
			60.194,-36.388 66.194,-42.388 72.194,-36.388 78.194,-42.388 84.194,-36.388 90.194,-42.388 96.194,-36.388 102.194,-42.388 
			108.194,-36.388 114.194,-42.388 120.194,-36.388 126.194,-42.388 132.194,-36.388 138.194,-42.388 144.194,-36.388 		"/>
		<polyline fill="none" stroke="#595A5C" stroke-width="0.5481" stroke-miterlimit="10" points="0.194,-30.388 6.194,-36.388 
			12.194,-30.388 18.194,-36.388 24.194,-30.388 30.194,-36.388 36.194,-30.388 42.194,-36.388 48.194,-30.388 54.194,-36.388 
			60.194,-30.388 66.194,-36.388 72.194,-30.388 78.194,-36.388 84.194,-30.388 90.194,-36.388 96.194,-30.388 102.194,-36.388 
			108.194,-30.388 114.194,-36.388 120.194,-30.388 126.194,-36.388 132.194,-30.388 138.194,-36.388 144.194,-30.388 		"/>
		<polyline fill="none" stroke="#595A5C" stroke-width="0.5481" stroke-miterlimit="10" points="0.194,-24.388 6.194,-30.388 
			12.194,-24.388 18.194,-30.388 24.194,-24.388 30.194,-30.388 36.194,-24.388 42.194,-30.388 48.194,-24.388 54.194,-30.388 
			60.194,-24.388 66.194,-30.388 72.194,-24.388 78.194,-30.388 84.194,-24.388 90.194,-30.388 96.194,-24.388 102.194,-30.388 
			108.194,-24.388 114.194,-30.388 120.194,-24.388 126.194,-30.388 132.194,-24.388 138.194,-30.388 144.194,-24.388 		"/>
		<polyline fill="none" stroke="#595A5C" stroke-width="0.5481" stroke-miterlimit="10" points="0.194,-18.388 6.194,-24.388 
			12.194,-18.388 18.194,-24.388 24.194,-18.388 30.194,-24.388 36.194,-18.388 42.194,-24.388 48.194,-18.388 54.194,-24.388 
			60.194,-18.388 66.194,-24.388 72.194,-18.388 78.194,-24.388 84.194,-18.388 90.194,-24.388 96.194,-18.388 102.194,-24.388 
			108.194,-18.388 114.194,-24.388 120.194,-18.388 126.194,-24.388 132.194,-18.388 138.194,-24.388 144.194,-18.388 		"/>
		<polyline fill="none" stroke="#595A5C" stroke-width="0.5481" stroke-miterlimit="10" points="0.194,-12.388 6.194,-18.388 
			12.194,-12.388 18.194,-18.388 24.194,-12.388 30.194,-18.388 36.194,-12.388 42.194,-18.388 48.194,-12.388 54.194,-18.388 
			60.194,-12.388 66.194,-18.388 72.194,-12.388 78.194,-18.388 84.194,-12.388 90.194,-18.388 96.194,-12.388 102.194,-18.388 
			108.194,-12.388 114.194,-18.388 120.194,-12.388 126.194,-18.388 132.194,-12.388 138.194,-18.388 144.194,-12.388 		"/>
		<polyline fill="none" stroke="#595A5C" stroke-width="0.5481" stroke-miterlimit="10" points="0.194,-6.388 6.194,-12.388 
			12.194,-6.388 18.194,-12.388 24.194,-6.388 30.194,-12.388 36.194,-6.388 42.194,-12.388 48.194,-6.388 54.194,-12.388 
			60.194,-6.388 66.194,-12.388 72.194,-6.388 78.194,-12.388 84.194,-6.388 90.194,-12.388 96.194,-6.388 102.194,-12.388 
			108.194,-6.388 114.194,-12.388 120.194,-6.388 126.194,-12.388 132.194,-6.388 138.194,-12.388 144.194,-6.388 		"/>
		<polyline fill="none" stroke="#595A5C" stroke-width="0.5481" stroke-miterlimit="10" points="0.194,-0.388 6.194,-6.388 
			12.194,-0.388 18.194,-6.388 24.194,-0.388 30.194,-6.388 36.194,-0.388 42.194,-6.388 48.194,-0.388 54.194,-6.388 
			60.194,-0.388 66.194,-6.388 72.194,-0.388 78.194,-6.388 84.194,-0.388 90.194,-6.388 96.194,-0.388 102.194,-6.388 
			108.194,-0.388 114.194,-6.388 120.194,-0.388 126.194,-6.388 132.194,-0.388 138.194,-6.388 144.194,-0.388 		"/>
	</g>
</pattern>
<g>
	
		<rect x="279.208" y="103.103" transform="matrix(0.9877 0.1562 -0.1562 0.9877 24.7396 -45.2487)" fill="#D1D2D3" stroke="#595A5C" stroke-width="0.5" stroke-miterlimit="10" width="42.314" height="63.467"/>
	
		<rect x="279.451" y="100.006" transform="matrix(-0.9877 -0.1565 0.1565 -0.9877 537.4711 305.795)" fill="#F2F2F2" stroke="#595A5C" stroke-width="0.5" stroke-miterlimit="10" width="2.646" height="63.467"/>
	
		<rect x="291.835" y="114.05" transform="matrix(0.9877 0.1561 -0.1561 0.9877 22.7677 -45.9225)" fill="#F2F2F2" stroke="#595A5C" stroke-width="0.5" stroke-miterlimit="10" width="23.802" height="15.866"/>
	
		<line fill="none" stroke="#595A5C" stroke-width="0.5" stroke-miterlimit="10" x1="295.007" y1="117.926" x2="313.291" y2="120.816"/>
	
		<line fill="none" stroke="#595A5C" stroke-width="0.5" stroke-miterlimit="10" x1="294.181" y1="123.15" x2="312.466" y2="126.04"/>
	<polygon fill="#20BAB3" stroke="#595A5C" stroke-width="0.5" stroke-miterlimit="10" points="303.246,167.419 302.007,175.255 
		305.032,173.058 307.23,176.083 308.469,168.246 	"/>
</g>
<g>
	
		<rect x="275.058" y="123.652" fill="#F2F2F2" stroke="#595A5C" stroke-width="0.5" stroke-miterlimit="10" width="1.154" height="41.542"/>
	<polygon fill="#F2F2F2" stroke="#595A5C" stroke-width="0.5" stroke-miterlimit="10" points="277.365,116.728 276.212,120.19 
		278.521,120.19 	"/>
	<polygon fill="#F2F2F2" stroke="#595A5C" stroke-width="0.5" stroke-miterlimit="10" points="276.212,120.19 275.058,123.652 
		279.674,123.652 278.521,120.19 	"/>
	
		<rect x="276.212" y="123.652" fill="#F2F2F2" stroke="#595A5C" stroke-width="0.5" stroke-miterlimit="10" width="2.309" height="41.542"/>
	
		<rect x="278.521" y="123.652" fill="#F2F2F2" stroke="#595A5C" stroke-width="0.5" stroke-miterlimit="10" width="1.153" height="41.542"/>
	
		<rect x="275.058" y="165.194" fill="#F2F2F2" stroke="#595A5C" stroke-width="0.5" stroke-miterlimit="10" width="4.616" height="1.153"/>
	
		<rect x="275.058" y="166.348" fill="#F2F2F2" stroke="#595A5C" stroke-width="0.5" stroke-miterlimit="10" width="4.616" height="2.309"/>
	<path fill="#F2F2F2" stroke="#595A5C" stroke-width="0.5" stroke-miterlimit="10" d="M275.058,168.656v2.308
		c0,0,0,1.153,1.154,1.153h2.309c0,0,1.153,0,1.153-1.153v-2.308H275.058z"/>
</g>
<g>
	
		<rect x="266.864" y="115.158" transform="matrix(0.9955 0.095 -0.095 0.9955 12.8728 -25.0214)" fill="#F2F2F2" stroke="#595A5C" stroke-width="0.5" stroke-miterlimit="10" width="4.615" height="15.003"/>
	
		<rect x="266.094" y="130.125" transform="matrix(0.9954 0.0954 -0.0954 0.9954 13.6927 -25.009)" fill="#F2F2F2" stroke="#595A5C" stroke-width="0.5" stroke-miterlimit="10" width="4.617" height="1.153"/>
	
		<rect x="264.444" y="131.199" transform="matrix(0.9954 0.0956 -0.0956 0.9954 15.3723 -24.836)" fill="#F2F2F2" stroke="#595A5C" stroke-width="0.5" stroke-miterlimit="10" width="4.615" height="33.465"/>
	<path fill="#F2F2F2" stroke="#595A5C" stroke-width="0.5" stroke-miterlimit="10" d="M267.589,114.973c0,0,0.22-2.296,2.518-2.077
		c2.298,0.222,2.076,2.519,2.076,2.519L267.589,114.973z"/>
	<path fill="#F2F2F2" stroke="#595A5C" stroke-width="0.5" stroke-miterlimit="10" d="M268.737,115.085l-1.759,18.378
		c0,0-0.111,1.149,1.038,1.259c1.148,0.11,1.26-1.039,1.26-1.039l1.759-18.38L268.737,115.085z"/>
	
		<rect x="262.795" y="164.585" transform="matrix(0.9954 0.0956 -0.0956 0.9954 17.0052 -24.5893)" fill="#F2F2F2" stroke="#595A5C" stroke-width="0.5" stroke-miterlimit="10" width="4.617" height="1.155"/>
	<path fill="#F2F2F2" stroke="#595A5C" stroke-width="0.5" stroke-miterlimit="10" d="M262.75,165.517c0,0-0.109,1.147,1.04,1.258
		l2.297,0.221c0,0,1.149,0.108,1.259-1.037L262.75,165.517z"/>
</g>
<g>
	<circle fill="#F2F2F2" stroke="#595A5C" stroke-width="0.5" stroke-miterlimit="10" cx="282.947" cy="64.315" r="23.497"/>
	<path fill="#F2F2F2" stroke="#595A5C" stroke-width="0.5" stroke-miterlimit="10" d="M285.456,69.51l14.769,14.768
		c0,0,1.343,1.342,2.685,0c0,0,1.343-1.343,0-2.685l-14.767-14.769L285.456,69.51z"/>
	<circle fill="#F2F2F2" stroke="#595A5C" stroke-width="0.5" stroke-miterlimit="10" cx="282.947" cy="64.315" r="14.685"/>
	<circle fill="#595A5C" stroke="#595A5C" stroke-width="0.5" stroke-miterlimit="10" cx="282.946" cy="64.315" r="11.748"/>
	<g>
		<circle fill="#595A5C" stroke="#F2F2F2" stroke-width="0.5" stroke-miterlimit="10" cx="280.01" cy="64.315" r="2.937"/>
		<circle fill="#595A5C" stroke="#F2F2F2" stroke-width="0.5" stroke-miterlimit="10" cx="278.542" cy="59.91" r="1.468"/>
		<circle fill="#595A5C" stroke="#F2F2F2" stroke-width="0.5" stroke-miterlimit="10" cx="275.605" cy="68.721" r="1.468"/>
	</g>
</g>
<pattern  id="SVGID_1_" xlink:href="#New_Pattern_Swatch_1" patternTransform="matrix(0.1171 -0.1707 0.1707 0.1171 -5607.1528 -8592.0479)">
</pattern>
<path fill="url(#SVGID_1_)" stroke="#595A5C" stroke-width="0.5" stroke-miterlimit="10" d="M52.743,107.667
	c0,0-1.536-1.054-0.482-2.59l18.974-27.655c0,0,1.054-1.536,2.59-0.482L89.188,87.48c0,0,1.536,1.054,0.482,2.59l-18.973,27.655
	c0,0-1.054,1.536-2.59,0.481L52.743,107.667z"/>
<path fill="#F2F2F2" stroke="#595A5C" stroke-width="0.5" stroke-miterlimit="10" d="M58.845,103.264c0,0-1.318-1.318-0.001-2.636
	l23.715-23.713c0,0,1.317-1.319,2.635,0l13.175,13.174c0,0,1.318,1.317,0,2.635l-23.714,23.713c0,0-1.317,1.318-2.635,0
	L58.845,103.264z"/>
<rect x="57.34" y="92.178" transform="matrix(0.7071 -0.7071 0.7071 0.7071 -44.2458 81.2661)" fill="#595A5C" stroke="#595A5C" stroke-width="0.5" stroke-miterlimit="10" width="37.263" height="3.726"/>
<g>
	
		<rect x="69.096" y="106.594" transform="matrix(0.707 -0.7072 0.7072 0.707 -54.8512 82.0351)" fill="#595A5C" stroke="#595A5C" stroke-width="0.5" stroke-miterlimit="10" width="4.968" height="1.243"/>
	
		<rect x="73.305" y="101.764" transform="matrix(0.7071 -0.7071 0.7071 0.7071 -50.017 84.0184)" fill="#595A5C" stroke="#595A5C" stroke-width="0.5" stroke-miterlimit="10" width="6.211" height="1.242"/>
	
		<rect x="70.307" y="107.035" transform="matrix(0.7071 -0.7071 0.7071 0.7071 -54.2572 84.3152)" fill="#595A5C" stroke="#595A5C" stroke-width="0.5" stroke-miterlimit="10" width="8.695" height="1.241"/>
</g>
<path fill="#D1D2D3" stroke="#595A5C" stroke-width="0.5" stroke-miterlimit="10" d="M103.569,83.243l-5.222-73.099
	c0,0,0-5.221,5.222-5.221h146.199c0,0,5.221,0,5.221,5.221l-5.221,73.099H103.569z"/>
<polygon fill="#FFFFFF" stroke="#595A5C" stroke-width="0.5" stroke-miterlimit="10" points="104.114,10.349 109.335,78.227 
	245.091,78.227 250.312,10.349 "/>
<g>
	<g>
		<path fill="#D1D2D3" stroke="#595A5C" stroke-width="0.5" stroke-miterlimit="10" d="M103.569,83.243v78.32
			c0,0,0,5.223,5.221,5.223h135.755c0,0,5.223,0,5.223-5.223v-78.32H103.569z"/>
		
			<rect x="109.335" y="88.465" fill="#F2F2F2" stroke="#595A5C" stroke-width="0.5" stroke-miterlimit="10" width="135.755" height="5.221"/>
		
			<rect x="109.335" y="99.112" fill="#F2F2F2" stroke="#595A5C" stroke-width="0.5" stroke-miterlimit="10" width="135.755" height="36.55"/>
		
			<rect x="140.664" y="125.22" fill="#F2F2F2" stroke="#595A5C" stroke-width="0.5" stroke-miterlimit="10" width="73.099" height="10.442"/>
		
			<rect x="109.335" y="114.776" fill="#F2F2F2" stroke="#595A5C" stroke-width="0.5" stroke-miterlimit="10" width="135.755" height="10.443"/>
		
			<rect x="109.335" y="104.333" fill="#F2F2F2" stroke="#595A5C" stroke-width="0.5" stroke-miterlimit="10" width="135.755" height="10.443"/>
	</g>
	<path fill="#F2F2F2" stroke="#595A5C" stroke-width="0.5" stroke-miterlimit="10" d="M161.004,145.9c0,0,0-3.917,3.916-3.917
		h23.497c0,0,3.916,0,3.916,3.917v11.748c0,0,0,3.915-3.916,3.915H164.92c0,0-3.916,0-3.916-3.915V145.9z"/>
	<g>
		
			<line fill="none" stroke="#595A5C" stroke-width="0.5" stroke-miterlimit="10" x1="166.771" y1="125.22" x2="166.771" y2="114.776"/>
		
			<line fill="none" stroke="#595A5C" stroke-width="0.5" stroke-miterlimit="10" x1="182.434" y1="114.776" x2="182.434" y2="125.22"/>
		
			<line fill="none" stroke="#595A5C" stroke-width="0.5" stroke-miterlimit="10" x1="151.106" y1="125.22" x2="151.106" y2="114.776"/>
		
			<line fill="none" stroke="#595A5C" stroke-width="0.5" stroke-miterlimit="10" x1="198.098" y1="125.22" x2="198.098" y2="114.776"/>
	</g>
	
		<line fill="none" stroke="#595A5C" stroke-width="0.5" stroke-miterlimit="10" x1="135.442" y1="114.776" x2="135.442" y2="125.22"/>
	
		<line fill="none" stroke="#595A5C" stroke-width="0.5" stroke-miterlimit="10" x1="119.778" y1="114.776" x2="119.778" y2="125.22"/>
	
		<line fill="none" stroke="#595A5C" stroke-width="0.5" stroke-miterlimit="10" x1="213.763" y1="114.776" x2="213.763" y2="125.22"/>
	
		<line fill="none" stroke="#595A5C" stroke-width="0.5" stroke-miterlimit="10" x1="229.427" y1="114.776" x2="229.427" y2="125.22"/>
	
		<line fill="none" stroke="#595A5C" stroke-width="0.5" stroke-miterlimit="10" x1="124.999" y1="114.776" x2="124.999" y2="104.333"/>
	
		<line fill="none" stroke="#595A5C" stroke-width="0.5" stroke-miterlimit="10" x1="140.664" y1="114.776" x2="140.664" y2="104.333"/>
	
		<line fill="none" stroke="#595A5C" stroke-width="0.5" stroke-miterlimit="10" x1="156.328" y1="114.776" x2="156.328" y2="104.333"/>
	
		<line fill="none" stroke="#595A5C" stroke-width="0.5" stroke-miterlimit="10" x1="171.991" y1="114.776" x2="171.991" y2="104.333"/>
	
		<line fill="none" stroke="#595A5C" stroke-width="0.5" stroke-miterlimit="10" x1="187.655" y1="114.776" x2="187.655" y2="104.333"/>
	
		<line fill="none" stroke="#595A5C" stroke-width="0.5" stroke-miterlimit="10" x1="203.32" y1="114.776" x2="203.32" y2="104.333"/>
	
		<line fill="none" stroke="#595A5C" stroke-width="0.5" stroke-miterlimit="10" x1="218.984" y1="114.776" x2="218.984" y2="104.333"/>
	
		<line fill="none" stroke="#595A5C" stroke-width="0.5" stroke-miterlimit="10" x1="234.648" y1="114.776" x2="234.648" y2="104.333"/>
	
		<line fill="none" stroke="#595A5C" stroke-width="0.5" stroke-miterlimit="10" x1="119.778" y1="104.333" x2="119.778" y2="99.112"/>
	
		<line fill="none" stroke="#595A5C" stroke-width="0.5" stroke-miterlimit="10" x1="135.442" y1="104.333" x2="135.442" y2="99.112"/>
	
		<line fill="none" stroke="#595A5C" stroke-width="0.5" stroke-miterlimit="10" x1="151.106" y1="104.333" x2="151.106" y2="99.112"/>
	
		<line fill="none" stroke="#595A5C" stroke-width="0.5" stroke-miterlimit="10" x1="166.771" y1="104.333" x2="166.771" y2="99.112"/>
	
		<line fill="none" stroke="#595A5C" stroke-width="0.5" stroke-miterlimit="10" x1="182.434" y1="104.333" x2="182.434" y2="99.112"/>
	
		<line fill="none" stroke="#595A5C" stroke-width="0.5" stroke-miterlimit="10" x1="198.098" y1="104.333" x2="198.098" y2="99.112"/>
	
		<line fill="none" stroke="#595A5C" stroke-width="0.5" stroke-miterlimit="10" x1="213.763" y1="104.333" x2="213.763" y2="99.112"/>
	
		<line fill="none" stroke="#595A5C" stroke-width="0.5" stroke-miterlimit="10" x1="229.427" y1="104.333" x2="229.427" y2="99.112"/>
	
		<line fill="none" stroke="#595A5C" stroke-width="0.5" stroke-miterlimit="10" x1="119.778" y1="125.22" x2="119.778" y2="135.662"/>
	
		<line fill="none" stroke="#595A5C" stroke-width="0.5" stroke-miterlimit="10" x1="130.221" y1="125.22" x2="130.221" y2="135.662"/>
	
		<line fill="none" stroke="#595A5C" stroke-width="0.5" stroke-miterlimit="10" x1="224.205" y1="125.22" x2="224.205" y2="135.662"/>
	
		<line fill="none" stroke="#595A5C" stroke-width="0.5" stroke-miterlimit="10" x1="234.648" y1="125.22" x2="234.648" y2="135.662"/>
</g>
<g>
	<g>
		<polygon fill="#F2F2F2" stroke="#595A5C" stroke-width="0.5" stroke-miterlimit="10" points="155.167,158.613 155.181,155.632 
			148.23,153.771 137.205,156.423 140.587,144.87 148.66,124.866 155.783,109.351 153.055,107.15 142.507,122.384 132.451,140.834 
			131.84,140.532 138.899,126.757 132.521,125.898 125.148,137.059 130.328,126.741 124.642,125.391 120.5,131.052 123.36,125.816 
			118.573,124.827 114.04,131.701 114.04,131.701 114.039,131.702 112.104,134.634 112.104,134.634 100.165,155.75 101.072,165.86 
			82.026,198.319 104.114,206.603 118.164,176.688 131.43,167.563 131.43,167.563 		"/>
		<g>
			
				<rect x="92.328" y="175.654" transform="matrix(0.8498 0.5271 -0.5271 0.8498 110.8097 -27.9458)" fill="#20BAB3" stroke="#595A5C" stroke-width="0.5" stroke-miterlimit="10" width="24.231" height="9.643"/>
			
				<rect x="111.129" y="181.009" transform="matrix(0.8498 0.5271 -0.5271 0.8498 114.9347 -31.6937)" fill="#20BAB3" stroke="#595A5C" stroke-width="0.5" stroke-miterlimit="10" width="3.904" height="9.644"/>
		</g>
		<g>
			<polygon fill="#20BAB3" stroke="#595A5C" stroke-width="0.5" stroke-miterlimit="10" points="96.5,183.612 95.818,181.02 
				100.595,172.833 103.188,172.152 111.375,176.929 112.057,179.521 107.28,187.708 104.688,188.389 			"/>
			
				<rect x="98.38" y="177.898" transform="matrix(0.5039 -0.8637 0.8637 0.5039 -104.1411 178.2553)" fill="#595A5C" stroke="#595A5C" stroke-width="0.5" stroke-miterlimit="10" width="9.478" height="3.79"/>
			<circle fill="#20BAB3" stroke="#595A5C" stroke-width="0.5" stroke-miterlimit="10" cx="105.301" cy="185.456" r="0.949"/>
			<circle fill="#20BAB3" stroke="#595A5C" stroke-width="0.5" stroke-miterlimit="10" cx="107.212" cy="182.182" r="0.948"/>
			<circle fill="#20BAB3" stroke="#595A5C" stroke-width="0.5" stroke-miterlimit="10" cx="109.123" cy="178.907" r="0.948"/>
		</g>
		<polygon fill="#F2F2F2" stroke="#595A5C" stroke-width="0.5" stroke-miterlimit="10" points="149.49,160.753 148.851,155.83 
			155.177,156.527 155.167,158.613 		"/>
	</g>
	<polygon fill="#F2F2F2" stroke="#595A5C" stroke-width="0.5" stroke-miterlimit="10" points="150.631,110.71 153.301,111.788 
		154.655,108.431 153.087,107.164 	"/>
</g>
<g>
	<g>
		<polygon fill="#F2F2F2" stroke="#595A5C" stroke-width="0.5" stroke-miterlimit="10" points="200.602,153.306 201.679,149.353 
			206.476,150.513 212.698,155.033 210.637,147.995 202.565,128.57 195.441,113.056 198.749,112.015 208.717,126.087 
			218.774,144.539 219.385,144.236 202.84,112.667 207.586,111.591 226.076,140.763 212.001,116.244 215.675,114.917 
			230.725,134.756 221.57,119.44 224.813,119.122 237.185,135.405 237.185,135.405 237.186,135.406 239.12,138.338 239.12,138.338 
			251.06,159.453 250.153,169.564 265.976,193.098 243.889,201.382 233.061,180.392 219.795,171.267 219.795,171.267 		"/>
		<polygon fill="#F2F2F2" stroke="#595A5C" stroke-width="0.5" stroke-miterlimit="10" points="205.216,157.495 205.854,152.572 
			201.482,150.074 200.602,153.306 		"/>
	</g>
	<polygon fill="#F2F2F2" stroke="#595A5C" stroke-width="0.5" stroke-miterlimit="10" points="201.459,116.011 198.789,117.088 
		196.107,112.847 198.749,112.015 	"/>
	<polygon fill="#F2F2F2" stroke="#595A5C" stroke-width="0.5" stroke-miterlimit="10" points="209.688,115.779 206.763,116.359 
		203.838,112.441 207.223,111.59 	"/>
	<polygon fill="#F2F2F2" stroke="#595A5C" stroke-width="0.5" stroke-miterlimit="10" points="218.09,118.633 215.684,119.551 
		212.738,115.974 215.675,114.917 	"/>
	<polygon fill="#F2F2F2" stroke="#595A5C" stroke-width="0.5" stroke-miterlimit="10" points="226.851,121.968 224.601,122.549 
		222.352,119.363 224.813,119.122 	"/>
</g>
<g>
	<defs>
		<polygon id="SVGID_2_" points="104.114,10.349 109.335,78.227 245.091,78.227 250.312,10.349 		"/>
	</defs>
	<clipPath id="SVGID_3_">
		<use xlink:href="#SVGID_2_"  overflow="visible"/>
	</clipPath>
	<g clip-path="url(#SVGID_3_)">
		<path fill="#F2F2F2" stroke="#595A5C" stroke-width="0.5" stroke-miterlimit="10" d="M173.933,54.2c0,0-4.436-21.551,2.06-40.657
			c0,0,3.893,30.384,17.374,41.853L173.933,54.2z"/>
		<polyline fill="none" stroke="#595A5C" stroke-width="0.5" stroke-miterlimit="10" points="143.25,62.95 141.593,61.075 
			153.958,61.837 155.506,65.478 		"/>
		<line fill="none" stroke="#595A5C" stroke-width="0.5" stroke-miterlimit="10" x1="150.425" y1="61.62" x2="151.974" y2="65.26"/>
		
			<line fill="none" stroke="#595A5C" stroke-width="0.5" stroke-miterlimit="10" x1="146.893" y1="61.402" x2="148.441" y2="65.043"/>
		
			<line fill="none" stroke="#595A5C" stroke-width="0.5" stroke-miterlimit="10" x1="143.359" y1="61.184" x2="144.908" y2="64.826"/>
		<polygon fill="#F2F2F2" stroke="#595A5C" stroke-width="0.5" stroke-miterlimit="10" points="155.398,67.245 162.899,60.614 
			189.396,62.245 190.729,69.419 		"/>
		
			<rect x="181.95" y="66.525" transform="matrix(0.9981 0.0614 -0.0614 0.9981 4.5548 -11.6401)" fill="#F2F2F2" stroke="#595A5C" stroke-width="0.5" stroke-miterlimit="10" width="19.468" height="3.541"/>
		<path fill="#F2F2F2" stroke="#595A5C" stroke-width="0.5" stroke-miterlimit="10" d="M143.25,62.95l59.952,5.463l-3.943,6.456
			l-44.162-2.718C155.097,72.152,144.473,71.892,143.25,62.95z"/>
		<polygon fill="#F2F2F2" stroke="#595A5C" stroke-width="0.5" stroke-miterlimit="10" points="201.327,70.071 199.259,74.87 
			202.792,75.087 204.86,70.289 		"/>
		<polygon fill="#F2F2F2" stroke="#595A5C" stroke-width="0.5" stroke-miterlimit="10" points="161.024,62.271 159.149,63.929 
			164.448,64.255 164.557,62.489 		"/>
		
			<rect x="166.261" y="62.868" transform="matrix(0.9981 0.0615 -0.0615 0.9981 4.2413 -10.3706)" fill="#F2F2F2" stroke="#595A5C" stroke-width="0.5" stroke-miterlimit="10" width="8.85" height="1.769"/>
		
			<rect x="176.86" y="63.52" transform="matrix(0.9981 0.0614 -0.0614 0.9981 4.2975 -11.0116)" fill="none" stroke="#595A5C" stroke-width="0.5" stroke-miterlimit="10" width="8.849" height="1.77"/>
		<polygon fill="#F2F2F2" stroke="#595A5C" stroke-width="0.5" stroke-miterlimit="10" points="171.732,61.158 175.109,13.489 
			175.992,13.543 173.498,61.266 		"/>
		<path fill="#F2F2F2" stroke="#595A5C" stroke-width="0.5" stroke-miterlimit="10" d="M175.109,13.489
			c0,0-47.131,9.511-33.516,47.586c0,0,4.512-15.681,30.575-6.984C172.167,54.091,150.514,38.573,175.109,13.489z"/>
	</g>
	<path clip-path="url(#SVGID_3_)" fill="#FFFFFF" stroke="#595A5C" stroke-width="0.5" stroke-miterlimit="10" d="M108.899,72.422
		c0,0,6.531-3.267,13.061,0c6.53,3.265,13.061,0,13.061,0s6.53-3.267,13.061,0c6.53,3.265,13.061,0,13.061,0s6.529-3.267,13.06,0
		c6.531,3.265,13.062,0,13.062,0s6.53-3.267,13.061,0c6.53,3.265,13.062,0,13.062,0s6.53-3.267,13.06,0
		c6.531,3.265,13.061,0,13.061,0s6.53-3.267,13.062,0c6.531,3.265,13.062,0,13.062,0v13.061H108.899V72.422z"/>
	<use xlink:href="#SVGID_2_"  overflow="visible" fill="none" stroke="#595A5C" stroke-width="0.5" stroke-miterlimit="10"/>
</g>
<line fill="none" stroke="#595A5C" stroke-width="0.5" stroke-miterlimit="10" x1="192.333" y1="30.837" x2="222.404" y2="30.837"/>
<line fill="none" stroke="#595A5C" stroke-width="0.5" stroke-miterlimit="10" x1="187.656" y1="37.413" x2="203.32" y2="37.413"/>
<line fill="none" stroke="#595A5C" stroke-width="0.5" stroke-miterlimit="10" x1="195.442" y1="42.44" x2="234.648" y2="42.44"/>
<g>
	<path fill="#F2F2F2" stroke="#595A5C" stroke-width="0.5" stroke-miterlimit="10" d="M45.106,109.707c0,0-0.341-1.917,1.578-2.258
		l26.848-4.767c0,0,1.919-0.341,2.259,1.577l8.853,49.862c0,0,0.34,1.918-1.578,2.259l-26.849,4.766c0,0-1.917,0.341-2.257-1.576
		L45.106,109.707z"/>
	
		<rect x="49.122" y="108.556" transform="matrix(0.9846 -0.1748 0.1748 0.9846 -21.8941 13.3259)" fill="#20BAB3" stroke="#595A5C" stroke-width="0.5" stroke-miterlimit="10" width="31.164" height="44.797"/>
	<circle fill="#F2F2F2" stroke="#595A5C" stroke-width="0.5" stroke-miterlimit="10" cx="69.11" cy="155.779" r="1.948"/>
	<g>
		<g>
			<circle fill="#F2F2F2" stroke="#595A5C" stroke-width="0.5" stroke-miterlimit="10" cx="50.777" cy="108.841" r="0.974"/>
			<circle fill="#F2F2F2" stroke="#595A5C" stroke-width="0.5" stroke-miterlimit="10" cx="50.777" cy="108.841" r="0.487"/>
		</g>
		<path fill="#F2F2F2" stroke="#595A5C" stroke-width="0.5" stroke-miterlimit="10" d="M54.454,108.196c0,0-0.102-0.57,0.469-0.672
			l10.845-1.926c0,0,0.57-0.101,0.671,0.47c0,0,0.102,0.571-0.469,0.673l-10.844,1.925
			C55.126,108.666,54.556,108.767,54.454,108.196z"/>
	</g>
</g>
</svg>
