<?xml version="1.0" encoding="utf-8"?>
<!-- Generator: Adobe Illustrator 16.0.0, SVG Export Plug-In . SVG Version: 6.00 Build 0)  -->
<!DOCTYPE svg PUBLIC "-//W3C//DTD SVG 1.1//EN" "http://www.w3.org/Graphics/SVG/1.1/DTD/svg11.dtd">
<svg version="1.1" id="Layer_1" xmlns="http://www.w3.org/2000/svg" xmlns:xlink="http://www.w3.org/1999/xlink" x="0px" y="0px"
	 width="360px" height="210px" viewBox="0 0 360 210" enable-background="new 0 0 360 210" xml:space="preserve">
<g>
	<g>
		<g>
			<path fill="#D0D2D3" stroke="#58595B" stroke-width="0.5" stroke-miterlimit="10" d="M251.504,111.23
				c0,0-12.078-20.083-37.776,0.844c-25.699,20.927-12.393,63.514,22.961,51.819c35.355-11.693,50.3-2.967,50.3-2.967
				s-21.139-7.976-51.26,10.142c-30.126,18.118-74.593-5.486-55.357-55.343C199.609,65.87,253.891,87.917,251.504,111.23z"/>
			<path fill="#E6E7E8" stroke="#58595B" stroke-width="0.5" stroke-miterlimit="10" d="M251.758,101.404
				c0,0-13.957-23.206-43.654,0.976c-29.698,24.182-14.319,73.396,26.535,59.882c40.855-13.51,52.35-1.335,52.35-1.335
				s-19.111-11.038-53.92,9.898c-34.812,20.936-85.739-6.612-63.508-64.225C191.792,48.988,254.516,74.465,251.758,101.404z"/>
			<path fill="#F1F1F2" stroke="#58595B" stroke-width="0.5" stroke-miterlimit="10" d="M245.926,92.655
				c0,0-16.425-27.309-51.373,1.147c-34.948,28.457-16.851,86.371,31.229,70.471c48.077-15.901,61.207-3.347,61.207-3.347
				s-18.157-11.737-59.121,12.9s-116.429-11.146-90.269-78.944C163.76,27.085,249.17,60.954,245.926,92.655z"/>
			<path fill="#F1F1F2" stroke="#58595B" stroke-width="0.5" stroke-miterlimit="10" d="M235.776,75.783
				c0,0-20.358-33.85-63.677,1.423c-43.315,35.271-20.886,107.053,38.707,87.344c59.589-19.706,75.865-4.145,75.865-4.145
				s-14.914-9.468-65.688,21.072c-50.771,30.536-151.904-18.9-119.477-102.934C133.933-5.489,239.799,36.489,235.776,75.783z"/>
		</g>
		<path fill="none" stroke="#58595B" stroke-width="0.5" stroke-miterlimit="10" d="M286.672,160.405c0,0-15.686-9.321-75.048,8.78
			c-59.361,18.104-127.23-18.276-108.631-94.282"/>
	</g>
	<g>
		<circle fill="#FFFFFF" stroke="#58595B" stroke-width="0.5" stroke-miterlimit="10" cx="233.97" cy="133.53" r="14.414"/>
		<g>
			<path fill="#F1F1F2" stroke="#58595B" stroke-width="0.5" stroke-miterlimit="10" d="M95.203,71.271c0,0,0-5.548-5.548-5.548
				c-5.547,0-5.547,5.548-5.547,5.548H95.203z"/>
			<path fill="#F1F1F2" stroke="#58595B" stroke-width="0.5" stroke-miterlimit="10" d="M89.655,71.271c0,0,0-8.322-8.322-8.322
				s-8.322,8.322-8.322,8.322H89.655z"/>
		</g>
		<g>
			<path fill="#F1F1F2" stroke="#58595B" stroke-width="0.5" stroke-miterlimit="10" d="M245.982,143.141c0,0,0-3.603-3.604-3.603
				c-3.604,0-3.604,3.603-3.604,3.603H245.982z"/>
			<path fill="#F1F1F2" stroke="#58595B" stroke-width="0.5" stroke-miterlimit="10" d="M267.602,143.141c0,0,0-4.805-4.803-4.805
				c-4.807,0-4.807,4.805-4.807,4.805H267.602z"/>
			<path fill="#F1F1F2" stroke="#58595B" stroke-width="0.5" stroke-miterlimit="10" d="M262.799,143.141c0,0,0-12.011-7.207-12.011
				c-7.208,0-7.208,12.011-7.208,12.011H262.799z"/>
			<path fill="#F1F1F2" stroke="#58595B" stroke-width="0.5" stroke-miterlimit="10" d="M255.592,143.141c0,0,0-6.006-6.007-6.006
				c-6.006,0-6.006,6.006-6.006,6.006H255.592z"/>
		</g>
		<path fill="none" stroke="#58595B" stroke-width="0.5" stroke-miterlimit="10" d="M104.31,53.241c0,0-2.774,0-5.548,2.773
			c0,0,0-2.773-5.548-2.773"/>
		<path fill="none" stroke="#58595B" stroke-width="0.5" stroke-miterlimit="10" d="M127.976,26.891c0,0-5.548,0-5.548,2.773
			c0,0,0-2.773-5.548-2.773"/>
		<path fill="none" stroke="#58595B" stroke-width="0.5" stroke-miterlimit="10" d="M84.891,39.371c0,0-5.548,0-5.548,2.773
			c0,0,0-2.773-5.547-2.773"/>
		<path fill="none" stroke="#58595B" stroke-width="0.5" stroke-miterlimit="10" d="M281.843,119.228c0,0-5.548,0-5.548,2.774
			c0,0,0-2.774-5.548-2.774"/>
		<path fill="none" stroke="#58595B" stroke-width="0.5" stroke-miterlimit="10" d="M123.727,36.597c0,0-5.547,0-5.547,5.548
			c0,0,0-5.548-5.548-5.548"/>
		<path fill="none" stroke="#58595B" stroke-width="0.5" stroke-miterlimit="10" d="M270.747,113.681c0,0-5.549,0-5.549,5.547
			c0,0,0-5.547-5.547-5.547"/>
	</g>
	<g>
		<path fill="#FFFFFF" stroke="#58595B" stroke-width="0.5" stroke-miterlimit="10" d="M136.955,113.122
			c0,0-15.125-9.415-15.382-26.467c-0.276-18.069,19.93-9.323,12.701,1.721C127.435,98.823,136.955,113.122,136.955,113.122z"/>
		<g>
			<path fill="#1FBAB3" stroke="#58595B" stroke-width="0.5" stroke-miterlimit="10" d="M132.686,106.854l-6.187,3.164
				c0,0,56.885,41.009,84.815,35.41C211.313,145.428,197.82,133.119,132.686,106.854z"/>
			
				<line fill="none" stroke="#58595B" stroke-width="0.5" stroke-miterlimit="10" x1="211.313" y1="145.428" x2="129.89" y2="108.284"/>
			<polygon fill="#F1F1F2" stroke="#58595B" stroke-width="0.5" stroke-miterlimit="10" points="172.389,104.458 175.191,111.07 
				174.399,113.646 171.481,126.26 174.809,129.36 177.141,131.695 176.537,132.285 171.283,129.945 167.424,128.185 
				166.692,126.832 168.519,123.68 168.247,113.784 169.883,111.787 166.956,106.544 			"/>
			<polygon fill="#1FBAB3" stroke="#58595B" stroke-width="0.5" stroke-miterlimit="10" points="163.838,88.007 157.534,91.242 
				156.021,104.084 162.249,107.319 165.284,105.354 165.632,103.96 166.584,107.101 172.979,105.848 170.077,97.886 
				165.332,92.984 			"/>
			<polygon fill="#F1F1F2" stroke="#58595B" stroke-width="0.5" stroke-miterlimit="10" points="165.284,105.354 164.097,111.664 
				161.927,113.766 148.783,114.763 148.82,117.255 151.214,119.728 150.805,120.89 145.566,118.843 144.78,114.072 
				145.589,111.866 149.008,111.707 156.338,108.126 158.521,108.126 158.492,103.673 161.429,102.363 			"/>
			<path fill="#F1F1F2" stroke="#58595B" stroke-width="0.5" stroke-miterlimit="10" d="M185.868,135.798
				c-0.507,0.38-0.197,1.649,0.686,2.84c0.889,1.188,2.02,1.844,2.529,1.464c0.505-0.378,0.199-1.649-0.688-2.838
				C187.51,136.073,186.378,135.42,185.868,135.798z"/>
			
				<rect x="179.201" y="135.487" transform="matrix(0.2207 -0.9753 0.9753 0.2207 8.8306 283.3802)" fill="#F1F1F2" stroke="#58595B" stroke-width="0.5" stroke-miterlimit="10" width="5.097" height="1.354"/>
			
				<rect x="157.062" y="118.697" transform="matrix(0.357 -0.9341 0.9341 0.357 -10.0348 224.1658)" fill="#F1F1F2" stroke="#58595B" stroke-width="0.5" stroke-miterlimit="10" width="1.481" height="1.349"/>
			
				<rect x="147.888" y="112.383" transform="matrix(0.1625 0.9867 -0.9867 0.1625 237.0786 -53.3276)" fill="#1FBAB3" stroke="#58595B" stroke-width="0.5" stroke-miterlimit="10" width="4.129" height="1.218"/>
			<g>
				<path fill="#F1F1F2" stroke="#58595B" stroke-width="0.5" stroke-miterlimit="10" d="M178.811,81.143l2.028,4.255l1.055,5.68
					l8.993,1.725l1.887-2.576l3.542,1.079l-0.107,2.988l-4.817,1.126c0,0-11.827-0.607-12.006-0.98
					c-0.178-0.374-4.237-9.815-4.237-9.815"/>
				
					<rect x="187.697" y="93.25" transform="matrix(0.0017 -1 1 0.0017 95.5904 283.4645)" fill="#1FBAB3" stroke="#58595B" stroke-width="0.5" stroke-miterlimit="10" width="4.131" height="1.217"/>
			</g>
			<polygon fill="#F1F1F2" stroke="#58595B" stroke-width="0.5" stroke-miterlimit="10" points="177.01,77.455 169.541,78.455 
				157.534,91.242 162.346,93.854 168.753,96.521 178.308,84.516 179.816,79.929 			"/>
			<polyline fill="#F1F1F2" stroke="#58595B" stroke-width="0.5" stroke-miterlimit="10" points="175.67,78.36 178.149,75.317 
				181.166,69.14 185.842,69.437 187.814,73.518 186.399,76.417 186.326,78.89 185.075,79.126 183.071,81.493 179.67,80.314 			"/>
			<polyline fill="#F1F1F2" stroke="#58595B" stroke-width="0.5" stroke-miterlimit="10" points="172.763,78.13 169.15,77.75 
				156.928,77.831 151.149,87.021 149.495,88.147 148.048,91.561 150.437,93.27 153.297,91.001 153.453,88.05 158.778,81.437 
				167.385,82.504 172.353,82.395 			"/>
			<polygon fill="#1FBAB3" stroke="#58595B" stroke-width="0.5" stroke-miterlimit="10" points="176.178,74.682 175.163,74.001 
				178.053,73.205 175.576,72.151 177.253,71.228 180.468,68.338 183.544,68.388 182.092,67.402 184.143,67.649 188.801,70.143 
				189.068,72.113 187.814,73.518 184.463,74.746 186.664,71.932 183.98,73.178 183.827,73.273 182.224,76.519 180.922,76.405 
				182.201,73.402 181.075,72.848 181.026,72.887 179.339,75.241 178.149,75.317 177.305,76.352 175.044,75.298 			"/>
			<g>
				<circle fill="#1FBAB3" stroke="#58595B" stroke-width="0.5" stroke-miterlimit="10" cx="180.607" cy="81.913" r="0.425"/>
				<circle fill="#1FBAB3" stroke="#58595B" stroke-width="0.5" stroke-miterlimit="10" cx="179.928" cy="82.54" r="0.424"/>
				<path fill="#1FBAB3" stroke="#58595B" stroke-width="0.5" stroke-miterlimit="10" d="M178.225,82.336
					c-0.082,0.219,0.028,0.465,0.248,0.547c0.221,0.082,0.465-0.029,0.546-0.246c0.083-0.22-0.026-0.466-0.244-0.545
					C178.555,82.006,178.308,82.117,178.225,82.336z"/>
				<path fill="#1FBAB3" stroke="#58595B" stroke-width="0.5" stroke-miterlimit="10" d="M176.828,81.364
					c-0.083,0.217,0.028,0.463,0.245,0.546c0.22,0.083,0.464-0.027,0.55-0.246c0.081-0.22-0.029-0.465-0.248-0.545
					C177.156,81.034,176.91,81.144,176.828,81.364z"/>
				<circle fill="#1FBAB3" stroke="#58595B" stroke-width="0.5" stroke-miterlimit="10" cx="175.972" cy="80.154" r="0.425"/>
				<circle fill="#1FBAB3" stroke="#58595B" stroke-width="0.5" stroke-miterlimit="10" cx="174.867" cy="78.41" r="0.424"/>
				<circle fill="#1FBAB3" stroke="#58595B" stroke-width="0.5" stroke-miterlimit="10" cx="174.002" cy="77.198" r="0.424"/>
				<path fill="#1FBAB3" stroke="#58595B" stroke-width="0.5" stroke-miterlimit="10" d="M173.273,75.596
					c-0.083,0.219,0.026,0.462,0.245,0.546c0.22,0.085,0.464-0.027,0.546-0.245c0.084-0.219-0.027-0.465-0.245-0.546
					C173.602,75.264,173.357,75.376,173.273,75.596z"/>
				<circle fill="#1FBAB3" stroke="#58595B" stroke-width="0.5" stroke-miterlimit="10" cx="175.214" cy="76.332" r="0.424"/>
			</g>
		</g>
		<path fill="#FFFFFF" stroke="#58595B" stroke-width="0.5" stroke-miterlimit="10" d="M137.834,114.242
			c0,0-13.141-2.807-17.686-14.838c-4.82-12.75,11.754-11.715,9.45-2.03C127.421,106.534,137.834,114.242,137.834,114.242z"/>
		<circle fill="#FFFFFF" stroke="#58595B" stroke-width="0.5" stroke-miterlimit="10" cx="127.914" cy="66.708" r="1.975"/>
		<circle fill="#FFFFFF" stroke="#58595B" stroke-width="0.5" stroke-miterlimit="10" cx="134.272" cy="72.224" r="1.318"/>
		<circle fill="#FFFFFF" stroke="#58595B" stroke-width="0.5" stroke-miterlimit="10" cx="150.358" cy="53.591" r="2.81"/>
		<circle fill="#FFFFFF" stroke="#58595B" stroke-width="0.5" stroke-miterlimit="10" cx="135.996" cy="97.825" r="1.469"/>
		<circle fill="#FFFFFF" stroke="#58595B" stroke-width="0.5" stroke-miterlimit="10" cx="120.186" cy="101.795" r="2.083"/>
		<circle fill="#FFFFFF" stroke="#58595B" stroke-width="0.5" stroke-miterlimit="10" cx="161.446" cy="40.159" r="1.679"/>
		<circle fill="#FFFFFF" stroke="#58595B" stroke-width="0.5" stroke-miterlimit="10" cx="132.413" cy="114.466" r="2.185"/>
		<circle fill="#FFFFFF" stroke="#58595B" stroke-width="0.5" stroke-miterlimit="10" cx="125.612" cy="111.73" r="4.213"/>
		<path fill="#FFFFFF" stroke="#58595B" stroke-width="0.5" stroke-miterlimit="10" d="M135.46,120.923
			c0.188,0.89-0.38,1.765-1.27,1.951c-0.89,0.189-1.764-0.381-1.953-1.27c-0.188-0.892,0.381-1.765,1.271-1.951
			C134.398,119.462,135.272,120.033,135.46,120.923z"/>
		<circle fill="#FFFFFF" stroke="#58595B" stroke-width="0.5" stroke-miterlimit="10" cx="139.669" cy="120.033" r="2.115"/>
		<circle fill="#FFFFFF" stroke="#58595B" stroke-width="0.5" stroke-miterlimit="10" cx="114.63" cy="81.914" r="3.758"/>
	</g>
</g>
</svg>
