<?xml version="1.0" encoding="utf-8"?>
<!-- Generator: Adobe Illustrator 16.0.0, SVG Export Plug-In . SVG Version: 6.00 Build 0)  -->
<!DOCTYPE svg PUBLIC "-//W3C//DTD SVG 1.1//EN" "http://www.w3.org/Graphics/SVG/1.1/DTD/svg11.dtd">
<svg version="1.1" id="Layer_1" xmlns="http://www.w3.org/2000/svg" xmlns:xlink="http://www.w3.org/1999/xlink" x="0px" y="0px"
	 width="360px" height="210px" viewBox="0 0 360 210" enable-background="new 0 0 360 210" xml:space="preserve">
<g>
	<g>
		<g>
			<g>
				
					<rect x="233.297" y="33.519" fill="#F1F1F2" stroke="#58595B" stroke-width="0.5" stroke-miterlimit="10" width="5.995" height="4.497"/>
			</g>
			<g>
				<path fill="#F1F1F2" stroke="#58595B" stroke-width="0.5" stroke-miterlimit="10" d="M240.792,17.029
					c0-4.497-4.498-4.497-4.498-4.497s-4.496,0-4.496,4.497c0,4.497,2.998,4.497,1.499,16.489h2.997h2.998
					C237.793,21.526,240.792,21.526,240.792,17.029z"/>
			</g>
			<g>
				
					<ellipse fill="#F1F1F2" stroke="#58595B" stroke-width="0.5" stroke-miterlimit="10" cx="236.295" cy="33.519" rx="4.497" ry="1.382"/>
			</g>
		</g>
		<g>
			<g>
				
					<rect x="233.297" y="116.081" fill="#F1F1F2" stroke="#58595B" stroke-width="0.5" stroke-miterlimit="10" width="5.995" height="4.497"/>
			</g>
			<g>
				<path fill="#F1F1F2" stroke="#58595B" stroke-width="0.5" stroke-miterlimit="10" d="M231.798,137.067
					c0,4.496,4.496,4.496,4.496,4.496s4.498,0,4.498-4.496c0-4.498-2.999-4.498-1.5-16.489h-2.998h-2.997
					C234.796,132.569,231.798,132.569,231.798,137.067z"/>
			</g>
			<g>
				
					<ellipse fill="#F1F1F2" stroke="#58595B" stroke-width="0.5" stroke-miterlimit="10" cx="236.295" cy="120.578" rx="4.497" ry="1.383"/>
			</g>
		</g>
	</g>
	<g>
		<g>
			<g>
				
					<rect x="275.325" y="74.051" fill="#F1F1F2" stroke="#58595B" stroke-width="0.5" stroke-miterlimit="10" width="4.498" height="5.996"/>
			</g>
			<g>
				<path fill="#F1F1F2" stroke="#58595B" stroke-width="0.5" stroke-miterlimit="10" d="M296.312,81.545
					c4.497,0,4.497-4.497,4.497-4.497s0-4.497-4.497-4.497s-4.497,2.999-16.488,1.5v2.998v2.998
					C291.814,78.547,291.814,81.545,296.312,81.545z"/>
			</g>
			<g>
				
					<ellipse fill="#F1F1F2" stroke="#58595B" stroke-width="0.5" stroke-miterlimit="10" cx="279.823" cy="77.048" rx="1.383" ry="4.497"/>
			</g>
		</g>
		<g>
			<g>
				
					<rect x="192.765" y="74.05" fill="#F1F1F2" stroke="#58595B" stroke-width="0.5" stroke-miterlimit="10" width="4.497" height="5.996"/>
			</g>
			<g>
				<path fill="#F1F1F2" stroke="#58595B" stroke-width="0.5" stroke-miterlimit="10" d="M176.275,72.551
					c-4.497,0-4.497,4.497-4.497,4.497s0,4.497,4.497,4.497c4.498,0,4.498-2.998,16.489-1.499v-2.999V74.05
					C180.773,75.549,180.773,72.551,176.275,72.551z"/>
			</g>
			<g>
				
					<ellipse fill="#F1F1F2" stroke="#58595B" stroke-width="0.5" stroke-miterlimit="10" cx="192.765" cy="77.048" rx="1.383" ry="4.497"/>
			</g>
		</g>
	</g>
	<g>
		<g>
			<g>
				
					<rect x="262.485" y="103.99" transform="matrix(-0.707 0.7072 -0.7072 -0.707 528.3177 -6.3944)" fill="#F1F1F2" stroke="#58595B" stroke-width="0.5" stroke-miterlimit="10" width="5.996" height="4.498"/>
			</g>
			<g>
				<path fill="#F1F1F2" stroke="#58595B" stroke-width="0.5" stroke-miterlimit="10" d="M275.554,122.668
					c3.18,3.179,6.359,0,6.359,0s3.18-3.18,0-6.36c-3.18-3.18-5.301-1.06-12.72-10.599l-2.121,2.119l-2.118,2.12
					C274.493,117.368,272.373,119.488,275.554,122.668z"/>
			</g>
			<g>
				
					<ellipse transform="matrix(-0.7071 0.7072 -0.7072 -0.7071 532.1608 -4.7959)" fill="#F1F1F2" stroke="#58595B" stroke-width="0.5" stroke-miterlimit="10" cx="267.074" cy="107.828" rx="4.496" ry="1.382"/>
			</g>
		</g>
		<g>
			<g>
				
					<rect x="204.108" y="45.609" transform="matrix(0.707 -0.7072 0.7072 0.707 26.832 160.4834)" fill="#F1F1F2" stroke="#58595B" stroke-width="0.5" stroke-miterlimit="10" width="5.995" height="4.497"/>
			</g>
			<g>
				<path fill="#F1F1F2" stroke="#58595B" stroke-width="0.5" stroke-miterlimit="10" d="M197.034,31.429
					c-3.18-3.18-6.359,0-6.359,0s-3.18,3.18,0,6.36c3.18,3.18,5.301,1.06,12.721,10.599l2.119-2.12l2.12-2.119
					C198.095,36.729,200.215,34.608,197.034,31.429z"/>
			</g>
			<g>
				
					<ellipse transform="matrix(0.7071 -0.7072 0.7072 0.7071 27.486 158.8861)" fill="#F1F1F2" stroke="#58595B" stroke-width="0.5" stroke-miterlimit="10" cx="205.515" cy="46.268" rx="4.497" ry="1.382"/>
			</g>
		</g>
	</g>
	<g>
		<g>
			<g>
				
					<rect x="262.486" y="45.609" transform="matrix(0.7071 0.7071 -0.7071 0.7071 111.5989 -173.7079)" fill="#F1F1F2" stroke="#58595B" stroke-width="0.5" stroke-miterlimit="10" width="5.995" height="4.497"/>
			</g>
			<g>
				<path fill="#F1F1F2" stroke="#58595B" stroke-width="0.5" stroke-miterlimit="10" d="M281.913,37.789c3.18-3.18,0-6.359,0-6.359
					s-3.18-3.181-6.359,0c-3.181,3.179-1.061,5.299-10.6,12.719l2.12,2.119l2.119,2.12
					C276.612,38.849,278.733,40.968,281.913,37.789z"/>
			</g>
			<g>
				
					<ellipse transform="matrix(0.707 0.7072 -0.7072 0.707 110.9746 -175.322)" fill="#F1F1F2" stroke="#58595B" stroke-width="0.5" stroke-miterlimit="10" cx="267.074" cy="46.268" rx="4.497" ry="1.382"/>
			</g>
		</g>
		<g>
			<g>
				
					<rect x="204.108" y="103.99" transform="matrix(-0.707 -0.7072 0.7072 -0.707 278.4038 327.814)" fill="#F1F1F2" stroke="#58595B" stroke-width="0.5" stroke-miterlimit="10" width="5.995" height="4.497"/>
			</g>
			<g>
				<path fill="#F1F1F2" stroke="#58595B" stroke-width="0.5" stroke-miterlimit="10" d="M190.675,116.308
					c-3.18,3.181,0,6.359,0,6.359s3.18,3.18,6.359,0c3.18-3.179,1.061-5.299,10.601-12.719l-2.12-2.121l-2.119-2.119
					C195.976,115.248,193.854,113.128,190.675,116.308z"/>
			</g>
			<g>
				
					<ellipse transform="matrix(-0.7071 -0.7071 0.7071 -0.7071 274.5894 329.3949)" fill="#F1F1F2" stroke="#58595B" stroke-width="0.5" stroke-miterlimit="10" cx="205.515" cy="107.828" rx="4.497" ry="1.382"/>
			</g>
		</g>
	</g>
	<g>
		<g>
			<g>
				
					<rect x="233.172" y="44.148" fill="#F1F1F2" stroke="#58595B" stroke-width="0.5" stroke-miterlimit="10" width="6.246" height="3.079"/>
			</g>
			<g>
				
					<rect x="233.172" y="59.547" fill="#F1F1F2" stroke="#58595B" stroke-width="0.5" stroke-miterlimit="10" width="6.246" height="3.08"/>
			</g>
			<g>
				<polygon fill="#F1F1F2" stroke="#58595B" stroke-width="0.5" stroke-miterlimit="10" points="234.212,48.254 233.172,53.387 
					234.212,58.521 238.377,58.521 239.418,53.387 238.377,48.254 				"/>
			</g>
			<g>
				<path fill="#F1F1F2" stroke="#58595B" stroke-width="0.5" stroke-miterlimit="10" d="M239.418,59.034
					c0,0.283-0.466,0.513-1.041,0.513h-4.165c-0.574,0-1.04-0.23-1.04-0.513l0,0c0-0.284,0.466-0.513,1.04-0.513h4.165
					C238.952,58.521,239.418,58.75,239.418,59.034L239.418,59.034z"/>
			</g>
			<g>
				<path fill="#F1F1F2" stroke="#58595B" stroke-width="0.5" stroke-miterlimit="10" d="M239.418,47.742
					c0-0.284-0.466-0.514-1.041-0.514h-4.165c-0.574,0-1.04,0.23-1.04,0.514l0,0c0,0.283,0.466,0.513,1.04,0.513h4.165
					C238.952,48.254,239.418,48.025,239.418,47.742L239.418,47.742z"/>
			</g>
		</g>
		<g>
			<g>
				
					<rect x="233.172" y="91.678" fill="#F1F1F2" stroke="#58595B" stroke-width="0.5" stroke-miterlimit="10" width="6.246" height="3.08"/>
			</g>
			<g>
				
					<rect x="233.172" y="107.077" fill="#F1F1F2" stroke="#58595B" stroke-width="0.5" stroke-miterlimit="10" width="6.246" height="3.079"/>
			</g>
			<g>
				<polygon fill="#F1F1F2" stroke="#58595B" stroke-width="0.5" stroke-miterlimit="10" points="234.212,95.785 233.172,100.918 
					234.212,106.051 238.377,106.051 239.418,100.918 238.377,95.785 				"/>
			</g>
			<g>
				<path fill="#F1F1F2" stroke="#58595B" stroke-width="0.5" stroke-miterlimit="10" d="M239.418,106.564
					c0,0.283-0.466,0.513-1.041,0.513h-4.165c-0.574,0-1.04-0.229-1.04-0.513l0,0c0-0.284,0.466-0.514,1.04-0.514h4.165
					C238.952,106.051,239.418,106.28,239.418,106.564L239.418,106.564z"/>
			</g>
			<g>
				<path fill="#F1F1F2" stroke="#58595B" stroke-width="0.5" stroke-miterlimit="10" d="M239.418,95.271
					c0-0.283-0.466-0.513-1.041-0.513h-4.165c-0.574,0-1.04,0.23-1.04,0.513l0,0c0,0.284,0.466,0.514,1.04,0.514h4.165
					C238.952,95.785,239.418,95.555,239.418,95.271L239.418,95.271z"/>
			</g>
		</g>
	</g>
	<g>
		<g>
			<g>
				
					<rect x="266.218" y="74.029" fill="#F1F1F2" stroke="#58595B" stroke-width="0.5" stroke-miterlimit="10" width="3.08" height="6.246"/>
			</g>
			<g>
				
					<rect x="250.819" y="74.029" fill="#F1F1F2" stroke="#58595B" stroke-width="0.5" stroke-miterlimit="10" width="3.079" height="6.246"/>
			</g>
			<g>
				<polygon fill="#F1F1F2" stroke="#58595B" stroke-width="0.5" stroke-miterlimit="10" points="265.191,75.071 260.059,74.029 
					254.925,75.071 254.925,79.234 260.059,80.275 265.191,79.234 				"/>
			</g>
			<g>
				<path fill="#F1F1F2" stroke="#58595B" stroke-width="0.5" stroke-miterlimit="10" d="M254.412,80.275
					c-0.283,0-0.514-0.466-0.514-1.041v-4.164c0-0.575,0.23-1.042,0.514-1.042l0,0c0.284,0,0.513,0.467,0.513,1.042v4.164
					C254.925,79.809,254.696,80.275,254.412,80.275L254.412,80.275z"/>
			</g>
			<g>
				<path fill="#F1F1F2" stroke="#58595B" stroke-width="0.5" stroke-miterlimit="10" d="M265.704,80.275
					c0.283,0,0.514-0.466,0.514-1.041v-4.164c0-0.575-0.23-1.042-0.514-1.042l0,0c-0.282,0-0.513,0.467-0.513,1.042v4.164
					C265.191,79.809,265.422,80.275,265.704,80.275L265.704,80.275z"/>
			</g>
		</g>
		<g>
			<g>
				
					<rect x="218.689" y="74.029" fill="#F1F1F2" stroke="#58595B" stroke-width="0.5" stroke-miterlimit="10" width="3.079" height="6.246"/>
			</g>
			<g>
				
					<rect x="203.29" y="74.029" fill="#F1F1F2" stroke="#58595B" stroke-width="0.5" stroke-miterlimit="10" width="3.081" height="6.246"/>
			</g>
			<g>
				<polygon fill="#F1F1F2" stroke="#58595B" stroke-width="0.5" stroke-miterlimit="10" points="217.662,75.071 212.529,74.029 
					207.396,75.071 207.396,79.234 212.529,80.275 217.662,79.234 				"/>
			</g>
			<g>
				<path fill="#F1F1F2" stroke="#58595B" stroke-width="0.5" stroke-miterlimit="10" d="M206.884,80.275
					c-0.284,0-0.513-0.466-0.513-1.041v-4.164c0-0.575,0.229-1.042,0.513-1.042l0,0c0.282,0,0.513,0.467,0.513,1.042v4.164
					C207.396,79.809,207.166,80.275,206.884,80.275L206.884,80.275z"/>
			</g>
			<g>
				<path fill="#F1F1F2" stroke="#58595B" stroke-width="0.5" stroke-miterlimit="10" d="M218.175,80.275
					c0.285,0,0.515-0.466,0.515-1.041v-4.164c0-0.575-0.229-1.042-0.515-1.042l0,0c-0.282,0-0.513,0.467-0.513,1.042v4.164
					C217.662,79.809,217.893,80.275,218.175,80.275L218.175,80.275z"/>
			</g>
		</g>
	</g>
	<g>
		<g>
			<g>
				
					<rect x="255.42" y="97.861" transform="matrix(-0.7071 0.7071 -0.7071 -0.7071 511.6408 -13.1424)" fill="#F1F1F2" stroke="#58595B" stroke-width="0.5" stroke-miterlimit="10" width="6.246" height="3.08"/>
			</g>
			<g>
				
					<rect x="244.532" y="86.973" transform="matrix(-0.7071 0.7071 -0.7071 -0.7071 485.3604 -24.017)" fill="#F1F1F2" stroke="#58595B" stroke-width="0.5" stroke-miterlimit="10" width="6.245" height="3.079"/>
			</g>
			<g>
				<polygon fill="#F1F1F2" stroke="#58595B" stroke-width="0.5" stroke-miterlimit="10" points="258.2,96.115 255.307,91.749 
					250.94,88.854 247.997,91.8 250.891,96.165 255.256,99.059 				"/>
			</g>
			<g>
				<path fill="#F1F1F2" stroke="#58595B" stroke-width="0.5" stroke-miterlimit="10" d="M246.899,92.173
					c-0.202-0.201-0.035-0.693,0.372-1.099l2.943-2.944c0.406-0.407,0.898-0.573,1.1-0.374l0,0c0.2,0.201,0.033,0.693-0.374,1.099
					l-2.943,2.945C247.59,92.206,247.099,92.374,246.899,92.173L246.899,92.173z"/>
			</g>
			<g>
				<path fill="#F1F1F2" stroke="#58595B" stroke-width="0.5" stroke-miterlimit="10" d="M254.883,100.157
					c0.2,0.202,0.693,0.035,1.099-0.372l2.945-2.944c0.405-0.407,0.572-0.899,0.372-1.1l0,0c-0.2-0.2-0.693-0.032-1.099,0.374
					l-2.944,2.944C254.849,99.465,254.683,99.957,254.883,100.157L254.883,100.157z"/>
			</g>
		</g>
		<g>
			<g>
				
					<rect x="221.813" y="64.252" transform="matrix(-0.7071 0.7071 -0.7071 -0.7071 430.5164 -46.7278)" fill="#F1F1F2" stroke="#58595B" stroke-width="0.5" stroke-miterlimit="10" width="6.245" height="3.08"/>
			</g>
			<g>
				
					<rect x="210.924" y="53.364" transform="matrix(-0.7071 0.7071 -0.7071 -0.7071 404.2229 -57.627)" fill="#F1F1F2" stroke="#58595B" stroke-width="0.5" stroke-miterlimit="10" width="6.245" height="3.08"/>
			</g>
			<g>
				<polygon fill="#F1F1F2" stroke="#58595B" stroke-width="0.5" stroke-miterlimit="10" points="224.592,62.506 221.698,58.14 
					217.333,55.246 214.389,58.19 217.282,62.556 221.647,65.45 				"/>
			</g>
			<g>
				<path fill="#F1F1F2" stroke="#58595B" stroke-width="0.5" stroke-miterlimit="10" d="M213.29,58.564
					c-0.201-0.201-0.035-0.693,0.372-1.099l2.944-2.944c0.406-0.407,0.898-0.574,1.1-0.373l0,0c0.2,0.2,0.033,0.692-0.373,1.099
					l-2.944,2.944C213.981,58.597,213.49,58.764,213.29,58.564L213.29,58.564z"/>
			</g>
			<g>
				<path fill="#F1F1F2" stroke="#58595B" stroke-width="0.5" stroke-miterlimit="10" d="M221.274,66.548
					c0.2,0.202,0.692,0.034,1.099-0.372l2.944-2.945c0.406-0.406,0.574-0.898,0.373-1.1l0,0c-0.2-0.2-0.692-0.033-1.099,0.374
					l-2.944,2.944C221.241,65.856,221.074,66.348,221.274,66.548L221.274,66.548z"/>
			</g>
		</g>
	</g>
	<g>
		<g>
			<g>
				
					<rect x="210.922" y="97.861" transform="matrix(-0.7072 -0.707 0.707 -0.7072 295.1357 321.0323)" fill="#F1F1F2" stroke="#58595B" stroke-width="0.5" stroke-miterlimit="10" width="6.246" height="3.08"/>
			</g>
			<g>
				
					<rect x="221.811" y="86.973" transform="matrix(-0.707 -0.7072 0.7072 -0.707 321.3742 310.1633)" fill="#F1F1F2" stroke="#58595B" stroke-width="0.5" stroke-miterlimit="10" width="6.246" height="3.079"/>
			</g>
			<g>
				<polygon fill="#F1F1F2" stroke="#58595B" stroke-width="0.5" stroke-miterlimit="10" points="217.333,99.059 221.698,96.165 
					224.593,91.799 221.647,88.854 217.282,91.749 214.389,96.114 				"/>
			</g>
			<g>
				<path fill="#F1F1F2" stroke="#58595B" stroke-width="0.5" stroke-miterlimit="10" d="M221.274,87.756
					c0.2-0.2,0.692-0.034,1.099,0.373l2.944,2.945c0.406,0.406,0.573,0.898,0.373,1.099l0,0c-0.2,0.201-0.692,0.032-1.098-0.374
					l-2.945-2.944C221.241,88.448,221.074,87.957,221.274,87.756L221.274,87.756z"/>
			</g>
			<g>
				<path fill="#F1F1F2" stroke="#58595B" stroke-width="0.5" stroke-miterlimit="10" d="M213.29,95.741
					c-0.202,0.201-0.035,0.693,0.372,1.1l2.944,2.943c0.406,0.407,0.898,0.574,1.1,0.373l0,0c0.2-0.2,0.033-0.692-0.373-1.098
					l-2.944-2.945C213.981,95.708,213.49,95.541,213.29,95.741L213.29,95.741z"/>
			</g>
		</g>
		<g>
			<g>
				
					<rect x="244.533" y="64.252" transform="matrix(-0.707 -0.7072 0.7072 -0.707 376.2265 287.447)" fill="#F1F1F2" stroke="#58595B" stroke-width="0.5" stroke-miterlimit="10" width="6.244" height="3.08"/>
			</g>
			<g>
				
					<rect x="255.419" y="53.363" transform="matrix(-0.7072 -0.707 0.707 -0.7072 402.5606 276.5271)" fill="#F1F1F2" stroke="#58595B" stroke-width="0.5" stroke-miterlimit="10" width="6.246" height="3.081"/>
			</g>
			<g>
				<polygon fill="#F1F1F2" stroke="#58595B" stroke-width="0.5" stroke-miterlimit="10" points="250.94,65.449 255.307,62.556 
					258.2,58.19 255.256,55.246 250.891,58.14 247.997,62.505 				"/>
			</g>
			<g>
				<path fill="#F1F1F2" stroke="#58595B" stroke-width="0.5" stroke-miterlimit="10" d="M254.883,54.147
					c0.2-0.201,0.692-0.034,1.099,0.373l2.945,2.944c0.405,0.406,0.572,0.899,0.372,1.1l0,0c-0.2,0.2-0.693,0.032-1.099-0.374
					l-2.944-2.944C254.849,54.839,254.683,54.348,254.883,54.147L254.883,54.147z"/>
			</g>
			<g>
				<path fill="#F1F1F2" stroke="#58595B" stroke-width="0.5" stroke-miterlimit="10" d="M246.899,62.132
					c-0.202,0.201-0.035,0.693,0.372,1.099l2.943,2.944c0.406,0.407,0.898,0.574,1.1,0.373l0,0c0.2-0.2,0.033-0.692-0.374-1.099
					l-2.943-2.944C247.59,62.099,247.099,61.932,246.899,62.132L246.899,62.132z"/>
			</g>
		</g>
	</g>
	<g>
		<path fill="#F1F1F2" stroke="#58595B" stroke-width="0.5" stroke-miterlimit="10" d="M236.294,118.021
			c-22.591,0-40.973-18.38-40.973-40.972s18.382-40.973,40.973-40.973c22.592,0,40.973,18.38,40.973,40.973
			S258.886,118.021,236.294,118.021z M236.294,46.069c-17.08,0-30.979,13.897-30.979,30.979s13.898,30.98,30.979,30.98
			c17.081,0,30.978-13.898,30.978-30.98S253.375,46.069,236.294,46.069z"/>
	</g>
	<g>
		<path fill="#F1F1F2" stroke="#58595B" stroke-width="0.5" stroke-miterlimit="10" d="M236.294,93.537
			c-9.093,0-16.488-7.396-16.488-16.489s7.396-16.489,16.488-16.489s16.489,7.396,16.489,16.489S245.387,93.537,236.294,93.537z
			 M236.294,66.556c-5.785,0-10.492,4.707-10.492,10.493s4.707,10.493,10.492,10.493c5.787,0,10.494-4.707,10.494-10.493
			S242.081,66.556,236.294,66.556z"/>
	</g>
</g>
<g>
	<path fill="#F1F1F2" stroke="#58595B" stroke-width="0.5" stroke-miterlimit="10" d="M57.611,151.244c0,0-0.344-1.932,1.59-2.275
		l27.055-4.802c0,0,1.934-0.344,2.276,1.587l8.921,50.247c0,0,0.343,1.933-1.59,2.277l-27.055,4.802c0,0-1.933,0.343-2.276-1.589
		L57.611,151.244z"/>
	
		<rect x="61.657" y="150.085" transform="matrix(0.9846 -0.1748 0.1748 0.9846 -28.9926 16.1829)" fill="#FFFFFF" stroke="#58595B" stroke-width="0.5" stroke-miterlimit="10" width="31.405" height="45.143"/>
	<circle fill="#F1F1F2" stroke="#58595B" stroke-width="0.5" stroke-miterlimit="10" cx="81.801" cy="197.672" r="1.963"/>
	<g>
		<g>
			<circle fill="#F1F1F2" stroke="#58595B" stroke-width="0.5" stroke-miterlimit="10" cx="63.325" cy="150.372" r="0.982"/>
			<circle fill="#F1F1F2" stroke="#58595B" stroke-width="0.5" stroke-miterlimit="10" cx="63.325" cy="150.371" r="0.491"/>
		</g>
		<path fill="#F1F1F2" stroke="#58595B" stroke-width="0.5" stroke-miterlimit="10" d="M67.031,149.722c0,0-0.102-0.574,0.472-0.677
			l10.928-1.94c0,0,0.575-0.1,0.677,0.475c0,0,0.102,0.574-0.474,0.677l-10.927,1.94C67.708,150.196,67.133,150.298,67.031,149.722z
			"/>
	</g>
</g>
<g>
	<path fill="#F1F1F2" stroke="#58595B" stroke-width="0.5" stroke-miterlimit="10" d="M111.034,92.408c0,0,0-5.445,5.445-5.445
		h119.815c0,0,5.445,0,5.445,5.445v81.695H111.034V92.408z"/>
	
		<rect x="116.479" y="92.408" fill="#FFFFFF" stroke="#58595B" stroke-width="0.5" stroke-miterlimit="10" width="119.815" height="76.247"/>
	<path fill="#D0D2D3" stroke="#58595B" stroke-width="0.5" stroke-miterlimit="10" d="M100.143,174.104c0,0,0,5.443,5.443,5.443
		h141.603c0,0,5.444,0,5.444-5.443H100.143z"/>
	<path fill="#F1F1F2" stroke="#58595B" stroke-width="0.5" stroke-miterlimit="10" d="M165.495,174.104c0,0,0,3.627,3.632,3.627
		h14.521c0,0,3.632,0,3.632-3.627H165.495z"/>
</g>
<g>
	<g>
		
			<rect x="138.182" y="141.614" fill="#F1F1F2" stroke="#58595B" stroke-width="0.5" stroke-miterlimit="10" width="12.9" height="5.549"/>
		
			<rect x="137.775" y="140.524" fill="#F1F1F2" stroke="#58595B" stroke-width="0.5" stroke-miterlimit="10" width="13.715" height="1.09"/>
		
			<rect x="137.775" y="137.623" fill="#F1F1F2" stroke="#58595B" stroke-width="0.5" stroke-miterlimit="10" width="13.715" height="1.089"/>
		
			<rect x="148.51" y="142.49" fill="#F1F1F2" stroke="#58595B" stroke-width="0.5" stroke-miterlimit="10" width="1.204" height="2.027"/>
		
			<rect x="143.983" y="142.49" fill="#F1F1F2" stroke="#58595B" stroke-width="0.5" stroke-miterlimit="10" width="1.206" height="2.027"/>
		
			<rect x="139.458" y="142.49" fill="#F1F1F2" stroke="#58595B" stroke-width="0.5" stroke-miterlimit="10" width="1.205" height="2.027"/>
		
			<rect x="138.182" y="138.712" fill="#F1F1F2" stroke="#58595B" stroke-width="0.5" stroke-miterlimit="10" width="0.593" height="1.813"/>
		
			<rect x="150.278" y="138.712" fill="#F1F1F2" stroke="#58595B" stroke-width="0.5" stroke-miterlimit="10" width="0.592" height="1.813"/>
		
			<rect x="147.253" y="138.712" fill="#F1F1F2" stroke="#58595B" stroke-width="0.5" stroke-miterlimit="10" width="0.593" height="1.813"/>
		
			<rect x="144.229" y="138.712" fill="#F1F1F2" stroke="#58595B" stroke-width="0.5" stroke-miterlimit="10" width="0.592" height="1.813"/>
		
			<rect x="141.206" y="138.712" fill="#F1F1F2" stroke="#58595B" stroke-width="0.5" stroke-miterlimit="10" width="0.592" height="1.813"/>
	</g>
	<g>
		<path fill="#1FBAB3" stroke="#58595B" stroke-width="0.5" stroke-miterlimit="10" d="M177.338,119.553l0.001,0.001
			c-0.407-0.331-0.826-0.667-1.261-1.007c0,0,11.547,14.994,0.894,25.894c0,0,8.393,2.291,12.558-7.279
			C193.696,127.593,177.338,119.553,177.338,119.553z"/>
		<path fill="#1FBAB3" stroke="#58595B" stroke-width="0.5" stroke-miterlimit="10" d="M176.428,103.959
			c0,0,18.993,6.077-0.145,14.802C176.283,118.762,184.447,112.86,176.428,103.959z"/>
		<polygon fill="#F1F1F2" stroke="#58595B" stroke-width="0.5" stroke-miterlimit="10" points="176.071,95.314 176.973,152.049 
			174.267,152.049 175.17,95.314 		"/>
		<polygon fill="#F1F1F2" stroke="#58595B" stroke-width="0.5" stroke-miterlimit="10" points="178.255,99.745 177.201,103.959 
			174.041,103.959 172.987,99.745 		"/>
		
			<rect x="173.608" y="103.401" fill="#F1F1F2" stroke="#58595B" stroke-width="0.5" stroke-miterlimit="10" width="3.875" height="0.558"/>
		
			<rect x="174.267" y="118.547" fill="#F1F1F2" stroke="#58595B" stroke-width="0.5" stroke-miterlimit="10" width="2.706" height="0.451"/>
		
			<rect x="173.85" y="143.942" fill="#F1F1F2" stroke="#58595B" stroke-width="0.5" stroke-miterlimit="10" width="3.488" height="0.575"/>
	</g>
	<g>
		<path fill="#1FBAB3" stroke="#58595B" stroke-width="0.5" stroke-miterlimit="10" d="M195.236,122.602c0,0,22.119,10.231,0,17.788
			C195.236,140.39,202.977,132.688,195.236,122.602z"/>
		<path fill="#1FBAB3" stroke="#58595B" stroke-width="0.5" stroke-miterlimit="10" d="M195.256,109.764
			c0,0,14.165,6.644,0.876,13.819C196.132,123.583,200.676,116.108,195.256,109.764z"/>
		<path fill="#1FBAB3" stroke="#58595B" stroke-width="0.5" stroke-miterlimit="10" d="M195.236,110.004
			c0,0,24.195,7.535,24.195,27.157c0,0-5.464-4.179-12.497-0.545C206.935,136.616,213.554,122.09,195.236,110.004z"/>
		<polygon fill="#F1F1F2" stroke="#58595B" stroke-width="0.5" stroke-miterlimit="10" points="195.21,108.485 196.111,152.049 
			193.406,152.049 194.308,108.485 		"/>
		
			<rect x="193.709" y="122.388" fill="#F1F1F2" stroke="#58595B" stroke-width="0.5" stroke-miterlimit="10" width="2.006" height="0.446"/>
		
			<rect x="193.903" y="109.764" fill="#F1F1F2" stroke="#58595B" stroke-width="0.5" stroke-miterlimit="10" width="1.632" height="0.34"/>
	</g>
	<g>
		<path fill="#1FBAB3" stroke="#58595B" stroke-width="0.5" stroke-miterlimit="10" d="M158.935,125.795
			c-0.765-0.559-1.58-1.131-2.455-1.718c0,0,0.333,0.372,0.834,1.032c-0.029-0.011-0.056-0.021-0.085-0.031
			c0,0,0.031,0.012,0.088,0.034c2.449,3.235,8.897,13.405,0.058,21.16c0,0,5.183-0.884,8.481-3.473
			C177.735,135.291,163.979,128.048,158.935,125.795z"/>
		<path fill="#1FBAB3" stroke="#58595B" stroke-width="0.5" stroke-miterlimit="10" d="M157.374,110.3
			c0,0,18.992,6.068-0.146,14.778C157.229,125.078,165.392,119.188,157.374,110.3z"/>
		<polygon fill="#F1F1F2" stroke="#58595B" stroke-width="0.5" stroke-miterlimit="10" points="157.018,108.485 157.919,152.049 
			155.214,152.049 156.116,108.485 		"/>
		
			<rect x="155.443" y="124.824" fill="#F1F1F2" stroke="#58595B" stroke-width="0.5" stroke-miterlimit="10" width="2.476" height="0.422"/>
		
			<rect x="155.214" y="145.798" fill="#F1F1F2" stroke="#58595B" stroke-width="0.5" stroke-miterlimit="10" width="2.705" height="0.475"/>
		
			<rect x="155.637" y="109.934" fill="#F1F1F2" stroke="#58595B" stroke-width="0.5" stroke-miterlimit="10" width="1.737" height="0.366"/>
	</g>
	<polygon fill="#F1F1F2" stroke="#58595B" stroke-width="0.5" stroke-miterlimit="10" points="223.487,139.542 223.067,138.664 
		200.104,143.358 201.093,145.798 	"/>
	<polygon fill="#F1F1F2" stroke="#58595B" stroke-width="0.5" stroke-miterlimit="10" points="142.75,151.636 137.845,151.636 
		132.939,166.352 147.655,166.352 	"/>
	<path fill="#F1F1F2" stroke="#58595B" stroke-width="0.5" stroke-miterlimit="10" d="M206.521,141.824l-29.433,4.907v4.904h-19.621
		v-4.904l-19.482-1.265c0,0-0.141,20.885,9.669,20.885h44.149C191.804,166.352,206.521,166.352,206.521,141.824z"/>
	
		<line fill="#F1F1F2" stroke="#58595B" stroke-width="0.5" stroke-miterlimit="10" x1="206.521" y1="146.731" x2="177.088" y2="146.731"/>
	
		<line fill="#F1F1F2" stroke="#58595B" stroke-width="0.5" stroke-miterlimit="10" x1="157.468" y1="147.275" x2="138.032" y2="147.275"/>
	
		<line fill="#F1F1F2" stroke="#58595B" stroke-width="0.5" stroke-miterlimit="10" x1="205.456" y1="152.049" x2="138.3" y2="152.049"/>
	
		<line fill="#F1F1F2" stroke="#58595B" stroke-width="0.5" stroke-miterlimit="10" x1="203.833" y1="156.912" x2="139.387" y2="156.912"/>
	
		<line fill="#F1F1F2" stroke="#58595B" stroke-width="0.5" stroke-miterlimit="10" x1="200.868" y1="161.619" x2="141.124" y2="161.619"/>
	<g>
		<path fill="#F1F1F2" stroke="#58595B" stroke-width="0.5" stroke-miterlimit="10" d="M145.047,166.352c0,0,72.043-16.152,58.322,0
			H145.047z"/>
		<path fill="#F1F1F2" stroke="#58595B" stroke-width="0.5" stroke-miterlimit="10" d="M167.431,166.352c0,0,41.372-9.275,33.491,0
			H167.431z"/>
	</g>
	
		<rect x="146.047" y="153.339" fill="#F1F1F2" stroke="#58595B" stroke-width="0.5" stroke-miterlimit="10" width="1.703" height="2.325"/>
	
		<rect x="155.44" y="153.339" fill="#F1F1F2" stroke="#58595B" stroke-width="0.5" stroke-miterlimit="10" width="1.703" height="2.325"/>
	
		<rect x="164.833" y="153.339" fill="#F1F1F2" stroke="#58595B" stroke-width="0.5" stroke-miterlimit="10" width="1.702" height="2.325"/>
	
		<rect x="174.226" y="153.339" fill="#F1F1F2" stroke="#58595B" stroke-width="0.5" stroke-miterlimit="10" width="1.703" height="2.325"/>
	
		<rect x="183.619" y="153.339" fill="#F1F1F2" stroke="#58595B" stroke-width="0.5" stroke-miterlimit="10" width="1.702" height="2.325"/>
	
		<rect x="193.012" y="153.339" fill="#F1F1F2" stroke="#58595B" stroke-width="0.5" stroke-miterlimit="10" width="1.703" height="2.325"/>
	
		<rect x="157.468" y="149.465" fill="#F1F1F2" stroke="#58595B" stroke-width="0.5" stroke-miterlimit="10" width="6.259" height="0.774"/>
	
		<rect x="171.096" y="149.465" fill="#F1F1F2" stroke="#58595B" stroke-width="0.5" stroke-miterlimit="10" width="6.26" height="0.774"/>
	
		<rect x="162.242" y="150.239" fill="#F1F1F2" stroke="#58595B" stroke-width="0.5" stroke-miterlimit="10" width="0.646" height="1.396"/>
	
		<rect x="171.93" y="150.239" fill="#F1F1F2" stroke="#58595B" stroke-width="0.5" stroke-miterlimit="10" width="0.646" height="1.396"/>
</g>
<g>
	<g>
		
			<rect x="66.485" y="180.69" transform="matrix(-0.9814 0.1922 -0.1922 -0.9814 172.0821 347.0293)" fill="#F1F1F2" stroke="#58595B" stroke-width="0.5" stroke-miterlimit="10" width="5.446" height="2.343"/>
		
			<rect x="66.042" y="180.257" transform="matrix(-0.9814 0.1921 -0.1921 -0.9814 171.2571 344.3742)" fill="#F1F1F2" stroke="#58595B" stroke-width="0.5" stroke-miterlimit="10" width="5.791" height="0.461"/>
		
			<rect x="65.807" y="179.055" transform="matrix(-0.9814 0.1921 -0.1921 -0.9814 170.5606 342.0345)" fill="#F1F1F2" stroke="#58595B" stroke-width="0.5" stroke-miterlimit="10" width="5.791" height="0.458"/>
		
			<rect x="70.738" y="180.704" transform="matrix(-0.9807 0.1957 -0.1957 -0.9807 176.0675 344.863)" fill="#F1F1F2" stroke="#58595B" stroke-width="0.5" stroke-miterlimit="10" width="0.509" height="0.856"/>
		
			<rect x="68.862" y="181.071" transform="matrix(-0.9807 0.1954 -0.1954 -0.9807 172.362 345.9962)" fill="#F1F1F2" stroke="#58595B" stroke-width="0.5" stroke-miterlimit="10" width="0.51" height="0.856"/>
		
			<rect x="66.987" y="181.437" transform="matrix(-0.9818 0.19 -0.19 -0.9818 167.8157 347.6396)" fill="#F1F1F2" stroke="#58595B" stroke-width="0.5" stroke-miterlimit="10" width="0.509" height="0.857"/>
		
			<rect x="66.145" y="180.001" transform="matrix(0.9815 -0.1916 0.1916 0.9815 -33.3343 16.0396)" fill="#F1F1F2" stroke="#58595B" stroke-width="0.5" stroke-miterlimit="10" width="0.25" height="0.767"/>
		
			<rect x="71.158" y="179.021" transform="matrix(0.9823 -0.1871 0.1871 0.9823 -32.3098 16.5064)" fill="#F1F1F2" stroke="#58595B" stroke-width="0.5" stroke-miterlimit="10" width="0.251" height="0.766"/>
		
			<rect x="69.904" y="179.265" transform="matrix(0.9816 -0.1909 0.1909 0.9816 -33.002 16.6693)" fill="#F1F1F2" stroke="#58595B" stroke-width="0.5" stroke-miterlimit="10" width="0.251" height="0.767"/>
		
			<rect x="68.651" y="179.511" transform="matrix(0.9809 -0.1946 0.1946 0.9809 -33.6957 16.8249)" fill="#F1F1F2" stroke="#58595B" stroke-width="0.5" stroke-miterlimit="10" width="0.251" height="0.767"/>
		
			<rect x="67.398" y="179.756" transform="matrix(0.9801 -0.1987 0.1987 0.9801 -34.4536 17.0128)" fill="#F1F1F2" stroke="#58595B" stroke-width="0.5" stroke-miterlimit="10" width="0.251" height="0.766"/>
	</g>
	<g>
		<path fill="#1FBAB3" stroke="#58595B" stroke-width="0.5" stroke-miterlimit="10" d="M83.84,173.017
			c-0.909-3.828-7.843-3.438-8.376-3.401c-0.047-0.024-0.091-0.045-0.137-0.07c0,0,5.674,4.989,2.74,10.215
			c-0.173,0.229-0.286,0.356-0.286,0.356c0.023,0,0.047,0,0.071,0.002c-0.019,0.027-0.035,0.058-0.054,0.085
			c0,0,0.526,0.037,1.23-0.147C82.222,179.57,84.68,176.551,83.84,173.017z"/>
		<path fill="#1FBAB3" stroke="#58595B" stroke-width="0.5" stroke-miterlimit="10" d="M75.698,169.473c0,0,4.149-0.883,3.781-3.832
			c-0.369-2.947-5.19-2.168-5.19-2.168c4.045,3.037,1.141,6.145,1.141,6.145"/>
		<polygon fill="#F1F1F2" stroke="#58595B" stroke-width="0.5" stroke-miterlimit="10" points="73.439,159.917 78.415,183.356 
			77.294,183.575 73.066,159.991 		"/>
		<polygon fill="#F1F1F2" stroke="#58595B" stroke-width="0.5" stroke-miterlimit="10" points="74.705,161.578 74.609,163.41 
			73.299,163.665 72.521,162.003 		"/>
		
			<rect x="73.082" y="163.31" transform="matrix(0.9814 -0.1921 0.1921 0.9814 -30.0179 17.2401)" fill="#F1F1F2" stroke="#58595B" stroke-width="0.5" stroke-miterlimit="10" width="1.637" height="0.235"/>
		
			<rect x="74.584" y="169.581" transform="matrix(0.9813 -0.1923 0.1923 0.9813 -31.2312 17.6228)" fill="#F1F1F2" stroke="#58595B" stroke-width="0.5" stroke-miterlimit="10" width="1.142" height="0.19"/>
		
			<rect x="76.473" y="180.106" transform="matrix(0.9813 -0.1924 0.1924 0.9813 -33.2253 18.2169)" fill="#F1F1F2" stroke="#58595B" stroke-width="0.5" stroke-miterlimit="10" width="1.472" height="0.243"/>
	</g>
	<polygon fill="#F1F1F2" stroke="#58595B" stroke-width="0.5" stroke-miterlimit="10" points="92.426,175.589 92.181,175.26 
		87.296,177.878 87.905,178.809 	"/>
	<polygon fill="#F1F1F2" stroke="#58595B" stroke-width="0.5" stroke-miterlimit="10" points="69.015,185.019 66.982,185.416 
		66.144,191.913 72.241,190.718 	"/>
	<path fill="#F1F1F2" stroke="#58595B" stroke-width="0.5" stroke-miterlimit="10" d="M89.833,176.722l-6.985,3.479l0.398,2.032
		l-8.131,1.592l-0.398-2.033l-8.176,1.056c0,0,1.636,8.668,5.701,7.871l13.482-2.637C85.723,188.081,91.821,186.887,89.833,176.722z
		"/>
	
		<line fill="#F1F1F2" stroke="#58595B" stroke-width="0.5" stroke-miterlimit="10" x1="90.23" y1="178.757" x2="82.847" y2="180.2"/>
	
		<line fill="#F1F1F2" stroke="#58595B" stroke-width="0.5" stroke-miterlimit="10" x1="74.761" y1="182.017" x2="66.707" y2="183.595"/>
	
		<line fill="#F1F1F2" stroke="#58595B" stroke-width="0.5" stroke-miterlimit="10" x1="90.22" y1="181.045" x2="67.205" y2="185.55"/>
	
		<line fill="#F1F1F2" stroke="#58595B" stroke-width="0.5" stroke-miterlimit="10" x1="89.942" y1="183.191" x2="68.049" y2="187.477"/>
	
		<line fill="#F1F1F2" stroke="#58595B" stroke-width="0.5" stroke-miterlimit="10" x1="89.095" y1="185.382" x2="69.151" y2="189.287"/>
	<g>
		<path fill="#F1F1F2" stroke="#58595B" stroke-width="0.5" stroke-miterlimit="10" d="M67.283,191.688
			c0,0,28.543-12.535,24.168-4.729L67.283,191.688z"/>
		<path fill="#F1F1F2" stroke="#58595B" stroke-width="0.5" stroke-miterlimit="10" d="M76.557,189.874c0,0,16.393-7.2,13.878-2.717
			L76.557,189.874z"/>
	</g>
	
		<rect x="70.607" y="185.378" transform="matrix(0.9812 -0.1929 0.1929 0.9812 -34.5128 17.1751)" fill="#F1F1F2" stroke="#58595B" stroke-width="0.5" stroke-miterlimit="10" width="0.719" height="0.983"/>
	
		<rect x="74.5" y="184.615" transform="matrix(0.981 -0.1942 0.1942 0.981 -34.5153 18.057)" fill="#F1F1F2" stroke="#58595B" stroke-width="0.5" stroke-miterlimit="10" width="0.719" height="0.982"/>
	
		<rect x="78.392" y="183.854" transform="matrix(0.9812 -0.1929 0.1929 0.9812 -34.0727 18.6478)" fill="#F1F1F2" stroke="#58595B" stroke-width="0.5" stroke-miterlimit="10" width="0.719" height="0.982"/>
	
		<rect x="82.284" y="183.093" transform="matrix(0.9815 -0.1915 0.1915 0.9815 -33.6338 19.2289)" fill="#F1F1F2" stroke="#58595B" stroke-width="0.5" stroke-miterlimit="10" width="0.719" height="0.981"/>
	
		<rect x="86.177" y="182.332" transform="matrix(0.982 -0.1889 0.1889 0.982 -32.981 19.641)" fill="#F1F1F2" stroke="#58595B" stroke-width="0.5" stroke-miterlimit="10" width="0.719" height="0.98"/>
	
		<rect x="74.946" y="182.668" transform="matrix(0.9814 -0.1922 0.1922 0.9814 -33.7191 18.0678)" fill="#F1F1F2" stroke="#58595B" stroke-width="0.5" stroke-miterlimit="10" width="2.642" height="0.327"/>
	
		<rect x="80.592" y="181.563" transform="matrix(0.9813 -0.1925 0.1925 0.9813 -33.443 19.1621)" fill="#F1F1F2" stroke="#58595B" stroke-width="0.5" stroke-miterlimit="10" width="2.644" height="0.327"/>
	
		<rect x="77.033" y="182.828" transform="matrix(-0.9805 0.1965 -0.1965 -0.9805 188.812 347.5147)" fill="#F1F1F2" stroke="#58595B" stroke-width="0.5" stroke-miterlimit="10" width="0.273" height="0.588"/>
	
		<rect x="81.049" y="182.04" transform="matrix(-0.9818 0.1899 -0.1899 -0.9818 195.5201 345.9348)" fill="#F1F1F2" stroke="#58595B" stroke-width="0.5" stroke-miterlimit="10" width="0.273" height="0.591"/>
</g>
<g>
	<path fill="#F1F1F2" stroke="#58595B" stroke-width="0.5" stroke-miterlimit="10" d="M292.926,144.41c0,0,2.881-0.464,3.345,2.417
		l6.508,40.333c0,0,0.464,2.881-2.417,3.346l-63.381,10.226c0,0-2.88,0.465-3.346-2.417l-6.506-40.332c0,0-0.467-2.882,2.414-3.347
		L292.926,144.41z"/>
	
		<rect x="245.967" y="141.698" transform="matrix(0.1593 0.9872 -0.9872 0.1593 394.1053 -118.1024)" fill="#FFFFFF" stroke="#58595B" stroke-width="0.5" stroke-miterlimit="10" width="40.855" height="61.282"/>
	<circle fill="#F1F1F2" stroke="#58595B" stroke-width="0.5" stroke-miterlimit="10" cx="233.263" cy="177.684" r="1.892"/>
</g>
<g>
	<g>
		<path fill="#1FBAB3" stroke="#58595B" stroke-width="0.5" stroke-miterlimit="10" d="M270.404,171.551
			c-1.004-4.789-9.634-4.531-10.297-4.505c-0.057-0.028-0.11-0.06-0.168-0.09c0,0,6.887,6.388,3.068,12.781
			c-0.223,0.28-0.367,0.435-0.367,0.435c0.028,0.003,0.058,0.003,0.087,0.004c-0.022,0.036-0.046,0.07-0.069,0.105
			c0,0,0.652,0.063,1.533-0.143C268.177,179.641,271.33,175.971,270.404,171.551z"/>
		<path fill="#1FBAB3" stroke="#58595B" stroke-width="0.5" stroke-miterlimit="10" d="M260.404,166.877
			c0,0,5.187-0.962,4.824-4.636c-0.36-3.676-6.377-2.868-6.377-2.868c4.925,3.91,1.213,7.676,1.213,7.676"/>
		<polygon fill="#F1F1F2" stroke="#58595B" stroke-width="0.5" stroke-miterlimit="10" points="257.912,154.93 263.321,184.22 
			261.92,184.455 257.446,155.008 		"/>
		<polygon fill="#F1F1F2" stroke="#58595B" stroke-width="0.5" stroke-miterlimit="10" points="259.429,157.032 259.252,159.307 
			257.614,159.582 256.702,157.492 		"/>
		
			<rect x="257.353" y="159.159" transform="matrix(0.9861 -0.1662 0.1662 0.9861 -22.8821 45.1538)" fill="#F1F1F2" stroke="#58595B" stroke-width="0.5" stroke-miterlimit="10" width="2.033" height="0.293"/>
		
			<rect x="259.012" y="166.994" transform="matrix(0.9862 -0.1656 0.1656 0.9862 -24.0909 45.3244)" fill="#F1F1F2" stroke="#58595B" stroke-width="0.5" stroke-miterlimit="10" width="1.421" height="0.237"/>
		
			<rect x="261.01" y="180.141" transform="matrix(0.9861 -0.1664 0.1664 0.9861 -26.3473 46.0944)" fill="#F1F1F2" stroke="#58595B" stroke-width="0.5" stroke-miterlimit="10" width="1.831" height="0.301"/>
	</g>
	<g>
		
			<rect x="247.672" y="180.748" transform="matrix(-0.9862 0.1658 -0.1658 -0.9862 528.8555 320.2557)" fill="#F1F1F2" stroke="#58595B" stroke-width="0.5" stroke-miterlimit="10" width="6.772" height="2.913"/>
		
			<rect x="247.17" y="180.201" transform="matrix(-0.9861 0.1659 -0.1659 -0.9861 528.006 316.8714)" fill="#F1F1F2" stroke="#58595B" stroke-width="0.5" stroke-miterlimit="10" width="7.199" height="0.573"/>
		
			<rect x="246.917" y="178.699" transform="matrix(-0.9861 0.1659 -0.1659 -0.9861 527.2523 313.9345)" fill="#F1F1F2" stroke="#58595B" stroke-width="0.5" stroke-miterlimit="10" width="7.2" height="0.571"/>
		
			<rect x="252.983" y="180.825" transform="matrix(-0.9861 0.1664 -0.1664 -0.9861 533.2465 318.0361)" fill="#F1F1F2" stroke="#58595B" stroke-width="0.5" stroke-miterlimit="10" width="0.634" height="1.064"/>
		
			<rect x="250.641" y="181.218" transform="matrix(-0.986 0.1667 -0.1667 -0.986 528.6945 319.1372)" fill="#F1F1F2" stroke="#58595B" stroke-width="0.5" stroke-miterlimit="10" width="0.633" height="1.064"/>
		
			<rect x="248.298" y="181.614" transform="matrix(-0.986 0.1667 -0.1667 -0.986 524.1074 320.3112)" fill="#F1F1F2" stroke="#58595B" stroke-width="0.5" stroke-miterlimit="10" width="0.633" height="1.062"/>
		
			<rect x="247.302" y="179.796" transform="matrix(0.986 -0.167 0.167 0.986 -26.6238 43.8437)" fill="#F1F1F2" stroke="#58595B" stroke-width="0.5" stroke-miterlimit="10" width="0.31" height="0.953"/>
		
			<rect x="253.563" y="178.742" transform="matrix(0.9866 -0.1629 0.1629 0.9866 -25.8022 43.7176)" fill="#F1F1F2" stroke="#58595B" stroke-width="0.5" stroke-miterlimit="10" width="0.312" height="0.952"/>
		
			<rect x="251.997" y="179.005" transform="matrix(0.9861 -0.1659 0.1659 0.9861 -26.2847 44.3254)" fill="#F1F1F2" stroke="#58595B" stroke-width="0.5" stroke-miterlimit="10" width="0.312" height="0.953"/>
		
			<rect x="250.433" y="179.268" transform="matrix(0.9861 -0.1659 0.1659 0.9861 -26.3501 44.0696)" fill="#F1F1F2" stroke="#58595B" stroke-width="0.5" stroke-miterlimit="10" width="0.312" height="0.953"/>
		
			<rect x="248.867" y="179.532" transform="matrix(0.9866 -0.1634 0.1634 0.9866 -26.0637 43.104)" fill="#F1F1F2" stroke="#58595B" stroke-width="0.5" stroke-miterlimit="10" width="0.311" height="0.952"/>
	</g>
	<g>
		<path fill="#1FBAB3" stroke="#58595B" stroke-width="0.5" stroke-miterlimit="10" d="M273.026,166.911
			c0,0,12.341,3.371,1.549,9.207C274.575,176.118,277.912,171.458,273.026,166.911z"/>
		<path fill="#1FBAB3" stroke="#58595B" stroke-width="0.5" stroke-miterlimit="10" d="M271.919,160.264c0,0,7.91,2.205,1.655,7.078
			C273.574,167.342,275.277,163.077,271.919,160.264z"/>
		<path fill="#1FBAB3" stroke="#58595B" stroke-width="0.5" stroke-miterlimit="10" d="M271.93,160.391
			c0,0,13.181,1.793,14.89,11.95c0,0-3.193-1.687-6.517,0.807C280.303,173.147,282.463,165.051,271.93,160.391z"/>
		<polygon fill="#F1F1F2" stroke="#58595B" stroke-width="0.5" stroke-miterlimit="10" points="271.782,159.608 276.045,182.078 
			274.643,182.313 271.318,159.686 		"/>
		
			<rect x="272.23" y="166.846" transform="matrix(0.9862 -0.1653 0.1653 0.9862 -23.847 47.3841)" fill="#F1F1F2" stroke="#58595B" stroke-width="0.5" stroke-miterlimit="10" width="1.052" height="0.234"/>
		
			<rect x="271.227" y="160.308" transform="matrix(0.9861 -0.1664 0.1664 0.9861 -22.9066 47.4493)" fill="#F1F1F2" stroke="#58595B" stroke-width="0.5" stroke-miterlimit="10" width="0.857" height="0.18"/>
	</g>
	<polygon fill="#F1F1F2" stroke="#58595B" stroke-width="0.5" stroke-miterlimit="10" points="291.455,172.829 291.161,172.41 
		279.683,176.841 280.407,178.017 	"/>
	<polygon fill="#F1F1F2" stroke="#58595B" stroke-width="0.5" stroke-miterlimit="10" points="250.716,186.12 248.175,186.548 
		246.919,194.594 254.535,193.311 	"/>
	<path fill="#F1F1F2" stroke="#58595B" stroke-width="0.5" stroke-miterlimit="10" d="M282.872,175.486l-14.809,5.105l0.427,2.538
		l-10.156,1.708l-0.427-2.538l-10.195,1.042c0,0,1.746,10.823,6.823,9.969l22.854-3.844
		C277.39,189.467,285.009,188.184,282.872,175.486z"/>
	
		<line fill="#F1F1F2" stroke="#58595B" stroke-width="0.5" stroke-miterlimit="10" x1="283.299" y1="178.027" x2="268.063" y2="180.592"/>
	
		<line fill="#F1F1F2" stroke="#58595B" stroke-width="0.5" stroke-miterlimit="10" x1="257.954" y1="182.582" x2="247.895" y2="184.274"/>
	
		<line fill="#F1F1F2" stroke="#58595B" stroke-width="0.5" stroke-miterlimit="10" x1="283.21" y1="180.872" x2="248.447" y2="186.722"/>
	
		<line fill="#F1F1F2" stroke="#58595B" stroke-width="0.5" stroke-miterlimit="10" x1="282.795" y1="183.532" x2="249.434" y2="189.145"/>
	
		<line fill="#F1F1F2" stroke="#58595B" stroke-width="0.5" stroke-miterlimit="10" x1="281.669" y1="186.227" x2="250.743" y2="191.43"/>
	<g>
		<path fill="#F1F1F2" stroke="#58595B" stroke-width="0.5" stroke-miterlimit="10" d="M253.187,193.538
			c0,0,35.886-14.636,30.189-5.079L253.187,193.538z"/>
		<path fill="#F1F1F2" stroke="#58595B" stroke-width="0.5" stroke-miterlimit="10" d="M264.773,191.589
			c0,0,20.605-8.405,17.336-2.917L264.773,191.589z"/>
	</g>
	
		<rect x="252.665" y="186.632" transform="matrix(0.9861 -0.166 0.166 0.9861 -27.5695 44.6124)" fill="#F1F1F2" stroke="#58595B" stroke-width="0.5" stroke-miterlimit="10" width="0.894" height="1.221"/>
	
		<rect x="257.527" y="185.815" transform="matrix(0.9861 -0.166 0.166 0.9861 -27.3663 45.4081)" fill="#F1F1F2" stroke="#58595B" stroke-width="0.5" stroke-miterlimit="10" width="0.894" height="1.22"/>
	
		<rect x="262.39" y="184.995" transform="matrix(0.9861 -0.166 0.166 0.9861 -27.1629 46.2039)" fill="#F1F1F2" stroke="#58595B" stroke-width="0.5" stroke-miterlimit="10" width="0.894" height="1.221"/>
	
		<rect x="267.251" y="184.177" transform="matrix(0.9859 -0.1671 0.1671 0.9859 -27.1078 47.3168)" fill="#F1F1F2" stroke="#58595B" stroke-width="0.5" stroke-miterlimit="10" width="0.894" height="1.221"/>
	
		<rect x="272.114" y="183.36" transform="matrix(0.9861 -0.166 0.166 0.9861 -26.7564 47.7954)" fill="#F1F1F2" stroke="#58595B" stroke-width="0.5" stroke-miterlimit="10" width="0.894" height="1.221"/>
	
		<rect x="276.977" y="182.542" transform="matrix(0.9861 -0.1664 0.1664 0.9861 -26.6021 48.7014)" fill="#F1F1F2" stroke="#58595B" stroke-width="0.5" stroke-miterlimit="10" width="0.892" height="1.22"/>
	
		<rect x="258.155" y="183.439" transform="matrix(0.9862 -0.1658 0.1658 0.9862 -26.8584 45.6292)" fill="#F1F1F2" stroke="#58595B" stroke-width="0.5" stroke-miterlimit="10" width="3.286" height="0.406"/>
	
		<rect x="265.21" y="182.252" transform="matrix(0.9861 -0.1661 0.1661 0.9861 -26.5969 46.8544)" fill="#F1F1F2" stroke="#58595B" stroke-width="0.5" stroke-miterlimit="10" width="3.287" height="0.406"/>
	
		<rect x="260.743" y="183.667" transform="matrix(-0.9858 0.1677 -0.1677 -0.9858 548.9878 321.7111)" fill="#F1F1F2" stroke="#58595B" stroke-width="0.5" stroke-miterlimit="10" width="0.338" height="0.733"/>
	
		<rect x="265.757" y="182.823" transform="matrix(-0.9865 0.1639 -0.1639 -0.9865 558.2866 320.3066)" fill="#F1F1F2" stroke="#58595B" stroke-width="0.5" stroke-miterlimit="10" width="0.34" height="0.734"/>
</g>
</svg>
