<?xml version="1.0" encoding="utf-8"?>
<!-- Generator: Adobe Illustrator 16.0.0, SVG Export Plug-In . SVG Version: 6.00 Build 0)  -->
<!DOCTYPE svg PUBLIC "-//W3C//DTD SVG 1.1//EN" "http://www.w3.org/Graphics/SVG/1.1/DTD/svg11.dtd">
<svg version="1.1" id="Layer_1" xmlns="http://www.w3.org/2000/svg" xmlns:xlink="http://www.w3.org/1999/xlink" x="0px" y="0px"
	 width="293.5px" height="131px" viewBox="29 45 293.5 131" enable-background="new 29 45 293.5 131" xml:space="preserve">
<g>
	<g>
		<path fill="#E04C28" d="M243.4,111.995c0,0-3.664,6.531,2.867,10.195c6.531,3.662,12.97-4.75,12.97-4.75L243.4,111.995z"/>
		<g>
			<path fill="#C64127" d="M271.766,120.058c0,0,20.811,13.908,25.229,11.375C301.262,128.39,271.766,120.058,271.766,120.058z"/>
			<path fill="#C64127" d="M265.68,114.842c0,0,28.315,16.196,33.432,12.683C302.889,123.942,265.68,114.842,265.68,114.842z"/>
			<path fill="#C64127" d="M264.707,119.976c0,0,23.435,19.156,29.56,16.385C299.364,133.532,264.707,119.976,264.707,119.976z"/>
			<path fill="#C64127" d="M259.96,118.015c0,0,20.929,18.762,24.846,18.422C288.611,136.108,259.96,118.015,259.96,118.015z"/>
			<path fill="#EA9658" d="M258.723,114.221c0,0,24.912,16.802,30.619,14.687C294.292,126.874,258.723,114.221,258.723,114.221z"/>
			<path fill="#EA9658" d="M256.912,112.395c0,0,28.882,14.804,33.662,12.11C294.381,121.917,256.912,112.395,256.912,112.395z"/>
			<path fill="#EA9658" d="M255.416,112.797c0,0,21.826,17.866,27.085,16.968C287.078,128.853,255.416,112.797,255.416,112.797z"/>
			<path fill="#EA9658" d="M252.889,112.867c0,0,16.336,19.147,23.267,18.179C282.336,130.173,252.889,112.867,252.889,112.867z"/>
			<path fill="#204D80" d="M249.057,110.087c0,0,25.154,16.199,30.77,14.309C284.625,122.558,249.057,110.087,249.057,110.087z"/>
			<path fill="#204D80" d="M249.189,110.004c0,0,29.235,14.282,33.863,11.804C286.954,119.334,249.189,110.004,249.189,110.004z"/>
			<path fill="#204D80" d="M247.819,110.878c0,0,22.066,17.184,28.23,15.709C281.703,124.946,247.819,110.878,247.819,110.878z"/>
		</g>
		<path fill="#C64127" d="M298.235,78.811l-4.71-0.493c5.203-4.219,6.431-15.997,6.431-15.997
			c-34.208,30.756-68.25,21.446-68.25,21.446l-19.99,2.675c1.06,0.814,2.099,1.573,3.127,2.3l-1.017,0.3
			c38.708,39.761,78.221,3.409,78.221,3.409l-4.71-0.493C297.253,88.23,298.235,78.811,298.235,78.811z"/>
		<path fill="#E04C28" d="M206.525,87.536c0,0,24.343,55.801,51.07,23.528l-41.508-29.844L206.525,87.536z"/>
		<path fill="#E04C28" d="M235.122,86.478c0,0-5.374-6.61-18.31-17.76c-17.018-14.668-20.225-0.624-20.225-0.624l9.938,19.442
			L235.122,86.478z"/>
		<path fill="#FFFFFF" d="M220.686,77.99c0,0-19.324-2.816-16.742,3.365l-5.166-12.362C198.777,68.993,208.558,57.648,220.686,77.99
			z"/>
		<circle fill="#404041" cx="207.796" cy="68.856" r="1.183"/>
		<path fill="#58595B" d="M204.506,83.583c0,0-6.996-7.71-8.795-3.33l3.6-8.763C199.311,71.49,202.432,69.932,204.506,83.583z"/>
		<g>
			<path fill="#20549A" d="M235.122,86.478c0,0,48.662,10.689,71.527-1.351c0,0-4.498,10.953-10.68,13.534l4.383,1.801
				c0,0-3.598,8.763-14.161,9.546l4.383,1.799c0,0-48.156,23.749-74.096-25.305L235.122,86.478z"/>
			<path fill="#EA9658" d="M235.122,86.478c0,0,25.68,10.544,50.796,5.495c0,0-2.7,6.574-8.882,9.156l4.384,1.798
				c0,0-4.891,5.672-10.173,6.065l6.573,2.698c0,0-38.863,15.998-61.342-25.188L235.122,86.478z"/>
			<path fill="#FFE6C6" d="M233.586,86.591c0,0,18.616,12.578,42.537,10.16c0,0-3.003,5.29-8.529,6.815l3.527,2
				c0,0-4.766,4.289-9.294,4.051l5.29,3.002c0,0-36.714,3.432-50.639-26.116L233.586,86.591z"/>
			<path fill="#E04C28" d="M235.122,86.478c0,0,12.163,9.49,28.77,9.252c0,0-3.598,8.764-13.26,7.355c0,0,4.382,1.798,5.673,4.89
				c0,0-18.742,7.582-40.025-21.638L235.122,86.478z"/>
		</g>
		<path fill="#BBBBBC" d="M200.848,71.239c0,0,0.405-2.333-4.26-3.145c0,0-9.029,10.447-0.509,16.738
			C196.079,84.832,194.154,82.093,200.848,71.239z"/>
	</g>
	<path id="XMLID_124_" d="M223.395,143.495c4.068-1.869,6.671-6.137,6.671-11.139c0-3.803-1.334-6.736-4.136-9.404
		c-2.734-2.668-6.068-3.803-9.938-3.803h-18.141v10.605c-0.668-1.934-2.336-3.803-4.068-5.469
		c-4.203-3.936-9.205-5.937-15.273-5.937c-6.07,0-11.006,2.001-15.274,5.937c-0.801,0.732-1.401,1.533-2.067,2.334v-7.471h-28.679
		v29.346h-12.673v-29.346h-10.671v31.48l-12.739-31.48h-9.805l-9.471,23.078c-1.2-3.135-4.001-5.471-8.804-7.203
		c-2.467-0.934-5.602-1.867-6.936-2.135c-0.667-0.201-1.333-0.4-2-0.668c-1.201-0.533-1.601-1.133-1.601-2.268
		c0-1.4,1.534-2.4,4.269-2.4c3.001,0,5.335,1,7.07,3.068l7.07-6.004c-3.135-4.201-8.004-6.269-14.473-6.269
		c-3.869,0-7.203,1.001-9.938,3.067c-2.734,2.068-4.135,4.936-4.135,8.67c0,5.27,3.068,9.072,9.07,11.34
		c1.868,0.666,4.669,1.533,6.203,2c0.8,0.201,1.601,0.535,2.334,0.801c1.534,0.6,2.201,1.334,2.201,2.4
		c0,1.867-1.734,2.803-5.269,2.803c-4.135,0-7.737-2.002-9.804-4.869l-7.537,5.803c1.534,2.334,3.668,4.268,6.469,5.936
		c2.869,1.602,6.47,2.4,10.872,2.4c3.535,0,6.469-0.734,8.871-1.801l-0.4,0.934h11.271l2.067-4.668h15.073l2.001,4.668h60.76v-6.604
		c0,0.602,0.934,1.201,1.534,1.801c4.203,3.938,9.206,5.938,15.274,5.938c6.07,0,10.938-2,15.141-5.938
		c1.801-1.666,3.4-3.533,4.068-5.469v10.34h10.67v-12.006h4.27h0.133l8.004,12.006h12.271L223.395,143.495z M86.735,144.495
		l4.735-12.139l4.735,12.139H86.735z M143.16,128.487h16.607c-1.067,2-1.8,3.336-2.268,5.336H143.16V128.487z M143.16,148.495
		v-6.002h14.206c0.401,2.668,1.201,4.002,2.334,6.002H143.16z M186.179,146.229c-2.067,2.066-4.602,3.133-7.536,3.133
		c-3.002,0-5.535-1-7.604-3.066c-2.067-2.068-3.068-4.604-3.068-7.604c0-2.936,1.067-5.469,3.135-7.537
		c2.067-2.135,4.602-3.201,7.537-3.201c2.935,0,5.469,1.066,7.536,3.201c2.135,2.135,3.201,4.668,3.201,7.537
		C189.38,141.56,188.313,144.095,186.179,146.229z M214.792,137.157h-6.271v-8.67h7.137c2.068,0,3.736,1.6,3.736,4.135
		C219.395,135.558,217.66,137.157,214.792,137.157z"/>
</g>
</svg>
