<?xml version="1.0" encoding="utf-8"?>
<!-- Generator: Adobe Illustrator 16.0.0, SVG Export Plug-In . SVG Version: 6.00 Build 0)  -->
<!DOCTYPE svg PUBLIC "-//W3C//DTD SVG 1.1//EN" "http://www.w3.org/Graphics/SVG/1.1/DTD/svg11.dtd">
<svg version="1.1" id="Layer_1" xmlns="http://www.w3.org/2000/svg" xmlns:xlink="http://www.w3.org/1999/xlink" x="0px" y="0px"
	 width="293.5px" height="110.5px" viewBox="0 0 293.5 110.5" enable-background="new 0 0 293.5 110.5" xml:space="preserve">
<g>
	<g>
		<path fill="#D85039" d="M220.84,56.379c0,0-3.986,7.104,3.119,11.089c7.104,3.984,14.108-5.167,14.108-5.167L220.84,56.379z"/>
		<g>
			<path fill="#D85039" d="M251.697,65.151c0,0,22.64,15.128,27.445,12.374C283.784,74.215,251.697,65.151,251.697,65.151z"/>
			<path fill="#D85039" d="M245.076,59.477c0,0,30.804,17.618,36.369,13.797C285.555,69.375,245.076,59.477,245.076,59.477z"/>
			<path fill="#D85039" d="M244.019,65.062c0,0,25.494,20.838,32.157,17.824C281.719,79.808,244.019,65.062,244.019,65.062z"/>
			<path fill="#D85039" d="M238.854,62.928c0,0,22.767,20.41,27.029,20.04C270.022,82.609,238.854,62.928,238.854,62.928z"/>
			<path fill="#EA9658" d="M237.508,58.801c0,0,27.102,18.277,33.31,15.977C276.202,72.564,237.508,58.801,237.508,58.801z"/>
			<path fill="#EA9658" d="M235.538,56.814c0,0,31.42,16.104,36.62,13.174C276.299,67.173,235.538,56.814,235.538,56.814z"/>
			<path fill="#EA9658" d="M233.911,57.252c0,0,23.743,19.435,29.465,18.458C268.354,74.718,233.911,57.252,233.911,57.252z"/>
			<path fill="#EA9658" d="M231.162,57.328c0,0,17.771,20.827,25.312,19.774C263.196,76.153,231.162,57.328,231.162,57.328z"/>
			<path fill="#1F8299" d="M226.993,54.304c0,0,27.364,17.621,33.474,15.566C265.687,67.87,226.993,54.304,226.993,54.304z"/>
			<path fill="#1F8299" d="M227.138,54.213c0,0,31.803,15.537,36.838,12.841C268.22,64.363,227.138,54.213,227.138,54.213z"/>
			<path fill="#1F8299" d="M225.646,55.164c0,0,24.006,18.693,30.711,17.088C262.508,70.467,225.646,55.164,225.646,55.164z"/>
		</g>
		<path fill="#D85039" d="M280.491,20.281l-5.123-0.536c5.66-4.589,6.996-17.402,6.996-17.402
			c-37.214,33.458-74.246,23.331-74.246,23.331l-21.747,2.908c1.153,0.886,2.283,1.712,3.402,2.503l-1.106,0.326
			c42.109,43.252,85.093,3.708,85.093,3.708l-5.123-0.537C279.424,30.528,280.491,20.281,280.491,20.281z"/>
		<path fill="#D85039" d="M180.726,29.773c0,0,26.48,60.701,55.557,25.594l-45.155-32.464L180.726,29.773z"/>
		<path fill="#D85039" d="M211.834,28.622c0,0-5.846-7.19-19.918-19.32c-18.514-15.957-22.003-0.679-22.003-0.679l10.813,21.149
			L211.834,28.622z"/>
		<path fill="#FFFFFF" d="M196.129,19.389c0,0-21.021-3.063-18.213,3.661l-5.619-13.448C172.297,9.602,182.937-2.74,196.129,19.389z
			"/>
		<circle fill="#404041" cx="182.107" cy="9.453" r="1.287"/>
		<path fill="#58595B" d="M178.528,25.473c0,0-7.611-8.387-9.567-3.623l3.915-9.532C172.876,12.318,176.271,10.623,178.528,25.473z"
			/>
		<g>
			<path fill="#26A5D4" d="M211.834,28.622c0,0,52.938,11.627,77.811-1.47c0,0-4.894,11.915-11.618,14.722l4.768,1.959
				c0,0-3.913,9.532-15.403,10.384l4.768,1.957c0,0-52.387,25.835-80.605-27.526L211.834,28.622z"/>
			<path fill="#EA9658" d="M211.834,28.622c0,0,27.937,11.469,55.259,5.977c0,0-2.938,7.151-9.662,9.96l4.769,1.956
				c0,0-5.32,6.17-11.066,6.598l7.15,2.934c0,0-42.277,17.402-66.73-27.399L211.834,28.622z"/>
			<path fill="#FFE6C6" d="M210.163,28.745c0,0,20.252,13.683,46.274,11.052c0,0-3.267,5.754-9.279,7.414l3.838,2.176
				c0,0-5.185,4.665-10.11,4.406l5.755,3.266c0,0-39.94,3.732-55.088-28.41L210.163,28.745z"/>
			<path fill="#D85039" d="M211.289,27.98c0,0,13.776,10.965,31.843,10.707c0,0-3.914,9.533-14.426,8c0,0,4.768,1.956,6.172,5.319
				c0,0-20.852,7.76-44.005-24.026H211.289z"/>
		</g>
		<path fill="#BBBBBC" d="M174.549,12.045c0,0,0.44-2.538-4.634-3.422c0,0-9.823,11.364-0.554,18.208
			C169.361,26.832,167.268,23.852,174.549,12.045z"/>
	</g>
	<path id="XMLID_124_" d="M199.076,90.646c4.426-2.033,7.258-6.677,7.258-12.118c0-4.137-1.451-7.326-4.5-10.229
		c-2.975-2.902-6.602-4.138-10.811-4.138h-19.734v11.537c-0.727-2.104-2.541-4.136-4.426-5.948
		c-4.572-4.282-10.013-6.459-16.614-6.459c-6.604,0-11.973,2.178-16.614,6.459c-0.872,0.797-1.525,1.668-2.249,2.538v-8.126h-31.198
		v31.923H86.401V64.161H74.792v34.245L60.935,64.161H50.268L39.965,89.266c-1.305-3.411-4.353-5.952-9.577-7.836
		c-2.684-1.017-6.094-2.031-7.545-2.322c-0.726-0.219-1.45-0.436-2.176-0.727c-1.307-0.58-1.742-1.233-1.742-2.468
		c0-1.523,1.669-2.611,4.644-2.611c3.265,0,5.804,1.088,7.691,3.338l7.691-6.53c-3.411-4.571-8.708-6.82-15.745-6.82
		c-4.209,0-7.836,1.088-10.811,3.335c-2.974,2.251-4.499,5.369-4.499,9.432c0,5.732,3.338,9.869,9.867,12.336
		c2.032,0.725,5.079,1.668,6.748,2.176c0.871,0.219,1.742,0.582,2.54,0.871c1.668,0.653,2.394,1.451,2.394,2.611
		c0,2.031-1.886,3.049-5.732,3.049c-4.498,0-8.417-2.178-10.665-5.297l-8.199,6.313c1.669,2.539,3.99,4.644,7.037,6.458
		c3.121,1.743,7.039,2.61,11.827,2.61c3.846,0,7.038-0.798,9.65-1.959l-0.435,1.017H45.19l2.249-5.078h16.397l2.177,5.078h66.097
		v-7.185c0,0.655,1.017,1.307,1.669,1.959c4.572,4.284,10.015,6.46,16.615,6.46c6.604,0,11.898-2.176,16.471-6.46
		c1.959-1.813,3.698-3.843,4.425-5.949v11.248h11.607V93.254h4.646h0.145l8.708,13.061h13.349L199.076,90.646z M50.413,91.733
		l5.151-13.206l5.151,13.206H50.413z M111.795,74.318h18.066c-1.161,2.176-1.959,3.63-2.468,5.806h-15.598V74.318z M111.795,96.085
		v-6.529h15.454c0.437,2.902,1.306,4.354,2.539,6.529H111.795z M158.593,93.619c-2.25,2.248-5.007,3.408-8.199,3.408
		c-3.266,0-6.021-1.088-8.271-3.335c-2.248-2.249-3.338-5.009-3.338-8.272c0-3.193,1.161-5.949,3.41-8.199
		c2.249-2.322,5.007-3.481,8.199-3.481c3.193,0,5.949,1.159,8.199,3.481c2.321,2.323,3.48,5.079,3.48,8.199
		C162.073,88.541,160.912,91.299,158.593,93.619z M189.718,83.751h-6.821v-9.433h7.764c2.25,0,4.064,1.741,4.064,4.499
		C194.725,82.012,192.838,83.751,189.718,83.751z"/>
</g>
</svg>
