<?xml version="1.0" encoding="utf-8"?>
<!-- Generator: Adobe Illustrator 16.0.0, SVG Export Plug-In . SVG Version: 6.00 Build 0)  -->
<!DOCTYPE svg PUBLIC "-//W3C//DTD SVG 1.1//EN" "http://www.w3.org/Graphics/SVG/1.1/DTD/svg11.dtd">
<svg version="1.1" id="Layer_1" xmlns="http://www.w3.org/2000/svg" xmlns:xlink="http://www.w3.org/1999/xlink" x="0px" y="0px"
	 width="141.732px" height="141.732px" viewBox="75.884 -5.366 141.732 141.732"
	 enable-background="new 75.884 -5.366 141.732 141.732" xml:space="preserve">
<g>
	<g>
		<g>
			<g>
				
					<rect x="144.939" y="25.769" fill="#F1F1F2" stroke="#58595B" stroke-width="0.5" stroke-miterlimit="10" width="5.504" height="4.129"/>
			</g>
			<g>
				<path fill="#F1F1F2" stroke="#58595B" stroke-width="0.5" stroke-miterlimit="10" d="M151.821,10.631
					c0-4.127-4.131-4.127-4.131-4.127s-4.127,0-4.127,4.127c0,4.129,2.751,4.129,1.375,15.138h2.751h2.753
					C149.068,14.76,151.821,14.76,151.821,10.631z"/>
			</g>
			<g>
				
					<ellipse fill="#F1F1F2" stroke="#58595B" stroke-width="0.5" stroke-miterlimit="10" cx="147.692" cy="25.769" rx="4.129" ry="1.269"/>
			</g>
		</g>
		<g>
			<g>
				
					<rect x="144.939" y="101.566" fill="#F1F1F2" stroke="#58595B" stroke-width="0.5" stroke-miterlimit="10" width="5.504" height="4.129"/>
			</g>
			<g>
				<path fill="#F1F1F2" stroke="#58595B" stroke-width="0.5" stroke-miterlimit="10" d="M143.563,120.834
					c0,4.127,4.127,4.127,4.127,4.127s4.131,0,4.131-4.127c0-4.13-2.753-4.13-1.378-15.139h-2.753h-2.751
					C146.315,116.704,143.563,116.704,143.563,120.834z"/>
			</g>
			<g>
				
					<ellipse fill="#F1F1F2" stroke="#58595B" stroke-width="0.5" stroke-miterlimit="10" cx="147.692" cy="105.695" rx="4.129" ry="1.269"/>
			</g>
		</g>
	</g>
	<g>
		<g>
			<g>
				
					<rect x="183.525" y="62.98" fill="#F1F1F2" stroke="#58595B" stroke-width="0.5" stroke-miterlimit="10" width="4.129" height="5.504"/>
			</g>
			<g>
				<path fill="#F1F1F2" stroke="#58595B" stroke-width="0.5" stroke-miterlimit="10" d="M202.792,69.86
					c4.127,0,4.127-4.127,4.127-4.127s0-4.129-4.127-4.129c-4.13,0-4.13,2.752-15.138,1.376v2.752v2.751
					C198.662,67.109,198.662,69.86,202.792,69.86z"/>
			</g>
			<g>
				
					<ellipse fill="#F1F1F2" stroke="#58595B" stroke-width="0.5" stroke-miterlimit="10" cx="187.654" cy="65.732" rx="1.27" ry="4.128"/>
			</g>
		</g>
		<g>
			<g>
				
					<rect x="107.729" y="62.98" fill="#F1F1F2" stroke="#58595B" stroke-width="0.5" stroke-miterlimit="10" width="4.129" height="5.504"/>
			</g>
			<g>
				<path fill="#F1F1F2" stroke="#58595B" stroke-width="0.5" stroke-miterlimit="10" d="M92.591,61.604
					c-4.128,0-4.128,4.128-4.128,4.128s0,4.128,4.128,4.128c4.128,0,4.128-2.753,15.137-1.376v-2.752V62.98
					C96.719,64.356,96.719,61.604,92.591,61.604z"/>
			</g>
			<g>
				
					<ellipse fill="#F1F1F2" stroke="#58595B" stroke-width="0.5" stroke-miterlimit="10" cx="107.729" cy="65.732" rx="1.27" ry="4.128"/>
			</g>
		</g>
	</g>
	<g>
		<g>
			<g>
				
					<rect x="171.735" y="90.466" transform="matrix(-0.7071 0.7071 -0.7071 -0.7071 363.2981 34.5776)" fill="#F1F1F2" stroke="#58595B" stroke-width="0.5" stroke-miterlimit="10" width="5.505" height="4.129"/>
			</g>
			<g>
				<path fill="#F1F1F2" stroke="#58595B" stroke-width="0.5" stroke-miterlimit="10" d="M183.732,107.614
					c2.919,2.918,5.839,0,5.839,0s2.921-2.921,0-5.84c-2.92-2.919-4.865-0.972-11.678-9.73l-1.945,1.947l-1.946,1.944
					C182.76,102.749,180.813,104.693,183.732,107.614z"/>
			</g>
			<g>
				
					<ellipse transform="matrix(-0.7072 0.707 -0.707 -0.7072 366.8288 36.054)" fill="#F1F1F2" stroke="#58595B" stroke-width="0.5" stroke-miterlimit="10" cx="175.948" cy="93.991" rx="4.128" ry="1.268"/>
			</g>
		</g>
		<g>
			<g>
				
					<rect x="118.141" y="36.87" transform="matrix(0.7072 -0.707 0.707 0.7072 7.8712 96.8742)" fill="#F1F1F2" stroke="#58595B" stroke-width="0.5" stroke-miterlimit="10" width="5.505" height="4.128"/>
			</g>
			<g>
				<path fill="#F1F1F2" stroke="#58595B" stroke-width="0.5" stroke-miterlimit="10" d="M111.648,23.851
					c-2.918-2.919-5.838,0-5.838,0s-2.919,2.919,0,5.838c2.92,2.919,4.866,0.973,11.678,9.731l1.946-1.946l1.945-1.946
					C112.621,28.717,114.569,26.77,111.648,23.851z"/>
			</g>
			<g>
				
					<ellipse transform="matrix(0.7071 -0.7071 0.7071 0.7071 8.4827 95.4278)" fill="#F1F1F2" stroke="#58595B" stroke-width="0.5" stroke-miterlimit="10" cx="119.433" cy="37.474" rx="4.128" ry="1.27"/>
			</g>
		</g>
	</g>
	<g>
		<g>
			<g>
				
					<rect x="171.737" y="36.869" transform="matrix(0.7072 0.7071 -0.7071 0.7072 78.6278 -111.973)" fill="#F1F1F2" stroke="#58595B" stroke-width="0.5" stroke-miterlimit="10" width="5.505" height="4.13"/>
			</g>
			<g>
				<path fill="#F1F1F2" stroke="#58595B" stroke-width="0.5" stroke-miterlimit="10" d="M189.573,29.689
					c2.919-2.919,0-5.838,0-5.838s-2.922-2.919-5.838,0c-2.922,2.918-0.976,4.865-9.731,11.677l1.944,1.946l1.945,1.946
					C184.708,30.663,186.651,32.609,189.573,29.689z"/>
			</g>
			<g>
				
					<ellipse transform="matrix(0.7071 0.7071 -0.7071 0.7071 78.0387 -113.4423)" fill="#F1F1F2" stroke="#58595B" stroke-width="0.5" stroke-miterlimit="10" cx="175.948" cy="37.474" rx="4.128" ry="1.268"/>
			</g>
		</g>
		<g>
			<g>
				
					<rect x="118.14" y="90.465" transform="matrix(-0.7072 -0.7071 0.7071 -0.7072 140.958 243.4411)" fill="#F1F1F2" stroke="#58595B" stroke-width="0.5" stroke-miterlimit="10" width="5.505" height="4.129"/>
			</g>
			<g>
				<path fill="#F1F1F2" stroke="#58595B" stroke-width="0.5" stroke-miterlimit="10" d="M105.81,101.774
					c-2.919,2.919,0,5.84,0,5.84s2.92,2.918,5.838,0c2.92-2.921,0.973-4.867,9.731-11.679l-1.945-1.946l-1.946-1.945
					C110.676,100.803,108.73,98.855,105.81,101.774z"/>
			</g>
			<g>
				
					<ellipse transform="matrix(-0.7072 -0.707 0.707 -0.7072 137.4421 244.9017)" fill="#F1F1F2" stroke="#58595B" stroke-width="0.5" stroke-miterlimit="10" cx="119.433" cy="93.991" rx="4.128" ry="1.269"/>
			</g>
		</g>
	</g>
	<g>
		<g>
			<g>
				
					<rect x="144.825" y="35.528" fill="#F1F1F2" stroke="#58595B" stroke-width="0.5" stroke-miterlimit="10" width="5.735" height="2.827"/>
			</g>
			<g>
				
					<rect x="144.825" y="49.665" fill="#F1F1F2" stroke="#58595B" stroke-width="0.5" stroke-miterlimit="10" width="5.735" height="2.827"/>
			</g>
			<g>
				<polygon fill="#F1F1F2" stroke="#58595B" stroke-width="0.5" stroke-miterlimit="10" points="145.779,39.298 144.825,44.01 
					145.779,48.724 149.603,48.724 150.56,44.01 149.603,39.298 				"/>
			</g>
			<g>
				<path fill="#F1F1F2" stroke="#58595B" stroke-width="0.5" stroke-miterlimit="10" d="M150.56,49.194
					c0,0.26-0.429,0.471-0.957,0.471h-3.823c-0.526,0-0.955-0.211-0.955-0.471l0,0c0-0.26,0.428-0.47,0.955-0.47h3.823
					C150.131,48.724,150.56,48.934,150.56,49.194L150.56,49.194z"/>
			</g>
			<g>
				<path fill="#F1F1F2" stroke="#58595B" stroke-width="0.5" stroke-miterlimit="10" d="M150.56,38.827
					c0-0.261-0.429-0.472-0.957-0.472h-3.823c-0.526,0-0.955,0.211-0.955,0.472l0,0c0,0.26,0.428,0.471,0.955,0.471h3.823
					C150.131,39.298,150.56,39.087,150.56,38.827L150.56,38.827z"/>
			</g>
		</g>
		<g>
			<g>
				
					<rect x="144.825" y="79.164" fill="#F1F1F2" stroke="#58595B" stroke-width="0.5" stroke-miterlimit="10" width="5.735" height="2.825"/>
			</g>
			<g>
				
					<rect x="144.825" y="93.302" fill="#F1F1F2" stroke="#58595B" stroke-width="0.5" stroke-miterlimit="10" width="5.735" height="2.826"/>
			</g>
			<g>
				<polygon fill="#F1F1F2" stroke="#58595B" stroke-width="0.5" stroke-miterlimit="10" points="145.779,82.934 144.825,87.646 
					145.779,92.359 149.603,92.359 150.56,87.646 149.603,82.934 				"/>
			</g>
			<g>
				<path fill="#F1F1F2" stroke="#58595B" stroke-width="0.5" stroke-miterlimit="10" d="M150.56,92.829
					c0,0.261-0.429,0.473-0.957,0.473h-3.823c-0.526,0-0.955-0.212-0.955-0.473l0,0c0-0.26,0.428-0.47,0.955-0.47h3.823
					C150.131,92.359,150.56,92.569,150.56,92.829L150.56,92.829z"/>
			</g>
			<g>
				<path fill="#F1F1F2" stroke="#58595B" stroke-width="0.5" stroke-miterlimit="10" d="M150.56,82.462
					c0-0.26-0.429-0.473-0.957-0.473h-3.823c-0.526,0-0.955,0.213-0.955,0.473l0,0c0,0.262,0.428,0.472,0.955,0.472h3.823
					C150.131,82.934,150.56,82.724,150.56,82.462L150.56,82.462z"/>
			</g>
		</g>
	</g>
	<g>
		<g>
			<g>
				
					<rect x="175.164" y="62.961" fill="#F1F1F2" stroke="#58595B" stroke-width="0.5" stroke-miterlimit="10" width="2.827" height="5.734"/>
			</g>
			<g>
				
					<rect x="161.028" y="62.961" fill="#F1F1F2" stroke="#58595B" stroke-width="0.5" stroke-miterlimit="10" width="2.826" height="5.734"/>
			</g>
			<g>
				<polygon fill="#F1F1F2" stroke="#58595B" stroke-width="0.5" stroke-miterlimit="10" points="174.22,63.917 169.508,62.961 
					164.797,63.917 164.797,67.739 169.508,68.695 174.22,67.739 				"/>
			</g>
			<g>
				<path fill="#F1F1F2" stroke="#58595B" stroke-width="0.5" stroke-miterlimit="10" d="M164.326,68.695
					c-0.261,0-0.472-0.428-0.472-0.956v-3.822c0-0.527,0.211-0.956,0.472-0.956l0,0c0.26,0,0.471,0.429,0.471,0.956v3.822
					C164.797,68.268,164.586,68.695,164.326,68.695L164.326,68.695z"/>
			</g>
			<g>
				<path fill="#F1F1F2" stroke="#58595B" stroke-width="0.5" stroke-miterlimit="10" d="M174.691,68.695
					c0.262,0,0.473-0.428,0.473-0.956v-3.822c0-0.527-0.211-0.956-0.473-0.956l0,0c-0.259,0-0.472,0.429-0.472,0.956v3.822
					C174.22,68.268,174.433,68.695,174.691,68.695L174.691,68.695z"/>
			</g>
		</g>
		<g>
			<g>
				
					<rect x="131.528" y="62.961" fill="#F1F1F2" stroke="#58595B" stroke-width="0.5" stroke-miterlimit="10" width="2.828" height="5.734"/>
			</g>
			<g>
				
					<rect x="117.391" y="62.961" fill="#F1F1F2" stroke="#58595B" stroke-width="0.5" stroke-miterlimit="10" width="2.827" height="5.734"/>
			</g>
			<g>
				<polygon fill="#F1F1F2" stroke="#58595B" stroke-width="0.5" stroke-miterlimit="10" points="130.585,63.917 125.873,62.961 
					121.161,63.917 121.161,67.739 125.873,68.695 130.585,67.739 				"/>
			</g>
			<g>
				<path fill="#F1F1F2" stroke="#58595B" stroke-width="0.5" stroke-miterlimit="10" d="M120.689,68.695
					c-0.26,0-0.471-0.428-0.471-0.956v-3.822c0-0.527,0.211-0.956,0.471-0.956l0,0c0.261,0,0.472,0.429,0.472,0.956v3.822
					C121.161,68.268,120.95,68.695,120.689,68.695L120.689,68.695z"/>
			</g>
			<g>
				<path fill="#F1F1F2" stroke="#58595B" stroke-width="0.5" stroke-miterlimit="10" d="M131.057,68.695
					c0.261,0,0.472-0.428,0.472-0.956v-3.822c0-0.527-0.211-0.956-0.472-0.956l0,0c-0.26,0-0.471,0.429-0.471,0.956v3.822
					C130.585,68.268,130.797,68.695,131.057,68.695L131.057,68.695z"/>
			</g>
		</g>
	</g>
	<g>
		<g>
			<g>
				
					<rect x="165.251" y="84.841" transform="matrix(-0.7069 0.7073 -0.7073 -0.7069 347.9715 28.3262)" fill="#F1F1F2" stroke="#58595B" stroke-width="0.5" stroke-miterlimit="10" width="5.733" height="2.828"/>
			</g>
			<g>
				
					<rect x="155.254" y="74.845" transform="matrix(-0.7071 0.7071 -0.7071 -0.7071 323.852 18.3717)" fill="#F1F1F2" stroke="#58595B" stroke-width="0.5" stroke-miterlimit="10" width="5.734" height="2.826"/>
			</g>
			<g>
				<polygon fill="#F1F1F2" stroke="#58595B" stroke-width="0.5" stroke-miterlimit="10" points="167.803,83.236 165.146,79.229 
					161.14,76.571 158.436,79.274 161.092,83.284 165.1,85.939 				"/>
			</g>
			<g>
				<path fill="#F1F1F2" stroke="#58595B" stroke-width="0.5" stroke-miterlimit="10" d="M157.426,79.617
					c-0.184-0.184-0.031-0.636,0.343-1.008l2.702-2.704c0.374-0.373,0.826-0.526,1.01-0.343l0,0c0.184,0.186,0.03,0.636-0.341,1.009
					l-2.704,2.703C158.062,79.648,157.609,79.802,157.426,79.617L157.426,79.617z"/>
			</g>
			<g>
				<path fill="#F1F1F2" stroke="#58595B" stroke-width="0.5" stroke-miterlimit="10" d="M164.757,86.947
					c0.185,0.186,0.637,0.032,1.01-0.342l2.702-2.702c0.372-0.374,0.525-0.826,0.341-1.01l0,0c-0.184-0.184-0.636-0.03-1.007,0.343
					l-2.703,2.703C164.726,86.313,164.572,86.765,164.757,86.947L164.757,86.947z"/>
			</g>
		</g>
		<g>
			<g>
				
					<rect x="134.396" y="53.985" transform="matrix(-0.7072 0.707 -0.707 -0.7072 273.5018 -2.4715)" fill="#F1F1F2" stroke="#58595B" stroke-width="0.5" stroke-miterlimit="10" width="5.733" height="2.827"/>
			</g>
			<g>
				
					<rect x="124.399" y="43.989" transform="matrix(-0.7071 0.7071 -0.7071 -0.7071 249.3609 -12.4835)" fill="#F1F1F2" stroke="#58595B" stroke-width="0.5" stroke-miterlimit="10" width="5.734" height="2.828"/>
			</g>
			<g>
				<polygon fill="#F1F1F2" stroke="#58595B" stroke-width="0.5" stroke-miterlimit="10" points="136.948,52.381 134.291,48.374 
					130.283,45.716 127.579,48.42 130.237,52.428 134.244,55.084 				"/>
			</g>
			<g>
				<path fill="#F1F1F2" stroke="#58595B" stroke-width="0.5" stroke-miterlimit="10" d="M126.571,48.763
					c-0.185-0.184-0.031-0.636,0.343-1.009l2.702-2.703c0.374-0.374,0.826-0.527,1.011-0.343l0,0
					c0.183,0.184,0.028,0.636-0.344,1.008l-2.704,2.704C127.206,48.793,126.755,48.947,126.571,48.763L126.571,48.763z"/>
			</g>
			<g>
				<path fill="#F1F1F2" stroke="#58595B" stroke-width="0.5" stroke-miterlimit="10" d="M133.902,56.093
					c0.183,0.185,0.635,0.031,1.009-0.342l2.702-2.703c0.375-0.374,0.528-0.825,0.344-1.01l0,0c-0.185-0.184-0.636-0.03-1.009,0.343
					l-2.704,2.703C133.872,55.458,133.719,55.909,133.902,56.093L133.902,56.093z"/>
			</g>
		</g>
	</g>
	<g>
		<g>
			<g>
				
					<rect x="124.397" y="84.84" transform="matrix(-0.7071 -0.7071 0.7071 -0.7071 156.2541 237.2359)" fill="#F1F1F2" stroke="#58595B" stroke-width="0.5" stroke-miterlimit="10" width="5.735" height="2.827"/>
			</g>
			<g>
				
					<rect x="134.395" y="74.844" transform="matrix(-0.707 -0.7072 0.7072 -0.707 180.3806 227.2435)" fill="#F1F1F2" stroke="#58595B" stroke-width="0.5" stroke-miterlimit="10" width="5.735" height="2.826"/>
			</g>
			<g>
				<polygon fill="#F1F1F2" stroke="#58595B" stroke-width="0.5" stroke-miterlimit="10" points="130.283,85.939 134.291,83.284 
					136.949,79.274 134.244,76.571 130.237,79.229 127.579,83.236 				"/>
			</g>
			<g>
				<path fill="#F1F1F2" stroke="#58595B" stroke-width="0.5" stroke-miterlimit="10" d="M133.902,75.563
					c0.183-0.184,0.635-0.03,1.009,0.342l2.702,2.705c0.375,0.372,0.527,0.824,0.344,1.008l0,0
					c-0.185,0.185-0.636,0.031-1.007-0.343l-2.706-2.703C133.872,76.198,133.719,75.748,133.902,75.563L133.902,75.563z"/>
			</g>
			<g>
				<path fill="#F1F1F2" stroke="#58595B" stroke-width="0.5" stroke-miterlimit="10" d="M126.571,82.894
					c-0.186,0.184-0.031,0.636,0.343,1.01l2.702,2.702c0.374,0.374,0.826,0.527,1.011,0.342l0,0
					c0.183-0.183,0.028-0.635-0.344-1.008l-2.704-2.703C127.206,82.863,126.755,82.71,126.571,82.894L126.571,82.894z"/>
			</g>
		</g>
		<g>
			<g>
				
					<rect x="155.256" y="53.986" transform="matrix(-0.7071 -0.7071 0.7071 -0.7071 230.749 206.3859)" fill="#F1F1F2" stroke="#58595B" stroke-width="0.5" stroke-miterlimit="10" width="5.732" height="2.827"/>
			</g>
			<g>
				
					<rect x="165.249" y="43.988" transform="matrix(-0.7071 -0.7071 0.7071 -0.7071 254.897 196.378)" fill="#F1F1F2" stroke="#58595B" stroke-width="0.5" stroke-miterlimit="10" width="5.734" height="2.828"/>
			</g>
			<g>
				<polygon fill="#F1F1F2" stroke="#58595B" stroke-width="0.5" stroke-miterlimit="10" points="161.14,55.083 165.146,52.428 
					167.803,48.419 165.1,45.716 161.092,48.374 158.436,52.381 				"/>
			</g>
			<g>
				<path fill="#F1F1F2" stroke="#58595B" stroke-width="0.5" stroke-miterlimit="10" d="M164.757,44.708
					c0.185-0.184,0.637-0.031,1.008,0.342l2.704,2.703c0.372,0.374,0.525,0.826,0.341,1.01l0,0c-0.184,0.184-0.636,0.03-1.007-0.343
					l-2.703-2.703C164.726,45.344,164.572,44.892,164.757,44.708L164.757,44.708z"/>
			</g>
			<g>
				<path fill="#F1F1F2" stroke="#58595B" stroke-width="0.5" stroke-miterlimit="10" d="M157.426,52.038
					c-0.184,0.185-0.031,0.637,0.343,1.009l2.702,2.703c0.374,0.374,0.826,0.527,1.01,0.343l0,0c0.184-0.185,0.03-0.636-0.341-1.01
					l-2.704-2.702C158.062,52.008,157.609,51.854,157.426,52.038L157.426,52.038z"/>
			</g>
		</g>
	</g>
	<g>
		<path fill="#F1F1F2" stroke="#58595B" stroke-width="0.5" stroke-miterlimit="10" d="M147.69,103.348
			c-20.74,0-37.614-16.874-37.614-37.615c0-20.741,16.874-37.615,37.614-37.615c20.741,0,37.614,16.874,37.614,37.615
			C185.305,86.474,168.432,103.348,147.69,103.348z M147.69,37.292c-15.681,0-28.44,12.759-28.44,28.441
			c0,15.683,12.759,28.441,28.44,28.441c15.683,0,28.44-12.758,28.44-28.441C176.131,50.051,163.373,37.292,147.69,37.292z"/>
	</g>
	<g>
		<path fill="#F1F1F2" stroke="#58595B" stroke-width="0.5" stroke-miterlimit="10" d="M147.69,80.87
			c-8.347,0-15.138-6.791-15.138-15.137c0-8.348,6.791-15.138,15.138-15.138c8.349,0,15.138,6.79,15.138,15.138
			C162.828,74.079,156.039,80.87,147.69,80.87z M147.69,56.1c-5.311,0-9.631,4.321-9.631,9.633c0,5.311,4.32,9.632,9.631,9.632
			c5.313,0,9.636-4.321,9.636-9.632C157.326,60.421,153.003,56.1,147.69,56.1z"/>
	</g>
</g>
</svg>
