<?xml version="1.0" encoding="utf-8"?>
<!-- Generator: Adobe Illustrator 16.0.0, SVG Export Plug-In . SVG Version: 6.00 Build 0)  -->
<!DOCTYPE svg PUBLIC "-//W3C//DTD SVG 1.1//EN" "http://www.w3.org/Graphics/SVG/1.1/DTD/svg11.dtd">
<svg version="1.1" xmlns="http://www.w3.org/2000/svg" xmlns:xlink="http://www.w3.org/1999/xlink" x="0px" y="0px" width="864px"
	 height="340.38px" viewBox="-49.807 0 864 340.38" enable-background="new -49.807 0 864 340.38" xml:space="preserve">
<g id="Layer_1">
	<g>
		<g>
			<g>
				
					<rect x="117.678" y="195.072" transform="matrix(-0.9857 -0.1688 0.1688 -0.9857 194.9301 508.9437)" fill="#F2F2F2" stroke="#595A5C" stroke-width="0.5" stroke-miterlimit="10" width="2.841" height="102.229"/>
				<polygon fill="#D1D2D3" stroke="#595A5C" stroke-width="0.5" stroke-miterlimit="10" points="134.792,179.719 130.554,187.638 
					136.153,188.597 				"/>
				<polygon fill="#F2F2F2" stroke="#595A5C" stroke-width="0.5" stroke-miterlimit="10" points="130.554,187.638 126.318,195.555 
					137.513,197.471 136.153,188.597 				"/>
				
					<rect x="120.466" y="195.787" transform="matrix(0.9856 0.1689 -0.1689 0.9856 43.4692 -17.2781)" fill="#F2F2F2" stroke="#595A5C" stroke-width="0.5" stroke-miterlimit="10" width="5.678" height="102.222"/>
				
					<rect x="126.071" y="196.493" transform="matrix(0.9857 0.1686 -0.1686 0.9857 43.5665 -17.9488)" fill="#F2F2F2" stroke="#595A5C" stroke-width="0.5" stroke-miterlimit="10" width="2.838" height="102.226"/>
				
					<rect x="108.742" y="297.268" transform="matrix(-0.9856 -0.1689 0.1689 -0.9856 176.7634 612.4045)" fill="#F2F2F2" stroke="#595A5C" stroke-width="0.5" stroke-miterlimit="10" width="11.358" height="2.838"/>
				
					<rect x="108.026" y="300.038" transform="matrix(-0.9857 -0.1687 0.1687 -0.9857 174.6935 620.597)" fill="#F2F2F2" stroke="#595A5C" stroke-width="0.5" stroke-miterlimit="10" width="11.359" height="5.681"/>
				<path fill="#F2F2F2" stroke="#595A5C" stroke-width="0.5" stroke-miterlimit="10" d="M107.628,304.71l-0.959,5.597
					c0,0-0.479,2.799,2.319,3.278l5.599,0.959c0,0,2.799,0.479,3.276-2.32l0.959-5.598L107.628,304.71z"/>
			</g>
			<g>
				
					<rect x="94.47" y="187.114" transform="matrix(-0.9857 -0.1685 0.1685 -0.9857 150.2769 489.2012)" fill="#F2F2F2" stroke="#595A5C" stroke-width="0.5" stroke-miterlimit="10" width="2.84" height="102.224"/>
				<polygon fill="#D1D2D3" stroke="#595A5C" stroke-width="0.5" stroke-miterlimit="10" points="111.599,171.771 107.362,179.689 
					112.96,180.649 				"/>
				<polygon fill="#F2F2F2" stroke="#595A5C" stroke-width="0.5" stroke-miterlimit="10" points="107.362,179.689 103.125,187.606 
					114.321,189.523 112.96,180.649 				"/>
				
					<rect x="97.272" y="187.838" transform="matrix(0.9856 0.1689 -0.1689 0.9856 41.7861 -13.4735)" fill="#F2F2F2" stroke="#595A5C" stroke-width="0.5" stroke-miterlimit="10" width="5.679" height="102.222"/>
				
					<rect x="102.875" y="188.561" transform="matrix(0.9856 0.1689 -0.1689 0.9856 41.9831 -14.1731)" fill="#F2F2F2" stroke="#595A5C" stroke-width="0.5" stroke-miterlimit="10" width="2.839" height="102.222"/>
				
					<rect x="85.547" y="289.319" transform="matrix(-0.9857 -0.1688 0.1688 -0.9857 132.0799 592.7015)" fill="#F2F2F2" stroke="#595A5C" stroke-width="0.5" stroke-miterlimit="10" width="11.359" height="2.839"/>
				
					<rect x="84.833" y="292.09" transform="matrix(-0.9857 -0.1687 0.1687 -0.9857 129.9756 600.9009)" fill="#F2F2F2" stroke="#595A5C" stroke-width="0.5" stroke-miterlimit="10" width="11.358" height="5.679"/>
				<path fill="#F2F2F2" stroke="#595A5C" stroke-width="0.5" stroke-miterlimit="10" d="M84.435,296.76l-0.958,5.598
					c0,0-0.479,2.799,2.319,3.277l5.599,0.959c0,0,2.798,0.479,3.277-2.32l0.958-5.598L84.435,296.76z"/>
			</g>
			<g>
				
					<rect x="69.076" y="192.985" transform="matrix(0.981 -0.194 0.194 0.981 -46.0151 18.3135)" fill="#F2F2F2" stroke="#595A5C" stroke-width="0.5" stroke-miterlimit="10" width="2.839" height="102.222"/>
				<polygon fill="#F2F2F2" stroke="#595A5C" stroke-width="0.5" stroke-miterlimit="10" points="79.523,311.778 80.657,302.869 
					75.084,303.97 				"/>
				<polygon fill="#F2F2F2" stroke="#595A5C" stroke-width="0.5" stroke-miterlimit="10" points="80.657,302.869 81.791,293.961 
					70.648,296.166 75.084,303.97 				"/>
				
					<rect x="63.473" y="193.796" transform="matrix(-0.981 0.194 -0.194 -0.981 178.8698 472.3013)" fill="#F2F2F2" stroke="#595A5C" stroke-width="0.5" stroke-miterlimit="10" width="5.679" height="102.222"/>
				
					<rect x="60.719" y="194.634" transform="matrix(-0.981 0.1941 -0.1941 -0.981 170.7864 474.7648)" fill="#F2F2F2" stroke="#595A5C" stroke-width="0.5" stroke-miterlimit="10" width="2.838" height="102.227"/>
				
					<rect x="50.443" y="191.976" transform="matrix(0.981 -0.1938 0.1938 0.981 -36.413 14.5416)" fill="#D1D2D3" stroke="#595A5C" stroke-width="0.5" stroke-miterlimit="10" width="11.359" height="2.838"/>
				
					<rect x="49.612" y="186.373" transform="matrix(0.981 -0.194 0.194 0.981 -35.6508 14.3181)" fill="#D1D2D3" stroke="#595A5C" stroke-width="0.5" stroke-miterlimit="10" width="11.358" height="5.68"/>
				<path fill="#F2F2F2" stroke="#595A5C" stroke-width="0.5" stroke-miterlimit="10" d="M60.317,185.321l-1.101-5.571
					c0,0-0.551-2.784-3.337-2.233l-5.571,1.101c0,0-2.786,0.551-2.233,3.338l1.101,5.57L60.317,185.321z"/>
			</g>
			<g>
				
					<rect x="114.866" y="165.864" transform="matrix(-0.9651 -0.2619 0.2619 -0.9651 188.6106 393.7791)" fill="#D1D2D3" stroke="#595A5C" stroke-width="0.5" stroke-miterlimit="10" width="11.358" height="36.914"/>
				
					<rect x="109.67" y="202.074" transform="matrix(-0.965 -0.2621 0.2621 -0.965 173.3182 430.1068)" fill="#F2F2F2" stroke="#595A5C" stroke-width="0.5" stroke-miterlimit="10" width="11.358" height="2.838"/>
				
					<rect x="98.504" y="203.443" transform="matrix(-0.9651 -0.262 0.262 -0.9651 140.6516 507.9888)" fill="#D1D2D3" stroke="#595A5C" stroke-width="0.5" stroke-miterlimit="10" width="11.363" height="82.352"/>
				<path fill="#D1D2D3" stroke="#595A5C" stroke-width="0.5" stroke-miterlimit="10" d="M119.9,165.02c0,0,1.489-5.48,6.971-3.992
					c5.479,1.487,3.991,6.968,3.991,6.968L119.9,165.02z"/>
				<path fill="#F2F2F2" stroke="#595A5C" stroke-width="0.5" stroke-miterlimit="10" d="M122.641,165.765l-11.899,43.847
					c0,0-0.742,2.74,1.997,3.484c2.74,0.742,3.483-1.999,3.483-1.999l11.9-43.847L122.641,165.765z"/>
				
					<rect x="87.346" y="284.299" transform="matrix(-0.9651 -0.2619 0.2619 -0.9651 107.9774 585.8271)" fill="#F2F2F2" stroke="#595A5C" stroke-width="0.5" stroke-miterlimit="10" width="11.358" height="2.839"/>
				<path fill="#F2F2F2" stroke="#595A5C" stroke-width="0.5" stroke-miterlimit="10" d="M87.177,285.6c0,0-0.743,2.738,1.998,3.482
					l5.479,1.487c0,0,2.741,0.742,3.484-1.996L87.177,285.6z"/>
			</g>
			<g>
				<polygon fill="#F2F2F2" stroke="#595A5C" stroke-width="0.5" stroke-miterlimit="10" points="68.515,338.38 53.445,217.82 
					143.865,217.82 128.794,338.38 				"/>
				
					<line fill="none" stroke="#595A5C" stroke-width="0.5" stroke-miterlimit="10" x1="55.329" y1="232.889" x2="141.981" y2="232.889"/>
				
					<line fill="none" stroke="#595A5C" stroke-width="0.5" stroke-miterlimit="10" x1="57.212" y1="247.959" x2="140.097" y2="247.959"/>
			</g>
		</g>
		<g>
			<g>
				<path fill="#F2F2F2" stroke="#595A5C" stroke-width="0.5" stroke-miterlimit="10" d="M114.061,278.837
					c-5.382,0.595-0.003-24.47-21.49-21.155l-5.572,1.281c-15.746,5.556-6.804,27.019-11.947,28.847
					c-5.146,1.828-10.717-10.424-8.359,1.922C69.047,302.078,79.87,301.2,79.87,301.2l17.337-3.987l17.341-3.986
					c0,0,7.823-3.412,5.467-15.758C117.656,265.123,119.443,278.244,114.061,278.837"/>
				<g>
					<g>
						<path fill="#F2F2F2" stroke="#595A5C" stroke-width="0.5" stroke-miterlimit="10" d="M116.734,286.761
							c0,0-9.204,7.898-20.955,8.876c0,0,1.156,3.564,4.213,3.977l-1.717,1.472c0,0,2.871,2.089,5.263,1.558l-2.577,2.214
							c0,0,16.82,2.258,23.174-19.891L116.734,286.761z"/>
						<path fill="#F2F2F2" stroke="#595A5C" stroke-width="0.5" stroke-miterlimit="10" d="M116.734,286.761
							c0,0-5.96,6.632-11.592,8.433c0,0,2.685,3.768,6.79,1.764c0,0-1.72,1.473-1.907,3.15c0,0,9.364-0.444,15.153-17.559
							L116.734,286.761z"/>
					</g>
					<path fill="#F2F2F2" stroke="#595A5C" stroke-width="0.5" stroke-miterlimit="10" d="M118.916,278.148
						c-3.72,7.597-4.939,11.683-4.939,11.683l4.857-1.819l-10.461,17.479c17.552,6.495,18.061-20.327,18.061-20.327L127.5,274.2
						C127.5,274.2,123.809,268.159,118.916,278.148z"/>
					<path fill="#F2F2F2" stroke="#595A5C" stroke-width="0.5" stroke-miterlimit="10" d="M118.778,283.219
						c0,0,7.837-4.82,7.745-1.438c-0.09,3.381,0.184-6.764,0.184-6.764S120.637,271.438,118.778,283.219z"/>
					<path fill="#F2F2F2" stroke="#595A5C" stroke-width="0.5" stroke-miterlimit="10" d="M123.208,276.173
						c0.205,0.24,0.194,0.619-0.023,0.847c-0.221,0.227-0.564,0.214-0.771-0.025c-0.207-0.239-0.196-0.618,0.021-0.846
						C122.656,275.922,123.002,275.934,123.208,276.173z"/>
					<path fill="#F2F2F2" stroke="#595A5C" stroke-width="0.5" stroke-miterlimit="10" d="M126.708,283.054
						c0,0,1.678-5.021,3.171-3.281l-2.989-3.482C126.89,276.291,125.35,276.241,126.708,283.054z"/>
					<g>
						<path fill="#F2F2F2" stroke="#595A5C" stroke-width="0.5" stroke-miterlimit="10" d="M114.347,290.633
							c0,0-19.956,12.371-31.639,9.944c0,0,3.457,4.62,6.522,4.949l-1.684,1.52c0,0,2.766,3.695,7.516,2.513l-1.684,1.515
							c0,0,24.384,4.332,29.17-23.191L114.347,290.633z"/>
						<path fill="#F2F2F2" stroke="#595A5C" stroke-width="0.5" stroke-miterlimit="10" d="M114.347,290.633
							c0,0-9.869,8.892-21.597,10.178c0,0,2.075,2.771,5.142,3.102l-1.685,1.521c0,0,2.915,2.012,5.293,1.419l-2.526,2.274
							c0,0,16.867,1.822,22.734-20.484L114.347,290.633z"/>
						<path fill="#F2F2F2" stroke="#595A5C" stroke-width="0.5" stroke-miterlimit="10" d="M115.232,290.394
							c0,0-7.506,8.726-17.336,11.206c0,0,2.033,2.108,4.671,2.024l-1.282,1.487c0,0,2.677,1.364,4.637,0.579l-1.922,2.234
							c0,0,14.501-0.458,17.288-20.098L115.232,290.394z"/>
						<path fill="#F2F2F2" stroke="#595A5C" stroke-width="0.5" stroke-miterlimit="10" d="M112.07,291.533
							c0,0-3.532,5.882-9.127,7.829c0,0,2.768,3.696,6.826,1.586c0,0-1.685,1.516-1.834,3.2c0,0,9.351-0.692,14.766-17.949
							L112.07,291.533z"/>
					</g>
					<path fill="#F2F2F2" stroke="#595A5C" stroke-width="0.5" stroke-miterlimit="10" d="M126.187,276.452
						c0,0-0.558-1.027,1.313-2.252c0,0,5.598,3.293,2.975,7.797C130.475,281.997,130.85,280.36,126.187,276.452z"/>
				</g>
				<path fill="#F2F2F2" stroke="#595A5C" stroke-width="0.5" stroke-miterlimit="10" d="M83.885,298.389
					c0.417,2.19-0.533,4.265-2.124,4.631c-1.589,0.365-3.219-1.113-3.637-3.307c-0.418-2.189,0.531-4.263,2.122-4.63
					C81.838,294.719,83.466,296.198,83.885,298.389z"/>
				<path fill="#F2F2F2" stroke="#595A5C" stroke-width="0.5" stroke-miterlimit="10" d="M115.557,291.105
					c0.419,2.19-0.531,4.265-2.122,4.63c-1.59,0.366-3.219-1.113-3.637-3.305c-0.418-2.192,0.531-4.265,2.121-4.631
					C113.511,287.434,115.14,288.914,115.557,291.105z"/>
				<path fill="#F2F2F2" stroke="#595A5C" stroke-width="0.5" stroke-miterlimit="10" d="M99.57,310.201
					c14.253-3.276,13.821-13.128,13.408-15.869l-0.136-0.716l-0.825-4.32c0,0-2.281-10.754-17.808-7.182
					c-15.527,3.571-13.686,14.425-13.686,14.425l0.825,4.319l0.136,0.717C82.111,304.267,85.318,313.479,99.57,310.201"/>
				<path fill="#F2F2F2" stroke="#595A5C" stroke-width="0.5" stroke-miterlimit="10" d="M112.335,298.664l-4.475-3.241
					c0.901-1.136,1.339-2.692,1.036-4.28c-0.514-2.69-2.918-4.415-5.368-3.853c-1.433,0.329-2.548,1.377-3.139,2.722l-4.316-3.129
					l-0.688,0.947l4.629,3.354c-0.117,0.642-0.122,1.316,0.008,1.998c0.514,2.689,2.916,4.414,5.366,3.851
					c0.605-0.14,1.157-0.407,1.637-0.77l4.622,3.349L112.335,298.664z"/>
				<path fill="#F2F2F2" stroke="#595A5C" stroke-width="0.5" stroke-miterlimit="10" d="M80.153,294.586l-0.04-0.209
					C80.113,294.377,80.125,294.452,80.153,294.586"/>
				<path fill="#F2F2F2" stroke="#595A5C" stroke-width="0.5" stroke-miterlimit="10" d="M111.604,287.135l0.041,0.209
					C111.62,287.208,111.604,287.135,111.604,287.135"/>
				<path fill="#F2F2F2" stroke="#595A5C" stroke-width="0.5" stroke-miterlimit="10" d="M80.342,295.575
					c0,0,5.966-3.426,15.369-5.589c9.402-2.162,16.122-1.653,16.122-1.653s-1.441-9.939-17.624-6.219
					C78.025,285.836,80.342,295.575,80.342,295.575"/>
				<g>
					<polygon fill="#F2F2F2" stroke="#595A5C" stroke-width="0.5" stroke-miterlimit="10" points="106.541,287.409 101.855,287.721 
						101.75,285.782 106.431,285.469 					"/>
				</g>
				<path fill="#F2F2F2" stroke="#595A5C" stroke-width="0.5" stroke-miterlimit="10" d="M92.838,271.018
					c0.188,0.028,0.407,0.059,0.631,0.084c0.317,0.039,0.577-0.276,0.513-0.619l-0.433-2.264c-0.039-0.203-0.187-0.363-0.371-0.4
					c-0.037-0.007-0.073-0.015-0.109-0.023c-0.386-0.086-0.542-0.262-0.612-0.633c-0.059-0.297,0.087-0.581,0.416-0.8
					c0.172-0.112,0.26-0.332,0.219-0.547l-0.059-0.305c-0.054-0.28,0.108-0.554,0.363-0.611l0.132-0.03
					c0.258-0.059,0.506,0.12,0.559,0.398l0.063,0.327c0.042,0.228,0.218,0.386,0.425,0.408c0.359,0.041,0.692,0.157,1.003,0.354
					c0.2,0.128,0.457,0.063,0.599-0.138l1.174-1.675c0.162-0.231,0.121-0.568-0.096-0.733c-1.166-0.889-2.617-1.131-4.361-0.729
					c-1.164,0.269-2.095,0.829-2.791,1.705c-0.696,0.875-0.921,1.912-0.688,3.134C89.746,269.662,90.893,270.692,92.838,271.018"/>
				<path fill="#F2F2F2" stroke="#595A5C" stroke-width="0.5" stroke-miterlimit="10" d="M95.907,268.089
					c-0.216-0.032-0.443-0.064-0.672-0.092c-0.316-0.037-0.575,0.276-0.51,0.619l0.44,2.318c0.041,0.209,0.195,0.37,0.39,0.403
					c0,0,0.001,0,0.003,0.001c0.494,0.099,0.743,0.293,0.811,0.645c0.074,0.392-0.089,0.71-0.49,0.951
					c-0.178,0.105-0.266,0.335-0.224,0.552l0.063,0.34c0.055,0.279-0.109,0.553-0.364,0.611l-0.132,0.03
					c-0.256,0.059-0.504-0.12-0.557-0.398l-0.06-0.3c-0.045-0.24-0.237-0.407-0.461-0.408c-0.775-0.01-1.505-0.276-2.087-0.727
					c-0.192-0.148-0.463-0.103-0.616,0.096l-1.304,1.668c-0.169,0.216-0.148,0.548,0.052,0.729c0.539,0.487,1.189,0.871,1.96,1.15
					c0.963,0.339,2.095,0.35,3.408,0.047c3.122-0.718,4.387-2.671,3.91-5.17C99.133,269.396,98.083,268.42,95.907,268.089"/>
				<path fill="#F2F2F2" stroke="#595A5C" stroke-width="0.5" stroke-miterlimit="10" d="M108.324,301.045
					c0,0-4.426-5.247-8.562-1.791c-5.05-1.343-7.185,5.412-7.185,5.412c-7.478,1.722-12.098-8.443-12.427-10.08l2.366,12.396
					c1.682,8.803,11.777,6.688,11.777,6.688l8.697,2.511l0,0l7.048-6.133c0,0,5.647-1.507,3.968-10.31l-2.364-12.395
					C111.506,290.567,115.797,299.327,108.324,301.045 M100.794,304.657L100.794,304.657L100.794,304.657L100.794,304.657
					c-5.431,1.458-6.248-0.442-6.248-0.442c3.211,0.098,5.556-3.15,5.562-3.158c0.008,0.005,3.343,1.945,6.247,0.442
					C106.355,301.499,106.299,303.6,100.794,304.657"/>
				<path fill="#F2F2F2" stroke="#595A5C" stroke-width="0.5" stroke-miterlimit="10" d="M102.327,297.867
					c0.122,0.639-1.121,1.465-2.773,1.845c-1.655,0.38-3.094,0.172-3.216-0.467c-0.121-0.638,1.121-1.463,2.774-1.844
					C100.764,297.02,102.204,297.228,102.327,297.867z"/>
				<g>
					<path fill="#F2F2F2" stroke="#595A5C" stroke-width="0.5" stroke-miterlimit="10" d="M90.301,289.396l-1.949-1.131
						c0.9-1.562,3.463-4.073,6.731-2.414l-1.021,2.008C91.926,286.776,90.46,289.124,90.301,289.396z"/>
				</g>
				<path fill="#F2F2F2" stroke="#595A5C" stroke-width="0.5" stroke-miterlimit="10" d="M92.715,296.253
					c0.353-0.155,0.751-0.29,1.188-0.378c0.493-0.101,0.961-0.129,1.381-0.105c0.113-0.305,0.149-0.646,0.084-0.993
					c-0.176-0.914-0.991-1.502-1.826-1.311c-0.834,0.192-1.368,1.091-1.193,2.006C92.405,295.775,92.539,296.039,92.715,296.253z"/>
			</g>
		</g>
	</g>
	<g>
		
			<ellipse transform="matrix(0.9973 0.0737 -0.0737 0.9973 24.3969 -11.7196)" fill="#F2F2F2" stroke="#595A5C" stroke-width="0.5" stroke-miterlimit="10" cx="170.96" cy="324.636" rx="5.405" ry="15.134"/>
		<path fill="#F2F2F2" stroke="#595A5C" stroke-width="0.5" stroke-miterlimit="10" d="M170.145,311.235l-89.675-8.853l-2.289,30.96
			l90.001,4.43c2.443,0.181,4.863-5.613,5.405-12.941S172.587,311.416,170.145,311.235z"/>
		<path fill="#F2F2F2" stroke="#595A5C" stroke-width="0.5" stroke-miterlimit="10" d="M80.919,296.302l-85.979-9.969l-3.719,50.309
			l86.51,2.782c3.969,0.294,7.901-9.121,8.782-21.03C87.392,306.485,84.888,296.595,80.919,296.302z"/>
		<path fill="#F2F2F2" stroke="#595A5C" stroke-width="0.5" stroke-miterlimit="10" d="M-8.388,282.473l-14.375-1.063l-4.25,57.496
			l14.374,1.063c7.938,0.587,15.326-11.808,16.5-27.686C5.034,296.407-0.449,283.06-8.388,282.473z"/>
		
			<ellipse transform="matrix(0.9973 0.0737 -0.0737 0.9973 22.7941 2.6782)" fill="#F2F2F2" stroke="#595A5C" stroke-width="0.5" stroke-miterlimit="10" cx="-24.888" cy="310.158" rx="12.354" ry="28.827"/>
		
			<ellipse transform="matrix(0.9973 0.0737 -0.0737 0.9973 22.7968 2.6786)" fill="#F2F2F2" stroke="#595A5C" stroke-width="0.5" stroke-miterlimit="10" cx="-24.888" cy="310.159" rx="10.81" ry="25.224"/>
		
			<ellipse transform="matrix(0.9973 0.0737 -0.0737 0.9973 22.8112 2.5465)" fill="#F2F2F2" stroke="#595A5C" stroke-width="0.5" stroke-miterlimit="10" cx="-23.091" cy="310.292" rx="9.008" ry="25.223"/>
		
			<ellipse transform="matrix(0.9925 0.1224 -0.1224 0.9925 36.5121 5.2402)" fill="#F2F2F2" stroke="#595A5C" stroke-width="0.5" stroke-miterlimit="10" cx="-24.41" cy="299.902" rx="3.603" ry="10.09"/>
	</g>
	<path fill="#FFFFFF" stroke="#595A5C" stroke-width="0.5" stroke-miterlimit="10" d="M715.866,226.379
		c-1.402,0-2.673,0.133-3.825,0.368c-2.604-1.989-6.199-3.368-11.175-3.368c-7.295,0-11.632,2.956-14.213,6.475
		c-1.105-0.3-2.358-0.476-3.786-0.476c-12.001,0-12.001,12.001-12.001,12.001h12.001h11.999h6h18h12
		C730.866,241.379,730.866,226.379,715.866,226.379z"/>
	<g>
		<g>
			<path fill="#F2F2F2" stroke="#595A5C" stroke-width="0.41" stroke-miterlimit="10" d="M757.006,312.08h-22.141v-8.2h22.141
				c10.359,0,10.659-9.567,10.659-10.659V271.08c0-10.359-9.567-10.66-10.659-10.66h-22.141v-8.199h22.141
				c7.581,0,18.859,5.021,18.859,18.859v22.141C775.866,300.8,770.844,312.08,757.006,312.08z"/>
		</g>
		<path fill="#F2F2F2" stroke="#595A5C" stroke-width="0.5" stroke-miterlimit="10" d="M666.366,334.08c0,0-7.5,0-7.5-7.5v-90h90v90
			c0,0,0,7.5-7.5,7.5H666.366z"/>
	</g>
	<g>
		<path fill="#F2F2F2" stroke="#595A5C" stroke-width="0.5" stroke-miterlimit="10" d="M157.193,25.379c0,0,0-9,9-9h432c0,0,9,0,9,9
			V322.38h-450L157.193,25.379L157.193,25.379z"/>
		
			<rect x="166.193" y="34.379" fill="#FFFFFF" stroke="#595A5C" stroke-width="0.5" stroke-miterlimit="10" width="432" height="270"/>
		<g>
			<path fill="#D1D2D3" stroke="#595A5C" stroke-width="0.5" stroke-miterlimit="10" d="M366.8,25.379c0,0,0-5.131,5.131-5.131
				h20.524c0,0,5.131,0,5.131,5.131c0,0,0,5.132-5.131,5.132H371.93C371.93,30.51,366.8,30.51,366.8,25.379z"/>
			<circle fill="#F2F2F2" stroke="#595A5C" stroke-width="0.5" stroke-miterlimit="10" cx="382.192" cy="25.379" r="5.131"/>
			<circle fill="#F2F2F2" stroke="#595A5C" stroke-width="0.5" stroke-miterlimit="10" cx="382.192" cy="25.379" r="3.305"/>
		</g>
		<path fill="#D1D2D3" stroke="#595A5C" stroke-width="0.5" stroke-miterlimit="10" d="M157.193,322.38h-36c0,0,0,18,18,18h486
			c0,0,18,0,18-18h-36H157.193z"/>
		<path fill="#F2F2F2" stroke="#595A5C" stroke-width="0.5" stroke-miterlimit="10" d="M346.192,322.38c0,0,0,9,9,9h54c0,0,9,0,9-9
			H346.192z"/>
		<rect x="166.193" y="313.38" fill="#F2F2F2" stroke="#595A5C" stroke-width="0.5" stroke-miterlimit="10" width="36" height="9"/>
		<rect x="562.193" y="313.38" fill="#F2F2F2" stroke="#595A5C" stroke-width="0.5" stroke-miterlimit="10" width="36" height="9"/>
	</g>
	<g>
		<path fill="#F2F2F2" stroke="#595A5C" stroke-width="0.5" stroke-miterlimit="10" d="M690.226,279.845
			c0,0,18.929,9.194,2.788,15.146C693.014,294.993,697.729,283.917,690.226,279.845z"/>
		<path fill="#F2F2F2" stroke="#595A5C" stroke-width="0.5" stroke-miterlimit="10" d="M702.357,275.48
			c0,0,12.501,6.145,9.318,13.458c-3.185,7.313-7.283,3.874-7.283,3.874s3.171-8.537,3.474-8.205
			c0.303,0.334-2.289-5.098-2.289-5.098L702.357,275.48z"/>
		<path fill="#F2F2F2" stroke="#595A5C" stroke-width="0.5" stroke-miterlimit="10" d="M702.077,294.501
			c0,0,19.618-3.894-0.684-19.79C701.394,274.711,710.219,286.171,702.077,294.501z"/>
		<path fill="#F2F2F2" stroke="#595A5C" stroke-width="0.5" stroke-miterlimit="10" d="M701.661,263.562
			c0,0,14.517,4.646-0.111,11.313C701.549,274.875,707.789,270.367,701.661,263.562z"/>
		<polygon fill="#F2F2F2" stroke="#595A5C" stroke-width="0.5" stroke-miterlimit="10" points="701.388,256.956 702.077,300.316 
			700.009,300.316 700.699,256.956 		"/>
		<path fill="#F2F2F2" stroke="#595A5C" stroke-width="0.5" stroke-miterlimit="10" d="M689.58,295.901
			c0,0,19.618-3.338-0.684-16.963C688.897,278.938,697.721,288.759,689.58,295.901z"/>
		<path fill="#F2F2F2" stroke="#595A5C" stroke-width="0.5" stroke-miterlimit="10" d="M689.58,268.409
			c0,0,14.515,4.638-0.111,11.295C689.469,279.704,695.707,275.202,689.58,268.409z"/>
		<path fill="#F2F2F2" stroke="#595A5C" stroke-width="0.5" stroke-miterlimit="10" d="M713.073,277.81c0,0,16.905,7.819,0,13.594
			C713.073,291.404,718.989,285.519,713.073,277.81z"/>
		<path fill="#F2F2F2" stroke="#595A5C" stroke-width="0.5" stroke-miterlimit="10" d="M713.089,267.998
			c0,0,10.823,5.079,0.668,10.563C713.757,278.561,717.231,272.847,713.089,267.998z"/>
		<path fill="#F2F2F2" stroke="#595A5C" stroke-width="0.5" stroke-miterlimit="10" d="M713.073,268.182
			c0,0,18.492,5.76,18.492,20.756c0,0-4.177-3.193-9.552-0.416C722.014,288.522,727.073,277.419,713.073,268.182z"/>
		<polygon fill="#F2F2F2" stroke="#595A5C" stroke-width="0.5" stroke-miterlimit="10" points="713.053,267.022 713.743,300.316 
			711.675,300.316 712.365,267.022 		"/>
		<polygon fill="#F2F2F2" stroke="#595A5C" stroke-width="0.5" stroke-miterlimit="10" points="689.307,267.022 689.997,300.316 
			687.928,300.316 688.618,267.022 		"/>
		<polygon fill="#F2F2F2" stroke="#595A5C" stroke-width="0.5" stroke-miterlimit="10" points="737.034,290.757 736.713,290.085 
			719.163,293.674 719.918,295.539 		"/>
		<polygon fill="#F2F2F2" stroke="#595A5C" stroke-width="0.5" stroke-miterlimit="10" points="675.329,300 671.581,300 
			667.831,311.248 679.078,311.248 		"/>
		
			<rect x="671.926" y="291.156" fill="#F2F2F2" stroke="#595A5C" stroke-width="0.5" stroke-miterlimit="10" width="12.636" height="5.426"/>
		
			<rect x="671.528" y="290.325" fill="#F2F2F2" stroke="#595A5C" stroke-width="0.5" stroke-miterlimit="10" width="13.435" height="0.831"/>
		
			<rect x="671.528" y="288.106" fill="#F2F2F2" stroke="#595A5C" stroke-width="0.5" stroke-miterlimit="10" width="13.435" height="0.832"/>
		<path fill="#F2F2F2" stroke="#595A5C" stroke-width="0.5" stroke-miterlimit="10" d="M724.068,292.502l-22.495,3.749V300h-14.995
			v-3.749l-14.889-0.966c0,0-0.107,15.962,7.39,15.962h33.74C712.819,311.248,724.068,311.248,724.068,292.502z"/>
		
			<line fill="none" stroke="#595A5C" stroke-width="0.5" stroke-miterlimit="10" x1="724.068" y1="296.251" x2="701.573" y2="296.251"/>
		
			<line fill="none" stroke="#595A5C" stroke-width="0.5" stroke-miterlimit="10" x1="686.577" y1="296.668" x2="671.723" y2="296.668"/>
		
			<line fill="none" stroke="#595A5C" stroke-width="0.5" stroke-miterlimit="10" x1="723.252" y1="300.316" x2="671.929" y2="300.316"/>
		
			<line fill="none" stroke="#595A5C" stroke-width="0.5" stroke-miterlimit="10" x1="722.014" y1="304.034" x2="672.759" y2="304.034"/>
		
			<line fill="none" stroke="#595A5C" stroke-width="0.5" stroke-miterlimit="10" x1="719.746" y1="307.631" x2="674.086" y2="307.631"/>
		
			<rect x="682.043" y="291.826" fill="#F2F2F2" stroke="#595A5C" stroke-width="0.5" stroke-miterlimit="10" width="1.18" height="2.734"/>
		
			<rect x="677.608" y="291.826" fill="#F2F2F2" stroke="#595A5C" stroke-width="0.5" stroke-miterlimit="10" width="1.181" height="2.734"/>
		
			<rect x="673.176" y="291.826" fill="#F2F2F2" stroke="#595A5C" stroke-width="0.5" stroke-miterlimit="10" width="1.18" height="2.734"/>
		
			<line fill="none" stroke="#595A5C" stroke-width="0.5" stroke-miterlimit="10" x1="736.094" y1="291.021" x2="712.343" y2="267.998"/>
		
			<line fill="none" stroke="#595A5C" stroke-width="0.5" stroke-miterlimit="10" x1="701.043" y1="263.562" x2="706.315" y2="295.539"/>
		
			<line fill="none" stroke="#595A5C" stroke-width="0.5" stroke-miterlimit="10" x1="701.043" y1="263.562" x2="694.074" y2="300.316"/>
		<polygon fill="#F2F2F2" stroke="#595A5C" stroke-width="0.5" stroke-miterlimit="10" points="703.057,260.342 702.25,263.562 
			699.836,263.562 699.031,260.342 		"/>
		<g>
			<path fill="#F2F2F2" stroke="#595A5C" stroke-width="0.5" stroke-miterlimit="10" d="M677.06,311.248c0,0,55.06-12.345,44.572,0
				H677.06z"/>
			<path fill="#F2F2F2" stroke="#595A5C" stroke-width="0.5" stroke-miterlimit="10" d="M694.166,311.248c0,0,31.619-7.09,25.597,0
				H694.166z"/>
		</g>
		
			<rect x="671.926" y="288.938" fill="#F2F2F2" stroke="#595A5C" stroke-width="0.5" stroke-miterlimit="10" width="0.58" height="1.388"/>
		
			<rect x="683.773" y="288.938" fill="#F2F2F2" stroke="#595A5C" stroke-width="0.5" stroke-miterlimit="10" width="0.581" height="1.388"/>
		
			<rect x="680.812" y="288.938" fill="#F2F2F2" stroke="#595A5C" stroke-width="0.5" stroke-miterlimit="10" width="0.579" height="1.388"/>
		
			<rect x="677.85" y="288.938" fill="#F2F2F2" stroke="#595A5C" stroke-width="0.5" stroke-miterlimit="10" width="0.58" height="1.388"/>
		
			<rect x="674.888" y="288.938" fill="#F2F2F2" stroke="#595A5C" stroke-width="0.5" stroke-miterlimit="10" width="0.58" height="1.388"/>
		
			<rect x="677.85" y="301.302" fill="#F2F2F2" stroke="#595A5C" stroke-width="0.5" stroke-miterlimit="10" width="1.301" height="1.776"/>
		
			<rect x="685.028" y="301.302" fill="#F2F2F2" stroke="#595A5C" stroke-width="0.5" stroke-miterlimit="10" width="1.301" height="1.776"/>
		
			<rect x="692.207" y="301.302" fill="#F2F2F2" stroke="#595A5C" stroke-width="0.5" stroke-miterlimit="10" width="1.302" height="1.776"/>
		
			<rect x="699.385" y="301.302" fill="#F2F2F2" stroke="#595A5C" stroke-width="0.5" stroke-miterlimit="10" width="1.301" height="1.776"/>
		
			<rect x="706.564" y="301.302" fill="#F2F2F2" stroke="#595A5C" stroke-width="0.5" stroke-miterlimit="10" width="1.302" height="1.776"/>
		
			<rect x="713.743" y="301.302" fill="#F2F2F2" stroke="#595A5C" stroke-width="0.5" stroke-miterlimit="10" width="1.302" height="1.776"/>
		
			<rect x="686.577" y="298.341" fill="#F2F2F2" stroke="#595A5C" stroke-width="0.5" stroke-miterlimit="10" width="4.784" height="0.593"/>
		
			<rect x="696.993" y="298.341" fill="#F2F2F2" stroke="#595A5C" stroke-width="0.5" stroke-miterlimit="10" width="4.784" height="0.593"/>
		
			<rect x="690.226" y="298.933" fill="#F2F2F2" stroke="#595A5C" stroke-width="0.5" stroke-miterlimit="10" width="0.494" height="1.066"/>
		
			<rect x="697.631" y="298.933" fill="#F2F2F2" stroke="#595A5C" stroke-width="0.5" stroke-miterlimit="10" width="0.492" height="1.066"/>
		
			<rect x="699.506" y="263.136" fill="#F2F2F2" stroke="#595A5C" stroke-width="0.5" stroke-miterlimit="10" width="2.961" height="0.426"/>
		
			<rect x="688.104" y="279.509" fill="#F2F2F2" stroke="#595A5C" stroke-width="0.5" stroke-miterlimit="10" width="1.894" height="0.322"/>
		
			<rect x="700.009" y="274.711" fill="#F2F2F2" stroke="#595A5C" stroke-width="0.5" stroke-miterlimit="10" width="2.067" height="0.346"/>
		
			<rect x="711.906" y="277.648" fill="#F2F2F2" stroke="#595A5C" stroke-width="0.5" stroke-miterlimit="10" width="1.532" height="0.34"/>
		
			<rect x="687.928" y="295.539" fill="#F2F2F2" stroke="#595A5C" stroke-width="0.5" stroke-miterlimit="10" width="2.068" height="0.362"/>
		
			<rect x="699.691" y="294.121" fill="#F2F2F2" stroke="#595A5C" stroke-width="0.5" stroke-miterlimit="10" width="2.666" height="0.439"/>
		
			<rect x="712.054" y="267.998" fill="#F2F2F2" stroke="#595A5C" stroke-width="0.5" stroke-miterlimit="10" width="1.249" height="0.26"/>
		
			<rect x="688.252" y="268.128" fill="#F2F2F2" stroke="#595A5C" stroke-width="0.5" stroke-miterlimit="10" width="1.327" height="0.28"/>
	</g>
</g>
<g id="Layer_2" display="none">
</g>
</svg>
