<?xml version="1.0" encoding="utf-8"?>
<!-- Generator: Adobe Illustrator 16.0.0, SVG Export Plug-In . SVG Version: 6.00 Build 0)  -->
<!DOCTYPE svg PUBLIC "-//W3C//DTD SVG 1.1//EN" "http://www.w3.org/Graphics/SVG/1.1/DTD/svg11.dtd">
<svg version="1.1" id="Layer_2" xmlns="http://www.w3.org/2000/svg" xmlns:xlink="http://www.w3.org/1999/xlink" x="0px" y="0px"
	 width="274.473px" height="395.074px" viewBox="244.789 -22.898 274.473 395.074"
	 enable-background="new 244.789 -22.898 274.473 395.074" xml:space="preserve">
<g>
	<path fill="#F2F2F2" stroke="#595A5C" stroke-width="0.5" stroke-miterlimit="10" d="M290.535,31.684c0,0,0-11.437,11.437-11.437
		h160.11c0,0,11.436,0,11.436,11.437v297.347c0,0,0,11.437-11.436,11.437h-160.11c0,0-11.437,0-11.437-11.437V31.684z"/>
	
		<rect x="290.535" y="43.121" fill="#FFFFFF" stroke="#595A5C" stroke-width="0.5" stroke-miterlimit="10" width="182.982" height="263.037"/>
	<circle fill="#F2F2F2" stroke="#595A5C" stroke-width="0.5" stroke-miterlimit="10" cx="382.026" cy="322.677" r="11.436"/>
	<g>
		<g>
			<circle fill="#F2F2F2" stroke="#595A5C" stroke-width="0.5" stroke-miterlimit="10" cx="324.209" cy="32.498" r="5.718"/>
			<circle fill="#F2F2F2" stroke="#595A5C" stroke-width="0.5" stroke-miterlimit="10" cx="324.209" cy="32.498" r="2.859"/>
		</g>
		<path fill="#D1D2D3" stroke="#595A5C" stroke-width="0.5" stroke-miterlimit="10" d="M346.129,32.546c0,0,0-3.403,3.403-3.403
			h64.67c0,0,3.404,0,3.404,3.403c0,0,0,3.405-3.404,3.405h-64.67C349.532,35.95,346.129,35.95,346.129,32.546z"/>
	</g>
</g>
<g>
	<polygon fill="#D1D2D3" stroke="#595A5C" stroke-width="0.5297" stroke-miterlimit="10" points="501.763,39.616 497.247,51.559 
		505.316,51.88 	"/>
	<polygon fill="#F2F2F2" stroke="#595A5C" stroke-width="0.5297" stroke-miterlimit="10" points="497.247,51.559 492.731,63.503 
		508.87,64.145 505.316,51.88 	"/>
	
		<rect x="488.326" y="63.497" transform="matrix(0.9992 0.0401 -0.0401 0.9992 7.3927 -19.5429)" fill="#F2F2F2" stroke="#595A5C" stroke-width="0.5297" stroke-miterlimit="10" width="4.038" height="221.643"/>
	
		<rect x="492.361" y="63.736" transform="matrix(-0.9992 -0.0397 0.0397 -0.9992 985.4792 368.674)" fill="#F2F2F2" stroke="#595A5C" stroke-width="0.5297" stroke-miterlimit="10" width="8.074" height="221.645"/>
	
		<rect x="500.43" y="63.978" transform="matrix(-0.9992 -0.0392 0.0392 -0.9992 997.6642 369.1484)" fill="#F2F2F2" stroke="#595A5C" stroke-width="0.5297" stroke-miterlimit="10" width="4.038" height="221.642"/>
	
		<rect x="483.839" y="285.29" transform="matrix(0.9992 0.0397 -0.0397 0.9992 11.7843 -19.2874)" fill="#F2F2F2" stroke="#595A5C" stroke-width="0.5297" stroke-miterlimit="10" width="16.149" height="4.038"/>
	
		<rect x="483.598" y="289.325" transform="matrix(0.9992 0.0398 -0.0398 0.9992 12.0612 -19.3299)" fill="#F2F2F2" stroke="#595A5C" stroke-width="0.5297" stroke-miterlimit="10" width="16.15" height="8.073"/>
	<path fill="#F2F2F2" stroke="#595A5C" stroke-width="0.5297" stroke-miterlimit="10" d="M483.444,297.073l-0.321,8.07
		c0,0-0.161,4.035,3.874,4.197l8.068,0.32c0,0,4.034,0.16,4.196-3.873l0.32-8.072L483.444,297.073z"/>
</g>
<g>
	
		<rect x="252.612" y="109.276" transform="matrix(0.9984 -0.0569 0.0569 0.9984 -7.292 15.0599)" fill="#D1D2D3" stroke="#595A5C" stroke-width="0.5297" stroke-miterlimit="10" width="16.151" height="52.489"/>
	
		<rect x="254.222" y="161.719" transform="matrix(0.9984 -0.057 0.057 0.9984 -8.9007 15.2064)" fill="#F2F2F2" stroke="#595A5C" stroke-width="0.5297" stroke-miterlimit="10" width="16.15" height="4.038"/>
	
		<rect x="258.976" y="165.62" transform="matrix(0.9984 -0.057 0.057 0.9984 -13.6518 15.6284)" fill="#D1D2D3" stroke="#595A5C" stroke-width="0.5297" stroke-miterlimit="10" width="16.151" height="162.866"/>
	<path fill="#D1D2D3" stroke="#595A5C" stroke-width="0.5297" stroke-miterlimit="10" d="M251.13,109.778
		c0,0-0.461-8.062,7.604-8.521c8.06-0.461,8.521,7.602,8.521,7.602L251.13,109.778z"/>
	<path fill="#F2F2F2" stroke="#595A5C" stroke-width="0.5297" stroke-miterlimit="10" d="M255.16,109.549l3.682,64.497
		c0,0,0.229,4.03,4.261,3.802c4.029-0.23,3.801-4.262,3.801-4.262l-3.682-64.498L255.16,109.549z"/>
	
		<rect x="263.73" y="328.349" transform="matrix(0.9984 -0.0571 0.0571 0.9984 -18.4324 16.0701)" fill="#F2F2F2" stroke="#595A5C" stroke-width="0.5297" stroke-miterlimit="10" width="16.151" height="4.037"/>
	<path fill="#D1D2D3" stroke="#595A5C" stroke-width="0.5297" stroke-miterlimit="10" d="M263.859,332.844
		c0,0,0.23,4.029,4.261,3.803l8.062-0.461c0,0,4.032-0.231,3.803-4.265L263.859,332.844z"/>
</g>
</svg>
