<?xml version="1.0" encoding="utf-8"?>
<!-- Generator: Adobe Illustrator 16.0.0, SVG Export Plug-In . SVG Version: 6.00 Build 0)  -->
<!DOCTYPE svg PUBLIC "-//W3C//DTD SVG 1.1//EN" "http://www.w3.org/Graphics/SVG/1.1/DTD/svg11.dtd">
<svg version="1.1" id="Layer_1" xmlns="http://www.w3.org/2000/svg" xmlns:xlink="http://www.w3.org/1999/xlink" x="0px" y="0px"
	 width="20px" height="20px" viewBox="0 0 20 20" enable-background="new 0 0 20 20" xml:space="preserve">
<path fill="#333" d="M10,0.208c-5.408,0-9.792,4.384-9.792,9.792c0,5.407,4.384,9.791,9.792,9.791
	c5.407,0,9.791-4.384,9.791-9.791C19.791,4.592,15.407,0.208,10,0.208z M15.48,8.66l-0.033,0.328
	c-0.436,3.346-3.48,6.874-8.138,6.27c-1.43-0.186-2.706-0.779-3.733-1.643c0.195,0.047,0.396,0.086,0.6,0.111
	c1.187,0.153,2.331-0.105,3.285-0.675c-1.105-0.161-1.944-1.018-2.137-2.063c0.151,0.051,0.308,0.088,0.471,0.107
	c0.231,0.03,0.458,0.028,0.679-0.003C5.347,10.71,4.606,9.574,4.765,8.348l0.004-0.032C5.086,8.55,5.462,8.715,5.875,8.783
	C5.255,8.241,4.909,7.408,5.022,6.53c0.06-0.464,0.241-0.883,0.507-1.229c1.05,1.694,2.785,2.944,4.875,3.322
	c-0.019-0.19-0.017-0.387,0.009-0.585c0.181-1.397,1.462-2.384,2.86-2.203c0.729,0.094,1.346,0.487,1.744,1.04
	c0.592-0.039,1.159-0.18,1.688-0.406c-0.265,0.566-0.729,1.01-1.294,1.255c0.521,0.006,1.025-0.067,1.506-0.21
	C16.514,7.979,16.023,8.37,15.48,8.66z"/>
</svg>
