<?xml version="1.0" encoding="utf-8"?>
<!-- Generator: Adobe Illustrator 20.1.0, SVG Export Plug-In . SVG Version: 6.00 Build 0)  -->
<svg version="1.1" id="Layer_1" xmlns="http://www.w3.org/2000/svg" xmlns:xlink="http://www.w3.org/1999/xlink" x="0px" y="0px"
	 viewBox="0 0 30 30" style="enable-background:new 0 0 30 30;" xml:space="preserve">
<path d="M29.6,15.8c0,0.6-0.2,1.2-0.7,1.7l-1.4,1.4c-0.5,0.5-1,0.7-1.7,0.7c-0.7,0-1.2-0.2-1.7-0.7l-5.5-5.5v13.2
	c0,0.7-0.2,1.2-0.7,1.6c-0.5,0.4-1,0.6-1.7,0.6h-2.4c-0.7,0-1.2-0.2-1.7-0.6c-0.5-0.4-0.7-0.9-0.7-1.6V13.4l-5.5,5.5
	c-0.5,0.5-1,0.7-1.7,0.7s-1.2-0.2-1.7-0.7l-1.4-1.4c-0.5-0.5-0.7-1-0.7-1.7c0-0.7,0.2-1.2,0.7-1.7L13.3,1.9c0.4-0.5,1-0.7,1.7-0.7
	c0.7,0,1.2,0.2,1.7,0.7l12.2,12.2C29.4,14.6,29.6,15.2,29.6,15.8z"/>
</svg>
