<svg width="43" height="43" viewBox="0 0 43 43" xmlns="http://www.w3.org/2000/svg"><path fill="#ffffff" id="path0_fill" d="M 21.5011 9.42327e-09C 9.62631 9.42327e-09 9.42327e-09 9.62631 9.42327e-09 21.5011C 9.42327e-09 33.3737 9.62631 43 21.5011 43C 33.3737 43 43 33.3737 43 21.5011C 43 9.62631 33.3737 9.42327e-09 21.5011 9.42327e-09ZM 33.534 18.5587L 33.4615 19.279C 32.5064 26.6261 25.8202 34.3706 15.5922 33.0465C 12.4523 32.6381 9.65046 31.336 7.39539 29.4388C 7.82357 29.5421 8.26492 29.6277 8.71286 29.6826C 11.3193 30.0207 13.8312 29.452 15.926 28.2026C 13.4997 27.8469 11.6574 25.9673 11.2336 23.6705C 11.5652 23.7825 11.9099 23.8638 12.2678 23.9077C 12.7751 23.9735 13.2735 23.9692 13.7588 23.9011C 11.2841 23.0601 9.65705 20.5657 10.0062 17.8737L 10.015 17.8034C 10.711 18.3172 11.5366 18.6795 12.4435 18.8288C 11.0821 17.6387 10.3224 15.8096 10.5705 13.8817C 10.7022 12.8629 11.0997 11.9429 11.6838 11.1831C 13.9893 14.9028 17.799 17.6475 22.3882 18.4775C 22.3465 18.0603 22.3509 17.6277 22.408 17.193C 22.8054 14.1255 25.6182 11.9582 28.6901 12.3557C 30.2886 12.5621 31.6434 13.425 32.5195 14.6393C 33.8194 14.5536 35.0644 14.244 36.226 13.7478C 35.6441 14.9906 34.6253 15.9655 33.3847 16.5035C 34.5287 16.5167 35.6353 16.3564 36.6915 16.0424C 35.8044 17.0634 34.7285 17.922 33.534 18.5587Z"/></svg>

