<?xml version="1.0" encoding="utf-8"?>
<!-- Generator: Adobe Illustrator 20.1.0, SVG Export Plug-In . SVG Version: 6.00 Build 0)  -->
<svg version="1.1" xmlns="http://www.w3.org/2000/svg" xmlns:xlink="http://www.w3.org/1999/xlink" x="0px" y="0px"
	 viewBox="0 0 779.7 955" style="enable-background:new 0 0 779.7 955;" xml:space="preserve">
<style type="text/css">
	.st0{fill:#26A69A;}
	.st1{fill:#E4DBCA;}
	.st2{fill:#C1B9AE;}
	.st3{fill:#D2C9BB;}
	.st4{fill:#B6ADA3;}
	.st5{fill:#9E2214;}
	.st6{fill:#B25538;}
	.st7{fill:#507281;}
	.st8{fill:#7894A2;}
	.st9{fill:#093542;}
	.st10{fill:#841F1A;}
	.st11{fill:#737245;}
	.st12{fill:#7E8859;}
	.st13{fill:#67643E;}
	.st14{fill:#CEB799;}
	.st15{fill:#B29C83;}
	.st16{fill:#E5D3BD;}
	.st17{fill:none;stroke:#207278;stroke-width:16.9882;stroke-miterlimit:10;}
	.st18{fill:#593B23;}
	.st19{fill:#754C28;}
	.st20{fill:#445A5E;}
	.st21{fill:#333333;}
	.st22{fill:#E4F1DE;}
	.st23{fill:#23373A;}
	.st24{fill:none;stroke:#207278;stroke-width:25.4824;stroke-miterlimit:10;}
	.st25{fill:#EFD3BF;}
	.st26{fill:#207278;}
	.st27{fill:none;stroke:#333333;stroke-width:6.6197;stroke-miterlimit:10;}
	.st28{fill:#404041;}
	.st29{fill:#57ACCD;}
	.st30{fill:none;stroke:#F79542;stroke-width:15.8872;stroke-miterlimit:10;}
	.st31{fill:#E6E7E8;}
	.st32{fill:#E1AF8D;}
	.st33{fill:none;stroke:#333333;stroke-width:8.4942;stroke-miterlimit:10;}
	.st34{fill:#1F6163;}
	.st35{fill:#F79542;}
	.st36{fill:none;stroke:#EFD3BF;stroke-width:12.7412;stroke-linecap:round;stroke-linejoin:round;stroke-miterlimit:10;}
	.st37{fill:#9B633A;}
	.st38{fill:#F1F1F2;}
	.st39{fill:#EC1C24;}
	.st40{fill:#C9202D;}
	.st41{fill:#B0B4B5;}
	.st42{fill:#825330;}
	.st43{fill:#A56E49;}
	.st44{fill:#D8C5B2;}
	.st45{fill:none;stroke:#207278;stroke-width:24.8827;stroke-miterlimit:10;}
	.st46{fill:none;stroke:#207278;stroke-width:37.324;stroke-miterlimit:10;}
	.st47{fill:none;stroke:#333333;stroke-width:9.6958;stroke-miterlimit:10;}
	.st48{fill:none;stroke:#F79542;stroke-width:23.2699;stroke-miterlimit:10;}
	.st49{fill:none;stroke:#333333;stroke-width:12.4413;stroke-miterlimit:10;}
	.st50{fill:#BAA790;}
	.st51{fill:#CCBAA6;}
	.st52{fill:#A5937F;}
	.st53{fill:#FFFFFF;}
	.st54{fill:#855A35;}
	.st55{fill:#91623D;}
	.st56{fill:#754D29;}
	.st57{fill:#593C24;}
	.st58{fill:#93643E;}
	.st59{fill:none;stroke:#593C24;stroke-width:3.5185;stroke-miterlimit:10;}
	.st60{fill:none;stroke:#472F1F;stroke-width:3.5185;stroke-miterlimit:10;}
	.st61{fill:#472F1F;}
	.st62{fill:#734E33;}
	.st63{fill:#D0D2D3;}
	.st64{fill:none;stroke:#207278;stroke-width:34.524;stroke-miterlimit:10;}
	.st65{fill:none;stroke:#333333;stroke-width:9.59;stroke-miterlimit:10;}
	.st66{fill:none;stroke:#F79542;stroke-width:23.0159;stroke-miterlimit:10;}
	.st67{fill:none;stroke:#333333;stroke-width:18.4583;stroke-miterlimit:10;}
	.st68{fill:none;stroke:#207278;stroke-width:24.6111;stroke-miterlimit:10;}
	.st69{fill:#82532F;}
	.st70{fill:#A6A8AB;}
	.st71{fill:#6D6E70;}
	.st72{fill:#B54333;}
	.st73{fill:#C64736;}
	.st74{fill:#D85039;}
	.st75{fill:#E05A48;}
	.st76{fill:#92C9D6;}
	.st77{fill:#4699B2;}
	.st78{fill:#A8926F;}
	.st79{fill:none;stroke:#207278;stroke-width:30.6494;stroke-miterlimit:10;}
	.st80{fill:none;stroke:#333333;stroke-width:7.9619;stroke-miterlimit:10;}
	.st81{fill:none;stroke:#F79542;stroke-width:19.1087;stroke-miterlimit:10;}
	.st82{fill:none;stroke:#333333;stroke-width:10.2165;stroke-miterlimit:10;}
	.st83{fill:none;stroke:#875330;stroke-width:6.8188;stroke-miterlimit:10;}
	.st84{fill:#875330;}
	.st85{fill:#AF734A;}
	.st86{fill:none;stroke:#207278;stroke-width:31.322;stroke-miterlimit:10;}
	.st87{fill:#249386;}
	.st88{fill:#D75038;}
	.st89{fill:#EB9759;}
	.st90{fill:#288EA9;}
	.st91{fill:#1F4E80;}
	.st92{fill:#C74328;}
	.st93{fill:#414141;}
	.st94{fill:#59595C;}
	.st95{fill:#28A4D2;}
	.st96{fill:#FFE6C5;}
	.st97{fill:#DF4E28;}
	.st98{fill:#BBBBBB;}
	.st99{fill:none;stroke:#6D6F71;stroke-width:5.6706;stroke-miterlimit:10;}
	.st100{fill:#6D6F71;}
	.st101{fill:none;stroke:#EFD3BF;stroke-width:25.0788;stroke-miterlimit:10;}
	.st102{fill:none;stroke:#333333;stroke-width:6.5148;stroke-miterlimit:10;}
	.st103{fill:none;stroke:#333333;stroke-width:8.3596;stroke-miterlimit:10;}
	.st104{fill:none;stroke:#EFD3BF;stroke-width:25.6291;stroke-miterlimit:10;}
	.st105{fill:#8FD0E5;}
	.st106{fill:#A3E1EF;}
	.st107{fill:#093858;}
	.st108{fill:#105072;}
	.st109{fill:#AEDDE5;}
</style>
<g id="Layer_2">
</g>
<g id="_x30_1">
</g>
<g id="_x30_2">
</g>
<g id="_x30_3">
	<g>
		<g>
			<path class="st54" d="M443.3,606.7h-31.7v4.2c-63.3,18.3-63.3,90.8-63.3,90.8h63.3h31.7h95C538.3,701.7,538.3,606.7,443.3,606.7z
				"/>
			<path class="st55" d="M316.7,701.7c0,0,0-95,95-95c95,0,95,95,95,95H316.7z"/>
			<rect x="95" y="606.7" class="st55" width="316.7" height="95"/>
			<path class="st54" d="M126.7,606.7H95v4.2c-63.3,18.3-63.3,90.8-63.3,90.8H95h31.7h95C221.7,701.7,221.7,606.7,126.7,606.7z"/>
			<rect y="701.7" class="st56" width="190" height="253.3"/>
			<rect x="31.7" y="733.3" class="st57" width="126.7" height="190"/>
			<rect x="190" y="701.7" class="st58" width="348.3" height="253.3"/>
			<rect x="221.7" y="733.3" class="st56" width="285" height="190"/>
			<line class="st59" x1="221.7" y1="796.7" x2="506.7" y2="796.7"/>
			<line class="st59" x1="221.7" y1="860" x2="506.7" y2="860"/>
			<line class="st60" x1="158.3" y1="796.7" x2="31.7" y2="796.7"/>
			<line class="st60" x1="158.3" y1="860" x2="31.7" y2="860"/>
			<rect x="490.8" y="733.3" class="st57" width="15.8" height="190"/>
			<rect x="31.7" y="733.3" class="st61" width="15.8" height="190"/>
			<path class="st62" d="M0,701.7c0,0,0-95,95-95c95,0,95,95,95,95H0z"/>
			<path class="st57" d="M31.7,685.8c0,0,0-63.3,63.3-63.3c63.3,0,63.3,63.3,63.3,63.3H31.7z"/>
			<rect x="316.7" y="701.7" class="st63" width="95" height="63.3"/>
			<g>
				<circle class="st28" cx="364.2" cy="725.7" r="11.4"/>
				<polygon class="st28" points="352.8,752.3 360.4,729.5 368,729.5 375.5,752.3 				"/>
			</g>
		</g>
		<g>
			<path class="st25" d="M673.6,328c-11.8,24.4-34.9,37.7-51.8,29.6c-16.8-8.1-21-34.5-9.2-58.9c11.8-24.4,34.9-37.7,51.8-29.6
				C681.3,277.2,685.4,303.6,673.6,328z"/>
			<path class="st64" d="M404.8,346.5c0,0,105.2,166.1,215.9,0"/>
			<path class="st26" d="M157,570.1v26.7c0,0,0,53.3,138.1,53.3c138.1,0,138.1-53.3,138.1-53.3v-26.7H157z"/>
			<rect x="157" y="384" class="st26" width="276.2" height="197.4"/>
			<path class="st20" d="M458.3,189.6C411.9,187.7,485,0.1,298.7,0L250,3.3c-139.9,24.1-87.3,201.1-133,209.1
				c-45.7,8-79.7-93.5-73.2,4.9c6.6,98.4,99.5,104.6,99.5,104.6L295,311.7l151.7-10.1c0,0,70.2-17,63.7-115.5
				C503.9,87.7,504.7,191.4,458.3,189.6"/>
			<path class="st25" d="M180.5,304.8c1.2,17.5-9.2,32.4-23.1,33.3c-13.9,0.9-26.2-12.5-27.3-30c-1.2-17.5,9.2-32.4,23.1-33.3
				C167.1,273.9,179.3,287.3,180.5,304.8z"/>
			<path class="st25" d="M457.7,286.3c1.2,17.5-9.2,32.4-23.1,33.3c-13.9,0.9-26.1-12.5-27.3-30c-1.2-17.5,9.2-32.4,23.1-33.3
				C444.3,255.5,456.5,268.9,457.7,286.3z"/>
			<rect x="157" y="467.9" class="st19" width="276.2" height="86.3"/>
			<path class="st64" d="M173.4,394.9c0,0-137.9,59,8.5,132.4"/>
			<path class="st25" d="M300.9,415.1c124.7-8.3,131.8-85.1,131.3-106.8l-0.4-5.7l-2.3-34.4c0,0-7.7-86-143.5-76.9
				c-135.9,9.1-132,95.3-132,95.3l2.3,34.4l0.4,5.7C159,348.2,176.2,423.4,300.9,415.1"/>
			<path class="st21" d="M405.2,278.4c1.6,23.8-16.4,44.3-40.2,45.9c-23.8,1.6-44.3-16.4-45.9-40.2c-1.6-23.8,16.4-44.3,40.2-45.9
				C383.1,236.6,403.6,254.6,405.2,278.4"/>
			<line class="st65" x1="293.2" y1="233.6" x2="418.6" y2="344.3"/>
			<path class="st28" d="M152.9,270.9l-0.1-1.7C152.8,269.2,152.9,269.8,152.9,270.9"/>
			<path class="st28" d="M428.4,250.9l0.1,1.7C428.5,251.5,428.4,250.9,428.4,250.9"/>
			<path class="st29" d="M153.5,278.8c0,0,54.4-19.4,136.7-24.9c82.3-5.5,138.8,6.5,138.8,6.5s-1.4-78.7-143-69.3
				C144.4,200.6,153.5,278.8,153.5,278.8"/>
			<path class="st21" d="M282,290.6c0.5,7.3-5,13.6-12.3,14.1c-7.3,0.5-13.6-5-14.1-12.3c-0.5-7.3,5-13.6,12.3-14.1
				C275.3,277.8,281.6,283.3,282,290.6"/>

				<rect x="358" y="217.6" transform="matrix(7.916152e-02 -0.9969 0.9969 7.916152e-02 99.626 583.3592)" class="st21" width="15.2" height="40.3"/>
			<path class="st21" d="M286.9,109.3c1.6,0.5,3.4,0.9,5.3,1.4c2.7,0.7,5.2-1.4,5-4.2L296,88.5c-0.1-1.6-1.2-3-2.7-3.5
				c-0.3-0.1-0.6-0.2-0.9-0.3c-3.2-1.1-4.3-2.7-4.5-5.6c-0.2-2.4,1.4-4.4,4.4-5.7c1.6-0.7,2.6-2.3,2.5-4l-0.2-2.4
				c-0.1-2.2,1.5-4.1,3.8-4.3l1.2-0.1c2.2-0.1,4.2,1.5,4.3,3.8l0.2,2.6c0.1,1.8,1.4,3.2,3.2,3.7c3,0.7,5.7,2,8.1,3.9
				c1.6,1.2,3.8,1,5.2-0.4l11.8-11.6c1.6-1.6,1.6-4.3,0-5.8c-8.9-8.3-21-11.9-36.3-10.9c-10.2,0.7-18.7,3.9-25.6,9.9
				c-6.9,5.9-9.9,13.7-9.3,23.5C262,95.1,270.7,104.4,286.9,109.3"/>
			<path class="st21" d="M316.1,90.3c-1.8-0.5-3.7-1-5.6-1.5c-2.6-0.7-5.2,1.4-5,4.2l1.2,18.5c0.1,1.7,1.3,3.1,2.9,3.6c0,0,0,0,0,0
				c4.1,1.4,6,3.2,6.2,6c0.2,3.1-1.5,5.4-5.2,6.8c-1.6,0.6-2.6,2.3-2.5,4l0.2,2.7c0.1,2.2-1.5,4.1-3.8,4.3l-1.2,0.1
				c-2.2,0.1-4.1-1.5-4.3-3.8l-0.2-2.4c-0.1-1.9-1.6-3.4-3.5-3.7c-6.6-1-12.5-3.9-17-8.1c-1.5-1.4-3.8-1.4-5.3,0l-12.9,11.4
				c-1.7,1.5-1.9,4.1-0.3,5.7c4,4.4,9.2,8.2,15.4,11.3c7.8,3.8,17.4,5.2,28.9,4.4c27.3-1.8,40.2-15.4,38.9-35.4
				C342.1,104.3,334.3,95.5,316.1,90.3"/>
			<path class="st22" d="M286.5,103.6c1.6,0.5,3.4,0.9,5.3,1.4c2.7,0.7,5.2-1.4,5-4.2l-1.2-18.1c-0.1-1.6-1.2-3-2.7-3.5
				c-0.3-0.1-0.6-0.2-0.9-0.3c-3.2-1.1-4.3-2.7-4.5-5.6c-0.2-2.4,1.4-4.4,4.4-5.7c1.6-0.7,2.6-2.3,2.5-4l-0.2-2.4
				c-0.1-2.2,1.5-4.1,3.8-4.3l1.2-0.1c2.2-0.1,4.2,1.5,4.3,3.8l0.2,2.6c0.1,1.8,1.4,3.2,3.2,3.7c3,0.7,5.7,2,8.1,3.9
				c1.6,1.2,3.8,1,5.2-0.4l11.8-11.6c1.6-1.6,1.7-4.3,0-5.8c-8.9-8.3-21-11.9-36.3-10.9c-10.2,0.7-18.7,3.9-25.6,9.9
				c-6.9,5.9-9.9,13.7-9.3,23.4C261.7,89.4,270.3,98.7,286.5,103.6"/>
			<path class="st22" d="M315.8,84.6c-1.8-0.5-3.7-1-5.6-1.5c-2.7-0.7-5.2,1.5-5,4.2l1.2,18.5c0.1,1.7,1.3,3.1,2.9,3.6c0,0,0,0,0,0
				c4.1,1.4,6,3.2,6.2,6c0.2,3.1-1.5,5.4-5.2,6.8c-1.6,0.6-2.6,2.3-2.5,4l0.2,2.7c0.1,2.2-1.5,4.1-3.8,4.3l-1.2,0.1
				c-2.2,0.1-4.1-1.5-4.3-3.8l-0.2-2.4c-0.1-1.9-1.6-3.4-3.5-3.7c-6.6-1-12.5-3.9-17-8.1c-1.5-1.4-3.8-1.4-5.3,0l-12.9,11.4
				c-1.7,1.5-1.9,4.1-0.4,5.7c4,4.4,9.2,8.2,15.4,11.3c7.8,3.8,17.4,5.2,28.9,4.5c27.3-1.8,40.2-15.4,38.9-35.4
				C341.7,98.6,333.9,89.8,315.8,84.6"/>
			<path class="st18" d="M309.8,511.5c0,6.7-5.5,12.2-12.2,12.2c-6.7,0-12.2-5.5-12.2-12.2c0-6.7,5.5-12.2,12.2-12.2
				C304.4,499.3,309.8,504.8,309.8,511.5z"/>
			<path class="st18" d="M371.3,511.5c0,6.7-5.5,12.2-12.2,12.2c-6.7,0-12.2-5.5-12.2-12.2c0-6.7,5.4-12.2,12.2-12.2
				C365.9,499.3,371.3,504.8,371.3,511.5z"/>
			<circle class="st18" cx="402.2" cy="511.5" r="12.2"/>
			<path class="st18" d="M229.8,511.5c0,6.7-5.4,12.2-12.2,12.2c-6.7,0-12.2-5.5-12.2-12.2c0-6.7,5.5-12.2,12.2-12.2
				C224.4,499.3,229.8,504.8,229.8,511.5z"/>
			<path class="st66" d="M318.1,554.2h-40.3c-12.7,0-23-10.4-23-23v-40.3c0-12.7,10.4-23,23-23h40.3c12.7,0,23,10.4,23,23v40.3
				C341.1,543.8,330.7,554.2,318.1,554.2z"/>
			<path class="st21" d="M385.3,354.7c0,0-31.9-45.9-70.8-24.1c-41.5-16.5-67,33.3-67,33.3c-65.4,4.4-93.6-79.9-94.6-92.9l6.6,98.8
				c4.7,70.2,92.8,65.9,92.8,65.9l71.2,29.9l0,0l66.6-39c0,0,49.6-4.9,45-75.1l-6.6-98.8C429.3,265.6,450.7,350.3,385.3,354.7
				 M317.4,373.6L317.4,373.6L317.4,373.6L317.4,373.6c-47.7,4.8-52.6-10.9-52.6-10.9c27.2,4.6,50.7-17.7,50.7-17.8
				c0.1,0,26.3,19.1,52.6,10.9C368.1,355.8,365.3,372,317.4,373.6"/>
			<rect x="243.3" y="502.4" class="st31" width="51.8" height="17.3"/>
			<g>

					<rect x="602.6" y="312.2" transform="matrix(0.4967 -0.8679 0.8679 0.4967 11.6673 713.2137)" class="st34" width="36.3" height="68.7"/>
				<polygon class="st35" points="659.6,347.8 655,356 595.3,321.9 600,313.7 				"/>
			</g>
			<g>
				<path class="st25" d="M201.9,565.3c-11.3,14.9-30,19.7-41.9,10.7c-11.9-9-12.3-28.3-1.1-43.2c11.3-14.9,30-19.7,41.9-10.7
					C212.7,531.1,213.1,550.4,201.9,565.3z"/>
				<polygon class="st34" points="165.8,562.2 136.1,541.2 175.8,485.1 205.5,506.1 				"/>
				<polygon class="st35" points="165.8,562.2 158.1,556.8 197.8,500.7 205.5,506.1 				"/>
			</g>
			<path class="st32" d="M337.8,322.9c0.3,5.1-11.1,10-25.6,11c-14.5,1-26.5-2.4-26.8-7.5c-0.4-5.1,11.1-10,25.6-11
				C325.5,314.4,337.5,317.8,337.8,322.9z"/>
			<path class="st67" d="M237.2,237.3c0,0,21.5-25.3,46.7-9"/>
			<path class="st68" d="M396.4,591.6c13.2-3.2,224.1-49.4,142.5,91.3"/>
			<g>
				<polygon class="st18" points="574.8,665.8 537.4,748.4 576.8,774.4 572.9,788.8 500.9,769.6 517.2,650.5 				"/>
				<polygon class="st19" points="525.8,636.9 484.8,683.3 591.9,711.8 579.3,651.1 				"/>
			</g>
			<path class="st68" d="M217.6,603.2c0,0,214.2,0.7,171,141.2"/>
			<g>
				<polygon class="st18" points="423.3,721.2 408.4,810.6 453.1,825.6 453.1,840.5 378.6,840.5 363.7,721.2 				"/>
				<polygon class="st69" points="368.5,705.8 340.9,761.2 451.6,761.2 423.9,705.8 				"/>
			</g>
		</g>
		<g>
			<path class="st31" d="M564.8,549.8c0,0,0,25,25,25H715c0,0,25,0,25-25H564.8z"/>
			<path class="st63" d="M386.8,549.8c0,0,0,25,25,25h203c0,0,25,0,25-25H386.8z"/>
			<path class="st70" d="M469.8,549.8c0,0,0,6.6,6.6,6.6h74c0,0,6.6,0,6.6-6.6H469.8z"/>
			<g>
				<g>
					<path class="st70" d="M589.4,549.8l39.2-247.5c0,0,4-25,13.4-25c9.4,0,131.4,0,131.4,0s9.4,0,5.4,25l-39.2,247.5H589.4z"/>
					<polygon class="st53" points="734.1,524.8 602.7,524.8 638,302.2 769.4,302.2 					"/>
				</g>
				<path class="st63" d="M689,289.7c-0.7,4.1-2.8,7.4-4.9,7.4c-2,0-3.2-3.3-2.5-7.4c0.6-4.1,2.8-7.4,4.9-7.4
					C688.5,282.3,689.6,285.6,689,289.7z"/>
				<path class="st71" d="M687.3,289.7c-0.4,2.3-1.6,4.2-2.8,4.2c-1.2,0-1.8-1.9-1.4-4.2c0.4-2.3,1.6-4.2,2.8-4.2
					C687.1,285.6,687.7,287.4,687.3,289.7z"/>
				<path class="st71" d="M697.8,289.7c0,0,0.2-1.1,1.3-1.1h13.5c0,0,1.1,0,0.9,1.1c-0.2,1.1-1.3,1.1-1.3,1.1h-13.5
					C698.7,290.9,697.6,290.9,697.8,289.7z"/>
				<g>
					<polygon class="st29" points="686.4,360.5 661.5,360.5 668.9,313.4 693.8,313.4 					"/>
					<polygon class="st70" points="675.2,372.3 659.6,372.3 660.5,366.4 676.1,366.4 					"/>
					<polygon class="st20" points="717.4,360.5 692.6,360.5 700,313.4 724.9,313.4 					"/>
					<polygon class="st70" points="706.2,372.3 690.7,372.3 691.6,366.4 707.2,366.4 					"/>
					<polygon class="st22" points="748.5,360.5 723.7,360.5 731.1,313.4 756,313.4 					"/>
					<polygon class="st70" points="737.3,372.3 721.8,372.3 722.7,366.4 738.3,366.4 					"/>
					<polygon class="st26" points="675.2,431.2 650.3,431.2 657.7,384.1 682.6,384.1 					"/>
					<polygon class="st70" points="664,442.9 648.4,442.9 649.4,437.1 664.9,437.1 					"/>
					<polygon class="st35" points="706.2,431.2 681.4,431.2 688.8,384.1 713.7,384.1 					"/>
					<polygon class="st70" points="695.1,442.9 679.5,442.9 680.4,437.1 696,437.1 					"/>
					<polygon class="st29" points="737.3,431.2 712.5,431.2 719.9,384.1 744.8,384.1 					"/>
					<polygon class="st70" points="726.1,442.9 710.6,442.9 711.5,437.1 727.1,437.1 					"/>
					<polygon class="st21" points="664,501.8 639.1,501.8 646.5,454.7 671.4,454.7 					"/>
					<polygon class="st70" points="652.8,513.6 637.2,513.6 638.2,507.7 653.7,507.7 					"/>
					<polygon class="st22" points="695.1,501.8 670.2,501.8 677.6,454.7 702.5,454.7 					"/>
					<polygon class="st70" points="683.9,513.6 668.3,513.6 669.2,507.7 684.8,507.7 					"/>
					<polygon class="st29" points="726.1,501.8 701.3,501.8 708.7,454.7 733.6,454.7 					"/>
					<polygon class="st70" points="714.9,513.6 699.4,513.6 700.3,507.7 715.9,507.7 					"/>
					<polygon class="st70" points="661.8,319.3 643.1,319.3 644.1,313.4 662.7,313.4 					"/>
					<polygon class="st63" points="653.7,331 641.3,331 642.2,325.1 654.6,325.1 					"/>
					<polygon class="st63" points="648.7,342.8 639.4,342.8 640.3,336.9 649.7,336.9 					"/>
					<polygon class="st63" points="658.1,342.8 651.9,342.8 652.8,336.9 659,336.9 					"/>
					<polygon class="st63" points="653.1,354.6 637.5,354.6 638.5,348.7 654,348.7 					"/>
					<polygon class="st63" points="654.3,366.4 635.7,366.4 636.6,360.5 655.3,360.5 					"/>
					<polygon class="st63" points="649.4,378.2 633.8,378.2 634.8,372.3 650.3,372.3 					"/>
				</g>
			</g>
		</g>
	</g>
</g>
<g id="_x30_4">
</g>
<g id="_x30_5">
</g>
</svg>
