<?xml version="1.0" encoding="utf-8"?>
<!-- Generator: Adobe Illustrator 20.1.0, SVG Export Plug-In . SVG Version: 6.00 Build 0)  -->
<svg version="1.1" xmlns="http://www.w3.org/2000/svg" xmlns:xlink="http://www.w3.org/1999/xlink" x="0px" y="0px"
	 viewBox="0 0 849.5 897" style="enable-background:new 0 0 849.5 897;" xml:space="preserve">
<style type="text/css">
	.st0{fill:#26A69A;}
	.st1{fill:#E4DBCA;}
	.st2{fill:#C1B9AE;}
	.st3{fill:#D2C9BB;}
	.st4{fill:#B6ADA3;}
	.st5{fill:#9E2214;}
	.st6{fill:#B25538;}
	.st7{fill:#507281;}
	.st8{fill:#7894A2;}
	.st9{fill:#093542;}
	.st10{fill:#841F1A;}
	.st11{fill:#737245;}
	.st12{fill:#7E8859;}
	.st13{fill:#67643E;}
	.st14{fill:#CEB799;}
	.st15{fill:#B29C83;}
	.st16{fill:#E5D3BD;}
	.st17{fill:none;stroke:#207278;stroke-width:16.9882;stroke-miterlimit:10;}
	.st18{fill:#593B23;}
	.st19{fill:#754C28;}
	.st20{fill:#445A5E;}
	.st21{fill:#333333;}
	.st22{fill:#E4F1DE;}
	.st23{fill:#23373A;}
	.st24{fill:none;stroke:#207278;stroke-width:25.4824;stroke-miterlimit:10;}
	.st25{fill:#EFD3BF;}
	.st26{fill:#207278;}
	.st27{fill:none;stroke:#333333;stroke-width:6.6197;stroke-miterlimit:10;}
	.st28{fill:#404041;}
	.st29{fill:#57ACCD;}
	.st30{fill:none;stroke:#F79542;stroke-width:15.8872;stroke-miterlimit:10;}
	.st31{fill:#E6E7E8;}
	.st32{fill:#E1AF8D;}
	.st33{fill:none;stroke:#333333;stroke-width:8.4942;stroke-miterlimit:10;}
	.st34{fill:#1F6163;}
	.st35{fill:#F79542;}
	.st36{fill:none;stroke:#EFD3BF;stroke-width:12.7412;stroke-linecap:round;stroke-linejoin:round;stroke-miterlimit:10;}
	.st37{fill:#9B633A;}
	.st38{fill:#F1F1F2;}
	.st39{fill:#EC1C24;}
	.st40{fill:#C9202D;}
	.st41{fill:#B0B4B5;}
	.st42{fill:#825330;}
	.st43{fill:#A56E49;}
	.st44{fill:#D8C5B2;}
	.st45{fill:none;stroke:#207278;stroke-width:24.8827;stroke-miterlimit:10;}
	.st46{fill:none;stroke:#207278;stroke-width:37.324;stroke-miterlimit:10;}
	.st47{fill:none;stroke:#333333;stroke-width:9.6958;stroke-miterlimit:10;}
	.st48{fill:none;stroke:#F79542;stroke-width:23.2699;stroke-miterlimit:10;}
	.st49{fill:none;stroke:#333333;stroke-width:12.4413;stroke-miterlimit:10;}
	.st50{fill:#BAA790;}
	.st51{fill:#CCBAA6;}
	.st52{fill:#A5937F;}
	.st53{fill:#FFFFFF;}
	.st54{fill:#855A35;}
	.st55{fill:#91623D;}
	.st56{fill:#754D29;}
	.st57{fill:#593C24;}
	.st58{fill:#93643E;}
	.st59{fill:none;stroke:#593C24;stroke-width:3.5185;stroke-miterlimit:10;}
	.st60{fill:none;stroke:#472F1F;stroke-width:3.5185;stroke-miterlimit:10;}
	.st61{fill:#472F1F;}
	.st62{fill:#734E33;}
	.st63{fill:#D0D2D3;}
	.st64{fill:none;stroke:#207278;stroke-width:34.524;stroke-miterlimit:10;}
	.st65{fill:none;stroke:#333333;stroke-width:9.59;stroke-miterlimit:10;}
	.st66{fill:none;stroke:#F79542;stroke-width:23.0159;stroke-miterlimit:10;}
	.st67{fill:none;stroke:#333333;stroke-width:18.4583;stroke-miterlimit:10;}
	.st68{fill:none;stroke:#207278;stroke-width:24.6111;stroke-miterlimit:10;}
	.st69{fill:#82532F;}
	.st70{fill:#A6A8AB;}
	.st71{fill:#6D6E70;}
	.st72{fill:#B54333;}
	.st73{fill:#C64736;}
	.st74{fill:#D85039;}
	.st75{fill:#E05A48;}
	.st76{fill:#92C9D6;}
	.st77{fill:#4699B2;}
	.st78{fill:#A8926F;}
	.st79{fill:none;stroke:#207278;stroke-width:30.6494;stroke-miterlimit:10;}
	.st80{fill:none;stroke:#333333;stroke-width:7.9619;stroke-miterlimit:10;}
	.st81{fill:none;stroke:#F79542;stroke-width:19.1087;stroke-miterlimit:10;}
	.st82{fill:none;stroke:#333333;stroke-width:10.2165;stroke-miterlimit:10;}
	.st83{fill:none;stroke:#875330;stroke-width:6.8188;stroke-miterlimit:10;}
	.st84{fill:#875330;}
	.st85{fill:#AF734A;}
	.st86{fill:none;stroke:#207278;stroke-width:31.322;stroke-miterlimit:10;}
	.st87{fill:#249386;}
	.st88{fill:#D75038;}
	.st89{fill:#EB9759;}
	.st90{fill:#288EA9;}
	.st91{fill:#1F4E80;}
	.st92{fill:#C74328;}
	.st93{fill:#414141;}
	.st94{fill:#59595C;}
	.st95{fill:#28A4D2;}
	.st96{fill:#FFE6C5;}
	.st97{fill:#DF4E28;}
	.st98{fill:#BBBBBB;}
	.st99{fill:none;stroke:#6D6F71;stroke-width:5.6706;stroke-miterlimit:10;}
	.st100{fill:#6D6F71;}
	.st101{fill:none;stroke:#EFD3BF;stroke-width:25.0788;stroke-miterlimit:10;}
	.st102{fill:none;stroke:#333333;stroke-width:6.5148;stroke-miterlimit:10;}
	.st103{fill:none;stroke:#333333;stroke-width:8.3596;stroke-miterlimit:10;}
	.st104{fill:none;stroke:#EFD3BF;stroke-width:25.6291;stroke-miterlimit:10;}
	.st105{fill:#8FD0E5;}
	.st106{fill:#A3E1EF;}
	.st107{fill:#093858;}
	.st108{fill:#105072;}
	.st109{fill:#AEDDE5;}
</style>
<g id="Layer_2">
</g>
<g id="_x30_1">
	<g>
		<g>
			<g>

					<rect x="156.3" y="619.8" transform="matrix(1 -5.797560e-03 5.797560e-03 1 -3.8825 1.1121)" class="st1" width="67.2" height="100.8"/>
			</g>
			<g>
				<polygon class="st2" points="72.5,721.3 223.8,720.4 223.2,619.6 72,620.5 				"/>
			</g>
			<g>

					<rect x="5" y="620.7" transform="matrix(1 -5.841465e-03 5.841465e-03 1 -3.9196 0.2372)" class="st1" width="67.2" height="100.8"/>
			</g>
			<g>

					<rect x="5" y="620.7" transform="matrix(1 -5.841465e-03 5.841465e-03 1 -3.9196 0.2372)" class="st1" width="67.2" height="100.8"/>
			</g>
			<g>
				<polygon class="st1" points="155.9,603.2 223.1,602.8 223.2,619.6 156,620 				"/>
			</g>
			<g>

					<rect x="71.9" y="603.2" transform="matrix(1 -5.846376e-03 5.846376e-03 1 -3.5734 0.8879)" class="st3" width="156.4" height="16.8"/>
			</g>
			<g>

					<rect x="4.7" y="603.9" transform="matrix(1 -5.738223e-03 5.738223e-03 1 -3.5129 0.2299)" class="st1" width="67.2" height="16.8"/>
			</g>
			<g>

					<rect x="0" y="603.9" transform="matrix(1 -5.747693e-03 5.747693e-03 1 -3.5188 0.2169)" class="st1" width="71.9" height="16.8"/>
			</g>
			<g>
				<polygon class="st4" points="223.2,619.6 223.4,653.2 72.1,637.3 72,620.5 				"/>
			</g>
			<g>
				<polygon class="st3" points="72,620.5 72.1,637.3 4.8,620.9 				"/>
			</g>
			<g>

					<rect x="105.2" y="519.2" transform="matrix(1 -5.734643e-03 5.734643e-03 1 -3.2157 0.9017)" class="st5" width="100.8" height="84"/>
			</g>
			<g>
				<polygon class="st6" points="105.5,603.5 55.1,603.8 54.6,519.8 105,519.5 				"/>
			</g>
			<g>
				<polygon class="st7" points="38.3,603.9 88.7,603.6 88.4,553.2 38,553.5 				"/>
			</g>
			<g>

					<rect x="4.5" y="553.6" transform="matrix(1 -5.725496e-03 5.725496e-03 1 -3.3135 0.1315)" class="st8" width="33.6" height="50.4"/>
			</g>
			<g>
				<polygon class="st9" points="88.5,570.9 88.5,569.1 38.1,569.4 38.1,571.2 				"/>
			</g>
			<g>
				<polygon class="st7" points="38.1,571.2 38.1,569.4 4.5,569.6 4.5,571.4 				"/>
			</g>
			<g>
				<polygon class="st10" points="205.9,536.6 205.9,534.8 105.1,535.4 105.1,537.2 				"/>
			</g>
			<g>
				<polygon class="st5" points="105.1,537.2 105.1,535.4 54.7,535.7 54.7,537.5 				"/>
			</g>
			<g>
				<polygon class="st11" points="121.8,519.4 222.6,518.8 222.1,434.8 121.3,435.4 				"/>
			</g>
			<g>

					<rect x="121.2" y="418.3" transform="matrix(1 -5.824961e-03 5.824961e-03 1 -2.4825 1.0221)" class="st11" width="106" height="16.8"/>
			</g>
			<g>
				<polygon class="st12" points="121.8,519.4 71.4,519.7 70.9,435.7 121.3,435.4 				"/>
			</g>
			<g>

					<rect x="66.6" y="418.8" transform="matrix(1 -5.794499e-03 5.794499e-03 1 -2.4735 0.5515)" class="st12" width="54.6" height="16.8"/>
			</g>
			<g>
				<polygon class="st13" points="222.1,434.8 222.2,451.6 121.3,435.4 				"/>
			</g>
		</g>
		<rect x="225.3" y="210.3" class="st14" width="9.8" height="363.1"/>
		<polygon class="st15" points="384.9,644.7 553.1,868.9 497.1,868.9 384.9,700.8 		"/>
		<polygon class="st14" points="393.4,644.7 561.6,868.9 505.6,868.9 393.4,700.8 		"/>
		<path class="st16" d="M516.7,829.7c3,5.2,2.9,10.7-0.1,12.5c-3,1.7-7.9-1-10.8-6.2c-3-5.2-2.9-10.7,0.1-12.5
			C508.8,821.8,513.7,824.5,516.7,829.7z"/>
		<path class="st17" d="M569.4,555.7c0,0-25.5,104,1.4,172"/>
		<path class="st17" d="M662.8,563.5c-2.2,3.5,23.5,80,0,164.2"/>
		<g>
			<polygon class="st18" points="544.9,692.3 555.2,754.1 524.3,764.4 524.3,774.7 575.8,774.7 586.1,692.3 			"/>
			<polygon class="st19" points="545.3,681.7 526.2,719.9 602.7,719.9 583.6,681.7 			"/>
		</g>
		<g>
			<polygon class="st18" points="690.9,692.3 680.6,754.1 711.5,764.4 711.5,774.7 660,774.7 649.7,692.3 			"/>
			<polygon class="st19" points="653.1,681.7 634,719.9 710.4,719.9 691.3,681.7 			"/>
		</g>
		<g>
			<g>
				<path class="st20" d="M809.7,333c-31.1-7.7,44.5-124.3-81.4-150.4l-33.4-4.6c-97.9-3.2-87.1,123.7-119.1,122.7
					c-32-1-40.8-74.4-50.1-6.9c-9.3,67.4,52.6,84.6,52.6,84.6l104,14.4l104,14.4c0,0,49.9-1.7,59.2-69.1
					C854.7,270.5,840.8,340.7,809.7,333"/>
				<path class="st21" d="M705,254.8c1,0.5,2.2,1.1,3.4,1.7c1.7,0.8,3.7-0.2,4-2.1L714,242c0.2-1.1-0.4-2.2-1.3-2.8
					c-0.2-0.1-0.4-0.2-0.6-0.3c-2-1.2-2.6-2.4-2.3-4.4c0.2-1.6,1.5-2.8,3.8-3.2c1.2-0.2,2-1.2,2.2-2.3l0.2-1.7
					c0.2-1.5,1.6-2.6,3.1-2.4l0.8,0.1c1.5,0.2,2.6,1.6,2.4,3.1l-0.3,1.8c-0.2,1.2,0.5,2.4,1.6,2.9c1.9,0.9,3.6,2.2,5,3.8
					c0.9,1,2.4,1.2,3.6,0.5l9.6-6.2c1.3-0.9,1.7-2.7,0.8-3.9c-4.9-6.8-12.6-11-23-12.4c-7-1-13.2,0-18.7,3.1
					c-5.5,3.1-8.6,7.9-9.5,14.6C690.2,241.7,694.7,249.2,705,254.8"/>
				<path class="st21" d="M727.4,246c-1.1-0.6-2.4-1.2-3.6-1.8c-1.7-0.8-3.7,0.2-4,2.1l-1.7,12.7c-0.2,1.1,0.4,2.3,1.4,2.8l0,0
					c2.6,1.5,3.6,3,3.3,4.9c-0.3,2.1-1.8,3.4-4.5,3.9c-1.2,0.2-2.1,1.2-2.3,2.4l-0.3,1.9c-0.2,1.5-1.6,2.6-3.1,2.4l-0.8-0.1
					c-1.5-0.2-2.6-1.6-2.4-3.1l0.2-1.6c0.2-1.3-0.6-2.5-1.8-3c-4.3-1.6-7.9-4.4-10.3-7.9c-0.8-1.1-2.4-1.5-3.6-0.7l-10.3,5.9
					c-1.3,0.8-1.8,2.5-1.1,3.8c2.1,3.6,5.1,6.8,8.8,9.8c4.8,3.6,11,6,18.9,7c18.7,2.6,29.3-4.8,31.2-18.5
					C743.1,259.1,739,252,727.4,246"/>
				<path class="st22" d="M705.5,250.8c1,0.5,2.2,1.1,3.4,1.7c1.7,0.8,3.7-0.2,4-2.1l1.7-12.4c0.1-1.1-0.4-2.2-1.3-2.8
					c-0.2-0.1-0.4-0.2-0.6-0.3c-2-1.2-2.6-2.4-2.3-4.4c0.2-1.6,1.6-2.8,3.8-3.2c1.2-0.2,2-1.2,2.2-2.3l0.2-1.7
					c0.2-1.5,1.6-2.6,3.1-2.4l0.8,0.1c1.5,0.2,2.6,1.6,2.4,3.1l-0.2,1.8c-0.2,1.2,0.5,2.4,1.6,2.9c1.9,0.9,3.6,2.2,5,3.8
					c0.9,1.1,2.4,1.2,3.6,0.5l9.6-6.2c1.3-0.9,1.7-2.6,0.8-3.9c-4.9-6.8-12.5-11-23-12.4c-7-1-13.2,0-18.7,3.1
					c-5.5,3.1-8.6,7.9-9.5,14.6C690.7,237.8,695.3,245.3,705.5,250.8"/>
				<path class="st22" d="M728,242.1c-1.1-0.6-2.4-1.2-3.6-1.8c-1.7-0.8-3.7,0.2-4,2.1l-1.8,12.7c-0.2,1.1,0.4,2.3,1.4,2.8l0,0
					c2.6,1.5,3.6,3,3.3,4.9c-0.3,2.1-1.8,3.4-4.5,3.9c-1.2,0.2-2.1,1.2-2.3,2.4l-0.3,1.9c-0.2,1.5-1.6,2.6-3.1,2.4l-0.8-0.1
					c-1.5-0.2-2.6-1.6-2.4-3.1l0.2-1.6c0.2-1.3-0.6-2.5-1.8-3c-4.3-1.6-7.9-4.4-10.3-7.9c-0.8-1.1-2.4-1.4-3.6-0.8l-10.3,5.9
					c-1.3,0.8-1.8,2.5-1,3.8c2.1,3.6,5,6.8,8.8,9.8c4.8,3.6,11,6,18.9,7c18.7,2.6,29.3-4.8,31.2-18.5
					C743.6,255.2,739.5,248.1,728,242.1"/>
				<path class="st23" d="M591.1,350.7c0,0,56.7-38.9,95.9,2.3c70.3,73.8,92.9,23.8,92.9,23.8s10.1-53.4-87-66.8
					C595.9,296.6,591.1,350.7,591.1,350.7"/>
			</g>
			<path class="st24" d="M580.9,416.8c0,0-157.2-27.3-58.1,71.5"/>
			<g>
				<path class="st25" d="M777.4,364.5c0,0-7.1,7.2,2.1,16.2l9.2,9.1c0,0,18.4,18.2,32.6,3.9c14.1-14.3-4.3-32.5-4.3-32.5l-9.2-9.1
					c0,0-9.2-9.1-16.3-1.9L777.4,364.5z"/>
			</g>
			<path class="st24" d="M697,471.5c0,0,200.4,55.5,121.3-78.1"/>
			<path class="st26" d="M537.1,543.7l-4.7,17.8c0,0-9.4,35.6,82.7,60c92.1,24.4,101.6-11.1,101.6-11.1l4.7-17.8L537.1,543.7z"/>

				<rect x="557.3" y="400.5" transform="matrix(0.2565 -0.9665 0.9665 0.2565 2.8919 995.3722)" class="st26" width="182.3" height="190.7"/>
			<path class="st25" d="M599.9,374.9c-3.1,11.7-13.2,19.1-22.5,16.7c-9.3-2.5-14.3-13.9-11.2-25.6c3.1-11.7,13.2-19.2,22.5-16.7
				C598,351.8,603,363.2,599.9,374.9z"/>
			<path class="st25" d="M785.3,424.1c-3.1,11.7-13.2,19.1-22.5,16.7c-9.3-2.5-14.3-13.9-11.2-25.6c3.1-11.7,13.2-19.1,22.5-16.7
				C783.3,400.9,788.4,412.4,785.3,424.1z"/>

				<rect x="607.7" y="441.6" transform="matrix(0.2565 -0.9666 0.9666 0.2565 -44.9834 1015.449)" class="st19" width="59.6" height="190.6"/>
			<path class="st25" d="M654.3,473.6c83.4,22.1,105-26.5,109.5-40.8l1-3.8l6.1-23c0,0,14-57.9-76.9-82
				C603.2,299.8,586.6,357,586.6,357l-6.1,23l-1,3.8C576.3,398.5,570.9,451.5,654.3,473.6"/>
			<path class="st21" d="M752.7,407.3c-4.2,15.9-20.5,25.4-36.4,21.1c-15.9-4.2-25.4-20.5-21.2-36.4c4.2-15.9,20.5-25.4,36.4-21.1
				C747.5,375.1,757,391.4,752.7,407.3"/>
			<line class="st27" x1="689.4" y1="353.2" x2="746.9" y2="453.3"/>
			<path class="st28" d="M589.4,346.6l0.3-1.1C589.7,345.5,589.6,345.9,589.4,346.6"/>
			<path class="st28" d="M774,394.4l-0.3,1.1C773.9,394.8,774,394.4,774,394.4"/>
			<path class="st29" d="M588,351.9c0,0,39.9-0.6,94.9,14c55,14.6,89.3,34.9,89.3,34.9s16.5-51.8-78.2-76.9
				C599.4,298.8,588,351.9,588,351.9"/>
			<path class="st21" d="M657.3,384.8c-1.3,4.9-6.3,7.8-11.2,6.5c-4.9-1.3-7.8-6.3-6.5-11.2c1.3-4.9,6.3-7.8,11.2-6.5
				C655.7,374.9,658.6,380,657.3,384.8"/>

				<rect x="730.5" y="358.1" transform="matrix(0.3943 -0.919 0.919 0.3943 103.8593 901.494)" class="st21" width="10.5" height="27.8"/>
			<path class="st18" d="M647.3,539.9c-1.2,4.5-5.8,7.2-10.3,6c-4.5-1.2-7.1-5.8-5.9-10.3c1.2-4.5,5.8-7.2,10.3-6
				C645.8,530.8,648.5,535.4,647.3,539.9z"/>
			<path class="st18" d="M688.3,550.8c-1.2,4.5-5.8,7.2-10.3,6c-4.5-1.2-7.2-5.8-6-10.3c1.2-4.5,5.8-7.2,10.3-6
				C686.8,541.7,689.5,546.3,688.3,550.8z"/>
			<path class="st18" d="M717.1,558.4c-1.2,4.5-5.8,7.2-10.3,6c-4.5-1.2-7.2-5.8-6-10.3c1.2-4.5,5.8-7.2,10.3-6
				C715.6,549.3,718.2,553.9,717.1,558.4z"/>
			<path class="st18" d="M593.9,525.7c-1.2,4.5-5.8,7.2-10.3,6c-4.5-1.2-7.2-5.8-6-10.3c1.2-4.5,5.8-7.2,10.3-6
				C592.4,516.6,595.1,521.3,593.9,525.7z"/>
			<path class="st30" d="M645.2,569.8l-26.9-7.1c-8.4-2.2-13.5-11-11.3-19.4l7.1-26.9c2.2-8.4,11-13.5,19.4-11.3l26.9,7.1
				c8.4,2.2,13.5,11,11.3,19.4l-7.1,26.9C662.4,567,653.7,572.1,645.2,569.8z"/>
			<path class="st21" d="M722.9,452.8c0,0-10.7-37.1-41-31.4c-23.5-19.9-51.2,7-51.2,7c-43.7-11.6-43.6-72.9-41.3-81.7l-17.5,66.1
				c-12.4,46.9,46.1,63.6,46.1,63.6l40,35.3l0,0l52.2-10.8c0,0,33.6,7.8,46-39.2l17.5-66.1C771.3,404.3,766.6,464.4,722.9,452.8
				 M674.3,450.1L674.3,450.1L674.3,450.1L674.3,450.1c-32.3-7.4-32-18.8-32-18.8c16.8,9,37-0.4,37.1-0.4c0,0,13,18.3,32,18.8
				C711.3,449.7,706,459.7,674.3,450.1"/>

				<rect x="614.3" y="514.5" transform="matrix(0.2567 -0.9665 0.9665 0.2567 -53.4954 995.2054)" class="st31" width="11.9" height="35.7"/>
			<path class="st32" d="M698.8,421.5c-0.9,3.4-9.5,4.1-19.1,1.5c-9.7-2.6-16.8-7.4-15.9-10.8c0.9-3.4,9.5-4.1,19.1-1.5
				C692.6,413.2,699.7,418.1,698.8,421.5z"/>
			<path class="st33" d="M640.9,348.7c0,0,15-12,32.6,5.6"/>
			<g>
				<path class="st25" d="M565,514.8c0,0,9.2-9.1,0.2-18.3l-9.1-9.3c0,0-18.1-18.5-36.6-0.4c-18.5,18.1-0.4,36.6-0.4,36.6l9.1,9.2
					c0,0,9.1,9.3,18.3,0.2L565,514.8z"/>
			</g>
			<g>

					<rect x="499.1" y="471.2" transform="matrix(0.9294 -0.3691 0.3691 0.9294 -141.638 227.1531)" class="st34" width="47.4" height="25.1"/>
				<polygon class="st35" points="549.5,486.6 547.1,480.6 503,498.1 505.4,504.1 				"/>
			</g>
			<path class="st36" d="M764,357c0,0,16.4-15.4,28.9,9"/>
			<path class="st36" d="M769.3,370.9c0,0,19.4-11.4,26.2,15.1"/>
			<path class="st36" d="M751.8,347.2c0,0,30.8-30.6,46,3.2"/>
			<g>

					<rect x="788.8" y="373.5" transform="matrix(0.7772 -0.6293 0.6293 0.7772 -61.9097 597.334)" class="st34" width="47.4" height="25.1"/>
				<polygon class="st35" points="829.1,373.3 833.2,378.4 796.4,408.2 792.3,403.2 				"/>
			</g>
		</g>
		<path class="st37" d="M197.2,112.1v672.7L421.5,897V0L197.2,112.1z M393.4,532.6l-168.2-28V252.3l168.2-84.1V532.6z"/>
		<g>
			<g>
				<path class="st38" d="M158.7,271c0,0,0,47.8,6.7,46c6.7-1.7,6.7-49.5,6.7-49.5L158.7,271z"/>
				<path class="st39" d="M141,277.6c0,0,0,37.8,8.9,36.4c8.9-1.4,8.9-39.1,8.9-39.1L141,277.6z"/>
				<path class="st38" d="M191.5,264c0,0,0,47.8,17,46c17-1.7,17-49.5,17-49.5L191.5,264z"/>
				<path class="st39" d="M169.3,267.5c0,0,0,47.8,11.7,46c11.7-1.7,11.7-49.5,11.7-49.5L169.3,267.5z"/>
				<path class="st38" d="M257.8,257c0,0,0,47.8,19,46c19-1.7,19-49.5,19-49.5L257.8,257z"/>
				<path class="st39" d="M225.3,260.5c0,0,0,47.8,16.1,46c16.1-1.7,16.1-49.5,16.1-49.5L225.3,260.5z"/>
				<path class="st39" d="M294,253.5c0,0,0,47.8,22.8,46c22.8-1.7,22.8-49.5,22.8-49.5L294,253.5z"/>
			</g>
			<polygon class="st39" points="393.4,84.1 197.2,168.2 141.2,280.3 337.4,252.3 			"/>
			<polygon class="st39" points="339.9,107 293.9,258.5 337.4,252.3 393.4,84.1 			"/>
			<polygon class="st38" points="339.9,107 293.9,258.5 255.7,263.9 297.8,125.1 			"/>
			<polygon class="st39" points="267.3,138.1 225.3,268.3 255.7,263.9 297.8,125.1 			"/>
			<polygon class="st38" points="267.3,138.1 241.7,149.1 191.5,273.1 225.3,268.3 			"/>
			<polygon class="st38" points="220.4,158.2 170.2,276.1 156.2,278.2 207,164 			"/>
			<polygon class="st40" points="393.4,84.1 393.4,246.7 337.4,252.3 			"/>
		</g>
		<rect x="421.5" class="st14" width="9.6" height="897"/>
		<g>
			<path class="st19" d="M179.8,641.6h-49.2l0,0H81.5c-49.2,86.1,0,172.2,0,172.2h49.2l0,0h49.2C229,727.7,179.8,641.6,179.8,641.6z
				"/>
			<path class="st18" d="M171.3,641.6h-40.7l0,0H90c-40.7,86.1,0,172.2,0,172.2h40.7l0,0h40.7C212,727.7,171.3,641.6,171.3,641.6z"
				/>
			<path class="st19" d="M154.3,641.6h-23.6l0,0H107c-23.6,86.1,0,172.2,0,172.2h23.6l0,0h23.6C177.9,727.7,154.3,641.6,154.3,641.6
				z"/>
			<path class="st18" d="M137.3,641.6h-6.6l0,0H124c-6.6,86.1,0,172.2,0,172.2h6.6l0,0h6.6C143.9,727.7,137.3,641.6,137.3,641.6z"/>
			<polygon class="st41" points="196.5,676.5 63.8,676.5 68.7,663.3 192.4,663.3 			"/>
			<polygon class="st41" points="65.1,773.9 197.8,773.9 192.9,787.2 69.2,787.2 			"/>
			<path class="st42" d="M156.3,691.8c0,4.6-2.1,8.4-4.8,8.4c-2.6,0-4.8-3.7-4.8-8.4c0-4.6,2.1-8.4,4.8-8.4
				C154.1,683.5,156.3,687.2,156.3,691.8z"/>
			<path class="st18" d="M68.5,743.2c0.5,4.6-0.1,8.4-1.4,8.6c-1.3,0.2-2.8-3.4-3.3-8c-0.5-4.6,0.1-8.4,1.4-8.6
				C66.5,735,68,738.6,68.5,743.2z"/>
		</g>
		<polygon class="st18" points="196.5,500.4 421.5,536.9 421.5,556.3 196.5,511.6 		"/>
		<polygon class="st18" points="197.2,112.1 197.2,119.6 421.5,19.2 421.5,0 		"/>
		<polygon class="st18" points="197.8,773.9 421.5,875.8 421.5,897 197.2,784.9 		"/>
		<polygon class="st18" points="370.5,546.1 421.5,636.4 421.5,660.1 353.5,547.9 		"/>
		<polygon class="st18" points="197.8,590.2 228.3,519.4 237.4,519.7 196.5,608.3 		"/>
		<polygon class="st14" points="225.3,504.5 181,511.6 333.7,548.6 393.4,532.6 		"/>
		<polygon class="st16" points="181,511.6 333.7,548.6 333.7,564.7 181,522 		"/>
		<polygon class="st15" points="333.7,548.6 333.7,564.7 393.4,548.6 393.4,532.6 		"/>
		<path class="st43" d="M223.9,696.9c0,0-3.8,6.3-0.6,45.5c3.6,43.2,15,7.4,14.9-17C238.2,700.9,237.1,657.1,223.9,696.9z"/>
		<path class="st43" d="M262.7,579.3c0,0-21.3,1.7-21.1,46.7c0.2,45,3.3,61.8,27.4,59c24.1-2.8,46.9,12.6,42.5-83.6
			C309.7,560.5,262.7,579.3,262.7,579.3z"/>
	</g>
</g>
<g id="_x30_2">
</g>
<g id="_x30_3">
</g>
<g id="_x30_4">
</g>
<g id="_x30_5">
</g>
</svg>
