<?xml version="1.0" encoding="utf-8"?>
<!-- Generator: Adobe Illustrator 20.1.0, SVG Export Plug-In . SVG Version: 6.00 Build 0)  -->
<svg version="1.1" xmlns="http://www.w3.org/2000/svg" xmlns:xlink="http://www.w3.org/1999/xlink" x="0px" y="0px"
	 viewBox="0 0 1341.8 1276.3" style="enable-background:new 0 0 1341.8 1276.3;" xml:space="preserve">
<style type="text/css">
	.st0{fill:#26A69A;}
	.st1{fill:#E4DBCA;}
	.st2{fill:#C1B9AE;}
	.st3{fill:#D2C9BB;}
	.st4{fill:#B6ADA3;}
	.st5{fill:#9E2214;}
	.st6{fill:#B25538;}
	.st7{fill:#507281;}
	.st8{fill:#7894A2;}
	.st9{fill:#093542;}
	.st10{fill:#841F1A;}
	.st11{fill:#737245;}
	.st12{fill:#7E8859;}
	.st13{fill:#67643E;}
	.st14{fill:#CEB799;}
	.st15{fill:#B29C83;}
	.st16{fill:#E5D3BD;}
	.st17{fill:none;stroke:#207278;stroke-width:16.9882;stroke-miterlimit:10;}
	.st18{fill:#593B23;}
	.st19{fill:#754C28;}
	.st20{fill:#445A5E;}
	.st21{fill:#333333;}
	.st22{fill:#E4F1DE;}
	.st23{fill:#23373A;}
	.st24{fill:none;stroke:#207278;stroke-width:25.4824;stroke-miterlimit:10;}
	.st25{fill:#EFD3BF;}
	.st26{fill:#207278;}
	.st27{fill:none;stroke:#333333;stroke-width:6.6197;stroke-miterlimit:10;}
	.st28{fill:#404041;}
	.st29{fill:#57ACCD;}
	.st30{fill:none;stroke:#F79542;stroke-width:15.8872;stroke-miterlimit:10;}
	.st31{fill:#E6E7E8;}
	.st32{fill:#E1AF8D;}
	.st33{fill:none;stroke:#333333;stroke-width:8.4942;stroke-miterlimit:10;}
	.st34{fill:#1F6163;}
	.st35{fill:#F79542;}
	.st36{fill:none;stroke:#EFD3BF;stroke-width:12.7412;stroke-linecap:round;stroke-linejoin:round;stroke-miterlimit:10;}
	.st37{fill:#9B633A;}
	.st38{fill:#F1F1F2;}
	.st39{fill:#EC1C24;}
	.st40{fill:#C9202D;}
	.st41{fill:#B0B4B5;}
	.st42{fill:#825330;}
	.st43{fill:#A56E49;}
	.st44{fill:#D8C5B2;}
	.st45{fill:none;stroke:#207278;stroke-width:24.8827;stroke-miterlimit:10;}
	.st46{fill:none;stroke:#207278;stroke-width:37.324;stroke-miterlimit:10;}
	.st47{fill:none;stroke:#333333;stroke-width:9.6958;stroke-miterlimit:10;}
	.st48{fill:none;stroke:#F79542;stroke-width:23.2699;stroke-miterlimit:10;}
	.st49{fill:none;stroke:#333333;stroke-width:12.4413;stroke-miterlimit:10;}
	.st50{fill:#BAA790;}
	.st51{fill:#CCBAA6;}
	.st52{fill:#A5937F;}
	.st53{fill:#FFFFFF;}
	.st54{fill:#855A35;}
	.st55{fill:#91623D;}
	.st56{fill:#754D29;}
	.st57{fill:#593C24;}
	.st58{fill:#93643E;}
	.st59{fill:none;stroke:#593C24;stroke-width:3.5185;stroke-miterlimit:10;}
	.st60{fill:none;stroke:#472F1F;stroke-width:3.5185;stroke-miterlimit:10;}
	.st61{fill:#472F1F;}
	.st62{fill:#734E33;}
	.st63{fill:#D0D2D3;}
	.st64{fill:none;stroke:#207278;stroke-width:34.524;stroke-miterlimit:10;}
	.st65{fill:none;stroke:#333333;stroke-width:9.59;stroke-miterlimit:10;}
	.st66{fill:none;stroke:#F79542;stroke-width:23.0159;stroke-miterlimit:10;}
	.st67{fill:none;stroke:#333333;stroke-width:18.4583;stroke-miterlimit:10;}
	.st68{fill:none;stroke:#207278;stroke-width:24.6111;stroke-miterlimit:10;}
	.st69{fill:#82532F;}
	.st70{fill:#A6A8AB;}
	.st71{fill:#6D6E70;}
	.st72{fill:#B54333;}
	.st73{fill:#C64736;}
	.st74{fill:#D85039;}
	.st75{fill:#E05A48;}
	.st76{fill:#92C9D6;}
	.st77{fill:#4699B2;}
	.st78{fill:#A8926F;}
	.st79{fill:none;stroke:#207278;stroke-width:30.6494;stroke-miterlimit:10;}
	.st80{fill:none;stroke:#333333;stroke-width:7.9619;stroke-miterlimit:10;}
	.st81{fill:none;stroke:#F79542;stroke-width:19.1087;stroke-miterlimit:10;}
	.st82{fill:none;stroke:#333333;stroke-width:10.2165;stroke-miterlimit:10;}
	.st83{fill:none;stroke:#875330;stroke-width:6.8188;stroke-miterlimit:10;}
	.st84{fill:#875330;}
	.st85{fill:#AF734A;}
	.st86{fill:none;stroke:#207278;stroke-width:31.322;stroke-miterlimit:10;}
	.st87{fill:#249386;}
	.st88{fill:#D75038;}
	.st89{fill:#EB9759;}
	.st90{fill:#288EA9;}
	.st91{fill:#1F4E80;}
	.st92{fill:#C74328;}
	.st93{fill:#414141;}
	.st94{fill:#59595C;}
	.st95{fill:#28A4D2;}
	.st96{fill:#FFE6C5;}
	.st97{fill:#DF4E28;}
	.st98{fill:#BBBBBB;}
	.st99{fill:none;stroke:#6D6F71;stroke-width:5.6706;stroke-miterlimit:10;}
	.st100{fill:#6D6F71;}
	.st101{fill:none;stroke:#EFD3BF;stroke-width:25.0788;stroke-miterlimit:10;}
	.st102{fill:none;stroke:#333333;stroke-width:6.5148;stroke-miterlimit:10;}
	.st103{fill:none;stroke:#333333;stroke-width:8.3596;stroke-miterlimit:10;}
	.st104{fill:none;stroke:#EFD3BF;stroke-width:25.6291;stroke-miterlimit:10;}
	.st105{fill:#8FD0E5;}
	.st106{fill:#A3E1EF;}
	.st107{fill:#093858;}
	.st108{fill:#105072;}
	.st109{fill:#AEDDE5;}
</style>
<g id="Layer_2">
</g>
<g id="_x30_1">
</g>
<g id="_x30_2">
</g>
<g id="_x30_3">
</g>
<g id="_x30_4">
	<g>
		<g>
			<path class="st72" d="M1316.8,1142.5c0,73.9-280.1,133.8-625.6,133.8c-345.5,0-625.6-59.9-625.6-133.8
				c0-73.9,280.1-133.7,625.6-133.7C1036.7,1008.8,1316.8,1068.7,1316.8,1142.5z"/>
			<path class="st73" d="M1341.8,1086c0,89.7-291.3,162.3-650.6,162.3S40.6,1175.7,40.6,1086c0-89.6,291.3-162.3,650.6-162.3
				S1341.8,996.4,1341.8,1086z"/>
			<ellipse class="st74" cx="691.2" cy="994.2" rx="650.6" ry="162.3"/>
			<path class="st75" d="M1341.8,902.3c0,89.7-291.3,162.3-650.6,162.3S40.6,991.9,40.6,902.3c0-89.6,291.3-162.3,650.6-162.3
				S1341.8,812.6,1341.8,902.3z"/>
			<path class="st72" d="M1316.8,878.5c0,72-280.1,130.3-625.6,130.3c-345.5,0-625.6-58.3-625.6-130.3c0-72,280.1-130.3,625.6-130.3
				C1036.7,748.1,1316.8,806.5,1316.8,878.5z"/>
			<path class="st29" d="M1268.1,904.5c0,57.6-256.8,104.3-573.5,104.3s-573.5-46.7-573.5-104.3c0-57.6,256.8-104.3,573.5-104.3
				S1268.1,846.9,1268.1,904.5z"/>
			<path class="st76" d="M593.3,942.7c0,7-5.7,12.7-12.7,12.7c-7,0-12.7-5.7-12.7-12.7c0-7,5.7-12.7,12.7-12.7
				C587.6,929.9,593.3,935.6,593.3,942.7z"/>
			<path class="st77" d="M646.3,957.1c0,10.4-8.4,18.7-18.8,18.7c-10.4,0-18.8-8.4-18.8-18.7c0-10.4,8.4-18.8,18.8-18.8
				C637.9,938.3,646.3,946.7,646.3,957.1z"/>
			<path class="st77" d="M889.7,947.9c0,5.3-4.3,9.6-9.6,9.6c-5.3,0-9.6-4.3-9.6-9.6c0-5.3,4.3-9.6,9.6-9.6
				C885.4,938.3,889.7,942.6,889.7,947.9z"/>
			<path class="st76" d="M786.4,965.2c0,6.3-5.1,11.4-11.4,11.4c-6.3,0-11.4-5.1-11.4-11.4c0-6.3,5.1-11.4,11.4-11.4
				C781.3,953.8,786.4,958.9,786.4,965.2z"/>
			<path class="st76" d="M419.1,965.2c0,6.3-5.1,11.4-11.4,11.4c-6.3,0-11.4-5.1-11.4-11.4c0-6.3,5.1-11.4,11.4-11.4
				C414,953.8,419.1,958.9,419.1,965.2z"/>
		</g>
		<g>
			<g>
				<g>
					<g>
						<path class="st14" d="M524.4,20.8l-10.7,10.4l-21.5,20.8L617.3,181c0,0,20.8,21.5,42,21.8c21.2,0.3,52.4,32.5,52.4,32.5
							l344,354.4l10.8-10.4l-344-354.4c0,0-31.3-32.2-31-53.4c0.3-21.2-20.5-42.6-20.5-42.6L545.9,0L524.4,20.8z"/>

							<rect x="959.8" y="398" transform="matrix(0.7177 -0.6963 0.6963 0.7177 -66.6501 811.2753)" class="st78" width="15" height="179.6"/>
					</g>
					<g>
						<path class="st25" d="M981,460.6c0,0-11.2-10.8-22,0.4l-10.8,11.2c0,0-21.6,22.4,0.9,44c22.4,21.6,44-0.9,44-0.9l10.8-11.2
							c0,0,10.8-11.2-0.5-22L981,460.6z"/>
					</g>
					<g>
						<path class="st79" d="M766.6,517c0,0,72.5,152.9,180.2,0"/>
						<g>

								<rect x="931.8" y="488.5" transform="matrix(0.713 -0.7012 0.7012 0.713 -90.7348 812.3206)" class="st34" width="30.2" height="57"/>
							<polygon class="st35" points="977.6,526.7 972,532.2 932,491.5 937.6,486.1 							"/>
						</g>
					</g>
				</g>
				<path class="st26" d="M548.2,654.3l-3.2,21.9c0,0-6.3,43.8,107.2,60.2C765.7,752.7,772,708.9,772,708.9l3.1-21.9L548.2,654.3z"
					/>
				<polygon class="st26" points="772.4,706.3 545.4,673.7 576.6,456.7 803.6,489.4 				"/>
				<path class="st20" d="M845.2,398.2c-37.4-9.5,54.4-149.3-96.9-181.5l-40.2-5.8C590.4,206.4,602.5,359.2,564,357.8
					c-38.5-1.4-48.6-89.7-60.2-8.7c-11.7,81.1,62.7,102.1,62.7,102.1l125,18l125,18c0,0,60-1.7,71.6-82.8
					C899.8,323.4,882.6,407.7,845.2,398.2"/>
				<path class="st25" d="M599.7,443.9c-2.1,14.4-13.1,24.7-24.5,23.1c-11.5-1.7-19.1-14.7-17-29c2.1-14.4,13.1-24.7,24.5-23.1
					C594.1,416.5,601.7,429.5,599.7,443.9z"/>
				<path class="st25" d="M827.9,476.7c-2.1,14.4-13,24.7-24.5,23.1c-11.5-1.7-19.1-14.6-17-29c2.1-14.4,13-24.7,24.5-23.1
					C822.4,449.3,830,462.3,827.9,476.7z"/>

					<rect x="631.4" y="517.5" transform="matrix(0.1425 -0.9898 0.9898 0.1425 -53.6379 1202.4738)" class="st19" width="71.7" height="229.3"/>
				<path class="st25" d="M678.4,554.2c102.7,14.8,121.7-46.4,125.1-64.1l0.7-4.7l4.1-28.4c0,0,8.6-71.2-103.3-87.3
					c-111.9-16.1-123.7,54.6-123.7,54.6l-4.1,28.4l-0.7,4.7C574.7,475.4,575.7,539.4,678.4,554.2"/>
				<path class="st21" d="M786.7,461.2c-2.8,19.6-21,33.2-40.6,30.4c-19.6-2.8-33.2-21-30.4-40.6c2.8-19.6,21-33.2,40.6-30.4
					C776,423.4,789.6,441.6,786.7,461.2"/>
				<line class="st80" x1="703.5" y1="405.5" x2="786.2" y2="517"/>
				<path class="st28" d="M583.1,411.5l0.2-1.4C583.3,410.2,583.2,410.7,583.1,411.5"/>
				<path class="st28" d="M810.3,442.8l-0.2,1.4C810.2,443.3,810.3,442.8,810.3,442.8"/>
				<path class="st29" d="M582.2,418c0,0,47.6-6.3,115.3,3.4c67.8,9.8,111.6,29.2,111.6,29.2s12.5-64.2-104.2-80.9
					C588.3,353,582.2,418,582.2,418"/>
				<path class="st21" d="M669.6,447.7c-0.9,6-6.4,10.2-12.4,9.3c-6-0.9-10.2-6.5-9.3-12.5c0.9-6,6.4-10.2,12.5-9.3
					C666.3,436.1,670.5,441.7,669.6,447.7"/>

					<rect x="755.2" y="404.6" transform="matrix(0.2846 -0.9586 0.9586 0.2846 140.8417 1031.4485)" class="st21" width="12.6" height="33.4"/>
				<path class="st21" d="M719.8,303.4c1.2,0.6,2.6,1.3,4,2.1c2,1,4.5-0.3,4.8-2.5l2.1-14.9c0.2-1.3-0.4-2.7-1.6-3.3
					c-0.2-0.1-0.4-0.3-0.7-0.4c-2.4-1.5-3.1-2.9-2.7-5.3c0.3-2,1.9-3.3,4.6-3.9c1.4-0.3,2.5-1.4,2.7-2.8l0.3-2
					c0.3-1.8,2-3.1,3.8-2.8l1,0.1c1.8,0.3,3.1,2,2.8,3.8l-0.3,2.2c-0.2,1.5,0.6,2.9,1.9,3.5c2.3,1.1,4.3,2.6,5.9,4.6
					c1.1,1.3,2.9,1.5,4.3,0.6l11.6-7.4c1.6-1,2.1-3.2,1-4.7c-5.8-8.2-15-13.3-27.6-15.1c-8.4-1.2-15.9,0-22.5,3.6
					c-6.6,3.6-10.4,9.4-11.6,17.4C702.1,287.6,707.5,296.7,719.8,303.4"/>
				<path class="st21" d="M746.8,293.1c-1.4-0.7-2.8-1.5-4.3-2.2c-2-1-4.5,0.3-4.8,2.5l-2.2,15.2c-0.2,1.4,0.5,2.7,1.7,3.4
					c0,0,0,0,0,0c3.1,1.8,4.3,3.6,4,5.9c-0.4,2.6-2.2,4.1-5.4,4.6c-1.4,0.2-2.5,1.4-2.7,2.8l-0.3,2.2c-0.3,1.8-2,3.1-3.8,2.8l-1-0.1
					c-1.8-0.3-3.1-2-2.8-3.8l0.3-2c0.2-1.6-0.7-3.1-2.2-3.6c-5.2-1.9-9.5-5.4-12.4-9.5c-1-1.4-2.9-1.8-4.3-0.9l-12.4,7
					c-1.6,0.9-2.2,3-1.3,4.6c2.5,4.3,6,8.2,10.6,11.8c5.7,4.4,13.2,7.2,22.7,8.6c22.5,3.2,35.3-5.6,37.7-22
					C765.5,308.9,760.7,300.4,746.8,293.1"/>
				<path class="st22" d="M720.5,298.7c1.2,0.6,2.6,1.3,4,2.1c2,1,4.5-0.3,4.8-2.5l2.1-14.9c0.2-1.3-0.4-2.7-1.6-3.3
					c-0.2-0.1-0.5-0.3-0.7-0.4c-2.4-1.5-3.1-2.9-2.7-5.3c0.3-2,1.9-3.3,4.6-3.9c1.4-0.3,2.5-1.4,2.7-2.8l0.3-2
					c0.3-1.8,2-3.1,3.8-2.8l1,0.1c1.8,0.3,3.1,2,2.8,3.8l-0.3,2.1c-0.2,1.5,0.6,2.9,1.9,3.5c2.3,1.1,4.3,2.7,5.9,4.6
					c1.1,1.3,2.9,1.5,4.3,0.6l11.6-7.3c1.6-1,2.1-3.2,1-4.7c-5.8-8.3-15-13.3-27.6-15.1c-8.4-1.2-15.9-0.1-22.5,3.6
					c-6.6,3.6-10.4,9.4-11.6,17.4C702.8,282.9,708.2,292,720.5,298.7"/>
				<path class="st22" d="M747.5,288.4c-1.4-0.7-2.8-1.5-4.3-2.2c-2.1-1-4.5,0.3-4.8,2.5l-2.2,15.2c-0.2,1.4,0.5,2.8,1.7,3.4
					c0,0,0,0,0,0c3.1,1.8,4.3,3.6,4,5.9c-0.4,2.6-2.2,4.1-5.4,4.6c-1.4,0.2-2.5,1.4-2.7,2.8l-0.3,2.2c-0.3,1.8-2,3.1-3.8,2.8l-1-0.1
					c-1.8-0.3-3.1-2-2.8-3.8l0.3-2c0.2-1.6-0.7-3.1-2.2-3.6c-5.2-2-9.5-5.4-12.4-9.5c-1-1.4-2.9-1.8-4.3-0.9l-12.4,7
					c-1.6,0.9-2.2,3-1.3,4.6c2.5,4.3,6,8.2,10.6,11.8c5.7,4.4,13.2,7.2,22.7,8.6c22.5,3.2,35.3-5.6,37.7-22
					C766.2,304.2,761.4,295.7,747.5,288.4"/>
				<path class="st18" d="M679.3,634.3c-0.8,5.5-5.9,9.4-11.4,8.6c-5.5-0.8-9.3-5.9-8.5-11.4c0.8-5.5,5.9-9.4,11.4-8.6
					C676.2,623.7,680.1,628.8,679.3,634.3z"/>
				<path class="st18" d="M729.8,641.6c-0.8,5.5-5.9,9.4-11.5,8.6c-5.5-0.8-9.3-5.9-8.6-11.4c0.8-5.5,5.9-9.4,11.4-8.6
					C726.8,631,730.6,636.1,729.8,641.6z"/>
				<path class="st18" d="M765.2,646.7c-0.8,5.5-5.9,9.4-11.4,8.6c-5.5-0.8-9.3-5.9-8.5-11.4c0.8-5.5,5.9-9.4,11.4-8.6
					C762.2,636.1,766,641.2,765.2,646.7z"/>
				<path class="st18" d="M613.5,624.9c-0.8,5.5-5.9,9.4-11.4,8.6c-5.5-0.8-9.3-5.9-8.5-11.4c0.8-5.5,5.9-9.4,11.4-8.6
					C610.5,614.2,614.3,619.3,613.5,624.9z"/>
				<path class="st81" d="M681,670.4l-33.1-4.8c-10.4-1.5-17.7-11.2-16.2-21.7l4.7-33.1c1.5-10.4,11.2-17.7,21.6-16.2l33.1,4.8
					c10.4,1.5,17.7,11.2,16.2,21.6l-4.8,33.1C701.1,664.6,691.4,671.9,681,670.4z"/>
				<polygon class="st31" points="623.6,633.2 666.2,639.3 668.2,625.1 625.7,619 				"/>
				<path class="st82" d="M644.9,406.8c0,0,16.3-16.5,39.7,2.2"/>
				<path class="st21" d="M757.4,519.7c0,0-18-42.8-53.3-31.8c-30.8-20.5-60.1,15.5-60.1,15.5c-53.9-7.8-62.2-81-60.8-91.8
					l-11.7,81.4c-8.3,57.8,64,69.6,64,69.6L688,599h0l60.8-20.2c0,0,41.2,4.6,49.5-53.2l11.7-81.4
					C808.4,455,811.3,527.4,757.4,519.7 M699,523.3L699,523.3L699,523.3L699,523.3c-39.6-4.3-40.9-17.9-40.9-17.9
					c21.3,8.4,44.2-5.7,44.3-5.7c0,0,18.1,20,40.9,17.9C743.2,517.6,738.2,530.3,699,523.3"/>
				<path class="st32" d="M724.3,485.7c-0.6,4.2-10.7,6.2-22.7,4.5c-11.9-1.7-21.1-6.5-20.5-10.7c0.6-4.2,10.8-6.2,22.7-4.5
					C715.7,476.7,724.9,481.5,724.3,485.7z"/>
			</g>
			<g>
				<g>
					<path class="st37" d="M207.3,673.2c0,0,431.7,40.7,974.6-8.6c0,0-49.4,246.8-246.8,246.8H271.5L207.3,673.2z"/>
					<line class="st83" x1="1146.2" y1="763.2" x2="221.5" y2="763.2"/>
					<line class="st83" x1="1167.4" y1="713.9" x2="212.3" y2="713.9"/>
					<line class="st83" x1="1070.9" y1="862" x2="251.8" y2="862"/>
					<line class="st83" x1="1116.4" y1="812.6" x2="232" y2="812.6"/>
				</g>
				<polygon class="st84" points="207.3,673.2 184.4,673.2 248.1,911.3 271.5,911.3 				"/>
				<path class="st84" d="M1005,911.3c0,0,151.2-54.3,200.8-257H1182c0,0-16.8,150.6-188,250.2L1005,911.3z"/>
				<path class="st76" d="M403.7,914.8c0,0,299.1,22.5,625.9,0C1029.6,914.8,1203.3,836.6,403.7,914.8z"/>
				<rect x="337.7" y="763.2" class="st84" width="275.9" height="49.4"/>
				<rect x="212.3" y="713.9" class="st84" width="125.5" height="49.4"/>
				<ellipse class="st85" cx="880.1" cy="837.3" rx="17.6" ry="8.4"/>
			</g>
			<g>
				<path class="st14" d="M81.6,1032l7.7,12.8l15.5,25.6l153.7-93c0,0,25.6-15.5,30.7-36.1c5.1-20.5,43.5-43.8,43.5-43.8
					l422.6-255.7l-7.7-12.8L324.9,884.8c0,0-38.4,23.2-59,18.2c-20.6-5-46.2,10.5-46.2,10.5l-153.7,93L81.6,1032z"/>
				<polygon class="st78" points="709.1,652.4 716.8,665.2 563.1,758.2 555.4,745.3 				"/>
			</g>
			<g>
				<g>
					<path class="st25" d="M649.4,718.4c0,0,13.4-8.6,4.8-22l-8.6-13.4c0,0-17.1-26.8-43.9-9.7c-26.8,17.1-9.7,43.9-9.7,43.9
						l8.6,13.4c0,0,8.6,13.4,22,4.9L649.4,718.4z"/>
					<path class="st25" d="M671.3,670.6c0,0,0.8,15.9-15.1,16.7l-15.9,0.8c0,0-15.9,0.8-16.7-15.1L671.3,670.6z"/>
				</g>
				<path class="st86" d="M573.5,531.5c0,0-148.7,42,33.4,141.4"/>
				<g>

						<rect x="569.5" y="655.2" transform="matrix(0.8338 -0.5521 0.5521 0.8338 -270.7096 442.0105)" class="st34" width="58.3" height="30.8"/>

						<rect x="575.9" y="676.1" transform="matrix(0.8334 -0.5527 0.5527 0.8334 -275.0869 447.6982)" class="st35" width="58.3" height="8"/>
				</g>
			</g>
			<line class="st83" x1="933.5" y1="763.2" x2="933.5" y2="713.9"/>
			<line class="st83" x1="492.9" y1="763.2" x2="492.9" y2="713.9"/>
		</g>
		<g>

				<rect x="22.9" y="846.8" transform="matrix(0.5899 -0.8075 0.8075 0.5899 -684.1342 387.4183)" class="st75" width="33" height="40.8"/>
			<polygon class="st14" points="24.5,869.5 0,855.2 18.2,831.4 37.2,852.1 			"/>
		</g>
		<line class="st83" x1="766.6" y1="812.6" x2="766.6" y2="862"/>
		<line class="st83" x1="490.2" y1="812.6" x2="490.2" y2="862"/>
	</g>
</g>
<g id="_x30_5">
</g>
</svg>
