<?xml version="1.0" encoding="utf-8"?>
<!-- Generator: Adobe Illustrator 20.1.0, SVG Export Plug-In . SVG Version: 6.00 Build 0)  -->
<svg version="1.1" xmlns="http://www.w3.org/2000/svg" xmlns:xlink="http://www.w3.org/1999/xlink" x="0px" y="0px"
	 viewBox="0 0 769.5 839.7" style="enable-background:new 0 0 769.5 839.7;" xml:space="preserve">
<style type="text/css">
	.st0{fill:#26A69A;}
	.st1{fill:#E4DBCA;}
	.st2{fill:#C1B9AE;}
	.st3{fill:#D2C9BB;}
	.st4{fill:#B6ADA3;}
	.st5{fill:#9E2214;}
	.st6{fill:#B25538;}
	.st7{fill:#507281;}
	.st8{fill:#7894A2;}
	.st9{fill:#093542;}
	.st10{fill:#841F1A;}
	.st11{fill:#737245;}
	.st12{fill:#7E8859;}
	.st13{fill:#67643E;}
	.st14{fill:#CEB799;}
	.st15{fill:#B29C83;}
	.st16{fill:#E5D3BD;}
	.st17{fill:none;stroke:#207278;stroke-width:16.9882;stroke-miterlimit:10;}
	.st18{fill:#593B23;}
	.st19{fill:#754C28;}
	.st20{fill:#445A5E;}
	.st21{fill:#333333;}
	.st22{fill:#E4F1DE;}
	.st23{fill:#23373A;}
	.st24{fill:none;stroke:#207278;stroke-width:25.4824;stroke-miterlimit:10;}
	.st25{fill:#EFD3BF;}
	.st26{fill:#207278;}
	.st27{fill:none;stroke:#333333;stroke-width:6.6197;stroke-miterlimit:10;}
	.st28{fill:#404041;}
	.st29{fill:#57ACCD;}
	.st30{fill:none;stroke:#F79542;stroke-width:15.8872;stroke-miterlimit:10;}
	.st31{fill:#E6E7E8;}
	.st32{fill:#E1AF8D;}
	.st33{fill:none;stroke:#333333;stroke-width:8.4942;stroke-miterlimit:10;}
	.st34{fill:#1F6163;}
	.st35{fill:#F79542;}
	.st36{fill:none;stroke:#EFD3BF;stroke-width:12.7412;stroke-linecap:round;stroke-linejoin:round;stroke-miterlimit:10;}
	.st37{fill:#9B633A;}
	.st38{fill:#F1F1F2;}
	.st39{fill:#EC1C24;}
	.st40{fill:#C9202D;}
	.st41{fill:#B0B4B5;}
	.st42{fill:#825330;}
	.st43{fill:#A56E49;}
	.st44{fill:#D8C5B2;}
	.st45{fill:none;stroke:#207278;stroke-width:24.8827;stroke-miterlimit:10;}
	.st46{fill:none;stroke:#207278;stroke-width:37.324;stroke-miterlimit:10;}
	.st47{fill:none;stroke:#333333;stroke-width:9.6958;stroke-miterlimit:10;}
	.st48{fill:none;stroke:#F79542;stroke-width:23.2699;stroke-miterlimit:10;}
	.st49{fill:none;stroke:#333333;stroke-width:12.4413;stroke-miterlimit:10;}
	.st50{fill:#BAA790;}
	.st51{fill:#CCBAA6;}
	.st52{fill:#A5937F;}
	.st53{fill:#FFFFFF;}
	.st54{fill:#855A35;}
	.st55{fill:#91623D;}
	.st56{fill:#754D29;}
	.st57{fill:#593C24;}
	.st58{fill:#93643E;}
	.st59{fill:none;stroke:#593C24;stroke-width:3.5185;stroke-miterlimit:10;}
	.st60{fill:none;stroke:#472F1F;stroke-width:3.5185;stroke-miterlimit:10;}
	.st61{fill:#472F1F;}
	.st62{fill:#734E33;}
	.st63{fill:#D0D2D3;}
	.st64{fill:none;stroke:#207278;stroke-width:34.524;stroke-miterlimit:10;}
	.st65{fill:none;stroke:#333333;stroke-width:9.59;stroke-miterlimit:10;}
	.st66{fill:none;stroke:#F79542;stroke-width:23.0159;stroke-miterlimit:10;}
	.st67{fill:none;stroke:#333333;stroke-width:18.4583;stroke-miterlimit:10;}
	.st68{fill:none;stroke:#207278;stroke-width:24.6111;stroke-miterlimit:10;}
	.st69{fill:#82532F;}
	.st70{fill:#A6A8AB;}
	.st71{fill:#6D6E70;}
	.st72{fill:#B54333;}
	.st73{fill:#C64736;}
	.st74{fill:#D85039;}
	.st75{fill:#E05A48;}
	.st76{fill:#92C9D6;}
	.st77{fill:#4699B2;}
	.st78{fill:#A8926F;}
	.st79{fill:none;stroke:#207278;stroke-width:30.6494;stroke-miterlimit:10;}
	.st80{fill:none;stroke:#333333;stroke-width:7.9619;stroke-miterlimit:10;}
	.st81{fill:none;stroke:#F79542;stroke-width:19.1087;stroke-miterlimit:10;}
	.st82{fill:none;stroke:#333333;stroke-width:10.2165;stroke-miterlimit:10;}
	.st83{fill:none;stroke:#875330;stroke-width:6.8188;stroke-miterlimit:10;}
	.st84{fill:#875330;}
	.st85{fill:#AF734A;}
	.st86{fill:none;stroke:#207278;stroke-width:31.322;stroke-miterlimit:10;}
	.st87{fill:#249386;}
	.st88{fill:#D75038;}
	.st89{fill:#EB9759;}
	.st90{fill:#288EA9;}
	.st91{fill:#1F4E80;}
	.st92{fill:#C74328;}
	.st93{fill:#414141;}
	.st94{fill:#59595C;}
	.st95{fill:#28A4D2;}
	.st96{fill:#FFE6C5;}
	.st97{fill:#DF4E28;}
	.st98{fill:#BBBBBB;}
	.st99{fill:none;stroke:#6D6F71;stroke-width:5.6706;stroke-miterlimit:10;}
	.st100{fill:#6D6F71;}
	.st101{fill:none;stroke:#EFD3BF;stroke-width:25.0788;stroke-miterlimit:10;}
	.st102{fill:none;stroke:#333333;stroke-width:6.5148;stroke-miterlimit:10;}
	.st103{fill:none;stroke:#333333;stroke-width:8.3596;stroke-miterlimit:10;}
	.st104{fill:none;stroke:#EFD3BF;stroke-width:25.6291;stroke-miterlimit:10;}
	.st105{fill:#8FD0E5;}
	.st106{fill:#A3E1EF;}
	.st107{fill:#093858;}
	.st108{fill:#105072;}
	.st109{fill:#AEDDE5;}
</style>
<g id="Layer_2">
</g>
<g id="_x30_1">
</g>
<g id="_x30_2">
	<g>
		<polygon class="st44" points="494.6,529.2 632.1,391.8 769.5,391.8 632.1,529.2 		"/>
		<path class="st45" d="M332,502c0,0-37.3,152.4,2.1,251.9"/>
		<path class="st45" d="M517.2,513.4c-3.3,5.2,34.4,117.2,0,240.5"/>
		<g>
			<polygon class="st18" points="296.1,702.1 311.1,792.5 265.9,807.6 265.9,822.7 341.3,822.7 356.4,702.1 			"/>
			<polygon class="st19" points="296.7,686.5 268.7,742.5 380.7,742.5 352.7,686.5 			"/>
		</g>
		<g>
			<polygon class="st18" points="558.3,702.1 543.3,792.5 588.5,807.6 588.5,822.7 513.1,822.7 498,702.1 			"/>
			<polygon class="st19" points="503,686.5 475,742.5 587,742.5 559,686.5 			"/>
		</g>
		<g>
			<g>
				<path class="st25" d="M657.4,102.1c0,0-18.7-3.2-21.9,15.5l-3.2,18.7c0,0-6.4,37.4,31,43.8c37.3,6.4,43.8-31,43.8-31l3.2-18.7
					c0,0,3.2-18.7-15.5-21.9L657.4,102.1z"/>
				<path class="st25" d="M601.1,121.5c0,0,12-14.6,26.7-2.6l14.6,12c0,0,14.6,12.1,2.6,26.7L601.1,121.5z"/>
				<path class="st25" d="M655.8,110.7c0.2,5.3-4,9.8-9.4,10l0,0c-5.3,0.2-9.8-4-10-9.4l-1.1-38.7c-0.2-5.3,4-9.8,9.4-10l0,0
					c5.4-0.2,9.8,4,10,9.4L655.8,110.7z"/>
				<path class="st25" d="M656.3,99.2c-0.9,5.3,2.6,10.3,7.9,11.2l0,0c5.3,0.9,10.3-2.6,11.2-7.9l6.5-38.2
					c0.9-5.3-2.6-10.3-7.9-11.2l0,0c-5.3-0.9-10.3,2.7-11.2,7.9L656.3,99.2z"/>
				<path class="st25" d="M676.2,110.8c-0.9,5.3,2.7,10.3,7.9,11.2l0,0c5.3,0.9,10.3-2.6,11.2-7.9l6.6-38.2
					c0.9-5.3-2.7-10.3-7.9-11.2l0,0c-5.3-0.9-10.3,2.6-11.2,7.9L676.2,110.8z"/>
				<path class="st25" d="M691.8,126.2c-1.6,5.1,1.2,10.5,6.3,12.1l0,0c5.1,1.6,10.5-1.2,12.2-6.3l11.6-37
					c1.6-5.1-1.2-10.5-6.3-12.1l0,0c-5.1-1.6-10.5,1.2-12.1,6.3L691.8,126.2z"/>
			</g>
			<path class="st46" d="M451.9,389c0,0,254.4,3.9,212.2-219.9"/>
			<g>

					<rect x="633.7" y="161.8" transform="matrix(1 -6.116410e-03 6.116410e-03 1 -1.0894 4.092)" class="st34" width="69.5" height="36.7"/>
				<polygon class="st35" points="703.1,161.6 703.1,171.1 633.7,171.5 633.6,162 				"/>
			</g>
			<path class="st26" d="M284.8,584.1l4.8,26.5c0,0,9.6,53.1,147,28.2C574,614,564.4,561,564.4,561l-4.8-26.5L284.8,584.1z"/>

				<rect x="263.1" y="317.9" transform="matrix(0.984 -0.1779 0.1779 0.984 -73.8803 78.8352)" class="st26" width="279.2" height="267"/>
			<path class="st20" d="M529.3,173.9c-46.8,3.4,5.3-193.4-181.8-172.4l-48.6,8.8c-137.8,40.1-64.9,211.9-110,225.1
				c-45,13.2-90.7-85-72.9,13.2c17.7,98.1,111.8,93.8,111.8,93.8l151.3-27.4l151.3-27.3c0,0,68.6-25.1,50.9-123.2
				C563.5,66.4,576.1,170.5,529.3,173.9"/>
			<path class="st25" d="M263.2,321.2c3.1,17.4-5.6,33.6-19.4,36.1c-13.9,2.5-27.7-9.6-30.8-27c-3.1-17.4,5.6-33.6,19.4-36.1
				C246.3,291.7,260.1,303.8,263.2,321.2z"/>
			<path class="st25" d="M539.6,271.3c3.1,17.4-5.6,33.6-19.4,36.1c-13.9,2.5-27.7-9.6-30.8-27c-3.1-17.4,5.6-33.6,19.4-36.1
				C522.6,241.8,536.4,253.8,539.6,271.3z"/>
			<polygon class="st19" points="543.4,445 268.6,494.7 284.1,580.5 558.9,530.9 			"/>
			<path class="st25" d="M396.7,418.3c124.4-22.5,122.8-100.4,119.8-122.2l-1-5.7l-6.2-34.3c0,0-17.4-85.5-152.9-61
				c-135.5,24.5-121.9,110.7-121.9,110.7l6.2,34.3l1,5.7C246.5,367.2,272.3,440.8,396.7,418.3"/>
			<path class="st21" d="M486,269.2c4.3,23.7-11.5,46.4-35.2,50.7c-23.7,4.3-46.4-11.5-50.7-35.2c-4.3-23.7,11.5-46.4,35.2-50.7
				C459,229.7,481.7,245.5,486,269.2"/>
			<line class="st47" x1="368.4" y1="236.9" x2="506.9" y2="333.9"/>
			<path class="st28" d="M231.7,290.3l-0.3-1.7C231.4,288.6,231.5,289.2,231.7,290.3"/>
			<path class="st28" d="M506.2,238.9l0.3,1.7C506.3,239.5,506.2,238.9,506.2,238.9"/>
			<path class="st29" d="M233.1,298.1c0,0,52.5-25.7,134.6-40.5c82.1-14.8,140.2-9.2,140.2-9.2s-10.3-78.9-151.5-53.4
				C215.2,220.6,233.1,298.1,233.1,298.1"/>
			<path class="st21" d="M345.5,298.7c1.3,7.3-3.5,14.2-10.8,15.6c-7.3,1.3-14.3-3.5-15.5-10.8c-1.3-7.3,3.5-14.2,10.8-15.6
				C337.2,286.6,344.2,291.4,345.5,298.7"/>
			<path class="st18" d="M428.5,510.6c1.2,6.7-3.2,13.1-9.9,14.3c-6.7,1.2-13.1-3.2-14.3-9.9c-1.2-6.7,3.2-13.1,9.9-14.3
				C420.9,499.5,427.3,503.9,428.5,510.6z"/>
			<path class="st18" d="M489.8,499.5c1.2,6.7-3.2,13.1-9.9,14.3c-6.7,1.2-13.1-3.2-14.3-9.9c-1.2-6.7,3.2-13.1,9.9-14.3
				C482.1,488.4,488.5,492.8,489.8,499.5z"/>
			<path class="st18" d="M532.6,491.8c1.2,6.7-3.2,13.1-9.9,14.3c-6.7,1.2-13.1-3.2-14.3-9.9c-1.2-6.7,3.2-13.1,9.9-14.3
				C525,480.7,531.4,485.1,532.6,491.8z"/>
			<path class="st18" d="M349,525c1.2,6.7-3.2,13.1-9.9,14.3c-6.7,1.2-13.1-3.2-14.3-9.9c-1.2-6.7,3.2-13.1,9.9-14.3
				C341.3,513.9,347.7,518.3,349,525z"/>
			<path class="st48" d="M444.4,551.6l-40.1,7.2c-12.6,2.3-24.8-6.2-27-18.8l-7.2-40.1c-2.3-12.6,6.2-24.8,18.7-27l40.1-7.2
				c12.6-2.3,24.8,6.2,27,18.8l7.2,40.1C465.5,537.1,457,549.3,444.4,551.6z"/>
			<path class="st21" d="M474.7,348.1c0,0-37.3-42.5-73.9-16.2c-43.5-11.8-63.5,41-63.5,41c-65.2,11.8-103.1-69.6-105.6-82.6
				l17.8,98.5c12.6,70,100.7,55.7,100.7,55.7l74.9,21.9h0l62.5-46.8c0,0,49.3-10.6,36.7-80.5l-17.8-98.5
				C508.7,253.6,539.9,336.3,474.7,348.1 M408.5,374.8L408.5,374.8L408.5,374.8L408.5,374.8c-47.4,10.2-54.1-5-54.1-5
				c27.8,1.5,48.9-23.6,48.9-23.6c0.1,0,28.6,16.2,54.1,5C457.5,351.2,456.5,367.8,408.5,374.8"/>
			<polygon class="st31" points="363.8,530.7 415.3,521.4 412.2,504.2 360.7,513.5 			"/>
			<path class="st32" d="M423.3,321.5c0.9,5.1-10,11.3-24.5,13.9c-14.4,2.6-26.9,0.6-27.8-4.5c-0.9-5.1,10-11.3,24.5-13.9
				C410,314.4,422.4,316.4,423.3,321.5z"/>
			<path class="st46" d="M272.5,440.8c0,0-125.1,51.2-186.7-140.9"/>
			<path class="st49" d="M293.9,247.1c0,0,12.4-25.3,46.7-12.8"/>
			<path class="st49" d="M405.9,228.4c0,0,12.4-25.3,46.7-12.8"/>
			<g>
				<path class="st21" d="M352.9,114.8c1.7,0.3,3.6,0.6,5.6,0.9c2.8,0.4,5.2-2,4.7-4.8L360,92.6c-0.3-1.6-1.5-3-3.2-3.3
					c-0.3-0.1-0.6-0.1-0.9-0.2c-3.4-0.8-4.7-2.3-5.2-5.3c-0.4-2.4,1-4.6,3.9-6.3c1.5-0.8,2.4-2.6,2.1-4.3l-0.4-2.5
					c-0.4-2.2,1.1-4.4,3.4-4.8l1.2-0.2c2.2-0.4,4.4,1.1,4.8,3.4l0.4,2.7c0.3,1.8,1.8,3.1,3.6,3.4c3.1,0.4,6.1,1.5,8.7,3.2
					c1.7,1.1,4,0.7,5.3-0.9l10.9-13c1.5-1.8,1.2-4.5-0.6-5.9c-10-7.5-22.7-9.9-38.2-7.3c-10.3,1.8-18.7,6-25.1,12.8
					c-6.4,6.8-8.7,15-7,24.9C326.1,102.9,335.9,111.6,352.9,114.8"/>
				<path class="st21" d="M380.8,92.3c-1.9-0.3-3.9-0.7-5.9-0.9c-2.8-0.4-5.2,2-4.7,4.8l3.2,18.7c0.3,1.7,1.6,3,3.3,3.4c0,0,0,0,0,0
					c4.3,1,6.5,2.6,6.9,5.4c0.5,3.2-1,5.7-4.6,7.5c-1.6,0.8-2.4,2.6-2.1,4.4l0.5,2.8c0.4,2.3-1.1,4.4-3.4,4.8l-1.2,0.2
					c-2.3,0.4-4.4-1.1-4.8-3.4l-0.4-2.4c-0.3-1.9-2-3.3-3.9-3.4c-6.8-0.3-13.2-2.7-18.2-6.5c-1.7-1.3-4-1-5.5,0.6l-12,12.9
					c-1.5,1.7-1.5,4.3,0.2,5.9c4.6,4.1,10.2,7.4,16.9,9.9c8.4,3,18.3,3.5,30,1.5c27.7-4.7,39.4-20,36-40.2
					C408.8,103.9,399.9,95.7,380.8,92.3"/>
				<path class="st22" d="M351.9,109c1.7,0.3,3.6,0.6,5.5,0.9c2.8,0.4,5.2-2,4.7-4.8L359,86.8c-0.3-1.6-1.5-3-3.1-3.3
					c-0.3-0.1-0.7-0.1-1-0.2c-3.4-0.8-4.7-2.3-5.2-5.3c-0.4-2.4,0.9-4.6,3.9-6.3c1.5-0.9,2.4-2.6,2.1-4.3l-0.4-2.5
					c-0.4-2.3,1.1-4.4,3.4-4.8l1.2-0.2c2.2-0.4,4.4,1.1,4.8,3.4l0.5,2.6c0.3,1.8,1.8,3.2,3.6,3.4c3.1,0.4,6.1,1.5,8.7,3.2
					c1.8,1.1,4,0.6,5.3-0.9l10.8-13.1c1.5-1.8,1.2-4.5-0.6-5.9c-10-7.5-22.7-9.9-38.2-7.3c-10.3,1.8-18.7,6-25.1,12.8
					c-6.4,6.8-8.7,15-7,24.9C325.1,97.1,334.9,105.8,351.9,109"/>
				<path class="st22" d="M379.8,86.5c-1.9-0.3-3.9-0.7-5.9-0.9c-2.8-0.4-5.2,2-4.7,4.8l3.2,18.7c0.3,1.7,1.6,3,3.3,3.4c0,0,0,0,0,0
					c4.3,1,6.5,2.6,6.9,5.4c0.5,3.2-1,5.7-4.6,7.5c-1.6,0.8-2.4,2.6-2.1,4.3l0.5,2.7c0.4,2.3-1.1,4.4-3.4,4.8l-1.2,0.2
					c-2.3,0.4-4.4-1.1-4.8-3.4l-0.4-2.4c-0.3-1.9-2-3.3-3.9-3.4c-6.8-0.3-13.2-2.7-18.2-6.5c-1.7-1.3-4-1-5.4,0.6l-12,12.9
					c-1.5,1.7-1.5,4.3,0.2,5.9c4.6,4.1,10.2,7.4,16.9,9.9c8.4,3,18.3,3.5,30,1.5c27.7-4.7,39.4-20,36-40.2
					C407.8,98.1,398.9,89.9,379.8,86.5"/>
			</g>
			<path class="st25" d="M362.9,315c1.5,7.2-8.9,15.5-23.3,18.6c-14.4,3.1-27.3-0.3-28.8-7.5c-1.5-7.2,8.9-15.5,23.3-18.6
				C348.5,304.5,361.4,307.8,362.9,315z"/>
			<g>
				<path class="st25" d="M64.9,230.1c0,0,16.4-9.5,25.9,6.9l9.5,16.4c0,0,19.1,32.8-13.7,51.9c-32.8,19.1-51.8-13.7-51.8-13.7
					l-9.5-16.4c0,0-9.5-16.4,6.9-25.9L64.9,230.1z"/>
				<path class="st25" d="M124.5,228.6c0,0-16.4-9.5-25.9,6.9l-9.5,16.4c0,0-9.5,16.4,6.9,25.9L124.5,228.6z"/>
				<path class="st25" d="M69.4,237.6c1.7,5.1,7.2,7.8,12.3,6.1l0,0c5.1-1.7,7.8-7.2,6-12.3l-12.5-36.7c-1.7-5.1-7.2-7.8-12.3-6.1
					l0,0c-5.1,1.7-7.8,7.2-6,12.3L69.4,237.6z"/>
				<path class="st25" d="M65,227c2.7,4.6,1.1,10.5-3.5,13.2l0,0c-4.6,2.7-10.5,1.1-13.3-3.5l-19.5-33.5c-2.7-4.6-1.1-10.5,3.5-13.3
					l0,0c4.6-2.7,10.5-1.1,13.2,3.5L65,227z"/>
				<path class="st25" d="M50.3,244.9c2.7,4.6,1.1,10.6-3.5,13.3l0,0c-4.6,2.7-10.6,1.1-13.3-3.5l-19.5-33.5
					c-2.7-4.6-1.1-10.6,3.5-13.2l0,0c4.6-2.7,10.5-1.1,13.2,3.5L50.3,244.9z"/>
				<path class="st25" d="M41.1,264.6c3.3,4.2,2.5,10.3-1.7,13.6l0,0c-4.2,3.3-10.3,2.5-13.6-1.7L2,246c-3.3-4.2-2.5-10.3,1.7-13.6
					l0,0c4.2-3.3,10.3-2.5,13.6,1.7L41.1,264.6z"/>
			</g>
			<g>
				<polygon class="st34" points="109.6,277.6 125.1,310.9 62.2,340.3 46.6,307 				"/>
				<polygon class="st35" points="109.6,277.6 113.6,286.2 50.7,315.6 46.6,307 				"/>
			</g>
		</g>
		<rect x="174" y="529.2" class="st50" width="137.4" height="310.5"/>
		<rect x="311.4" y="529.2" class="st51" width="320.7" height="310.5"/>
		<polygon class="st52" points="174,529.2 36.6,391.8 174,391.8 311.4,529.2 		"/>
		<g>
			<g>
				<g>
					<g>
						<g>
							<path class="st53" d="M381.4,617.8C381.4,617.9,381.4,617.9,381.4,617.8c0.2,0.1,0.2,0.1,0.2,0c0-0.3,0.2-0.5,0.5-0.5
								c0.1,0,0.1,0,0.1-0.1c0-0.1,0-0.1-0.1-0.1C381.8,617,381.4,617.3,381.4,617.8z"/>
						</g>
						<g>
							<path class="st53" d="M386,615.2C386,615.2,386.1,615.2,386,615.2c0.1-0.1,0-0.2,0-0.2c-0.2,0-0.4-0.2-0.4-0.4
								c0,0,0-0.1-0.1-0.1c0,0-0.1,0-0.1,0.1C385.5,615.1,385.7,615.2,386,615.2z"/>
						</g>
						<g>
							<path class="st53" d="M397.1,621.1l-6.7-7.9c-0.3-0.3-0.3-0.7-0.3-1.1v-12.5l1.2-1.4c0.2-0.2,0.3-0.5,0.3-0.7v-3.2
								c0-0.6-0.5-1.1-1.1-1.1h-9.8c-0.6,0-1.1,0.5-1.1,1.1v3.2c0,0.3,0.1,0.5,0.3,0.7l1.2,1.4v12.5c0,0.4-0.1,0.7-0.4,1.1l-6.5,8
								c-0.3,0.3-0.4,0.6-0.4,1.1v9.6c0,0.9,0.7,1.6,1.6,1.6h20.3c0.9,0,1.6-0.7,1.6-1.6v-9.5C397.5,621.7,397.3,621.4,397.1,621.1z
								 M387.9,594.5c0-0.4,0.2-0.7,0.4-0.7h1.7c0.2,0,0.4,0.3,0.4,0.7v1.4c0,0.4-0.2,0.7-0.4,0.7l-1.7-0.6c-0.2,0-0.4-0.3-0.4-0.7
								V594.5z M395.5,628.9c0,0.8-0.5,1.5-1.2,1.8c-0.2,0.9-0.6,1.6-1.4,1.6h-1.5c0.5-0.3,0.6-0.8,0.7-1.4H378c-1.1,0-2-0.9-2-2
								v-6.8h16.1c0-0.6-0.2-1.2-0.4-1.7l-2.6-6.8c-0.3-0.5-0.4-1.5-0.4-2.3v-10.7l0,0c0-1.1,0.1-1.4,0.7-1.8l0.1-0.1h-8
								c-0.1,0-0.2,0-0.3-0.1l-0.7-0.8c-0.2-0.2,0-0.5,0.3-0.5h9.6c0.3,0,0.5,0.3,0.3,0.5l-0.8,0.8l0,0l-0.7,1.1c0,0,0,0,0,0.4v11.3
								c0,0.9,0.2,1.7,0.5,2.4l4.3,7c0.2,0.4,0.3,0.8,0.4,1.3h1.1V628.9z M383.9,616.9c0.5,0,0.8,0.4,0.8,0.8v1.9
								c0,0.5-0.4,0.8-0.8,0.8H382c-0.5,0-0.8-0.4-0.8-0.8v-1.9c0-0.5,0.4-0.8,0.8-0.8H383.9z M383.1,610.4v-0.9
								c0-0.2,0.2-0.4,0.4-0.4h0.9c0.2,0,0.4,0.2,0.4,0.4v0.9c0,0.2-0.2,0.4-0.4,0.4h-0.9C383.3,610.7,383.1,610.5,383.1,610.4z
								 M386,612.8h1.4c0.4,0,0.6,0.3,0.6,0.6v1.4c0,0.4-0.3,0.6-0.6,0.6H386c-0.4,0-0.6-0.3-0.6-0.6v-1.4
								C385.4,613.1,385.6,612.8,386,612.8z M385.9,604v-0.8c0-0.2,0.2-0.4,0.4-0.4h0.8c0.2,0,0.4,0.2,0.4,0.4v0.8
								c0,0.2-0.2,0.4-0.4,0.4h-0.8C386.1,604.4,385.9,604.2,385.9,604z"/>
						</g>
						<g>
							<path class="st53" d="M387.3,603.3L387.3,603.3C387.4,603.3,387.4,603.3,387.3,603.3c0.1-0.2-0.1-0.3-0.2-0.3l0,0l0,0
								C387.2,603,387.3,603.1,387.3,603.3z"/>
						</g>
						<g>
							<path class="st53" d="M384.6,609.5C384.6,609.5,384.6,609.5,384.6,609.5C384.6,609.5,384.7,609.5,384.6,609.5
								c0.1-0.2-0.1-0.4-0.3-0.4l0,0l0,0C384.5,609.3,384.6,609.4,384.6,609.5z"/>
						</g>
					</g>
					<g>
						<g>
							<path class="st53" d="M386.7,581.6h-2.6l0,0H384c0,0-0.5,0-1-0.4l-1-1c-0.4-0.5-0.4-1-0.4-1v-2.6c0-0.7-0.5-1.3-1.3-1.3h-2.9
								c-0.7,0-1.3,0.5-1.3,1.3v2.9c0,0.7,0.5,1.3,1.3,1.3h2.6h0.1c0,0,0.6,0,1.1,0.5l0.9,0.9l0,0c0.5,0.4,0.5,1,0.5,1v0.1l0,0v2.5
								c0,0.7,0.5,1.3,1.3,1.3h2.9c0.7,0,1.2-0.5,1.2-1.3v-2.9C388,582.3,387.4,581.6,386.7,581.6z M380.4,575.8c0.5,0,1,0.5,1,1
								c0,0.1,0,0.1-0.1,0.2c-0.1,0-0.2,0-0.2-0.1c0-0.5-0.4-0.7-0.7-0.7c-0.1,0-0.1-0.1-0.2-0.1
								C380.2,575.8,380.3,575.8,380.4,575.8z M386.6,586.8c-0.1,0-0.2-0.1-0.2-0.2c0-0.1,0.1-0.2,0.2-0.2c0.5,0,0.7-0.4,0.7-0.7
								c0-0.1,0.1-0.2,0.2-0.2c0.1,0,0.2,0.1,0.2,0.2C387.6,586.3,387.2,586.8,386.6,586.8z"/>
						</g>
						<g>
							<path class="st53" d="M363.2,580.8h2.6l0,0h0.1c0,0,0.5,0,1,0.4l1,1c0.4,0.4,0.4,1,0.4,1v2.6c0,0.7,0.5,1.3,1.2,1.3h2.9
								c0.7,0,1.2-0.5,1.2-1.3v-2.9c0-0.7-0.5-1.3-1.2-1.3h-2.6h-0.1c0,0-0.6,0-1.1-0.5l-0.9-0.9l0,0c-0.5-0.5-0.5-1-0.5-1v-0.1l0,0
								v-2.5c0-0.7-0.5-1.3-1.3-1.3h-2.9c-0.7,0-1.3,0.5-1.3,1.3v2.9C362,580.2,362.5,580.8,363.2,580.8z M369.5,586.7
								c-0.5,0-1-0.5-1-1c0-0.1,0-0.1,0.1-0.2c0.1,0,0.2,0,0.2,0.1c0,0.5,0.4,0.7,0.7,0.7c0.1,0,0.1,0.1,0.2,0.1
								C369.6,586.6,369.6,586.7,369.5,586.7z M363.3,575.7c0.1,0,0.2,0.1,0.2,0.2c0,0.1-0.1,0.2-0.2,0.2c-0.5,0-0.7,0.4-0.7,0.7
								c0,0.1-0.1,0.2-0.2,0.2c-0.1,0-0.2-0.1-0.2-0.2C362.3,576.1,362.8,575.7,363.3,575.7z"/>
						</g>
						<g>
							<path class="st53" d="M375.4,583.6v2.6l0,0v0.1c0,0,0,0.5-0.4,1l-1,1c-0.5,0.4-1,0.4-1,0.4h-2.6c-0.7,0-1.3,0.5-1.3,1.3v2.9
								c0,0.7,0.5,1.3,1.3,1.3h2.9c0.7,0,1.3-0.5,1.3-1.3v-2.6v-0.1c0,0,0-0.6,0.5-1.1l0.9-0.9l0,0c0.4-0.5,1-0.5,1-0.5h0.1l0,0h2.5
								c0.7,0,1.3-0.5,1.3-1.3v-2.9c0-0.7-0.5-1.3-1.3-1.3h-2.9C376,582.3,375.4,582.9,375.4,583.6z M369.5,589.9c0-0.5,0.5-1,1-1
								c0.1,0,0.1,0,0.2,0.1c0,0.1,0,0.2-0.1,0.2c-0.5,0-0.7,0.4-0.7,0.7c0,0.1-0.1,0.1-0.1,0.2C369.5,590.1,369.5,590,369.5,589.9z
								 M380.6,583.7c0,0.1-0.1,0.2-0.2,0.2c-0.1,0-0.2-0.1-0.2-0.2c0-0.5-0.4-0.7-0.7-0.7c-0.1,0-0.2-0.1-0.2-0.2
								c0-0.1,0.1-0.2,0.2-0.2C380.1,582.7,380.6,583.2,380.6,583.7z"/>
						</g>
					</g>
					<g>
						<path class="st53" d="M435.1,686.5h-98.3v-35.2h98.3V686.5z M339.6,683.8h92.9v-29.7h-92.9V683.8z"/>
					</g>
					<g>
						<g>
							<path class="st53" d="M419.9,659.2h2.3v0.5h-0.9v3.7h-0.5v-3.7H420L419.9,659.2L419.9,659.2z"/>
						</g>
						<g>
							<path class="st53" d="M422.7,663.3v-4.2h0.5v0.5h0.5v0.5h-0.5v3.2H422.7z M423.6,661.1v-0.9h0.5v0.9h0.5v0.5H424v-0.5H423.6z
								 M424.6,661.1v-0.9h0.4v0.9H424.6z M425.5,663.3v-3.2H425v-0.5h0.5v-0.5h0.5v4.2H425.5z"/>
						</g>
					</g>
					<g>
						<g>
							<path class="st53" d="M365.7,674.4h2.5v-11h-2.5V674.4z M362.2,663.4H358h-0.9h-5.8v11h2.5V666h2.5v8.4h2.5V666h2.5v8.4h2.5
								v-9.3h-1.7V663.4z M371.5,663.4v1.7h-1.7v9.3h2.5V666h3v-2.5L371.5,663.4L371.5,663.4z"/>
						</g>
					</g>
					<g>
						<polygon class="st53" points="399,663.4 394.8,663.4 393.9,663.4 388,663.4 388,674.4 390.5,674.4 390.5,666 393,666
							393,674.4 395.6,674.4 395.6,666 398.2,666 398.2,674.4 400.7,674.4 400.7,665.1 399,665.1 						"/>
					</g>
					<g>
						<g>
							<path class="st53" d="M409.1,663.4h-5.1v1.7h-1.7v7.6h1.7v1.7h6.6v-2.5H405v-1.7h5.9v-5.1h-1.7V663.4z M404.9,665.9h3.4v1.7
								h-3.4V665.9z"/>
						</g>
					</g>
					<g>
						<g>
							<path class="st53" d="M419.2,663.4h-5v1.7h-1.7v7.6h1.7v1.7h6.6v-2.5H415v-1.7h5.9v-5.1h-1.7L419.2,663.4L419.2,663.4z
								 M415,665.9h3.3v1.7H415V665.9z"/>
						</g>
					</g>
					<g>
						<rect x="365.7" y="659.2" class="st53" width="2.5" height="2.5"/>
					</g>
					<g>
						<polygon class="st53" points="383.7,672 379.6,672 379.6,663.4 377.1,663.4 377.1,672.8 378.7,672.8 378.7,674.4 384.5,674.4
							386.4,674.4 386.4,672.8 386.4,663.4 383.7,663.4 						"/>
					</g>
					<g>
						<path class="st53" d="M435.2,654.1h-98.5V556h98.5V654.1z M339.6,651.3h93v-92.6h-93V651.3z"/>
					</g>
				</g>
			</g>
		</g>
	</g>
</g>
<g id="_x30_3">
</g>
<g id="_x30_4">
</g>
<g id="_x30_5">
</g>
</svg>
