<svg xmlns="http://www.w3.org/2000/svg" xmlns:xlink="http://www.w3.org/1999/xlink" version="1.1" style="enable-background:new 0 0 3104 4279.4;" xml:space="preserve" width="3106.197802134461" height="4283.395604268922"><rect id="backgroundrect" width="100%" height="100%" x="0" y="0" fill="none" stroke="none"/>
<style type="text/css">
	.st0{opacity:0.25;}
	.st1{fill:#0E0A22;}
	.st2{fill:#140F2E;}
	.st3{fill:#1C153C;}
	.st4{fill:#241C4D;}
</style>

<g class="currentLayer" style=""><title>Layer 1</title><g class="st0" id="svg_1">
	<polygon class="st1" points="-0.0000023841860183893004,-3.296703338623047 -0.0000023841860183893004,222.62420766965624 225.55958864075637,-3.296703338623047 " id="svg_2"/>
	<polygon class="st2" points="225.55958864075637,-3.296703338623047 -0.0000023841860183893004,222.62420766965624 -0.0000023841860183893004,461.6754377618472 464.2284576955162,-3.296703338623047 " id="svg_3"/>
	<polygon class="st3" points="464.2284576955162,-3.296703338623047 -0.0000023841860183893004,461.6754377618472 -0.0000023841860183893004,700.7265609603619 702.8974795544082,-3.296703338623047 " id="svg_4"/>
	<polygon class="st4" points="702.7973622870659,-3.296703338623047 -0.0000023841860183893004,700.6263863151671 -0.0000023841860183893004,939.6776011368329 941.4662313418257,-3.296703338623047 " id="svg_5"/>
	<polygon class="st3" points="941.566348609168,-3.296703338623047 -0.0000023841860183893004,939.7777757820277 -0.0000023841860183893004,1178.728754876398 1180.1351615182384,-3.296703338623047 " id="svg_6"/>
	<polygon class="st2" points="1180.1351615182384,-3.296703338623047 -0.0000023841860183893004,1178.728754876398 -0.0000023841860183893004,1417.7800307801645 1418.8039694513454,-3.296703338623047 " id="svg_7"/>
	<polygon class="st1" points="1418.8039694513454,-3.296703338623047 -0.0000023841860183893004,1417.7800307801645 -0.0000023841860183893004,1656.7308877103333 1657.3727823604158,-3.296703338623047 " id="svg_8"/>
	<polygon class="st2" points="1657.3727823604158,-3.296703338623047 -0.0000023841860183893004,1656.7308877103333 -0.0000023841860183893004,1895.8823382592946 1896.1418298041708,-3.296703338623047 " id="svg_9"/>
	<polygon class="st3" points="1896.1418298041708,-3.296703338623047 -0.0000023841860183893004,1895.8823382592946 -0.0000023841860183893004,2134.8334395178663 2134.71039822663,-3.296703338623047 " id="svg_10"/>
	<polygon class="st4" points="2134.71039822663,-3.296703338623047 -0.0000023841860183893004,2134.8334395178663 -0.0000023841860183893004,2373.8845932574313 2373.3794506463482,-3.296703338623047 " id="svg_11"/>
	<polygon class="st1" points="1434.515045825744,4283.287606504497 1673.1839760021567,4283.287606504497 3106.1979962742216,2847.977715973144 3106.1979962742216,2608.926562233579 " id="svg_12"/>
	<polygon class="st2" points="1195.846237892637,4283.287606504497 1434.515045825744,4283.287606504497 3106.1979962742216,2608.926562233579 3106.1979962742216,2369.8754084940138 " id="svg_13"/>
	<polygon class="st3" points="2373.2794556223116,-3.296703338623047 -0.0000023841860183893004,2373.7844186122365 -0.0000023841860183893004,2612.8355723518016 2611.9482635554186,-3.296703338623047 " id="svg_14"/>
	<polygon class="st2" points="2612.0482585794553,-3.296703338623047 -0.0000023841860183893004,2612.9357469969964 -0.0000023841860183893004,2851.8869704197696 2850.617315975137,-3.296703338623047 " id="svg_15"/>
	<polygon class="st1" points="2850.617315975137,-3.296703338623047 -0.0000023841860183893004,2851.8869704197696 -0.0000023841860183893004,3090.9381241593346 3089.286123908244,-3.296703338623047 " id="svg_16"/>
	<polygon class="st2" points="3089.286123908244,-3.296703338623047 -0.0000023841860183893004,3090.9381241593346 -0.0000023841860183893004,3329.9892778988997 3106.1979962742216,218.81543327872896 3106.1979962742216,-3.296703338623047 " id="svg_17"/>
	<polygon class="st3" points="-0.0000023841860183893004,3329.9892778988997 -0.0000023841860183893004,3568.94025699327 3106.1979962742216,457.7664276436244 3106.1979962742216,218.81543327872896 " id="svg_18"/>
	<polygon class="st4" points="-0.0000023841860183893004,3568.94025699327 -0.0000023841860183893004,3807.991410732835 3106.1979962742216,696.8175508421391 3106.1979962742216,457.7664276436244 " id="svg_19"/>
	<polygon class="st3" points="-0.0000023841860183893004,3807.991410732835 -0.0000023841860183893004,4047.0425644724 3106.1979962742216,935.8687656638049 3106.1979962742216,696.8175508421391 " id="svg_20"/>
	<polygon class="st2" points="-0.0000023841860183893004,4046.9421454988023 -0.0000023841860183893004,4283.287606504497 2.7019063038001154,4283.287606504497 3106.1979962742216,1174.8197447581751 3106.1979962742216,935.7685299365094 " id="svg_21"/>
	<polygon class="st2" points="2.7019063038001154,4283.287606504497 -0.0000023841860183893004,4283.287606504497 -0.0000023841860183893004,4285.993787895173 " id="svg_22"/>
	<polygon class="st1" points="2.801983221301271,4283.287606504497 241.47085370859986,4283.287606504497 3106.1979962742216,1413.9711953071364 3106.1979962742216,1174.91991940337 " id="svg_23"/>
	<polygon class="st2" points="241.47085370859986,4283.287606504497 277.29622560798,4283.287606504497 480.0396818980835,4283.287606504497 3106.1979962742216,1652.9221744015067 3106.1979962742216,1413.9711953071364 " id="svg_24"/>
	<polygon class="st3" points="480.0396818980835,4283.287606504497 718.7086120744962,4283.287606504497 3106.1979962742216,1891.9733281410718 3106.1979962742216,1652.9221744015067 " id="svg_25"/>
	<polygon class="st4" points="718.6085559288067,4283.287606504497 957.2774249835666,4283.287606504497 3106.1979962742216,2130.9244293996435 3106.1979962742216,1891.873153495877 " id="svg_26"/>
	<polygon class="st3" points="957.2774249835666,4283.287606504497 1195.846237892637,4283.287606504497 3106.1979962742216,2369.8754084940138 3106.1979962742216,2130.9244293996435 " id="svg_27"/>
	<polygon class="st1" points="2866.32827010623,4283.287606504497 3104.8970830153003,4283.287606504497 3106.1979962742216,4282.0845334485475 3106.1979962742216,4042.9329607353848 " id="svg_28"/>
	<polygon class="st2" points="2627.659462173123,4283.287606504497 2866.32827010623,4283.287606504497 3106.1979962742216,4042.9329607353848 3106.1979962742216,3803.9819816410145 " id="svg_29"/>
	<polygon class="st2" points="1673.1839760021567,4283.287606504497 1911.8529061785694,4283.287606504497 3106.1979962742216,3086.928939395917 3106.1979962742216,2847.977715973144 " id="svg_30"/>
	<polygon class="st3" points="1911.8529061785694,4283.287606504497 2150.421596844334,4283.287606504497 3106.1979962742216,3325.980093135482 3106.1979962742216,3086.928939395917 " id="svg_31"/>
	<polygon class="st4" points="2150.3216018202975,4283.287606504497 2388.9904097534045,4283.287606504497 3106.1979962742216,3564.9308279014494 3106.1979962742216,3325.8796741618844 " id="svg_32"/>
	<polygon class="st3" points="2388.9904097534045,4283.287606504497 2627.659462173123,4283.287606504497 3106.1979962742216,3803.9819816410145 3106.1979962742216,3564.9308279014494 " id="svg_33"/>
</g></g></svg>