<svg xmlns="http://www.w3.org/2000/svg" width="3106.198" height="4283.396"><rect id="backgroundrect" width="100%" height="100%" fill="none"/><style>.st1{fill:#0e0a22}.st2{fill:#140f2e}.st3{fill:#1c153c}.st4{fill:#241c4d}</style><g id="svg_1" opacity=".25" class="currentLayer"><path class="st1" id="svg_2" d="M0-3.297v225.921l225.56-225.92z"/><path class="st2" id="svg_3" d="M225.56-3.297l-225.56 225.921v239.051l464.228-464.972z"/><path class="st3" id="svg_4" d="M464.228-3.297l-464.228 464.972v239.052l702.897-704.024z"/><path class="st4" id="svg_5" d="M702.797-3.297l-702.797 703.923v239.052l941.466-942.975z"/><path class="st3" id="svg_6" d="M941.566-3.297l-941.566 943.075v238.95l1180.135-1182.024z"/><path class="st2" id="svg_7" d="M1180.135-3.297l-1180.135 1182.027v239.051l1418.804-1421.078z"/><path class="st1" id="svg_8" d="M1418.804-3.297l-1418.804 1421.077v238.95l1657.373-1660.026z"/><path class="st2" id="svg_9" d="M1657.373-3.297l-1657.373 1660.028v239.151l1896.142-1899.179z"/><path class="st3" id="svg_10" d="M1896.142-3.297l-1896.142 1899.18v238.95l2134.71-2138.13z"/><path class="st4" id="svg_11" d="M2134.71-3.297l-2134.71 2138.13v239.052l2373.38-2377.182z"/><path class="st1" id="svg_12" d="M1434.515 4283.288h238.669l1433.014-1435.31v-239.051z"/><path class="st2" id="svg_13" d="M1195.846 4283.288h238.669l1671.683-1674.361v-239.052z"/><path class="st3" id="svg_14" d="M2373.28-3.297l-2373.28 2377.081v239.052l2611.948-2616.133z"/><path class="st2" id="svg_15" d="M2612.048-3.297l-2612.048 2616.233v238.951l2850.617-2855.184z"/><path class="st1" id="svg_16" d="M2850.617-3.297l-2850.617 2855.184v239.051l3089.286-3094.235z"/><path class="st2" id="svg_17" d="M3089.286-3.297l-3089.286 3094.235v239.051l3106.198-3111.174v-222.112z"/><path class="st3" id="svg_18" d="M0 3329.99v238.95l3106.198-3111.174v-238.95z"/><path class="st4" id="svg_19" d="M0 3568.94v239.051l3106.198-3111.173v-239.052z"/><path class="st3" id="svg_20" d="M0 3807.991v239.052l3106.198-3111.174v-239.051z"/><path class="st2" id="svg_21" d="M0 4046.942v236.346h2.702l3103.496-3108.468v-239.051z"/><path class="st2" id="svg_22" d="M2.702 4283.288h-2.702v2.706z"/><path class="st1" id="svg_23" d="M2.802 4283.288h238.669l2864.727-2869.318v-239.05z"/><path class="st2" id="svg_24" d="M241.47 4283.288h238.57l2626.158-2630.366v-238.95z"/><path class="st3" id="svg_25" d="M480.04 4283.288h238.669l2387.489-2391.315v-239.05z"/><path class="st4" id="svg_26" d="M718.609 4283.288h238.668l2148.921-2152.364v-239.05z"/><path class="st3" id="svg_27" d="M957.277 4283.288h238.57l1910.351-1913.413v-238.95z"/><path class="st1" id="svg_28" d="M2866.328 4283.288h238.57l1.3-1.203v-239.152z"/><path class="st2" id="svg_29" d="M2627.66 4283.288h238.668l239.87-240.355v-238.951z"/><path class="st2" id="svg_30" d="M1673.184 4283.288h238.669l1194.345-1196.36v-238.95z"/><path class="st3" id="svg_31" d="M1911.853 4283.288h238.569l955.776-957.308v-239.05z"/><path class="st4" id="svg_32" d="M2150.322 4283.288h238.668l717.208-718.357v-239.051z"/><path class="st3" id="svg_33" d="M2388.99 4283.288h238.67l478.538-479.306v-239.051z"/></g></svg>