<svg width="1920" height="5866" viewBox="0 0 1920 5866" fill="none" xmlns="http://www.w3.org/2000/svg">
<path d="M480 0L0 488.812V0H480Z" fill="#0E0A22"/>
<path d="M960 0L0 977.624V488.812L480 0H960Z" fill="#140F2E"/>
<path d="M1440 0L0 1466.44V977.624L960 0H1440Z" fill="#1C153C"/>
<path d="M1920 0L0 1955.25V1466.44L1440 0H1920Z" fill="#241C4D"/>
<path d="M1920 0V488.812L0 2444.06V1955.25L1920 0Z" fill="#1C153C"/>
<path d="M0 2444.06V2932.87L1920 977.624V488.812L0 2444.06Z" fill="#140F2E"/>
<path d="M1920 2933V3421.81L0 5377.06V4888.25L1920 2933Z" fill="#1C153C"/>
<path d="M1920 978V1466.81L0 3422.06V2933.25L1920 978Z" fill="#0E0A22"/>
<path d="M1920 1466V1954.81L0 3910.06V3421.25L1920 1466Z" fill="#140F2E"/>
<path d="M1920 1955V2443.81L0 4399.06V3910.25L1920 1955Z" fill="#1C153C"/>
<path d="M1920 2444V2932.81L0 4888.06V4399.25L1920 2444Z" fill="#241C4D"/>
<path d="M0 5377.06V5865.87L1920 3910.62V3421.81L0 5377.06Z" fill="#140F2E"/>
<path d="M1920 3910.62L0 5865.87H480L1920 4399.44V3910.62Z" fill="#0E0A22"/>
<path d="M960 5865.87L1920 4888.25V4399.44L480 5865.87H960Z" fill="#140F2E"/>
<path d="M1440 5865.87L1920 5377.06V4888.25L960 5865.87H1440Z" fill="#1C153C"/>
<path d="M1920 5865.87H1440L1920 5377.06V5865.87Z" fill="#241C4D"/>
</svg>
