<svg xmlns="http://www.w3.org/2000/svg" width="3106.198" height="4283.396"><rect id="backgroundrect" width="100%" height="100%" fill="none"/><style>.st1{fill:#0e0a22}.st2{fill:#140f2e}.st3{fill:#1c153c}.st4{fill:#241c4d}</style><g id="svg_1" opacity=".25" class="currentLayer"><path class="st1" id="svg_2" d="M0-3.297v225.921L225.56-3.296z"/><path class="st2" id="svg_3" d="M225.56-3.297L0 222.624v239.051L464.228-3.297z"/><path class="st3" id="svg_4" d="M464.228-3.297L0 461.675v239.052L702.897-3.297z"/><path class="st4" id="svg_5" d="M702.797-3.297L0 700.626v239.052L941.466-3.297z"/><path class="st3" id="svg_6" d="M941.566-3.297L0 939.778v238.95L1180.135-3.296z"/><path class="st2" id="svg_7" d="M1180.135-3.297L0 1178.73v239.051L1418.804-3.297z"/><path class="st1" id="svg_8" d="M1418.804-3.297L0 1417.78v238.95L1657.373-3.296z"/><path class="st2" id="svg_9" d="M1657.373-3.297L0 1656.731v239.151L1896.142-3.297z"/><path class="st3" id="svg_10" d="M1896.142-3.297L0 1895.883v238.95L2134.71-3.297z"/><path class="st4" id="svg_11" d="M2134.71-3.297L0 2134.833v239.052L2373.38-3.297z"/><path class="st1" id="svg_12" d="M1434.515 4283.288h238.669l1433.014-1435.31v-239.051z"/><path class="st2" id="svg_13" d="M1195.846 4283.288h238.669l1671.683-1674.361v-239.052z"/><path class="st3" id="svg_14" d="M2373.28-3.297L0 2373.784v239.052L2611.948-3.297z"/><path class="st2" id="svg_15" d="M2612.048-3.297L0 2612.936v238.951L2850.617-3.297z"/><path class="st1" id="svg_16" d="M2850.617-3.297L0 2851.887v239.051L3089.286-3.297z"/><path class="st2" id="svg_17" d="M3089.286-3.297L0 3090.938v239.051L3106.198 218.815V-3.297z"/><path class="st3" id="svg_18" d="M0 3329.99v238.95L3106.198 457.766v-238.95z"/><path class="st4" id="svg_19" d="M0 3568.94v239.051L3106.198 696.818V457.766z"/><path class="st3" id="svg_20" d="M0 3807.991v239.052L3106.198 935.869V696.818z"/><path class="st2" id="svg_21" d="M0 4046.942v236.346h2.702L3106.198 1174.82V935.769z"/><path class="st2" id="svg_22" d="M2.702 4283.288H0v2.706z"/><path class="st1" id="svg_23" d="M2.802 4283.288h238.669L3106.198 1413.97v-239.05z"/><path class="st2" id="svg_24" d="M241.47 4283.288h238.57l2626.158-2630.366v-238.95z"/><path class="st3" id="svg_25" d="M480.04 4283.288h238.669l2387.489-2391.315v-239.05z"/><path class="st4" id="svg_26" d="M718.609 4283.288h238.668l2148.921-2152.364v-239.05z"/><path class="st3" id="svg_27" d="M957.277 4283.288h238.57l1910.351-1913.413v-238.95z"/><path class="st1" id="svg_28" d="M2866.328 4283.288h238.57l1.3-1.203v-239.152z"/><path class="st2" id="svg_29" d="M2627.66 4283.288h238.668l239.87-240.355v-238.951z"/><path class="st2" id="svg_30" d="M1673.184 4283.288h238.669l1194.345-1196.36v-238.95z"/><path class="st3" id="svg_31" d="M1911.853 4283.288h238.569l955.776-957.308v-239.05z"/><path class="st4" id="svg_32" d="M2150.322 4283.288h238.668l717.208-718.357V3325.88z"/><path class="st3" id="svg_33" d="M2388.99 4283.288h238.67l478.538-479.306v-239.051z"/></g></svg>