<?xml version="1.0" encoding="utf-8"?>
<!-- Generator: Adobe Illustrator 22.1.0, SVG Export Plug-In . SVG Version: 6.00 Build 0)  -->
<svg version="1.1" id="GraphQL_Logo" xmlns="http://www.w3.org/2000/svg" xmlns:xlink="http://www.w3.org/1999/xlink" x="0px"
	 y="0px" viewBox="-1077.3 426.3 186.4 186.4" enable-background="new -1077.3 426.3 186.4 186.4" xml:space="preserve">
<g>
	<g>
		
			<polygon fill="none" stroke="#13BEBB" stroke-width="4.252" stroke-linecap="round" stroke-linejoin="round" stroke-miterlimit="10" points="
			-1051.1,473.8 -1040.1,469.4 -1040.1,454.7 -1054.9,464.5 		"/>
		
			<polygon fill="none" stroke="#13BEBB" stroke-width="4.252" stroke-linecap="round" stroke-linejoin="round" stroke-miterlimit="10" points="
			-995.9,473.8 -1006.8,469.4 -1006.8,454.7 -992.1,464.5 		"/>
		
			<path fill="none" stroke="#13BEBB" stroke-width="4.252" stroke-linecap="round" stroke-linejoin="round" stroke-miterlimit="10" d="
			M-1013.7,454.8c-2,3.3-5.6,5.5-9.7,5.5c-4.1,0-7.7-2.2-9.7-5.5h-7V511h33.3v-56.2H-1013.7z"/>
		<path fill="none" stroke="#13BEBB" stroke-width="4.252" stroke-miterlimit="10" d="M-1034.5,454.8c0.9,5.3,5.5,9.2,11.1,9.2
			c5.5,0,10.1-4,11.1-9.2"/>
	</g>
	<g>
		
			<polygon fill="none" stroke="#13BEBB" stroke-width="4.252" stroke-linecap="round" stroke-linejoin="round" stroke-miterlimit="10" points="
			-972.4,473.8 -961.5,469.4 -961.5,454.7 -976.2,464.5 		"/>
		
			<polygon fill="none" stroke="#13BEBB" stroke-width="4.252" stroke-linecap="round" stroke-linejoin="round" stroke-miterlimit="10" points="
			-917.2,473.8 -928.2,469.4 -928.2,454.7 -913.4,464.5 		"/>
		
			<path fill="none" stroke="#13BEBB" stroke-width="4.252" stroke-linecap="round" stroke-linejoin="round" stroke-miterlimit="10" d="
			M-935.1,454.8c-2,3.3-5.6,5.5-9.7,5.5c-4.1,0-7.7-2.2-9.7-5.5h-7V511h33.3v-56.2H-935.1z"/>
		<path fill="none" stroke="#13BEBB" stroke-width="4.252" stroke-miterlimit="10" d="M-955.8,454.8c0.9,5.3,5.5,9.2,11.1,9.2
			c5.5,0,10.1-4,11.1-9.2"/>
	</g>
	<g>
		
			<polygon fill="none" stroke="#13BEBB" stroke-width="4.252" stroke-linecap="round" stroke-linejoin="round" stroke-miterlimit="10" points="
			-1051.1,547.2 -1040.1,542.8 -1040.1,528 -1054.9,537.9 		"/>
		
			<polygon fill="none" stroke="#13BEBB" stroke-width="4.252" stroke-linecap="round" stroke-linejoin="round" stroke-miterlimit="10" points="
			-995.9,547.2 -1006.8,542.8 -1006.8,528 -992.1,537.9 		"/>
		
			<path fill="none" stroke="#13BEBB" stroke-width="4.252" stroke-linecap="round" stroke-linejoin="round" stroke-miterlimit="10" d="
			M-1013.7,528.1c-2,3.3-5.6,5.5-9.7,5.5c-4.1,0-7.7-2.2-9.7-5.5h-7v56.2h33.3v-56.2H-1013.7z"/>
		<path fill="none" stroke="#13BEBB" stroke-width="4.252" stroke-miterlimit="10" d="M-1034.5,528.1c0.9,5.3,5.5,9.2,11.1,9.2
			c5.5,0,10.1-4,11.1-9.2"/>
	</g>
	<g>
		
			<polygon fill="none" stroke="#13BEBB" stroke-width="4.252" stroke-linecap="round" stroke-linejoin="round" stroke-miterlimit="10" points="
			-972.4,547.2 -961.5,542.8 -961.5,528 -976.2,537.9 		"/>
		
			<polygon fill="none" stroke="#13BEBB" stroke-width="4.252" stroke-linecap="round" stroke-linejoin="round" stroke-miterlimit="10" points="
			-917.2,547.2 -928.2,542.8 -928.2,528 -913.4,537.9 		"/>
		
			<path fill="none" stroke="#13BEBB" stroke-width="4.252" stroke-linecap="round" stroke-linejoin="round" stroke-miterlimit="10" d="
			M-935.1,528.1c-2,3.3-5.6,5.5-9.7,5.5c-4.1,0-7.7-2.2-9.7-5.5h-7v56.2h33.3v-56.2H-935.1z"/>
		<path fill="none" stroke="#13BEBB" stroke-width="4.252" stroke-miterlimit="10" d="M-955.8,528.1c0.9,5.3,5.5,9.2,11.1,9.2
			c5.5,0,10.1-4,11.1-9.2"/>
	</g>
</g>
</svg>
