<svg xmlns="http://www.w3.org/2000/svg" viewBox="-427.9 1291.8 186.4 186.4"><g stroke="#13BEBB" stroke-width="4.252" stroke-linecap="round" stroke-linejoin="round" stroke-miterlimit="10" fill="none"><circle cx="-321.4" cy="1423.9" r="3.5"/><circle cx="-341" cy="1402.5" r="3.5"/><path d="M-341.9 1423.9l21.4-21.4m2.3-12.1h-52.5v9.7c-5.8 1.5-10.1 6.8-10.1 13.1s4.3 11.6 10.1 13.1v9.7h78.8v-9.7c5.8-1.5 10.1-6.8 10.1-13.1 0-4.3-2.1-8.2-5.2-10.7"/><circle cx="-299.4" cy="1388.1" r="3.5"/><circle cx="-304.5" cy="1359.5" r="3.5"/><path d="M-316.7 1377.1l29.5-6.5M-357.004 1365.65l24.502-38.338 66.397 42.434-24.502 38.338z"/><circle cx="-330.7" cy="1355.5" r="6.4"/><path d="M-334.8 1359.5s4.2-4.1-1.3-7.5-21.1 9-25.7-5.9c-4.6-14.9-47.6-15.8-40.8 15.7s12.8 59.6-.7 59.9"/></g></svg>