<?xml version="1.0" encoding="utf-8"?>
<!-- Generator: Adobe Illustrator 22.1.0, SVG Export Plug-In . SVG Version: 6.00 Build 0)  -->
<svg version="1.1" id="GraphQL_Logo" xmlns="http://www.w3.org/2000/svg" xmlns:xlink="http://www.w3.org/1999/xlink" x="0px"
	 y="0px" viewBox="-427.9 1291.8 186.4 186.4" enable-background="new -427.9 1291.8 186.4 186.4" xml:space="preserve">
<g>
	<g>
		<g>
			
				<circle fill="none" stroke="#13BEBB" stroke-width="4.252" stroke-linecap="round" stroke-linejoin="round" stroke-miterlimit="10" cx="-321.4" cy="1423.9" r="3.5"/>
			
				<circle fill="none" stroke="#13BEBB" stroke-width="4.252" stroke-linecap="round" stroke-linejoin="round" stroke-miterlimit="10" cx="-341" cy="1402.5" r="3.5"/>
		</g>
		
			<line fill="none" stroke="#13BEBB" stroke-width="4.252" stroke-linecap="round" stroke-linejoin="round" stroke-miterlimit="10" x1="-341.9" y1="1423.9" x2="-320.5" y2="1402.5"/>
	</g>
	
		<path fill="none" stroke="#13BEBB" stroke-width="4.252" stroke-linecap="round" stroke-linejoin="round" stroke-miterlimit="10" d="
		M-318.2,1390.4h-3.5h-49v9.7c-5.8,1.5-10.1,6.8-10.1,13.1s4.3,11.6,10.1,13.1v9.7h78.8v-9.7c5.8-1.5,10.1-6.8,10.1-13.1
		c0-4.3-2.1-8.2-5.2-10.7"/>
	<g>
		<g>
			<g>
				
					<circle fill="none" stroke="#13BEBB" stroke-width="4.252" stroke-linecap="round" stroke-linejoin="round" stroke-miterlimit="10" cx="-299.4" cy="1388.1" r="3.5"/>
				
					<circle fill="none" stroke="#13BEBB" stroke-width="4.252" stroke-linecap="round" stroke-linejoin="round" stroke-miterlimit="10" cx="-304.5" cy="1359.5" r="3.5"/>
			</g>
			
				<line fill="none" stroke="#13BEBB" stroke-width="4.252" stroke-linecap="round" stroke-linejoin="round" stroke-miterlimit="10" x1="-316.7" y1="1377.1" x2="-287.2" y2="1370.6"/>
		</g>
		
			<rect x="-334.2" y="1328.3" transform="matrix(0.5385 -0.8426 0.8426 0.5385 -1296.2628 368.7637)" fill="none" stroke="#13BEBB" stroke-width="4.252" stroke-linecap="round" stroke-linejoin="round" stroke-miterlimit="10" width="45.5" height="78.8"/>
		
			<circle fill="none" stroke="#13BEBB" stroke-width="4.252" stroke-linecap="round" stroke-linejoin="round" stroke-miterlimit="10" cx="-330.7" cy="1355.5" r="6.4"/>
	</g>
	
		<path fill="none" stroke="#13BEBB" stroke-width="4.252" stroke-linecap="round" stroke-linejoin="round" stroke-miterlimit="10" d="
		M-334.8,1359.5c0,0,4.2-4.1-1.3-7.5s-21.1,9-25.7-5.9c-4.6-14.9-47.6-15.8-40.8,15.7s12.8,59.6-0.7,59.9"/>
</g>
</svg>
