<svg width="2722" height="2222" viewBox="0 0 2722 2222" fill="none" xmlns="http://www.w3.org/2000/svg">
<path opacity="0.5" d="M1747.97 144.242H1530.81V1048.39H1747.97V144.242Z" fill="url(#paint0_linear)"/>
<path d="M1837.37 1616.91L1926.79 1527.37H2143.94L2054.53 1616.91H1837.37Z" stroke="#00B09E" stroke-width="0.6336" stroke-miterlimit="10" stroke-linecap="round" stroke-linejoin="round"/>
<path d="M1801.85 1375.98L1748.94 1428.92V1706.25L1801.85 1653.28V1375.98Z" stroke="#00B09E" stroke-width="0.6336" stroke-miterlimit="10" stroke-linecap="round" stroke-linejoin="round"/>
<path d="M1801.85 1653.28H1907.62L1854.73 1706.25H1748.94L1801.85 1653.28Z" stroke="#00B09E" stroke-width="0.6336" stroke-miterlimit="10" stroke-linecap="round" stroke-linejoin="round"/>
<path d="M1801.85 1375.98H1907.62L1854.73 1428.92H1748.94L1801.85 1375.98Z" stroke="#00B09E" stroke-width="0.6336" stroke-miterlimit="10" stroke-linecap="round" stroke-linejoin="round"/>
<path d="M1854.73 1428.92H1748.94V1706.25H1854.73V1428.92Z" stroke="#00B09E" stroke-width="0.6336" stroke-miterlimit="10" stroke-linecap="round" stroke-linejoin="round"/>
<path d="M1907.61 1375.97L1854.73 1428.92V1706.25L1907.61 1653.28V1375.97Z" stroke="#00B09E" stroke-width="0.6336" stroke-miterlimit="10" stroke-linecap="round" stroke-linejoin="round"/>
<path d="M2092.85 1795.95L2182.27 1706.43H2399.44L2310.02 1795.95H2092.85Z" stroke="#00B09E" stroke-width="0.6336" stroke-miterlimit="10" stroke-linecap="round" stroke-linejoin="round"/>
<path d="M1696.87 1975L1786.28 1885.47H2003.44L1914.02 1975H1696.87Z" stroke="#00B09E" stroke-width="0.6336" stroke-miterlimit="10" stroke-linecap="round" stroke-linejoin="round"/>
<path d="M1262.55 1975L1351.97 1885.47H1569.12L1479.7 1975H1262.55Z" stroke="#00B09E" stroke-width="0.6336" stroke-miterlimit="10" stroke-linecap="round" stroke-linejoin="round"/>
<path d="M955.967 2064.52L1045.39 1975H1262.54L1173.13 2064.52H955.967Z" stroke="#00B09E" stroke-width="0.6336" stroke-miterlimit="10" stroke-linecap="round" stroke-linejoin="round"/>
<path d="M879.338 1706.43L968.751 1616.91H1185.91L1096.49 1706.43H879.338Z" stroke="#00B09E" stroke-width="0.6336" stroke-miterlimit="10" stroke-linecap="round" stroke-linejoin="round"/>
<path d="M879.338 1706.43L968.751 1616.91H1185.91L1096.49 1706.43H879.338Z" stroke="#00B09E" stroke-width="0.6336" stroke-miterlimit="10" stroke-linecap="round" stroke-linejoin="round"/>
<path d="M879.338 1706.43L968.751 1616.91H1185.91L1096.49 1706.43H879.338Z" stroke="#00B09E" stroke-width="0.6336" stroke-miterlimit="10" stroke-linecap="round" stroke-linejoin="round"/>
<path d="M879.335 1668.04V1706.43L789.912 1795.95V1757.59L879.335 1668.04Z" stroke="#00B09E" stroke-width="0.6336" stroke-miterlimit="10" stroke-linecap="round" stroke-linejoin="round"/>
<path d="M789.912 1795.95L879.335 1706.43H1096.49L1007.07 1795.95H789.912Z" stroke="#00B09E" stroke-width="0.6336" stroke-miterlimit="10" stroke-linecap="round" stroke-linejoin="round"/>
<path d="M789.912 1757.59L879.335 1668.04H1096.49L1007.07 1757.59H789.912Z" stroke="#88D8BE" stroke-width="0.6336" stroke-miterlimit="10" stroke-linecap="round" stroke-linejoin="round"/>
<path d="M1007.07 1757.59H789.912V1795.95H1007.07V1757.59Z" stroke="#00B09E" stroke-width="0.6336" stroke-miterlimit="10" stroke-linecap="round" stroke-linejoin="round"/>
<path d="M1096.5 1668.04V1706.43L1007.08 1795.95V1757.59L1096.5 1668.04Z" stroke="#00B09E" stroke-width="0.6336" stroke-miterlimit="10" stroke-linecap="round" stroke-linejoin="round"/>
<path d="M2054.52 1578.52V1616.91L1965.1 1706.43V1668.04L2054.52 1578.52Z" stroke="#00B09E" stroke-width="0.6336" stroke-miterlimit="10" stroke-linecap="round" stroke-linejoin="round"/>
<path d="M1965.1 1706.43L2054.52 1616.91H2271.67L2182.26 1706.43H1965.1Z" stroke="#00B09E" stroke-width="0.6336" stroke-miterlimit="10" stroke-linecap="round" stroke-linejoin="round"/>
<path d="M1965.1 1668.04L2054.52 1578.52H2271.67L2182.26 1668.04H1965.1Z" stroke="#00B09E" stroke-width="0.6336" stroke-miterlimit="10" stroke-linecap="round" stroke-linejoin="round"/>
<path d="M2182.25 1668.05H1965.1V1706.43H2182.25V1668.05Z" stroke="#00B09E" stroke-width="0.6336" stroke-miterlimit="10" stroke-linecap="round" stroke-linejoin="round"/>
<path d="M2271.67 1578.52V1616.91L2182.26 1706.43V1668.04L2271.67 1578.52Z" stroke="#00B09E" stroke-width="0.6336" stroke-miterlimit="10" stroke-linecap="round" stroke-linejoin="round"/>
<path d="M1096.5 1642.48V1706.43L1007.08 1795.95V1732L1096.5 1642.48Z" stroke="#00B09E" stroke-width="0.6336" stroke-miterlimit="10" stroke-linecap="round" stroke-linejoin="round"/>
<path d="M1007.08 1795.95L1096.5 1706.43H1313.66L1224.23 1795.95H1007.08Z" stroke="#00B09E" stroke-width="0.6336" stroke-miterlimit="10" stroke-linecap="round" stroke-linejoin="round"/>
<path d="M1007.08 1732L1096.5 1642.48H1313.66L1224.23 1732H1007.08Z" stroke="#00B09E" stroke-width="0.6336" stroke-miterlimit="10" stroke-linecap="round" stroke-linejoin="round"/>
<path d="M1224.23 1732H1007.08V1795.96H1224.23V1732Z" stroke="#00B09E" stroke-width="0.6336" stroke-miterlimit="10" stroke-linecap="round" stroke-linejoin="round"/>
<path d="M1313.66 1642.48V1706.43L1224.24 1795.95V1732L1313.66 1642.48Z" stroke="#00B09E" stroke-width="0.6336" stroke-miterlimit="10" stroke-linecap="round" stroke-linejoin="round"/>
<path d="M1313.66 1337.6V1706.43L1224.24 1795.95V1427.13L1313.66 1337.6Z" stroke="#00B09E" stroke-width="0.6336" stroke-miterlimit="10" stroke-linecap="round" stroke-linejoin="round"/>
<path d="M1224.24 1795.95L1313.66 1706.43H1530.82L1441.39 1795.95H1224.24Z" stroke="#00B09E" stroke-width="0.6336" stroke-miterlimit="10" stroke-linecap="round" stroke-linejoin="round"/>
<path d="M1224.24 1427.13L1313.66 1337.6H1530.82L1441.39 1427.13H1224.24Z" stroke="#00B09E" stroke-width="0.6336" stroke-miterlimit="10" stroke-linecap="round" stroke-linejoin="round"/>
<path d="M1441.39 1427.13H1224.24V1795.95H1441.39V1427.13Z" stroke="#00B09E" stroke-width="0.6336" stroke-miterlimit="10" stroke-linecap="round" stroke-linejoin="round"/>
<path d="M1530.83 1337.6V1706.43L1441.39 1795.95V1427.13L1530.83 1337.6Z" stroke="#00B09E" stroke-width="0.6336" stroke-miterlimit="10" stroke-linecap="round" stroke-linejoin="round"/>
<path d="M1530.82 1048.39V1706.43L1441.39 1795.95V1137.91L1530.82 1048.39Z" stroke="#00B09E" stroke-width="0.6336" stroke-miterlimit="10" stroke-linecap="round" stroke-linejoin="round"/>
<path d="M1441.39 1795.95L1530.82 1706.43H1747.98L1658.56 1795.95H1441.39Z" stroke="#00B09E" stroke-width="0.6336" stroke-miterlimit="10" stroke-linecap="round" stroke-linejoin="round"/>
<path d="M1441.39 1137.91L1530.82 1048.39H1747.98L1658.56 1137.91H1441.39Z" fill="white" stroke="#00B09E" stroke-width="0.6336" stroke-miterlimit="10" stroke-linecap="round" stroke-linejoin="round"/>
<path d="M1658.56 1137.91H1441.39V1795.95H1658.56V1137.91Z" fill="url(#paint1_linear)" stroke="#88D8BE" stroke-width="1.0429" stroke-miterlimit="10"/>
<path d="M1747.98 1048.39V1706.43L1658.56 1795.95V1137.91L1747.98 1048.39Z" stroke="#00B09E" stroke-width="0.6336" stroke-miterlimit="10" stroke-linecap="round" stroke-linejoin="round"/>
<path d="M1747.96 1450.63V1706.43L1658.54 1795.95V1540.15L1747.96 1450.63Z" stroke="#00B09E" stroke-width="0.6336" stroke-miterlimit="10" stroke-linecap="round" stroke-linejoin="round"/>
<path d="M1658.54 1795.95L1747.96 1706.43H1965.11L1875.7 1795.95H1658.54Z" stroke="#00B09E" stroke-width="0.6336" stroke-miterlimit="10" stroke-linecap="round" stroke-linejoin="round"/>
<path d="M1658.54 1540.15L1747.96 1450.63H1965.11L1875.7 1540.15H1658.54Z" stroke="#00B09E" stroke-width="0.6336" stroke-miterlimit="10" stroke-linecap="round" stroke-linejoin="round"/>
<path d="M1875.69 1540.15H1658.54V1795.95H1875.69V1540.15Z" stroke="#00B09E" stroke-width="0.6336" stroke-miterlimit="10" stroke-linecap="round" stroke-linejoin="round"/>
<path d="M1965.11 1450.63V1706.43L1875.7 1795.95V1540.15L1965.11 1450.63Z" stroke="#00B09E" stroke-width="0.6336" stroke-miterlimit="10" stroke-linecap="round" stroke-linejoin="round"/>
<path d="M1965.11 1604.11V1706.43L1875.7 1795.95V1693.63L1965.11 1604.11Z" stroke="#00B09E" stroke-width="0.6336" stroke-miterlimit="10" stroke-linecap="round" stroke-linejoin="round"/>
<path d="M1875.7 1795.95L1965.11 1706.43H2182.27L2092.85 1795.95H1875.7Z" stroke="#00B09E" stroke-width="0.6336" stroke-miterlimit="10" stroke-linecap="round" stroke-linejoin="round"/>
<path d="M1875.7 1693.63L1965.11 1604.11H2182.26L2092.85 1693.63H1875.7Z" stroke="#00B09E" stroke-width="0.6336" stroke-miterlimit="10" stroke-linecap="round" stroke-linejoin="round"/>
<path d="M2092.85 1693.63H1875.7V1795.95H2092.85V1693.63Z" stroke="#00B09E" stroke-width="0.6336" stroke-miterlimit="10" stroke-linecap="round" stroke-linejoin="round"/>
<path d="M2182.27 1604.11V1706.43L2092.85 1795.95V1693.63L2182.27 1604.11Z" stroke="#00B09E" stroke-width="0.6336" stroke-miterlimit="10" stroke-linecap="round" stroke-linejoin="round"/>
<path d="M1223.43 1482.6L1170.53 1535.57V1853.32L1223.43 1800.35V1482.6Z" stroke="#00B09E" stroke-width="0.6336" stroke-miterlimit="10" stroke-linecap="round" stroke-linejoin="round"/>
<path d="M1223.43 1800.35H1329.22L1276.32 1853.32H1170.53L1223.43 1800.35Z" stroke="#00B09E" stroke-width="0.6336" stroke-miterlimit="10" stroke-linecap="round" stroke-linejoin="round"/>
<path d="M1223.43 1482.6H1329.22L1276.32 1535.57H1170.53L1223.43 1482.6Z" stroke="#00B09E" stroke-width="0.6336" stroke-miterlimit="10" stroke-linecap="round" stroke-linejoin="round"/>
<path d="M1276.32 1535.57H1170.53V1853.32H1276.32V1535.57Z" stroke="#00B09E" stroke-width="0.6336" stroke-miterlimit="10" stroke-linecap="round" stroke-linejoin="round"/>
<path d="M1329.22 1482.6L1276.32 1535.57V1853.32L1329.22 1800.35V1482.6Z" stroke="#00B09E" stroke-width="0.6336" stroke-miterlimit="10" stroke-linecap="round" stroke-linejoin="round"/>
<path d="M1329.21 1723.8L1276.31 1776.77V1853.32L1329.21 1800.35V1723.8Z" stroke="#00B09E" stroke-width="0.6336" stroke-miterlimit="10" stroke-linecap="round" stroke-linejoin="round"/>
<path d="M1329.21 1800.35H1435L1382.11 1853.32H1276.31L1329.21 1800.35Z" stroke="#00B09E" stroke-width="0.6336" stroke-miterlimit="10" stroke-linecap="round" stroke-linejoin="round"/>
<path d="M1329.21 1723.8H1435L1382.11 1776.77H1276.31L1329.21 1723.8Z" stroke="#00B09E" stroke-width="0.6336" stroke-miterlimit="10" stroke-linecap="round" stroke-linejoin="round"/>
<path d="M1382.11 1776.77H1276.31V1853.32H1382.11V1776.77Z" stroke="#00B09E" stroke-width="0.6336" stroke-miterlimit="10" stroke-linecap="round" stroke-linejoin="round"/>
<path d="M1435 1723.8L1382.1 1776.77V1853.32L1435 1800.35V1723.8Z" stroke="#00B09E" stroke-width="0.6336" stroke-miterlimit="10" stroke-linecap="round" stroke-linejoin="round"/>
<path d="M1556.35 1616.91L1505.26 1668.04V1847.11L1556.35 1795.95V1616.91Z" stroke="#00B09E" stroke-width="0.6336" stroke-miterlimit="10" stroke-linecap="round" stroke-linejoin="round"/>
<path d="M1556.35 1795.95H1658.55L1607.44 1847.11H1505.26L1556.35 1795.95Z" stroke="#00B09E" stroke-width="0.6336" stroke-miterlimit="10" stroke-linecap="round" stroke-linejoin="round"/>
<path opacity="0.9" d="M1556.35 1616.91H1658.55L1607.44 1668.04H1505.26L1556.35 1616.91Z" fill="url(#paint2_linear)" stroke="#88D8BE" stroke-width="1.0429" stroke-miterlimit="10" stroke-linecap="round" stroke-linejoin="round"/>
<path d="M1607.44 1668.04H1505.26V1847.11H1607.44V1668.04Z" stroke="#00B09E" stroke-width="0.6336" stroke-miterlimit="10" stroke-linecap="round" stroke-linejoin="round"/>
<path d="M1658.56 1616.91L1607.45 1668.04V1847.11L1658.56 1795.95V1616.91Z" stroke="#00B09E" stroke-width="0.6336" stroke-miterlimit="10" stroke-linecap="round" stroke-linejoin="round"/>
<path d="M1658.56 1757.59V1795.95L1569.13 1885.47V1847.11L1658.56 1757.59Z" stroke="#00B09E" stroke-width="0.6336" stroke-miterlimit="10" stroke-linecap="round" stroke-linejoin="round"/>
<path d="M1569.13 1885.47L1658.56 1795.95H1875.72L1786.3 1885.47H1569.13Z" stroke="#00B09E" stroke-width="0.6336" stroke-miterlimit="10" stroke-linecap="round" stroke-linejoin="round"/>
<path d="M1569.13 1847.11L1658.56 1757.59H1875.72L1786.3 1847.11H1569.13Z" stroke="#00B09E" stroke-width="0.6336" stroke-miterlimit="10" stroke-linecap="round" stroke-linejoin="round"/>
<path d="M1786.3 1847.11H1569.13V1885.47H1786.3V1847.11Z" stroke="#00B09E" stroke-width="0.6336" stroke-miterlimit="10" stroke-linecap="round" stroke-linejoin="round"/>
<path d="M1875.71 1757.59V1795.95L1786.29 1885.47V1847.11L1875.71 1757.59Z" stroke="#00B09E" stroke-width="0.6336" stroke-miterlimit="10" stroke-linecap="round" stroke-linejoin="round"/>
<path d="M1134.82 1847.11V1885.47L1045.4 1975V1936.63L1134.82 1847.11Z" stroke="#00B09E" stroke-width="0.6336" stroke-miterlimit="10" stroke-linecap="round" stroke-linejoin="round"/>
<path d="M1045.4 1975L1134.82 1885.47H1351.97L1262.55 1975H1045.4Z" stroke="#00B09E" stroke-width="0.6336" stroke-miterlimit="10" stroke-linecap="round" stroke-linejoin="round"/>
<path d="M1045.4 1936.63L1134.82 1847.11H1351.97L1262.55 1936.63H1045.4Z" stroke="#00B09E" stroke-width="0.6336" stroke-miterlimit="10" stroke-linecap="round" stroke-linejoin="round"/>
<path d="M1262.55 1936.63H1045.4V1975H1262.55V1936.63Z" stroke="#00B09E" stroke-width="0.6336" stroke-miterlimit="10" stroke-linecap="round" stroke-linejoin="round"/>
<path d="M1351.97 1847.11V1885.47L1262.55 1975V1936.63L1351.97 1847.11Z" stroke="#00B09E" stroke-width="0.6336" stroke-miterlimit="10" stroke-linecap="round" stroke-linejoin="round"/>
<path d="M1696.1 944.073C1694.19 942.979 1692.18 942.2 1690.13 941.709V881.397C1692.2 880.906 1694.23 880.127 1696.15 879.014C1706.98 872.733 1710.65 858.929 1704.44 848.112C1698.17 837.285 1684.39 833.594 1673.57 839.817C1671.62 840.94 1669.92 842.322 1668.45 843.882L1616.33 813.742C1616.94 811.7 1617.27 809.531 1617.27 807.285C1617.27 794.78 1607.17 784.677 1594.68 784.677C1582.19 784.677 1572.09 794.78 1572.09 807.285C1572.09 809.521 1572.42 811.671 1573.04 813.713L1520.89 843.863C1519.42 842.312 1517.72 840.94 1515.79 839.817C1504.97 833.594 1491.13 837.285 1484.92 848.112C1478.71 858.929 1482.4 872.797 1493.2 879.014C1495.13 880.127 1497.15 880.906 1499.23 881.397V941.706C1497.19 942.197 1495.19 942.975 1493.26 944.07C1482.46 950.361 1478.77 964.164 1484.98 974.988C1491.2 985.806 1504.97 989.497 1515.85 983.282C1517.77 982.153 1519.44 980.797 1520.89 979.276L1573.02 1009.41C1572.42 1011.45 1572.09 1013.58 1572.09 1015.81C1572.09 1028.31 1582.19 1038.42 1594.68 1038.42C1607.17 1038.42 1617.27 1028.24 1617.27 1015.81C1617.27 1013.3 1616.85 1010.93 1616.12 1008.68L1667.94 978.717C1669.51 980.481 1671.37 982.038 1673.52 983.282C1684.32 989.497 1698.18 985.806 1704.39 974.988C1710.64 964.167 1706.98 950.364 1696.1 944.073ZM1526.5 958.333C1525.99 956.291 1525.23 954.288 1524.12 952.367C1523.03 950.466 1521.68 948.785 1520.16 947.34L1588.39 829.003C1590.39 829.577 1592.49 829.903 1594.67 829.903C1596.86 829.903 1598.98 829.577 1600.98 828.994L1669.21 947.301C1667.67 948.766 1666.32 950.447 1665.23 952.367C1664.13 954.278 1663.35 956.291 1662.85 958.333H1526.5ZM1663.15 853.235C1661.54 858.913 1662.11 865.201 1665.28 870.72C1668.47 876.258 1673.64 879.914 1679.4 881.352V941.735C1679.1 941.802 1678.81 941.884 1678.53 941.958L1610.28 823.621C1610.48 823.427 1610.69 823.232 1610.89 823.028L1663.15 853.235ZM1579.09 823.631L1510.84 941.977C1510.54 941.894 1510.24 941.811 1509.95 941.735V881.352C1515.71 879.914 1520.88 876.261 1524.07 870.72C1527.24 865.191 1527.81 858.891 1526.2 853.206L1578.44 823.003C1578.64 823.213 1578.87 823.427 1579.09 823.631ZM1611.35 1000.58C1607.22 996.052 1601.31 993.197 1594.67 993.197C1588.28 993.197 1582.52 995.848 1578.42 1000.12L1526.24 969.957C1526.31 969.67 1526.4 969.383 1526.46 969.086H1662.87C1663 969.587 1663.15 970.072 1663.3 970.563L1611.35 1000.58Z" fill="url(#paint3_linear)"/>
<path opacity="0.5" d="M1658.55 233.762H1441.38V1137.91H1658.55V233.762Z" fill="url(#paint4_linear)"/>
<path d="M1045.41 1975H813.601L778.476 2010.16H500.668" stroke="#00B09E" stroke-width="0.6336" stroke-miterlimit="10" stroke-linecap="round" stroke-linejoin="round"/>
<path d="M2003.44 1885.47H2381.26L2415.99 1850.7H2780" stroke="#00B09E" stroke-width="0.6336" stroke-miterlimit="10" stroke-linecap="round" stroke-linejoin="round"/>
<path d="M789.921 1795.95H552.142L518.463 1829.69H2" stroke="#00B09E" stroke-width="0.6336" stroke-miterlimit="10" stroke-linecap="round" stroke-linejoin="round"/>
<path d="M1479.71 1975L1363.4 2091.46H1337.5L1209.12 2220" stroke="#00B09E" stroke-width="0.6336" stroke-miterlimit="10" stroke-linecap="round" stroke-linejoin="round"/>
<path d="M1696.88 1975L1565.59 2106.45" stroke="#00B09E" stroke-width="0.6336" stroke-miterlimit="10" stroke-linecap="round" stroke-linejoin="round"/>
<g opacity="0.8">
<path opacity="0.8" d="M1302.58 1405.84L1358.44 1349.91V846.545L1302.58 902.474V1405.84Z" fill="url(#paint5_linear)"/>
<path opacity="0.8" d="M1358.43 1517.7L1414.31 1461.77V958.405L1358.43 1014.32V1517.7Z" fill="#66BAA1"/>
<path opacity="0.8" d="M1386.36 1797.35L1442.23 1741.41V1238.04L1386.36 1293.98V1797.35Z" fill="url(#paint6_linear)"/>
<path opacity="0.8" d="M1861.21 1629.55L1917.08 1573.63V1070.27L1861.21 1126.19V1629.55Z" fill="url(#paint7_linear)"/>
<path opacity="0.8" d="M1665.68 958.404L1721.55 902.472V399.114L1665.68 455.042V958.404Z" fill="url(#paint8_linear)"/>
<path opacity="0.8" d="M1442.24 1629.55L1498.09 1573.63V1070.27L1442.24 1126.19V1629.55Z" fill="url(#paint9_linear)"/>
<path opacity="0.8" d="M1386.36 902.473L1442.23 846.544V343.183L1386.36 399.115V902.473Z" fill="url(#paint10_linear)"/>
<path opacity="0.8" d="M1358.43 986.366L1414.31 930.434V762.654L1358.43 818.586V986.366Z" fill="url(#paint11_linear)"/>
<path opacity="0.8" d="M1246.72 1126.18L1302.58 1070.27V566.904L1246.72 622.833V1126.18Z" fill="url(#paint12_linear)"/>
<path opacity="0.8" d="M1414.33 958.406L1442.25 930.436V-48.3164L1414.33 -20.3553V958.406Z" fill="url(#paint13_linear)"/>
<path opacity="0.8" d="M1358.45 1573.63L1330.52 1545.67V1377.87L1358.45 1349.91V1573.63Z" fill="url(#paint14_linear)"/>
<path opacity="0.8" d="M1274.66 1545.67L1246.72 1517.7V1349.91L1274.66 1321.94V1545.67Z" fill="url(#paint15_linear)"/>
<path opacity="0.8" d="M1693.62 1517.7L1665.68 1489.73V986.366L1693.62 958.405V1517.7Z" fill="url(#paint16_linear)"/>
<path opacity="0.8" d="M1246.72 902.474L1274.66 930.435V1098.22L1246.72 1126.19V902.474Z" fill="url(#paint17_linear)"/>
<path opacity="0.8" d="M1246.72 510.971L1302.58 455.042L1246.72 399.114V510.971Z" fill="url(#paint18_linear)"/>
<path opacity="0.8" d="M1749.49 1405.84L1805.36 1349.91V846.545L1749.49 902.474V1405.84Z" fill="url(#paint19_linear)"/>
<path opacity="0.8" d="M1777.42 902.473L1833.29 846.544V343.183L1777.42 399.115V902.473Z" fill="#66BAA1"/>
<path opacity="0.8" d="M1777.42 1545.67L1833.29 1489.73V986.366L1777.42 1042.3V1545.67Z" fill="url(#paint20_linear)"/>
<path opacity="0.8" d="M1749.49 734.684L1805.36 678.764V175.394L1749.49 231.322V734.684Z" fill="url(#paint21_linear)"/>
<path opacity="0.8" d="M1833.28 902.473L1889.14 846.544V343.183L1833.28 399.115V902.473Z" fill="url(#paint22_linear)"/>
<path opacity="0.8" d="M1805.36 1014.32L1861.21 958.405V790.612L1805.36 846.544V1014.32Z" fill="url(#paint23_linear)"/>
<path opacity="0.8" d="M1693.62 1126.18L1749.47 1070.27V566.904L1693.62 622.833V1126.18Z" fill="url(#paint24_linear)"/>
<path opacity="0.8" d="M1861.21 1573.63L1889.13 1545.67V566.904L1861.21 594.865V1573.63Z" fill="url(#paint25_linear)"/>
<path opacity="0.8" d="M1861.21 1154.16L1833.28 1126.18V958.404L1861.21 930.434V1154.16Z" fill="url(#paint26_linear)"/>
<path opacity="0.8" d="M1721.55 1545.67L1693.62 1517.7V1349.91L1721.55 1321.94V1545.67Z" fill="url(#paint27_linear)"/>
<path opacity="0.8" d="M1805.36 -300L1833.28 -272.039V231.323L1805.36 259.293V-300Z" fill="url(#paint28_linear)"/>
<path opacity="0.8" d="M1749.49 566.904L1805.36 510.972L1749.49 455.043V566.904Z" fill="url(#paint29_linear)"/>
<path opacity="0.8" d="M1861.21 315.221L1833.28 287.254L1861.21 259.292V315.221Z" fill="url(#paint30_linear)"/>
</g>
<path opacity="0.8" d="M1043.69 1930.23L1133.11 1840.7H1350.27L1260.85 1930.23H1043.69Z" fill="url(#paint31_linear)"/>
<path opacity="0.9" d="M1043.69 1898.07L1133.11 1808.55H1350.27L1260.85 1898.07H1043.69Z" fill="url(#paint32_linear)"/>
<path opacity="0.7" d="M1011.56 1712.72L1100.97 1623.2H1318.14L1228.71 1712.72H1011.56Z" fill="url(#paint33_linear)"/>
<path opacity="0.6" d="M1011.56 1562.46L1100.97 1472.94H1318.14L1228.71 1562.46H1011.56Z" fill="url(#paint34_linear)"/>
<path opacity="0.6" d="M1875.7 1693.63L1965.11 1604.11H2182.29L2092.85 1693.63H1875.7Z" fill="url(#paint35_linear)"/>
<path d="M1658.53 1468.22V1529.97L1609.2 1579.38V1517.63L1658.53 1468.22Z" fill="url(#paint36_linear)"/>
<path d="M1547.51 1468.23H1658.54L1609.2 1517.63H1498.16L1547.51 1468.23Z" fill="url(#paint37_linear)"/>
<path d="M1609.21 1517.63H1498.16V1579.38H1609.21V1517.63Z" fill="url(#paint38_linear)"/>
<path d="M1295.19 1240.44V1347.47L1209.66 1433.1V1326.06L1295.19 1240.44Z" fill="url(#paint39_linear)"/>
<path d="M1102.75 1240.44V1347.47L1017.22 1433.1V1326.06L1102.75 1240.44Z" fill="url(#paint40_linear)"/>
<path d="M1102.75 1240.44H1295.19L1209.66 1326.06H1017.22L1102.75 1240.44Z" fill="url(#paint41_linear)"/>
<path d="M1209.66 1326.06H1017.22V1433.1H1209.66V1326.06Z" fill="url(#paint42_linear)"/>
<path d="M1017.22 1326.06L1124.13 1283.24H1188.27L1209.66 1326.06H1017.22Z" fill="url(#paint43_linear)"/>
<path d="M1102.75 1240.44L1124.13 1283.24H1188.27L1295.19 1240.44H1102.75Z" fill="url(#paint44_linear)"/>
<path d="M1050.48 1337.96H1029.09V1359.37H1050.48V1337.96Z" fill="#F1892F"/>
<path d="M1079 1337.96H1057.61V1359.37H1079V1337.96Z" stroke="#F1892F" stroke-width="0.7456" stroke-miterlimit="10"/>
<g opacity="0.1">
<path opacity="0.1" d="M2177.05 1350.02H1954.93V1498.23H2177.05V1350.02Z" stroke="#E18032" stroke-width="0.2766" stroke-miterlimit="10"/>
<g opacity="0.1">
<path opacity="0.1" d="M1986.65 1474.4V1387.05L2002.54 1379.11H2034.26L2050.12 1387.05V1474.4H1986.65Z" fill="#1C7493"/>
<path opacity="0.1" d="M2002.53 1379.11C2002.53 1379.11 2002.53 1387.05 2018.4 1387.05C2034.26 1387.05 2034.26 1379.11 2034.26 1379.11L2050.12 1387.05V1474.4H1986.65V1387.05L2002.53 1379.11Z" fill="#1886B5"/>
<path opacity="0.1" d="M1986.65 1387.05L1962.85 1410.87L1978.72 1426.75L1986.65 1418.81V1387.05Z" fill="#1886B5"/>
<path opacity="0.1" d="M2050.12 1387.05L2073.92 1410.87L2058.05 1426.75L2050.12 1418.81V1387.05Z" fill="#1886B5"/>
</g>
<path opacity="0.1" d="M2161.16 1379.11H2089.78V1387.05H2161.16V1379.11Z" fill="#1886B5"/>
<path opacity="0.1" d="M2129.44 1442.64H2089.78V1458.52H2129.44V1442.64Z" fill="#66BAA1"/>
<g opacity="0.1">
<path opacity="0.1" d="M2089.78 1402.93H2129.44" stroke="white" stroke-width="0.2766" stroke-miterlimit="10"/>
<path opacity="0.1" d="M2137.38 1402.93H2153.26" stroke="white" stroke-width="0.2766" stroke-miterlimit="10"/>
<path opacity="0.1" d="M2089.78 1410.87H2105.65" stroke="white" stroke-width="0.2766" stroke-miterlimit="10"/>
<path opacity="0.1" d="M2113.59 1410.87H2145.32" stroke="white" stroke-width="0.2766" stroke-miterlimit="10"/>
<path opacity="0.1" d="M2089.78 1418.81H2121.51" stroke="white" stroke-width="0.2766" stroke-miterlimit="10"/>
<path opacity="0.1" d="M2129.44 1418.81H2145.3" stroke="white" stroke-width="0.2766" stroke-miterlimit="10"/>
<path opacity="0.1" d="M2089.78 1426.75H2137.37" stroke="white" stroke-width="0.2766" stroke-miterlimit="10"/>
</g>
</g>
<g opacity="0.3">
<path opacity="0.3" d="M2152.39 1374.71H1930.29V1522.94H2152.39V1374.71Z" stroke="#E18032" stroke-width="0.2766" stroke-miterlimit="10"/>
<g opacity="0.3">
<path opacity="0.3" d="M1962.04 1499.12V1411.75L1977.9 1403.81H2009.62L2025.51 1411.75V1499.12H1962.04Z" fill="#1C7493"/>
<path opacity="0.3" d="M1977.9 1403.81C1977.9 1403.81 1977.9 1411.75 1993.76 1411.75C2009.63 1411.75 2009.63 1403.81 2009.63 1403.81L2025.51 1411.75V1499.12H1962.04V1411.75L1977.9 1403.81Z" fill="#1886B5"/>
<path opacity="0.3" d="M1962.03 1411.75L1938.23 1435.57L1954.1 1451.45L1962.03 1443.51V1411.75Z" fill="#1886B5"/>
<path opacity="0.3" d="M2025.5 1411.75L2049.29 1435.57L2033.41 1451.45L2025.5 1443.51V1411.75Z" fill="#1886B5"/>
</g>
<path opacity="0.3" d="M2136.52 1403.81H2065.14V1411.75H2136.52V1403.81Z" fill="#1886B5"/>
<path opacity="0.3" d="M2104.8 1467.35H2065.14V1483.23H2104.8V1467.35Z" fill="#66BAA1"/>
<g opacity="0.3">
<path opacity="0.3" d="M2065.14 1427.63H2104.8" stroke="white" stroke-width="0.2766" stroke-miterlimit="10"/>
<path opacity="0.3" d="M2112.72 1427.63H2128.58" stroke="white" stroke-width="0.2766" stroke-miterlimit="10"/>
<path opacity="0.3" d="M2065.14 1435.57H2081" stroke="white" stroke-width="0.2766" stroke-miterlimit="10"/>
<path opacity="0.3" d="M2088.94 1435.57H2120.67" stroke="white" stroke-width="0.2766" stroke-miterlimit="10"/>
<path opacity="0.3" d="M2065.14 1443.51H2096.87" stroke="white" stroke-width="0.2766" stroke-miterlimit="10"/>
<path opacity="0.3" d="M2104.79 1443.51H2120.65" stroke="white" stroke-width="0.2766" stroke-miterlimit="10"/>
<path opacity="0.3" d="M2065.14 1451.45H2112.73" stroke="white" stroke-width="0.2766" stroke-miterlimit="10"/>
</g>
</g>
<g opacity="0.6">
<path opacity="0.6" d="M2127.74 1399.41H1905.64V1547.63H2127.74V1399.41Z" stroke="#E18032" stroke-width="0.2766" stroke-miterlimit="10"/>
<g opacity="0.6">
<path opacity="0.6" d="M1937.39 1523.81V1436.46L1953.25 1428.51H1984.98L2000.84 1436.46V1523.81H1937.39Z" fill="#1C7493"/>
<path opacity="0.6" d="M1953.24 1428.51C1953.24 1428.51 1953.24 1436.45 1969.11 1436.45C1984.97 1436.45 1984.97 1428.51 1984.97 1428.51L2000.84 1436.45V1523.81H1937.39V1436.45L1953.24 1428.51Z" fill="#1886B5"/>
<path opacity="0.6" d="M1937.38 1436.46L1913.59 1460.28L1929.45 1476.16L1937.38 1468.22V1436.46Z" fill="#1886B5"/>
<path opacity="0.6" d="M2000.84 1436.46L2024.63 1460.28L2008.77 1476.16L2000.84 1468.22V1436.46Z" fill="#1886B5"/>
</g>
<path opacity="0.6" d="M2111.87 1428.52H2040.47V1436.46H2111.87V1428.52Z" fill="#1886B5"/>
<path opacity="0.6" d="M2080.15 1492.04H2040.47V1507.93H2080.15V1492.04Z" fill="#66BAA1"/>
<g opacity="0.6">
<path opacity="0.6" d="M2040.48 1452.34H2080.15" stroke="white" stroke-width="0.2766" stroke-miterlimit="10"/>
<path opacity="0.6" d="M2088.09 1452.34H2103.95" stroke="white" stroke-width="0.2766" stroke-miterlimit="10"/>
<path opacity="0.6" d="M2040.48 1460.28H2056.36" stroke="white" stroke-width="0.2766" stroke-miterlimit="10"/>
<path opacity="0.6" d="M2064.29 1460.28H2096.01" stroke="white" stroke-width="0.2766" stroke-miterlimit="10"/>
<path opacity="0.6" d="M2040.48 1468.22H2072.2" stroke="white" stroke-width="0.2766" stroke-miterlimit="10"/>
<path opacity="0.6" d="M2080.16 1468.22H2096.02" stroke="white" stroke-width="0.2766" stroke-miterlimit="10"/>
<path opacity="0.6" d="M2040.48 1476.16H2088.08" stroke="white" stroke-width="0.2766" stroke-miterlimit="10"/>
</g>
</g>
<path d="M2103.04 1424.12H1880.95V1573.53H2103.04V1424.12Z" stroke="#E18032" stroke-width="0.2766" stroke-miterlimit="10"/>
<path d="M1912.68 1549.71V1462.34L1928.55 1454.4H1960.27L1976.15 1462.34V1549.71H1912.68Z" fill="#1C7493"/>
<path d="M1928.54 1454.4C1928.54 1454.4 1928.54 1462.34 1944.41 1462.34C1960.27 1462.34 1960.27 1454.4 1960.27 1454.4L1976.15 1462.34V1549.71H1912.68V1462.34L1928.54 1454.4Z" fill="#1886B5"/>
<path d="M1912.67 1462.34L1888.88 1486.16L1904.74 1502.06L1912.67 1494.1V1462.34Z" fill="#1886B5"/>
<path d="M1976.15 1462.34L1999.94 1486.16L1984.08 1502.06L1976.15 1494.1V1462.34Z" fill="#1886B5"/>
<path d="M2087.18 1454.4H2015.8V1462.34H2087.18V1454.4Z" fill="#1886B5"/>
<path d="M2055.45 1517.95H2015.8V1533.83H2055.45V1517.95Z" fill="#66BAA1"/>
<path d="M2015.8 1478.22H2055.46" stroke="white" stroke-width="0.2766" stroke-miterlimit="10"/>
<path d="M2063.39 1478.22H2079.26" stroke="white" stroke-width="0.2766" stroke-miterlimit="10"/>
<path d="M2015.8 1486.16H2031.67" stroke="white" stroke-width="0.2766" stroke-miterlimit="10"/>
<path d="M2039.61 1486.16H2071.33" stroke="white" stroke-width="0.2766" stroke-miterlimit="10"/>
<path d="M2015.8 1494.1H2047.53" stroke="white" stroke-width="0.2766" stroke-miterlimit="10"/>
<path d="M2055.45 1494.1H2071.31" stroke="white" stroke-width="0.2766" stroke-miterlimit="10"/>
<path d="M2015.8 1502.06H2063.39" stroke="white" stroke-width="0.2766" stroke-miterlimit="10"/>
<path opacity="0.8" d="M1961.41 1009.19H1923.51L1582.44 1349.58H1620.33L1961.41 1009.19Z" fill="url(#paint45_linear)"/>
<path opacity="0.6" d="M1891.19 1070.09H1878.33L1839.73 1108.67H1852.59L1891.19 1070.09Z" fill="url(#paint46_linear)"/>
<path opacity="0.6" d="M1865.92 1069.39H1857.5L1832.24 1094.64H1840.66L1865.92 1069.39Z" fill="url(#paint47_linear)"/>
<path d="M1954.35 1023.1H1966.99L1971.2 1018.89H1962.78L1954.35 1023.1Z" fill="url(#paint48_linear)"/>
<path d="M1966.99 1018.89H1975.41L1979.62 1014.68H1971.2L1966.99 1018.89Z" fill="url(#paint49_linear)"/>
<path d="M1899.62 1023.1L1903.83 1027.3H1912.25V1023.1H1899.62Z" fill="url(#paint50_linear)"/>
<path d="M1874.35 1014.68L1878.56 1018.89H1912.24V1014.68H1874.35Z" fill="url(#paint51_linear)"/>
<path d="M1924.89 1010.47L1920.68 1006.26H1861.73L1870.15 1014.68H1924.89V1010.47Z" fill="url(#paint52_linear)"/>
<path d="M1882.77 1048.35L1933.3 997.845H1941.73V1010.47L1908.04 1044.14H1903.83L1899.62 1048.35H1895.41L1891.2 1052.55H1886.99L1878.56 1060.97H1870.14L1882.77 1048.35Z" fill="url(#paint53_linear)"/>
<path d="M1941.72 997.845L1945.93 1002.05H1941.72V997.845Z" fill="url(#paint54_linear)"/>
<path d="M1933.29 1010.47L1937.5 1006.26H1992.24L1983.82 1014.68H1929.08L1933.29 1010.47Z" fill="url(#paint55_linear)"/>
<path d="M1878.55 1014.68L1882.76 1018.89H1912.24L1916.45 1014.68H1878.55Z" fill="url(#paint56_linear)"/>
<path d="M1882.77 1018.89L1886.98 1023.1H1899.61L1891.19 1018.89H1882.77Z" fill="url(#paint57_linear)"/>
<path d="M1929.09 1014.68L1924.88 1018.89H1971.2L1975.41 1014.68H1929.09Z" fill="url(#paint58_linear)"/>
<path d="M1924.88 1018.89L1920.67 1023.1H1962.78L1966.99 1018.89H1924.88Z" fill="url(#paint59_linear)"/>
<path d="M1924.88 1023.1L1920.67 1027.3H1933.3L1941.72 1023.1H1924.88Z" fill="url(#paint60_linear)"/>
<path d="M1886.98 1018.89L1891.19 1023.1H1908.03L1912.25 1018.89H1886.98Z" fill="url(#paint61_linear)"/>
<path d="M1903.83 1044.14L1916.46 1031.51H1920.67L1908.04 1044.14H1903.83Z" fill="url(#paint62_linear)"/>
<path d="M1895.4 1048.35L1908.03 1035.72H1912.24L1899.61 1048.35H1895.4Z" fill="url(#paint63_linear)"/>
<path d="M1886.98 1052.56L1899.61 1039.93H1903.82L1891.19 1052.56H1886.98Z" fill="url(#paint64_linear)"/>
<path d="M1874.35 1060.97L1891.19 1044.14H1895.4L1878.56 1060.97H1874.35Z" fill="url(#paint65_linear)"/>
<path d="M1920.67 1023.1L1916.46 1027.3H1929.1L1933.31 1023.1H1920.67Z" fill="url(#paint66_linear)"/>
<path d="M1865.92 1010.47H1899.61L1903.82 1014.68H1870.13L1865.92 1010.47Z" fill="url(#paint67_linear)"/>
<path d="M1945.94 1014.68L1950.15 1010.47H1988.05L1983.83 1014.68H1945.94Z" fill="url(#paint68_linear)"/>
<path d="M1954.35 1010.47L1958.56 1006.26H1996.46L1992.25 1010.47H1954.35Z" fill="url(#paint69_linear)"/>
<path opacity="0.6" d="M1870.14 1060.97L1802.77 1128.31H1806.98L1874.35 1060.97H1870.14Z" fill="url(#paint70_linear)"/>
<path opacity="0.3" d="M1819.61 1115.68L1752.24 1183.02H1756.45L1823.82 1115.68H1819.61Z" fill="url(#paint71_linear)"/>
<path opacity="0.8" d="M1903.83 1048.35L1870.14 1082.01H1874.35L1908.04 1048.35H1903.83Z" fill="url(#paint72_linear)"/>
<path opacity="0.8" d="M1865.92 1073.6L1832.24 1107.26H1836.45L1870.13 1073.6H1865.92Z" fill="url(#paint73_linear)"/>
<path opacity="0.8" d="M1764.87 1178.81L1731.19 1212.48H1735.4L1769.08 1178.81H1764.87Z" fill="url(#paint74_linear)"/>
<path opacity="0.6" d="M1844.87 1098.85H1840.66L1819.6 1119.89H1823.81L1844.87 1098.85Z" fill="url(#paint75_linear)"/>
<path opacity="0.6" d="M1802.77 1132.52H1798.55L1785.92 1145.14H1790.13L1802.77 1132.52Z" fill="url(#paint76_linear)"/>
<path opacity="0.6" d="M1840.66 1098.85H1836.45L1823.82 1111.47H1828.03L1840.66 1098.85Z" fill="url(#paint77_linear)"/>
<path opacity="0.6" d="M1891.19 1052.56H1886.98L1865.92 1073.6H1870.13L1891.19 1052.56Z" fill="url(#paint78_linear)"/>
<defs>
<linearGradient id="paint0_linear" x1="1639.39" y1="260.704" x2="1639.39" y2="986.119" gradientUnits="userSpaceOnUse">
<stop stop-color="#E535AB" stop-opacity="0"/>
<stop offset="1" stop-color="white"/>
</linearGradient>
<linearGradient id="paint1_linear" x1="1511.35" y1="1696.35" x2="1660.13" y2="814.745" gradientUnits="userSpaceOnUse">
<stop stop-color="#255487"/>
<stop offset="1" stop-color="#66BAA1"/>
</linearGradient>
<linearGradient id="paint2_linear" x1="1505.26" y1="1642.48" x2="1658.55" y2="1642.48" gradientUnits="userSpaceOnUse">
<stop stop-color="#B2190C"/>
<stop offset="1" stop-color="#E66D12"/>
</linearGradient>
<linearGradient id="paint3_linear" x1="1594.68" y1="908.335" x2="1594.68" y2="1024.51" gradientUnits="userSpaceOnUse">
<stop stop-color="#35CCC9"/>
<stop offset="1" stop-color="white"/>
</linearGradient>
<linearGradient id="paint4_linear" x1="1549.97" y1="350.225" x2="1549.97" y2="1075.64" gradientUnits="userSpaceOnUse">
<stop stop-color="#E535AB" stop-opacity="0"/>
<stop offset="1" stop-color="white"/>
</linearGradient>
<linearGradient id="paint5_linear" x1="1330.51" y1="1405.85" x2="1330.51" y2="846.546" gradientUnits="userSpaceOnUse">
<stop stop-color="#255487"/>
<stop offset="1" stop-color="#66BAA1"/>
</linearGradient>
<linearGradient id="paint6_linear" x1="1414.29" y1="1797.35" x2="1414.29" y2="1238.05" gradientUnits="userSpaceOnUse">
<stop stop-color="#255487"/>
<stop offset="1" stop-color="#66BAA1"/>
</linearGradient>
<linearGradient id="paint7_linear" x1="1889.14" y1="1629.55" x2="1889.14" y2="1070.27" gradientUnits="userSpaceOnUse">
<stop stop-color="#255487"/>
<stop offset="1" stop-color="#66BAA1"/>
</linearGradient>
<linearGradient id="paint8_linear" x1="1693.61" y1="958.403" x2="1693.61" y2="399.115" gradientUnits="userSpaceOnUse">
<stop stop-color="#255487"/>
<stop offset="1" stop-color="#66BAA1"/>
</linearGradient>
<linearGradient id="paint9_linear" x1="1470.16" y1="1266.03" x2="1470.16" y2="1010.58" gradientUnits="userSpaceOnUse">
<stop stop-color="#255487"/>
<stop offset="1" stop-color="#66BAA1"/>
</linearGradient>
<linearGradient id="paint10_linear" x1="1414.29" y1="538.948" x2="1414.29" y2="283.496" gradientUnits="userSpaceOnUse">
<stop stop-color="#255487"/>
<stop offset="1" stop-color="#66BAA1"/>
</linearGradient>
<linearGradient id="paint11_linear" x1="1386.37" y1="986.367" x2="1386.37" y2="762.655" gradientUnits="userSpaceOnUse">
<stop stop-color="#66BAA1"/>
<stop offset="1" stop-color="#1886B5"/>
</linearGradient>
<linearGradient id="paint12_linear" x1="1274.65" y1="1126.19" x2="1274.65" y2="566.904" gradientUnits="userSpaceOnUse">
<stop stop-color="#B2190C"/>
<stop offset="1" stop-color="#E66D12"/>
</linearGradient>
<linearGradient id="paint13_linear" x1="1428.28" y1="958.405" x2="1428.28" y2="-48.3177" gradientUnits="userSpaceOnUse">
<stop stop-color="#B2190C"/>
<stop offset="1" stop-color="#E66D12"/>
</linearGradient>
<linearGradient id="paint14_linear" x1="1344.48" y1="1573.63" x2="1344.48" y2="1349.91" gradientUnits="userSpaceOnUse">
<stop stop-color="#B2190C"/>
<stop offset="1" stop-color="#E66D12"/>
</linearGradient>
<linearGradient id="paint15_linear" x1="1260.69" y1="1545.67" x2="1260.69" y2="1321.95" gradientUnits="userSpaceOnUse">
<stop stop-color="#B2190C"/>
<stop offset="1" stop-color="#E66D12"/>
</linearGradient>
<linearGradient id="paint16_linear" x1="1679.65" y1="1517.71" x2="1679.65" y2="958.404" gradientUnits="userSpaceOnUse">
<stop stop-color="#B2190C"/>
<stop offset="1" stop-color="#E66D12"/>
</linearGradient>
<linearGradient id="paint17_linear" x1="1260.69" y1="902.475" x2="1260.69" y2="1126.19" gradientUnits="userSpaceOnUse">
<stop stop-color="#B2190C"/>
<stop offset="1" stop-color="#E66D12"/>
</linearGradient>
<linearGradient id="paint18_linear" x1="1274.65" y1="510.974" x2="1274.65" y2="399.115" gradientUnits="userSpaceOnUse">
<stop stop-color="#B2190C"/>
<stop offset="1" stop-color="#E66D12"/>
</linearGradient>
<linearGradient id="paint19_linear" x1="1777.42" y1="1405.85" x2="1777.42" y2="846.546" gradientUnits="userSpaceOnUse">
<stop stop-color="#255487"/>
<stop offset="1" stop-color="#66BAA1"/>
</linearGradient>
<linearGradient id="paint20_linear" x1="1805.35" y1="1545.67" x2="1805.35" y2="986.367" gradientUnits="userSpaceOnUse">
<stop stop-color="#255487"/>
<stop offset="1" stop-color="#66BAA1"/>
</linearGradient>
<linearGradient id="paint21_linear" x1="1777.42" y1="371.156" x2="1777.42" y2="115.703" gradientUnits="userSpaceOnUse">
<stop stop-color="#B2190C"/>
<stop offset="1" stop-color="#E66D12"/>
</linearGradient>
<linearGradient id="paint22_linear" x1="1861.2" y1="538.948" x2="1861.2" y2="283.496" gradientUnits="userSpaceOnUse">
<stop stop-color="#255487"/>
<stop offset="1" stop-color="#66BAA1"/>
</linearGradient>
<linearGradient id="paint23_linear" x1="1833.28" y1="1014.33" x2="1833.28" y2="790.612" gradientUnits="userSpaceOnUse">
<stop stop-color="#66BAA1"/>
<stop offset="1" stop-color="#1886B5"/>
</linearGradient>
<linearGradient id="paint24_linear" x1="1721.54" y1="1126.19" x2="1721.54" y2="566.904" gradientUnits="userSpaceOnUse">
<stop stop-color="#B2190C"/>
<stop offset="1" stop-color="#E66D12"/>
</linearGradient>
<linearGradient id="paint25_linear" x1="1875.17" y1="1573.63" x2="1875.17" y2="566.904" gradientUnits="userSpaceOnUse">
<stop stop-color="#255487"/>
<stop offset="1" stop-color="#66BAA1"/>
</linearGradient>
<linearGradient id="paint26_linear" x1="1847.24" y1="1154.17" x2="1847.24" y2="930.434" gradientUnits="userSpaceOnUse">
<stop stop-color="#B2190C"/>
<stop offset="1" stop-color="#E66D12"/>
</linearGradient>
<linearGradient id="paint27_linear" x1="1707.58" y1="1545.67" x2="1707.58" y2="1321.95" gradientUnits="userSpaceOnUse">
<stop stop-color="#B2190C"/>
<stop offset="1" stop-color="#E66D12"/>
</linearGradient>
<linearGradient id="paint28_linear" x1="1819.32" y1="-299.999" x2="1819.32" y2="259.292" gradientUnits="userSpaceOnUse">
<stop stop-color="#B2190C"/>
<stop offset="1" stop-color="#E66D12"/>
</linearGradient>
<linearGradient id="paint29_linear" x1="1777.42" y1="566.904" x2="1777.42" y2="455.042" gradientUnits="userSpaceOnUse">
<stop stop-color="#B2190C"/>
<stop offset="1" stop-color="#E66D12"/>
</linearGradient>
<linearGradient id="paint30_linear" x1="1847.24" y1="315.223" x2="1847.24" y2="259.293" gradientUnits="userSpaceOnUse">
<stop stop-color="#B2190C"/>
<stop offset="1" stop-color="#E66D12"/>
</linearGradient>
<linearGradient id="paint31_linear" x1="1043.69" y1="1885.47" x2="1350.27" y2="1885.47" gradientUnits="userSpaceOnUse">
<stop stop-color="#255487"/>
<stop offset="1" stop-color="#66BAA1"/>
</linearGradient>
<linearGradient id="paint32_linear" x1="1043.69" y1="1853.31" x2="1350.27" y2="1853.31" gradientUnits="userSpaceOnUse">
<stop stop-color="#B2190C"/>
<stop offset="1" stop-color="#E66D12"/>
</linearGradient>
<linearGradient id="paint33_linear" x1="1011.56" y1="1667.96" x2="1318.13" y2="1667.96" gradientUnits="userSpaceOnUse">
<stop stop-color="#255487"/>
<stop offset="1" stop-color="#66BAA1"/>
</linearGradient>
<linearGradient id="paint34_linear" x1="1011.56" y1="1517.7" x2="1318.13" y2="1517.7" gradientUnits="userSpaceOnUse">
<stop stop-color="#B2190C"/>
<stop offset="1" stop-color="#E66D12"/>
</linearGradient>
<linearGradient id="paint35_linear" x1="1875.7" y1="1648.87" x2="2182.29" y2="1648.87" gradientUnits="userSpaceOnUse">
<stop stop-color="#B2190C"/>
<stop offset="1" stop-color="#E66D12"/>
</linearGradient>
<linearGradient id="paint36_linear" x1="1609.2" y1="1523.8" x2="1658.53" y2="1523.8" gradientUnits="userSpaceOnUse">
<stop stop-color="#B2190C"/>
<stop offset="1" stop-color="#E66D12"/>
</linearGradient>
<linearGradient id="paint37_linear" x1="1498.16" y1="1492.93" x2="1658.53" y2="1492.93" gradientUnits="userSpaceOnUse">
<stop stop-color="#B2190C"/>
<stop offset="1" stop-color="#E66D12"/>
</linearGradient>
<linearGradient id="paint38_linear" x1="1498.16" y1="1548.5" x2="1609.2" y2="1548.5" gradientUnits="userSpaceOnUse">
<stop stop-color="#B2190C"/>
<stop offset="1" stop-color="#E66D12"/>
</linearGradient>
<linearGradient id="paint39_linear" x1="1209.66" y1="1336.77" x2="1295.19" y2="1336.77" gradientUnits="userSpaceOnUse">
<stop stop-color="#B2190C"/>
<stop offset="1" stop-color="#E66D12"/>
</linearGradient>
<linearGradient id="paint40_linear" x1="1017.22" y1="1336.77" x2="1102.75" y2="1336.77" gradientUnits="userSpaceOnUse">
<stop stop-color="#B2190C"/>
<stop offset="1" stop-color="#E66D12"/>
</linearGradient>
<linearGradient id="paint41_linear" x1="1017.22" y1="1283.25" x2="1295.19" y2="1283.25" gradientUnits="userSpaceOnUse">
<stop stop-color="#B2190C"/>
<stop offset="1" stop-color="#E66D12"/>
</linearGradient>
<linearGradient id="paint42_linear" x1="1017.22" y1="1379.58" x2="1209.66" y2="1379.58" gradientUnits="userSpaceOnUse">
<stop stop-color="#B2190C"/>
<stop offset="1" stop-color="#E66D12"/>
</linearGradient>
<linearGradient id="paint43_linear" x1="1089.82" y1="1346.42" x2="1196.84" y2="1254.38" gradientUnits="userSpaceOnUse">
<stop stop-color="#B2190C"/>
<stop offset="1" stop-color="#E66D12"/>
</linearGradient>
<linearGradient id="paint44_linear" x1="1102.75" y1="1261.84" x2="1295.19" y2="1261.84" gradientUnits="userSpaceOnUse">
<stop stop-color="#B2190C"/>
<stop offset="1" stop-color="#E66D12"/>
</linearGradient>
<linearGradient id="paint45_linear" x1="1582.44" y1="1179.38" x2="1961.41" y2="1179.38" gradientUnits="userSpaceOnUse">
<stop stop-color="#12BCB9" stop-opacity="0"/>
<stop offset="0.502762" stop-color="#12B9B7"/>
<stop offset="1" stop-color="#156C84"/>
</linearGradient>
<linearGradient id="paint46_linear" x1="1839.73" y1="1089.38" x2="1891.19" y2="1089.38" gradientUnits="userSpaceOnUse">
<stop stop-color="#12BCB9"/>
<stop offset="1" stop-color="#156C84"/>
</linearGradient>
<linearGradient id="paint47_linear" x1="1832.24" y1="1082.01" x2="1865.92" y2="1082.01" gradientUnits="userSpaceOnUse">
<stop stop-color="#12BCB9"/>
<stop offset="1" stop-color="#156C84"/>
</linearGradient>
<linearGradient id="paint48_linear" x1="1985.01" y1="1010.39" x2="1935.57" y2="1036.23" gradientUnits="userSpaceOnUse">
<stop stop-color="#12BCB9"/>
<stop offset="1" stop-color="#156C84"/>
</linearGradient>
<linearGradient id="paint49_linear" x1="1981.96" y1="1012.27" x2="1943.44" y2="1032.39" gradientUnits="userSpaceOnUse">
<stop stop-color="#12BCB9"/>
<stop offset="1" stop-color="#156C84"/>
</linearGradient>
<linearGradient id="paint50_linear" x1="1899.62" y1="1025.2" x2="1912.25" y2="1025.2" gradientUnits="userSpaceOnUse">
<stop stop-color="#FFE003"/>
<stop offset="1" stop-color="#FF680A"/>
</linearGradient>
<linearGradient id="paint51_linear" x1="1874.35" y1="1016.78" x2="1912.24" y2="1016.78" gradientUnits="userSpaceOnUse">
<stop stop-color="#12BCB9"/>
<stop offset="1" stop-color="#156C84"/>
</linearGradient>
<linearGradient id="paint52_linear" x1="1863.51" y1="1037.53" x2="1911.33" y2="994.051" gradientUnits="userSpaceOnUse">
<stop stop-color="#9B0D0D"/>
<stop offset="1" stop-color="#EA1B11"/>
</linearGradient>
<linearGradient id="paint53_linear" x1="1870.14" y1="1029.41" x2="1941.73" y2="1029.41" gradientUnits="userSpaceOnUse">
<stop stop-color="#FB5A0E"/>
<stop offset="1" stop-color="#EA1B11"/>
</linearGradient>
<linearGradient id="paint54_linear" x1="1941.72" y1="999.949" x2="1945.93" y2="999.949" gradientUnits="userSpaceOnUse">
<stop stop-color="#FB5A0E"/>
<stop offset="1" stop-color="#EA1B11"/>
</linearGradient>
<linearGradient id="paint55_linear" x1="1912.77" y1="1062.08" x2="1967.72" y2="1002.8" gradientUnits="userSpaceOnUse">
<stop stop-color="#9B0D0D"/>
<stop offset="1" stop-color="#EA1B11"/>
</linearGradient>
<linearGradient id="paint56_linear" x1="1878.55" y1="1016.78" x2="1916.45" y2="1016.78" gradientUnits="userSpaceOnUse">
<stop stop-color="#FB5A0E"/>
<stop offset="1" stop-color="#EA1B11"/>
</linearGradient>
<linearGradient id="paint57_linear" x1="1882.77" y1="1020.99" x2="1899.61" y2="1020.99" gradientUnits="userSpaceOnUse">
<stop stop-color="#12BCB9"/>
<stop offset="1" stop-color="#156C84"/>
</linearGradient>
<linearGradient id="paint58_linear" x1="1924.88" y1="1016.78" x2="1975.41" y2="1016.78" gradientUnits="userSpaceOnUse">
<stop stop-color="#FB5A0E"/>
<stop offset="1" stop-color="#EA1B11"/>
</linearGradient>
<linearGradient id="paint59_linear" x1="1920.67" y1="1020.99" x2="1966.99" y2="1020.99" gradientUnits="userSpaceOnUse">
<stop stop-color="#FB5A0E"/>
<stop offset="1" stop-color="#EA1B11"/>
</linearGradient>
<linearGradient id="paint60_linear" x1="1920.67" y1="1025.2" x2="1941.72" y2="1025.2" gradientUnits="userSpaceOnUse">
<stop stop-color="#FFE003"/>
<stop offset="1" stop-color="#FF680A"/>
</linearGradient>
<linearGradient id="paint61_linear" x1="1886.98" y1="1020.99" x2="1912.25" y2="1020.99" gradientUnits="userSpaceOnUse">
<stop stop-color="#FB5A0E"/>
<stop offset="1" stop-color="#EA1B11"/>
</linearGradient>
<linearGradient id="paint62_linear" x1="1892.05" y1="1059.59" x2="1915.23" y2="1034.59" gradientUnits="userSpaceOnUse">
<stop stop-color="#9B0D0D"/>
<stop offset="1" stop-color="#EA1B11"/>
</linearGradient>
<linearGradient id="paint63_linear" x1="1883.62" y1="1063.8" x2="1906.79" y2="1038.8" gradientUnits="userSpaceOnUse">
<stop stop-color="#9B0D0D"/>
<stop offset="1" stop-color="#EA1B11"/>
</linearGradient>
<linearGradient id="paint64_linear" x1="1875.21" y1="1068.01" x2="1898.38" y2="1043.01" gradientUnits="userSpaceOnUse">
<stop stop-color="#9B0D0D"/>
<stop offset="1" stop-color="#EA1B11"/>
</linearGradient>
<linearGradient id="paint65_linear" x1="1858.88" y1="1080.57" x2="1888.7" y2="1048.39" gradientUnits="userSpaceOnUse">
<stop stop-color="#9B0D0D"/>
<stop offset="1" stop-color="#EA1B11"/>
</linearGradient>
<linearGradient id="paint66_linear" x1="1916.46" y1="1025.2" x2="1933.31" y2="1025.2" gradientUnits="userSpaceOnUse">
<stop stop-color="#FB5A0E"/>
<stop offset="1" stop-color="#EA1B11"/>
</linearGradient>
<linearGradient id="paint67_linear" x1="1865.92" y1="1012.57" x2="1903.82" y2="1012.57" gradientUnits="userSpaceOnUse">
<stop stop-color="#9B0D0D"/>
<stop offset="1" stop-color="#EA1B11"/>
</linearGradient>
<linearGradient id="paint68_linear" x1="1945.94" y1="1012.57" x2="1988.05" y2="1012.57" gradientUnits="userSpaceOnUse">
<stop stop-color="#9B0D0D"/>
<stop offset="1" stop-color="#EA1B11"/>
</linearGradient>
<linearGradient id="paint69_linear" x1="1954.35" y1="1008.36" x2="1996.46" y2="1008.36" gradientUnits="userSpaceOnUse">
<stop stop-color="#9B0D0D"/>
<stop offset="1" stop-color="#EA1B11"/>
</linearGradient>
<linearGradient id="paint70_linear" x1="1802.77" y1="1094.64" x2="1874.35" y2="1094.64" gradientUnits="userSpaceOnUse">
<stop stop-color="#FB5A0E"/>
<stop offset="1" stop-color="#EA1B11"/>
</linearGradient>
<linearGradient id="paint71_linear" x1="1752.24" y1="1149.35" x2="1823.82" y2="1149.35" gradientUnits="userSpaceOnUse">
<stop stop-color="#FB5A0E"/>
<stop offset="1" stop-color="#EA1B11"/>
</linearGradient>
<linearGradient id="paint72_linear" x1="1870.14" y1="1065.18" x2="1908.04" y2="1065.18" gradientUnits="userSpaceOnUse">
<stop stop-color="#FB5A0E"/>
<stop offset="1" stop-color="#EA1B11"/>
</linearGradient>
<linearGradient id="paint73_linear" x1="1832.24" y1="1090.43" x2="1870.13" y2="1090.43" gradientUnits="userSpaceOnUse">
<stop stop-color="#FB5A0E"/>
<stop offset="1" stop-color="#EA1B11"/>
</linearGradient>
<linearGradient id="paint74_linear" x1="1731.19" y1="1195.64" x2="1769.08" y2="1195.64" gradientUnits="userSpaceOnUse">
<stop stop-color="#FB5A0E"/>
<stop offset="1" stop-color="#EA1B11"/>
</linearGradient>
<linearGradient id="paint75_linear" x1="1819.6" y1="1109.37" x2="1844.87" y2="1109.37" gradientUnits="userSpaceOnUse">
<stop stop-color="#12BCB9"/>
<stop offset="1" stop-color="#156C84"/>
</linearGradient>
<linearGradient id="paint76_linear" x1="1785.92" y1="1138.83" x2="1802.77" y2="1138.83" gradientUnits="userSpaceOnUse">
<stop stop-color="#12BCB9"/>
<stop offset="1" stop-color="#156C84"/>
</linearGradient>
<linearGradient id="paint77_linear" x1="1823.82" y1="1105.16" x2="1840.66" y2="1105.16" gradientUnits="userSpaceOnUse">
<stop stop-color="#12BCB9"/>
<stop offset="1" stop-color="#156C84"/>
</linearGradient>
<linearGradient id="paint78_linear" x1="1865.92" y1="1063.08" x2="1891.19" y2="1063.08" gradientUnits="userSpaceOnUse">
<stop stop-color="#12BCB9"/>
<stop offset="1" stop-color="#156C84"/>
</linearGradient>
</defs>
</svg>
