<svg width="2722" height="2222" xmlns="http://www.w3.org/2000/svg" fill="none"><path opacity=".5" d="M1747.96 144.242h-217.15v904.148h217.15V144.242z" fill="url(#a)"/><path d="M1837.37 1616.91l89.42-89.54h217.14l-89.41 89.54h-217.15zm-35.52-240.93l-52.91 52.94v277.33l52.91-52.97v-277.3zm0 277.3h105.77l-52.89 52.97h-105.79l52.91-52.97zm0-277.3h105.77l-52.89 52.94h-105.79l52.91-52.94zm52.88 52.94h-105.79v277.33h105.79v-277.33zm52.88-52.95l-52.88 52.95v277.33l52.88-52.97v-277.31zm185.24 419.98l89.42-89.52h217.17l-89.42 89.52h-217.17zM1696.87 1975l89.41-89.53h217.16l-89.42 89.53h-217.15zm-434.32 0l89.42-89.53h217.15L1479.7 1975h-217.15zm-306.583 89.52l89.423-89.52h217.15l-89.41 89.52H955.967zm-76.63-358.09l89.414-89.52H1185.9l-89.41 89.52H879.337zm0 0l89.414-89.52H1185.9l-89.41 89.52H879.337zm0 0l89.414-89.52H1185.9l-89.41 89.52H879.337zm-.002-38.39v38.39l-89.423 89.52v-38.36l89.423-89.55zm-89.423 127.91l89.423-89.52h217.155l-89.42 89.52H789.912z" stroke="#00B09E" stroke-width=".634" stroke-miterlimit="10" stroke-linecap="round" stroke-linejoin="round"/><path d="M789.912 1757.59l89.423-89.55h217.155l-89.42 89.55H789.912z" stroke="#88D8BE" stroke-width=".634" stroke-miterlimit="10" stroke-linecap="round" stroke-linejoin="round"/><path d="M1007.07 1757.59H789.912v38.36h217.158v-38.36zm89.43-89.55v38.39l-89.42 89.52v-38.36l89.42-89.55zm958.02-89.52v38.39l-89.42 89.52v-38.39l89.42-89.52zm-89.42 127.91l89.42-89.52h217.15l-89.41 89.52H1965.1zm0-38.39l89.42-89.52h217.15l-89.41 89.52H1965.1zm217.15.01H1965.1v38.38h217.15v-38.38zm89.42-89.53v38.39l-89.41 89.52v-38.39l89.41-89.52zm-1175.17 63.96v63.95l-89.42 89.52V1732l89.42-89.52zm-89.42 153.47l89.42-89.52h217.16l-89.43 89.52h-217.15zm0-63.95l89.42-89.52h217.16l-89.43 89.52h-217.15zm217.15 0h-217.15v63.95h217.15V1732zm89.43-89.52v63.95l-89.42 89.52V1732l89.42-89.52zm0-304.88v368.83l-89.42 89.52v-368.82l89.42-89.53zm-89.42 458.35l89.42-89.52h217.16l-89.43 89.52h-217.15zm0-368.82l89.42-89.53h217.16l-89.43 89.53h-217.15zm217.15 0h-217.15v368.82h217.15v-368.82zm89.44-89.53v368.83l-89.44 89.52v-368.82l89.44-89.53zm-.01-289.21v658.04l-89.43 89.52v-658.04l89.43-89.52zm-89.43 747.56l89.43-89.52h217.15l-89.41 89.52h-217.17z" stroke="#00B09E" stroke-width=".634" stroke-miterlimit="10" stroke-linecap="round" stroke-linejoin="round"/><path d="M1441.39 1137.91l89.43-89.52h217.15l-89.41 89.52h-217.17z" fill="#fff" stroke="#00B09E" stroke-width=".634" stroke-miterlimit="10" stroke-linecap="round" stroke-linejoin="round"/><path d="M1658.56 1137.91h-217.17v658.04h217.17v-658.04z" fill="url(#b)" stroke="#88D8BE" stroke-width="1.043" stroke-miterlimit="10"/><path d="M1747.98 1048.39v658.04l-89.42 89.52v-658.04l89.42-89.52zm-.02 402.24v255.8l-89.42 89.52v-255.8l89.42-89.52zm-89.42 345.32l89.42-89.52h217.15l-89.41 89.52h-217.16zm0-255.8l89.42-89.52h217.15l-89.41 89.52h-217.16zm217.15 0h-217.15v255.8h217.15v-255.8zm89.42-89.52v255.8l-89.41 89.52v-255.8l89.41-89.52zm0 153.48v102.32l-89.41 89.52v-102.32l89.41-89.52zm-89.41 191.84l89.41-89.52h217.16l-89.42 89.52H1875.7zm0-102.32l89.41-89.52h217.15l-89.41 89.52H1875.7zm217.15 0H1875.7v102.32h217.15v-102.32zm89.42-89.52v102.32l-89.42 89.52v-102.32l89.42-89.52zm-958.84-121.51l-52.9 52.97v317.75l52.9-52.97V1482.6zm0 317.75h105.79l-52.9 52.97h-105.79l52.9-52.97zm0-317.75h105.78l-52.89 52.97h-105.79l52.9-52.97zm52.89 52.97h-105.79v317.75h105.79v-317.75zm52.9-52.97l-52.9 52.97v317.75l52.9-52.97V1482.6zm-.01 241.2l-52.9 52.97v76.55l52.9-52.97v-76.55zm0 76.55H1435l-52.89 52.97h-105.8l52.9-52.97zm0-76.55H1435l-52.89 52.97h-105.8l52.9-52.97zm52.9 52.97h-105.8v76.55h105.8v-76.55zm52.89-52.97l-52.9 52.97v76.55l52.9-52.97v-76.55zm121.35-106.89l-51.09 51.13v179.07l51.09-51.16v-179.04zm0 179.04h102.2l-51.11 51.16h-102.18l51.09-51.16z" stroke="#00B09E" stroke-width=".634" stroke-miterlimit="10" stroke-linecap="round" stroke-linejoin="round"/><path opacity=".9" d="M1556.35 1616.91h102.2l-51.11 51.13h-102.18l51.09-51.13z" fill="url(#c)" stroke="#88D8BE" stroke-width="1.043" stroke-miterlimit="10" stroke-linecap="round" stroke-linejoin="round"/><path d="M1607.44 1668.04h-102.18v179.07h102.18v-179.07zm51.12-51.13l-51.11 51.13v179.07l51.11-51.16v-179.04zm0 140.68v38.36l-89.43 89.52v-38.36l89.43-89.52zm-89.43 127.88l89.43-89.52h217.16l-89.42 89.52h-217.17zm0-38.36l89.43-89.52h217.16l-89.42 89.52h-217.17zm217.17 0h-217.17v38.36h217.17v-38.36zm89.41-89.52v38.36l-89.42 89.52v-38.36l89.42-89.52zm-740.89 89.52v38.36L1045.4 1975v-38.37l89.42-89.52zM1045.4 1975l89.42-89.53h217.15l-89.42 89.53H1045.4zm0-38.37l89.42-89.52h217.15l-89.42 89.52H1045.4zm217.15 0H1045.4V1975h217.15v-38.37zm89.42-89.52v38.36l-89.42 89.53v-38.37l89.42-89.52z" stroke="#00B09E" stroke-width=".634" stroke-miterlimit="10" stroke-linecap="round" stroke-linejoin="round"/><path d="M1696.1 944.073a22.561 22.561 0 0 0-5.97-2.364v-60.312a22.14 22.14 0 0 0 6.02-2.383c10.82-6.281 14.49-20.085 8.29-30.902-6.27-10.827-20.05-14.518-30.87-8.294a22.135 22.135 0 0 0-5.12 4.064l-52.13-30.14c.62-2.042.95-4.211.95-6.457 0-12.505-10.1-22.608-22.59-22.608s-22.59 10.103-22.59 22.608c0 2.236.33 4.386.95 6.428l-52.15 30.15a22.851 22.851 0 0 0-5.1-4.045c-10.82-6.224-24.66-2.533-30.87 8.294-6.21 10.817-2.52 24.685 8.28 30.902a22.201 22.201 0 0 0 6.03 2.383v60.309a22.97 22.97 0 0 0-5.97 2.364c-10.8 6.291-14.49 20.094-8.28 30.918 6.22 10.818 19.99 14.509 30.87 8.294a23.161 23.161 0 0 0 5.04-4.006l52.13 30.134c-.6 2.04-.93 4.17-.93 6.4 0 12.5 10.1 22.61 22.59 22.61s22.59-10.18 22.59-22.61c0-2.51-.43-4.88-1.15-7.12l51.82-29.973a22.444 22.444 0 0 0 5.58 4.565c10.8 6.215 24.66 2.524 30.87-8.294 6.25-10.821 2.58-24.624-8.29-30.915zm-169.61 14.26c-.5-2.042-1.26-4.045-2.37-5.966a22.133 22.133 0 0 0-3.96-5.027l68.23-118.337c2 .574 4.09.9 6.28.9 2.19 0 4.31-.326 6.31-.909l68.23 118.307a22.216 22.216 0 0 0-3.99 5.066 23.13 23.13 0 0 0-2.37 5.966h-136.36zm136.66-105.098c-1.62 5.679-1.04 11.966 2.13 17.485 3.18 5.538 8.36 9.194 14.12 10.633v60.382c-.3.067-.6.15-.87.223l-68.25-118.336.61-.594 52.26 30.207zm-84.06-29.604l-68.25 118.346-.89-.242v-60.382c5.76-1.439 10.93-5.092 14.12-10.633 3.17-5.528 3.74-11.829 2.13-17.514l52.24-30.203c.2.21.43.424.65.628zm32.26 176.949c-4.13-4.528-10.04-7.383-16.68-7.383a22.44 22.44 0 0 0-16.25 6.923l-52.18-30.163c.07-.287.16-.574.22-.87h136.41c.13.5.28.985.43 1.477l-51.95 30.016z" fill="url(#d)"/><path opacity=".5" d="M1658.55 233.762h-217.17v904.148h217.17V233.762z" fill="url(#e)"/><path d="M1045.41 1975H813.601l-35.126 35.16H500.668m1502.772-124.69h377.82l34.73-34.77H2780m-1990.079-54.75H552.142l-33.679 33.74H2M1479.71 1975l-116.31 116.46h-25.9L1209.12 2220m487.76-245l-131.29 131.45" stroke="#00B09E" stroke-width=".634" stroke-miterlimit="10" stroke-linecap="round" stroke-linejoin="round"/><g opacity=".8"><path opacity=".8" d="M1302.58 1405.84l55.86-55.93V846.545l-55.86 55.929v503.366z" fill="url(#f)"/><path opacity=".8" d="M1358.43 1517.7l55.88-55.93V958.405l-55.88 55.915v503.38z" fill="#66BAA1"/><path opacity=".8" d="M1386.36 1797.35l55.87-55.94v-503.37l-55.87 55.94v503.37z" fill="url(#g)"/><path opacity=".8" d="M1861.21 1629.55l55.87-55.92v-503.36l-55.87 55.92v503.36z" fill="url(#h)"/><path opacity=".8" d="M1665.68 958.404l55.87-55.932V399.114l-55.87 55.929v503.361z" fill="url(#i)"/><path opacity=".8" d="M1442.24 1629.55l55.85-55.92v-503.36l-55.85 55.92v503.36z" fill="url(#j)"/><path opacity=".8" d="M1386.36 902.473l55.87-55.928V343.183l-55.87 55.932v503.358z" fill="url(#k)"/><path opacity=".8" d="M1358.43 986.366l55.88-55.932v-167.78l-55.88 55.932v167.78z" fill="url(#l)"/><path opacity=".8" d="M1246.72 1126.19l55.86-55.92V566.905l-55.86 55.928v503.357z" fill="url(#m)"/><path opacity=".8" d="M1414.33 958.406l27.92-27.97V-48.317l-27.92 27.961v978.761z" fill="url(#n)"/><path opacity=".8" d="M1358.44 1573.63l-27.92-27.96v-167.81l27.92-27.95v223.72z" fill="url(#o)"/><path opacity=".8" d="M1274.66 1545.67l-27.94-27.97v-167.79l27.94-27.97v223.73z" fill="url(#p)"/><path opacity=".8" d="M1693.62 1517.7l-27.94-27.97V986.366l27.94-27.961V1517.7z" fill="url(#q)"/><path opacity=".8" d="M1246.72 902.474l27.94 27.961v167.785l-27.94 27.97V902.474z" fill="url(#r)"/><path opacity=".8" d="M1246.72 510.971l55.86-55.928-55.86-55.929v111.857z" fill="url(#s)"/><path opacity=".8" d="M1749.49 1405.84l55.87-55.93V846.545l-55.87 55.929v503.366z" fill="url(#t)"/><path opacity=".8" d="M1777.42 902.473l55.87-55.928V343.183l-55.87 55.932v503.358z" fill="#66BAA1"/><path opacity=".8" d="M1777.42 1545.67l55.87-55.94V986.366l-55.87 55.934v503.37z" fill="url(#u)"/><path opacity=".8" d="M1749.49 734.684l55.87-55.92V175.393l-55.87 55.929v503.362z" fill="url(#v)"/><path opacity=".8" d="M1833.28 902.473l55.85-55.928V343.183l-55.85 55.932v503.358z" fill="url(#w)"/><path opacity=".8" d="M1805.35 1014.32l55.86-55.915V790.612l-55.86 55.932v167.776z" fill="url(#x)"/><path opacity=".8" d="M1693.62 1126.19l55.85-55.92V566.905l-55.85 55.928v503.357z" fill="url(#y)"/><path opacity=".8" d="M1861.21 1573.63l27.92-27.96V566.905l-27.92 27.961v978.764z" fill="url(#z)"/><path opacity=".8" d="M1861.21 1154.16l-27.93-27.98V958.405l27.93-27.971v223.726z" fill="url(#A)"/><path opacity=".8" d="M1721.55 1545.67l-27.93-27.97v-167.79l27.93-27.97v223.73z" fill="url(#B)"/><path opacity=".8" d="M1805.35-300l27.93 27.961v503.362l-27.93 27.97V-300z" fill="url(#C)"/><path opacity=".8" d="M1749.49 566.904l55.87-55.932-55.87-55.929v111.861z" fill="url(#D)"/><path opacity=".8" d="M1861.21 315.221l-27.93-27.967 27.93-27.962v55.929z" fill="url(#E)"/></g><path opacity=".8" d="M1043.69 1930.23l89.42-89.53h217.16l-89.42 89.53h-217.16z" fill="url(#F)"/><path opacity=".9" d="M1043.69 1898.07l89.42-89.52h217.16l-89.42 89.52h-217.16z" fill="url(#G)"/><path opacity=".7" d="M1011.56 1712.72l89.41-89.52h217.16l-89.42 89.52h-217.15z" fill="url(#H)"/><path opacity=".6" d="M1011.56 1562.46l89.41-89.52h217.16l-89.42 89.52h-217.15z" fill="url(#I)"/><path opacity=".6" d="M1875.7 1693.63l89.41-89.52h217.18l-89.44 89.52H1875.7z" fill="url(#J)"/><path d="M1658.53 1468.22v61.75l-49.33 49.41v-61.75l49.33-49.41z" fill="url(#K)"/><path d="M1547.51 1468.23h111.03l-49.34 49.4h-111.04l49.35-49.4z" fill="url(#L)"/><path d="M1609.21 1517.63h-111.05v61.75h111.05v-61.75z" fill="url(#M)"/><path d="M1295.19 1240.44v107.03l-85.52 85.63v-107.04l85.52-85.62z" fill="url(#N)"/><path d="M1102.75 1240.44v107.03l-85.53 85.63v-107.04l85.53-85.62z" fill="url(#O)"/><path d="M1102.75 1240.44h192.44l-85.53 85.62h-192.44l85.53-85.62z" fill="url(#P)"/><path d="M1209.66 1326.06h-192.44v107.04h192.44v-107.04z" fill="url(#Q)"/><path d="M1017.22 1326.06l106.91-42.82h64.14l21.39 42.82h-192.44z" fill="url(#R)"/><path d="M1102.75 1240.44l21.38 42.8h64.14l106.92-42.8h-192.44z" fill="url(#S)"/><path d="M1050.48 1337.96h-21.39v21.41h21.39v-21.41z" fill="#F1892F"/><path d="M1079 1337.96h-21.39v21.41H1079v-21.41z" stroke="#F1892F" stroke-width=".746" stroke-miterlimit="10"/><g opacity=".1"><path opacity=".1" d="M2177.04 1350.02h-222.11v148.21h222.11v-148.21z" stroke="#E18032" stroke-width=".277" stroke-miterlimit="10"/><g opacity=".1"><path opacity=".1" d="M1986.65 1474.4v-87.35l15.89-7.94h31.72l15.86 7.94v87.35h-63.47z" fill="#1C7493"/><path opacity=".1" d="M2002.53 1379.11s0 7.94 15.87 7.94c15.86 0 15.86-7.94 15.86-7.94l15.86 7.94v87.35h-63.47v-87.35l15.88-7.94zm-15.88 7.94l-23.8 23.82 15.87 15.88 7.93-7.94v-31.76zm63.47 0l23.79 23.82-15.86 15.88-7.93-7.94v-31.76z" fill="#1886B5"/></g><path opacity=".1" d="M2161.16 1379.11h-71.38v7.94h71.38v-7.94z" fill="#1886B5"/><path opacity=".1" d="M2129.43 1442.64h-39.65v15.88h39.65v-15.88z" fill="#66BAA1"/><path opacity=".1" d="M2089.78 1402.93h39.66m7.94 0h15.88m-63.48 7.94h15.87m7.94 0h31.73m-55.54 7.94h31.73m7.93 0h15.86m-55.52 7.94h47.59" stroke="#fff" stroke-width=".277" stroke-miterlimit="10"/></g><g opacity=".3"><path opacity=".3" d="M2152.39 1374.71h-222.1v148.23h222.1v-148.23z" stroke="#E18032" stroke-width=".277" stroke-miterlimit="10"/><g opacity=".3"><path opacity=".3" d="M1962.03 1499.12v-87.37l15.87-7.94h31.72l15.89 7.94v87.37h-63.48z" fill="#1C7493"/><path opacity=".3" d="M1977.9 1403.81s0 7.94 15.86 7.94c15.87 0 15.87-7.94 15.87-7.94l15.88 7.94v87.37h-63.48v-87.37l15.87-7.94zm-15.87 7.94l-23.8 23.82 15.87 15.88 7.93-7.94v-31.76zm63.47 0l23.79 23.82-15.88 15.88-7.91-7.94v-31.76z" fill="#1886B5"/></g><path opacity=".3" d="M2136.52 1403.81h-71.38v7.94h71.38v-7.94z" fill="#1886B5"/><path opacity=".3" d="M2104.8 1467.35h-39.66v15.88h39.66v-15.88z" fill="#66BAA1"/><path opacity=".3" d="M2065.14 1427.63h39.66m7.92 0h15.86m-63.44 7.94H2081m7.94 0h31.73m-55.53 7.94h31.73m7.92 0h15.86m-55.51 7.94h47.59" stroke="#fff" stroke-width=".277" stroke-miterlimit="10"/></g><g opacity=".6"><path opacity=".6" d="M2127.74 1399.41h-222.1v148.22h222.1v-148.22z" stroke="#E18032" stroke-width=".277" stroke-miterlimit="10"/><g opacity=".6"><path opacity=".6" d="M1937.39 1523.81v-87.35l15.86-7.95h31.73l15.86 7.95v87.35h-63.45z" fill="#1C7493"/><path opacity=".6" d="M1953.24 1428.51s0 7.94 15.87 7.94c15.86 0 15.86-7.94 15.86-7.94l15.87 7.94v87.36h-63.45v-87.36l15.85-7.94zm-15.86 7.95l-23.79 23.82 15.86 15.88 7.93-7.94v-31.76zm63.46 0l23.79 23.82-15.86 15.88-7.93-7.94v-31.76z" fill="#1886B5"/></g><path opacity=".6" d="M2111.87 1428.52h-71.4v7.94h71.4v-7.94z" fill="#1886B5"/><path opacity=".6" d="M2080.15 1492.04h-39.68v15.89h39.68v-15.89z" fill="#66BAA1"/><path opacity=".6" d="M2040.48 1452.34h39.67m7.94 0h15.86m-63.47 7.94h15.88m7.92 0h31.73m-55.53 7.94h31.72m7.96 0h15.86m-55.54 7.94h47.6" stroke="#fff" stroke-width=".277" stroke-miterlimit="10"/></g><path d="M2103.04 1424.12h-222.09v149.41h222.09v-149.41z" stroke="#E18032" stroke-width=".277" stroke-miterlimit="10"/><path d="M1912.68 1549.71v-87.37l15.87-7.94h31.72l15.88 7.94v87.37h-63.47z" fill="#1C7493"/><path d="M1928.54 1454.4s0 7.94 15.87 7.94c15.86 0 15.86-7.94 15.86-7.94l15.88 7.94v87.37h-63.47v-87.37l15.86-7.94zm-15.87 7.94l-23.79 23.82 15.86 15.9 7.93-7.96v-31.76zm63.48 0l23.79 23.82-15.86 15.9-7.93-7.96v-31.76zm111.03-7.94h-71.38v7.94h71.38v-7.94z" fill="#1886B5"/><path d="M2055.45 1517.95h-39.65v15.88h39.65v-15.88z" fill="#66BAA1"/><path d="M2015.81 1478.22h39.65m7.93 0h15.87m-63.45 7.94h15.86m7.94 0h31.72m-55.52 7.94h31.72m7.92 0h15.87m-55.51 7.96h47.58" stroke="#fff" stroke-width=".277" stroke-miterlimit="10"/><path opacity=".8" d="M1961.41 1009.19h-37.9l-341.07 340.39h37.89l341.08-340.39z" fill="url(#T)"/><path opacity=".6" d="M1891.19 1070.09h-12.86l-38.6 38.58h12.86l38.6-38.58z" fill="url(#U)"/><path opacity=".6" d="M1865.92 1069.39h-8.42l-25.26 25.25h8.42l25.26-25.25z" fill="url(#V)"/><path d="M1954.35 1023.1h12.64l4.21-4.21h-8.42l-8.43 4.21z" fill="url(#W)"/><path d="M1966.99 1018.89h8.42l4.21-4.21h-8.42l-4.21 4.21z" fill="url(#X)"/><path d="M1899.62 1023.1l4.21 4.2h8.42v-4.2h-12.63z" fill="url(#Y)"/><path d="M1874.35 1014.68l4.21 4.21h33.68v-4.21h-37.89z" fill="url(#Z)"/><path d="M1924.89 1010.47l-4.21-4.21h-58.95l8.42 8.42h54.74v-4.21z" fill="url(#aa)"/><path d="M1882.78 1048.35l50.52-50.505h8.43v12.625l-33.69 33.67h-4.21l-4.21 4.21h-4.21l-4.21 4.21h-4.21l-8.43 8.41h-8.42l12.64-12.62z" fill="url(#ab)"/><path d="M1941.72 997.845l4.21 4.205h-4.21v-4.205z" fill="url(#ac)"/><path d="M1933.29 1010.47l4.21-4.21h54.74l-8.42 8.42h-54.74l4.21-4.21z" fill="url(#ad)"/><path d="M1878.55 1014.68l4.21 4.21h29.48l4.21-4.21h-37.9z" fill="url(#ae)"/><path d="M1882.77 1018.89l4.21 4.21h12.63l-8.42-4.21h-8.42z" fill="url(#af)"/><path d="M1929.09 1014.68l-4.21 4.21h46.32l4.21-4.21h-46.32z" fill="url(#ag)"/><path d="M1924.88 1018.89l-4.21 4.21h42.11l4.21-4.21h-42.11z" fill="url(#ah)"/><path d="M1924.88 1023.1l-4.21 4.2h12.63l8.42-4.2h-16.84z" fill="url(#ai)"/><path d="M1886.98 1018.89l4.21 4.21h16.85l4.21-4.21h-25.27z" fill="url(#aj)"/><path d="M1903.83 1044.14l12.63-12.63h4.21l-12.63 12.63h-4.21z" fill="url(#ak)"/><path d="M1895.4 1048.35l12.63-12.63h4.21l-12.63 12.63h-4.21z" fill="url(#al)"/><path d="M1886.98 1052.56l12.63-12.63h4.21l-12.63 12.63h-4.21z" fill="url(#am)"/><path d="M1874.35 1060.97l16.84-16.83h4.21l-16.84 16.83h-4.21z" fill="url(#an)"/><path d="M1920.68 1023.1l-4.22 4.2h12.64l4.21-4.2h-12.63z" fill="url(#ao)"/><path d="M1865.92 1010.47h33.69l4.21 4.21h-33.69l-4.21-4.21z" fill="url(#ap)"/><path d="M1945.94 1014.68l4.21-4.21h37.9l-4.21 4.21h-37.9z" fill="url(#aq)"/><path d="M1954.35 1010.47l4.21-4.21h37.9l-4.21 4.21h-37.9z" fill="url(#ar)"/><path opacity=".6" d="M1870.14 1060.97l-67.37 67.34h4.21l67.37-67.34h-4.21z" fill="url(#as)"/><path opacity=".3" d="M1819.61 1115.68l-67.37 67.34h4.21l67.37-67.34h-4.21z" fill="url(#at)"/><path opacity=".8" d="M1903.83 1048.35l-33.69 33.66h4.21l33.69-33.66h-4.21z" fill="url(#au)"/><path opacity=".8" d="M1865.92 1073.6l-33.68 33.67h4.21l33.68-33.67h-4.21z" fill="url(#av)"/><path opacity=".8" d="M1764.87 1178.81l-33.68 33.67h4.21l33.68-33.67h-4.21z" fill="url(#aw)"/><path opacity=".6" d="M1844.87 1098.85h-4.21l-21.06 21.04h4.21l21.06-21.04z" fill="url(#ax)"/><path opacity=".6" d="M1802.77 1132.52h-4.21l-12.64 12.62h4.21l12.64-12.62z" fill="url(#ay)"/><path opacity=".6" d="M1840.66 1098.85h-4.21l-12.63 12.62h4.21l12.63-12.62z" fill="url(#az)"/><path opacity=".6" d="M1891.19 1052.56h-4.21l-21.06 21.04h4.21l21.06-21.04z" fill="url(#aA)"/><defs><linearGradient id="a" x1="1639.39" y1="260.704" x2="1639.39" y2="986.119" gradientUnits="userSpaceOnUse"><stop stop-color="#E535AB" stop-opacity="0"/><stop offset="1" stop-color="#fff"/></linearGradient><linearGradient id="b" x1="1511.35" y1="1696.35" x2="1660.13" y2="814.745" gradientUnits="userSpaceOnUse"><stop stop-color="#255487"/><stop offset="1" stop-color="#66BAA1"/></linearGradient><linearGradient id="c" x1="1505.26" y1="1642.48" x2="1658.55" y2="1642.48" gradientUnits="userSpaceOnUse"><stop stop-color="#B2190C"/><stop offset="1" stop-color="#E66D12"/></linearGradient><linearGradient id="d" x1="1594.68" y1="908.335" x2="1594.68" y2="1024.51" gradientUnits="userSpaceOnUse"><stop stop-color="#E535AB"/><stop offset="1" stop-color="#fff"/></linearGradient><linearGradient id="e" x1="1549.97" y1="350.225" x2="1549.97" y2="1075.64" gradientUnits="userSpaceOnUse"><stop stop-color="#E535AB" stop-opacity="0"/><stop offset="1" stop-color="#fff"/></linearGradient><linearGradient id="f" x1="1330.51" y1="1405.85" x2="1330.51" y2="846.546" gradientUnits="userSpaceOnUse"><stop stop-color="#255487"/><stop offset="1" stop-color="#66BAA1"/></linearGradient><linearGradient id="g" x1="1414.29" y1="1797.35" x2="1414.29" y2="1238.05" gradientUnits="userSpaceOnUse"><stop stop-color="#255487"/><stop offset="1" stop-color="#66BAA1"/></linearGradient><linearGradient id="h" x1="1889.14" y1="1629.55" x2="1889.14" y2="1070.27" gradientUnits="userSpaceOnUse"><stop stop-color="#255487"/><stop offset="1" stop-color="#66BAA1"/></linearGradient><linearGradient id="i" x1="1693.61" y1="958.403" x2="1693.61" y2="399.115" gradientUnits="userSpaceOnUse"><stop stop-color="#255487"/><stop offset="1" stop-color="#66BAA1"/></linearGradient><linearGradient id="j" x1="1470.16" y1="1266.03" x2="1470.16" y2="1010.58" gradientUnits="userSpaceOnUse"><stop stop-color="#255487"/><stop offset="1" stop-color="#66BAA1"/></linearGradient><linearGradient id="k" x1="1414.29" y1="538.948" x2="1414.29" y2="283.496" gradientUnits="userSpaceOnUse"><stop stop-color="#255487"/><stop offset="1" stop-color="#66BAA1"/></linearGradient><linearGradient id="l" x1="1386.37" y1="986.367" x2="1386.37" y2="762.655" gradientUnits="userSpaceOnUse"><stop stop-color="#66BAA1"/><stop offset="1" stop-color="#1886B5"/></linearGradient><linearGradient id="m" x1="1274.65" y1="1126.19" x2="1274.65" y2="566.905" gradientUnits="userSpaceOnUse"><stop stop-color="#B2190C"/><stop offset="1" stop-color="#E66D12"/></linearGradient><linearGradient id="n" x1="1428.29" y1="958.405" x2="1428.29" y2="-48.318" gradientUnits="userSpaceOnUse"><stop stop-color="#B2190C"/><stop offset="1" stop-color="#E66D12"/></linearGradient><linearGradient id="o" x1="1344.48" y1="1573.63" x2="1344.48" y2="1349.91" gradientUnits="userSpaceOnUse"><stop stop-color="#B2190C"/><stop offset="1" stop-color="#E66D12"/></linearGradient><linearGradient id="p" x1="1260.69" y1="1545.67" x2="1260.69" y2="1321.95" gradientUnits="userSpaceOnUse"><stop stop-color="#B2190C"/><stop offset="1" stop-color="#E66D12"/></linearGradient><linearGradient id="q" x1="1679.65" y1="1517.71" x2="1679.65" y2="958.404" gradientUnits="userSpaceOnUse"><stop stop-color="#B2190C"/><stop offset="1" stop-color="#E66D12"/></linearGradient><linearGradient id="r" x1="1260.69" y1="902.475" x2="1260.69" y2="1126.19" gradientUnits="userSpaceOnUse"><stop stop-color="#B2190C"/><stop offset="1" stop-color="#E66D12"/></linearGradient><linearGradient id="s" x1="1274.65" y1="510.974" x2="1274.65" y2="399.115" gradientUnits="userSpaceOnUse"><stop stop-color="#B2190C"/><stop offset="1" stop-color="#E66D12"/></linearGradient><linearGradient id="t" x1="1777.42" y1="1405.85" x2="1777.42" y2="846.546" gradientUnits="userSpaceOnUse"><stop stop-color="#255487"/><stop offset="1" stop-color="#66BAA1"/></linearGradient><linearGradient id="u" x1="1805.35" y1="1545.67" x2="1805.35" y2="986.367" gradientUnits="userSpaceOnUse"><stop stop-color="#255487"/><stop offset="1" stop-color="#66BAA1"/></linearGradient><linearGradient id="v" x1="1777.42" y1="371.156" x2="1777.42" y2="115.703" gradientUnits="userSpaceOnUse"><stop stop-color="#B2190C"/><stop offset="1" stop-color="#E66D12"/></linearGradient><linearGradient id="w" x1="1861.2" y1="538.948" x2="1861.2" y2="283.496" gradientUnits="userSpaceOnUse"><stop stop-color="#255487"/><stop offset="1" stop-color="#66BAA1"/></linearGradient><linearGradient id="x" x1="1833.28" y1="1014.33" x2="1833.28" y2="790.612" gradientUnits="userSpaceOnUse"><stop stop-color="#66BAA1"/><stop offset="1" stop-color="#1886B5"/></linearGradient><linearGradient id="y" x1="1721.54" y1="1126.19" x2="1721.54" y2="566.905" gradientUnits="userSpaceOnUse"><stop stop-color="#B2190C"/><stop offset="1" stop-color="#E66D12"/></linearGradient><linearGradient id="z" x1="1875.16" y1="1573.63" x2="1875.16" y2="566.905" gradientUnits="userSpaceOnUse"><stop stop-color="#255487"/><stop offset="1" stop-color="#66BAA1"/></linearGradient><linearGradient id="A" x1="1847.24" y1="1154.17" x2="1847.24" y2="930.434" gradientUnits="userSpaceOnUse"><stop stop-color="#B2190C"/><stop offset="1" stop-color="#E66D12"/></linearGradient><linearGradient id="B" x1="1707.58" y1="1545.67" x2="1707.58" y2="1321.95" gradientUnits="userSpaceOnUse"><stop stop-color="#B2190C"/><stop offset="1" stop-color="#E66D12"/></linearGradient><linearGradient id="C" x1="1819.32" y1="-299.999" x2="1819.32" y2="259.292" gradientUnits="userSpaceOnUse"><stop stop-color="#B2190C"/><stop offset="1" stop-color="#E66D12"/></linearGradient><linearGradient id="D" x1="1777.42" y1="566.904" x2="1777.42" y2="455.042" gradientUnits="userSpaceOnUse"><stop stop-color="#B2190C"/><stop offset="1" stop-color="#E66D12"/></linearGradient><linearGradient id="E" x1="1847.24" y1="315.223" x2="1847.24" y2="259.293" gradientUnits="userSpaceOnUse"><stop stop-color="#B2190C"/><stop offset="1" stop-color="#E66D12"/></linearGradient><linearGradient id="F" x1="1043.69" y1="1885.47" x2="1350.27" y2="1885.47" gradientUnits="userSpaceOnUse"><stop stop-color="#255487"/><stop offset="1" stop-color="#66BAA1"/></linearGradient><linearGradient id="G" x1="1043.69" y1="1853.31" x2="1350.27" y2="1853.31" gradientUnits="userSpaceOnUse"><stop stop-color="#B2190C"/><stop offset="1" stop-color="#E66D12"/></linearGradient><linearGradient id="H" x1="1011.56" y1="1667.96" x2="1318.13" y2="1667.96" gradientUnits="userSpaceOnUse"><stop stop-color="#255487"/><stop offset="1" stop-color="#66BAA1"/></linearGradient><linearGradient id="I" x1="1011.56" y1="1517.7" x2="1318.13" y2="1517.7" gradientUnits="userSpaceOnUse"><stop stop-color="#B2190C"/><stop offset="1" stop-color="#E66D12"/></linearGradient><linearGradient id="J" x1="1875.7" y1="1648.87" x2="2182.29" y2="1648.87" gradientUnits="userSpaceOnUse"><stop stop-color="#B2190C"/><stop offset="1" stop-color="#E66D12"/></linearGradient><linearGradient id="K" x1="1609.2" y1="1523.8" x2="1658.53" y2="1523.8" gradientUnits="userSpaceOnUse"><stop stop-color="#B2190C"/><stop offset="1" stop-color="#E66D12"/></linearGradient><linearGradient id="L" x1="1498.16" y1="1492.93" x2="1658.53" y2="1492.93" gradientUnits="userSpaceOnUse"><stop stop-color="#B2190C"/><stop offset="1" stop-color="#E66D12"/></linearGradient><linearGradient id="M" x1="1498.16" y1="1548.5" x2="1609.2" y2="1548.5" gradientUnits="userSpaceOnUse"><stop stop-color="#B2190C"/><stop offset="1" stop-color="#E66D12"/></linearGradient><linearGradient id="N" x1="1209.66" y1="1336.77" x2="1295.2" y2="1336.77" gradientUnits="userSpaceOnUse"><stop stop-color="#B2190C"/><stop offset="1" stop-color="#E66D12"/></linearGradient><linearGradient id="O" x1="1017.22" y1="1336.77" x2="1102.75" y2="1336.77" gradientUnits="userSpaceOnUse"><stop stop-color="#B2190C"/><stop offset="1" stop-color="#E66D12"/></linearGradient><linearGradient id="P" x1="1017.22" y1="1283.25" x2="1295.19" y2="1283.25" gradientUnits="userSpaceOnUse"><stop stop-color="#B2190C"/><stop offset="1" stop-color="#E66D12"/></linearGradient><linearGradient id="Q" x1="1017.22" y1="1379.58" x2="1209.66" y2="1379.58" gradientUnits="userSpaceOnUse"><stop stop-color="#B2190C"/><stop offset="1" stop-color="#E66D12"/></linearGradient><linearGradient id="R" x1="1089.82" y1="1346.42" x2="1196.84" y2="1254.38" gradientUnits="userSpaceOnUse"><stop stop-color="#B2190C"/><stop offset="1" stop-color="#E66D12"/></linearGradient><linearGradient id="S" x1="1102.75" y1="1261.84" x2="1295.19" y2="1261.84" gradientUnits="userSpaceOnUse"><stop stop-color="#B2190C"/><stop offset="1" stop-color="#E66D12"/></linearGradient><linearGradient id="T" x1="1582.44" y1="1179.38" x2="1961.41" y2="1179.38" gradientUnits="userSpaceOnUse"><stop stop-color="#12BCB9" stop-opacity="0"/><stop offset=".503" stop-color="#12B9B7"/><stop offset="1" stop-color="#156C84"/></linearGradient><linearGradient id="U" x1="1839.73" y1="1089.38" x2="1891.19" y2="1089.38" gradientUnits="userSpaceOnUse"><stop stop-color="#12BCB9"/><stop offset="1" stop-color="#156C84"/></linearGradient><linearGradient id="V" x1="1832.24" y1="1082.01" x2="1865.92" y2="1082.01" gradientUnits="userSpaceOnUse"><stop stop-color="#12BCB9"/><stop offset="1" stop-color="#156C84"/></linearGradient><linearGradient id="W" x1="1985.01" y1="1010.39" x2="1935.57" y2="1036.23" gradientUnits="userSpaceOnUse"><stop stop-color="#12BCB9"/><stop offset="1" stop-color="#156C84"/></linearGradient><linearGradient id="X" x1="1981.96" y1="1012.27" x2="1943.45" y2="1032.39" gradientUnits="userSpaceOnUse"><stop stop-color="#12BCB9"/><stop offset="1" stop-color="#156C84"/></linearGradient><linearGradient id="Y" x1="1899.62" y1="1025.2" x2="1912.25" y2="1025.2" gradientUnits="userSpaceOnUse"><stop stop-color="#FFE003"/><stop offset="1" stop-color="#FF680A"/></linearGradient><linearGradient id="Z" x1="1874.35" y1="1016.78" x2="1912.24" y2="1016.78" gradientUnits="userSpaceOnUse"><stop stop-color="#12BCB9"/><stop offset="1" stop-color="#156C84"/></linearGradient><linearGradient id="aa" x1="1863.51" y1="1037.53" x2="1911.33" y2="994.052" gradientUnits="userSpaceOnUse"><stop stop-color="#9B0D0D"/><stop offset="1" stop-color="#EA1B11"/></linearGradient><linearGradient id="ab" x1="1870.14" y1="1029.41" x2="1941.73" y2="1029.41" gradientUnits="userSpaceOnUse"><stop stop-color="#FB5A0E"/><stop offset="1" stop-color="#EA1B11"/></linearGradient><linearGradient id="ac" x1="1941.72" y1="999.949" x2="1945.93" y2="999.949" gradientUnits="userSpaceOnUse"><stop stop-color="#FB5A0E"/><stop offset="1" stop-color="#EA1B11"/></linearGradient><linearGradient id="ad" x1="1912.77" y1="1062.08" x2="1967.72" y2="1002.8" gradientUnits="userSpaceOnUse"><stop stop-color="#9B0D0D"/><stop offset="1" stop-color="#EA1B11"/></linearGradient><linearGradient id="ae" x1="1878.55" y1="1016.78" x2="1916.45" y2="1016.78" gradientUnits="userSpaceOnUse"><stop stop-color="#FB5A0E"/><stop offset="1" stop-color="#EA1B11"/></linearGradient><linearGradient id="af" x1="1882.77" y1="1020.99" x2="1899.61" y2="1020.99" gradientUnits="userSpaceOnUse"><stop stop-color="#12BCB9"/><stop offset="1" stop-color="#156C84"/></linearGradient><linearGradient id="ag" x1="1924.88" y1="1016.78" x2="1975.41" y2="1016.78" gradientUnits="userSpaceOnUse"><stop stop-color="#FB5A0E"/><stop offset="1" stop-color="#EA1B11"/></linearGradient><linearGradient id="ah" x1="1920.67" y1="1020.99" x2="1966.99" y2="1020.99" gradientUnits="userSpaceOnUse"><stop stop-color="#FB5A0E"/><stop offset="1" stop-color="#EA1B11"/></linearGradient><linearGradient id="ai" x1="1920.67" y1="1025.2" x2="1941.72" y2="1025.2" gradientUnits="userSpaceOnUse"><stop stop-color="#FFE003"/><stop offset="1" stop-color="#FF680A"/></linearGradient><linearGradient id="aj" x1="1886.98" y1="1020.99" x2="1912.25" y2="1020.99" gradientUnits="userSpaceOnUse"><stop stop-color="#FB5A0E"/><stop offset="1" stop-color="#EA1B11"/></linearGradient><linearGradient id="ak" x1="1892.05" y1="1059.59" x2="1915.23" y2="1034.59" gradientUnits="userSpaceOnUse"><stop stop-color="#9B0D0D"/><stop offset="1" stop-color="#EA1B11"/></linearGradient><linearGradient id="al" x1="1883.62" y1="1063.8" x2="1906.79" y2="1038.8" gradientUnits="userSpaceOnUse"><stop stop-color="#9B0D0D"/><stop offset="1" stop-color="#EA1B11"/></linearGradient><linearGradient id="am" x1="1875.21" y1="1068.01" x2="1898.38" y2="1043.01" gradientUnits="userSpaceOnUse"><stop stop-color="#9B0D0D"/><stop offset="1" stop-color="#EA1B11"/></linearGradient><linearGradient id="an" x1="1858.88" y1="1080.57" x2="1888.7" y2="1048.39" gradientUnits="userSpaceOnUse"><stop stop-color="#9B0D0D"/><stop offset="1" stop-color="#EA1B11"/></linearGradient><linearGradient id="ao" x1="1916.46" y1="1025.2" x2="1933.31" y2="1025.2" gradientUnits="userSpaceOnUse"><stop stop-color="#FB5A0E"/><stop offset="1" stop-color="#EA1B11"/></linearGradient><linearGradient id="ap" x1="1865.92" y1="1012.57" x2="1903.82" y2="1012.57" gradientUnits="userSpaceOnUse"><stop stop-color="#9B0D0D"/><stop offset="1" stop-color="#EA1B11"/></linearGradient><linearGradient id="aq" x1="1945.94" y1="1012.57" x2="1988.05" y2="1012.57" gradientUnits="userSpaceOnUse"><stop stop-color="#9B0D0D"/><stop offset="1" stop-color="#EA1B11"/></linearGradient><linearGradient id="ar" x1="1954.35" y1="1008.37" x2="1996.46" y2="1008.37" gradientUnits="userSpaceOnUse"><stop stop-color="#9B0D0D"/><stop offset="1" stop-color="#EA1B11"/></linearGradient><linearGradient id="as" x1="1802.77" y1="1094.64" x2="1874.35" y2="1094.64" gradientUnits="userSpaceOnUse"><stop stop-color="#FB5A0E"/><stop offset="1" stop-color="#EA1B11"/></linearGradient><linearGradient id="at" x1="1752.24" y1="1149.35" x2="1823.82" y2="1149.35" gradientUnits="userSpaceOnUse"><stop stop-color="#FB5A0E"/><stop offset="1" stop-color="#EA1B11"/></linearGradient><linearGradient id="au" x1="1870.14" y1="1065.18" x2="1908.04" y2="1065.18" gradientUnits="userSpaceOnUse"><stop stop-color="#FB5A0E"/><stop offset="1" stop-color="#EA1B11"/></linearGradient><linearGradient id="av" x1="1832.24" y1="1090.43" x2="1870.13" y2="1090.43" gradientUnits="userSpaceOnUse"><stop stop-color="#FB5A0E"/><stop offset="1" stop-color="#EA1B11"/></linearGradient><linearGradient id="aw" x1="1731.19" y1="1195.64" x2="1769.08" y2="1195.64" gradientUnits="userSpaceOnUse"><stop stop-color="#FB5A0E"/><stop offset="1" stop-color="#EA1B11"/></linearGradient><linearGradient id="ax" x1="1819.6" y1="1109.37" x2="1844.87" y2="1109.37" gradientUnits="userSpaceOnUse"><stop stop-color="#12BCB9"/><stop offset="1" stop-color="#156C84"/></linearGradient><linearGradient id="ay" x1="1785.92" y1="1138.83" x2="1802.77" y2="1138.83" gradientUnits="userSpaceOnUse"><stop stop-color="#12BCB9"/><stop offset="1" stop-color="#156C84"/></linearGradient><linearGradient id="az" x1="1823.82" y1="1105.16" x2="1840.66" y2="1105.16" gradientUnits="userSpaceOnUse"><stop stop-color="#12BCB9"/><stop offset="1" stop-color="#156C84"/></linearGradient><linearGradient id="aA" x1="1865.92" y1="1063.08" x2="1891.19" y2="1063.08" gradientUnits="userSpaceOnUse"><stop stop-color="#12BCB9"/><stop offset="1" stop-color="#156C84"/></linearGradient></defs></svg>