<?xml version="1.0" encoding="utf-8"?>
<!-- Generator: Adobe Illustrator 22.1.0, SVG Export Plug-In . SVG Version: 6.00 Build 0)  -->
<svg version="1.1" id="GraphQL_Logo" xmlns="http://www.w3.org/2000/svg" xmlns:xlink="http://www.w3.org/1999/xlink" x="0px"
	 y="0px" viewBox="-837.4 1699.7 186.4 186.4" enable-background="new -837.4 1699.7 186.4 186.4" xml:space="preserve">
<g>
	
		<path fill="none" stroke="#13BEBB" stroke-width="4.252" stroke-linecap="round" stroke-linejoin="round" stroke-miterlimit="10" d="
		M-755.2,1770c0-6.1,4.9-11,11-11s11,4.9,11,11"/>
	
		<line fill="none" stroke="#13BEBB" stroke-width="4.252" stroke-linecap="round" stroke-linejoin="round" stroke-miterlimit="10" x1="-733.2" y1="1770" x2="-733.2" y2="1775"/>
	
		<line fill="none" stroke="#13BEBB" stroke-width="4.252" stroke-linecap="round" stroke-linejoin="round" stroke-miterlimit="10" x1="-755.2" y1="1770" x2="-755.2" y2="1775"/>
</g>
<g>
	
		<rect x="-758.4" y="1775" fill="none" stroke="#13BEBB" stroke-width="4.252" stroke-linecap="round" stroke-linejoin="round" stroke-miterlimit="10" width="28.5" height="29.9"/>
	
		<polyline fill="none" stroke="#13BEBB" stroke-width="4.252" stroke-linecap="round" stroke-linejoin="round" stroke-miterlimit="10" points="
		-750.1,1787.8 -744.6,1793.3 -735.7,1784.4 	"/>
</g>
<polygon fill="none" stroke="#13BEBB" stroke-width="4.252" stroke-linecap="round" stroke-linejoin="round" stroke-miterlimit="10" points="
	-744.2,1733 -739.4,1724.2 -735.8,1733.6 -729.8,1725.5 -727.7,1735.3 -720.6,1728.1 -719.8,1738.1 -711.8,1732.1 -712.4,1742.1 
	-703.7,1737.1 -705.7,1747 -696.3,1743.3 -699.7,1752.8 -689.9,1750.5 -694.5,1759.4 -684.5,1758.4 -690.3,1766.6 -680.3,1767.1 
	-687.2,1774.4 -677.3,1776.2 -685.2,1782.5 -675.7,1785.7 -684.3,1790.8 -675.3,1795.3 -684.6,1799.1 -676.3,1804.8 -686.1,1807.3 
	-678.7,1814.1 -688.6,1815.3 -682.3,1823 -692.3,1822.8 -687.1,1831.4 -697,1829.7 -693,1838.9 -702.6,1835.9 -699.9,1845.6 
	-709,1841.3 -707.7,1851.3 -716,1845.7 -716.1,1855.8 -723.7,1849.1 -725.2,1859.1 -731.7,1851.4 -734.6,1861.1 -740,1852.6 
	-744.2,1861.7 -748.3,1852.6 -753.7,1861.1 -756.6,1851.4 -763.1,1859.1 -764.6,1849.1 -772.2,1855.8 -772.3,1845.7 -780.7,1851.3 
	-779.4,1841.3 -788.4,1845.6 -785.8,1835.9 -795.3,1838.9 -791.3,1829.7 -801.3,1831.4 -796,1822.8 -806.1,1823 -799.7,1815.3 
	-809.7,1814.1 -802.3,1807.3 -812,1804.8 -803.7,1799.1 -813,1795.3 -804,1790.8 -812.7,1785.7 -803.1,1782.5 -811,1776.2 
	-801.1,1774.4 -808,1767.1 -798,1766.6 -803.8,1758.4 -793.8,1759.4 -798.4,1750.5 -788.7,1752.8 -792,1743.3 -782.7,1747 
	-784.6,1737.1 -775.9,1742.1 -776.5,1732.1 -768.5,1738.1 -767.7,1728.1 -760.7,1735.3 -758.5,1725.5 -752.5,1733.6 -749,1724.2 "/>
<g>
	
		<polyline fill="none" stroke="#13BEBB" stroke-width="4.252" stroke-linecap="round" stroke-linejoin="round" stroke-miterlimit="10" points="
		-765.4,1815.6 -774.1,1815.6 -774.1,1835.2 -765.4,1835.2 -765.4,1825.4 	"/>
	
		<polygon fill="none" stroke="#13BEBB" stroke-width="4.252" stroke-linecap="round" stroke-linejoin="round" stroke-miterlimit="10" points="
		-756.8,1815.6 -756.8,1835.2 -747.4,1835.2 -747.4,1825.5 	"/>
	
		<polyline fill="none" stroke="#13BEBB" stroke-width="4.252" stroke-linecap="round" stroke-linejoin="round" stroke-miterlimit="10" points="
		-739.1,1835.2 -739.1,1815.6 -731.1,1815.6 -731.1,1825.4 -739.1,1825.4 	"/>
	
		<polyline fill="none" stroke="#13BEBB" stroke-width="4.252" stroke-linecap="round" stroke-linejoin="round" stroke-miterlimit="10" points="
		-723.1,1835.2 -723.1,1815.6 -715.1,1815.6 -715.1,1825.4 -723.1,1825.4 -714.2,1834.3 	"/>
</g>
<path fill="none" stroke="#13BEBB" stroke-width="4.252" stroke-linecap="round" stroke-linejoin="round" stroke-miterlimit="10" d="
	M-705.2,1809.4c2.1-5.1,3.3-10.6,3.3-16.4c0-18.8-12.2-34.7-29.2-40.2"/>
<path fill="none" stroke="#13BEBB" stroke-width="4.252" stroke-linecap="round" stroke-linejoin="round" stroke-miterlimit="10" d="
	M-756.8,1752.6c-17.2,5.4-29.6,21.4-29.6,40.3c0,6.1,1.3,11.9,3.6,17.2"/>
</svg>
