<svg width="84" height="83" viewBox="0 0 84 83" fill="none" xmlns="http://www.w3.org/2000/svg">
<path d="M56.9945 14.4122C57.666 12.3954 58.0022 10.3048 58.0022 8.13946C58.0022 5.25203 57.3673 2.53879 56.0994 0C53.4391 0 51.0892 0.485815 49.0495 1.45627C47.0109 2.42698 44.6858 3.93281 42.0756 5.97376C38.7935 5.17736 35.3111 4.77916 31.6315 4.77916C27.6027 4.77916 23.7606 5.21502 20.1053 6.08609C17.4448 3.99506 15.0948 2.4585 13.0557 1.4751C11.0165 0.4917 8.65426 0.000130699 5.9684 0.000130699C4.7002 2.53892 4.06616 5.25229 4.06616 8.13959C4.06616 10.3301 4.40167 12.4459 5.0732 14.4866C1.69085 18.4445 0 23.3726 0 29.2718C0 34.4497 0.770563 38.5686 2.3126 41.6306C3.13346 43.2479 4.20243 44.6791 5.52054 45.9241C6.83812 47.1682 8.34267 48.177 10.0338 48.9488C11.7251 49.7199 13.4281 50.3613 15.1442 50.871C16.8601 51.381 18.7561 51.7548 20.8326 51.9903C22.909 52.2278 24.7429 52.3831 26.3344 52.4583C27.9258 52.5321 29.6911 52.5699 31.6313 52.5699C33.9187 52.5699 35.9945 52.5134 37.8604 52.4021C39.7257 52.2903 41.8574 52.0159 44.2574 51.5814C46.6571 51.1455 48.7709 50.5539 50.5991 49.8075C52.4269 49.061 54.1804 47.9904 55.8589 46.5969C57.5373 45.2025 58.8486 43.5476 59.7941 41.6307C61.3102 38.5442 62.069 34.4243 62.069 29.272C62.0681 23.3478 60.3771 18.3947 56.9945 14.4122ZM52.5199 41.5737C51.724 43.2046 50.7167 44.4853 49.4984 45.4197C48.2796 46.3533 46.7629 47.0997 44.9478 47.6605C43.1318 48.2203 41.3919 48.5872 39.7257 48.7609C38.0588 48.9354 36.2069 49.0222 34.1672 49.0222H27.9006C25.8615 49.0222 24.0086 48.9354 22.3427 48.7609C20.6766 48.5872 18.936 48.2203 17.1205 47.6605C15.3057 47.0997 13.789 46.3533 12.5702 45.4197C11.3514 44.4852 10.3443 43.2046 9.54855 41.5737C8.7529 39.9429 8.35495 38.033 8.35495 35.8428C8.35495 32.8551 9.21291 30.3159 10.929 28.226C12.6449 26.135 14.9698 25.0899 17.9039 25.0899C18.9736 25.0899 21.3982 25.351 25.178 25.8739C26.9434 26.1476 28.8957 26.2845 31.034 26.2845C33.173 26.2845 35.125 26.148 36.8902 25.8739C40.7204 25.3509 43.1442 25.0899 44.1644 25.0899C47.0984 25.0899 49.4233 26.1355 51.1392 28.226C52.8553 30.3168 53.7127 32.8551 53.7127 35.8428C53.7127 38.0334 53.3148 39.9443 52.5199 41.5737Z" transform="translate(11.0312 15.5319)" fill="#36C1AC"/>
<path d="M7.47908 1.27005C6.72054 0.423305 5.81946 0 4.7748 0C3.72987 0 2.82866 0.423828 2.07025 1.27005C1.31223 2.11588 0.777226 3.06201 0.466544 4.10635C0.15521 5.15278 0 6.17306 0 7.16927C0 8.16444 0.155602 9.18485 0.466544 10.2311C0.776834 11.2761 1.31158 12.2217 2.07025 13.0674C2.82905 13.9142 3.72987 14.3376 4.7748 14.3376C5.81946 14.3376 6.72093 13.9134 7.47908 13.0674C8.23736 12.2216 8.77211 11.2761 9.08279 10.2311C9.39373 9.18485 9.54933 8.16444 9.54933 7.16927C9.54933 6.17397 9.39412 5.15278 9.08279 4.10635C8.77198 3.0624 8.23776 2.11666 7.47908 1.27005Z" transform="translate(25.3555 44.2053)" fill="#36C1AC"/>
<path d="M7.47896 1.27005C6.72067 0.423305 5.81933 0 4.77493 0C3.73092 0 2.82906 0.423828 2.07038 1.27005C1.3121 2.11588 0.77749 3.06201 0.4672 4.10635C0.155604 5.15278 0 6.17306 0 7.16927C0 8.16444 0.155604 9.18485 0.4672 10.2311C0.77749 11.2761 1.31223 12.2217 2.07038 13.0674C2.82919 13.9142 3.73092 14.3376 4.77493 14.3376C5.81933 14.3376 6.7208 13.9134 7.47896 13.0674C8.23685 12.2216 8.77185 11.2761 9.08305 10.2311C9.39386 9.18485 9.54933 8.16444 9.54933 7.16927C9.54933 6.17397 9.39386 5.15278 9.08305 4.10635C8.77198 3.0624 8.23685 2.11666 7.47896 1.27005Z" transform="translate(49.2227 44.2053)" fill="#36C1AC"/>
</svg>
