<?xml version="1.0" encoding="utf-8"?>
<!-- Generator: Adobe Illustrator 22.1.0, SVG Export Plug-In . SVG Version: 6.00 Build 0)  -->
<svg version="1.1" xmlns="http://www.w3.org/2000/svg" xmlns:xlink="http://www.w3.org/1999/xlink" x="0px" y="0px"
	 viewBox="0 0 500 729" style="enable-background:new 0 0 500 729;" xml:space="preserve">
<style type="text/css">
	.st0{display:none;}
	
		.st1{opacity:0.7;fill:url(#SVGID_1_);stroke:#00B9F3;stroke-width:1.5311;stroke-linecap:round;stroke-linejoin:round;stroke-miterlimit:10;enable-background:new    ;}
	.st2{fill:none;stroke:#C95F19;stroke-width:1.5311;stroke-linecap:round;stroke-linejoin:round;stroke-miterlimit:10;}
	.st3{fill:none;stroke:#00B9F3;stroke-width:1.5311;stroke-linecap:round;stroke-linejoin:round;stroke-miterlimit:10;}
	.st4{fill:none;stroke:#91DBED;stroke-width:1.5311;stroke-linecap:round;stroke-linejoin:round;stroke-miterlimit:10;}
	.st5{opacity:0.5;fill:url(#SVGID_2_);enable-background:new    ;}
	.st6{opacity:0.5;fill:url(#SVGID_3_);enable-background:new    ;}
	.st7{fill:url(#SVGID_4_);stroke:#00B9F3;stroke-width:1.1675;stroke-linecap:round;stroke-linejoin:round;stroke-miterlimit:10;}
	.st8{fill:none;stroke:url(#SVGID_5_);stroke-width:1.5311;stroke-linecap:round;stroke-linejoin:round;stroke-miterlimit:10;}
	
		.st9{fill:url(#SVGID_6_);stroke:url(#SVGID_7_);stroke-width:1.5311;stroke-linecap:round;stroke-linejoin:round;stroke-miterlimit:10;}
	.st10{fill:none;stroke:url(#SVGID_8_);stroke-linecap:round;stroke-linejoin:round;stroke-miterlimit:10;}
	.st11{fill:#412578;}
	.st12{fill:#FFFFFF;}
	.st13{fill:#1989BE;}
	.st14{fill:none;stroke:#13BEBB;stroke-width:0.75;stroke-linecap:round;stroke-linejoin:round;stroke-miterlimit:10;}
	.st15{opacity:0.3;fill:#13BEBB;}
	.st16{opacity:0.2;fill:#13BEBB;}
	.st17{fill:#D25E19;}
</style>
<g id="Layer_1">
	<g id="arch" class="st0">
	</g>
	<g id="backgroun_d_color">
	</g>
	<g id="shapes">
		
			<linearGradient id="SVGID_1_" gradientUnits="userSpaceOnUse" x1="67.2" y1="255.25" x2="287.6" y2="255.25" gradientTransform="matrix(1 0 0 -1 0 500)">
			<stop  offset="0" style="stop-color:#412578"/>
			<stop  offset="1" style="stop-color:#1F215E"/>
		</linearGradient>
		<polygon class="st1" points="67.2,244.8 287.6,24.3 287.6,244.8 67.2,465.2 		"/>
		<g>
			<line class="st2" x1="94" y1="264.6" x2="121" y2="237.6"/>
			<line class="st3" x1="94" y1="273.6" x2="121" y2="246.6"/>
			<line class="st3" x1="94" y1="282.6" x2="121" y2="255.6"/>
			<polygon class="st4" points="130,228.6 130,264.6 166,228.6 166,192.6 			"/>
			<polygon class="st4" points="175,183.6 175,219.6 211,183.6 211,147.6 			"/>
			<polygon class="st4" points="220,138.6 220,174.6 256,138.6 256,102.6 			"/>
			<line class="st3" x1="130" y1="273.6" x2="166" y2="237.6"/>
			<line class="st3" x1="130" y1="282.6" x2="157" y2="255.6"/>
			<line class="st3" x1="175" y1="228.6" x2="202" y2="201.6"/>
			<line class="st3" x1="175" y1="237.6" x2="193" y2="219.6"/>
			<line class="st3" x1="220" y1="183.6" x2="247" y2="156.6"/>
			<line class="st3" x1="220" y1="192.6" x2="256" y2="156.6"/>
			<g>
				<polygon class="st4" points="220,219.6 220,255.6 256,219.6 256,183.6 				"/>
				<line class="st4" x1="220" y1="264.6" x2="256" y2="228.6"/>
				<line class="st4" x1="220" y1="273.6" x2="247" y2="246.6"/>
			</g>
			<g>
				<polygon class="st4" points="175,264.6 175,300.6 211,264.6 211,228.6 				"/>
				<line class="st4" x1="175" y1="309.6" x2="202" y2="282.6"/>
				<line class="st4" x1="175" y1="318.6" x2="193" y2="300.6"/>
			</g>
			<g>
				<polygon class="st4" points="130,309.6 130,345.6 166,309.6 166,273.6 				"/>
				<line class="st4" x1="130" y1="354.6" x2="157" y2="327.6"/>
				<line class="st4" x1="130" y1="363.6" x2="166" y2="327.6"/>
			</g>
		</g>
		<g>
			
				<linearGradient id="SVGID_2_" gradientUnits="userSpaceOnUse" x1="133.7613" y1="402.5427" x2="517.82" y2="76.0944" gradientTransform="matrix(1 0 0 -1 0 500)">
				<stop  offset="0" style="stop-color:#1989BE;stop-opacity:0"/>
				<stop  offset="1" style="stop-color:#91DBED"/>
			</linearGradient>
			<polygon class="st5" points="67.2,244.8 388.7,309 426.7,271 287.6,24.3 			"/>
			
				<linearGradient id="SVGID_3_" gradientUnits="userSpaceOnUse" x1="158.8609" y1="169.0252" x2="520.8948" y2="-125.0764" gradientTransform="matrix(1 0 0 -1 0 500)">
				<stop  offset="0" style="stop-color:#1989BE;stop-opacity:0"/>
				<stop  offset="1" style="stop-color:#91DBED"/>
			</linearGradient>
			<polygon class="st6" points="67.2,244.8 67.2,465.2 390.6,412.7 388.7,309 			"/>
			<g>
				
					<linearGradient id="SVGID_4_" gradientUnits="userSpaceOnUse" x1="422.3246" y1="180.494" x2="502.6576" y2="293.4939" gradientTransform="matrix(1 0 0 -1 0 500)">
					<stop  offset="0" style="stop-color:#412578"/>
					<stop  offset="0.8128" style="stop-color:#1989BE"/>
					<stop  offset="1" style="stop-color:#4CC3F2"/>
				</linearGradient>
				<path class="st7" d="M426.7,261.7c-0.4-11.3-8.4-3.3-8.4-3.3l-29.5,29.5c-4.2,4.2-4.2,12.7-4.2,12.7v118.2c0,7.5,3,9.1,5.4,9.1
					c1.3,1.2,3.1-0.7,3.1-0.7s25.3-25.3,29.5-29.5s4.2-8.4,4.2-8.4V262.6C426.7,262.2,426.7,262,426.7,261.7z"/>
				
					<linearGradient id="SVGID_5_" gradientUnits="userSpaceOnUse" x1="387.9344" y1="157.25" x2="427.4547" y2="157.25" gradientTransform="matrix(1 0 0 -1 0 500)">
					<stop  offset="0" style="stop-color:#B53955"/>
					<stop  offset="1" style="stop-color:#1989BE"/>
				</linearGradient>
				<path class="st8" d="M388.7,397.6V296.3c0,0,0-4.2,4.2-8.4l29.5-29.5c0,0,4.2-4.2,4.2,4.2v126.6c0,0,0,4.2-4.2,8.4
					c-4.2,4.2-29.5,29.5-29.5,29.5s-4.2,4.2-4.2-4.2V397.6z"/>
				
					<linearGradient id="SVGID_6_" gradientUnits="userSpaceOnUse" x1="410.3689" y1="121.3049" x2="399.7019" y2="264.9713" gradientTransform="matrix(1 0 0 -1 0 500)">
					<stop  offset="0" style="stop-color:#B9351B"/>
					<stop  offset="1" style="stop-color:#C95F19"/>
				</linearGradient>
				
					<linearGradient id="SVGID_7_" gradientUnits="userSpaceOnUse" x1="387.9344" y1="157.25" x2="427.4656" y2="157.25" gradientTransform="matrix(1 0 0 -1 0 500)">
					<stop  offset="0" style="stop-color:#C95F19"/>
					<stop  offset="1" style="stop-color:#91DBED"/>
				</linearGradient>
				<polygon class="st9" points="426.7,271 388.7,309 388.7,414.5 426.7,376.5 				"/>
				<line class="st4" x1="401.4" y1="287.9" x2="414" y2="275.2"/>
				<g>
					<path class="st3" d="M413,398.3c0,1.9-1.5,4.9-3.4,6.7c-1.9,1.9-3.4,1.9-3.4,0s1.5-4.9,3.4-6.7
						C411.5,396.5,413,396.5,413,398.3z"/>
				</g>
				<path class="st3" d="M398.9,292.2c-0.1,1.2-0.6,2.1-1.2,2.1s-1-1-1-2.2c0.1-1.2,0.6-2.1,1.2-2.1S398.9,291,398.9,292.2z"/>
			</g>
		</g>
		
			<linearGradient id="SVGID_8_" gradientUnits="userSpaceOnUse" x1="66.7" y1="365.45" x2="288.1" y2="365.45" gradientTransform="matrix(1 0 0 -1 0 500)">
			<stop  offset="0" style="stop-color:#FFFFFF;stop-opacity:0"/>
			<stop  offset="1" style="stop-color:#FFFFFF"/>
		</linearGradient>
		<line class="st10" x1="67.2" y1="244.8" x2="287.6" y2="24.3"/>
	</g>
	<g id="kropki">
		<polygon class="st11" points="144,107 128.9,107 91.2,144.7 106.2,144.7 		"/>
		<polygon class="st11" points="431.1,450 412.7,450 399.5,463.2 417.9,463.2 		"/>
		<path class="st12" d="M289.6,24.3c0,1.1-0.9,2-2,2s-2-0.9-2-2s0.9-2,2-2S289.6,23.2,289.6,24.3z"/>
		<path class="st12" d="M69.1,244.8c0,1.1-0.9,2-2,2s-2-0.9-2-2s0.9-2,2-2S69.1,243.7,69.1,244.8z"/>
		<path class="st12" d="M289.6,244.8c0,1.1-0.9,2-2,2s-2-0.9-2-2s0.9-2,2-2S289.6,243.7,289.6,244.8z"/>
		<path class="st12" d="M69.1,465.2c0,1.1-0.9,2-2,2s-2-0.9-2-2s0.9-2,2-2C68.2,463.3,69.1,464.2,69.1,465.2z"/>
		<g>
			<polygon class="st13" points="392.5,357.1 423.3,326.3 423.3,336.4 392.5,367.2 			"/>
			<polygon class="st12" points="392.5,357.1 407.9,341.7 407.9,351.8 392.5,367.2 			"/>
		</g>
	</g>
</g>
<g id="Layer_2">
	<line class="st14" x1="126" y1="680" x2="351" y2="455"/>
	<polygon class="st15" points="45,716 108,653 207,653 144,716 	"/>
	<polygon class="st16" points="18,563 36,563 81,518 63,518 	"/>
	<polygon class="st17" points="370.5,228.6 363.5,235.7 363.5,267.5 370.5,260.5 	"/>
</g>
</svg>
