<svg xmlns="http://www.w3.org/2000/svg" viewBox="0 0 500 729"><style>.st3,.st4{fill:none;stroke:#00b9f3;stroke-width:1.5311;stroke-linecap:round;stroke-linejoin:round;stroke-miterlimit:10}.st4{stroke:#91dbed}.st12{fill:#fff}</style><g id="Layer_1"><g id="shapes"><linearGradient id="SVGID_1_" gradientUnits="userSpaceOnUse" x1="67.2" y1="255.25" x2="287.6" y2="255.25" gradientTransform="matrix(1 0 0 -1 0 500)"><stop offset="0" stop-color="#412578"/><stop offset="1" stop-color="#1F215E"/></linearGradient><path d="M67.2 244.8L287.6 24.3v220.5L67.2 465.2z" opacity=".7" fill="url(#SVGID_1_)" stroke="#00b9f3" stroke-width="1.531" stroke-linecap="round" stroke-linejoin="round" stroke-miterlimit="10"/><path d="M94 264.6l27-27" fill="none" stroke="#c95f19" stroke-width="1.531" stroke-linecap="round" stroke-linejoin="round" stroke-miterlimit="10"/><path class="st3" d="M94 273.6l27-27m-27 36l27-27"/><path class="st4" d="M130 228.6v36l36-36v-36zm45-45v36l36-36v-36zm45-45v36l36-36v-36z"/><path class="st3" d="M130 273.6l36-36m-36 45l27-27m18-27l27-27m-27 36l18-18m27-36l27-27m-27 36l36-36"/><path class="st4" d="M220 219.6v36l36-36v-36zm0 45l36-36m-36 45l27-27M175 264.6v36l36-36v-36zm0 45l27-27m-27 36l18-18M130 309.6v36l36-36v-36zm0 45l27-27m-27 36l36-36"/><linearGradient id="SVGID_2_" gradientUnits="userSpaceOnUse" x1="133.761" y1="402.543" x2="517.82" y2="76.094" gradientTransform="matrix(1 0 0 -1 0 500)"><stop offset="0" stop-color="#1989BE" stop-opacity="0"/><stop offset="1" stop-color="#91DBED"/></linearGradient><path d="M67.2 244.8L388.7 309l38-38L287.6 24.3z" opacity=".5" fill="url(#SVGID_2_)"/><linearGradient id="SVGID_3_" gradientUnits="userSpaceOnUse" x1="158.861" y1="169.025" x2="520.895" y2="-125.076" gradientTransform="matrix(1 0 0 -1 0 500)"><stop offset="0" stop-color="#1989BE" stop-opacity="0"/><stop offset="1" stop-color="#91DBED"/></linearGradient><path d="M67.2 244.8v220.4l323.4-52.5-1.9-103.7z" opacity=".5" fill="url(#SVGID_3_)"/><linearGradient id="SVGID_4_" gradientUnits="userSpaceOnUse" x1="422.325" y1="180.494" x2="502.658" y2="293.494" gradientTransform="matrix(1 0 0 -1 0 500)"><stop offset="0" stop-color="#412578"/><stop offset=".813" stop-color="#1989BE"/><stop offset="1" stop-color="#4CC3F2"/></linearGradient><path d="M426.7 261.7c-.4-11.3-8.4-3.3-8.4-3.3l-29.5 29.5c-4.2 4.2-4.2 12.7-4.2 12.7v118.2c0 7.5 3 9.1 5.4 9.1 1.3 1.2 3.1-.7 3.1-.7l29.5-29.5 4.2-8.4V262.6c-.1-.4-.1-.6-.1-.9z" fill="url(#SVGID_4_)" stroke="#00b9f3" stroke-width="1.167" stroke-linecap="round" stroke-linejoin="round" stroke-miterlimit="10"/><linearGradient id="SVGID_5_" gradientUnits="userSpaceOnUse" x1="387.934" y1="157.25" x2="427.455" y2="157.25" gradientTransform="matrix(1 0 0 -1 0 500)"><stop offset="0" stop-color="#B53955"/><stop offset="1" stop-color="#1989BE"/></linearGradient><path d="M388.7 397.6V296.3s0-4.2 4.2-8.4l29.5-29.5s4.2-4.2 4.2 4.2v126.6s0 4.2-4.2 8.4l-29.5 29.5s-4.2 4.2-4.2-4.2v-25.3z" fill="none" stroke="url(#SVGID_5_)" stroke-width="1.531" stroke-linecap="round" stroke-linejoin="round" stroke-miterlimit="10"/><linearGradient id="SVGID_6_" gradientUnits="userSpaceOnUse" x1="410.369" y1="121.305" x2="399.702" y2="264.971" gradientTransform="matrix(1 0 0 -1 0 500)"><stop offset="0" stop-color="#B9351B"/><stop offset="1" stop-color="#C95F19"/></linearGradient><linearGradient id="SVGID_7_" gradientUnits="userSpaceOnUse" x1="387.934" y1="157.25" x2="427.466" y2="157.25" gradientTransform="matrix(1 0 0 -1 0 500)"><stop offset="0" stop-color="#C95F19"/><stop offset="1" stop-color="#91DBED"/></linearGradient><path d="M426.7 271l-38 38v105.5l38-38z" fill="url(#SVGID_6_)" stroke="url(#SVGID_7_)" stroke-width="1.531" stroke-linecap="round" stroke-linejoin="round" stroke-miterlimit="10"/><path class="st4" d="M401.4 287.9l12.6-12.7"/><path class="st3" d="M413 398.3c0 1.9-1.5 4.9-3.4 6.7-1.9 1.9-3.4 1.9-3.4 0s1.5-4.9 3.4-6.7c1.9-1.8 3.4-1.8 3.4 0zm-14.1-106.1c-.1 1.2-.6 2.1-1.2 2.1s-1-1-1-2.2c.1-1.2.6-2.1 1.2-2.1s1 1 1 2.2z"/><linearGradient id="SVGID_8_" gradientUnits="userSpaceOnUse" x1="66.7" y1="365.45" x2="288.1" y2="365.45" gradientTransform="matrix(1 0 0 -1 0 500)"><stop offset="0" stop-color="#fff" stop-opacity="0"/><stop offset="1" stop-color="#fff"/></linearGradient><path d="M67.2 244.8L287.6 24.3" fill="none" stroke="url(#SVGID_8_)" stroke-linecap="round" stroke-linejoin="round" stroke-miterlimit="10"/></g><g id="kropki"><path d="M144 107h-15.1l-37.7 37.7h15zm287.1 343h-18.4l-13.2 13.2h18.4z" fill="#412578"/><path class="st12" d="M289.6 24.3c0 1.1-.9 2-2 2s-2-.9-2-2 .9-2 2-2 2 .9 2 2zM69.1 244.8c0 1.1-.9 2-2 2s-2-.9-2-2 .9-2 2-2 2 .9 2 2zm220.5 0c0 1.1-.9 2-2 2s-2-.9-2-2 .9-2 2-2 2 .9 2 2zM69.1 465.2c0 1.1-.9 2-2 2s-2-.9-2-2 .9-2 2-2c1.1.1 2 1 2 2z"/><path d="M392.5 357.1l30.8-30.8v10.1l-30.8 30.8z" fill="#1989be"/><path class="st12" d="M392.5 357.1l15.4-15.4v10.1l-15.4 15.4z"/></g></g><g id="Layer_2"><path d="M126 680l225-225" fill="none" stroke="#13bebb" stroke-width=".75" stroke-linecap="round" stroke-linejoin="round" stroke-miterlimit="10"/><path d="M45 716l63-63h99l-63 63z" opacity=".3" fill="#13bebb"/><path d="M18 563h18l45-45H63z" opacity=".2" fill="#13bebb"/><path d="M370.5 228.6l-7 7.1v31.8l7-7z" fill="#d25e19"/></g></svg>