<?xml version="1.0" encoding="utf-8"?>
<!-- Generator: Adobe Illustrator 22.1.0, SVG Export Plug-In . SVG Version: 6.00 Build 0)  -->
<svg version="1.1" id="Layer_1" xmlns="http://www.w3.org/2000/svg" xmlns:xlink="http://www.w3.org/1999/xlink" x="0px" y="0px"
	 viewBox="0 0 1588 1260" style="enable-background:new 0 0 1588 1260;" xml:space="preserve">
<style type="text/css">
	.st0{opacity:0.5;fill:url(#SVGID_1_);enable-background:new    ;}
	.st1{opacity:0.5;fill:url(#Vector_3_);enable-background:new    ;}
	.st2{opacity:0.5;fill:url(#Vector_4_);enable-background:new    ;}
	.st3{fill-opacity:0;}
	.st4{opacity:0.5;fill:url(#SVGID_2_);enable-background:new    ;}
	.st5{opacity:0.5;fill:url(#SVGID_3_);enable-background:new    ;}
	.st6{opacity:0.5;fill:url(#SVGID_4_);enable-background:new    ;}
	.st7{opacity:0.5;fill:url(#SVGID_5_);enable-background:new    ;}
	.st8{opacity:0.5;fill:url(#SVGID_6_);enable-background:new    ;}
	.st9{fill:url(#SVGID_7_);}
	.st10{fill:url(#SVGID_8_);}
	.st11{fill:url(#SVGID_9_);}
	.st12{fill:url(#SVGID_10_);}
	.st13{fill:url(#SVGID_11_);}
	.st14{fill:url(#SVGID_12_);}
	.st15{fill:#66BAA1;}
	.st16{fill:url(#SVGID_13_);}
	.st17{fill:url(#SVGID_14_);}
	.st18{fill:url(#SVGID_15_);}
	.st19{fill:url(#SVGID_16_);}
	.st20{fill:url(#SVGID_17_);}
	.st21{fill:url(#SVGID_18_);}
	.st22{fill:url(#SVGID_19_);}
	.st23{fill:url(#SVGID_20_);}
	.st24{fill:url(#SVGID_21_);}
	.st25{fill:url(#SVGID_22_);}
	.st26{fill:url(#SVGID_23_);}
	.st27{fill:url(#SVGID_24_);}
	.st28{fill:url(#SVGID_25_);}
	.st29{fill:url(#SVGID_26_);}
	.st30{fill:url(#SVGID_27_);}
	.st31{fill:url(#SVGID_28_);}
	.st32{fill:url(#SVGID_29_);}
	.st33{fill:url(#SVGID_30_);}
	.st34{fill:url(#SVGID_31_);}
	.st35{fill:url(#SVGID_32_);}
	.st36{fill:url(#SVGID_33_);}
	.st37{fill:url(#SVGID_34_);}
	.st38{fill:url(#SVGID_35_);}
	.st39{fill:url(#SVGID_36_);}
	.st40{fill:url(#SVGID_37_);}
	.st41{fill:url(#SVGID_38_);}
	.st42{fill:url(#SVGID_39_);}
	.st43{fill:url(#SVGID_40_);}
	.st44{fill:url(#SVGID_41_);}
	.st45{fill:url(#SVGID_42_);}
	.st46{fill:url(#SVGID_43_);}
	.st47{fill:#FFFFFF;}
	.st48{fill:#C62D1A;}
	.st49{fill:#EAEAEA;}
	.st50{fill:#D94018;}
	.st51{fill:url(#SVGID_44_);}
	.st52{fill:url(#SVGID_45_);}
	.st53{fill:#B2190C;}
	.st54{opacity:0.3;fill:url(#SVGID_46_);enable-background:new    ;}
	.st55{opacity:0.3;fill:url(#SVGID_47_);enable-background:new    ;}
	.st56{opacity:0.7;fill:url(#SVGID_48_);enable-background:new    ;}
	.st57{fill:url(#SVGID_49_);}
	.st58{fill:url(#SVGID_50_);}
	.st59{fill:url(#SVGID_51_);}
	.st60{fill:url(#SVGID_52_);}
	.st61{fill:url(#SVGID_53_);}
	.st62{fill:url(#SVGID_54_);}
	.st63{fill:url(#SVGID_55_);}
	.st64{fill:url(#SVGID_56_);}
	.st65{fill:url(#SVGID_57_);}
	.st66{opacity:0.3;fill:url(#SVGID_58_);enable-background:new    ;}
	.st67{opacity:0.2;fill:url(#SVGID_59_);enable-background:new    ;}
	.st68{fill:url(#SVGID_60_);}
	.st69{opacity:0.5;fill:url(#Vector_5_);enable-background:new    ;}
	.st70{fill:none;}
	.st71{opacity:0.5;fill:url(#Vector_2_2_);enable-background:new    ;}
	.st72{opacity:0.5;fill:url(#Vector_2_3_);enable-background:new    ;}
	.st73{opacity:0.5;fill:url(#Vector_3_1_);enable-background:new    ;}
	.st74{opacity:0.5;fill:url(#Vector_4_2_);enable-background:new    ;}
	.st75{opacity:0.5;fill:url(#Vector_4_3_);enable-background:new    ;}
	.st76{opacity:0.7;fill:#356DAA;enable-background:new    ;}
	.st77{opacity:0.7;fill:url(#SVGID_61_);enable-background:new    ;}
	.st78{opacity:0.7;fill:#295687;enable-background:new    ;}
	.st79{opacity:0.7;fill:url(#SVGID_62_);enable-background:new    ;}
	.st80{opacity:0.7;fill:url(#SVGID_63_);enable-background:new    ;}
	.st81{fill:#CC5C11;}
	.st82{opacity:0.2;}
	.st83{fill:none;stroke:#FFFFFF;stroke-width:1.8759;stroke-miterlimit:10;}
	.st84{fill:none;stroke:#FFFFFF;stroke-width:0.7633;stroke-miterlimit:10;}
	.st85{fill:#DD6D22;}
	.st86{opacity:0.3;fill:none;stroke:#FFFFFF;stroke-width:1.8759;stroke-miterlimit:10;enable-background:new    ;}
	.st87{opacity:0.8;}
	.st88{opacity:0.5;fill:url(#SVGID_64_);enable-background:new    ;}
	.st89{opacity:0.4;fill:url(#SVGID_65_);enable-background:new    ;}
	.st90{opacity:0.6;fill:url(#SVGID_66_);enable-background:new    ;}
	.st91{opacity:0.5;fill:url(#SVGID_67_);enable-background:new    ;}
	.st92{opacity:0.4;fill:url(#SVGID_68_);enable-background:new    ;}
	.st93{opacity:0.3;fill:url(#SVGID_69_);enable-background:new    ;}
	.st94{opacity:0.3;fill:url(#SVGID_70_);enable-background:new    ;}
	.st95{opacity:0.5;fill:url(#SVGID_71_);enable-background:new    ;}
	.st96{opacity:0.4;fill:url(#SVGID_72_);enable-background:new    ;}
	.st97{opacity:0.6;fill:url(#SVGID_73_);enable-background:new    ;}
	.st98{opacity:0.5;fill:url(#SVGID_74_);enable-background:new    ;}
	.st99{opacity:0.4;fill:url(#SVGID_75_);enable-background:new    ;}
	.st100{opacity:0.3;fill:url(#SVGID_76_);enable-background:new    ;}
	.st101{opacity:0.3;fill:url(#SVGID_77_);enable-background:new    ;}
	.st102{opacity:0.7;}
	.st103{opacity:0.5;fill:url(#SVGID_78_);enable-background:new    ;}
	.st104{opacity:0.4;fill:url(#SVGID_79_);enable-background:new    ;}
	.st105{opacity:0.6;fill:url(#SVGID_80_);enable-background:new    ;}
	.st106{opacity:0.5;fill:url(#SVGID_81_);enable-background:new    ;}
	.st107{opacity:0.4;fill:url(#SVGID_82_);enable-background:new    ;}
	.st108{opacity:0.3;fill:url(#SVGID_83_);enable-background:new    ;}
	.st109{opacity:0.3;fill:url(#SVGID_84_);enable-background:new    ;}
	.st110{opacity:0.5;}
	.st111{opacity:0.5;fill:url(#SVGID_85_);enable-background:new    ;}
	.st112{opacity:0.4;fill:url(#SVGID_86_);enable-background:new    ;}
	.st113{opacity:0.6;fill:url(#SVGID_87_);enable-background:new    ;}
	.st114{opacity:0.5;fill:url(#SVGID_88_);enable-background:new    ;}
	.st115{opacity:0.4;fill:url(#SVGID_89_);enable-background:new    ;}
	.st116{opacity:0.3;fill:url(#SVGID_90_);enable-background:new    ;}
	.st117{opacity:0.3;fill:url(#SVGID_91_);enable-background:new    ;}
	.st118{opacity:0.5;fill:url(#SVGID_92_);enable-background:new    ;}
	.st119{opacity:0.4;fill:url(#SVGID_93_);enable-background:new    ;}
	.st120{opacity:0.6;fill:url(#SVGID_94_);enable-background:new    ;}
	.st121{opacity:0.5;fill:url(#SVGID_95_);enable-background:new    ;}
	.st122{opacity:0.4;fill:url(#SVGID_96_);enable-background:new    ;}
	.st123{opacity:0.3;fill:url(#SVGID_97_);enable-background:new    ;}
	.st124{opacity:0.3;fill:url(#SVGID_98_);enable-background:new    ;}
	.st125{opacity:0.5;fill:url(#SVGID_99_);enable-background:new    ;}
	.st126{opacity:0.4;fill:url(#SVGID_100_);enable-background:new    ;}
	.st127{opacity:0.6;fill:url(#SVGID_101_);enable-background:new    ;}
	.st128{opacity:0.5;fill:url(#SVGID_102_);enable-background:new    ;}
	.st129{opacity:0.4;fill:url(#SVGID_103_);enable-background:new    ;}
	.st130{opacity:0.3;fill:url(#SVGID_104_);enable-background:new    ;}
	.st131{opacity:0.3;fill:url(#SVGID_105_);enable-background:new    ;}
	.st132{opacity:0.5;fill:url(#SVGID_106_);enable-background:new    ;}
	.st133{opacity:0.4;fill:url(#SVGID_107_);enable-background:new    ;}
	.st134{opacity:0.6;fill:url(#SVGID_108_);enable-background:new    ;}
	.st135{opacity:0.5;fill:url(#SVGID_109_);enable-background:new    ;}
	.st136{opacity:0.4;fill:url(#SVGID_110_);enable-background:new    ;}
	.st137{opacity:0.3;fill:url(#SVGID_111_);enable-background:new    ;}
	.st138{opacity:0.3;fill:url(#SVGID_112_);enable-background:new    ;}
	.st139{opacity:0.5;fill:url(#SVGID_113_);enable-background:new    ;}
	.st140{opacity:0.4;fill:url(#SVGID_114_);enable-background:new    ;}
	.st141{opacity:0.6;fill:url(#SVGID_115_);enable-background:new    ;}
	.st142{opacity:0.5;fill:url(#SVGID_116_);enable-background:new    ;}
	.st143{opacity:0.4;fill:url(#SVGID_117_);enable-background:new    ;}
	.st144{opacity:0.3;fill:url(#SVGID_118_);enable-background:new    ;}
	.st145{opacity:0.3;fill:url(#SVGID_119_);enable-background:new    ;}
	.st146{opacity:0.5;fill:url(#SVGID_120_);enable-background:new    ;}
	.st147{opacity:0.4;fill:url(#SVGID_121_);enable-background:new    ;}
	.st148{opacity:0.6;fill:url(#SVGID_122_);enable-background:new    ;}
	.st149{opacity:0.5;fill:url(#SVGID_123_);enable-background:new    ;}
	.st150{opacity:0.4;fill:url(#SVGID_124_);enable-background:new    ;}
	.st151{opacity:0.3;fill:url(#SVGID_125_);enable-background:new    ;}
	.st152{opacity:0.3;fill:url(#SVGID_126_);enable-background:new    ;}
	.st153{opacity:0.5;fill:url(#SVGID_127_);enable-background:new    ;}
	.st154{opacity:0.4;fill:url(#SVGID_128_);enable-background:new    ;}
	.st155{opacity:0.6;fill:url(#SVGID_129_);enable-background:new    ;}
	.st156{opacity:0.5;fill:url(#SVGID_130_);enable-background:new    ;}
	.st157{opacity:0.4;fill:url(#SVGID_131_);enable-background:new    ;}
	.st158{opacity:0.3;fill:url(#SVGID_132_);enable-background:new    ;}
	.st159{opacity:0.3;fill:url(#SVGID_133_);enable-background:new    ;}
	.st160{opacity:0.5;fill:url(#SVGID_134_);enable-background:new    ;}
	.st161{opacity:0.4;fill:url(#SVGID_135_);enable-background:new    ;}
	.st162{opacity:0.6;fill:url(#SVGID_136_);enable-background:new    ;}
	.st163{opacity:0.5;fill:url(#SVGID_137_);enable-background:new    ;}
	.st164{opacity:0.4;fill:url(#SVGID_138_);enable-background:new    ;}
	.st165{opacity:0.3;fill:url(#SVGID_139_);enable-background:new    ;}
	.st166{opacity:0.3;fill:url(#SVGID_140_);enable-background:new    ;}
	.st167{opacity:0.3;}
	.st168{opacity:0.5;fill:url(#SVGID_141_);enable-background:new    ;}
	.st169{opacity:0.4;fill:url(#SVGID_142_);enable-background:new    ;}
	.st170{opacity:0.6;fill:url(#SVGID_143_);enable-background:new    ;}
	.st171{opacity:0.5;fill:url(#SVGID_144_);enable-background:new    ;}
	.st172{opacity:0.4;fill:url(#SVGID_145_);enable-background:new    ;}
	.st173{opacity:0.3;fill:url(#SVGID_146_);enable-background:new    ;}
	.st174{opacity:0.3;fill:url(#SVGID_147_);enable-background:new    ;}
	.st175{opacity:0.5;fill:url(#SVGID_148_);enable-background:new    ;}
	.st176{opacity:0.4;fill:url(#SVGID_149_);enable-background:new    ;}
	.st177{opacity:0.6;fill:url(#SVGID_150_);enable-background:new    ;}
	.st178{opacity:0.5;fill:url(#SVGID_151_);enable-background:new    ;}
	.st179{opacity:0.4;fill:url(#SVGID_152_);enable-background:new    ;}
	.st180{opacity:0.3;fill:url(#SVGID_153_);enable-background:new    ;}
	.st181{opacity:0.3;fill:url(#SVGID_154_);enable-background:new    ;}
	.st182{opacity:0.4;}
	.st183{opacity:0.5;fill:url(#SVGID_155_);enable-background:new    ;}
	.st184{opacity:0.4;fill:url(#SVGID_156_);enable-background:new    ;}
	.st185{opacity:0.6;fill:url(#SVGID_157_);enable-background:new    ;}
	.st186{opacity:0.5;fill:url(#SVGID_158_);enable-background:new    ;}
	.st187{opacity:0.4;fill:url(#SVGID_159_);enable-background:new    ;}
	.st188{opacity:0.3;fill:url(#SVGID_160_);enable-background:new    ;}
	.st189{opacity:0.3;fill:url(#SVGID_161_);enable-background:new    ;}
	.st190{opacity:0.5;fill:url(#SVGID_162_);enable-background:new    ;}
	.st191{opacity:0.4;fill:url(#SVGID_163_);enable-background:new    ;}
	.st192{opacity:0.6;fill:url(#SVGID_164_);enable-background:new    ;}
	.st193{opacity:0.5;fill:url(#SVGID_165_);enable-background:new    ;}
	.st194{opacity:0.4;fill:url(#SVGID_166_);enable-background:new    ;}
	.st195{opacity:0.3;fill:url(#SVGID_167_);enable-background:new    ;}
	.st196{opacity:0.3;fill:url(#SVGID_168_);enable-background:new    ;}
	.st197{opacity:0.6;}
	.st198{opacity:0.5;fill:url(#SVGID_169_);enable-background:new    ;}
	.st199{opacity:0.4;fill:url(#SVGID_170_);enable-background:new    ;}
	.st200{opacity:0.6;fill:url(#SVGID_171_);enable-background:new    ;}
	.st201{opacity:0.5;fill:url(#SVGID_172_);enable-background:new    ;}
	.st202{opacity:0.4;fill:url(#SVGID_173_);enable-background:new    ;}
	.st203{opacity:0.3;fill:url(#SVGID_174_);enable-background:new    ;}
	.st204{opacity:0.3;fill:url(#SVGID_175_);enable-background:new    ;}
	.st205{fill:none;stroke:url(#SVGID_176_);stroke-width:5.2444;stroke-miterlimit:10;}
	.st206{fill:none;stroke:url(#SVGID_177_);stroke-width:5.2444;stroke-miterlimit:10;}
	.st207{fill:none;stroke:url(#SVGID_178_);stroke-width:4.9143;stroke-miterlimit:10;}
</style>
<linearGradient id="Vector_3_" gradientUnits="userSpaceOnUse" x1="1031.3142" y1="-2602.5913" x2="122.3692" y2="-2602.5913" gradientTransform="matrix(1 8.412677e-04 8.412677e-04 -1 0.65 -1548.1194)">
	<stop  offset="0" style="stop-color:#255487"/>
	<stop  offset="1" style="stop-color:#66BAA1"/>
</linearGradient>
<path id="Vector" class="st1" d="M1029.8,989.3l-779.1-0.7l-130,131.9l779.1,0.7L1029.8,989.3z"/>
<rect id="language_01b" x="367.3" y="207.5" class="st70" width="948" height="948.4"/>
<linearGradient id="Vector_2_2_" gradientUnits="userSpaceOnUse" x1="1409.4166" y1="-1911.3054" x2="1223.7184" y2="-1911.3054" gradientTransform="matrix(1 8.412677e-04 8.412677e-04 -1 0.65 -1548.1194)">
	<stop  offset="0" style="stop-color:#255487"/>
	<stop  offset="1" style="stop-color:#66BAA1"/>
</linearGradient>
<path id="Vector_2" class="st71" d="M1408.5,349.7l-159.2-0.1l-26.6,29.3l159.2,0.1L1408.5,349.7z"/>
<linearGradient id="Vector_3_1_" gradientUnits="userSpaceOnUse" x1="505.1885" y1="-2331.4927" x2="70.2633" y2="-2331.4927" gradientTransform="matrix(1 8.412677e-04 8.412677e-04 -1 0.65 -1548.1194)">
	<stop  offset="0" style="stop-color:#255487"/>
	<stop  offset="1" style="stop-color:#66BAA1"/>
</linearGradient>
<path id="Vector_3" class="st73" d="M503.9,752l-372.8-0.3l-62.2,63.5l372.8,0.3L503.9,752z"/>
<linearGradient id="Vector_4_2_" gradientUnits="userSpaceOnUse" x1="1531.5912" y1="-2695.9282" x2="1096.666" y2="-2695.9282" gradientTransform="matrix(1 8.412677e-04 8.412677e-04 -1 0.65 -1548.1194)">
	<stop  offset="0" style="stop-color:#255487"/>
	<stop  offset="1" style="stop-color:#66BAA1"/>
</linearGradient>
<path id="Vector_4" class="st74" d="M1530,1117.3l-372.8-0.3l-62.2,63.5l372.8,0.3L1530,1117.3z"/>
<g>
	<g>
		<g>
			<polygon class="st76" points="400.9,1011.9 674.5,738.3 1221.7,738.3 948.1,1011.9 			"/>
			
				<linearGradient id="SVGID_1_" gradientUnits="userSpaceOnUse" x1="565.1392" y1="-2448.9324" x2="897.2015" y2="-1972.4127" gradientTransform="matrix(1 0 0 -1 0 -1547.4487)">
				<stop  offset="0" style="stop-color:#1C4163"/>
				<stop  offset="1" style="stop-color:#1886B5"/>
			</linearGradient>
			<rect x="400.9" y="471" style="opacity:0.7;fill:url(#SVGID_1_);enable-background:new    ;" width="547.2" height="547.2"/>
			<rect x="671.1" y="194" class="st78" width="547.2" height="547.2"/>
			
				<linearGradient id="SVGID_2_" gradientUnits="userSpaceOnUse" x1="1085.4441" y1="-2151.2236" x2="1295.5635" y2="-1914.8389" gradientTransform="matrix(1 0 0 -1 0 -1547.4487)">
				<stop  offset="0" style="stop-color:#255487"/>
				<stop  offset="1" style="stop-color:#1886B5"/>
			</linearGradient>
			<polygon style="opacity:0.7;fill:url(#SVGID_2_);enable-background:new    ;" points="1221.7,194 948.1,467.6 948.1,1014.8 
				1221.7,741.2 			"/>
			
				<linearGradient id="SVGID_3_" gradientUnits="userSpaceOnUse" x1="400.8596" y1="-1878.2755" x2="1221.6575" y2="-1878.2755" gradientTransform="matrix(1 0 0 -1 0 -1547.4487)">
				<stop  offset="0" style="stop-color:#255487"/>
				<stop  offset="1" style="stop-color:#1886B5"/>
			</linearGradient>
			<polygon style="opacity:0.7;fill:url(#SVGID_3_);enable-background:new    ;" points="400.9,467.6 674.5,194 1221.7,194 
				948.1,467.6 			"/>
		</g>
	</g>
	<g>
		<g>
			<polygon class="st81" points="533.8,756.3 575.2,756.3 590.7,771.7 605.2,771.7 605.2,791 621.2,807 643.8,807 651.3,814.5 
				651.3,834.8 638.5,847.6 638.5,874.3 590.9,921.9 590.9,951.5 583.5,958.9 583.5,973.4 597.9,987.8 591.7,994 565.3,967.6 
				565.3,900.1 555.7,890.5 555.7,862.9 519.8,826.9 519.8,786.3 533.9,772.1 			"/>
			<polygon class="st81" points="516.9,767.9 487.1,738.2 477.6,738.2 459,719.6 459,705.3 434.7,681 434.7,646.7 467.8,613.6 
				467.8,579.1 454.1,565.4 442.1,577.4 403.3,577.4 403.3,569.1 425.2,569.1 460.9,533.4 489,533.4 500.2,544.6 529,544.6 
				538.7,554.2 559.5,554.2 572.1,541.7 590.5,541.7 590.5,561.5 582.4,569.6 566.2,569.6 546.6,589.1 560.2,602.7 560.2,612.4 
				569,612.4 587.5,594 587.5,577.2 599.5,577.2 599.5,589.1 618.8,608.4 618.8,622.9 609.6,632.1 585.5,632.1 534.9,682.7 
				534.9,696.7 526,705.7 526,686.3 497.6,686.3 485,698.9 485,727.2 502.8,727.2 502.8,737.2 516.6,737.2 			"/>
		</g>
	</g>
	<g class="st82">
		<g>
			<rect x="400.9" y="467.6" class="st83" width="547.2" height="547.2"/>
			<polygon class="st83" points="1221.7,194 948.1,467.6 948.1,1014.8 1221.7,741.2 			"/>
			<polygon class="st83" points="400.9,467.6 674.5,194 1221.7,194 948.1,467.6 			"/>
		</g>
	</g>
	<g>
		<circle class="st47" cx="555.9" cy="599.2" r="6.5"/>
		
			<ellipse transform="matrix(7.088900e-02 -0.9975 0.9975 7.088900e-02 -81.1531 1111.2095)" class="st84" cx="555.9" cy="599.2" rx="28.6" ry="28.6"/>
	</g>
	<g>
		<circle class="st47" cx="562.4" cy="800" r="6.5"/>
		
			<ellipse transform="matrix(7.088900e-02 -0.9975 0.9975 7.088900e-02 -275.4381 1304.266)" class="st84" cx="562.4" cy="800" rx="28.6" ry="28.6"/>
	</g>
	<g>
		<circle class="st47" cx="449.4" cy="634.3" r="6.5"/>
		<circle class="st84" cx="449.4" cy="634.3" r="28.6"/>
	</g>
	<polygon class="st81" points="961.3,742.6 961.3,730.8 952.8,730.8 952.8,722.4 949.4,722.4 948.1,723.8 948.1,755.8 	"/>
	<g>
		<polygon class="st81" points="944.1,490.1 929.9,504.3 915.7,504.3 915.7,516.3 904.7,516.3 900.1,520.9 887,520.9 869.4,538.5 
			861,538.5 861,533.5 854.9,527.4 861.3,527.4 864.1,530.2 869.2,530.2 869.2,523.5 866.2,520.5 854,520.5 845.4,511.9 
			830.8,511.9 816.9,525.8 816.9,529.1 799.5,546.5 799.5,555.3 804.9,560.7 808,560.7 813.4,555.3 815,556.8 815,562.2 
			820.7,567.9 825.2,567.9 825.2,558.8 828.5,555.5 828.5,550.7 825.5,547.6 825.5,542.8 832.3,536 832.3,531.6 839.2,531.6 
			842.7,535.1 838.7,535.1 833.7,540.1 833.7,550.3 836.6,553.2 844.2,553.2 847.9,549.5 851.7,549.5 856.7,554.6 844,554.6 
			840,558.5 840,561.5 837.2,561.5 835.2,563.5 835.2,573.2 832.3,573.2 830.6,571.4 826.2,571.4 822.3,575.3 820.1,573.1 
			812.5,573.1 812.5,562 809.8,562 806.3,565.5 806.3,571.7 810.2,575.6 805.2,575.6 803.1,577.6 799,577.6 799,583.3 792.5,589.8 
			784.1,589.8 780.2,593.8 775.6,593.8 775.6,596.7 780.8,601.8 785.1,601.8 785.1,613.9 779.8,613.9 777.4,611.4 765.3,611.5 
			765.3,630.7 774.5,639.9 778.3,636 787.3,636 787.3,626.3 796.7,616.9 805,616.9 811.7,610.1 830.2,628.5 830.2,633.4 
			832.7,635.9 832.7,627.9 836.2,627.9 836.2,623.4 820.2,607.4 824.2,603.4 839.5,618.8 839.5,625.4 844.7,630.6 844.7,635.7 
			848,638.9 852.2,638.9 852.2,622.9 867.2,622.9 859.4,615.2 859.4,607.2 864.4,602.2 870.5,602.2 876,607.7 880.2,603.5 
			880.2,600.5 884.9,600.5 884.9,608 890.2,613.4 893.2,613.4 896.4,616.5 896.4,620.2 883.5,620.2 880.6,617.3 873.4,617.3 
			873.4,620.2 868.5,625 858.2,625 858.2,628.5 860.2,630.5 860.2,635.5 863.4,638.8 885,638.8 885,645 883,647 883,655.4 
			878.4,660 878.4,655.7 845.2,655.7 845.2,664.2 837.7,664.2 814.9,641.4 775.6,641.4 761.4,655.5 761.4,665.2 751.6,665.2 
			735.9,681 735.9,722.2 765.5,751.9 803.6,751.9 815.6,763.8 815.6,775.8 824.1,784.3 824.1,815.8 818.4,821.5 818.4,833.8 
			832.8,848.2 832.8,896.4 849.2,896.4 882.2,863.3 887.7,863.3 887.7,842.8 906,824.6 906,782.3 939.6,748.6 939.6,725.8 
			915.2,725.8 891.2,701.7 891.2,687.2 878.4,674.5 878.4,666.3 882.3,670.1 888.5,670.1 900.8,682.3 900.8,697.6 913.6,710.4 
			913.6,714.6 916.6,717.6 916.6,722.2 923,722.2 928.5,716.8 940.4,716.8 940.4,709.9 944.7,705.6 944.7,677.1 940.5,681.3 
			934.2,681.3 917.3,664.4 922.5,659.2 929.2,659.2 943.1,673.1 944.7,673.1 944.7,490.1 		"/>
		<polygon class="st81" points="914.2,833.3 914.2,845.8 909.1,850.9 909.1,859.5 914.3,864.6 920.4,864.6 927.9,857.2 927.9,844.8 
			933.6,839.1 933.4,812.8 		"/>
		<polygon class="st81" points="766.6,577.5 762.9,581.3 766,584.4 769.9,580.6 774.1,580.6 774.1,574.5 776,572.7 776,570.2 
			769.6,570.2 766.6,573.2 		"/>
		<polygon class="st81" points="778.7,590.6 783.1,586.3 790.1,586.3 793.5,582.9 793.5,577.3 790,577.3 790,573.3 782.9,566.2 
			787,562.2 787,560.2 781.1,560.2 781.1,557.5 778.3,557.5 778.3,572.5 781.3,572.5 784.9,576.1 778.3,576.1 778.3,581.2 
			781,583.9 776.5,588.4 		"/>
		<polygon class="st81" points="700.2,551.5 696.6,547.8 696.2,549.2 693.4,549.2 693.4,552.8 695.6,552.8 701.1,558.2 709.7,558.2 
			712.1,555.8 716.2,555.8 716.2,553.1 712.3,549.2 702.6,549.2 		"/>
		<polygon class="st81" points="892.6,512.6 899.5,512.6 899.5,510 896.4,510 892.4,506 892.4,500.3 900.1,492.6 906.5,492.6 
			906.5,489.3 901.5,489.3 899.8,490.8 893.9,490.8 888.2,496.5 888.2,504.6 886.1,506.7 886.1,510 890,510 		"/>
		<polygon class="st81" points="675.1,539 675.1,533.9 678.6,533.9 678.6,527.2 684.3,521.5 684.3,508.6 688.4,504.5 688.4,501.5 
			700.5,501.5 700.5,496.4 683.6,496.4 678.7,491.5 663.4,491.5 659.3,495.6 633,495.6 628.4,500.2 616.2,500.2 611,505.4 
			602,504.9 602,511.4 606.2,515.6 614.2,515.6 619.4,520.7 619.4,526.9 614.6,531.6 617.2,534.2 621.7,534.2 621.7,539.7 
			617.5,544 614.5,544 609.7,548.8 609.7,560.1 612.5,562.8 612.5,571.4 617.5,571.4 621.5,575.3 624.4,575.3 628.1,571.6 
			628.1,562.7 640.1,550.6 650.9,550.6 656,545.5 668.6,545.5 		"/>
	</g>
	<g>
		<polygon class="st85" points="1092.1,425.8 1092.1,420.5 1080.9,414.3 1086.5,409.6 1086.5,398.4 1089.2,392.5 1074.8,384.6 
			1052.3,403.5 1046.9,415.6 1043.6,418.4 1038.3,415.4 1021.4,429.6 1010.9,438.4 1006.2,448.9 997.7,456 991.8,452.7 972.9,468.5 
			968,465.8 954.4,477.2 950.3,486.3 944.7,491.1 944.7,674 948.2,671 950.8,672.5 967.4,658.5 979.1,664.9 982.9,661.8 982.9,674 
			987.8,676.7 987.8,681.8 992.8,684.5 992.8,702.8 995.2,700.8 1001.7,686.3 1001.7,662.7 1017.4,627.8 1021.7,624.1 1030.4,628.8 
			1030.4,638 1032.8,635.9 1035.3,630.3 1035.3,637.6 1038.8,639.6 1038.8,660.7 1045.4,664.4 1045.4,670 1048.7,671.8 
			1048.7,675.4 1052.4,677.4 1052.4,661.2 1042,655.4 1042,639.4 1045,636.8 1054.3,641.9 1054.3,646.3 1056.1,644.7 1062.5,630.3 
			1062.5,615.8 1051.1,609.5 1051.1,603.7 1055.6,593.8 1062.5,587.9 1066,580.3 1070.2,576.8 1074.4,567.5 1074.4,543.1 
			1061.5,536.1 1066.1,525.9 1066.1,521.3 1056.3,529.5 1054,528.2 1060.2,514.4 1060.2,521 1062.9,518.8 1066.3,511.1 1078.7,518 
			1081.1,512.8 1070.9,507.2 1073.9,500.3 1070.9,498.7 1074.4,490.8 1076.2,491.7 1077.5,490.6 1077.5,469.1 1055.2,456.8 
			1055.2,443.6 1064.1,436.1 1068.2,427 1068.2,419.5 1074.4,414.2 1077.3,415.8 1077.3,429.1 1094.6,438.7 1097.7,436.1 
			1097.7,428.9 		"/>
		<polygon class="st85" points="1134.4,733.8 1141,719.1 1141,692.4 1138,690.8 1138,672.7 1135.3,671.3 1135.3,658.1 1131.1,667.6 
			1131.1,679 1123.9,695 1115.5,690.4 1119.8,680.8 1110.9,675.9 1104.9,689.3 1104.9,696.6 1101.5,699.4 1101.5,693.1 
			1097.5,696.5 1089.1,715 1089.1,722.2 1083.3,735.2 1075.6,741.7 1063.7,768.2 1063.7,792.4 1057.2,806.9 1056.9,821.7 
			1064.4,804.9 1074.2,796.7 1081.3,780.8 1089.3,774 1093.2,776.2 1093.2,786.4 1095,784.9 1098.8,776.5 1098.8,792.5 
			1101.8,794.2 1114.2,783.8 1134.4,738.9 		"/>
		<polygon class="st85" points="1097.6,811 1097.6,820.7 1099.9,821.9 1108,804.1 1108,799.6 1098.9,807.1 		"/>
		<polygon class="st85" points="1136.9,796.1 1130.9,801.2 1124.5,815.4 1127.1,818.6 1132.6,806.2 1137.9,801.8 1144.5,787.1 
			1148.1,784 1150.8,778.1 1150.8,771.6 1146.2,775.4 		"/>
		<polygon class="st85" points="1161.5,741.9 1161.5,752.8 1156.9,763 1153.5,765.9 1153.5,772.4 1157.2,768.7 1163.9,753.9 
			1163.9,736.6 		"/>
		<polygon class="st85" points="1054.3,688.7 1054,682 1037.8,673.2 1033.6,676.7 1033.6,682.3 1045.2,688.7 1045.2,694.6 
			1055.7,700.4 1059.5,697.2 1059.5,684.3 		"/>
		<polygon class="st85" points="1064.8,681.6 1082,667.2 1082,627.8 1064.8,666.1 		"/>
		<polygon class="st85" points="1095.9,508.8 1103.4,502.4 1103.4,480.9 1094.7,476.1 1091.5,483.2 1097.7,486.6 1097.7,500.1 
			1091.2,505.5 1084.8,519.7 1089.4,522.2 		"/>
		<polygon class="st85" points="1128.9,644.3 1128.9,652.2 1138.4,644.2 1138.4,638.5 1142.3,640.7 1142.3,646.8 1150.6,639.8 
			1145.9,637.2 1145.9,627.4 1142.6,625.6 1142.6,621.5 1134.7,617.1 1127.1,623.7 1122.4,634.1 1115.6,639.8 1115.6,645 
			1121.3,640.2 		"/>
		<polygon class="st85" points="1060,705.3 1068.3,698.3 1070.7,699.6 1086.5,686.3 1084.3,685.1 1075.3,692.6 1069.1,689.3 
			1059.5,697.2 1056.7,703.5 		"/>
		<polygon class="st85" points="1078.1,558.3 1078.1,567.7 1081.6,569.6 1081.6,555.4 		"/>
		<polygon class="st85" points="1083.9,580.4 1083.9,596.7 1086.4,598.1 1089.2,591.9 1086.7,590.6 1086.7,578 		"/>
	</g>
	<g>
		<circle class="st47" cx="776" cy="755.3" r="6.5"/>
		<circle class="st84" cx="776" cy="755.3" r="28.6"/>
	</g>
	<g>
		<circle class="st47" cx="832.3" cy="598.4" r="6.5"/>
		<circle class="st84" cx="832.3" cy="598.4" r="28.6"/>
	</g>
	<g>
		<circle class="st47" cx="1046.6" cy="596" r="6.5"/>
		<circle class="st84" cx="1046.6" cy="596" r="28.6"/>
	</g>
	<g>
		<circle class="st47" cx="1078.1" cy="773.2" r="6.5"/>
		<circle class="st84" cx="1078.1" cy="773.2" r="28.6"/>
	</g>
	<g>
		<circle class="st47" cx="1141" cy="646.6" r="6.5"/>
		<circle class="st84" cx="1141" cy="646.6" r="28.6"/>
	</g>
	<g>
		<polyline class="st86" points="583.5,1014.8 583.5,467.6 857.1,194 		"/>
		<polyline class="st86" points="765.5,1014.8 765.5,467.6 1039.5,193.6 		"/>
		<polyline class="st86" points="1040,924.3 1040,377.1 491.4,377.1 		"/>
		<polyline class="st86" points="1130.8,831.8 1130.8,284.6 583.5,284.6 		"/>
	</g>
	<polyline class="st86" points="400.9,650.7 944.7,650.7 1220,375.4 	"/>
	<polyline class="st86" points="400.9,832.7 948.1,832.7 1221.7,559.1 	"/>
</g>
</svg>
