<svg xmlns="http://www.w3.org/2000/svg" viewBox="0 0 1588 1260"><style>.st47{fill:#fff}.st81{fill:#cc5c11}.st84{fill:none;stroke:#fff;stroke-width:.7633;stroke-miterlimit:10}</style><linearGradient id="Vector_3_" gradientUnits="userSpaceOnUse" x1="1031.314" y1="-2602.591" x2="122.369" y2="-2602.591" gradientTransform="matrix(1 .001 .001 -1 .65 -1548.119)"><stop offset="0" stop-color="#255487"/><stop offset="1" stop-color="#66BAA1"/></linearGradient><path id="Vector" d="M1029.8 989.3l-779.1-.7-130 131.9 779.1.7 130-131.9z" opacity=".5" fill="url(#Vector_3_)"/><path id="language_01b" d="M367.3 207.5h948v948.4h-948z" fill="none"/><linearGradient id="Vector_2_2_" gradientUnits="userSpaceOnUse" x1="1409.417" y1="-1911.305" x2="1223.718" y2="-1911.305" gradientTransform="matrix(1 .001 .001 -1 .65 -1548.119)"><stop offset="0" stop-color="#255487"/><stop offset="1" stop-color="#66BAA1"/></linearGradient><path id="Vector_2" d="M1408.5 349.7l-159.2-.1-26.6 29.3 159.2.1 26.6-29.3z" opacity=".5" fill="url(#Vector_2_2_)"/><linearGradient id="Vector_3_1_" gradientUnits="userSpaceOnUse" x1="505.188" y1="-2331.493" x2="70.263" y2="-2331.493" gradientTransform="matrix(1 .001 .001 -1 .65 -1548.119)"><stop offset="0" stop-color="#255487"/><stop offset="1" stop-color="#66BAA1"/></linearGradient><path id="Vector_3" d="M503.9 752l-372.8-.3-62.2 63.5 372.8.3 62.2-63.5z" opacity=".5" fill="url(#Vector_3_1_)"/><linearGradient id="Vector_4_2_" gradientUnits="userSpaceOnUse" x1="1531.591" y1="-2695.928" x2="1096.666" y2="-2695.928" gradientTransform="matrix(1 .001 .001 -1 .65 -1548.119)"><stop offset="0" stop-color="#255487"/><stop offset="1" stop-color="#66BAA1"/></linearGradient><path id="Vector_4" d="M1530 1117.3l-372.8-.3-62.2 63.5 372.8.3 62.2-63.5z" opacity=".5" fill="url(#Vector_4_2_)"/><path d="M400.9 1011.9l273.6-273.6h547.2l-273.6 273.6z" opacity=".7" fill="#356daa"/><linearGradient id="SVGID_1_" gradientUnits="userSpaceOnUse" x1="565.139" y1="-2448.932" x2="897.202" y2="-1972.413" gradientTransform="matrix(1 0 0 -1 0 -1547.449)"><stop offset="0" stop-color="#1C4163"/><stop offset="1" stop-color="#1886B5"/></linearGradient><path opacity=".7" fill="url(#SVGID_1_)" d="M400.9 471h547.2v547.2H400.9z"/><path d="M671.1 194h547.2v547.2H671.1z" opacity=".7" fill="#295687"/><linearGradient id="SVGID_2_" gradientUnits="userSpaceOnUse" x1="1085.444" y1="-2151.224" x2="1295.563" y2="-1914.839" gradientTransform="matrix(1 0 0 -1 0 -1547.449)"><stop offset="0" stop-color="#255487"/><stop offset="1" stop-color="#1886B5"/></linearGradient><path opacity=".7" fill="url(#SVGID_2_)" d="M1221.7 194L948.1 467.6v547.2l273.6-273.6z"/><linearGradient id="SVGID_3_" gradientUnits="userSpaceOnUse" x1="400.86" y1="-1878.275" x2="1221.658" y2="-1878.275" gradientTransform="matrix(1 0 0 -1 0 -1547.449)"><stop offset="0" stop-color="#255487"/><stop offset="1" stop-color="#1886B5"/></linearGradient><path opacity=".7" fill="url(#SVGID_3_)" d="M400.9 467.6L674.5 194h547.2L948.1 467.6z"/><path class="st81" d="M533.8 756.3h41.4l15.5 15.4h14.5V791l16 16h22.6l7.5 7.5v20.3l-12.8 12.8v26.7l-47.6 47.6v29.6l-7.4 7.4v14.5l14.4 14.4-6.2 6.2-26.4-26.4v-67.5l-9.6-9.6v-27.6l-35.9-36v-40.6l14.1-14.2zm-16.9 11.6l-29.8-29.7h-9.5L459 719.6v-14.3L434.7 681v-34.3l33.1-33.1v-34.5l-13.7-13.7-12 12h-38.8v-8.3h21.9l35.7-35.7H489l11.2 11.2H529l9.7 9.6h20.8l12.6-12.5h18.4v19.8l-8.1 8.1h-16.2l-19.6 19.5 13.6 13.6v9.7h8.8l18.5-18.4v-16.8h12v11.9l19.3 19.3v14.5l-9.2 9.2h-24.1l-50.6 50.6v14l-8.9 9v-19.4h-28.4L485 698.9v28.3h17.8v10h13.8z"/><path d="M400.9 467.6h547.2v547.2H400.9zM1221.7 194L948.1 467.6v547.2l273.6-273.6zM400.9 467.6L674.5 194h547.2L948.1 467.6z" fill="none" stroke="#fff" stroke-width="1.876" stroke-miterlimit="10" opacity=".2"/><circle class="st47" cx="555.9" cy="599.2" r="6.5"/><ellipse transform="rotate(-85.93 555.669 598.857)" class="st84" cx="555.9" cy="599.2" rx="28.6" ry="28.6"/><circle class="st47" cx="562.4" cy="800" r="6.5"/><ellipse transform="rotate(-85.93 562.163 799.58)" class="st84" cx="562.4" cy="800" rx="28.6" ry="28.6"/><circle class="st47" cx="449.4" cy="634.3" r="6.5"/><circle class="st84" cx="449.4" cy="634.3" r="28.6"/><path class="st81" d="M961.3 742.6v-11.8h-8.5v-8.4h-3.4l-1.3 1.4v32zm-17.2-252.5l-14.2 14.2h-14.2v12h-11l-4.6 4.6H887l-17.6 17.6H861v-5l-6.1-6.1h6.4l2.8 2.8h5.1v-6.7l-3-3H854l-8.6-8.6h-14.6l-13.9 13.9v3.3l-17.4 17.4v8.8l5.4 5.4h3.1l5.4-5.4 1.6 1.5v5.4l5.7 5.7h4.5v-9.1l3.3-3.3v-4.8l-3-3.1v-4.8l6.8-6.8v-4.4h6.9l3.5 3.5h-4l-5 5v10.2l2.9 2.9h7.6l3.7-3.7h3.8l5 5.1H844l-4 3.9v3h-2.8l-2 2v9.7h-2.9l-1.7-1.8h-4.4l-3.9 3.9-2.2-2.2h-7.6V562h-2.7l-3.5 3.5v6.2l3.9 3.9h-5l-2.1 2H799v5.7l-6.5 6.5h-8.4l-3.9 4h-4.6v2.9l5.2 5.1h4.3v12.1h-5.3l-2.4-2.5-12.1.1v19.2l9.2 9.2 3.8-3.9h9v-9.7l9.4-9.4h8.3l6.7-6.8 18.5 18.4v4.9l2.5 2.5v-8h3.5v-4.5l-16-16 4-4 15.3 15.4v6.6l5.2 5.2v5.1l3.3 3.2h4.2v-16h15l-7.8-7.7v-8l5-5h6.1l5.5 5.5 4.2-4.2v-3h4.7v7.5l5.3 5.4h3l3.2 3.1v3.7h-12.9l-2.9-2.9h-7.2v2.9l-4.9 4.8h-10.3v3.5l2 2v5l3.2 3.3H885v6.2l-2 2v8.4l-4.6 4.6v-4.3h-33.2v8.5h-7.5l-22.8-22.8h-39.3l-14.2 14.1v9.7h-9.8L735.9 681v41.2l29.6 29.7h38.1l12 11.9v12l8.5 8.5v31.5l-5.7 5.7v12.3l14.4 14.4v48.2h16.4l33-33.1h5.5v-20.5l18.3-18.2v-42.3l33.6-33.7v-22.8h-24.4l-24-24.1v-14.5l-12.8-12.7v-8.2l3.9 3.8h6.2l12.3 12.2v15.3l12.8 12.8v4.2l3 3v4.6h6.4l5.5-5.4h11.9v-6.9l4.3-4.3v-28.5l-4.2 4.2h-6.3l-16.9-16.9 5.2-5.2h6.7l13.9 13.9h1.6v-183zm-29.9 343.2v12.5l-5.1 5.1v8.6l5.2 5.1h6.1l7.5-7.4v-12.4l5.7-5.7-.2-26.3zM766.6 577.5l-3.7 3.8 3.1 3.1 3.9-3.8h4.2v-6.1l1.9-1.8v-2.5h-6.4l-3 3zm12.1 13.1l4.4-4.3h7l3.4-3.4v-5.6H790v-4l-7.1-7.1 4.1-4v-2h-5.9v-2.7h-2.8v15h3l3.6 3.6h-6.6v5.1l2.7 2.7-4.5 4.5zm-78.5-39.1l-3.6-3.7-.4 1.4h-2.8v3.6h2.2l5.5 5.4h8.6l2.4-2.4h4.1v-2.7l-3.9-3.9h-9.7zm192.4-38.9h6.9V510h-3.1l-4-4v-5.7l7.7-7.7h6.4v-3.3h-5l-1.7 1.5h-5.9l-5.7 5.7v8.1l-2.1 2.1v3.3h3.9zM675.1 539v-5.1h3.5v-6.7l5.7-5.7v-12.9l4.1-4.1v-3h12.1v-5.1h-16.9l-4.9-4.9h-15.3l-4.1 4.1H633l-4.6 4.6h-12.2l-5.2 5.2-9-.5v6.5l4.2 4.2h8l5.2 5.1v6.2l-4.8 4.7 2.6 2.6h4.5v5.5l-4.2 4.3h-3l-4.8 4.8v11.3l2.8 2.7v8.6h5l4 3.9h2.9l3.7-3.7v-8.9l12-12.1h10.8l5.1-5.1h12.6z"/><path d="M1092.1 425.8v-5.3l-11.2-6.2 5.6-4.7v-11.2l2.7-5.9-14.4-7.9-22.5 18.9-5.4 12.1-3.3 2.8-5.3-3-16.9 14.2-10.5 8.8-4.7 10.5-8.5 7.1-5.9-3.3-18.9 15.8-4.9-2.7-13.6 11.4-4.1 9.1-5.6 4.8V674l3.5-3 2.6 1.5 16.6-14 11.7 6.4 3.8-3.1V674l4.9 2.7v5.1l5 2.7v18.3l2.4-2 6.5-14.5v-23.6l15.7-34.9 4.3-3.7 8.7 4.7v9.2l2.4-2.1 2.5-5.6v7.3l3.5 2v21.1l6.6 3.7v5.6l3.3 1.8v3.6l3.7 2v-16.2l-10.4-5.8v-16l3-2.6 9.3 5.1v4.4l1.8-1.6 6.4-14.4v-14.5l-11.4-6.3v-5.8l4.5-9.9 6.9-5.9 3.5-7.6 4.2-3.5 4.2-9.3v-24.4l-12.9-7 4.6-10.2v-4.6l-9.8 8.2-2.3-1.3 6.2-13.8v6.6l2.7-2.2 3.4-7.7 12.4 6.9 2.4-5.2-10.2-5.6 3-6.9-3-1.6 3.5-7.9 1.8.9 1.3-1.1v-21.5l-22.3-12.3v-13.2l8.9-7.5 4.1-9.1v-7.5l6.2-5.3 2.9 1.6v13.3l17.3 9.6 3.1-2.6v-7.2zm42.3 308l6.6-14.7v-26.7l-3-1.6v-18.1l-2.7-1.4v-13.2l-4.2 9.5V679l-7.2 16-8.4-4.6 4.3-9.6-8.9-4.9-6 13.4v7.3l-3.4 2.8v-6.3l-4 3.4-8.4 18.5v7.2l-5.8 13-7.7 6.5-11.9 26.5v24.2l-6.5 14.5-.3 14.8 7.5-16.8 9.8-8.2 7.1-15.9 8-6.8 3.9 2.2v10.2l1.8-1.5 3.8-8.4v16l3 1.7 12.4-10.4 20.2-44.9zm-36.8 77.2v9.7l2.3 1.2 8.1-17.8v-4.5l-9.1 7.5zm39.3-14.9l-6 5.1-6.4 14.2 2.6 3.2 5.5-12.4 5.3-4.4 6.6-14.7 3.6-3.1 2.7-5.9v-6.5l-4.6 3.8zm24.6-54.2v10.9l-4.6 10.2-3.4 2.9v6.5l3.7-3.7 6.7-14.8v-17.3zm-107.2-53.2l-.3-6.7-16.2-8.8-4.2 3.5v5.6l11.6 6.4v5.9l10.5 5.8 3.8-3.2v-12.9zm10.5-7.1l17.2-14.4v-39.4l-17.2 38.3zm31.1-172.8l7.5-6.4v-21.5l-8.7-4.8-3.2 7.1 6.2 3.4v13.5l-6.5 5.4-6.4 14.2 4.6 2.5zm33 135.5v7.9l9.5-8v-5.7l3.9 2.2v6.1l8.3-7-4.7-2.6v-9.8l-3.3-1.8v-4.1l-7.9-4.4-7.6 6.6-4.7 10.4-6.8 5.7v5.2l5.7-4.8zm-68.9 61l8.3-7 2.4 1.3 15.8-13.3-2.2-1.2-9 7.5-6.2-3.3-9.6 7.9-2.8 6.3zm18.1-147v9.4l3.5 1.9v-14.2zm5.8 22.1v16.3l2.5 1.4 2.8-6.2-2.5-1.3V578z" fill="#dd6d22"/><circle class="st47" cx="776" cy="755.3" r="6.5"/><circle class="st84" cx="776" cy="755.3" r="28.6"/><circle class="st47" cx="832.3" cy="598.4" r="6.5"/><circle class="st84" cx="832.3" cy="598.4" r="28.6"/><circle class="st47" cx="1046.6" cy="596" r="6.5"/><circle class="st84" cx="1046.6" cy="596" r="28.6"/><circle class="st47" cx="1078.1" cy="773.2" r="6.5"/><circle class="st84" cx="1078.1" cy="773.2" r="28.6"/><circle class="st47" cx="1141" cy="646.6" r="6.5"/><circle class="st84" cx="1141" cy="646.6" r="28.6"/><path d="M583.5 1014.8V467.6L857.1 194m-91.6 820.8V467.6l274-274m.5 730.7V377.1H491.4m639.4 454.7V284.6H583.5M400.9 650.7h543.8L1220 375.4M400.9 832.7h547.2l273.6-273.6" opacity=".3" fill="none" stroke="#fff" stroke-width="1.876" stroke-miterlimit="10"/></svg>