<svg xmlns="http://www.w3.org/2000/svg" viewBox="0 0 1588 1260" enable-background="new 0 0 1588 1260"><style type="text/css">.st0{opacity:0.5;fill:url(#SVGID_1_);enable-background:new ;} .st1{opacity:0.5;fill:url(#Vector_3_);enable-background:new ;} .st2{opacity:0.5;fill:url(#Vector_4_);enable-background:new ;} .st3{fill-opacity:0;} .st4{opacity:0.5;fill:url(#SVGID_2_);enable-background:new ;} .st5{opacity:0.5;fill:url(#SVGID_3_);enable-background:new ;} .st6{opacity:0.5;fill:url(#SVGID_4_);enable-background:new ;} .st7{opacity:0.5;fill:url(#SVGID_5_);enable-background:new ;} .st8{opacity:0.5;fill:url(#SVGID_6_);enable-background:new ;} .st9{fill:url(#SVGID_7_);} .st10{fill:url(#SVGID_8_);} .st11{fill:url(#SVGID_9_);} .st12{fill:url(#SVGID_10_);} .st13{fill:url(#SVGID_11_);} .st14{fill:url(#SVGID_12_);} .st15{fill:#66BAA1;} .st16{fill:url(#SVGID_13_);} .st17{fill:url(#SVGID_14_);} .st18{fill:url(#SVGID_15_);} .st19{fill:url(#SVGID_16_);} .st20{fill:url(#SVGID_17_);} .st21{fill:url(#SVGID_18_);} .st22{fill:url(#SVGID_19_);} .st23{fill:url(#SVGID_20_);} .st24{fill:url(#SVGID_21_);} .st25{fill:url(#SVGID_22_);} .st26{fill:url(#SVGID_23_);} .st27{fill:url(#SVGID_24_);} .st28{fill:url(#SVGID_25_);} .st29{fill:url(#SVGID_26_);} .st30{fill:url(#SVGID_27_);} .st31{fill:url(#SVGID_28_);} .st32{fill:url(#SVGID_29_);} .st33{fill:url(#SVGID_30_);} .st34{fill:url(#SVGID_31_);} .st35{fill:url(#SVGID_32_);} .st36{fill:url(#SVGID_33_);} .st37{fill:url(#SVGID_34_);} .st38{fill:url(#SVGID_35_);} .st39{fill:url(#SVGID_36_);} .st40{fill:url(#SVGID_37_);} .st41{fill:url(#SVGID_38_);} .st42{fill:url(#SVGID_39_);} .st43{fill:url(#SVGID_40_);} .st44{fill:url(#SVGID_41_);} .st45{fill:url(#SVGID_42_);} .st46{fill:url(#SVGID_43_);} .st47{fill:#FFFFFF;} .st48{fill:#C62D1A;} .st49{fill:#EAEAEA;} .st50{fill:#D94018;} .st51{fill:url(#SVGID_44_);} .st52{fill:url(#SVGID_45_);} .st53{fill:#B2190C;} .st54{opacity:0.3;fill:url(#SVGID_46_);enable-background:new ;} .st55{opacity:0.3;fill:url(#SVGID_47_);enable-background:new ;} .st56{opacity:0.7;fill:url(#SVGID_48_);enable-background:new ;} .st57{fill:url(#SVGID_49_);} .st58{fill:url(#SVGID_50_);} .st59{fill:url(#SVGID_51_);} .st60{fill:url(#SVGID_52_);} .st61{fill:url(#SVGID_53_);} .st62{fill:url(#SVGID_54_);} .st63{fill:url(#SVGID_55_);} .st64{fill:url(#SVGID_56_);} .st65{fill:url(#SVGID_57_);} .st66{opacity:0.3;fill:url(#SVGID_58_);enable-background:new ;} .st67{opacity:0.2;fill:url(#SVGID_59_);enable-background:new ;} .st68{fill:url(#SVGID_60_);} .st69{opacity:0.5;fill:url(#Vector_5_);enable-background:new ;} .st70{fill:none;} .st71{opacity:0.5;fill:url(#Vector_2_2_);enable-background:new ;} .st72{opacity:0.5;fill:url(#Vector_2_3_);enable-background:new ;} .st73{opacity:0.5;fill:url(#Vector_3_1_);enable-background:new ;} .st74{opacity:0.5;fill:url(#Vector_4_2_);enable-background:new ;} .st75{opacity:0.5;fill:url(#Vector_4_3_);enable-background:new ;} .st76{opacity:0.7;fill:#356DAA;enable-background:new ;} .st77{opacity:0.7;fill:url(#SVGID_61_);enable-background:new ;} .st78{opacity:0.7;fill:#295687;enable-background:new ;} .st79{opacity:0.7;fill:url(#SVGID_62_);enable-background:new ;} .st80{opacity:0.7;fill:url(#SVGID_63_);enable-background:new ;} .st81{fill:#CC5C11;} .st82{opacity:0.2;} .st83{fill:none;stroke:#FFFFFF;stroke-width:1.8759;stroke-miterlimit:10;} .st84{fill:none;stroke:#FFFFFF;stroke-width:0.7633;stroke-miterlimit:10;} .st85{fill:#DD6D22;} .st86{opacity:0.3;fill:none;stroke:#FFFFFF;stroke-width:1.8759;stroke-miterlimit:10;enable-background:new ;} .st87{opacity:0.8;} .st88{opacity:0.5;fill:url(#SVGID_64_);enable-background:new ;} .st89{opacity:0.4;fill:url(#SVGID_65_);enable-background:new ;} .st90{opacity:0.6;fill:url(#SVGID_66_);enable-background:new ;} .st91{opacity:0.5;fill:url(#SVGID_67_);enable-background:new ;} .st92{opacity:0.4;fill:url(#SVGID_68_);enable-background:new ;} .st93{opacity:0.3;fill:url(#SVGID_69_);enable-background:new ;} .st94{opacity:0.3;fill:url(#SVGID_70_);enable-background:new ;} .st95{opacity:0.5;fill:url(#SVGID_71_);enable-background:new ;} .st96{opacity:0.4;fill:url(#SVGID_72_);enable-background:new ;} .st97{opacity:0.6;fill:url(#SVGID_73_);enable-background:new ;} .st98{opacity:0.5;fill:url(#SVGID_74_);enable-background:new ;} .st99{opacity:0.4;fill:url(#SVGID_75_);enable-background:new ;} .st100{opacity:0.3;fill:url(#SVGID_76_);enable-background:new ;} .st101{opacity:0.3;fill:url(#SVGID_77_);enable-background:new ;} .st102{opacity:0.7;} .st103{opacity:0.5;fill:url(#SVGID_78_);enable-background:new ;} .st104{opacity:0.4;fill:url(#SVGID_79_);enable-background:new ;} .st105{opacity:0.6;fill:url(#SVGID_80_);enable-background:new ;} .st106{opacity:0.5;fill:url(#SVGID_81_);enable-background:new ;} .st107{opacity:0.4;fill:url(#SVGID_82_);enable-background:new ;} .st108{opacity:0.3;fill:url(#SVGID_83_);enable-background:new ;} .st109{opacity:0.3;fill:url(#SVGID_84_);enable-background:new ;} .st110{opacity:0.5;} .st111{opacity:0.5;fill:url(#SVGID_85_);enable-background:new ;} .st112{opacity:0.4;fill:url(#SVGID_86_);enable-background:new ;} .st113{opacity:0.6;fill:url(#SVGID_87_);enable-background:new ;} .st114{opacity:0.5;fill:url(#SVGID_88_);enable-background:new ;} .st115{opacity:0.4;fill:url(#SVGID_89_);enable-background:new ;} .st116{opacity:0.3;fill:url(#SVGID_90_);enable-background:new ;} .st117{opacity:0.3;fill:url(#SVGID_91_);enable-background:new ;} .st118{opacity:0.5;fill:url(#SVGID_92_);enable-background:new ;} .st119{opacity:0.4;fill:url(#SVGID_93_);enable-background:new ;} .st120{opacity:0.6;fill:url(#SVGID_94_);enable-background:new ;} .st121{opacity:0.5;fill:url(#SVGID_95_);enable-background:new ;} .st122{opacity:0.4;fill:url(#SVGID_96_);enable-background:new ;} .st123{opacity:0.3;fill:url(#SVGID_97_);enable-background:new ;} .st124{opacity:0.3;fill:url(#SVGID_98_);enable-background:new ;} .st125{opacity:0.5;fill:url(#SVGID_99_);enable-background:new ;} .st126{opacity:0.4;fill:url(#SVGID_100_);enable-background:new ;} .st127{opacity:0.6;fill:url(#SVGID_101_);enable-background:new ;} .st128{opacity:0.5;fill:url(#SVGID_102_);enable-background:new ;} .st129{opacity:0.4;fill:url(#SVGID_103_);enable-background:new ;} .st130{opacity:0.3;fill:url(#SVGID_104_);enable-background:new ;} .st131{opacity:0.3;fill:url(#SVGID_105_);enable-background:new ;} .st132{opacity:0.5;fill:url(#SVGID_106_);enable-background:new ;} .st133{opacity:0.4;fill:url(#SVGID_107_);enable-background:new ;} .st134{opacity:0.6;fill:url(#SVGID_108_);enable-background:new ;} .st135{opacity:0.5;fill:url(#SVGID_109_);enable-background:new ;} .st136{opacity:0.4;fill:url(#SVGID_110_);enable-background:new ;} .st137{opacity:0.3;fill:url(#SVGID_111_);enable-background:new ;} .st138{opacity:0.3;fill:url(#SVGID_112_);enable-background:new ;} .st139{opacity:0.5;fill:url(#SVGID_113_);enable-background:new ;} .st140{opacity:0.4;fill:url(#SVGID_114_);enable-background:new ;} .st141{opacity:0.6;fill:url(#SVGID_115_);enable-background:new ;} .st142{opacity:0.5;fill:url(#SVGID_116_);enable-background:new ;} .st143{opacity:0.4;fill:url(#SVGID_117_);enable-background:new ;} .st144{opacity:0.3;fill:url(#SVGID_118_);enable-background:new ;} .st145{opacity:0.3;fill:url(#SVGID_119_);enable-background:new ;} .st146{opacity:0.5;fill:url(#SVGID_120_);enable-background:new ;} .st147{opacity:0.4;fill:url(#SVGID_121_);enable-background:new ;} .st148{opacity:0.6;fill:url(#SVGID_122_);enable-background:new ;} .st149{opacity:0.5;fill:url(#SVGID_123_);enable-background:new ;} .st150{opacity:0.4;fill:url(#SVGID_124_);enable-background:new ;} .st151{opacity:0.3;fill:url(#SVGID_125_);enable-background:new ;} .st152{opacity:0.3;fill:url(#SVGID_126_);enable-background:new ;} .st153{opacity:0.5;fill:url(#SVGID_127_);enable-background:new ;} .st154{opacity:0.4;fill:url(#SVGID_128_);enable-background:new ;} .st155{opacity:0.6;fill:url(#SVGID_129_);enable-background:new ;} .st156{opacity:0.5;fill:url(#SVGID_130_);enable-background:new ;} .st157{opacity:0.4;fill:url(#SVGID_131_);enable-background:new ;} .st158{opacity:0.3;fill:url(#SVGID_132_);enable-background:new ;} .st159{opacity:0.3;fill:url(#SVGID_133_);enable-background:new ;} .st160{opacity:0.5;fill:url(#SVGID_134_);enable-background:new ;} .st161{opacity:0.4;fill:url(#SVGID_135_);enable-background:new ;} .st162{opacity:0.6;fill:url(#SVGID_136_);enable-background:new ;} .st163{opacity:0.5;fill:url(#SVGID_137_);enable-background:new ;} .st164{opacity:0.4;fill:url(#SVGID_138_);enable-background:new ;} .st165{opacity:0.3;fill:url(#SVGID_139_);enable-background:new ;} .st166{opacity:0.3;fill:url(#SVGID_140_);enable-background:new ;} .st167{opacity:0.3;} .st168{opacity:0.5;fill:url(#SVGID_141_);enable-background:new ;} .st169{opacity:0.4;fill:url(#SVGID_142_);enable-background:new ;} .st170{opacity:0.6;fill:url(#SVGID_143_);enable-background:new ;} .st171{opacity:0.5;fill:url(#SVGID_144_);enable-background:new ;} .st172{opacity:0.4;fill:url(#SVGID_145_);enable-background:new ;} .st173{opacity:0.3;fill:url(#SVGID_146_);enable-background:new ;} .st174{opacity:0.3;fill:url(#SVGID_147_);enable-background:new ;} .st175{opacity:0.5;fill:url(#SVGID_148_);enable-background:new ;} .st176{opacity:0.4;fill:url(#SVGID_149_);enable-background:new ;} .st177{opacity:0.6;fill:url(#SVGID_150_);enable-background:new ;} .st178{opacity:0.5;fill:url(#SVGID_151_);enable-background:new ;} .st179{opacity:0.4;fill:url(#SVGID_152_);enable-background:new ;} .st180{opacity:0.3;fill:url(#SVGID_153_);enable-background:new ;} .st181{opacity:0.3;fill:url(#SVGID_154_);enable-background:new ;} .st182{opacity:0.4;} .st183{opacity:0.5;fill:url(#SVGID_155_);enable-background:new ;} .st184{opacity:0.4;fill:url(#SVGID_156_);enable-background:new ;} .st185{opacity:0.6;fill:url(#SVGID_157_);enable-background:new ;} .st186{opacity:0.5;fill:url(#SVGID_158_);enable-background:new ;} .st187{opacity:0.4;fill:url(#SVGID_159_);enable-background:new ;} .st188{opacity:0.3;fill:url(#SVGID_160_);enable-background:new ;} .st189{opacity:0.3;fill:url(#SVGID_161_);enable-background:new ;} .st190{opacity:0.5;fill:url(#SVGID_162_);enable-background:new ;} .st191{opacity:0.4;fill:url(#SVGID_163_);enable-background:new ;} .st192{opacity:0.6;fill:url(#SVGID_164_);enable-background:new ;} .st193{opacity:0.5;fill:url(#SVGID_165_);enable-background:new ;} .st194{opacity:0.4;fill:url(#SVGID_166_);enable-background:new ;} .st195{opacity:0.3;fill:url(#SVGID_167_);enable-background:new ;} .st196{opacity:0.3;fill:url(#SVGID_168_);enable-background:new ;} .st197{opacity:0.6;} .st198{opacity:0.5;fill:url(#SVGID_169_);enable-background:new ;} .st199{opacity:0.4;fill:url(#SVGID_170_);enable-background:new ;} .st200{opacity:0.6;fill:url(#SVGID_171_);enable-background:new ;} .st201{opacity:0.5;fill:url(#SVGID_172_);enable-background:new ;} .st202{opacity:0.4;fill:url(#SVGID_173_);enable-background:new ;} .st203{opacity:0.3;fill:url(#SVGID_174_);enable-background:new ;} .st204{opacity:0.3;fill:url(#SVGID_175_);enable-background:new ;} .st205{fill:none;stroke:url(#SVGID_176_);stroke-width:5.2444;stroke-miterlimit:10;} .st206{fill:none;stroke:url(#SVGID_177_);stroke-width:5.2444;stroke-miterlimit:10;} .st207{fill:none;stroke:url(#SVGID_178_);stroke-width:4.9143;stroke-miterlimit:10;}</style><linearGradient id="Vector_3_" gradientUnits="userSpaceOnUse" x1="1031.314" y1="-2602.591" x2="122.369" y2="-2602.591" gradientTransform="matrix(1 .001 .001 -1 .65 -1548.119)"><stop offset="0" stop-color="#255487"/><stop offset="1" stop-color="#66BAA1"/></linearGradient><path id="Vector" class="st1" d="M1029.8 989.3l-779.1-.7-130 131.9 779.1.7 130-131.9z"/><path id="language_01b" class="st70" d="M367.3 207.5h948v948.4h-948z"/><linearGradient id="Vector_2_2_" gradientUnits="userSpaceOnUse" x1="1409.417" y1="-1911.305" x2="1223.718" y2="-1911.305" gradientTransform="matrix(1 .001 .001 -1 .65 -1548.119)"><stop offset="0" stop-color="#255487"/><stop offset="1" stop-color="#66BAA1"/></linearGradient><path id="Vector_2" class="st71" d="M1408.5 349.7l-159.2-.1-26.6 29.3 159.2.1 26.6-29.3z"/><linearGradient id="Vector_3_1_" gradientUnits="userSpaceOnUse" x1="505.188" y1="-2331.493" x2="70.263" y2="-2331.493" gradientTransform="matrix(1 .001 .001 -1 .65 -1548.119)"><stop offset="0" stop-color="#255487"/><stop offset="1" stop-color="#66BAA1"/></linearGradient><path id="Vector_3" class="st73" d="M503.9 752l-372.8-.3-62.2 63.5 372.8.3 62.2-63.5z"/><linearGradient id="Vector_4_2_" gradientUnits="userSpaceOnUse" x1="1531.591" y1="-2695.928" x2="1096.666" y2="-2695.928" gradientTransform="matrix(1 .001 .001 -1 .65 -1548.119)"><stop offset="0" stop-color="#255487"/><stop offset="1" stop-color="#66BAA1"/></linearGradient><path id="Vector_4" class="st74" d="M1530 1117.3l-372.8-.3-62.2 63.5 372.8.3 62.2-63.5z"/><path class="st76" d="M400.9 1011.9l273.6-273.6h547.2l-273.6 273.6z"/><linearGradient id="SVGID_1_" gradientUnits="userSpaceOnUse" x1="565.139" y1="-2448.932" x2="897.202" y2="-1972.413" gradientTransform="matrix(1 0 0 -1 0 -1547.449)"><stop offset="0" stop-color="#1C4163"/><stop offset="1" stop-color="#1886B5"/></linearGradient><path opacity=".7" fill="url(#SVGID_1_)" enable-background="new" d="M400.9 471h547.2v547.2h-547.2z"/><path class="st78" d="M671.1 194h547.2v547.2h-547.2z"/><linearGradient id="SVGID_2_" gradientUnits="userSpaceOnUse" x1="1085.444" y1="-2151.224" x2="1295.563" y2="-1914.839" gradientTransform="matrix(1 0 0 -1 0 -1547.449)"><stop offset="0" stop-color="#255487"/><stop offset="1" stop-color="#1886B5"/></linearGradient><path opacity=".7" fill="url(#SVGID_2_)" enable-background="new" d="M1221.7 194l-273.6 273.6v547.2l273.6-273.6z"/><linearGradient id="SVGID_3_" gradientUnits="userSpaceOnUse" x1="400.86" y1="-1878.275" x2="1221.658" y2="-1878.275" gradientTransform="matrix(1 0 0 -1 0 -1547.449)"><stop offset="0" stop-color="#255487"/><stop offset="1" stop-color="#1886B5"/></linearGradient><path opacity=".7" fill="url(#SVGID_3_)" enable-background="new" d="M400.9 467.6l273.6-273.6h547.2l-273.6 273.6z"/><path class="st81" d="M533.8 756.3h41.4l15.5 15.4h14.5v19.3l16 16h22.6l7.5 7.5v20.3l-12.8 12.8v26.7l-47.6 47.6v29.6l-7.4 7.4v14.5l14.4 14.4-6.2 6.2-26.4-26.4v-67.5l-9.6-9.6v-27.6l-35.9-36v-40.6l14.1-14.2zM516.9 767.9l-29.8-29.7h-9.5l-18.6-18.6v-14.3l-24.3-24.3v-34.3l33.1-33.1v-34.5l-13.7-13.7-12 12h-38.8v-8.3h21.9l35.7-35.7h28.1l11.2 11.2h28.8l9.7 9.6h20.8l12.6-12.5h18.4v19.8l-8.1 8.1h-16.2l-19.6 19.5 13.6 13.6v9.7h8.8l18.5-18.4v-16.8h12v11.9l19.3 19.3v14.5l-9.2 9.2h-24.1l-50.6 50.6v14l-8.9 9v-19.4h-28.4l-12.6 12.6v28.3h17.8v10h13.8z"/><g class="st82"><path class="st83" d="M400.9 467.6h547.2v547.2h-547.2zM1221.7 194l-273.6 273.6v547.2l273.6-273.6zM400.9 467.6l273.6-273.6h547.2l-273.6 273.6z"/></g><circle class="st47" cx="555.9" cy="599.2" r="6.5"/><ellipse transform="matrix(.071 -.998 .998 .071 -81.153 1111.209)" class="st84" cx="555.9" cy="599.2" rx="28.6" ry="28.6"/><circle class="st47" cx="562.4" cy="800" r="6.5"/><ellipse transform="matrix(.071 -.998 .998 .071 -275.438 1304.266)" class="st84" cx="562.4" cy="800" rx="28.6" ry="28.6"/><circle class="st47" cx="449.4" cy="634.3" r="6.5"/><circle class="st84" cx="449.4" cy="634.3" r="28.6"/><path class="st81" d="M961.3 742.6v-11.8h-8.5v-8.4h-3.4l-1.3 1.4v32zM944.1 490.1l-14.2 14.2h-14.2v12h-11l-4.6 4.6h-13.1l-17.6 17.6h-8.4v-5l-6.1-6.1h6.4l2.8 2.8h5.1v-6.7l-3-3h-12.2l-8.6-8.6h-14.6l-13.9 13.9v3.3l-17.4 17.4v8.8l5.4 5.4h3.1l5.4-5.4 1.6 1.5v5.4l5.7 5.7h4.5v-9.1l3.3-3.3v-4.8l-3-3.1v-4.8l6.8-6.8v-4.4h6.9l3.5 3.5h-4l-5 5v10.2l2.9 2.9h7.6l3.7-3.7h3.8l5 5.1h-12.7l-4 3.9v3h-2.8l-2 2v9.7h-2.9l-1.7-1.8h-4.4l-3.9 3.9-2.2-2.2h-7.6v-11.1h-2.7l-3.5 3.5v6.2l3.9 3.9h-5l-2.1 2h-4.1v5.7l-6.5 6.5h-8.4l-3.9 4h-4.6v2.9l5.2 5.1h4.3v12.1h-5.3l-2.4-2.5-12.1.1v19.2l9.2 9.2 3.8-3.9h9v-9.7l9.4-9.4h8.3l6.7-6.8 18.5 18.4v4.9l2.5 2.5v-8h3.5v-4.5l-16-16 4-4 15.3 15.4v6.6l5.2 5.2v5.1l3.3 3.2h4.2v-16h15l-7.8-7.7v-8l5-5h6.1l5.5 5.5 4.2-4.2v-3h4.7v7.5l5.3 5.4h3l3.2 3.1v3.7h-12.9l-2.9-2.9h-7.2v2.9l-4.9 4.8h-10.3v3.5l2 2v5l3.2 3.3h21.6v6.2l-2 2v8.4l-4.6 4.6v-4.3h-33.2v8.5h-7.5l-22.8-22.8h-39.3l-14.2 14.1v9.7h-9.8l-15.7 15.8v41.2l29.6 29.7h38.1l12 11.9v12l8.5 8.5v31.5l-5.7 5.7v12.3l14.4 14.4v48.2h16.4l33-33.1h5.5v-20.5l18.3-18.2v-42.3l33.6-33.7v-22.8h-24.4l-24-24.1v-14.5l-12.8-12.7v-8.2l3.9 3.8h6.2l12.3 12.2v15.3l12.8 12.8v4.2l3 3v4.6h6.4l5.5-5.4h11.9v-6.9l4.3-4.3v-28.5l-4.2 4.2h-6.3l-16.9-16.9 5.2-5.2h6.7l13.9 13.9h1.6v-183zM914.2 833.3v12.5l-5.1 5.1v8.6l5.2 5.1h6.1l7.5-7.4v-12.4l5.7-5.7-.2-26.3zM766.6 577.5l-3.7 3.8 3.1 3.1 3.9-3.8h4.2v-6.1l1.9-1.8v-2.5h-6.4l-3 3zM778.7 590.6l4.4-4.3h7l3.4-3.4v-5.6h-3.5v-4l-7.1-7.1 4.1-4v-2h-5.9v-2.7h-2.8v15h3l3.6 3.6h-6.6v5.1l2.7 2.7-4.5 4.5zM700.2 551.5l-3.6-3.7-.4 1.4h-2.8v3.6h2.2l5.5 5.4h8.6l2.4-2.4h4.1v-2.7l-3.9-3.9h-9.7zM892.6 512.6h6.9v-2.6h-3.1l-4-4v-5.7l7.7-7.7h6.4v-3.3h-5l-1.7 1.5h-5.9l-5.7 5.7v8.1l-2.1 2.1v3.3h3.9zM675.1 539v-5.1h3.5v-6.7l5.7-5.7v-12.9l4.1-4.1v-3h12.1v-5.1h-16.9l-4.9-4.9h-15.3l-4.1 4.1h-26.3l-4.6 4.6h-12.2l-5.2 5.2-9-.5v6.5l4.2 4.2h8l5.2 5.1v6.2l-4.8 4.7 2.6 2.6h4.5v5.5l-4.2 4.3h-3l-4.8 4.8v11.3l2.8 2.7v8.6h5l4 3.9h2.9l3.7-3.7v-8.9l12-12.1h10.8l5.1-5.1h12.6z"/><path class="st85" d="M1092.1 425.8v-5.3l-11.2-6.2 5.6-4.7v-11.2l2.7-5.9-14.4-7.9-22.5 18.9-5.4 12.1-3.3 2.8-5.3-3-16.9 14.2-10.5 8.8-4.7 10.5-8.5 7.1-5.9-3.3-18.9 15.8-4.9-2.7-13.6 11.4-4.1 9.1-5.6 4.8v182.9l3.5-3 2.6 1.5 16.6-14 11.7 6.4 3.8-3.1v12.2l4.9 2.7v5.1l5 2.7v18.3l2.4-2 6.5-14.5v-23.6l15.7-34.9 4.3-3.7 8.7 4.7v9.2l2.4-2.1 2.5-5.6v7.3l3.5 2v21.1l6.6 3.7v5.6l3.3 1.8v3.6l3.7 2v-16.2l-10.4-5.8v-16l3-2.6 9.3 5.1v4.4l1.8-1.6 6.4-14.4v-14.5l-11.4-6.3v-5.8l4.5-9.9 6.9-5.9 3.5-7.6 4.2-3.5 4.2-9.3v-24.4l-12.9-7 4.6-10.2v-4.6l-9.8 8.2-2.3-1.3 6.2-13.8v6.6l2.7-2.2 3.4-7.7 12.4 6.9 2.4-5.2-10.2-5.6 3-6.9-3-1.6 3.5-7.9 1.8.9 1.3-1.1v-21.5l-22.3-12.3v-13.2l8.9-7.5 4.1-9.1v-7.5l6.2-5.3 2.9 1.6v13.3l17.3 9.6 3.1-2.6v-7.2zM1134.4 733.8l6.6-14.7v-26.7l-3-1.6v-18.1l-2.7-1.4v-13.2l-4.2 9.5v11.4l-7.2 16-8.4-4.6 4.3-9.6-8.9-4.9-6 13.4v7.3l-3.4 2.8v-6.3l-4 3.4-8.4 18.5v7.2l-5.8 13-7.7 6.5-11.9 26.5v24.2l-6.5 14.5-.3 14.8 7.5-16.8 9.8-8.2 7.1-15.9 8-6.8 3.9 2.2v10.2l1.8-1.5 3.8-8.4v16l3 1.7 12.4-10.4 20.2-44.9zM1097.6 811v9.7l2.3 1.2 8.1-17.8v-4.5l-9.1 7.5zM1136.9 796.1l-6 5.1-6.4 14.2 2.6 3.2 5.5-12.4 5.3-4.4 6.6-14.7 3.6-3.1 2.7-5.9v-6.5l-4.6 3.8zM1161.5 741.9v10.9l-4.6 10.2-3.4 2.9v6.5l3.7-3.7 6.7-14.8v-17.3zM1054.3 688.7l-.3-6.7-16.2-8.8-4.2 3.5v5.6l11.6 6.4v5.9l10.5 5.8 3.8-3.2v-12.9zM1064.8 681.6l17.2-14.4v-39.4l-17.2 38.3zM1095.9 508.8l7.5-6.4v-21.5l-8.7-4.8-3.2 7.1 6.2 3.4v13.5l-6.5 5.4-6.4 14.2 4.6 2.5zM1128.9 644.3v7.9l9.5-8v-5.7l3.9 2.2v6.1l8.3-7-4.7-2.6v-9.8l-3.3-1.8v-4.1l-7.9-4.4-7.6 6.6-4.7 10.4-6.8 5.7v5.2l5.7-4.8zM1060 705.3l8.3-7 2.4 1.3 15.8-13.3-2.2-1.2-9 7.5-6.2-3.3-9.6 7.9-2.8 6.3zM1078.1 558.3v9.4l3.5 1.9v-14.2zM1083.9 580.4v16.3l2.5 1.4 2.8-6.2-2.5-1.3v-12.6z"/><circle class="st47" cx="776" cy="755.3" r="6.5"/><circle class="st84" cx="776" cy="755.3" r="28.6"/><circle class="st47" cx="832.3" cy="598.4" r="6.5"/><circle class="st84" cx="832.3" cy="598.4" r="28.6"/><circle class="st47" cx="1046.6" cy="596" r="6.5"/><circle class="st84" cx="1046.6" cy="596" r="28.6"/><circle class="st47" cx="1078.1" cy="773.2" r="6.5"/><circle class="st84" cx="1078.1" cy="773.2" r="28.6"/><circle class="st47" cx="1141" cy="646.6" r="6.5"/><circle class="st84" cx="1141" cy="646.6" r="28.6"/><path class="st86" d="M583.5 1014.8v-547.2l273.6-273.6M765.5 1014.8v-547.2l274-274M1040 924.3v-547.2h-548.6M1130.8 831.8v-547.2h-547.3M400.9 650.7h543.8l275.3-275.3M400.9 832.7h547.2l273.6-273.6"/></svg>