<svg width="441" height="498" viewBox="0 0 441 498" fill="none" xmlns="http://www.w3.org/2000/svg">
<path opacity="0.8" d="M363.725 272.812L196.379 440.206H254.435L421.831 272.812H363.725Z" fill="url(#paint0_linear)"/>
<path opacity="0.7" d="M92.5664 338.674L224.96 470.745L273.207 422.321L140.266 289.801L92.5664 338.674Z" fill="url(#paint1_linear)"/>
<path opacity="0.8" d="M140.312 290.1L273.254 422.62V251.241L140.561 118.97L140.312 290.1Z" fill="url(#paint2_linear)"/>
<path opacity="0.8" d="M114.224 361.242L101.727 348.738V273.659L114.224 261.155V361.242Z" fill="url(#paint3_linear)"/>
<path opacity="0.8" d="M225.805 410.215L240.742 395.269V285.716L225.805 300.662V410.215Z" fill="url(#paint4_linear)"/>
<path opacity="0.6" d="M394.594 220.552H377.715L327.078 271.168H343.957L394.594 220.552Z" fill="url(#paint5_linear)"/>
<path opacity="0.6" d="M93.0639 340.966V329.906L59.9531 363.036V374.096L93.0639 340.966Z" fill="url(#paint6_linear)"/>
<path opacity="0.6" d="M237.808 24.0137L149.43 112.344H154.956L243.335 24.0137H237.808Z" fill="url(#paint7_linear)"/>
<path opacity="0.3" d="M429.745 93.96L249.453 274.207H260.756L440.998 93.96H429.745V93.96Z" fill="url(#paint8_linear)"/>
<path opacity="0.8" d="M95.0549 125.098L50.8906 169.288H56.4174L100.582 125.098H95.0549V125.098Z" fill="url(#paint9_linear)"/>
<path opacity="0.6" d="M234.469 154.093V168.54L306.466 96.4516V82.0537L234.469 154.093Z" fill="url(#paint10_linear)"/>
<path opacity="0.6" d="M122.938 439.458V459.586L183.234 399.204V379.127L122.938 439.458Z" fill="url(#paint11_linear)"/>
<path opacity="0.6" d="M378.715 287.509V306.192L434.58 250.244V231.562L378.715 287.509Z" fill="url(#paint12_linear)"/>
<path d="M83.4023 352.025L228.293 497V282.278L83.7011 137.602L83.4023 352.025Z" stroke="#00B09E" stroke-width="0.6336" stroke-miterlimit="10" stroke-linecap="round" stroke-linejoin="round"/>
<path d="M228.297 282.278L281.125 229.42V444.142L228.297 497.001V282.278Z" stroke="#00B09E" stroke-width="0.6336" stroke-miterlimit="10" stroke-linecap="round" stroke-linejoin="round"/>
<path d="M83.7031 137.602L228.295 282.278L281.123 229.419L135.983 84.1953L83.7031 137.602Z" stroke="#00B09E" stroke-width="0.6336" stroke-miterlimit="10" stroke-linecap="round" stroke-linejoin="round"/>
<path d="M83.6016 352.474L228.443 496.901L281.171 443.943L135.782 298.968L83.6016 352.474Z" stroke="#00B09E" stroke-width="0.6336" stroke-miterlimit="10" stroke-linecap="round" stroke-linejoin="round"/>
<path d="M135.785 298.968V84.0962" stroke="#00B09E" stroke-width="0.6336" stroke-miterlimit="10" stroke-linecap="round" stroke-linejoin="round"/>
<path d="M101.574 135.161L135.681 100.985L148.925 114.287L113.922 149.31L101.574 136.955V135.161Z" stroke="#00B09E" stroke-width="0.6336" stroke-miterlimit="10" stroke-linecap="round" stroke-linejoin="round"/>
<path d="M219.18 253.233L253.336 219.057L266.58 232.309L231.528 267.382L219.18 255.027V253.233Z" stroke="#00B09E" stroke-width="0.6336" stroke-miterlimit="10" stroke-linecap="round" stroke-linejoin="round"/>
<path d="M111.734 123.753L126.024 138.051L142.356 121.71L127.667 107.013L111.734 123.753Z" stroke="#00B09E" stroke-width="0.6336" stroke-miterlimit="10" stroke-linecap="round" stroke-linejoin="round"/>
<path opacity="0.8" d="M92.1172 338.275L225.058 470.795V299.416L92.3661 167.145L92.1172 338.275Z" fill="url(#paint13_linear)"/>
<path opacity="0.6" d="M224.809 299.416L273.106 251.091V422.47L224.809 470.795V299.416Z" stroke="#E18032" stroke-width="0.2766" stroke-miterlimit="10"/>
<path opacity="0.6" d="M92.6133 167.145L224.807 299.416L273.104 251.091L140.412 118.322L92.6133 167.145Z" fill="url(#paint14_linear)"/>
<path d="M140.266 289.801V118.222" stroke="#E18032" stroke-width="0.2766" stroke-miterlimit="10"/>
<path d="M108.945 164.904L140.164 133.667L152.263 145.823L120.248 177.857L108.945 166.548V164.904Z" stroke="#E18032" stroke-width="0.2766" stroke-miterlimit="10"/>
<path d="M216.492 272.863L247.711 241.626L259.81 253.732L227.795 285.816L216.492 274.507V272.863Z" stroke="#E18032" stroke-width="0.2766" stroke-miterlimit="10"/>
<path d="M118.258 154.491L131.353 167.544L146.29 152.598L132.846 139.146L118.258 154.491Z" stroke="#E18032" stroke-width="0.2766" stroke-miterlimit="10"/>
<path opacity="0.8" d="M224.013 468.305L178.504 422.72L224.013 377.135V468.305V468.305Z" fill="url(#paint15_linear)"/>
<path opacity="0.8" d="M235.367 273.112L248.661 259.81V140.094L235.367 153.396V273.112Z" fill="url(#paint16_linear)"/>
<path opacity="0.8" d="M222.719 261.852L236.013 248.55V128.834L222.719 142.136V261.852Z" fill="url(#paint17_linear)"/>
<path opacity="0.8" d="M235.117 175.615L223.316 163.808V260.806L235.117 272.614V175.615Z" fill="url(#paint18_linear)"/>
<path opacity="0.8" d="M131.797 169.188L145.091 155.886V36.1699L131.797 49.4717V169.188Z" fill="url(#paint19_linear)"/>
<path opacity="0.8" d="M119.152 157.879L132.446 144.577V24.8608L119.152 38.1627V157.879V157.879Z" fill="url(#paint20_linear)"/>
<path opacity="0.8" d="M131.55 71.691L119.75 59.8838V156.882L131.55 168.69V71.691Z" fill="url(#paint21_linear)"/>
<path opacity="0.8" d="M120.797 59.3358L236.212 174.867L249.157 161.914L134.141 46.8311C134.191 46.8311 121.942 58.1899 120.797 59.3358Z" fill="url(#paint22_linear)"/>
<path d="M119.305 38.0628L234.769 153.594L247.715 140.641L132.698 25.5581C132.698 25.5581 120.45 36.917 119.305 38.0628Z" fill="#66BAA1"/>
<path opacity="0.8" d="M235.313 172.725V153.793L119.102 37.5146V59.1862L235.462 175.614L235.313 172.725Z" fill="url(#paint23_linear)"/>
<path opacity="0.8" d="M144.395 335.336L160.477 351.378V288.008L144.594 272.115L144.395 335.336Z" fill="url(#paint24_linear)"/>
<path d="M1 307.686L74.1923 234.452V260.607L188.063 146.62" stroke="#00B09E" stroke-width="0.6336" stroke-miterlimit="10" stroke-linecap="round" stroke-linejoin="round"/>
<path d="M48.0508 428.001L154.852 321.138L159.731 325.97L179.1 306.541L168.295 295.73L312.788 151.104" stroke="#00B09E" stroke-width="0.6336" stroke-miterlimit="10" stroke-linecap="round" stroke-linejoin="round"/>
<path opacity="0.5" d="M216.692 186.973L153.109 122.556V387.247L216.642 451.664V186.973H216.692Z" fill="url(#paint25_linear)"/>
<path opacity="0.8" d="M151.118 331.798L165.06 345.748L38.5914 472.289L26.1437 459.835L23.1562 456.845L145.143 334.788L151.118 331.798Z" fill="url(#paint26_linear)"/>
<path opacity="0.8" d="M335.144 0L343.758 8.61878L265.686 86.686L258.018 79.0138L256.176 77.1705L331.459 1.84332L335.144 0Z" fill="url(#paint27_linear)"/>
<path opacity="0.8" d="M272.754 273.011L264.141 264.392L342.163 186.325L349.88 193.997L351.722 195.841L276.439 271.168L272.754 273.011Z" fill="url(#paint28_linear)"/>
<path d="M77.1304 275.851L61.4961 240.877V190.311L97.3454 226.181V264.791L77.1304 275.851Z" fill="#1886B5"/>
<path opacity="0.6" d="M86.5913 267.381L70.957 232.408V181.841L106.806 217.711V256.322L86.5913 267.381Z" fill="#1886B5"/>
<defs>
<linearGradient id="paint0_linear" x1="196.371" y1="356.502" x2="421.817" y2="356.502" gradientUnits="userSpaceOnUse">
<stop stop-color="#FB5A0E"/>
<stop offset="1" stop-color="#EA1B11"/>
</linearGradient>
<linearGradient id="paint1_linear" x1="92.5464" y1="380.249" x2="273.186" y2="380.249" gradientUnits="userSpaceOnUse">
<stop stop-color="#255487"/>
<stop offset="1" stop-color="#66BAA1"/>
</linearGradient>
<linearGradient id="paint2_linear" x1="140.289" y1="270.772" x2="273.23" y2="270.772" gradientUnits="userSpaceOnUse">
<stop stop-color="#B2190C"/>
<stop offset="1" stop-color="#E66D12"/>
</linearGradient>
<linearGradient id="paint3_linear" x1="107.974" y1="361.253" x2="107.974" y2="261.12" gradientUnits="userSpaceOnUse">
<stop stop-color="#E40233"/>
<stop offset="1" stop-color="#E66D12"/>
</linearGradient>
<linearGradient id="paint4_linear" x1="233.279" y1="410.23" x2="233.279" y2="285.715" gradientUnits="userSpaceOnUse">
<stop stop-color="#255487"/>
<stop offset="1" stop-color="#66BAA1"/>
</linearGradient>
<linearGradient id="paint5_linear" x1="327.096" y1="245.844" x2="394.583" y2="245.844" gradientUnits="userSpaceOnUse">
<stop stop-color="#12BCB9"/>
<stop offset="1" stop-color="#156C84"/>
</linearGradient>
<linearGradient id="paint6_linear" x1="76.4908" y1="329.91" x2="76.4908" y2="374.1" gradientUnits="userSpaceOnUse">
<stop stop-color="#12BCB9"/>
<stop offset="1" stop-color="#156C84"/>
</linearGradient>
<linearGradient id="paint7_linear" x1="149.446" y1="68.1737" x2="243.32" y2="68.1737" gradientUnits="userSpaceOnUse">
<stop stop-color="#FB5A0E"/>
<stop offset="1" stop-color="#EA1B11"/>
</linearGradient>
<linearGradient id="paint8_linear" x1="249.466" y1="184.09" x2="441.007" y2="184.09" gradientUnits="userSpaceOnUse">
<stop stop-color="#FB5A0E"/>
<stop offset="1" stop-color="#EA1B11"/>
</linearGradient>
<linearGradient id="paint9_linear" x1="50.8617" y1="147.188" x2="100.557" y2="147.188" gradientUnits="userSpaceOnUse">
<stop stop-color="#FB5A0E"/>
<stop offset="1" stop-color="#EA1B11"/>
</linearGradient>
<linearGradient id="paint10_linear" x1="270.466" y1="168.537" x2="270.466" y2="82.0486" gradientUnits="userSpaceOnUse">
<stop stop-color="#12BCB9"/>
<stop offset="1" stop-color="#156C84"/>
</linearGradient>
<linearGradient id="paint11_linear" x1="153.09" y1="459.569" x2="153.09" y2="379.107" gradientUnits="userSpaceOnUse">
<stop stop-color="#12BCB9"/>
<stop offset="1" stop-color="#156C84"/>
</linearGradient>
<linearGradient id="paint12_linear" x1="406.644" y1="306.183" x2="406.644" y2="231.559" gradientUnits="userSpaceOnUse">
<stop stop-color="#12BCB9"/>
<stop offset="1" stop-color="#156C84"/>
</linearGradient>
<linearGradient id="paint13_linear" x1="92.121" y1="318.97" x2="225.062" y2="318.97" gradientUnits="userSpaceOnUse">
<stop offset="0.00280449" stop-color="#E30D13"/>
<stop offset="1" stop-color="#EC9200"/>
</linearGradient>
<linearGradient id="paint14_linear" x1="92.6171" y1="208.869" x2="273.108" y2="208.869" gradientUnits="userSpaceOnUse">
<stop stop-color="#B2190C"/>
<stop offset="1" stop-color="#E66D12"/>
</linearGradient>
<linearGradient id="paint15_linear" x1="201.265" y1="468.304" x2="201.265" y2="377.124" gradientUnits="userSpaceOnUse">
<stop stop-color="#B2190C"/>
<stop offset="1" stop-color="#E66D12"/>
</linearGradient>
<linearGradient id="paint16_linear" x1="241.984" y1="186.673" x2="241.984" y2="125.915" gradientUnits="userSpaceOnUse">
<stop stop-color="#255487"/>
<stop offset="1" stop-color="#66BAA1"/>
</linearGradient>
<linearGradient id="paint17_linear" x1="229.369" y1="175.38" x2="229.369" y2="114.622" gradientUnits="userSpaceOnUse">
<stop stop-color="#255487"/>
<stop offset="1" stop-color="#66BAA1"/>
</linearGradient>
<linearGradient id="paint18_linear" x1="229.202" y1="272.613" x2="229.202" y2="163.831" gradientUnits="userSpaceOnUse">
<stop stop-color="#255487"/>
<stop offset="1" stop-color="#66BAA1"/>
</linearGradient>
<linearGradient id="paint19_linear" x1="138.414" y1="82.7158" x2="138.414" y2="21.9575" gradientUnits="userSpaceOnUse">
<stop stop-color="#255487"/>
<stop offset="1" stop-color="#66BAA1"/>
</linearGradient>
<linearGradient id="paint20_linear" x1="125.803" y1="71.4233" x2="125.803" y2="10.6651" gradientUnits="userSpaceOnUse">
<stop stop-color="#255487"/>
<stop offset="1" stop-color="#66BAA1"/>
</linearGradient>
<linearGradient id="paint21_linear" x1="125.636" y1="168.656" x2="125.636" y2="59.8736" gradientUnits="userSpaceOnUse">
<stop stop-color="#255487"/>
<stop offset="1" stop-color="#66BAA1"/>
</linearGradient>
<linearGradient id="paint22_linear" x1="120.779" y1="110.849" x2="249.197" y2="110.849" gradientUnits="userSpaceOnUse">
<stop stop-color="#255487"/>
<stop offset="1" stop-color="#66BAA1"/>
</linearGradient>
<linearGradient id="paint23_linear" x1="235.486" y1="106.556" x2="119.109" y2="106.556" gradientUnits="userSpaceOnUse">
<stop stop-color="#255487"/>
<stop offset="1" stop-color="#66BAA1"/>
</linearGradient>
<linearGradient id="paint24_linear" x1="136.678" y1="327.605" x2="168.375" y2="295.927" gradientUnits="userSpaceOnUse">
<stop stop-color="#12BCB9" stop-opacity="0.3"/>
<stop offset="0.0426759" stop-color="#12BBB8" stop-opacity="0.3594"/>
<stop offset="0.5028" stop-color="#12B9B7"/>
<stop offset="1" stop-color="#156C84"/>
</linearGradient>
<linearGradient id="paint25_linear" x1="184.893" y1="164.964" x2="184.893" y2="429.006" gradientUnits="userSpaceOnUse">
<stop stop-color="#E535AB" stop-opacity="0"/>
<stop offset="1" stop-color="white"/>
</linearGradient>
<linearGradient id="paint26_linear" x1="47.1725" y1="448.268" x2="148.699" y2="346.8" gradientUnits="userSpaceOnUse">
<stop stop-color="#E40A34"/>
<stop offset="1" stop-color="#FBE900"/>
</linearGradient>
<linearGradient id="paint27_linear" x1="270.998" y1="71.8641" x2="333.641" y2="9.2565" gradientUnits="userSpaceOnUse">
<stop stop-color="#E40A34"/>
<stop offset="0.9986" stop-color="#E57627"/>
</linearGradient>
<linearGradient id="paint28_linear" x1="336.893" y1="201.147" x2="274.249" y2="263.755" gradientUnits="userSpaceOnUse">
<stop stop-color="#E40A34"/>
<stop offset="0.9986" stop-color="#E57627"/>
</linearGradient>
</defs>
</svg>
