<svg data-name="Layer 1" xmlns="http://www.w3.org/2000/svg" viewBox="0 0 160.45 42.1" fill="#fff"><path class="cls-1" d="M144 27.83l-2.84-3.39A1.12 1.12 0 0 1 141 24v-5.2l.55-.55a.6.6 0 0 0 .16-.32v-1.37a.51.51 0 0 0-.47-.47h-4.1a.51.51 0 0 0-.47.47v1.34c0 .08.08.24.08.32l.47.55V24a1.12 1.12 0 0 1-.16.47l-2.76 3.39a1.12 1.12 0 0 0-.16.47v4a.71.71 0 0 0 .71.71h8.59a.71.71 0 0 0 .71-.71v-4a.76.76 0 0 0-.15-.5zm-3.86-11.28c0-.16.08-.32.16-.32h.7c.08 0 .16.16.16.32v.63c0 .16-.08.32-.16.32l-.71-.24c-.08 0-.16-.16-.16-.32zm3.15 14.51a1 1 0 0 1-.47.79c-.08.39-.24.71-.55.71h-.63a.64.64 0 0 0 .31-.63h-6a.87.87 0 0 1-.87-.87v-2.83h6.78a2.32 2.32 0 0 0-.16-.71l-1.1-2.84a3.37 3.37 0 0 1-.16-.95v-4.49c0-.47 0-.63.32-.79h-3.23c-.08 0-.08 0-.08-.08l-.32-.32a.15.15 0 0 1 .08-.24h4c.16 0 .16.16.08.24l-.32.32-.32.47v4.89a2.17 2.17 0 0 0 .24 1l1.81 2.92a1.14 1.14 0 0 1 .16.55h.47v2.84zm-4.81-5a.42.42 0 0 1 .39.39v.79a.42.42 0 0 1-.39.39h-.79a.42.42 0 0 1-.39-.39v-.79a.42.42 0 0 1 .39-.39zm-.39-2.76v-.39a.17.17 0 0 1 .16-.16h.39a.17.17 0 0 1 .16.16v.39a.17.17 0 0 1-.16.16h-.39a.17.17 0 0 1-.19-.2zm1.18 1h.63a.21.21 0 0 1 .24.24v.63a.21.21 0 0 1-.24.24h-.63a.21.21 0 0 1-.24-.24v-.63a.35.35 0 0 1 .21-.26zm0-3.71v-.31a.17.17 0 0 1 .16-.16h.32a.17.17 0 0 1 .16.16v.31a.17.17 0 0 1-.16.16h-.32c-.11-.01-.19-.01-.19-.17zm.29-9.39h-1.1a.61.61 0 0 1-.39-.16l-.39-.39a.62.62 0 0 1-.16-.39V9.15a.54.54 0 0 0-.55-.55h-1.18a.54.54 0 0 0-.55.55v1.18a.54.54 0 0 0 .55.55h1.1a.94.94 0 0 1 .47.16l.4.4a.78.78 0 0 1 .16.47V13a.54.54 0 0 0 .55.55h1.18a.54.54 0 0 0 .55-.55v-1.17c-.09-.4-.33-.63-.64-.63zm-9.86-.4h1.1a.62.62 0 0 1 .39.16l.39.4a.62.62 0 0 1 .16.39v1.1a.54.54 0 0 0 .55.55h1.18a.54.54 0 0 0 .55-.55v-1.18a.54.54 0 0 0-.55-.55h-1.1a.93.93 0 0 1-.47-.16l-.39-.39a.78.78 0 0 1-.16-.47V9a.54.54 0 0 0-.55-.55h-1.18a.54.54 0 0 0-.55.55v1.18c.08.38.32.62.63.62z"/><path class="cls-1" d="M134.83 12v1.1a.62.62 0 0 1-.16.4l-.39.39a.62.62 0 0 1-.39.16h-1.1a.54.54 0 0 0-.55.55v1.18a.54.54 0 0 0 .55.55H134a.54.54 0 0 0 .55-.55v-1.1a.94.94 0 0 1 .16-.47l.39-.39a.78.78 0 0 1 .47-.16h1.11a.54.54 0 0 0 .55-.55v-1.2a.54.54 0 0 0-.55-.55h-1.18c-.44.07-.67.31-.67.64zM102 9h2.84v.55h-1.18v4.57h-.55V9.54h-1.18V9zm3.42 5.11V9h.58v.63h.55v.63H106v3.86zm1.18-2.68v-1.18h.55v1.18h.55v.63h-.55v-.63zm1.1 0v-1.18h.55v1.18zm1.18 2.68v-3.86h-.55v-.63h.55V9h.55v5.12zm-78.13.16H17.19v13.56h3.15V17.42h3.16v10.41h3.15V17.42h3.15v10.41H33V16.32h-2.17v-2.05zm11.51 0v2.05h-2.13v11.51h3.15V17.42h3.63v-3.15zm-7.33 13.56h3.15V14.27h-3.15zm41.24-13.56H62.61v13.56h3.07v-10.4h3.15v10.4h3.16v-10.4h3.15v10.4h3.08V16.32h-2.05v-2.05zm12.46 0H82.4v2.13h-2v9.38h2v2.05h8.12v-3.15h-7.1v-2h7.25v-6.36h-2.12v-2.05zm-5.13 3.08h4.1v2.13h-4.1zm17.66-3.08h-6.23v2.13h-2v9.38h2v2.05h8.12v-3.15H96v-2h7.25v-6.36h-2.13v-2.05zM96 17.35h4.1v2.13H96zM34.93 8.99h3.15v3.15h-3.15zm22.39 15.85h-5.2V14.27h-3.08v11.51h2.05v2.05h9.39V14.27h-3.16v10.57z"/><path class="cls-1" d="M120.09 0H0v42.1h160.45V0zm-1.89 40.13H2V1.89h116.19zm40.29 0h-38.4V1.89h38.4z"/></svg>