<svg xmlns="http://www.w3.org/2000/svg" width="124.265" height="81.154"><path d="M55.46 54.35s-3.986 7.103 3.119 11.088c7.104 3.984 14.108-5.167 14.108-5.167zm30.857 8.771s22.64 15.128 27.445 12.374c4.642-3.31-27.445-12.374-27.445-12.374zM79.696 57.447s30.804 17.618 36.369 13.797c4.11-3.899-36.37-13.797-36.37-13.797zm-1.057 5.585s25.494 20.838 32.157 17.824c5.543-3.078-32.157-17.824-32.157-17.824zM73.474 60.898s22.767 20.41 27.029 20.04c4.139-.359-27.03-20.04-27.03-20.04z" fill="#d85039"/><path d="M72.128 56.771s27.102 18.277 33.31 15.977c5.384-2.214-33.31-15.977-33.31-15.977zM70.158 54.784s31.42 16.104 36.62 13.174c4.14-2.815-36.62-13.174-36.62-13.174zm-1.627.438s23.743 19.435 29.465 18.458c4.978-.992-29.465-18.458-29.465-18.458zM65.782 55.298s17.77 20.827 25.312 19.774c6.722-.949-25.312-19.774-25.312-19.774z" fill="#ea9658"/><path d="M61.613 52.274s27.364 17.621 33.474 15.566c5.22-2-33.474-15.566-33.474-15.566zM61.758 52.183s31.802 15.537 36.838 12.841c4.244-2.69-36.838-12.84-36.838-12.84zm-1.492.951s24.006 18.693 30.71 17.088c6.152-1.785-30.71-17.088-30.71-17.088z" fill="#1f8299"/><path d="M115.11 18.251l-5.122-.536c5.66-4.589 6.996-17.402 6.996-17.402-37.214 33.458-74.246 23.331-74.246 23.331l-21.748 2.908a105.47 105.47 0 0 0 3.402 2.503l-1.106.326c42.109 43.252 85.093 3.708 85.093 3.708l-5.123-.537c10.787-4.054 11.854-14.3 11.854-14.3zM15.346 27.743s26.48 60.701 55.557 25.594l-45.155-32.464zM46.454 26.592s-5.846-7.19-19.918-19.32c-18.514-15.957-22.003-.679-22.003-.679l10.813 21.15z" fill="#d85039"/><path d="M30.749 17.36s-21.021-3.064-18.213 3.66l-5.62-13.448s10.641-12.342 23.834 9.788z" fill="#fff"/><circle cx="16.727" cy="7.423" r="1.287" fill="#404041"/><path d="M13.148 23.443s-7.611-8.387-9.568-3.623l3.915-9.532s3.395-1.695 5.652 13.155z" fill="#58595b"/><path d="M46.454 26.592s52.938 11.627 77.81-1.47c0 0-4.893 11.915-11.617 14.722l4.768 1.96s-3.913 9.531-15.403 10.383l4.768 1.957s-52.387 25.836-80.605-27.526z" fill="#26a5d4"/><path d="M46.454 26.592s27.937 11.47 55.259 5.977c0 0-2.938 7.151-9.662 9.96l4.769 1.956s-5.32 6.17-11.066 6.598l7.15 2.934s-42.277 17.403-66.73-27.399z" fill="#ea9658"/><path d="M44.783 26.715s20.252 13.683 46.274 11.052c0 0-3.267 5.754-9.28 7.414l3.839 2.176s-5.185 4.665-10.11 4.406l5.755 3.266s-39.94 3.732-55.088-28.41z" fill="#ffe6c6"/><path d="M45.909 25.95s13.776 10.965 31.843 10.707c0 0-3.914 9.533-14.426 8 0 0 4.768 1.956 6.172 5.32 0 0-20.852 7.76-44.005-24.027z" fill="#d85039"/><path d="M9.169 10.015s.44-2.538-4.634-3.422c0 0-9.823 11.364-.554 18.208 0 .001-2.093-2.979 5.188-14.786z" fill="#bbbbbc"/></svg>