<svg xmlns="http://www.w3.org/2000/svg" viewBox="0 0 1588 1260" enable-background="new 0 0 1588 1260"><style type="text/css">.st0{opacity:0.5;fill:url(#SVGID_1_);enable-background:new ;} .st1{opacity:0.5;fill:url(#Vector_3_);enable-background:new ;} .st2{opacity:0.5;fill:url(#Vector_4_);enable-background:new ;} .st3{fill-opacity:0;} .st4{opacity:0.5;fill:url(#SVGID_2_);enable-background:new ;} .st5{opacity:0.5;fill:url(#SVGID_3_);enable-background:new ;} .st6{opacity:0.5;fill:url(#SVGID_4_);enable-background:new ;} .st7{opacity:0.5;fill:url(#SVGID_5_);enable-background:new ;} .st8{opacity:0.5;fill:url(#SVGID_6_);enable-background:new ;} .st9{fill:url(#SVGID_7_);} .st10{fill:url(#SVGID_8_);} .st11{fill:url(#SVGID_9_);} .st12{fill:url(#SVGID_10_);} .st13{fill:url(#SVGID_11_);} .st14{fill:url(#SVGID_12_);} .st15{fill:#66BAA1;} .st16{fill:url(#SVGID_13_);} .st17{fill:url(#SVGID_14_);} .st18{fill:url(#SVGID_15_);} .st19{fill:url(#SVGID_16_);} .st20{fill:url(#SVGID_17_);} .st21{fill:url(#SVGID_18_);} .st22{fill:url(#SVGID_19_);} .st23{fill:url(#SVGID_20_);} .st24{fill:url(#SVGID_21_);} .st25{fill:url(#SVGID_22_);} .st26{fill:url(#SVGID_23_);} .st27{fill:url(#SVGID_24_);} .st28{fill:url(#SVGID_25_);} .st29{fill:url(#SVGID_26_);} .st30{fill:url(#SVGID_27_);} .st31{fill:url(#SVGID_28_);} .st32{fill:url(#SVGID_29_);} .st33{fill:url(#SVGID_30_);} .st34{fill:url(#SVGID_31_);} .st35{fill:url(#SVGID_32_);} .st36{fill:url(#SVGID_33_);} .st37{fill:url(#SVGID_34_);} .st38{fill:url(#SVGID_35_);} .st39{fill:url(#SVGID_36_);} .st40{fill:url(#SVGID_37_);} .st41{fill:url(#SVGID_38_);} .st42{fill:url(#SVGID_39_);} .st43{fill:url(#SVGID_40_);} .st44{fill:url(#SVGID_41_);} .st45{fill:url(#SVGID_42_);} .st46{fill:url(#SVGID_43_);} .st47{fill:#FFFFFF;} .st48{fill:#C62D1A;} .st49{fill:#EAEAEA;} .st50{fill:#D94018;} .st51{fill:url(#SVGID_44_);} .st52{fill:url(#SVGID_45_);} .st53{fill:#B2190C;} .st54{opacity:0.3;fill:url(#SVGID_46_);enable-background:new ;} .st55{opacity:0.3;fill:url(#SVGID_47_);enable-background:new ;} .st56{opacity:0.7;fill:url(#SVGID_48_);enable-background:new ;} .st57{fill:url(#SVGID_49_);} .st58{fill:url(#SVGID_50_);} .st59{fill:url(#SVGID_51_);} .st60{fill:url(#SVGID_52_);} .st61{fill:url(#SVGID_53_);} .st62{fill:url(#SVGID_54_);} .st63{fill:url(#SVGID_55_);} .st64{fill:url(#SVGID_56_);} .st65{fill:url(#SVGID_57_);} .st66{opacity:0.3;fill:url(#SVGID_58_);enable-background:new ;} .st67{opacity:0.2;fill:url(#SVGID_59_);enable-background:new ;} .st68{fill:url(#SVGID_60_);} .st69{opacity:0.5;fill:url(#Vector_5_);enable-background:new ;} .st70{fill:none;} .st71{opacity:0.5;fill:url(#Vector_2_2_);enable-background:new ;} .st72{opacity:0.5;fill:url(#Vector_2_3_);enable-background:new ;} .st73{opacity:0.5;fill:url(#Vector_3_1_);enable-background:new ;} .st74{opacity:0.5;fill:url(#Vector_4_2_);enable-background:new ;} .st75{opacity:0.5;fill:url(#Vector_4_3_);enable-background:new ;} .st76{opacity:0.7;fill:#356DAA;enable-background:new ;} .st77{opacity:0.7;fill:url(#SVGID_61_);enable-background:new ;} .st78{opacity:0.7;fill:#295687;enable-background:new ;} .st79{opacity:0.7;fill:url(#SVGID_62_);enable-background:new ;} .st80{opacity:0.7;fill:url(#SVGID_63_);enable-background:new ;} .st81{fill:#CC5C11;} .st82{opacity:0.2;} .st83{fill:none;stroke:#FFFFFF;stroke-width:1.8759;stroke-miterlimit:10;} .st84{fill:none;stroke:#FFFFFF;stroke-width:0.7633;stroke-miterlimit:10;} .st85{fill:#DD6D22;} .st86{opacity:0.3;fill:none;stroke:#FFFFFF;stroke-width:1.8759;stroke-miterlimit:10;enable-background:new ;} .st87{opacity:0.8;} .st88{opacity:0.5;fill:url(#SVGID_64_);enable-background:new ;} .st89{opacity:0.4;fill:url(#SVGID_65_);enable-background:new ;} .st90{opacity:0.6;fill:url(#SVGID_66_);enable-background:new ;} .st91{opacity:0.5;fill:url(#SVGID_67_);enable-background:new ;} .st92{opacity:0.4;fill:url(#SVGID_68_);enable-background:new ;} .st93{opacity:0.3;fill:url(#SVGID_69_);enable-background:new ;} .st94{opacity:0.3;fill:url(#SVGID_70_);enable-background:new ;} .st95{opacity:0.5;fill:url(#SVGID_71_);enable-background:new ;} .st96{opacity:0.4;fill:url(#SVGID_72_);enable-background:new ;} .st97{opacity:0.6;fill:url(#SVGID_73_);enable-background:new ;} .st98{opacity:0.5;fill:url(#SVGID_74_);enable-background:new ;} .st99{opacity:0.4;fill:url(#SVGID_75_);enable-background:new ;} .st100{opacity:0.3;fill:url(#SVGID_76_);enable-background:new ;} .st101{opacity:0.3;fill:url(#SVGID_77_);enable-background:new ;} .st102{opacity:0.7;} .st103{opacity:0.5;fill:url(#SVGID_78_);enable-background:new ;} .st104{opacity:0.4;fill:url(#SVGID_79_);enable-background:new ;} .st105{opacity:0.6;fill:url(#SVGID_80_);enable-background:new ;} .st106{opacity:0.5;fill:url(#SVGID_81_);enable-background:new ;} .st107{opacity:0.4;fill:url(#SVGID_82_);enable-background:new ;} .st108{opacity:0.3;fill:url(#SVGID_83_);enable-background:new ;} .st109{opacity:0.3;fill:url(#SVGID_84_);enable-background:new ;} .st110{opacity:0.5;} .st111{opacity:0.5;fill:url(#SVGID_85_);enable-background:new ;} .st112{opacity:0.4;fill:url(#SVGID_86_);enable-background:new ;} .st113{opacity:0.6;fill:url(#SVGID_87_);enable-background:new ;} .st114{opacity:0.5;fill:url(#SVGID_88_);enable-background:new ;} .st115{opacity:0.4;fill:url(#SVGID_89_);enable-background:new ;} .st116{opacity:0.3;fill:url(#SVGID_90_);enable-background:new ;} .st117{opacity:0.3;fill:url(#SVGID_91_);enable-background:new ;} .st118{opacity:0.5;fill:url(#SVGID_92_);enable-background:new ;} .st119{opacity:0.4;fill:url(#SVGID_93_);enable-background:new ;} .st120{opacity:0.6;fill:url(#SVGID_94_);enable-background:new ;} .st121{opacity:0.5;fill:url(#SVGID_95_);enable-background:new ;} .st122{opacity:0.4;fill:url(#SVGID_96_);enable-background:new ;} .st123{opacity:0.3;fill:url(#SVGID_97_);enable-background:new ;} .st124{opacity:0.3;fill:url(#SVGID_98_);enable-background:new ;} .st125{opacity:0.5;fill:url(#SVGID_99_);enable-background:new ;} .st126{opacity:0.4;fill:url(#SVGID_100_);enable-background:new ;} .st127{opacity:0.6;fill:url(#SVGID_101_);enable-background:new ;} .st128{opacity:0.5;fill:url(#SVGID_102_);enable-background:new ;} .st129{opacity:0.4;fill:url(#SVGID_103_);enable-background:new ;} .st130{opacity:0.3;fill:url(#SVGID_104_);enable-background:new ;} .st131{opacity:0.3;fill:url(#SVGID_105_);enable-background:new ;} .st132{opacity:0.5;fill:url(#SVGID_106_);enable-background:new ;} .st133{opacity:0.4;fill:url(#SVGID_107_);enable-background:new ;} .st134{opacity:0.6;fill:url(#SVGID_108_);enable-background:new ;} .st135{opacity:0.5;fill:url(#SVGID_109_);enable-background:new ;} .st136{opacity:0.4;fill:url(#SVGID_110_);enable-background:new ;} .st137{opacity:0.3;fill:url(#SVGID_111_);enable-background:new ;} .st138{opacity:0.3;fill:url(#SVGID_112_);enable-background:new ;} .st139{opacity:0.5;fill:url(#SVGID_113_);enable-background:new ;} .st140{opacity:0.4;fill:url(#SVGID_114_);enable-background:new ;} .st141{opacity:0.6;fill:url(#SVGID_115_);enable-background:new ;} .st142{opacity:0.5;fill:url(#SVGID_116_);enable-background:new ;} .st143{opacity:0.4;fill:url(#SVGID_117_);enable-background:new ;} .st144{opacity:0.3;fill:url(#SVGID_118_);enable-background:new ;} .st145{opacity:0.3;fill:url(#SVGID_119_);enable-background:new ;} .st146{opacity:0.5;fill:url(#SVGID_120_);enable-background:new ;} .st147{opacity:0.4;fill:url(#SVGID_121_);enable-background:new ;} .st148{opacity:0.6;fill:url(#SVGID_122_);enable-background:new ;} .st149{opacity:0.5;fill:url(#SVGID_123_);enable-background:new ;} .st150{opacity:0.4;fill:url(#SVGID_124_);enable-background:new ;} .st151{opacity:0.3;fill:url(#SVGID_125_);enable-background:new ;} .st152{opacity:0.3;fill:url(#SVGID_126_);enable-background:new ;} .st153{opacity:0.5;fill:url(#SVGID_127_);enable-background:new ;} .st154{opacity:0.4;fill:url(#SVGID_128_);enable-background:new ;} .st155{opacity:0.6;fill:url(#SVGID_129_);enable-background:new ;} .st156{opacity:0.5;fill:url(#SVGID_130_);enable-background:new ;} .st157{opacity:0.4;fill:url(#SVGID_131_);enable-background:new ;} .st158{opacity:0.3;fill:url(#SVGID_132_);enable-background:new ;} .st159{opacity:0.3;fill:url(#SVGID_133_);enable-background:new ;} .st160{opacity:0.5;fill:url(#SVGID_134_);enable-background:new ;} .st161{opacity:0.4;fill:url(#SVGID_135_);enable-background:new ;} .st162{opacity:0.6;fill:url(#SVGID_136_);enable-background:new ;} .st163{opacity:0.5;fill:url(#SVGID_137_);enable-background:new ;} .st164{opacity:0.4;fill:url(#SVGID_138_);enable-background:new ;} .st165{opacity:0.3;fill:url(#SVGID_139_);enable-background:new ;} .st166{opacity:0.3;fill:url(#SVGID_140_);enable-background:new ;} .st167{opacity:0.3;} .st168{opacity:0.5;fill:url(#SVGID_141_);enable-background:new ;} .st169{opacity:0.4;fill:url(#SVGID_142_);enable-background:new ;} .st170{opacity:0.6;fill:url(#SVGID_143_);enable-background:new ;} .st171{opacity:0.5;fill:url(#SVGID_144_);enable-background:new ;} .st172{opacity:0.4;fill:url(#SVGID_145_);enable-background:new ;} .st173{opacity:0.3;fill:url(#SVGID_146_);enable-background:new ;} .st174{opacity:0.3;fill:url(#SVGID_147_);enable-background:new ;} .st175{opacity:0.5;fill:url(#SVGID_148_);enable-background:new ;} .st176{opacity:0.4;fill:url(#SVGID_149_);enable-background:new ;} .st177{opacity:0.6;fill:url(#SVGID_150_);enable-background:new ;} .st178{opacity:0.5;fill:url(#SVGID_151_);enable-background:new ;} .st179{opacity:0.4;fill:url(#SVGID_152_);enable-background:new ;} .st180{opacity:0.3;fill:url(#SVGID_153_);enable-background:new ;} .st181{opacity:0.3;fill:url(#SVGID_154_);enable-background:new ;} .st182{opacity:0.4;} .st183{opacity:0.5;fill:url(#SVGID_155_);enable-background:new ;} .st184{opacity:0.4;fill:url(#SVGID_156_);enable-background:new ;} .st185{opacity:0.6;fill:url(#SVGID_157_);enable-background:new ;} .st186{opacity:0.5;fill:url(#SVGID_158_);enable-background:new ;} .st187{opacity:0.4;fill:url(#SVGID_159_);enable-background:new ;} .st188{opacity:0.3;fill:url(#SVGID_160_);enable-background:new ;} .st189{opacity:0.3;fill:url(#SVGID_161_);enable-background:new ;} .st190{opacity:0.5;fill:url(#SVGID_162_);enable-background:new ;} .st191{opacity:0.4;fill:url(#SVGID_163_);enable-background:new ;} .st192{opacity:0.6;fill:url(#SVGID_164_);enable-background:new ;} .st193{opacity:0.5;fill:url(#SVGID_165_);enable-background:new ;} .st194{opacity:0.4;fill:url(#SVGID_166_);enable-background:new ;} .st195{opacity:0.3;fill:url(#SVGID_167_);enable-background:new ;} .st196{opacity:0.3;fill:url(#SVGID_168_);enable-background:new ;} .st197{opacity:0.6;} .st198{opacity:0.5;fill:url(#SVGID_169_);enable-background:new ;} .st199{opacity:0.4;fill:url(#SVGID_170_);enable-background:new ;} .st200{opacity:0.6;fill:url(#SVGID_171_);enable-background:new ;} .st201{opacity:0.5;fill:url(#SVGID_172_);enable-background:new ;} .st202{opacity:0.4;fill:url(#SVGID_173_);enable-background:new ;} .st203{opacity:0.3;fill:url(#SVGID_174_);enable-background:new ;} .st204{opacity:0.3;fill:url(#SVGID_175_);enable-background:new ;} .st205{fill:none;stroke:url(#SVGID_176_);stroke-width:5.2444;stroke-miterlimit:10;} .st206{fill:none;stroke:url(#SVGID_177_);stroke-width:5.2444;stroke-miterlimit:10;} .st207{fill:none;stroke:url(#SVGID_178_);stroke-width:4.9143;stroke-miterlimit:10;}</style><path class="st3" d="M0 252h1588v756h-1588zM0 252h1588v735.8h-1588z"/><linearGradient id="SVGID_1_" gradientUnits="userSpaceOnUse" x1="1587.99" y1="352.474" x2="785.016" y2="352.474" gradientTransform="matrix(1 0 0 -1 0 1260.551)"><stop offset="0" stop-color="#255487"/><stop offset="1" stop-color="#66BAA1"/></linearGradient><path class="st0" d="M1588 849.6h-688.3l-114.7 116.9h688.3l114.7-116.9z"/><linearGradient id="SVGID_2_" gradientUnits="userSpaceOnUse" x1="1182.89" y1="995.566" x2="1018.84" y2="995.566" gradientTransform="matrix(1 0 0 -1 0 1260.551)"><stop offset="0" stop-color="#255487"/><stop offset="1" stop-color="#66BAA1"/></linearGradient><path class="st4" d="M1182.9 252h-140.6l-23.4 26h140.6l23.4-26z"/><linearGradient id="SVGID_3_" gradientUnits="userSpaceOnUse" x1="384.221" y1="439.361" x2="0" y2="439.361" gradientTransform="matrix(1 0 0 -1 0 1260.551)"><stop offset="0" stop-color="#255487"/><stop offset="1" stop-color="#66BAA1"/></linearGradient><path class="st5" d="M384.2 793.1h-329.3l-54.9 56.2h329.3l54.9-56.2z"/><linearGradient id="SVGID_4_" gradientUnits="userSpaceOnUse" x1="673.986" y1="300.85" x2="289.766" y2="300.85" gradientTransform="matrix(1 0 0 -1 0 1260.551)"><stop offset="0" stop-color="#255487"/><stop offset="1" stop-color="#66BAA1"/></linearGradient><path class="st6" d="M674 931.6h-329.3l-54.9 56.3h329.3l54.9-56.3z"/><linearGradient id="SVGID_5_" gradientUnits="userSpaceOnUse" x1="379.655" y1="712.926" x2="622.692" y2="1067.329" gradientTransform="matrix(1 0 0 -1 0 1260.551)"><stop offset="0" stop-color="#B2190C"/><stop offset="1" stop-color="#E66D12"/></linearGradient><path d="M369.6 390.7l102-103h204l-102 103h-204z" fill="url(#SVGID_5_)"/><linearGradient id="SVGID_6_" gradientUnits="userSpaceOnUse" x1="610.889" y1="554.369" x2="853.929" y2="908.777" gradientTransform="matrix(1 0 0 -1 0 1260.551)"><stop offset="0" stop-color="#B2190C"/><stop offset="1" stop-color="#E66D12"/></linearGradient><path d="M709.6 390.7l102-103h204l-102 103h-204z" fill="url(#SVGID_6_)"/><linearGradient id="SVGID_7_" gradientUnits="userSpaceOnUse" x1="661.546" y1="833.563" x2="648.068" y2="1073.818" gradientTransform="matrix(1 0 0 -1 0 1260.551)"><stop offset="0" stop-color="#B2190C"/><stop offset="1" stop-color="#E66D12"/></linearGradient><path class="st9" d="M573.6 390.7l68 68.7 102-103-68-68.6-102 102.9z"/><linearGradient id="SVGID_8_" gradientUnits="userSpaceOnUse" x1="864.961" y1="787.458" x2="1034.219" y2="913.646" gradientTransform="matrix(1 0 0 -1 0 1260.551)"><stop offset="0" stop-color="#B2190C"/><stop offset="1" stop-color="#E66D12"/></linearGradient><path class="st10" d="M913.5 390.7l68 68.7 102-103-68-68.6-102 102.9z"/><linearGradient id="SVGID_9_" gradientUnits="userSpaceOnUse" x1="969.076" y1="523.296" x2="1095.986" y2="976.515" gradientTransform="matrix(1 0 0 -1 0 1260.551)"><stop offset="0" stop-color="#B2190C"/><stop offset="1" stop-color="#E66D12"/></linearGradient><path class="st11" d="M981.5 665.3l102-103v-206l-102 103v206z"/><path class="st3" d="M242.4 274.3h943.1v609.3h-943.1z"/><linearGradient id="SVGID_10_" gradientUnits="userSpaceOnUse" x1="411.125" y1="841.685" x2="613.554" y2="841.685" gradientTransform="matrix(1 0 0 -1 0 1260.551)"><stop offset="0" stop-color="#255487"/><stop offset="1" stop-color="#66BAA1"/></linearGradient><path class="st12" d="M411.1 402.3l32.7 33.1h169.7l-32.7-33.1h-169.7z"/><path class="st15" d="M369.2 595.5l32.7 33.1h170.9l-32.7-33.1h-170.9z"/><linearGradient id="SVGID_11_" gradientUnits="userSpaceOnUse" x1="387.293" y1="585.555" x2="489.138" y2="585.555" gradientTransform="matrix(1 0 0 -1 0 1260.551)"><stop offset="0" stop-color="#B2190C"/><stop offset="1" stop-color="#E66D12"/></linearGradient><path class="st13" d="M242.4 658.5l32.7 33.1h190.2l-32.7-33.1h-190.2z"/><linearGradient id="SVGID_12_" gradientUnits="userSpaceOnUse" x1="400.906" y1="393.458" x2="531.845" y2="393.458" gradientTransform="matrix(1 0 0 -1 0 1260.551)"><stop offset="0" stop-color="#66BAA1"/><stop offset="1" stop-color="#1886B5"/></linearGradient><path class="st14" d="M400.9 850.6l32.7 33.1h98.2l-32.7-33.1h-98.2z"/><linearGradient id="SVGID_13_" gradientUnits="userSpaceOnUse" x1="926.5" y1="575.663" x2="1035.06" y2="575.663" gradientTransform="matrix(1 0 0 -1 0 1260.551)"><stop offset="0" stop-color="#B2190C"/><stop offset="1" stop-color="#E66D12"/></linearGradient><path class="st16" d="M926.5 676.1l17.4 17.6h91.1l-17.5-17.6h-91z"/><linearGradient id="SVGID_14_" gradientUnits="userSpaceOnUse" x1="844.812" y1="528.745" x2="1185.45" y2="528.745" gradientTransform="matrix(1 0 0 -1 0 1260.551)"><stop offset="0" stop-color="#255487"/><stop offset="1" stop-color="#66BAA1"/></linearGradient><path class="st17" d="M844.8 723.5l16.4 16.5h324.3l-16.4-16.5h-324.3z"/><linearGradient id="SVGID_15_" gradientUnits="userSpaceOnUse" x1="564.422" y1="866.483" x2="695.36" y2="866.483" gradientTransform="matrix(1 0 0 -1 0 1260.551)"><stop offset="0" stop-color="#B2190C"/><stop offset="1" stop-color="#E66D12"/></linearGradient><path class="st18" d="M564.4 402.3l16.4-16.5h98.2l16.4 16.5h-131z"/><linearGradient id="SVGID_16_" gradientUnits="userSpaceOnUse" x1="396.781" y1="545.271" x2="527.726" y2="545.271" gradientTransform="matrix(1 0 0 -1 0 1260.551)"><stop offset="0" stop-color="#B2190C"/><stop offset="1" stop-color="#E66D12"/></linearGradient><path class="st19" d="M396.8 723.5l16.4-16.5h98.2l16.4 16.5h-131z"/><linearGradient id="SVGID_17_" gradientUnits="userSpaceOnUse" x1="1130.16" y1="912.949" x2="897.953" y2="912.949" gradientTransform="matrix(1 0 0 -1 0 1260.551)"><stop offset="0" stop-color="#B2190C"/><stop offset="1" stop-color="#E66D12"/></linearGradient><path class="st20" d="M1130.2 339.3l-16.4 16.5h-199.5l-16.3-16.5h232.2z"/><linearGradient id="SVGID_18_" gradientUnits="userSpaceOnUse" x1="937.875" y1="969.753" x2="1003.35" y2="969.753" gradientTransform="matrix(1 0 0 -1 0 1260.551)"><stop offset="0" stop-color="#B2190C"/><stop offset="1" stop-color="#E66D12"/></linearGradient><path class="st21" d="M937.9 274.3l32.7 33 32.7-33h-65.4z"/><linearGradient id="SVGID_19_" gradientUnits="userSpaceOnUse" x1="931.781" y1="866.483" x2="964.514" y2="866.483" gradientTransform="matrix(1 0 0 -1 0 1260.551)"><stop offset="0" stop-color="#B2190C"/><stop offset="1" stop-color="#E66D12"/></linearGradient><path class="st22" d="M931.8 402.3l16.4-16.5 16.4 16.5h-32.8z"/><linearGradient id="SVGID_20_" gradientUnits="userSpaceOnUse" x1="836.757" y1="387.918" x2="1011.667" y2="932.318" gradientTransform="matrix(1 0 0 -1 0 1260.551)"><stop offset="0" stop-color="#B2190C"/><stop offset="1" stop-color="#E66D12"/></linearGradient><path class="st23" d="M913.5 390.7v342.1l68-67.5v-207l-68-67.6z"/><linearGradient id="SVGID_21_" gradientUnits="userSpaceOnUse" x1="412.758" y1="169.563" x2="579.034" y2="687.104" gradientTransform="matrix(1 0 0 -1 0 1260.551)"><stop offset="0" stop-color="#B2190C"/><stop offset="1" stop-color="#E66D12"/></linearGradient><path class="st24" d="M301.6 665.3l68-69.8 339.9 343.2-68.5 69.3-339.4-342.7z"/><linearGradient id="SVGID_22_" gradientUnits="userSpaceOnUse" x1="99.96" y1="147.962" x2="368.807" y2="815.497" gradientTransform="matrix(1 0 0 -1 0 1260.551)"><stop offset="0" stop-color="#B2190C"/><stop offset="1" stop-color="#E66D12"/></linearGradient><path class="st25" d="M369.6 390.7v204.8l-68 69.8v-205.9l68-68.7z"/><linearGradient id="SVGID_23_" gradientUnits="userSpaceOnUse" x1="675.531" y1="441.891" x2="879.49" y2="441.891" gradientTransform="matrix(1 0 0 -1 0 1260.551)"><stop offset="0" stop-color="#B2190C"/><stop offset="1" stop-color="#E66D12"/></linearGradient><path class="st26" d="M879.5 767.2l-102 103h-102l102-103h102z"/><linearGradient id="SVGID_24_" gradientUnits="userSpaceOnUse" x1="471.578" y1="356.081" x2="777.513" y2="356.081" gradientTransform="matrix(1 0 0 -1 0 1260.551)"><stop offset="0" stop-color="#B2190C"/><stop offset="1" stop-color="#E66D12"/></linearGradient><path class="st27" d="M777.5 870.1h-305.9l68 68.6h170l67.9-68.6z"/><linearGradient id="SVGID_25_" gradientUnits="userSpaceOnUse" x1="301.625" y1="835.509" x2="641.554" y2="835.509" gradientTransform="matrix(1 0 0 -1 0 1260.551)"><stop offset="0" stop-color="#B2190C"/><stop offset="1" stop-color="#E66D12"/></linearGradient><path class="st28" d="M301.6 459.4h339.9l-68-68.7h-204l-67.9 68.7z"/><linearGradient id="SVGID_26_" gradientUnits="userSpaceOnUse" x1="301.625" y1="630.119" x2="845.513" y2="630.119" gradientTransform="matrix(1 0 0 -1 0 1260.551)"><stop offset="0" stop-color="#B2190C"/><stop offset="1" stop-color="#E66D12"/></linearGradient><path class="st29" d="M301.6 665.3v-69.8h543.9l-68 68.7-475.9 1.1z"/><linearGradient id="SVGID_27_" gradientUnits="userSpaceOnUse" x1="301.625" y1="767.414" x2="845.513" y2="767.414" gradientTransform="matrix(1 0 0 -1 0 1260.551)"><stop offset="0" stop-color="#B2190C"/><stop offset="1" stop-color="#E66D12"/></linearGradient><path class="st30" d="M301.6 528v-69.8h543.9l-68 68.6-475.9 1.2z"/><linearGradient id="SVGID_28_" gradientUnits="userSpaceOnUse" x1="811.516" y1="630.675" x2="975.11" y2="630.675" gradientTransform="matrix(1 0 0 -1 0 1260.551)"><stop offset="0" stop-color="#B2190C"/><stop offset="1" stop-color="#E66D12"/></linearGradient><path class="st31" d="M811.5 664.2l68-68.7h95.6l-61.6 68.7h-102z"/><linearGradient id="SVGID_29_" gradientUnits="userSpaceOnUse" x1="675.531" y1="853.783" x2="947.472" y2="853.783" gradientTransform="matrix(1 0 0 -1 0 1260.551)"><stop offset="0" stop-color="#B2190C"/><stop offset="1" stop-color="#E66D12"/></linearGradient><path class="st32" d="M709.5 389.6l-34 34.3h271.9l-34-33.2-203.9-1.1z"/><linearGradient id="SVGID_30_" gradientUnits="userSpaceOnUse" x1="301.625" y1="699.326" x2="947.496" y2="699.326" gradientTransform="matrix(1 0 0 -1 0 1260.551)"><stop offset="0" stop-color="#B2190C"/><stop offset="1" stop-color="#E66D12"/></linearGradient><path class="st33" d="M301.6 595.6v-68.7h645.9l-68 68.7h-577.9z"/><linearGradient id="SVGID_31_" gradientUnits="userSpaceOnUse" x1="403.609" y1="441.891" x2="709.551" y2="441.891" gradientTransform="matrix(1 0 0 -1 0 1260.551)"><stop offset="0" stop-color="#B2190C"/><stop offset="1" stop-color="#E66D12"/></linearGradient><path class="st34" d="M505.6 870.1l-102-103h204l102 103h-204z"/><linearGradient id="SVGID_32_" gradientUnits="userSpaceOnUse" x1="335.609" y1="544.863" x2="641.545" y2="544.863" gradientTransform="matrix(1 0 0 -1 0 1260.551)"><stop offset="0" stop-color="#B2190C"/><stop offset="1" stop-color="#E66D12"/></linearGradient><path class="st35" d="M437.6 767.2l-102-103h204l102 103h-204z"/><linearGradient id="SVGID_33_" gradientUnits="userSpaceOnUse" x1="437.578" y1="562.023" x2="811.502" y2="562.023" gradientTransform="matrix(1 0 0 -1 0 1260.551)"><stop offset="0" stop-color="#B2190C"/><stop offset="1" stop-color="#E66D12"/></linearGradient><path class="st36" d="M811.5 665.3l-305.9-1.1-68 68.7h305.9l68-67.6z"/><linearGradient id="SVGID_34_" gradientUnits="userSpaceOnUse" x1="505.562" y1="510.538" x2="879.493" y2="510.538" gradientTransform="matrix(1 0 0 -1 0 1260.551)"><stop offset="0" stop-color="#B2190C"/><stop offset="1" stop-color="#E66D12"/></linearGradient><path class="st37" d="M879.5 732.9l-34 34.3h-339.9l34-34.3h339.9z"/><linearGradient id="SVGID_35_" gradientUnits="userSpaceOnUse" x1="641.562" y1="818.903" x2="947.504" y2="818.903" gradientTransform="matrix(1 0 0 -1 0 1260.551)"><stop offset="0" stop-color="#B2190C"/><stop offset="1" stop-color="#E66D12"/></linearGradient><path class="st38" d="M641.6 459.4l34-35.4h271.9l-34 34.3-271.9 1.1z"/><linearGradient id="SVGID_36_" gradientUnits="userSpaceOnUse" x1="743.531" y1="784.577" x2="1049.47" y2="784.577" gradientTransform="matrix(1 0 0 -1 0 1260.551)"><stop offset="0" stop-color="#B2190C"/><stop offset="1" stop-color="#E66D12"/></linearGradient><path class="st39" d="M743.5 493.7l34-35.4h272l-34 34.3-272 1.1z"/><linearGradient id="SVGID_37_" gradientUnits="userSpaceOnUse" x1="267.609" y1="818.903" x2="573.545" y2="818.903" gradientTransform="matrix(1 0 0 -1 0 1260.551)"><stop offset="0" stop-color="#B2190C"/><stop offset="1" stop-color="#E66D12"/></linearGradient><path class="st40" d="M267.6 459.4l34-35.4h271.9l-34 34.3-271.9 1.1z"/><linearGradient id="SVGID_38_" gradientUnits="userSpaceOnUse" x1="607.562" y1="717.122" x2="809.991" y2="717.122" gradientTransform="matrix(1 0 0 -1 0 1260.551)"><stop offset="0" stop-color="#255487"/><stop offset="1" stop-color="#66BAA1"/></linearGradient><path class="st41" d="M607.6 526.9l32.7 33.1h169.7l-32.7-33.1h-169.7z"/><linearGradient id="SVGID_39_" gradientUnits="userSpaceOnUse" x1="677.953" y1="456.452" x2="879.511" y2="456.452" gradientTransform="matrix(1 0 0 -1 0 1260.551)"><stop offset="0" stop-color="#255487"/><stop offset="1" stop-color="#66BAA1"/></linearGradient><path class="st42" d="M678 787.6l32.7 33.1h168.8l-32.7-33.1h-168.8z"/><linearGradient id="SVGID_40_" gradientUnits="userSpaceOnUse" x1="675.531" y1="261.368" x2="877.96" y2="261.368" gradientTransform="matrix(1 0 0 -1 0 1260.551)"><stop offset="0" stop-color="#B2190C"/><stop offset="1" stop-color="#E66D12"/></linearGradient><path class="st43" d="M675.5 1007.4l16.4-16.5h169.7l16.4 16.5h-202.5z"/><path class="st3" d="M465.7 662.9h447.8v71.3h-447.8z"/><linearGradient id="SVGID_41_" gradientUnits="userSpaceOnUse" x1="842.844" y1="562.03" x2="913.47" y2="562.03" gradientTransform="matrix(1 0 0 -1 0 1260.551)"><stop offset="0" stop-color="#B2190C"/><stop offset="1" stop-color="#E66D12"/></linearGradient><path class="st44" d="M913.5 662.9h-70.6v71.3h70.6v-71.3z"/><path class="st47" d="M842.9 662.9h-377.2v71.3h377.2v-71.3z"/><path class="st3" d="M855.1 673.2h52.3v52.8h-52.3z"/><path class="st47" d="M875.1 713.6c11 0 20-9 20-20.2 0-11.1-8.9-20.2-20-20.2-11 0-20 9-20 20.2s8.9 20.2 20 20.2zM875.1 710c9.1 0 16.4-7.4 16.4-16.6 0-9.2-7.3-16.6-16.4-16.6-9.1 0-16.4 7.4-16.4 16.6 0 9.2 7.3 16.6 16.4 16.6z"/><path class="st48" d="M875.1 708c8 0 14.4-6.5 14.4-14.6 0-8-6.5-14.6-14.4-14.6-8 0-14.4 6.5-14.4 14.6-.1 8.1 6.4 14.6 14.4 14.6z"/><path class="st47" d="M890.8 706.1l-3.2 3.2.8.8 3.2-3.2-.8-.8zM888.4 710.1l11.2 14.5s3.2 3.2 6.4 0 0-6.4 0-6.4l-14.3-11.3-3.3 3.2z"/><path class="st49" d="M464 665.3l68-69.8h381.5l-68 68.7-381.5 1.1z"/><path class="st50" d="M484.1 678.9h-8.5v44.8h8.5v-44.8z"/></svg>