<svg xmlns="http://www.w3.org/2000/svg" viewBox="0 0 1588 1260"><style>.st3{fill-opacity:0}.st47{fill:#fff}</style><path class="st3" d="M0 252h1588v756H0zm0 0h1588v735.8H0z"/><linearGradient id="SVGID_1_" gradientUnits="userSpaceOnUse" x1="1587.99" y1="352.474" x2="785.016" y2="352.474" gradientTransform="matrix(1 0 0 -1 0 1260.551)"><stop offset="0" stop-color="#255487"/><stop offset="1" stop-color="#66BAA1"/></linearGradient><path d="M1588 849.6H899.7L785 966.5h688.3L1588 849.6z" opacity=".5" fill="url(#SVGID_1_)"/><linearGradient id="SVGID_2_" gradientUnits="userSpaceOnUse" x1="1182.89" y1="995.566" x2="1018.84" y2="995.566" gradientTransform="matrix(1 0 0 -1 0 1260.551)"><stop offset="0" stop-color="#255487"/><stop offset="1" stop-color="#66BAA1"/></linearGradient><path d="M1182.9 252h-140.6l-23.4 26h140.6l23.4-26z" opacity=".5" fill="url(#SVGID_2_)"/><linearGradient id="SVGID_3_" gradientUnits="userSpaceOnUse" x1="384.221" y1="439.361" x2="0" y2="439.361" gradientTransform="matrix(1 0 0 -1 0 1260.551)"><stop offset="0" stop-color="#255487"/><stop offset="1" stop-color="#66BAA1"/></linearGradient><path d="M384.2 793.1H54.9L0 849.3h329.3l54.9-56.2z" opacity=".5" fill="url(#SVGID_3_)"/><linearGradient id="SVGID_4_" gradientUnits="userSpaceOnUse" x1="673.986" y1="300.85" x2="289.766" y2="300.85" gradientTransform="matrix(1 0 0 -1 0 1260.551)"><stop offset="0" stop-color="#255487"/><stop offset="1" stop-color="#66BAA1"/></linearGradient><path d="M674 931.6H344.7l-54.9 56.3h329.3l54.9-56.3z" opacity=".5" fill="url(#SVGID_4_)"/><linearGradient id="SVGID_5_" gradientUnits="userSpaceOnUse" x1="379.655" y1="712.926" x2="622.692" y2="1067.329" gradientTransform="matrix(1 0 0 -1 0 1260.551)"><stop offset="0" stop-color="#B2190C"/><stop offset="1" stop-color="#E66D12"/></linearGradient><path d="M369.6 390.7l102-103h204l-102 103h-204z" fill="url(#SVGID_5_)"/><linearGradient id="SVGID_6_" gradientUnits="userSpaceOnUse" x1="610.889" y1="554.369" x2="853.929" y2="908.777" gradientTransform="matrix(1 0 0 -1 0 1260.551)"><stop offset="0" stop-color="#B2190C"/><stop offset="1" stop-color="#E66D12"/></linearGradient><path d="M709.6 390.7l102-103h204l-102 103h-204z" fill="url(#SVGID_6_)"/><linearGradient id="SVGID_7_" gradientUnits="userSpaceOnUse" x1="661.546" y1="833.563" x2="648.068" y2="1073.818" gradientTransform="matrix(1 0 0 -1 0 1260.551)"><stop offset="0" stop-color="#B2190C"/><stop offset="1" stop-color="#E66D12"/></linearGradient><path d="M573.6 390.7l68 68.7 102-103-68-68.6-102 102.9z" fill="url(#SVGID_7_)"/><linearGradient id="SVGID_8_" gradientUnits="userSpaceOnUse" x1="864.961" y1="787.458" x2="1034.219" y2="913.646" gradientTransform="matrix(1 0 0 -1 0 1260.551)"><stop offset="0" stop-color="#B2190C"/><stop offset="1" stop-color="#E66D12"/></linearGradient><path d="M913.5 390.7l68 68.7 102-103-68-68.6-102 102.9z" fill="url(#SVGID_8_)"/><linearGradient id="SVGID_9_" gradientUnits="userSpaceOnUse" x1="969.076" y1="523.296" x2="1095.986" y2="976.515" gradientTransform="matrix(1 0 0 -1 0 1260.551)"><stop offset="0" stop-color="#B2190C"/><stop offset="1" stop-color="#E66D12"/></linearGradient><path d="M981.5 665.3l102-103v-206l-102 103v206z" fill="url(#SVGID_9_)"/><path class="st3" d="M242.4 274.3h943.1v609.3H242.4z"/><linearGradient id="SVGID_10_" gradientUnits="userSpaceOnUse" x1="411.125" y1="841.685" x2="613.554" y2="841.685" gradientTransform="matrix(1 0 0 -1 0 1260.551)"><stop offset="0" stop-color="#255487"/><stop offset="1" stop-color="#66BAA1"/></linearGradient><path d="M411.1 402.3l32.7 33.1h169.7l-32.7-33.1H411.1z" fill="url(#SVGID_10_)"/><path d="M369.2 595.5l32.7 33.1h170.9l-32.7-33.1H369.2z" fill="#66baa1"/><linearGradient id="SVGID_11_" gradientUnits="userSpaceOnUse" x1="387.293" y1="585.555" x2="489.138" y2="585.555" gradientTransform="matrix(1 0 0 -1 0 1260.551)"><stop offset="0" stop-color="#B2190C"/><stop offset="1" stop-color="#E66D12"/></linearGradient><path d="M242.4 658.5l32.7 33.1h190.2l-32.7-33.1H242.4z" fill="url(#SVGID_11_)"/><linearGradient id="SVGID_12_" gradientUnits="userSpaceOnUse" x1="400.906" y1="393.458" x2="531.845" y2="393.458" gradientTransform="matrix(1 0 0 -1 0 1260.551)"><stop offset="0" stop-color="#66BAA1"/><stop offset="1" stop-color="#1886B5"/></linearGradient><path d="M400.9 850.6l32.7 33.1h98.2l-32.7-33.1h-98.2z" fill="url(#SVGID_12_)"/><linearGradient id="SVGID_13_" gradientUnits="userSpaceOnUse" x1="926.5" y1="575.663" x2="1035.06" y2="575.663" gradientTransform="matrix(1 0 0 -1 0 1260.551)"><stop offset="0" stop-color="#B2190C"/><stop offset="1" stop-color="#E66D12"/></linearGradient><path d="M926.5 676.1l17.4 17.6h91.1l-17.5-17.6h-91z" fill="url(#SVGID_13_)"/><linearGradient id="SVGID_14_" gradientUnits="userSpaceOnUse" x1="844.812" y1="528.745" x2="1185.45" y2="528.745" gradientTransform="matrix(1 0 0 -1 0 1260.551)"><stop offset="0" stop-color="#255487"/><stop offset="1" stop-color="#66BAA1"/></linearGradient><path d="M844.8 723.5l16.4 16.5h324.3l-16.4-16.5H844.8z" fill="url(#SVGID_14_)"/><linearGradient id="SVGID_15_" gradientUnits="userSpaceOnUse" x1="564.422" y1="866.483" x2="695.36" y2="866.483" gradientTransform="matrix(1 0 0 -1 0 1260.551)"><stop offset="0" stop-color="#B2190C"/><stop offset="1" stop-color="#E66D12"/></linearGradient><path d="M564.4 402.3l16.4-16.5H679l16.4 16.5h-131z" fill="url(#SVGID_15_)"/><linearGradient id="SVGID_16_" gradientUnits="userSpaceOnUse" x1="396.781" y1="545.271" x2="527.726" y2="545.271" gradientTransform="matrix(1 0 0 -1 0 1260.551)"><stop offset="0" stop-color="#B2190C"/><stop offset="1" stop-color="#E66D12"/></linearGradient><path d="M396.8 723.5l16.4-16.5h98.2l16.4 16.5h-131z" fill="url(#SVGID_16_)"/><linearGradient id="SVGID_17_" gradientUnits="userSpaceOnUse" x1="1130.16" y1="912.949" x2="897.953" y2="912.949" gradientTransform="matrix(1 0 0 -1 0 1260.551)"><stop offset="0" stop-color="#B2190C"/><stop offset="1" stop-color="#E66D12"/></linearGradient><path d="M1130.2 339.3l-16.4 16.5H914.3L898 339.3h232.2z" fill="url(#SVGID_17_)"/><linearGradient id="SVGID_18_" gradientUnits="userSpaceOnUse" x1="937.875" y1="969.753" x2="1003.35" y2="969.753" gradientTransform="matrix(1 0 0 -1 0 1260.551)"><stop offset="0" stop-color="#B2190C"/><stop offset="1" stop-color="#E66D12"/></linearGradient><path d="M937.9 274.3l32.7 33 32.7-33h-65.4z" fill="url(#SVGID_18_)"/><linearGradient id="SVGID_19_" gradientUnits="userSpaceOnUse" x1="931.781" y1="866.483" x2="964.514" y2="866.483" gradientTransform="matrix(1 0 0 -1 0 1260.551)"><stop offset="0" stop-color="#B2190C"/><stop offset="1" stop-color="#E66D12"/></linearGradient><path d="M931.8 402.3l16.4-16.5 16.4 16.5h-32.8z" fill="url(#SVGID_19_)"/><linearGradient id="SVGID_20_" gradientUnits="userSpaceOnUse" x1="836.757" y1="387.918" x2="1011.667" y2="932.318" gradientTransform="matrix(1 0 0 -1 0 1260.551)"><stop offset="0" stop-color="#B2190C"/><stop offset="1" stop-color="#E66D12"/></linearGradient><path d="M913.5 390.7v342.1l68-67.5v-207l-68-67.6z" fill="url(#SVGID_20_)"/><linearGradient id="SVGID_21_" gradientUnits="userSpaceOnUse" x1="412.758" y1="169.563" x2="579.034" y2="687.104" gradientTransform="matrix(1 0 0 -1 0 1260.551)"><stop offset="0" stop-color="#B2190C"/><stop offset="1" stop-color="#E66D12"/></linearGradient><path d="M301.6 665.3l68-69.8 339.9 343.2L641 1008 301.6 665.3z" fill="url(#SVGID_21_)"/><linearGradient id="SVGID_22_" gradientUnits="userSpaceOnUse" x1="99.96" y1="147.962" x2="368.807" y2="815.497" gradientTransform="matrix(1 0 0 -1 0 1260.551)"><stop offset="0" stop-color="#B2190C"/><stop offset="1" stop-color="#E66D12"/></linearGradient><path d="M369.6 390.7v204.8l-68 69.8V459.4l68-68.7z" fill="url(#SVGID_22_)"/><linearGradient id="SVGID_23_" gradientUnits="userSpaceOnUse" x1="675.531" y1="441.891" x2="879.49" y2="441.891" gradientTransform="matrix(1 0 0 -1 0 1260.551)"><stop offset="0" stop-color="#B2190C"/><stop offset="1" stop-color="#E66D12"/></linearGradient><path d="M879.5 767.2l-102 103h-102l102-103h102z" fill="url(#SVGID_23_)"/><linearGradient id="SVGID_24_" gradientUnits="userSpaceOnUse" x1="471.578" y1="356.081" x2="777.513" y2="356.081" gradientTransform="matrix(1 0 0 -1 0 1260.551)"><stop offset="0" stop-color="#B2190C"/><stop offset="1" stop-color="#E66D12"/></linearGradient><path d="M777.5 870.1H471.6l68 68.6h170l67.9-68.6z" fill="url(#SVGID_24_)"/><linearGradient id="SVGID_25_" gradientUnits="userSpaceOnUse" x1="301.625" y1="835.509" x2="641.554" y2="835.509" gradientTransform="matrix(1 0 0 -1 0 1260.551)"><stop offset="0" stop-color="#B2190C"/><stop offset="1" stop-color="#E66D12"/></linearGradient><path d="M301.6 459.4h339.9l-68-68.7h-204l-67.9 68.7z" fill="url(#SVGID_25_)"/><linearGradient id="SVGID_26_" gradientUnits="userSpaceOnUse" x1="301.625" y1="630.119" x2="845.513" y2="630.119" gradientTransform="matrix(1 0 0 -1 0 1260.551)"><stop offset="0" stop-color="#B2190C"/><stop offset="1" stop-color="#E66D12"/></linearGradient><path d="M301.6 665.3v-69.8h543.9l-68 68.7-475.9 1.1z" fill="url(#SVGID_26_)"/><linearGradient id="SVGID_27_" gradientUnits="userSpaceOnUse" x1="301.625" y1="767.414" x2="845.513" y2="767.414" gradientTransform="matrix(1 0 0 -1 0 1260.551)"><stop offset="0" stop-color="#B2190C"/><stop offset="1" stop-color="#E66D12"/></linearGradient><path d="M301.6 528v-69.8h543.9l-68 68.6-475.9 1.2z" fill="url(#SVGID_27_)"/><linearGradient id="SVGID_28_" gradientUnits="userSpaceOnUse" x1="811.516" y1="630.675" x2="975.11" y2="630.675" gradientTransform="matrix(1 0 0 -1 0 1260.551)"><stop offset="0" stop-color="#B2190C"/><stop offset="1" stop-color="#E66D12"/></linearGradient><path d="M811.5 664.2l68-68.7h95.6l-61.6 68.7h-102z" fill="url(#SVGID_28_)"/><linearGradient id="SVGID_29_" gradientUnits="userSpaceOnUse" x1="675.531" y1="853.783" x2="947.472" y2="853.783" gradientTransform="matrix(1 0 0 -1 0 1260.551)"><stop offset="0" stop-color="#B2190C"/><stop offset="1" stop-color="#E66D12"/></linearGradient><path d="M709.5 389.6l-34 34.3h271.9l-34-33.2-203.9-1.1z" fill="url(#SVGID_29_)"/><linearGradient id="SVGID_30_" gradientUnits="userSpaceOnUse" x1="301.625" y1="699.326" x2="947.496" y2="699.326" gradientTransform="matrix(1 0 0 -1 0 1260.551)"><stop offset="0" stop-color="#B2190C"/><stop offset="1" stop-color="#E66D12"/></linearGradient><path d="M301.6 595.6v-68.7h645.9l-68 68.7H301.6z" fill="url(#SVGID_30_)"/><linearGradient id="SVGID_31_" gradientUnits="userSpaceOnUse" x1="403.609" y1="441.891" x2="709.551" y2="441.891" gradientTransform="matrix(1 0 0 -1 0 1260.551)"><stop offset="0" stop-color="#B2190C"/><stop offset="1" stop-color="#E66D12"/></linearGradient><path d="M505.6 870.1l-102-103h204l102 103h-204z" fill="url(#SVGID_31_)"/><linearGradient id="SVGID_32_" gradientUnits="userSpaceOnUse" x1="335.609" y1="544.863" x2="641.545" y2="544.863" gradientTransform="matrix(1 0 0 -1 0 1260.551)"><stop offset="0" stop-color="#B2190C"/><stop offset="1" stop-color="#E66D12"/></linearGradient><path d="M437.6 767.2l-102-103h204l102 103h-204z" fill="url(#SVGID_32_)"/><linearGradient id="SVGID_33_" gradientUnits="userSpaceOnUse" x1="437.578" y1="562.023" x2="811.502" y2="562.023" gradientTransform="matrix(1 0 0 -1 0 1260.551)"><stop offset="0" stop-color="#B2190C"/><stop offset="1" stop-color="#E66D12"/></linearGradient><path d="M811.5 665.3l-305.9-1.1-68 68.7h305.9l68-67.6z" fill="url(#SVGID_33_)"/><linearGradient id="SVGID_34_" gradientUnits="userSpaceOnUse" x1="505.562" y1="510.538" x2="879.493" y2="510.538" gradientTransform="matrix(1 0 0 -1 0 1260.551)"><stop offset="0" stop-color="#B2190C"/><stop offset="1" stop-color="#E66D12"/></linearGradient><path d="M879.5 732.9l-34 34.3H505.6l34-34.3h339.9z" fill="url(#SVGID_34_)"/><linearGradient id="SVGID_35_" gradientUnits="userSpaceOnUse" x1="641.562" y1="818.903" x2="947.504" y2="818.903" gradientTransform="matrix(1 0 0 -1 0 1260.551)"><stop offset="0" stop-color="#B2190C"/><stop offset="1" stop-color="#E66D12"/></linearGradient><path d="M641.6 459.4l34-35.4h271.9l-34 34.3-271.9 1.1z" fill="url(#SVGID_35_)"/><linearGradient id="SVGID_36_" gradientUnits="userSpaceOnUse" x1="743.531" y1="784.577" x2="1049.47" y2="784.577" gradientTransform="matrix(1 0 0 -1 0 1260.551)"><stop offset="0" stop-color="#B2190C"/><stop offset="1" stop-color="#E66D12"/></linearGradient><path d="M743.5 493.7l34-35.4h272l-34 34.3-272 1.1z" fill="url(#SVGID_36_)"/><linearGradient id="SVGID_37_" gradientUnits="userSpaceOnUse" x1="267.609" y1="818.903" x2="573.545" y2="818.903" gradientTransform="matrix(1 0 0 -1 0 1260.551)"><stop offset="0" stop-color="#B2190C"/><stop offset="1" stop-color="#E66D12"/></linearGradient><path d="M267.6 459.4l34-35.4h271.9l-34 34.3-271.9 1.1z" fill="url(#SVGID_37_)"/><linearGradient id="SVGID_38_" gradientUnits="userSpaceOnUse" x1="607.562" y1="717.122" x2="809.991" y2="717.122" gradientTransform="matrix(1 0 0 -1 0 1260.551)"><stop offset="0" stop-color="#255487"/><stop offset="1" stop-color="#66BAA1"/></linearGradient><path d="M607.6 526.9l32.7 33.1H810l-32.7-33.1H607.6z" fill="url(#SVGID_38_)"/><linearGradient id="SVGID_39_" gradientUnits="userSpaceOnUse" x1="677.953" y1="456.452" x2="879.511" y2="456.452" gradientTransform="matrix(1 0 0 -1 0 1260.551)"><stop offset="0" stop-color="#255487"/><stop offset="1" stop-color="#66BAA1"/></linearGradient><path d="M678 787.6l32.7 33.1h168.8l-32.7-33.1H678z" fill="url(#SVGID_39_)"/><linearGradient id="SVGID_40_" gradientUnits="userSpaceOnUse" x1="675.531" y1="261.368" x2="877.96" y2="261.368" gradientTransform="matrix(1 0 0 -1 0 1260.551)"><stop offset="0" stop-color="#B2190C"/><stop offset="1" stop-color="#E66D12"/></linearGradient><path d="M675.5 1007.4l16.4-16.5h169.7l16.4 16.5H675.5z" fill="url(#SVGID_40_)"/><path class="st3" d="M465.7 662.9h447.8v71.3H465.7z"/><linearGradient id="SVGID_41_" gradientUnits="userSpaceOnUse" x1="842.844" y1="562.03" x2="913.47" y2="562.03" gradientTransform="matrix(1 0 0 -1 0 1260.551)"><stop offset="0" stop-color="#B2190C"/><stop offset="1" stop-color="#E66D12"/></linearGradient><path d="M913.5 662.9h-70.6v71.3h70.6v-71.3z" fill="url(#SVGID_41_)"/><path class="st47" d="M842.9 662.9H465.7v71.3h377.2v-71.3z"/><path class="st3" d="M855.1 673.2h52.3V726h-52.3z"/><path class="st47" d="M875.1 713.6c11 0 20-9 20-20.2 0-11.1-8.9-20.2-20-20.2-11 0-20 9-20 20.2s8.9 20.2 20 20.2zm0-3.6c9.1 0 16.4-7.4 16.4-16.6 0-9.2-7.3-16.6-16.4-16.6-9.1 0-16.4 7.4-16.4 16.6 0 9.2 7.3 16.6 16.4 16.6z"/><path d="M875.1 708c8 0 14.4-6.5 14.4-14.6 0-8-6.5-14.6-14.4-14.6-8 0-14.4 6.5-14.4 14.6-.1 8.1 6.4 14.6 14.4 14.6z" fill="#c62d1a"/><path class="st47" d="M890.8 706.1l-3.2 3.2.8.8 3.2-3.2-.8-.8zm-2.4 4l11.2 14.5s3.2 3.2 6.4 0 0-6.4 0-6.4l-14.3-11.3-3.3 3.2z"/><path d="M464 665.3l68-69.8h381.5l-68 68.7-381.5 1.1z" fill="#eaeaea"/><path d="M484.1 678.9h-8.5v44.8h8.5v-44.8z" fill="#d94018"/></svg>