<svg width="83" height="83" viewBox="0 0 83 83" fill="none" xmlns="http://www.w3.org/2000/svg">
<path fill-rule="evenodd" clip-rule="evenodd" d="M7.36034 10.0621C7.43793 9.2984 7.14569 8.54511 6.57672 8.03256L0.783621 1.04322V0H18.7784L32.6871 30.533L44.9147 0H62.069V1.04322L57.1138 5.79856C56.6871 6.12473 56.475 6.66058 56.5629 7.19125V42.1327C56.475 42.6608 56.6871 43.1967 57.1138 43.5229L61.9526 48.2782V49.3214H37.6112V48.2782L42.6259 43.4064C43.1172 42.9145 43.1172 42.7696 43.1172 42.0163V13.7742L29.1802 49.2075H27.2974L11.069 13.7742V37.5224C10.9345 38.519 11.2655 39.526 11.9664 40.2456L18.4862 48.1617V49.2075H0V48.1617L6.51983 40.2456C7.2181 39.5234 7.52845 38.5112 7.36034 37.5224V10.0621Z" transform="translate(10.3438 17.2576)" fill="#36C1AC"/>
</svg>
