<svg width="83" height="83" xmlns="http://www.w3.org/2000/svg" fill="none"><path fill-rule="evenodd" clip-rule="evenodd" d="M17.704 27.32a2.405 2.405 0 0 0-.784-2.03l-5.793-6.989v-1.043h17.995l13.909 30.533 12.228-30.533h17.154v1.043l-4.955 4.755a1.453 1.453 0 0 0-.551 1.393V59.39a1.45 1.45 0 0 0 .551 1.39l4.839 4.755v1.043H47.956v-1.043l5.015-4.872c.491-.492.491-.637.491-1.39V31.031L39.525 66.464h-1.883L21.414 31.031v23.748a3.281 3.281 0 0 0 .897 2.723l6.52 7.916v1.046H10.345v-1.046l6.52-7.916a3.157 3.157 0 0 0 .841-2.723v-27.46z" fill="#36C1AC"/></svg>