<svg width="48" height="48" viewBox="0 0 48 48" fill="none" xmlns="http://www.w3.org/2000/svg">
<path fill-rule="evenodd" clip-rule="evenodd" d="M10.2685 15.8305C10.3135 15.388 10.144 14.9515 9.81401 14.6545L6.45401 10.6045V10H16.891L24.958 27.6925L32.05 10H41.9995V10.6045L39.1255 13.36C38.878 13.549 38.755 13.8595 38.806 14.167V34.414C38.755 34.72 38.878 35.0305 39.1255 35.2195L41.932 37.975V38.5795H27.814V37.975L30.7225 35.152C31.0075 34.867 31.0075 34.783 31.0075 34.3465V17.9815L22.924 38.5135H21.832L12.4195 17.9815V31.7425C12.3415 32.32 12.5335 32.9035 12.94 33.3205L16.7215 37.9075V38.5135H5.99951V37.9075L9.78101 33.3205C10.186 32.902 10.366 32.3155 10.2685 31.7425V15.8305Z" fill="#FFF"/>
</svg>
