<svg width="83" height="83" viewBox="0 0 83 83" xmlns="http://www.w3.org/2000/svg" fill="none"><path fill-rule="evenodd" clip-rule="evenodd" d="M17.704 27.32c.078-.764-.215-1.517-.784-2.03l-5.793-6.989v-1.043h17.995l13.909 30.533 12.228-30.533h17.154v1.043l-4.955 4.755c-.427.326-.639.862-.551 1.393v34.941c-.088.528.124 1.064.551 1.39l4.839 4.755v1.043h-24.341v-1.043l5.015-4.872c.491-.492.491-.637.491-1.39v-28.242l-13.937 35.433h-1.883l-16.228-35.433v23.748c-.134.997.197 2.004.897 2.723l6.52 7.916v1.046h-18.486v-1.046l6.52-7.916c.698-.722 1.009-1.734.841-2.723v-27.46z" fill="#36C1AC"/></svg>