<svg xmlns="http://www.w3.org/2000/svg" viewBox="0 0 500 500"><style>.st291,.st292{fill:#130d44;stroke:#91dbed;stroke-width:1.2692;stroke-linecap:round;stroke-linejoin:round;stroke-miterlimit:10}.st292{stroke-width:.6285}</style><g id="kropki"><path d="M469.1 348H448l-15.1 15.1h21.2z" fill="#412578"/><path d="M90.7 161.8H45.9l-32.1 32h44.9z" opacity=".3" fill="#412578"/><path class="st291" d="M215.7 304.8v45.7l-91.4 91.4v-45.7z"/><path class="st292" d="M124.3 441.9h182.8l91.4-91.4H215.7z"/><path d="M124.3 396.2h182.8l91.4-91.4H215.7z" fill="#b9351b" stroke="#91dbed" stroke-width=".628" stroke-linecap="round" stroke-linejoin="round" stroke-miterlimit="10"/><linearGradient id="SVGID_1_" gradientUnits="userSpaceOnUse" x1="124.305" y1="419.041" x2="307.074" y2="419.041"><stop offset="0" stop-color="#BF4918"/><stop offset="1" stop-color="#B9351B"/></linearGradient><path fill="url(#SVGID_1_)" stroke="#91DBED" stroke-width=".628" stroke-linecap="round" stroke-linejoin="round" stroke-miterlimit="10" d="M124.3 396.2h182.8v45.7H124.3z"/><linearGradient id="SVGID_2_" gradientUnits="userSpaceOnUse" x1="327.643" y1="405.906" x2="382.394" y2="334.952"><stop offset="0" stop-color="#BF4918"/><stop offset="1" stop-color="#C95F19"/></linearGradient><path fill="url(#SVGID_2_)" stroke="#91DBED" stroke-width=".628" stroke-linecap="round" stroke-linejoin="round" stroke-miterlimit="10" d="M398.5 304.8v45.7l-91.4 91.4v-45.7z"/><path class="st291" d="M215.7 236.3V282l-91.4 91.3v-45.6z"/><path class="st292" d="M124.3 373.3h182.8l91.4-91.3H215.7z"/><path d="M124.3 327.7h182.8l91.4-91.4H215.7z" fill="#412578" stroke="#91dbed" stroke-width=".628" stroke-linecap="round" stroke-linejoin="round" stroke-miterlimit="10"/><linearGradient id="SVGID_3_" gradientUnits="userSpaceOnUse" x1="267.578" y1="343.141" x2="-216.805" y2="411.86"><stop offset="0" stop-color="#412578"/><stop offset="1" stop-color="#1989BE"/></linearGradient><path fill="url(#SVGID_3_)" stroke="#91DBED" stroke-width=".628" stroke-linecap="round" stroke-linejoin="round" stroke-miterlimit="10" d="M124.3 327.7h182.8v45.7H124.3z"/><linearGradient id="SVGID_4_" gradientUnits="userSpaceOnUse" x1="158.159" y1="490.755" x2="440.578" y2="220.907"><stop offset="0" stop-color="#412578"/><stop offset="1" stop-color="#1989BE"/></linearGradient><path fill="url(#SVGID_4_)" stroke="#91DBED" stroke-width=".628" stroke-linecap="round" stroke-linejoin="round" stroke-miterlimit="10" d="M398.5 236.3V282l-91.4 91.3v-45.6z"/><linearGradient id="SVGID_5_" gradientUnits="userSpaceOnUse" x1="124.305" y1="236.273" x2="215.69" y2="236.273"><stop offset="0" stop-color="#fff" stop-opacity="0"/><stop offset="1" stop-color="#1989BE"/></linearGradient><path fill="url(#SVGID_5_)" stroke="#91DBED" stroke-width=".628" stroke-linecap="round" stroke-linejoin="round" stroke-miterlimit="10" d="M215.7 167.7v45.7l-91.4 91.4v-45.7z"/><linearGradient id="SVGID_6_" gradientUnits="userSpaceOnUse" x1="124.305" y1="259.119" x2="398.458" y2="259.119"><stop offset="0" stop-color="#fff" stop-opacity="0"/><stop offset="1" stop-color="#1989BE"/></linearGradient><path fill="url(#SVGID_6_)" stroke="#91DBED" stroke-width=".628" stroke-linecap="round" stroke-linejoin="round" stroke-miterlimit="10" d="M124.3 304.8h182.8l91.4-91.4H215.7z"/><linearGradient id="SVGID_7_" gradientUnits="userSpaceOnUse" x1="210.299" y1="283.796" x2="319.801" y2="132.95"><stop offset="0" stop-color="#fff" stop-opacity="0"/><stop offset="1" stop-color="#1989BE"/></linearGradient><path fill="url(#SVGID_7_)" stroke="#91DBED" stroke-width=".628" stroke-linecap="round" stroke-linejoin="round" stroke-miterlimit="10" d="M124.3 259.1h182.8l91.4-91.4H215.7z"/><linearGradient id="SVGID_8_" gradientUnits="userSpaceOnUse" x1="214.61" y1="288.134" x2="238.075" y2="154.048"><stop offset="0" stop-color="#fff" stop-opacity="0"/><stop offset="1" stop-color="#1989BE"/></linearGradient><path fill="url(#SVGID_8_)" stroke="#91DBED" stroke-width=".628" stroke-linecap="round" stroke-linejoin="round" stroke-miterlimit="10" d="M124.3 259.1h182.8v45.7H124.3z"/><linearGradient id="SVGID_9_" gradientUnits="userSpaceOnUse" x1="402.848" y1="291.511" x2="288.876" y2="165.807"><stop offset="0" stop-color="#fff" stop-opacity="0"/><stop offset="1" stop-color="#1989BE"/></linearGradient><path fill="url(#SVGID_9_)" stroke="#91DBED" stroke-width=".628" stroke-linecap="round" stroke-linejoin="round" stroke-miterlimit="10" d="M398.5 167.7v45.7l-91.4 91.4v-45.7z"/><path d="M215.7 38.1v45.7l-91.4 91.4v-45.7z" opacity=".2" fill="#1989be" stroke="#91dbed" stroke-width="1.269" stroke-linecap="round" stroke-linejoin="round" stroke-miterlimit="10"/><path d="M124.3 175.2h182.8l91.4-91.4H215.7zm0-45.7h182.8l91.4-91.4H215.7zm0 0h182.8v45.7H124.3z" opacity=".2" fill="#1989be" stroke="#91dbed" stroke-width=".628" stroke-linecap="round" stroke-linejoin="round" stroke-miterlimit="10"/><path d="M398.5 38.1v45.7l-91.4 91.4v-45.7z" opacity=".1" fill="#1989be" stroke="#91dbed" stroke-width=".628" stroke-linecap="round" stroke-linejoin="round" stroke-miterlimit="10"/><linearGradient id="SVGID_10_" gradientUnits="userSpaceOnUse" x1="215.376" y1="38.118" x2="398.772" y2="38.118"><stop offset="0" stop-color="#fff" stop-opacity="0"/><stop offset="1" stop-color="#1989BE"/></linearGradient><path stroke="url(#SVGID_10_)" stroke-width=".628" stroke-linecap="round" stroke-linejoin="round" stroke-miterlimit="10" fill="none" d="M215.7 38.1h182.8"/><linearGradient id="SVGID_11_" gradientUnits="userSpaceOnUse" x1="306.759" y1="83.811" x2="398.772" y2="83.811"><stop offset="0" stop-color="#fff" stop-opacity="0"/><stop offset="1" stop-color="#1989BE"/></linearGradient><path stroke="url(#SVGID_11_)" stroke-width=".628" stroke-linecap="round" stroke-linejoin="round" stroke-miterlimit="10" fill="none" d="M307.1 129.5l91.4-91.4"/><linearGradient id="SVGID_12_" gradientUnits="userSpaceOnUse" x1="306.759" y1="129.503" x2="398.772" y2="129.503"><stop offset="0" stop-color="#fff" stop-opacity="0"/><stop offset="1" stop-color="#1989BE"/></linearGradient><path stroke="url(#SVGID_12_)" stroke-width=".628" stroke-linecap="round" stroke-linejoin="round" stroke-miterlimit="10" fill="none" d="M307.1 175.2l91.4-91.4"/><linearGradient id="SVGID_13_" gradientUnits="userSpaceOnUse" x1="123.99" y1="83.811" x2="216.004" y2="83.811"><stop offset="0" stop-color="#fff" stop-opacity="0"/><stop offset="1" stop-color="#1989BE"/></linearGradient><path stroke="url(#SVGID_13_)" stroke-width=".628" stroke-linecap="round" stroke-linejoin="round" stroke-miterlimit="10" fill="none" d="M124.3 129.5l91.4-91.4"/><path d="M308.7 441.9c0 .9-.7 1.6-1.6 1.6-.9 0-1.6-.7-1.6-1.6 0-.9.7-1.6 1.6-1.6.9-.1 1.6.7 1.6 1.6zm91.4-91.4c0 .9-.7 1.6-1.6 1.6-.9 0-1.6-.7-1.6-1.6 0-.9.7-1.6 1.6-1.6.9 0 1.6.7 1.6 1.6zm-274.2 91.4c0 .9-.7 1.6-1.6 1.6-.9 0-1.6-.7-1.6-1.6 0-.9.7-1.6 1.6-1.6.9-.1 1.6.7 1.6 1.6zm182.8-45.7c0 .9-.7 1.6-1.6 1.6-.9 0-1.6-.7-1.6-1.6 0-.9.7-1.6 1.6-1.6.9 0 1.6.7 1.6 1.6zm91.4-91.4c0 .9-.7 1.6-1.6 1.6-.9 0-1.6-.7-1.6-1.6 0-.9.7-1.6 1.6-1.6.9 0 1.6.7 1.6 1.6zm-274.2 91.4c0 .9-.7 1.6-1.6 1.6-.9 0-1.6-.7-1.6-1.6 0-.9.7-1.6 1.6-1.6.9 0 1.6.7 1.6 1.6zm182.8-22.9c0 .9-.7 1.6-1.6 1.6-.9 0-1.6-.7-1.6-1.6 0-.9.7-1.6 1.6-1.6.9 0 1.6.7 1.6 1.6zm91.4-91.3c0 .9-.7 1.6-1.6 1.6-.9 0-1.6-.7-1.6-1.6 0-.9.7-1.6 1.6-1.6.9-.1 1.6.7 1.6 1.6zm-274.2 91.3c0 .9-.7 1.6-1.6 1.6-.9 0-1.6-.7-1.6-1.6 0-.9.7-1.6 1.6-1.6.9 0 1.6.7 1.6 1.6zm182.8-45.6c0 .9-.7 1.6-1.6 1.6-.9 0-1.6-.7-1.6-1.6 0-.9.7-1.6 1.6-1.6.9-.1 1.6.7 1.6 1.6zm91.4-91.4c0 .9-.7 1.6-1.6 1.6-.9 0-1.6-.7-1.6-1.6 0-.9.7-1.6 1.6-1.6.9-.1 1.6.7 1.6 1.6zm-274.2 91.4c0 .9-.7 1.6-1.6 1.6-.9 0-1.6-.7-1.6-1.6 0-.9.7-1.6 1.6-1.6.9-.1 1.6.7 1.6 1.6zm182.8-22.9c0 .9-.7 1.6-1.6 1.6-.9 0-1.6-.7-1.6-1.6 0-.9.7-1.6 1.6-1.6.9 0 1.6.7 1.6 1.6zm91.4-91.4c0 .9-.7 1.6-1.6 1.6-.9 0-1.6-.7-1.6-1.6 0-.9.7-1.6 1.6-1.6.9 0 1.6.7 1.6 1.6zm-274.2 91.4c0 .9-.7 1.6-1.6 1.6-.9 0-1.6-.7-1.6-1.6 0-.9.7-1.6 1.6-1.6.9 0 1.6.7 1.6 1.6zm182.8-45.7c0 .9-.7 1.6-1.6 1.6-.9 0-1.6-.7-1.6-1.6 0-.9.7-1.6 1.6-1.6.9 0 1.6.7 1.6 1.6zm91.4-91.4c0 .9-.7 1.6-1.6 1.6-.9 0-1.6-.7-1.6-1.6 0-.9.7-1.6 1.6-1.6.9 0 1.6.7 1.6 1.6zm-274.2 91.4c0 .9-.7 1.6-1.6 1.6-.9 0-1.6-.7-1.6-1.6 0-.9.7-1.6 1.6-1.6.9 0 1.6.7 1.6 1.6zm182.8-83.9c0 .9-.7 1.6-1.6 1.6-.9 0-1.6-.7-1.6-1.6 0-.9.7-1.6 1.6-1.6.9 0 1.6.7 1.6 1.6zm91.4-91.4c0 .9-.7 1.6-1.6 1.6-.9 0-1.6-.7-1.6-1.6 0-.9.7-1.6 1.6-1.6.9 0 1.6.7 1.6 1.6zm-274.2 91.4c0 .9-.7 1.6-1.6 1.6-.9 0-1.6-.7-1.6-1.6 0-.9.7-1.6 1.6-1.6.9 0 1.6.7 1.6 1.6zm182.8-45.7c0 .9-.7 1.6-1.6 1.6-.9 0-1.6-.7-1.6-1.6 0-.9.7-1.6 1.6-1.6.9 0 1.6.7 1.6 1.6zm91.4-91.4c0 .9-.7 1.6-1.6 1.6-.9 0-1.6-.7-1.6-1.6 0-.9.7-1.6 1.6-1.6.9 0 1.6.7 1.6 1.6zm-274.2 91.4c0 .9-.7 1.6-1.6 1.6-.9 0-1.6-.7-1.6-1.6 0-.9.7-1.6 1.6-1.6.9 0 1.6.7 1.6 1.6zm91.4-91.4c0 .9-.7 1.6-1.6 1.6-.9 0-1.6-.7-1.6-1.6 0-.9.7-1.6 1.6-1.6.9 0 1.6.7 1.6 1.6zm0 129.6c0 .9-.7 1.6-1.6 1.6-.9 0-1.6-.7-1.6-1.6 0-.9.7-1.6 1.6-1.6.9 0 1.6.7 1.6 1.6z" fill="#fff"/></g></svg>