<?xml version="1.0" encoding="utf-8"?>
<!-- Generator: Adobe Illustrator 22.1.0, SVG Export Plug-In . SVG Version: 6.00 Build 0)  -->
<svg version="1.1" id="GraphQL_Logo" xmlns="http://www.w3.org/2000/svg" xmlns:xlink="http://www.w3.org/1999/xlink" x="0px"
	 y="0px" viewBox="-1354.8 829.8 186.4 186.4" enable-background="new -1354.8 829.8 186.4 186.4" xml:space="preserve">
<g>
	
		<circle fill="none" stroke="#13BEBB" stroke-width="4.252" stroke-linecap="round" stroke-linejoin="round" stroke-miterlimit="10" cx="-1302.1" cy="979.6" r="13.1"/>
	
		<circle fill="none" stroke="#13BEBB" stroke-width="4.252" stroke-linecap="round" stroke-linejoin="round" stroke-miterlimit="10" cx="-1230.3" cy="979.6" r="13.1"/>
	
		<line fill="none" stroke="#13BEBB" stroke-width="4.252" stroke-linecap="round" stroke-linejoin="round" stroke-miterlimit="10" x1="-1328.6" y1="979.6" x2="-1315.2" y2="979.6"/>
	
		<line fill="none" stroke="#13BEBB" stroke-width="4.252" stroke-linecap="round" stroke-linejoin="round" stroke-miterlimit="10" x1="-1289" y1="979.6" x2="-1243.3" y2="979.6"/>
	
		<polyline fill="none" stroke="#13BEBB" stroke-width="4.252" stroke-linecap="round" stroke-linejoin="round" stroke-miterlimit="10" points="
		-1217.2,979.6 -1206.7,979.6 -1206.7,959.3 -1220.7,945.3 -1220.7,920.7 -1328.6,920.7 -1328.6,977.3 -1328.6,920.7 	"/>
	
		<polyline fill="none" stroke="#13BEBB" stroke-width="4.252" stroke-linecap="round" stroke-linejoin="round" stroke-miterlimit="10" points="
		-1328.6,920.7 -1316.5,908.7 -1209,908.7 -1221.1,920.7 	"/>
	
		<polyline fill="none" stroke="#13BEBB" stroke-width="4.252" stroke-linecap="round" stroke-linejoin="round" stroke-miterlimit="10" points="
		-1206.7,979.1 -1194.6,967.1 -1194.6,947.2 	"/>
	
		<polyline fill="none" stroke="#13BEBB" stroke-width="4.252" stroke-linecap="round" stroke-linejoin="round" stroke-miterlimit="10" points="
		-1209,908.7 -1209,932.9 -1221.1,944.9 	"/>
	
		<polyline fill="none" stroke="#13BEBB" stroke-width="4.252" stroke-linecap="round" stroke-linejoin="round" stroke-miterlimit="10" points="
		-1209,932.9 -1194.6,947.2 -1206.7,959.2 	"/>
	
		<rect x="-1244.4" y="926.2" fill="none" stroke="#13BEBB" stroke-width="4.252" stroke-linecap="round" stroke-linejoin="round" stroke-miterlimit="10" width="17.8" height="18.1"/>
	
		<polyline fill="none" stroke="#13BEBB" stroke-width="4.252" stroke-linecap="round" stroke-linejoin="round" stroke-miterlimit="10" points="
		-1239.9,885.3 -1209.9,885.3 -1201.8,877.2 -1208,871.1 -1214.4,864.6 -1275.2,864.6 -1284.2,855.6 -1298.2,855.6 -1283.2,870.6 
		-1283.2,885.3 	"/>
	
		<line fill="none" stroke="#13BEBB" stroke-width="4.252" stroke-linecap="round" stroke-linejoin="round" stroke-miterlimit="10" x1="-1282" y1="885.3" x2="-1257.1" y2="885.3"/>
	
		<polyline fill="none" stroke="#13BEBB" stroke-width="4.252" stroke-linecap="round" stroke-linejoin="round" stroke-miterlimit="10" points="
		-1252.2,880.5 -1269.5,897.3 -1252.4,897.3 -1238,883.4 -1234.1,879.5 -1252.2,879.5 	"/>
	
		<polyline fill="none" stroke="#13BEBB" stroke-width="4.252" stroke-linecap="round" stroke-linejoin="round" stroke-miterlimit="10" points="
		-1228.3,854.2 -1238.7,864.6 -1221.5,864.6 -1214,857.1 -1210.2,853.3 -1228.3,853.3 	"/>
</g>
</svg>
