<?xml version="1.0" encoding="utf-8"?>
<!-- Generator: Adobe Illustrator 22.1.0, SVG Export Plug-In . SVG Version: 6.00 Build 0)  -->
<svg version="1.1" id="GraphQL_Logo" xmlns="http://www.w3.org/2000/svg" xmlns:xlink="http://www.w3.org/1999/xlink" x="0px"
	 y="0px" viewBox="-1077.3 829.8 186.4 186.4" enable-background="new -1077.3 829.8 186.4 186.4" xml:space="preserve">
<g>
	<g>
		
			<rect x="-1054.8" y="920.8" fill="none" stroke="#13BEBB" stroke-width="4.252" stroke-linecap="round" stroke-linejoin="round" stroke-miterlimit="10" width="71.1" height="71.1"/>
		
			<polyline fill="none" stroke="#13BEBB" stroke-width="4.252" stroke-linecap="round" stroke-linejoin="round" stroke-miterlimit="10" points="
			-1054.8,920.8 -1035.4,901.4 -964.9,901.4 		"/>
		
			<polyline fill="none" stroke="#13BEBB" stroke-width="4.252" stroke-linecap="round" stroke-linejoin="round" stroke-miterlimit="10" points="
			-984.3,991.9 -964.9,972.5 -964.9,901.4 -984.3,920.8 		"/>
		
			<line fill="none" stroke="#13BEBB" stroke-width="4.252" stroke-linecap="round" stroke-linejoin="round" stroke-miterlimit="10" x1="-974.6" y1="911.2" x2="-1045.2" y2="911.2"/>
	</g>
	
		<rect x="-1025.3" y="953.5" fill="none" stroke="#13BEBB" stroke-width="4.252" stroke-linecap="round" stroke-linejoin="round" stroke-miterlimit="10" width="34.3" height="25.3"/>
	
		<line fill="none" stroke="#13BEBB" stroke-width="4.252" stroke-linecap="round" stroke-linejoin="round" stroke-miterlimit="10" x1="-1019.2" y1="961.8" x2="-1000" y2="961.8"/>
	
		<line fill="none" stroke="#13BEBB" stroke-width="4.252" stroke-linecap="round" stroke-linejoin="round" stroke-miterlimit="10" x1="-1019.2" y1="969.4" x2="-1009.6" y2="969.4"/>
	
		<polyline fill="none" stroke="#13BEBB" stroke-width="4.252" stroke-linecap="round" stroke-linejoin="round" stroke-miterlimit="10" points="
		-1018.9,901.4 -1018.9,866.1 -925.6,866.1 -925.6,946.7 -964.9,946.7 	"/>
	
		<polyline fill="none" stroke="#13BEBB" stroke-width="4.252" stroke-linecap="round" stroke-linejoin="round" stroke-miterlimit="10" points="
		-1018.9,866.1 -1006.9,854 -913.5,854 	"/>
	
		<polyline fill="none" stroke="#13BEBB" stroke-width="4.252" stroke-linecap="round" stroke-linejoin="round" stroke-miterlimit="10" points="
		-925.6,946.4 -913.5,934.4 -913.5,854 -925.6,866.1 	"/>
	
		<rect x="-964.2" y="909" fill="none" stroke="#13BEBB" stroke-width="4.252" stroke-linecap="round" stroke-linejoin="round" stroke-miterlimit="10" width="25.3" height="25.3"/>
	
		<line fill="none" stroke="#13BEBB" stroke-width="4.252" stroke-linecap="round" stroke-linejoin="round" stroke-miterlimit="10" x1="-962.8" y1="917.3" x2="-948.6" y2="917.3"/>
	
		<line fill="none" stroke="#13BEBB" stroke-width="4.252" stroke-linecap="round" stroke-linejoin="round" stroke-miterlimit="10" x1="-962.8" y1="924.9" x2="-948.6" y2="924.9"/>
</g>
</svg>
