<?xml version="1.0" encoding="utf-8"?>
<!-- Generator: Adobe Illustrator 22.1.0, SVG Export Plug-In . SVG Version: 6.00 Build 0)  -->
<svg version="1.1" id="GraphQL_Logo" xmlns="http://www.w3.org/2000/svg" xmlns:xlink="http://www.w3.org/1999/xlink" x="0px"
	 y="0px" viewBox="-825.4 426.3 186.4 186.4" enable-background="new -825.4 426.3 186.4 186.4" xml:space="preserve">
<g>
	<g>
		
			<polygon fill="none" stroke="#13BEBB" stroke-width="4.252" stroke-linecap="round" stroke-linejoin="round" stroke-miterlimit="10" points="
			-705.5,515.3 -811,515.3 -805.8,510.1 -760.7,465 -655.2,465 		"/>
		
			<polyline fill="none" stroke="#13BEBB" stroke-width="4.252" stroke-linecap="round" stroke-linejoin="round" stroke-miterlimit="10" points="
			-805.8,510.1 -769.4,495.8 -765.4,503.5 -731.4,490 -722.4,507.4 -707.3,501.4 -702.6,510.6 		"/>
		
			<ellipse transform="matrix(0.9366 -0.3503 0.3503 0.9366 -212.6193 -214.6634)" fill="none" stroke="#13BEBB" stroke-width="4.252" stroke-linecap="round" stroke-linejoin="round" stroke-miterlimit="10" cx="-699.7" cy="480.4" rx="13.7" ry="5.7"/>
	</g>
	<g>
		
			<polyline fill="none" stroke="#13BEBB" stroke-width="4.252" stroke-linecap="round" stroke-linejoin="round" stroke-miterlimit="10" points="
			-681.8,491.5 -653.8,491.5 -704.1,541.8 -809.6,541.8 -804.4,536.7 -783.9,516.2 		"/>
		
			<polyline fill="none" stroke="#13BEBB" stroke-width="4.252" stroke-linecap="round" stroke-linejoin="round" stroke-miterlimit="10" points="
			-804.4,536.7 -768,522.3 -764,530.1 -730,516.6 -721,534 -705.9,528 -701.2,537.1 		"/>
		
			<path fill="none" stroke="#13BEBB" stroke-width="4.252" stroke-linecap="round" stroke-linejoin="round" stroke-miterlimit="10" d="
			M-691.1,499.8c1.4,0,2.5,0.2,3.4,0.5c3,1,3.3,3.6,0.3,6.7c-3,3-8.3,5.5-13.2,6.6c-1.7,0.4-3.3,0.6-4.8,0.6"/>
	</g>
	<g>
		
			<polyline fill="none" stroke="#13BEBB" stroke-width="4.252" stroke-linecap="round" stroke-linejoin="round" stroke-miterlimit="10" points="
			-683.6,521.3 -653.8,521.3 -704.1,571.6 -809.6,571.6 -804.4,566.4 -780.2,541.8 		"/>
		
			<polyline fill="none" stroke="#13BEBB" stroke-width="4.252" stroke-linecap="round" stroke-linejoin="round" stroke-miterlimit="10" points="
			-804.4,566.4 -768,552.1 -764,559.9 -730,546.3 -721,563.7 -705.9,557.7 -701.2,566.9 		"/>
		
			<path fill="none" stroke="#13BEBB" stroke-width="4.252" stroke-linecap="round" stroke-linejoin="round" stroke-miterlimit="10" d="
			M-690.2,529.5c1.2,0,2.2,0.1,2.9,0.4c2.6,0.9,2.9,3.1,0.2,5.7c-2.5,2.5-7.1,4.7-11.3,5.7c-1.4,0.3-2.8,0.5-4.1,0.5"/>
	</g>
	<g>
		
			<line fill="none" stroke="#13BEBB" stroke-width="4.252" stroke-linecap="round" stroke-linejoin="round" stroke-miterlimit="10" x1="-686.2" y1="576.7" x2="-654.9" y2="576.7"/>
		
			<line fill="none" stroke="#13BEBB" stroke-width="4.252" stroke-linecap="round" stroke-linejoin="round" stroke-miterlimit="10" x1="-670.6" y1="561.1" x2="-670.6" y2="592.4"/>
	</g>
</g>
</svg>
