<svg xmlns="http://www.w3.org/2000/svg" viewBox="-1077.3 829.8 186.4 186.4"><g stroke="#13BEBB" stroke-width="4.252" stroke-linecap="round" stroke-linejoin="round" stroke-miterlimit="10" fill="none"><path d="M-1054.8 920.8h71.1v71.1h-71.1zm0 0l19.4-19.4h70.5m-19.4 90.5l19.4-19.4v-71.1l-19.4 19.4m9.7-9.6h-70.6"/><path d="M-1025.3 953.5h34.3v25.3h-34.3zm6.1 8.3h19.2m-19.2 7.6h9.6m-9.3-68v-35.3h93.3v80.6h-39.3m-54-80.6l12-12.1h93.4m-12.1 92.4l12.1-12V854l-12.1 12.1"/><path d="M-964.2 909h25.3v25.3h-25.3zm1.4 8.3h14.2m-14.2 7.6h14.2"/></g></svg>