<svg xmlns="http://www.w3.org/2000/svg" viewBox="-1354.8 829.8 186.4 186.4"><g stroke="#13BEBB" stroke-width="4.252" stroke-linecap="round" stroke-linejoin="round" stroke-miterlimit="10" fill="none"><circle cx="-1302.1" cy="979.6" r="13.1"/><circle cx="-1230.3" cy="979.6" r="13.1"/><path d="M-1328.6 979.6h13.4m26.2 0h45.7m26.1 0h10.5v-20.3l-14-14v-24.6h-107.9v56.6-56.6m0 0l12.1-12h107.5l-12.1 12m14.4 58.4l12.1-12v-19.9m-14.4-38.5v24.2l-12.1 12m12.1-12l14.4 14.3-12.1 12"/><path d="M-1244.4 926.2h17.8v18.1h-17.8zm4.5-40.9h30l8.1-8.1-6.2-6.1-6.4-6.5h-60.8l-9-9h-14l15 15v14.7m1.2 0h24.9m4.9-4.8l-17.3 16.8h17.1l14.4-13.9 3.9-3.9h-18.1m23.9-25.3l-10.4 10.4h17.2l7.5-7.5 3.8-3.8h-18.1"/></g></svg>