<svg xmlns="http://www.w3.org/2000/svg" viewBox="-825.4 426.3 186.4 186.4"><g stroke="#13BEBB" stroke-width="4.252" stroke-linecap="round" stroke-linejoin="round" stroke-miterlimit="10" fill="none"><path d="M-705.5 515.3H-811l5.2-5.2 45.1-45.1h105.5zm-100.3-5.2l36.4-14.3 4 7.7 34-13.5 9 17.4 15.1-6 4.7 9.2"/><ellipse transform="rotate(-20.45 -699.99 481.485)" cx="-699.7" cy="480.4" rx="13.7" ry="5.7"/><path d="M-681.8 491.5h28l-50.3 50.3h-105.5l5.2-5.1 20.5-20.5m-20.5 20.5l36.4-14.4 4 7.8 34-13.5 9 17.4 15.1-6 4.7 9.1m10.1-37.3c1.4 0 2.5.2 3.4.5 3 1 3.3 3.6.3 6.7-3 3-8.3 5.5-13.2 6.6-1.7.4-3.3.6-4.8.6m21.8 7.1h29.8l-50.3 50.3h-105.5l5.2-5.2 24.2-24.6m-24.2 24.6l36.4-14.3 4 7.8 34-13.6 9 17.4 15.1-6 4.7 9.2m11-37.4c1.2 0 2.2.1 2.9.4 2.6.9 2.9 3.1.2 5.7-2.5 2.5-7.1 4.7-11.3 5.7-1.4.3-2.8.5-4.1.5m16.3 34.9h31.3m-15.7-15.6v31.3"/></g></svg>