<svg xmlns="http://www.w3.org/2000/svg" viewBox="-1077.3 829.8 186.4 186.4" enable-background="new -1077.3 829.8 186.4 186.4"><g stroke="#13BEBB" stroke-width="4.252" stroke-linecap="round" stroke-linejoin="round" stroke-miterlimit="10" fill="none"><path d="M-1054.8 920.8h71.1v71.1h-71.1zM-1054.8 920.8l19.4-19.4h70.5M-984.3 991.9l19.4-19.4v-71.1l-19.4 19.4M-974.6 911.2h-70.6"/><path d="M-1025.3 953.5h34.3v25.3h-34.3zM-1019.2 961.8h19.2M-1019.2 969.4h9.6M-1018.9 901.4v-35.3h93.3v80.6h-39.3M-1018.9 866.1l12-12.1h93.4M-925.6 946.4l12.1-12v-80.4l-12.1 12.1"/><path d="M-964.2 909h25.3v25.3h-25.3zM-962.8 917.3h14.2M-962.8 924.9h14.2"/></g></svg>