<svg xmlns="http://www.w3.org/2000/svg" viewBox="-1354.8 829.8 186.4 186.4" enable-background="new -1354.8 829.8 186.4 186.4"><g stroke="#13BEBB" stroke-width="4.252" stroke-linecap="round" stroke-linejoin="round" stroke-miterlimit="10" fill="none"><circle cx="-1302.1" cy="979.6" r="13.1"/><circle cx="-1230.3" cy="979.6" r="13.1"/><path d="M-1328.6 979.6h13.4M-1289 979.6h45.7M-1217.2 979.6h10.5v-20.3l-14-14v-24.6h-107.9v56.6-56.6M-1328.6 920.7l12.1-12h107.5l-12.1 12M-1206.7 979.1l12.1-12v-19.9M-1209 908.7v24.2l-12.1 12M-1209 932.9l14.4 14.3-12.1 12"/><path d="M-1244.4 926.2h17.8v18.1h-17.8zM-1239.9 885.3h30l8.1-8.1-6.2-6.1-6.4-6.5h-60.8l-9-9h-14l15 15v14.7M-1282 885.3h24.9M-1252.2 880.5l-17.3 16.8h17.1l14.4-13.9 3.9-3.9h-18.1M-1228.3 854.2l-10.4 10.4h17.2l7.5-7.5 3.8-3.8h-18.1"/></g></svg>