<svg xmlns="http://www.w3.org/2000/svg" viewBox="-294.4 426.3 186.4 186.4"><g stroke="#13BEBB" stroke-width="4.252" stroke-linecap="round" stroke-linejoin="round" fill="none"><path d="M-162.5 484.2v-2.9h-2.9"/><path stroke-dasharray="6.024,9.036" d="M-174.4 481.3h-85.8"/><path d="M-264.7 481.3h-2.9v2.9"/><path stroke-dasharray="6.024,9.036" d="M-267.6 493.2V579"/><path d="M-267.6 583.6v2.8h2.9"/><path stroke-dasharray="6.024,9.036" d="M-255.7 586.4h85.8"/><path d="M-165.4 586.4h2.9v-2.8"/><path stroke-dasharray="6.024,9.036" d="M-162.5 574.5v-85.8"/></g><g stroke="#13BEBB" stroke-width="4.252" stroke-linecap="round" stroke-linejoin="round" fill="none"><path d="M-267.6 481.3l2-2"/><path stroke-dasharray="5.7923,8.6884" d="M-259.4 473.2l20.5-20.6h96.9"/><path d="M-137.6 452.6h2.8"/></g><g stroke="#13BEBB" stroke-width="4.252" stroke-linecap="round" stroke-linejoin="round" fill="none"><path d="M-163.5 586.3l2-2"/><path stroke-dasharray="5.8296,8.7444" d="M-155.3 578.1l20.5-20.5v-97.8"/><path d="M-134.8 455.5v-2.9l-2 2"/><path stroke-dasharray="5.3728,8.0592" d="M-142.5 460.3l-16.1 16.2"/><path d="M-161.5 479.3l-2 2"/></g><g stroke="#13BEBB" stroke-width="4.252" stroke-linecap="round" stroke-linejoin="round" fill="none"><path d="M-149.1 467h-2.9"/><path stroke-dasharray="5.3015,7.9522" d="M-159.9 467h-88.8"/><path d="M-252.7 467h-2.8"/></g><path stroke="#13BEBB" stroke-width="4.252" stroke-linecap="round" stroke-linejoin="round" stroke-miterlimit="10" fill="none" d="M-224 529.5h50.7v37.4H-224zm8.9 12.3h28.4m-28.4 11.2h14.2"/></svg>