<svg width="1353" height="1173" viewBox="0 0 1353 1173" xmlns="http://www.w3.org/2000/svg" fill="none"><path d="M684.678 438.824c-8.767-10.112-21.465-15.912-34.837-15.912-13.063 0-25.565 5.578-34.299 15.302-7.602 8.465-11.789 19.397-11.789 30.785 0 11.855 4.491 23.118 12.646 31.714 8.792 9.269 20.669 14.374 33.442 14.374 8.6 0 16.989-2.384 24.261-6.895 13.667-8.479 21.827-23.13 21.827-39.192 0-11.09-3.996-21.807-11.251-30.176z" fill="#3FB7B1"/><path d="M649.84 487.163c10.031 0 18.163-8.132 18.163-18.163s-8.132-18.163-18.163-18.163-18.163 8.132-18.163 18.163 8.132 18.163 18.163 18.163z" stroke="url(#a)" stroke-miterlimit="10"/><path d="M649.84 496c14.912 0 27-12.088 27-27s-12.088-27-27-27-27 12.088-27 27 12.088 27 27 27z" stroke="url(#b)" stroke-miterlimit="10"/><path d="M649.758 469l-414 306" stroke="url(#c)" stroke-miterlimit="10"/><path d="M721.758 967.497c6.902 0 12.497-5.595 12.497-12.497s-5.595-12.497-12.497-12.497-12.497 5.595-12.497 12.497 5.595 12.497 12.497 12.497z" stroke="url(#d)" stroke-miterlimit="10"/><path d="M235.758 775l36 162" stroke="url(#e)" stroke-miterlimit="10"/><path d="M235.758 775l-18 252" stroke="url(#f)" stroke-miterlimit="10"/><path d="M235.758 775l-90 162" stroke="url(#g)" stroke-miterlimit="10"/><path d="M235.758 775l-234 90" stroke="url(#h)" stroke-miterlimit="10"/><path d="M235.758 775l-198 36" stroke="url(#i)" stroke-miterlimit="10"/><path d="M235.758 775h-144" stroke="url(#j)" stroke-miterlimit="10"/><path d="M19.758 685l216 90" stroke="url(#k)" stroke-miterlimit="10"/><path d="M235.758 775l-162-90" stroke="url(#l)" stroke-miterlimit="10"/><path d="M235.758 775l-90-90" stroke="url(#m)" stroke-miterlimit="10"/><path d="M235.758 775l-90-144" stroke="url(#n)" stroke-miterlimit="10"/><path d="M235.758 775l-18-90" stroke="url(#o)" stroke-miterlimit="10"/><path d="M235.758 775l18-126" stroke="url(#p)" stroke-miterlimit="10"/><path d="M235.758 775l54-108" stroke="url(#q)" stroke-miterlimit="10"/><path d="M235.758 775l90-126" stroke="url(#r)" stroke-miterlimit="10"/><path d="M235.758 775l126-54" stroke="url(#s)" stroke-miterlimit="10"/><path d="M235.758 775l144 18" stroke="url(#t)" stroke-miterlimit="10"/><path d="M235.758 775l108 54" stroke="url(#u)" stroke-miterlimit="10"/><path d="M235.758 775l90 144" stroke="url(#v)" stroke-miterlimit="10"/><path d="M235.758 775l90 90" stroke="url(#w)" stroke-miterlimit="10"/><path d="M649.758 469l72 486.001" stroke="url(#x)" stroke-miterlimit="10"/><path d="M721.758 955.001l-108 71.999" stroke="url(#y)" stroke-miterlimit="10"/><path d="M721.758 955.001l-72 71.999" stroke="url(#z)" stroke-miterlimit="10"/><path d="M721.758 955.001l-36 161.999" stroke="url(#A)" stroke-miterlimit="10"/><path d="M721.758 955.001v125.999" stroke="url(#B)" stroke-miterlimit="10"/><path d="M721.758 955.001l72 215.999" stroke="url(#C)" stroke-miterlimit="10"/><path d="M721.758 955l72 162" stroke="url(#D)" stroke-miterlimit="10"/><path d="M721.758 955l90 90" stroke="url(#E)" stroke-miterlimit="10"/><path d="M721.758 955l126 36" stroke="url(#F)" stroke-miterlimit="10"/><path d="M721.758 955l90-54" stroke="url(#G)" stroke-miterlimit="10"/><path d="M721.758 955l54-90" stroke="url(#H)" stroke-miterlimit="10"/><path d="M721.758 955l-54-90" stroke="url(#I)" stroke-miterlimit="10"/><path d="M721.758 955l-108-36" stroke="url(#J)" stroke-miterlimit="10"/><path d="M721.758 955h-90" stroke="url(#K)" stroke-miterlimit="10"/><path d="M721.758 955.001l-126 53.999" stroke="url(#L)" stroke-miterlimit="10"/><path d="M649.758 469l594.002-198" stroke="url(#M)" stroke-miterlimit="10"/><path d="M1243.76 271l-72-72" stroke="url(#N)" stroke-miterlimit="10"/><path d="M1243.76 271l-54-108" stroke="url(#O)" stroke-miterlimit="10"/><path d="M1243.76 271l18-180" stroke="url(#P)" stroke-miterlimit="10"/><path d="M1243.76 271l54-90" stroke="url(#Q)" stroke-miterlimit="10"/><path d="M1243.76 271l108-90" stroke="url(#R)" stroke-miterlimit="10"/><path d="M1243.76 271l72-36" stroke="url(#S)" stroke-miterlimit="10"/><path d="M1243.76 271l72 36" stroke="url(#T)" stroke-miterlimit="10"/><path d="M1243.76 271l72 108" stroke="url(#U)" stroke-miterlimit="10"/><path d="M1243.76 271v72" stroke="url(#V)" stroke-miterlimit="10"/><path d="M1243.76 271l-54 90" stroke="url(#W)" stroke-miterlimit="10"/><path d="M1243.76 271l-72 54" stroke="url(#X)" stroke-miterlimit="10"/><path d="M1243.76 271l-72-18" stroke="url(#Y)" stroke-miterlimit="10"/><path d="M901.758 631l-252-162" stroke="url(#Z)" stroke-miterlimit="10"/><path d="M901.758 631l-36-54" stroke="url(#aa)" stroke-miterlimit="10"/><path d="M901.758 631l54-90" stroke="url(#ab)" stroke-miterlimit="10"/><path d="M901.758 631l-72 36" stroke="url(#ac)" stroke-miterlimit="10"/><path d="M901.758 631l18 108" stroke="url(#ad)" stroke-miterlimit="10"/><path d="M901.758 631l-18 72" stroke="url(#ae)" stroke-miterlimit="10"/><path d="M901.758 631l36 54" stroke="url(#af)" stroke-miterlimit="10"/><path d="M901.758 631l72 18" stroke="url(#ag)" stroke-miterlimit="10"/><path d="M901.758 631l54-18" stroke="url(#ah)" stroke-miterlimit="10"/><path d="M901.758 631h-54" stroke="url(#ai)" stroke-miterlimit="10"/><path d="M649.758 469.001l-432-144" stroke="url(#aj)" stroke-miterlimit="10"/><path d="M217.758 325.001l-72-72.001" stroke="url(#ak)" stroke-miterlimit="10"/><path d="M217.758 325.001l-36-72.001" stroke="url(#al)" stroke-miterlimit="10"/><path d="M217.758 325.001l18-108.001" stroke="url(#am)" stroke-miterlimit="10"/><path d="M217.758 325.001l-180 53.999" stroke="url(#an)" stroke-miterlimit="10"/><path d="M217.758 325l-144 18" stroke="url(#ao)" stroke-miterlimit="10"/><path d="M217.758 325l-108-18" stroke="url(#ap)" stroke-miterlimit="10"/><path d="M127.758 379l90-54" stroke="url(#aq)" stroke-miterlimit="10"/><path d="M217.758 325l-90 144" stroke="url(#ar)" stroke-miterlimit="10"/><path d="M199.758 451l18-126" stroke="url(#as)" stroke-miterlimit="10"/><path d="M253.758 433l-36-108" stroke="url(#at)" stroke-miterlimit="10"/><path d="M253.758 379l-36-54" stroke="url(#au)" stroke-miterlimit="10"/><path d="M217.758 325.001l36-54.001" stroke="url(#av)" stroke-miterlimit="10"/><path d="M217.758 325l72-36" stroke="url(#aw)" stroke-miterlimit="10"/><path d="M217.758 325.001l126-.001" stroke="url(#ax)" stroke-miterlimit="10"/><path d="M649.758 469l-144 252" stroke="url(#ay)" stroke-miterlimit="10"/><path d="M505.758 721l-180-162" stroke="url(#az)" stroke-miterlimit="10"/><path d="M505.758 721l-90 18" stroke="url(#aA)" stroke-miterlimit="10"/><path d="M505.758 721l18 108" stroke="url(#aB)" stroke-miterlimit="10"/><path d="M505.758 721h72" stroke="url(#aC)" stroke-miterlimit="10"/><path d="M505.758 721l45 36" stroke="url(#aD)" stroke-miterlimit="10"/><path d="M649.758 469l-144-162" stroke="url(#aE)" stroke-miterlimit="10"/><path d="M505.758 307l-36 36" stroke="url(#aF)" stroke-miterlimit="10"/><path d="M505.758 307l-126-18" stroke="url(#aG)" stroke-miterlimit="10"/><path d="M505.758 307l-108-72" stroke="url(#aH)" stroke-miterlimit="10"/><path d="M505.758 307l18-54" stroke="url(#aI)" stroke-miterlimit="10"/><path d="M505.758 307l90-36" stroke="url(#aJ)" stroke-miterlimit="10"/><path d="M523.758 829l-54 54" stroke="url(#aK)" stroke-miterlimit="10"/><path d="M523.758 829l-36-18" stroke="url(#aL)" stroke-miterlimit="10"/><path d="M523.758 829l18-18" stroke="url(#aM)" stroke-miterlimit="10"/><path d="M523.758 829l18 54" stroke="url(#aN)" stroke-miterlimit="10"/><path d="M505.758 721l-144 162" stroke="url(#aO)" stroke-miterlimit="10"/><path d="M397.758 235l-54 18" stroke="url(#aP)" stroke-miterlimit="10"/><path d="M397.758 235l-54-54" stroke="url(#aQ)" stroke-miterlimit="10"/><path d="M397.758 235v-36" stroke="url(#aR)" stroke-miterlimit="10"/><path d="M397.758 235h36" stroke="url(#aS)" stroke-miterlimit="10"/><path d="M955.758 541l-18-18" stroke="url(#aT)" stroke-miterlimit="10"/><path d="M955.758 541l18-72" stroke="url(#aU)" stroke-miterlimit="10"/><path d="M955.758 541l18 36" stroke="url(#aV)" stroke-miterlimit="10"/><path d="M955.758 541l72.002 18" stroke="url(#aW)" stroke-miterlimit="10"/><path d="M649.758 469l90-234" stroke="url(#aX)" stroke-miterlimit="10"/><path d="M757.758 289l-18-54" stroke="url(#aY)" stroke-miterlimit="10"/><path d="M739.758 235l-90-90" stroke="url(#aZ)" stroke-miterlimit="10"/><path d="M739.758 235l-90 54" stroke="url(#ba)" stroke-miterlimit="10"/><path d="M739.758 235l-72 18" stroke="url(#bb)" stroke-miterlimit="10"/><path d="M739.758 235l-90-18" stroke="url(#bc)" stroke-miterlimit="10"/><path d="M739.758 235l180-144" stroke="url(#bd)" stroke-miterlimit="10"/><path d="M919.758 91l-54-18" stroke="url(#be)" stroke-miterlimit="10"/><path d="M919.758 91l18 72" stroke="url(#bf)" stroke-miterlimit="10"/><path d="M919.758 91l36 36" stroke="url(#bg)" stroke-miterlimit="10"/><path d="M919.758 91l-18-18" stroke="url(#bh)" stroke-miterlimit="10"/><path d="M919.758 91v-54" stroke="url(#bi)" stroke-miterlimit="10"/><path d="M919.758 91l108.002-54" stroke="url(#bj)" stroke-miterlimit="10"/><path d="M919.758 91l36-36" stroke="url(#bk)" stroke-miterlimit="10"/><path d="M919.758 91l-18 54" stroke="url(#bl)" stroke-miterlimit="10"/><path d="M1261.76 91l-54-36" stroke="url(#bm)" stroke-miterlimit="10"/><path d="M1261.76 91l-36 18" stroke="url(#bn)" stroke-miterlimit="10"/><path d="M1261.76 91l-36-90" stroke="url(#bo)" stroke-miterlimit="10"/><path d="M1261.76 91l54-54" stroke="url(#bp)" stroke-miterlimit="10"/><path d="M1261.76 91l36 36" stroke="url(#bq)" stroke-miterlimit="10"/><path d="M649.758 469l198-144" stroke="url(#br)" stroke-miterlimit="10"/><path d="M847.758 325l-36-18" stroke="url(#bs)" stroke-miterlimit="10"/><path d="M847.758 325l-36-90" stroke="url(#bt)" stroke-miterlimit="10"/><path d="M847.758 325l-18 54" stroke="url(#bu)" stroke-miterlimit="10"/><path d="M847.758 325l216.002-90" stroke="url(#bv)" stroke-miterlimit="10"/><path d="M1063.76 235l-18-18" stroke="url(#bw)" stroke-miterlimit="10"/><path d="M1063.76 235l-18 36" stroke="url(#bx)" stroke-miterlimit="10"/><path d="M1063.76 235v-36" stroke="url(#by)" stroke-miterlimit="10"/><path d="M1063.76 235l18-18" stroke="url(#bz)" stroke-miterlimit="10"/><path d="M1063.76 235l54 36" stroke="url(#bA)" stroke-miterlimit="10"/><path d="M847.758 325l90 18" stroke="url(#bB)" stroke-miterlimit="10"/><path d="M847.758 325l54 36" stroke="url(#bC)" stroke-miterlimit="10"/><path d="M847.758 325l36-54" stroke="url(#bD)" stroke-miterlimit="10"/><path d="M325.758 559l-36 54" stroke="url(#bE)" stroke-miterlimit="10"/><path d="M325.758 559l-144 18" stroke="url(#bF)" stroke-miterlimit="10"/><path d="M325.758 559l-126-54" stroke="url(#bG)" stroke-miterlimit="10"/><path d="M325.758 559l-54-54" stroke="url(#bH)" stroke-miterlimit="10"/><path d="M325.758 559h54" stroke="url(#bI)" stroke-miterlimit="10"/><path d="M325.758 559l18-36" stroke="url(#bJ)" stroke-miterlimit="10"/><path d="M649.758 469l-162 36" stroke="url(#bK)" stroke-miterlimit="10"/><path d="M487.758 505l-36-18" stroke="url(#bL)" stroke-miterlimit="10"/><path d="M487.758 505l-54 72" stroke="url(#bM)" stroke-miterlimit="10"/><path d="M649.758 469l-144 162" stroke="url(#bN)" stroke-miterlimit="10"/><path d="M505.758 631h-36" stroke="url(#bO)" stroke-miterlimit="10"/><path d="M505.758 631l-36 36" stroke="url(#bP)" stroke-miterlimit="10"/><path d="M649.758 469l54 90" stroke="url(#bQ)" stroke-miterlimit="10"/><path d="M703.758 559l18-72" stroke="url(#bR)" stroke-miterlimit="10"/><path d="M703.758 559l108-54" stroke="url(#bS)" stroke-miterlimit="10"/><path d="M703.758 559l-72 18" stroke="url(#bT)" stroke-miterlimit="10"/><path d="M703.758 559v108" stroke="url(#bU)" stroke-miterlimit="10"/><path d="M703.758 559l36 162" stroke="url(#bV)" stroke-miterlimit="10"/><path d="M811.758 505l-18-18" stroke="url(#bW)" stroke-miterlimit="10"/><path d="M811.758 505v18" stroke="url(#bX)" stroke-miterlimit="10"/><path d="M811.758 505l36-36" stroke="url(#bY)" stroke-miterlimit="10"/><path d="M739.758 721l-18 36" stroke="url(#bZ)" stroke-miterlimit="10"/><path d="M739.758 721l54 90" stroke="url(#ca)" stroke-miterlimit="10"/><path d="M739.758 721l72 36" stroke="url(#cb)" stroke-miterlimit="10"/><path d="M703.758 667l-72 18" stroke="url(#cc)" stroke-miterlimit="10"/><path d="M703.758 667v36" stroke="url(#cd)" stroke-miterlimit="10"/><path d="M703.758 667l54 18" stroke="url(#ce)" stroke-miterlimit="10"/><path d="M451.758 487v-18" stroke="url(#cf)" stroke-miterlimit="10"/><path d="M451.758 487l36-18" stroke="url(#cg)" stroke-miterlimit="10"/><path d="M451.758 487l-18 18" stroke="url(#ch)" stroke-miterlimit="10"/><path d="M397.758 451l54 36" stroke="url(#ci)" stroke-miterlimit="10"/><path d="M415.758 433l36 54" stroke="url(#cj)" stroke-miterlimit="10"/><path d="M433.758 541l18-54" stroke="url(#ck)" stroke-miterlimit="10"/><path d="M739.758 721l108 18" stroke="url(#cl)" stroke-miterlimit="10"/><path d="M739.758 829v-108" stroke="url(#cm)" stroke-miterlimit="10"/><path d="M703.758 667l54-54" stroke="url(#cn)" stroke-miterlimit="10"/><path d="M703.758 667l-54-18" stroke="url(#co)" stroke-miterlimit="10"/><path d="M703.758 559l90 36" stroke="url(#cp)" stroke-miterlimit="10"/><path d="M226.758 375.25c1.45 0 2.625-1.175 2.625-2.625s-1.175-2.625-2.625-2.625-2.625 1.175-2.625 2.625 1.175 2.625 2.625 2.625zM271.758 372.625c0 1.449-1.175 2.625-2.625 2.625h-31.875c-1.45 0-2.625-1.176-2.625-2.625s1.175-2.625 2.625-2.625h31.875c1.45 0 2.625 1.176 2.625 2.625zM253.758 820c1.45 0 2.625-1.175 2.625-2.625s-1.175-2.625-2.625-2.625-2.625 1.175-2.625 2.625 1.175 2.625 2.625 2.625zM298.758 817.375c0 1.449-1.175 2.625-2.625 2.625h-31.875c-1.45 0-2.625-1.176-2.625-2.625s1.175-2.625 2.625-2.625h31.875c1.45 0 2.625 1.175 2.625 2.625z" fill="#C14F3D"/><path d="M346.383 546.25c1.45 0 2.625-1.175 2.625-2.625s-1.175-2.625-2.625-2.625-2.625 1.175-2.625 2.625 1.175 2.625 2.625 2.625z" fill="url(#cq)"/><path d="M379.758 543.625c0 1.449-1.175 2.625-2.625 2.625h-20.25c-1.45 0-2.625-1.176-2.625-2.625s1.175-2.625 2.625-2.625h20.25c1.45 0 2.625 1.176 2.625 2.625z" stroke="url(#cr)" stroke-miterlimit="10"/><path d="M715.383 199c1.45 0 2.625-1.175 2.625-2.625s-1.175-2.625-2.625-2.625-2.625 1.175-2.625 2.625 1.175 2.625 2.625 2.625z" stroke="url(#cs)" stroke-miterlimit="10"/><path d="M748.758 196.375c0 1.449-1.176 2.625-2.625 2.625h-20.25c-1.449 0-2.625-1.176-2.625-2.625s1.176-2.625 2.625-2.625h20.25c1.449 0 2.625 1.176 2.625 2.625z" stroke="url(#ct)" stroke-miterlimit="10"/><path d="M877.383 303.25c1.45 0 2.625-1.175 2.625-2.625s-1.175-2.625-2.625-2.625-2.625 1.175-2.625 2.625 1.175 2.625 2.625 2.625zM910.758 300.625c0 1.449-1.176 2.625-2.625 2.625h-20.25c-1.449 0-2.625-1.176-2.625-2.625s1.176-2.625 2.625-2.625h20.25c1.449 0 2.625 1.176 2.625 2.625z" stroke="#E7367C" stroke-miterlimit="10"/><path d="M751.383 712c1.45 0 2.625-1.175 2.625-2.625s-1.175-2.625-2.625-2.625-2.625 1.175-2.625 2.625 1.175 2.625 2.625 2.625z" stroke="url(#cu)" stroke-miterlimit="10"/><path d="M784.758 709.375c0 1.449-1.176 2.625-2.625 2.625h-20.25c-1.449 0-2.625-1.176-2.625-2.625s1.176-2.625 2.625-2.625h20.25c1.449 0 2.625 1.176 2.625 2.625z" stroke="url(#cv)" stroke-miterlimit="10"/><path d="M535.383 708.25c1.45 0 2.625-1.175 2.625-2.625s-1.175-2.625-2.625-2.625-2.625 1.175-2.625 2.625 1.175 2.625 2.625 2.625z" stroke="url(#cw)" stroke-miterlimit="10"/><path d="M568.758 705.625c0 1.449-1.175 2.625-2.625 2.625h-20.25c-1.45 0-2.625-1.176-2.625-2.625s1.175-2.625 2.625-2.625h20.25c1.45 0 2.625 1.176 2.625 2.625z" stroke="url(#cx)" stroke-miterlimit="10"/><path d="M748.758 933.25c1.45 0 2.625-1.175 2.625-2.625s-1.175-2.625-2.625-2.625-2.625 1.175-2.625 2.625 1.175 2.625 2.625 2.625z" stroke="url(#cy)" stroke-miterlimit="10"/><path d="M793.758 930.625c0 1.449-1.176 2.625-2.625 2.625h-31.875c-1.449 0-2.625-1.176-2.625-2.625s1.176-2.625 2.625-2.625h31.875c1.449 0 2.625 1.175 2.625 2.625z" stroke="url(#cz)" stroke-miterlimit="10"/><path d="M1282.38 276.25c1.45 0 2.63-1.175 2.63-2.625s-1.18-2.625-2.63-2.625-2.62 1.175-2.62 2.625 1.17 2.625 2.62 2.625zM1327.38 273.625c0 1.449-1.17 2.625-2.62 2.625h-31.88c-1.45 0-2.62-1.176-2.62-2.625s1.17-2.625 2.62-2.625h31.88c1.45 0 2.62 1.176 2.62 2.625z" fill="#C14F3D"/><path opacity=".2" d="M235.758 803.174c15.56 0 28.174-12.614 28.174-28.174 0-15.56-12.614-28.174-28.174-28.174-15.56 0-28.174 12.614-28.174 28.174 0 15.56 12.614 28.174 28.174 28.174z" fill="#2AD7D7"/><path opacity=".2" d="M505.758 740.074c10.534 0 19.074-8.54 19.074-19.074 0-10.535-8.54-19.074-19.074-19.074-10.535 0-19.074 8.539-19.074 19.074 0 10.534 8.539 19.074 19.074 19.074zM721.758 964.074c5.011 0 9.074-4.063 9.074-9.074 0-5.012-4.063-9.074-9.074-9.074s-9.074 4.062-9.074 9.074c0 5.011 4.063 9.074 9.074 9.074zM739.758 730.074c5.011 0 9.074-4.063 9.074-9.074 0-5.012-4.063-9.074-9.074-9.074s-9.074 4.062-9.074 9.074c0 5.011 4.063 9.074 9.074 9.074z" fill="#44BEF1"/><path d="M721.022 469.001c0 39.316-31.869 71.18-71.182 71.18s-71.181-31.863-71.181-71.18c0-39.317 31.868-71.183 71.181-71.183s71.182 31.866 71.182 71.183z" stroke="url(#cA)" stroke-miterlimit="10"/><path opacity=".9" d="M217.758 1029.25c1.242 0 2.25-1.01 2.25-2.25s-1.008-2.25-2.25-2.25c-1.243 0-2.25 1.01-2.25 2.25s1.007 2.25 2.25 2.25zM145.758 939.176c1.202 0 2.176-.974 2.176-2.176 0-1.202-.974-2.176-2.176-2.176-1.202 0-2.176.974-2.176 2.176 0 1.202.974 2.176 2.176 2.176zM1.758 866.758c.971 0 1.758-.787 1.758-1.758s-.787-1.758-1.758-1.758-1.758.787-1.758 1.758.787 1.758 1.758 1.758zM73.758 686.091c.603 0 1.091-.488 1.091-1.091 0-.602-.489-1.091-1.091-1.091s-1.091.489-1.091 1.091c0 .603.489 1.091 1.091 1.091zM235.758 778.758c2.075 0 3.758-1.682 3.758-3.758 0-2.075-1.683-3.758-3.758-3.758s-3.758 1.683-3.758 3.758c0 2.076 1.683 3.758 3.758 3.758z" fill="#64C7D6"/><path opacity=".9" d="M235.758 777.442c1.349 0 2.442-1.094 2.442-2.442 0-1.349-1.093-2.442-2.442-2.442-1.348 0-2.442 1.093-2.442 2.442 0 1.348 1.094 2.442 2.442 2.442zM505.758 723.442c1.349 0 2.442-1.094 2.442-2.442 0-1.349-1.093-2.442-2.442-2.442-1.348 0-2.442 1.093-2.442 2.442 0 1.348 1.094 2.442 2.442 2.442z" fill="#fff"/><path opacity=".9" d="M91.758 776.591c.879 0 1.591-.712 1.591-1.591s-.712-1.591-1.591-1.591-1.591.712-1.591 1.591.712 1.591 1.591 1.591zM19.758 687.424c1.339 0 2.424-1.085 2.424-2.424s-1.085-2.424-2.424-2.424-2.424 1.085-2.424 2.424 1.085 2.424 2.424 2.424zM37.758 812.233c.681 0 1.233-.552 1.233-1.233s-.552-1.233-1.233-1.233-1.233.552-1.233 1.233.552 1.233 1.233 1.233z" fill="#64C7D6"/><path d="M649.841 496.5c-7.622 0-14.708-3.046-19.955-8.577-4.866-5.129-7.545-11.849-7.545-18.923 0-6.795 2.498-13.318 7.034-18.369 5.211-5.803 12.671-9.131 20.466-9.131 7.979 0 15.556 3.461 20.787 9.495 4.329 4.994 6.713 11.388 6.713 18.005 0 9.584-4.869 18.327-13.023 23.386-4.34 2.691-9.346 4.114-14.477 4.114zm0-54c-7.512 0-14.7 3.207-19.722 8.799-4.371 4.867-6.778 11.153-6.778 17.701 0 6.817 2.582 13.293 7.271 18.235 5.056 5.33 11.885 8.265 19.229 8.265 4.945 0 9.769-1.371 13.949-3.964 7.859-4.875 12.551-13.3 12.551-22.536 0-6.376-2.297-12.539-6.469-17.35-5.041-5.816-12.342-9.15-20.031-9.15z" fill="#fff"/><path d="M649.84 532.5v-2.31c17.878 0 34.813-7.789 46.464-21.37 9.497-11.072 14.728-25.214 14.728-39.821 0-8.261-1.618-16.275-4.81-23.819l2.127-.899c3.313 7.83 4.991 16.146 4.991 24.718 0 15.158-5.428 29.834-15.284 41.324-12.089 14.094-29.663 22.177-48.216 22.177z" fill="#AC2DAC"/><path d="M588.65 469h-2.31c0-8.327 1.587-16.423 4.718-24.063 5.85-14.275 16.686-25.928 30.513-32.813 8.828-4.396 18.339-6.625 28.269-6.625v2.309c-9.569 0-18.734 2.148-27.24 6.383-13.326 6.635-23.769 17.865-29.406 31.621-3.016 7.361-4.544 15.162-4.544 23.188z" fill="#44F8FD"/><path d="M649.84 541.5c-14.698 0-28.852-4.375-40.932-12.653-10.819-7.413-19.436-17.606-24.92-29.478-1.282-2.776-2.398-5.663-3.316-8.579-2.211-7.025-3.333-14.356-3.333-21.791 0-10.336 2.13-20.32 6.331-29.674 1.101-2.451 2.353-4.867 3.722-7.182l2.27 1.343c-1.319 2.23-2.526 4.558-3.586 6.919-4.047 9.012-6.1 18.633-6.1 28.594 0 7.165 1.08 14.23 3.21 20.999.884 2.81 1.959 5.59 3.195 8.265 5.285 11.441 13.589 21.265 24.017 28.409 11.639 7.976 25.277 12.191 39.441 12.191 29.942 0 56.529-19.033 66.16-47.362 2.457-7.226 3.703-14.796 3.703-22.501 0-38.523-31.341-69.863-69.863-69.863v-2.637c39.977 0 72.5 32.523 72.5 72.5 0 7.995-1.293 15.851-3.844 23.35-9.993 29.398-37.584 49.15-68.655 49.15z" fill="#F039F0"/><path d="M702.213 531.446l-1.906-2.27c17.838-14.977 28.069-36.91 28.069-60.177h2.963c0 24.145-10.616 46.906-29.126 62.447z" fill="#FF3CFF"/><path d="M588.799 523.002c-9.357-10.568-15.829-23.42-18.717-37.166-1.156-5.501-1.742-11.166-1.742-16.837 0-28.042 14.147-53.774 37.844-68.833 6.149-3.908 12.788-6.969 19.731-9.097 7.721-2.369 15.771-3.569 23.925-3.569v2.964c-7.86 0-15.617 1.157-23.057 3.438-6.689 2.051-13.085 5-19.01 8.765-22.836 14.512-36.47 39.31-36.47 66.333 0 5.467.564 10.927 1.678 16.228 2.782 13.244 9.019 25.626 18.035 35.811l-2.217 1.963z" fill="#5B3EAE"/><path d="M649.841 577.499c-18.292 0-36.375-4.638-52.297-13.412-14.634-8.066-27.408-19.6-36.941-33.354-12.602-18.181-19.263-39.527-19.263-61.733h3.945c0 21.398 6.418 41.968 18.561 59.485 9.188 13.257 21.499 24.373 35.603 32.146 15.34 8.454 32.766 12.922 50.393 12.922v3.946h-.001z" fill="#48BDEF"/><path d="M730.972 541.042l-2.949-2.621c17.006-19.139 26.371-43.793 26.371-69.422 0-16.918-4.133-33.721-11.952-48.592-8.526-16.214-21.222-29.973-36.714-39.79-16.698-10.581-36.023-16.173-55.887-16.173-16.132 0-31.601 3.574-45.976 10.624l-1.737-3.542c14.921-7.317 30.974-11.027 47.713-11.027 20.612 0 40.668 5.804 57.998 16.786 16.074 10.186 29.247 24.462 38.095 41.287 8.115 15.434 12.405 32.872 12.405 50.428 0 26.595-9.719 52.181-27.367 72.042z" fill="#5B3FAE"/><path opacity=".5" d="M217.758 342.925c9.899 0 17.924-8.025 17.924-17.924s-8.025-17.924-17.924-17.924-17.924 8.025-17.924 17.924 8.025 17.924 17.924 17.924z" fill="#3EE7CD" fill-opacity=".7"/><path opacity=".9" d="M217.759 328.759c2.075 0 3.758-1.682 3.758-3.758 0-2.075-1.683-3.758-3.758-3.758-2.076 0-3.758 1.683-3.758 3.758 0 2.076 1.682 3.758 3.758 3.758z" fill="#64C7D6"/><path opacity=".9" d="M217.759 327.443c1.349 0 2.442-1.094 2.442-2.442 0-1.349-1.093-2.442-2.442-2.442-1.348 0-2.442 1.093-2.442 2.442 0 1.348 1.094 2.442 2.442 2.442z" fill="#fff"/><path opacity=".2" d="M847.758 353.174c15.56 0 28.174-12.614 28.174-28.174 0-15.56-12.614-28.174-28.174-28.174-15.56 0-28.174 12.614-28.174 28.174 0 15.56 12.614 28.174 28.174 28.174z" fill="#44BEF1"/><path opacity=".9" d="M847.758 328.758c2.076 0 3.758-1.682 3.758-3.758 0-2.075-1.682-3.758-3.758-3.758-2.075 0-3.758 1.683-3.758 3.758 0 2.076 1.683 3.758 3.758 3.758z" fill="#64C7D6"/><path opacity=".9" d="M847.758 327.441c1.348 0 2.441-1.093 2.441-2.441 0-1.349-1.093-2.441-2.441-2.441-1.348 0-2.441 1.092-2.441 2.441 0 1.348 1.093 2.441 2.441 2.441z" fill="#fff"/><path opacity=".5" d="M145.758 687.459c1.358 0 2.459-1.101 2.459-2.459s-1.101-2.459-2.459-2.459-2.459 1.101-2.459 2.459 1.101 2.459 2.459 2.459z" fill="#64C7D6"/><path opacity=".3" d="M145.758 632.856c1.025 0 1.856-.831 1.856-1.856 0-1.025-.831-1.856-1.856-1.856-1.025 0-1.856.831-1.856 1.856 0 1.025.831 1.856 1.856 1.856z" fill="#64C7D6"/><path opacity=".9" d="M217.758 686.591c.879 0 1.591-.712 1.591-1.591s-.712-1.591-1.591-1.591-1.591.712-1.591 1.591.712 1.591 1.591 1.591z" fill="#64C7D6"/><path opacity=".5" d="M253.758 650.425c.787 0 1.425-.638 1.425-1.425s-.638-1.425-1.425-1.425-1.425.638-1.425 1.425.638 1.425 1.425 1.425zM289.758 668.878c1.037 0 1.878-.841 1.878-1.878s-.841-1.878-1.878-1.878-1.878.841-1.878 1.878.841 1.878 1.878 1.878zM289.758 614.475c.815 0 1.475-.66 1.475-1.475 0-.814-.66-1.475-1.475-1.475-.814 0-1.475.661-1.475 1.475 0 .815.661 1.475 1.475 1.475zM181.758 578.075c.593 0 1.075-.481 1.075-1.075s-.482-1.075-1.075-1.075c-.594 0-1.075.481-1.075 1.075s.481 1.075 1.075 1.075z" fill="#64C7D6"/><path opacity=".8" d="M199.758 506.129c.623 0 1.129-.505 1.129-1.129 0-.623-.506-1.129-1.129-1.129-.624 0-1.129.506-1.129 1.129 0 .624.505 1.129 1.129 1.129z" fill="#64C7D6"/><path opacity=".5" d="M325.758 651.159c1.192 0 2.159-.967 2.159-2.159 0-1.193-.967-2.159-2.159-2.159-1.193 0-2.159.966-2.159 2.159 0 1.192.966 2.159 2.159 2.159z" fill="#64C7D6"/><path opacity=".2" d="M361.758 723.159c1.192 0 2.159-.967 2.159-2.159 0-1.193-.967-2.159-2.159-2.159-1.193 0-2.159.966-2.159 2.159 0 1.192.966 2.159 2.159 2.159z" fill="#64C7D6"/><path opacity=".5" d="M379.758 794.303c.72 0 1.303-.583 1.303-1.303 0-.719-.583-1.303-1.303-1.303s-1.303.584-1.303 1.303c0 .72.583 1.303 1.303 1.303z" fill="#64C7D6"/><path opacity=".7" d="M325.758 866.951c1.077 0 1.951-.874 1.951-1.951 0-1.078-.874-1.951-1.951-1.951-1.078 0-1.951.873-1.951 1.951 0 1.077.873 1.951 1.951 1.951z" fill="#64C7D6"/><path opacity=".8" d="M343.758 830.652c.913 0 1.652-.74 1.652-1.652 0-.913-.739-1.652-1.652-1.652-.912 0-1.652.739-1.652 1.652 0 .912.74 1.652 1.652 1.652z" fill="#AAF1F9"/><path opacity=".5" d="M325.758 921.159c1.192 0 2.159-.967 2.159-2.159 0-1.193-.967-2.159-2.159-2.159-1.193 0-2.159.966-2.159 2.159 0 1.192.966 2.159 2.159 2.159zM271.758 938.106c.611 0 1.106-.495 1.106-1.106 0-.61-.495-1.105-1.106-1.105-.61 0-1.106.495-1.106 1.105 0 .611.496 1.106 1.106 1.106z" fill="#64C7D6"/><path opacity=".7" d="M744.536 386.976c-23.832-27.486-58.347-43.252-94.696-43.252-35.51 0-69.491 15.161-93.232 41.595-20.664 23.009-32.044 52.727-32.044 83.681 0 32.227 12.207 62.841 34.374 86.206 23.9 25.196 56.183 39.071 90.903 39.071 23.376 0 46.181-6.481 65.948-18.742 37.149-23.047 59.331-62.874 59.331-106.535-.001-30.145-10.864-59.276-30.584-82.024z" fill="#fff"/><path opacity=".8" d="M649.997 268c58.319 0 113.696 25.296 151.933 69.396 31.639 36.498 49.068 83.237 49.07 131.603 0 70.054-35.587 133.951-95.193 170.931-31.714 19.671-68.302 30.07-105.809 30.07-55.708 0-107.499-22.26-145.847-62.688l-.726.689.726-.689c-35.566-37.488-55.151-86.605-55.151-138.313 0-49.665 18.258-97.345 51.412-134.262 38.091-42.412 92.612-66.737 149.585-66.737z" stroke="#fff" stroke-width="2"/><path opacity=".8" d="M271.758 507.159c1.192 0 2.159-.967 2.159-2.159 0-1.193-.967-2.159-2.159-2.159-1.193 0-2.159.966-2.159 2.159 0 1.192.966 2.159 2.159 2.159zM343.758 523.996c.55 0 .996-.446.996-.996s-.446-.996-.996-.996-.996.446-.996.996.446.996.996.996zM379.758 560.974c1.09 0 1.974-.883 1.974-1.974 0-1.09-.884-1.974-1.974-1.974-1.09 0-1.974.884-1.974 1.974 0 1.091.884 1.974 1.974 1.974zM433.758 543.341c1.293 0 2.341-1.048 2.341-2.341 0-1.293-1.048-2.341-2.341-2.341-1.293 0-2.341 1.048-2.341 2.341 0 1.293 1.048 2.341 2.341 2.341zM469.758 633.341c1.293 0 2.341-1.048 2.341-2.341 0-1.293-1.048-2.341-2.341-2.341-1.293 0-2.341 1.048-2.341 2.341 0 1.293 1.048 2.341 2.341 2.341zM469.758 668.654c.913 0 1.653-.741 1.653-1.654 0-.914-.74-1.654-1.653-1.654-.914 0-1.654.74-1.654 1.654 0 .913.74 1.654 1.654 1.654zM415.758 740.908c1.053 0 1.908-.854 1.908-1.908 0-1.054-.855-1.908-1.908-1.908-1.054 0-1.908.854-1.908 1.908 0 1.054.854 1.908 1.908 1.908z" fill="#64C7D6"/><path opacity=".4" d="M361.758 884.936c1.069 0 1.936-.866 1.936-1.936 0-1.069-.867-1.936-1.936-1.936s-1.936.867-1.936 1.936c0 1.07.867 1.936 1.936 1.936zM469.758 886.216c1.776 0 3.216-1.44 3.216-3.216 0-1.776-1.44-3.216-3.216-3.216-1.776 0-3.216 1.44-3.216 3.216 0 1.776 1.44 3.216 3.216 3.216zM541.758 886.216c1.776 0 3.216-1.44 3.216-3.216 0-1.776-1.44-3.216-3.216-3.216-1.776 0-3.216 1.44-3.216 3.216 0 1.776 1.44 3.216 3.216 3.216zM613.758 920.966c1.086 0 1.966-.88 1.966-1.966 0-1.086-.88-1.966-1.966-1.966-1.086 0-1.966.88-1.966 1.966 0 1.086.88 1.966 1.966 1.966zM667.758 866.229c.679 0 1.229-.55 1.229-1.229 0-.678-.55-1.229-1.229-1.229s-1.229.551-1.229 1.229c0 .679.55 1.229 1.229 1.229zM595.758 1010.31c.724 0 1.31-.59 1.31-1.31 0-.72-.586-1.31-1.31-1.31-.723 0-1.31.59-1.31 1.31 0 .72.587 1.31 1.31 1.31zM631.758 956.583c.874 0 1.583-.709 1.583-1.583s-.709-1.583-1.583-1.583-1.583.709-1.583 1.583.709 1.583 1.583 1.583zM613.758 1028.61c.887 0 1.607-.72 1.607-1.61 0-.89-.72-1.61-1.607-1.61-.888 0-1.607.72-1.607 1.61 0 .89.719 1.61 1.607 1.61zM649.758 1028.65c.909 0 1.647-.74 1.647-1.65 0-.91-.738-1.65-1.647-1.65-.91 0-1.647.74-1.647 1.65 0 .91.737 1.65 1.647 1.65zM775.758 866.34c.74 0 1.34-.6 1.34-1.34 0-.74-.6-1.34-1.34-1.34-.74 0-1.34.6-1.34 1.34 0 .74.6 1.34 1.34 1.34zM811.758 902.496c.826 0 1.496-.67 1.496-1.496s-.67-1.496-1.496-1.496-1.496.67-1.496 1.496.67 1.496 1.496 1.496zM847.758 991.965c.533 0 .965-.432.965-.965 0-.533-.432-.965-.965-.965-.533 0-.965.432-.965.965 0 .533.432.965.965.965zM811.758 1046.59c.878 0 1.589-.71 1.589-1.59 0-.88-.711-1.59-1.589-1.59s-1.589.71-1.589 1.59c0 .88.711 1.59 1.589 1.59z" fill="#64C7D6"/><path opacity=".1" d="M721.758 1083.34c1.292 0 2.34-1.05 2.34-2.34 0-1.29-1.048-2.34-2.34-2.34-1.292 0-2.34 1.05-2.34 2.34 0 1.29 1.048 2.34 2.34 2.34z" fill="#64C7D6"/><path opacity=".4" d="M793.758 1118.19c.66 0 1.195-.53 1.195-1.19 0-.66-.535-1.2-1.195-1.2s-1.195.54-1.195 1.2c0 .66.535 1.19 1.195 1.19zM685.758 1118.46c.806 0 1.459-.65 1.459-1.46 0-.81-.653-1.46-1.459-1.46s-1.459.65-1.459 1.46c0 .81.653 1.46 1.459 1.46zM793.758 1172.09c.602 0 1.09-.49 1.09-1.09 0-.6-.488-1.09-1.09-1.09-.602 0-1.09.49-1.09 1.09 0 .6.488 1.09 1.09 1.09zM703.758 704.607c.887 0 1.607-.72 1.607-1.607 0-.888-.72-1.607-1.607-1.607-.888 0-1.607.719-1.607 1.607 0 .887.719 1.607 1.607 1.607zM757.758 686.549c.855 0 1.549-.693 1.549-1.549 0-.855-.694-1.549-1.549-1.549s-1.549.694-1.549 1.549c0 .856.694 1.549 1.549 1.549zM757.758 614.549c.855 0 1.549-.693 1.549-1.549 0-.855-.694-1.549-1.549-1.549s-1.549.694-1.549 1.549c0 .856.694 1.549 1.549 1.549zM865.758 578.924c1.063 0 1.924-.861 1.924-1.924 0-1.062-.861-1.924-1.924-1.924s-1.924.862-1.924 1.924c0 1.063.861 1.924 1.924 1.924zM973.758 578.924c1.063 0 1.924-.861 1.924-1.924 0-1.062-.861-1.924-1.924-1.924s-1.924.862-1.924 1.924c0 1.063.861 1.924 1.924 1.924z" fill="#64C7D6"/><path opacity=".8" d="M793.758 596.441c.796 0 1.441-.646 1.441-1.441 0-.796-.645-1.441-1.441-1.441s-1.441.645-1.441 1.441c0 .795.645 1.441 1.441 1.441zM541.758 812.216c.672 0 1.216-.544 1.216-1.216 0-.671-.544-1.216-1.216-1.216-.672 0-1.216.545-1.216 1.216 0 .672.544 1.216 1.216 1.216zM487.758 813.383c1.316 0 2.383-1.067 2.383-2.383s-1.067-2.383-2.383-2.383-2.383 1.067-2.383 2.383 1.067 2.383 2.383 2.383zM631.758 687.383c1.316 0 2.383-1.067 2.383-2.383s-1.067-2.383-2.383-2.383-2.383 1.067-2.383 2.383 1.067 2.383 2.383 2.383z" fill="#AAF1F9"/><path opacity=".8" d="M549.542 759.466c1.362 0 2.466-1.104 2.466-2.466s-1.104-2.466-2.466-2.466-2.466 1.104-2.466 2.466 1.104 2.466 2.466 2.466zM577.758 723.466c1.362 0 2.466-1.104 2.466-2.466s-1.104-2.466-2.466-2.466-2.466 1.104-2.466 2.466 1.104 2.466 2.466 2.466zM649.758 651.466c1.362 0 2.466-1.104 2.466-2.466s-1.104-2.466-2.466-2.466-2.466 1.104-2.466 2.466 1.104 2.466 2.466 2.466z" fill="#64C7D6"/><path opacity=".3" d="M397.758 453.341c1.293 0 2.341-1.048 2.341-2.341 0-1.293-1.048-2.341-2.341-2.341-1.293 0-2.341 1.048-2.341 2.341 0 1.293 1.048 2.341 2.341 2.341z" fill="#64C7D6"/><path opacity=".8" d="M415.758 435.341c1.293 0 2.341-1.048 2.341-2.341 0-1.293-1.048-2.341-2.341-2.341-1.293 0-2.341 1.048-2.341 2.341 0 1.293 1.048 2.341 2.341 2.341zM487.758 471.341c1.293 0 2.341-1.048 2.341-2.341 0-1.293-1.048-2.341-2.341-2.341-1.293 0-2.341 1.048-2.341 2.341 0 1.293 1.048 2.341 2.341 2.341zM451.758 471.341c1.293 0 2.341-1.048 2.341-2.341 0-1.293-1.048-2.341-2.341-2.341-1.293 0-2.341 1.048-2.341 2.341 0 1.293 1.048 2.341 2.341 2.341zM433.758 506.683c.93 0 1.683-.753 1.683-1.683 0-.929-.753-1.683-1.683-1.683-.929 0-1.683.754-1.683 1.683 0 .93.754 1.683 1.683 1.683zM433.758 578.683c.93 0 1.683-.753 1.683-1.683 0-.929-.753-1.683-1.683-1.683-.929 0-1.683.754-1.683 1.683 0 .93.754 1.683 1.683 1.683zM199.758 453.341c1.293 0 2.341-1.048 2.341-2.341 0-1.293-1.048-2.341-2.341-2.341-1.293 0-2.341 1.048-2.341 2.341 0 1.293 1.048 2.341 2.341 2.341zM127.758 379.787c.434 0 .787-.352.787-.787 0-.435-.353-.787-.787-.787-.435 0-.787.352-.787.787 0 .435.352.787.787.787zM109.758 308.008c.557 0 1.008-.451 1.008-1.008 0-.557-.451-1.008-1.008-1.008-.557 0-1.008.451-1.008 1.008 0 .557.451 1.008 1.008 1.008zM145.758 254.59c.878 0 1.59-.712 1.59-1.59 0-.878-.712-1.59-1.59-1.59-.878 0-1.59.712-1.59 1.59 0 .878.712 1.59 1.59 1.59z" fill="#64C7D6"/><path opacity=".6" d="M181.758 254.716c.948 0 1.716-.768 1.716-1.716s-.768-1.716-1.716-1.716-1.716.768-1.716 1.716.768 1.716 1.716 1.716zM235.758 218.716c.948 0 1.716-.768 1.716-1.716s-.768-1.716-1.716-1.716-1.716.768-1.716 1.716.768 1.716 1.716 1.716zM253.758 272.928c1.065 0 1.928-.863 1.928-1.928s-.863-1.928-1.928-1.928-1.928.863-1.928 1.928.863 1.928 1.928 1.928zM343.758 254.148c.634 0 1.148-.514 1.148-1.148 0-.634-.514-1.148-1.148-1.148-.634 0-1.148.514-1.148 1.148 0 .634.514 1.148 1.148 1.148zM379.758 290.136c.627 0 1.136-.508 1.136-1.136 0-.627-.509-1.136-1.136-1.136-.627 0-1.136.509-1.136 1.136 0 .628.509 1.136 1.136 1.136zM523.758 254.508c.833 0 1.508-.675 1.508-1.508s-.675-1.508-1.508-1.508-1.508.675-1.508 1.508.675 1.508 1.508 1.508zM649.758 290.256c.694 0 1.256-.562 1.256-1.256s-.562-1.256-1.256-1.256-1.256.562-1.256 1.256.562 1.256 1.256 1.256zM757.758 291.258c1.247 0 2.258-1.011 2.258-2.258s-1.011-2.258-2.258-2.258-2.258 1.011-2.258 2.258 1.011 2.258 2.258 2.258z" fill="#64C7D6"/><path opacity=".3" d="M811.758 237.258c1.247 0 2.258-1.011 2.258-2.258s-1.011-2.258-2.258-2.258-2.258 1.011-2.258 2.258 1.011 2.258 2.258 2.258zM902.524 363.258c1.247 0 2.258-1.011 2.258-2.258s-1.011-2.258-2.258-2.258-2.258 1.011-2.258 2.258 1.011 2.258 2.258 2.258zM937.758 345.258c1.247 0 2.258-1.011 2.258-2.258s-1.011-2.258-2.258-2.258-2.258 1.011-2.258 2.258 1.011 2.258 2.258 2.258z" fill="#64C7D6"/><path opacity=".6" d="M829.758 381.258c1.247 0 2.258-1.011 2.258-2.258s-1.011-2.258-2.258-2.258-2.258 1.011-2.258 2.258 1.011 2.258 2.258 2.258zM793.758 489.258c1.247 0 2.258-1.011 2.258-2.258s-1.011-2.258-2.258-2.258-2.258 1.011-2.258 2.258 1.011 2.258 2.258 2.258zM811.758 525.044c1.129 0 2.044-.915 2.044-2.044s-.915-2.044-2.044-2.044-2.044.915-2.044 2.044.915 2.044 2.044 2.044zM847.758 469.661c.365 0 .661-.296.661-.661 0-.365-.296-.661-.661-.661-.365 0-.661.296-.661.661 0 .365.296.661.661.661zM1045.76 273.258c1.25 0 2.26-1.011 2.26-2.258s-1.01-2.258-2.26-2.258c-1.25 0-2.26 1.011-2.26 2.258s1.01 2.258 2.26 2.258zM1081.76 219.258c1.25 0 2.26-1.011 2.26-2.258s-1.01-2.258-2.26-2.258c-1.25 0-2.26 1.011-2.26 2.258s1.01 2.258 2.26 2.258zM1171.76 255.258c1.25 0 2.26-1.011 2.26-2.258s-1.01-2.258-2.26-2.258c-1.25 0-2.26 1.011-2.26 2.258s1.01 2.258 2.26 2.258zM1117.76 273.258c1.25 0 2.26-1.011 2.26-2.258s-1.01-2.258-2.26-2.258c-1.25 0-2.26 1.011-2.26 2.258s1.01 2.258 2.26 2.258z" fill="#64C7D6"/><path opacity=".2" d="M1045.76 221.488c2.48 0 4.49-2.01 4.49-4.489s-2.01-4.489-4.49-4.489c-2.48 0-4.49 2.01-4.49 4.489s2.01 4.489 4.49 4.489z" fill="#64C7D6"/><path opacity=".6" d="M811.758 308.975c1.091 0 1.975-.884 1.975-1.975 0-1.09-.884-1.975-1.975-1.975-1.091 0-1.975.885-1.975 1.975 0 1.091.884 1.975 1.975 1.975z" fill="#64C7D6"/><path opacity=".9" d="M883.758 273.258c1.247 0 2.258-1.011 2.258-2.258s-1.011-2.258-2.258-2.258-2.258 1.011-2.258 2.258 1.011 2.258 2.258 2.258z" fill="#64C7D6"/><path opacity=".6" d="M667.758 253.758c.419 0 .758-.339.758-.758 0-.418-.339-.758-.758-.758s-.758.34-.758.758c0 .419.339.758.758.758zM649.758 218.248c.689 0 1.248-.559 1.248-1.248s-.559-1.248-1.248-1.248-1.248.559-1.248 1.248.559 1.248 1.248 1.248zM649.758 146.131c.625 0 1.131-.506 1.131-1.131 0-.624-.506-1.131-1.131-1.131s-1.131.507-1.131 1.131c0 .625.506 1.131 1.131 1.131z" fill="#64C7D6"/><path opacity=".9" d="M469.758 344.183c.654 0 1.183-.529 1.183-1.183 0-.653-.529-1.183-1.183-1.183-.653 0-1.183.53-1.183 1.183 0 .654.53 1.183 1.183 1.183z" fill="#64C7D6"/><path opacity=".8" d="M397.758 200.438c.794 0 1.438-.643 1.438-1.438 0-.794-.644-1.438-1.438-1.438-.794 0-1.438.644-1.438 1.438 0 .795.644 1.438 1.438 1.438zM433.758 236.438c.794 0 1.438-.643 1.438-1.438 0-.794-.644-1.438-1.438-1.438-.794 0-1.438.644-1.438 1.438 0 .795.644 1.438 1.438 1.438zM595.758 272.438c.794 0 1.438-.643 1.438-1.438 0-.794-.644-1.438-1.438-1.438-.794 0-1.438.644-1.438 1.438 0 .795.644 1.438 1.438 1.438z" fill="#64C7D6"/><path opacity=".6" d="M343.758 184.091c1.707 0 3.091-1.384 3.091-3.091 0-1.707-1.384-3.091-3.091-3.091-1.707 0-3.091 1.384-3.091 3.091 0 1.707 1.384 3.091 3.091 3.091zM289.758 290.383c.764 0 1.383-.619 1.383-1.383s-.619-1.383-1.383-1.383-1.383.619-1.383 1.383.619 1.383 1.383 1.383zM343.758 326.133c.626 0 1.133-.507 1.133-1.133s-.507-1.133-1.133-1.133-1.133.507-1.133 1.133.507 1.133 1.133 1.133z" fill="#64C7D6"/><path opacity=".2" d="M127.758 471.363c1.305 0 2.363-1.058 2.363-2.363s-1.058-2.363-2.363-2.363c-1.306 0-2.363 1.058-2.363 2.363s1.057 2.363 2.363 2.363zM73.758 344.517c.879 0 1.591-.712 1.591-1.591s-.712-1.591-1.591-1.591-1.591.712-1.591 1.591.712 1.591 1.591 1.591z" fill="#64C7D6"/><path opacity=".8" d="M253.758 434.354c.749 0 1.355-.606 1.355-1.354 0-.749-.606-1.355-1.355-1.355-.748 0-1.355.606-1.355 1.355 0 .748.607 1.354 1.355 1.354z" fill="#64C7D6"/><path opacity=".5" d="M37.758 380.924c1.063 0 1.924-.861 1.924-1.924 0-1.062-.861-1.924-1.924-1.924s-1.924.862-1.924 1.924c0 1.063.861 1.924 1.924 1.924z" fill="#64C7D6"/><path d="M955.758 553.497c6.902 0 12.497-5.595 12.497-12.497s-5.595-12.497-12.497-12.497-12.497 5.595-12.497 12.497 5.595 12.497 12.497 12.497z" stroke="#963A8D" stroke-miterlimit="10"/><path opacity=".4" d="M739.758 830.447c.799 0 1.447-.648 1.447-1.447s-.648-1.447-1.447-1.447-1.447.648-1.447 1.447.648 1.447 1.447 1.447zM793.758 813.465c1.361 0 2.465-1.103 2.465-2.465 0-1.361-1.104-2.465-2.465-2.465-1.361 0-2.465 1.104-2.465 2.465 0 1.362 1.104 2.465 2.465 2.465zM847.758 741.465c1.361 0 2.465-1.103 2.465-2.465 0-1.361-1.104-2.465-2.465-2.465-1.361 0-2.465 1.104-2.465 2.465 0 1.362 1.104 2.465 2.465 2.465zM883.758 704.714c1.361 0 2.465-1.103 2.465-2.465 0-1.361-1.104-2.465-2.465-2.465-1.361 0-2.465 1.104-2.465 2.465 0 1.362 1.104 2.465 2.465 2.465zM829.758 669.465c1.361 0 2.465-1.103 2.465-2.465 0-1.361-1.104-2.465-2.465-2.465-1.361 0-2.465 1.104-2.465 2.465 0 1.362 1.104 2.465 2.465 2.465z" fill="#64C7D6"/><path opacity=".8" d="M721.758 758.59c.878 0 1.59-.712 1.59-1.59 0-.878-.712-1.59-1.59-1.59-.878 0-1.59.712-1.59 1.59 0 .878.712 1.59 1.59 1.59zM811.758 758.03c.569 0 1.03-.461 1.03-1.03s-.461-1.03-1.03-1.03-1.03.461-1.03 1.03.461 1.03 1.03 1.03zM847.758 632.03c.569 0 1.03-.461 1.03-1.03s-.461-1.03-1.03-1.03-1.03.461-1.03 1.03.461 1.03 1.03 1.03zM973.758 650.03c.569 0 1.03-.461 1.03-1.03s-.461-1.03-1.03-1.03-1.03.461-1.03 1.03.461 1.03 1.03 1.03z" fill="#64C7D6"/><path opacity=".6" d="M1171.76 327.044c1.13 0 2.04-.915 2.04-2.044s-.91-2.044-2.04-2.044-2.05.915-2.05 2.044.92 2.044 2.05 2.044zM1189.76 362.359c.75 0 1.36-.609 1.36-1.359 0-.751-.61-1.359-1.36-1.359-.75 0-1.36.608-1.36 1.359 0 .75.61 1.359 1.36 1.359zM1243.76 344.412c.78 0 1.41-.632 1.41-1.412 0-.78-.63-1.412-1.41-1.412-.78 0-1.41.632-1.41 1.412 0 .78.63 1.412 1.41 1.412zM1243.76 344.412c.78 0 1.41-.632 1.41-1.412 0-.78-.63-1.412-1.41-1.412-.78 0-1.41.632-1.41 1.412 0 .78.63 1.412 1.41 1.412z" fill="#64C7D6"/><defs><linearGradient id="a" x1="631.177" y1="469" x2="668.503" y2="469" gradientUnits="userSpaceOnUse"><stop stop-color="#E7367C"/><stop offset="1" stop-color="#473A68"/></linearGradient><linearGradient id="b" x1="622.34" y1="469" x2="677.339" y2="469" gradientUnits="userSpaceOnUse"><stop stop-color="#E7367C"/><stop offset="1" stop-color="#473A68"/></linearGradient><linearGradient id="c" x1="235.46" y1="622" x2="650.055" y2="622" gradientUnits="userSpaceOnUse"><stop stop-color="#E7367C"/><stop offset="1" stop-color="#473A68"/></linearGradient><linearGradient id="d" x1="708.761" y1="954.999" x2="734.755" y2="954.999" gradientUnits="userSpaceOnUse"><stop stop-color="#E7367C"/><stop offset="1" stop-color="#473A68"/></linearGradient><linearGradient id="e" x1="235.27" y1="855.999" x2="272.246" y2="855.999" gradientUnits="userSpaceOnUse"><stop stop-color="#E7367C"/><stop offset="1" stop-color="#473A68"/></linearGradient><linearGradient id="f" x1="217.259" y1="901" x2="236.256" y2="901" gradientUnits="userSpaceOnUse"><stop stop-color="#E7367C"/><stop offset="1" stop-color="#473A68"/></linearGradient><linearGradient id="g" x1="145.321" y1="855.999" x2="236.195" y2="855.999" gradientUnits="userSpaceOnUse"><stop stop-color="#E7367C"/><stop offset="1" stop-color="#473A68"/></linearGradient><linearGradient id="h" x1="1.578" y1="819.999" x2="235.938" y2="819.999" gradientUnits="userSpaceOnUse"><stop stop-color="#E7367C"/><stop offset="1" stop-color="#473A68"/></linearGradient><linearGradient id="i" x1="37.668" y1="793" x2="235.847" y2="793" gradientUnits="userSpaceOnUse"><stop stop-color="#E7367C"/><stop offset="1" stop-color="#473A68"/></linearGradient><linearGradient id="j" x1="-nan" y1="-nan" x2="-nan" y2="-nan" gradientUnits="userSpaceOnUse"><stop stop-color="#E7367C"/><stop offset="1" stop-color="#473A68"/></linearGradient><linearGradient id="k" x1="19.565" y1="730" x2="235.95" y2="730" gradientUnits="userSpaceOnUse"><stop stop-color="#E7367C"/><stop offset="1" stop-color="#473A68"/></linearGradient><linearGradient id="l" x1="73.515" y1="730" x2="236.001" y2="730" gradientUnits="userSpaceOnUse"><stop stop-color="#E7367C"/><stop offset="1" stop-color="#473A68"/></linearGradient><linearGradient id="m" x1="145.404" y1="730" x2="236.111" y2="730" gradientUnits="userSpaceOnUse"><stop stop-color="#E7367C"/><stop offset="1" stop-color="#473A68"/></linearGradient><linearGradient id="n" x1="145.334" y1="703" x2="236.182" y2="703" gradientUnits="userSpaceOnUse"><stop stop-color="#E7367C"/><stop offset="1" stop-color="#473A68"/></linearGradient><linearGradient id="o" x1="217.268" y1="730" x2="236.248" y2="730" gradientUnits="userSpaceOnUse"><stop stop-color="#E7367C"/><stop offset="1" stop-color="#473A68"/></linearGradient><linearGradient id="p" x1="235.263" y1="712" x2="254.253" y2="712" gradientUnits="userSpaceOnUse"><stop stop-color="#E7367C"/><stop offset="1" stop-color="#473A68"/></linearGradient><linearGradient id="q" x1="235.311" y1="721" x2="290.205" y2="721" gradientUnits="userSpaceOnUse"><stop stop-color="#E7367C"/><stop offset="1" stop-color="#473A68"/></linearGradient><linearGradient id="r" x1="235.351" y1="712" x2="326.165" y2="712" gradientUnits="userSpaceOnUse"><stop stop-color="#E7367C"/><stop offset="1" stop-color="#473A68"/></linearGradient><linearGradient id="s" x1="235.561" y1="748" x2="361.955" y2="748" gradientUnits="userSpaceOnUse"><stop stop-color="#E7367C"/><stop offset="1" stop-color="#473A68"/></linearGradient><linearGradient id="t" x1="235.696" y1="784" x2="379.82" y2="784" gradientUnits="userSpaceOnUse"><stop stop-color="#E7367C"/><stop offset="1" stop-color="#473A68"/></linearGradient><linearGradient id="u" x1="235.534" y1="801.999" x2="343.981" y2="801.999" gradientUnits="userSpaceOnUse"><stop stop-color="#E7367C"/><stop offset="1" stop-color="#473A68"/></linearGradient><linearGradient id="v" x1="235.334" y1="846.999" x2="326.182" y2="846.999" gradientUnits="userSpaceOnUse"><stop stop-color="#E7367C"/><stop offset="1" stop-color="#473A68"/></linearGradient><linearGradient id="w" x1="235.404" y1="819.999" x2="326.111" y2="819.999" gradientUnits="userSpaceOnUse"><stop stop-color="#E7367C"/><stop offset="1" stop-color="#473A68"/></linearGradient><linearGradient id="x" x1="649.263" y1="712" x2="722.252" y2="712" gradientUnits="userSpaceOnUse"><stop stop-color="#E7367C"/><stop offset="1" stop-color="#473A68"/></linearGradient><linearGradient id="y" x1="613.481" y1="991" x2="722.035" y2="991" gradientUnits="userSpaceOnUse"><stop stop-color="#E7367C"/><stop offset="1" stop-color="#473A68"/></linearGradient><linearGradient id="z" x1="649.404" y1="991" x2="722.111" y2="991" gradientUnits="userSpaceOnUse"><stop stop-color="#E7367C"/><stop offset="1" stop-color="#473A68"/></linearGradient><linearGradient id="A" x1="685.27" y1="1036" x2="722.246" y2="1036" gradientUnits="userSpaceOnUse"><stop stop-color="#E7367C"/><stop offset="1" stop-color="#473A68"/></linearGradient><linearGradient id="B" x1="-nan" y1="-nan" x2="-nan" y2="-nan" gradientUnits="userSpaceOnUse"><stop stop-color="#E7367C"/><stop offset="1" stop-color="#473A68"/></linearGradient><linearGradient id="C" x1="721.283" y1="1063" x2="794.232" y2="1063" gradientUnits="userSpaceOnUse"><stop stop-color="#E7367C"/><stop offset="1" stop-color="#473A68"/></linearGradient><linearGradient id="D" x1="721.301" y1="1036" x2="794.215" y2="1036" gradientUnits="userSpaceOnUse"><stop stop-color="#E7367C"/><stop offset="1" stop-color="#473A68"/></linearGradient><linearGradient id="E" x1="721.404" y1="999.999" x2="812.111" y2="999.999" gradientUnits="userSpaceOnUse"><stop stop-color="#E7367C"/><stop offset="1" stop-color="#473A68"/></linearGradient><linearGradient id="F" x1="721.62" y1="972.999" x2="847.896" y2="972.999" gradientUnits="userSpaceOnUse"><stop stop-color="#E7367C"/><stop offset="1" stop-color="#473A68"/></linearGradient><linearGradient id="G" x1="721.501" y1="928" x2="812.015" y2="928" gradientUnits="userSpaceOnUse"><stop stop-color="#E7367C"/><stop offset="1" stop-color="#473A68"/></linearGradient><linearGradient id="H" x1="721.329" y1="910" x2="776.187" y2="910" gradientUnits="userSpaceOnUse"><stop stop-color="#E7367C"/><stop offset="1" stop-color="#473A68"/></linearGradient><linearGradient id="I" x1="667.329" y1="910" x2="722.187" y2="910" gradientUnits="userSpaceOnUse"><stop stop-color="#E7367C"/><stop offset="1" stop-color="#473A68"/></linearGradient><linearGradient id="J" x1="613.6" y1="937" x2="721.916" y2="937" gradientUnits="userSpaceOnUse"><stop stop-color="#E7367C"/><stop offset="1" stop-color="#473A68"/></linearGradient><linearGradient id="K" x1="-nan" y1="-nan" x2="-nan" y2="-nan" gradientUnits="userSpaceOnUse"><stop stop-color="#E7367C"/><stop offset="1" stop-color="#473A68"/></linearGradient><linearGradient id="L" x1="595.561" y1="982" x2="721.955" y2="982" gradientUnits="userSpaceOnUse"><stop stop-color="#E7367C"/><stop offset="1" stop-color="#473A68"/></linearGradient><linearGradient id="M" x1="649.6" y1="370" x2="1243.92" y2="370" gradientUnits="userSpaceOnUse"><stop stop-color="#E7367C"/><stop offset="1" stop-color="#473A68"/></linearGradient><linearGradient id="N" x1="1171.4" y1="235" x2="1244.11" y2="235" gradientUnits="userSpaceOnUse"><stop stop-color="#E7367C"/><stop offset="1" stop-color="#473A68"/></linearGradient><linearGradient id="O" x1="1189.31" y1="217" x2="1244.21" y2="217" gradientUnits="userSpaceOnUse"><stop stop-color="#E7367C"/><stop offset="1" stop-color="#473A68"/></linearGradient><linearGradient id="P" x1="1243.26" y1="181" x2="1262.25" y2="181" gradientUnits="userSpaceOnUse"><stop stop-color="#E7367C"/><stop offset="1" stop-color="#473A68"/></linearGradient><linearGradient id="Q" x1="1243.33" y1="226" x2="1298.19" y2="226" gradientUnits="userSpaceOnUse"><stop stop-color="#E7367C"/><stop offset="1" stop-color="#473A68"/></linearGradient><linearGradient id="R" x1="1243.44" y1="226" x2="1352.08" y2="226" gradientUnits="userSpaceOnUse"><stop stop-color="#E7367C"/><stop offset="1" stop-color="#473A68"/></linearGradient><linearGradient id="S" x1="1243.53" y1="253" x2="1315.98" y2="253" gradientUnits="userSpaceOnUse"><stop stop-color="#E7367C"/><stop offset="1" stop-color="#473A68"/></linearGradient><linearGradient id="T" x1="1243.53" y1="289" x2="1315.98" y2="289" gradientUnits="userSpaceOnUse"><stop stop-color="#E7367C"/><stop offset="1" stop-color="#473A68"/></linearGradient><linearGradient id="U" x1="1243.34" y1="325" x2="1316.17" y2="325" gradientUnits="userSpaceOnUse"><stop stop-color="#E7367C"/><stop offset="1" stop-color="#473A68"/></linearGradient><linearGradient id="V" x1="-nan" y1="-nan" x2="-nan" y2="-nan" gradientUnits="userSpaceOnUse"><stop stop-color="#E7367C"/><stop offset="1" stop-color="#473A68"/></linearGradient><linearGradient id="W" x1="1189.33" y1="316" x2="1244.19" y2="316" gradientUnits="userSpaceOnUse"><stop stop-color="#E7367C"/><stop offset="1" stop-color="#473A68"/></linearGradient><linearGradient id="X" x1="1171.46" y1="298" x2="1244.06" y2="298" gradientUnits="userSpaceOnUse"><stop stop-color="#E7367C"/><stop offset="1" stop-color="#473A68"/></linearGradient><linearGradient id="Y" x1="1171.64" y1="262" x2="1243.88" y2="262" gradientUnits="userSpaceOnUse"><stop stop-color="#E7367C"/><stop offset="1" stop-color="#473A68"/></linearGradient><linearGradient id="Z" x1="649.487" y1="550" x2="902.028" y2="550" gradientUnits="userSpaceOnUse"><stop stop-color="#E7367C"/><stop offset="1" stop-color="#473A68"/></linearGradient><linearGradient id="aa" x1="865.342" y1="604" x2="902.174" y2="604" gradientUnits="userSpaceOnUse"><stop stop-color="#E7367C"/><stop offset="1" stop-color="#473A68"/></linearGradient><linearGradient id="ab" x1="901.329" y1="586" x2="956.187" y2="586" gradientUnits="userSpaceOnUse"><stop stop-color="#E7367C"/><stop offset="1" stop-color="#473A68"/></linearGradient><linearGradient id="ac" x1="829.534" y1="649" x2="901.981" y2="649" gradientUnits="userSpaceOnUse"><stop stop-color="#E7367C"/><stop offset="1" stop-color="#473A68"/></linearGradient><linearGradient id="ad" x1="901.265" y1="685" x2="920.251" y2="685" gradientUnits="userSpaceOnUse"><stop stop-color="#E7367C"/><stop offset="1" stop-color="#473A68"/></linearGradient><linearGradient id="ae" x1="883.272" y1="667" x2="902.243" y2="667" gradientUnits="userSpaceOnUse"><stop stop-color="#E7367C"/><stop offset="1" stop-color="#473A68"/></linearGradient><linearGradient id="af" x1="901.342" y1="658" x2="938.174" y2="658" gradientUnits="userSpaceOnUse"><stop stop-color="#E7367C"/><stop offset="1" stop-color="#473A68"/></linearGradient><linearGradient id="ag" x1="901.637" y1="640" x2="973.879" y2="640" gradientUnits="userSpaceOnUse"><stop stop-color="#E7367C"/><stop offset="1" stop-color="#473A68"/></linearGradient><linearGradient id="ah" x1="901.6" y1="622" x2="955.916" y2="622" gradientUnits="userSpaceOnUse"><stop stop-color="#E7367C"/><stop offset="1" stop-color="#473A68"/></linearGradient><linearGradient id="ai" x1="-nan" y1="-nan" x2="-nan" y2="-nan" gradientUnits="userSpaceOnUse"><stop stop-color="#E7367C"/><stop offset="1" stop-color="#473A68"/></linearGradient><linearGradient id="aj" x1="217.6" y1="397.001" x2="649.917" y2="397.001" gradientUnits="userSpaceOnUse"><stop stop-color="#E7367C"/><stop offset="1" stop-color="#473A68"/></linearGradient><linearGradient id="ak" x1="145.404" y1="289.001" x2="218.112" y2="289.001" gradientUnits="userSpaceOnUse"><stop stop-color="#E7367C"/><stop offset="1" stop-color="#473A68"/></linearGradient><linearGradient id="al" x1="181.311" y1="289.001" x2="218.206" y2="289.001" gradientUnits="userSpaceOnUse"><stop stop-color="#E7367C"/><stop offset="1" stop-color="#473A68"/></linearGradient><linearGradient id="am" x1="217.265" y1="271.001" x2="236.251" y2="271.001" gradientUnits="userSpaceOnUse"><stop stop-color="#E7367C"/><stop offset="1" stop-color="#473A68"/></linearGradient><linearGradient id="an" x1="37.614" y1="352" x2="217.902" y2="352" gradientUnits="userSpaceOnUse"><stop stop-color="#E7367C"/><stop offset="1" stop-color="#473A68"/></linearGradient><linearGradient id="ao" x1="73.696" y1="334" x2="217.82" y2="334" gradientUnits="userSpaceOnUse"><stop stop-color="#E7367C"/><stop offset="1" stop-color="#473A68"/></linearGradient><linearGradient id="ap" x1="109.676" y1="316" x2="217.84" y2="316" gradientUnits="userSpaceOnUse"><stop stop-color="#E7367C"/><stop offset="1" stop-color="#473A68"/></linearGradient><linearGradient id="aq" x1="127.501" y1="352" x2="218.015" y2="352" gradientUnits="userSpaceOnUse"><stop stop-color="#E7367C"/><stop offset="1" stop-color="#473A68"/></linearGradient><linearGradient id="ar" x1="127.334" y1="397" x2="218.182" y2="397" gradientUnits="userSpaceOnUse"><stop stop-color="#E7367C"/><stop offset="1" stop-color="#473A68"/></linearGradient><linearGradient id="as" x1="199.263" y1="388" x2="218.253" y2="388" gradientUnits="userSpaceOnUse"><stop stop-color="#E7367C"/><stop offset="1" stop-color="#473A68"/></linearGradient><linearGradient id="at" x1="217.284" y1="379" x2="254.232" y2="379" gradientUnits="userSpaceOnUse"><stop stop-color="#E7367C"/><stop offset="1" stop-color="#473A68"/></linearGradient><linearGradient id="au" x1="217.342" y1="352" x2="254.174" y2="352" gradientUnits="userSpaceOnUse"><stop stop-color="#E7367C"/><stop offset="1" stop-color="#473A68"/></linearGradient><linearGradient id="av" x1="217.342" y1="298.001" x2="254.174" y2="298.001" gradientUnits="userSpaceOnUse"><stop stop-color="#E7367C"/><stop offset="1" stop-color="#473A68"/></linearGradient><linearGradient id="aw" x1="217.534" y1="307" x2="289.981" y2="307" gradientUnits="userSpaceOnUse"><stop stop-color="#E7367C"/><stop offset="1" stop-color="#473A68"/></linearGradient><linearGradient id="ax" x1="217.758" y1="325.001" x2="343.758" y2="325.001" gradientUnits="userSpaceOnUse"><stop stop-color="#E7367C"/><stop offset="1" stop-color="#473A68"/></linearGradient><linearGradient id="ay" x1="505.324" y1="595" x2="650.192" y2="595" gradientUnits="userSpaceOnUse"><stop stop-color="#E7367C"/><stop offset="1" stop-color="#473A68"/></linearGradient><linearGradient id="az" x1="325.423" y1="640" x2="506.092" y2="640" gradientUnits="userSpaceOnUse"><stop stop-color="#E7367C"/><stop offset="1" stop-color="#473A68"/></linearGradient><linearGradient id="aA" x1="415.66" y1="730" x2="505.856" y2="730" gradientUnits="userSpaceOnUse"><stop stop-color="#E7367C"/><stop offset="1" stop-color="#473A68"/></linearGradient><linearGradient id="aB" x1="505.265" y1="775" x2="524.251" y2="775" gradientUnits="userSpaceOnUse"><stop stop-color="#E7367C"/><stop offset="1" stop-color="#473A68"/></linearGradient><linearGradient id="aC" x1="-nan" y1="-nan" x2="-nan" y2="-nan" gradientUnits="userSpaceOnUse"><stop stop-color="#E7367C"/><stop offset="1" stop-color="#473A68"/></linearGradient><linearGradient id="aD" x1="505.445" y1="739" x2="551.07" y2="739" gradientUnits="userSpaceOnUse"><stop stop-color="#E7367C"/><stop offset="1" stop-color="#473A68"/></linearGradient><linearGradient id="aE" x1="505.384" y1="388" x2="650.131" y2="388" gradientUnits="userSpaceOnUse"><stop stop-color="#E7367C"/><stop offset="1" stop-color="#473A68"/></linearGradient><linearGradient id="aF" x1="469.404" y1="325" x2="506.111" y2="325" gradientUnits="userSpaceOnUse"><stop stop-color="#E7367C"/><stop offset="1" stop-color="#473A68"/></linearGradient><linearGradient id="aG" x1="379.687" y1="298" x2="505.829" y2="298" gradientUnits="userSpaceOnUse"><stop stop-color="#E7367C"/><stop offset="1" stop-color="#473A68"/></linearGradient><linearGradient id="aH" x1="397.481" y1="271" x2="506.035" y2="271" gradientUnits="userSpaceOnUse"><stop stop-color="#E7367C"/><stop offset="1" stop-color="#473A68"/></linearGradient><linearGradient id="aI" x1="505.284" y1="280" x2="524.232" y2="280" gradientUnits="userSpaceOnUse"><stop stop-color="#E7367C"/><stop offset="1" stop-color="#473A68"/></linearGradient><linearGradient id="aJ" x1="505.572" y1="289" x2="595.943" y2="289" gradientUnits="userSpaceOnUse"><stop stop-color="#E7367C"/><stop offset="1" stop-color="#473A68"/></linearGradient><linearGradient id="aK" x1="469.404" y1="856" x2="524.111" y2="856" gradientUnits="userSpaceOnUse"><stop stop-color="#E7367C"/><stop offset="1" stop-color="#473A68"/></linearGradient><linearGradient id="aL" x1="487.534" y1="819.999" x2="523.981" y2="819.999" gradientUnits="userSpaceOnUse"><stop stop-color="#E7367C"/><stop offset="1" stop-color="#473A68"/></linearGradient><linearGradient id="aM" x1="523.404" y1="819.999" x2="542.111" y2="819.999" gradientUnits="userSpaceOnUse"><stop stop-color="#E7367C"/><stop offset="1" stop-color="#473A68"/></linearGradient><linearGradient id="aN" x1="523.284" y1="855.999" x2="542.232" y2="855.999" gradientUnits="userSpaceOnUse"><stop stop-color="#E7367C"/><stop offset="1" stop-color="#473A68"/></linearGradient><linearGradient id="aO" x1="361.384" y1="802" x2="506.131" y2="802" gradientUnits="userSpaceOnUse"><stop stop-color="#E7367C"/><stop offset="1" stop-color="#473A68"/></linearGradient><linearGradient id="aP" x1="343.6" y1="244" x2="397.916" y2="244" gradientUnits="userSpaceOnUse"><stop stop-color="#E7367C"/><stop offset="1" stop-color="#473A68"/></linearGradient><linearGradient id="aQ" x1="343.404" y1="208" x2="398.111" y2="208" gradientUnits="userSpaceOnUse"><stop stop-color="#E7367C"/><stop offset="1" stop-color="#473A68"/></linearGradient><linearGradient id="aR" x1="-nan" y1="-nan" x2="-nan" y2="-nan" gradientUnits="userSpaceOnUse"><stop stop-color="#E7367C"/><stop offset="1" stop-color="#473A68"/></linearGradient><linearGradient id="aS" x1="-nan" y1="-nan" x2="-nan" y2="-nan" gradientUnits="userSpaceOnUse"><stop stop-color="#E7367C"/><stop offset="1" stop-color="#473A68"/></linearGradient><linearGradient id="aT" x1="937.404" y1="532" x2="956.111" y2="532" gradientUnits="userSpaceOnUse"><stop stop-color="#E7367C"/><stop offset="1" stop-color="#473A68"/></linearGradient><linearGradient id="aU" x1="955.272" y1="505" x2="974.243" y2="505" gradientUnits="userSpaceOnUse"><stop stop-color="#E7367C"/><stop offset="1" stop-color="#473A68"/></linearGradient><linearGradient id="aV" x1="955.311" y1="559" x2="974.205" y2="559" gradientUnits="userSpaceOnUse"><stop stop-color="#E7367C"/><stop offset="1" stop-color="#473A68"/></linearGradient><linearGradient id="aW" x1="955.637" y1="550" x2="1027.88" y2="550" gradientUnits="userSpaceOnUse"><stop stop-color="#E7367C"/><stop offset="1" stop-color="#473A68"/></linearGradient><linearGradient id="aX" x1="649.291" y1="352" x2="740.225" y2="352" gradientUnits="userSpaceOnUse"><stop stop-color="#E7367C"/><stop offset="1" stop-color="#473A68"/></linearGradient><linearGradient id="aY" x1="739.283" y1="262" x2="758.232" y2="262" gradientUnits="userSpaceOnUse"><stop stop-color="#E7367C"/><stop offset="1" stop-color="#473A68"/></linearGradient><linearGradient id="aZ" x1="649.404" y1="190" x2="740.111" y2="190" gradientUnits="userSpaceOnUse"><stop stop-color="#E7367C"/><stop offset="1" stop-color="#473A68"/></linearGradient><linearGradient id="ba" x1="649.501" y1="262" x2="740.015" y2="262" gradientUnits="userSpaceOnUse"><stop stop-color="#E7367C"/><stop offset="1" stop-color="#473A68"/></linearGradient><linearGradient id="bb" x1="667.637" y1="244" x2="739.879" y2="244" gradientUnits="userSpaceOnUse"><stop stop-color="#E7367C"/><stop offset="1" stop-color="#473A68"/></linearGradient><linearGradient id="bc" x1="649.66" y1="226" x2="739.856" y2="226" gradientUnits="userSpaceOnUse"><stop stop-color="#E7367C"/><stop offset="1" stop-color="#473A68"/></linearGradient><linearGradient id="bd" x1="739.445" y1="163" x2="920.07" y2="163" gradientUnits="userSpaceOnUse"><stop stop-color="#E7367C"/><stop offset="1" stop-color="#473A68"/></linearGradient><linearGradient id="be" x1="865.6" y1="82" x2="919.916" y2="82" gradientUnits="userSpaceOnUse"><stop stop-color="#E7367C"/><stop offset="1" stop-color="#473A68"/></linearGradient><linearGradient id="bf" x1="919.272" y1="127" x2="938.243" y2="127" gradientUnits="userSpaceOnUse"><stop stop-color="#E7367C"/><stop offset="1" stop-color="#473A68"/></linearGradient><linearGradient id="bg" x1="919.404" y1="109" x2="956.111" y2="109" gradientUnits="userSpaceOnUse"><stop stop-color="#E7367C"/><stop offset="1" stop-color="#473A68"/></linearGradient><linearGradient id="bh" x1="901.404" y1="82" x2="920.111" y2="82" gradientUnits="userSpaceOnUse"><stop stop-color="#E7367C"/><stop offset="1" stop-color="#473A68"/></linearGradient><linearGradient id="bi" x1="-nan" y1="-nan" x2="-nan" y2="-nan" gradientUnits="userSpaceOnUse"><stop stop-color="#E7367C"/><stop offset="1" stop-color="#473A68"/></linearGradient><linearGradient id="bj" x1="919.534" y1="64" x2="1027.98" y2="64" gradientUnits="userSpaceOnUse"><stop stop-color="#E7367C"/><stop offset="1" stop-color="#473A68"/></linearGradient><linearGradient id="bk" x1="919.404" y1="73" x2="956.111" y2="73" gradientUnits="userSpaceOnUse"><stop stop-color="#E7367C"/><stop offset="1" stop-color="#473A68"/></linearGradient><linearGradient id="bl" x1="901.283" y1="118" x2="920.232" y2="118" gradientUnits="userSpaceOnUse"><stop stop-color="#E7367C"/><stop offset="1" stop-color="#473A68"/></linearGradient><linearGradient id="bm" x1="1207.48" y1="73" x2="1262.04" y2="73" gradientUnits="userSpaceOnUse"><stop stop-color="#E7367C"/><stop offset="1" stop-color="#473A68"/></linearGradient><linearGradient id="bn" x1="1225.53" y1="100" x2="1261.98" y2="100" gradientUnits="userSpaceOnUse"><stop stop-color="#E7367C"/><stop offset="1" stop-color="#473A68"/></linearGradient><linearGradient id="bo" x1="1225.29" y1="46" x2="1262.22" y2="46" gradientUnits="userSpaceOnUse"><stop stop-color="#E7367C"/><stop offset="1" stop-color="#473A68"/></linearGradient><linearGradient id="bp" x1="1261.4" y1="64" x2="1316.11" y2="64" gradientUnits="userSpaceOnUse"><stop stop-color="#E7367C"/><stop offset="1" stop-color="#473A68"/></linearGradient><linearGradient id="bq" x1="1261.4" y1="109" x2="1298.11" y2="109" gradientUnits="userSpaceOnUse"><stop stop-color="#E7367C"/><stop offset="1" stop-color="#473A68"/></linearGradient><linearGradient id="br" x1="649.464" y1="397" x2="848.052" y2="397" gradientUnits="userSpaceOnUse"><stop stop-color="#E7367C"/><stop offset="1" stop-color="#473A68"/></linearGradient><linearGradient id="bs" x1="811.534" y1="316" x2="847.981" y2="316" gradientUnits="userSpaceOnUse"><stop stop-color="#E7367C"/><stop offset="1" stop-color="#473A68"/></linearGradient><linearGradient id="bt" x1="811.294" y1="280" x2="848.222" y2="280" gradientUnits="userSpaceOnUse"><stop stop-color="#E7367C"/><stop offset="1" stop-color="#473A68"/></linearGradient><linearGradient id="bu" x1="829.283" y1="352" x2="848.232" y2="352" gradientUnits="userSpaceOnUse"><stop stop-color="#E7367C"/><stop offset="1" stop-color="#473A68"/></linearGradient><linearGradient id="bv" x1="847.565" y1="280" x2="1063.95" y2="280" gradientUnits="userSpaceOnUse"><stop stop-color="#E7367C"/><stop offset="1" stop-color="#473A68"/></linearGradient><linearGradient id="bw" x1="1045.4" y1="226" x2="1064.11" y2="226" gradientUnits="userSpaceOnUse"><stop stop-color="#E7367C"/><stop offset="1" stop-color="#473A68"/></linearGradient><linearGradient id="bx" x1="1045.31" y1="253" x2="1064.21" y2="253" gradientUnits="userSpaceOnUse"><stop stop-color="#E7367C"/><stop offset="1" stop-color="#473A68"/></linearGradient><linearGradient id="by" x1="-nan" y1="-nan" x2="-nan" y2="-nan" gradientUnits="userSpaceOnUse"><stop stop-color="#E7367C"/><stop offset="1" stop-color="#473A68"/></linearGradient><linearGradient id="bz" x1="1063.4" y1="226" x2="1082.11" y2="226" gradientUnits="userSpaceOnUse"><stop stop-color="#E7367C"/><stop offset="1" stop-color="#473A68"/></linearGradient><linearGradient id="bA" x1="1063.48" y1="253" x2="1118.04" y2="253" gradientUnits="userSpaceOnUse"><stop stop-color="#E7367C"/><stop offset="1" stop-color="#473A68"/></linearGradient><linearGradient id="bB" x1="847.66" y1="334" x2="937.856" y2="334" gradientUnits="userSpaceOnUse"><stop stop-color="#E7367C"/><stop offset="1" stop-color="#473A68"/></linearGradient><linearGradient id="bC" x1="847.481" y1="343" x2="902.035" y2="343" gradientUnits="userSpaceOnUse"><stop stop-color="#E7367C"/><stop offset="1" stop-color="#473A68"/></linearGradient><linearGradient id="bD" x1="847.342" y1="298" x2="884.174" y2="298" gradientUnits="userSpaceOnUse"><stop stop-color="#E7367C"/><stop offset="1" stop-color="#473A68"/></linearGradient><linearGradient id="bE" x1="289.342" y1="586" x2="326.174" y2="586" gradientUnits="userSpaceOnUse"><stop stop-color="#E7367C"/><stop offset="1" stop-color="#473A68"/></linearGradient><linearGradient id="bF" x1="181.696" y1="568" x2="325.82" y2="568" gradientUnits="userSpaceOnUse"><stop stop-color="#E7367C"/><stop offset="1" stop-color="#473A68"/></linearGradient><linearGradient id="bG" x1="199.561" y1="532" x2="325.955" y2="532" gradientUnits="userSpaceOnUse"><stop stop-color="#E7367C"/><stop offset="1" stop-color="#473A68"/></linearGradient><linearGradient id="bH" x1="271.404" y1="532" x2="326.111" y2="532" gradientUnits="userSpaceOnUse"><stop stop-color="#E7367C"/><stop offset="1" stop-color="#473A68"/></linearGradient><linearGradient id="bI" x1="-nan" y1="-nan" x2="-nan" y2="-nan" gradientUnits="userSpaceOnUse"><stop stop-color="#E7367C"/><stop offset="1" stop-color="#473A68"/></linearGradient><linearGradient id="bJ" x1="325.311" y1="541" x2="344.205" y2="541" gradientUnits="userSpaceOnUse"><stop stop-color="#E7367C"/><stop offset="1" stop-color="#473A68"/></linearGradient><linearGradient id="bK" x1="487.649" y1="487" x2="649.866" y2="487" gradientUnits="userSpaceOnUse"><stop stop-color="#E7367C"/><stop offset="1" stop-color="#473A68"/></linearGradient><linearGradient id="bL" x1="451.534" y1="496" x2="487.981" y2="496" gradientUnits="userSpaceOnUse"><stop stop-color="#E7367C"/><stop offset="1" stop-color="#473A68"/></linearGradient><linearGradient id="bM" x1="433.358" y1="541" x2="488.158" y2="541" gradientUnits="userSpaceOnUse"><stop stop-color="#E7367C"/><stop offset="1" stop-color="#473A68"/></linearGradient><linearGradient id="bN" x1="505.384" y1="550" x2="650.131" y2="550" gradientUnits="userSpaceOnUse"><stop stop-color="#E7367C"/><stop offset="1" stop-color="#473A68"/></linearGradient><linearGradient id="bO" x1="-nan" y1="-nan" x2="-nan" y2="-nan" gradientUnits="userSpaceOnUse"><stop stop-color="#E7367C"/><stop offset="1" stop-color="#473A68"/></linearGradient><linearGradient id="bP" x1="469.404" y1="649" x2="506.111" y2="649" gradientUnits="userSpaceOnUse"><stop stop-color="#E7367C"/><stop offset="1" stop-color="#473A68"/></linearGradient><linearGradient id="bQ" x1="649.329" y1="514" x2="704.187" y2="514" gradientUnits="userSpaceOnUse"><stop stop-color="#E7367C"/><stop offset="1" stop-color="#473A68"/></linearGradient><linearGradient id="bR" x1="703.272" y1="523" x2="722.243" y2="523" gradientUnits="userSpaceOnUse"><stop stop-color="#E7367C"/><stop offset="1" stop-color="#473A68"/></linearGradient><linearGradient id="bS" x1="703.534" y1="532" x2="811.981" y2="532" gradientUnits="userSpaceOnUse"><stop stop-color="#E7367C"/><stop offset="1" stop-color="#473A68"/></linearGradient><linearGradient id="bT" x1="631.637" y1="568" x2="703.879" y2="568" gradientUnits="userSpaceOnUse"><stop stop-color="#E7367C"/><stop offset="1" stop-color="#473A68"/></linearGradient><linearGradient id="bU" x1="-nan" y1="-nan" x2="-nan" y2="-nan" gradientUnits="userSpaceOnUse"><stop stop-color="#E7367C"/><stop offset="1" stop-color="#473A68"/></linearGradient><linearGradient id="bV" x1="703.27" y1="640" x2="740.246" y2="640" gradientUnits="userSpaceOnUse"><stop stop-color="#E7367C"/><stop offset="1" stop-color="#473A68"/></linearGradient><linearGradient id="bW" x1="793.404" y1="496" x2="812.111" y2="496" gradientUnits="userSpaceOnUse"><stop stop-color="#E7367C"/><stop offset="1" stop-color="#473A68"/></linearGradient><linearGradient id="bX" x1="-nan" y1="-nan" x2="-nan" y2="-nan" gradientUnits="userSpaceOnUse"><stop stop-color="#E7367C"/><stop offset="1" stop-color="#473A68"/></linearGradient><linearGradient id="bY" x1="811.404" y1="487" x2="848.111" y2="487" gradientUnits="userSpaceOnUse"><stop stop-color="#E7367C"/><stop offset="1" stop-color="#473A68"/></linearGradient><linearGradient id="bZ" x1="721.311" y1="739" x2="740.205" y2="739" gradientUnits="userSpaceOnUse"><stop stop-color="#E7367C"/><stop offset="1" stop-color="#473A68"/></linearGradient><linearGradient id="ca" x1="739.329" y1="766" x2="794.187" y2="766" gradientUnits="userSpaceOnUse"><stop stop-color="#E7367C"/><stop offset="1" stop-color="#473A68"/></linearGradient><linearGradient id="cb" x1="739.534" y1="739" x2="811.981" y2="739" gradientUnits="userSpaceOnUse"><stop stop-color="#E7367C"/><stop offset="1" stop-color="#473A68"/></linearGradient><linearGradient id="cc" x1="631.637" y1="676" x2="703.879" y2="676" gradientUnits="userSpaceOnUse"><stop stop-color="#E7367C"/><stop offset="1" stop-color="#473A68"/></linearGradient><linearGradient id="cd" x1="-nan" y1="-nan" x2="-nan" y2="-nan" gradientUnits="userSpaceOnUse"><stop stop-color="#E7367C"/><stop offset="1" stop-color="#473A68"/></linearGradient><linearGradient id="ce" x1="703.6" y1="676" x2="757.916" y2="676" gradientUnits="userSpaceOnUse"><stop stop-color="#E7367C"/><stop offset="1" stop-color="#473A68"/></linearGradient><linearGradient id="cf" x1="-nan" y1="-nan" x2="-nan" y2="-nan" gradientUnits="userSpaceOnUse"><stop stop-color="#E7367C"/><stop offset="1" stop-color="#473A68"/></linearGradient><linearGradient id="cg" x1="451.534" y1="478" x2="487.981" y2="478" gradientUnits="userSpaceOnUse"><stop stop-color="#E7367C"/><stop offset="1" stop-color="#473A68"/></linearGradient><linearGradient id="ch" x1="433.404" y1="496" x2="452.111" y2="496" gradientUnits="userSpaceOnUse"><stop stop-color="#E7367C"/><stop offset="1" stop-color="#473A68"/></linearGradient><linearGradient id="ci" x1="397.481" y1="469" x2="452.035" y2="469" gradientUnits="userSpaceOnUse"><stop stop-color="#E7367C"/><stop offset="1" stop-color="#473A68"/></linearGradient><linearGradient id="cj" x1="415.342" y1="460" x2="452.174" y2="460" gradientUnits="userSpaceOnUse"><stop stop-color="#E7367C"/><stop offset="1" stop-color="#473A68"/></linearGradient><linearGradient id="ck" x1="433.284" y1="514" x2="452.232" y2="514" gradientUnits="userSpaceOnUse"><stop stop-color="#E7367C"/><stop offset="1" stop-color="#473A68"/></linearGradient><linearGradient id="cl" x1="739.676" y1="730" x2="847.84" y2="730" gradientUnits="userSpaceOnUse"><stop stop-color="#E7367C"/><stop offset="1" stop-color="#473A68"/></linearGradient><linearGradient id="cm" x1="-nan" y1="-nan" x2="-nan" y2="-nan" gradientUnits="userSpaceOnUse"><stop stop-color="#E7367C"/><stop offset="1" stop-color="#473A68"/></linearGradient><linearGradient id="cn" x1="703.404" y1="640" x2="758.111" y2="640" gradientUnits="userSpaceOnUse"><stop stop-color="#E7367C"/><stop offset="1" stop-color="#473A68"/></linearGradient><linearGradient id="co" x1="649.6" y1="658" x2="703.916" y2="658" gradientUnits="userSpaceOnUse"><stop stop-color="#E7367C"/><stop offset="1" stop-color="#473A68"/></linearGradient><linearGradient id="cp" x1="703.572" y1="577" x2="793.943" y2="577" gradientUnits="userSpaceOnUse"><stop stop-color="#E7367C"/><stop offset="1" stop-color="#473A68"/></linearGradient><linearGradient id="cq" x1="346.885" y1="535.576" x2="344.885" y2="567.576" gradientUnits="userSpaceOnUse"><stop stop-color="#E7367C"/><stop offset="1" stop-color="#473A68"/></linearGradient><linearGradient id="cr" x1="367.542" y1="539.296" x2="366.476" y2="547.955" gradientUnits="userSpaceOnUse"><stop stop-color="#E7367C"/><stop offset="1" stop-color="#473A68"/></linearGradient><linearGradient id="cs" x1="712.258" y1="196.375" x2="718.508" y2="196.375" gradientUnits="userSpaceOnUse"><stop stop-color="#E7367C"/><stop offset="1" stop-color="#473A68"/></linearGradient><linearGradient id="ct" x1="722.758" y1="196.375" x2="749.258" y2="196.375" gradientUnits="userSpaceOnUse"><stop stop-color="#E7367C"/><stop offset="1" stop-color="#473A68"/></linearGradient><linearGradient id="cu" x1="748.258" y1="709.375" x2="754.508" y2="709.375" gradientUnits="userSpaceOnUse"><stop stop-color="#E7367C"/><stop offset="1" stop-color="#473A68"/></linearGradient><linearGradient id="cv" x1="758.758" y1="709.375" x2="785.258" y2="709.375" gradientUnits="userSpaceOnUse"><stop stop-color="#E7367C"/><stop offset="1" stop-color="#473A68"/></linearGradient><linearGradient id="cw" x1="532.258" y1="705.625" x2="538.508" y2="705.625" gradientUnits="userSpaceOnUse"><stop stop-color="#E7367C"/><stop offset="1" stop-color="#473A68"/></linearGradient><linearGradient id="cx" x1="542.758" y1="705.625" x2="569.258" y2="705.625" gradientUnits="userSpaceOnUse"><stop stop-color="#E7367C"/><stop offset="1" stop-color="#473A68"/></linearGradient><linearGradient id="cy" x1="745.633" y1="930.625" x2="751.883" y2="930.625" gradientUnits="userSpaceOnUse"><stop stop-color="#E7367C"/><stop offset="1" stop-color="#473A68"/></linearGradient><linearGradient id="cz" x1="756.133" y1="930.624" x2="794.258" y2="930.624" gradientUnits="userSpaceOnUse"><stop stop-color="#E7367C"/><stop offset="1" stop-color="#473A68"/></linearGradient><linearGradient id="cA" x1="578.159" y1="469" x2="721.522" y2="469" gradientUnits="userSpaceOnUse"><stop stop-color="#E7367C"/><stop offset="1" stop-color="#473A68"/></linearGradient></defs></svg>