<svg width="1353" height="1173" viewBox="0 0 1353 1173" fill="none" xmlns="http://www.w3.org/2000/svg">
<path d="M684.678 438.824C675.911 428.712 663.213 422.912 649.841 422.912C636.778 422.912 624.276 428.49 615.542 438.214C607.94 446.679 603.753 457.611 603.753 468.999C603.753 480.854 608.244 492.117 616.399 500.713C625.191 509.982 637.068 515.087 649.841 515.087C658.441 515.087 666.83 512.703 674.102 508.192C687.769 499.713 695.929 485.062 695.929 469C695.929 457.91 691.933 447.193 684.678 438.824Z" fill="#3FB7B1"/>
<path d="M649.84 487.163C659.871 487.163 668.003 479.031 668.003 469C668.003 458.969 659.871 450.837 649.84 450.837C639.809 450.837 631.677 458.969 631.677 469C631.677 479.031 639.809 487.163 649.84 487.163Z" stroke="url(#paint0_linear)" stroke-miterlimit="10"/>
<path d="M649.84 496C664.752 496 676.84 483.912 676.84 469C676.84 454.088 664.752 442 649.84 442C634.928 442 622.84 454.088 622.84 469C622.84 483.912 634.928 496 649.84 496Z" stroke="url(#paint1_linear)" stroke-miterlimit="10"/>
<path d="M649.758 469L235.758 775" stroke="url(#paint2_linear)" stroke-miterlimit="10"/>
<path d="M721.758 967.497C728.66 967.497 734.255 961.902 734.255 955C734.255 948.098 728.66 942.503 721.758 942.503C714.856 942.503 709.261 948.098 709.261 955C709.261 961.902 714.856 967.497 721.758 967.497Z" stroke="url(#paint3_linear)" stroke-miterlimit="10"/>
<path d="M235.758 775L271.758 937" stroke="url(#paint4_linear)" stroke-miterlimit="10"/>
<path d="M235.758 775L217.758 1027" stroke="url(#paint5_linear)" stroke-miterlimit="10"/>
<path d="M235.758 775L145.758 937" stroke="url(#paint6_linear)" stroke-miterlimit="10"/>
<path d="M235.758 775L1.75781 865" stroke="url(#paint7_linear)" stroke-miterlimit="10"/>
<path d="M235.758 775L37.7578 811" stroke="url(#paint8_linear)" stroke-miterlimit="10"/>
<path d="M235.758 775H91.7578" stroke="url(#paint9_linear)" stroke-miterlimit="10"/>
<path d="M19.7578 685L235.758 775" stroke="url(#paint10_linear)" stroke-miterlimit="10"/>
<path d="M235.758 775L73.7578 685" stroke="url(#paint11_linear)" stroke-miterlimit="10"/>
<path d="M235.758 775L145.758 685" stroke="url(#paint12_linear)" stroke-miterlimit="10"/>
<path d="M235.758 775L145.758 631" stroke="url(#paint13_linear)" stroke-miterlimit="10"/>
<path d="M235.758 775L217.758 685" stroke="url(#paint14_linear)" stroke-miterlimit="10"/>
<path d="M235.758 775L253.758 649" stroke="url(#paint15_linear)" stroke-miterlimit="10"/>
<path d="M235.758 775L289.758 667" stroke="url(#paint16_linear)" stroke-miterlimit="10"/>
<path d="M235.758 775L325.758 649" stroke="url(#paint17_linear)" stroke-miterlimit="10"/>
<path d="M235.758 775L361.758 721" stroke="url(#paint18_linear)" stroke-miterlimit="10"/>
<path d="M235.758 775L379.758 793" stroke="url(#paint19_linear)" stroke-miterlimit="10"/>
<path d="M235.758 775L343.758 829" stroke="url(#paint20_linear)" stroke-miterlimit="10"/>
<path d="M235.758 775L325.758 919" stroke="url(#paint21_linear)" stroke-miterlimit="10"/>
<path d="M235.758 775L325.758 865" stroke="url(#paint22_linear)" stroke-miterlimit="10"/>
<path d="M649.758 469L721.758 955.001" stroke="url(#paint23_linear)" stroke-miterlimit="10"/>
<path d="M721.758 955.001L613.758 1027" stroke="url(#paint24_linear)" stroke-miterlimit="10"/>
<path d="M721.758 955.001L649.758 1027" stroke="url(#paint25_linear)" stroke-miterlimit="10"/>
<path d="M721.758 955.001L685.758 1117" stroke="url(#paint26_linear)" stroke-miterlimit="10"/>
<path d="M721.758 955.001V1081" stroke="url(#paint27_linear)" stroke-miterlimit="10"/>
<path d="M721.758 955.001L793.758 1171" stroke="url(#paint28_linear)" stroke-miterlimit="10"/>
<path d="M721.758 955L793.758 1117" stroke="url(#paint29_linear)" stroke-miterlimit="10"/>
<path d="M721.758 955L811.758 1045" stroke="url(#paint30_linear)" stroke-miterlimit="10"/>
<path d="M721.758 955L847.758 991" stroke="url(#paint31_linear)" stroke-miterlimit="10"/>
<path d="M721.758 955L811.758 901" stroke="url(#paint32_linear)" stroke-miterlimit="10"/>
<path d="M721.758 955L775.758 865" stroke="url(#paint33_linear)" stroke-miterlimit="10"/>
<path d="M721.758 955L667.758 865" stroke="url(#paint34_linear)" stroke-miterlimit="10"/>
<path d="M721.758 955L613.758 919" stroke="url(#paint35_linear)" stroke-miterlimit="10"/>
<path d="M721.758 955H631.758" stroke="url(#paint36_linear)" stroke-miterlimit="10"/>
<path d="M721.758 955.001L595.758 1009" stroke="url(#paint37_linear)" stroke-miterlimit="10"/>
<path d="M649.758 469L1243.76 271" stroke="url(#paint38_linear)" stroke-miterlimit="10"/>
<path d="M1243.76 271L1171.76 199" stroke="url(#paint39_linear)" stroke-miterlimit="10"/>
<path d="M1243.76 271L1189.76 163" stroke="url(#paint40_linear)" stroke-miterlimit="10"/>
<path d="M1243.76 271L1261.76 91" stroke="url(#paint41_linear)" stroke-miterlimit="10"/>
<path d="M1243.76 271L1297.76 181" stroke="url(#paint42_linear)" stroke-miterlimit="10"/>
<path d="M1243.76 271L1351.76 181" stroke="url(#paint43_linear)" stroke-miterlimit="10"/>
<path d="M1243.76 271L1315.76 235" stroke="url(#paint44_linear)" stroke-miterlimit="10"/>
<path d="M1243.76 271L1315.76 307" stroke="url(#paint45_linear)" stroke-miterlimit="10"/>
<path d="M1243.76 271L1315.76 379" stroke="url(#paint46_linear)" stroke-miterlimit="10"/>
<path d="M1243.76 271V343" stroke="url(#paint47_linear)" stroke-miterlimit="10"/>
<path d="M1243.76 271L1189.76 361" stroke="url(#paint48_linear)" stroke-miterlimit="10"/>
<path d="M1243.76 271L1171.76 325" stroke="url(#paint49_linear)" stroke-miterlimit="10"/>
<path d="M1243.76 271L1171.76 253" stroke="url(#paint50_linear)" stroke-miterlimit="10"/>
<path d="M901.758 631L649.758 469" stroke="url(#paint51_linear)" stroke-miterlimit="10"/>
<path d="M901.758 631L865.758 577" stroke="url(#paint52_linear)" stroke-miterlimit="10"/>
<path d="M901.758 631L955.758 541" stroke="url(#paint53_linear)" stroke-miterlimit="10"/>
<path d="M901.758 631L829.758 667" stroke="url(#paint54_linear)" stroke-miterlimit="10"/>
<path d="M901.758 631L919.758 739" stroke="url(#paint55_linear)" stroke-miterlimit="10"/>
<path d="M901.758 631L883.758 703" stroke="url(#paint56_linear)" stroke-miterlimit="10"/>
<path d="M901.758 631L937.758 685" stroke="url(#paint57_linear)" stroke-miterlimit="10"/>
<path d="M901.758 631L973.758 649" stroke="url(#paint58_linear)" stroke-miterlimit="10"/>
<path d="M901.758 631L955.758 613" stroke="url(#paint59_linear)" stroke-miterlimit="10"/>
<path d="M901.758 631H847.758" stroke="url(#paint60_linear)" stroke-miterlimit="10"/>
<path d="M649.758 469.001L217.758 325.001" stroke="url(#paint61_linear)" stroke-miterlimit="10"/>
<path d="M217.758 325.001L145.758 253" stroke="url(#paint62_linear)" stroke-miterlimit="10"/>
<path d="M217.758 325.001L181.758 253" stroke="url(#paint63_linear)" stroke-miterlimit="10"/>
<path d="M217.758 325.001L235.758 217" stroke="url(#paint64_linear)" stroke-miterlimit="10"/>
<path d="M217.758 325.001L37.7578 379" stroke="url(#paint65_linear)" stroke-miterlimit="10"/>
<path d="M217.758 325L73.7578 343" stroke="url(#paint66_linear)" stroke-miterlimit="10"/>
<path d="M217.758 325L109.758 307" stroke="url(#paint67_linear)" stroke-miterlimit="10"/>
<path d="M127.758 379L217.758 325" stroke="url(#paint68_linear)" stroke-miterlimit="10"/>
<path d="M217.758 325L127.758 469" stroke="url(#paint69_linear)" stroke-miterlimit="10"/>
<path d="M199.758 451L217.758 325" stroke="url(#paint70_linear)" stroke-miterlimit="10"/>
<path d="M253.758 433L217.758 325" stroke="url(#paint71_linear)" stroke-miterlimit="10"/>
<path d="M253.758 379L217.758 325" stroke="url(#paint72_linear)" stroke-miterlimit="10"/>
<path d="M217.758 325.001L253.758 271" stroke="url(#paint73_linear)" stroke-miterlimit="10"/>
<path d="M217.758 325L289.758 289" stroke="url(#paint74_linear)" stroke-miterlimit="10"/>
<path d="M217.758 325.001L343.758 325" stroke="url(#paint75_linear)" stroke-miterlimit="10"/>
<path d="M649.758 469L505.758 721" stroke="url(#paint76_linear)" stroke-miterlimit="10"/>
<path d="M505.758 721L325.758 559" stroke="url(#paint77_linear)" stroke-miterlimit="10"/>
<path d="M505.758 721L415.758 739" stroke="url(#paint78_linear)" stroke-miterlimit="10"/>
<path d="M505.758 721L523.758 829" stroke="url(#paint79_linear)" stroke-miterlimit="10"/>
<path d="M505.758 721H577.758" stroke="url(#paint80_linear)" stroke-miterlimit="10"/>
<path d="M505.758 721L550.758 757" stroke="url(#paint81_linear)" stroke-miterlimit="10"/>
<path d="M649.758 469L505.758 307" stroke="url(#paint82_linear)" stroke-miterlimit="10"/>
<path d="M505.758 307L469.758 343" stroke="url(#paint83_linear)" stroke-miterlimit="10"/>
<path d="M505.758 307L379.758 289" stroke="url(#paint84_linear)" stroke-miterlimit="10"/>
<path d="M505.758 307L397.758 235" stroke="url(#paint85_linear)" stroke-miterlimit="10"/>
<path d="M505.758 307L523.758 253" stroke="url(#paint86_linear)" stroke-miterlimit="10"/>
<path d="M505.758 307L595.758 271" stroke="url(#paint87_linear)" stroke-miterlimit="10"/>
<path d="M523.758 829L469.758 883" stroke="url(#paint88_linear)" stroke-miterlimit="10"/>
<path d="M523.758 829L487.758 811" stroke="url(#paint89_linear)" stroke-miterlimit="10"/>
<path d="M523.758 829L541.758 811" stroke="url(#paint90_linear)" stroke-miterlimit="10"/>
<path d="M523.758 829L541.758 883" stroke="url(#paint91_linear)" stroke-miterlimit="10"/>
<path d="M505.758 721L361.758 883" stroke="url(#paint92_linear)" stroke-miterlimit="10"/>
<path d="M397.758 235L343.758 253" stroke="url(#paint93_linear)" stroke-miterlimit="10"/>
<path d="M397.758 235L343.758 181" stroke="url(#paint94_linear)" stroke-miterlimit="10"/>
<path d="M397.758 235V199" stroke="url(#paint95_linear)" stroke-miterlimit="10"/>
<path d="M397.758 235H433.758" stroke="url(#paint96_linear)" stroke-miterlimit="10"/>
<path d="M955.758 541L937.758 523" stroke="url(#paint97_linear)" stroke-miterlimit="10"/>
<path d="M955.758 541L973.758 469" stroke="url(#paint98_linear)" stroke-miterlimit="10"/>
<path d="M955.758 541L973.758 577" stroke="url(#paint99_linear)" stroke-miterlimit="10"/>
<path d="M955.758 541L1027.76 559" stroke="url(#paint100_linear)" stroke-miterlimit="10"/>
<path d="M649.758 469L739.758 235" stroke="url(#paint101_linear)" stroke-miterlimit="10"/>
<path d="M757.758 289L739.758 235" stroke="url(#paint102_linear)" stroke-miterlimit="10"/>
<path d="M739.758 235L649.758 145" stroke="url(#paint103_linear)" stroke-miterlimit="10"/>
<path d="M739.758 235L649.758 289" stroke="url(#paint104_linear)" stroke-miterlimit="10"/>
<path d="M739.758 235L667.758 253" stroke="url(#paint105_linear)" stroke-miterlimit="10"/>
<path d="M739.758 235L649.758 217" stroke="url(#paint106_linear)" stroke-miterlimit="10"/>
<path d="M739.758 235L919.758 91" stroke="url(#paint107_linear)" stroke-miterlimit="10"/>
<path d="M919.758 91L865.758 73" stroke="url(#paint108_linear)" stroke-miterlimit="10"/>
<path d="M919.758 91L937.758 163" stroke="url(#paint109_linear)" stroke-miterlimit="10"/>
<path d="M919.758 91L955.758 127" stroke="url(#paint110_linear)" stroke-miterlimit="10"/>
<path d="M919.758 91L901.758 73" stroke="url(#paint111_linear)" stroke-miterlimit="10"/>
<path d="M919.758 91V37" stroke="url(#paint112_linear)" stroke-miterlimit="10"/>
<path d="M919.758 91L1027.76 37" stroke="url(#paint113_linear)" stroke-miterlimit="10"/>
<path d="M919.758 91L955.758 55" stroke="url(#paint114_linear)" stroke-miterlimit="10"/>
<path d="M919.758 91L901.758 145" stroke="url(#paint115_linear)" stroke-miterlimit="10"/>
<path d="M1261.76 91L1207.76 55" stroke="url(#paint116_linear)" stroke-miterlimit="10"/>
<path d="M1261.76 91L1225.76 109" stroke="url(#paint117_linear)" stroke-miterlimit="10"/>
<path d="M1261.76 91L1225.76 1" stroke="url(#paint118_linear)" stroke-miterlimit="10"/>
<path d="M1261.76 91L1315.76 37" stroke="url(#paint119_linear)" stroke-miterlimit="10"/>
<path d="M1261.76 91L1297.76 127" stroke="url(#paint120_linear)" stroke-miterlimit="10"/>
<path d="M649.758 469L847.758 325" stroke="url(#paint121_linear)" stroke-miterlimit="10"/>
<path d="M847.758 325L811.758 307" stroke="url(#paint122_linear)" stroke-miterlimit="10"/>
<path d="M847.758 325L811.758 235" stroke="url(#paint123_linear)" stroke-miterlimit="10"/>
<path d="M847.758 325L829.758 379" stroke="url(#paint124_linear)" stroke-miterlimit="10"/>
<path d="M847.758 325L1063.76 235" stroke="url(#paint125_linear)" stroke-miterlimit="10"/>
<path d="M1063.76 235L1045.76 217" stroke="url(#paint126_linear)" stroke-miterlimit="10"/>
<path d="M1063.76 235L1045.76 271" stroke="url(#paint127_linear)" stroke-miterlimit="10"/>
<path d="M1063.76 235V199" stroke="url(#paint128_linear)" stroke-miterlimit="10"/>
<path d="M1063.76 235L1081.76 217" stroke="url(#paint129_linear)" stroke-miterlimit="10"/>
<path d="M1063.76 235L1117.76 271" stroke="url(#paint130_linear)" stroke-miterlimit="10"/>
<path d="M847.758 325L937.758 343" stroke="url(#paint131_linear)" stroke-miterlimit="10"/>
<path d="M847.758 325L901.758 361" stroke="url(#paint132_linear)" stroke-miterlimit="10"/>
<path d="M847.758 325L883.758 271" stroke="url(#paint133_linear)" stroke-miterlimit="10"/>
<path d="M325.758 559L289.758 613" stroke="url(#paint134_linear)" stroke-miterlimit="10"/>
<path d="M325.758 559L181.758 577" stroke="url(#paint135_linear)" stroke-miterlimit="10"/>
<path d="M325.758 559L199.758 505" stroke="url(#paint136_linear)" stroke-miterlimit="10"/>
<path d="M325.758 559L271.758 505" stroke="url(#paint137_linear)" stroke-miterlimit="10"/>
<path d="M325.758 559H379.758" stroke="url(#paint138_linear)" stroke-miterlimit="10"/>
<path d="M325.758 559L343.758 523" stroke="url(#paint139_linear)" stroke-miterlimit="10"/>
<path d="M649.758 469L487.758 505" stroke="url(#paint140_linear)" stroke-miterlimit="10"/>
<path d="M487.758 505L451.758 487" stroke="url(#paint141_linear)" stroke-miterlimit="10"/>
<path d="M487.758 505L433.758 577" stroke="url(#paint142_linear)" stroke-miterlimit="10"/>
<path d="M649.758 469L505.758 631" stroke="url(#paint143_linear)" stroke-miterlimit="10"/>
<path d="M505.758 631H469.758" stroke="url(#paint144_linear)" stroke-miterlimit="10"/>
<path d="M505.758 631L469.758 667" stroke="url(#paint145_linear)" stroke-miterlimit="10"/>
<path d="M649.758 469L703.758 559" stroke="url(#paint146_linear)" stroke-miterlimit="10"/>
<path d="M703.758 559L721.758 487" stroke="url(#paint147_linear)" stroke-miterlimit="10"/>
<path d="M703.758 559L811.758 505" stroke="url(#paint148_linear)" stroke-miterlimit="10"/>
<path d="M703.758 559L631.758 577" stroke="url(#paint149_linear)" stroke-miterlimit="10"/>
<path d="M703.758 559V667" stroke="url(#paint150_linear)" stroke-miterlimit="10"/>
<path d="M703.758 559L739.758 721" stroke="url(#paint151_linear)" stroke-miterlimit="10"/>
<path d="M811.758 505L793.758 487" stroke="url(#paint152_linear)" stroke-miterlimit="10"/>
<path d="M811.758 505V523" stroke="url(#paint153_linear)" stroke-miterlimit="10"/>
<path d="M811.758 505L847.758 469" stroke="url(#paint154_linear)" stroke-miterlimit="10"/>
<path d="M739.758 721L721.758 757" stroke="url(#paint155_linear)" stroke-miterlimit="10"/>
<path d="M739.758 721L793.758 811" stroke="url(#paint156_linear)" stroke-miterlimit="10"/>
<path d="M739.758 721L811.758 757" stroke="url(#paint157_linear)" stroke-miterlimit="10"/>
<path d="M703.758 667L631.758 685" stroke="url(#paint158_linear)" stroke-miterlimit="10"/>
<path d="M703.758 667V703" stroke="url(#paint159_linear)" stroke-miterlimit="10"/>
<path d="M703.758 667L757.758 685" stroke="url(#paint160_linear)" stroke-miterlimit="10"/>
<path d="M451.758 487V469" stroke="url(#paint161_linear)" stroke-miterlimit="10"/>
<path d="M451.758 487L487.758 469" stroke="url(#paint162_linear)" stroke-miterlimit="10"/>
<path d="M451.758 487L433.758 505" stroke="url(#paint163_linear)" stroke-miterlimit="10"/>
<path d="M397.758 451L451.758 487" stroke="url(#paint164_linear)" stroke-miterlimit="10"/>
<path d="M415.758 433L451.758 487" stroke="url(#paint165_linear)" stroke-miterlimit="10"/>
<path d="M433.758 541L451.758 487" stroke="url(#paint166_linear)" stroke-miterlimit="10"/>
<path d="M739.758 721L847.758 739" stroke="url(#paint167_linear)" stroke-miterlimit="10"/>
<path d="M739.758 829V721" stroke="url(#paint168_linear)" stroke-miterlimit="10"/>
<path d="M703.758 667L757.758 613" stroke="url(#paint169_linear)" stroke-miterlimit="10"/>
<path d="M703.758 667L649.758 649" stroke="url(#paint170_linear)" stroke-miterlimit="10"/>
<path d="M703.758 559L793.758 595" stroke="url(#paint171_linear)" stroke-miterlimit="10"/>
<path d="M226.758 375.25C228.208 375.25 229.383 374.075 229.383 372.625C229.383 371.175 228.208 370 226.758 370C225.308 370 224.133 371.175 224.133 372.625C224.133 374.075 225.308 375.25 226.758 375.25Z" fill="#C14F3D"/>
<path d="M271.758 372.625C271.758 374.074 270.583 375.25 269.133 375.25H237.258C235.808 375.25 234.633 374.074 234.633 372.625C234.633 371.176 235.808 370 237.258 370H269.133C270.583 370 271.758 371.176 271.758 372.625Z" fill="#C14F3D"/>
<path d="M253.758 820C255.208 820 256.383 818.825 256.383 817.375C256.383 815.925 255.208 814.75 253.758 814.75C252.308 814.75 251.133 815.925 251.133 817.375C251.133 818.825 252.308 820 253.758 820Z" fill="#C14F3D"/>
<path d="M298.758 817.375C298.758 818.824 297.583 820 296.133 820H264.258C262.808 820 261.633 818.824 261.633 817.375C261.633 815.926 262.808 814.75 264.258 814.75H296.133C297.583 814.75 298.758 815.925 298.758 817.375Z" fill="#C14F3D"/>
<path d="M346.383 546.25C347.833 546.25 349.008 545.075 349.008 543.625C349.008 542.175 347.833 541 346.383 541C344.933 541 343.758 542.175 343.758 543.625C343.758 545.075 344.933 546.25 346.383 546.25Z" fill="url(#paint172_linear)"/>
<path d="M379.758 543.625C379.758 545.074 378.583 546.25 377.133 546.25H356.883C355.433 546.25 354.258 545.074 354.258 543.625C354.258 542.176 355.433 541 356.883 541H377.133C378.583 541 379.758 542.176 379.758 543.625Z" stroke="url(#paint173_linear)" stroke-miterlimit="10"/>
<path d="M715.383 199C716.833 199 718.008 197.825 718.008 196.375C718.008 194.925 716.833 193.75 715.383 193.75C713.933 193.75 712.758 194.925 712.758 196.375C712.758 197.825 713.933 199 715.383 199Z" stroke="url(#paint174_linear)" stroke-miterlimit="10"/>
<path d="M748.758 196.375C748.758 197.824 747.582 199 746.133 199H725.883C724.434 199 723.258 197.824 723.258 196.375C723.258 194.926 724.434 193.75 725.883 193.75H746.133C747.582 193.75 748.758 194.926 748.758 196.375Z" stroke="url(#paint175_linear)" stroke-miterlimit="10"/>
<path d="M877.383 303.25C878.833 303.25 880.008 302.075 880.008 300.625C880.008 299.175 878.833 298 877.383 298C875.933 298 874.758 299.175 874.758 300.625C874.758 302.075 875.933 303.25 877.383 303.25Z" stroke="#E7367C" stroke-miterlimit="10"/>
<path d="M910.758 300.625C910.758 302.074 909.582 303.25 908.133 303.25H887.883C886.434 303.25 885.258 302.074 885.258 300.625C885.258 299.176 886.434 298 887.883 298H908.133C909.582 298 910.758 299.176 910.758 300.625Z" stroke="#E7367C" stroke-miterlimit="10"/>
<path d="M751.383 712C752.833 712 754.008 710.825 754.008 709.375C754.008 707.925 752.833 706.75 751.383 706.75C749.933 706.75 748.758 707.925 748.758 709.375C748.758 710.825 749.933 712 751.383 712Z" stroke="url(#paint176_linear)" stroke-miterlimit="10"/>
<path d="M784.758 709.375C784.758 710.824 783.582 712 782.133 712H761.883C760.434 712 759.258 710.824 759.258 709.375C759.258 707.926 760.434 706.75 761.883 706.75H782.133C783.582 706.75 784.758 707.926 784.758 709.375Z" stroke="url(#paint177_linear)" stroke-miterlimit="10"/>
<path d="M535.383 708.25C536.833 708.25 538.008 707.075 538.008 705.625C538.008 704.175 536.833 703 535.383 703C533.933 703 532.758 704.175 532.758 705.625C532.758 707.075 533.933 708.25 535.383 708.25Z" stroke="url(#paint178_linear)" stroke-miterlimit="10"/>
<path d="M568.758 705.625C568.758 707.074 567.583 708.25 566.133 708.25H545.883C544.433 708.25 543.258 707.074 543.258 705.625C543.258 704.176 544.433 703 545.883 703H566.133C567.583 703 568.758 704.176 568.758 705.625Z" stroke="url(#paint179_linear)" stroke-miterlimit="10"/>
<path d="M748.758 933.25C750.208 933.25 751.383 932.075 751.383 930.625C751.383 929.175 750.208 928 748.758 928C747.308 928 746.133 929.175 746.133 930.625C746.133 932.075 747.308 933.25 748.758 933.25Z" stroke="url(#paint180_linear)" stroke-miterlimit="10"/>
<path d="M793.758 930.625C793.758 932.074 792.582 933.25 791.133 933.25H759.258C757.809 933.25 756.633 932.074 756.633 930.625C756.633 929.176 757.809 928 759.258 928H791.133C792.582 928 793.758 929.175 793.758 930.625Z" stroke="url(#paint181_linear)" stroke-miterlimit="10"/>
<path d="M1282.38 276.25C1283.83 276.25 1285.01 275.075 1285.01 273.625C1285.01 272.175 1283.83 271 1282.38 271C1280.93 271 1279.76 272.175 1279.76 273.625C1279.76 275.075 1280.93 276.25 1282.38 276.25Z" fill="#C14F3D"/>
<path d="M1327.38 273.625C1327.38 275.074 1326.21 276.25 1324.76 276.25H1292.88C1291.43 276.25 1290.26 275.074 1290.26 273.625C1290.26 272.176 1291.43 271 1292.88 271H1324.76C1326.21 271 1327.38 272.176 1327.38 273.625Z" fill="#C14F3D"/>
<path opacity="0.2" d="M235.758 803.174C251.318 803.174 263.932 790.56 263.932 775C263.932 759.44 251.318 746.826 235.758 746.826C220.198 746.826 207.584 759.44 207.584 775C207.584 790.56 220.198 803.174 235.758 803.174Z" fill="#2AD7D7"/>
<path opacity="0.2" d="M505.758 740.074C516.292 740.074 524.832 731.534 524.832 721C524.832 710.465 516.292 701.926 505.758 701.926C495.223 701.926 486.684 710.465 486.684 721C486.684 731.534 495.223 740.074 505.758 740.074Z" fill="#44BEF1"/>
<path opacity="0.2" d="M721.758 964.074C726.769 964.074 730.832 960.011 730.832 955C730.832 949.988 726.769 945.926 721.758 945.926C716.747 945.926 712.684 949.988 712.684 955C712.684 960.011 716.747 964.074 721.758 964.074Z" fill="#44BEF1"/>
<path opacity="0.2" d="M739.758 730.074C744.769 730.074 748.832 726.011 748.832 721C748.832 715.988 744.769 711.926 739.758 711.926C734.747 711.926 730.684 715.988 730.684 721C730.684 726.011 734.747 730.074 739.758 730.074Z" fill="#44BEF1"/>
<path d="M721.022 469.001C721.022 508.317 689.153 540.181 649.84 540.181C610.527 540.181 578.659 508.318 578.659 469.001C578.659 429.684 610.527 397.818 649.84 397.818C689.153 397.818 721.022 429.684 721.022 469.001Z" stroke="url(#paint182_linear)" stroke-miterlimit="10"/>
<path opacity="0.9" d="M217.758 1029.25C219 1029.25 220.008 1028.24 220.008 1027C220.008 1025.76 219 1024.75 217.758 1024.75C216.515 1024.75 215.508 1025.76 215.508 1027C215.508 1028.24 216.515 1029.25 217.758 1029.25Z" fill="#64C7D6"/>
<path opacity="0.9" d="M145.758 939.176C146.96 939.176 147.934 938.202 147.934 937C147.934 935.798 146.96 934.824 145.758 934.824C144.556 934.824 143.582 935.798 143.582 937C143.582 938.202 144.556 939.176 145.758 939.176Z" fill="#64C7D6"/>
<path opacity="0.9" d="M1.758 866.758C2.72891 866.758 3.51599 865.971 3.51599 865C3.51599 864.029 2.72891 863.242 1.758 863.242C0.787079 863.242 0 864.029 0 865C0 865.971 0.787079 866.758 1.758 866.758Z" fill="#64C7D6"/>
<path opacity="0.9" d="M73.758 686.091C74.3605 686.091 74.849 685.603 74.849 685C74.849 684.398 74.3605 683.909 73.758 683.909C73.1555 683.909 72.667 684.398 72.667 685C72.667 685.603 73.1555 686.091 73.758 686.091Z" fill="#64C7D6"/>
<path opacity="0.9" d="M235.758 778.758C237.833 778.758 239.516 777.076 239.516 775C239.516 772.925 237.833 771.242 235.758 771.242C233.683 771.242 232 772.925 232 775C232 777.076 233.683 778.758 235.758 778.758Z" fill="#64C7D6"/>
<path opacity="0.9" d="M235.758 777.442C237.107 777.442 238.2 776.348 238.2 775C238.2 773.651 237.107 772.558 235.758 772.558C234.41 772.558 233.316 773.651 233.316 775C233.316 776.348 234.41 777.442 235.758 777.442Z" fill="white"/>
<path opacity="0.9" d="M505.758 723.442C507.107 723.442 508.2 722.348 508.2 721C508.2 719.651 507.107 718.558 505.758 718.558C504.41 718.558 503.316 719.651 503.316 721C503.316 722.348 504.41 723.442 505.758 723.442Z" fill="white"/>
<path opacity="0.9" d="M91.758 776.591C92.6367 776.591 93.349 775.879 93.349 775C93.349 774.121 92.6367 773.409 91.758 773.409C90.8793 773.409 90.167 774.121 90.167 775C90.167 775.879 90.8793 776.591 91.758 776.591Z" fill="#64C7D6"/>
<path opacity="0.9" d="M19.758 687.424C21.0967 687.424 22.182 686.339 22.182 685C22.182 683.661 21.0967 682.576 19.758 682.576C18.4192 682.576 17.334 683.661 17.334 685C17.334 686.339 18.4192 687.424 19.758 687.424Z" fill="#64C7D6"/>
<path opacity="0.9" d="M37.7584 812.233C38.4394 812.233 38.9914 811.681 38.9914 811C38.9914 810.319 38.4394 809.767 37.7584 809.767C37.0774 809.767 36.5254 810.319 36.5254 811C36.5254 811.681 37.0774 812.233 37.7584 812.233Z" fill="#64C7D6"/>
<path d="M649.841 496.5C642.219 496.5 635.133 493.454 629.886 487.923C625.02 482.794 622.341 476.074 622.341 469C622.341 462.205 624.839 455.682 629.375 450.631C634.586 444.828 642.046 441.5 649.841 441.5C657.82 441.5 665.397 444.961 670.628 450.995C674.957 455.989 677.341 462.383 677.341 469C677.341 478.584 672.472 487.327 664.318 492.386C659.978 495.077 654.972 496.5 649.841 496.5ZM649.841 442.5C642.329 442.5 635.141 445.707 630.119 451.299C625.748 456.166 623.341 462.452 623.341 469C623.341 475.817 625.923 482.293 630.612 487.235C635.668 492.565 642.497 495.5 649.841 495.5C654.786 495.5 659.61 494.129 663.79 491.536C671.649 486.661 676.341 478.236 676.341 469C676.341 462.624 674.044 456.461 669.872 451.65C664.831 445.834 657.53 442.5 649.841 442.5Z" fill="white"/>
<path d="M649.84 532.5V530.19C667.718 530.19 684.653 522.401 696.304 508.82C705.801 497.748 711.032 483.606 711.032 468.999C711.032 460.738 709.414 452.724 706.222 445.18L708.349 444.281C711.662 452.111 713.34 460.427 713.34 468.999C713.34 484.157 707.912 498.833 698.056 510.323C685.967 524.417 668.393 532.5 649.84 532.5Z" fill="#AC2DAC"/>
<path d="M588.65 469H586.34C586.34 460.673 587.927 452.577 591.058 444.937C596.908 430.662 607.744 419.009 621.571 412.124C630.399 407.728 639.91 405.499 649.84 405.499V407.808C640.271 407.808 631.106 409.956 622.6 414.191C609.274 420.826 598.831 432.056 593.194 445.812C590.178 453.173 588.65 460.974 588.65 469Z" fill="#44F8FD"/>
<path d="M649.84 541.5C635.142 541.5 620.988 537.125 608.908 528.847C598.089 521.434 589.472 511.241 583.988 499.369C582.706 496.593 581.59 493.706 580.672 490.79C578.461 483.765 577.339 476.434 577.339 468.999C577.339 458.663 579.469 448.679 583.67 439.325C584.771 436.874 586.023 434.458 587.392 432.143L589.662 433.486C588.343 435.716 587.136 438.044 586.076 440.405C582.029 449.417 579.976 459.038 579.976 468.999C579.976 476.164 581.056 483.229 583.186 489.998C584.07 492.808 585.145 495.588 586.381 498.263C591.666 509.704 599.97 519.528 610.398 526.672C622.037 534.648 635.675 538.863 649.839 538.863C679.781 538.863 706.368 519.83 715.999 491.501C718.456 484.275 719.702 476.705 719.702 469C719.702 430.477 688.361 399.137 649.839 399.137V396.5C689.816 396.5 722.339 429.023 722.339 469C722.339 476.995 721.046 484.851 718.495 492.35C708.502 521.748 680.911 541.5 649.84 541.5Z" fill="#F039F0"/>
<path d="M702.213 531.446L700.307 529.176C718.145 514.199 728.376 492.266 728.376 468.999H731.339C731.339 493.144 720.723 515.905 702.213 531.446Z" fill="#FF3CFF"/>
<path d="M588.799 523.002C579.442 512.434 572.97 499.582 570.082 485.836C568.926 480.335 568.34 474.67 568.34 468.999C568.34 440.957 582.487 415.225 606.184 400.166C612.333 396.258 618.972 393.197 625.915 391.069C633.636 388.7 641.686 387.5 649.84 387.5V390.464C641.98 390.464 634.223 391.621 626.783 393.902C620.094 395.953 613.698 398.902 607.773 402.667C584.937 417.179 571.303 441.977 571.303 469C571.303 474.467 571.867 479.927 572.981 485.228C575.763 498.472 582 510.854 591.016 521.039L588.799 523.002Z" fill="#5B3EAE"/>
<path d="M649.841 577.499C631.549 577.499 613.466 572.861 597.544 564.087C582.91 556.021 570.136 544.487 560.603 530.733C548.001 512.552 541.34 491.206 541.34 469H545.285C545.285 490.398 551.703 510.968 563.846 528.485C573.034 541.742 585.345 552.858 599.449 560.631C614.789 569.085 632.215 573.553 649.842 573.553V577.499H649.841Z" fill="#48BDEF"/>
<path d="M730.972 541.042L728.023 538.421C745.029 519.282 754.394 494.628 754.394 468.999C754.394 452.081 750.261 435.278 742.442 420.407C733.916 404.193 721.22 390.434 705.728 380.617C689.03 370.036 669.705 364.444 649.841 364.444C633.709 364.444 618.24 368.018 603.865 375.068L602.128 371.526C617.049 364.209 633.102 360.499 649.841 360.499C670.453 360.499 690.509 366.303 707.839 377.285C723.913 387.471 737.086 401.747 745.934 418.572C754.049 434.006 758.339 451.444 758.339 469C758.339 495.595 748.62 521.181 730.972 541.042Z" fill="#5B3FAE"/>
<path opacity="0.5" d="M217.758 342.925C227.657 342.925 235.682 334.9 235.682 325.001C235.682 315.102 227.657 307.077 217.758 307.077C207.859 307.077 199.834 315.102 199.834 325.001C199.834 334.9 207.859 342.925 217.758 342.925Z" fill="#3EE7CD" fill-opacity="0.7"/>
<path opacity="0.9" d="M217.759 328.759C219.834 328.759 221.517 327.077 221.517 325.001C221.517 322.926 219.834 321.243 217.759 321.243C215.683 321.243 214.001 322.926 214.001 325.001C214.001 327.077 215.683 328.759 217.759 328.759Z" fill="#64C7D6"/>
<path opacity="0.9" d="M217.759 327.443C219.108 327.443 220.201 326.349 220.201 325.001C220.201 323.652 219.108 322.559 217.759 322.559C216.411 322.559 215.317 323.652 215.317 325.001C215.317 326.349 216.411 327.443 217.759 327.443Z" fill="white"/>
<path opacity="0.2" d="M847.758 353.174C863.318 353.174 875.932 340.56 875.932 325C875.932 309.44 863.318 296.826 847.758 296.826C832.198 296.826 819.584 309.44 819.584 325C819.584 340.56 832.198 353.174 847.758 353.174Z" fill="#44BEF1"/>
<path opacity="0.9" d="M847.758 328.758C849.834 328.758 851.516 327.076 851.516 325C851.516 322.925 849.834 321.242 847.758 321.242C845.683 321.242 844 322.925 844 325C844 327.076 845.683 328.758 847.758 328.758Z" fill="#64C7D6"/>
<path opacity="0.9" d="M847.758 327.441C849.106 327.441 850.199 326.348 850.199 325C850.199 323.651 849.106 322.559 847.758 322.559C846.41 322.559 845.317 323.651 845.317 325C845.317 326.348 846.41 327.441 847.758 327.441Z" fill="white"/>
<path opacity="0.5" d="M145.758 687.459C147.116 687.459 148.217 686.358 148.217 685C148.217 683.642 147.116 682.541 145.758 682.541C144.4 682.541 143.299 683.642 143.299 685C143.299 686.358 144.4 687.459 145.758 687.459Z" fill="#64C7D6"/>
<path opacity="0.3" d="M145.758 632.856C146.783 632.856 147.614 632.025 147.614 631C147.614 629.975 146.783 629.144 145.758 629.144C144.733 629.144 143.902 629.975 143.902 631C143.902 632.025 144.733 632.856 145.758 632.856Z" fill="#64C7D6"/>
<path opacity="0.9" d="M217.758 686.591C218.637 686.591 219.349 685.879 219.349 685C219.349 684.121 218.637 683.409 217.758 683.409C216.879 683.409 216.167 684.121 216.167 685C216.167 685.879 216.879 686.591 217.758 686.591Z" fill="#64C7D6"/>
<path opacity="0.5" d="M253.758 650.425C254.545 650.425 255.183 649.787 255.183 649C255.183 648.213 254.545 647.575 253.758 647.575C252.971 647.575 252.333 648.213 252.333 649C252.333 649.787 252.971 650.425 253.758 650.425Z" fill="#64C7D6"/>
<path opacity="0.5" d="M289.758 668.878C290.795 668.878 291.636 668.037 291.636 667C291.636 665.963 290.795 665.122 289.758 665.122C288.721 665.122 287.88 665.963 287.88 667C287.88 668.037 288.721 668.878 289.758 668.878Z" fill="#64C7D6"/>
<path opacity="0.5" d="M289.758 614.475C290.573 614.475 291.233 613.815 291.233 613C291.233 612.186 290.573 611.525 289.758 611.525C288.944 611.525 288.283 612.186 288.283 613C288.283 613.815 288.944 614.475 289.758 614.475Z" fill="#64C7D6"/>
<path opacity="0.5" d="M181.758 578.075C182.351 578.075 182.833 577.594 182.833 577C182.833 576.406 182.351 575.925 181.758 575.925C181.164 575.925 180.683 576.406 180.683 577C180.683 577.594 181.164 578.075 181.758 578.075Z" fill="#64C7D6"/>
<path opacity="0.8" d="M199.758 506.129C200.381 506.129 200.887 505.624 200.887 505C200.887 504.377 200.381 503.871 199.758 503.871C199.134 503.871 198.629 504.377 198.629 505C198.629 505.624 199.134 506.129 199.758 506.129Z" fill="#64C7D6"/>
<path opacity="0.5" d="M325.758 651.159C326.95 651.159 327.917 650.192 327.917 649C327.917 647.807 326.95 646.841 325.758 646.841C324.565 646.841 323.599 647.807 323.599 649C323.599 650.192 324.565 651.159 325.758 651.159Z" fill="#64C7D6"/>
<path opacity="0.2" d="M361.758 723.159C362.95 723.159 363.917 722.192 363.917 721C363.917 719.807 362.95 718.841 361.758 718.841C360.565 718.841 359.599 719.807 359.599 721C359.599 722.192 360.565 723.159 361.758 723.159Z" fill="#64C7D6"/>
<path opacity="0.5" d="M379.758 794.303C380.478 794.303 381.061 793.72 381.061 793C381.061 792.281 380.478 791.697 379.758 791.697C379.038 791.697 378.455 792.281 378.455 793C378.455 793.72 379.038 794.303 379.758 794.303Z" fill="#64C7D6"/>
<path opacity="0.7" d="M325.758 866.951C326.835 866.951 327.709 866.077 327.709 865C327.709 863.922 326.835 863.049 325.758 863.049C324.68 863.049 323.807 863.922 323.807 865C323.807 866.077 324.68 866.951 325.758 866.951Z" fill="#64C7D6"/>
<path opacity="0.8" d="M343.758 830.652C344.671 830.652 345.41 829.912 345.41 829C345.41 828.087 344.671 827.348 343.758 827.348C342.846 827.348 342.106 828.087 342.106 829C342.106 829.912 342.846 830.652 343.758 830.652Z" fill="#AAF1F9"/>
<path opacity="0.5" d="M325.758 921.159C326.95 921.159 327.917 920.192 327.917 919C327.917 917.807 326.95 916.841 325.758 916.841C324.565 916.841 323.599 917.807 323.599 919C323.599 920.192 324.565 921.159 325.758 921.159Z" fill="#64C7D6"/>
<path opacity="0.5" d="M271.758 938.106C272.369 938.106 272.864 937.611 272.864 937C272.864 936.39 272.369 935.895 271.758 935.895C271.148 935.895 270.652 936.39 270.652 937C270.652 937.611 271.148 938.106 271.758 938.106Z" fill="#64C7D6"/>
<path opacity="0.7" d="M744.536 386.976C720.704 359.49 686.189 343.724 649.84 343.724C614.33 343.724 580.349 358.885 556.608 385.319C535.944 408.328 524.564 438.046 524.564 469C524.564 501.227 536.771 531.841 558.938 555.206C582.838 580.402 615.121 594.277 649.841 594.277C673.217 594.277 696.022 587.796 715.789 575.535C752.938 552.488 775.12 512.661 775.12 469C775.119 438.855 764.256 409.724 744.536 386.976Z" fill="white"/>
<path opacity="0.8" d="M649.997 268C708.316 268 763.693 293.296 801.93 337.396C833.569 373.894 850.998 420.633 851 468.999C851 539.053 815.413 602.95 755.807 639.93C724.093 659.601 687.505 670 649.998 670C594.29 670 542.499 647.74 504.151 607.312L503.425 608.001L504.151 607.312C468.585 569.824 449 520.707 449 468.999C449 419.334 467.258 371.654 500.412 334.737C538.503 292.325 593.024 268 649.997 268Z" stroke="white" stroke-width="2"/>
<path opacity="0.8" d="M271.758 507.159C272.95 507.159 273.917 506.192 273.917 505C273.917 503.807 272.95 502.841 271.758 502.841C270.565 502.841 269.599 503.807 269.599 505C269.599 506.192 270.565 507.159 271.758 507.159Z" fill="#64C7D6"/>
<path opacity="0.8" d="M343.758 523.996C344.308 523.996 344.754 523.55 344.754 523C344.754 522.45 344.308 522.004 343.758 522.004C343.208 522.004 342.762 522.45 342.762 523C342.762 523.55 343.208 523.996 343.758 523.996Z" fill="#64C7D6"/>
<path opacity="0.8" d="M379.758 560.974C380.848 560.974 381.732 560.091 381.732 559C381.732 557.91 380.848 557.026 379.758 557.026C378.668 557.026 377.784 557.91 377.784 559C377.784 560.091 378.668 560.974 379.758 560.974Z" fill="#64C7D6"/>
<path opacity="0.8" d="M433.758 543.341C435.051 543.341 436.099 542.293 436.099 541C436.099 539.707 435.051 538.659 433.758 538.659C432.465 538.659 431.417 539.707 431.417 541C431.417 542.293 432.465 543.341 433.758 543.341Z" fill="#64C7D6"/>
<path opacity="0.8" d="M469.758 633.341C471.051 633.341 472.099 632.293 472.099 631C472.099 629.707 471.051 628.659 469.758 628.659C468.465 628.659 467.417 629.707 467.417 631C467.417 632.293 468.465 633.341 469.758 633.341Z" fill="#64C7D6"/>
<path opacity="0.8" d="M469.758 668.654C470.671 668.654 471.411 667.913 471.411 667C471.411 666.086 470.671 665.346 469.758 665.346C468.844 665.346 468.104 666.086 468.104 667C468.104 667.913 468.844 668.654 469.758 668.654Z" fill="#64C7D6"/>
<path opacity="0.8" d="M415.758 740.908C416.811 740.908 417.666 740.054 417.666 739C417.666 737.946 416.811 737.092 415.758 737.092C414.704 737.092 413.85 737.946 413.85 739C413.85 740.054 414.704 740.908 415.758 740.908Z" fill="#64C7D6"/>
<path opacity="0.4" d="M361.758 884.936C362.827 884.936 363.694 884.07 363.694 883C363.694 881.931 362.827 881.064 361.758 881.064C360.689 881.064 359.822 881.931 359.822 883C359.822 884.07 360.689 884.936 361.758 884.936Z" fill="#64C7D6"/>
<path opacity="0.4" d="M469.758 886.216C471.534 886.216 472.974 884.776 472.974 883C472.974 881.224 471.534 879.784 469.758 879.784C467.982 879.784 466.542 881.224 466.542 883C466.542 884.776 467.982 886.216 469.758 886.216Z" fill="#64C7D6"/>
<path opacity="0.4" d="M541.758 886.216C543.534 886.216 544.974 884.776 544.974 883C544.974 881.224 543.534 879.784 541.758 879.784C539.982 879.784 538.542 881.224 538.542 883C538.542 884.776 539.982 886.216 541.758 886.216Z" fill="#64C7D6"/>
<path opacity="0.4" d="M613.758 920.966C614.844 920.966 615.724 920.086 615.724 919C615.724 917.914 614.844 917.034 613.758 917.034C612.672 917.034 611.792 917.914 611.792 919C611.792 920.086 612.672 920.966 613.758 920.966Z" fill="#64C7D6"/>
<path opacity="0.4" d="M667.758 866.229C668.437 866.229 668.987 865.679 668.987 865C668.987 864.322 668.437 863.771 667.758 863.771C667.079 863.771 666.529 864.322 666.529 865C666.529 865.679 667.079 866.229 667.758 866.229Z" fill="#64C7D6"/>
<path opacity="0.4" d="M595.758 1010.31C596.482 1010.31 597.068 1009.72 597.068 1009C597.068 1008.28 596.482 1007.69 595.758 1007.69C595.035 1007.69 594.448 1008.28 594.448 1009C594.448 1009.72 595.035 1010.31 595.758 1010.31Z" fill="#64C7D6"/>
<path opacity="0.4" d="M631.758 956.583C632.632 956.583 633.341 955.874 633.341 955C633.341 954.126 632.632 953.417 631.758 953.417C630.884 953.417 630.175 954.126 630.175 955C630.175 955.874 630.884 956.583 631.758 956.583Z" fill="#64C7D6"/>
<path opacity="0.4" d="M613.758 1028.61C614.645 1028.61 615.365 1027.89 615.365 1027C615.365 1026.11 614.645 1025.39 613.758 1025.39C612.87 1025.39 612.151 1026.11 612.151 1027C612.151 1027.89 612.87 1028.61 613.758 1028.61Z" fill="#64C7D6"/>
<path opacity="0.4" d="M649.758 1028.65C650.667 1028.65 651.405 1027.91 651.405 1027C651.405 1026.09 650.667 1025.35 649.758 1025.35C648.848 1025.35 648.111 1026.09 648.111 1027C648.111 1027.91 648.848 1028.65 649.758 1028.65Z" fill="#64C7D6"/>
<path opacity="0.4" d="M775.758 866.34C776.498 866.34 777.098 865.74 777.098 865C777.098 864.26 776.498 863.66 775.758 863.66C775.018 863.66 774.418 864.26 774.418 865C774.418 865.74 775.018 866.34 775.758 866.34Z" fill="#64C7D6"/>
<path opacity="0.4" d="M811.758 902.496C812.584 902.496 813.254 901.826 813.254 901C813.254 900.174 812.584 899.504 811.758 899.504C810.932 899.504 810.262 900.174 810.262 901C810.262 901.826 810.932 902.496 811.758 902.496Z" fill="#64C7D6"/>
<path opacity="0.4" d="M847.758 991.965C848.291 991.965 848.723 991.533 848.723 991C848.723 990.467 848.291 990.035 847.758 990.035C847.225 990.035 846.793 990.467 846.793 991C846.793 991.533 847.225 991.965 847.758 991.965Z" fill="#64C7D6"/>
<path opacity="0.4" d="M811.758 1046.59C812.636 1046.59 813.347 1045.88 813.347 1045C813.347 1044.12 812.636 1043.41 811.758 1043.41C810.88 1043.41 810.169 1044.12 810.169 1045C810.169 1045.88 810.88 1046.59 811.758 1046.59Z" fill="#64C7D6"/>
<path opacity="0.1" d="M721.758 1083.34C723.05 1083.34 724.098 1082.29 724.098 1081C724.098 1079.71 723.05 1078.66 721.758 1078.66C720.466 1078.66 719.418 1079.71 719.418 1081C719.418 1082.29 720.466 1083.34 721.758 1083.34Z" fill="#64C7D6"/>
<path opacity="0.4" d="M793.758 1118.19C794.418 1118.19 794.953 1117.66 794.953 1117C794.953 1116.34 794.418 1115.8 793.758 1115.8C793.098 1115.8 792.563 1116.34 792.563 1117C792.563 1117.66 793.098 1118.19 793.758 1118.19Z" fill="#64C7D6"/>
<path opacity="0.4" d="M685.758 1118.46C686.564 1118.46 687.217 1117.81 687.217 1117C687.217 1116.19 686.564 1115.54 685.758 1115.54C684.952 1115.54 684.299 1116.19 684.299 1117C684.299 1117.81 684.952 1118.46 685.758 1118.46Z" fill="#64C7D6"/>
<path opacity="0.4" d="M793.758 1172.09C794.36 1172.09 794.848 1171.6 794.848 1171C794.848 1170.4 794.36 1169.91 793.758 1169.91C793.156 1169.91 792.668 1170.4 792.668 1171C792.668 1171.6 793.156 1172.09 793.758 1172.09Z" fill="#64C7D6"/>
<path opacity="0.4" d="M703.758 704.607C704.645 704.607 705.365 703.887 705.365 703C705.365 702.112 704.645 701.393 703.758 701.393C702.87 701.393 702.151 702.112 702.151 703C702.151 703.887 702.87 704.607 703.758 704.607Z" fill="#64C7D6"/>
<path opacity="0.4" d="M757.758 686.549C758.613 686.549 759.307 685.856 759.307 685C759.307 684.145 758.613 683.451 757.758 683.451C756.903 683.451 756.209 684.145 756.209 685C756.209 685.856 756.903 686.549 757.758 686.549Z" fill="#64C7D6"/>
<path opacity="0.4" d="M757.758 614.549C758.613 614.549 759.307 613.856 759.307 613C759.307 612.145 758.613 611.451 757.758 611.451C756.903 611.451 756.209 612.145 756.209 613C756.209 613.856 756.903 614.549 757.758 614.549Z" fill="#64C7D6"/>
<path opacity="0.4" d="M865.758 578.924C866.821 578.924 867.682 578.063 867.682 577C867.682 575.938 866.821 575.076 865.758 575.076C864.695 575.076 863.834 575.938 863.834 577C863.834 578.063 864.695 578.924 865.758 578.924Z" fill="#64C7D6"/>
<path opacity="0.4" d="M973.758 578.924C974.821 578.924 975.682 578.063 975.682 577C975.682 575.938 974.821 575.076 973.758 575.076C972.695 575.076 971.834 575.938 971.834 577C971.834 578.063 972.695 578.924 973.758 578.924Z" fill="#64C7D6"/>
<path opacity="0.8" d="M793.758 596.441C794.554 596.441 795.199 595.795 795.199 595C795.199 594.204 794.554 593.559 793.758 593.559C792.962 593.559 792.317 594.204 792.317 595C792.317 595.795 792.962 596.441 793.758 596.441Z" fill="#AAF1F9"/>
<path opacity="0.8" d="M541.758 812.216C542.43 812.216 542.974 811.672 542.974 811C542.974 810.329 542.43 809.784 541.758 809.784C541.086 809.784 540.542 810.329 540.542 811C540.542 811.672 541.086 812.216 541.758 812.216Z" fill="#AAF1F9"/>
<path opacity="0.8" d="M487.758 813.383C489.074 813.383 490.141 812.316 490.141 811C490.141 809.684 489.074 808.617 487.758 808.617C486.442 808.617 485.375 809.684 485.375 811C485.375 812.316 486.442 813.383 487.758 813.383Z" fill="#AAF1F9"/>
<path opacity="0.8" d="M631.758 687.383C633.074 687.383 634.141 686.316 634.141 685C634.141 683.684 633.074 682.617 631.758 682.617C630.442 682.617 629.375 683.684 629.375 685C629.375 686.316 630.442 687.383 631.758 687.383Z" fill="#AAF1F9"/>
<path opacity="0.8" d="M549.542 759.466C550.904 759.466 552.008 758.362 552.008 757C552.008 755.638 550.904 754.534 549.542 754.534C548.18 754.534 547.076 755.638 547.076 757C547.076 758.362 548.18 759.466 549.542 759.466Z" fill="#64C7D6"/>
<path opacity="0.8" d="M577.758 723.466C579.12 723.466 580.224 722.362 580.224 721C580.224 719.638 579.12 718.534 577.758 718.534C576.396 718.534 575.292 719.638 575.292 721C575.292 722.362 576.396 723.466 577.758 723.466Z" fill="#64C7D6"/>
<path opacity="0.8" d="M649.758 651.466C651.12 651.466 652.224 650.362 652.224 649C652.224 647.638 651.12 646.534 649.758 646.534C648.396 646.534 647.292 647.638 647.292 649C647.292 650.362 648.396 651.466 649.758 651.466Z" fill="#64C7D6"/>
<path opacity="0.3" d="M397.758 453.341C399.051 453.341 400.099 452.293 400.099 451C400.099 449.707 399.051 448.659 397.758 448.659C396.465 448.659 395.417 449.707 395.417 451C395.417 452.293 396.465 453.341 397.758 453.341Z" fill="#64C7D6"/>
<path opacity="0.8" d="M415.758 435.341C417.051 435.341 418.099 434.293 418.099 433C418.099 431.707 417.051 430.659 415.758 430.659C414.465 430.659 413.417 431.707 413.417 433C413.417 434.293 414.465 435.341 415.758 435.341Z" fill="#64C7D6"/>
<path opacity="0.8" d="M487.758 471.341C489.051 471.341 490.099 470.293 490.099 469C490.099 467.707 489.051 466.659 487.758 466.659C486.465 466.659 485.417 467.707 485.417 469C485.417 470.293 486.465 471.341 487.758 471.341Z" fill="#64C7D6"/>
<path opacity="0.8" d="M451.758 471.341C453.051 471.341 454.099 470.293 454.099 469C454.099 467.707 453.051 466.659 451.758 466.659C450.465 466.659 449.417 467.707 449.417 469C449.417 470.293 450.465 471.341 451.758 471.341Z" fill="#64C7D6"/>
<path opacity="0.8" d="M433.758 506.683C434.688 506.683 435.441 505.93 435.441 505C435.441 504.071 434.688 503.317 433.758 503.317C432.829 503.317 432.075 504.071 432.075 505C432.075 505.93 432.829 506.683 433.758 506.683Z" fill="#64C7D6"/>
<path opacity="0.8" d="M433.758 578.683C434.688 578.683 435.441 577.93 435.441 577C435.441 576.071 434.688 575.317 433.758 575.317C432.829 575.317 432.075 576.071 432.075 577C432.075 577.93 432.829 578.683 433.758 578.683Z" fill="#64C7D6"/>
<path opacity="0.8" d="M199.758 453.341C201.051 453.341 202.099 452.293 202.099 451C202.099 449.707 201.051 448.659 199.758 448.659C198.465 448.659 197.417 449.707 197.417 451C197.417 452.293 198.465 453.341 199.758 453.341Z" fill="#64C7D6"/>
<path opacity="0.8" d="M127.758 379.787C128.192 379.787 128.545 379.435 128.545 379C128.545 378.565 128.192 378.213 127.758 378.213C127.323 378.213 126.971 378.565 126.971 379C126.971 379.435 127.323 379.787 127.758 379.787Z" fill="#64C7D6"/>
<path opacity="0.8" d="M109.758 308.008C110.315 308.008 110.766 307.557 110.766 307C110.766 306.443 110.315 305.992 109.758 305.992C109.201 305.992 108.75 306.443 108.75 307C108.75 307.557 109.201 308.008 109.758 308.008Z" fill="#64C7D6"/>
<path opacity="0.8" d="M145.758 254.59C146.636 254.59 147.348 253.878 147.348 253C147.348 252.122 146.636 251.41 145.758 251.41C144.88 251.41 144.168 252.122 144.168 253C144.168 253.878 144.88 254.59 145.758 254.59Z" fill="#64C7D6"/>
<path opacity="0.6" d="M181.758 254.716C182.706 254.716 183.474 253.948 183.474 253C183.474 252.052 182.706 251.284 181.758 251.284C180.81 251.284 180.042 252.052 180.042 253C180.042 253.948 180.81 254.716 181.758 254.716Z" fill="#64C7D6"/>
<path opacity="0.6" d="M235.758 218.716C236.706 218.716 237.474 217.948 237.474 217C237.474 216.052 236.706 215.284 235.758 215.284C234.81 215.284 234.042 216.052 234.042 217C234.042 217.948 234.81 218.716 235.758 218.716Z" fill="#64C7D6"/>
<path opacity="0.6" d="M253.758 272.928C254.823 272.928 255.686 272.065 255.686 271C255.686 269.935 254.823 269.072 253.758 269.072C252.693 269.072 251.83 269.935 251.83 271C251.83 272.065 252.693 272.928 253.758 272.928Z" fill="#64C7D6"/>
<path opacity="0.6" d="M343.758 254.148C344.392 254.148 344.906 253.634 344.906 253C344.906 252.366 344.392 251.852 343.758 251.852C343.124 251.852 342.61 252.366 342.61 253C342.61 253.634 343.124 254.148 343.758 254.148Z" fill="#64C7D6"/>
<path opacity="0.6" d="M379.758 290.136C380.385 290.136 380.894 289.628 380.894 289C380.894 288.373 380.385 287.864 379.758 287.864C379.131 287.864 378.622 288.373 378.622 289C378.622 289.628 379.131 290.136 379.758 290.136Z" fill="#64C7D6"/>
<path opacity="0.6" d="M523.758 254.508C524.591 254.508 525.266 253.833 525.266 253C525.266 252.167 524.591 251.492 523.758 251.492C522.925 251.492 522.25 252.167 522.25 253C522.25 253.833 522.925 254.508 523.758 254.508Z" fill="#64C7D6"/>
<path opacity="0.6" d="M649.758 290.256C650.452 290.256 651.014 289.694 651.014 289C651.014 288.306 650.452 287.744 649.758 287.744C649.064 287.744 648.502 288.306 648.502 289C648.502 289.694 649.064 290.256 649.758 290.256Z" fill="#64C7D6"/>
<path opacity="0.6" d="M757.758 291.258C759.005 291.258 760.016 290.247 760.016 289C760.016 287.753 759.005 286.742 757.758 286.742C756.511 286.742 755.5 287.753 755.5 289C755.5 290.247 756.511 291.258 757.758 291.258Z" fill="#64C7D6"/>
<path opacity="0.3" d="M811.758 237.258C813.005 237.258 814.016 236.247 814.016 235C814.016 233.753 813.005 232.742 811.758 232.742C810.511 232.742 809.5 233.753 809.5 235C809.5 236.247 810.511 237.258 811.758 237.258Z" fill="#64C7D6"/>
<path opacity="0.3" d="M902.524 363.258C903.771 363.258 904.782 362.247 904.782 361C904.782 359.753 903.771 358.742 902.524 358.742C901.277 358.742 900.266 359.753 900.266 361C900.266 362.247 901.277 363.258 902.524 363.258Z" fill="#64C7D6"/>
<path opacity="0.3" d="M937.758 345.258C939.005 345.258 940.016 344.247 940.016 343C940.016 341.753 939.005 340.742 937.758 340.742C936.511 340.742 935.5 341.753 935.5 343C935.5 344.247 936.511 345.258 937.758 345.258Z" fill="#64C7D6"/>
<path opacity="0.6" d="M829.758 381.258C831.005 381.258 832.016 380.247 832.016 379C832.016 377.753 831.005 376.742 829.758 376.742C828.511 376.742 827.5 377.753 827.5 379C827.5 380.247 828.511 381.258 829.758 381.258Z" fill="#64C7D6"/>
<path opacity="0.6" d="M793.758 489.258C795.005 489.258 796.016 488.247 796.016 487C796.016 485.753 795.005 484.742 793.758 484.742C792.511 484.742 791.5 485.753 791.5 487C791.5 488.247 792.511 489.258 793.758 489.258Z" fill="#64C7D6"/>
<path opacity="0.6" d="M811.758 525.044C812.887 525.044 813.802 524.129 813.802 523C813.802 521.871 812.887 520.956 811.758 520.956C810.629 520.956 809.714 521.871 809.714 523C809.714 524.129 810.629 525.044 811.758 525.044Z" fill="#64C7D6"/>
<path opacity="0.6" d="M847.758 469.661C848.123 469.661 848.419 469.365 848.419 469C848.419 468.635 848.123 468.339 847.758 468.339C847.393 468.339 847.097 468.635 847.097 469C847.097 469.365 847.393 469.661 847.758 469.661Z" fill="#64C7D6"/>
<path opacity="0.6" d="M1045.76 273.258C1047.01 273.258 1048.02 272.247 1048.02 271C1048.02 269.753 1047.01 268.742 1045.76 268.742C1044.51 268.742 1043.5 269.753 1043.5 271C1043.5 272.247 1044.51 273.258 1045.76 273.258Z" fill="#64C7D6"/>
<path opacity="0.6" d="M1081.76 219.258C1083.01 219.258 1084.02 218.247 1084.02 217C1084.02 215.753 1083.01 214.742 1081.76 214.742C1080.51 214.742 1079.5 215.753 1079.5 217C1079.5 218.247 1080.51 219.258 1081.76 219.258Z" fill="#64C7D6"/>
<path opacity="0.6" d="M1171.76 255.258C1173.01 255.258 1174.02 254.247 1174.02 253C1174.02 251.753 1173.01 250.742 1171.76 250.742C1170.51 250.742 1169.5 251.753 1169.5 253C1169.5 254.247 1170.51 255.258 1171.76 255.258Z" fill="#64C7D6"/>
<path opacity="0.6" d="M1117.76 273.258C1119.01 273.258 1120.02 272.247 1120.02 271C1120.02 269.753 1119.01 268.742 1117.76 268.742C1116.51 268.742 1115.5 269.753 1115.5 271C1115.5 272.247 1116.51 273.258 1117.76 273.258Z" fill="#64C7D6"/>
<path opacity="0.2" d="M1045.76 221.488C1048.24 221.488 1050.25 219.478 1050.25 216.999C1050.25 214.52 1048.24 212.51 1045.76 212.51C1043.28 212.51 1041.27 214.52 1041.27 216.999C1041.27 219.478 1043.28 221.488 1045.76 221.488Z" fill="#64C7D6"/>
<path opacity="0.6" d="M811.758 308.975C812.849 308.975 813.733 308.091 813.733 307C813.733 305.91 812.849 305.025 811.758 305.025C810.667 305.025 809.783 305.91 809.783 307C809.783 308.091 810.667 308.975 811.758 308.975Z" fill="#64C7D6"/>
<path opacity="0.9" d="M883.758 273.258C885.005 273.258 886.016 272.247 886.016 271C886.016 269.753 885.005 268.742 883.758 268.742C882.511 268.742 881.5 269.753 881.5 271C881.5 272.247 882.511 273.258 883.758 273.258Z" fill="#64C7D6"/>
<path opacity="0.6" d="M667.758 253.758C668.177 253.758 668.516 253.419 668.516 253C668.516 252.582 668.177 252.242 667.758 252.242C667.339 252.242 667 252.582 667 253C667 253.419 667.339 253.758 667.758 253.758Z" fill="#64C7D6"/>
<path opacity="0.6" d="M649.758 218.248C650.447 218.248 651.006 217.689 651.006 217C651.006 216.311 650.447 215.752 649.758 215.752C649.069 215.752 648.51 216.311 648.51 217C648.51 217.689 649.069 218.248 649.758 218.248Z" fill="#64C7D6"/>
<path opacity="0.6" d="M649.758 146.131C650.383 146.131 650.889 145.625 650.889 145C650.889 144.376 650.383 143.869 649.758 143.869C649.133 143.869 648.627 144.376 648.627 145C648.627 145.625 649.133 146.131 649.758 146.131Z" fill="#64C7D6"/>
<path opacity="0.9" d="M469.758 344.183C470.412 344.183 470.941 343.654 470.941 343C470.941 342.347 470.412 341.817 469.758 341.817C469.105 341.817 468.575 342.347 468.575 343C468.575 343.654 469.105 344.183 469.758 344.183Z" fill="#64C7D6"/>
<path opacity="0.8" d="M397.758 200.438C398.552 200.438 399.196 199.795 399.196 199C399.196 198.206 398.552 197.562 397.758 197.562C396.964 197.562 396.32 198.206 396.32 199C396.32 199.795 396.964 200.438 397.758 200.438Z" fill="#64C7D6"/>
<path opacity="0.8" d="M433.758 236.438C434.552 236.438 435.196 235.795 435.196 235C435.196 234.206 434.552 233.562 433.758 233.562C432.964 233.562 432.32 234.206 432.32 235C432.32 235.795 432.964 236.438 433.758 236.438Z" fill="#64C7D6"/>
<path opacity="0.8" d="M595.758 272.438C596.552 272.438 597.196 271.795 597.196 271C597.196 270.206 596.552 269.562 595.758 269.562C594.964 269.562 594.32 270.206 594.32 271C594.32 271.795 594.964 272.438 595.758 272.438Z" fill="#64C7D6"/>
<path opacity="0.6" d="M343.758 184.091C345.465 184.091 346.849 182.707 346.849 181C346.849 179.293 345.465 177.909 343.758 177.909C342.051 177.909 340.667 179.293 340.667 181C340.667 182.707 342.051 184.091 343.758 184.091Z" fill="#64C7D6"/>
<path opacity="0.6" d="M289.758 290.383C290.522 290.383 291.141 289.764 291.141 289C291.141 288.236 290.522 287.617 289.758 287.617C288.994 287.617 288.375 288.236 288.375 289C288.375 289.764 288.994 290.383 289.758 290.383Z" fill="#64C7D6"/>
<path opacity="0.6" d="M343.758 326.133C344.384 326.133 344.891 325.626 344.891 325C344.891 324.374 344.384 323.867 343.758 323.867C343.132 323.867 342.625 324.374 342.625 325C342.625 325.626 343.132 326.133 343.758 326.133Z" fill="#64C7D6"/>
<path opacity="0.2" d="M127.758 471.363C129.063 471.363 130.121 470.305 130.121 469C130.121 467.695 129.063 466.637 127.758 466.637C126.452 466.637 125.395 467.695 125.395 469C125.395 470.305 126.452 471.363 127.758 471.363Z" fill="#64C7D6"/>
<path opacity="0.2" d="M73.758 344.517C74.6367 344.517 75.349 343.805 75.349 342.926C75.349 342.047 74.6367 341.335 73.758 341.335C72.8793 341.335 72.167 342.047 72.167 342.926C72.167 343.805 72.8793 344.517 73.758 344.517Z" fill="#64C7D6"/>
<path opacity="0.8" d="M253.758 434.354C254.507 434.354 255.113 433.748 255.113 433C255.113 432.251 254.507 431.645 253.758 431.645C253.01 431.645 252.403 432.251 252.403 433C252.403 433.748 253.01 434.354 253.758 434.354Z" fill="#64C7D6"/>
<path opacity="0.5" d="M37.758 380.924C38.8206 380.924 39.682 380.063 39.682 379C39.682 377.938 38.8206 377.076 37.758 377.076C36.6954 377.076 35.834 377.938 35.834 379C35.834 380.063 36.6954 380.924 37.758 380.924Z" fill="#64C7D6"/>
<path d="M955.758 553.497C962.66 553.497 968.255 547.902 968.255 541C968.255 534.098 962.66 528.503 955.758 528.503C948.856 528.503 943.261 534.098 943.261 541C943.261 547.902 948.856 553.497 955.758 553.497Z" stroke="#963A8D" stroke-miterlimit="10"/>
<path opacity="0.4" d="M739.758 830.447C740.557 830.447 741.205 829.799 741.205 829C741.205 828.201 740.557 827.553 739.758 827.553C738.959 827.553 738.311 828.201 738.311 829C738.311 829.799 738.959 830.447 739.758 830.447Z" fill="#64C7D6"/>
<path opacity="0.4" d="M793.758 813.465C795.119 813.465 796.223 812.362 796.223 811C796.223 809.639 795.119 808.535 793.758 808.535C792.397 808.535 791.293 809.639 791.293 811C791.293 812.362 792.397 813.465 793.758 813.465Z" fill="#64C7D6"/>
<path opacity="0.4" d="M847.758 741.465C849.119 741.465 850.223 740.362 850.223 739C850.223 737.639 849.119 736.535 847.758 736.535C846.397 736.535 845.293 737.639 845.293 739C845.293 740.362 846.397 741.465 847.758 741.465Z" fill="#64C7D6"/>
<path opacity="0.4" d="M883.758 704.714C885.119 704.714 886.223 703.611 886.223 702.249C886.223 700.888 885.119 699.784 883.758 699.784C882.397 699.784 881.293 700.888 881.293 702.249C881.293 703.611 882.397 704.714 883.758 704.714Z" fill="#64C7D6"/>
<path opacity="0.4" d="M829.758 669.465C831.119 669.465 832.223 668.362 832.223 667C832.223 665.639 831.119 664.535 829.758 664.535C828.397 664.535 827.293 665.639 827.293 667C827.293 668.362 828.397 669.465 829.758 669.465Z" fill="#64C7D6"/>
<path opacity="0.8" d="M721.758 758.59C722.636 758.59 723.348 757.878 723.348 757C723.348 756.122 722.636 755.41 721.758 755.41C720.88 755.41 720.168 756.122 720.168 757C720.168 757.878 720.88 758.59 721.758 758.59Z" fill="#64C7D6"/>
<path opacity="0.8" d="M811.758 758.03C812.327 758.03 812.788 757.569 812.788 757C812.788 756.431 812.327 755.97 811.758 755.97C811.189 755.97 810.728 756.431 810.728 757C810.728 757.569 811.189 758.03 811.758 758.03Z" fill="#64C7D6"/>
<path opacity="0.8" d="M847.758 632.03C848.327 632.03 848.788 631.569 848.788 631C848.788 630.431 848.327 629.97 847.758 629.97C847.189 629.97 846.728 630.431 846.728 631C846.728 631.569 847.189 632.03 847.758 632.03Z" fill="#64C7D6"/>
<path opacity="0.8" d="M973.758 650.03C974.327 650.03 974.788 649.569 974.788 649C974.788 648.431 974.327 647.97 973.758 647.97C973.189 647.97 972.728 648.431 972.728 649C972.728 649.569 973.189 650.03 973.758 650.03Z" fill="#64C7D6"/>
<path opacity="0.6" d="M1171.76 327.044C1172.89 327.044 1173.8 326.129 1173.8 325C1173.8 323.871 1172.89 322.956 1171.76 322.956C1170.63 322.956 1169.71 323.871 1169.71 325C1169.71 326.129 1170.63 327.044 1171.76 327.044Z" fill="#64C7D6"/>
<path opacity="0.6" d="M1189.76 362.359C1190.51 362.359 1191.12 361.75 1191.12 361C1191.12 360.249 1190.51 359.641 1189.76 359.641C1189.01 359.641 1188.4 360.249 1188.4 361C1188.4 361.75 1189.01 362.359 1189.76 362.359Z" fill="#64C7D6"/>
<path opacity="0.6" d="M1243.76 344.412C1244.54 344.412 1245.17 343.78 1245.17 343C1245.17 342.22 1244.54 341.588 1243.76 341.588C1242.98 341.588 1242.35 342.22 1242.35 343C1242.35 343.78 1242.98 344.412 1243.76 344.412Z" fill="#64C7D6"/>
<path opacity="0.6" d="M1243.76 344.412C1244.54 344.412 1245.17 343.78 1245.17 343C1245.17 342.22 1244.54 341.588 1243.76 341.588C1242.98 341.588 1242.35 342.22 1242.35 343C1242.35 343.78 1242.98 344.412 1243.76 344.412Z" fill="#64C7D6"/>
<defs>
<linearGradient id="paint0_linear" x1="631.177" y1="469" x2="668.503" y2="469" gradientUnits="userSpaceOnUse">
<stop stop-color="#E7367C"/>
<stop offset="1" stop-color="#473A68"/>
</linearGradient>
<linearGradient id="paint1_linear" x1="622.34" y1="469" x2="677.339" y2="469" gradientUnits="userSpaceOnUse">
<stop stop-color="#E7367C"/>
<stop offset="1" stop-color="#473A68"/>
</linearGradient>
<linearGradient id="paint2_linear" x1="235.46" y1="622" x2="650.055" y2="622" gradientUnits="userSpaceOnUse">
<stop stop-color="#E7367C"/>
<stop offset="1" stop-color="#473A68"/>
</linearGradient>
<linearGradient id="paint3_linear" x1="708.761" y1="954.999" x2="734.755" y2="954.999" gradientUnits="userSpaceOnUse">
<stop stop-color="#E7367C"/>
<stop offset="1" stop-color="#473A68"/>
</linearGradient>
<linearGradient id="paint4_linear" x1="235.27" y1="855.999" x2="272.246" y2="855.999" gradientUnits="userSpaceOnUse">
<stop stop-color="#E7367C"/>
<stop offset="1" stop-color="#473A68"/>
</linearGradient>
<linearGradient id="paint5_linear" x1="217.259" y1="901" x2="236.256" y2="901" gradientUnits="userSpaceOnUse">
<stop stop-color="#E7367C"/>
<stop offset="1" stop-color="#473A68"/>
</linearGradient>
<linearGradient id="paint6_linear" x1="145.321" y1="855.999" x2="236.195" y2="855.999" gradientUnits="userSpaceOnUse">
<stop stop-color="#E7367C"/>
<stop offset="1" stop-color="#473A68"/>
</linearGradient>
<linearGradient id="paint7_linear" x1="1.57811" y1="819.999" x2="235.938" y2="819.999" gradientUnits="userSpaceOnUse">
<stop stop-color="#E7367C"/>
<stop offset="1" stop-color="#473A68"/>
</linearGradient>
<linearGradient id="paint8_linear" x1="37.6684" y1="793" x2="235.847" y2="793" gradientUnits="userSpaceOnUse">
<stop stop-color="#E7367C"/>
<stop offset="1" stop-color="#473A68"/>
</linearGradient>
<linearGradient id="paint9_linear" x1="-nan" y1="-nan" x2="-nan" y2="-nan" gradientUnits="userSpaceOnUse">
<stop stop-color="#E7367C"/>
<stop offset="1" stop-color="#473A68"/>
</linearGradient>
<linearGradient id="paint10_linear" x1="19.5654" y1="730" x2="235.95" y2="730" gradientUnits="userSpaceOnUse">
<stop stop-color="#E7367C"/>
<stop offset="1" stop-color="#473A68"/>
</linearGradient>
<linearGradient id="paint11_linear" x1="73.5151" y1="730" x2="236.001" y2="730" gradientUnits="userSpaceOnUse">
<stop stop-color="#E7367C"/>
<stop offset="1" stop-color="#473A68"/>
</linearGradient>
<linearGradient id="paint12_linear" x1="145.404" y1="730" x2="236.111" y2="730" gradientUnits="userSpaceOnUse">
<stop stop-color="#E7367C"/>
<stop offset="1" stop-color="#473A68"/>
</linearGradient>
<linearGradient id="paint13_linear" x1="145.334" y1="703" x2="236.182" y2="703" gradientUnits="userSpaceOnUse">
<stop stop-color="#E7367C"/>
<stop offset="1" stop-color="#473A68"/>
</linearGradient>
<linearGradient id="paint14_linear" x1="217.268" y1="730" x2="236.248" y2="730" gradientUnits="userSpaceOnUse">
<stop stop-color="#E7367C"/>
<stop offset="1" stop-color="#473A68"/>
</linearGradient>
<linearGradient id="paint15_linear" x1="235.263" y1="712" x2="254.253" y2="712" gradientUnits="userSpaceOnUse">
<stop stop-color="#E7367C"/>
<stop offset="1" stop-color="#473A68"/>
</linearGradient>
<linearGradient id="paint16_linear" x1="235.311" y1="721" x2="290.205" y2="721" gradientUnits="userSpaceOnUse">
<stop stop-color="#E7367C"/>
<stop offset="1" stop-color="#473A68"/>
</linearGradient>
<linearGradient id="paint17_linear" x1="235.351" y1="712" x2="326.165" y2="712" gradientUnits="userSpaceOnUse">
<stop stop-color="#E7367C"/>
<stop offset="1" stop-color="#473A68"/>
</linearGradient>
<linearGradient id="paint18_linear" x1="235.561" y1="748" x2="361.955" y2="748" gradientUnits="userSpaceOnUse">
<stop stop-color="#E7367C"/>
<stop offset="1" stop-color="#473A68"/>
</linearGradient>
<linearGradient id="paint19_linear" x1="235.696" y1="784" x2="379.82" y2="784" gradientUnits="userSpaceOnUse">
<stop stop-color="#E7367C"/>
<stop offset="1" stop-color="#473A68"/>
</linearGradient>
<linearGradient id="paint20_linear" x1="235.534" y1="801.999" x2="343.981" y2="801.999" gradientUnits="userSpaceOnUse">
<stop stop-color="#E7367C"/>
<stop offset="1" stop-color="#473A68"/>
</linearGradient>
<linearGradient id="paint21_linear" x1="235.334" y1="846.999" x2="326.182" y2="846.999" gradientUnits="userSpaceOnUse">
<stop stop-color="#E7367C"/>
<stop offset="1" stop-color="#473A68"/>
</linearGradient>
<linearGradient id="paint22_linear" x1="235.404" y1="819.999" x2="326.111" y2="819.999" gradientUnits="userSpaceOnUse">
<stop stop-color="#E7367C"/>
<stop offset="1" stop-color="#473A68"/>
</linearGradient>
<linearGradient id="paint23_linear" x1="649.263" y1="712" x2="722.252" y2="712" gradientUnits="userSpaceOnUse">
<stop stop-color="#E7367C"/>
<stop offset="1" stop-color="#473A68"/>
</linearGradient>
<linearGradient id="paint24_linear" x1="613.481" y1="991" x2="722.035" y2="991" gradientUnits="userSpaceOnUse">
<stop stop-color="#E7367C"/>
<stop offset="1" stop-color="#473A68"/>
</linearGradient>
<linearGradient id="paint25_linear" x1="649.404" y1="991" x2="722.111" y2="991" gradientUnits="userSpaceOnUse">
<stop stop-color="#E7367C"/>
<stop offset="1" stop-color="#473A68"/>
</linearGradient>
<linearGradient id="paint26_linear" x1="685.27" y1="1036" x2="722.246" y2="1036" gradientUnits="userSpaceOnUse">
<stop stop-color="#E7367C"/>
<stop offset="1" stop-color="#473A68"/>
</linearGradient>
<linearGradient id="paint27_linear" x1="-nan" y1="-nan" x2="-nan" y2="-nan" gradientUnits="userSpaceOnUse">
<stop stop-color="#E7367C"/>
<stop offset="1" stop-color="#473A68"/>
</linearGradient>
<linearGradient id="paint28_linear" x1="721.283" y1="1063" x2="794.232" y2="1063" gradientUnits="userSpaceOnUse">
<stop stop-color="#E7367C"/>
<stop offset="1" stop-color="#473A68"/>
</linearGradient>
<linearGradient id="paint29_linear" x1="721.301" y1="1036" x2="794.215" y2="1036" gradientUnits="userSpaceOnUse">
<stop stop-color="#E7367C"/>
<stop offset="1" stop-color="#473A68"/>
</linearGradient>
<linearGradient id="paint30_linear" x1="721.404" y1="999.999" x2="812.111" y2="999.999" gradientUnits="userSpaceOnUse">
<stop stop-color="#E7367C"/>
<stop offset="1" stop-color="#473A68"/>
</linearGradient>
<linearGradient id="paint31_linear" x1="721.62" y1="972.999" x2="847.896" y2="972.999" gradientUnits="userSpaceOnUse">
<stop stop-color="#E7367C"/>
<stop offset="1" stop-color="#473A68"/>
</linearGradient>
<linearGradient id="paint32_linear" x1="721.501" y1="928" x2="812.015" y2="928" gradientUnits="userSpaceOnUse">
<stop stop-color="#E7367C"/>
<stop offset="1" stop-color="#473A68"/>
</linearGradient>
<linearGradient id="paint33_linear" x1="721.329" y1="910" x2="776.187" y2="910" gradientUnits="userSpaceOnUse">
<stop stop-color="#E7367C"/>
<stop offset="1" stop-color="#473A68"/>
</linearGradient>
<linearGradient id="paint34_linear" x1="667.329" y1="910" x2="722.187" y2="910" gradientUnits="userSpaceOnUse">
<stop stop-color="#E7367C"/>
<stop offset="1" stop-color="#473A68"/>
</linearGradient>
<linearGradient id="paint35_linear" x1="613.6" y1="937" x2="721.916" y2="937" gradientUnits="userSpaceOnUse">
<stop stop-color="#E7367C"/>
<stop offset="1" stop-color="#473A68"/>
</linearGradient>
<linearGradient id="paint36_linear" x1="-nan" y1="-nan" x2="-nan" y2="-nan" gradientUnits="userSpaceOnUse">
<stop stop-color="#E7367C"/>
<stop offset="1" stop-color="#473A68"/>
</linearGradient>
<linearGradient id="paint37_linear" x1="595.561" y1="982" x2="721.955" y2="982" gradientUnits="userSpaceOnUse">
<stop stop-color="#E7367C"/>
<stop offset="1" stop-color="#473A68"/>
</linearGradient>
<linearGradient id="paint38_linear" x1="649.6" y1="370" x2="1243.92" y2="370" gradientUnits="userSpaceOnUse">
<stop stop-color="#E7367C"/>
<stop offset="1" stop-color="#473A68"/>
</linearGradient>
<linearGradient id="paint39_linear" x1="1171.4" y1="235" x2="1244.11" y2="235" gradientUnits="userSpaceOnUse">
<stop stop-color="#E7367C"/>
<stop offset="1" stop-color="#473A68"/>
</linearGradient>
<linearGradient id="paint40_linear" x1="1189.31" y1="217" x2="1244.21" y2="217" gradientUnits="userSpaceOnUse">
<stop stop-color="#E7367C"/>
<stop offset="1" stop-color="#473A68"/>
</linearGradient>
<linearGradient id="paint41_linear" x1="1243.26" y1="181" x2="1262.25" y2="181" gradientUnits="userSpaceOnUse">
<stop stop-color="#E7367C"/>
<stop offset="1" stop-color="#473A68"/>
</linearGradient>
<linearGradient id="paint42_linear" x1="1243.33" y1="226" x2="1298.19" y2="226" gradientUnits="userSpaceOnUse">
<stop stop-color="#E7367C"/>
<stop offset="1" stop-color="#473A68"/>
</linearGradient>
<linearGradient id="paint43_linear" x1="1243.44" y1="226" x2="1352.08" y2="226" gradientUnits="userSpaceOnUse">
<stop stop-color="#E7367C"/>
<stop offset="1" stop-color="#473A68"/>
</linearGradient>
<linearGradient id="paint44_linear" x1="1243.53" y1="253" x2="1315.98" y2="253" gradientUnits="userSpaceOnUse">
<stop stop-color="#E7367C"/>
<stop offset="1" stop-color="#473A68"/>
</linearGradient>
<linearGradient id="paint45_linear" x1="1243.53" y1="289" x2="1315.98" y2="289" gradientUnits="userSpaceOnUse">
<stop stop-color="#E7367C"/>
<stop offset="1" stop-color="#473A68"/>
</linearGradient>
<linearGradient id="paint46_linear" x1="1243.34" y1="325" x2="1316.17" y2="325" gradientUnits="userSpaceOnUse">
<stop stop-color="#E7367C"/>
<stop offset="1" stop-color="#473A68"/>
</linearGradient>
<linearGradient id="paint47_linear" x1="-nan" y1="-nan" x2="-nan" y2="-nan" gradientUnits="userSpaceOnUse">
<stop stop-color="#E7367C"/>
<stop offset="1" stop-color="#473A68"/>
</linearGradient>
<linearGradient id="paint48_linear" x1="1189.33" y1="316" x2="1244.19" y2="316" gradientUnits="userSpaceOnUse">
<stop stop-color="#E7367C"/>
<stop offset="1" stop-color="#473A68"/>
</linearGradient>
<linearGradient id="paint49_linear" x1="1171.46" y1="298" x2="1244.06" y2="298" gradientUnits="userSpaceOnUse">
<stop stop-color="#E7367C"/>
<stop offset="1" stop-color="#473A68"/>
</linearGradient>
<linearGradient id="paint50_linear" x1="1171.64" y1="262" x2="1243.88" y2="262" gradientUnits="userSpaceOnUse">
<stop stop-color="#E7367C"/>
<stop offset="1" stop-color="#473A68"/>
</linearGradient>
<linearGradient id="paint51_linear" x1="649.487" y1="550" x2="902.028" y2="550" gradientUnits="userSpaceOnUse">
<stop stop-color="#E7367C"/>
<stop offset="1" stop-color="#473A68"/>
</linearGradient>
<linearGradient id="paint52_linear" x1="865.342" y1="604" x2="902.174" y2="604" gradientUnits="userSpaceOnUse">
<stop stop-color="#E7367C"/>
<stop offset="1" stop-color="#473A68"/>
</linearGradient>
<linearGradient id="paint53_linear" x1="901.329" y1="586" x2="956.187" y2="586" gradientUnits="userSpaceOnUse">
<stop stop-color="#E7367C"/>
<stop offset="1" stop-color="#473A68"/>
</linearGradient>
<linearGradient id="paint54_linear" x1="829.534" y1="649" x2="901.981" y2="649" gradientUnits="userSpaceOnUse">
<stop stop-color="#E7367C"/>
<stop offset="1" stop-color="#473A68"/>
</linearGradient>
<linearGradient id="paint55_linear" x1="901.265" y1="685" x2="920.251" y2="685" gradientUnits="userSpaceOnUse">
<stop stop-color="#E7367C"/>
<stop offset="1" stop-color="#473A68"/>
</linearGradient>
<linearGradient id="paint56_linear" x1="883.272" y1="667" x2="902.243" y2="667" gradientUnits="userSpaceOnUse">
<stop stop-color="#E7367C"/>
<stop offset="1" stop-color="#473A68"/>
</linearGradient>
<linearGradient id="paint57_linear" x1="901.342" y1="658" x2="938.174" y2="658" gradientUnits="userSpaceOnUse">
<stop stop-color="#E7367C"/>
<stop offset="1" stop-color="#473A68"/>
</linearGradient>
<linearGradient id="paint58_linear" x1="901.637" y1="640" x2="973.879" y2="640" gradientUnits="userSpaceOnUse">
<stop stop-color="#E7367C"/>
<stop offset="1" stop-color="#473A68"/>
</linearGradient>
<linearGradient id="paint59_linear" x1="901.6" y1="622" x2="955.916" y2="622" gradientUnits="userSpaceOnUse">
<stop stop-color="#E7367C"/>
<stop offset="1" stop-color="#473A68"/>
</linearGradient>
<linearGradient id="paint60_linear" x1="-nan" y1="-nan" x2="-nan" y2="-nan" gradientUnits="userSpaceOnUse">
<stop stop-color="#E7367C"/>
<stop offset="1" stop-color="#473A68"/>
</linearGradient>
<linearGradient id="paint61_linear" x1="217.6" y1="397.001" x2="649.917" y2="397.001" gradientUnits="userSpaceOnUse">
<stop stop-color="#E7367C"/>
<stop offset="1" stop-color="#473A68"/>
</linearGradient>
<linearGradient id="paint62_linear" x1="145.404" y1="289.001" x2="218.112" y2="289.001" gradientUnits="userSpaceOnUse">
<stop stop-color="#E7367C"/>
<stop offset="1" stop-color="#473A68"/>
</linearGradient>
<linearGradient id="paint63_linear" x1="181.311" y1="289.001" x2="218.206" y2="289.001" gradientUnits="userSpaceOnUse">
<stop stop-color="#E7367C"/>
<stop offset="1" stop-color="#473A68"/>
</linearGradient>
<linearGradient id="paint64_linear" x1="217.265" y1="271.001" x2="236.251" y2="271.001" gradientUnits="userSpaceOnUse">
<stop stop-color="#E7367C"/>
<stop offset="1" stop-color="#473A68"/>
</linearGradient>
<linearGradient id="paint65_linear" x1="37.6142" y1="352" x2="217.902" y2="352" gradientUnits="userSpaceOnUse">
<stop stop-color="#E7367C"/>
<stop offset="1" stop-color="#473A68"/>
</linearGradient>
<linearGradient id="paint66_linear" x1="73.6958" y1="334" x2="217.82" y2="334" gradientUnits="userSpaceOnUse">
<stop stop-color="#E7367C"/>
<stop offset="1" stop-color="#473A68"/>
</linearGradient>
<linearGradient id="paint67_linear" x1="109.676" y1="316" x2="217.84" y2="316" gradientUnits="userSpaceOnUse">
<stop stop-color="#E7367C"/>
<stop offset="1" stop-color="#473A68"/>
</linearGradient>
<linearGradient id="paint68_linear" x1="127.501" y1="352" x2="218.015" y2="352" gradientUnits="userSpaceOnUse">
<stop stop-color="#E7367C"/>
<stop offset="1" stop-color="#473A68"/>
</linearGradient>
<linearGradient id="paint69_linear" x1="127.334" y1="397" x2="218.182" y2="397" gradientUnits="userSpaceOnUse">
<stop stop-color="#E7367C"/>
<stop offset="1" stop-color="#473A68"/>
</linearGradient>
<linearGradient id="paint70_linear" x1="199.263" y1="388" x2="218.253" y2="388" gradientUnits="userSpaceOnUse">
<stop stop-color="#E7367C"/>
<stop offset="1" stop-color="#473A68"/>
</linearGradient>
<linearGradient id="paint71_linear" x1="217.284" y1="379" x2="254.232" y2="379" gradientUnits="userSpaceOnUse">
<stop stop-color="#E7367C"/>
<stop offset="1" stop-color="#473A68"/>
</linearGradient>
<linearGradient id="paint72_linear" x1="217.342" y1="352" x2="254.174" y2="352" gradientUnits="userSpaceOnUse">
<stop stop-color="#E7367C"/>
<stop offset="1" stop-color="#473A68"/>
</linearGradient>
<linearGradient id="paint73_linear" x1="217.342" y1="298.001" x2="254.174" y2="298.001" gradientUnits="userSpaceOnUse">
<stop stop-color="#E7367C"/>
<stop offset="1" stop-color="#473A68"/>
</linearGradient>
<linearGradient id="paint74_linear" x1="217.534" y1="307" x2="289.981" y2="307" gradientUnits="userSpaceOnUse">
<stop stop-color="#E7367C"/>
<stop offset="1" stop-color="#473A68"/>
</linearGradient>
<linearGradient id="paint75_linear" x1="217.758" y1="325.001" x2="343.758" y2="325.001" gradientUnits="userSpaceOnUse">
<stop stop-color="#E7367C"/>
<stop offset="1" stop-color="#473A68"/>
</linearGradient>
<linearGradient id="paint76_linear" x1="505.324" y1="595" x2="650.192" y2="595" gradientUnits="userSpaceOnUse">
<stop stop-color="#E7367C"/>
<stop offset="1" stop-color="#473A68"/>
</linearGradient>
<linearGradient id="paint77_linear" x1="325.423" y1="640" x2="506.092" y2="640" gradientUnits="userSpaceOnUse">
<stop stop-color="#E7367C"/>
<stop offset="1" stop-color="#473A68"/>
</linearGradient>
<linearGradient id="paint78_linear" x1="415.66" y1="730" x2="505.856" y2="730" gradientUnits="userSpaceOnUse">
<stop stop-color="#E7367C"/>
<stop offset="1" stop-color="#473A68"/>
</linearGradient>
<linearGradient id="paint79_linear" x1="505.265" y1="775" x2="524.251" y2="775" gradientUnits="userSpaceOnUse">
<stop stop-color="#E7367C"/>
<stop offset="1" stop-color="#473A68"/>
</linearGradient>
<linearGradient id="paint80_linear" x1="-nan" y1="-nan" x2="-nan" y2="-nan" gradientUnits="userSpaceOnUse">
<stop stop-color="#E7367C"/>
<stop offset="1" stop-color="#473A68"/>
</linearGradient>
<linearGradient id="paint81_linear" x1="505.445" y1="739" x2="551.07" y2="739" gradientUnits="userSpaceOnUse">
<stop stop-color="#E7367C"/>
<stop offset="1" stop-color="#473A68"/>
</linearGradient>
<linearGradient id="paint82_linear" x1="505.384" y1="388" x2="650.131" y2="388" gradientUnits="userSpaceOnUse">
<stop stop-color="#E7367C"/>
<stop offset="1" stop-color="#473A68"/>
</linearGradient>
<linearGradient id="paint83_linear" x1="469.404" y1="325" x2="506.111" y2="325" gradientUnits="userSpaceOnUse">
<stop stop-color="#E7367C"/>
<stop offset="1" stop-color="#473A68"/>
</linearGradient>
<linearGradient id="paint84_linear" x1="379.687" y1="298" x2="505.829" y2="298" gradientUnits="userSpaceOnUse">
<stop stop-color="#E7367C"/>
<stop offset="1" stop-color="#473A68"/>
</linearGradient>
<linearGradient id="paint85_linear" x1="397.481" y1="271" x2="506.035" y2="271" gradientUnits="userSpaceOnUse">
<stop stop-color="#E7367C"/>
<stop offset="1" stop-color="#473A68"/>
</linearGradient>
<linearGradient id="paint86_linear" x1="505.284" y1="280" x2="524.232" y2="280" gradientUnits="userSpaceOnUse">
<stop stop-color="#E7367C"/>
<stop offset="1" stop-color="#473A68"/>
</linearGradient>
<linearGradient id="paint87_linear" x1="505.572" y1="289" x2="595.943" y2="289" gradientUnits="userSpaceOnUse">
<stop stop-color="#E7367C"/>
<stop offset="1" stop-color="#473A68"/>
</linearGradient>
<linearGradient id="paint88_linear" x1="469.404" y1="856" x2="524.111" y2="856" gradientUnits="userSpaceOnUse">
<stop stop-color="#E7367C"/>
<stop offset="1" stop-color="#473A68"/>
</linearGradient>
<linearGradient id="paint89_linear" x1="487.534" y1="819.999" x2="523.981" y2="819.999" gradientUnits="userSpaceOnUse">
<stop stop-color="#E7367C"/>
<stop offset="1" stop-color="#473A68"/>
</linearGradient>
<linearGradient id="paint90_linear" x1="523.404" y1="819.999" x2="542.111" y2="819.999" gradientUnits="userSpaceOnUse">
<stop stop-color="#E7367C"/>
<stop offset="1" stop-color="#473A68"/>
</linearGradient>
<linearGradient id="paint91_linear" x1="523.284" y1="855.999" x2="542.232" y2="855.999" gradientUnits="userSpaceOnUse">
<stop stop-color="#E7367C"/>
<stop offset="1" stop-color="#473A68"/>
</linearGradient>
<linearGradient id="paint92_linear" x1="361.384" y1="802" x2="506.131" y2="802" gradientUnits="userSpaceOnUse">
<stop stop-color="#E7367C"/>
<stop offset="1" stop-color="#473A68"/>
</linearGradient>
<linearGradient id="paint93_linear" x1="343.6" y1="244" x2="397.916" y2="244" gradientUnits="userSpaceOnUse">
<stop stop-color="#E7367C"/>
<stop offset="1" stop-color="#473A68"/>
</linearGradient>
<linearGradient id="paint94_linear" x1="343.404" y1="208" x2="398.111" y2="208" gradientUnits="userSpaceOnUse">
<stop stop-color="#E7367C"/>
<stop offset="1" stop-color="#473A68"/>
</linearGradient>
<linearGradient id="paint95_linear" x1="-nan" y1="-nan" x2="-nan" y2="-nan" gradientUnits="userSpaceOnUse">
<stop stop-color="#E7367C"/>
<stop offset="1" stop-color="#473A68"/>
</linearGradient>
<linearGradient id="paint96_linear" x1="-nan" y1="-nan" x2="-nan" y2="-nan" gradientUnits="userSpaceOnUse">
<stop stop-color="#E7367C"/>
<stop offset="1" stop-color="#473A68"/>
</linearGradient>
<linearGradient id="paint97_linear" x1="937.404" y1="532" x2="956.111" y2="532" gradientUnits="userSpaceOnUse">
<stop stop-color="#E7367C"/>
<stop offset="1" stop-color="#473A68"/>
</linearGradient>
<linearGradient id="paint98_linear" x1="955.272" y1="505" x2="974.243" y2="505" gradientUnits="userSpaceOnUse">
<stop stop-color="#E7367C"/>
<stop offset="1" stop-color="#473A68"/>
</linearGradient>
<linearGradient id="paint99_linear" x1="955.311" y1="559" x2="974.205" y2="559" gradientUnits="userSpaceOnUse">
<stop stop-color="#E7367C"/>
<stop offset="1" stop-color="#473A68"/>
</linearGradient>
<linearGradient id="paint100_linear" x1="955.637" y1="550" x2="1027.88" y2="550" gradientUnits="userSpaceOnUse">
<stop stop-color="#E7367C"/>
<stop offset="1" stop-color="#473A68"/>
</linearGradient>
<linearGradient id="paint101_linear" x1="649.291" y1="352" x2="740.225" y2="352" gradientUnits="userSpaceOnUse">
<stop stop-color="#E7367C"/>
<stop offset="1" stop-color="#473A68"/>
</linearGradient>
<linearGradient id="paint102_linear" x1="739.283" y1="262" x2="758.232" y2="262" gradientUnits="userSpaceOnUse">
<stop stop-color="#E7367C"/>
<stop offset="1" stop-color="#473A68"/>
</linearGradient>
<linearGradient id="paint103_linear" x1="649.404" y1="190" x2="740.111" y2="190" gradientUnits="userSpaceOnUse">
<stop stop-color="#E7367C"/>
<stop offset="1" stop-color="#473A68"/>
</linearGradient>
<linearGradient id="paint104_linear" x1="649.501" y1="262" x2="740.015" y2="262" gradientUnits="userSpaceOnUse">
<stop stop-color="#E7367C"/>
<stop offset="1" stop-color="#473A68"/>
</linearGradient>
<linearGradient id="paint105_linear" x1="667.637" y1="244" x2="739.879" y2="244" gradientUnits="userSpaceOnUse">
<stop stop-color="#E7367C"/>
<stop offset="1" stop-color="#473A68"/>
</linearGradient>
<linearGradient id="paint106_linear" x1="649.66" y1="226" x2="739.856" y2="226" gradientUnits="userSpaceOnUse">
<stop stop-color="#E7367C"/>
<stop offset="1" stop-color="#473A68"/>
</linearGradient>
<linearGradient id="paint107_linear" x1="739.445" y1="163" x2="920.07" y2="163" gradientUnits="userSpaceOnUse">
<stop stop-color="#E7367C"/>
<stop offset="1" stop-color="#473A68"/>
</linearGradient>
<linearGradient id="paint108_linear" x1="865.6" y1="82" x2="919.916" y2="82" gradientUnits="userSpaceOnUse">
<stop stop-color="#E7367C"/>
<stop offset="1" stop-color="#473A68"/>
</linearGradient>
<linearGradient id="paint109_linear" x1="919.272" y1="127" x2="938.243" y2="127" gradientUnits="userSpaceOnUse">
<stop stop-color="#E7367C"/>
<stop offset="1" stop-color="#473A68"/>
</linearGradient>
<linearGradient id="paint110_linear" x1="919.404" y1="109" x2="956.111" y2="109" gradientUnits="userSpaceOnUse">
<stop stop-color="#E7367C"/>
<stop offset="1" stop-color="#473A68"/>
</linearGradient>
<linearGradient id="paint111_linear" x1="901.404" y1="82" x2="920.111" y2="82" gradientUnits="userSpaceOnUse">
<stop stop-color="#E7367C"/>
<stop offset="1" stop-color="#473A68"/>
</linearGradient>
<linearGradient id="paint112_linear" x1="-nan" y1="-nan" x2="-nan" y2="-nan" gradientUnits="userSpaceOnUse">
<stop stop-color="#E7367C"/>
<stop offset="1" stop-color="#473A68"/>
</linearGradient>
<linearGradient id="paint113_linear" x1="919.534" y1="64" x2="1027.98" y2="64" gradientUnits="userSpaceOnUse">
<stop stop-color="#E7367C"/>
<stop offset="1" stop-color="#473A68"/>
</linearGradient>
<linearGradient id="paint114_linear" x1="919.404" y1="73" x2="956.111" y2="73" gradientUnits="userSpaceOnUse">
<stop stop-color="#E7367C"/>
<stop offset="1" stop-color="#473A68"/>
</linearGradient>
<linearGradient id="paint115_linear" x1="901.283" y1="118" x2="920.232" y2="118" gradientUnits="userSpaceOnUse">
<stop stop-color="#E7367C"/>
<stop offset="1" stop-color="#473A68"/>
</linearGradient>
<linearGradient id="paint116_linear" x1="1207.48" y1="73" x2="1262.04" y2="73" gradientUnits="userSpaceOnUse">
<stop stop-color="#E7367C"/>
<stop offset="1" stop-color="#473A68"/>
</linearGradient>
<linearGradient id="paint117_linear" x1="1225.53" y1="100" x2="1261.98" y2="100" gradientUnits="userSpaceOnUse">
<stop stop-color="#E7367C"/>
<stop offset="1" stop-color="#473A68"/>
</linearGradient>
<linearGradient id="paint118_linear" x1="1225.29" y1="46" x2="1262.22" y2="46" gradientUnits="userSpaceOnUse">
<stop stop-color="#E7367C"/>
<stop offset="1" stop-color="#473A68"/>
</linearGradient>
<linearGradient id="paint119_linear" x1="1261.4" y1="64" x2="1316.11" y2="64" gradientUnits="userSpaceOnUse">
<stop stop-color="#E7367C"/>
<stop offset="1" stop-color="#473A68"/>
</linearGradient>
<linearGradient id="paint120_linear" x1="1261.4" y1="109" x2="1298.11" y2="109" gradientUnits="userSpaceOnUse">
<stop stop-color="#E7367C"/>
<stop offset="1" stop-color="#473A68"/>
</linearGradient>
<linearGradient id="paint121_linear" x1="649.464" y1="397" x2="848.052" y2="397" gradientUnits="userSpaceOnUse">
<stop stop-color="#E7367C"/>
<stop offset="1" stop-color="#473A68"/>
</linearGradient>
<linearGradient id="paint122_linear" x1="811.534" y1="316" x2="847.981" y2="316" gradientUnits="userSpaceOnUse">
<stop stop-color="#E7367C"/>
<stop offset="1" stop-color="#473A68"/>
</linearGradient>
<linearGradient id="paint123_linear" x1="811.294" y1="280" x2="848.222" y2="280" gradientUnits="userSpaceOnUse">
<stop stop-color="#E7367C"/>
<stop offset="1" stop-color="#473A68"/>
</linearGradient>
<linearGradient id="paint124_linear" x1="829.283" y1="352" x2="848.232" y2="352" gradientUnits="userSpaceOnUse">
<stop stop-color="#E7367C"/>
<stop offset="1" stop-color="#473A68"/>
</linearGradient>
<linearGradient id="paint125_linear" x1="847.565" y1="280" x2="1063.95" y2="280" gradientUnits="userSpaceOnUse">
<stop stop-color="#E7367C"/>
<stop offset="1" stop-color="#473A68"/>
</linearGradient>
<linearGradient id="paint126_linear" x1="1045.4" y1="226" x2="1064.11" y2="226" gradientUnits="userSpaceOnUse">
<stop stop-color="#E7367C"/>
<stop offset="1" stop-color="#473A68"/>
</linearGradient>
<linearGradient id="paint127_linear" x1="1045.31" y1="253" x2="1064.21" y2="253" gradientUnits="userSpaceOnUse">
<stop stop-color="#E7367C"/>
<stop offset="1" stop-color="#473A68"/>
</linearGradient>
<linearGradient id="paint128_linear" x1="-nan" y1="-nan" x2="-nan" y2="-nan" gradientUnits="userSpaceOnUse">
<stop stop-color="#E7367C"/>
<stop offset="1" stop-color="#473A68"/>
</linearGradient>
<linearGradient id="paint129_linear" x1="1063.4" y1="226" x2="1082.11" y2="226" gradientUnits="userSpaceOnUse">
<stop stop-color="#E7367C"/>
<stop offset="1" stop-color="#473A68"/>
</linearGradient>
<linearGradient id="paint130_linear" x1="1063.48" y1="253" x2="1118.04" y2="253" gradientUnits="userSpaceOnUse">
<stop stop-color="#E7367C"/>
<stop offset="1" stop-color="#473A68"/>
</linearGradient>
<linearGradient id="paint131_linear" x1="847.66" y1="334" x2="937.856" y2="334" gradientUnits="userSpaceOnUse">
<stop stop-color="#E7367C"/>
<stop offset="1" stop-color="#473A68"/>
</linearGradient>
<linearGradient id="paint132_linear" x1="847.481" y1="343" x2="902.035" y2="343" gradientUnits="userSpaceOnUse">
<stop stop-color="#E7367C"/>
<stop offset="1" stop-color="#473A68"/>
</linearGradient>
<linearGradient id="paint133_linear" x1="847.342" y1="298" x2="884.174" y2="298" gradientUnits="userSpaceOnUse">
<stop stop-color="#E7367C"/>
<stop offset="1" stop-color="#473A68"/>
</linearGradient>
<linearGradient id="paint134_linear" x1="289.342" y1="586" x2="326.174" y2="586" gradientUnits="userSpaceOnUse">
<stop stop-color="#E7367C"/>
<stop offset="1" stop-color="#473A68"/>
</linearGradient>
<linearGradient id="paint135_linear" x1="181.696" y1="568" x2="325.82" y2="568" gradientUnits="userSpaceOnUse">
<stop stop-color="#E7367C"/>
<stop offset="1" stop-color="#473A68"/>
</linearGradient>
<linearGradient id="paint136_linear" x1="199.561" y1="532" x2="325.955" y2="532" gradientUnits="userSpaceOnUse">
<stop stop-color="#E7367C"/>
<stop offset="1" stop-color="#473A68"/>
</linearGradient>
<linearGradient id="paint137_linear" x1="271.404" y1="532" x2="326.111" y2="532" gradientUnits="userSpaceOnUse">
<stop stop-color="#E7367C"/>
<stop offset="1" stop-color="#473A68"/>
</linearGradient>
<linearGradient id="paint138_linear" x1="-nan" y1="-nan" x2="-nan" y2="-nan" gradientUnits="userSpaceOnUse">
<stop stop-color="#E7367C"/>
<stop offset="1" stop-color="#473A68"/>
</linearGradient>
<linearGradient id="paint139_linear" x1="325.311" y1="541" x2="344.205" y2="541" gradientUnits="userSpaceOnUse">
<stop stop-color="#E7367C"/>
<stop offset="1" stop-color="#473A68"/>
</linearGradient>
<linearGradient id="paint140_linear" x1="487.649" y1="487" x2="649.866" y2="487" gradientUnits="userSpaceOnUse">
<stop stop-color="#E7367C"/>
<stop offset="1" stop-color="#473A68"/>
</linearGradient>
<linearGradient id="paint141_linear" x1="451.534" y1="496" x2="487.981" y2="496" gradientUnits="userSpaceOnUse">
<stop stop-color="#E7367C"/>
<stop offset="1" stop-color="#473A68"/>
</linearGradient>
<linearGradient id="paint142_linear" x1="433.358" y1="541" x2="488.158" y2="541" gradientUnits="userSpaceOnUse">
<stop stop-color="#E7367C"/>
<stop offset="1" stop-color="#473A68"/>
</linearGradient>
<linearGradient id="paint143_linear" x1="505.384" y1="550" x2="650.131" y2="550" gradientUnits="userSpaceOnUse">
<stop stop-color="#E7367C"/>
<stop offset="1" stop-color="#473A68"/>
</linearGradient>
<linearGradient id="paint144_linear" x1="-nan" y1="-nan" x2="-nan" y2="-nan" gradientUnits="userSpaceOnUse">
<stop stop-color="#E7367C"/>
<stop offset="1" stop-color="#473A68"/>
</linearGradient>
<linearGradient id="paint145_linear" x1="469.404" y1="649" x2="506.111" y2="649" gradientUnits="userSpaceOnUse">
<stop stop-color="#E7367C"/>
<stop offset="1" stop-color="#473A68"/>
</linearGradient>
<linearGradient id="paint146_linear" x1="649.329" y1="514" x2="704.187" y2="514" gradientUnits="userSpaceOnUse">
<stop stop-color="#E7367C"/>
<stop offset="1" stop-color="#473A68"/>
</linearGradient>
<linearGradient id="paint147_linear" x1="703.272" y1="523" x2="722.243" y2="523" gradientUnits="userSpaceOnUse">
<stop stop-color="#E7367C"/>
<stop offset="1" stop-color="#473A68"/>
</linearGradient>
<linearGradient id="paint148_linear" x1="703.534" y1="532" x2="811.981" y2="532" gradientUnits="userSpaceOnUse">
<stop stop-color="#E7367C"/>
<stop offset="1" stop-color="#473A68"/>
</linearGradient>
<linearGradient id="paint149_linear" x1="631.637" y1="568" x2="703.879" y2="568" gradientUnits="userSpaceOnUse">
<stop stop-color="#E7367C"/>
<stop offset="1" stop-color="#473A68"/>
</linearGradient>
<linearGradient id="paint150_linear" x1="-nan" y1="-nan" x2="-nan" y2="-nan" gradientUnits="userSpaceOnUse">
<stop stop-color="#E7367C"/>
<stop offset="1" stop-color="#473A68"/>
</linearGradient>
<linearGradient id="paint151_linear" x1="703.27" y1="640" x2="740.246" y2="640" gradientUnits="userSpaceOnUse">
<stop stop-color="#E7367C"/>
<stop offset="1" stop-color="#473A68"/>
</linearGradient>
<linearGradient id="paint152_linear" x1="793.404" y1="496" x2="812.111" y2="496" gradientUnits="userSpaceOnUse">
<stop stop-color="#E7367C"/>
<stop offset="1" stop-color="#473A68"/>
</linearGradient>
<linearGradient id="paint153_linear" x1="-nan" y1="-nan" x2="-nan" y2="-nan" gradientUnits="userSpaceOnUse">
<stop stop-color="#E7367C"/>
<stop offset="1" stop-color="#473A68"/>
</linearGradient>
<linearGradient id="paint154_linear" x1="811.404" y1="487" x2="848.111" y2="487" gradientUnits="userSpaceOnUse">
<stop stop-color="#E7367C"/>
<stop offset="1" stop-color="#473A68"/>
</linearGradient>
<linearGradient id="paint155_linear" x1="721.311" y1="739" x2="740.205" y2="739" gradientUnits="userSpaceOnUse">
<stop stop-color="#E7367C"/>
<stop offset="1" stop-color="#473A68"/>
</linearGradient>
<linearGradient id="paint156_linear" x1="739.329" y1="766" x2="794.187" y2="766" gradientUnits="userSpaceOnUse">
<stop stop-color="#E7367C"/>
<stop offset="1" stop-color="#473A68"/>
</linearGradient>
<linearGradient id="paint157_linear" x1="739.534" y1="739" x2="811.981" y2="739" gradientUnits="userSpaceOnUse">
<stop stop-color="#E7367C"/>
<stop offset="1" stop-color="#473A68"/>
</linearGradient>
<linearGradient id="paint158_linear" x1="631.637" y1="676" x2="703.879" y2="676" gradientUnits="userSpaceOnUse">
<stop stop-color="#E7367C"/>
<stop offset="1" stop-color="#473A68"/>
</linearGradient>
<linearGradient id="paint159_linear" x1="-nan" y1="-nan" x2="-nan" y2="-nan" gradientUnits="userSpaceOnUse">
<stop stop-color="#E7367C"/>
<stop offset="1" stop-color="#473A68"/>
</linearGradient>
<linearGradient id="paint160_linear" x1="703.6" y1="676" x2="757.916" y2="676" gradientUnits="userSpaceOnUse">
<stop stop-color="#E7367C"/>
<stop offset="1" stop-color="#473A68"/>
</linearGradient>
<linearGradient id="paint161_linear" x1="-nan" y1="-nan" x2="-nan" y2="-nan" gradientUnits="userSpaceOnUse">
<stop stop-color="#E7367C"/>
<stop offset="1" stop-color="#473A68"/>
</linearGradient>
<linearGradient id="paint162_linear" x1="451.534" y1="478" x2="487.981" y2="478" gradientUnits="userSpaceOnUse">
<stop stop-color="#E7367C"/>
<stop offset="1" stop-color="#473A68"/>
</linearGradient>
<linearGradient id="paint163_linear" x1="433.404" y1="496" x2="452.111" y2="496" gradientUnits="userSpaceOnUse">
<stop stop-color="#E7367C"/>
<stop offset="1" stop-color="#473A68"/>
</linearGradient>
<linearGradient id="paint164_linear" x1="397.481" y1="469" x2="452.035" y2="469" gradientUnits="userSpaceOnUse">
<stop stop-color="#E7367C"/>
<stop offset="1" stop-color="#473A68"/>
</linearGradient>
<linearGradient id="paint165_linear" x1="415.342" y1="460" x2="452.174" y2="460" gradientUnits="userSpaceOnUse">
<stop stop-color="#E7367C"/>
<stop offset="1" stop-color="#473A68"/>
</linearGradient>
<linearGradient id="paint166_linear" x1="433.284" y1="514" x2="452.232" y2="514" gradientUnits="userSpaceOnUse">
<stop stop-color="#E7367C"/>
<stop offset="1" stop-color="#473A68"/>
</linearGradient>
<linearGradient id="paint167_linear" x1="739.676" y1="730" x2="847.84" y2="730" gradientUnits="userSpaceOnUse">
<stop stop-color="#E7367C"/>
<stop offset="1" stop-color="#473A68"/>
</linearGradient>
<linearGradient id="paint168_linear" x1="-nan" y1="-nan" x2="-nan" y2="-nan" gradientUnits="userSpaceOnUse">
<stop stop-color="#E7367C"/>
<stop offset="1" stop-color="#473A68"/>
</linearGradient>
<linearGradient id="paint169_linear" x1="703.404" y1="640" x2="758.111" y2="640" gradientUnits="userSpaceOnUse">
<stop stop-color="#E7367C"/>
<stop offset="1" stop-color="#473A68"/>
</linearGradient>
<linearGradient id="paint170_linear" x1="649.6" y1="658" x2="703.916" y2="658" gradientUnits="userSpaceOnUse">
<stop stop-color="#E7367C"/>
<stop offset="1" stop-color="#473A68"/>
</linearGradient>
<linearGradient id="paint171_linear" x1="703.572" y1="577" x2="793.943" y2="577" gradientUnits="userSpaceOnUse">
<stop stop-color="#E7367C"/>
<stop offset="1" stop-color="#473A68"/>
</linearGradient>
<linearGradient id="paint172_linear" x1="346.885" y1="535.576" x2="344.885" y2="567.576" gradientUnits="userSpaceOnUse">
<stop stop-color="#E7367C"/>
<stop offset="1" stop-color="#473A68"/>
</linearGradient>
<linearGradient id="paint173_linear" x1="367.542" y1="539.296" x2="366.476" y2="547.955" gradientUnits="userSpaceOnUse">
<stop stop-color="#E7367C"/>
<stop offset="1" stop-color="#473A68"/>
</linearGradient>
<linearGradient id="paint174_linear" x1="712.258" y1="196.375" x2="718.508" y2="196.375" gradientUnits="userSpaceOnUse">
<stop stop-color="#E7367C"/>
<stop offset="1" stop-color="#473A68"/>
</linearGradient>
<linearGradient id="paint175_linear" x1="722.758" y1="196.375" x2="749.258" y2="196.375" gradientUnits="userSpaceOnUse">
<stop stop-color="#E7367C"/>
<stop offset="1" stop-color="#473A68"/>
</linearGradient>
<linearGradient id="paint176_linear" x1="748.258" y1="709.375" x2="754.508" y2="709.375" gradientUnits="userSpaceOnUse">
<stop stop-color="#E7367C"/>
<stop offset="1" stop-color="#473A68"/>
</linearGradient>
<linearGradient id="paint177_linear" x1="758.758" y1="709.375" x2="785.258" y2="709.375" gradientUnits="userSpaceOnUse">
<stop stop-color="#E7367C"/>
<stop offset="1" stop-color="#473A68"/>
</linearGradient>
<linearGradient id="paint178_linear" x1="532.258" y1="705.625" x2="538.508" y2="705.625" gradientUnits="userSpaceOnUse">
<stop stop-color="#E7367C"/>
<stop offset="1" stop-color="#473A68"/>
</linearGradient>
<linearGradient id="paint179_linear" x1="542.758" y1="705.625" x2="569.258" y2="705.625" gradientUnits="userSpaceOnUse">
<stop stop-color="#E7367C"/>
<stop offset="1" stop-color="#473A68"/>
</linearGradient>
<linearGradient id="paint180_linear" x1="745.633" y1="930.625" x2="751.883" y2="930.625" gradientUnits="userSpaceOnUse">
<stop stop-color="#E7367C"/>
<stop offset="1" stop-color="#473A68"/>
</linearGradient>
<linearGradient id="paint181_linear" x1="756.133" y1="930.624" x2="794.258" y2="930.624" gradientUnits="userSpaceOnUse">
<stop stop-color="#E7367C"/>
<stop offset="1" stop-color="#473A68"/>
</linearGradient>
<linearGradient id="paint182_linear" x1="578.159" y1="469" x2="721.522" y2="469" gradientUnits="userSpaceOnUse">
<stop stop-color="#E7367C"/>
<stop offset="1" stop-color="#473A68"/>
</linearGradient>
</defs>
</svg>
