<svg width="132" height="114" xmlns="http://www.w3.org/2000/svg" xmlns:xlink="http://www.w3.org/1999/xlink"><defs><path id="a" d="M92.98.22H.72v111.72h92.26z"/><path id="c" d="M31.544 114H0V.806h31.544z"/></defs><g fill="#fff" fill-rule="evenodd"><g transform="translate(39 -.22)"><mask id="b"><use xlink:href="#a"/></mask><path d="M20.342 14.084c0-2.255 3.305-7.123 5.93-10.397 2.626 3.272 5.93 8.14 5.93 10.397 0 3.27-2.66 5.93-5.93 5.93-3.27 0-5.93-2.66-5.93-5.93M9.75 84.904C8.156 83.31 7.05 77.53 6.592 73.36c4.17.458 9.95 1.563 11.545 3.158 2.19 2.19 2.278 5.667.32 7.995-.115.06-.23.12-.326.218a1.32 1.32 0 0 0-.24.38c-2.27 2.015-5.973 1.96-8.136-.202m0-23.567c-1.593-1.594-2.7-7.373-3.157-11.545 4.17.46 9.95 1.564 11.545 3.16 1.788 1.787 2.177 4.436 1.2 6.617-.404.8-.855 1.41-1.41 1.94-2.267 2.05-6 2.005-8.176-.17m0-23.57c-1.593-1.592-2.7-7.37-3.157-11.543 4.17.457 9.947 1.562 11.544 3.16a5.938 5.938 0 0 1 0 8.384c-2.24 2.24-6.146 2.24-8.386 0m24.66-8.385c1.594-1.595 7.373-2.7 11.545-3.16-.46 4.172-1.563 9.95-3.16 11.545-2.24 2.24-6.145 2.24-8.386 0a5.89 5.89 0 0 1-1.738-4.19c0-1.586.617-3.075 1.737-4.195m0 23.567c1.595-1.593 7.374-2.7 11.545-3.157-.46 4.172-1.565 9.95-3.16 11.545-2.175 2.176-5.91 2.22-8.174.17-.707-.688-1.093-1.107-1.417-1.937a5.89 5.89 0 0 1 1.206-6.618m0 23.568c1.596-1.595 7.375-2.7 11.546-3.16-.457 4.173-1.563 9.95-3.157 11.546-2.163 2.162-5.864 2.216-8.134.202a1.345 1.345 0 0 0-.246-.377 1.276 1.276 0 0 0-.33-.22c-.9-1.07-1.413-2.39-1.413-3.8a5.89 5.89 0 0 1 1.738-4.193m33.17-44.38c0-1.638 2.416-5.322 4.57-8.046 2.152 2.724 4.567 6.408 4.567 8.046 0 2.52-2.05 4.568-4.568 4.568a4.573 4.573 0 0 1-4.568-4.567M58.9 89.53c-1.158-1.158-2.056-5.47-2.46-8.92 3.447.404 7.76 1.3 8.92 2.46 1.683 1.684 1.755 4.353.257 6.146-.09.055-.185.098-.262.176-.09.09-.14.198-.2.303-1.75 1.542-4.593 1.5-6.255-.164m0-19.152c-1.158-1.16-2.056-5.47-2.46-8.92 3.447.402 7.76 1.3 8.92 2.46a4.574 4.574 0 0 1 1.01 4.92c-.457 1.077-.658 1.31-1.317 1.787-1.756 1.454-4.522 1.385-6.153-.246m0-19.158c-1.158-1.16-2.056-5.472-2.46-8.92 3.447.4 7.76 1.3 8.92 2.46a4.574 4.574 0 0 1 0 6.46c-1.726 1.725-4.735 1.725-6.46 0m20.044-6.46c1.16-1.16 5.47-2.057 8.92-2.46-.403 3.448-1.3 7.76-2.46 8.92-1.725 1.725-4.734 1.725-6.46 0a4.574 4.574 0 0 1 0-6.46m0 19.156c1.16-1.158 5.47-2.055 8.92-2.46-.403 3.45-1.3 7.76-2.46 8.92-1.63 1.633-4.396 1.7-6.153.248-.64-.508-.94-.877-1.312-1.785a4.574 4.574 0 0 1 1.01-4.922m0 19.158c1.16-1.158 5.472-2.055 8.92-2.46-.403 3.45-1.3 7.76-2.46 8.92-1.662 1.664-4.505 1.707-6.255.166-.06-.104-.11-.213-.2-.303-.077-.08-.173-.12-.262-.178-1.497-1.794-1.425-4.46.258-6.146m12.687 26.17H73.5V96.68l4.5-4.45a7.2 7.2 0 0 0 4.177 1.338c1.94 0 3.765-.756 5.138-2.13 2.535-2.534 3.277-10.63 3.4-12.226a1.35 1.35 0 0 0-.39-1.058 1.307 1.307 0 0 0-1.06-.39c-1.596.12-9.692.862-12.227 3.4-2.48 2.48-2.79 6.32-.927 9.14l-2.61 2.58V76.512l3.94-3.897c1.32 1.144 2.97 1.796 4.74 1.796a7.22 7.22 0 0 0 5.137-2.124c2.535-2.535 3.277-10.63 3.4-12.228a1.35 1.35 0 0 0-.39-1.057 1.34 1.34 0 0 0-1.06-.39c-1.596.12-9.692.86-12.227 3.398-2.295 2.294-2.7 5.74-1.278 8.477l-2.26 2.233V58.51l4.58-4.528a7.213 7.213 0 0 0 4.096 1.272 7.22 7.22 0 0 0 5.138-2.13c2.535-2.534 3.277-10.63 3.4-12.228a1.35 1.35 0 0 0-1.45-1.45c-1.596.123-9.692.864-12.227 3.4-2.507 2.505-2.79 6.394-.864 9.22l-2.675 2.65V39.27c3.365-.635 5.92-3.585 5.92-7.13 0-3.585-5.2-9.834-6.243-11.05-.513-.598-1.536-.598-2.05 0-1.042 1.216-6.24 7.465-6.24 11.05 0 3.545 2.553 6.495 5.916 7.13v15.443L68.13 52.07c1.925-2.828 1.644-6.717-.862-9.222-2.536-2.536-10.63-3.277-12.228-3.4a1.347 1.347 0 0 0-1.45 1.448c.124 1.598.866 9.694 3.4 12.23a7.224 7.224 0 0 0 5.14 2.128c1.484 0 2.897-.45 4.096-1.272l4.576 4.528v14.205l-2.257-2.233c1.42-2.737 1.017-6.183-1.277-8.477-2.536-2.536-10.63-3.277-12.228-3.4-.394-.04-.78.114-1.058.392s-.42.665-.39 1.057c.122 1.598.864 9.693 3.4 12.228a7.224 7.224 0 0 0 5.137 2.13c1.76 0 3.41-.653 4.73-1.797l3.94 3.897v16.37l-2.608-2.578c1.862-2.82 1.554-6.66-.927-9.14-2.535-2.538-10.63-3.28-12.228-3.4a1.348 1.348 0 0 0-1.45 1.448c.122 1.597.864 9.692 3.4 12.227a7.22 7.22 0 0 0 5.137 2.124 7.2 7.2 0 0 0 4.176-1.337l4.497 4.45v12.56H27.62V93.35l5.822-5.762c1.485 1.118 3.266 1.752 5.157 1.752a8.573 8.573 0 0 0 6.1-2.528c3.106-3.106 4-13.654 4.092-14.846.03-.393-.113-.78-.39-1.058a1.303 1.303 0 0 0-1.06-.39c-1.19.09-11.74.985-14.846 4.09a8.57 8.57 0 0 0-2.53 6.102c0 1.802.566 3.51 1.583 4.952l-3.93 3.89V68.54l5.135-5.082c1.6 1.48 3.652 2.315 5.843 2.315a8.573 8.573 0 0 0 6.1-2.528c3.108-3.104 4-13.654 4.094-14.846a1.352 1.352 0 0 0-1.45-1.45c-1.19.09-11.74.982-14.846 4.09a8.57 8.57 0 0 0-2.53 6.1c0 1.49.41 2.903 1.117 4.17l-3.466 3.43V46.394l5.92-5.86a8.576 8.576 0 0 0 11.16-.856c3.11-3.108 4.002-13.657 4.094-14.85.03-.39-.112-.78-.39-1.056a1.312 1.312 0 0 0-1.06-.39c-1.19.09-11.74.985-14.845 4.09a8.573 8.573 0 0 0-.866 11.152l-4.014 3.97v-20.02c4.115-.653 7.28-4.197 7.28-8.493C34.9 9.69 28.074 1.6 27.296.69a1.354 1.354 0 0 0-2.05 0c-.777.91-7.604 9-7.604 13.394 0 4.296 3.165 7.84 7.28 8.493v20.02l-4.016-3.974c2.443-3.37 2.174-8.11-.862-11.147-3.107-3.106-13.654-4-14.847-4.092a1.317 1.317 0 0 0-1.057.39 1.36 1.36 0 0 0-.39 1.06c.09 1.19.986 11.74 4.09 14.845a8.578 8.578 0 0 0 6.104 2.522c1.85 0 3.594-.6 5.06-1.67l5.92 5.86V64.74l-3.468-3.43c1.816-3.28 1.37-7.487-1.41-10.268C16.938 47.936 6.39 47.04 5.198 46.95c-.393-.032-.78.11-1.057.39a1.36 1.36 0 0 0-.39 1.06c.09 1.19.99 11.74 4.09 14.845a8.575 8.575 0 0 0 6.107 2.528c2.192 0 4.245-.834 5.844-2.315l5.136 5.082v21.013l-3.936-3.895c2.362-3.365 2.06-8.043-.944-11.05-3.107-3.105-13.654-4-14.847-4.09a1.302 1.302 0 0 0-1.06.39 1.35 1.35 0 0 0-.39 1.058c.09 1.192.985 11.74 4.09 14.846a8.575 8.575 0 0 0 6.103 2.528c1.892 0 3.673-.634 5.158-1.752l5.824 5.762v15.89H2.07a1.35 1.35 0 0 0 0 2.7h89.56a1.35 1.35 0 0 0 0-2.7" mask="url(#b)"/></g><g transform="translate(0 -.22)"><mask id="d"><use xlink:href="#c"/></mask><path d="M28.845 51.017h-12.21v-3.1h2.754a1.35 1.35 0 0 0 0-2.698h-8.21a1.35 1.35 0 0 0 0 2.694h2.75v3.1H2.7V15.58L15.77 3.962l13.073 11.62v35.435h.002zm-7.56 50.888h-12l2.64-40.405h6.72l2.64 40.405zM8.67 111.3l.437-6.696h12.355l.438 6.697H8.67zM16.668 1.148a1.347 1.347 0 0 0-1.792 0L.454 13.968A1.35 1.35 0 0 0 0 14.978v37.39c0 .743.605 1.35 1.35 1.35h12.585V58.8H10.66c-.71 0-1.3.552-1.347 1.262l-3.43 52.5A1.353 1.353 0 0 0 7.228 114h16.11a1.347 1.347 0 0 0 1.347-1.438l-3.43-52.5a1.35 1.35 0 0 0-1.347-1.26h-3.276v-5.086h13.56a1.35 1.35 0 0 0 1.35-1.35v-37.39a1.35 1.35 0 0 0-.453-1.01L16.67 1.146l-.002.002z" mask="url(#d)"/></g></g></svg>