<svg xmlns="http://www.w3.org/2000/svg" viewBox="-1354.8 1291.8 186.4 186.4"><path stroke="#13BEBB" stroke-width="4.252" stroke-linecap="round" stroke-linejoin="round" stroke-miterlimit="10" fill="none" d="M-1292.236 1441.927l7.23-36.795 80.36 15.79-7.23 36.795z"/><circle fill="#13BEBB" cx="-1249.6" cy="1431.2" r="13.2"/><path fill="#13BEBB" d="M-1281.72 1419.799l1.581-8.046 6.672 1.311-1.581 8.046zm58.604 30.094l5.109-26.002 6.672 1.311-5.109 26.002z"/><path stroke="#13BEBB" stroke-width="4.252" stroke-linecap="round" stroke-linejoin="round" stroke-miterlimit="10" fill="none" d="M-1277.5 1406.6l1.6-8.1 82.5 16.2-7.8 39.5-8.3-1.6M-1319.8 1326.2h112.1v70.1h-112.1z"/><path fill="#13BEBB" d="M-1319.8 1340.7h112.1v11.9h-112.1z"/><path stroke="#13BEBB" stroke-width="4.252" stroke-linecap="round" stroke-linejoin="round" stroke-miterlimit="10" d="M-1229.8 1365.5c-2 0-3.8.6-5.3 1.7-1.5-1.1-3.3-1.7-5.3-1.7-5.1 0-9.2 4.1-9.2 9.2s4.1 9.2 9.2 9.2c2 0 3.8-.6 5.3-1.7 1.5 1.1 3.3 1.7 5.3 1.7 5.1 0 9.2-4.1 9.2-9.2s-4.1-9.2-9.2-9.2z" fill="none"/></svg>