<?xml version="1.0" encoding="utf-8"?>
<!-- Generator: Adobe Illustrator 22.1.0, SVG Export Plug-In . SVG Version: 6.00 Build 0)  -->
<svg version="1.1" id="GraphQL_Logo" xmlns="http://www.w3.org/2000/svg" xmlns:xlink="http://www.w3.org/1999/xlink" x="0px"
	 y="0px" viewBox="-1354.8 1291.8 186.4 186.4" enable-background="new -1354.8 1291.8 186.4 186.4" xml:space="preserve">
<g>
	<g>
		<g>
			
				<rect x="-1267.1" y="1390.5" transform="matrix(0.1928 -0.9812 0.9812 0.1928 -2412.2974 -69.4395)" fill="none" stroke="#13BEBB" stroke-width="4.252" stroke-linecap="round" stroke-linejoin="round" stroke-miterlimit="10" width="37.5" height="81.9"/>
			<circle fill="#13BEBB" cx="-1249.6" cy="1431.2" r="13.2"/>
			
				<rect x="-1281.6" y="1413" transform="matrix(0.1928 -0.9812 0.9812 0.1928 -2421.063 -110.1329)" fill="#13BEBB" width="8.2" height="6.8"/>
			
				<rect x="-1230.4" y="1434.2" transform="matrix(0.1928 -0.9812 0.9812 0.1928 -2393.1321 -33.8891)" fill="#13BEBB" width="26.5" height="6.8"/>
		</g>
		
			<polyline fill="none" stroke="#13BEBB" stroke-width="4.252" stroke-linecap="round" stroke-linejoin="round" stroke-miterlimit="10" points="
			-1277.5,1406.6 -1275.9,1398.5 -1193.4,1414.7 -1201.2,1454.2 -1209.5,1452.6 		"/>
	</g>
	
		<rect x="-1319.8" y="1326.2" fill="none" stroke="#13BEBB" stroke-width="4.252" stroke-linecap="round" stroke-linejoin="round" stroke-miterlimit="10" width="112.1" height="70.1"/>
	<rect x="-1319.8" y="1340.7" fill="#13BEBB" width="112.1" height="11.9"/>
	
		<path fill="none" stroke="#13BEBB" stroke-width="4.252" stroke-linecap="round" stroke-linejoin="round" stroke-miterlimit="10" d="
		M-1229.8,1365.5c-2,0-3.8,0.6-5.3,1.7c-1.5-1.1-3.3-1.7-5.3-1.7c-5.1,0-9.2,4.1-9.2,9.2s4.1,9.2,9.2,9.2c2,0,3.8-0.6,5.3-1.7
		c1.5,1.1,3.3,1.7,5.3,1.7c5.1,0,9.2-4.1,9.2-9.2S-1224.7,1365.5-1229.8,1365.5z"/>
</g>
</svg>
