<?xml version="1.0" encoding="utf-8"?>
<!-- Generator: Adobe Illustrator 22.1.0, SVG Export Plug-In . SVG Version: 6.00 Build 0)  -->
<svg version="1.1" id="GraphQL_Logo" xmlns="http://www.w3.org/2000/svg" xmlns:xlink="http://www.w3.org/1999/xlink" x="0px"
	 y="0px" viewBox="-760.9 1291.8 186.4 186.4" enable-background="new -760.9 1291.8 186.4 186.4" xml:space="preserve">
<g>
	
		<polyline fill="none" stroke="#13BEBB" stroke-width="4.252" stroke-linecap="round" stroke-linejoin="round" stroke-miterlimit="10" points="
		-641.1,1350.4 -610,1377.5 -610,1442.6 -725.3,1442.6 -725.3,1377.5 -696,1352 	"/>
	
		<polyline fill="none" stroke="#13BEBB" stroke-width="4.252" stroke-linecap="round" stroke-linejoin="round" stroke-miterlimit="10" points="
		-678,1336.3 -667.7,1327.3 -667.7,1327.3 -657.3,1336.3 	"/>
	
		<line fill="none" stroke="#13BEBB" stroke-width="4.252" stroke-linecap="round" stroke-linejoin="round" stroke-miterlimit="10" x1="-641.1" y1="1377.5" x2="-610" y2="1377.5"/>
	
		<line fill="none" stroke="#13BEBB" stroke-width="4.252" stroke-linecap="round" stroke-linejoin="round" stroke-miterlimit="10" x1="-725.3" y1="1377.5" x2="-696" y2="1377.5"/>
	
		<line fill="none" stroke="#13BEBB" stroke-width="4.252" stroke-linecap="round" stroke-linejoin="round" stroke-miterlimit="10" x1="-725.3" y1="1377.5" x2="-610" y2="1442.6"/>
	
		<line fill="none" stroke="#13BEBB" stroke-width="4.252" stroke-linecap="round" stroke-linejoin="round" stroke-miterlimit="10" x1="-725.3" y1="1442.6" x2="-610" y2="1377.5"/>
	
		<polyline fill="none" stroke="#13BEBB" stroke-width="4.252" stroke-linecap="round" stroke-linejoin="round" stroke-miterlimit="10" points="
		-641.1,1393.7 -641.1,1336.3 -696,1336.3 -696,1393.7 	"/>
	
		<polyline fill="none" stroke="#13BEBB" stroke-width="4.252" stroke-linecap="round" stroke-linejoin="round" stroke-miterlimit="10" points="
		-661.9,1361.5 -674.8,1361.5 -674.8,1372.2 -661.9,1372.2 -661.9,1382.3 -674.8,1382.3 	"/>
	
		<line fill="none" stroke="#13BEBB" stroke-width="4.252" stroke-linecap="round" stroke-linejoin="round" stroke-miterlimit="10" x1="-668.4" y1="1387.6" x2="-668.4" y2="1354.3"/>
</g>
</svg>
