<?xml version="1.0" encoding="utf-8"?>
<!-- Generator: Adobe Illustrator 22.0.1, SVG Export Plug-In . SVG Version: 6.00 Build 0)  -->
<svg version="1.1"
	 id="svg2" inkscape:version="0.91 r13725" sodipodi:docname="logo.svg" xmlns:cc="http://creativecommons.org/ns#" xmlns:dc="http://purl.org/dc/elements/1.1/" xmlns:inkscape="http://www.inkscape.org/namespaces/inkscape" xmlns:rdf="http://www.w3.org/1999/02/22-rdf-syntax-ns#" xmlns:sodipodi="http://sodipodi.sourceforge.net/DTD/sodipodi-0.dtd" xmlns:svg="http://www.w3.org/2000/svg"
	 xmlns="http://www.w3.org/2000/svg" xmlns:xlink="http://www.w3.org/1999/xlink" x="0px" y="0px" viewBox="0 0 287 53.1"
	 style="enable-background:new 0 0 287 53.1;" xml:space="preserve">
<style type="text/css">
	.st0{fill:#fff;}
</style>
<sodipodi:namedview  fit-margin-bottom="0" fit-margin-left="0" fit-margin-right="0" fit-margin-top="0" gridtolerance="10" guidetolerance="10" id="logoview" inkscape:current-layer="svg2" inkscape:cx="238.24834" inkscape:cy="5.7464668" inkscape:pageopacity="0" inkscape:pageshadow="2" inkscape:window-height="1056" inkscape:window-maximized="1" inkscape:window-width="1867" inkscape:window-x="53" inkscape:window-y="24" inkscape:zoom="3.1716432" objecttolerance="10" pagecolor="#ffffff" showgrid="false">
	</sodipodi:namedview>
<g id="canvas">
	<g id="pretty" transform="translate(0,-43.423057)">
		<path id="letter1p" inkscape:connector-curvature="0" class="st0" d="M8.5,62.2H0v0.6c2.2,0,2.2,0.5,2.2,3.1v8.3
			c0,2.6,0,3.1-2.2,3.1V78h7.7v-0.6c-2.2,0-2.2-0.5-2.2-3.1V71h3c3.3,0,5.3-2,5.3-4.4C13.8,64.2,11.8,62.2,8.5,62.2z M6.9,70.1H5.5
			v-7.1h1.4c2.3,0,3.4,1.7,3.4,3.5C10.3,68.4,9.2,70.1,6.9,70.1z"/>
		<path id="letter2r" inkscape:connector-curvature="0" class="st0" d="M27.2,71c2.8-0.3,4.7-2.1,4.7-4.4c0-2.4-2-4.4-5.3-4.4H18V63
			c2.2,0,2.2,0.5,2.2,3.1v8.2c0,2.6,0,3.1-2.2,3.1V78h7.7v-0.6c-2.2,0-2.2-0.5-2.2-3.1V71l5.1,6.9h5.1v-0.6c-1.9,0-2.2-0.8-4.4-3.4
			C29.3,73.9,27.2,71,27.2,71z M24.9,70.1h-1.4v-7.1h1.4c2.3,0,3.4,1.7,3.4,3.5C28.3,68.4,27.3,70.1,24.9,70.1z"/>
		<path id="letter3e" inkscape:connector-curvature="0" class="st0" d="M37.7,78h14.1l0.2-3.7h-0.8l-0.1,0.5c-0.3,1.4-0.6,2.2-3,2.2
			h-2.4c-2.2,0-2.5-0.7-2.5-3.3v-3.6h1.4c2.6,0,3,0.1,3,2.3h0.6v-5.5h-0.6c0,2.2-0.4,2.3-3,2.3h-1.4v-6.1h4c2.4,0,2.7,0.9,3,2.3
			l0.1,0.5h0.8L51,62.2H37.7v0.6c2.2,0,2.2,0.5,2.2,3.1v8.3c0,2.6,0,3.1-2.2,3.1V78L37.7,78z"/>
		<path id="letter4t" inkscape:connector-curvature="0" class="st0" d="M70.2,62.2H55.6l-0.2,3.7h0.8l0.1-0.5c0.3-1.4,0.6-2.3,3-2.3
			h1.9v11.1c0,2.6,0,3.1-2.2,3.1V78h7.7v-0.6c-2.2,0-2.2-0.5-2.2-3.1V63.1h1.9c2.4,0,2.7,0.9,3,2.3l0.1,0.5h0.8L70.2,62.2
			C70.2,62.2,70.2,62.2,70.2,62.2z"/>
		<path id="letter5t" inkscape:connector-curvature="0" class="st0" d="M89.2,62.2H74.6l-0.2,3.7h0.8l0.1-0.5c0.3-1.4,0.6-2.3,3-2.3
			h1.9v11.1c0,2.6,0,3.1-2.2,3.1V78h7.7v-0.6c-2.2,0-2.2-0.5-2.2-3.1V63.1h1.9c2.4,0,2.7,0.9,3,2.3l0.1,0.5h0.8L89.2,62.2
			C89.2,62.2,89.2,62.2,89.2,62.2z"/>
		<path id="letter6y" inkscape:connector-curvature="0" class="st0" d="M101.9,69.7L98.8,65c-0.9-1.4-0.8-2.1,1.1-2.1v-0.6h-7.7v0.6
			c1.9,0,2.2,0.6,3.4,2.4l3.8,5.8v3.1c0,2.6-0.3,3.2-2.5,3.2V78h8.2v-0.6c-2.2,0-2.5-0.6-2.5-3.2v-3.2l3.8-5.7
			c1.1-1.7,1.2-2.4,3.4-2.4v-0.6H104v0.6c2.1,0,2,0.7,1.1,2.1C105.1,64.9,101.9,69.7,101.9,69.7z"/>
	</g>
	<path id="logo" inkscape:connector-curvature="0" class="st0" d="M163.8,14.9c0-0.2-0.2-0.3-0.4-0.1c-0.1,0.2-0.5,0.5-0.8,0.4
		c-0.3-0.1-0.5-0.4-0.5-0.8c0-1.2,0.5-3.6,0.7-3.6c0.4,0,0.4,0.8,0.6,0.9c0.2,0.1,0.3-1,0.4-1.2c0-0.2-0.4-0.5-0.6-0.7
		c-0.1-0.1,0-0.2,0-0.3s0.2-0.3,0-0.5c-0.2-0.2-1.2-1.2-1.4-1.3c0,0-0.2-0.2-0.2,0l-0.1,0.4c0,0.2,0,0.2-0.2,0.1
		c-0.6-0.4-0.8-0.6-0.8-0.3c-0.1,0.3-0.3,1.1-0.3,1.4c-0.1,0.6,0.6,0.2,0.8,0.2c0.3,0.1,0.3,0.3,0.2,0.7c-0.1,0.4-1.3,3.3-1.5,4.3
		c-0.3,0.9-0.5,2.5,0.6,3c1.9,0.6,2.9-0.2,3.3-1.1C163.7,15.5,163.8,15.1,163.8,14.9L163.8,14.9L163.8,14.9z M158.9,6.3
		c-0.2-0.1-0.3-0.2-0.2-0.5c0.1-0.2,0.1-0.3,0.2-0.4c0.1-0.2,0-0.3-0.2-0.5c-0.2-0.2-1.5-0.9-1.9-1.1c-0.2-0.1-0.5-0.2-0.6,0.2
		c-0.1,0.4-0.1,0.5-0.2,0.6c-0.1,0.4-0.9-0.2-2.1-0.8c-0.2-0.1-1-0.7-0.7,0.1c0.2,0.5,0.5,1.1,0.4,2.4c0,0.5,0.3,0.8,0.5,0.6
		c0.3-0.3,1.6,0,1.5,0.3s-1.4,4.2-1.8,7.3c-0.5,3.1,1.1,3.5,2.3,3.5c0.9,0,2.7-0.6,2.9-2.3c0.2-0.9,0.2-1.9,0.1-2.2
		c-0.1-0.4-0.3-0.6-0.5-0.1c-0.2,0.6-1.3,0.5-1.4-0.5c0.1-1.8,0.6-4.3,0.7-4.5c0.1-0.3,0.3-0.5,0.5-0.4c0.2,0.2,0.4,0.6,0.6,0.8
		s0.3,0.2,0.3-0.1c0.2-0.5,0.4-1.2,0.5-1.6C159.8,6.9,159.5,6.6,158.9,6.3L158.9,6.3L158.9,6.3z M164.9,11.4
		c-0.2-0.2-0.4,0.1-0.2,0.3c0.1,0.2,0,0.7-0.2,1.2c-0.1,0.3-1,2.3-0.1,3.3c0.6,0.8,1.5,0.6,1.8,0.3c-0.2,0.4-0.6,0.9-1.4,0.5
		c-0.6-0.3-0.8-1.1-0.9-1.2c-0.2-0.1-0.8,1.9,0.9,2.8c1.9,0.9,2.7-1.6,2.8-2c0.1-0.2,0.3-0.6,0.2-0.8c-0.1-0.2-0.6-1.1-0.7-1.2
		c-0.1-0.1-0.2,0-0.2,0.2c0,0.2-0.2,1-0.7,0.8c-0.3-0.1-0.1-1.2,0.1-1.6c0.1-0.2,0.3-0.4,0.1-0.7C166.2,13,165.3,11.8,164.9,11.4
		C164.9,11.4,164.9,11.4,164.9,11.4z M148.7,2.5c0,0,0.4,0,0.5,0.6c0.5,2.2-0.3,2.8-0.8,2.9c-0.2,0-0.8-0.2-0.9-0.7
		C147.2,4.1,148,2.6,148.7,2.5L148.7,2.5z M153.2,11.4c-0.2-0.5-0.4-0.3-0.6,0.4c-0.3,1-2.4,2.2-4.4,1.7c-2.8-0.6-3.1-3-3.1-3
		s1,1.3,3.2,1.4c4.3,0.2,5.6-2.5,4.5-7.4c-0.9-4-4.5-4.1-5.2-4c-2.6,0.3-7.2,4.1-5.3,13.6c0.9,4.6,4.4,6.6,6.9,5.8
		C152.3,19.1,154.2,14.8,153.2,11.4L153.2,11.4z M140.5,7.6c1.3-0.1,0.3-3.1,3.6-5.8c1.9-1.6,0-1.6-1.2-1.7c-7-0.4-9.9,4.5-10.7,5
		c-0.9,0.6-4.6,0.1-4.2,1.4c0.3,1.3,1.9,0.8,3.8,2c4.5,2.8,9.4,9.1,8.8,19.9c-0.2,3.9,2.2,4,2.8,3.1c0.4-0.5,0.3-4.3,2.5-8.2
		c0.5-0.9,2.2-2.1,0.6-2.6c-1.6-0.5-3.2-1.6-5.1-6c-0.5-1.3-3.4-8.9-2.1-9.1C140.3,5.5,139.7,7.7,140.5,7.6L140.5,7.6z M141.7,35.4
		c0.6,0.2,1.6,3.6,0.2,3.5C140.4,38.9,141,35.3,141.7,35.4z M146.1,44.1c-0.2,0-0.4,0.3-0.4,1c0,0.9-0.8,1.7-1.8,2
		c-1.3,0.5-3,0-4.1-2.4c0,0,2.3,2,4.3,0.5c2.7-1.8,0.5-12.7-2.5-12.7c-1.7,0-4.6,4.4-4.3,10.6c0.4,8.3,3.9,9.8,6.3,9.9
		c3.3,0.1,4.7-2.9,3.4-7C146.6,44.4,146.3,44.1,146.1,44.1L146.1,44.1z M152.2,24.9c1.1,0.2,2.8,5.5,0.2,5.6
		C149.9,30.5,151,24.8,152.2,24.9z M158.8,36.2c-0.4,0.2-0.5,0.9-0.8,2.4c-0.6,2.5-5.8,6.1-8-0.3c0,0,2.8,3.1,6.5,0.4
		c4.3-3.1,0.5-18.5-6-18.3c-3,0.1-7.1,5.4-5.2,17c1.7,10.8,5.4,14.5,9.6,13.2c5.2-1.6,5.8-7.9,4.7-13.2
		C159.2,36.5,159,36.2,158.8,36.2C158.8,36.2,158.8,36.2,158.8,36.2z M138.1,35c-2-0.5-3.4,1.8-3.9,1.9c-0.5,0.1-0.3-0.2-0.9-0.2
		s-0.5,0.6,0,1c0.6,0.5,1,1.4,1.1,2.7c0.2,2.4-0.4,2.6-0.5,2.8c0,0.4,0.3,0.3,0.4,0.4c0.4,0,1.6-0.1,1.9,0.2
		c0.8,0.6,0.7-0.2,0.4-1.8c-0.3-2-0.9-2.8-0.9-3.8c0-0.6,0.5-0.4,0.5,0c-0.1,0.4,0.1,0.8,0.3,0.9c0.3,0.2,0.6,0,0.6-0.3
		c0.1-1.2,0.6-2.7,0.9-3.3C138.3,35.3,138.4,35.1,138.1,35L138.1,35z M130,36.8c2.4-0.2,3.6,2,3.8,3.1c0.3,1.4,0.5,2.8-0.8,2.9
		c-1.3,0.1-1.3-0.6-1.4-1.4c-0.2-0.6-0.6-0.9-1.2-0.9c-2.2-0.1-1.2,4.3,0.6,6.2c1.2,1.3,2.6,1.3,2.3,0c-0.3-1.1-1.3-0.6-1.6-1.5
		c-0.3-0.9,1.1-1.1,3.6-1.1c1.9,0,2.2,2.7,2.4,3.7c0.5,2.4-0.6,4.5-3.3,3.8c-3.1-0.9-6-2.7-7.2-6C124.5,37.9,127.2,37,130,36.8z
		 M128.4,22.2c-1.1,1.2-3.3,0.9-3.1-1.3c0.2-3.8,2-6.5,2-6.5C130.3,15.2,129.6,21,128.4,22.2L128.4,22.2z M139.5,22.4
		c-1.9-12.7-13.3-16.4-14.8-14.9c-1.3,1.2-7.7,6.2-7.7,18.9c0,6.3,3.2,12.9,3.2,13.6c0,0.6,0.8,1.8,2.4,3.6c1.6,1.8,5.2,5.4,5,4
		c-0.1-1-2.2-1.6-3.3-13c0,0,3,3,8.5,1.6C138.5,34.8,140.7,30.3,139.5,22.4L139.5,22.4L139.5,22.4z M156.7,18.4
		c-1.2-0.2-2.9,0-3.8,0.2c-1,0.2-0.9,1.7,0.1,1.7c1.4,0,2.7,1.6,4.4,5.7c1.8,4.3,3.6,12.8,3.2,18.3c-0.1,1.6-1.2,3.8,0.8,1.9
		s5.1-5.5,5-6.4c-1-12.7-5.4-17.6-2.8-17c2.6,0.6,3.8,12.4,3.6,13.9c-0.2,1.4,0.4,1.1,0.8,0.1c0.4-1,2.1-7.1,2-8.5
		c-0.1-1.4-1.2-7.4-5.7-9.5c-3.5-1.6-5.5-0.9-6.8,0.3C157.6,18.9,157.4,18.5,156.7,18.4L156.7,18.4z"/>
	<g id="green" transform="translate(0,-43.423057)">
		<path id="letter7g" inkscape:connector-curvature="0" class="st0" d="M192.2,74c0,2.4-1.9,3.3-3.9,3.3c-3.6,0-4.6-3.8-4.6-7.1
			s1-7.1,4.6-7.1c2.6,0,4.7,1.8,5.4,5.2h0.8v-6.1h-0.7c-0.2,0.7-0.3,1.8-0.7,1.8c-1.3-1.4-3-2.2-4.9-2.2c-4.4,0-8.1,3.8-8.1,8.3
			s3.6,8.3,8.1,8.3c2.6,0,3.7-1.4,6.8-1.4v-1.8V74c0-2.6,0-3,2.2-3v-0.6H190v0.6c1.8,0,2.2,0.6,2.2,1.7L192.2,74L192.2,74L192.2,74z
			"/>
		<path id="letter8r" inkscape:connector-curvature="0" class="st0" d="M212.6,70.7c2.8-0.3,4.7-2.1,4.7-4.4c0-2.4-2-4.4-5.3-4.4
			h-8.5v0.8c2.2,0,2.2,0.5,2.2,3.1v8.2c0,2.6,0,3.1-2.2,3.1v0.6h7.7v-0.6c-2.2,0-2.2-0.5-2.2-3.1v-3.2l5.1,6.9h5.1v-0.6
			c-1.9,0-2.2-0.8-4.4-3.4L212.6,70.7L212.6,70.7L212.6,70.7z M210.3,69.8h-1.4v-7.1h1.4c2.3,0,3.4,1.7,3.4,3.5
			C213.7,68,212.6,69.8,210.3,69.8z"/>
		<path id="letter9e" inkscape:connector-curvature="0" class="st0" d="M225.8,77.6h14.1l0.2-3.7h-0.8l-0.1,0.5
			c-0.3,1.4-0.6,2.2-3,2.2h-2.4c-2.2,0-2.5-0.7-2.5-3.3v-3.6h1.4c2.6,0,3,0.1,3,2.3h0.6v-5.6h-0.6c0,2.2-0.4,2.3-3,2.3h-1.4v-6h4
			c2.4,0,2.7,0.9,3,2.3l0.1,0.5h0.8l-0.2-3.7h-13.2v0.6c2.2,0,2.2,0.5,2.2,3.1v8.3c0,2.6,0,3.1-2.2,3.1L225.8,77.6L225.8,77.6z"/>
		<path id="letter10e" inkscape:connector-curvature="0" class="st0" d="M247.7,77.6h14.1l0.2-3.7h-0.8l-0.1,0.5
			c-0.3,1.4-0.6,2.2-3,2.2h-2.4c-2.2,0-2.5-0.7-2.5-3.3v-3.6h1.4c2.6,0,3,0.1,3,2.3h0.6v-5.6h-0.6c0,2.2-0.4,2.3-3,2.3h-1.5v-6h4
			c2.4,0,2.7,0.9,3,2.3l0.1,0.5h0.8l-0.2-3.7h-13.2v0.6c2.2,0,2.2,0.5,2.2,3.1v8.3c0,2.6,0,3.1-2.2,3.1L247.7,77.6L247.7,77.6
			L247.7,77.6z"/>
		<path id="letter11n" inkscape:connector-curvature="0" class="st0" d="M283.5,72l-8.8-10.5h-5v0.6c2.2,0,2.3,0.6,2.3,3.2v8.1
			c0,2.6-0.1,3.2-2.3,3.2v0.6h5.8v-0.6c-2.2,0-2.3-0.6-2.3-3.2v-8.7l10.9,13h0.6V65.4c0-2.6,0.1-3.2,2.3-3.2v-0.6h-5.8v0.6
			c2.2,0,2.3,0.6,2.3,3.2L283.5,72L283.5,72L283.5,72z"/>
	</g>
</g>
</svg>
