<svg xmlns="http://www.w3.org/2000/svg" viewBox="0 0 287 53.1"><style>.st0{fill:#fff}</style><g id="canvas"><g id="pretty"><path id="letter1p" class="st0" d="M8.5 18.777H0v.6c2.2 0 2.2.5 2.2 3.1v8.3c0 2.6 0 3.1-2.2 3.1v.7h7.7v-.6c-2.2 0-2.2-.5-2.2-3.1v-3.3h3c3.3 0 5.3-2 5.3-4.4 0-2.4-2-4.4-5.3-4.4zm-1.6 7.9H5.5v-7.1h1.4c2.3 0 3.4 1.7 3.4 3.5 0 1.9-1.1 3.6-3.4 3.6z"/><path id="letter2r" class="st0" d="M27.2 27.577c2.8-.3 4.7-2.1 4.7-4.4 0-2.4-2-4.4-5.3-4.4H18v.8c2.2 0 2.2.5 2.2 3.1v8.2c0 2.6 0 3.1-2.2 3.1v.6h7.7v-.6c-2.2 0-2.2-.5-2.2-3.1v-3.3l5.1 6.9h5.1v-.6c-1.9 0-2.2-.8-4.4-3.4l-2.1-2.9zm-2.3-.9h-1.4v-7.1h1.4c2.3 0 3.4 1.7 3.4 3.5 0 1.9-1 3.6-3.4 3.6z"/><path id="letter3e" class="st0" d="M37.7 34.577h14.1l.2-3.7h-.8l-.1.5c-.3 1.4-.6 2.2-3 2.2h-2.4c-2.2 0-2.5-.7-2.5-3.3v-3.6h1.4c2.6 0 3 .1 3 2.3h.6v-5.5h-.6c0 2.2-.4 2.3-3 2.3h-1.4v-6.1h4c2.4 0 2.7.9 3 2.3l.1.5h.8l-.1-3.7H37.7v.6c2.2 0 2.2.5 2.2 3.1v8.3c0 2.6 0 3.1-2.2 3.1v.7z"/><path id="letter4t" class="st0" d="M70.2 18.777H55.6l-.2 3.7h.8l.1-.5c.3-1.4.6-2.3 3-2.3h1.9v11.1c0 2.6 0 3.1-2.2 3.1v.7h7.7v-.6c-2.2 0-2.2-.5-2.2-3.1v-11.2h1.9c2.4 0 2.7.9 3 2.3l.1.5h.8l-.1-3.7z"/><path id="letter5t" class="st0" d="M89.2 18.777H74.6l-.2 3.7h.8l.1-.5c.3-1.4.6-2.3 3-2.3h1.9v11.1c0 2.6 0 3.1-2.2 3.1v.7h7.7v-.6c-2.2 0-2.2-.5-2.2-3.1v-11.2h1.9c2.4 0 2.7.9 3 2.3l.1.5h.8l-.1-3.7z"/><path id="letter6y" class="st0" d="M101.9 26.277l-3.1-4.7c-.9-1.4-.8-2.1 1.1-2.1v-.6h-7.7v.6c1.9 0 2.2.6 3.4 2.4l3.8 5.8v3.1c0 2.6-.3 3.2-2.5 3.2v.6h8.2v-.6c-2.2 0-2.5-.6-2.5-3.2v-3.2l3.8-5.7c1.1-1.7 1.2-2.4 3.4-2.4v-.6H104v.6c2.1 0 2 .7 1.1 2.1 0-.1-3.2 4.7-3.2 4.7z"/></g><path id="logo" class="st0" d="M163.8 14.9c0-.2-.2-.3-.4-.1-.1.2-.5.5-.8.4-.3-.1-.5-.4-.5-.8 0-1.2.5-3.6.7-3.6.4 0 .4.8.6.9.2.1.3-1 .4-1.2 0-.2-.4-.5-.6-.7-.1-.1 0-.2 0-.3s.2-.3 0-.5-1.2-1.2-1.4-1.3c0 0-.2-.2-.2 0l-.1.4c0 .2 0 .2-.2.1-.6-.4-.8-.6-.8-.3-.1.3-.3 1.1-.3 1.4-.1.6.6.2.8.2.3.1.3.3.2.7-.1.4-1.3 3.3-1.5 4.3-.3.9-.5 2.5.6 3 1.9.6 2.9-.2 3.3-1.1.1-.9.2-1.3.2-1.5zm-4.9-8.6c-.2-.1-.3-.2-.2-.5.1-.2.1-.3.2-.4.1-.2 0-.3-.2-.5s-1.5-.9-1.9-1.1c-.2-.1-.5-.2-.6.2-.1.4-.1.5-.2.6-.1.4-.9-.2-2.1-.8-.2-.1-1-.7-.7.1.2.5.5 1.1.4 2.4 0 .5.3.8.5.6.3-.3 1.6 0 1.5.3s-1.4 4.2-1.8 7.3c-.5 3.1 1.1 3.5 2.3 3.5.9 0 2.7-.6 2.9-2.3.2-.9.2-1.9.1-2.2-.1-.4-.3-.6-.5-.1-.2.6-1.3.5-1.4-.5.1-1.8.6-4.3.7-4.5.1-.3.3-.5.5-.4l.6.8s.3.2.3-.1c.2-.5.4-1.2.5-1.6 0-.2-.3-.5-.9-.8zm6 5.1c-.2-.2-.4.1-.2.3.1.2 0 .7-.2 1.2-.1.3-1 2.3-.1 3.3.6.8 1.5.6 1.8.3-.2.4-.6.9-1.4.5-.6-.3-.8-1.1-.9-1.2-.2-.1-.8 1.9.9 2.8 1.9.9 2.7-1.6 2.8-2 .1-.2.3-.6.2-.8-.1-.2-.6-1.1-.7-1.2-.1-.1-.2 0-.2.2s-.2 1-.7.8c-.3-.1-.1-1.2.1-1.6.1-.2.3-.4.1-.7-.2-.3-1.1-1.5-1.5-1.9zm-16.2-8.9s.4 0 .5.6c.5 2.2-.3 2.8-.8 2.9-.2 0-.8-.2-.9-.7-.3-1.2.5-2.7 1.2-2.8zm4.5 8.9c-.2-.5-.4-.3-.6.4-.3 1-2.4 2.2-4.4 1.7-2.8-.6-3.1-3-3.1-3s1 1.3 3.2 1.4c4.3.2 5.6-2.5 4.5-7.4-.9-4-4.5-4.1-5.2-4-2.6.3-7.2 4.1-5.3 13.6.9 4.6 4.4 6.6 6.9 5.8 3.1-.8 5-5.1 4-8.5zm-12.7-3.8c1.3-.1.3-3.1 3.6-5.8 1.9-1.6 0-1.6-1.2-1.7-7-.4-9.9 4.5-10.7 5-.9.6-4.6.1-4.2 1.4.3 1.3 1.9.8 3.8 2 4.5 2.8 9.4 9.1 8.8 19.9-.2 3.9 2.2 4 2.8 3.1.4-.5.3-4.3 2.5-8.2.5-.9 2.2-2.1.6-2.6s-3.2-1.6-5.1-6c-.5-1.3-3.4-8.9-2.1-9.1 1-.1.4 2.1 1.2 2zm1.2 27.8c.6.2 1.6 3.6.2 3.5-1.5 0-.9-3.6-.2-3.5zm4.4 8.7c-.2 0-.4.3-.4 1 0 .9-.8 1.7-1.8 2-1.3.5-3 0-4.1-2.4 0 0 2.3 2 4.3.5 2.7-1.8.5-12.7-2.5-12.7-1.7 0-4.6 4.4-4.3 10.6.4 8.3 3.9 9.8 6.3 9.9 3.3.1 4.7-2.9 3.4-7-.4-1.6-.7-1.9-.9-1.9zm6.1-19.2c1.1.2 2.8 5.5.2 5.6-2.5 0-1.4-5.7-.2-5.6zm6.6 11.3c-.4.2-.5.9-.8 2.4-.6 2.5-5.8 6.1-8-.3 0 0 2.8 3.1 6.5.4 4.3-3.1.5-18.5-6-18.3-3 .1-7.1 5.4-5.2 17 1.7 10.8 5.4 14.5 9.6 13.2 5.2-1.6 5.8-7.9 4.7-13.2-.4-.9-.6-1.2-.8-1.2zM138.1 35c-2-.5-3.4 1.8-3.9 1.9-.5.1-.3-.2-.9-.2s-.5.6 0 1c.6.5 1 1.4 1.1 2.7.2 2.4-.4 2.6-.5 2.8 0 .4.3.3.4.4.4 0 1.6-.1 1.9.2.8.6.7-.2.4-1.8-.3-2-.9-2.8-.9-3.8 0-.6.5-.4.5 0-.1.4.1.8.3.9.3.2.6 0 .6-.3.1-1.2.6-2.7.9-3.3.3-.2.4-.4.1-.5zm-8.1 1.8c2.4-.2 3.6 2 3.8 3.1.3 1.4.5 2.8-.8 2.9-1.3.1-1.3-.6-1.4-1.4-.2-.6-.6-.9-1.2-.9-2.2-.1-1.2 4.3.6 6.2 1.2 1.3 2.6 1.3 2.3 0-.3-1.1-1.3-.6-1.6-1.5-.3-.9 1.1-1.1 3.6-1.1 1.9 0 2.2 2.7 2.4 3.7.5 2.4-.6 4.5-3.3 3.8-3.1-.9-6-2.7-7.2-6-2.7-7.7 0-8.6 2.8-8.8zm-1.6-14.6c-1.1 1.2-3.3.9-3.1-1.3.2-3.8 2-6.5 2-6.5 3 .8 2.3 6.6 1.1 7.8zm11.1.2C137.6 9.7 126.2 6 124.7 7.5c-1.3 1.2-7.7 6.2-7.7 18.9 0 6.3 3.2 12.9 3.2 13.6 0 .6.8 1.8 2.4 3.6 1.6 1.8 5.2 5.4 5 4-.1-1-2.2-1.6-3.3-13 0 0 3 3 8.5 1.6 5.7-1.4 7.9-5.9 6.7-13.8zm17.2-4c-1.2-.2-2.9 0-3.8.2-1 .2-.9 1.7.1 1.7 1.4 0 2.7 1.6 4.4 5.7 1.8 4.3 3.6 12.8 3.2 18.3-.1 1.6-1.2 3.8.8 1.9s5.1-5.5 5-6.4c-1-12.7-5.4-17.6-2.8-17 2.6.6 3.8 12.4 3.6 13.9-.2 1.4.4 1.1.8.1s2.1-7.1 2-8.5c-.1-1.4-1.2-7.4-5.7-9.5-3.5-1.6-5.5-.9-6.8.3.1-.2-.1-.6-.8-.7z"/><g id="green"><path id="letter7g" class="st0" d="M192.2 30.577c0 2.4-1.9 3.3-3.9 3.3-3.6 0-4.6-3.8-4.6-7.1s1-7.1 4.6-7.1c2.6 0 4.7 1.8 5.4 5.2h.8v-6.1h-.7c-.2.7-.3 1.8-.7 1.8-1.3-1.4-3-2.2-4.9-2.2-4.4 0-8.1 3.8-8.1 8.3s3.6 8.3 8.1 8.3c2.6 0 3.7-1.4 6.8-1.4v-3c0-2.6 0-3 2.2-3v-.6H190v.6c1.8 0 2.2.6 2.2 1.7v1.3z"/><path id="letter8r" class="st0" d="M212.6 27.277c2.8-.3 4.7-2.1 4.7-4.4 0-2.4-2-4.4-5.3-4.4h-8.5v.8c2.2 0 2.2.5 2.2 3.1v8.2c0 2.6 0 3.1-2.2 3.1v.6h7.7v-.6c-2.2 0-2.2-.5-2.2-3.1v-3.2l5.1 6.9h5.1v-.6c-1.9 0-2.2-.8-4.4-3.4l-2.2-3zm-2.3-.9h-1.4v-7.1h1.4c2.3 0 3.4 1.7 3.4 3.5s-1.1 3.6-3.4 3.6z"/><path id="letter9e" class="st0" d="M225.8 34.177h14.1l.2-3.7h-.8l-.1.5c-.3 1.4-.6 2.2-3 2.2h-2.4c-2.2 0-2.5-.7-2.5-3.3v-3.6h1.4c2.6 0 3 .1 3 2.3h.6v-5.6h-.6c0 2.2-.4 2.3-3 2.3h-1.4v-6h4c2.4 0 2.7.9 3 2.3l.1.5h.8l-.2-3.7h-13.2v.6c2.2 0 2.2.5 2.2 3.1v8.3c0 2.6 0 3.1-2.2 3.1v.7z"/><path id="letter10e" class="st0" d="M247.7 34.177h14.1l.2-3.7h-.8l-.1.5c-.3 1.4-.6 2.2-3 2.2h-2.4c-2.2 0-2.5-.7-2.5-3.3v-3.6h1.4c2.6 0 3 .1 3 2.3h.6v-5.6h-.6c0 2.2-.4 2.3-3 2.3h-1.5v-6h4c2.4 0 2.7.9 3 2.3l.1.5h.8l-.2-3.7h-13.2v.6c2.2 0 2.2.5 2.2 3.1v8.3c0 2.6 0 3.1-2.2 3.1l.1.7z"/><path id="letter11n" class="st0" d="M283.5 28.577l-8.8-10.5h-5v.6c2.2 0 2.3.6 2.3 3.2v8.1c0 2.6-.1 3.2-2.3 3.2v.6h5.8v-.6c-2.2 0-2.3-.6-2.3-3.2v-8.7l10.9 13h.6v-12.3c0-2.6.1-3.2 2.3-3.2v-.6h-5.8v.6c2.2 0 2.3.6 2.3 3.2v6.6z"/></g></g></svg>