<?xml version="1.0" encoding="utf-8"?>
<!-- Generator: Adobe Illustrator 22.1.0, SVG Export Plug-In . SVG Version: 6.00 Build 0)  -->
<svg version="1.1" id="GraphQL_Logo" xmlns="http://www.w3.org/2000/svg" xmlns:xlink="http://www.w3.org/1999/xlink" x="0px"
	 y="0px" viewBox="-1332.5 426.3 186.4 186.4" enable-background="new -1332.5 426.3 186.4 186.4" xml:space="preserve">
<g>
	<g>
		
			<polygon fill="none" stroke="#13BEBB" stroke-width="4.252" stroke-linecap="round" stroke-linejoin="round" stroke-miterlimit="10" points="
			-1312.5,519.5 -1292.7,511.6 -1292.7,484.9 -1319.4,502.7 		"/>
		
			<polygon fill="none" stroke="#13BEBB" stroke-width="4.252" stroke-linecap="round" stroke-linejoin="round" stroke-miterlimit="10" points="
			-1212.8,519.5 -1232.6,511.6 -1232.6,484.9 -1205.9,502.7 		"/>
		
			<path fill="none" stroke="#13BEBB" stroke-width="4.252" stroke-linecap="round" stroke-linejoin="round" stroke-miterlimit="10" d="
			M-1245.1,485.1c-3.5,5.9-10,9.9-17.5,9.9c-7.4,0-13.9-4-17.5-9.9h-12.6v101.5h60.1V485.1H-1245.1z"/>
		<path fill="none" stroke="#13BEBB" stroke-width="4.252" stroke-miterlimit="10" d="M-1282.5,485.1c1.7,9.5,10,16.7,20,16.7
			c10,0,18.3-7.2,20-16.7"/>
	</g>
	<g>
		
			<polygon fill="none" stroke="#13BEBB" stroke-width="4.252" stroke-linecap="round" stroke-linejoin="round" stroke-miterlimit="10" points="
			-1265.7,487 -1246,479.1 -1246,452.4 -1272.6,470.1 		"/>
		
			<polygon fill="none" stroke="#13BEBB" stroke-width="4.252" stroke-linecap="round" stroke-linejoin="round" stroke-miterlimit="10" points="
			-1166.1,487 -1185.8,479.1 -1185.8,452.4 -1159.1,470.1 		"/>
		
			<path fill="none" stroke="#13BEBB" stroke-width="4.252" stroke-linecap="round" stroke-linejoin="round" stroke-miterlimit="10" d="
			M-1198.3,452.6c-3.5,5.9-10,9.9-17.5,9.9c-7.4,0-13.9-4-17.5-9.9h-12.6v31.3l13.2,1l26.7,17.8l-6.9,16.8l-19.7-7.9l0.1,42.5h46.7
			V452.6H-1198.3z"/>
		<path fill="none" stroke="#13BEBB" stroke-width="4.252" stroke-miterlimit="10" d="M-1235.7,452.6c1.7,9.5,10,16.7,20,16.7
			c10,0,18.3-7.2,20-16.7"/>
	</g>
	<g>
		
			<line fill="none" stroke="#13BEBB" stroke-width="4.252" stroke-linecap="round" stroke-linejoin="round" stroke-miterlimit="10" x1="-1252.2" y1="515.4" x2="-1249.3" y2="515.4"/>
		
			<line fill="none" stroke="#13BEBB" stroke-width="4.252" stroke-linecap="round" stroke-linejoin="round" stroke-miterlimit="10" x1="-1249.3" y1="515.4" x2="-1249.3" y2="528.4"/>
	</g>
	<g>
		
			<line fill="none" stroke="#13BEBB" stroke-width="4.252" stroke-linecap="round" stroke-linejoin="round" stroke-miterlimit="10" x1="-1203" y1="477.4" x2="-1195.8" y2="477.4"/>
		
			<line fill="none" stroke="#13BEBB" stroke-width="4.252" stroke-linecap="round" stroke-linejoin="round" stroke-miterlimit="10" x1="-1195.8" y1="477.4" x2="-1195.8" y2="481.8"/>
		
			<line fill="none" stroke="#13BEBB" stroke-width="4.252" stroke-linecap="round" stroke-linejoin="round" stroke-miterlimit="10" x1="-1195.8" y1="481.8" x2="-1203" y2="490.4"/>
		
			<line fill="none" stroke="#13BEBB" stroke-width="4.252" stroke-linecap="round" stroke-linejoin="round" stroke-miterlimit="10" x1="-1203" y1="490.4" x2="-1194.8" y2="490.4"/>
	</g>
</g>
</svg>
