<svg xmlns="http://www.w3.org/2000/svg" viewBox="-1332.5 426.3 186.4 186.4" enable-background="new -1332.5 426.3 186.4 186.4"><g stroke="#13BEBB" stroke-width="4.252" stroke-miterlimit="10" fill="none"><path stroke-linecap="round" stroke-linejoin="round" d="M-1312.5 519.5l19.8-7.9v-26.7l-26.7 17.8zM-1212.8 519.5l-19.8-7.9v-26.7l26.7 17.8zM-1245.1 485.1c-3.5 5.9-10 9.9-17.5 9.9-7.4 0-13.9-4-17.5-9.9h-12.6v101.5h60.1v-101.5h-12.5z"/><path d="M-1282.5 485.1c1.7 9.5 10 16.7 20 16.7s18.3-7.2 20-16.7"/><path stroke-linecap="round" stroke-linejoin="round" d="M-1265.7 487l19.7-7.9v-26.7l-26.6 17.7zM-1166.1 487l-19.7-7.9v-26.7l26.7 17.7zM-1198.3 452.6c-3.5 5.9-10 9.9-17.5 9.9-7.4 0-13.9-4-17.5-9.9h-12.6v31.3l13.2 1 26.7 17.8-6.9 16.8-19.7-7.9.1 42.5h46.7v-101.5h-12.5z"/><path d="M-1235.7 452.6c1.7 9.5 10 16.7 20 16.7s18.3-7.2 20-16.7"/><g stroke-linecap="round" stroke-linejoin="round"><path d="M-1252.2 515.4h2.9M-1249.3 515.4v13"/></g><g stroke-linecap="round" stroke-linejoin="round"><path d="M-1203 477.4h7.2M-1195.8 477.4v4.4M-1195.8 481.8l-7.2 8.6M-1203 490.4h8.2"/></g></g></svg>