<svg xmlns="http://www.w3.org/2000/svg" viewBox="-1332.5 426.3 186.4 186.4"><g stroke="#13BEBB" stroke-width="4.252" stroke-miterlimit="10" fill="none"><path stroke-linecap="round" stroke-linejoin="round" d="M-1312.5 519.5l19.8-7.9v-26.7l-26.7 17.8zm99.7 0l-19.8-7.9v-26.7l26.7 17.8zm-32.3-34.4c-3.5 5.9-10 9.9-17.5 9.9-7.4 0-13.9-4-17.5-9.9h-12.6v101.5h60.1V485.1h-12.5z"/><path d="M-1282.5 485.1c1.7 9.5 10 16.7 20 16.7s18.3-7.2 20-16.7"/><path stroke-linecap="round" stroke-linejoin="round" d="M-1265.7 487l19.7-7.9v-26.7l-26.6 17.7zm99.6 0l-19.7-7.9v-26.7l26.7 17.7zm-32.2-34.4c-3.5 5.9-10 9.9-17.5 9.9-7.4 0-13.9-4-17.5-9.9h-12.6v31.3l13.2 1 26.7 17.8-6.9 16.8-19.7-7.9.1 42.5h46.7V452.6h-12.5z"/><path d="M-1235.7 452.6c1.7 9.5 10 16.7 20 16.7s18.3-7.2 20-16.7"/><path d="M-1252.2 515.4h2.9m0 0v13M-1203 477.4h7.2m0 0v4.4m0 0l-7.2 8.6m0 0h8.2" stroke-linecap="round" stroke-linejoin="round"/></g></svg>