<svg xmlns="http://www.w3.org/2000/svg" viewBox="0 0 1588 1260"><style>.st48{fill:#c62d1a}</style><linearGradient id="Vector_3_" gradientUnits="userSpaceOnUse" x1="1132.106" y1="237.068" x2="413.161" y2="237.068" gradientTransform="matrix(1 .001 .001 -1 -.531 1261.375)"><stop offset="0" stop-color="#255487"/><stop offset="1" stop-color="#66BAA1"/></linearGradient><path id="Vector_2_" d="M1131.8 959.3l-589.1-.7-130 131.9 589.1.7 130-131.9z" opacity=".5" fill="url(#Vector_3_)"/><linearGradient id="SVGID_1_" gradientUnits="userSpaceOnUse" x1="258.89" y1="595.566" x2="94.84" y2="595.566" gradientTransform="matrix(1 0 0 -1 0 1260.551)"><stop offset="0" stop-color="#255487"/><stop offset="1" stop-color="#66BAA1"/></linearGradient><path d="M258.9 652H118.3l-23.4 26h140.6l23.4-26z" opacity=".5" fill="url(#SVGID_1_)"/><path class="st48" d="M373.7 954.9s0 43.5 86.8 43.5h347.2s43.4 0 86.8-43.5l520.8-521.4s43.4-43.5 43.4-86.9H981.2L373.7 954.9z"/><linearGradient id="SVGID_2_" gradientUnits="userSpaceOnUse" x1="-61.259" y1="-4.172" x2="901.42" y2="600.631" gradientTransform="matrix(1 0 0 -1 0 1260.551)"><stop offset="0" stop-color="#B2190C"/><stop offset="1" stop-color="#E66D12"/></linearGradient><path d="M373.7 954.9l607.6-608.4h477.4L851 954.9H373.7z" fill="url(#SVGID_2_)"/><linearGradient id="SVGID_3_" gradientUnits="userSpaceOnUse" x1="484.492" y1="195.458" x2="1339.036" y2="1017.545" gradientTransform="matrix(1 0 0 -1 0 1260.551)"><stop offset="0" stop-color="#255487"/><stop offset="1" stop-color="#66BAA1"/></linearGradient><path d="M460.5 868h477.4l477.4-478H937.8L460.5 868z" fill="url(#SVGID_3_)"/><path d="M667.5 911.4c-15.8 15.8-41.4 28.7-57.2 28.7-15.8 0-15.8-12.8 0-28.7 15.8-15.8 41.4-28.7 57.2-28.7 15.8.1 15.8 12.9 0 28.7z" fill="#b2190c"/><path d="M1076.5 363.2h167.4v13.5h-167.4z" fill-opacity="0"/><path class="st48" d="M1092.7 370c-3.7 3.7-9.8 6.8-13.5 6.8-3.7 0-3.7-3 0-6.8 3.7-3.7 9.8-6.8 13.5-6.8 3.8 0 3.8 3 0 6.8zm148.4 0c-3.7 3.7-9.8 6.8-13.5 6.8h-121.4c-3.7 0-3.7-3 0-6.8 3.7-3.7 9.8-6.8 13.5-6.8h121.4c3.7 0 3.7 3 0 6.8z"/><linearGradient id="SVGID_4_" gradientUnits="userSpaceOnUse" x1="937.834" y1="827.136" x2="1501.992" y2="827.136" gradientTransform="matrix(1 0 0 -1 0 1260.551)"><stop offset="0" stop-color="#1C4163"/><stop offset="1" stop-color="#1886B5"/></linearGradient><path d="M937.8 476.9l86.8-86.9H1502l-86.8 86.9H937.8z" opacity=".3" fill="url(#SVGID_4_)"/><linearGradient id="SVGID_5_" gradientUnits="userSpaceOnUse" x1="685.867" y1="367.936" x2="919.894" y2="510.096" gradientTransform="matrix(1 0 0 -1 0 1260.551)"><stop offset="0" stop-color="#1C4163"/><stop offset="1" stop-color="#66BAA1"/></linearGradient><path d="M764.3 781l43.4-43.5h238.7L1003 781H764.3z" opacity=".3" fill="url(#SVGID_5_)"/><linearGradient id="SVGID_6_" gradientUnits="userSpaceOnUse" x1="924.554" y1="672.108" x2="1158.576" y2="814.266" gradientTransform="matrix(1 0 0 -1 0 1260.551)"><stop offset="0" stop-color="#1C4163"/><stop offset="1" stop-color="#66BAA1"/></linearGradient><path d="M1002.9 476.9l43.4-43.5H1285l-43.4 43.5h-238.7z" opacity=".7" fill="url(#SVGID_6_)"/><linearGradient id="SVGID_7_" gradientUnits="userSpaceOnUse" x1="865.454" y1="566.854" x2="1282.195" y2="920.382" gradientTransform="matrix(1 0 0 -1 0 1260.551)"><stop offset="0" stop-color="#255487"/><stop offset="1" stop-color="#66BAA1"/></linearGradient><path d="M807.7 563.8L634.1 737.6h390.6l173.6-173.8H807.7z" fill="url(#SVGID_7_)"/><linearGradient id="SVGID_8_" gradientUnits="userSpaceOnUse" x1="352.001" y1="639.87" x2="634.075" y2="639.87" gradientTransform="matrix(1 0 0 -1 0 1260.551)"><stop offset="0" stop-color="#B2190C"/><stop offset="1" stop-color="#E66D12"/></linearGradient><path d="M352 634.1l26.9-26.9h255.2l-26.9 26.9H352z" fill="url(#SVGID_8_)"/><linearGradient id="SVGID_9_" gradientUnits="userSpaceOnUse" x1="501.816" y1="771.264" x2="851.055" y2="771.264" gradientTransform="matrix(1 0 0 -1 0 1260.551)"><stop offset="0" stop-color="#B2190C"/><stop offset="1" stop-color="#E66D12"/></linearGradient><path d="M501.8 516.2l53.7-53.8H851l-53.7 53.8H501.8z" fill="url(#SVGID_9_)"/><linearGradient id="SVGID_10_" gradientUnits="userSpaceOnUse" x1="546.24" y1="677.116" x2="720.866" y2="677.116" gradientTransform="matrix(1 0 0 -1 0 1260.551)"><stop offset="0" stop-color="#B2190C"/><stop offset="1" stop-color="#E66D12"/></linearGradient><path d="M546.2 596.9l26.9-26.9h147.8L694 596.9H546.2z" fill="url(#SVGID_10_)"/><linearGradient id="SVGID_11_" gradientUnits="userSpaceOnUse" x1="131.923" y1="701.053" x2="376.236" y2="733.158" gradientTransform="matrix(1 0 0 -1 0 1260.551)"><stop offset="0" stop-color="#B2190C"/><stop offset="1" stop-color="#E66D12"/></linearGradient><path d="M286.9 543.1l53.7-53.8h295.5l-53.7 53.8H286.9z" fill="url(#SVGID_11_)"/><linearGradient id="SVGID_12_" gradientUnits="userSpaceOnUse" x1="388.146" y1="573.943" x2="720.864" y2="573.943" gradientTransform="matrix(1 0 0 -1 0 1260.551)"><stop offset="0" stop-color="#B2190C"/><stop offset="1" stop-color="#E66D12"/></linearGradient><path d="M388.1 694.1l15.1-15.1h317.7l-15.1 15.1H388.1z" fill="url(#SVGID_12_)"/><linearGradient id="SVGID_13_" gradientUnits="userSpaceOnUse" x1="243.521" y1="496.062" x2="904.804" y2="496.062" gradientTransform="matrix(1 0 0 -1 0 1260.551)"><stop offset="0" stop-color="#B2190C"/><stop offset="1" stop-color="#E66D12"/></linearGradient><path d="M243.5 791.4l53.7-53.8h607.6l-53.7 53.8H243.5z" fill="url(#SVGID_13_)"/><linearGradient id="SVGID_14_" gradientUnits="userSpaceOnUse" x1="60.608" y1="726.776" x2="547.275" y2="726.776" gradientTransform="matrix(1 0 0 -1 0 1260.551)"><stop offset="0" stop-color="#B2190C"/><stop offset="1" stop-color="#E66D12"/></linearGradient><path d="M60.6 547.2l26.9-26.9h459.8l-26.9 26.9H60.6z" fill="url(#SVGID_14_)"/><linearGradient id="SVGID_15_" gradientUnits="userSpaceOnUse" x1="32.345" y1="762.447" x2="490.621" y2="822.666" gradientTransform="matrix(1 0 0 -1 0 1260.551)"><stop offset="0" stop-color="#B2190C"/><stop offset="1" stop-color="#E66D12"/></linearGradient><path d="M320 443.8l53.7-53.8h607.6l-53.7 53.8H320z" fill="url(#SVGID_15_)"/><linearGradient id="SVGID_16_" gradientUnits="userSpaceOnUse" x1="417.094" y1="479.504" x2="981.251" y2="479.504" gradientTransform="matrix(1 0 0 -1 0 1260.551)"><stop offset="0" stop-color="#1C4163"/><stop offset="1" stop-color="#1886B5"/></linearGradient><path d="M417.1 824.5l86.8-86.9h477.4l-86.8 86.9H417.1z" opacity=".3" fill="url(#SVGID_16_)"/><linearGradient id="SVGID_17_" gradientUnits="userSpaceOnUse" x1="673.099" y1="696.976" x2="1024.853" y2="910.65" gradientTransform="matrix(1 0 0 -1 0 1260.551)"><stop offset="0" stop-color="#1C4163"/><stop offset="1" stop-color="#88D8BE"/></linearGradient><path d="M927.8 303.1L807.6 423.4H1078l120.2-120.3H927.8z" opacity=".2" fill="url(#SVGID_17_)"/><linearGradient id="SVGID_18_" gradientUnits="userSpaceOnUse" x1="439.731" y1="407.364" x2="947.832" y2="716.012" gradientTransform="matrix(1 0 0 -1 0 1260.551)"><stop offset="0" stop-color="#1C4163"/><stop offset="1" stop-color="#88D8BE"/></linearGradient><path d="M807.7 476.9L634.1 650.7h390.6l173.6-173.8H807.7z" fill="url(#SVGID_18_)"/><linearGradient id="Vector_4_2_" gradientUnits="userSpaceOnUse" x1="1498.126" y1="449.538" x2="1063.201" y2="449.538" gradientTransform="matrix(1 .001 .001 -1 -.531 1261.375)"><stop offset="0" stop-color="#255487"/><stop offset="1" stop-color="#66BAA1"/></linearGradient><path id="Vector_4_1_" d="M1498 781.3l-372.8-.3-62.2 63.5 372.8.3 62.2-63.5z" opacity=".5" fill="url(#Vector_4_2_)"/></svg>