<svg xmlns="http://www.w3.org/2000/svg" viewBox="-816.4 829.8 186.4 186.4"><path d="M-772 874.2c12.5-12.5 29.7-20.2 48.8-20.2 38.1 0 69 30.9 69 69 0 2-.1 3.9-.2 5.8m-20 43c-12.5 12.5-29.7 20.2-48.8 20.2-38.1 0-69-30.9-69-69 0-1.9.1-3.8.2-5.7m20-43.1v-9.6m0 9.6h8.5m89.1 96.3v9.6m0-9.6h-8.4" stroke="#13BEBB" stroke-width="4.252" stroke-linecap="round" stroke-linejoin="round" stroke-miterlimit="10" fill="none"/><path stroke="#13BEBB" stroke-width="4.252" stroke-linecap="round" stroke-linejoin="round" stroke-miterlimit="10" fill="none" d="M-769 908.4h81.9v37.5H-769z"/><circle fill="#13BEBB" cx="-729.3" cy="927.1" r="13.2"/><path fill="#13BEBB" d="M-762.8 913.9h6.8v8.2h-6.8zm63.2 0h6.8v26.5h-6.8z"/><path stroke="#13BEBB" stroke-width="4.252" stroke-linecap="round" stroke-linejoin="round" stroke-miterlimit="10" fill="none" d="M-761.3 908.4v-8.3h84v40.3h-8.5"/></svg>