<svg xmlns="http://www.w3.org/2000/svg" viewBox="-816.4 829.8 186.4 186.4" enable-background="new -816.4 829.8 186.4 186.4"><g stroke="#13BEBB" stroke-width="4.252" stroke-linecap="round" stroke-linejoin="round" stroke-miterlimit="10" fill="none"><path d="M-772 874.2c12.5-12.5 29.7-20.2 48.8-20.2 38.1 0 69 30.9 69 69 0 2-.1 3.9-.2 5.8M-674.4 971.8c-12.5 12.5-29.7 20.2-48.8 20.2-38.1 0-69-30.9-69-69 0-1.9.1-3.8.2-5.7M-772 874.2v-9.6M-772 874.2h8.5M-674.4 970.5v9.6M-674.4 970.5h-8.4"/></g><path stroke="#13BEBB" stroke-width="4.252" stroke-linecap="round" stroke-linejoin="round" stroke-miterlimit="10" fill="none" d="M-769 908.4h81.9v37.5h-81.9z"/><circle fill="#13BEBB" cx="-729.3" cy="927.1" r="13.2"/><path fill="#13BEBB" d="M-762.8 913.9h6.8v8.2h-6.8zM-699.6 913.9h6.8v26.5h-6.8z"/><path stroke="#13BEBB" stroke-width="4.252" stroke-linecap="round" stroke-linejoin="round" stroke-miterlimit="10" fill="none" d="M-761.3 908.4v-8.3h84v40.3h-8.5"/></svg>