<?xml version="1.0" encoding="utf-8"?>
<!-- Generator: Adobe Illustrator 22.1.0, SVG Export Plug-In . SVG Version: 6.00 Build 0)  -->
<svg version="1.1" id="GraphQL_Logo" xmlns="http://www.w3.org/2000/svg" xmlns:xlink="http://www.w3.org/1999/xlink" x="0px"
	 y="0px" viewBox="-816.4 829.8 186.4 186.4" enable-background="new -816.4 829.8 186.4 186.4" xml:space="preserve">
<g>
	
		<path fill="none" stroke="#13BEBB" stroke-width="4.252" stroke-linecap="round" stroke-linejoin="round" stroke-miterlimit="10" d="
		M-772,874.2c12.5-12.5,29.7-20.2,48.8-20.2c38.1,0,69,30.9,69,69c0,2-0.1,3.9-0.2,5.8"/>
	
		<path fill="none" stroke="#13BEBB" stroke-width="4.252" stroke-linecap="round" stroke-linejoin="round" stroke-miterlimit="10" d="
		M-674.4,971.8c-12.5,12.5-29.7,20.2-48.8,20.2c-38.1,0-69-30.9-69-69c0-1.9,0.1-3.8,0.2-5.7"/>
	<g>
		
			<line fill="none" stroke="#13BEBB" stroke-width="4.252" stroke-linecap="round" stroke-linejoin="round" stroke-miterlimit="10" x1="-772" y1="874.2" x2="-772" y2="864.6"/>
		
			<line fill="none" stroke="#13BEBB" stroke-width="4.252" stroke-linecap="round" stroke-linejoin="round" stroke-miterlimit="10" x1="-772" y1="874.2" x2="-763.5" y2="874.2"/>
	</g>
	<g>
		
			<line fill="none" stroke="#13BEBB" stroke-width="4.252" stroke-linecap="round" stroke-linejoin="round" stroke-miterlimit="10" x1="-674.4" y1="970.5" x2="-674.4" y2="980.1"/>
		
			<line fill="none" stroke="#13BEBB" stroke-width="4.252" stroke-linecap="round" stroke-linejoin="round" stroke-miterlimit="10" x1="-674.4" y1="970.5" x2="-682.8" y2="970.5"/>
	</g>
</g>
<g>
	<g>
		
			<rect x="-769" y="908.4" fill="none" stroke="#13BEBB" stroke-width="4.252" stroke-linecap="round" stroke-linejoin="round" stroke-miterlimit="10" width="81.9" height="37.5"/>
		<circle fill="#13BEBB" cx="-729.3" cy="927.1" r="13.2"/>
		<rect x="-762.8" y="913.9" fill="#13BEBB" width="6.8" height="8.2"/>
		<rect x="-699.6" y="913.9" fill="#13BEBB" width="6.8" height="26.5"/>
	</g>
	
		<polyline fill="none" stroke="#13BEBB" stroke-width="4.252" stroke-linecap="round" stroke-linejoin="round" stroke-miterlimit="10" points="
		-761.3,908.4 -761.3,900.1 -677.3,900.1 -677.3,940.4 -685.8,940.4 	"/>
</g>
</svg>
