<svg viewBox="0 0 139 44" fill="none" xmlns="http://www.w3.org/2000/svg">
<path d="M6.92783 0H42L35.0722 7H0L6.92783 0Z" transform="translate(42 7) rotate(180)" fill="#13BEBB"/>
<path d="M11.1286 36.9525C19.7459 36.9525 21.9125 33.4877 21.9125 28.7413C21.9125 22.9032 16.6437 21.8116 12.2612 21.0996C8.91274 20.53 7.38625 20.2453 7.38625 18.2043C7.38625 16.6855 8.71577 16.1159 10.8824 16.1159C13.5415 16.1159 14.2801 16.8753 14.5263 19.1061L21.5186 18.0619C20.9277 13.2681 18.2194 10.8474 11.0794 10.8474C3.24995 10.8474 0.492417 13.98 0.492417 18.9637C0.443175 25.4188 6.54914 26.0833 11.0794 26.8427C13.8861 27.3648 14.9695 27.8395 14.9695 29.6906C14.9695 31.2094 14.0339 31.8739 11.2271 31.8739C8.12487 31.8739 7.18928 31.3518 6.79535 28.8362L0 29.833C0.640141 34.9116 3.64388 36.9525 11.1286 36.9525Z" transform="translate(9 7)" fill="white"/>
<path d="M32.7984 36.9525C36.6392 36.9525 38.3627 35.7185 39.5937 33.9148V36.6203H46.5368V19.4384C46.5368 13.6952 44.3209 10.7999 36.6392 10.7999C29.2038 10.7999 26.594 12.8884 25.5599 18.0145L32.4537 19.0587C32.8969 16.8753 33.537 16.2108 36.393 16.2108C39.1506 16.2108 39.5937 17.35 39.5937 19.2485V21.0047H36.3438C27.5295 21.0047 24.5258 23.6627 24.5258 29.0735C24.5258 34.3895 27.2341 36.9525 32.7984 36.9525ZM35.8514 31.7315C32.5522 31.7315 31.3704 31.0196 31.3704 28.6464C31.3704 26.5105 32.5522 25.6561 36.0976 25.6561H39.643V28.1243C39.643 30.4975 38.4612 31.7315 35.8514 31.7315Z" transform="translate(9 7)" fill="white"/>
<path d="M51.731 36.6203H58.8218V0L51.731 7V36.6203Z" transform="translate(9 7)" fill="white"/>
<path d="M74.271 37C82.4451 37 84.6118 33.2029 85.1042 29.4058L78.3581 28.409C78.0626 30.6873 77.6195 31.8739 74.271 31.8739C70.8734 31.8739 70.1347 30.2127 70.1347 28.0293V25.9409H85.1042V21.3844C85.1042 15.0242 82.5929 10.7999 74.271 10.7999C66.0477 10.7999 63.2409 15.0717 63.2409 20.4826V27.3174C63.2409 32.5859 66.0969 37 74.271 37ZM70.1347 21.1471V19.8655C70.1347 17.6347 71.1688 16.1159 74.271 16.1159C77.2748 16.1159 78.2596 17.3974 78.2596 19.8655V21.1471H70.1347Z" transform="translate(9 7)" fill="white"/>
<path d="M99.6212 31.4942C96.7652 31.4942 95.3372 30.0228 95.3372 27.6496V20.3402C95.3372 17.9195 96.7652 16.4481 99.6212 16.4481C102.477 16.4481 104.004 17.9195 104.004 20.3402V27.6496C104.004 30.0228 102.477 31.4942 99.6212 31.4942ZM99.6212 37C107.746 37 111.095 32.8706 111.095 27.3174V20.4826C111.095 14.8344 107.746 10.7999 99.6212 10.7999C91.4964 10.7999 88.2464 14.8344 88.2464 20.4826V27.3174C88.2464 32.8706 91.4471 37 99.6212 37Z" transform="translate(9 7)" fill="white"/>
<path d="M115.296 36.6203H122.387V20.2453C122.387 17.6822 125.292 16.638 128.69 16.638H129.674V10.8949H128.69C125.883 10.9423 123.815 12.1764 122.387 14.2648V11.1797H115.296V36.6203Z" transform="translate(9 7)" fill="white"/>
</svg>
