<?xml version="1.0" encoding="UTF-8" standalone="no"?>
<!DOCTYPE svg PUBLIC "-//W3C//DTD SVG 1.1//EN" "http://www.w3.org/Graphics/SVG/1.1/DTD/svg11.dtd">
<svg width="100%" height="100%" viewBox="0 0 538 182" version="1.1" xmlns="http://www.w3.org/2000/svg" xmlns:xlink="http://www.w3.org/1999/xlink" xml:space="preserve" xmlns:serif="http://www.serif.com/" style="fill-rule:evenodd;clip-rule:evenodd;stroke-linejoin:round;stroke-miterlimit:1.41421;">
    <g transform="matrix(1,0,0,1,-287.02,-219.042)">
        <g id="Saleor-OS" serif:id="Saleor OS" transform="matrix(1,0,0,1,287.02,219.042)">
            <rect x="0" y="0" width="537.903" height="181.963" style="fill:none;"/>
            <clipPath id="_clip1">
                <rect x="0" y="0" width="537.903" height="181.963"/>
            </clipPath>
            <g clip-path="url(#_clip1)">
                <g id="Layer-1" serif:id="Layer 1">
                    <g transform="matrix(-0.703427,0.710768,0.710768,0.703427,138.07,-16.7075)">
                        <path d="M88.845,-66.02L129.574,-66.02L27.547,37.071L-13.182,37.071L88.845,-66.02Z" style="fill:rgb(19,190,187);fill-rule:nonzero;"/>
                    </g>
                    <g transform="matrix(1,0,0,1,83.2562,73.8084)">
                        <path d="M0,107.958C35.637,107.958 44.598,93.629 44.598,74.001C44.598,49.857 22.808,45.343 4.684,42.398C-9.164,40.042 -15.477,38.865 -15.477,30.425C-15.477,24.144 -9.979,21.788 -1.018,21.788C9.979,21.788 13.033,24.929 14.052,34.154L42.969,29.836C40.524,10.011 29.324,0 -0.204,0C-32.582,0 -43.986,12.955 -43.986,33.565C-44.189,60.261 -18.938,63.008 -0.204,66.148C11.403,68.309 15.885,70.27 15.885,77.926C15.885,84.208 12.016,86.956 0.407,86.956C-12.422,86.956 -16.291,84.797 -17.92,74.393L-46.022,78.515C-43.375,99.518 -30.953,107.958 0,107.958" style="fill:white;fill-rule:nonzero;"/>
                    </g>
                    <g transform="matrix(1,0,0,1,176.468,95.2036)">
                        <path d="M0,64.972C-13.645,64.972 -18.531,62.027 -18.531,52.213C-18.531,43.38 -13.645,39.847 1.018,39.847L15.68,39.847L15.68,50.054C15.68,59.868 10.793,64.972 0,64.972M-12.626,86.563C3.258,86.563 10.386,81.459 15.477,74L15.477,85.189L44.189,85.189L44.189,14.133C44.189,-9.618 35.025,-21.591 3.258,-21.591C-27.492,-21.591 -38.284,-12.955 -42.561,8.244L-14.051,12.563C-12.219,3.534 -9.571,0.785 2.24,0.785C13.644,0.785 15.477,5.496 15.477,13.348L15.477,20.611L2.036,20.611C-34.415,20.611 -46.838,31.603 -46.838,53.979C-46.838,75.963 -35.637,86.563 -12.626,86.563" style="fill:white;fill-rule:nonzero;"/>
                    </g>
                    <g transform="matrix(1,0,0,1,227.989,28.9494)">
                        <path d="M0,151.443L29.325,151.443L29.325,0L0,28.948L0,151.443Z" style="fill:white;fill-rule:nonzero;"/>
                    </g>
                    <g transform="matrix(1,0,0,1,293.154,139.173)">
                        <path d="M0,-22.771L0,-28.07C0,-37.295 4.277,-43.577 17.106,-43.577C29.528,-43.577 33.602,-38.277 33.602,-28.07L33.602,-22.771L0,-22.771ZM17.106,42.79C50.911,42.79 59.871,27.087 61.907,11.384L34.009,7.262C32.787,16.683 30.954,21.591 17.106,21.591C3.056,21.591 0,14.72 0,5.692L0,-2.945L61.907,-2.945L61.907,-21.789C61.907,-48.091 51.521,-65.561 17.106,-65.561C-16.901,-65.561 -28.509,-47.895 -28.509,-25.518L-28.509,2.747C-28.509,24.536 -16.698,42.79 17.106,42.79" style="fill:white;fill-rule:nonzero;"/>
                    </g>
                    <g transform="matrix(1,0,0,1,409.433,73.6117)">
                        <path d="M0,108.351C33.6,108.351 47.447,91.274 47.447,68.308L47.447,40.043C47.447,16.685 33.6,0 0,0C-33.602,0 -47.041,16.685 -47.041,40.043L-47.041,68.308C-47.041,91.274 -33.805,108.351 0,108.351M0,85.582C-11.812,85.582 -17.717,79.497 -17.717,69.683L-17.717,39.455C-17.717,29.444 -11.812,23.359 0,23.359C11.811,23.359 18.123,29.444 18.123,39.455L18.123,69.683C18.123,79.497 11.811,85.582 0,85.582" style="fill:white;fill-rule:nonzero;"/>
                    </g>
                    <path d="M509.253,103.568L493.535,103.568L493.535,179.778L464.211,179.778L464.211,103.568L464.211,103.568L492.861,74.619L537.903,74.619L509.253,103.568Z" style="fill:white;"/>
                </g>
            </g>
        </g>
    </g>
</svg>
