<?xml version="1.0" encoding="utf-8"?>
<!-- Generator: Adobe Illustrator 22.1.0, SVG Export Plug-In . SVG Version: 6.00 Build 0)  -->
<svg version="1.1" id="GraphQL_Logo" xmlns="http://www.w3.org/2000/svg" xmlns:xlink="http://www.w3.org/1999/xlink" x="0px"
	 y="0px" viewBox="-1380.3 1699.7 186.4 186.4" enable-background="new -1380.3 1699.7 186.4 186.4" xml:space="preserve">
<g>
	<g>
		<g>
			
				<polyline fill="none" stroke="#13BEBB" stroke-width="4.252" stroke-linecap="round" stroke-linejoin="round" stroke-miterlimit="10" points="
				-1307.8,1817.2 -1352.8,1817.2 -1352.8,1807.9 -1352.8,1727.1 -1228.3,1727.1 -1228.3,1761.4 			"/>
		</g>
		
			<polyline fill="none" stroke="#13BEBB" stroke-width="4.252" stroke-linecap="round" stroke-linejoin="round" stroke-miterlimit="10" points="
			-1306,1764.9 -1341,1764.9 -1341,1744.2 -1243,1744.2 -1243,1747.5 		"/>
		
			<line fill="none" stroke="#13BEBB" stroke-width="4.252" stroke-linecap="round" stroke-linejoin="round" stroke-miterlimit="10" x1="-1332.6" y1="1773.8" x2="-1312" y2="1773.8"/>
		
			<line fill="none" stroke="#13BEBB" stroke-width="4.252" stroke-linecap="round" stroke-linejoin="round" stroke-miterlimit="10" x1="-1332.6" y1="1784" x2="-1313.7" y2="1784"/>
		
			<line fill="none" stroke="#13BEBB" stroke-width="4.252" stroke-linecap="round" stroke-linejoin="round" stroke-miterlimit="10" x1="-1332.6" y1="1794.3" x2="-1314.1" y2="1794.3"/>
		
			<line fill="none" stroke="#13BEBB" stroke-width="4.252" stroke-linecap="round" stroke-linejoin="round" stroke-miterlimit="10" x1="-1332.6" y1="1804.5" x2="-1312.4" y2="1804.5"/>
	</g>
	<g>
		
			<path fill="none" stroke="#13BEBB" stroke-width="4.252" stroke-linecap="round" stroke-linejoin="round" stroke-miterlimit="10" d="
			M-1229.9,1828.2c-19.2,19.2-50.4,19.2-69.6,0c-11.6-11.6-16.2-27.5-13.8-42.5c0.5-3.5,1.5-6.9,2.7-10.2c2.4-6.2,6.1-12,11.1-17
			c19.2-19.2,50.4-19.2,69.6,0S-1210.6,1809-1229.9,1828.2z"/>
		
			<polygon fill="none" stroke="#13BEBB" stroke-width="4.252" stroke-linecap="round" stroke-linejoin="round" stroke-miterlimit="10" points="
			-1333.7,1869.7 -1341,1862.4 -1308.4,1829 -1301.1,1836.3 		"/>
		
			<polygon fill="none" stroke="#13BEBB" stroke-width="4.252" stroke-linecap="round" stroke-linejoin="round" stroke-miterlimit="10" points="
			-1297.6,1830.1 -1301.3,1826.3 -1306.6,1830.8 -1302.9,1834.5 		"/>
	</g>
	
		<line fill="none" stroke="#13BEBB" stroke-width="4.252" stroke-linecap="round" stroke-linejoin="round" stroke-miterlimit="10" x1="-1352.8" y1="1737.8" x2="-1228.3" y2="1737.8"/>
	<rect x="-1349.5" y="1730.6" fill="#13BEBB" width="3.4" height="3.4"/>
	<rect x="-1344.4" y="1730.6" fill="#13BEBB" width="3.4" height="3.4"/>
	<rect x="-1339.4" y="1730.6" fill="#13BEBB" width="3.4" height="3.4"/>
</g>
</svg>
