<svg xmlns="http://www.w3.org/2000/svg" viewBox="-1380.3 1699.7 186.4 186.4" enable-background="new -1380.3 1699.7 186.4 186.4"><path stroke="#13BEBB" stroke-width="4.252" stroke-linecap="round" stroke-linejoin="round" stroke-miterlimit="10" fill="none" d="M-1307.8 1817.2h-45v-90.1h124.5v34.3M-1306 1764.9h-35v-20.7h98v3.3M-1332.6 1773.8h20.6M-1332.6 1784h18.9M-1332.6 1794.3h18.5M-1332.6 1804.5h20.2"/><g stroke="#13BEBB" stroke-width="4.252" stroke-linecap="round" stroke-linejoin="round" stroke-miterlimit="10" fill="none"><path d="M-1229.9 1828.2c-19.2 19.2-50.4 19.2-69.6 0-11.6-11.6-16.2-27.5-13.8-42.5.5-3.5 1.5-6.9 2.7-10.2 2.4-6.2 6.1-12 11.1-17 19.2-19.2 50.4-19.2 69.6 0s19.3 50.5 0 69.7zM-1333.7 1869.7l-7.3-7.3 32.6-33.4 7.3 7.3zM-1297.6 1830.1l-3.7-3.8-5.3 4.5 3.7 3.7z"/></g><path stroke="#13BEBB" stroke-width="4.252" stroke-linecap="round" stroke-linejoin="round" stroke-miterlimit="10" fill="none" d="M-1352.8 1737.8h124.5"/><path fill="#13BEBB" d="M-1349.5 1730.6h3.4v3.4h-3.4zM-1344.4 1730.6h3.4v3.4h-3.4zM-1339.4 1730.6h3.4v3.4h-3.4z"/></svg>