<?xml version="1.0" encoding="utf-8"?>
<!-- Generator: Adobe Illustrator 22.1.0, SVG Export Plug-In . SVG Version: 6.00 Build 0)  -->
<svg version="1.1" id="GraphQL_Logo" xmlns="http://www.w3.org/2000/svg" xmlns:xlink="http://www.w3.org/1999/xlink" x="0px"
	 y="0px" viewBox="-582.4 426.3 186.4 186.4" enable-background="new -582.4 426.3 186.4 186.4" xml:space="preserve">
<g>
	<g>
		<g>
			
				<polyline fill="none" stroke="#13BEBB" stroke-width="4.252" stroke-linecap="round" stroke-linejoin="round" stroke-miterlimit="10" points="
				-507.8,543.8 -552.9,543.8 -552.9,534.6 -552.9,453.8 -428.3,453.8 -428.3,488.1 			"/>
		</g>
		
			<polyline fill="none" stroke="#13BEBB" stroke-width="4.252" stroke-linecap="round" stroke-linejoin="round" stroke-miterlimit="10" points="
			-506,491.5 -541.1,491.5 -541.1,470.8 -443,470.8 -443,474.2 		"/>
		
			<line fill="none" stroke="#13BEBB" stroke-width="4.252" stroke-linecap="round" stroke-linejoin="round" stroke-miterlimit="10" x1="-532.7" y1="500.5" x2="-512.1" y2="500.5"/>
		
			<line fill="none" stroke="#13BEBB" stroke-width="4.252" stroke-linecap="round" stroke-linejoin="round" stroke-miterlimit="10" x1="-532.7" y1="510.7" x2="-513.7" y2="510.7"/>
		
			<line fill="none" stroke="#13BEBB" stroke-width="4.252" stroke-linecap="round" stroke-linejoin="round" stroke-miterlimit="10" x1="-532.7" y1="520.9" x2="-514.2" y2="520.9"/>
		
			<line fill="none" stroke="#13BEBB" stroke-width="4.252" stroke-linecap="round" stroke-linejoin="round" stroke-miterlimit="10" x1="-532.7" y1="531.1" x2="-512.5" y2="531.1"/>
	</g>
	<g>
		
			<path fill="none" stroke="#13BEBB" stroke-width="4.252" stroke-linecap="round" stroke-linejoin="round" stroke-miterlimit="10" d="
			M-429.9,554.9c-19.2,19.2-50.4,19.2-69.6,0c-11.6-11.6-16.2-27.5-13.8-42.5c0.5-3.5,1.5-6.9,2.7-10.2c2.4-6.2,6.1-12,11.1-17
			c19.2-19.2,50.4-19.2,69.6,0C-410.7,504.5-410.7,535.6-429.9,554.9z"/>
		
			<polygon fill="none" stroke="#13BEBB" stroke-width="4.252" stroke-linecap="round" stroke-linejoin="round" stroke-miterlimit="10" points="
			-533.7,596.4 -541,589.1 -508.4,555.7 -501.1,563 		"/>
		
			<polygon fill="none" stroke="#13BEBB" stroke-width="4.252" stroke-linecap="round" stroke-linejoin="round" stroke-miterlimit="10" points="
			-497.7,556.7 -501.4,553 -506.6,557.5 -502.9,561.2 		"/>
	</g>
	
		<polyline fill="none" stroke="#13BEBB" stroke-width="4.252" stroke-linecap="round" stroke-linejoin="round" stroke-miterlimit="10" points="
		-477.1,505.6 -493.5,505.6 -493.5,520 -478.8,520 -478.8,534.5 -495.2,534.5 	"/>
	<g>
		
			<rect x="-448.9" y="505.6" fill="none" stroke="#13BEBB" stroke-width="4.252" stroke-linecap="round" stroke-linejoin="round" stroke-miterlimit="10" width="14.7" height="28.9"/>
	</g>
	<g>
		
			<polyline fill="none" stroke="#13BEBB" stroke-width="4.252" stroke-linecap="round" stroke-linejoin="round" stroke-miterlimit="10" points="
			-455.7,505.6 -470.4,505.6 -470.4,520 -470.4,534.5 -455.7,534.5 		"/>
		
			<line fill="none" stroke="#13BEBB" stroke-width="4.252" stroke-linecap="round" stroke-linejoin="round" stroke-miterlimit="10" x1="-460.7" y1="520" x2="-470.4" y2="520"/>
	</g>
	
		<line fill="none" stroke="#13BEBB" stroke-width="4.252" stroke-linecap="round" stroke-linejoin="round" stroke-miterlimit="10" x1="-552.9" y1="464.5" x2="-428.3" y2="464.5"/>
	<rect x="-549.5" y="457.3" fill="#13BEBB" width="3.4" height="3.4"/>
	<rect x="-544.5" y="457.3" fill="#13BEBB" width="3.4" height="3.4"/>
	<rect x="-539.4" y="457.3" fill="#13BEBB" width="3.4" height="3.4"/>
</g>
</svg>
