<svg xmlns="http://www.w3.org/2000/svg" viewBox="-582.4 426.3 186.4 186.4" enable-background="new -582.4 426.3 186.4 186.4"><path stroke="#13BEBB" stroke-width="4.252" stroke-linecap="round" stroke-linejoin="round" stroke-miterlimit="10" fill="none" d="M-507.8 543.8h-45.1v-90h124.6v34.3M-506 491.5h-35.1v-20.7h98.1v3.4M-532.7 500.5h20.6M-532.7 510.7h19M-532.7 520.9h18.5M-532.7 531.1h20.2"/><g stroke="#13BEBB" stroke-width="4.252" stroke-linecap="round" stroke-linejoin="round" stroke-miterlimit="10" fill="none"><path d="M-429.9 554.9c-19.2 19.2-50.4 19.2-69.6 0-11.6-11.6-16.2-27.5-13.8-42.5.5-3.5 1.5-6.9 2.7-10.2 2.4-6.2 6.1-12 11.1-17 19.2-19.2 50.4-19.2 69.6 0 19.2 19.3 19.2 50.4 0 69.7zM-533.7 596.4l-7.3-7.3 32.6-33.4 7.3 7.3zM-497.7 556.7l-3.7-3.7-5.2 4.5 3.7 3.7z"/></g><path stroke="#13BEBB" stroke-width="4.252" stroke-linecap="round" stroke-linejoin="round" stroke-miterlimit="10" fill="none" d="M-477.1 505.6h-16.4v14.4h14.7v14.5h-16.4"/><path stroke="#13BEBB" stroke-width="4.252" stroke-linecap="round" stroke-linejoin="round" stroke-miterlimit="10" fill="none" d="M-448.9 505.6h14.7v28.9h-14.7z"/><g stroke="#13BEBB" stroke-width="4.252" stroke-linecap="round" stroke-linejoin="round" stroke-miterlimit="10" fill="none"><path d="M-455.7 505.6h-14.7v28.9h14.7M-460.7 520h-9.7"/></g><path stroke="#13BEBB" stroke-width="4.252" stroke-linecap="round" stroke-linejoin="round" stroke-miterlimit="10" fill="none" d="M-552.9 464.5h124.6"/><path fill="#13BEBB" d="M-549.5 457.3h3.4v3.4h-3.4zM-544.5 457.3h3.4v3.4h-3.4zM-539.4 457.3h3.4v3.4h-3.4z"/></svg>