<svg xmlns="http://www.w3.org/2000/svg" viewBox="-582.4 426.3 186.4 186.4"><path stroke="#13BEBB" stroke-width="4.252" stroke-linecap="round" stroke-linejoin="round" stroke-miterlimit="10" fill="none" d="M-507.8 543.8h-45.1v-90h124.6v34.3m-77.7 3.4h-35.1v-20.7h98.1v3.4m-89.7 26.3h20.6m-20.6 10.2h19m-19 10.2h18.5m-18.5 10.2h20.2"/><path d="M-429.9 554.9c-19.2 19.2-50.4 19.2-69.6 0-11.6-11.6-16.2-27.5-13.8-42.5.5-3.5 1.5-6.9 2.7-10.2 2.4-6.2 6.1-12 11.1-17 19.2-19.2 50.4-19.2 69.6 0 19.2 19.3 19.2 50.4 0 69.7zm-103.8 41.5l-7.3-7.3 32.6-33.4 7.3 7.3zm36-39.7l-3.7-3.7-5.2 4.5 3.7 3.7z" stroke="#13BEBB" stroke-width="4.252" stroke-linecap="round" stroke-linejoin="round" stroke-miterlimit="10" fill="none"/><path stroke="#13BEBB" stroke-width="4.252" stroke-linecap="round" stroke-linejoin="round" stroke-miterlimit="10" fill="none" d="M-477.1 505.6h-16.4V520h14.7v14.5h-16.4M-448.9 505.6h14.7v28.9h-14.7zM-455.7 505.6h-14.7v28.9h14.7m-5-14.5h-9.7M-552.9 464.5h124.6"/><path fill="#13BEBB" d="M-549.5 457.3h3.4v3.4h-3.4zm5 0h3.4v3.4h-3.4zm5.1 0h3.4v3.4h-3.4z"/></svg>