<svg width="24" height="24" viewBox="0 0 24 24" fill="none" xmlns="http://www.w3.org/2000/svg">
<path d="M2.18808 0C1.98134 0 1.86073 0.0172662 1.49892 0.0172662C0.379038 0.0172662 0 0.880576 0 1.58849V10.6532C0 11.3957 0.603015 11.9827 1.34386 11.9482C1.68844 11.9309 1.99856 11.9309 2.18808 11.9309C7.80474 11.9309 11.9569 15.2288 11.9569 22.1353C11.9569 22.2734 11.9569 22.4633 11.9397 22.6532C11.9225 23.3957 12.9218 24 13.6454 24H22.6906C23.397 24 23.9828 23.4302 23.9828 22.7223C23.9828 22.4978 23.9828 22.2906 23.9828 22.1353C24 10.0662 16.247 0 2.18808 0Z"/>
</svg>
