<svg width="48" height="48" viewBox="0 0 48 48" fill="none" xmlns="http://www.w3.org/2000/svg">
<path d="M31.0611 27.2169C31.8727 27.2169 32.6729 27.2169 33.471 27.2169C33.471 32.145 33.471 37.0709 33.471 42C25.6394 42 17.8233 42 10 42C10 37.0699 10 32.1491 10 27.2169C10.7992 27.2169 11.5983 27.2169 12.4089 27.2169C12.4089 31.3437 12.4089 35.4664 12.4089 39.6046C18.6256 39.6046 24.8319 39.6046 31.059 39.6046C31.0611 35.4716 31.0611 31.35 31.0611 27.2169ZM24.1969 10.6745C26.8698 14.5944 29.5365 18.503 32.2063 22.4178C33.0501 21.841 33.8805 21.2746 34.715 20.7062C32.0379 16.782 29.3733 12.8766 26.7056 8.96389C25.8659 9.53546 25.0387 10.0998 24.1969 10.6745ZM31.7137 22.8314C27.6233 20.4193 23.5516 18.0177 19.4716 15.6108C18.953 16.489 18.4438 17.3515 17.9273 18.2266C22.0073 20.6324 26.0821 23.0351 30.1715 25.4471C30.6901 24.5669 31.2014 23.7023 31.7137 22.8314ZM35.8176 6C34.8148 6.17459 33.8327 6.34606 32.8257 6.51962C33.6363 11.1951 34.4489 15.853 35.2575 20.5222C36.2676 20.3476 37.2549 20.1751 38.2505 20.0026C37.4388 15.3219 36.6293 10.663 35.8176 6ZM29.921 26.3055C25.338 25.0709 20.7727 23.8457 16.1949 22.6142C15.9309 23.5931 15.67 24.5627 15.405 25.5469C19.987 26.7794 24.5565 28.0057 29.1322 29.2372C29.3993 28.252 29.6591 27.2824 29.921 26.3055ZM28.6334 34.1673C23.8966 34.1673 19.1733 34.1673 14.4438 34.1673C14.4438 35.1847 14.4438 36.1855 14.4438 37.1863C19.1816 37.1863 23.9049 37.1863 28.6334 37.1863C28.6334 36.1699 28.6334 35.1671 28.6334 34.1673ZM28.9888 30.265C24.2634 29.8306 19.5547 29.3941 14.8355 28.9618C14.741 29.9771 14.6474 30.9758 14.5539 31.986C19.2793 32.4204 23.9891 32.8548 28.7082 33.2892C28.8028 32.2728 28.8943 31.2741 28.9888 30.265Z" fill="#FFF"/>
</svg>
