<svg width="83" height="83" viewBox="0 0 83 83" fill="none" xmlns="http://www.w3.org/2000/svg">
<path d="M36.3122 36.6154C37.7115 36.6154 39.0912 36.6154 40.4673 36.6154C40.4673 45.12 40.4673 53.621 40.4673 62.1274C26.9645 62.1274 13.4885 62.1274 0 62.1274C0 53.6192 0 45.1272 0 36.6154C1.37788 36.6154 2.75575 36.6154 4.15334 36.6154C4.15334 43.7372 4.15334 50.8519 4.15334 57.9935C14.8718 57.9935 25.5723 57.9935 36.3086 57.9935C36.3122 50.8609 36.3122 43.748 36.3122 36.6154ZM24.4775 8.06701C29.0859 14.832 33.6836 21.5772 38.2867 28.3332C39.7416 27.3378 41.1733 26.3603 42.6121 25.3793C37.9964 18.6072 33.4023 11.8674 28.8028 5.11496C27.3551 6.10137 25.9288 7.07522 24.4775 8.06701ZM37.4374 29.047C30.385 24.8843 23.3648 20.7396 16.3303 16.586C15.4362 18.1014 14.5582 19.59 13.6677 21.1001C20.7022 25.252 27.7278 29.3985 34.7784 33.5611C35.6725 32.042 36.5541 30.5499 37.4374 29.047ZM44.5131 0C42.7841 0.301302 41.0908 0.597224 39.3546 0.896733C40.7522 8.96553 42.1534 17.0038 43.5474 25.0619C45.289 24.7606 46.9912 24.4629 48.7077 24.1651C47.3083 16.0874 45.9125 8.04728 44.5131 0ZM34.3466 35.0425C26.4448 32.9119 18.5736 30.7974 10.6808 28.6721C10.2257 30.3616 9.77594 32.0349 9.31904 33.7333C17.219 35.8603 25.0974 37.9766 32.9866 40.1019C33.4471 38.4017 33.8951 36.7284 34.3466 35.0425ZM32.1266 48.6101C23.9597 48.6101 15.816 48.6101 7.66164 48.6101C7.66164 50.3659 7.66164 52.093 7.66164 53.8201C15.8304 53.8201 23.974 53.8201 32.1266 53.8201C32.1266 52.0661 32.1266 50.3354 32.1266 48.6101ZM32.7394 41.8756C24.5921 41.1259 16.4736 40.3727 8.33714 39.6266C8.17409 41.3788 8.01283 43.1023 7.85157 44.8456C15.9988 45.5953 24.1191 46.3449 32.2556 47.0946C32.4186 45.3406 32.5763 43.6171 32.7394 41.8756Z" transform="translate(17.2422 10.3546)" fill="#36C1AC"/>
</svg>
