<svg width="83" height="83" xmlns="http://www.w3.org/2000/svg" fill="none"><path d="M53.554 46.97h4.155v25.512H17.242V46.97h4.153v21.378H53.55c.004-7.133.004-14.245.004-21.378zM41.719 18.422c4.608 6.765 9.206 13.51 13.809 20.266 1.455-.995 2.887-1.973 4.325-2.954-4.616-6.772-9.21-13.512-13.809-20.264-1.448.986-2.874 1.96-4.325 2.952zm12.96 20.98c-7.052-4.163-14.073-8.307-21.107-12.461l-2.663 4.514L52.02 43.916l2.659-4.514zm7.076-29.047c-1.729.301-3.422.597-5.159.897 1.398 8.069 2.799 16.107 4.193 24.165 1.742-.301 3.444-.599 5.16-.897-1.399-8.078-2.795-16.118-4.195-24.165zM51.589 45.397c-7.902-2.131-15.773-4.245-23.666-6.37l-1.362 5.061c7.9 2.127 15.778 4.243 23.668 6.369.46-1.7.908-3.373 1.36-5.059zm-2.22 13.568H24.904v5.21h24.465v-5.21zm.613-6.735c-8.147-.75-16.266-1.503-24.402-2.249l-.486 5.219 24.404 2.249.484-5.219z" fill="#36C1AC"/></svg>