<?xml version="1.0" encoding="utf-8"?>
<!-- Generator: Adobe Illustrator 22.1.0, SVG Export Plug-In . SVG Version: 6.00 Build 0)  -->
<svg version="1.1" id="Layer_1" xmlns="http://www.w3.org/2000/svg" xmlns:xlink="http://www.w3.org/1999/xlink" x="0px" y="0px"
	 viewBox="0 0 912.1 591.1" style="enable-background:new 0 0 912.1 591.1;" xml:space="preserve">
<style type="text/css">
	.st0{fill-opacity:0;}
</style>
<g>
	<rect x="94.3" y="431.1" class="st0" width="129.4" height="55.5"/>
	<rect x="94.3" y="431.1" class="st0" width="129.4" height="55.5"/>
	<path d="M205.4,453.7c-2.4,0-3.8,2-3.8,5.3c0,3.4,1.4,5.3,3.8,5.3c2.3,0,3.7-2,3.7-5.3C209.1,455.6,207.8,453.7,205.4,453.7z"/>
	<path d="M186.7,456.3l-0.1-2v-0.5c-0.1,0-0.2,0-0.2,0H186c-1.2-0.1-2.6,0.3-3.5,0.9c-1.5,0.8-2.2,2.3-2.2,4.5
		c0,3.1,1.5,4.8,4.2,4.8c0.8,0,1.5-0.2,2.3-0.4v-0.4v-1.7c0-0.7-0.1-1.5-0.1-2.3V456.3z"/>
	<path d="M109.6,459c0,3.3,1.7,5.1,4.8,5.1c0.7,0,1.2-0.1,2.1-0.2V454c-0.7-0.2-1.3-0.3-2.1-0.3C111.4,453.7,109.6,455.6,109.6,459z
		"/>
	<path d="M216.4,431.1h-115c-4,0-7.2,3.2-7.2,7.2v41.1c0,4,3.2,7.2,7.2,7.2h115c4,0,7.2-3.2,7.2-7.2v-41.1
		C223.6,434.3,220.4,431.1,216.4,431.1z M103.4,459.1c0-6.2,4.1-10.3,10.5-10.3c1,0,1.7,0.1,2.7,0.3v-9.3h6.1v28.4
		c-3.1,0.6-5.4,0.8-8,0.8C107.3,469,103.4,465.6,103.4,459.1z M132.4,463.4c0,4.9-0.4,7.2-1.4,9.3c-1,2-2.3,3.2-5,4.5l-5.7-2.7
		c2.7-1.3,4-2.4,4.8-4.1c0.9-1.7,1.2-3.8,1.2-9.1v-12.1h6.1L132.4,463.4L132.4,463.4z M132.4,446.1h-6.1v-6.3h6.1V446.1z M151,468.4
		c-2.7,0.4-6.2,0.7-8.8,0.7c-5.1,0-7.4-1.8-7.4-5.8c0-4.3,3.1-6.3,10.6-6.9V455c0-1.1-0.6-1.5-2.1-1.5c-2.3,0-4.8,0.6-7.2,1.9v-4.7
		c2.7-1.3,5.3-1.8,8.1-1.8c3.1,0,5.2,0.8,6.1,2.5c0.5,0.9,0.7,2.1,0.7,4.6L151,468.4L151,468.4z M172.1,468.7H166v-11.8
		c0-2.3-0.8-3.2-3-3.2c-0.8,0-1.6,0.1-2.8,0.4v14.6H154v-18.5c3.6-0.9,6.6-1.4,9.6-1.4c3.1,0,5.4,0.7,6.8,2.1
		c1.3,1.3,1.7,2.7,1.7,5.8V468.7L172.1,468.7z M192.5,454v0.6l0.1,2.6l0.1,3.3c0.1,0.8,0.1,1.7,0.1,2.5c0,0.7,0,1.1,0,1.7
		c0,5.3-0.4,7.7-1.7,9.8c-1.9,3-5.2,4.5-9.9,4.5c-2.4,0-4.5-0.4-6.6-1.2v-5.6c2.2,1.1,4.3,1.6,6.6,1.6c4,0,5.7-1.6,5.7-5.5
		c0-0.1,0-0.1,0-0.1c-1.2,0.6-2.4,0.8-4,0.8c-5.4,0-8.8-3.5-8.8-9.2c0-7,5.1-10.9,14-10.9c2.6,0,5.1,0.3,8,0.9l-2.1,4.4
		C192.3,453.8,193.8,454.1,192.5,454z M205.3,469.3c-6.1,0-9.9-3.9-9.9-10.1c0-6.4,3.9-10.5,10.1-10.5c6.1,0,9.9,3.9,9.9,10.1
		C215.4,465.2,211.5,469.3,205.3,469.3z"/>
	<path d="M140.3,463c0,1.2,0.7,1.7,2.4,1.7c0.9,0,1.7-0.1,3-0.3v-4.1C141.7,460.8,140.3,461.4,140.3,463z"/>
</g>
<g>
	<rect x="280.6" y="419.1" class="st0" width="78.2" height="78.9"/>
	<path d="M319.2,419.1c-3.2,0-6.3,0.3-9,0.8c-7.9,1.4-9.4,4.4-9.4,9.8v7.2h18.8v2.4h-18.8h-7.1c-5.5,0-10.3,3.3-11.8,9.5
		c-1.8,7.2-1.8,11.7,0,19.1c1.3,5.5,4.6,9.5,10,9.5h6.5v-8.6c0-6.2,5.4-11.7,11.8-11.7H329c5.3,0,9.4-4.3,9.4-9.5v-17.9
		c0-5.1-4.3-8.9-9.4-9.8C325.8,419.3,322.5,419.1,319.2,419.1z M309,424.9c2,0,3.5,1.6,3.5,3.6s-1.6,3.6-3.5,3.6
		c-2,0-3.5-1.6-3.5-3.6S307.1,424.9,309,424.9z"/>
	<path d="M340.8,439.3v8.4c0,6.5-5.5,11.9-11.8,11.9h-18.8c-5.1,0-9.4,4.4-9.4,9.5V487c0,5.1,4.4,8.1,9.4,9.5c6,1.8,11.7,2,18.8,0
		c4.8-1.4,9.4-4.1,9.4-9.5v-7.2h-18.8v-2.4h18.8h9.4c5.5,0,7.5-3.8,9.4-9.5c2-5.9,1.9-11.6,0-19.1c-1.3-5.5-3.9-9.5-9.4-9.5H340.8z
		 M330.3,484.6c2,0,3.5,1.6,3.5,3.6s-1.6,3.6-3.5,3.6c-2,0-3.5-1.6-3.5-3.6C326.7,486.2,328.3,484.6,330.3,484.6z"/>
</g>
<g>
	<path d="M482.7,146.5c-0.6-0.4-1.3-0.6-2-0.8v-19.8c0.7-0.2,1.3-0.4,2-0.8c3.6-2.1,4.8-6.6,2.7-10.2c-2.1-3.6-6.6-4.8-10.2-2.7
		c-0.6,0.4-1.2,0.8-1.7,1.3l-17.2-9.9c0.2-0.7,0.3-1.4,0.3-2.1c0-4.1-3.3-7.4-7.5-7.4c-4.1,0-7.5,3.3-7.5,7.4c0,0.7,0.1,1.5,0.3,2.1
		l-17.2,9.9c-0.5-0.5-1-1-1.7-1.3c-3.6-2-8.1-0.8-10.2,2.7c-2.1,3.6-0.8,8.1,2.7,10.2c0.6,0.4,1.3,0.6,2,0.8v19.8
		c-0.7,0.2-1.3,0.4-2,0.8c-3.6,2.1-4.8,6.6-2.7,10.2c2.1,3.6,6.6,4.8,10.2,2.7c0.6-0.4,1.2-0.8,1.7-1.3L442,168
		c-0.2,0.7-0.3,1.4-0.3,2.1c0,4.1,3.3,7.4,7.5,7.4c4.1,0,7.5-3.3,7.5-7.4c0-0.8-0.1-1.6-0.4-2.3l17.1-9.9c0.5,0.6,1.1,1.1,1.8,1.5
		c3.6,2,8.1,0.8,10.2-2.7C487.5,153.1,486.3,148.5,482.7,146.5z M426.6,151.2c-0.2-0.7-0.4-1.3-0.8-2c-0.4-0.6-0.8-1.2-1.3-1.7
		l22.5-39c0.7,0.2,1.3,0.3,2.1,0.3c0.7,0,1.4-0.1,2.1-0.3l22.6,39c-0.5,0.5-0.9,1-1.3,1.7c-0.4,0.6-0.6,1.3-0.8,2H426.6z
		 M471.8,116.6c-0.5,1.9-0.3,3.9,0.7,5.8c1,1.8,2.8,3,4.7,3.5v19.9c-0.1,0-0.2,0-0.3,0.1l-22.5-39c0.1-0.1,0.1-0.1,0.2-0.2
		L471.8,116.6z M443.8,106.6c0.1,0.1,0.1,0.1,0.2,0.2l-22.6,38.9c-0.1,0-0.2-0.1-0.3-0.1v-19.9c1.9-0.5,3.6-1.7,4.7-3.5
		c1-1.8,1.2-3.9,0.7-5.8L443.8,106.6z M454.7,165.1c-1.4-1.5-3.3-2.4-5.5-2.4c-2.1,0-4,0.9-5.4,2.3l-17.2-9.9c0-0.1,0-0.2,0.1-0.3
		h45c0,0.2,0.1,0.3,0.1,0.5L454.7,165.1z"/>
</g>
<g>
	<rect x="462.4" y="205.7" class="st0" width="83.7" height="74.4"/>
	<rect x="462.4" y="205.7" class="st0" width="83.7" height="74.4"/>
	<path d="M546,242.9c0-5.5-6.9-10.8-17.6-14c2.5-10.8,1.4-19.5-3.4-22.2c-1.1-0.6-2.4-1-3.8-1v3.8c0.8,0,1.4,0.2,1.9,0.4
		c2.3,1.3,3.3,6.4,2.5,12.9c-0.2,1.6-0.5,3.3-0.9,5c-3.3-0.8-7-1.4-10.8-1.9c-2.3-3.2-4.7-6-7.1-8.5c5.6-5.2,10.8-8,14.3-8v-3.8
		c-4.7,0-10.8,3.3-17,9.1c-6.2-5.8-12.3-9.1-17-9.1v3.8c3.5,0,8.8,2.8,14.3,7.9c-2.4,2.5-4.8,5.3-7,8.5c-3.9,0.4-7.5,1-10.8,1.9
		c-0.4-1.7-0.7-3.4-0.9-4.9c-0.8-6.5,0.2-11.6,2.5-12.9c0.5-0.3,1.2-0.4,2-0.4v-3.8c-1.4,0-2.7,0.3-3.9,1
		c-4.8,2.8-5.9,11.4-3.4,22.2c-10.6,3.3-17.5,8.5-17.5,14s6.9,10.8,17.6,14c-2.5,10.8-1.4,19.5,3.4,22.2c1.1,0.6,2.4,1,3.8,1
		c4.7,0,10.8-3.3,17-9.1c6.2,5.8,12.3,9.1,17,9.1c1.4,0,2.7-0.3,3.9-1c4.8-2.8,5.9-11.4,3.4-22.2C539.1,253.7,546,248.4,546,242.9z
		 M523.8,231.6c-0.6,2.2-1.4,4.5-2.3,6.7c-0.7-1.4-1.4-2.7-2.2-4.1c-0.8-1.4-1.6-2.7-2.5-4C519.3,230.6,521.6,231,523.8,231.6z
		 M516,249.7c-1.3,2.3-2.7,4.5-4.1,6.5c-2.5,0.2-5.1,0.3-7.7,0.3s-5.1-0.1-7.7-0.3c-1.4-2-2.8-4.2-4.1-6.5c-1.3-2.2-2.5-4.5-3.5-6.8
		c1.1-2.3,2.3-4.6,3.5-6.8c1.3-2.3,2.7-4.5,4.1-6.5c2.5-0.2,5.1-0.3,7.7-0.3s5.1,0.1,7.7,0.3c1.4,2,2.8,4.2,4.1,6.5
		c1.3,2.2,2.5,4.5,3.5,6.8C518.5,245.2,517.3,247.5,516,249.7z M521.5,247.5c0.9,2.3,1.7,4.6,2.4,6.8c-2.2,0.5-4.6,1-7,1.4
		c0.8-1.3,1.7-2.7,2.5-4C520.1,250.2,520.8,248.8,521.5,247.5z M504.2,265.7c-1.6-1.6-3.2-3.5-4.7-5.4c1.5,0.1,3.1,0.1,4.7,0.1
		s3.2,0,4.7-0.1C507.4,262.2,505.8,264,504.2,265.7z M491.5,255.6c-2.4-0.4-4.8-0.8-7-1.3c0.6-2.2,1.4-4.5,2.3-6.7
		c0.7,1.4,1.4,2.7,2.2,4.1C489.9,253,490.7,254.3,491.5,255.6z M504.1,220.2c1.6,1.6,3.2,3.5,4.7,5.5c-1.5-0.1-3.1-0.1-4.7-0.1
		s-3.2,0-4.7,0.1C501,223.6,502.6,221.8,504.1,220.2z M491.5,230.2c-0.8,1.3-1.7,2.7-2.5,4c-0.8,1.4-1.5,2.7-2.2,4.1
		c-0.9-2.3-1.7-4.6-2.4-6.8C486.7,231,489.1,230.6,491.5,230.2z M476.1,251.5c-6-2.6-9.9-5.9-9.9-8.6c0-2.7,3.9-6.1,9.9-8.6
		c1.5-0.6,3.1-1.2,4.7-1.7c1,3.3,2.2,6.8,3.8,10.4c-1.6,3.5-2.8,7-3.8,10.3C479.2,252.7,477.6,252.2,476.1,251.5z M485.3,275.9
		c-2.3-1.3-3.3-6.4-2.5-12.9c0.2-1.6,0.5-3.3,0.9-5c3.3,0.8,7,1.4,10.8,1.9c2.3,3.2,4.7,6,7.1,8.5c-5.6,5.2-10.8,8-14.3,8
		C486.4,276.3,485.8,276.2,485.3,275.9z M525.7,262.9c0.8,6.5-0.2,11.6-2.5,12.9c-0.5,0.3-1.2,0.4-2,0.4c-3.5,0-8.8-2.8-14.3-7.9
		c2.4-2.5,4.8-5.3,7-8.5c3.9-0.4,7.5-1,10.8-1.9C525.2,259.7,525.5,261.3,525.7,262.9z M532.3,251.5c-1.5,0.6-3.1,1.2-4.7,1.7
		c-1-3.3-2.3-6.8-3.8-10.4c1.6-3.5,2.8-7,3.8-10.3c1.7,0.5,3.3,1.1,4.8,1.7c6,2.6,9.9,5.9,9.9,8.6
		C542.2,245.6,538.3,249,532.3,251.5z"/>
	<path d="M504.2,250.7c4.3,0,7.8-3.5,7.8-7.8s-3.5-7.8-7.8-7.8s-7.8,3.5-7.8,7.8C496.4,247.2,499.9,250.7,504.2,250.7z"/>
</g>
<g>
	<rect x="322.5" y="207.8" class="st0" width="70.3" height="70.2"/>
	<path d="M357.6,207.8h-35.1v35.1V278h35.1h35.1v-35.1v-35.1L357.6,207.8L357.6,207.8z M362.7,246h-4.6h-4.6v13v13h-3.2h-3.2v-13
		v-13h-4.6H338v-2.9v-2.9h12.3c6.8,0,12.3,0,12.4,0.1c0.1,0,0.1,1.3,0.1,2.9L362.7,246L362.7,246z M386.7,266.6
		c-1.1,2.9-3.9,4.9-7.8,5.6c-1.2,0.2-4.1,0.2-5.4-0.1c-2.8-0.5-5.5-1.9-7.1-3.7c-0.7-0.7-1.9-2.6-1.8-2.7c0-0.1,0.3-0.2,0.7-0.4
		c0.3-0.2,1.5-0.9,2.6-1.5l2-1.2l0.4,0.6c0.6,0.9,1.9,2.1,2.7,2.6c2.3,1.2,5.3,1,6.8-0.4c0.7-0.6,0.9-1.2,0.9-2.1
		c0-0.8-0.1-1.2-0.5-1.8c-0.5-0.8-1.7-1.4-4.8-2.8c-3.6-1.6-5.2-2.5-6.6-4.1c-0.8-0.9-1.6-2.3-1.9-3.5c-0.3-1-0.3-3.5-0.1-4.5
		c0.7-3.5,3.4-6,7.2-6.7c1.2-0.2,4.1-0.1,5.3,0.2c1.8,0.4,3.2,1.2,4.4,2.5c0.7,0.7,1.6,1.9,1.7,2.2c0,0.1-3,2.1-4.9,3.3
		c-0.1,0.1-0.3-0.2-0.6-0.7c-0.9-1.3-1.8-1.9-3.3-2c-2.1-0.1-3.5,1-3.5,2.8c0,0.5,0.1,0.9,0.3,1.3c0.5,1,1.3,1.5,4.1,2.7
		c5,2.2,7.2,3.6,8.5,5.6C387.4,260.4,387.7,263.9,386.7,266.6z"/>
</g>
<g>
	<rect x="201.4" y="307.4" class="st0" width="107.2" height="74.3"/>
	<path d="M306.4,335.7c-2.4-1.6-7.9-2.2-12.2-1.4c-0.6-4-2.8-7.5-6.9-10.7l-2.3-1.5l-1.5,2.3c-2,3-3,7.2-2.7,11.2
		c0.1,1.4,0.6,3.9,2,6.2c-1.5,0.8-4.4,1.8-8.1,1.8h-72.8l-0.1,0.8c-0.7,4-0.7,16.6,7.5,26.3c6.2,7.4,15.5,11.1,27.7,11.1
		c26.4,0,45.8-12.1,55-34.1c3.6,0.1,11.3,0,15.3-7.6c0.1-0.1,0.4-0.6,1.1-2l0.4-0.8L306.4,335.7z M248.9,317.4h11v-10h-11V317.4z
		 M248.9,329.5h11v-10h-11V329.5z M235.9,329.5h11v-10h-11V329.5z M222.8,329.5h11v-10h-11V329.5z M209.7,341.6h11v-10.1h-11V341.6z
		 M222.8,341.6h11v-10.1h-11V341.6z M235.9,341.6h11v-10.1h-11V341.6z M248.9,341.6h11v-10.1h-11V341.6z M262,341.6h11.1v-10.1H262
		V341.6z"/>
	<rect x="267.8" y="376.7" class="st0" width="2.8" height="2.8"/>
	<path d="M270.6,378.1c0,0.8-0.6,1.4-1.4,1.4s-1.4-0.6-1.4-1.4s0.6-1.4,1.4-1.4S270.6,377.3,270.6,378.1z M268.1,378.1
		c0,0.6,0.4,1.1,1.1,1.1s1.1-0.5,1.1-1.1s-0.4-1.1-1.1-1.1S268.1,377.5,268.1,378.1z M269,378.8h-0.4v-1.4c0.1,0,0.3-0.1,0.6-0.1
		s0.4,0.1,0.5,0.1c0.1,0.1,0.1,0.1,0.1,0.3c0,0.1-0.1,0.3-0.3,0.4c0.1,0.1,0.2,0.1,0.3,0.4c0.1,0.2,0.1,0.3,0.1,0.4h-0.4
		c-0.1-0.1-0.1-0.2-0.1-0.4c0-0.1-0.1-0.2-0.3-0.2H269V378.8z M269,378h0.1c0.2,0,0.4-0.1,0.4-0.2s-0.1-0.2-0.3-0.2
		c-0.1,0-0.1,0-0.2,0V378z"/>
</g>
<g>
	<rect x="351.8" y="308.9" class="st0" width="78.6" height="81.7"/>
	<rect x="351.8" y="308.9" class="st0" width="78.6" height="81.7"/>
	<rect x="351.8" y="308.9" class="st0" width="78.6" height="81.7"/>
	<path d="M430.3,359c-0.1-0.2-0.1-0.3-0.2-0.4c-0.5-0.9-1.6-1.2-3.4-0.8c-5.6,1.2-7.8,0.4-8.6-0.1c4.6-7,8.3-15.4,10.3-23.2
		c0.9-3.6,2.7-12.1,0.4-16.1c-0.2-0.3-0.3-0.5-0.5-0.8c-4.4-5.6-10.8-8.6-18.6-8.7c-5.1-0.1-9.4,1.2-10.6,1.6
		c-0.6-0.1-1.2-0.2-1.8-0.3c-1.4-0.3-2.9-0.4-4.5-0.4c-4-0.1-7.5,0.9-10.3,2.9c-1.3-0.5-4.5-1.6-8.4-2.2c-6.8-1.1-12.2-0.3-16.1,2.5
		c-4.6,3.3-6.7,9.1-6.3,17.4c0.1,2.8,1.7,11.3,4.2,19.5c1.6,5.1,3.2,9.2,4.9,12.2c1.9,3.4,3.8,5.4,5.8,6.1c1.5,0.5,3.8,0.5,6.3-2.5
		c2.7-3.3,5.4-6.2,6.6-7.5c1.5,0.8,3.1,1.2,4.7,1.3l0,0c-0.3,0.4-0.6,0.7-0.8,1c-1.2,1.5-1.4,1.8-5.1,2.5c-1.1,0.2-3.8,0.8-3.9,2.8
		c0,0.4,0.1,0.8,0.3,1.1c0.8,1.4,3.1,2.1,3.4,2.1c4.5,1.1,8.5,0.3,11.4-2.3c-0.1,7.6,0.3,15,1.2,17.3c0.8,1.9,2.6,6.5,8.4,6.5
		c0.8,0,1.8-0.1,2.8-0.3c6-1.3,8.7-4,9.7-9.9c0.5-3,1.4-9.8,1.8-14c0.1-0.2,0.1-0.4,0.2-0.4c0,0,0.2-0.2,1.4,0.1c0.1,0,0.1,0,0.2,0
		l0.9,0.1c0,0,0,0,0.1,0c2.9,0.1,6.5-0.5,8.6-1.5C427.1,363.7,431,361.2,430.3,359z M358.4,349.4c-2.5-8.3-4-16.6-4.1-19
		c-0.4-7.4,1.4-12.5,5.3-15.3c6.2-4.4,16.4-1.8,20.7-0.4l0,0c-6.9,6.9-6.7,18.8-6.7,19.6c0,0.3,0,0.7,0.1,1.2c0.1,2,0.3,5.7-0.3,9.9
		c-0.5,3.9,0.7,7.7,3.3,10.5c0.3,0.3,0.6,0.6,0.8,0.8c-1.2,1.3-3.7,4.1-6.4,7.3c-1.9,2.3-3.3,1.9-3.7,1.7c-1.3-0.4-2.8-2-4.2-4.5
		C361.6,358.5,359.9,354.4,358.4,349.4z M378.8,366.7c-0.6-0.2-1.1-0.4-1.5-0.6c0.3-0.1,0.8-0.3,1.6-0.5c4.4-0.9,5-1.5,6.5-3.4
		c0.3-0.4,0.7-0.9,1.3-1.5c0.1-0.1,0.2-0.3,0.3-0.4c0.6-0.5,0.9-0.4,1.5-0.1c0.5,0.2,1,0.9,1.3,1.6c0.1,0.3,0.2,1-0.2,1.5
		C386.5,367.5,382,367.5,378.8,366.7z M385.9,353.1l-0.2,0.5c-0.4,1.2-0.9,2.3-1.1,3.4c-2.3,0-4.5-1-6.1-2.7
		c-2.1-2.2-3.1-5.3-2.7-8.5c0.6-4.5,0.4-8.3,0.3-10.4c0-0.3,0-0.5,0-0.8c1-0.9,5.7-3.4,9-2.6c1.5,0.3,2.4,1.4,2.8,3.2
		c2,9.2,0.3,13-1.1,16.1C386.4,351.9,386.1,352.5,385.9,353.1z M410.9,368.7c-0.1,0.6-0.1,1.3-0.2,2l-0.5,1.5c0,0.1-0.1,0.2-0.1,0.4
		c0,1.6-0.2,2.2-0.4,3c-0.2,0.8-0.5,1.7-0.6,3.6c-0.4,4.8-3,7.6-8.2,8.7c-5.1,1.1-6.1-1.7-6.9-4.2c-0.1-0.3-0.2-0.5-0.3-0.8
		c-0.7-2-0.7-4.8-0.5-8.7c0.1-1.9-0.1-6.5-1.1-9c0-1,0-2,0.1-3c0-0.1,0-0.3-0.1-0.4c0-0.2-0.1-0.5-0.2-0.7c-0.4-1.5-1.4-2.7-2.6-3.2
		c-0.5-0.2-1.4-0.6-2.4-0.3c0.2-0.9,0.6-2,1-3.2l0.2-0.5c0.2-0.5,0.5-1.1,0.7-1.7c1.4-3.2,3.4-7.6,1.3-17.6
		c-0.8-3.7-3.5-5.6-7.6-5.1c-2.5,0.3-4.7,1.2-5.8,1.8c-0.2,0.1-0.5,0.2-0.7,0.3c0.3-3.8,1.5-10.8,5.9-15.2c0.3-0.3,0.7-0.6,1-0.9
		c0.2,0,0.3-0.1,0.5-0.2c2.5-1.9,5.8-2.9,9.5-2.8c1.4,0,2.7,0.1,4,0.3c6.6,1.2,11,4.9,13.7,8.1c2.8,3.3,4.3,6.6,4.9,8.3
		c-4.5-0.5-7.5,0.4-9.1,2.7c-3.4,4.8,1.8,14.2,4.3,18.7c0.5,0.8,0.9,1.5,1,1.8c0.8,2,1.9,3.3,2.6,4.3c0.2,0.3,0.5,0.6,0.6,0.8
		c-1.4,0.4-3.8,1.3-3.6,5.8c0,0.5-0.2,1.5-0.3,2.8C411.1,366.8,411,367.6,410.9,368.7z M413.9,363.1c-0.1-2.8,0.9-3.1,2-3.4
		c0.2,0,0.3-0.1,0.5-0.1c0.1,0.1,0.3,0.2,0.5,0.3c1.9,1.3,5.4,1.4,10.2,0.5c-0.7,0.6-1.8,1.4-3.2,2.1c-1.4,0.6-3.7,1.1-5.9,1.2
		C415.5,363.8,414.2,363.4,413.9,363.1z M415.8,331.6c0,1.2-0.2,2.3-0.4,3.4c-0.2,1.2-0.4,2.5-0.4,4s0.1,3,0.3,4.5
		c0.4,3,0.7,6.1-0.7,9.2c-0.2-0.4-0.4-0.8-0.6-1.3c-0.2-0.4-0.6-1.1-1.1-2.1c-2.1-3.8-7-12.6-4.5-16.1
		C409.2,332.1,411.1,331,415.8,331.6z M416.6,355.5c-0.1-0.1-0.2-0.2-0.3-0.4c0-0.1-0.1-0.1-0.1-0.2c2.5-4.1,2-8.1,1.5-11.7
		c-0.2-1.5-0.3-2.9-0.3-4.2c0-1.4,0.2-2.6,0.4-3.7c0.2-1.4,0.4-2.9,0.4-4.6c0-0.2,0.1-0.4,0-0.6c-0.2-1.6-2-6.6-5.9-11.1
		c-2.1-2.4-5.1-5.1-9.1-6.9c1.8-0.4,4.2-0.7,6.9-0.6c7,0.2,12.5,2.8,16.4,7.8c0.1,0.1,0.2,0.2,0.2,0.3
		C429.2,324.2,425.8,340.9,416.6,355.5z"/>
	<path d="M384.6,333.2c-0.9-0.1-1.7,0-2.1,0.3c-0.2,0.2-0.3,0.4-0.3,0.5c-0.1,0.4,0.2,0.8,0.4,1c0.4,0.6,1.1,1,1.7,1.1
		c0.1,0,0.2,0,0.3,0c1.1,0,2-0.8,2.1-1.4C386.8,333.9,385.7,333.4,384.6,333.2z"/>
	<path d="M411.5,332.6c-1,0.1-2,0.6-1.9,1.2c0.1,0.5,0.9,1.3,1.9,1.3c0.1,0,0.2,0,0.3,0c0.7-0.1,1.2-0.5,1.4-0.8
		c0.3-0.4,0.6-0.8,0.5-1.1C413.5,332.7,412.5,332.5,411.5,332.6z"/>
</g>
<g>
	<path d="M607.4,118h-8.3l-12,31h7.5l1.9-5.3h11.3l-2-5.8h-7.4l4.8-13.4l8.6,24.4h7.5L607.4,118z"/>
	<rect x="563" y="95.5" class="st0" width="72" height="80.9"/>
	<path d="M633.3,158.9c-0.6,0-1.1,0.3-1.4,0.7c0,0-1.5,1.7-2.3,2.5c-3.4,3.4-7.4,6.1-11.8,7.9c-4.6,1.9-9.4,2.9-14.4,2.9
		s-9.8-1-14.4-2.9c-4.4-1.9-8.4-4.5-11.8-7.9c-3.4-3.4-6.1-7.4-7.9-11.8c-1.9-4.6-2.9-9.4-2.9-14.4s1-9.8,2.9-14.4
		c1.8-4.4,4.5-8.4,7.9-11.8s7.4-6.1,11.8-7.9c4.6-1.9,9.4-2.9,14.4-2.9s9.8,1,14.4,2.9c3.2,1.4,6.2,3.1,8.9,5.3
		c-0.1,0.4-0.2,0.9-0.2,1.4c0,2.3,1.9,4.2,4.2,4.2s4.2-1.9,4.2-4.2s-1.9-4.2-4.2-4.2c-0.6,0-1.1,0.1-1.6,0.3
		c-7-5.7-15.9-9.1-25.6-9.1c-22.3,0-40.4,18.1-40.4,40.4s18.1,40.4,40.4,40.4c12.5,0,23.6-5.7,31.1-14.6c0.3-0.3,0.5-0.7,0.5-1.2
		C635,159.7,634.2,158.9,633.3,158.9z"/>
</g>
</svg>
