<svg width="40" height="38" viewBox="0 0 40 38" fill="none" xmlns="http://www.w3.org/2000/svg">
<path d="M39.5644 13.8716C39.5644 14.2099 39.2079 14.5483 38.8515 14.8866L30.297 23.0066L32.4357 34.1715V34.5099C32.4357 34.8482 32.4357 35.1865 32.0792 35.1865C32.0792 35.5249 31.7228 35.5249 31.3664 35.5249C31.0099 35.5249 30.6535 35.5249 30.297 35.1865L19.9604 30.4499L9.26733 35.8632C8.9109 36.2015 8.55446 36.2015 8.19802 36.2015C7.84159 36.2015 7.48515 36.2015 7.48515 35.8632C7.12872 35.5249 7.12872 35.1865 7.12872 34.8482V34.5099L9.26733 23.3449L0.712872 14.8866C0.356436 14.5483 0 14.2099 0 13.8716C0 13.5333 0.356436 13.1949 1.42574 12.8566L13.5446 11.165L18.8911 1.015C18.8911 0.338332 19.2475 0 19.9604 0C20.3168 0 20.6733 0.338332 21.0297 1.015L26.3762 11.165L38.4951 12.8566C39.2079 13.1949 39.5644 13.5333 39.5644 13.8716Z" transform="matrix(0.999732 5.1129e-05 5.10924e-05 1.00027 0.203125 0.863892)" fill="white"/>
<path d="M39.5644 13.8716C39.5644 14.2099 39.2079 14.5483 38.8515 14.8866L30.297 23.0066L32.4357 34.1715V34.5099C32.4357 34.8482 32.4357 35.1865 32.0792 35.1865C32.0792 35.5249 31.7228 35.5249 31.3664 35.5249C31.0099 35.5249 30.6535 35.5249 30.297 35.1865L19.9604 30.4499L9.26733 35.8632C8.9109 36.2015 8.55446 36.2015 8.19802 36.2015C7.84159 36.2015 7.48515 36.2015 7.48515 35.8632C7.12872 35.5249 7.12872 35.1865 7.12872 34.8482V34.5099L9.26733 23.3449L0.712872 14.8866C0.356436 14.5483 0 14.2099 0 13.8716C0 13.5333 0.356436 13.1949 1.42574 12.8566L13.5446 11.165L18.8911 1.015C18.8911 0.338332 19.2475 0 19.9604 0C20.3168 0 20.6733 0.338332 21.0297 1.015L26.3762 11.165L38.4951 12.8566C39.2079 13.1949 39.5644 13.5333 39.5644 13.8716Z" transform="matrix(0.999732 5.1129e-05 5.10924e-05 1.00027 0.203125 0.863892)" fill="url(#paint0_linear)"/>
<defs>
<linearGradient id="paint0_linear" x2="1" gradientUnits="userSpaceOnUse" gradientTransform="translate(39.5644) scale(39.5644 36.2015) rotate(90)">
<stop stop-color="white"/>
<stop offset="1" stop-color="white" stop-opacity="0"/>
</linearGradient>
</defs>
</svg>
