<?xml version="1.0" encoding="utf-8"?>
<!-- Generator: Adobe Illustrator 22.1.0, SVG Export Plug-In . SVG Version: 6.00 Build 0)  -->
<svg version="1.1" id="Layer_1" xmlns="http://www.w3.org/2000/svg" xmlns:xlink="http://www.w3.org/1999/xlink" x="0px" y="0px"
	 viewBox="0 0 678.5 613.9" style="enable-background:new 0 0 678.5 613.9;" xml:space="preserve">
<style type="text/css">
	.st0{opacity:0.8;fill:#28235D;enable-background:new    ;}
	.st1{fill:none;stroke:url(#SVGID_1_);stroke-width:0.75;stroke-miterlimit:10;}
	.st2{fill:none;stroke:url(#SVGID_2_);stroke-width:0.75;stroke-miterlimit:10;}
	.st3{fill:none;stroke:url(#SVGID_3_);stroke-width:0.75;stroke-miterlimit:10;}
	.st4{fill:none;stroke:url(#SVGID_4_);stroke-width:0.75;stroke-miterlimit:10;}
	.st5{fill:none;stroke:url(#SVGID_5_);stroke-width:0.75;stroke-miterlimit:10;}
	.st6{fill:none;stroke:url(#SVGID_6_);stroke-width:0.75;stroke-miterlimit:10;}
	.st7{enable-background:new    ;}
	.st8{fill:#53C2F0;}
	.st9{fill:none;stroke:#1C9CA6;stroke-width:0.75;stroke-miterlimit:10;}
	.st10{opacity:0.9;enable-background:new    ;}
	.st11{fill:#ED2224;}
	.st12{opacity:0.9;fill:url(#SVGID_7_);enable-background:new    ;}
	.st13{fill:url(#SVGID_8_);}
	.st14{fill:url(#SVGID_9_);}
	.st15{fill:url(#SVGID_10_);}
	.st16{fill:url(#SVGID_11_);}
	.st17{fill:#FFFFFF;}
	.st18{fill:#55BBBC;}
</style>
<polygon class="st0" points="111,566 323.6,353.4 323.6,21.3 111,233.9 "/>
<g>
	
		<linearGradient id="SVGID_1_" gradientUnits="userSpaceOnUse" x1="-4926.8271" y1="-569.0295" x2="-4713.7349" y2="-569.0295" gradientTransform="matrix(1 0 0 -1 5131 -175.7323)">
		<stop  offset="0.7635" style="stop-color:#1C9CA6"/>
		<stop  offset="0.9852" style="stop-color:#FFFFFF"/>
	</linearGradient>
	<line class="st1" x1="204.4" y1="499.6" x2="417" y2="287"/>
	
		<linearGradient id="SVGID_2_" gradientUnits="userSpaceOnUse" x1="-4926.8271" y1="-502.6032" x2="-4713.7349" y2="-502.6032" gradientTransform="matrix(1 0 0 -1 5131 -175.7323)">
		<stop  offset="0.7635" style="stop-color:#1C9CA6"/>
		<stop  offset="0.9852" style="stop-color:#FFFFFF"/>
	</linearGradient>
	<line class="st2" x1="204.4" y1="433.2" x2="417" y2="220.6"/>
	
		<linearGradient id="SVGID_3_" gradientUnits="userSpaceOnUse" x1="-4926.8271" y1="-436.1789" x2="-4713.7349" y2="-436.1789" gradientTransform="matrix(1 0 0 -1 5131 -175.7323)">
		<stop  offset="0.7635" style="stop-color:#1C9CA6"/>
		<stop  offset="0.9852" style="stop-color:#FFFFFF"/>
	</linearGradient>
	<line class="st3" x1="204.4" y1="366.7" x2="417" y2="154.2"/>
	
		<linearGradient id="SVGID_4_" gradientUnits="userSpaceOnUse" x1="-4926.8271" y1="-369.7538" x2="-4713.7349" y2="-369.7538" gradientTransform="matrix(1 0 0 -1 5131 -175.7323)">
		<stop  offset="0.7635" style="stop-color:#1C9CA6"/>
		<stop  offset="0.9852" style="stop-color:#FFFFFF"/>
	</linearGradient>
	<line class="st4" x1="204.4" y1="300.3" x2="417" y2="87.7"/>
	
		<linearGradient id="SVGID_5_" gradientUnits="userSpaceOnUse" x1="-4926.8271" y1="-303.3283" x2="-4713.7349" y2="-303.3283" gradientTransform="matrix(1 0 0 -1 5131 -175.7323)">
		<stop  offset="0.7635" style="stop-color:#1C9CA6"/>
		<stop  offset="0.9852" style="stop-color:#FFFFFF"/>
	</linearGradient>
	<line class="st5" x1="204.4" y1="233.9" x2="417" y2="21.3"/>
	
		<linearGradient id="SVGID_6_" gradientUnits="userSpaceOnUse" x1="-4926.8271" y1="-635.4548" x2="-4713.7349" y2="-635.4548" gradientTransform="matrix(1 0 0 -1 5131 -175.7323)">
		<stop  offset="0.7635" style="stop-color:#1C9CA6"/>
		<stop  offset="0.9852" style="stop-color:#FFFFFF"/>
	</linearGradient>
	<line class="st6" x1="204.4" y1="566" x2="417" y2="353.4"/>
	<g class="st7">
		<path class="st8" d="M151.2,275.5l-2.3,2.3l0.2-1.9l3.8-3.8v13.3l-1.7,1.7V275.5z"/>
		<path class="st8" d="M155.5,278.4v-4.5c0-3.1,1.6-6.1,4.3-8.8c2.7-2.7,4.3-2.9,4.3,0.2v4.5c0,3.1-1.6,6.1-4.3,8.8
			C157.1,281.3,155.5,281.5,155.5,278.4z M162.4,271.5v-4.4c0-2.1-0.9-2.1-2.6-0.4c-1.7,1.7-2.6,3.5-2.6,5.6v4.4
			c0,2,0.9,2.1,2.6,0.4C161.5,275.3,162.4,273.6,162.4,271.5z"/>
		<path class="st8" d="M166,267.9v-4.5c0-3.1,1.6-6.1,4.3-8.8c2.7-2.7,4.3-2.9,4.3,0.2v4.5c0,3.1-1.6,6.1-4.3,8.8
			C167.6,270.8,166,271,166,267.9z M172.9,261v-4.4c0-2.1-0.9-2.1-2.6-0.4c-1.7,1.7-2.6,3.5-2.6,5.6v4.4c0,2,0.9,2.1,2.6,0.4
			C172,264.8,172.9,263,172.9,261z"/>
		<path class="st8" d="M176.4,253.7v-2.6c0-1.8,1.1-3.7,2.7-5.3c1.6-1.6,2.6-1.8,2.6,0v2.6c0,1.8-1.1,3.7-2.6,5.3
			C177.5,255.3,176.4,255.5,176.4,253.7z M180.3,249.9v-2.6c0-0.9-0.3-1-1.2-0.1c-0.9,0.9-1.2,1.6-1.2,2.6v2.6c0,0.9,0.3,1,1.2,0.1
			C180,251.5,180.3,250.8,180.3,249.9z M185.8,239.2l1.6-1.6l-6.5,19.8l-1.7,1.7L185.8,239.2z M185,250.8v-2.6
			c0-1.8,1.1-3.7,2.7-5.3c1.6-1.6,2.6-1.8,2.6,0v2.6c0,1.8-1.1,3.7-2.6,5.3C186.1,252.3,185,252.6,185,250.8z M188.9,246.9v-2.5
			c0-0.9-0.3-1-1.2-0.2c-0.9,0.9-1.2,1.6-1.2,2.6v2.5c0,0.9,0.3,1,1.2,0.1C188.6,248.6,188.9,247.8,188.9,246.9z"/>
	</g>
	<g class="st7">
		<path class="st8" d="M155.7,344.7V344c0-1.3,0.4-2.9,1.9-4.9c-1.3,0.8-1.8,0.3-1.8-0.8v-0.5c0-1.7,1.2-4.3,4.1-7.3
			c3-3,4.1-2.7,4.1-1v0.5c0,1.2-0.5,2.6-1.8,4.4c1.5-0.9,1.9-0.3,1.9,1.1v0.7c0,1.8-1,4.5-4.3,7.8
			C156.7,347.3,155.7,346.5,155.7,344.7z M162.6,337.7v-0.6c0-1.2-0.6-1.6-2.6,0.4c-2,2-2.6,3.6-2.6,4.7v0.6c0,1.2,0.6,1.6,2.6-0.4
			C162,340.5,162.6,338.9,162.6,337.7z M162.4,331.8v-0.4c0-0.9-0.6-1.2-2.4,0.6c-1.8,1.8-2.5,3.4-2.5,4.3v0.4
			c0,0.9,0.6,1.2,2.5-0.6C161.8,334.3,162.4,332.7,162.4,331.8z"/>
		<path class="st8" d="M166,333.4V329c0-3.1,1.6-6.1,4.3-8.8c2.7-2.7,4.3-2.9,4.3,0.2v4.5c0,3.1-1.6,6.1-4.3,8.8
			C167.6,336.4,166,336.5,166,333.4z M172.9,326.5v-4.4c0-2.1-0.9-2.1-2.6-0.4c-1.7,1.7-2.6,3.5-2.6,5.6v4.4c0,2,0.9,2.1,2.6,0.4
			C172,330.4,172.9,328.6,172.9,326.5z"/>
		<path class="st8" d="M176.4,319.3v-2.6c0-1.8,1.1-3.7,2.7-5.3c1.6-1.6,2.6-1.8,2.6,0v2.6c0,1.8-1.1,3.7-2.6,5.3
			C177.5,320.8,176.4,321.1,176.4,319.3z M180.3,315.4v-2.6c0-0.9-0.3-1-1.2-0.1c-0.9,0.9-1.2,1.6-1.2,2.6v2.6c0,0.9,0.3,1,1.2,0.1
			C180,317.1,180.3,316.3,180.3,315.4z M185.8,304.8l1.6-1.6l-6.5,19.8l-1.7,1.7L185.8,304.8z M185,316.3v-2.6
			c0-1.8,1.1-3.7,2.7-5.3c1.6-1.6,2.6-1.8,2.6,0v2.6c0,1.8-1.1,3.7-2.6,5.3C186.1,317.9,185,318.1,185,316.3z M188.9,312.4v-2.5
			c0-0.9-0.3-1-1.2-0.2c-0.9,0.9-1.2,1.6-1.2,2.6v2.5c0,0.9,0.3,1,1.2,0.1C188.6,314.1,188.9,313.4,188.9,312.4z"/>
	</g>
	<g class="st7">
		<path class="st8" d="M156,409.4v-4.9c0-3,1.5-6,4.1-8.6c2.4-2.4,3.9-2.9,4.1-0.7l-1.7,1.9c-0.1-1.5-0.9-1.1-2.4,0.4
			c-1.6,1.6-2.4,3.3-2.4,5.3v1.6c0.5-1.3,1.5-2.7,2.7-3.9c2.5-2.5,4-2.7,4,0.1v0.6c0,2.9-1.6,5.7-4.2,8.3
			C157.6,411.9,156,412.2,156,409.4z M162.7,402.7v-0.4c0-1.8-0.9-1.6-2.5-0.1s-2.5,3.3-2.5,5.1v0.4c0,1.8,0.9,1.7,2.5,0.1
			C161.7,406.2,162.7,404.5,162.7,402.7z"/>
		<path class="st8" d="M166,399v-4.5c0-3.1,1.6-6.1,4.3-8.8c2.7-2.7,4.3-2.9,4.3,0.2v4.5c0,3.1-1.6,6.1-4.3,8.8
			C167.6,401.9,166,402.1,166,399z M172.9,392.1v-4.4c0-2.1-0.9-2.1-2.6-0.4c-1.7,1.7-2.6,3.5-2.6,5.6v4.4c0,2,0.9,2.1,2.6,0.4
			C172,395.9,172.9,394.1,172.9,392.1z"/>
		<path class="st8" d="M176.4,384.8v-2.6c0-1.8,1.1-3.7,2.7-5.3c1.6-1.6,2.6-1.8,2.6,0v2.6c0,1.8-1.1,3.7-2.6,5.3
			C177.5,386.4,176.4,386.6,176.4,384.8z M180.3,380.9v-2.6c0-0.9-0.3-1-1.2-0.1c-0.9,0.9-1.2,1.6-1.2,2.6v2.6c0,0.9,0.3,1,1.2,0.1
			C180,382.6,180.3,381.9,180.3,380.9z M185.8,370.3l1.6-1.6l-6.5,19.8l-1.7,1.7L185.8,370.3z M185,381.9v-2.6
			c0-1.8,1.1-3.7,2.7-5.3c1.6-1.6,2.6-1.8,2.6,0v2.6c0,1.8-1.1,3.7-2.6,5.3C186.1,383.4,185,383.7,185,381.9z M188.9,378v-2.5
			c0-0.9-0.3-1-1.2-0.2c-0.9,0.9-1.2,1.6-1.2,2.6v2.5c0,0.9,0.3,1,1.2,0.1C188.6,379.7,188.9,378.9,188.9,378z"/>
	</g>
	<g class="st7">
		<path class="st8" d="M161.4,470.4l-5.8,5.8v-1.5l5.4-14.1l1.8-1.8l-5.4,14.1l3.9-3.9v-3.2l1.6-1.6v3.2l1.6-1.6v1.5l-1.6,1.6v3.1
			l-1.6,1.6V470.4z"/>
		<path class="st8" d="M166,464.5V460c0-3.1,1.6-6.1,4.3-8.8c2.7-2.7,4.3-2.9,4.3,0.2v4.5c0,3.1-1.6,6.1-4.3,8.8
			C167.6,467.5,166,467.6,166,464.5z M172.9,457.6v-4.4c0-2.1-0.9-2.1-2.6-0.4c-1.7,1.7-2.6,3.5-2.6,5.6v4.4c0,2,0.9,2.1,2.6,0.4
			C172,461.5,172.9,459.7,172.9,457.6z"/>
		<path class="st8" d="M176.4,450.3v-2.6c0-1.8,1.1-3.7,2.7-5.3c1.6-1.6,2.6-1.8,2.6,0v2.6c0,1.8-1.1,3.7-2.6,5.3
			C177.5,451.9,176.4,452.1,176.4,450.3z M180.3,446.5v-2.6c0-0.9-0.3-1-1.2-0.1c-0.9,0.9-1.2,1.6-1.2,2.6v2.6c0,0.9,0.3,1,1.2,0.1
			C180,448.1,180.3,447.4,180.3,446.5z M185.8,435.9l1.6-1.6l-6.5,19.8l-1.7,1.7L185.8,435.9z M185,447.4v-2.6
			c0-1.8,1.1-3.7,2.7-5.3c1.6-1.6,2.6-1.8,2.6,0v2.6c0,1.8-1.1,3.7-2.6,5.3C186.1,449,185,449.2,185,447.4z M188.9,443.5V441
			c0-0.9-0.3-1-1.2-0.2c-0.9,0.9-1.2,1.6-1.2,2.6v2.5c0,0.9,0.3,1,1.2,0.1C188.6,445.2,188.9,444.5,188.9,443.5z"/>
	</g>
	<g class="st7">
		<path class="st8" d="M156.4,542.5c0-5,6.3-11.1,6.3-14.6c0-1.3-0.7-1.2-2.2,0.3c-1.5,1.5-2.3,3.1-2.4,4.9l-1.7,1.5
			c0.2-2.4,1.3-5.2,4.1-7.9c3-3,4-2.6,4-0.4c0,4.5-6.3,10.6-6.3,14.4v0.2l6.5-6.5v1.6l-8.2,8.2V542.5z"/>
		<path class="st8" d="M166,530v-4.5c0-3.1,1.6-6.1,4.3-8.8c2.7-2.7,4.3-2.9,4.3,0.2v4.5c0,3.1-1.6,6.1-4.3,8.8
			C167.6,533,166,533.1,166,530z M172.9,523.2v-4.4c0-2.1-0.9-2.1-2.6-0.4c-1.7,1.7-2.6,3.5-2.6,5.6v4.4c0,2,0.9,2.1,2.6,0.4
			C172,527,172.9,525.2,172.9,523.2z"/>
		<path class="st8" d="M176.4,515.9v-2.6c0-1.8,1.1-3.7,2.7-5.3c1.6-1.6,2.6-1.8,2.6,0v2.6c0,1.8-1.1,3.7-2.6,5.3
			C177.5,517.4,176.4,517.7,176.4,515.9z M180.3,512v-2.6c0-0.9-0.3-1-1.2-0.1c-0.9,0.9-1.2,1.6-1.2,2.6v2.6c0,0.9,0.3,1,1.2,0.1
			C180,513.7,180.3,513,180.3,512z M185.8,501.4l1.6-1.6l-6.5,19.8l-1.7,1.7L185.8,501.4z M185,512.9v-2.6c0-1.8,1.1-3.7,2.7-5.3
			c1.6-1.6,2.6-1.8,2.6,0v2.6c0,1.8-1.1,3.7-2.6,5.3C186.1,514.5,185,514.8,185,512.9z M188.9,509.1v-2.5c0-0.9-0.3-1-1.2-0.2
			c-0.9,0.9-1.2,1.6-1.2,2.6v2.5c0,0.9,0.3,1,1.2,0.1C188.6,510.7,188.9,510,188.9,509.1z"/>
	</g>
	<g class="st7">
		<path class="st8" d="M166,595.6v-4.5c0-3.1,1.6-6.1,4.3-8.8c2.7-2.7,4.3-2.9,4.3,0.2v4.5c0,3.1-1.6,6.1-4.3,8.8
			C167.6,598.5,166,598.7,166,595.6z M172.9,588.7v-4.4c0-2.1-0.9-2.1-2.6-0.4c-1.7,1.7-2.6,3.5-2.6,5.6v4.4c0,2,0.9,2.1,2.6,0.4
			C172,592.5,172.9,590.7,172.9,588.7z"/>
		<path class="st8" d="M176.4,581.4v-2.6c0-1.8,1.1-3.7,2.7-5.3c1.6-1.6,2.6-1.8,2.6,0v2.6c0,1.8-1.1,3.7-2.6,5.3
			C177.5,583,176.4,583.2,176.4,581.4z M180.3,577.6V575c0-0.9-0.3-1-1.2-0.1c-0.9,0.9-1.2,1.6-1.2,2.6v2.6c0,0.9,0.3,1,1.2,0.1
			C180,579.2,180.3,578.5,180.3,577.6z M185.8,566.9l1.6-1.6l-6.5,19.8l-1.7,1.7L185.8,566.9z M185,578.5v-2.6
			c0-1.8,1.1-3.7,2.7-5.3c1.6-1.6,2.6-1.8,2.6,0v2.6c0,1.8-1.1,3.7-2.6,5.3C186.1,580,185,580.3,185,578.5z M188.9,574.6v-2.5
			c0-0.9-0.3-1-1.2-0.2c-0.9,0.9-1.2,1.6-1.2,2.6v2.5c0,0.9,0.3,1,1.2,0.1C188.6,576.3,188.9,575.5,188.9,574.6z"/>
	</g>
</g>
<g>
	<line class="st9" x1="265" y1="539.4" x2="265" y2="526.1"/>
	<line class="st9" x1="318.2" y1="486.3" x2="318.2" y2="473"/>
	<line class="st9" x1="371.3" y1="433.2" x2="371.3" y2="419.9"/>
	<g>
		<polyline class="st9" points="211.4,592.6 211.4,579.3 424,366.7 424,380 		"/>
		<g class="st7">
			<path class="st8" d="M211.9,604.5c0-2.9,3.6-6.3,3.6-8.3c0-0.7-0.4-0.7-1.3,0.2c-0.8,0.8-1.3,1.7-1.4,2.8l-1,0.8
				c0.1-1.4,0.8-3,2.3-4.5c1.7-1.7,2.3-1.5,2.3-0.3c0,2.6-3.6,6.1-3.6,8.2v0.1l3.7-3.7v0.9l-4.7,4.7V604.5z"/>
			<path class="st8" d="M217.4,597.4v-2.5c0-1.8,0.9-3.5,2.5-5c1.5-1.5,2.4-1.6,2.4,0.1v2.5c0,1.8-0.9,3.5-2.4,5
				C218.3,599.1,217.4,599.2,217.4,597.4z M221.3,593.5v-2.5c0-1.2-0.5-1.2-1.5-0.2c-1,1-1.5,2-1.5,3.2v2.5c0,1.2,0.5,1.2,1.5,0.2
				C220.8,595.7,221.3,594.6,221.3,593.5z"/>
			<path class="st8" d="M223.4,591.4v-2.5c0-1.8,0.9-3.5,2.5-5c1.5-1.5,2.4-1.6,2.4,0.1v2.5c0,1.8-0.9,3.5-2.4,5
				C224.3,593.1,223.4,593.2,223.4,591.4z M227.3,587.5V585c0-1.2-0.5-1.2-1.5-0.2c-1,1-1.5,2-1.5,3.2v2.5c0,1.2,0.5,1.2,1.5,0.2
				C226.8,589.7,227.3,588.6,227.3,587.5z"/>
			<path class="st8" d="M232.3,578.4l-3.4,3.4l0.1-1.1l4.3-4.3v0.9l-2.6,9.3l-1,1L232.3,578.4z"/>
		</g>
		<g class="st7">
			<path class="st8" d="M265,551.4c0-2.9,3.6-6.3,3.6-8.3c0-0.7-0.4-0.7-1.3,0.2c-0.8,0.8-1.3,1.7-1.4,2.8l-1,0.8
				c0.1-1.4,0.8-3,2.3-4.5c1.7-1.7,2.3-1.5,2.3-0.3c0,2.6-3.6,6.1-3.6,8.2v0.1l3.7-3.7v0.9l-4.7,4.7V551.4z"/>
			<path class="st8" d="M270.5,544.3v-2.5c0-1.8,0.9-3.5,2.5-5c1.5-1.5,2.4-1.6,2.4,0.1v2.5c0,1.8-0.9,3.5-2.4,5
				C271.4,546,270.5,546,270.5,544.3z M274.4,540.3v-2.5c0-1.2-0.5-1.2-1.5-0.2c-1,1-1.5,2-1.5,3.2v2.5c0,1.2,0.5,1.2,1.5,0.2
				C273.9,542.5,274.4,541.5,274.4,540.3z"/>
			<path class="st8" d="M276.5,538.3v-2.5c0-1.8,0.9-3.5,2.5-5c1.5-1.5,2.4-1.6,2.4,0.1v2.5c0,1.8-0.9,3.5-2.4,5
				C277.4,540,276.5,540,276.5,538.3z M280.4,534.3v-2.5c0-1.2-0.5-1.2-1.5-0.2c-1,1-1.5,2-1.5,3.2v2.5c0,1.2,0.5,1.2,1.5,0.2
				C279.9,536.5,280.4,535.5,280.4,534.3z"/>
			<path class="st8" d="M282.4,532.9v-0.4c0-0.8,0.3-1.6,1.1-2.8c-0.8,0.4-1,0.2-1-0.5v-0.3c0-1,0.7-2.5,2.4-4.2
				c1.7-1.7,2.4-1.5,2.4-0.6v0.3c0,0.7-0.3,1.5-1,2.5c0.8-0.5,1.1-0.2,1.1,0.6v0.4c0,1-0.6,2.6-2.4,4.4
				C283,534.4,282.4,533.9,282.4,532.9z M286.3,528.9v-0.3c0-0.7-0.3-0.9-1.5,0.2c-1.1,1.1-1.5,2.1-1.5,2.7v0.3
				c0,0.7,0.3,0.9,1.5-0.2C286,530.5,286.3,529.6,286.3,528.9z M286.3,525.5v-0.2c0-0.5-0.4-0.7-1.4,0.3c-1,1-1.4,1.9-1.4,2.5v0.2
				c0,0.5,0.4,0.7,1.4-0.4C285.9,527,286.3,526.1,286.3,525.5z"/>
		</g>
		<g class="st7">
			<path class="st8" d="M318.2,498.2c0-2.9,3.6-6.3,3.6-8.3c0-0.7-0.4-0.7-1.3,0.2c-0.8,0.8-1.3,1.7-1.4,2.8l-1,0.8
				c0.1-1.4,0.8-3,2.3-4.5c1.7-1.7,2.3-1.5,2.3-0.3c0,2.6-3.6,6.1-3.6,8.2v0.1l3.7-3.7v0.9l-4.7,4.7V498.2z"/>
			<path class="st8" d="M323.7,491.1v-2.5c0-1.8,0.9-3.5,2.5-5c1.5-1.5,2.4-1.6,2.4,0.1v2.5c0,1.8-0.9,3.5-2.4,5
				C324.6,492.8,323.7,492.9,323.7,491.1z M327.6,487.2v-2.5c0-1.2-0.5-1.2-1.5-0.2c-1,1-1.5,2-1.5,3.2v2.5c0,1.2,0.5,1.2,1.5,0.2
				C327.1,489.4,327.6,488.4,327.6,487.2z"/>
			<path class="st8" d="M330.6,480.1l-1.3,1.3l0.1-1.1l2.2-2.2v7.6l-1,1V480.1z"/>
			<path class="st8" d="M336,479.5l-3.3,3.3V482l3.1-8l1.1-1.1l-3.1,8l2.3-2.3v-1.8l0.9-0.9v1.8l0.9-0.9v0.9l-0.9,0.9v1.8l-0.9,0.9
				V479.5z"/>
		</g>
		<g class="st7">
			<path class="st8" d="M371.3,445.1c0-2.9,3.6-6.3,3.6-8.3c0-0.7-0.4-0.7-1.3,0.2c-0.8,0.8-1.3,1.7-1.4,2.8l-1,0.8
				c0.1-1.4,0.8-3,2.3-4.5c1.7-1.7,2.3-1.5,2.3-0.3c0,2.6-3.6,6.1-3.6,8.2v0.1l3.7-3.7v0.9l-4.7,4.7V445.1z"/>
			<path class="st8" d="M376.8,438v-2.5c0-1.8,0.9-3.5,2.5-5c1.5-1.5,2.4-1.6,2.4,0.1v2.5c0,1.8-0.9,3.5-2.4,5
				C377.7,439.7,376.8,439.8,376.8,438z M380.7,434.1v-2.5c0-1.2-0.5-1.2-1.5-0.2c-1,1-1.5,2-1.5,3.2v2.5c0,1.2,0.5,1.2,1.5,0.2
				C380.2,436.2,380.7,435.2,380.7,434.1z"/>
			<path class="st8" d="M383.7,426.9l-1.3,1.3l0.1-1.1l2.2-2.2v7.6l-1,1V426.9z"/>
			<path class="st8" d="M386.2,428.8V426c0-1.7,0.8-3.4,2.3-4.9c1.4-1.4,2.2-1.7,2.3-0.4l-1,1.1c-0.1-0.8-0.5-0.6-1.4,0.2
				c-0.9,0.9-1.4,1.9-1.4,3v0.9c0.3-0.8,0.8-1.5,1.5-2.2c1.4-1.4,2.3-1.6,2.3,0v0.3c0,1.6-0.9,3.3-2.4,4.7
				C387.1,430.3,386.2,430.4,386.2,428.8z M390,425v-0.3c0-1-0.5-0.9-1.4-0.1s-1.4,1.9-1.4,2.9v0.3c0,1,0.5,1,1.4,0.1
				C389.5,427,390,426,390,425z"/>
		</g>
		<g class="st7">
			<path class="st8" d="M424.4,391.9c0-2.9,3.6-6.3,3.6-8.3c0-0.7-0.4-0.7-1.3,0.2c-0.8,0.8-1.3,1.7-1.4,2.8l-1,0.8
				c0.1-1.4,0.8-3,2.3-4.5c1.7-1.7,2.3-1.5,2.3-0.3c0,2.6-3.6,6.1-3.6,8.2v0.1l3.7-3.7v0.9l-4.7,4.7V391.9z"/>
			<path class="st8" d="M429.9,384.8v-2.5c0-1.8,0.9-3.5,2.5-5c1.5-1.5,2.4-1.6,2.4,0.1v2.5c0,1.8-0.9,3.5-2.4,5
				C430.8,386.5,429.9,386.6,429.9,384.8z M433.9,380.9v-2.5c0-1.2-0.5-1.2-1.5-0.2c-1,1-1.5,2-1.5,3.2v2.5c0,1.2,0.5,1.2,1.5,0.2
				C433.4,383.1,433.9,382.1,433.9,380.9z"/>
			<path class="st8" d="M436.9,373.8l-1.3,1.3l0.1-1.1l2.2-2.2v7.6l-1,1V373.8z"/>
			<path class="st8" d="M439.3,376.1v-0.4c0-0.8,0.3-1.6,1.1-2.8c-0.8,0.4-1,0.2-1-0.5v-0.3c0-1,0.7-2.5,2.4-4.2
				c1.7-1.7,2.4-1.5,2.4-0.6v0.3c0,0.7-0.3,1.5-1,2.5c0.8-0.5,1.1-0.2,1.1,0.6v0.4c0,1-0.6,2.6-2.4,4.4
				C439.8,377.6,439.3,377.1,439.3,376.1z M443.2,372.1v-0.3c0-0.7-0.3-0.9-1.5,0.2c-1.1,1.1-1.5,2.1-1.5,2.7v0.3
				c0,0.7,0.3,0.9,1.5-0.2S443.2,372.8,443.2,372.1z M443.1,368.7v-0.2c0-0.5-0.4-0.7-1.4,0.3c-1,1-1.4,1.9-1.4,2.5v0.2
				c0,0.5,0.4,0.7,1.4-0.4C442.7,370.1,443.1,369.2,443.1,368.7z"/>
		</g>
	</g>
</g>
<g class="st10">
	<polygon class="st11" points="211.8,566 211.8,353.4 251.7,340.2 304.8,300.3 358,273.7 424.4,167.5 424.4,353.4 	"/>
	<g>
		<circle class="st11" cx="211.8" cy="354.1" r="2.6"/>
	</g>
	<g>
		<circle class="st11" cx="251.7" cy="340.2" r="2.6"/>
	</g>
	<g>
		<circle class="st11" cx="304.8" cy="300.3" r="2.6"/>
	</g>
	<g>
		<circle class="st11" cx="358" cy="273.7" r="2.6"/>
	</g>
	<g>
		<circle class="st11" cx="424.4" cy="167.5" r="2.6"/>
	</g>
	<g>
		<circle class="st11" cx="424.4" cy="167.5" r="2.6"/>
	</g>
</g>
<g>
	<linearGradient id="SVGID_7_" gradientUnits="userSpaceOnUse" x1="211.438" y1="353.4415" x2="424" y2="353.4415">
		<stop  offset="0" style="stop-color:#53C2F0;stop-opacity:0"/>
		<stop  offset="0.9987" style="stop-color:#55BBBC"/>
	</linearGradient>
	<polygon class="st12" points="211.4,566 211.4,526.1 264.6,446.4 317.7,300.3 370.9,220.6 424,140.9 424,353.4 	"/>
	<g>
		<linearGradient id="SVGID_8_" gradientUnits="userSpaceOnUse" x1="208.838" y1="526.1485" x2="214.0399" y2="526.1485">
			<stop  offset="0" style="stop-color:#53C2F0;stop-opacity:0"/>
			<stop  offset="0.9987" style="stop-color:#55BBBC"/>
		</linearGradient>
		<circle class="st13" cx="211.4" cy="526.1" r="2.6"/>
	</g>
	<g>
		<linearGradient id="SVGID_9_" gradientUnits="userSpaceOnUse" x1="261.978" y1="446.4376" x2="267.1799" y2="446.4376">
			<stop  offset="0" style="stop-color:#53C2F0;stop-opacity:0"/>
			<stop  offset="0.9987" style="stop-color:#55BBBC"/>
		</linearGradient>
		<circle class="st14" cx="264.6" cy="446.4" r="2.6"/>
	</g>
	<g>
		<linearGradient id="SVGID_10_" gradientUnits="userSpaceOnUse" x1="315.119" y1="300.3023" x2="320.3209" y2="300.3023">
			<stop  offset="0" style="stop-color:#53C2F0;stop-opacity:0"/>
			<stop  offset="0.9987" style="stop-color:#55BBBC"/>
		</linearGradient>
		<circle class="st15" cx="317.7" cy="300.3" r="2.6"/>
	</g>
	<g>
		<linearGradient id="SVGID_11_" gradientUnits="userSpaceOnUse" x1="421.3987" y1="142.1485" x2="426.6006" y2="142.1485">
			<stop  offset="0" style="stop-color:#53C2F0;stop-opacity:0"/>
			<stop  offset="0.9987" style="stop-color:#55BBBC"/>
		</linearGradient>
		<circle class="st16" cx="424" cy="142.1" r="2.6"/>
	</g>
</g>
<g>
	<g class="st7">
		<path class="st17" d="M503.6,444.5h6c4,0,6.4,2,6.4,6.6v6.6c0,4.6-2.3,6.6-6.4,6.6h-6V444.5z M509.6,462c2.6,0,3.8-1.2,3.8-4.3
			v-6.5c0-3.1-1.2-4.3-3.8-4.3h-3.5V462H509.6z"/>
		<path class="st17" d="M518.5,459.2v-3.7c0-3.1,1.5-5.3,5.3-5.3c4,0,5.2,2.3,5.2,5.4v2.4h-8v1.4c0,1.7,0.7,2.9,2.8,2.9
			c2.2,0,2.5-1,2.7-2.3l2.5,0.4c-0.2,1.9-1.2,4.1-5.2,4.1C520,464.5,518.5,462.2,518.5,459.2z M526.5,455.9v-0.7
			c0-2-0.8-2.9-2.7-2.9c-2,0-2.8,1.1-2.8,2.9v0.7H526.5z"/>
		<path class="st17" d="M531,460.5l2.4-0.4c0.3,1.7,0.8,2.2,2.8,2.2c1.8,0,2.6-0.5,2.6-1.7c0-1.4-1.1-1.8-2.7-2.1
			c-2.2-0.4-5-0.9-4.9-4.2c0-2.8,2-4,5-4c3.3,0,4.6,1.5,4.9,3.9l-2.5,0.4c-0.2-1.5-0.8-2.1-2.5-2.1c-1.6,0-2.5,0.5-2.5,1.7
			c0,1.5,1.2,1.8,2.9,2.1c2.2,0.4,4.7,1,4.7,4.1c0,2.6-1.4,4.2-5.2,4.2C532.6,464.5,531.2,463.1,531,460.5z"/>
		<path class="st17" d="M544,443.7h2.6v11.8l4.8-5.2h2.9l-4.7,5.1l5,8.8h-2.8l-3.9-6.9l-1.2,1.3v5.7H544V443.7z"/>
		<path class="st17" d="M557.4,460.2v-7.6h-2.3v-2.2h2.3v-4.7h2.5v4.7h3.5v2.2h-3.5v7.5c0,1.4,0.3,2,1.5,2h2v2.2h-2.2
			C558.2,464.3,557.4,463,557.4,460.2z"/>
		<path class="st17" d="M565.4,459.2v-3.7c0-3.1,1.7-5.3,5.5-5.3s5.5,2.1,5.5,5.3v3.7c0,3.1-1.7,5.3-5.5,5.3
			C567,464.5,565.4,462.3,565.4,459.2z M573.9,459.4v-4c0-1.8-1-2.9-3-2.9s-3,1.1-3,2.9v4c0,1.8,1,2.9,3,2.9
			S573.9,461.1,573.9,459.4z"/>
		<path class="st17" d="M579.3,450.4h2.6v1.6c0.7-1.1,1.9-1.7,3.7-1.7c3.6,0,4.7,2.1,4.7,5.2v3.9c0,3.1-1.2,5.2-4.9,5.2
			c-1.7,0-2.9-0.6-3.6-1.6v6.7h-2.6V450.4z M587.8,459.4v-4c0-1.8-0.9-2.9-2.9-2.9c-2,0-3.1,1.1-3.1,2.7v4.2c0,1.8,1.1,2.9,3.1,2.9
			C586.9,462.3,587.8,461.1,587.8,459.4z"/>
		<path class="st17" d="M597.9,460.3v-9.9h2.6v9.6c0,1.2,0.7,2.2,2.6,2.2c1.6,0,3.1-0.9,3.1-2.4v-9.4h2.6v13.9h-2.6v-1.7
			c-0.8,1.2-2.1,1.9-3.9,1.9C598.8,464.5,597.9,462.6,597.9,460.3z"/>
		<path class="st17" d="M611.4,460.5l2.4-0.4c0.3,1.7,0.8,2.2,2.8,2.2c1.8,0,2.6-0.5,2.6-1.7c0-1.4-1.1-1.8-2.7-2.1
			c-2.2-0.4-5-0.9-4.9-4.2c0-2.8,2-4,5-4c3.3,0,4.6,1.5,4.9,3.9l-2.5,0.4c-0.2-1.5-0.8-2.1-2.5-2.1c-1.6,0-2.5,0.5-2.5,1.7
			c0,1.5,1.2,1.8,2.9,2.1c2.2,0.4,4.7,1,4.7,4.1c0,2.6-1.4,4.2-5.2,4.2C613.1,464.5,611.7,463.1,611.4,460.5z"/>
		<path class="st17" d="M623.7,459.2v-3.7c0-3.1,1.5-5.3,5.3-5.3c4,0,5.2,2.3,5.2,5.4v2.4h-8v1.4c0,1.7,0.7,2.9,2.8,2.9
			c2.2,0,2.5-1,2.7-2.3l2.5,0.4c-0.2,1.9-1.2,4.1-5.2,4.1C625.2,464.5,623.7,462.2,623.7,459.2z M631.7,455.9v-0.7
			c0-2-0.8-2.9-2.7-2.9c-2,0-2.8,1.1-2.8,2.9v0.7H631.7z"/>
		<path class="st17" d="M637,450.4h2.6v1.7c0.8-1.2,2-1.9,3.5-1.9h0.5v2.3H643c-1.8,0-3.5,0.9-3.5,2.7v9.1H637V450.4z"/>
		<path class="st17" d="M644.8,460.5l2.4-0.4c0.3,1.7,0.8,2.2,2.8,2.2c1.8,0,2.6-0.5,2.6-1.7c0-1.4-1.1-1.8-2.7-2.1
			c-2.2-0.4-5-0.9-4.9-4.2c0-2.8,2-4,5-4c3.3,0,4.6,1.5,4.9,3.9l-2.5,0.4c-0.2-1.5-0.8-2.1-2.5-2.1c-1.6,0-2.5,0.5-2.5,1.7
			c0,1.5,1.2,1.8,2.9,2.1c2.2,0.4,4.7,1,4.7,4.1c0,2.6-1.4,4.2-5.2,4.2C646.5,464.5,645.1,463.1,644.8,460.5z"/>
	</g>
</g>
<g>
	<path class="st17" d="M454.6,507.4h3.3l5,15.8h0.1l4.9-15.8h3.3v19.8h-2.6v-14.5h-0.1l-4.5,14.5h-2.4l-4.6-14.5h-0.1v14.5h-2.5
		V507.4z"/>
	<path class="st17" d="M474.4,522.1v-3.7c0-3.1,1.7-5.3,5.5-5.3s5.5,2.1,5.5,5.3v3.7c0,3.1-1.7,5.3-5.5,5.3
		C476.1,527.3,474.4,525.1,474.4,522.1z M482.9,522.2v-4c0-1.8-1-2.9-3-2.9s-3,1.1-3,2.9v4c0,1.8,1,2.9,3,2.9S482.9,524,482.9,522.2
		z"/>
	<path class="st17" d="M490.9,525.7v1.5h-2.6v-20.6h2.6v8.2c0.7-1.1,1.9-1.7,3.7-1.7c3.6,0,4.7,2.1,4.7,5.2v3.9
		c0,3.1-1.2,5.2-4.9,5.2C492.8,527.3,491.6,526.7,490.9,525.7z M496.8,522.2v-4c0-1.8-0.9-2.9-2.9-2.9c-2,0-3.1,1.1-3.1,2.8v4.2
		c0,1.7,1.1,2.9,3.1,2.9C496,525.1,496.8,524,496.8,522.2z"/>
	<path class="st17" d="M502.3,508.1h2.7v2.9h-2.7V508.1z M502.4,513.3h2.6v13.9h-2.6V513.3z"/>
	<path class="st17" d="M508.7,506.6h2.6v20.6h-2.6V506.6z"/>
	<path class="st17" d="M514.3,522.1v-3.7c0-3.1,1.5-5.3,5.3-5.3c4,0,5.2,2.3,5.2,5.4v2.4h-8v1.4c0,1.7,0.7,2.9,2.8,2.9
		c2.2,0,2.5-1,2.7-2.3l2.5,0.4c-0.2,1.9-1.2,4.1-5.2,4.1C515.7,527.3,514.3,525.1,514.3,522.1z M522.3,518.8v-0.7
		c0-2-0.8-2.9-2.7-2.9c-2,0-2.8,1.1-2.8,2.9v0.7H522.3z"/>
	<path class="st17" d="M532.2,523.1v-9.9h2.6v9.6c0,1.2,0.7,2.2,2.6,2.2c1.6,0,3.1-0.9,3.1-2.4v-9.4h2.6v13.9h-2.6v-1.7
		c-0.8,1.2-2.1,1.9-3.9,1.9C533.2,527.3,532.2,525.5,532.2,523.1z"/>
	<path class="st17" d="M545.8,523.4l2.4-0.4c0.3,1.7,0.8,2.2,2.8,2.2c1.8,0,2.6-0.5,2.6-1.7c0-1.4-1.1-1.8-2.7-2.1
		c-2.2-0.4-5-0.9-4.9-4.2c0-2.8,2-4,5-4c3.3,0,4.6,1.5,4.9,3.9l-2.5,0.4c-0.2-1.5-0.8-2.1-2.5-2.1c-1.6,0-2.5,0.5-2.5,1.7
		c0,1.5,1.2,1.8,2.9,2.1c2.2,0.4,4.7,1,4.7,4.1c0,2.6-1.4,4.2-5.2,4.2C547.4,527.3,546,526,545.8,523.4z"/>
	<path class="st17" d="M558.1,522.1v-3.7c0-3.1,1.5-5.3,5.3-5.3c4,0,5.2,2.3,5.2,5.4v2.4h-8v1.4c0,1.7,0.7,2.9,2.8,2.9
		c2.2,0,2.5-1,2.7-2.3l2.5,0.4c-0.2,1.9-1.2,4.1-5.2,4.1C559.5,527.3,558.1,525.1,558.1,522.1z M566,518.8v-0.7c0-2-0.8-2.9-2.7-2.9
		c-2,0-2.8,1.1-2.8,2.9v0.7H566z"/>
	<path class="st17" d="M571.3,513.3h2.6v1.7c0.8-1.2,2-1.9,3.5-1.9h0.5v2.3h-0.5c-1.8,0-3.5,0.9-3.5,2.7v9.1h-2.6V513.3z"/>
	<path class="st17" d="M579.2,523.4l2.4-0.4c0.3,1.7,0.8,2.2,2.8,2.2c1.8,0,2.6-0.5,2.6-1.7c0-1.4-1.1-1.8-2.7-2.1
		c-2.2-0.4-5-0.9-4.9-4.2c0-2.8,2-4,5-4c3.3,0,4.6,1.5,4.9,3.9l-2.5,0.4c-0.2-1.5-0.8-2.1-2.5-2.1c-1.6,0-2.5,0.5-2.5,1.7
		c0,1.5,1.2,1.8,2.9,2.1c2.2,0.4,4.7,1,4.7,4.1c0,2.6-1.4,4.2-5.2,4.2C580.9,527.3,579.5,526,579.2,523.4z"/>
</g>
<polygon class="st11" points="476,437.6 486.6,427.1 550,427.1 540,437.1 "/>
<polygon class="st18" points="417,496.5 427.6,486 491,486 481,496 "/>
</svg>
