<?xml version="1.0" encoding="utf-8"?>
<!-- Generator: Adobe Illustrator 22.1.0, SVG Export Plug-In . SVG Version: 6.00 Build 0)  -->
<svg version="1.1" id="Layer_1" xmlns="http://www.w3.org/2000/svg" xmlns:xlink="http://www.w3.org/1999/xlink" x="0px" y="0px"
	 viewBox="0 0 612 613.9" style="enable-background:new 0 0 612 613.9;" xml:space="preserve">
<style type="text/css">
	.st0{opacity:0.8;fill:#28235D;enable-background:new    ;}
	.st1{fill:none;stroke:url(#SVGID_1_);stroke-width:0.75;stroke-miterlimit:10;}
	.st2{fill:none;stroke:url(#SVGID_2_);stroke-width:0.75;stroke-miterlimit:10;}
	.st3{fill:none;stroke:url(#SVGID_3_);stroke-width:0.75;stroke-miterlimit:10;}
	.st4{fill:none;stroke:url(#SVGID_4_);stroke-width:0.75;stroke-miterlimit:10;}
	.st5{fill:none;stroke:url(#SVGID_5_);stroke-width:0.75;stroke-miterlimit:10;}
	.st6{fill:none;stroke:url(#SVGID_6_);stroke-width:0.75;stroke-miterlimit:10;}
	.st7{fill:#53C2F0;}
	.st8{font-family:'HeronSans-Regular';}
	.st9{font-size:17.7134px;}
	.st10{fill:none;stroke:#1C9CA6;stroke-width:0.75;stroke-miterlimit:10;}
	.st11{font-size:10.1121px;}
	.st12{opacity:0.9;enable-background:new    ;}
	.st13{fill:#ED2224;}
	.st14{opacity:0.9;fill:url(#SVGID_7_);enable-background:new    ;}
	.st15{fill:url(#SVGID_8_);}
	.st16{fill:url(#SVGID_9_);}
	.st17{fill:url(#SVGID_10_);}
	.st18{fill:url(#SVGID_11_);}
	.st19{font-size:12px;}
	.st20{fill:#55BBBC;}
</style>
<polygon class="st0" points="111,566 323.6,353.4 323.6,21.3 111,233.9 "/>
<g>
	
		<linearGradient id="SVGID_1_" gradientUnits="userSpaceOnUse" x1="-4926.8271" y1="-569.0295" x2="-4713.7349" y2="-569.0295" gradientTransform="matrix(1 0 0 -1 5131 -175.7323)">
		<stop  offset="0.7635" style="stop-color:#1C9CA6"/>
		<stop  offset="0.9852" style="stop-color:#FFFFFF"/>
	</linearGradient>
	<line class="st1" x1="204.4" y1="499.6" x2="417" y2="287"/>
	
		<linearGradient id="SVGID_2_" gradientUnits="userSpaceOnUse" x1="-4926.8271" y1="-502.6032" x2="-4713.7349" y2="-502.6032" gradientTransform="matrix(1 0 0 -1 5131 -175.7323)">
		<stop  offset="0.7635" style="stop-color:#1C9CA6"/>
		<stop  offset="0.9852" style="stop-color:#FFFFFF"/>
	</linearGradient>
	<line class="st2" x1="204.4" y1="433.2" x2="417" y2="220.6"/>
	
		<linearGradient id="SVGID_3_" gradientUnits="userSpaceOnUse" x1="-4926.8271" y1="-436.1789" x2="-4713.7349" y2="-436.1789" gradientTransform="matrix(1 0 0 -1 5131 -175.7323)">
		<stop  offset="0.7635" style="stop-color:#1C9CA6"/>
		<stop  offset="0.9852" style="stop-color:#FFFFFF"/>
	</linearGradient>
	<line class="st3" x1="204.4" y1="366.7" x2="417" y2="154.2"/>
	
		<linearGradient id="SVGID_4_" gradientUnits="userSpaceOnUse" x1="-4926.8271" y1="-369.7538" x2="-4713.7349" y2="-369.7538" gradientTransform="matrix(1 0 0 -1 5131 -175.7323)">
		<stop  offset="0.7635" style="stop-color:#1C9CA6"/>
		<stop  offset="0.9852" style="stop-color:#FFFFFF"/>
	</linearGradient>
	<line class="st4" x1="204.4" y1="300.3" x2="417" y2="87.7"/>
	
		<linearGradient id="SVGID_5_" gradientUnits="userSpaceOnUse" x1="-4926.8271" y1="-303.3283" x2="-4713.7349" y2="-303.3283" gradientTransform="matrix(1 0 0 -1 5131 -175.7323)">
		<stop  offset="0.7635" style="stop-color:#1C9CA6"/>
		<stop  offset="0.9852" style="stop-color:#FFFFFF"/>
	</linearGradient>
	<line class="st5" x1="204.4" y1="233.9" x2="417" y2="21.3"/>
	
		<linearGradient id="SVGID_6_" gradientUnits="userSpaceOnUse" x1="-4926.8271" y1="-635.4548" x2="-4713.7349" y2="-635.4548" gradientTransform="matrix(1 0 0 -1 5131 -175.7323)">
		<stop  offset="0.7635" style="stop-color:#1C9CA6"/>
		<stop  offset="0.9852" style="stop-color:#FFFFFF"/>
	</linearGradient>
	<line class="st6" x1="204.4" y1="566" x2="417" y2="353.4"/>
	<text transform="matrix(1 -1 0 1 148.5904 289.7251)" class="st7 st8 st9">100%</text>
	<text transform="matrix(1 -1 0 1 154.8964 348.9582)" class="st7 st8 st9">80%</text>
	<text transform="matrix(1 -1 0 1 155.0372 414.3564)" class="st7 st8 st9">60%</text>
	<text transform="matrix(1 -1 0 1 155.0372 479.8954)" class="st7 st8 st9">40%</text>
	<text transform="matrix(1 -1 0 1 155.6228 544.8509)" class="st7 st8 st9">20%</text>
	<text transform="matrix(1 -1 0 1 165.0638 600.947)" class="st7 st8 st9">0%</text>
</g>
<g>
	<line class="st10" x1="265" y1="539.4" x2="265" y2="526.1"/>
	<line class="st10" x1="318.2" y1="486.3" x2="318.2" y2="473"/>
	<line class="st10" x1="371.3" y1="433.2" x2="371.3" y2="419.9"/>
	<g>
		<polyline class="st10" points="211.4,592.6 211.4,579.3 424,366.7 424,380 		"/>
		<text transform="matrix(1 -1 0 1 211.4422 605.8538)" class="st7 st8 st11">2007</text>
		<text transform="matrix(1 -1 0 1 264.5788 552.7172)" class="st7 st8 st11">2008</text>
		<text transform="matrix(1 -1 0 1 317.7195 499.5803)" class="st7 st8 st11">2014</text>
		<text transform="matrix(1 -1 0 1 370.8589 446.441)" class="st7 st8 st11">2016</text>
		<text transform="matrix(1 -1 0 1 423.9996 393.2964)" class="st7 st8 st11">2018</text>
	</g>
</g>
<g class="st12">
	<polygon class="st13" points="211.8,566 211.8,353.4 251.7,340.2 304.8,300.3 358,273.7 424.4,167.5 424.4,353.4 	"/>
	<g>
		<circle class="st13" cx="211.8" cy="354.1" r="2.6"/>
	</g>
	<g>
		<circle class="st13" cx="251.7" cy="340.2" r="2.6"/>
	</g>
	<g>
		<circle class="st13" cx="304.8" cy="300.3" r="2.6"/>
	</g>
	<g>
		<circle class="st13" cx="358" cy="273.7" r="2.6"/>
	</g>
	<g>
		<circle class="st13" cx="424.4" cy="167.5" r="2.6"/>
	</g>
	<g>
		<circle class="st13" cx="424.4" cy="167.5" r="2.6"/>
	</g>
</g>
<g>
	<linearGradient id="SVGID_7_" gradientUnits="userSpaceOnUse" x1="211.438" y1="353.4415" x2="424" y2="353.4415">
		<stop  offset="0" style="stop-color:#53C2F0;stop-opacity:0"/>
		<stop  offset="0.9987" style="stop-color:#55BBBC"/>
	</linearGradient>
	<polygon class="st14" points="211.4,566 211.4,526.1 264.6,446.4 317.7,300.3 370.9,220.6 424,140.9 424,353.4 	"/>
	<g>
		<linearGradient id="SVGID_8_" gradientUnits="userSpaceOnUse" x1="208.838" y1="526.1485" x2="214.0399" y2="526.1485">
			<stop  offset="0" style="stop-color:#53C2F0;stop-opacity:0"/>
			<stop  offset="0.9987" style="stop-color:#55BBBC"/>
		</linearGradient>
		<circle class="st15" cx="211.4" cy="526.1" r="2.6"/>
	</g>
	<g>
		<linearGradient id="SVGID_9_" gradientUnits="userSpaceOnUse" x1="261.978" y1="446.4376" x2="267.1799" y2="446.4376">
			<stop  offset="0" style="stop-color:#53C2F0;stop-opacity:0"/>
			<stop  offset="0.9987" style="stop-color:#55BBBC"/>
		</linearGradient>
		<circle class="st16" cx="264.6" cy="446.4" r="2.6"/>
	</g>
	<g>
		<linearGradient id="SVGID_10_" gradientUnits="userSpaceOnUse" x1="315.119" y1="300.3023" x2="320.3209" y2="300.3023">
			<stop  offset="0" style="stop-color:#53C2F0;stop-opacity:0"/>
			<stop  offset="0.9987" style="stop-color:#55BBBC"/>
		</linearGradient>
		<circle class="st17" cx="317.7" cy="300.3" r="2.6"/>
	</g>
	<g>
		<linearGradient id="SVGID_11_" gradientUnits="userSpaceOnUse" x1="421.3987" y1="142.1485" x2="426.6006" y2="142.1485">
			<stop  offset="0" style="stop-color:#53C2F0;stop-opacity:0"/>
			<stop  offset="0.9987" style="stop-color:#55BBBC"/>
		</linearGradient>
		<circle class="st18" cx="424" cy="142.1" r="2.6"/>
	</g>
</g>
<g>
	<text transform="matrix(1 0 0 1 424.3995 483.1446)" class="st13 st8 st19">Desktop users</text>
</g>
<text transform="matrix(1 0 0 1 424.3995 506.0777)" class="st20 st8 st19">Mobile users</text>
<g>
	<circle class="st13" cx="413.8" cy="479.9" r="3.2"/>
</g>
<g>
	<circle class="st20" cx="413.8" cy="502.8" r="3.2"/>
</g>
</svg>
