<svg width="48" height="48" viewBox="0 0 48 48" fill="none" xmlns="http://www.w3.org/2000/svg">
<path d="M23.5797 38.1469C22.9854 38.1469 22.3975 38.1469 21.8032 38.1469C21.5641 38.1469 21.3639 38.1077 21.2088 37.8594C21.0344 37.5785 21.1313 37.3499 21.267 37.1408C22.3006 35.5795 23.3472 34.0377 24.3873 32.4829C25.24 31.2024 26.0799 29.9154 26.9262 28.635C27.2169 28.1973 27.5141 27.7596 27.8112 27.3219C28.0696 26.9365 28.0632 26.7535 27.8048 26.3681C26.2478 24.0293 24.6974 21.6905 23.1404 19.3518C22.6301 18.5809 22.1003 17.8165 21.6223 17.0261C21.4995 16.8235 21.4802 16.4969 21.5448 16.2682C21.6158 16.0265 21.8872 15.9481 22.1585 15.9481C23.2761 15.9547 24.4002 15.9677 25.5178 15.9416C25.9184 15.9351 26.1639 16.0984 26.3577 16.425C26.9585 17.4246 27.5657 18.4241 28.173 19.4236C28.7286 20.3448 29.2906 21.2594 29.8527 22.174C30.2403 22.7946 30.7829 22.8077 31.1641 22.1936C32.0169 20.8151 32.8567 19.4236 33.703 18.0387C34.0583 17.4638 34.4007 16.8823 34.7625 16.3074C34.9111 16.0657 35.1307 15.9416 35.4343 15.9416C36.5843 15.9547 37.7407 15.9481 38.8906 15.9416C39.1619 15.9416 39.4332 16.0069 39.4978 16.2617C39.556 16.4904 39.5495 16.8039 39.4268 16.9934C38.503 18.4306 37.5468 19.8483 36.5972 21.2724C36.061 22.076 35.5377 22.8861 35.008 23.6896C34.4072 24.6107 33.8064 25.5253 33.1991 26.4399C33.0311 26.6947 33.0247 26.9495 33.1862 27.1912C33.9679 28.3868 34.756 29.5823 35.5506 30.7778C36.8556 32.7507 38.167 34.7171 39.472 36.6901C39.5818 36.8534 39.7046 37.0036 39.795 37.1735C40.0664 37.6831 39.8079 38.1273 39.2394 38.1273C38.1412 38.1338 37.0429 38.1012 35.9447 38.1404C35.4279 38.16 35.1242 37.964 34.8594 37.5328C34.0195 36.1544 33.1474 34.7955 32.2946 33.4301C31.9523 32.8879 31.6163 32.3392 31.2675 31.8035C31.1447 31.6205 30.9961 31.4245 30.8152 31.3135C30.5116 31.124 30.1498 31.2547 29.9237 31.6009C29.2519 32.6397 28.5929 33.6784 27.9275 34.7237C27.2686 35.7689 26.6032 36.8076 25.9507 37.8594C25.8085 38.0881 25.6147 38.1404 25.3757 38.1404C24.7878 38.1469 24.1806 38.1469 23.5797 38.1469Z" fill="#FFF"/>
<path d="M15.9349 26.2968C15.9349 28.139 15.922 29.9748 15.9414 31.817C15.9478 32.3397 16.0253 32.8623 16.2838 33.3392C16.568 33.8553 17.0073 34.1166 17.5823 34.1493C17.957 34.1689 18.3381 34.1493 18.7128 34.1558C19.0164 34.1624 19.2038 34.3583 19.2038 34.6719C19.2103 35.6519 19.2103 36.6318 19.2038 37.6117C19.2038 37.9906 19.0552 38.1474 18.6741 38.1474C17.7373 38.1474 16.7877 38.2193 15.8703 38.0952C14.4684 37.9122 13.2991 37.2393 12.5045 35.9981C11.8908 35.0378 11.6711 33.9729 11.6647 32.8558C11.6582 28.8576 11.6647 24.866 11.6582 20.8679C11.6582 20.6915 11.6517 20.5217 11.6194 20.3518C11.5548 19.986 11.3158 19.7835 10.9476 19.7835C10.2046 19.7769 9.46171 19.7835 8.71878 19.7769C8.26656 19.7769 8.0986 19.6071 8.0986 19.1432C8.09213 18.307 8.09213 17.4643 8.0986 16.6281C8.0986 16.1838 8.28594 15.9944 8.7317 15.9879C9.45525 15.9813 10.1723 15.9879 10.8959 15.9813C11.3675 15.9813 11.5871 15.7853 11.6453 15.3084C11.6647 15.1778 11.6582 15.0471 11.6582 14.9165C11.6582 13.3028 11.6582 11.6957 11.6582 10.0821C11.6582 9.9188 11.6711 9.75547 11.697 9.59868C11.7357 9.38963 11.8649 9.25244 12.091 9.25244C13.241 9.25244 14.3974 9.25244 15.5473 9.25244C15.7928 9.25244 15.9155 9.4027 15.922 9.64441C15.9284 9.76201 15.9284 9.88613 15.9284 10.0037C15.9284 11.6565 15.922 13.3159 15.9349 14.9687C15.9349 15.1778 15.9737 15.4064 16.0447 15.6024C16.1416 15.8703 16.3742 15.9879 16.6585 15.9879C17.2593 15.9879 17.8665 15.9879 18.4673 15.9879C19.0294 15.9879 19.2038 16.1577 19.2038 16.713C19.2038 17.5165 19.2038 18.3266 19.2038 19.1302C19.2038 19.5875 19.0229 19.7704 18.5578 19.7769C17.9893 19.7835 17.4143 19.8031 16.8458 19.7704C16.2644 19.7377 15.9349 20.0382 15.9349 20.7111C15.9284 22.573 15.9349 24.4349 15.9349 26.2968Z" fill="#FFF"/>
</svg>
