<svg width="83" height="83" viewBox="0 0 83 83" fill="none" xmlns="http://www.w3.org/2000/svg">
<path d="M4.2624 38.397C3.23468 38.397 2.21813 38.397 1.1904 38.397C0.777082 38.397 0.430783 38.3292 0.162682 37.8999C-0.138932 37.4142 0.0286322 37.0188 0.263221 36.6573C2.05056 33.9575 3.86024 31.2915 5.65876 28.603C7.13331 26.3888 8.58553 24.1634 10.0489 21.9493C10.5516 21.1925 11.0655 20.4356 11.5793 19.6788C12.0262 19.0123 12.015 18.696 11.5682 18.0295C8.87597 13.9853 6.19496 9.94121 3.50278 5.89708C2.62028 4.56409 1.70426 3.24241 0.877619 1.87554C0.665372 1.52535 0.63186 0.960525 0.743569 0.565149C0.866449 0.14718 1.33563 0.0116222 1.8048 0.0116222C3.73737 0.0229187 5.6811 0.0455118 7.61366 0.00032594C8.30626 -0.0109705 8.73075 0.271441 9.06588 0.836264C10.1048 2.56462 11.1548 4.29298 12.2049 6.02134C13.1656 7.61414 14.1375 9.19564 15.1093 10.7771C15.7796 11.8503 16.7179 11.8729 17.377 10.811C18.8516 8.42748 20.3038 6.02134 21.7672 3.62649C22.3816 2.6324 22.9736 1.62702 23.5992 0.632927C23.8561 0.214958 24.2359 0.00032594 24.761 0.00032594C26.7494 0.0229189 28.749 0.0116224 30.7374 0.00032594C31.2066 0.00032594 31.6757 0.113291 31.7874 0.553852C31.888 0.949228 31.8768 1.49146 31.6646 1.81906C30.0671 4.30428 28.4138 6.75561 26.7717 9.21823C25.8445 10.6077 24.9397 12.0085 24.0237 13.3979C22.9848 14.9907 21.9459 16.5722 20.8958 18.1537C20.6054 18.5943 20.5942 19.0349 20.8735 19.4528C22.2252 21.5201 23.588 23.5873 24.962 25.6546C27.2186 29.0661 29.4862 32.4663 31.7428 35.8779C31.9327 36.1603 32.1449 36.4201 32.3013 36.7138C32.7705 37.5949 32.3237 38.3631 31.3406 38.3631C29.4416 38.3744 27.5425 38.3179 25.6435 38.3857C24.7498 38.4196 24.2248 38.0807 23.7668 37.3351C22.3145 34.9516 20.8065 32.6019 19.3319 30.2409C18.7399 29.3033 18.159 28.3544 17.5557 27.4281C17.3435 27.1118 17.0866 26.7729 16.7738 26.5809C16.2488 26.2533 15.6232 26.4792 15.2322 27.0779C14.0704 28.8741 12.931 30.6702 11.7804 32.4776C10.641 34.2851 9.49037 36.0812 8.36211 37.8999C8.11635 38.2953 7.78122 38.3857 7.3679 38.3857C6.35135 38.397 5.30129 38.397 4.2624 38.397Z" transform="translate(36.5117 27.5673)" fill="#36C1AC"/>
<path d="M13.5587 29.4725C13.5587 32.6581 13.5363 35.8324 13.5698 39.018C13.581 39.9217 13.715 40.8254 14.1619 41.65C14.6534 42.5425 15.413 42.9943 16.4072 43.0508C17.0551 43.0847 17.7142 43.0508 18.3621 43.0621C18.8872 43.0734 19.2111 43.4123 19.2111 43.9545C19.2223 45.649 19.2223 47.3434 19.2111 49.0379C19.2111 49.6931 18.9542 49.9642 18.2951 49.9642C16.6753 49.9642 15.0332 50.0885 13.4469 49.8739C11.0229 49.5576 9.00094 48.394 7.62692 46.2477C6.56569 44.5871 6.18588 42.7458 6.17471 40.8141C6.16353 33.9007 6.17471 26.9985 6.16353 20.0851C6.16353 19.7801 6.15236 19.4864 6.09651 19.1927C5.9848 18.5601 5.57148 18.2099 4.93474 18.2099C3.65009 18.1986 2.36543 18.2099 1.08078 18.1986C0.298821 18.1986 0.00837816 17.9049 0.00837816 17.1028C-0.00279272 15.6569 -0.00279272 14.1996 0.00837816 12.7537C0.00837816 11.9855 0.332334 11.6579 1.10312 11.6466C2.35426 11.6353 3.59423 11.6466 4.84537 11.6353C5.66084 11.6353 6.04065 11.2965 6.14119 10.4718C6.17471 10.2459 6.16353 10.02 6.16353 9.79403C6.16353 7.0038 6.16353 4.22487 6.16353 1.43465C6.16353 1.15224 6.18588 0.869827 6.23056 0.598712C6.29759 0.237226 6.521 0 6.91198 0C8.9004 0 10.9 0 12.8884 0C13.3129 0 13.5251 0.259818 13.5363 0.677787C13.5475 0.881124 13.5475 1.09576 13.5475 1.29909C13.5475 4.1571 13.5363 7.0264 13.5587 9.8844C13.5587 10.2459 13.6257 10.6413 13.7486 10.9802C13.9161 11.4433 14.3183 11.6466 14.8098 11.6466C15.8487 11.6466 16.8988 11.6466 17.9376 11.6466C18.9095 11.6466 19.2111 11.9404 19.2111 12.9006C19.2111 14.29 19.2111 15.6908 19.2111 17.0802C19.2111 17.871 18.8983 18.1873 18.094 18.1986C17.111 18.2099 16.1168 18.2438 15.1338 18.1873C14.1284 18.1308 13.5587 18.6504 13.5587 19.814C13.5475 23.0335 13.5587 26.253 13.5587 29.4725Z" transform="translate(14 16)" fill="#36C1AC"/>
</svg>
