<svg width="83" height="83" xmlns="http://www.w3.org/2000/svg" fill="none"><path d="M40.774 65.964h-3.072c-.413 0-.76-.068-1.028-.497-.302-.486-.134-.881.101-1.243 1.787-2.7 3.597-5.366 5.396-8.054 1.475-2.214 2.927-4.44 4.39-6.654.503-.757 1.017-1.514 1.53-2.271.447-.666.436-.983-.011-1.649l-8.065-12.132c-.882-1.333-1.799-2.655-2.625-4.022-.212-.35-.246-.915-.134-1.31.123-.418.592-.554 1.061-.554 1.933.011 3.876.034 5.809-.011.693-.011 1.117.271 1.452.836 1.039 1.728 2.089 3.457 3.139 5.185.961 1.593 1.933 3.174 2.904 4.756.67 1.073 1.609 1.096 2.268.034 1.475-2.384 2.927-4.79 4.39-7.185.614-.994 1.206-1.999 1.832-2.994.257-.418.637-.633 1.162-.633 1.988.023 3.988.011 5.976 0 .469 0 .938.113 1.05.554.101.395.089.938-.123 1.265-1.598 2.485-3.251 4.937-4.893 7.399-.927 1.389-1.832 2.79-2.748 4.18a708.986 708.986 0 0 1-3.128 4.756c-.29.441-.302.881-.022 1.299 1.352 2.067 2.715 4.134 4.088 6.202l6.781 10.223c.19.282.402.542.558.836.469.881.022 1.649-.961 1.649-1.899.011-3.798-.045-5.697.023-.894.034-1.419-.305-1.877-1.051-1.452-2.383-2.96-4.733-4.435-7.094-.592-.938-1.173-1.887-1.776-2.813-.212-.316-.469-.655-.782-.847-.525-.328-1.151-.102-1.542.497-1.162 1.796-2.301 3.592-3.452 5.4-1.139 1.807-2.29 3.604-3.418 5.422-.246.395-.581.486-.994.486-1.017.011-2.067.011-3.105.011zM27.559 45.472c0 3.186-.022 6.36.011 9.546.011.904.145 1.807.592 2.632.492.892 1.251 1.344 2.245 1.401.648.034 1.307 0 1.955.011.525.011.849.35.849.892.011 1.694.011 3.389 0 5.083 0 .655-.257.926-.916.926-1.62 0-3.262.124-4.848-.09-2.424-.316-4.446-1.48-5.82-3.626-1.061-1.661-1.441-3.502-1.452-5.434l-.011-20.729c0-.305-.011-.599-.067-.892-.112-.633-.525-.983-1.162-.983l-3.854-.011c-.782 0-1.072-.294-1.072-1.096a286.577 286.577 0 0 1 0-4.349c0-.768.324-1.096 1.095-1.107l3.742-.011c.815 0 1.195-.339 1.296-1.164.034-.226.022-.452.022-.678v-8.359c0-.282.022-.565.067-.836.067-.361.29-.599.681-.599h5.976c.425 0 .637.26.648.678l.011.621c0 2.858-.011 5.727.011 8.585 0 .362.067.757.19 1.096.168.463.57.666 1.061.666h3.128c.972 0 1.273.294 1.273 1.254v4.18c0 .791-.313 1.107-1.117 1.118-.983.011-1.977.045-2.96-.011-1.005-.056-1.575.463-1.575 1.627-.011 3.22 0 6.439 0 9.659z" fill="#36C1AC"/></svg>