<svg xmlns="http://www.w3.org/2000/svg" viewBox="0 0 500 500"><style>.st40{opacity:.3;fill:#412578}.st85{opacity:.8}</style><g id="shapes"><path class="st40" d="M116 437H98l-45 45h18z"/><linearGradient id="SVGID_1_" gradientUnits="userSpaceOnUse" x1="54.451" y1="231.786" x2="223.739" y2="231.786"><stop offset="0" stop-color="#412578"/><stop offset=".438" stop-color="#1989be"/></linearGradient><path stroke="url(#SVGID_1_)" stroke-width="1.167" stroke-linecap="round" stroke-linejoin="round" stroke-miterlimit="10" d="M55 189.8L223.2 21.6v252.2L55 441.9z" fill="none"/><linearGradient id="SVGID_2_" gradientUnits="userSpaceOnUse" x1="54.035" y1="258.055" x2="224.156" y2="258.055"><stop offset="0" stop-color="#412578"/><stop offset=".438" stop-color="#1989be"/><stop offset=".665" stop-color="#c95f19"/></linearGradient><path stroke="url(#SVGID_2_)" stroke-width="2" stroke-linecap="round" stroke-linejoin="round" stroke-miterlimit="10" d="M55 410.4l31.6-84 31.5-21.1 21-84h21l31.5-115.6 31.6 10.5" fill="none"/><path d="M86.6 326.4v84m31.5-105.1v73.6" fill="none" stroke="#00b9f3" stroke-width=".75" stroke-linecap="round" stroke-linejoin="round" stroke-miterlimit="10"/><path d="M139.1 221.3v136.6m21-136.6v114.5" stroke="#c95f19" fill="none" stroke-width=".75" stroke-linecap="round" stroke-linejoin="round" stroke-miterlimit="10"/><path fill="#c95f19" stroke="#c95f19" stroke-width=".75" stroke-linecap="round" stroke-linejoin="round" stroke-miterlimit="10" d="M191.6 105.7v199.6"/><path d="M88.6 326.7c0 1.2-.9 2.1-2.1 2.1-1.2 0-2.1-.9-2.1-2.1 0-1.2.9-2.1 2.1-2.1 1.2 0 2.1.9 2.1 2.1zm31.6-21.4c0 1.2-.9 2.1-2.1 2.1-1.2 0-2.1-.9-2.1-2.1 0-1.2.9-2.1 2.1-2.1 1.1.1 2.1 1 2.1 2.1z" fill="#00b9f3"/><path d="M141.2 221.3c0 1.2-.9 2.1-2.1 2.1-1.2 0-2.1-.9-2.1-2.1 0-1.2.9-2.1 2.1-2.1 1.1 0 2.1.9 2.1 2.1zm21 0c0 1.2-.9 2.1-2.1 2.1-1.2 0-2.1-.9-2.1-2.1 0-1.2.9-2.1 2.1-2.1 1.2 0 2.1.9 2.1 2.1zm31.5-115.6c0 1.2-.9 2.1-2.1 2.1-1.2 0-2.1-.9-2.1-2.1 0-1.2.9-2.1 2.1-2.1 1.2 0 2.1.9 2.1 2.1z" fill="#f48142"/><linearGradient id="SVGID_3_" gradientUnits="userSpaceOnUse" x1="275.693" y1="294.832" x2="401.784" y2="294.832"><stop offset="0" stop-color="#c95f19"/><stop offset="1" stop-color="#b9351b"/></linearGradient><path fill="url(#SVGID_3_)" stroke="#91dbed" stroke-width=".75" stroke-linecap="round" stroke-linejoin="round" stroke-miterlimit="10" d="M275.7 315.8l42-42h84.1l-42 42z"/><linearGradient id="SVGID_4_" gradientUnits="userSpaceOnUse" x1="275.693" y1="168.741" x2="317.724" y2="168.741"><stop offset="0" stop-color="#c95f19"/><stop offset="1" stop-color="#b9351b"/></linearGradient><path fill="url(#SVGID_4_)" stroke="#91dbed" stroke-width=".75" stroke-linecap="round" stroke-linejoin="round" stroke-miterlimit="10" d="M317.7 21.6v252.2l-42 42V63.7z"/><linearGradient id="SVGID_5_" gradientUnits="userSpaceOnUse" x1="259.644" y1="413.879" x2="337.644" y2="112.879"><stop offset="0" stop-color="#c95f19"/><stop offset="1" stop-color="#b9351b"/></linearGradient><path fill="url(#SVGID_5_)" stroke="#91dbed" stroke-width=".75" stroke-linecap="round" stroke-linejoin="round" stroke-miterlimit="10" d="M275.7 63.7h84.1v252.2h-84.1z"/><linearGradient id="SVGID_6_" gradientUnits="userSpaceOnUse" x1="369.151" y1="234.676" x2="406.151" y2="24.676"><stop offset="0" stop-color="#c95f19"/><stop offset=".842" stop-color="#b53955"/><stop offset="1" stop-color="#b9351b"/></linearGradient><path fill="url(#SVGID_6_)" stroke="#91dbed" stroke-width=".75" stroke-linecap="round" stroke-linejoin="round" stroke-miterlimit="10" d="M359.8 315.8l42-42V21.6l-42 42.1z"/><linearGradient id="SVGID_7_" gradientUnits="userSpaceOnUse" x1="275.693" y1="42.65" x2="401.784" y2="42.65"><stop offset="0" stop-color="#c95f19"/><stop offset="1" stop-color="#b9351b"/></linearGradient><path fill="url(#SVGID_7_)" stroke="#91dbed" stroke-width=".75" stroke-linecap="round" stroke-linejoin="round" stroke-miterlimit="10" d="M275.7 63.7l42-42.1h84.1l-42 42.1z"/><linearGradient id="SVGID_8_" gradientUnits="userSpaceOnUse" x1="386.012" y1="241.695" x2="449.012" y2="241.695"><stop offset="0" stop-color="#b9351b"/><stop offset="1" stop-color="#c95f19"/></linearGradient><path fill="url(#SVGID_8_)" d="M449 219.2h-18l-45 45h18z"/><g class="st85"><linearGradient id="SVGID_9_" gradientUnits="userSpaceOnUse" x1="212.648" y1="357.877" x2="338.739" y2="357.877"><stop offset="0" stop-color="#412578"/><stop offset="1" stop-color="#1989be"/></linearGradient><path fill="url(#SVGID_9_)" stroke="#91dbed" stroke-width=".75" stroke-linecap="round" stroke-linejoin="round" stroke-miterlimit="10" d="M212.6 378.9l42.1-42h84l-42 42z"/><linearGradient id="SVGID_10_" gradientUnits="userSpaceOnUse" x1="212.648" y1="273.816" x2="254.678" y2="273.816"><stop offset="0" stop-color="#412578"/><stop offset="1" stop-color="#1989be"/></linearGradient><path fill="url(#SVGID_10_)" stroke="#91dbed" stroke-width=".75" stroke-linecap="round" stroke-linejoin="round" stroke-miterlimit="10" d="M254.7 168.7v168.2l-42.1 42V210.8z"/><linearGradient id="SVGID_11_" gradientUnits="userSpaceOnUse" x1="270.786" y1="286.581" x2="106.785" y2="370.582"><stop offset="0" stop-color="#412578"/><stop offset="1" stop-color="#1989be"/></linearGradient><path fill="url(#SVGID_11_)" stroke="#91dbed" stroke-width=".75" stroke-linecap="round" stroke-linejoin="round" stroke-miterlimit="10" d="M212.6 210.8h84.1v168.1h-84.1z"/><linearGradient id="SVGID_12_" gradientUnits="userSpaceOnUse" x1="245.472" y1="414.004" x2="312.472" y2="284.005"><stop offset="0" stop-color="#412578"/><stop offset="1" stop-color="#1989be"/></linearGradient><path fill="url(#SVGID_12_)" stroke="#91dbed" stroke-width=".75" stroke-linecap="round" stroke-linejoin="round" stroke-miterlimit="10" d="M296.7 378.9l42-42V168.7l-42 42.1z"/><linearGradient id="SVGID_13_" gradientUnits="userSpaceOnUse" x1="151.275" y1="252.454" x2="278.274" y2="188.455"><stop offset="0" stop-color="#412578"/><stop offset=".734" stop-color="#1989be"/><stop offset="1" stop-color="#4cc3f2"/></linearGradient><path fill="url(#SVGID_13_)" stroke="#91dbed" stroke-width=".75" stroke-linecap="round" stroke-linejoin="round" stroke-miterlimit="10" d="M212.6 210.8l42.1-42.1h84l-42 42.1z"/></g><g class="st85"><linearGradient id="SVGID_14_" gradientUnits="userSpaceOnUse" x1="149.603" y1="420.922" x2="275.693" y2="420.922"><stop offset="0" stop-color="#412578"/><stop offset="1" stop-color="#1989be"/></linearGradient><path fill="url(#SVGID_14_)" stroke="#91dbed" stroke-width=".75" stroke-linecap="round" stroke-linejoin="round" stroke-miterlimit="10" d="M149.6 441.9l42-42h84.1l-42 42z"/><linearGradient id="SVGID_15_" gradientUnits="userSpaceOnUse" x1="149.603" y1="378.892" x2="191.633" y2="378.892"><stop offset="0" stop-color="#412578"/><stop offset="1" stop-color="#1989be"/></linearGradient><path fill="url(#SVGID_15_)" stroke="#91dbed" stroke-width=".75" stroke-linecap="round" stroke-linejoin="round" stroke-miterlimit="10" d="M191.6 315.8v84.1l-42 42v-84z"/><linearGradient id="SVGID_16_" gradientUnits="userSpaceOnUse" x1="182.068" y1="404.558" x2="-35.931" y2="510.557"><stop offset="0" stop-color="#1f215e"/><stop offset="1" stop-color="#2e57a1"/></linearGradient><path fill="url(#SVGID_16_)" stroke="#91dbed" stroke-width=".75" stroke-linecap="round" stroke-linejoin="round" stroke-miterlimit="10" d="M149.6 357.9h84.1V442h-84.1z"/><linearGradient id="SVGID_17_" gradientUnits="userSpaceOnUse" x1="211.032" y1="485.928" x2="295.032" y2="279.928"><stop offset="0" stop-color="#412578"/><stop offset="1" stop-color="#1989be"/></linearGradient><path fill="url(#SVGID_17_)" stroke="#91dbed" stroke-width=".75" stroke-linecap="round" stroke-linejoin="round" stroke-miterlimit="10" d="M233.7 441.9l42-42v-84.1l-42 42.1z"/><linearGradient id="SVGID_18_" gradientUnits="userSpaceOnUse" x1="86.627" y1="429.719" x2="238.627" y2="317.719"><stop offset="0" stop-color="#412578"/><stop offset=".798" stop-color="#1989be"/><stop offset="1" stop-color="#4cc3f2"/></linearGradient><path fill="url(#SVGID_18_)" stroke="#91dbed" stroke-width=".75" stroke-linecap="round" stroke-linejoin="round" stroke-miterlimit="10" d="M149.6 357.9l42-42.1h84.1l-42 42.1z"/></g><linearGradient id="SVGID_19_" gradientUnits="userSpaceOnUse" x1="149.228" y1="357.876" x2="234.038" y2="357.876"><stop offset="0" stop-color="#fff" stop-opacity="0"/><stop offset="1" stop-color="#fff"/></linearGradient><path stroke="url(#SVGID_19_)" stroke-width=".75" stroke-linecap="round" stroke-linejoin="round" stroke-miterlimit="10" d="M149.6 357.9h84.1" fill="none"/><linearGradient id="SVGID_20_" gradientUnits="userSpaceOnUse" x1="233.288" y1="399.906" x2="234.038" y2="399.906"><stop offset="0" stop-color="#fff" stop-opacity="0"/><stop offset="1" stop-color="#fff"/></linearGradient><path stroke="url(#SVGID_20_)" stroke-width=".75" stroke-linecap="round" stroke-linejoin="round" stroke-miterlimit="10" d="M233.7 441.9v-84" fill="none"/><linearGradient id="SVGID_21_" gradientUnits="userSpaceOnUse" x1="359.378" y1="189.756" x2="360.128" y2="189.756"><stop offset="0" stop-color="#fff" stop-opacity="0"/><stop offset=".911" stop-color="#fff"/></linearGradient><path stroke="url(#SVGID_21_)" stroke-width=".75" stroke-linecap="round" stroke-linejoin="round" stroke-miterlimit="10" d="M359.8 315.8V63.7" fill="none"/><linearGradient id="SVGID_22_" gradientUnits="userSpaceOnUse" x1="275.318" y1="63.665" x2="360.128" y2="63.665"><stop offset="0" stop-color="#fff" stop-opacity="0"/><stop offset="1" stop-color="#fff"/></linearGradient><path stroke="url(#SVGID_22_)" stroke-width=".75" stroke-linecap="round" stroke-linejoin="round" stroke-miterlimit="10" d="M275.7 63.7h84.1" fill="none"/><linearGradient id="SVGID_23_" gradientUnits="userSpaceOnUse" x1="359.378" y1="42.65" x2="402.159" y2="42.65"><stop offset="0" stop-color="#fff"/><stop offset="1" stop-color="#fff" stop-opacity="0"/></linearGradient><path stroke="url(#SVGID_23_)" stroke-width=".75" stroke-linecap="round" stroke-linejoin="round" stroke-miterlimit="10" d="M401.8 21.6l-42 42.1" fill="none"/><linearGradient id="SVGID_24_" gradientUnits="userSpaceOnUse" x1="1675.911" y1="6720.983" x2="1664.911" y2="6780.483" gradientTransform="rotate(180 996.842 3467.197)"><stop offset="0" stop-color="#b9351b"/><stop offset="1" stop-color="#c95f19"/></linearGradient><path fill="url(#SVGID_24_)" d="M327.4 156.3l-9 9v49.5l9-9z"/><linearGradient id="SVGID_25_" gradientUnits="userSpaceOnUse" x1="264.831" y1="114.108" x2="258.109" y2="150.47"><stop offset="0" stop-color="#b9351b"/><stop offset="1" stop-color="#c95f19"/></linearGradient><path fill="url(#SVGID_25_)" d="M258.9 149l5.5-5.5v-30.2l-5.5 5.5z"/><linearGradient id="SVGID_26_" gradientUnits="userSpaceOnUse" x1="54.535" y1="105.695" x2="223.656" y2="105.695"><stop offset="0" stop-color="#fff" stop-opacity="0"/><stop offset="1" stop-color="#fff"/></linearGradient><path stroke="url(#SVGID_26_)" stroke-linecap="round" stroke-linejoin="round" stroke-miterlimit="10" d="M55 189.8L223.2 21.6" fill="none"/><linearGradient id="SVGID_27_" gradientUnits="userSpaceOnUse" x1="212.148" y1="210.771" x2="297.208" y2="210.771"><stop offset="0" stop-color="#fff" stop-opacity="0"/><stop offset="1" stop-color="#fff"/></linearGradient><path stroke="url(#SVGID_27_)" stroke-linecap="round" stroke-linejoin="round" stroke-miterlimit="10" d="M212.6 210.8h84.1" fill="none"/></g><g id="kropki"><path class="st40" d="M438.8 339.4h-36.3l-90.8 90.8H348z"/><path d="M214.6 210.8c0 1.1-.9 2-2 2s-2-.9-2-2 .9-2 2-2 2 .9 2 2zm84.1 0c0 1.1-.9 2-2 2s-2-.9-2-2 .9-2 2-2 2 .9 2 2zm-105.1 105c0 1.1-.9 2-2 2s-2-.9-2-2 .9-2 2-2c1.1.1 2 1 2 2zm84.1 0c0 1.1-.9 2-2 2s-2-.9-2-2 .9-2 2-2c1.1.1 2 1 2 2zm0 84.1c0 1.1-.9 2-2 2s-2-.9-2-2 .9-2 2-2 2 .9 2 2zm-126.1-42c0 1.1-.9 2-2 2s-2-.9-2-2 .9-2 2-2 2 .9 2 2zm84 0c0 1.1-.9 2-2 2s-2-.9-2-2 .9-2 2-2 2 .9 2 2zm-84 84c0 1.1-.9 2-2 2s-2-.9-2-2 .9-2 2-2c1.1.1 2 1 2 2zm84 0c0 1.1-.9 2-2 2s-2-.9-2-2 .9-2 2-2c1.1.1 2 1 2 2zm105.1-105c0 1.1-.9 2-2 2s-2-.9-2-2 .9-2 2-2 2 .9 2 2zm-42 42c0 1.1-.9 2-2 2s-2-.9-2-2 .9-2 2-2 2 .9 2 2zm105-105.1c0 1.1-.9 2-2 2s-2-.9-2-2 .9-2 2-2c1.2.1 2 .9 2 2zm-42 42c0 1.1-.9 2-2 2s-2-.9-2-2 .9-2 2-2c1.1.1 2 1 2 2zm-84-252.1c0 1.1-.9 2-2 2s-2-.9-2-2 .9-2 2-2 2 .9 2 2zm84 0c0 1.1-.9 2-2 2s-2-.9-2-2 .9-2 2-2 2 .9 2 2zm-42-42.1c0 1.1-.9 2-2 2s-2-.9-2-2 .9-2 2-2c1.1.1 2 1 2 2zm84 0c0 1.1-.9 2-2 2s-2-.9-2-2 .9-2 2-2c1.2.1 2 1 2 2zM256.6 168.7c0 1.1-.9 2-2 2s-2-.9-2-2 .9-2 2-2c1.2.1 2 1 2 2zm84.1 0c0 1.1-.9 2-2 2s-2-.9-2-2 .9-2 2-2c1.1.1 2 1 2 2z" fill="#fff"/></g></svg>