<svg xmlns="http://www.w3.org/2000/svg" xmlns:xlink="http://www.w3.org/1999/xlink" width="360" height="210" viewBox="0 0 360 210"><path fill="#F2F2F2" stroke="#595A5C" stroke-width=".5" stroke-miterlimit="10" d="M124.972 205.335a3.157 3.157 0 1 1 0-6.314 3.157 3.157 0 0 1 0 6.314"/><path fill="#F2F2F2" stroke="#595A5C" stroke-width=".5" stroke-miterlimit="10" d="M124.972 204.434a2.255 2.255 0 1 1 .002-4.51 2.255 2.255 0 0 1-.002 4.51"/><path fill="#F2F2F2" stroke="#595A5C" stroke-width=".5" stroke-miterlimit="10" d="M123.118 198.621l1.443 3.608h.722l1.443-3.608zM88.849 182.389l32.465-3.608h7.214l32.465 3.608v2.706H88.849z"/><circle fill="#F2F2F2" stroke="#595A5C" stroke-width=".5" stroke-miterlimit="10" cx="92.006" cy="189.152" r="3.156"/><circle fill="#F2F2F2" stroke="#595A5C" stroke-width=".5" stroke-miterlimit="10" cx="92.006" cy="189.152" r="2.255"/><circle fill="#F2F2F2" stroke="#595A5C" stroke-width=".5" stroke-miterlimit="10" cx="157.837" cy="189.152" r="3.156"/><circle fill="#F2F2F2" stroke="#595A5C" stroke-width=".5" stroke-miterlimit="10" cx="157.837" cy="189.152" r="2.255"/><path fill="#F2F2F2" stroke="#595A5C" stroke-width=".5" stroke-miterlimit="10" d="M121.314 178.781l1.804 21.644h3.608l1.802-21.644z"/><g fill="#F2F2F2" stroke="#595A5C" stroke-width=".5" stroke-miterlimit="10"><path d="M122.409 157.645v21.822c0 .694 1.125 1.258 2.513 1.258 1.387 0 2.514-.563 2.514-1.258v-21.822h-5.027z"/><ellipse cx="124.922" cy="157.645" rx="2.513" ry="1.256"/><path d="M123.037 147.275v10.053c0 .521.843.943 1.885.943 1.04 0 1.885-.422 1.885-.943v-10.053h-3.77z"/><ellipse cx="124.922" cy="147.275" rx="1.885" ry=".942"/></g><path fill="#F2F2F2" stroke="#595A5C" stroke-width=".5" stroke-miterlimit="10" d="M89.751 185.095l1.804 4.509h.902l1.804-4.509zM155.582 185.095l1.804 4.509h.901l1.804-4.509z"/><path fill="#D1D2D3" stroke="#595A5C" stroke-width=".5" stroke-miterlimit="10" d="M213.044 183.018l7.336 3.668 7.336-66.02h-7.336zM271.729 157.343l-7.335-3.667-7.336-51.349h7.336z"/><path fill="#F2F2F2" stroke="#595A5C" stroke-width=".5" stroke-miterlimit="10" d="M154.685 157.682l.679 5.162.883 3.532h5.774l17.116-10.188-1.495-3.667-14.943-1.223z"/><path fill="#F2F2F2" stroke="#595A5C" stroke-width=".5" stroke-miterlimit="10" d="M131.591 119.375c.408.271 23.772-4.482 23.772-4.482l10.053 36.271-6.25 8.692-5.84-1.222-7.607-26.354-18.746 3.804 4.618-16.709z"/><g fill="#F2F2F2" stroke="#595A5C" stroke-width=".5" stroke-miterlimit="10"><path d="M97.716 154.953l27.299 13.649 27.3-13.649-27.3-13.652z"/><path d="M97.716 154.953v3.411l27.299 13.652v-3.414zM125.015 172.016l27.3-13.652v-3.411l-27.3 13.649z"/><g><path d="M94.682 152.107l30.333 15.166 30.334-15.166-30.334-15.166z"/><path d="M94.682 152.107v3.791l30.333 15.168v-3.793z"/><path d="M125.015 171.066l30.334-15.168v-3.791l-30.334 15.166z"/></g></g><path fill="#D1D2D3" stroke="#595A5C" stroke-width=".5" stroke-miterlimit="10" d="M209.376 128.001v7.336l58.685-29.342V98.66zM99.342 72.985v7.335l110.034 55.017v-7.336z"/><path fill="#F2F2F2" stroke="#595A5C" stroke-width=".5" stroke-miterlimit="10" d="M95.673 69.317l117.371 58.684 58.685-29.341-117.372-58.684z"/><path fill="#D1D2D3" stroke="#595A5C" stroke-width=".5" stroke-miterlimit="10" d="M95.673 69.317v3.668l117.371 58.684v-3.668z"/><path fill="#F2F2F2" stroke="#595A5C" stroke-width=".5" stroke-miterlimit="10" d="M208.153 97.883l-6.537-3.27a1.093 1.093 0 0 0-.975 0l-13.079 6.539a1.09 1.09 0 0 0 0 1.95l6.538 3.27a1.097 1.097 0 0 0 .975 0l13.076-6.54a1.089 1.089 0 0 0 .002-1.949z"/><path fill="#D1D2D3" stroke="#595A5C" stroke-width=".5" stroke-miterlimit="10" d="M271.729 98.66v3.667l-58.685 29.342v-3.668z"/><g stroke="#595A5C" stroke-width=".5" stroke-miterlimit="10"><path fill="#F2F2F2" d="M147.021 79.099l29.344 14.67 14.671-7.335-29.343-14.672z"/><path fill="#F2F2F2" d="M150.691 79.099l25.674 12.836 11.004-5.501-25.676-12.838zM147.021 79.099v1.221l29.344 14.671v-1.222zM176.365 93.769v1.222l14.671-7.335v-1.222z"/><path fill="none" d="M154.357 77.264l25.674 12.837M158.026 75.431L183.7 88.268"/></g><path fill="#F2F2F2" stroke="#595A5C" stroke-width=".5" stroke-miterlimit="10" d="M182.466 97.029l4.142-2.648h13.45l2.852 5.025-13.999 5.502h-6.445zM171.925 161.198v3.82l.827 4.753 5.569 1.223 10.868-6.385 10.869-5.772.406-6.588-4.21-2.241-16.439 2.103z"/><path fill="#D1D2D3" stroke="#595A5C" stroke-width=".5" stroke-miterlimit="10" d="M107.819 73.731s-4.674.544-4.81.951c-.135.408-8.367 7.607-8.367 7.607l-5.434 28.527 4.891 5.567 13.721-5.299-.001-37.353z"/><path fill="#F2F2F2" stroke="#595A5C" stroke-width=".5" stroke-miterlimit="10" d="M138.791 130.175l33.146-9.509 8.094 1.833 6.577 33.146-8.83 7.199-8.695-2.446-1.901-19.017-24.994 15.486-16.301 2.446z"/><path fill="#D1D2D3" stroke="#595A5C" stroke-width=".5" stroke-miterlimit="10" d="M181.175 95.739l-22.008 7.335-18.338-11.004-11.004-11.003-22.006-7.336-11.004 11.004-1.142 33.01-2.526 22.006 11.003 14.672 22.008 7.335 14.671-33.01v-13.204l11.003 2.201 33.01-11.004v-7.336z"/><path fill="#F2F2F2" stroke="#595A5C" stroke-width=".5" stroke-miterlimit="10" d="M114.21 79.022l-4.761-19.69 3.803-9.915 17.524-5.027 6.384 6.384v9.374l.951 4.075-1.901 2.038-2.173 8.557-4.891.679-1.765 6.793-9.373-.68z"/><path fill="#D1D2D3" stroke="#595A5C" stroke-width=".5" stroke-miterlimit="10" d="M126.836 63.34l3.125-2.649.544 5.434 2.174-.68.815-7.607 1.493-4.347v2.717l2.173-5.434-6.384-6.384-17.524 5.027-3.803 9.915 3.482 14.399 4.057 3.057 6.317-2.105z"/><g stroke="#595A5C" stroke-width=".5" stroke-miterlimit="10"><g fill="#F2F2F2"><path d="M184.142 65.962l-7.484 3.741 22.446 11.223 7.484-3.741z"/><path d="M176.658 69.703v.935l22.446 11.224v-.936zM199.104 80.926v.936l7.484-3.741v-.936z"/></g><path fill="#F2F2F2" d="M186.635 70.638l9.975 4.988V59.415l-9.975-4.988zM196.61 59.415l2.494-1.247v16.211l-2.494 1.247z"/><path fill="#F2F2F2" d="M161.693 4.546v44.892l59.861 29.929V34.474z"/><path fill="#F2F2F2" d="M161.693 4.546l2.494-1.248 59.861 29.929-2.494 1.247z"/><path fill="#F2F2F2" d="M221.554 34.474v44.893l2.494-1.246V33.227z"/><path fill="#26A5D4" d="M162.94 7.039v41.152l57.366 28.682V35.721z"/></g><path fill="#F2F2F2" stroke="#595A5C" stroke-width=".5" stroke-miterlimit="10" d="M110.344 164.68c-2.592-2.595-5.186-15.562-2.592-20.748 2.592-5.188 2.592-18.154 2.592-18.154l-5.186-2.594s0 12.969-2.594 18.154c-2.594 5.188 0 18.154 2.594 20.747l5.186 2.595zM113.524 73.731l-.95 4.756 7.471 2.444 11.411-.678 2.581 5.026h-14.671l-8.422-4.755z"/><g stroke="#595A5C" stroke-width=".5" stroke-miterlimit="10"><path fill="#F2F2F2" d="M222.414 99.418s-.62-.311-1.242 0l-16.146 8.073s-.622.311 0 .62l8.694 4.348s.62.311 1.241 0l16.146-8.073s.621-.31 0-.621l-8.693-4.347z"/><path fill="#F2F2F2" d="M222.414 98.797s-.62-.311-1.242 0l-16.146 8.073s-.622.312 0 .621l8.694 4.348s.62.31 1.241 0l16.146-8.074s.621-.31 0-.621l-8.693-4.347z"/><path fill="#26A5D4" d="M216.204 111.217l-9.936-4.968 14.284-7.141 9.934 4.968z"/></g><path fill="#F2F2F2" stroke="#595A5C" stroke-width=".5" stroke-miterlimit="10" d="M92.006 98.66s6.877 13.754 36.678 18.338v18.339s-20.631-2.293-36.678-18.339V98.66zM255.328 96.675l-4.804.761v-1.334l4.804-.761c.825-.131.929-.805.935-1.088v-6.397c0-.825-.658-.824-.941-.785l-4.796.759v-1.334l4.804-.761c.91-.145 2.268.245 2.268 1.91v6.403c-.002.911-.606 2.364-2.27 2.627z"/><path fill="#F2F2F2" stroke="#595A5C" stroke-width=".5" stroke-miterlimit="10" d="M239.985 85.429v12.808c0 1.768 2.867 3.202 6.405 3.202 3.536 0 6.402-1.434 6.402-3.202V85.429h-12.807z"/><ellipse fill="#F2F2F2" stroke="#595A5C" stroke-width=".5" stroke-miterlimit="10" cx="246.389" cy="85.429" rx="6.404" ry="3.201"/><ellipse fill="#F2F2F2" stroke="#595A5C" stroke-width=".5" stroke-miterlimit="10" cx="246.39" cy="85.429" rx="5.604" ry="2.801"/><defs><ellipse id="a" cx="246.39" cy="85.429" rx="5.604" ry="2.801"/></defs><clipPath id="b"><use xlink:href="#a" overflow="visible"/></clipPath><ellipse clip-path="url(#b)" fill="#6E6F71" stroke="#595A5C" stroke-width=".5" stroke-miterlimit="10" cx="246.39" cy="87.429" rx="5.604" ry="2.803"/><g stroke="#595A5C" stroke-width=".5" stroke-miterlimit="10"><path fill="#F2F2F2" d="M148.454 53.943l8.43 4.215v4.217l-8.43-4.217z"/><path fill="#F2F2F2" d="M148.454 53.943l8.43-4.217 8.433 4.217-8.433 4.215z"/><path fill="#F2F2F2" d="M156.884 58.158v4.217l8.433-4.217v-4.215z"/><path fill="none" d="M148.454 54.47l8.43 4.216M148.454 54.996l8.43 4.216M148.454 55.523l8.43 4.216M148.454 56.05l8.43 4.216M148.454 56.577l8.43 4.216M148.454 57.105l8.43 4.215M148.454 57.632l8.43 4.215M156.884 58.686l8.433-4.216M165.317 54.996l-8.433 4.216M156.884 59.739l8.433-4.216M165.317 56.05l-8.433 4.216M156.884 60.793l8.433-4.216M165.317 57.105l-8.433 4.215M156.884 61.847l8.433-4.215"/><path fill="#F2F2F2" d="M165.317 53.943l-8.433-4.217s-6.85 2.635-8.958 1.582l7.905 4.216c0-.001 3.689 1.581 9.486-1.581z"/></g></svg>