<svg xmlns="http://www.w3.org/2000/svg" viewBox="-1077.3 426.3 186.4 186.4"><g stroke="#13BEBB" stroke-width="4.252" stroke-miterlimit="10" fill="none"><path stroke-linecap="round" stroke-linejoin="round" d="M-1051.1 473.8l11-4.4v-14.7l-14.8 9.8zm55.2 0l-10.9-4.4v-14.7l14.7 9.8zm-17.8-19c-2 3.3-5.6 5.5-9.7 5.5s-7.7-2.2-9.7-5.5h-7V511h33.3v-56.2h-6.9z"/><path d="M-1034.5 454.8c.9 5.3 5.5 9.2 11.1 9.2 5.5 0 10.1-4 11.1-9.2"/><path stroke-linecap="round" stroke-linejoin="round" d="M-972.4 473.8l10.9-4.4v-14.7l-14.7 9.8zm55.2 0l-11-4.4v-14.7l14.8 9.8zm-17.9-19c-2 3.3-5.6 5.5-9.7 5.5s-7.7-2.2-9.7-5.5h-7V511h33.3v-56.2h-6.9z"/><path d="M-955.8 454.8c.9 5.3 5.5 9.2 11.1 9.2 5.5 0 10.1-4 11.1-9.2"/><path stroke-linecap="round" stroke-linejoin="round" d="M-1051.1 547.2l11-4.4V528l-14.8 9.9zm55.2 0l-10.9-4.4V528l14.7 9.9zm-17.8-19.1c-2 3.3-5.6 5.5-9.7 5.5s-7.7-2.2-9.7-5.5h-7v56.2h33.3v-56.2h-6.9z"/><path d="M-1034.5 528.1c.9 5.3 5.5 9.2 11.1 9.2 5.5 0 10.1-4 11.1-9.2"/><path stroke-linecap="round" stroke-linejoin="round" d="M-972.4 547.2l10.9-4.4V528l-14.7 9.9zm55.2 0l-11-4.4V528l14.8 9.9zm-17.9-19.1c-2 3.3-5.6 5.5-9.7 5.5s-7.7-2.2-9.7-5.5h-7v56.2h33.3v-56.2h-6.9z"/><path d="M-955.8 528.1c.9 5.3 5.5 9.2 11.1 9.2 5.5 0 10.1-4 11.1-9.2"/></g></svg>