<svg xmlns="http://www.w3.org/2000/svg" width="348.4" height="50.302" viewBox="0 0 348.4 50.302"><path fill="#FFF" d="M328.713 33.252l-3.392-4.05c-.094-.189-.188-.378-.188-.565v-6.218l.659-.659c.094-.095.188-.283.188-.376v-1.602c0-.283-.283-.565-.564-.565h-4.898c-.283 0-.565.283-.565.565v1.602c0 .094.094.283.094.376l.565.659v6.312c0 .189-.094.377-.188.565l-3.297 4.05c-.094.189-.188.377-.188.565v4.803c0 .471.377.848.848.848h10.269a.846.846 0 0 0 .848-.848v-4.803c-.001-.376-.097-.565-.191-.659zm-4.616-13.47c0-.188.096-.377.189-.377h.849c.094 0 .188.189.188.377v.754c0 .188-.094.377-.188.377l-.849-.283c-.094 0-.189-.189-.189-.377v-.471zm3.768 17.333c0 .377-.282.753-.563.941-.095.471-.283.848-.66.848h-.754c.283-.188.378-.377.378-.753h-7.159a1.047 1.047 0 0 1-1.037-1.036v-3.392h8.102c0-.282-.094-.564-.188-.848l-1.318-3.391a4.054 4.054 0 0 1-.188-1.13v-5.37c0-.565 0-.754.377-.942h.094-3.957c-.094 0-.094 0-.094-.095l-.377-.376c-.094-.094 0-.283.094-.283h4.806c.188 0 .188.189.094.283l-.377.376-.378.565v5.84c0 .471.095.848.282 1.225l2.168 3.485c.095.189.188.377.188.66h.564v3.391l-.097.002zm-5.746-6.029c.188 0 .472.188.472.47v.942c0 .188-.189.47-.472.47h-.941c-.189 0-.472-.188-.472-.47v-.942c0-.189.189-.47.472-.47h.941zm-.47-3.297v-.471c0-.094.095-.188.188-.188h.471c.095 0 .188.094.188.188v.471c0 .094-.094.189-.188.189h-.471c-.094 0-.188-.095-.188-.189zm1.413 1.224h.754c.188 0 .281.094.281.283v.753c0 .189-.094.283-.281.283h-.754c-.189 0-.283-.094-.283-.283v-.753c0-.093.189-.283.283-.283zm0-4.332v-.378c0-.094.094-.188.188-.188h.378c.093 0 .188.094.188.188v.378c0 .094-.095.188-.188.188h-.378c-.094-.095-.188-.095-.188-.188zM323.438 13.376h-1.318s-.282 0-.471-.189l-.471-.471c-.188-.188-.188-.471-.188-.471v-1.319a.643.643 0 0 0-.659-.659h-1.413a.642.642 0 0 0-.658.659v1.413c0 .377.282.66.658.66h1.319s.282 0 .565.188l.47.471c.188.188.188.565.188.565v1.318c0 .377.283.659.659.659h1.414a.643.643 0 0 0 .658-.659v-1.413c-.094-.469-.375-.752-.753-.752zM311.664 12.906h1.317s.283 0 .471.188l.472.47c.188.189.188.471.188.471v1.318c0 .377.283.659.66.659h1.412a.643.643 0 0 0 .659-.659V13.94a.644.644 0 0 0-.659-.659h-1.317s-.283 0-.565-.188l-.471-.471c-.188-.188-.188-.564-.188-.564v-1.319a.645.645 0 0 0-.66-.66h-1.412a.643.643 0 0 0-.659.66v1.413c.093.471.374.754.752.754z"/><path fill="#FFF" d="M317.786 14.318v1.319s0 .283-.188.471l-.472.471c-.188.188-.47.188-.47.188h-1.32a.644.644 0 0 0-.659.659v1.413c0 .377.283.659.659.659h1.414a.644.644 0 0 0 .659-.659v-1.318s0-.283.188-.565l.47-.471c.189-.188.565-.188.565-.188h1.318a.644.644 0 0 0 .659-.66v-1.413a.644.644 0 0 0-.659-.66h-1.412c-.469.189-.752.472-.752.754z"/><g><path fill="#FFF" d="M278.505 10.739h3.391v.659h-1.412v5.464h-.659v-5.464h-1.414v-.659h.094zM282.65 16.861v-6.123h.659v.753h.66v.753h-.66v4.616h-.659zm1.413-3.202v-1.413h.66v1.413h.659v.753h-.659v-.753h-.66zm1.319 0v-1.413h.659v1.413h-.659zm1.413 3.202v-4.616h-.659v-.753h.659v-.753h.659v6.123h-.659zM193.444 17.05H177.241v16.203h3.77V20.818h3.768v12.435h3.769V20.818h3.768v12.435h3.768V19.499h-2.543V17.05h-.097zm13.753 0v2.449h-2.543v13.753h3.769V20.818h4.333v-3.769l-5.559.001zm-8.761 16.202h3.769V17.05h-3.769v16.202zM247.702 17.05h-16.203v16.202h3.674V20.818h3.769v12.434h3.767V20.818h3.769v12.434h3.674V19.499h-2.45zM262.585 17.05h-7.44v2.544h-2.449v11.209h2.449v2.449h9.702v-3.769h-8.478v-2.449h8.667v-7.536h-2.545V17.05h.094zm-6.123 3.674h4.898v2.544h-4.898v-2.544zM277.564 17.05h-7.442v2.544h-2.449v11.209h2.449v2.449h9.703v-3.769h-8.478v-2.449h8.665v-7.536h-2.543V17.05h.095zm-6.217 3.674h4.897v2.544h-4.897v-2.544zM198.436 10.739h3.769v3.769h-3.769z"/><g><path fill="#FFF" d="M225.189 29.673h-6.218V17.05h-3.673v13.753h2.449v2.449h11.209V17.05h-3.767z"/></g></g><g><path fill="#FFF" d="M300.171 0H156.706v50.302H348.4V0h-48.229zm-2.261 47.947H159.06V2.261h138.85v45.686zm48.135 0h-45.874V2.261h45.874v45.686z"/></g><g fill="#FFF"><path d="M16.91 29.509c.153 0 .292.063.417.187l1.091 1.191a8.797 8.797 0 0 1-3.065 2.283c-1.202.546-2.649.818-4.343.818-1.484 0-2.828-.256-4.034-.768a8.837 8.837 0 0 1-3.087-2.153c-.852-.924-1.513-2.032-1.981-3.324-.469-1.292-.704-2.713-.704-4.264s.251-2.972.754-4.264 1.208-2.402 2.118-3.331c.909-.928 1.998-1.648 3.266-2.161 1.269-.512 2.668-.768 4.2-.768 1.512 0 2.816.235 3.913.704a9.884 9.884 0 0 1 2.921 1.909l-.904 1.278a.98.98 0 0 1-.23.237c-.086.062-.21.093-.373.093a.719.719 0 0 1-.395-.137 18.898 18.898 0 0 1-.495-.337 11.415 11.415 0 0 0-.675-.431 6.01 6.01 0 0 0-.919-.431 7.6 7.6 0 0 0-1.235-.337 8.591 8.591 0 0 0-1.622-.136c-1.101 0-2.108.189-3.022.567a6.782 6.782 0 0 0-2.362 1.615c-.66.699-1.175 1.551-1.543 2.556s-.553 2.13-.553 3.374c0 1.283.184 2.426.553 3.431.369 1.005.871 1.855 1.508 2.549a6.34 6.34 0 0 0 2.261 1.586 7.223 7.223 0 0 0 2.814.545c.612 0 1.163-.036 1.651-.107a6.89 6.89 0 0 0 1.357-.337c.417-.153.804-.347 1.163-.582s.72-.515 1.084-.84c.16-.142.318-.215.471-.215zM21.677 33.759V19.215h1.464c.277 0 .469.053.574.158.105.105.177.288.215.546l.172 2.269c.498-1.015 1.113-1.807 1.845-2.376s1.591-.854 2.577-.854c.402 0 .766.045 1.091.136.325.091.627.218.905.38l-.331 1.91c-.067.239-.215.359-.445.359-.134 0-.34-.045-.618-.136-.277-.091-.665-.137-1.163-.137-.89 0-1.635.259-2.232.775-.599.517-1.099 1.269-1.5 2.254v9.26h-2.554zM43.385 33.759H42.25c-.249 0-.45-.038-.603-.115-.153-.077-.253-.239-.301-.488l-.287-1.35c-.383.345-.756.653-1.12.926-.364.272-.747.502-1.148.689s-.831.328-1.285.423c-.455.096-.96.144-1.515.144-.564 0-1.093-.079-1.586-.237s-.921-.396-1.285-.713a3.401 3.401 0 0 1-.869-1.203c-.215-.485-.323-1.059-.323-1.721 0-.576.158-1.131.474-1.664.316-.533.826-1.006 1.529-1.419s1.625-.751 2.764-1.016c1.139-.264 2.532-.396 4.178-.396v-1.142c0-1.136-.242-1.996-.725-2.579-.483-.583-1.199-.874-2.146-.874-.623 0-1.146.079-1.572.237s-.794.335-1.105.531-.579.373-.804.531c-.225.158-.448.237-.668.237-.172 0-.323-.045-.452-.136s-.232-.204-.309-.337l-.459-.818c.804-.775 1.67-1.354 2.599-1.737.928-.383 1.958-.574 3.087-.574.813 0 1.536.134 2.168.402s1.163.642 1.594 1.12c.431.479.756 1.058.976 1.737.22.68.33 1.426.33 2.24v9.302zm-6.633-1.565a4.851 4.851 0 0 0 2.29-.524c.33-.167.646-.371.947-.61.302-.239.596-.512.883-.818v-3c-1.177 0-2.178.075-3.001.224-.823.149-1.493.344-2.01.585-.517.241-.893.525-1.127.852A1.838 1.838 0 0 0 34.382 30c0 .385.062.718.187.997s.292.508.503.686c.21.178.459.308.747.39.287.08.597.121.933.121zM47.835 33.759V21.397l-1.608-.187a1.283 1.283 0 0 1-.496-.223c-.129-.1-.194-.246-.194-.438v-1.048h2.297v-1.407c0-.833.117-1.572.352-2.218a4.511 4.511 0 0 1 1.005-1.637 4.251 4.251 0 0 1 1.572-1.012c.613-.23 1.302-.345 2.068-.345.65 0 1.253.096 1.809.287l-.057 1.278c-.01.191-.091.307-.244.345a2.83 2.83 0 0 1-.646.057h-.445c-.44 0-.84.058-1.199.172s-.667.302-.926.56c-.259.258-.458.598-.596 1.02-.139.421-.208.943-.208 1.565v1.335h4.207v1.852h-4.121v12.405h-2.57zM61.345 33.989c-1.148 0-2.032-.32-2.649-.962-.617-.641-.926-1.565-.926-2.771v-8.901h-1.751c-.153 0-.282-.045-.388-.136s-.158-.232-.158-.424v-1.019l2.383-.302.588-4.494a.544.544 0 0 1 .187-.352.592.592 0 0 1 .402-.137h1.292v5.011h4.164v1.852h-4.164v8.729c0 .612.148 1.067.445 1.364.296.297.679.445 1.148.445.268 0 .5-.036.696-.108s.366-.151.51-.237c.144-.086.266-.165.366-.237s.189-.108.266-.108c.134 0 .253.082.359.244l.747 1.22c-.44.412-.972.735-1.594.969s-1.263.354-1.923.354zM73.405 18.986a6.49 6.49 0 0 1 2.412.438c.737.292 1.373.713 1.909 1.264s.955 1.23 1.256 2.039c.302.809.452 1.73.452 2.764 0 .402-.043.67-.129.804-.086.134-.249.201-.488.201H69.14c.019.919.144 1.718.373 2.397.23.68.546 1.247.948 1.701.402.455.88.795 1.436 1.02.555.225 1.178.337 1.867.337.641 0 1.194-.074 1.658-.223.464-.148.864-.309 1.199-.481s.615-.333.84-.481c.225-.148.419-.222.582-.222.21 0 .374.081.488.244l.718.934a4.874 4.874 0 0 1-1.134.998c-.44.283-.912.515-1.414.696a8.966 8.966 0 0 1-1.558.409 9.507 9.507 0 0 1-1.594.137c-1.005 0-1.931-.17-2.778-.51a6.103 6.103 0 0 1-2.197-1.493c-.617-.656-1.098-1.467-1.443-2.434-.344-.967-.517-2.077-.517-3.331 0-1.014.155-1.962.466-2.843a6.703 6.703 0 0 1 1.343-2.29 6.166 6.166 0 0 1 2.139-1.521c.843-.37 1.79-.554 2.843-.554zm.057 1.88c-1.234 0-2.206.357-2.914 1.07-.708.713-1.149 1.701-1.321 2.965h7.911a5.19 5.19 0 0 0-.244-1.629c-.163-.493-.402-.919-.718-1.278s-.701-.637-1.156-.833c-.455-.196-.974-.295-1.558-.295zM92.93 33.759c-.364 0-.594-.177-.689-.531l-.229-1.766a7.648 7.648 0 0 1-2.132 1.816c-.799.455-1.716.682-2.75.682-.833 0-1.589-.161-2.269-.481a4.693 4.693 0 0 1-1.737-1.415c-.479-.622-.847-1.397-1.105-2.326-.258-.928-.388-1.996-.388-3.202 0-1.072.144-2.07.431-2.994.287-.923.701-1.725 1.242-2.405a5.825 5.825 0 0 1 1.974-1.601c.775-.388 1.656-.582 2.642-.582.89 0 1.651.15 2.283.452a5.46 5.46 0 0 1 1.694 1.271v-8.069h2.556v21.148H92.93zm-4.953-1.866c.833 0 1.562-.191 2.189-.575.626-.382 1.203-.923 1.73-1.622v-7.035c-.469-.632-.983-1.074-1.543-1.328a4.465 4.465 0 0 0-1.859-.38c-1.359 0-2.402.483-3.13 1.45s-1.091 2.345-1.091 4.135c0 .948.082 1.759.244 2.434s.402 1.23.718 1.666c.316.436.704.753 1.163.955s.986.3 1.579.3zM104.372 33.759V12.611h2.57v8.701a7.425 7.425 0 0 1 2.074-1.687c.78-.426 1.673-.639 2.678-.639.842 0 1.603.158 2.283.474s1.259.787 1.737 1.414.847 1.402 1.105 2.326c.259.923.388 1.988.388 3.194 0 1.072-.144 2.07-.431 2.994s-.701 1.723-1.242 2.397c-.541.675-1.201 1.206-1.981 1.594s-1.658.582-2.635.582c-.938 0-1.735-.182-2.39-.546a5.432 5.432 0 0 1-1.716-1.521l-.129 1.321c-.077.364-.296.545-.66.545h-1.651zm6.49-12.735c-.833 0-1.563.191-2.189.574-.627.383-1.204.924-1.73 1.623v7.035c.459.632.969 1.077 1.529 1.335s1.185.388 1.874.388c1.359 0 2.402-.483 3.13-1.45s1.091-2.345 1.091-4.135c0-.948-.084-1.761-.251-2.441-.167-.679-.409-1.237-.725-1.672a2.822 2.822 0 0 0-1.163-.955c-.46-.201-.982-.302-1.566-.302zM124.229 38.052a1.342 1.342 0 0 1-.323.459c-.129.115-.328.172-.596.172h-1.895l2.656-5.771-6.001-13.697h2.211c.22 0 .392.055.517.165.125.11.215.232.273.366l3.891 9.16c.086.21.16.421.223.631.062.211.117.426.165.646.067-.22.134-.435.201-.646.067-.21.144-.426.229-.646l3.776-9.146c.057-.153.155-.28.294-.38s.29-.151.453-.151h2.039l-8.113 18.838z"/></g></svg>