<svg xmlns="http://www.w3.org/2000/svg" viewBox="0 0 500 500"><style></style><g id="kropki"><path d="M210.7 402.6h-53.6l-38.2 38.2h53.5z" fill="#412578"/><linearGradient id="SVGID_1_" gradientUnits="userSpaceOnUse" x1="282.807" y1="492.438" x2="378.341" y2="278.97"><stop offset="0" stop-color="#412578"/><stop offset="1" stop-color="#1989BE"/></linearGradient><path fill="url(#SVGID_1_)" stroke="#91DBED" stroke-width=".75" stroke-linecap="round" stroke-linejoin="round" stroke-miterlimit="10" d="M236.2 447.6L380 303.8h53.9L290.1 447.6z"/><linearGradient id="SVGID_2_" gradientUnits="userSpaceOnUse" x1="369.158" y1="316.342" x2="438.225" y2="162.013"><stop offset="0" stop-color="#412578"/><stop offset="1" stop-color="#1989BE"/></linearGradient><path fill="url(#SVGID_2_)" stroke="#91DBED" stroke-width=".75" stroke-linecap="round" stroke-linejoin="round" stroke-miterlimit="10" d="M380 160.1h53.9v143.8H380z"/><linearGradient id="SVGID_3_" gradientUnits="userSpaceOnUse" x1="282.843" y1="480.71" x2="427.593" y2="157.269"><stop offset="0" stop-color="#412578"/><stop offset="1" stop-color="#1989BE"/></linearGradient><path opacity=".8" fill="url(#SVGID_3_)" stroke="#91DBED" stroke-width=".75" stroke-linecap="round" stroke-linejoin="round" stroke-miterlimit="10" d="M433.9 303.8L290.1 447.6V303.8l143.8-143.7z"/><linearGradient id="SVGID_4_" gradientUnits="userSpaceOnUse" x1="141.841" y1="319.313" x2="298.571" y2="248.435"><stop offset=".163" stop-color="#412578"/><stop offset=".7" stop-color="#1989BE"/><stop offset="1" stop-color="#4CC3F2"/></linearGradient><path opacity=".8" fill="url(#SVGID_4_)" stroke="#91DBED" stroke-width=".75" stroke-linecap="round" stroke-linejoin="round" stroke-miterlimit="10" d="M290.1 303.8h-53.9L380 160.1h53.9z"/><linearGradient id="SVGID_5_" gradientUnits="userSpaceOnUse" x1="273.042" y1="364.227" x2="162.233" y2="493.006"><stop offset="0" stop-color="#412578"/><stop offset="1" stop-color="#1989BE"/></linearGradient><path opacity=".8" fill="url(#SVGID_5_)" stroke="#91DBED" stroke-width=".75" stroke-linecap="round" stroke-linejoin="round" stroke-miterlimit="10" d="M236.2 303.8h53.9v143.8h-53.9z"/><linearGradient id="SVGID_6_" gradientUnits="userSpaceOnUse" x1="-186.61" y1="314.512" x2="236.059" y2="355.234"><stop offset="0" stop-color="#412578"/><stop offset="1" stop-color="#1989BE"/></linearGradient><path fill="url(#SVGID_6_)" stroke="#91DBED" stroke-width=".75" stroke-linecap="round" stroke-linejoin="round" stroke-miterlimit="10" d="M64.9 375.2l53.9-53.9h143.7l-53.9 53.9z"/><linearGradient id="SVGID_7_" gradientUnits="userSpaceOnUse" x1="-96.199" y1="221.797" x2="249.907" y2="255.143"><stop offset="0" stop-color="#412578"/><stop offset="1" stop-color="#1989BE"/></linearGradient><path fill="url(#SVGID_7_)" stroke="#91DBED" stroke-width=".75" stroke-linecap="round" stroke-linejoin="round" stroke-miterlimit="10" d="M118.8 177.6h143.8v143.8H118.8z"/><linearGradient id="SVGID_8_" gradientUnits="userSpaceOnUse" x1="175.376" y1="262.099" x2="-59.217" y2="512.664"><stop offset="0" stop-color="#412578"/><stop offset="1" stop-color="#1989BE"/></linearGradient><path opacity=".8" fill="url(#SVGID_8_)" stroke="#91DBED" stroke-width=".75" stroke-linecap="round" stroke-linejoin="round" stroke-miterlimit="10" d="M64.9 231.5h143.8v143.8H64.9z"/><linearGradient id="SVGID_9_" gradientUnits="userSpaceOnUse" x1="38.764" y1="331.018" x2="283.34" y2="263.136"><stop offset="0" stop-color="#412578"/><stop offset="1" stop-color="#1989BE"/></linearGradient><path opacity=".8" fill="url(#SVGID_9_)" stroke="#91DBED" stroke-width=".75" stroke-linecap="round" stroke-linejoin="round" stroke-miterlimit="10" d="M208.6 375.2l53.9-53.9V177.6l-53.9 53.9z"/><linearGradient id="SVGID_10_" gradientUnits="userSpaceOnUse" x1="-92.697" y1="341.021" x2="184.823" y2="193.276"><stop offset="0" stop-color="#412578"/><stop offset=".887" stop-color="#1989BE"/><stop offset="1" stop-color="#4CC3F2"/></linearGradient><path opacity=".8" fill="url(#SVGID_10_)" stroke="#91DBED" stroke-width=".75" stroke-linecap="round" stroke-linejoin="round" stroke-miterlimit="10" d="M64.9 231.5l53.9-53.9h143.7l-53.9 53.9z"/><linearGradient id="SVGID_11_" gradientUnits="userSpaceOnUse" x1="263.597" y1="246.17" x2="319.635" y2="120.954"><stop offset="0" stop-color="#412578"/><stop offset="1" stop-color="#1989BE"/></linearGradient><path d="M222.4 213.6l71.8-71.9h71.9l-71.9 71.9z" fill="url(#SVGID_11_)" stroke="#91dbed" stroke-width=".75" stroke-linecap="round" stroke-linejoin="round" stroke-miterlimit="10"/><linearGradient id="SVGID_12_" gradientUnits="userSpaceOnUse" x1="298.686" y1="158.222" x2="356.275" y2="29.539"><stop offset="0" stop-color="#412578"/><stop offset="1" stop-color="#1989BE"/></linearGradient><path d="M294.2 33.9h71.9v107.8h-71.9z" fill="url(#SVGID_12_)" stroke="#91dbed" stroke-width=".75" stroke-linecap="round" stroke-linejoin="round" stroke-miterlimit="10"/><linearGradient id="SVGID_13_" gradientUnits="userSpaceOnUse" x1="284.636" y1="122.035" x2="124.915" y2="350.636"><stop offset="0" stop-color="#412578"/><stop offset="1" stop-color="#1989BE"/></linearGradient><path opacity=".8" fill="url(#SVGID_13_)" stroke="#91DBED" stroke-width=".75" stroke-linecap="round" stroke-linejoin="round" stroke-miterlimit="10" d="M222.4 105.8h71.9v107.8h-71.9z"/><linearGradient id="SVGID_14_" gradientUnits="userSpaceOnUse" x1="178.883" y1="220.782" x2="426.454" y2="62.056"><stop offset="0" stop-color="#412578"/><stop offset="1" stop-color="#1989BE"/></linearGradient><path opacity=".8" fill="url(#SVGID_14_)" stroke="#91DBED" stroke-width=".75" stroke-linecap="round" stroke-linejoin="round" stroke-miterlimit="10" d="M294.2 213.6l71.9-71.9V33.9l-71.9 71.9z"/><linearGradient id="SVGID_15_" gradientUnits="userSpaceOnUse" x1="45.195" y1="45.877" x2="345.676" y2="74.827"><stop offset="0" stop-color="#412578"/><stop offset="1" stop-color="#1989BE"/></linearGradient><path opacity=".8" fill="url(#SVGID_15_)" stroke="#91DBED" stroke-width=".75" stroke-linecap="round" stroke-linejoin="round" stroke-miterlimit="10" d="M222.4 105.8l71.8-71.9h71.9l-71.9 71.9z"/><linearGradient id="SVGID_16_" gradientUnits="userSpaceOnUse" x1="331.234" y1="392.164" x2="403.734" y2="230.163"><stop offset="0" stop-color="#C95F19"/><stop offset="1" stop-color="#B9351B"/></linearGradient><path d="M406.9 303.6l-72 72v-72l72-72z" fill="url(#SVGID_16_)" stroke="#91dbed" stroke-width=".75" stroke-linecap="round" stroke-linejoin="round" stroke-miterlimit="10"/><linearGradient id="SVGID_17_" gradientUnits="userSpaceOnUse" x1="260.611" y1="311.325" x2="339.111" y2="275.825"><stop offset="0" stop-color="#C95F19"/><stop offset="1" stop-color="#B9351B"/></linearGradient><path d="M334.9 303.6h-27l72-72h27z" fill="url(#SVGID_17_)" stroke="#91dbed" stroke-width=".75" stroke-linecap="round" stroke-linejoin="round" stroke-miterlimit="10"/><linearGradient id="SVGID_18_" gradientUnits="userSpaceOnUse" x1="326.325" y1="333.821" x2="270.824" y2="398.322"><stop offset="0" stop-color="#C95F19"/><stop offset="1" stop-color="#B9351B"/></linearGradient><path fill="url(#SVGID_18_)" stroke="#91DBED" stroke-width=".75" stroke-linecap="round" stroke-linejoin="round" stroke-miterlimit="10" d="M307.9 303.6h27v72h-27z"/><linearGradient id="SVGID_19_" gradientUnits="userSpaceOnUse" x1="285.073" y1="122.687" x2="205.074" y2="237.185"><stop offset="0" stop-color="#C95F19"/><stop offset="1" stop-color="#B9351B"/></linearGradient><path fill="url(#SVGID_19_)" stroke="#91DBED" stroke-width=".75" stroke-linecap="round" stroke-linejoin="round" stroke-miterlimit="10" d="M253.9 114.6h36v54h-36z"/><linearGradient id="SVGID_20_" gradientUnits="userSpaceOnUse" x1="232.105" y1="172.146" x2="356.106" y2="92.645"><stop offset="0" stop-color="#C95F19"/><stop offset="1" stop-color="#B9351B"/></linearGradient><path fill="url(#SVGID_20_)" stroke="#91DBED" stroke-width=".75" stroke-linecap="round" stroke-linejoin="round" stroke-miterlimit="10" d="M289.9 168.6l36-36v-54l-36 36z"/><linearGradient id="SVGID_21_" gradientUnits="userSpaceOnUse" x1="165.144" y1="84.542" x2="315.646" y2="99.042"><stop offset="0" stop-color="#C95F19"/><stop offset="1" stop-color="#B9351B"/></linearGradient><path d="M253.9 114.6l36-36h36l-36 36z" fill="url(#SVGID_21_)" stroke="#91dbed" stroke-width=".75" stroke-linecap="round" stroke-linejoin="round" stroke-miterlimit="10"/><path d="M118.9 132.6h-18l-45 45h18zm312 267h-29l-72.5 72.5h29z" opacity=".3" fill="#412578"/><linearGradient id="SVGID_22_" gradientUnits="userSpaceOnUse" x1="64.387" y1="231.467" x2="209.137" y2="231.467"><stop offset="0" stop-color="#fff" stop-opacity="0"/><stop offset="1" stop-color="#fff"/></linearGradient><path stroke="url(#SVGID_22_)" stroke-linecap="round" stroke-linejoin="round" stroke-miterlimit="10" fill="none" d="M64.9 231.5h143.7"/><linearGradient id="SVGID_23_" gradientUnits="userSpaceOnUse" x1="208.137" y1="303.342" x2="209.137" y2="303.342"><stop offset="0" stop-color="#fff" stop-opacity="0"/><stop offset="1" stop-color="#fff"/></linearGradient><path stroke="url(#SVGID_23_)" stroke-linecap="round" stroke-linejoin="round" stroke-miterlimit="10" fill="none" d="M208.6 375.2V231.5"/><path d="M120.8 177.7c0 1.1-.9 2-2 2s-2-.9-2-2 .9-2 2-2c1.2 0 2 .9 2 2zm103.5-71.9c0 1.1-.9 2-2 2s-2-.9-2-2 .9-2 2-2c1.2.1 2 .9 2 2zm71.9-71.9c0 1.1-.9 2-2 2s-2-.9-2-2 .9-2 2-2c1.1.1 2 1 2 2zm71.9 0c0 1.1-.9 2-2 2s-2-.9-2-2 .9-2 2-2c1.1.1 2 1 2 2zm0 107.7c0 1.1-.9 2-2 2s-2-.9-2-2 .9-2 2-2 2 .9 2 2zM66.8 231.9c0 1.1-.9 2-2 2s-2-.9-2-2 .9-2 2-2c1.2.1 2 1 2 2zm0 143.3c0 1.1-.9 2-2 2s-2-.9-2-2 .9-2 2-2c1.2.1 2 .9 2 2zm171.4 72.4c0 1.1-.9 2-2 2s-2-.9-2-2 .9-2 2-2 2 .9 2 2zm53.9 0c0 1.1-.9 2-2 2s-2-.9-2-2 .9-2 2-2 2 .9 2 2zm0-143.8c0 1.1-.9 2-2 2s-2-.9-2-2 .9-2 2-2c1.1.1 2 .9 2 2zm143.7 0c0 1.1-.9 2-2 2s-2-.9-2-2 .9-2 2-2c1.2.1 2 .9 2 2zm0-143.7c0 1.1-.9 2-2 2s-2-.9-2-2 .9-2 2-2c1.2 0 2 .9 2 2zm-53.9 0c0 1.1-.9 2-2 2s-2-.9-2-2 .9-2 2-2c1.2 0 2 .9 2 2zm-171.3 71.8c0 1.1-.9 2-2 2s-2-.9-2-2 .9-2 2-2c1.1.1 2 1 2 2zm0 143.3c0 1.1-.9 2-2 2s-2-.9-2-2 .9-2 2-2c1.1.1 2 .9 2 2zm53.9-53.9c0 1.1-.9 2-2 2s-2-.9-2-2 .9-2 2-2c1.1.1 2 .9 2 2z" fill="#fff"/></g></svg>