<svg xmlns="http://www.w3.org/2000/svg" width="360" height="210" viewBox="0 0 360 210"><g fill="none" stroke="#595A5C" stroke-width=".5" stroke-miterlimit="10"><path d="M69.565 113.632v-4.304l94.697-47.349v4.305M78.174 105.023v4.305M95.392 96.415v4.304M112.609 87.806v4.304M129.827 79.197v4.304M147.044 70.588v4.304"/></g><path fill="#D1D2D3" stroke="#595A5C" stroke-width=".5" stroke-miterlimit="10" d="M60.956 135.154S76.02 148.066 104 139.459l90.393-45.197 4.305-10.761-34.436-17.218-94.696 47.348-8.61 21.523z"/><path fill="#F2F2F2" stroke="#595A5C" stroke-width=".5" stroke-miterlimit="10" d="M69.565 113.632L104 130.85l94.697-47.349-34.435-17.217z"/><path fill="#F2F2F2" stroke="#595A5C" stroke-width=".5" stroke-miterlimit="10" d="M69.565 113.632v17.218H104zM187.937 168.782V186h34.434z"/><path fill="#D1D2D3" stroke="#595A5C" stroke-width=".5" stroke-miterlimit="10" d="M187.937 186s15.065 12.913 43.044 4.305l75.327-38.74 2.152-8.607-34.437-17.218-86.088 43.044.002 17.216z"/><g fill="none" stroke="#595A5C" stroke-width=".5" stroke-miterlimit="10"><path d="M196.545 177.391l81.784-40.892M196.545 181.695l86.088-43.045M199.896 184.248l86.625-43.236M208.039 184.557l82.648-41.325M216.04 184.861l78.813-39.406"/></g><path fill="#F2F2F2" stroke="#595A5C" stroke-width=".5" stroke-miterlimit="10" d="M274.024 125.738v8.61l32.284 17.216 2.152-8.608z"/><path fill="#D1D2D3" stroke="#595A5C" stroke-width=".5" stroke-miterlimit="10" d="M222.371 186l8.609 4.305 75.328-38.741 2.152-8.608z"/><path fill="#F2F2F2" stroke="#595A5C" stroke-width=".5" stroke-miterlimit="10" d="M189.436 169.531s86.151-43.012 86.024-43.075l-1.437-.718-86.088 43.044 1.501.749z"/><path fill="#F2F2F2" stroke="#595A5C" stroke-width=".5" stroke-miterlimit="10" d="M274.024 127.199l31.424 15.757-7.927 3.923-23.497-12.531z"/><path fill="none" stroke="#595A5C" stroke-width=".5" stroke-miterlimit="10" d="M248.084 150.302s-6.15 5.188 8.84 2.979c14.989-2.209-23.766-6.053-7.751 1.506s19.474-4.164 10.186-4.934c-9.289-.769-24.343 4.418-9.031 7.461 15.31 3.045 16.976-9.15.191-7.537s-4.036 7.892 6.405 5.267c10.441-2.627-20.242-3.716-7.303 1.151"/><path fill="#F2F2F2" stroke="#595A5C" stroke-width=".5" stroke-miterlimit="10" d="M187.937 186h34.434l-1.944-.973-31.056-1.179.065-14.317-1.499-.749z"/><path fill="#D1D2D3" stroke="#595A5C" stroke-width=".5" stroke-miterlimit="10" d="M189.436 169.531l7.109 3.556 77.479-38.739"/><path fill="#F2F2F2" stroke="#595A5C" stroke-width=".5" stroke-miterlimit="10" d="M218.067 158.021l8.609-4.304 30.131 15.065-8.609 4.305zM218.067 158.021v1.48l28.58 14.36 1.551-.774zM243.894 145.107l8.608-4.302 30.131 15.064-8.609 4.305zM243.894 145.107v1.198l28.839 14.513 1.291-.644z"/><path fill="#F2F2F2" stroke="#595A5C" stroke-width=".5" stroke-miterlimit="10" d="M222.371 186l-1.944-.973 86.535-42.82 1.498.749z"/><path fill="none" stroke="#595A5C" stroke-width=".5" stroke-miterlimit="10" d="M196.545 173.087v11.033"/><path fill="#F2F2F2" stroke="#595A5C" stroke-width=".5" stroke-miterlimit="10" d="M260.955 164.688l1.744.871 5.233-2.618-1.744-.873z"/><path fill="#F2F2F2" stroke="#595A5C" stroke-width=".5" stroke-miterlimit="10" d="M260.955 164.688v.434l1.744.872v-.435zM267.932 162.941v.437l-5.233 2.616v-.435zM264.553 163.938a.267.267 0 0 1-.267-.267v-2.069a.267.267 0 1 1 .534 0v2.069a.269.269 0 0 1-.267.267z"/><path fill="#F2F2F2" stroke="#595A5C" stroke-width=".5" stroke-miterlimit="10" d="M264.443 161.697c-.665 0-1.187-.856-1.187-1.95 0-.32.046-.638.135-.917a.209.209 0 0 1 .259-.135c.109.035.168.15.135.26a2.645 2.645 0 0 0-.116.792c0 .431.093.833.261 1.132.146.258.333.406.515.406.183 0 .369-.148.516-.406.168-.299.261-.701.261-1.132 0-.575-.168-1.103-.439-1.375a.206.206 0 0 1 .002-.291.204.204 0 0 1 .29.001c.352.352.561.975.561 1.665-.005 1.094-.527 1.95-1.193 1.95z"/><g><path fill="#F2F2F2" stroke="#595A5C" stroke-width=".5" stroke-miterlimit="10" d="M228.241 147.786l1.744.872 5.234-2.616-1.745-.872z"/><path fill="#F2F2F2" stroke="#595A5C" stroke-width=".5" stroke-miterlimit="10" d="M228.241 147.786v.437l1.744.872v-.437z"/><path fill="#F2F2F2" stroke="#595A5C" stroke-width=".5" stroke-miterlimit="10" d="M235.219 146.042v.437l-5.234 2.616v-.437zM231.839 147.038a.268.268 0 0 1-.268-.267v-2.069a.267.267 0 0 1 .535 0v2.069a.268.268 0 0 1-.267.267z"/><path fill="#F2F2F2" stroke="#595A5C" stroke-width=".5" stroke-miterlimit="10" d="M231.729 144.797c-.665 0-1.187-.855-1.187-1.949 0-.32.046-.638.135-.916a.206.206 0 0 1 .393.125 2.671 2.671 0 0 0-.114.791c0 .432.092.834.261 1.133.145.258.332.405.514.405.183 0 .369-.147.516-.405.168-.299.261-.701.261-1.133 0-.576-.168-1.103-.438-1.375a.206.206 0 1 1 .291-.291c.352.354.561.976.561 1.666-.005 1.091-.526 1.949-1.193 1.949z"/></g><g stroke="#595A5C" stroke-width=".5" stroke-miterlimit="10"><path fill="#D1D2D3" d="M248.198 111.479l-4.305 2.152-17.218-8.609-4.305-6.456-4.305-2.152-99.002 49.5v17.218s15.065 12.913 43.044 4.306l90.393-45.196v-8.609l-4.302-2.154z"/><path fill="#F2F2F2" d="M119.065 145.915v17.218h34.436z"/><path fill="#F2F2F2" d="M119.065 145.915l34.436 17.218 94.697-47.349-38.74-15.065z"/><path fill="#F2F2F2" d="M119.065 145.915v17.218h34.436z"/><path fill="#F2F2F2" d="M218.067 96.415v8.608l-90.392 45.197-8.61-4.305z"/><path fill="none" d="M119.065 163.133l-4.303-4.305v-17.219l4.303 4.306"/><path fill="#F2F2F2" d="M152.739 128.413l33.322-15.736 29.62 14.809-33.323 15.737z"/><path fill="#F2F2F2" d="M164.078 120.082l22.214-11.107 23.604 11.107-23.604 11.107z"/><path fill="#F2F2F2" d="M165.929 120.082l20.42-10.21 21.695 10.21-21.695 10.209zM164.078 120.082l-11.339 8.331 29.619 14.81 3.934-12.034zM215.681 127.486l-33.323 15.737 3.934-12.034 23.604-11.107.231 5.554 3.702-1.852z"/><path fill="#D1D2D3" d="M162.813 121.012l23.051 11.487-3.034 9.282L154 127.486zM185.864 132.499l11.407-5.013 5.862 4.766-20.303 9.529z"/><path fill="#F2F2F2" d="M193.966 129.051l.006 7.508 1.331-.637-.006-7.501zM121.266 147.016l32.235-16.034 29.261 14.632 1.829 1.974-31.09 15.545z"/><path fill="none" d="M114.762 158.828h38.739v4.305"/><path fill="#F2F2F2" d="M152.739 128.413l.762 2.569 29.261 14.632-.404-2.391z"/><path fill="none" d="M215.681 127.486l6.117 1.498"/><path fill="#F2F2F2" d="M248.198 111.479l-4.304 2.153-17.218-8.609-4.305-6.456-4.304-2.152v8.608l25.827 12.915 8.608-4.306z"/><g fill="#F2F2F2"><path d="M201.727 107.415l4.303 2.151 8.61-4.304-4.305-2.152zM201.727 107.415v.956l4.303 2.152v-.957z"/><path d="M214.64 105.262v.957l-8.61 4.304v-.957z"/></g><path fill="#F2F2F2" d="M161.869 144.105l-8.937-4.469a.877.877 0 0 0-.777 0l-8.936 4.469a.87.87 0 0 0 0 1.553l8.936 4.468c.123.063.257.092.39.092s.266-.029.388-.092l8.937-4.468a.868.868 0 0 0-.001-1.553z"/><path fill="#F2F2F2" d="M161.869 143.389l-8.937-4.468a.87.87 0 0 0-.777 0l-8.936 4.468a.868.868 0 0 0 0 1.552l8.936 4.47c.123.062.257.091.39.091s.266-.029.388-.091l8.937-4.47a.869.869 0 0 0-.001-1.552z"/><path fill="none" d="M114.762 150.22l4.303 4.303M134.131 158.828v4.305M127.675 141.609v-4.302l-12.913 4.302M162.11 158.828v-4.305l-8.609 4.305"/><g fill="#F2F2F2"><path d="M207.077 117.368l-1.346 4.034 2.691-1.343 1.345-4.036zM185.555 106.607l-1.345 4.036 2.69-1.345 1.345-4.036z"/><path d="M185.555 106.607l2.69-1.345 21.522 10.761-2.69 1.345z"/></g><path fill="#F2F2F2" d="M136.762 142.361l1.844.924 11.069-5.535-1.845-.922zM155.095 152.525l1.844.923 11.069-5.535-1.844-.922z"/></g><g stroke="#595A5C" stroke-width=".5" stroke-miterlimit="10"><path fill="#26A5D4" d="M301.387 171.488l-.543-.822-1.086-1.643-9.857 6.516s-1.643 1.085-1.921 2.45c-.277 1.364-2.742 2.993-2.742 2.993l-27.105 17.916.543.821 27.104-17.917s2.466-1.629 3.829-1.35c1.364.277 3.008-.809 3.008-.809l9.855-6.516-1.085-1.639z"/><path fill="#E7E7E7" d="M261.135 198.088l-.542-.822 9.86-6.507.543.821z" stroke-width=".499985"/><g><path fill="#26A5D4" d="M305.557 177.037l-.376-.91-.751-1.82-10.922 4.508s-1.82.75-2.355 2.037c-.533 1.285-3.265 2.412-3.265 2.412l-30.036 12.394.376.911 30.036-12.396s2.729-1.127 4.016-.592c1.285.534 3.106-.217 3.106-.217l10.922-4.507-.751-1.82z"/><path fill="#E7E7E7" d="M260.956 195.437l-.375-.91 10.924-4.5.374.91z" stroke-width=".49999"/></g></g><g><ellipse fill="#F2F2F2" stroke="#595A5C" stroke-width=".5" stroke-miterlimit="10" cx="266.312" cy="106.033" rx="2.313" ry="4.628"/><path fill="#26A5D4" stroke="#595A5C" stroke-width=".5" stroke-miterlimit="10" d="M265.54 81.491l-3.085 1.543v24.681l3.085-1.543 3.085-26.223z"/><path fill="#E7E7E7" stroke="#595A5C" stroke-width=".5" stroke-miterlimit="10" d="M255.514 84.576l9.255 4.628 9.255-4.628-9.255-4.627z"/><path fill="#E7E7E7" stroke="#595A5C" stroke-width=".5" stroke-miterlimit="10" d="M255.514 79.949l9.255 4.627 9.255-4.627-9.255-4.628z"/><path fill="#26A5D4" stroke="#595A5C" stroke-width=".5" stroke-miterlimit="10" d="M255.514 79.949v4.627l9.255 4.628v-4.628zM274.024 79.949v4.627l-9.255 4.628v-4.628z"/><path fill="#26A5D4" stroke="#595A5C" stroke-width=".5" stroke-miterlimit="10" d="M255.514 82.52v4.627l9.255 4.628v-4.628zM274.024 82.52v4.627l-9.255 4.628v-4.628zM255.514 79.949l.77-.814 8.485 4.284v1.157zM274.024 79.949l-.771-.814-8.484 4.284v1.157zM256.284 79.135l8.485 4.241 8.484-4.241-8.484-4.243z"/><path fill="#E7E7E7" stroke="#595A5C" stroke-width=".5" stroke-miterlimit="10" d="M267.083 85.733v-1.157l4.628-2.313v1.156zM267.083 88.047V86.89l4.628-2.314v1.157zM267.083 89.204v-1.157l4.628-2.314v1.157z"/><path fill="#E7E7E7" stroke="#595A5C" stroke-width=".5" stroke-miterlimit="10" d="M267.083 86.89v-1.157l4.628-2.314v1.157z"/><path fill="#26A5D4" stroke="#595A5C" stroke-width=".5" stroke-miterlimit="10" d="M266.373 106.092c0-.349-.188-.632-.421-.632a.303.303 0 0 0-.178.06l-3.308 1.648.223 1.221 3.357-1.681v-.001c.188-.064.327-.314.327-.615z"/><ellipse fill="#26A5D4" stroke="#595A5C" stroke-width=".5" stroke-miterlimit="10" cx="262.579" cy="107.778" rx=".422" ry=".632"/></g><path fill="#F2F2F2" stroke="#595A5C" stroke-width=".5" stroke-miterlimit="10" d="M69.565 113.632s-8.608 8.609-8.608 21.522c0 0 30.131 4.305 43.044-4.305l-34.436-17.217z"/><path fill="#F2F2F2" stroke="#595A5C" stroke-width=".5" stroke-miterlimit="10" d="M69.565 113.632l4.304-2.153 34.436 17.218L104 130.85z"/><path fill="#F2F2F2" stroke="#595A5C" stroke-width=".5" stroke-miterlimit="10" d="M164.262 66.284v4.304l-86.088 43.044-4.305-2.153zM164.262 66.284v4.304l30.131 15.065 4.304-2.152z"/><g stroke="#595A5C" stroke-width=".5" stroke-miterlimit="10"><path fill="#F2F2F2" d="M107.545 93.81l3.436 12.027 24.054 1.72v5.153h-27.49zM135.035 107.557l20.618-10.31v5.154l-20.618 10.309z"/><path fill="#F2F2F2" d="M128.163 83.501L107.545 93.81l3.436 12.027 24.054 1.72 20.618-10.31z"/><path fill="none" d="M110.981 105.837l-3.436 6.873"/><path fill="#F2F2F2" d="M140.189 107.557l10.31-5.156v1.718l-10.31 5.154z"/></g><g fill="#F2F2F2" stroke="#595A5C" stroke-width=".5" stroke-miterlimit="10"><path d="M95.587 118.523l6.261-3.13-1.565-.784-6.261 3.131z"/><path d="M94.022 117.74l-.783.783 1.566.784.782-.784z"/><path d="M94.805 119.307l.782-.784 6.261-3.13v.783z"/></g><g fill="none" stroke="#595A5C" stroke-width=".5" stroke-miterlimit="10"><path d="M104 130.85v-4.305l94.697-47.348v4.304M112.609 122.241v4.304M129.827 113.632v4.306M147.044 105.023v4.305M164.262 96.415v4.304M181.479 87.806v4.304"/></g><g stroke="#595A5C" stroke-width=".5" stroke-miterlimit="10"><path fill="#F2F2F2" d="M122.697 93.687l57.851-28.926-1.205-1.205-57.851 28.925z"/><path fill="#26A5D4" d="M122.299 11.171s24.75 42.576 1.761 80.026c0 0 51.72-38.663 54.349-27.174-.114-2.556-33.063-54.893-56.109-53.412"/><g fill="#F2F2F2"><ellipse cx="122.299" cy="98.395" rx="3.498" ry="1.749"/><path d="M123.418 10.612h-2.238l-1.259 87.783c0 .656 1.064 1.188 2.378 1.188 1.313 0 2.378-.532 2.378-1.188l-1.259-87.783z"/><ellipse cx="122.299" cy="10.612" rx="1.119" ry=".559"/></g></g><path fill="#26A5D4" stroke="#595A5C" stroke-width=".5" stroke-miterlimit="10" d="M69.565 117.35S66.613 78.621 119.92 13.435c0 0-37.87 54.788-2.103 80.375.001 0-25.93-25.45-48.252 23.54z"/><path fill="none" stroke="#595A5C" stroke-width=".5" stroke-miterlimit="10" d="M69.565 117.35l-12.196 12.941M104 126.545s-12.076 7.612-46.631 3.746c0 0 2.392-15.702 11.718-20.963M57.369 130.291l3.587 4.863"/><g><path fill="none" stroke="#595A5C" stroke-width=".5" stroke-miterlimit="10" d="M209.033 44.404s-6.235-1.381-9.265 2.761c-3.027 4.142-2.005 8.373-2.315 12.559-.313 4.187 5.593 6.849 11.58 6.235 5.985-.613 5.12.667 6.591.534 1.47-.133 9.977-3.786 7.749-11.891-2.227-8.104-5.7-12.024-14.34-10.198z"/><path fill="none" d="M217.504 51.889c-.912-1.665-2.549-2.962-4.557-3.583a8.989 8.989 0 0 0-5.627.094c-1.875.652-3.397 1.906-4.266 3.489a6.27 6.27 0 0 0-.792 3.025c0 .516.067 1.017.188 1.5.493 1.979 1.939 3.644 3.898 4.61a8.878 8.878 0 0 0 3.93.904 8.883 8.883 0 0 0 3.928-.903c1.961-.967 3.408-2.632 3.901-4.612a6.17 6.17 0 0 0 .188-1.5 6.234 6.234 0 0 0-.791-3.024z"/><path fill="#F2F2F2" stroke="#595A5C" stroke-width=".5" stroke-miterlimit="10" d="M203.055 51.889c.868-1.583 2.391-2.837 4.266-3.489.358-1.952-.745-3.188-1.804-3.9-3.109 1.09-5.615 3.211-6.966 5.884 2.054-.217 3.621.748 4.504 1.505zM212.948 48.306c2.008.621 3.645 1.918 4.557 3.583.884-.756 2.45-1.721 4.504-1.506-1.407-2.785-4.07-4.966-7.361-6.01-2.307 1.131-2.125 2.852-1.7 3.933zM218.109 56.415c-.493 1.98-1.94 3.645-3.901 4.612.661 1.15.899 2.773-.6 4.716 4.396-1.033 7.853-4.052 9.041-7.896-.554-1.138-1.793-2.212-4.54-1.432zM206.35 61.025c-1.959-.967-3.405-2.631-3.898-4.61-2.748-.78-3.987.296-4.54 1.433 1.159 3.75 4.474 6.721 8.719 7.823-.364-.917-1.016-3.007-.281-4.646z"/><path fill="#26A5D4" stroke="#595A5C" stroke-width=".5" stroke-miterlimit="10" d="M214.207 61.026a8.883 8.883 0 0 1-3.928.903 8.878 8.878 0 0 1-3.93-.904c-.735 1.639-.083 3.729.28 4.645 1.157.3 2.38.467 3.649.467 1.153 0 2.265-.146 3.328-.395 1.501-1.942 1.262-3.565.601-4.716zM202.451 56.415a6.17 6.17 0 0 1-.188-1.5c0-1.085.29-2.108.792-3.025-.883-.757-2.45-1.722-4.504-1.506a9.998 9.998 0 0 0-1.098 4.531c0 1.017.168 1.997.458 2.933.553-1.138 1.792-2.213 4.54-1.433zM217.504 51.889a6.26 6.26 0 0 1 .793 3.025c0 .516-.067 1.017-.188 1.5 2.747-.78 3.986.295 4.54 1.431a9.909 9.909 0 0 0 .457-2.932 9.982 9.982 0 0 0-1.098-4.531c-2.054-.215-3.62.75-4.504 1.507zM207.321 48.399a8.989 8.989 0 0 1 5.627-.094c-.425-1.082-.606-2.802 1.699-3.934a14.397 14.397 0 0 0-9.13.126c1.058.715 2.162 1.951 1.804 3.902z"/><path fill="#E7E7E7" stroke="#595A5C" stroke-width=".5" stroke-miterlimit="10" d="M208.053 65.425h4.275v1.069h-4.275z"/><path fill="#E7E7E7" stroke="#595A5C" stroke-width=".500005" stroke-miterlimit="10" d="M196.836 55.32l.352-3.573.892.088-.351 3.572z"/><path fill="#E7E7E7" stroke="#595A5C" stroke-width=".499995" stroke-miterlimit="10" d="M222.953 55.863l-.58-3.54.884-.145.581 3.54z"/></g></svg>