<svg xmlns="http://www.w3.org/2000/svg" width="360" height="210" viewBox="0 0 360 210"><g stroke="#58595B" stroke-width=".5" stroke-miterlimit="10"><path fill="#D0D2D3" d="M120.552 54.226L209.105 9.95v73.794l-88.553 44.277z"/><path fill="#D0D2D3" d="M209.105 83.744V9.95s-47.966 29.517 0 73.794z"/><path fill="#F1F1F2" d="M120.552 128.021V54.226s-47.966 29.518 0 73.795z"/><path fill="#F1F1F2" d="M116.862 115.248v-48.25c0 .001-31.362 19.3 0 48.25zM120.552 54.226l7.38-3.689v73.793l-7.38 3.691z"/><path fill="#D0D2D3" d="M120.552 124.33l88.553-44.276v3.69l-88.553 44.277z"/><path fill="#F1F1F2" d="M201.727 13.639v73.795l7.378-3.69V9.95z"/><path fill="#F1F1F2" d="M120.552 54.226L209.105 9.95v3.689l-88.553 44.277z"/></g><path fill="#D0D2D3" stroke="#58595B" stroke-width=".5" stroke-miterlimit="10" d="M120.552 172.296l88.553-44.275 59.036 29.517-88.553 44.276z"/><path fill="#D0D2D3" stroke="#58595B" stroke-width=".5" stroke-miterlimit="10" d="M209.105 83.744l59.036 29.518v44.276l-59.036-29.517z"/><path fill="#D0D2D3" stroke="#58595B" stroke-width=".5" stroke-miterlimit="10" d="M120.552 128.021l88.553-44.277v44.277l-88.553 44.275z"/><path fill="#F1F1F2" stroke="#58595B" stroke-width=".5" stroke-miterlimit="10" d="M120.552 128.021l59.036 29.517v44.276l-59.036-29.518z"/><g stroke="#58595B" stroke-width=".5" stroke-miterlimit="10"><path fill="#BBBDBF" d="M176.604 71.482l65.905-8.898 2.542 18.831-65.904 8.898z" stroke-width=".499995"/><path fill="#F1F1F2" d="M253.786 56.564c-6.646 3.249-17.603-5.841-18.611-6.901-12.27-12.869-29.502-10.542-29.502-10.542s-17.233 2.327-25.648 17.988c-.693 1.294-9.314 13.402-16.112 11.59-9.846-2.623-2.26 5.416-2.26 5.416l12.481 14.454 9.957-1.344c4.536-6.626 11.062-11.178 26.292-13.233 15.229-2.056 24.785 1.37 28.858 5.787l9.955-1.345 8.2-17.246c.002-.001 5.535-9.095-3.61-4.624z"/><path fill="#F1F1F2" d="M255.662 58.731c-6.889 3.283-18.172-5.763-19.212-6.819-12.626-12.821-30.457-10.414-30.457-10.414s-17.833 2.407-26.605 18.119c-.725 1.296-9.695 13.452-16.715 11.67-10.166-2.579-2.359 5.431-2.359 5.431l12.839 14.406 10.304-1.392c4.722-6.65 11.487-11.234 27.247-13.362 15.756-2.126 25.624 1.258 29.813 5.659l10.303-1.391 8.562-17.295c-.005-.001 5.758-9.128-3.72-4.612z"/><path fill="none" d="M260.523 61.134c-6.889 3.281-19.911-.302-23.35-3.858-12.509-12.935-30.457-10.413-30.457-10.413s-17.468 2.616-26.604 18.118c-3.394 5.755-12.777 13.519-19.8 11.737"/><path fill="none" d="M259.377 63.342c-6.89 3.282-20.949-3.424-21.989-4.481-12.625-12.821-30.457-10.414-30.457-10.414s-17.947 2.344-26.604 18.118c-2.86 5.213-11.788 13.286-18.811 11.504"/><g fill="#2AB573"><path d="M228.943 60.536l8.59 15.881 1.215-4.078 4.079 1.216-8.589-15.883z"/><path d="M230.96 62.427l6.095 11.266.861-2.892 2.894.862-6.093-11.267z"/><path d="M230.938 49.762l1.075-1.692.808 1.835 1.405-1.432.41 1.963 1.671-1.108-.008 2.005 1.864-.737-.424 1.961 1.979-.334-.822 1.828 2.003.086-1.186 1.617 1.943.5-1.498 1.337 1.797.893-1.741.995 1.572 1.247-1.911.613 1.279 1.546-1.995.201.928 1.778-1.994-.218.538 1.933-1.905-.626.126 2-1.735-1.008-.294 1.983-1.484-1.347-.701 1.879-1.172-1.627-1.076 1.693-.809-1.835-1.404 1.432-.409-1.964-1.671 1.109.007-2.006-1.865.738.425-1.96-1.977.333.822-1.83-2.003-.085 1.184-1.618-1.942-.499 1.496-1.336-1.797-.893 1.741-.996-1.572-1.247 1.911-.612-1.278-1.547 1.996-.201-.928-1.779 1.995.219-.54-1.933 1.905.628-.123-2.003 1.731 1.01.295-1.985 1.486 1.348.699-1.879z"/><circle cx="231.201" cy="58.797" r="7.111"/></g></g><path fill="#F1F1F2" stroke="#58595B" stroke-width=".5" stroke-miterlimit="10" d="M120.552 128.021v7.379l7.38-3.69z"/><g stroke="#58595B" stroke-width=".5" stroke-miterlimit="10"><path fill="#F1F1F2" d="M227.549 114.465a5.917 5.917 0 0 0-6.155-5.664l-33.242 1.385.49 11.819 33.243-1.383a5.918 5.918 0 0 0 5.664-6.157z"/><path fill="#F1F1F2" d="M225.332 114.559a5.916 5.916 0 0 0-6.155-5.664l-33.242 1.387.492 11.816 33.242-1.383a5.916 5.916 0 0 0 5.663-6.156z"/><path fill="#F1F1F2" d="M192.46 115.926c-.204-4.895-4.339-8.699-9.233-8.494l-26.595 1.106.739 17.729 26.595-1.108c4.894-.202 8.698-4.339 8.494-9.233z"/><path fill="#F1F1F2" d="M189.136 116.064a8.874 8.874 0 0 0-9.233-8.496l-26.595 1.105.738 17.73 26.594-1.107c4.895-.201 8.7-4.335 8.496-9.232z"/><path fill="#F1F1F2" d="M161.064 117.232c-.271-6.526-5.783-11.6-12.312-11.326l-35.458 1.477.982 23.641 35.458-1.478c6.531-.273 11.602-5.782 11.33-12.314z"/><path fill="#F1F1F2" d="M156.633 117.419c-.272-6.528-5.785-11.601-12.313-11.329l-35.459 1.479.985 23.64 35.459-1.478c6.528-.273 11.599-5.786 11.328-12.312z"/><path fill="none" d="M125.152 125.848l29.6-1.528M160.069 122.646l27.733-1.162M192.337 117.809l32.798-1.466"/><path fill="#F1F1F2" d="M116.335 132.286c7.289-.304 12.951-6.459 12.646-13.746-.303-7.287-6.457-12.95-13.746-12.647l-6.783.314 1.099 26.393 6.784-.314z"/><circle fill="#E6E7E8" cx="109" cy="119.402" r="13.207"/><circle fill="#E6E7E8" cx="109" cy="119.403" r="12.217"/><circle fill="#2AB573" cx="109" cy="119.404" r="10.566"/><circle fill="#FFF" cx="112.794" cy="115.28" r="3.962"/></g><g stroke="#58595B" stroke-width=".5" stroke-miterlimit="10"><path fill="#F1F1F2" d="M229.487 86.018s1.037-1.486 2.523-.447l20.806 14.531s1.485 1.037.448 2.522l-26.987 38.638s-1.038 1.487-2.521.449L202.95 127.18s-1.486-1.039-.448-2.522l26.985-38.64z"/><path fill="#FFF" d="M228.447 87.497l23.775 16.606-23.872 34.178-23.775-16.606z" stroke-width=".499985"/><circle fill="#F1F1F2" cx="214.965" cy="132.133" r="1.813"/><g fill="#F1F1F2"><circle cx="233.789" cy="89.18" r=".906"/><circle cx="233.789" cy="89.18" r=".453"/><path d="M236.634 91.175s.307-.442.751-.134l8.403 5.871s.438.309.132.751c0 0-.31.442-.75.133l-8.403-5.869s-.443-.309-.133-.752z"/></g><path fill="#2AB573" d="M233.15 92.35l11.624 8.073-8.073 11.624-11.624-8.075z"/><path fill="#F1F1F2" d="M224.07 105.432l8.72 6.055-1.01 1.454-8.72-6.056z" stroke-width=".500015"/><path fill="#2AB573" d="M221.055 109.783l11.626 8.074-8.073 11.625-11.626-8.074z" stroke-width=".500015"/><path fill="#F1F1F2" d="M211.973 122.854l10.173 7.066-1.008 1.451-10.173-7.066z"/></g><path fill="#E6E7E8" stroke="#58595B" stroke-width=".5" stroke-miterlimit="10" d="M170.9 123.182a3.654 3.654 0 0 1-5.163 0 3.656 3.656 0 0 1 0-5.162 3.654 3.654 0 0 1 5.163 0 3.655 3.655 0 0 1 0 5.162zm-4.224-4.225a2.327 2.327 0 0 0 0 3.285c.906.904 2.38.904 3.285 0a2.325 2.325 0 0 0 0-3.285 2.327 2.327 0 0 0-3.285 0z"/><path fill="#E6E7E8" stroke="#58595B" stroke-width=".499995" stroke-miterlimit="10" d="M169.374 125.884l4.224-4.222 2.11 2.111-4.223 4.223z"/><path fill="#E6E7E8" stroke="#58595B" stroke-width=".499995" stroke-miterlimit="10" d="M168.331 122.71l2.113-2.11 2.111 2.112-2.113 2.111z"/><circle fill="#E6E7E8" stroke="#58595B" stroke-width=".5" stroke-miterlimit="10" cx="183.102" cy="135.383" r="14.935"/><circle fill="#E6E7E8" stroke="#58595B" stroke-width=".5" stroke-miterlimit="10" cx="183.102" cy="135.383" r="13.441"/><circle fill="#FFF" stroke="#58595B" stroke-width=".5" stroke-miterlimit="10" cx="183.103" cy="135.383" r="11.947"/><path fill="#2AB573" stroke="#58595B" stroke-width=".5" stroke-miterlimit="10" d="M175.71 127.991l5.279 9.504 4.226-4.224z"/><path fill="#E6E7E8" stroke="#58595B" stroke-width=".5" stroke-miterlimit="10" d="M190.494 142.773l-5.279-9.502-4.226 4.224z"/><path fill="none" stroke="#58595B" stroke-width=".5" stroke-miterlimit="10" d="M175.71 142.773l2.113-2.11M190.494 127.991l-2.111 2.113M172.542 135.382h2.113M183.102 124.822v2.114M183.102 145.943v-2.112M193.662 135.382h-2.112"/><circle fill="#E6E7E8" stroke="#58595B" stroke-width=".5" stroke-miterlimit="10" cx="183.102" cy="135.384" r="1.707"/><path fill="#F1F1F2" stroke="#58595B" stroke-width=".5" stroke-miterlimit="10" d="M179.588 157.538l88.553-44.276v44.276l-88.553 44.276zM127.932 139.089l44.276 22.14v29.516l-44.276-22.138z"/><path fill="none" stroke="#58595B" stroke-width=".5" stroke-miterlimit="10" d="M135.311 142.779v29.517M142.69 146.469v29.517M150.069 150.158v29.519M157.449 153.848v29.517M164.829 157.538v29.519M120.552 164.917l7.38 11.069-7.38-3.69zM172.208 198.124l7.38-3.688v7.378zM186.967 198.124l-7.379-3.688v7.378zM186.967 161.229l73.795-36.899v29.518l-73.795 36.897zM268.141 150.158l-7.379 11.071 7.379-3.691zM194.346 157.538v29.519M201.727 153.848v29.517M209.105 150.158v29.519M216.484 146.469v29.517M223.863 142.779v29.517M231.244 139.089v29.518M238.623 135.4v29.517M246.002 131.71v29.519M253.381 128.021v29.517"/><path fill="#F1F1F2" stroke="#58595B" stroke-width=".5" stroke-miterlimit="10" d="M172.208 153.848l7.38 11.069v-7.379zM186.967 153.848l-7.379 3.69v7.379zM260.762 116.951l7.379 3.69v-7.379zM220.174 139.089l7.381-3.689v7.379l-7.381 3.69z"/></svg>