<svg xmlns="http://www.w3.org/2000/svg" viewBox="-837.4 1699.7 186.4 186.4"><path d="M-755.2 1770c0-6.1 4.9-11 11-11s11 4.9 11 11m0 0v5m-22-5v5M-758.4 1775h28.5v29.9h-28.5zm8.3 12.8l5.5 5.5 8.9-8.9" stroke="#13BEBB" stroke-width="4.252" stroke-linecap="round" stroke-linejoin="round" stroke-miterlimit="10" fill="none"/><path stroke="#13BEBB" stroke-width="4.252" stroke-linecap="round" stroke-linejoin="round" stroke-miterlimit="10" fill="none" d="M-744.2 1733l4.8-8.8 3.6 9.4 6-8.1 2.1 9.8 7.1-7.2.8 10 8-6-.6 10 8.7-5-2 9.9 9.4-3.7-3.4 9.5 9.8-2.3-4.6 8.9 10-1-5.8 8.2 10 .5-6.9 7.3 9.9 1.8-7.9 6.3 9.5 3.2-8.6 5.1 9 4.5-9.3 3.8 8.3 5.7-9.8 2.5 7.4 6.8-9.9 1.2 6.3 7.7-10-.2 5.2 8.6-9.9-1.7 4 9.2-9.6-3 2.7 9.7-9.1-4.3 1.3 10-8.3-5.6-.1 10.1-7.6-6.7-1.5 10-6.5-7.7-2.9 9.7-5.4-8.5-4.2 9.1-4.1-9.1-5.4 8.5-2.9-9.7-6.5 7.7-1.5-10-7.6 6.7-.1-10.1-8.4 5.6 1.3-10-9 4.3 2.6-9.7-9.5 3 4-9.2-10 1.7 5.3-8.6-10.1.2 6.4-7.7-10-1.2 7.4-6.8-9.7-2.5 8.3-5.7-9.3-3.8 9-4.5-8.7-5.1 9.6-3.2-7.9-6.3 9.9-1.8-6.9-7.3 10-.5-5.8-8.2 10 1-4.6-8.9 9.7 2.3-3.3-9.5 9.3 3.7-1.9-9.9 8.7 5-.6-10 8 6 .8-10 7 7.2 2.2-9.8 6 8.1 3.5-9.4z"/><g stroke="#13BEBB" stroke-width="4.252" stroke-linecap="round" stroke-linejoin="round" stroke-miterlimit="10" fill="none"><path d="M-765.4 1815.6h-8.7v19.6h8.7v-9.8M-756.8 1815.6v19.6h9.4v-9.7zm17.7 19.6v-19.6h8v9.8h-8m16 9.8v-19.6h8v9.8h-8l8.9 8.9"/></g><path stroke="#13BEBB" stroke-width="4.252" stroke-linecap="round" stroke-linejoin="round" stroke-miterlimit="10" d="M-705.2 1809.4c2.1-5.1 3.3-10.6 3.3-16.4 0-18.8-12.2-34.7-29.2-40.2m-25.7-.2c-17.2 5.4-29.6 21.4-29.6 40.3 0 6.1 1.3 11.9 3.6 17.2" fill="none"/></svg>