<svg xmlns="http://www.w3.org/2000/svg" width="20" height="20" viewBox="0 0 20 20"><path fill="#333" d="M10.012.219c-5.467 0-9.9 4.433-9.9 9.9 0 4.374 2.836 8.084 6.771 9.395.495.092.675-.216.675-.478 0-.235-.008-.858-.013-1.685-2.753.598-3.334-1.328-3.334-1.328-.451-1.144-1.1-1.447-1.1-1.447-.899-.614.069-.604.069-.604.994.071 1.516 1.021 1.516 1.021.883 1.513 2.318 1.074 2.882.822.089-.641.346-1.076.628-1.324-2.199-.249-4.51-1.098-4.51-4.892 0-1.081.386-1.964 1.019-2.657-.101-.25-.442-1.257.097-2.62 0 0 .832-.267 2.724 1.016a9.425 9.425 0 0 1 2.479-.334c.84.003 1.688.114 2.479.334 1.89-1.282 2.719-1.016 2.719-1.016.539 1.363.201 2.37.1 2.62.635.693 1.017 1.577 1.017 2.658 0 3.804-2.314 4.64-4.521 4.884.357.307.674.91.674 1.834 0 1.324-.012 2.392-.012 2.717 0 .265.178.572.68.477 3.932-1.312 6.767-5.021 6.767-9.394-.005-5.467-4.439-9.899-9.906-9.899z"/></svg>