<svg xmlns="http://www.w3.org/2000/svg" xmlns:xlink="http://www.w3.org/1999/xlink" width="360" height="210" viewBox="0 0 360 210"><g stroke="#58595B" stroke-width=".5" stroke-miterlimit="10"><path fill="#E6E7E8" d="M55.205 154.78l-20.8-33.278 20.8-33.279 16.639 33.279z"/><g fill="#D0D2D3"><path d="M55.205 154.78l16.639-33.278h216.312l16.639 33.278z"/><path d="M71.844 121.502h216.313v33.278H71.844z"/></g><path fill="#E6E7E8" d="M288.156 121.502l16.639-33.279 20.8 33.279-20.8 33.278z"/></g><g stroke="#58595B" stroke-width=".5" stroke-miterlimit="10"><path fill="#D85039" d="M99.896 9.717l9.634 15.416h13.488L115.31 9.717z"/><path fill="#F1F1F2" d="M84.481 9.717l11.561 15.416h13.488L99.896 9.717z"/><path fill="#D85039" d="M70.994 9.717l11.561 15.416h13.487L86.408 9.717z"/><path fill="#F1F1F2" d="M115.31 9.717l7.708 15.416h13.488l-5.781-15.416z"/><path fill="#D85039" d="M130.725 9.717l5.781 15.416h13.487l-1.927-15.416z"/><path fill="#F1F1F2" d="M146.139 9.717l3.854 15.416h13.488l-1.927-15.416z"/><path fill="#D85039" d="M161.554 9.717l1.927 15.416h13.488V9.717z"/><path fill="#F1F1F2" d="M123.018 25.133s0 7.707 6.743 7.707c6.745 0 6.745-7.707 6.745-7.707h-13.488z"/><path fill="#D85039" d="M109.53 25.133s0 7.707 6.744 7.707 6.744-7.707 6.744-7.707H109.53z"/><path fill="#F1F1F2" d="M96.042 25.133s0 7.707 6.744 7.707c6.743 0 6.743-7.707 6.743-7.707H96.042z"/><path fill="#D85039" d="M82.555 25.133s0 7.707 6.744 7.707 6.744-7.707 6.744-7.707H82.555zM136.506 25.133s0 7.707 6.743 7.707c6.744 0 6.744-7.707 6.744-7.707h-13.487z"/><path fill="#F1F1F2" d="M149.993 25.133s0 7.707 6.743 7.707c6.744 0 6.744-7.707 6.744-7.707h-13.487z"/><path fill="#D85039" d="M163.481 25.133s0 7.707 6.744 7.707 6.744-7.707 6.744-7.707h-13.488z"/></g><g stroke="#58595B" stroke-width=".5" stroke-miterlimit="10"><path fill="#F1F1F2" d="M254.041 9.717l-9.634 15.416H230.92l7.707-15.416z"/><path fill="#D85039" d="M269.456 9.717l-11.56 15.416h-13.489l9.634-15.416z"/><path fill="#F1F1F2" d="M282.943 9.717l-11.56 15.416h-13.487l9.633-15.416z"/><path fill="#D85039" d="M238.627 9.717l-7.707 15.416h-13.487l5.779-15.416z"/><path fill="#F1F1F2" d="M223.212 9.717l-5.779 15.416h-13.489l1.927-15.416z"/><path fill="#D85039" d="M207.798 9.717l-3.854 15.416h-13.488l1.927-15.416z"/><path fill="#F1F1F2" d="M192.383 9.717l-1.927 15.416h-13.487V9.717z"/><path fill="#D85039" d="M230.92 25.133s0 7.707-6.744 7.707c-6.743 0-6.743-7.707-6.743-7.707h13.487z"/><path fill="#F1F1F2" d="M244.407 25.133s0 7.707-6.743 7.707c-6.744 0-6.744-7.707-6.744-7.707h13.487z"/><path fill="#D85039" d="M257.896 25.133s0 7.707-6.744 7.707c-6.743 0-6.743-7.707-6.743-7.707h13.487z"/><path fill="#F1F1F2" d="M271.383 25.133s0 7.707-6.743 7.707c-6.744 0-6.744-7.707-6.744-7.707h13.487zM217.433 25.133s0 7.707-6.745 7.707c-6.743 0-6.743-7.707-6.743-7.707h13.488z"/><path fill="#D85039" d="M203.944 25.133s0 7.707-6.742 7.707c-6.745 0-6.745-7.707-6.745-7.707h13.487z"/><path fill="#F1F1F2" d="M190.456 25.133s0 7.707-6.743 7.707c-6.744 0-6.744-7.707-6.744-7.707h13.487z"/></g><path fill="#F1F1F2" stroke="#58595B" stroke-width=".5" stroke-miterlimit="10" d="M82.032 25.312h2.208v129.034h-2.208zM272.118 25.312H81.819L70.667 9.921l.653-.408 10.927 15.029h189.444l10.925-15.029.655.408z"/><path fill="#F1F1F2" stroke="#58595B" stroke-width=".5" stroke-miterlimit="10" d="M269.697 25.294h2.208v128.912h-2.208z"/><g fill="#F1F1F2" stroke="#58595B" stroke-width=".5" stroke-miterlimit="10"><path d="M247.619 70.554h8.831v5.52h-8.831z"/><path d="M251.483 71.106h1.104v14.903h-1.104z"/></g><g fill="#F1F1F2" stroke="#58595B" stroke-width=".5" stroke-miterlimit="10"><path d="M223.333 68.346h8.831v5.519h-8.831z"/><path d="M227.196 68.898h1.104V83.8h-1.104z"/></g><g stroke="#58595B" stroke-width=".5" stroke-miterlimit="10"><path fill="#F1F1F2" d="M70.994 147.827h211.949v2.208H70.994z"/><path fill="#D0D2D3" d="M273.13 130.165H80.807l-9.813 17.662h211.949z"/></g><g fill="#F1F1F2" stroke="#58595B" stroke-width=".5" stroke-miterlimit="10"><path d="M274.112 125.564s0-2.207-1.104-3.311-2.207-1.504-2.207-5.919h-2.208c0 4.415-1.104 4.813-2.207 5.919-1.104 1.104-1.104 3.311-1.104 3.311v15.455c0 .609 1.978 1.104 4.416 1.104s4.415-.494 4.415-1.104l-.001-15.455z"/><path d="M268.348 115.048v1.351c0 .186.604.336 1.35.336.746 0 1.351-.15 1.351-.336v-1.351h-2.701z"/><ellipse cx="269.697" cy="115.048" rx="1.351" ry=".337"/><path d="M273.008 135.874v-7.371c-.808.229-1.992.374-3.312.374-1.318 0-2.503-.145-3.312-.374v8.831c.809.229 1.992.374 3.312.374 1.318 0 2.504-.146 3.312-.374v-1.46z"/><circle cx="269.697" cy="131.913" r=".551"/><path d="M267.489 133.018h4.416v.553h-4.416zM268.593 134.121h2.208v.275h-2.208z"/></g><g fill="#F1F1F2" stroke="#58595B" stroke-width=".5" stroke-miterlimit="10"><path d="M123.44 129.17v12.385c0 .76 2.464 1.377 5.504 1.377s5.504-.617 5.504-1.377V129.17H123.44z"/><path d="M123.44 128.711v12.385c0 .76 2.464 1.375 5.504 1.375s5.504-.615 5.504-1.375v-12.385H123.44z"/><ellipse cx="128.944" cy="128.711" rx="5.504" ry="1.375"/><ellipse cx="128.945" cy="128.711" rx="4.129" ry="1.031"/><ellipse cx="128.944" cy="128.711" rx="2.752" ry=".688"/><path d="M128.944 131.93c-1.645 0-3.119-.182-4.128-.467v8.257c1.009.285 2.483.468 4.128.468 1.646 0 3.12-.183 4.128-.468v-8.257c-1.008.285-2.483.467-4.128.467z"/><path d="M128.941 133.309l.307.53.439-.429.151.595.538-.296-.014.614.598-.137-.18.585.614.028-.332.515.583.194-.458.407.509.343-.551.269.399.467-.605.11.258.557-.611-.056.098.607-.574-.22-.068.612-.494-.368-.231.571-.376-.487-.376.487-.232-.571-.492.368-.07-.612-.572.22.098-.607-.612.056.258-.557-.604-.11.398-.467-.551-.269.51-.343-.459-.407.583-.194-.331-.515.613-.028-.179-.585.598.137-.015-.614.538.296.152-.595.439.429z"/><g><path d="M117.936 132.061v12.385c0 .76 2.464 1.375 5.504 1.375s5.504-.615 5.504-1.375v-12.385h-11.008z"/><path d="M117.936 131.602v12.385c0 .76 2.464 1.375 5.504 1.375s5.504-.615 5.504-1.375v-12.385h-11.008z"/><ellipse cx="123.44" cy="131.601" rx="5.504" ry="1.376"/><ellipse cx="123.44" cy="131.601" rx="4.128" ry="1.031"/><ellipse cx="123.44" cy="131.601" rx="2.752" ry=".688"/><path d="M123.44 134.818c-1.645 0-3.12-.18-4.128-.467v8.258c1.008.285 2.483.466 4.128.466s3.12-.181 4.128-.466v-8.258c-1.008.288-2.484.467-4.128.467z"/><path d="M123.437 136.197l.306.532.439-.429.151.595.539-.295-.015.614.598-.14-.18.587.614.027-.331.517.583.191-.459.411.51.341-.551.27.399.466-.604.11.257.557-.611-.057.098.608-.574-.22-.069.61-.493-.365-.231.568-.376-.485-.376.485-.231-.568-.493.365-.07-.61-.573.22.098-.608-.611.057.258-.557-.604-.11.398-.466-.551-.27.51-.341-.459-.411.583-.191-.331-.517.613-.027-.18-.587.599.14-.015-.614.538.295.152-.595.439.429z"/></g><g><path d="M130.256 131.378v12.384c0 .762 2.464 1.377 5.504 1.377 3.041 0 5.504-.615 5.504-1.377v-12.384h-11.008z"/><path d="M130.256 130.919v12.386c0 .76 2.464 1.375 5.504 1.375 3.041 0 5.504-.615 5.504-1.375v-12.386h-11.008z"/><ellipse cx="135.76" cy="130.919" rx="5.504" ry="1.376"/><ellipse cx="135.76" cy="130.919" rx="4.128" ry="1.032"/><ellipse cx="135.76" cy="130.919" rx="2.752" ry=".688"/><path d="M135.76 134.137c-1.646 0-3.12-.18-4.128-.467v8.257c1.009.286 2.484.468 4.128.468s3.12-.182 4.128-.468v-8.257c-1.008.287-2.483.467-4.128.467z"/><path d="M135.757 135.516l.306.532.439-.431.152.596.538-.296-.014.614.598-.138-.18.586.613.027-.331.517.583.192-.459.409.511.342-.552.268.399.467-.604.112.257.556-.611-.056.098.607-.574-.22-.069.611-.493-.368-.23.571-.377-.487-.376.487-.231-.571-.493.368-.07-.611-.573.22.098-.607-.611.056.257-.556-.604-.112.4-.467-.552-.268.51-.342-.459-.409.583-.192-.331-.517.613-.027-.179-.586.598.138-.015-.614.538.296.152-.596.439.431z"/></g><g><path d="M126.128 117.993v12.385c0 .759 2.464 1.376 5.504 1.376 3.041 0 5.505-.617 5.505-1.376v-12.385h-11.009z"/><path d="M126.128 117.534v12.385c0 .76 2.464 1.375 5.504 1.375 3.041 0 5.505-.615 5.505-1.375v-12.385h-11.009z"/><ellipse cx="131.632" cy="117.534" rx="5.504" ry="1.375"/><ellipse cx="131.632" cy="117.534" rx="4.128" ry="1.031"/><ellipse cx="131.632" cy="117.534" rx="2.752" ry=".688"/><path d="M131.632 120.753c-1.645 0-3.119-.183-4.127-.467v8.257c1.008.285 2.482.467 4.127.467s3.12-.182 4.128-.467v-8.257c-1.009.284-2.483.467-4.128.467z"/><path d="M131.629 122.131l.306.531.44-.43.15.596.539-.296-.014.614.597-.139-.179.588.613.027-.331.517.583.192-.458.407.51.342-.552.27.399.466-.605.112.258.556-.611-.054.098.605-.574-.221-.069.612-.493-.367-.231.57-.376-.486-.377.486-.231-.57-.492.367-.07-.612-.573.221.098-.605-.611.054.257-.556-.604-.112.399-.466-.551-.27.509-.342-.458-.407.583-.192-.331-.517.613-.027-.18-.588.598.139-.014-.614.538.296.152-.596.439.43z"/></g></g><g fill="#F1F1F2" stroke="#58595B" stroke-width=".5" stroke-miterlimit="10"><path d="M278.281 127.979s0-2.207-1.104-3.313c-1.104-1.104-2.208-1.503-2.208-5.918h-2.207c0 4.415-1.104 4.814-2.208 5.918s-1.104 3.313-1.104 3.313v15.455c0 .608 1.977 1.104 4.417 1.104 2.438 0 4.413-.495 4.413-1.104v-15.455h.001z"/><path d="M272.517 117.459v1.35c0 .188.604.338 1.352.338.743 0 1.349-.15 1.349-.338v-1.35h-2.701z"/><ellipse cx="273.866" cy="117.459" rx="1.35" ry=".338"/><path d="M277.178 138.287v-7.371c-.809.229-1.992.374-3.311.374-1.32 0-2.504-.146-3.313-.374v8.831c.81.229 1.992.374 3.313.374 1.317 0 2.502-.146 3.311-.374v-1.46z"/><circle cx="273.867" cy="134.326" r=".552"/><path d="M271.659 135.43h4.415v.553h-4.415zM272.763 136.533h2.207v.275h-2.207z"/></g><g fill="#F1F1F2" stroke="#58595B" stroke-width=".5" stroke-miterlimit="10"><path d="M261.331 126.271s0-2.207-1.104-3.313c-1.104-1.104-2.209-1.503-2.209-5.918h-2.207c0 4.415-1.104 4.814-2.208 5.918s-1.104 3.313-1.104 3.313v15.455c0 .608 1.977 1.104 4.416 1.104 2.438 0 4.415-.495 4.415-1.104v-.002l.001-15.453z"/><path d="M255.566 115.753v1.349c0 .188.604.338 1.351.338.745 0 1.35-.15 1.35-.338v-1.349h-2.701z"/><ellipse cx="256.916" cy="115.753" rx="1.35" ry=".337"/><path d="M260.228 136.58v-7.371c-.81.229-1.993.374-3.312.374-1.319 0-2.502-.146-3.313-.374v8.831c.812.229 1.993.374 3.313.374 1.317 0 2.502-.146 3.312-.374v-1.46z"/><circle cx="256.916" cy="132.618" r=".551"/><path d="M254.707 133.723h4.416v.553h-4.416zM255.812 134.826h2.207v.275h-2.207z"/></g><path fill="#F1F1F2" stroke="#58595B" stroke-width=".5" stroke-miterlimit="10" d="M72.057 30.405l-.328-.639 7.932-4.066 8.454 2.818-.227.682-8.169-2.723z"/><path fill="#F1F1F2" stroke="#58595B" stroke-width=".5" stroke-miterlimit="10" d="M79.332 26.116l-.272-3.58.358-.028c.126-.011 1.249-.143 1.157-1.348-.092-1.207-1.222-1.167-1.351-1.158-.125.011-1.248.143-1.156 1.349l-.716.054c-.118-1.558 1.139-2.067 1.819-2.119a2.32 2.32 0 0 1 .983.166c.476.194 1.058.638 1.135 1.652.078 1.016-.432 1.542-.871 1.807a2.327 2.327 0 0 1-.593.247l.221 2.901-.714.057zM88.092 28.037c.172 2.266-3.414 3.699-7.946 4.044-4.532.345-8.294-.528-8.466-2.794l-5.895 3.888 3.436 45.134 28.722-2.187-3.436-45.134-6.415-2.951z"/><path fill="#F1F1F2" stroke="#58595B" stroke-width=".5" stroke-miterlimit="10" d="M65.785 33.174l-5.217 12.778 6.31 1.584zM95.601 45.349l5.998-2.52-7.092-11.842zM80.068 31.056c-3.398.258-6.259-.909-6.389-2.609l-2 .84c.172 2.266 3.934 3.139 8.466 2.794 4.532-.345 8.118-1.778 7.946-4.044l-2.104-.528c.131 1.7-2.52 3.287-5.919 3.547zM84.519 26.855L76.58 23.52l-7.939 3.335-.278-.662 8.217-3.452 8.216 3.452z"/><path fill="#F1F1F2" stroke="#58595B" stroke-width=".5" stroke-miterlimit="10" d="M76.938 23.13h-.718v-3.59h.359c.127-.001 1.256-.048 1.256-1.257 0-1.221-1.128-1.256-1.256-1.256-.127.002-1.256.047-1.256 1.256h-.719c0-1.562 1.291-1.975 1.976-1.975.683 0 1.974.413 1.974 1.975 0 1.317-.918 1.817-1.615 1.941l-.001 2.906zM84.81 25.711c0 2.273-3.685 3.429-8.229 3.429-4.546 0-8.23-1.156-8.23-3.429l-6.173 3.429v45.265h28.805V29.141l-6.173-3.43zM62.177 29.141l-6.173 12.344 6.173 2.058z"/><path fill="#F1F1F2" stroke="#58595B" stroke-width=".5" stroke-miterlimit="10" d="M90.981 43.543l6.173-2.058-6.173-12.344zM76.58 28.112c-3.41 0-6.173-1.382-6.173-3.086l-2.058.686c0 2.273 3.685 3.429 8.23 3.429s8.229-1.156 8.229-3.429l-2.057-.686c.001 1.703-2.763 3.086-6.171 3.086z"/><g fill="#F1F1F2" stroke="#58595B" stroke-width=".5" stroke-miterlimit="10"><path d="M79.289 35.915v4.802l3.201 1.601 3.202-1.601v-4.802z"/><circle cx="82.491" cy="37.101" r=".67"/></g><g fill="#F1F1F2" stroke="#58595B" stroke-width=".5" stroke-miterlimit="10"><path d="M267.489 129.552s0-2.207-1.104-3.312c-1.104-1.104-2.209-1.504-2.209-5.918h-2.208c0 4.414-1.104 4.813-2.208 5.918-1.104 1.104-1.104 3.312-1.104 3.312v15.455c0 .609 1.978 1.104 4.415 1.104 2.438 0 4.416-.494 4.416-1.104v-15.455h.002z"/><path d="M261.725 119.033v1.35c0 .188.604.338 1.35.338.744 0 1.35-.15 1.35-.338v-1.35h-2.7z"/><ellipse cx="263.074" cy="119.033" rx="1.349" ry=".338"/><path d="M266.386 139.861v-7.372c-.81.229-1.992.375-3.313.375-1.317 0-2.502-.146-3.312-.375v8.831c.81.229 1.993.375 3.312.375 1.32 0 2.504-.146 3.313-.375v-1.459z"/><circle cx="263.074" cy="135.899" r=".552"/><path d="M260.865 137.003h4.416v.554h-4.416zM261.97 138.105h2.207v.276h-2.207z"/></g><g stroke="#58595B" stroke-width=".5" stroke-miterlimit="10"><path fill="#F1F1F2" d="M89.956 127.21h22.078v16.56H89.956z"/><path fill="#F1F1F2" d="M89.956 121.691h22.078v5.519H89.956z"/><path fill="#F1F1F2" d="M89.956 121.691l12.419 1.379v2.76l-12.419 1.38z"/><path fill="#F1F1F2" d="M112.034 121.691l-11.039 1.379v2.76l11.039 1.38z"/><ellipse fill="#F1F1F2" cx="100.995" cy="135.489" rx="6.898" ry="4.141"/><path fill="#F1F1F2" d="M92.716 133.42l1.035 2.069-1.035 2.072h16.558l-1.034-2.072 1.034-2.069z"/><path fill="none" d="M89.956 129.97h22.078M89.956 141.01h22.078"/></g><g stroke="#58595B" stroke-width=".5" stroke-miterlimit="10"><path fill="#F1F1F2" d="M73.202 130.042h22.077v16.56H73.202zM73.202 124.521h22.077v5.521H73.202z"/><path fill="#F1F1F2" d="M73.202 124.521l12.418 1.381v2.76l-12.418 1.38z"/><path fill="#F1F1F2" d="M95.28 124.521l-11.04 1.381v2.76l11.04 1.38z"/><ellipse fill="#F1F1F2" cx="84.241" cy="138.322" rx="6.898" ry="4.14"/><path fill="#F1F1F2" d="M75.961 136.252l1.035 2.07-1.035 2.071H92.52l-1.035-2.071 1.035-2.07z"/><path fill="none" d="M73.202 132.802H95.28M73.202 143.841H95.28"/></g><g stroke="#58595B" stroke-width=".5" stroke-miterlimit="10"><path fill="#F1F1F2" d="M80.305 111.342h22.078v16.559H80.305zM80.305 105.822h22.078v5.52H80.305z"/><path fill="#F1F1F2" d="M80.305 105.822l12.419 1.38v2.76l-12.419 1.38z"/><path fill="#F1F1F2" d="M102.383 105.822l-11.039 1.38v2.76l11.039 1.38z"/><ellipse fill="#F1F1F2" cx="91.344" cy="119.62" rx="6.9" ry="4.14"/><path fill="#F1F1F2" d="M83.065 117.552l1.035 2.068-1.035 2.071h16.558l-1.035-2.071 1.035-2.068z"/><path fill="none" d="M80.305 114.102h22.078M80.305 125.143h22.078"/></g><g fill="#F1F1F2" stroke="#58595B" stroke-width=".5" stroke-miterlimit="10"><path d="M70.994 114.71h211.949v2.208H70.994zM273.13 101.464H80.807l-9.813 13.246h211.949z"/></g><g stroke="#58595B" stroke-width=".5" stroke-miterlimit="10"><path fill="#F1F1F2" d="M215.743 84.878h38.499v3.726h-38.499z"/><ellipse fill="#F1F1F2" cx="243.227" cy="85.549" rx="4.393" ry="4.133"/><g fill="#F1F1F2"><path d="M242.791 82.167s1.096-2.558-2.923-2.923l2.923 2.923z"/><path d="M239.868 79.244l2.923 2.923s-2.558 1.096-2.923-2.923"/></g><path fill="none" d="M242.969 82.861s-.518-1.033.517-2.067"/><ellipse fill="#F1F1F2" cx="232.14" cy="80.447" rx="4.393" ry="4.134"/><g fill="#F1F1F2"><path d="M232.019 77.359s-2.626.921-2.72-3.113l2.72 3.113z"/><path d="M229.299 74.246l2.72 3.114s1.265-2.479-2.72-3.114"/></g><g fill="#F1F1F2"><path d="M232.01 77.391s.364-2.759 4.007-1.02l-4.007 1.02z"/><path d="M236.017 76.371l-4.007 1.02s1.638 2.249 4.007-1.02"/></g><path fill="none" d="M231.883 77.967s.516-1.034-.519-2.066"/><ellipse fill="#F1F1F2" cx="238.811" cy="82.654" rx="4.394" ry="4.134"/><g fill="#F1F1F2"><path d="M239.246 79.273s-1.097-2.558 2.924-2.922l-2.924 2.922z"/><path d="M242.17 76.351l-2.924 2.922s2.559 1.096 2.924-2.922"/></g><path fill="none" d="M239.068 79.967s.519-1.034-.516-2.067"/><ellipse transform="rotate(-117.465 225.768 81.103)" fill="#F1F1F2" cx="225.766" cy="81.105" rx="4.134" ry="4.392"/><g fill="#F1F1F2"><path d="M223.979 78.114s-.574 1.839-2.854.222l2.854-.222z"/><path d="M221.125 78.336l2.854-.222s-.853-1.727-2.854.222"/></g><g fill="#F1F1F2"><path d="M224.099 78.183s-1.146-1.55 1.505-2.434l-1.505 2.434zM225.604 75.749l-1.505 2.434s1.896.333 1.505-2.434"/></g><path fill="none" d="M224.106 78.471s-.019-1.155-1.412-1.596"/><ellipse transform="scale(-1) rotate(37.435 255.748 -652.028)" fill="#F1F1F2" cx="220.934" cy="86.659" rx="4.134" ry="4.393"/><g fill="#F1F1F2"><path d="M218.521 84.263s-2.695-.685-.543-4.098l.543 4.098zM217.978 80.165l.543 4.098s2.425-1.365-.543-4.098"/></g><path fill="none" d="M218.964 84.825s-.506-1.039-1.955-.846"/><ellipse fill="#F1F1F2" cx="227.726" cy="87.54" rx="4.394" ry="4.133"/><g fill="#F1F1F2"><path d="M227.517 84.065s-1.357 1.366-2.633-1.119l2.633 1.119z"/><path d="M224.884 82.946l2.633 1.119s.041-1.927-2.633-1.119"/></g><g fill="#F1F1F2"><path d="M227.591 84.181s-.3-1.903 2.459-1.465l-2.459 1.465z"/><path d="M230.05 82.715l-2.459 1.465c0 .001 1.531 1.171 2.459-1.465"/></g><path fill="none" d="M227.466 84.439s.518-1.033-.516-2.067"/><ellipse transform="rotate(-44.667 235.93 87.629)" fill="#F1F1F2" cx="235.918" cy="87.632" rx="4.134" ry="4.392"/><g fill="#F1F1F2"><path d="M238.255 85.032s-1.926-.004-1.056-2.66l1.056 2.66z"/><path d="M237.199 82.373l1.056 2.66c0-.001 1.399-1.326-1.056-2.66"/></g><g fill="#F1F1F2"><path d="M238.226 85.167s1.142-1.552 2.771.718l-2.771-.718zM240.995 85.885l-2.771-.718c.002 0 .245 1.911 2.771.718"/></g><path fill="none" d="M237.953 85.26s1.098-.359 1.105-1.821"/><g><ellipse transform="scale(-1) rotate(-37.446 -270.774 731.144)" fill="#F1F1F2" cx="247.801" cy="91.775" rx="4.134" ry="4.392"/><g fill="#F1F1F2"><path d="M250.223 89.365s2.697-.685.543-4.099l-.543 4.099zM250.766 85.266l-.543 4.099s-2.425-1.365.543-4.099"/></g><path fill="none" d="M249.779 89.927s.507-1.039 1.955-.847"/></g><g><ellipse fill="#F1F1F2" cx="241.019" cy="92.642" rx="4.393" ry="4.134"/><g fill="#F1F1F2"><path d="M241.227 89.167s1.358 1.367 2.634-1.119l-2.634 1.119zM243.86 88.047l-2.634 1.119c.001.001-.04-1.926 2.634-1.119"/></g><g fill="#F1F1F2"><path d="M241.152 89.282s.302-1.903-2.459-1.465l2.459 1.465z"/><path d="M238.693 87.817l2.459 1.465s-1.531 1.171-2.459-1.465"/></g><path fill="none" d="M241.277 89.541s-.518-1.033.518-2.066"/></g><g><ellipse transform="rotate(44.676 232.819 92.74)" fill="#F1F1F2" cx="232.816" cy="92.735" rx="4.133" ry="4.392"/><g fill="#F1F1F2"><path d="M230.488 90.134s1.929-.005 1.058-2.66l-1.058 2.66zM231.545 87.475l-1.058 2.66c.001-.001-1.396-1.326 1.058-2.66"/></g><g fill="#F1F1F2"><path d="M230.519 90.269s-1.142-1.552-2.771.719l2.771-.719z"/><path d="M227.748 90.987l2.771-.719c0 .001-.245 1.912-2.771.719"/></g><path fill="none" d="M230.791 90.362s-1.1-.359-1.107-1.821"/></g><g><ellipse fill="#F1F1F2" cx="227.772" cy="92.642" rx="4.393" ry="4.134"/><g fill="#F1F1F2"><path d="M227.98 89.167s1.357 1.367 2.634-1.119l-2.634 1.119zM230.614 88.047l-2.634 1.119c0 .001-.041-1.926 2.634-1.119"/></g><g fill="#F1F1F2"><path d="M227.905 89.282s.302-1.903-2.459-1.465l2.459 1.465z"/><path d="M225.446 87.817l2.459 1.465s-1.53 1.171-2.459-1.465"/></g><path fill="none" d="M228.03 89.541s-.517-1.033.518-2.066"/></g><g><ellipse transform="rotate(44.676 221.275 92.722)" fill="#F1F1F2" cx="221.272" cy="92.717" rx="4.134" ry="4.392"/><g fill="#F1F1F2"><path d="M218.952 90.134s1.927-.005 1.057-2.66l-1.057 2.66z"/><path d="M220.009 87.475l-1.057 2.66c0-.001-1.398-1.326 1.057-2.66"/></g><g fill="#F1F1F2"><path d="M218.982 90.269s-1.143-1.552-2.771.719l2.771-.719z"/><path d="M216.212 90.987l2.771-.719c-.001.001-.245 1.912-2.771.719"/></g><path fill="none" d="M219.254 90.362s-1.099-.359-1.106-1.821"/></g><circle fill="#F1F1F2" cx="221.125" cy="101.464" r="4.416"/><circle fill="#F1F1F2" cx="224.437" cy="98.152" r="3.312"/><circle fill="#F1F1F2" cx="228.853" cy="102.567" r="3.312"/><circle fill="#F1F1F2" cx="228.853" cy="98.152" r="3.312"/><circle fill="#F1F1F2" cx="236.58" cy="99.256" r="4.416"/><circle fill="#F1F1F2" cx="243.204" cy="99.256" r="4.416"/><circle fill="#F1F1F2" cx="238.787" cy="103.671" r="2.208"/><circle fill="#F1F1F2" cx="233.268" cy="98.152" r="3.311"/><circle fill="#F1F1F2" cx="237.684" cy="95.944" r="3.312"/><circle fill="#F1F1F2" cx="246.515" cy="95.944" r="3.312"/><path fill="#F1F1F2" d="M214.502 89.846h39.74v3.726h-39.74zM214.502 96.055h39.74v3.726h-39.74zM214.502 102.265h39.74v3.727h-39.74z"/><path fill="#F1F1F2" d="M214.502 92.33h1.241v4.967h-1.241zM214.502 98.539h1.241v4.968h-1.241zM253 92.33h1.242v4.967H253zM253 98.539h1.242v4.968H253zM214.502 105.991h39.74v1.241h-39.74zM214.502 84.878h1.241v4.967h-1.241zM253 84.878h1.242v4.967H253z"/></g><g fill="#F1F1F2" stroke="#58595B" stroke-width=".5" stroke-miterlimit="10"><circle cx="85.133" cy="92.632" r="11.039"/><ellipse cx="85.133" cy="82.819" rx="4.906" ry="1.227"/><path d="M90.04 102.445h-9.813L79 103.671c0 .847 2.746 1.533 6.133 1.533s6.133-.686 6.133-1.533l-1.226-1.226z"/><ellipse cx="85.133" cy="102.445" rx="4.906" ry="1.226"/><ellipse cx="81.471" cy="95.324" rx="1.893" ry="1.262"/><path d="M79.578 95.324l-1.261-1.261v2.523zM83.363 95.324l1.262-1.261v2.523z"/><ellipse transform="scale(-1) rotate(63.486 152.798 -141.985)" cx="87.834" cy="94.526" rx="1.262" ry="1.892"/><path d="M86.145 95.376l-1.693-.565 1.126 2.258zM89.53 93.687l.567-1.692 1.126 2.257z"/><ellipse transform="rotate(-73.256 85.741 90.275)" cx="85.74" cy="90.275" rx="1.261" ry="1.892"/><path d="M83.928 89.722l-.845-1.572-.727 2.416zM87.552 90.813l1.572-.844-.728 2.415z"/><ellipse transform="rotate(-73.256 88.073 97.657)" cx="88.073" cy="97.657" rx="1.261" ry="1.892"/><path d="M86.259 97.118l-.845-1.572-.727 2.416zM89.883 98.209l1.572-.844-.728 2.416z"/><g><ellipse transform="rotate(-132.836 90.51 98.399)" cx="90.51" cy="98.398" rx="1.262" ry="1.892"/><path d="M89.124 99.681l-1.783-.068 1.715 1.851zM91.899 97.107l.068-1.783 1.715 1.85z"/></g><g><path d="M77.841 96.034s.103-.622.726-.519l3.733.619s.623.103.52.726l-.207 1.245s-.103.623-.726.519l-3.733-.619s-.623-.104-.52-.727l.207-1.244zM77.737 96.656l-1.66-1.554.277.898-.483.346.346.484-.552.761z"/><path d="M82.716 97.481l1.66 1.555-.276-.898.483-.347-.346-.483.552-.761z"/></g><g><path d="M80.693 99.221s.183-.604.786-.421l3.623 1.095s.604.183.421.787l-.364 1.207s-.184.604-.787.422l-3.623-1.096s-.604-.183-.421-.787l.365-1.207zM80.51 99.824l-1.447-1.755.16.927-.525.281.281.524-.646.683z"/><path d="M85.34 101.285l1.447 1.756-.159-.928.524-.28-.281-.524.646-.684z"/></g><g><path d="M77.346 91.121s.183-.604.787-.422l3.622 1.096s.604.182.422.786l-.365 1.207s-.182.604-.787.422l-3.623-1.096s-.604-.183-.421-.786l.365-1.207zM77.163 91.725l-1.446-1.756.159.927-.524.281.281.524-.647.683z"/><path d="M81.994 93.185l1.445 1.756-.158-.927.524-.281-.281-.525.646-.683z"/></g><g><path d="M93.099 92.05s.513.368.146.88l-2.207 3.076s-.368.512-.88.145l-1.025-.735s-.513-.368-.146-.88l2.206-3.075s.368-.513.881-.145l1.025.734zM92.587 91.683l2.128-.803-.928-.148-.097-.587-.587.097-.438-.832zM89.645 95.784l-2.128.801.929.149.096.587.587-.097.438.832z"/></g><g><ellipse transform="scale(-1) rotate(72.62 134.405 -115.24)" cx="84.679" cy="98.761" rx="1.262" ry="1.892"/><path d="M82.877 99.329l-1.581-.828.753 2.409zM86.489 98.2l.829-1.581.753 2.409z"/></g></g><path fill="#F1F1F2" stroke="#58595B" stroke-width=".5" stroke-miterlimit="10" d="M199.048 101.022h-46.365l2.453-6.955h41.458zM152.683 101.022h46.365v9.272h-46.365z"/><path fill="#F1F1F2" stroke="#58595B" stroke-width=".5" stroke-miterlimit="10" d="M185.137 97.852h-18.545l.491-2.644h17.564zM166.592 97.852h18.545v1.159h-18.545z"/><path fill="#F1F1F2" stroke="#58595B" stroke-width=".5" stroke-miterlimit="10" d="M171.228 86.009h9.273v10.376h-9.273z"/><path fill="#D0D2D3" stroke="#58595B" stroke-width=".5" stroke-miterlimit="10" d="M200.342 120.727h-48.954l2.453-18.545h44.047z"/><path fill="#F1F1F2" stroke="#58595B" stroke-width=".5" stroke-miterlimit="10" d="M152.547 120.727h-1.159l2.453-18.545h1.16zM200.342 120.727h-1.16l-2.453-18.545h1.159z"/><path fill="none" stroke="#58595B" stroke-width=".5" stroke-miterlimit="10" d="M155.001 102.182v3.476h41.728v-3.476"/><g fill="#F1F1F2" stroke="#58595B" stroke-width=".5" stroke-miterlimit="10"><path d="M162.865 104.507h7.018v7.38h-7.018z"/><path d="M164.18 111.656s0-.461-.877-.461v-5.997s.877 0 .877-.461h4.386s0 .461.877.461v5.997s-.877 0-.877.461h-4.386z"/><ellipse cx="166.373" cy="108.196" rx="2.559" ry="1.614"/><ellipse cx="166.373" cy="108.196" rx="2.266" ry="1.43"/><ellipse cx="166.373" cy="110.503" rx=".438" ry=".229"/><ellipse cx="166.373" cy="105.89" rx=".438" ry=".231"/><path d="M162.865 111.887h7.018v.23h-7.018zM162.865 112.117h7.018v.23h-7.018zM162.865 112.348h7.018v.231h-7.018zM162.865 112.579h7.018v.229h-7.018zM155.626 104.507h7.018v7.38h-7.018z"/><path d="M156.942 111.656s0-.461-.877-.461v-5.997s.877 0 .877-.461h4.387s0 .461.877.461v5.997s-.877 0-.877.461h-4.387z"/><ellipse cx="159.135" cy="108.196" rx="2.558" ry="1.614"/><ellipse cx="159.135" cy="108.196" rx="2.266" ry="1.43"/><ellipse cx="159.135" cy="110.503" rx=".438" ry=".229"/><ellipse cx="159.135" cy="105.89" rx=".438" ry=".231"/><path d="M155.626 111.887h7.018v.23h-7.018zM155.626 112.117h7.018v.23h-7.018zM155.626 112.348h7.018v.231h-7.018zM155.626 112.579h7.018v.229h-7.018zM170.32 104.507h7.019v7.38h-7.019z"/><path d="M171.636 111.656s0-.461-.877-.461v-5.997s.877 0 .877-.461h4.386s0 .461.877.461v5.997s-.877 0-.877.461h-4.386z"/><ellipse cx="173.829" cy="108.196" rx="2.559" ry="1.614"/><ellipse cx="173.829" cy="108.196" rx="2.266" ry="1.43"/><ellipse cx="173.829" cy="110.503" rx=".438" ry=".229"/><ellipse cx="173.829" cy="105.89" rx=".438" ry=".231"/><path d="M170.32 111.887h7.019v.23h-7.019zM170.32 112.117h7.019v.23h-7.019zM170.32 112.348h7.019v.231h-7.019zM170.32 112.579h7.019v.229h-7.019zM177.776 104.507h7.018v7.38h-7.018z"/><path d="M179.092 111.656s0-.461-.877-.461v-5.997s.877 0 .877-.461h4.386s0 .461.877.461v5.997s-.877 0-.877.461h-4.386z"/><ellipse cx="181.285" cy="108.196" rx="2.558" ry="1.614"/><ellipse cx="181.285" cy="108.196" rx="2.266" ry="1.43"/><ellipse cx="181.285" cy="110.503" rx=".438" ry=".229"/><ellipse cx="181.285" cy="105.89" rx=".438" ry=".231"/><path d="M177.776 111.887h7.018v.23h-7.018zM177.776 112.117h7.018v.23h-7.018zM177.776 112.348h7.018v.231h-7.018zM177.776 112.579h7.018v.229h-7.018z"/><g><path d="M188.539 110.202c-.17-.349-.771-.604-1.481-.604s-1.311.256-1.479.604h-.049v.2c0 .442.685.803 1.527.803.845 0 1.529-.359 1.529-.803v-.2h-.047z"/><ellipse cx="187.059" cy="110.202" rx="1.528" ry=".803"/><ellipse cx="187.058" cy="110.202" rx="1.146" ry=".603"/></g><g><path d="M190.066 109.396c-.17-.347-.769-.603-1.479-.603-.713 0-1.312.256-1.48.603h-.049v.201c0 .444.687.805 1.529.805s1.526-.359 1.526-.805v-.201h-.047z"/><ellipse cx="188.586" cy="109.397" rx="1.527" ry=".805"/><ellipse cx="188.587" cy="109.397" rx="1.146" ry=".604"/></g><g><path d="M191.977 111.708c-.17-.347-.769-.603-1.479-.603s-1.311.256-1.479.603h-.048v.201c0 .444.685.803 1.527.803.845 0 1.527-.358 1.527-.803v-.201h-.048z"/><ellipse cx="190.497" cy="111.708" rx="1.527" ry=".804"/><ellipse cx="190.497" cy="111.708" rx="1.146" ry=".603"/></g><g><path d="M193.505 108.193c-.169-.349-.769-.604-1.48-.604s-1.31.256-1.479.604h-.049v.199c0 .443.685.805 1.527.805.844 0 1.528-.36 1.528-.805v-.199h-.047z"/><ellipse cx="192.024" cy="108.193" rx="1.528" ry=".803"/><ellipse cx="192.024" cy="108.193" rx="1.146" ry=".602"/></g><g><path d="M188.539 106.786c-.17-.347-.771-.603-1.481-.603s-1.311.256-1.479.603h-.049v.2c0 .443.685.805 1.527.805.845 0 1.529-.359 1.529-.805v-.2h-.047z"/><ellipse cx="187.059" cy="106.786" rx="1.528" ry=".804"/><ellipse cx="187.058" cy="106.786" rx="1.146" ry=".603"/></g><g><path d="M193.887 109.297c-.169-.346-.768-.604-1.479-.604-.712 0-1.313.258-1.479.604h-.05v.201c0 .443.685.804 1.529.804.844 0 1.526-.358 1.526-.804v-.201h-.047z"/><ellipse cx="192.406" cy="109.297" rx="1.528" ry=".805"/><ellipse cx="192.407" cy="109.297" rx="1.146" ry=".604"/></g><g><path d="M190.066 111.607c-.17-.348-.769-.604-1.479-.604-.713 0-1.312.256-1.48.604h-.049v.201c0 .443.687.803 1.529.803s1.526-.358 1.526-.803v-.201h-.047z"/><ellipse cx="188.586" cy="111.607" rx="1.527" ry=".804"/><ellipse cx="188.587" cy="111.607" rx="1.146" ry=".604"/></g><g><path d="M192.358 109.801c-.17-.348-.768-.604-1.479-.604-.711 0-1.311.256-1.479.604h-.048v.2c0 .442.686.804 1.527.804.844 0 1.529-.359 1.529-.804v-.2h-.05z"/><ellipse cx="190.879" cy="109.801" rx="1.528" ry=".803"/><ellipse cx="190.879" cy="109.801" rx="1.146" ry=".602"/></g><g><path d="M192.358 107.188c-.17-.346-.768-.602-1.479-.602-.711 0-1.311.256-1.479.602h-.048v.201c0 .444.686.805 1.527.805.844 0 1.529-.359 1.529-.805v-.201h-.05z"/><ellipse cx="190.879" cy="107.188" rx="1.528" ry=".804"/><ellipse cx="190.879" cy="107.188" rx="1.146" ry=".604"/></g><g><path d="M196.179 110.904c-.169-.346-.768-.603-1.479-.603-.712 0-1.312.257-1.48.603h-.048v.201c0 .443.684.804 1.528.804s1.526-.359 1.526-.804v-.201h-.047z"/><ellipse cx="194.699" cy="110.904" rx="1.527" ry=".804"/><ellipse cx="194.699" cy="110.904" rx="1.146" ry=".604"/></g><g><path d="M162.412 105.07l4.18 5.457-6.576 1.19-4.18-5.456z"/><path d="M161.118 111.324s-.262-.342-1.083-.193l-3.397-4.434s.823-.148.563-.489l4.108-.744s.262.343 1.083.191l3.397 4.435s-.822.148-.562.489l-4.109.745z"/><path d="M160.299 107.2c1.324-.24 2.807.1 3.313.76.505.659-.159 1.388-1.482 1.628-1.324.238-2.808-.102-3.313-.761-.506-.659.159-1.388 1.482-1.627z"/><path d="M160.404 107.336c1.174-.213 2.485.09 2.934.674s-.141 1.229-1.313 1.441-2.484-.09-2.933-.674.139-1.229 1.312-1.441zM162.39 109.93c.228-.041.469.002.542.096.072.095-.053.203-.28.244-.228.043-.47-.002-.542-.097-.072-.094.053-.204.28-.243zM159.776 106.518c.228-.041.471.002.542.097.073.095-.053.204-.278.245-.229.041-.471-.002-.542-.096-.074-.096.051-.205.278-.246z"/></g></g><path fill="#F1F1F2" stroke="#58595B" stroke-width=".5" stroke-miterlimit="10" d="M151.388 114.932h48.954v6.954h-48.954zM151.388 113.771h48.954v1.158h-48.954z"/><path fill="#F1F1F2" stroke="#58595B" stroke-width=".5" stroke-miterlimit="10" d="M171.228 117.25h9.273v1.158h-9.273zM152.683 60.398h46.365v27.818h-46.365z"/><path fill="#D85039" stroke="#58595B" stroke-width=".5" stroke-miterlimit="10" d="M153.841 61.557h44.046v25.5h-44.046z"/><path fill="none" stroke="#58595B" stroke-width=".5" stroke-miterlimit="10" d="M155.001 105.658l-.736 8.113M196.729 105.658l.735 8.113"/><path fill="#D85039" stroke="#58595B" stroke-width=".5" stroke-miterlimit="10" d="M163.819 75.92c3.455 0 6.256-2.8 6.256-6.254h-6.256v6.254z"/><path fill="#F1F1F2" stroke="#58595B" stroke-width=".5" stroke-miterlimit="10" d="M163.819 69.666h6.256c0-1.728-.7-3.292-1.832-4.424l-4.424 4.424z"/><path fill="#FFF" stroke="#58595B" stroke-width=".5" stroke-miterlimit="10" d="M163.819 63.41v6.256l4.424-4.424a6.232 6.232 0 0 0-4.424-1.832z"/><path fill="#D85039" stroke="#58595B" stroke-width=".5" stroke-miterlimit="10" d="M157.564 69.666c0 3.455 2.8 6.254 6.255 6.254V63.41a6.255 6.255 0 0 0-6.255 6.256z"/><path fill="#F1F1F2" stroke="#58595B" stroke-width=".5" stroke-miterlimit="10" d="M190.926 66.21l-2.085 4.621-4.171-1.541-4.169 4.621-2.085-1.541-4.171 3.08h20.852z"/><circle fill="#F1F1F2" stroke="#58595B" stroke-width=".5" stroke-miterlimit="10" cx="159.649" cy="82.605" r="2.085"/><circle fill="#D85039" stroke="#58595B" stroke-width=".5" stroke-miterlimit="10" cx="165.905" cy="82.605" r="2.085"/><path fill="#D85039" stroke="#58595B" stroke-width=".5" stroke-miterlimit="10" d="M176.331 83.341h4.17v2.085h-4.17z"/><path fill="#F1F1F2" stroke="#58595B" stroke-width=".5" stroke-miterlimit="10" d="M182.586 81.256h4.17v4.17h-4.17z"/><path fill="#FFF" stroke="#58595B" stroke-width=".5" stroke-miterlimit="10" d="M188.841 79.171h4.17v6.255h-4.17z"/><g fill="#FFF"><path d="M158.567 77.393h4.517v.501h-4.517z"/><circle cx="157.815" cy="77.644" r=".251"/></g><g fill="#FFF"><path d="M178.438 71.464h2.618v.501h-2.618z"/><circle cx="177.685" cy="71.715" r=".251"/></g><g fill="#FFF"><path d="M184.53 68.316h2.618v.501h-2.618z"/><circle cx="183.777" cy="68.567" r=".25"/></g><g fill="#FFF"><path d="M190.907 64.991h2.618v.502h-2.618z"/><circle cx="190.156" cy="65.243" r=".25"/></g><path fill="#FFF" d="M157.649 85.426h1.924v.502h-1.924zM160.134 85.426h1.079v.502h-1.079zM163.997 85.426h2.949v.502h-2.949z"/><g fill="#FFF"><path d="M175.227 77.423h1.38v.276h-1.38zM176.883 77.423h1.104v.276h-1.104zM178.262 77.423h1.38v.276h-1.38zM175.227 77.975h1.933v.276h-1.933zM177.435 77.975h2.208v.276h-2.208zM175.227 78.527h1.38v.276h-1.38zM176.883 78.527h1.379v.276h-1.379z"/></g><path fill="#F1F1F2" stroke="#58595B" stroke-width=".5" stroke-miterlimit="10" d="M66.579 9.717h4.415v161.906h-4.415zM282.943 9.717h4.416v161.906h-4.416z"/><path fill="#F1F1F2" stroke="#58595B" stroke-width=".5" stroke-miterlimit="10" d="M66.579 5.302h220.78v4.416H66.579z"/><g fill="#F1F1F2" stroke="#58595B" stroke-width=".5" stroke-miterlimit="10"><path d="M260.297 75.698s8.277-3.489 11.773 4.808c3.498 8.297-4.778 11.786-4.778 11.786s-8.276 3.489-11.774-4.808c-3.497-8.297 4.779-11.786 4.779-11.786z"/><path d="M261.171 77.772s8.275-3.489 10.899 2.734c2.622 6.222-5.652 9.711-5.652 9.711s-8.276 3.489-10.9-2.734c-2.622-6.222 5.653-9.711 5.653-9.711z"/><path d="M262.482 80.883s8.276-3.489 9.589-.377c1.313 3.111-6.965 6.601-6.965 6.601s-8.275 3.489-9.589.377c-1.311-3.112 6.965-6.601 6.965-6.601zM242.236 89.294h38.5v3.726h-38.5z"/><path d="M260.414 88.842s7.902-7.903 14.929-.878c7.026 7.025-.879 14.929-.879 14.929s-7.903 7.904-14.929.878c-7.024-7.025.879-14.929.879-14.929z"/><path d="M262.17 90.599s7.902-7.903 13.173-2.635c5.268 5.269-2.636 13.172-2.636 13.172s-7.901 7.903-13.172 2.635c-5.268-5.27 2.635-13.172 2.635-13.172z"/><path d="M264.806 93.233s7.901-7.904 10.537-5.269c2.634 2.635-5.271 10.538-5.271 10.538s-7.902 7.904-10.537 5.269 5.271-10.538 5.271-10.538z"/><path d="M246.567 103.853s-3.49-8.276 3.865-11.379 10.848 5.172 10.848 5.172 3.49 8.275-3.864 11.377c-7.357 3.105-10.849-5.17-10.849-5.17z"/><path d="M248.406 103.077s-3.489-8.275 2.026-10.603c5.517-2.328 9.008 5.948 9.008 5.948s3.492 8.275-2.024 10.604c-5.518 2.328-9.01-5.949-9.01-5.949z"/><path d="M251.165 101.913s-3.49-8.275-.732-9.439c2.759-1.164 6.249 7.111 6.249 7.111s3.492 8.276.733 9.438c-2.758 1.165-6.25-7.11-6.25-7.11z"/><path d="M249.581 82.216s8.275-3.489 11.377 3.868-5.175 10.846-5.175 10.846-8.276 3.488-11.379-3.868c-3.099-7.357 5.177-10.846 5.177-10.846z"/><path d="M250.355 84.055s8.276-3.489 10.604 2.028c2.326 5.518-5.951 9.007-5.951 9.007s-8.275 3.489-10.603-2.029c-2.326-5.517 5.95-9.006 5.95-9.006z"/><path d="M251.519 86.814s8.276-3.489 9.439-.73-7.112 6.248-7.112 6.248-8.276 3.489-9.44.73c-1.163-2.759 7.113-6.248 7.113-6.248z"/><path d="M240.995 94.261h39.74v3.726h-39.74zM240.995 100.471h39.74v3.726h-39.74zM240.995 106.682h39.74v3.726h-39.74z"/><path d="M240.995 96.746h1.24v4.967h-1.24zM240.995 102.955h1.24v4.968h-1.24zM279.494 96.746h1.241v4.967h-1.241zM279.494 102.955h1.241v4.968h-1.241zM240.995 110.406h39.74v1.242h-39.74zM240.995 89.294h1.24v4.967h-1.24zM279.494 89.294h1.241v4.967h-1.241z"/></g><g fill="#F1F1F2" stroke="#58595B" stroke-width=".5" stroke-miterlimit="10"><circle cx="86.54" cy="105.603" r="3.588"/><ellipse transform="rotate(-122.881 87.366 105.048)" cx="87.369" cy="105.047" rx="1.932" ry="1.656"/><circle cx="76.053" cy="106.155" r="3.588"/><circle cx="74.949" cy="107.259" r="1.932"/><circle cx="80.469" cy="108.914" r="3.587"/><circle cx="81.021" cy="108.363" r="1.932"/></g><g stroke="#58595B" stroke-width=".5" stroke-miterlimit="10"><path fill="#F1F1F2" d="M140.509 105.414s0-.284.485-.284h6.788s.484 0 .484.284v7.381s0 .284-.484.284h-6.788s-.485 0-.485-.284v-7.381z"/><path fill="#F1F1F2" d="M140.509 105.145s0-.283.485-.283h6.788s.484 0 .484.283v7.38s0 .285-.484.285h-6.788s-.485 0-.485-.285v-7.38z"/><path fill="#D85039" d="M140.509 105.429h7.758v6.529h-7.758z"/><ellipse fill="#F1F1F2" cx="144.388" cy="112.368" rx=".485" ry=".284"/><g fill="#F1F1F2"><ellipse cx="141.937" cy="105.166" rx=".243" ry=".142"/><ellipse cx="141.937" cy="105.166" rx=".121" ry=".072"/><path d="M142.866 105.167s0-.084.145-.084h2.742s.144 0 .144.084c0 0 0 .084-.144.084h-2.742s-.145 0-.145-.084z"/></g></g><g fill="#F1F1F2" stroke="#58595B" stroke-width=".5" stroke-miterlimit="10"><ellipse cx="239.252" cy="135.318" rx="12.767" ry="3.192"/><path d="M231.957 129.848v5.471c0 1.009 3.267 1.826 7.296 1.826s7.296-.817 7.296-1.826v-5.471h-14.592z"/><ellipse cx="239.253" cy="129.848" rx="7.296" ry="1.824"/><path d="M239.253 135.318c-4.029 0-7.296-.815-7.296-1.823v1.823c0 1.008 3.267 1.824 7.296 1.824s7.296-.816 7.296-1.824v-1.823c0 1.008-3.267 1.823-7.296 1.823z"/><g><ellipse cx="239.252" cy="133.356" rx="12.767" ry="3.192"/><path d="M231.957 127.886v5.472c0 1.008 3.267 1.824 7.296 1.824s7.296-.816 7.296-1.824v-5.472h-14.592z"/><ellipse cx="239.253" cy="127.886" rx="7.296" ry="1.823"/><path d="M239.253 133.355c-4.029 0-7.296-.815-7.296-1.822v1.822c0 1.009 3.267 1.824 7.296 1.824s7.296-.815 7.296-1.824v-1.822c0 1.007-3.267 1.822-7.296 1.822z"/></g><g><ellipse cx="239.252" cy="131.389" rx="12.767" ry="3.191"/><path d="M231.957 125.917v5.472c0 1.008 3.267 1.824 7.296 1.824s7.296-.816 7.296-1.824v-5.472h-14.592z"/><ellipse cx="239.253" cy="125.917" rx="7.296" ry="1.823"/><path d="M239.253 131.389c-4.029 0-7.296-.814-7.296-1.822v1.822c0 1.008 3.267 1.824 7.296 1.824s7.296-.816 7.296-1.824v-1.822c0 1.006-3.267 1.822-7.296 1.822z"/></g><g><ellipse transform="scale(-1) rotate(61.477 229.875 -413.001)" cx="245.585" cy="136.697" rx="3.192" ry="12.767"/><path d="M236.571 135.376l2.613 4.808c.48.887 3.74.043 7.281-1.882 3.54-1.924 6.02-4.2 5.538-5.087l-2.613-4.807-12.819 6.968z"/><ellipse transform="rotate(-118.529 242.983 131.878)" cx="242.987" cy="131.88" rx="1.824" ry="7.295"/><path d="M245.594 136.7c-3.54 1.924-6.8 2.766-7.281 1.881l.872 1.603c.48.887 3.74.043 7.281-1.882 3.54-1.924 6.02-4.2 5.538-5.087l-.871-1.602c.481.885-1.999 3.162-5.539 5.087z"/></g></g><g stroke="#58595B" stroke-width=".5" stroke-miterlimit="10"><path fill="#F1F1F2" d="M219.867 128.232h-.14c-2.759-.551-6.069 0-6.069 0l.001.065a2.663 2.663 0 0 0-1.104-.012l.001-.054s-3.311-.553-6.07 0h-.138v1.656h.255c.08.586.213 1.209.437 1.653 0 0 .551 1.104 2.207 1.104 2.063 0 3.161-.965 3.297-3.795.3-.066.7-.105 1.13-.013.134 2.838 1.231 3.808 3.298 3.808 1.656 0 2.207-1.104 2.207-1.104.223-.444.354-1.067.435-1.653h.257v-1.656h-.004z"/><path fill="#BBBDBF" d="M206.817 128.462s0 1.966.492 2.949c0 0 .49.981 1.966.981 1.966 0 2.947-.981 2.947-3.932.001.002-2.947-.489-5.405.002zM219.397 128.462s0 1.966-.492 2.949c0 0-.489.981-1.965.981-1.966 0-2.947-.981-2.947-3.932-.001.002 2.947-.489 5.404.002z"/><path fill="#F1F1F2" d="M206.179 128.604v1.102l10.851.062 2.025 1.593.888-.888-2.361-1.35z"/><path fill="#F1F1F2" d="M219.943 128.604v1.102l-10.851.062-2.024 1.593-.889-.888 2.36-1.35z"/><path fill="#F1F1F2" d="M220.356 129.46h-.137c-2.759-.551-6.07 0-6.07 0l.001.065a2.629 2.629 0 0 0-1.104-.012l.001-.055s-3.312-.551-6.07 0h-.137v1.656h.255c.079.586.213 1.21.435 1.654 0 0 .553 1.104 2.207 1.104 2.063 0 3.162-.965 3.297-3.795a2.71 2.71 0 0 1 1.133-.014c.131 2.841 1.229 3.809 3.297 3.809 1.655 0 2.207-1.104 2.207-1.104.223-.444.354-1.068.434-1.654h.255v-1.655h-.004z"/><path fill="#BBBDBF" d="M207.309 129.688s0 1.968.491 2.951c0 0 .491.981 1.967.981 1.965 0 2.947-.981 2.947-3.933 0 .001-2.947-.49-5.405.001zM219.888 129.688s0 1.968-.491 2.951c0 0-.491.981-1.965.981-1.967 0-2.949-.981-2.949-3.933-.001.001 2.949-.49 5.405.001z"/><path fill="#F1F1F2" d="M206.67 129.828v1.106l10.851.059 2.024 1.595.89-.889-2.362-1.349z"/><path fill="#F1F1F2" d="M220.435 129.828v1.106l-10.853.059-2.023 1.595-.889-.889 2.36-1.349z"/><g><path fill="#F1F1F2" d="M220.356 130.688h-.137c-2.759-.552-6.07 0-6.07 0l.001.064a2.646 2.646 0 0 0-1.104-.012l.001-.053s-3.312-.553-6.07 0h-.137v1.654h.255c.079.586.213 1.21.435 1.654 0 0 .553 1.104 2.207 1.104 2.063 0 3.162-.964 3.297-3.793a2.71 2.71 0 0 1 1.133-.014c.131 2.84 1.229 3.807 3.297 3.807 1.655 0 2.207-1.104 2.207-1.104.223-.444.354-1.068.434-1.654h.255v-1.654h-.004z"/><path fill="#BBBDBF" d="M207.309 130.915s0 1.966.491 2.949c0 0 .491.981 1.967.981 1.965 0 2.947-.981 2.947-3.932 0 .002-2.947-.489-5.405.002zM219.888 130.915s0 1.966-.491 2.949c0 0-.491.981-1.965.981-1.967 0-2.949-.981-2.949-3.932-.001.002 2.949-.489 5.405.002z"/><path fill="#F1F1F2" d="M206.67 131.057v1.102l10.851.061 2.024 1.594.89-.888-2.362-1.35z"/><path fill="#F1F1F2" d="M220.435 131.057v1.102l-10.853.061-2.023 1.594-.889-.888 2.36-1.35z"/></g><g><path fill="#F1F1F2" d="M219.867 133.05h-.14c-2.759-.552-6.069 0-6.069 0l.001.064a2.648 2.648 0 0 0-1.104-.011l.001-.055s-3.311-.552-6.07 0h-.138v1.655h.255c.08.588.213 1.21.437 1.655 0 0 .551 1.104 2.207 1.104 2.063 0 3.161-.965 3.297-3.795a2.7 2.7 0 0 1 1.13-.011c.134 2.839 1.231 3.806 3.298 3.806 1.656 0 2.207-1.104 2.207-1.104.223-.445.354-1.067.435-1.655h.257v-1.654h-.004z"/><path fill="#BBBDBF" d="M206.817 133.277s0 1.966.492 2.949c0 0 .49.981 1.966.981 1.966 0 2.947-.981 2.947-3.931.001.001-2.947-.49-5.405.001zM219.397 133.277s0 1.966-.492 2.949c0 0-.489.981-1.965.981-1.966 0-2.947-.981-2.947-3.931-.001.001 2.947-.49 5.404.001z"/><path fill="#F1F1F2" d="M206.179 133.419v1.102l10.851.063 2.025 1.594.888-.89-2.361-1.35z"/><path fill="#F1F1F2" d="M219.943 133.419v1.102l-10.851.063-2.024 1.594-.889-.89 2.36-1.35z"/></g><g><path fill="#F1F1F2" d="M217.406 135.768l-.137.02c-2.81-.132-6.001.908-6.001.908l.011.064a2.62 2.62 0 0 0-1.094.152l-.009-.053s-3.355-.051-6.001.908l-.136.021.247 1.637.252-.039c.167.568.391 1.166.678 1.573 0 0 .711 1.008 2.348.761 2.04-.309 2.981-1.427 2.691-4.245a2.69 2.69 0 0 1 1.118-.182c.555 2.788 1.785 3.58 3.828 3.271 1.637-.248 2.018-1.422 2.018-1.422.153-.473.19-1.108.183-1.701l.251-.037-.247-1.636z"/><path fill="#BBBDBF" d="M204.539 137.943s.294 1.943.926 2.842c0 0 .634.898 2.091.677 1.944-.293 2.77-1.412 2.328-4.327 0 0-2.989-.045-5.345.808zM216.977 136.063s.294 1.942-.044 2.988c0 0-.34 1.045-1.798 1.266-1.944.295-3.063-.529-3.503-3.446 0-.002 2.842-.928 5.345-.808z"/><path fill="#F1F1F2" d="M203.929 138.177l.165 1.093 10.738-1.564 2.239 1.274.746-1.012-2.537-.982z"/><path fill="#F1F1F2" d="M217.537 136.119l.165 1.091-10.72 1.685-1.762 1.876-1.012-.744 2.132-1.687z"/></g><g><path fill="#F1F1F2" d="M226.795 140.574l-.14-.006c-2.734-.658-6.063-.235-6.063-.235l-.002.065a2.668 2.668 0 0 0-1.104-.056l.002-.054s-3.285-.68-6.063-.236l-.138-.005-.064 1.654.254.01c.059.59.166 1.22.37 1.672 0 0 .509 1.124 2.164 1.188 2.062.08 3.196-.842 3.441-3.663a2.634 2.634 0 0 1 1.13.032c.021 2.843 1.083 3.852 3.146 3.931 1.655.065 2.25-1.017 2.25-1.017.239-.437.396-1.054.498-1.638l.255.011.064-1.653z"/><path fill="#BBBDBF" d="M213.746 140.295s-.076 1.966.377 2.966c0 0 .453 1.001 1.926 1.058 1.965.078 2.984-.866 3.1-3.813-.001-.001-2.927-.606-5.403-.211zM226.317 140.784s-.076 1.964-.605 2.928c0 0-.528.962-2.002.904-1.964-.075-2.908-1.097-2.794-4.042-.001 0 2.965-.376 5.401.21z"/></g></g><g fill="#F1F1F2" stroke="#58595B" stroke-width=".5" stroke-miterlimit="10"><path d="M182.082 129.223h18.127v10.463h-18.127zM200.209 129.223h1.512v15.838h-1.512zM182.082 139.686h18.127v5.375h-18.127z"/><path d="M182.082 130.564h18.127v5.377h-18.127z"/><path d="M180.571 129.223h1.512v15.838h-1.512z"/><path d="M182.082 129.223h18.127v1.344h-18.127z"/><path d="M173.019 125.189h21.148v10.463h-21.148zM173.019 135.652h21.148v1.344h-21.148z"/></g><g stroke="#58595B" stroke-width=".5" stroke-miterlimit="10"><path fill="#F1F1F2" d="M169.426 133.364l-20.666 12.563-.887-1.458 20.667-12.562z" stroke-width=".499985"/><path fill="#F1F1F2" d="M147.872 144.473l-4.149-8.467 7.582-5.608 3.675 2.76 11.5-2.993 2.06 1.746z"/><path fill="#F1F1F2" d="M149.974 131.383l4.35 3.618 6.669-2.056-.391-1.309-5.622 1.522-3.675-2.76z"/><circle fill="#F1F1F2" cx="151.892" cy="131.761" r=".49"/><circle fill="#F1F1F2" cx="153.445" cy="133.038" r=".49"/><circle fill="#F1F1F2" cx="155.971" cy="133.555" r=".49"/><circle fill="#F1F1F2" cx="157.82" cy="133.006" r=".49"/><circle fill="#F1F1F2" cx="159.594" cy="132.5" r=".49"/><path fill="#F1F1F2" d="M154.507 132.488l-.895.959-.503-.47.895-.958z" stroke-width=".500005"/><path fill="#F1F1F2" d="M156.032 132.492l.267 1.285-.673.14-.266-1.285z" stroke-width=".49999"/><path fill="#F1F1F2" d="M157.965 131.907l.268 1.284-.673.14-.268-1.283z" stroke-width=".499975"/><path fill="#F1F1F2" d="M159.736 131.38l.266 1.285-.671.14-.267-1.285z" stroke-width=".49999"/><path fill="#F1F1F2" d="M152.932 131.292l-.894.957-.503-.47.894-.958zM146.12 140.896s2.95-1.345 4.567 1.863"/><circle fill="#F1F1F2" cx="149.301" cy="136.416" r="2.441"/><circle fill="#F1F1F2" cx="149.301" cy="136.416" r="2.441"/><circle fill="#F1F1F2" cx="149.302" cy="136.417" r="2.14"/><path fill="none" d="M148.314 145.203l20.669-12.562"/></g><g stroke="#58595B" stroke-width=".5" stroke-miterlimit="10"><path fill="#F1F1F2" d="M163.693 144.824h24.188v1.708h-24.188zM163.693 144.824l.853-9.388 9.391-.856 1.707 4.27 11.382 3.414.854 2.56z"/><path fill="#F1F1F2" d="M172.289 134.73l1.837 5.352 6.767 1.707.345-1.322-5.594-1.617-1.707-4.27z"/><circle fill="#F1F1F2" cx="173.731" cy="136.052" r=".49"/><circle fill="#F1F1F2" cx="174.395" cy="137.948" r=".49"/><circle fill="#F1F1F2" cx="176.284" cy="139.703" r=".49"/><circle fill="#F1F1F2" cx="178.15" cy="140.192" r=".49"/><circle fill="#F1F1F2" cx="179.928" cy="140.684" r=".49"/><path fill="#F1F1F2" d="M175.578 138.018l-1.263.353-.185-.662 1.263-.352z" stroke-width=".500015"/><path fill="#F1F1F2" d="M176.886 138.8l-.438 1.234-.648-.23.437-1.235zM178.843 139.342l-.438 1.236-.65-.23.438-1.236zM180.63 139.805l-.437 1.236-.649-.23.438-1.235z" stroke-width=".49998"/><path fill="#F1F1F2" d="M174.866 136.19l-1.262.354-.185-.662 1.261-.354z" stroke-width=".49999"/><path fill="#F1F1F2" d="M164.053 140.857s3.22.387 2.936 3.967"/><circle fill="#F1F1F2" cx="169.099" cy="138.683" r="2.442"/><circle fill="#F1F1F2" cx="169.099" cy="138.683" r="2.442"/><circle fill="#F1F1F2" cx="169.099" cy="138.683" r="2.14"/><path fill="none" d="M163.693 145.68h24.187"/></g><g><path fill="#F1F1F2" stroke="#58595B" stroke-width=".5" stroke-miterlimit="10" d="M112.28 90.595v14.322c0 .72-2.332 1.303-5.208 1.303s-5.208-.583-5.208-1.303V90.595h10.416z"/><ellipse fill="#F1F1F2" stroke="#58595B" stroke-width=".5" stroke-miterlimit="10" cx="107.071" cy="90.595" rx="5.208" ry="1.302"/><path fill="#F1F1F2" d="M106.325 101.056a.867.867 0 0 0 .794-.935l-1.581-19.467c-.022-.307-.133-3.038 2.781-3.274 1.278-.104 2.179.306 2.752 1.254a3.98 3.98 0 0 1 .522 1.528.869.869 0 0 0 1.731-.141c-.134-1.646-1.381-4.678-5.146-4.372s-4.506 3.5-4.372 5.146l1.581 19.467a.872.872 0 0 0 .938.794z"/><defs><path id="a" d="M106.325 101.056a.867.867 0 0 0 .794-.935l-1.581-19.467c-.022-.307-.133-3.038 2.781-3.274 1.278-.104 2.179.306 2.752 1.254a3.98 3.98 0 0 1 .522 1.528.869.869 0 0 0 1.731-.141c-.134-1.646-1.381-4.678-5.146-4.372s-4.506 3.5-4.372 5.146l1.581 19.467a.872.872 0 0 0 .938.794z"/></defs><clipPath id="b"><use xlink:href="#a" overflow="visible"/></clipPath><g clip-path="url(#b)"><path fill="#F1F1F2" stroke="#58595B" stroke-width=".5" stroke-miterlimit="10" d="M106.325 101.056a.867.867 0 0 0 .794-.935l-1.581-19.467c-.022-.307-.133-3.038 2.781-3.274 1.278-.104 2.179.306 2.752 1.254a3.98 3.98 0 0 1 .522 1.528.869.869 0 0 0 1.731-.141c-.134-1.646-1.381-4.678-5.146-4.372s-4.506 3.5-4.372 5.146l1.581 19.467a.872.872 0 0 0 .938.794z"/></g><defs><path id="c" d="M106.325 101.056a.867.867 0 0 0 .794-.935l-1.581-19.467c-.022-.307-.133-3.038 2.781-3.274 1.278-.104 2.179.306 2.752 1.254a3.98 3.98 0 0 1 .522 1.528.869.869 0 0 0 1.731-.141c-.134-1.646-1.381-4.678-5.146-4.372s-4.506 3.5-4.372 5.146l1.581 19.467a.872.872 0 0 0 .938.794z"/></defs><clipPath id="d"><use xlink:href="#c" overflow="visible"/></clipPath><path clip-path="url(#d)" fill="#D85039" stroke="#58595B" stroke-width=".5" stroke-miterlimit="10" d="M107.131 94.894l-2.385 2.807-.21-2.596 2.384-2.806z"/><defs><path id="e" d="M106.325 101.056a.867.867 0 0 0 .794-.935l-1.581-19.467c-.022-.307-.133-3.038 2.781-3.274 1.278-.104 2.179.306 2.752 1.254a3.98 3.98 0 0 1 .522 1.528.869.869 0 0 0 1.731-.141c-.134-1.646-1.381-4.678-5.146-4.372s-4.506 3.5-4.372 5.146l1.581 19.467a.872.872 0 0 0 .938.794z"/></defs><clipPath id="f"><use xlink:href="#e" overflow="visible"/></clipPath><path clip-path="url(#f)" fill="#D85039" stroke="#58595B" stroke-width=".5" stroke-miterlimit="10" d="M107.447 98.788l-2.384 2.806-.212-2.595 2.386-2.807z"/><defs><path id="g" d="M106.325 101.056a.867.867 0 0 0 .794-.935l-1.581-19.467c-.022-.307-.133-3.038 2.781-3.274 1.278-.104 2.179.306 2.752 1.254a3.98 3.98 0 0 1 .522 1.528.869.869 0 0 0 1.731-.141c-.134-1.646-1.381-4.678-5.146-4.372s-4.506 3.5-4.372 5.146l1.581 19.467a.872.872 0 0 0 .938.794z"/></defs><clipPath id="h"><use xlink:href="#g" overflow="visible"/></clipPath><path clip-path="url(#h)" fill="#F1F1F2" stroke="#58595B" stroke-width=".5" stroke-miterlimit="10" d="M106.814 91.001l-2.384 2.807-.211-2.597 2.385-2.806z"/><g><defs><path id="i" d="M106.325 101.056a.867.867 0 0 0 .794-.935l-1.581-19.467c-.022-.307-.133-3.038 2.781-3.274 1.278-.104 2.179.306 2.752 1.254a3.98 3.98 0 0 1 .522 1.528.869.869 0 0 0 1.731-.141c-.134-1.646-1.381-4.678-5.146-4.372s-4.506 3.5-4.372 5.146l1.581 19.467a.872.872 0 0 0 .938.794z"/></defs><clipPath id="j"><use xlink:href="#i" overflow="visible"/></clipPath><path clip-path="url(#j)" fill="#F1F1F2" stroke="#58595B" stroke-width=".5" stroke-miterlimit="10" d="M106.499 87.107l-2.386 2.807-.21-2.596 2.385-2.806z"/></g><g><defs><path id="k" d="M106.325 101.056a.867.867 0 0 0 .794-.935l-1.581-19.467c-.022-.307-.133-3.038 2.781-3.274 1.278-.104 2.179.306 2.752 1.254a3.98 3.98 0 0 1 .522 1.528.869.869 0 0 0 1.731-.141c-.134-1.646-1.381-4.678-5.146-4.372s-4.506 3.5-4.372 5.146l1.581 19.467a.872.872 0 0 0 .938.794z"/></defs><clipPath id="l"><use xlink:href="#k" overflow="visible"/></clipPath><path clip-path="url(#l)" fill="#F1F1F2" stroke="#58595B" stroke-width=".5" stroke-miterlimit="10" d="M106.182 83.214l-2.385 2.807-.211-2.596 2.385-2.806z"/></g><g><defs><path id="m" d="M106.325 101.056a.867.867 0 0 0 .794-.935l-1.581-19.467c-.022-.307-.133-3.038 2.781-3.274 1.278-.104 2.179.306 2.752 1.254a3.98 3.98 0 0 1 .522 1.528.869.869 0 0 0 1.731-.141c-.134-1.646-1.381-4.678-5.146-4.372s-4.506 3.5-4.372 5.146l1.581 19.467a.872.872 0 0 0 .938.794z"/></defs><clipPath id="n"><use xlink:href="#m" overflow="visible"/></clipPath><path clip-path="url(#n)" fill="#F1F1F2" stroke="#58595B" stroke-width=".5" stroke-miterlimit="10" d="M105.866 79.321s-1.403-1.192-2.49 1.509l-.211-2.596s1.191-1.403 3.894-.316l-1.193 1.403z"/></g><g><defs><path id="o" d="M106.325 101.056a.867.867 0 0 0 .794-.935l-1.581-19.467c-.022-.307-.133-3.038 2.781-3.274 1.278-.104 2.179.306 2.752 1.254a3.98 3.98 0 0 1 .522 1.528.869.869 0 0 0 1.731-.141c-.134-1.646-1.381-4.678-5.146-4.372s-4.506 3.5-4.372 5.146l1.581 19.467a.872.872 0 0 0 .938.794z"/></defs><clipPath id="p"><use xlink:href="#o" overflow="visible"/></clipPath><path clip-path="url(#p)" fill="#F1F1F2" stroke="#58595B" stroke-width=".5" stroke-miterlimit="10" d="M108.556 77.893s-1.284-2.703-3.581-1.5l3.828-1.424s1.744 1.213.955 2.826l-1.202.098z"/></g><g><defs><path id="q" d="M106.325 101.056a.867.867 0 0 0 .794-.935l-1.581-19.467c-.022-.307-.133-3.038 2.781-3.274 1.278-.104 2.179.306 2.752 1.254a3.98 3.98 0 0 1 .522 1.528.869.869 0 0 0 1.731-.141c-.134-1.646-1.381-4.678-5.146-4.372s-4.506 3.5-4.372 5.146l1.581 19.467a.872.872 0 0 0 .938.794z"/></defs><clipPath id="r"><use xlink:href="#q" overflow="visible"/></clipPath><path clip-path="url(#r)" fill="#F1F1F2" stroke="#58595B" stroke-width=".5" stroke-miterlimit="10" d="M110.504 78.654s1.966-1.417.08-3.2l2.539 2.068s-.329 1.914-1.952 2.19l-.667-1.058z"/></g><g><path fill="none" stroke="#58595B" stroke-width=".5" stroke-miterlimit="10" d="M106.325 101.056a.867.867 0 0 0 .794-.935l-1.581-19.467c-.022-.307-.133-3.038 2.781-3.274 1.278-.104 2.179.306 2.752 1.254a3.98 3.98 0 0 1 .522 1.528.869.869 0 0 0 1.731-.141c-.134-1.646-1.381-4.678-5.146-4.372s-4.506 3.5-4.372 5.146l1.581 19.467a.872.872 0 0 0 .938.794z"/></g><g><defs><path id="s" d="M106.62 102.638a.868.868 0 0 0 .597-1.073l-5.354-18.783c-.082-.296-.722-2.954 2.09-3.754 1.231-.352 2.194-.125 2.943.692.583.636.81 1.389.812 1.396a.868.868 0 1 0 1.67-.476c-.453-1.588-2.27-4.318-5.9-3.282-3.631 1.035-3.734 4.312-3.282 5.9l5.354 18.783a.865.865 0 0 0 1.07.597z"/></defs><clipPath id="t"><use xlink:href="#s" overflow="visible"/></clipPath><g clip-path="url(#t)"><path fill="#F1F1F2" stroke="#58595B" stroke-width=".5" stroke-miterlimit="10" d="M106.62 102.638a.868.868 0 0 0 .597-1.073l-5.354-18.783c-.082-.296-.722-2.954 2.09-3.754 1.231-.352 2.194-.125 2.943.692.583.636.81 1.389.812 1.396a.868.868 0 1 0 1.67-.476c-.453-1.588-2.27-4.318-5.9-3.282-3.631 1.035-3.734 4.312-3.282 5.9l5.354 18.783a.865.865 0 0 0 1.07.597z"/></g><defs><path id="u" d="M106.62 102.638a.868.868 0 0 0 .597-1.073l-5.354-18.783c-.082-.296-.722-2.954 2.09-3.754 1.231-.352 2.194-.125 2.943.692.583.636.81 1.389.812 1.396a.868.868 0 1 0 1.67-.476c-.453-1.588-2.27-4.318-5.9-3.282-3.631 1.035-3.734 4.312-3.282 5.9l5.354 18.783a.865.865 0 0 0 1.07.597z"/></defs><clipPath id="v"><use xlink:href="#u" overflow="visible"/></clipPath><path clip-path="url(#v)" fill="#D85039" stroke="#58595B" stroke-width=".5" stroke-miterlimit="10" d="M106.207 96.438l-1.79 3.217-.714-2.504 1.79-3.218z"/><defs><path id="w" d="M106.62 102.638a.868.868 0 0 0 .597-1.073l-5.354-18.783c-.082-.296-.722-2.954 2.09-3.754 1.231-.352 2.194-.125 2.943.692.583.636.81 1.389.812 1.396a.868.868 0 1 0 1.67-.476c-.453-1.588-2.27-4.318-5.9-3.282-3.631 1.035-3.734 4.312-3.282 5.9l5.354 18.783a.865.865 0 0 0 1.07.597z"/></defs><clipPath id="x"><use xlink:href="#w" overflow="visible"/></clipPath><path clip-path="url(#x)" fill="#D85039" stroke="#58595B" stroke-width=".5" stroke-miterlimit="10" d="M107.278 100.194l-1.791 3.218-.714-2.504 1.79-3.218z"/><defs><path id="y" d="M106.62 102.638a.868.868 0 0 0 .597-1.073l-5.354-18.783c-.082-.296-.722-2.954 2.09-3.754 1.231-.352 2.194-.125 2.943.692.583.636.81 1.389.812 1.396a.868.868 0 1 0 1.67-.476c-.453-1.588-2.27-4.318-5.9-3.282-3.631 1.035-3.734 4.312-3.282 5.9l5.354 18.783a.865.865 0 0 0 1.07.597z"/></defs><clipPath id="z"><use xlink:href="#y" overflow="visible"/></clipPath><path clip-path="url(#z)" fill="#F1F1F2" stroke="#58595B" stroke-width=".5" stroke-miterlimit="10" d="M105.136 92.681l-1.791 3.218-.714-2.504 1.791-3.218z"/><g><defs><path id="A" d="M106.62 102.638a.868.868 0 0 0 .597-1.073l-5.354-18.783c-.082-.296-.722-2.954 2.09-3.754 1.231-.352 2.194-.125 2.943.692.583.636.81 1.389.812 1.396a.868.868 0 1 0 1.67-.476c-.453-1.588-2.27-4.318-5.9-3.282-3.631 1.035-3.734 4.312-3.282 5.9l5.354 18.783a.865.865 0 0 0 1.07.597z"/></defs><clipPath id="B"><use xlink:href="#A" overflow="visible"/></clipPath><path clip-path="url(#B)" fill="#F1F1F2" stroke="#58595B" stroke-width=".5" stroke-miterlimit="10" d="M104.065 88.924l-1.791 3.218-.713-2.504 1.79-3.219z"/></g><g><defs><path id="C" d="M106.62 102.638a.868.868 0 0 0 .597-1.073l-5.354-18.783c-.082-.296-.722-2.954 2.09-3.754 1.231-.352 2.194-.125 2.943.692.583.636.81 1.389.812 1.396a.868.868 0 1 0 1.67-.476c-.453-1.588-2.27-4.318-5.9-3.282-3.631 1.035-3.734 4.312-3.282 5.9l5.354 18.783a.865.865 0 0 0 1.07.597z"/></defs><clipPath id="D"><use xlink:href="#C" overflow="visible"/></clipPath><path clip-path="url(#D)" fill="#F1F1F2" stroke="#58595B" stroke-width=".5" stroke-miterlimit="10" d="M102.994 85.167l-1.79 3.219-.714-2.505 1.791-3.218z"/></g><g><defs><path id="E" d="M106.62 102.638a.868.868 0 0 0 .597-1.073l-5.354-18.783c-.082-.296-.722-2.954 2.09-3.754 1.231-.352 2.194-.125 2.943.692.583.636.81 1.389.812 1.396a.868.868 0 1 0 1.67-.476c-.453-1.588-2.27-4.318-5.9-3.282-3.631 1.035-3.734 4.312-3.282 5.9l5.354 18.783a.865.865 0 0 0 1.07.597z"/></defs><clipPath id="F"><use xlink:href="#E" overflow="visible"/></clipPath><path clip-path="url(#F)" fill="#F1F1F2" stroke="#58595B" stroke-width=".5" stroke-miterlimit="10" d="M101.923 81.411s-1.609-.896-2.148 1.966l-.713-2.504s.896-1.609 3.756-1.071l-.895 1.609z"/></g><g><defs><path id="G" d="M106.62 102.638a.868.868 0 0 0 .597-1.073l-5.354-18.783c-.082-.296-.722-2.954 2.09-3.754 1.231-.352 2.194-.125 2.943.692.583.636.81 1.389.812 1.396a.868.868 0 1 0 1.67-.476c-.453-1.588-2.27-4.318-5.9-3.282-3.631 1.035-3.734 4.312-3.282 5.9l5.354 18.783a.865.865 0 0 0 1.07.597z"/></defs><clipPath id="H"><use xlink:href="#G" overflow="visible"/></clipPath><path clip-path="url(#H)" fill="#F1F1F2" stroke="#58595B" stroke-width=".5" stroke-miterlimit="10" d="M104.283 79.485s-1.788-2.399-3.806-.771l3.477-2.144s1.945.849 1.487 2.584l-1.158.331z"/></g><g><defs><path id="I" d="M106.62 102.638a.868.868 0 0 0 .597-1.073l-5.354-18.783c-.082-.296-.722-2.954 2.09-3.754 1.231-.352 2.194-.125 2.943.692.583.636.81 1.389.812 1.396a.868.868 0 1 0 1.67-.476c-.453-1.588-2.27-4.318-5.9-3.282-3.631 1.035-3.734 4.312-3.282 5.9l5.354 18.783a.865.865 0 0 0 1.07.597z"/></defs><clipPath id="J"><use xlink:href="#I" overflow="visible"/></clipPath><path clip-path="url(#J)" fill="#F1F1F2" stroke="#58595B" stroke-width=".5" stroke-miterlimit="10" d="M106.343 79.85s1.65-1.774-.548-3.153l2.894 1.532s.053 1.94-1.484 2.529l-.862-.908z"/></g><g><path fill="none" stroke="#58595B" stroke-width=".5" stroke-miterlimit="10" d="M106.62 102.638a.868.868 0 0 0 .597-1.073l-5.354-18.783c-.082-.296-.722-2.954 2.09-3.754 1.231-.352 2.194-.125 2.943.692.583.636.81 1.389.812 1.396a.868.868 0 1 0 1.67-.476c-.453-1.588-2.27-4.318-5.9-3.282-3.631 1.035-3.734 4.312-3.282 5.9l5.354 18.783a.865.865 0 0 0 1.07.597z"/></g></g><g><defs><path id="K" d="M104.537 104.907a.869.869 0 0 0 1.085-.575l5.738-18.669c.094-.292 1.002-2.87 3.797-2.011 1.225.377 1.909 1.091 2.092 2.185.142.851-.079 1.604-.081 1.612a.867.867 0 1 0 1.659.51c.485-1.579.449-4.857-3.16-5.967-3.61-1.109-5.481 1.583-5.967 3.161l-5.739 18.669a.87.87 0 0 0 .576 1.085z"/></defs><clipPath id="L"><use xlink:href="#K" overflow="visible"/></clipPath><g clip-path="url(#L)"><path fill="#F1F1F2" stroke="#58595B" stroke-width=".5" stroke-miterlimit="10" d="M104.537 104.907a.869.869 0 0 0 1.085-.575l5.738-18.669c.094-.292 1.002-2.87 3.797-2.011 1.225.377 1.909 1.091 2.092 2.185.142.851-.079 1.604-.081 1.612a.867.867 0 1 0 1.659.51c.485-1.579.449-4.857-3.16-5.967-3.61-1.109-5.481 1.583-5.967 3.161l-5.739 18.669a.87.87 0 0 0 .576 1.085z"/></g><defs><path id="M" d="M104.537 104.907a.869.869 0 0 0 1.085-.575l5.738-18.669c.094-.292 1.002-2.87 3.797-2.011 1.225.377 1.909 1.091 2.092 2.185.142.851-.079 1.604-.081 1.612a.867.867 0 1 0 1.659.51c.485-1.579.449-4.857-3.16-5.967-3.61-1.109-5.481 1.583-5.967 3.161l-5.739 18.669a.87.87 0 0 0 .576 1.085z"/></defs><clipPath id="N"><use xlink:href="#M" overflow="visible"/></clipPath><path clip-path="url(#N)" fill="#D85039" stroke="#58595B" stroke-width=".5" stroke-miterlimit="10" d="M107.567 99.481l-3.254 1.724.765-2.489 3.255-1.724z"/><defs><path id="O" d="M104.537 104.907a.869.869 0 0 0 1.085-.575l5.738-18.669c.094-.292 1.002-2.87 3.797-2.011 1.225.377 1.909 1.091 2.092 2.185.142.851-.079 1.604-.081 1.612a.867.867 0 1 0 1.659.51c.485-1.579.449-4.857-3.16-5.967-3.61-1.109-5.481 1.583-5.967 3.161l-5.739 18.669a.87.87 0 0 0 .576 1.085z"/></defs><clipPath id="P"><use xlink:href="#O" overflow="visible"/></clipPath><path clip-path="url(#P)" fill="#D85039" stroke="#58595B" stroke-width=".5" stroke-miterlimit="10" d="M106.419 103.215l-3.254 1.724.765-2.489 3.255-1.724z"/><defs><path id="Q" d="M104.537 104.907a.869.869 0 0 0 1.085-.575l5.738-18.669c.094-.292 1.002-2.87 3.797-2.011 1.225.377 1.909 1.091 2.092 2.185.142.851-.079 1.604-.081 1.612a.867.867 0 1 0 1.659.51c.485-1.579.449-4.857-3.16-5.967-3.61-1.109-5.481 1.583-5.967 3.161l-5.739 18.669a.87.87 0 0 0 .576 1.085z"/></defs><clipPath id="R"><use xlink:href="#Q" overflow="visible"/></clipPath><path clip-path="url(#R)" fill="#D85039" stroke="#58595B" stroke-width=".5" stroke-miterlimit="10" d="M108.715 95.747l-3.255 1.725.766-2.49 3.254-1.724z"/><g><defs><path id="S" d="M104.537 104.907a.869.869 0 0 0 1.085-.575l5.738-18.669c.094-.292 1.002-2.87 3.797-2.011 1.225.377 1.909 1.091 2.092 2.185.142.851-.079 1.604-.081 1.612a.867.867 0 1 0 1.659.51c.485-1.579.449-4.857-3.16-5.967-3.61-1.109-5.481 1.583-5.967 3.161l-5.739 18.669a.87.87 0 0 0 .576 1.085z"/></defs><clipPath id="T"><use xlink:href="#S" overflow="visible"/></clipPath><path clip-path="url(#T)" fill="#F1F1F2" stroke="#58595B" stroke-width=".5" stroke-miterlimit="10" d="M109.863 92.013l-3.255 1.725.766-2.489 3.254-1.725z"/></g><g><defs><path id="U" d="M104.537 104.907a.869.869 0 0 0 1.085-.575l5.738-18.669c.094-.292 1.002-2.87 3.797-2.011 1.225.377 1.909 1.091 2.092 2.185.142.851-.079 1.604-.081 1.612a.867.867 0 1 0 1.659.51c.485-1.579.449-4.857-3.16-5.967-3.61-1.109-5.481 1.583-5.967 3.161l-5.739 18.669a.87.87 0 0 0 .576 1.085z"/></defs><clipPath id="V"><use xlink:href="#U" overflow="visible"/></clipPath><path clip-path="url(#V)" fill="#F1F1F2" stroke="#58595B" stroke-width=".5" stroke-miterlimit="10" d="M111.011 88.28l-3.255 1.724.766-2.489 3.254-1.724z"/></g><g><defs><path id="W" d="M104.537 104.907a.869.869 0 0 0 1.085-.575l5.738-18.669c.094-.292 1.002-2.87 3.797-2.011 1.225.377 1.909 1.091 2.092 2.185.142.851-.079 1.604-.081 1.612a.867.867 0 1 0 1.659.51c.485-1.579.449-4.857-3.16-5.967-3.61-1.109-5.481 1.583-5.967 3.161l-5.739 18.669a.87.87 0 0 0 .576 1.085z"/></defs><clipPath id="X"><use xlink:href="#W" overflow="visible"/></clipPath><path clip-path="url(#X)" fill="#F1F1F2" stroke="#58595B" stroke-width=".5" stroke-miterlimit="10" d="M112.159 84.546s-.862-1.627-2.872.479l.765-2.489s1.627-.862 3.734 1.148l-1.627.862z"/></g><g><defs><path id="Y" d="M104.537 104.907a.869.869 0 0 0 1.085-.575l5.738-18.669c.094-.292 1.002-2.87 3.797-2.011 1.225.377 1.909 1.091 2.092 2.185.142.851-.079 1.604-.081 1.612a.867.867 0 1 0 1.659.51c.485-1.579.449-4.857-3.16-5.967-3.61-1.109-5.481 1.583-5.967 3.161l-5.739 18.669a.87.87 0 0 0 .576 1.085z"/></defs><clipPath id="Z"><use xlink:href="#Y" overflow="visible"/></clipPath><path clip-path="url(#Z)" fill="#F1F1F2" stroke="#58595B" stroke-width=".5" stroke-miterlimit="10" d="M115.187 84.215s-.191-2.985-2.771-2.718l4.083.095s1.17 1.772-.16 2.978l-1.152-.355z"/></g><g><defs><path id="aa" d="M104.537 104.907a.869.869 0 0 0 1.085-.575l5.738-18.669c.094-.292 1.002-2.87 3.797-2.011 1.225.377 1.909 1.091 2.092 2.185.142.851-.079 1.604-.081 1.612a.867.867 0 1 0 1.659.51c.485-1.579.449-4.857-3.16-5.967-3.61-1.109-5.481 1.583-5.967 3.161l-5.739 18.669a.87.87 0 0 0 .576 1.085z"/></defs><clipPath id="ab"><use xlink:href="#aa" overflow="visible"/></clipPath><path clip-path="url(#ab)" fill="#F1F1F2" stroke="#58595B" stroke-width=".5" stroke-miterlimit="10" d="M116.715 85.644s2.351-.589 1.258-2.943l1.593 2.861s-1.014 1.656-2.624 1.312l-.227-1.23z"/></g><g><path fill="none" stroke="#58595B" stroke-width=".5" stroke-miterlimit="10" d="M104.537 104.907a.869.869 0 0 0 1.085-.575l5.738-18.669c.094-.292 1.002-2.87 3.797-2.011 1.225.377 1.909 1.091 2.092 2.185.142.851-.079 1.604-.081 1.612a.867.867 0 1 0 1.659.51c.485-1.579.449-4.857-3.16-5.967-3.61-1.109-5.481 1.583-5.967 3.161l-5.739 18.669a.87.87 0 0 0 .576 1.085z"/></g></g><path fill="#F1F1F2" stroke="#58595B" stroke-width=".5" stroke-miterlimit="10" d="M107.071 91.897c2.876 0 5.208-.583 5.208-1.302v14.322c0 .72-2.332 1.303-5.208 1.303s-5.208-.583-5.208-1.303V90.595c0 .719 2.332 1.302 5.208 1.302z"/></g><g><path fill="#F1F1F2" stroke="#58595B" stroke-width=".5" stroke-miterlimit="10" d="M95.396 107.411a4.34 4.34 0 0 1-1.67-.853c-1.294-1.066-2.021-2.872-2.163-5.361l1.178-.066c.121 2.148.705 3.669 1.735 4.518 1.024.847 2.174.718 2.186.716l.159 1.168c-.042.006-.641.081-1.425-.122z"/><path fill="#F1F1F2" stroke="#58595B" stroke-width=".5" stroke-miterlimit="10" d="M92.063 98.865s.576-.162.738.415l.162.576s.323 1.152-.83 1.476-1.476-.829-1.476-.829l-.162-.577s-.162-.576.414-.738l1.154-.323z"/><path fill="#F1F1F2" stroke="#58595B" stroke-width=".5" stroke-miterlimit="10" d="M93.897 99.29s-.426-.42-.846.006l-.42.426s-.42.426.006.846l1.26-1.278zM92.144 99.128a.306.306 0 0 0 .61-.044l-.09-1.221a.306.306 0 1 0-.611.046l.091 1.219zM92.092 98.77a.306.306 0 0 1-.588.165l-.331-1.178a.306.306 0 0 1 .589-.165l.33 1.178zM91.502 99.2a.306.306 0 0 1-.212.377.305.305 0 0 1-.377-.212l-.331-1.177a.306.306 0 1 1 .589-.166l.331 1.178z"/><path fill="#F1F1F2" stroke="#58595B" stroke-width=".5" stroke-miterlimit="10" d="M91.065 99.732a.305.305 0 0 1-.159.401.304.304 0 0 1-.401-.159l-.485-1.123a.307.307 0 0 1 .562-.243l.483 1.124zM111.19 99.649s-.545-.246-.792.3l-.246.545s-.49 1.092.601 1.583c1.092.492 1.583-.599 1.583-.599l.246-.546s.245-.546-.302-.792l-1.09-.491z"/><path fill="#F1F1F2" stroke="#58595B" stroke-width=".5" stroke-miterlimit="10" d="M109.313 99.796s.484-.352.836.133l.353.484s.352.484-.133.835l-1.056-1.452zM111.07 99.898a.304.304 0 0 1-.364.231.307.307 0 0 1-.231-.366l.271-1.193a.304.304 0 0 1 .365-.23.304.304 0 0 1 .23.366l-.271 1.192zM111.176 99.552a.304.304 0 1 0 .556.251l.503-1.116a.306.306 0 0 0-.557-.251l-.502 1.116zM111.695 100.065a.306.306 0 0 0 .558.251l.503-1.115a.307.307 0 0 0-.153-.405.308.308 0 0 0-.405.153l-.503 1.116z"/><path fill="#F1F1F2" stroke="#58595B" stroke-width=".5" stroke-miterlimit="10" d="M112.048 100.656a.306.306 0 0 0 .519.323l.647-1.038a.306.306 0 0 0-.098-.421.307.307 0 0 0-.422.098l-.646 1.038zM102.522 107.368l-.043-.013.313-1.137c.033.008 3.465.922 5.647-.633 1.099-.78 1.716-2.086 1.836-3.879l1.177.079c-.146 2.166-.933 3.769-2.335 4.764-2.524 1.794-6.132.937-6.595.819z"/><path fill="#F1F1F2" stroke="#58595B" stroke-width=".49999" stroke-miterlimit="10" d="M112.114 101.828l-.284 1.125-2.128-.538.284-1.124z"/><path fill="#F1F1F2" stroke="#58595B" stroke-width=".500005" stroke-miterlimit="10" d="M112.114 101.83l-.075.29-2.124-.542.074-.29z"/><path fill="#F1F1F2" stroke="#58595B" stroke-width=".5" stroke-miterlimit="10" d="M95.979 111.428l-.063.85s-.127 1.697 4.269 2.027c4.396.329 4.524-1.369 4.524-1.369l.063-.849-8.793-.659z"/><path fill="#F1F1F2" stroke="#58595B" stroke-width=".5" stroke-miterlimit="10" d="M104.71 112.844l-8.793-.66.63-8.405 8.793.66z"/><path fill="#58595B" d="M106.703 100.828c-1.457-.267 1.694-5.868-4.19-6.709l-1.556-.116c-4.53.134-3.664 5.962-5.145 6.008-1.48.047-2.099-3.315-2.333-.175-.236 3.14 2.673 3.753 2.673 3.753l4.841.363 4.841.363s2.296-.223 2.532-3.363c.235-3.139-.204.144-1.663-.124"/><ellipse transform="rotate(-85.682 96.606 103.158)" fill="#F1F1F2" stroke="#58595B" stroke-width=".5" stroke-miterlimit="10" cx="96.606" cy="103.162" rx="1.012" ry=".806"/><ellipse transform="rotate(-85.71 105.439 103.829)" fill="#F1F1F2" stroke="#58595B" stroke-width=".5" stroke-miterlimit="10" cx="105.438" cy="103.829" rx="1.012" ry=".806"/><path fill="#F1F1F2" stroke="#58595B" stroke-width=".5" stroke-miterlimit="10" d="M104.78 111.973l-8.791-.66.206-2.747 8.792.66zM100.714 107.247c3.979.298 4.548-2.097 4.63-2.786l.013-.182.083-1.099s.146-2.752-4.189-3.077c-4.335-.326-4.603 2.418-4.603 2.418l-.083 1.099-.014.183c-.021.693.185 3.145 4.163 3.444"/><path fill="#58595B" d="M104.612 103.59a1.185 1.185 0 1 1-2.362-.179 1.185 1.185 0 0 1 2.362.179"/><path fill="#58595B" d="M104.804 105.515l-3.464-4.062.234-.2 3.464 4.063z"/><path fill="#F1F1F2" stroke="#58595B" stroke-width=".5" stroke-miterlimit="10" d="M96.686 102.025l.003-.054-.003.054M105.481 102.631l-.003.053.003-.053M96.667 102.276s1.808-.368 4.434-.171c2.625.198 4.358.831 4.358.831s.31-2.494-4.208-2.833c-4.519-.339-4.584 2.173-4.584 2.173"/><path fill="#58595B" d="M100.099 103.185a.423.423 0 1 1-.844-.064.423.423 0 0 1 .844.064M104.139 102.306l-1.255-.282.107-.473 1.254.282z"/><path fill="#F1F1F2" d="M101.659 97.338l.159.068a.13.13 0 0 0 .179-.11l.043-.576a.129.129 0 0 0-.07-.124.229.229 0 0 1-.027-.014c-.096-.05-.125-.104-.117-.198.005-.076.063-.133.165-.16a.129.129 0 0 0 .095-.115l.006-.078a.129.129 0 0 1 .138-.119l.039.002a.127.127 0 0 1 .118.138l-.006.083a.132.132 0 0 0 .083.13c.091.037.171.09.24.161.044.046.115.05.167.013l.425-.313a.127.127 0 0 0 .025-.184c-.244-.301-.61-.47-1.097-.506a1.35 1.35 0 0 0-.853.197c-.245.157-.375.388-.398.699-.034.446.196.781.686 1.006"/><path fill="#F1F1F2" d="M102.67 96.869a5.501 5.501 0 0 0-.171-.072.13.13 0 0 0-.179.109l-.043.589a.13.13 0 0 0 .075.127c.123.061.175.126.169.216-.008.1-.072.163-.194.19a.125.125 0 0 0-.098.115l-.007.087a.129.129 0 0 1-.138.119l-.037-.003a.13.13 0 0 1-.12-.138l.006-.076a.132.132 0 0 0-.093-.134 1.01 1.01 0 0 1-.499-.332.127.127 0 0 0-.169-.025l-.459.301a.128.128 0 0 0-.037.179c.108.158.253.299.436.425.23.155.527.243.895.271.871.065 1.34-.307 1.387-.942.034-.446-.174-.76-.724-1.006"/><circle fill="#F1F1F2" stroke="#58595B" stroke-width=".5" stroke-miterlimit="10" cx="100.569" cy="110.291" r=".389"/><circle fill="#F1F1F2" stroke="#58595B" stroke-width=".5" stroke-miterlimit="10" cx="102.528" cy="110.437" r=".389"/><circle fill="#F1F1F2" stroke="#58595B" stroke-width=".5" stroke-miterlimit="10" cx="103.899" cy="110.541" r=".389"/><circle fill="#F1F1F2" stroke="#58595B" stroke-width=".5" stroke-miterlimit="10" cx="98.022" cy="110.1" r=".388"/><g><path fill="#F1F1F2" stroke="#58595B" stroke-width=".5" stroke-miterlimit="10" d="M99.614 111.938a1.103 1.103 0 0 1-.822-1.15l.096-1.281a1.106 1.106 0 0 1 1.182-1.018l1.282.097a1.103 1.103 0 0 1 1.017 1.18l-.098 1.282a1.105 1.105 0 0 1-1.181 1.017l-1.282-.096a1.4 1.4 0 0 1-.194-.031zm1.747-2.611a.462.462 0 0 0-.063-.011l-1.283-.097a.37.37 0 0 0-.394.339l-.097 1.282a.375.375 0 0 0 .339.396l1.282.095a.368.368 0 0 0 .395-.339l.097-1.281a.377.377 0 0 0-.276-.384z"/></g><g><path fill="#F1F1F2" stroke="#58595B" stroke-width=".5" stroke-miterlimit="10" d="M103.654 105.717s-.802-1.594-2.129-1.08c-1.236-.707-2.267.75-2.267.75-2.087-.157-2.599-2.946-2.572-3.362l-.236 3.151c-.167 2.239 2.637 2.501 2.637 2.501l2.115 1.265 2.28-.935s1.592.067 1.76-2.171l.236-3.153c-.036.419.262 3.192-1.824 3.034m-2.233.294c-1.53-.063-1.614-.582-1.614-.582.839.268 1.681-.333 1.682-.334.004.002.746.722 1.615.582 0 0-.161.499-1.683.334"/></g><g><path fill="#F1F1F2" stroke="#58595B" stroke-width=".50001" stroke-miterlimit="10" d="M98.86 109.87l1.648.124-.041.55-1.649-.124z"/></g><g><ellipse transform="rotate(-85.716 101.454 104.44)" fill="#F1F1F2" stroke="#58595B" stroke-width=".5" stroke-miterlimit="10" cx="101.457" cy="104.44" rx=".294" ry=".838"/></g><g><path fill="#F1F1F2" stroke="#58595B" stroke-width=".499985" stroke-miterlimit="10" d="M93.053 100.67l.211 1.14-2.157.4-.211-1.141z"/><path fill="#F1F1F2" stroke="#58595B" stroke-width=".499985" stroke-miterlimit="10" d="M93.06 100.666l.054.294-2.157.401-.055-.294z"/></g><g><path fill="#58595B" d="M99.192 101.81l-.298-.256c.241-.279.924-.651 1.79-.054l-.224.322c-.793-.547-1.249-.034-1.268-.012z"/></g><g><ellipse transform="rotate(-85.739 99.65 103.573)" fill="#F1F1F2" cx="99.647" cy="103.57" rx=".414" ry=".811"/></g><g><path fill="#F1F1F2" stroke="#58595B" stroke-width=".5" stroke-miterlimit="10" d="M101.901 119.214l-.568-.542c.954-1.001 1.314-1.888 1.073-2.64-.472-1.474-3.18-2.291-4.187-2.482l.147-.771c.164.031 4.076.8 4.787 3.014.338 1.046-.085 2.196-1.252 3.421z"/></g><g><path fill="#F1F1F2" stroke="#58595B" stroke-width=".5" stroke-miterlimit="10" d="M107.605 118.104l-.713-.332c.45-.967.487-1.765.111-2.369-.903-1.451-3.845-1.535-3.875-1.536l.018-.786c.14.005 3.396.095 4.523 1.904.527.846.505 1.894-.064 3.119z"/></g><g><path fill="#F1F1F2" stroke="#58595B" stroke-width=".5" stroke-miterlimit="10" d="M103.398 117.369l-1.561 2.44 1.127.998-.187.438-2.188-.934 1.059-3.691z"/><path fill="#F1F1F2" stroke="#58595B" stroke-width=".5" stroke-miterlimit="10" d="M101.984 116.23l-1.507 1.278 3.25 1.388-.118-1.971z"/></g><g><path fill="#F1F1F2" stroke="#58595B" stroke-width=".5" stroke-miterlimit="10" d="M108.455 116.502l-.641 2.824 1.399.558-.027.473-2.377-.134-.254-3.83z"/><path fill="#F1F1F2" stroke="#58595B" stroke-width=".5" stroke-miterlimit="10" d="M106.738 115.91l-.985 1.715 3.53.203-.78-1.814z"/></g></g><g><path fill="#F1F1F2" stroke="#58595B" stroke-width=".5" stroke-miterlimit="10" d="M226.65 88.82s.273-.869 1.144-.597l12.175 3.821s.869.272.596 1.142l-6.004 19.13s-.271.869-1.143.598l-12.173-3.821s-.869-.272-.598-1.142l6.003-19.131z"/><path fill="#D85039" stroke="#58595B" stroke-width=".499985" stroke-miterlimit="10" d="M233.965 111.171l-12.171-3.82 5.73-18.26 12.171 3.82z"/><circle fill="#F1F1F2" stroke="#58595B" stroke-width=".5" stroke-miterlimit="10" cx="227.604" cy="110.134" r=".592"/><path fill="#D85039" stroke="#58595B" stroke-width=".5" stroke-miterlimit="10" d="M230.941 100.33a4.162 4.162 0 0 0 5.215-2.729l-3.973-1.243-1.242 3.972z"/><path fill="#F1F1F2" stroke="#58595B" stroke-width=".5" stroke-miterlimit="10" d="M232.184 96.357l3.974 1.243a4.147 4.147 0 0 0-.284-3.172l-3.69 1.929z"/><path fill="#FFF" stroke="#58595B" stroke-width=".5" stroke-miterlimit="10" d="M233.428 92.386l-1.244 3.972 3.688-1.929a4.144 4.144 0 0 0-2.444-2.043z"/><path fill="#D85039" stroke="#58595B" stroke-width=".5" stroke-miterlimit="10" d="M228.212 95.114a4.16 4.16 0 0 0 2.729 5.216l1.242-3.973 1.244-3.972a4.162 4.162 0 0 0-5.215 2.729z"/><path fill="#F1F1F2" stroke="#58595B" stroke-width=".5" stroke-miterlimit="10" d="M231.867 104.142l-1.345 1.508-1.403-1.081-2.138 1.261-.61-.834-1.953.676 7.936 2.483z"/><g fill="#FFF"><path d="M230.08 101.436l-2.866-.897.1-.319 2.866.897z"/><circle cx="226.786" cy="100.231" r=".167"/></g><g fill="#FFF"><path d="M227.418 105.162l-.998-.31.06-.193.998.312z"/><circle cx="226.172" cy="104.659" r=".1"/></g><g fill="#FFF"><path d="M230.108 104.685l-.997-.311.06-.191.996.312z"/><circle cx="228.865" cy="104.187" r=".1"/></g><g fill="#FFF"><path d="M232.943 104.179l-.997-.312.06-.191.997.312z"/><circle cx="231.689" cy="103.681" r=".1"/></g><g fill="#FFF"><path d="M225.049 106.81l-.525-.164.033-.106.525.164zM225.574 106.974l-.42-.132.032-.106.421.132zM226.205 107.17l-.526-.164.032-.104.527.165zM225.193 107.084l-.735-.231.032-.103.736.231zM226.143 107.379l-.841-.262.033-.106.841.262zM224.917 107.23l-.525-.166.033-.105.526.166zM225.542 107.419l-.526-.164.033-.106.526.164z"/></g></g><g stroke="#58595B" stroke-width=".5" stroke-miterlimit="10"><path fill="#F1F1F2" d="M118.362 100.564h-.803c-.803 0-.803.498-.803.498v10.446h16.057V100.564h-14.451z"/><path fill="#F1F1F2" d="M132.813 112.503H117.559s-.803 0-.803-.497v-.995s0-.497.803-.497H132.813v1.989z"/><path fill="none" d="M116.755 111.011h16.058M132.813 111.508h-16.058M116.755 112.006h16.058M117.559 100.564v9.95"/><path fill="#F1F1F2" d="M131.207 100.564l1.606.995v-.995zM131.207 110.514l1.606-.996v.996zM132.813 110.514s-.803 0-.803.994c0 .995.803.995.803.995v-1.989zM116.755 111.011s0-.497.803-.497c0 0-1.605.994 0 1.989 0 0-.803 0-.803-.497v-.995z"/><g><path fill="#F1F1F2" d="M117.559 97.082h-.803c-.803 0-.803.497-.803.497v10.446h16.057V97.082h-14.451z"/><path fill="#F1F1F2" d="M132.009 109.021H116.755s-.803 0-.803-.498v-.994s0-.497.803-.497H132.009v1.989z"/><path fill="none" d="M115.953 107.527h16.056M132.009 108.025h-16.056M115.953 108.523h16.056M116.755 97.082v9.949"/><path fill="#F1F1F2" d="M130.404 97.082l1.605.995v-.995zM130.404 107.031l1.605-.995v.995zM132.009 107.031s-.802 0-.802.994.802.994.802.994v-1.988zM115.953 107.527s0-.496.803-.496c0 0-1.605.994 0 1.988 0 0-.803 0-.803-.496v-.996z"/></g><g><g fill="#F1F1F2"><path d="M115.15 93.6h13.648v11.441H115.15z"/><path d="M115.15 93.6h1.605v11.441h-1.605zM115.15 105.041h13.648v.995H115.15z"/><path d="M115.15 105.373h13.648v.332H115.15z"/></g><path fill="#F1F1F2" d="M118.362 95.092h8.831v2.985h-8.831z"/><path fill="none" d="M121.572 96.086h2.409M121.572 97.082h2.409M119.164 96.584h7.226"/></g><g><g fill="#F1F1F2"><path d="M115.953 91.61H129.6v11.441h-13.647z"/><path d="M115.953 91.61h1.605v11.441h-1.605zM115.953 103.051H129.6v.995h-13.647z"/><path d="M115.953 103.382H129.6v.332h-13.647z"/></g><path fill="#F1F1F2" d="M119.164 93.102h8.831v2.984h-8.831z"/><path fill="none" d="M122.375 94.097h2.409M122.375 95.092h2.409M119.967 94.594h7.225"/></g></g><path fill="#F1F1F2" stroke="#58595B" stroke-width=".5" stroke-miterlimit="10" d="M212.294 110.134l-5.447 2.369-5.653-5.134 5.448-2.369z"/><g fill="#F1F1F2" stroke="#58595B" stroke-width=".5" stroke-miterlimit="10"><circle cx="202.7" cy="102.84" r=".537"/><path d="M202.698 102.572a.536.536 0 0 0-.534.538v3.488h1.072v-3.488a.538.538 0 0 0-.538-.538z"/><path d="M202.698 105.793a.535.535 0 0 0-.534.537v5.367h1.072v-5.367a.537.537 0 0 0-.538-.537z"/><circle cx="202.7" cy="111.697" r=".537"/><circle cx="202.7" cy="111.966" r=".537"/><path d="M203.462 106.866l-.494-.268v-4.294l.494.268z"/></g><path fill="#F1F1F2" stroke="#58595B" stroke-width=".5" stroke-miterlimit="10" d="M55.205 154.78h249.59v49.918H55.205z"/><g><path fill="#E6E7E8" stroke="#58595B" stroke-width=".5" stroke-miterlimit="10" d="M82.244 163.1h16.64v16.641h-16.64z"/><path fill="#58595B" d="M90.563 166.497l-4.921 4.922h1.64v4.923h6.562v-4.923h1.641z"/><path fill="#E6E7E8" stroke="#58595B" stroke-width=".5" stroke-miterlimit="10" d="M63.524 163.1h16.641v16.641H63.524z"/><path fill="#58595B" d="M72.264 175.271v-.842s-.102-2.77 1.682-3.363c2.523-.842 1.684-5.887 1.684-5.887h-7.57s-.841 5.045 1.684 5.887c1.782.595 1.682 3.363 1.682 3.363v.842s0 1.683-2.523 1.683v.842h5.889v-.842c-.004 0-2.528 0-2.528-1.683z"/><path fill="#D0D2D3" stroke="#58595B" stroke-width=".5" stroke-miterlimit="10" d="M107.203 163.1h16.64v2.08h-16.64zM125.922 163.1h12.479v2.08h-12.479zM107.203 167.26h6.239v2.08h-6.239zM115.522 167.26h18.721v2.08h-18.721zM107.203 171.419h14.56v2.081h-14.56zM123.842 171.419h10.399v2.081h-10.399z"/></g></svg>