<svg xmlns="http://www.w3.org/2000/svg" width="360" height="210" viewBox="0 0 360 210"><g stroke="#58595B" stroke-width=".5" stroke-miterlimit="10"><path fill="#2AB573" d="M329.661 94.334l-40.268 20.137v40.269l40.268-20.135z"/><path fill="#2AB573" d="M329.661 134.605v7.551l-40.268 20.135v-7.551z"/><path fill="#2AB573" d="M327.146 99.369l-35.237 17.617v36.496l35.237-17.619zM329.661 94.334l-120.81-60.405-40.271 20.135 120.813 60.407z"/><path fill="#2AB573" d="M289.393 114.471v40.269L168.58 94.334v-40.27z"/><path fill="#2AB573" d="M289.393 154.74v7.551L168.58 101.886v-7.552z"/><path fill="#2AB573" d="M286.876 157.258v-2.518l-10.067-5.033v2.518zM317.077 144.674v-2.518l10.069-5.033v2.518zM291.909 157.258v-2.518l10.068-5.033v2.518zM234.02 130.971v-2.518l-10.067-5.033v2.516zM181.165 104.402v-2.516l-10.068-5.034v2.517zM286.876 116.986v32.721L171.097 91.818v-32.72z"/><path fill="none" d="M281.842 114.471v32.718M276.809 144.674v-32.721M271.774 109.438v32.719M266.74 139.641V106.92M261.706 104.402v32.721M256.673 134.605v-32.719M251.639 99.369v32.719M246.604 129.57V96.852M241.57 94.334v32.721M236.537 124.538v-32.72M231.504 89.301v32.72M226.47 119.504v-32.72M221.436 84.267v32.719M216.402 114.471V81.75M211.368 111.953v-32.72M206.334 109.438V76.716M201.301 106.92V74.2M196.266 104.402V71.683M191.232 101.886v-32.72M186.199 99.369v-32.72M181.165 96.852v-32.72M176.131 94.334V61.615M309.527 104.402v40.272"/><path fill="#2AB573" d="M309.527 122.021l-5.033 2.517v12.585l5.033-2.518zM314.562 119.504l-5.035 2.517v12.584l5.035-2.517z"/><path fill="#2AB573" d="M314.562 124.538l-10.068 5.032v2.518l10.068-5.033zM329.661 94.334l-5.031-2.516-40.272 20.135 5.035 2.518zM208.851 33.929l5.034 2.516-40.271 20.137-5.034-2.518z"/></g><path fill="#F1F1F2" stroke="#58595B" stroke-width=".5" stroke-miterlimit="10" d="M183.505 107.75a.436.436 0 0 0-.431-.02l-4.248 2.123a.442.442 0 0 0-.245.396v3.187a.438.438 0 0 0 .638.395l4.249-2.125a.444.444 0 0 0 .244-.396v-3.188a.431.431 0 0 0-.207-.372z"/><path fill="#58595B" d="M183.252 138.857c-.003-6.043-2.432-12.287-5.421-13.949-1.822-1.014-3.435-.09-4.414 2.15-.017-.01-.031-.02-.046-.026-2.991-1.661-5.414 1.89-5.41 7.933s2.431 12.288 5.422 13.949c.854.475 1.662.523 2.379.211l.009-.004c.046-.02.091-.041.136-.064l4.365-2.078a.568.568 0 0 1 .063-.027l.013-.008c1.728-.868 2.907-3.87 2.904-8.087zM144.694 141.9c2.992 1.662 5.419 7.908 5.424 13.949.003 6.045-2.42 9.596-5.41 7.934-2.991-1.66-5.419-7.906-5.422-13.949-.005-6.043 2.417-9.594 5.408-7.934zM115.278 133.285c2.111 1.172 3.825 5.58 3.827 9.846s-1.708 6.771-3.817 5.6c-2.112-1.174-3.825-5.582-3.828-9.847-.003-4.266 1.706-6.773 3.818-5.599z"/><path fill="#D0D2D3" stroke="#58595B" stroke-width=".5" stroke-miterlimit="10" d="M98.925 134.059l50.98 25.49 33.988-16.994-50.981-25.491z"/><g stroke="#58595B" stroke-width=".5" stroke-miterlimit="10"><path fill="none" stroke-linecap="round" stroke-linejoin="round" d="M66.266 128.217l4.248 2.123"/><ellipse fill="#F1F1F2" cx="71.576" cy="130.871" rx="1.062" ry="1.594"/><path fill="none" d="M72.639 149.459v-16.994s0-.665-1.052-1.469M74.763 135.65v12.746M104.501 150.52v10.886M100.252 148.396v11.417M59.894 140.961v14.869M64.142 138.838v14.869M68.39 136.713v14.869"/><g fill="#FFF"><ellipse transform="scale(-1) rotate(-6.154 -3161.85 1813.698)" cx="97.491" cy="169.967" rx="1.061" ry="1.594"/><ellipse transform="rotate(173.773 97.083 170.203)" cx="97.082" cy="170.204" rx="1.062" ry="1.592"/><ellipse transform="scale(-1) rotate(-6.136 -3175.262 1810.752)" cx="97.063" cy="170.205" rx=".53" ry=".799"/><path d="M96.68 169.902l.53.266.267-2.123-1.063-.531z"/></g><path fill="none" d="M68.39 157.955l-10.621 5.311c-2.124 1.063 0 2.123 0 2.123l25.49 12.746s2.124 1.063 4.249 0l12.745-6.373s2.125-1.063 0-2.125l-8.497-4.248M55.645 145.209l16.994-8.496 33.986 16.994"/><path fill="none" d="M72.639 149.459l-16.994 8.496 33.987 12.744 16.993-8.496z"/><path fill="none" d="M72.639 149.459l33.986 12.744v-10.621l-33.986-16.993zM72.639 134.589v14.87l-16.994 8.496v-14.869z"/><g fill="#FFF"><ellipse transform="rotate(173.773 59.245 167.834)" cx="59.244" cy="167.835" rx="1.062" ry="1.592"/><ellipse transform="scale(-1) rotate(-6.206 -3100.351 1085.382)" cx="58.841" cy="168.065" rx="1.062" ry="1.592"/><ellipse transform="rotate(173.773 58.832 168.076)" cx="58.831" cy="168.077" rx=".531" ry=".797"/><path d="M58.438 167.779l.531.266.266-2.125-1.062-.531z"/></g><g fill="#FFF"><ellipse transform="scale(-1) rotate(-6.154 -3339.147 1529.099)" cx="82.193" cy="179.498" rx="1.061" ry="1.594"/><ellipse transform="scale(-1) rotate(-6.154 -3343.538 1521.398)" cx="81.787" cy="179.729" rx="1.062" ry="1.594"/><ellipse transform="rotate(173.88 81.772 179.733)" cx="81.773" cy="179.733" rx=".531" ry=".796"/><path d="M81.385 179.438l.531.265.266-2.123-1.063-.531z"/></g><path fill="none" stroke-linecap="round" stroke-linejoin="round" d="M49.272 136.713l4.249 2.125"/><ellipse fill="#F1F1F2" cx="54.583" cy="139.368" rx="1.062" ry="1.593"/><path fill="none" d="M55.645 157.955v-16.994s0-.664-1.052-1.469"/><g fill="#2AB573"><path d="M61.31 150.594l10.856 5.427 10.857-5.427-10.857-5.428z"/><path d="M61.31 150.594v5.427l10.856 5.43v-5.43zM72.166 156.021v5.43l10.857-5.43v-5.427z"/><path d="M61.31 150.594l9.5-.678 2.713 1.355-1.357 4.75z"/><path d="M72.166 145.166l-1.356 4.75 2.713 1.355 9.5-.677z"/></g><g fill="#2AB573"><path d="M77.654 153.32l10.857 5.428 10.857-5.428-10.857-5.427z"/><path d="M77.654 153.32v10.858l10.857 5.427v-10.857zM88.511 158.748v10.857l10.857-5.427V153.32z"/><path d="M77.654 153.32l9.499-.677 2.715 1.355-1.357 4.75z"/><path d="M88.511 147.893l-1.358 4.75 2.715 1.355 9.5-.678z"/></g><g fill="#2AB573"><path d="M64.731 144.266l6.609 3.304 6.609-3.304-6.609-3.305z"/><path d="M64.731 144.266v6.609l6.609 3.303v-6.608zM71.34 147.57v6.608l6.609-3.303v-6.609zM64.731 144.266l5.783-.412 1.652.826-.826 2.89z"/><path d="M71.34 140.961l-.826 2.893 1.652.826 5.783-.414z"/></g><g fill="#2AB573"><path d="M75.353 141.079l10.856 5.429 10.857-5.429-10.857-5.429z"/><path d="M75.353 141.079v10.857l10.856 5.429v-10.857zM86.209 146.508v10.857l10.857-5.429v-10.857z"/><path d="M75.353 141.079l9.5-.679 2.714 1.358-1.358 4.75zM86.209 135.65l-1.356 4.75 2.714 1.358 9.499-.679z"/></g><g fill="#2AB573"><path d="M79.011 136.83l6.609 3.305 6.608-3.305-6.608-3.305z"/><path d="M79.011 136.83v3.305l6.609 3.304v-3.304zM85.62 140.135v3.304l6.608-3.304v-3.305zM79.011 136.83l5.782-.412 1.653.826-.826 2.891z"/><path d="M85.62 133.525l-.827 2.893 1.653.826 5.782-.414z"/></g><path fill="none" d="M93.88 168.576v-10.621M98.129 166.451V155.83M102.377 164.328v-10.621M106.625 151.582v10.621l-16.993 8.496v-10.621z"/><path fill="none" d="M55.645 145.209l33.987 16.994 16.993-8.496"/><path fill="none" d="M55.645 143.086v14.869l33.987 12.744v-10.621zM58.173 165.389l-2.528-7.434M57.769 144.146v14.602M62.017 146.271v14.073M66.266 148.396v13.577M70.514 163.531V150.52M74.763 165.158v-12.513M79.011 166.717v-11.949M83.259 168.281v-11.388M87.508 169.902v-10.886"/></g><path fill="#F1F1F2" stroke="#58595B" stroke-width=".5" stroke-miterlimit="10" d="M98.925 134.059v-4.248l50.98 25.488v4.25zM132.912 117.064v-4.248l50.981 25.491v4.248z"/><path fill="#F1F1F2" stroke="#58595B" stroke-width=".5" stroke-miterlimit="10" d="M149.905 155.299l33.988-16.992v4.248l-33.988 16.994zM98.925 129.811v-8.498l6.372 3.186v8.497zM132.912 113.879v-8.497l6.372 3.186v8.496z"/><path fill="#F1F1F2" stroke="#58595B" stroke-width=".5" stroke-miterlimit="10" d="M98.925 121.313l33.987-16.994 6.372 3.187-33.987 16.993z"/><path fill="#F1F1F2" stroke="#58595B" stroke-width=".5" stroke-miterlimit="10" d="M105.297 132.996v-18.057l19.118 9.56v18.056zM139.284 116.002V97.947l19.118 9.559v18.055z"/><path fill="#E6E7E8" d="M111.243 139.27c1.056.586 1.91 2.791 1.911 4.924.003 2.134-.853 3.388-1.907 2.801-1.058-.586-1.913-2.79-1.914-4.924-.001-2.133.854-3.387 1.91-2.801z"/><path fill="#F1F1F2" stroke="#58595B" stroke-width=".5" stroke-miterlimit="10" d="M111.244 141.416c.469.26.849 1.24.85 2.188.001.948-.379 1.504-.848 1.244-.471-.262-.852-1.24-.853-2.188.002-.948.382-1.506.851-1.244z"/><path fill="#58595B" d="M111.241 135.408c2.109 1.173 3.823 5.581 3.825 9.847.002 4.265-1.707 6.772-3.816 5.599-2.111-1.172-3.825-5.58-3.827-9.846-.004-4.266 1.706-6.772 3.818-5.6zm.006 11.584c1.056.587 1.91-.667 1.907-2.799-.001-2.133-.855-4.338-1.911-4.924-1.058-.586-1.911.668-1.909 2.799 0 2.134.857 4.338 1.913 4.924"/><path fill="#F1F1F2" stroke="#58595B" stroke-width=".5" stroke-miterlimit="10" d="M132.912 146.803v-7.435l16.993 8.497v7.434z"/><path fill="#F1F1F2" stroke="#58595B" stroke-width=".5" stroke-miterlimit="10" d="M132.912 139.368l33.986-16.993 16.995 8.497-33.988 16.993z"/><path fill="#F1F1F2" stroke="#58595B" stroke-width=".5" stroke-miterlimit="10" d="M149.905 147.865v7.434l33.988-16.992v-7.435z"/><path fill="#D0D2D3" stroke="#58595B" stroke-width=".5" stroke-miterlimit="10" d="M105.297 114.939l33.987-16.992 19.118 9.559-33.987 16.993zM124.415 124.499v18.056l33.987-16.994v-18.055z"/><path fill="#F1F1F2" stroke="#58595B" stroke-width=".5" stroke-miterlimit="10" d="M105.297 91.575v23.364l2.125 1.063V92.637zM139.284 74.582v23.365l2.125 1.062V75.643z"/><path fill="#F1F1F2" stroke="#58595B" stroke-width=".5" stroke-miterlimit="10" d="M105.297 91.575l33.987-16.993 36.111 18.055-33.986 16.994z"/><path fill="#F1F1F2" stroke="#58595B" stroke-width=".5" stroke-miterlimit="10" d="M171.147 94.761l8.497 38.235 4.249-2.124-8.498-38.235zM115.918 144.68l2.125-1.064-3.187-8.497-2.124 1.063zM110.608 132.996l-3.186 5.311-2.125 1.061 3.187-5.309z"/><g stroke="#58595B" stroke-width=".5" stroke-miterlimit="10"><path fill="#F1F1F2" d="M137.16 138.482v-6.195l14.162 7.081v6.196z"/><path fill="#D0D2D3" d="M137.16 132.287l28.322-14.16 14.162 7.08-28.322 14.161z"/><path fill="#F1F1F2" d="M151.322 139.368v6.196l28.322-14.162v-6.195z"/></g><path fill="#F1F1F2" stroke="#58595B" stroke-width=".5" stroke-miterlimit="10" d="M112.732 136.182l-4.248-2.123 2.124-1.063 4.248 2.123zM158.402 140.432l19.118-9.56v-2.124l-19.118 9.559zM158.402 125.561l19.118-9.559v-2.123l-19.118 9.559zM158.402 110.691l19.118-9.558v-2.124l-19.118 9.559z"/><path fill="#F1F1F2" stroke="#58595B" stroke-width=".5" stroke-miterlimit="10" d="M175.395 147.865V84.14l4.249-2.124v63.724zM149.905 149.99v2.123l4.249-2.123v-2.125zM179.644 135.119v2.125l4.249-2.125v-2.123z"/><path fill="#58595B" d="M112.85 151.031l4.288-2.238v-1.877l-4.642 1.969z"/><path fill="#F1F1F2" stroke="#58595B" stroke-width=".5" stroke-miterlimit="10" d="M149.905 149.99l-2.124-1.062v2.123l2.124 1.062zM132.912 146.803v2.125l-6.372-3.188-2.125-3.185zM99.987 123.438v5.31l4.248 2.124v-5.311z"/><path fill="none" stroke="#58595B" stroke-width=".5" stroke-miterlimit="10" d="M99.987 125.561l4.248 2.125M99.987 127.686l4.248 2.125M99.987 126.623l4.248 2.125M104.235 126.623l-4.248-2.124"/><path fill="#F1F1F2" stroke="#58595B" stroke-width=".5" stroke-miterlimit="10" d="M138.222 142.555l-3.186 5.31-2.124 1.063 3.186-5.312z"/><path fill="#E6E7E8" d="M140.238 149.496c1.495.83 2.709 3.953 2.712 6.975.002 3.022-1.212 4.797-2.705 3.967-1.496-.83-2.709-3.953-2.711-6.975-.004-3.022 1.208-4.797 2.704-3.967z"/><path fill="#F1F1F2" stroke="#58595B" stroke-width=".5" stroke-miterlimit="10" d="M140.238 150.211c1.302.723 2.355 3.438 2.356 6.064.001 2.625-1.051 4.168-2.351 3.447-1.302-.725-2.355-3.438-2.357-6.064 0-2.625 1.052-4.168 2.352-3.447z"/><path fill="#F1F1F2" stroke="#58595B" stroke-width=".5" stroke-miterlimit="10" d="M140.24 153.191c.483.27.879 1.283.879 2.264s-.394 1.557-.877 1.287c-.486-.27-.881-1.283-.882-2.264.001-.981.394-1.556.88-1.287z"/><path fill="#58595B" d="M140.235 144.025c2.991 1.662 5.419 7.906 5.424 13.949.003 6.043-2.421 9.596-5.411 7.934-2.992-1.662-5.418-7.906-5.422-13.949-.006-6.043 2.418-9.596 5.409-7.934zm.009 16.413c1.493.83 2.707-.943 2.705-3.967-.003-3.021-1.217-6.145-2.712-6.975-1.494-.83-2.705.945-2.704 3.967.001 3.019 1.215 6.144 2.711 6.975"/><path fill="#F1F1F2" stroke="#58595B" stroke-width=".5" stroke-miterlimit="10" d="M145.657 155.299l2.124-1.061-3.186-8.498-2.124 1.063zM142.471 146.803l-6.373-3.187 2.124-1.061 6.373 3.185zM132.912 120.25v8.498l19.117-9.56v-8.497z"/><g fill="#D0D2D3" stroke="#58595B" stroke-width=".5" stroke-miterlimit="10"><path d="M132.912 120.428l-10.621-5.311 19.118-9.558 10.62 5.31z"/><path d="M141.409 105.559v8.498l10.62 5.308v-8.496zM141.409 114.057l-10.621 5.308 2.124 1.063v8.496l19.117-9.559zM141.094 124.834c-1.731-3.541-8.954-6.145-8.954-6.145M136.862 116.328s7.224 2.605 8.953 6.145M132.141 118.689s2.093-3.393-.564-8.215M136.862 116.328s2.095-3.391-.564-8.213"/></g><path fill="#D0D2D3" stroke="#58595B" stroke-width=".5" stroke-miterlimit="10" d="M132.912 128.748v1.063l19.117-9.561v-1.062z"/><path fill="#F1F1F2" stroke="#58595B" stroke-width=".5" stroke-miterlimit="10" d="M122.291 100.071v23.367l2.124 1.061v-23.366zM141.409 109.631l8.496 38.234 4.249-2.125-8.497-38.234z"/><path fill="#F1F1F2" stroke="#58595B" stroke-width=".5" stroke-miterlimit="10" d="M105.297 91.575l2.125-2.125 31.862 15.932 2.125 4.249z"/><path fill="#F1F1F2" stroke="#58595B" stroke-width=".499985" stroke-miterlimit="10" d="M175.4 92.638l-33.985 16.993-2.124-4.249 33.985-16.992z"/><path fill="#F1F1F2" stroke="#58595B" stroke-width=".5" stroke-miterlimit="10" d="M173.271 88.388l-31.862-15.931-33.987 16.993 31.862 15.932z"/><path fill="#F1F1F2" stroke="#58595B" stroke-width=".5" stroke-miterlimit="10" d="M111.67 88.388s-1.564.856 1.062 2.125l24.43 11.683s2.124 1.063 4.249 0l26.55-12.746s3.187-1.062-1.063-3.186l-23.364-11.683s-1.534-.796-3.188 0L111.67 88.388z"/><path fill="#F1F1F2" stroke="#58595B" stroke-width=".5" stroke-miterlimit="10" d="M155.216 158.486V94.761l4.248-2.124v63.724z"/><path fill="#58595B" d="M142.626 166.119l4.586-2.183-.493-1.202-5.31 1.063z"/><g fill="#F1F1F2" stroke="#58595B" stroke-width=".5" stroke-miterlimit="10"><path d="M145.27 125.627a.445.445 0 0 0-.43-.02l-4.249 2.125a.444.444 0 0 0-.245.395v3.188c0 .152.08.295.21.377a.449.449 0 0 0 .428.018l4.249-2.124a.444.444 0 0 0 .245-.396v-3.186a.44.44 0 0 0-.208-.377z"/><path d="M145.126 127.508l1.593.531v1.594l-1.593-.531z"/></g><path fill="#F1F1F2" stroke="#58595B" stroke-width=".5" stroke-miterlimit="10" d="M155.216 158.486l40.358 20.18 4.25-2.125-40.36-20.18zM175.395 147.865l40.359 20.18 4.249-2.125-40.359-20.18z"/><path fill="#F1F1F2" stroke="#58595B" stroke-width=".5" stroke-miterlimit="10" d="M157.34 160.609l31.862 15.932 29.739-14.869-31.863-15.932z"/><g stroke="#58595B" stroke-width=".5" stroke-miterlimit="10"><path fill="#2AB573" d="M157.34 130.872l31.862 15.931 29.739-14.869-31.863-15.932z"/><path fill="#2AB573" d="M157.34 130.872v29.737l31.862 15.932v-29.738zM189.202 146.803l29.739-14.869v29.738l-29.739 14.869z"/><path fill="#2AB573" d="M157.34 160.609v-2.123l31.862 15.932v2.123zM189.202 174.418l29.739-14.869v2.123l-29.739 14.869zM157.34 132.996l31.862 15.932v-2.125l-31.862-15.931zM189.202 146.803l29.739-14.869v2.125l-29.739 14.869z"/><path fill="none" d="M161.588 128.748l31.863 15.932M165.836 126.623l31.863 15.932M170.085 124.499l31.862 15.933M174.333 122.375l31.862 15.932M178.582 120.25l31.861 15.932M182.83 118.127l31.862 15.932"/></g></svg>