<svg xmlns="http://www.w3.org/2000/svg" xmlns:xlink="http://www.w3.org/1999/xlink" width="360" height="210" viewBox="0 0 360 210"><circle fill="#F1F1F2" stroke="#58595B" stroke-width=".5" stroke-miterlimit="10" cx="274.164" cy="99.567" r="43.582"/><g fill="#D85039" stroke="#58595B" stroke-width=".5" stroke-miterlimit="10"><path d="M253.832 136.398l-.383-.133c-.198-.064-.647-.313-.981-.535-.225-.15-.616-.401-.741-.401-.013 0-.024.005-.04.009v-.061a.128.128 0 0 0-.127-.127h-.389a.126.126 0 0 0-.12.082l-.258.684c-.02.047-.007.1.027.134l.194.196c.119.118.408.281.657.374.173.062.46.159.545.172l.104.015c.008.002.013.002.02.002h.002a.122.122 0 0 0 .108-.063h.016l1.336-.1a.126.126 0 0 0 .115-.11.129.129 0 0 0-.085-.138zM255.871 134.364c-.152-.091-.735-.123-.979-.123-.065 0-.133 0-.19.004l-.229.016a.12.12 0 0 0-.106.067.124.124 0 0 0 .006.126l.04.065-.11.002a.128.128 0 0 0-.062.239l.488.283a.13.13 0 0 0 .165-.032c.031.085.113.138.217.138.193 0 .438-.17.564-.27l.312-.244a.13.13 0 0 0 .051-.105.135.135 0 0 0-.063-.104l-.104-.062zM231.098 96.021l1.056-.404.698.363.42.64a.128.128 0 0 0 .039.038l.389.237c.153.093.448.252.58.252h.006a.212.212 0 0 0 .068-.019c0 .014 0 .028.004.042a.136.136 0 0 0 .073.081l.157.063c.109.045.325.077.47.082l.272.011h.004a.128.128 0 0 0 .098-.047l.053-.063a.13.13 0 0 0 .052.064l.188.115-.068.064a.127.127 0 0 0-.012.175l.647.769a.138.138 0 0 0 .063.041l.066.018-.135.134a.132.132 0 0 0-.029.135l.16.417a.128.128 0 0 0 .081.075l.22.07c.08.025.32.195.533.417.401.421.452.421.501.421.03 0 .067 0 .117-.061.008.005.012.011.021.015l.525.269c.238.123.545.246.688.246a.222.222 0 0 0 .063-.008l.127-.041a.126.126 0 0 0 .089-.121l.001-.392.558-.197.488.222-.211.391a.124.124 0 0 0 .004.125.124.124 0 0 0 .109.062h.061a.127.127 0 0 0-.012.136l.098.186c.042.079.123.354.172.624l.08.448-.276 1.032-.592.745c-.34.43-.742 1.029-.899 1.34l-.277.549a.122.122 0 0 0-.009.096l.148.468a.13.13 0 0 0 .09.086l.352.09-.177.25c-.169.237-.237.373-.259.459a.13.13 0 0 0-.115.06l-.132.215a.13.13 0 0 0-.015.101l.251.908a.135.135 0 0 0 .052.071l.603.394.287.573c.166.327.368.806.451 1.064l.155.479a.162.162 0 0 0 .021.039l.475.604c.256.327.618.916.812 1.312l.354.731c.014.024.03.044.055.057l1.794.942.876.876a.128.128 0 0 0 .025.142.133.133 0 0 0 .143.026l.145.145.287 1.028-.022.777c-.034 1.076-.032 1.27.031 2.975l.055 1.465.002.021.438 2.149-.16 2.505a.14.14 0 0 0 .03.09l.268.322.047 1.107a.12.12 0 0 0 .036.083l1.015 1.034-.131.343a.12.12 0 0 0 .016.119l.499.704-.131.656-.167.053c-.146.046-.296.113-.313.256-.017.156.141.277.414.434l.324.186.214.578c.127.349.385.875.568 1.176l.329.533c.014.02.033.037.055.05l.502.233.152.481a.127.127 0 0 0 .162.083l.43-.137.388.218a.135.135 0 0 0 .139-.01l.708-.522a.124.124 0 0 0 .031-.167l-.146-.238a.132.132 0 0 0-.093-.06.115.115 0 0 0-.052.006l.023-.651.537-1.047a.122.122 0 0 0 .004-.104l-.232-.614a.128.128 0 0 0-.072-.074l-.195-.073c-.063-.025-.227-.17-.346-.352l-.164-.251.61-.802a.137.137 0 0 0 .02-.123l-.13-.338.381-.42c.027-.033.039-.075.027-.118a.136.136 0 0 0-.084-.089l-.481-.151-.334-.647.116-.115.326.171c.107.056.376.188.485.188.063 0 .098-.031.112-.051.041-.049.174-.302.2-.354l.147-.284a.118.118 0 0 0 0-.118l-.243-.453.08-.126h.926a.121.121 0 0 0 .056-.013l.876-.418a.129.129 0 0 0 .063-.063l.284-.624a.115.115 0 0 0-.002-.111l-.547-1.097a.146.146 0 0 0-.063-.06l-.527-.242.01-.063a.482.482 0 0 0-.005-.154l.489.221c.332.153.784.314.967.316l.255.005h.003a.12.12 0 0 0 .079-.027l.272-.219c.138-.115.377-.427.572-.751a.125.125 0 0 0 .098-.123.127.127 0 0 0-.004-.034c.195-.345.48-.795.639-1.008l.295-.394a.127.127 0 0 0 .024-.076v-.58l.179-.254c.121-.172.269-.494.337-.734l.117-.41a.118.118 0 0 0-.002-.074l-.265-.802.368-.313c.228-.194.652-.461.928-.582.195-.086.59-.286.678-.43l.046-.074.848.133a.148.148 0 0 0 .103-.03l.587-.495a.15.15 0 0 0 .035-.051l.604-1.486.007-.025.412-2.156a.176.176 0 0 0 .002-.039l-.159-1.518.289-.289c.191-.191.444-.537.564-.773a6.3 6.3 0 0 1 .612-.902l.417-.518a.115.115 0 0 0 .023-.049l.272-1.012a.113.113 0 0 0 0-.068l-.258-.934a.127.127 0 0 0-.089-.088l-1.373-.398-.973-.975a.123.123 0 0 0-.073-.035l-2.073-.285a.143.143 0 0 0-.089.02l-.483.318-.004-.01a1.05 1.05 0 0 1-.023-.355l.027-.249a.122.122 0 0 0-.063-.125l-1.104-.619a.128.128 0 0 0-.12-.002l-.276.14a4.53 4.53 0 0 0-.622.419l-.267.215-.103-.041.561-.597a.124.124 0 0 0-.002-.176l-.414-.415a.13.13 0 0 0-.091-.038h-.371a.129.129 0 0 0-.085.034l-1.063.978-.11-.111.423-.404c.298-.283.605-.642.697-.814l.156-.291a.128.128 0 0 0-.046-.169l-.219-.135-.29-1.152a.136.136 0 0 0-.037-.062l-1.113-1.027a.126.126 0 0 0-.086-.034h-.38a.14.14 0 0 0-.071.021c-.072-.099-.226-.107-.464-.107l-.289.002-.601.009a.119.119 0 0 0-.058-.082l-.737-.449-.247-.419c-.139-.235-.294-.452-.489-.481l-.13-.157c-.099-.117-.487-.338-.817-.507h.167c.059 0 .109-.04.123-.095l.135-.51a.125.125 0 0 0-.023-.109.122.122 0 0 0-.099-.051h-.53a.127.127 0 0 0-.117.08.124.124 0 0 0 .027.138l.085.086-.206.249-.629-.301a.128.128 0 0 0-.086-.009l-.565.142-1.521-.394-.193-.207a1.477 1.477 0 0 0-.528-.349l-.255-.082a.127.127 0 0 0-.114.021l-.773.573a.126.126 0 0 0-.051.102v.141c0 .129.085.281.169.365l.052.052-.292.36-.155-.29.176-1.043a.11.11 0 0 0-.017-.08l.292-.12a.124.124 0 0 0 .077-.129.121.121 0 0 0-.097-.112l-.472-.112a.122.122 0 0 0-.117.032l-.653.626h-.471a.135.135 0 0 0-.088.033l-.337.313c-.038.036-.379.356-.379.548v.088l-.664.643-.723-.577a.128.128 0 0 0-.08-.028h-.292c-.178 0-.524.086-.792.198l-.396.166-.661-.342c-.003-.007-.004-.017-.009-.023l-.396-.681a.134.134 0 0 0-.078-.06l-.015-.003a.24.24 0 0 0 .026-.114c.002-.055.076-.563.183-1.204l.182-1.125a.126.126 0 0 0-.008-.066l-.126-.334a.135.135 0 0 0-.095-.079l-.777-.156a.12.12 0 0 0-.038-.001l-1.438.16a.15.15 0 0 0-.058.021l-.104-.169 1.266-2.806a.126.126 0 0 0-.048-.16l-.169-.106a.755.755 0 0 0-.428-.123c-.165 0-.372.039-.693.127l-.47.131a.127.127 0 0 0-.087.083l-.278.841-.661.472-1.215.261-.678-.35-.375-.573-.331-1.284a43.835 43.835 0 0 0-.478 3.741l.261.125a.12.12 0 0 0 .103.008zM231.383 91.221l.002-.004c.133-.388.288-.815.336-.936l.091-.224a.12.12 0 0 0-.012-.12c-.007-.012-.02-.021-.029-.029l.069-.027a.127.127 0 0 0 .082-.119v-.189c0-.076.053-.276.127-.44l.12-.263.62-.32c.362-.188.858-.456 1.106-.599.279-.161.464-.226.634-.226.143 0 .29.045.497.15.197.101.542.223.767.271l.393.084a.128.128 0 0 0 .144-.072l.261-.571.771-.255 1.178.504c.027.012.06.014.089.004l.425-.135.525.493-.143.833a.114.114 0 0 0 .007.063l.4 1.137a.12.12 0 0 0 .052.065l.186.118c.077.049.134.086.204.086.137 0 .191-.107.323-.365l.221-.427a.13.13 0 0 0 .015-.075l-.282-2.188.434-.805.749-.532c.416-.294.972-.64 1.216-.755l.46-.215a.125.125 0 0 0 .037-.028l.716-.747a.135.135 0 0 0 .036-.086l.022-1.22.133-.133.117.306a.132.132 0 0 0 .127.082.124.124 0 0 0 .116-.098l.138-.584.396-.25c.251-.158.605-.441.793-.631l.307-.312.532-.162c.316-.097.731-.248.925-.337l.345-.159a.127.127 0 0 0 .07-.089l.14-.629 1.989-.896a.102.102 0 0 0 .043-.033.136.136 0 0 0 .063-.004l.474-.169c.271-.096.561-.166.652-.168l.142-.004.035.058-.336.14c-.241.101-.562.264-.679.363l-.177.146a.13.13 0 0 0-.047.106.13.13 0 0 0 .063.1l.313.194a.123.123 0 0 0 .124.005l.582-.292c.309-.155.737-.323.938-.366a2.73 2.73 0 0 0 .813-.365l.379-.261a.128.128 0 0 0 .047-.153.13.13 0 0 0-.142-.078l-.951.161-.62-.256-.246-.542.17-.137c.149-.121.338-.35.43-.521l.151-.282a.122.122 0 0 0-.005-.125.124.124 0 0 0-.108-.063h-.966a.117.117 0 0 0-.055.013l-1.489.705-.013-.011a.173.173 0 0 1-.038-.097v-.031l2.135-1.022 2.267-.021a.154.154 0 0 0 .024-.002l.511-.104c.289-.059.937-.3 1.44-.538l.899-.424a.121.121 0 0 0 .063-.063l.283-.623a.127.127 0 0 0-.03-.147l-.449-.407a.124.124 0 0 0-.086-.034h-.286c-.176 0-.442.067-.605.155l-.178.094-.073-.075.394-.274a.129.129 0 0 0 .038-.167l-.554-.974.194-.351a.125.125 0 0 0 .001-.123l-.236-.444.115-.299a.124.124 0 0 0 0-.089l-.207-.563a.134.134 0 0 0-.084-.079.122.122 0 0 0-.111.021l-.442.331c-.241.18-.638.431-.888.56l-.375.195-.437-.464.247-.463a.127.127 0 0 0 .009-.099l-.145-.455a.131.131 0 0 0-.061-.074l-.953-.528a.122.122 0 0 0-.042-.014l-1.098-.18a.147.147 0 0 0-.071.008l-.719.298a.127.127 0 0 0-.066.065l-.443.986-.715.508a.126.126 0 0 0-.051.128l.151.81-.566.725-1.467.783a.146.146 0 0 0-.059.066l-.503 1.318-.277.153c-.179.099-.365.164-.417.165l-.076.002-.325-.631.48-1.222a.127.127 0 0 0-.057-.158l-.091-.052c-.08-.044-.35-.112-.512-.147-.197-.043-.711-.249-1.117-.45-.438-.215-.942-.417-1.15-.458l-.289-.058-.127-.287c-.081-.186-.237-.426-.363-.506l-.063-.04.315-.612.703-.451c.398-.256 1.031-.59 1.41-.745l.701-.287a.127.127 0 0 0 .079-.118l.002-.331.45-.015c.324-.01.846-.092 1.16-.181l.557-.158a.131.131 0 0 0 .088-.089.133.133 0 0 0-.029-.122l-.451-.479.064-.04.56.255a.124.124 0 0 0 .111-.003l.761-.393h1.4c.021 0 .04-.005.059-.014l.278-.144c.268-.137 1.176-1.006 1.176-1.255 0-.295-.575-.373-.879-.373h-.351a.14.14 0 0 0-.095.041l-.31.331c-.159.171-.51.426-.769.559l-.409.21-.124-.124.354-.542a.125.125 0 0 0 .015-.108.122.122 0 0 0-.075-.08l-.372-.143a.13.13 0 0 0-.091 0l-.26.099-.197-.371.255-.478a.13.13 0 0 0-.021-.15l-.28-.28a.128.128 0 0 0-.146-.025l-.315.155c-.354.272-.703.548-1.05.831l.366.256-.183.338-.424.118a2.87 2.87 0 0 0-.834.398l-.239.186-.107-.078c-6.965 6.224-11.915 14.645-13.764 24.173zm13.36-11.532l.328-.073c.146-.032.307-.054.392-.054.011 0 .021 0 .023.002a.232.232 0 0 0 .046.004c.01 0 .021-.002.033-.004a2.154 2.154 0 0 0-.119.095l-.343.289-.63-.054.27-.205zm-1.748 1.071l-.381.196h-.355l.047-.192a.534.534 0 0 1 .016-.053c.011.002.021.005.031.005a.143.143 0 0 0 .05-.009l.885-.371.152.154a5.32 5.32 0 0 1-.445.27zm-.512-3.155l-.114.462a.125.125 0 0 0 .036.125l.504.456a.13.13 0 0 0 .146.018l.471-.252.189.102a.964.964 0 0 1 .322.301l.087.158-.162.306-.509-.127a.125.125 0 0 0-.15.082l-.146.426-.363.231c-.024.014-.052.034-.08.054-.007-.006-.01-.014-.019-.021l-.413-.334.188-.238c.227-.288.319-.429.256-.562-.06-.123-.213-.132-.391-.132h-.3a.126.126 0 0 0-.071.021l-.866.576a.112.112 0 0 0-.043.051l-.624 1.302-.422.295-.258-.284.928-1.55.644-.402.952-.16a.131.131 0 0 0 .096-.075.125.125 0 0 0-.008-.12l-.157-.253a.127.127 0 0 0-.14-.056l-.553.139-.823-.392a.123.123 0 0 0-.112.001l-.741.383-.272-.103a2.276 2.276 0 0 1-.171-.075c.062-.046.148-.109.262-.181l.396-.25a.14.14 0 0 0 .053-.071h.001a.127.127 0 0 0 .067 0l.645-.186c.337-.097.783-.179.979-.179l.305.002.381.512zM308.24 113.218a4.138 4.138 0 0 0-.229-.766l-.142-.308a.125.125 0 0 0-.23-.002l-.394.85-1.23 1.095-.771.17a.126.126 0 0 0-.092.075l-.31.748c-.009.02-.013.042-.009.063l.17 1.367-.775 1.258a.15.15 0 0 0-.019.084l.084.67c.095.752.148.92.568 1.158l.053.029c.134.076.214.123.336.123.104 0 .221-.036.452-.104l.573-.174a.13.13 0 0 0 .082-.072l.191-.463c.107-.259.28-.817.385-1.244.102-.42.452-1.5.78-2.408l.599-1.656a.11.11 0 0 0 .006-.064l-.078-.429zM305.246 112.197h-.271a.125.125 0 0 0-.111.066.13.13 0 0 0 .004.129l.078.127c.026.045.125.189.243.189.108 0 .185-.105.185-.258v-.127a.13.13 0 0 0-.128-.126zM285.679 104.292c-.118 0-.216.144-.243.187l-.08.127a.14.14 0 0 0-.003.13c.024.04.064.065.111.065h.271c.07 0 .128-.057.128-.128v-.126c-.001-.15-.077-.255-.184-.255zM286.444 102.762c-.117 0-.217.144-.243.188l-.078.127a.13.13 0 0 0-.005.128.127.127 0 0 0 .111.066h.271a.128.128 0 0 0 .127-.127v-.127c0-.151-.074-.255-.183-.255z"/><path d="M302.684 66.611l-1.107.581-.393-.21.042-.219a.127.127 0 0 0-.021-.1.135.135 0 0 0-.091-.052l-.735-.084a.123.123 0 0 0-.114.05.13.13 0 0 0-.019.125l.267.658-.044.015c-.092.031-.42.121-.717.197l-.554.141a.146.146 0 0 0-.082.065.13.13 0 0 0-.005.104l.1.258-.334.179-.28-.106c-.168-.064-.408-.131-.536-.131l-.151.005a.128.128 0 0 0-.056.24l.351.19c.104.057.18.101.224.132a2.38 2.38 0 0 1-.183.077l-.272.104-.915-.467-.35-.677a.13.13 0 0 0-.062-.058l-.528-.24.107-.107.669.143c.408.088.96.19 1.229.229l.482.07c.022.002.045 0 .066-.009l.741-.307a.126.126 0 0 0 .068-.164l-.137-.354a.125.125 0 0 0-.081-.076l-2.456-.787a.124.124 0 0 0-.063-.004l-.602.118-1.532-.751a.13.13 0 0 0-.053-.013l-2.205-.086a.18.18 0 0 0-.045.006l-.532.173c-.293.095-.936.318-1.429.496l-.891.323a.131.131 0 0 0-.078.08l-.053.16c-.021.051-.214.283-.521.559-.292.262-.598.617-.696.809l-.152.293-1.357.935-.861.239a.124.124 0 0 0-.054.029l-.696.645a.126.126 0 0 0-.03.141l.087.218c.044.108.092.357.106.545l.028.364a.125.125 0 0 0 .049.091l.621.478a.125.125 0 0 0 .076.026l.512.005a.106.106 0 0 0 .068-.019l.775-.474.141.085.23.33c.123.176.271.463.319.625.019.065.047.139.084.212a.12.12 0 0 0-.082.011l-.289.159c-.146.08-.362.164-.474.182l-.051.008.142-.875a.128.128 0 0 0-.197-.127l-.328.214c-.174.115-.391.315-.445.461l-.071.185a.143.143 0 0 0-.006.071l.152.762c.012.06.063.102.124.102h.069l-.332.383h-.357c-.05 0-.096.03-.115.075l-.007.013a.241.241 0 0 0-.162-.05c-.125 0-.608.102-.653.316-.039.057-.232.255-.577.529l-.622.496c-.009.006-.014.015-.021.022h-.285a.127.127 0 0 0-.106.058l-.396.605-.675.349-.181-.11a.128.128 0 0 0-.137.001l-.652.428-.858.009a.123.123 0 0 0-.119.086l-.093.281a.127.127 0 0 0 .073.16l1.086.415.261.788-.077.381c-.044.221-.11.509-.145.629l-.063.226-.001.013-.873-.037a16.494 16.494 0 0 1-1.522-.133l-.584-.094a.121.121 0 0 0-.108.035l-.216.215c-.124.125-.253.326-.253.466v.162c0 .056.037.105.092.122l.064.021-.396 1.848c-.004.014-.004.027-.004.042l.052.446c.016.137.052.46.062.495.021.083.084.128.361.128h.233a.124.124 0 0 0 .114-.073l.005-.012c.06.08.17.158.343.27l.473.302a.127.127 0 0 0 .117.01l.191-.081c.082-.035.351-.094.603-.123.25-.028.583-.079.743-.111l.284-.06a.12.12 0 0 0 .057-.029l.898-.788a.134.134 0 0 0 .043-.096l.002-.511.232-.384c.124-.201.236-.328.274-.357.142-.033.405-.249.519-.346l.335-.288h.316a.129.129 0 0 0 .123-.167l-.102-.301a.128.128 0 0 0-.117-.088l-.092-.003a3.89 3.89 0 0 0 .186-.105l.386-.239 1.067.16a.128.128 0 0 0 .108-.036l.305-.306.008.005c.066.065.172.051.215-.019a.139.139 0 0 0 .021-.065.13.13 0 0 0 .125-.006l.543-.357.387.207.288.697c.01.021.022.04.041.053l.756.558a.122.122 0 0 0 .098.023c.054.07.21.185.67.417l.598.304.459.645-.126.708a.133.133 0 0 0 .067.134c.02.01.039.016.061.016a.13.13 0 0 0 .089-.036l.586-.563a.122.122 0 0 0 .025-.144l-.243-.538.111-.069.709.155a.128.128 0 0 0 .155-.125v-.072c0-.067 0-.15-.84-.574l-.748-.378-1.602-1.609v-.235l.384-.206.228.188-.07.036a.125.125 0 0 0-.067.122.127.127 0 0 0 .086.112l.834.291.649.624a.126.126 0 0 0 .053.029l.378.113c.22.065.352.105.459.105.01 0 .019-.002.026-.003l.268.5a.13.13 0 0 0 .104.068h.009l.01-.002.053.312a4.8 4.8 0 0 0 .2.751l.128.34a.127.127 0 0 0 .073.074l.339.131c.197.076.458.154.595.177l.144.024.008.037-.44.063a.129.129 0 0 0-.095.187l.127.236c.077.143.23.348.354.471.139.137.213.213.32.213.148 0 .211-.124.364-.431l.188-.383a.112.112 0 0 0-.001-.116l-.552-1.04.223-.185.244.081a.128.128 0 0 0 .131-.03l.44-.44.533.102a.107.107 0 0 0 .031 0 .128.128 0 0 0 .126.141l.029-.002.541-.122c.577-.129.622-.176.643-.195a.149.149 0 0 0 .037-.111c-.004-.04-.012-.121-.35-.342l-.194-.127a.124.124 0 0 0 .041-.067l.179-.81a.13.13 0 0 0 0-.052c.008-.008.016-.016.021-.026l.341-.635a.131.131 0 0 0 .012-.035.12.12 0 0 0 .08-.054l.411-.626.646-.335.071.096c.09.119.278.257.433.314l.069.026-.183.219a.12.12 0 0 0-.027.098.125.125 0 0 0 .053.088l.323.225c.158.112.254.179.387.179.134 0 .259-.068.533-.219l.498-.273a.128.128 0 1 0-.059-.24l-.482-.009-.168-.204.462-.2c.322-.139.754-.322.984-.421a.126.126 0 0 0-.002.109.127.127 0 0 0 .06.063l-.16.193a.126.126 0 0 0 .008.171l.089.088-.317.612a.128.128 0 0 0 .053.169l2.081 1.168.11.444a.127.127 0 0 0-.063.049l-.324.487-1.278-.006-1.019-.53a.12.12 0 0 0-.043-.013l-1.308-.173a.128.128 0 0 0-.087.019l-.678.446-.881.047a.127.127 0 0 0-.084.037l-.622.623-.511-.121a.134.134 0 0 0-.1.018l-.381.25a.128.128 0 0 0-.006.211l.521.366v.176c0 .684.43 1.154 1.209 1.325l.396.088a.128.128 0 0 0 .136-.058l.129-.209h.462l.461.349a.127.127 0 0 0 .075.025h.256c.162 0 .442-.088.638-.2l.29-.166.461-.007.112.294-.124.124a.124.124 0 0 0-.036.09v.51c0 .035.013.065.034.087-.002.003-.004.005-.005.009l-.162.649a.114.114 0 0 0 .016.098l.029.048h-.01a.128.128 0 0 0-.125.108l-.146.922-.241.081a.138.138 0 0 0-.05.032.123.123 0 0 0-.066-.003l-.515.129-.737-.257a.116.116 0 0 0-.076-.002l-.921.254-.939-.18c-.34-.065-1.006-.188-1.091-.188h-.097l-.013.002a.12.12 0 0 0-.059-.063l-1.408-.691a.127.127 0 0 0-.058-.014h-.75a.124.124 0 0 0-.111.068l-.278.519a.123.123 0 0 0-.009.099l.119.377-.49.46-.287-.149a3.918 3.918 0 0 0-.878-.292l-.418-.078-.408-.692a.128.128 0 0 0-.078-.059l-.449-.118a73.395 73.395 0 0 0-.782-.198l-.333-.08a.14.14 0 0 0-.095.014l-.6-.626.241-.634a.127.127 0 0 0-.021-.127l-.217-.262.125-.325a.129.129 0 0 0-.059-.158l-.506-.27a.123.123 0 0 0-.103-.008l-.776.271a.13.13 0 0 0-.073.067c-.009.02-.012.041-.009.063l-2.345-.123a.133.133 0 0 0-.04.004l-1.207.319a.084.084 0 0 0-.029.012l-1.256.706a.13.13 0 0 0-.063.09l-1.075-.162-.23-.162c-.152-.105-.271-.183-.393-.183-.198 0-.315.189-.493.476l-.253.411-1.221.784a.148.148 0 0 0-.052.061l-.201.506c-.118.297-.212.668-.212.847v.237l-.335.321a5.89 5.89 0 0 1-.84.641l-.486.299a.129.129 0 0 0-.059.117h-.002a.123.123 0 0 0-.105.057l-.402.606c-.226.337-.507.81-.629 1.053a7.998 7.998 0 0 1-.573.926c-.135.188-.394.587-.394.756v.172a.128.128 0 0 0-.129.127v.069c0 .091.133.361.188.473.09.177.203.583.248.89l.08.553-.248.652a.126.126 0 0 0 .023.129l.006.005-.534.723a.131.131 0 0 0-.012.135l.395.758.001.004-.119.038a.124.124 0 0 0-.041.221.17.17 0 0 0-.037.024l-.064.065a.126.126 0 0 0-.019.157l.083.136c.039.064.086.138.179.17a.124.124 0 0 0-.063.105.124.124 0 0 0 .069.118l.766.385.017.003a.124.124 0 0 0-.005.158l.836 1.089a.137.137 0 0 0 .039.032l-.001.494c0 .035.015.068.04.092l.713.68a.126.126 0 0 0 .126.12l1.074 1.023a.115.115 0 0 0 .056.031l.479.127c.287.077.473.127.488.134a.15.15 0 0 0 .055.011c.084 0 .802-.196 1.021-.255l.922-.253.263.083a.617.617 0 0 0 .188.043.16.16 0 0 0 .079-.018l.016.061a.126.126 0 0 0 .123.097h.093c.189 0 1.645-.516 1.792-.664l.051-.05a.136.136 0 0 0 .071.063.143.143 0 0 0 .039.006.113.113 0 0 0 .065-.019l.21-.129a.069.069 0 0 0 .022-.019c.007.003.009.009.015.011a.12.12 0 0 0 .108.008l.355-.136.002-.001.007.007a.13.13 0 0 0 .118.014l.305-.117.947.483.135.671c.013.06.064.101.126.101h.003l1.382-.039.015-.003.005.007.608.657v.541c0 .025.011.048.022.068a.125.125 0 0 0-.022.068v.511l.002.004a.128.128 0 0 0-.102.092l-.301 1.254a.124.124 0 0 0 .011.089l.152.297c.091.177.339.502.563.739l.392.41c.024.027.059.04.092.04h.005l.157.247c.089.14.229.512.309.812.087.328.271.78.413 1.016l.222.357-.148.592a.11.11 0 0 0 .002.072l.409 1.229-.354.69c-.421.813-.803 1.942-.803 2.361v.248c0 .07.058.128.126.128h.013a.131.131 0 0 0-.012.05v.198c0 .185.339.845.521 1.17l.493.896.247.938c.139.522.286 1.313.332 1.767l.083.83c.002.02.009.037.02.058l.381.584a.133.133 0 0 0 .092.058.12.12 0 0 0 .025.086l.256.326c.144.182.227.355.229.395 0 .181.321.656.336.676l.284.419-.139.854a.122.122 0 0 0 .035.109l.404.404c.161.166.261.266.469.266.141 0 .325-.047.663-.132l.97-.244.929.257c.03.008.063.006.091-.011l1.309-.658a.164.164 0 0 0 .033-.026l.935-.971c.467-.484 1.02-1.115 1.136-1.338.088-.17.303-.414.469-.533l.329-.24a.125.125 0 0 0 .045-.147l-.243-.644.229-.651.325-.134c.219-.092.539-.278.714-.414l.304-.24a.13.13 0 0 0 .046-.072l.161-.742a.118.118 0 0 0-.009-.084l-.263-.516a3.702 3.702 0 0 1-.248-.576c.036-.08.238-.359.54-.699.183-.205.604-.698.604-.853v-.042l.602-.3c.869-.437 1.124-.663 1.439-1.282l.241-.472a.121.121 0 0 0 .011-.085l-.272-1.271.144-.568a.112.112 0 0 0-.008-.086l-.787-1.684-.031-1.707a.138.138 0 0 0 .095-.074l.3-.707.738-.814c.083-.09.168-.188.253-.282a.122.122 0 0 0 .089-.104c.315-.358.589-.69.701-.848l.271-.381 1.972-1.556a.14.14 0 0 0 .035-.042l1.996-3.833a.123.123 0 0 0 .014-.08l-.17-1.01a.135.135 0 0 0-.068-.092.128.128 0 0 0-.116.001l-.703.363-2.377.515-.664-.343v-.202a.127.127 0 0 0-.129-.128v-.352a.126.126 0 0 0-.116-.125v-.002a.122.122 0 0 0-.041-.092l-.269-.365c-.162-.217-.627-.663-1.04-.995l-.7-.56-.076-.356c-.044-.208-.142-.492-.233-.608l-.125-.155a.052.052 0 0 0-.019-.014c.002-.005.004-.009.004-.015a.124.124 0 0 0-.033-.095l-.271-.296a3.199 3.199 0 0 1-.394-.547l-.131-.252-.006-.815a.141.141 0 0 0-.026-.075l-.729-.964c-.004-.004-.009-.006-.012-.011-.01-.116-.117-.367-.446-1.003a31.764 31.764 0 0 0-.948-1.699l-.482-.796.057-.058.773.977c.029.04.082.056.13.044a.125.125 0 0 0 .095-.1l.128-.671.405 1.227a.183.183 0 0 0 .021.039l.595.755c.324.417.729.927.9 1.14l.292.362.407 1.408a.142.142 0 0 0 .03.054l.512.527c.269.277.449.51.476.574.021.165.297.497.354.564l.323.385a.131.131 0 0 0 .071.041l.171 1.374a.136.136 0 0 0 .013.042l.495.968a.124.124 0 0 0 .134.068l.946-.172a.101.101 0 0 0 .033-.012l.702-.347c.382-.188.971-.446 1.312-.574l.623-.234a.124.124 0 0 0 .045-.029l1.051-1.036a.09.09 0 0 0 .025-.042l.801-.15a.111.111 0 0 0 .052-.023l.807-.598a.097.097 0 0 0 .032-.035l.362-.59c.196-.32.54-.792.764-1.053.104-.121.445-.529.445-.687 0-.273-1.001-.992-1.426-1.212l-.402-.207-.012-.004-.025-.344c-.014-.213-.03-.437-.036-.499l-.011-.113a.125.125 0 0 0-.087-.109.126.126 0 0 0-.136.036l-1.007 1.142-.765.143-.461-.247a.308.308 0 0 0 .144-.191c.031-.136-.047-.28-.136-.415l-.134-.193a.119.119 0 0 0-.105-.058.127.127 0 0 0-.107.059l-.239.374a.112.112 0 0 0-.017.037l-.283-.108-.244-.911a.156.156 0 0 0-.021-.043l-.64-.866a.122.122 0 0 0-.058-.044l-.122-.04a.116.116 0 0 0 .011-.048v-.507l.092.017a.125.125 0 0 0 .133-.063.125.125 0 0 0-.015-.146h.035c.125.001.355.047.503.098l.24.085.584 1.151a.125.125 0 0 0 .06.058l1.547.74a.125.125 0 0 0 .091.006L311 89.49l.75.867a.137.137 0 0 0 .071.042l.559.109c.422.082.685.118.878.118a.824.824 0 0 0 .457-.113l.114-.073a.126.126 0 0 0 .087.051l1.347.168c.021.003.046 0 .066-.01l.589-.268.675.35v.038c0 .132.15.317.237.405.045.043.086.08.127.112-1.883-9.782-7.031-18.403-14.273-24.675zm-19.961 13.755l.02-.007.004.009-.024-.002zm11.915-9.317a.125.125 0 0 0-.074.124l.002.016-.256-.064a4.293 4.293 0 0 0-.729-.098l-.384-.013a.109.109 0 0 0-.071.02l-.372.236a.136.136 0 0 0-.06.09.139.139 0 0 0 .032.103l.459.508a.14.14 0 0 0 .058.035l-.227.28-.178-.096c-.146-.077-.376-.16-.521-.16h-.191a.128.128 0 0 0-.121.089l-.154.488a.138.138 0 0 0-.003.07l.141.549a.113.113 0 0 0-.048.023l-.554.448a.134.134 0 0 0-.045.081 2.459 2.459 0 0 1-.546-.124l-.271-.094a.124.124 0 0 0-.087.001l-1.318.494a.13.13 0 0 0-.069-.083l-.575-.262a.132.132 0 0 0-.094-.004l-.715.25-.172-.155a1.398 1.398 0 0 0-.146-.111l.245-.205.179.178c.025.025.06.04.098.038a.134.134 0 0 0 .091-.046l.324-.39a.13.13 0 0 0 .021-.127l-.055-.143c.014.017.024.033.037.047.11.126.234.25.418.25.156 0 .33-.089.617-.268l.427-.263a.126.126 0 0 0 .056-.072l.29-.965.176-.095c.275-.148.692-.52.692-.745 0-.15-.188-.262-.348-.313l-.217-.071-.327-.499.34-.653.524-.167a.133.133 0 0 0 .053-.032l1.43-1.445c.004.003.004.008.008.01l.317.362-.131.247a9.26 9.26 0 0 1-.525.82l-.366.509a.134.134 0 0 0-.02.105l.15.604c.01.038.036.068.071.085l1.029.463a.117.117 0 0 0 .078.008l1.316-.294.388.077c.189.038.335.099.385.126l-.482.223zM278.736 98.87c.008-.011.019-.025.03-.043l.041.044-.071-.001zm26.587-20.108l.39-.277a.125.125 0 0 0 .053-.095.115.115 0 0 0-.007-.045l.88-.345.699.29.407.573-.076.047-.203-.125a.13.13 0 0 0-.099-.015l-.615.155a.134.134 0 0 0-.081.063l-.271.507a.122.122 0 0 0 0 .12l.271.509c.013.023.03.042.056.053l.891.456a.126.126 0 0 0 .052.053v.153c0 .044.022.086.062.109a.128.128 0 0 0 .127.002l.386-.208.514.671-.313.167-.378-.145a.126.126 0 0 0-.14.034.135.135 0 0 0-.02.145l.158.306c.092.177.271.44.397.586.108.125.235.375.275.544l.08.343.001.003-.054.025a.124.124 0 0 0-.079.117v.084a1.177 1.177 0 0 1-.313.217l-.321.167-1.631-.826-.244-.459c.164-.001.208-.171.261-.386l.077-.31a.105.105 0 0 0-.004-.076l-.267-.704a.274.274 0 0 0-.025-.042l-.294-.318a.131.131 0 0 0-.038-.043l-.642-.696v-.306a.125.125 0 0 0-.059-.106l-.45-.299.092-.169c.064-.119.278-.35.495-.504zM250.989 97.234l-.128-.079a.127.127 0 0 0-.128-.003.122.122 0 0 0-.065.111v.27c0 .07.058.127.128.127h.127c.15 0 .256-.075.256-.184-.001-.117-.145-.214-.19-.242zM250.229 96.258c-.117 0-.216.144-.244.188l-.076.127a.129.129 0 0 0-.004.13c.021.04.064.065.111.065h.27c.07 0 .128-.057.128-.127v-.128c-.002-.15-.076-.255-.185-.255z"/><circle cx="270.177" cy="96.131" r=".255"/><path d="M249.917 95.365h-.271a.129.129 0 0 0-.127.128v.127c0 .15.076.255.185.255.118 0 .217-.145.243-.188l.079-.127a.131.131 0 0 0 .002-.13.129.129 0 0 0-.111-.065zM269.029 94.856h-.271a.123.123 0 0 0-.11.065.132.132 0 0 0 .002.129l.079.126c.027.045.125.188.244.188.107 0 .185-.104.185-.254v-.128a.128.128 0 0 0-.129-.126zM249.266 94.6h-.271a.127.127 0 0 0-.107.196l.079.126c.026.044.125.189.243.189.106 0 .184-.105.184-.255v-.127a.13.13 0 0 0-.128-.129zM249.841 94.683l-.127-.079a.127.127 0 0 0-.129-.002.125.125 0 0 0-.065.11v.27c0 .071.058.128.127.128h.128c.15 0 .255-.076.255-.185-.001-.116-.144-.214-.189-.242zM241.866 94.48l-.479-.364a.136.136 0 0 0-.078-.024h-.589a.127.127 0 0 0-.127.127v.117c0 .133.12.251.238.299.118.048.391.077.588.08l.383.006h.003a.13.13 0 0 0 .13-.127.124.124 0 0 0-.069-.114zM245.719 93.817a2.532 2.532 0 0 0-.766-.317l-.383-.076a.125.125 0 0 0-.105.026c-.003.002-.004.007-.008.011-.013-.004-.024-.009-.037-.009h-.775a.125.125 0 0 0-.108.063.124.124 0 0 0-.002.125l.207.389-.161.1-1.006-.023a.134.134 0 0 0-.13.103.13.13 0 0 0 .078.144l.622.249c.024.01.051.012.075.006l.658-.145.186.107c.251.146.289.151.31.153h.015c.074 0 .113-.023.136-.127l.024.004h.002l.097-.002c.088-.002.527-.111.749-.168l.625-.163a.125.125 0 0 0 .093-.102.125.125 0 0 0-.056-.127l-.34-.221zM247.246 94.091h-.646a.123.123 0 0 0-.107.059l-.137.22a.129.129 0 0 0 .02.157l.175.173a.122.122 0 0 0 .089.037l.021-.001.5-.074a.132.132 0 0 0 .103-.086l.105-.319a.128.128 0 0 0-.019-.115.135.135 0 0 0-.104-.051zM243.019 92.981a37.114 37.114 0 0 0-1.985-1.061l-.573-.286a.137.137 0 0 0-.048-.013l-1.481-.114a.121.121 0 0 0-.062.012l-1.006.453a.126.126 0 0 0-.074.116v.109c0 .043.003.09.026.133.02.035.065.091.165.091.095 0 .222-.044.605-.2l.461-.184.85.235 1.144.74-.167.201a.13.13 0 0 0-.02.134.13.13 0 0 0 .114.074l.526.008c.281.004.475.035.521.053.064.057.161.083.296.083.156 0 .363-.035.611-.107l.319-.09a.124.124 0 0 0 .09-.105.126.126 0 0 0-.061-.126l-.251-.156zM243.301 92.058c-.092 0-.208.047-.354.141l-.19.123a.132.132 0 0 0-.053.144.126.126 0 0 0 .122.091l.573.004a.13.13 0 0 0 .09-.037.125.125 0 0 0 .037-.09v-.129c-.001-.182-.122-.247-.225-.247zM241.721 90.62l-.183-.064.101-.385a.127.127 0 0 0-.021-.11.128.128 0 0 0-.104-.049h-.132c-.124 0-.258.104-.308.244l-.06.158a.124.124 0 0 0 .024.127l.39.448a.127.127 0 0 0 .095.043h.002a.135.135 0 0 0 .095-.041l.148-.165a.127.127 0 0 0 .031-.116.12.12 0 0 0-.078-.09zM242.075 89.263a.147.147 0 0 0-.11.047c-.117.116-.029.365-.011.414.034.09.111.243.243.243a.158.158 0 0 0 .111-.047c.116-.117.029-.366.009-.415-.032-.09-.11-.242-.242-.242zM241.759 89.245h-.485a.129.129 0 0 0-.128.127v.192c0 .277.113.318.181.318.028 0 .104 0 .333-.229l.189-.191a.123.123 0 0 0 .028-.138.126.126 0 0 0-.118-.079zM249.464 85.674c-.119 0-.217.144-.243.188l-.079.127a.13.13 0 0 0-.003.129.123.123 0 0 0 .11.066h.271a.127.127 0 0 0 .127-.127v-.128c-.001-.15-.076-.255-.183-.255zM299.244 84.271h-.117c-.122 0-.244.095-.304.188l-.043.066h-.422a.128.128 0 0 0-.128.128v.106c0 .092.048.206.113.272l.076.076a.13.13 0 0 0 .091.038.114.114 0 0 0 .053-.012l.3-.133c.173-.078.376-.234.434-.381l.065-.173a.12.12 0 0 0-.015-.118.121.121 0 0 0-.103-.057zM295.328 84.56l-.284-.076c-.155-.042-.486-.073-.771-.073l-.57.009a.123.123 0 0 0-.121.101.123.123 0 0 0 .069.142l.768.351c.015.007.031.01.05.011l.687.011h.001a.125.125 0 0 0 .109-.06l.141-.227a.13.13 0 0 0 .01-.114.144.144 0 0 0-.089-.075zM289.35 82.958l-.363-.072a.161.161 0 0 0-.058 0l-.585.154a.127.127 0 0 0-.095.109.124.124 0 0 0 .067.127l1.122.575a.144.144 0 0 0 .103.006.119.119 0 0 0 .071-.071l.089-.211c.066-.165.126-.307.063-.426-.063-.115-.199-.147-.414-.191zM286.669 81.2a.127.127 0 0 0-.156.018l-.362.363a.126.126 0 0 0-.029.132l.277.8a.13.13 0 0 0 .066.074.133.133 0 0 0 .055.012.15.15 0 0 0 .046-.009l.362-.139a.126.126 0 0 0 .082-.12v-.85a.124.124 0 0 0-.061-.108l-.28-.173zM283.843 81.849h-.376a.127.127 0 0 0-.12.081l-.153.401a.131.131 0 0 0 .021.128.131.131 0 0 0 .123.043l.425-.083a.133.133 0 0 0 .097-.084l.105-.319a.12.12 0 0 0-.019-.115.125.125 0 0 0-.103-.052zM286.836 80.208l-.381.146a.127.127 0 0 0-.083.12v.156a.52.52 0 0 0 .122.332.44.44 0 0 0 .28.123h.106a.128.128 0 0 0 .128-.128v-.629a.129.129 0 0 0-.055-.105.117.117 0 0 0-.117-.015zM257.508 76.708a.135.135 0 0 0-.091-.072l-.672-.146-.165-.297.342-.379a.122.122 0 0 0 .021-.136.129.129 0 0 0-.116-.077h-.284a.133.133 0 0 0-.091.037l-1.788 1.77a.124.124 0 0 0-.03.133.13.13 0 0 0 .107.085l.475.05c.149.015.358.032.562.047a.1.1 0 0 0-.01.046v.191c0 .277.113.318.179.318.033 0 .138 0 .242-.272l.073-.191a.132.132 0 0 0 .006-.065l.451.018h.006a.115.115 0 0 0 .033-.004l.947-.262a.133.133 0 0 0 .081-.07.13.13 0 0 0 .001-.106l-.279-.618zM283.263 74.619a.128.128 0 0 0-.141-.057l-.392.103-.168-.371a6.953 6.953 0 0 0-.464-.846l-.243-.36a.121.121 0 0 0-.061-.048l-.466-.177.44-.47a.127.127 0 0 0-.076-.213l-.466-.071.036-.181a.124.124 0 0 0-.025-.107.131.131 0 0 0-.101-.045l-.096.001c-.225.005-.46.208-.639.545l-.15.287a.126.126 0 0 0-.001.118l.204.397-.096.266a.118.118 0 0 0 .014.112.13.13 0 0 0 .095.059l.171.015c.104.009.268.005.358-.006l.06-.008.092.239c.077.204.119.377.119.413v.036l-.68.236a.128.128 0 0 0-.078.078.116.116 0 0 0 .012.11l.104.167-.371.272a.127.127 0 0 0 .052.228l.406.081c.172.035.308.088.366.118l-.197.071c-.2.072-.482.189-.627.261l-.254.125a.124.124 0 0 0-.064.154.127.127 0 0 0 .144.086l.444-.083c.246-.046.891-.147 1.435-.226l.993-.143a.127.127 0 0 0 .102-.086.131.131 0 0 0-.029-.13l-.181-.18.532-.348a.127.127 0 0 0 .038-.174l-.151-.248z"/><path d="M280.073 73.369l-.854-.082a.129.129 0 0 0-.097.032l-.212.185c-.104.09-.31.203-.449.247l-.289.087a.13.13 0 0 0-.091.122v.112c0 .12.095.24.188.298l.025.017-.325.63a.126.126 0 0 0-.006.104l.158.414a.14.14 0 0 0 .07.072.135.135 0 0 0 .1-.001l.207-.089c.108-.048.442-.171.728-.27l.529-.184a.127.127 0 0 0 .085-.106l.098-.835a.139.139 0 0 0-.024-.092l.161-.022a.127.127 0 0 0 .11-.126V73.5a.125.125 0 0 0-.112-.131zM280.704 73.688c-.117 0-.217.143-.243.188l-.078.127c-.024.04-.024.089-.003.129s.064.065.112.065h.269a.128.128 0 0 0 .128-.128v-.127c0-.15-.075-.254-.185-.254zM291.549 70.519l-.233.018c-.283.021-.336.159-.345.218-.009.055-.003.194.231.289.117.047.2.075.271.075.144 0 .211-.098.211-.291v-.182a.127.127 0 0 0-.135-.127zM279.282 60.53l-1.66.166-.974-.496a.131.131 0 0 0-.041-.013l-2.172-.289a.14.14 0 0 0-.05.003l-1.052.284-1.294-.155a.109.109 0 0 0-.036 0l-3.304.557-1.392-.033a89.545 89.545 0 0 0-2.369-.025l-.964.007a.12.12 0 0 0-.049.01l-2.392 1.021-1.063.131c-.621.076-1.089.129-1.132.132-.047 0-.188 0-.213.435l-.019.314a.126.126 0 0 0 .086.128l.548.184a.107.107 0 0 0 .039.007l2.288.015.307.285c.175.165.432.51.556.755l.216.42-.114.298a.131.131 0 0 0 .066.162l.552.251.141.699-.23.431-1.187.729a.143.143 0 0 0-.052.057l-.298.656a.12.12 0 0 0 .003.113l.249.465-.279.675a.112.112 0 0 0 .005.104l.472.968c.012.024.03.043.054.056l.638.348c.423.23.682.348.923.348.188 0 .352-.077.5-.159l.278-.155a.124.124 0 0 0 .041-.038l1.263-1.798.827-.511 1.959-.375a.128.128 0 0 0 .053-.024l.398-.304a8.15 8.15 0 0 1 .828-.532l.421-.225 1.37-.021a.083.083 0 0 0 .024-.003l2.23-.468a.135.135 0 0 0 .094-.083.127.127 0 0 0-.023-.124l-.296-.357a.126.126 0 0 0-.119-.045l-.865.146-.043-.07.372-.097a.132.132 0 0 0 .091-.085.132.132 0 0 0-.023-.121l-.176-.212.189-.072.917.636a.132.132 0 0 0 .117.015l.586-.216a.127.127 0 0 0 .08-.101.128.128 0 0 0-.048-.12l-.324-.247a7.35 7.35 0 0 0-.75-.482l-.235-.13c.079-.021.219-.043.384-.049l.441-.015a.158.158 0 0 0 .052-.012l1.264-.593a.124.124 0 0 0 .068-.077l.066-.212c.024-.076.191-.309.409-.518l.376-.36a.128.128 0 0 0 .024-.152l-.188-.349.717-.683 1.361-.179a.149.149 0 0 0 .06-.024l.512-.375a.13.13 0 0 0 .043-.149.132.132 0 0 0-.132-.078zM257.895 67.086c-.15-.106-.398-.29-.556-.407l-.23-.174v-.787a.13.13 0 0 0-.091-.122l-1.207-.382-.549-.686a.126.126 0 0 0-.159-.033l-.263.141c-.142.075-.216.108-.286.108-.12 0-.287-.102-.663-.351l-.588-.39c-.028-.019-.062-.025-.095-.019l-.938.176a.132.132 0 0 0-.061.029l-.729.641-.044-.074.661-.706c.038-.04.046-.1.021-.147a.127.127 0 0 0-.137-.065l-1.019.182a.129.129 0 0 0-.054.022l-.446.327c-.304.224-.817.64-.817.911 0 .115.151.235.445.357l.367.152c.022.01.048.012.071.008l.835-.156 1.192.268c.03.006.062.002.087-.011l.707-.365.772.478.315.542c.371.632.495.634.534.632.031.006.15.063.277.157l.059.043-.487.188-.547-.248a.12.12 0 0 0-.109.002l-.724.374a.133.133 0 0 0-.061.067l-.124.328-1.286-.161a.144.144 0 0 0-.077.014l-.564.303a.125.125 0 0 0-.066.111.127.127 0 0 0 .064.112l.387.217a.129.129 0 0 0 .098.012l.433-.124c.226-.065.531-.119.672-.119h.205l.458.724c.012.017.023.03.042.041l.993.611a.138.138 0 0 0 .065.019l.688.009a.124.124 0 0 0 .108-.061l.129-.208a.135.135 0 0 0 .017-.098.13.13 0 0 0-.06-.079l-.645-.381.006-.008c.008-.013.031-.052.132-.052.09 0 .253.03.53.176l.379.194a.128.128 0 0 0 .1.008.124.124 0 0 0 .074-.068l.278-.61a.127.127 0 0 0-.003-.111l-.352-.679.338-.181.949.484a.125.125 0 0 0 .105.005l.169-.065c.135-.052.309-.242.403-.395l.177-.279a.129.129 0 0 0-.035-.171l-.27-.2zM280.761 69.352h-.383a.126.126 0 0 0-.126.127v.212c0 .071.056.128.126.128h.383a.128.128 0 0 0 .128-.128v-.212a.127.127 0 0 0-.128-.127zM249.872 68.441c-.11-.133-.41-.285-.636-.359l-.431-.142a.128.128 0 0 0-.101.009l-.23.123a2.222 2.222 0 0 0-.495.405l-.229.254a.124.124 0 0 0-.032.104.119.119 0 0 0 .06.09l.269.166a.13.13 0 0 0 .102.015l.885-.245.619.327a.129.129 0 0 0 .172-.05l.21-.374a.126.126 0 0 0-.014-.144l-.149-.179zM276.866 67.55a.124.124 0 0 0-.106-.015l-.981.294-.442-.141a.12.12 0 0 0-.077.001l-1.271.415a.128.128 0 0 0-.083.089l-.132.499a.127.127 0 0 0 .037.125.126.126 0 0 0 .126.029l.367-.116.715.47a.121.121 0 0 0 .068.021.132.132 0 0 0 .034-.004l.19-.052.895-.253.702-.201a.121.121 0 0 0 .042-.022l.614-.478a.125.125 0 0 0 .049-.105.124.124 0 0 0-.057-.102l-.69-.454zM246.439 66.182a.127.127 0 0 0 .067-.124.127.127 0 0 0-.084-.106c-.247.205-.493.413-.736.624.085-.039.185-.09.315-.159l.438-.235zM280.663 65.534c-.093 0-.207.046-.354.14l-.19.124a.132.132 0 0 0-.055.143.131.131 0 0 0 .122.092l.574.004a.131.131 0 0 0 .091-.038.123.123 0 0 0 .037-.09v-.127c.001-.183-.121-.248-.225-.248zM248.271 64.779a.148.148 0 0 0 .05-.01l.209-.09c.097-.04.412-.119.731-.172l.548-.091a.132.132 0 0 0 .068-.036l.269-.269a.13.13 0 0 0 .034-.121.131.131 0 0 0-.086-.091l-.542-.171a.135.135 0 0 0-.063-.004l-.173.036c-.405.283-.812.571-1.209.868l.057.089c.022.04.064.062.107.062zM255.098 63.129l-.723-.182c-.014-.004-.025-.004-.04-.004l-1.793.129-.952-.485a.123.123 0 0 0-.106-.004l-.719.298a.132.132 0 0 0-.071.072l-.074.198c-.107.278-.036.344-.01.369.034.033.067.063 1.644.188.841.067 1.616.128 1.722.135h.021c.153 0 .462-.12.686-.24l.445-.238a.12.12 0 0 0 .065-.128.13.13 0 0 0-.095-.108zM292.875 61.445h-1.681l-.271-.268a.124.124 0 0 0-.138-.028.127.127 0 0 0-.079.118v.178h-.238a.129.129 0 0 0-.125.103l-.019.098-.037-.113a.128.128 0 0 0-.121-.088h-.354a.13.13 0 0 0-.129.127v.124l-2.285-.161a.13.13 0 0 0-.137.129v.392c0 .052.032.099.081.118l.223.09c.126.051.399.145.609.208l.136.041a.124.124 0 0 0-.027.085l.003.096c.002.046.006.17.61.48l.54.276a.145.145 0 0 0 .058.014.138.138 0 0 0 .095-.042l.415-.458c.158-.175.417-.48.443-.625h.294l.213.254-.127.205c-.026.042-.025.097.003.139s.078.063.128.054l.768-.145v.122c0 .042.021.082.058.105a.12.12 0 0 0 .115.014l.378-.145a.127.127 0 0 0 .077-.092.123.123 0 0 0-.033-.117l-.18-.178c-.104-.104-.271-.216-.395-.216-.093 0-.412-.17-.618-.311.151.037.382.084.577.119l.446.079a.118.118 0 0 0 .067-.007l.699-.265a.128.128 0 0 0 .083-.12v-.262a.123.123 0 0 0-.125-.127zm-4.135 1.019l.068-.11.109.109-.177.001z"/><path d="M263.212 59.911l-.624.077c-.341.042-1.396.126-2.352.187-.046.002-4.635.321-4.785.472a.133.133 0 0 0-.03.136c.03.083.042.114 1.022.204l.953.085c.016.001.027 0 .042-.003l.537-.134.041.068-.413.221-2.164-.14a.144.144 0 0 0-.075.019l-.313.194a.125.125 0 0 0-.059.1.123.123 0 0 0 .044.107l.307.254-.049.079-.976-.135c-.063-.009-.125.03-.142.092s.015.126.074.15l.442.191-.141.14-1.729-.014a.129.129 0 0 0-.125.093.128.128 0 0 0 .061.144l.585.334a.122.122 0 0 0 .075.016l1.36-.125.283.167.31.184a.128.128 0 0 0 .074.024c.036 0 .036 0 .81-.392.434-.22.8-.363.869-.367.165 0 .694-.261.952-.397l.688-.369h.254c.188 0 .78-.108 1.244-.213l.932-.21a.061.061 0 0 0 .027-.01l2.059-.988a.126.126 0 0 0 .066-.15.12.12 0 0 0-.134-.091zM253.106 61.813l.216.015h.01a.12.12 0 0 0 .063-.018l.939-.554a.13.13 0 0 0 .062-.104.13.13 0 0 0-.051-.109l-.24-.177c-.528.275-1.053.558-1.566.854l.078.02c.145.031.365.065.489.073z"/></g><ellipse fill="none" stroke="#58595B" stroke-width=".5" stroke-miterlimit="10" cx="274.165" cy="99.567" rx="34.062" ry="43.583"/><ellipse fill="none" stroke="#58595B" stroke-width=".5" stroke-miterlimit="10" cx="274.164" cy="99.567" rx="18.083" ry="43.583"/><path fill="none" stroke="#58595B" stroke-width=".5" stroke-miterlimit="10" d="M274.164 55.984v87.166M230.582 99.567h87.498"/><path fill="#F1F1F2" stroke="#58595B" stroke-width=".5" stroke-miterlimit="10" d="M271.457 55.244h5.523v1.295h-5.523zM272.775 51.125h2.887v4.069h-2.887zM271.457 142.736h5.523v1.296h-5.523zM272.775 144.081h2.887v6.569h-2.887z"/><path fill="#F1F1F2" stroke="#58595B" stroke-width=".5" stroke-miterlimit="10" d="M274.875 148.434c-1.173 0-2.357-.043-3.521-.127l.226-3.16c1.089.076 2.197.117 3.297.117 25.248 0 45.787-20.541 45.787-45.789 0-25.249-20.539-45.789-45.787-45.789-1.348 0-2.704.06-4.034.175l-.276-3.157a49.833 49.833 0 0 1 4.312-.187c26.996 0 48.957 21.962 48.957 48.958-.005 26.995-21.965 48.959-48.961 48.959zM268.814 153.607l2.853-2.851h5.704l2.855 2.851zM260.256 153.607h28.526v2.854h-28.526zM116.403 139.773V54.195s0-2.853 2.854-2.853h125.518s2.853 0 2.853 2.853v85.579H116.403z"/><path fill="#FFF" stroke="#58595B" stroke-width=".5" stroke-miterlimit="10" d="M119.257 57.048h125.518v79.874H119.257z"/><g fill="#F1F1F2" stroke="#58595B" stroke-width=".5" stroke-miterlimit="10"><path d="M179.163 54.195s0-1.223 1.223-1.223h3.26s1.223 0 1.223 1.223c0 1.222-1.223 1.222-1.223 1.222h-3.26s-1.223 0-1.223-1.222z"/><circle cx="180.386" cy="54.195" r=".815"/><circle cx="180.385" cy="54.195" r=".408"/></g><g stroke="#58595B" stroke-width=".5" stroke-miterlimit="10"><path fill="#D85039" d="M233.006 67.24l-6.37-10.192h-8.918l5.095 10.192z"/><path fill="#F1F1F2" d="M243.198 67.24l-7.643-10.192h-8.919l6.37 10.192z"/><path fill="#D85039" d="M252.116 67.24l-7.643-10.192h-8.918l6.369 10.192z"/><path fill="#F1F1F2" d="M222.813 67.24l-5.095-10.192H208.8l3.821 10.192z"/><path fill="#D85039" d="M212.621 67.24L208.8 57.048h-8.919l1.275 10.192z"/><path fill="#F1F1F2" d="M202.43 67.24l-2.549-10.192h-8.919l1.274 10.192z"/><path fill="#D85039" d="M192.236 67.24l-1.274-10.192h-8.917V67.24z"/><path fill="#F1F1F2" d="M111.971 67.24s0 5.93 5.19 5.93c5.188 0 5.188-5.93 5.188-5.93h-10.378z"/><path fill="#D85039" d="M122.19 67.24s0 5.93 4.459 5.93c4.46 0 4.46-5.93 4.46-5.93h-8.919z"/><path fill="#F1F1F2" d="M130.95 67.24s0 5.93 5.188 5.93 5.188-5.93 5.188-5.93H130.95z"/><path fill="#D85039" d="M141.168 67.24s0 5.93 5.188 5.93c5.189 0 5.189-5.93 5.189-5.93h-10.377z"/><path fill="#F1F1F2" d="M151.388 67.24s0 5.93 5.188 5.93 5.188-5.93 5.188-5.93h-10.376z"/><path fill="#D85039" d="M161.606 67.24s0 5.93 5.19 5.93c5.188 0 5.188-5.93 5.188-5.93h-10.378z"/><path fill="#F1F1F2" d="M171.826 67.24s0 5.93 5.188 5.93c5.19 0 5.19-5.93 5.19-5.93h-10.378z"/><path fill="#D85039" d="M182.045 67.24s0 5.93 5.188 5.93c5.189 0 5.189-5.93 5.189-5.93h-10.377z"/><path fill="#F1F1F2" d="M192.263 67.24s0 5.93 5.189 5.93c5.188 0 5.188-5.93 5.188-5.93h-10.377z"/><path fill="#D85039" d="M202.482 67.24s0 5.93 5.188 5.93 5.188-5.93 5.188-5.93h-10.376z"/><path fill="#F1F1F2" d="M212.701 67.24s0 5.93 5.188 5.93 5.188-5.93 5.188-5.93h-10.376z"/><path fill="#D85039" d="M222.92 67.24s0 5.93 5.188 5.93 5.188-5.93 5.188-5.93H222.92z"/><path fill="#F1F1F2" d="M232.979 67.24s0 5.93 4.46 5.93 4.46-5.93 4.46-5.93h-8.92z"/><path fill="#D85039" d="M241.898 67.24s0 5.93 5.188 5.93 5.188-5.93 5.188-5.93h-10.376z"/><path fill="#F1F1F2" d="M131.082 67.24l6.371-10.192h8.919l-5.098 10.192z"/><path fill="#D85039" d="M120.89 67.24l7.644-10.192h8.919l-6.371 10.192z"/><path fill="#F1F1F2" d="M111.971 67.24l7.645-10.192h8.918l-6.37 10.192z"/><path fill="#D85039" d="M141.274 67.24l5.098-10.192h8.917l-3.821 10.192z"/><path fill="#F1F1F2" d="M151.468 67.24l3.821-10.192h8.919l-1.274 10.192z"/><path fill="#D85039" d="M161.66 67.24l2.548-10.192h8.917l-1.273 10.192z"/><path fill="#F1F1F2" d="M171.852 67.24l1.273-10.192h8.92V67.24z"/></g><g stroke="#58595B" stroke-width=".5" stroke-miterlimit="10"><path fill="#F1F1F2" d="M127.583 50.667c.006-.006.012-.013.02-.018l-1.425-2.244.536-.34 1.5 2.362c.648-.043 1.371.323 1.371.323 3.513.608 1.108 2.218 1.108 2.218 1.11-1.505-1.294-1.822-2.482-1.478-.305.087-.499.081-.621.024-.304.083-.712.37-.235 1.355-.001 0-1.942-1.305.228-2.202z"/><path fill="#D85039" d="M127.504 45.413s1.251 1.855-.604 3.106c-1.854 1.251-3.978-1.095-3.978-1.095l4.582-2.011zM112.896 53.887c-1.47 1.216-2.659 2.11-3.024 2.151-.05-.488 4.139-3.873 7.383-6.416 2.842-2.827 7.657-6.755 7.657-6.755s-.896 1.068-2.148 2.485c1.444-1.367 2.56-2.375 2.56-2.375l-.22.292.266-.281s-2.429 4.091-4.663 7.022c-1.809 2.828-4.86 7.216-6.642 7.616-.467-.103-.17-.802.529-1.784-1.03 1.133-2.014 2.012-2.67 2.123-.482-.167.369-1.294 1.63-2.647a3.62 3.62 0 0 1 .408-.682c-1.873 1.963-3.754 3.658-4.74 3.744-.624-.349 1.328-2.368 3.674-4.493z"/><path fill="#D85039" d="M129.862 34.695l-3.313.961s.906-2.378 3.53-6.754c3.452-5.756 5.68-2.072 5.68-2.072l-.998 6.446s-.034 17.786-12.777 12.869l7.878-11.45z"/><path fill="#F1F1F2" d="M129.848 31.894s5.219-2.609 5.065-.614l.307-3.99s-3.838-2.302-5.372 4.604z"/><circle fill="#58595B" cx="132.648" cy="28.095" r=".354"/><path fill="#F1F1F2" d="M134.997 32.038s1.228-2.917 2.149-1.841l-1.843-2.149c0-.001-.997-.078-.306 3.99z"/><path fill="#D85039" d="M108.86 47.656c7.656-1.004 17.688-12 17.688-12l4.554-3.208c.342 2.08.309 3.895.028 5.477-1.577 11.545-13.748 13.471-13.748 13.471l.759-1.195c-2.712 1.63-5.101.112-5.101.112l.758-1.194c-1.953.435-4.938-1.463-4.938-1.463z"/><path fill="#F1F1F2" d="M134.843 28.12s-.334-.624.914-1.291c0 0 3.542 2.118 1.712 4.7.001 0 .292-.957-2.626-3.409z"/></g><defs><path id="a" d="M119.257 57.048h125.518v79.874H119.257z"/></defs><clipPath id="b"><use xlink:href="#a" overflow="visible"/></clipPath><path fill="#F1F1F2" stroke="#58595B" stroke-width=".5" stroke-miterlimit="10" d="M256.496 154.038H109.108l7.799-14.265h131.789zM109.108 154.038h147.389v27.894H109.108z"/><path fill="#D0D2D3" stroke="#58595B" stroke-width=".5" stroke-miterlimit="10" d="M260.61 194.412H101.308l11.484-36.687h140.019z"/><path fill="#F1F1F2" stroke="#58595B" stroke-width=".5" stroke-miterlimit="10" d="M104.993 194.412h-3.685l11.484-36.687h3.686zM260.61 194.412h-3.684l-7.8-36.687h3.685z"/><path fill="none" stroke="#58595B" stroke-width=".5" stroke-miterlimit="10" d="M116.478 157.725h132.648v7.885H116.478z"/><g fill="#F1F1F2" stroke="#58595B" stroke-width=".5" stroke-miterlimit="10"><path d="M141.475 159.743h22.309v23.464h-22.309z"/><path d="M145.658 182.475s0-1.468-2.79-1.468v-19.063s2.79 0 2.79-1.467h13.94s0 1.467 2.79 1.467v19.063s-2.79 0-2.79 1.468h-13.94z"/><ellipse cx="152.629" cy="171.474" rx="8.132" ry="5.132"/><ellipse cx="152.629" cy="171.475" rx="7.203" ry="4.545"/><ellipse cx="152.629" cy="178.807" rx="1.393" ry=".733"/><ellipse cx="152.629" cy="164.143" rx="1.393" ry=".734"/><path d="M141.475 183.207h22.309v.73h-22.309zM141.475 183.938h22.309v.733h-22.309zM141.475 184.672h22.309v.733h-22.309zM141.475 185.405h22.309v.733h-22.309zM118.466 159.743h22.307v23.464h-22.307z"/><path d="M122.648 182.475s0-1.468-2.789-1.468v-19.063s2.789 0 2.789-1.467h13.941s0 1.467 2.79 1.467v19.063s-2.79 0-2.79 1.468h-13.941z"/><ellipse cx="129.619" cy="171.474" rx="8.133" ry="5.132"/><ellipse cx="129.619" cy="171.475" rx="7.202" ry="4.545"/><ellipse cx="129.619" cy="178.807" rx="1.395" ry=".733"/><ellipse cx="129.619" cy="164.143" rx="1.395" ry=".734"/><path d="M118.466 183.207h22.307v.73h-22.307zM118.466 183.938h22.307v.733h-22.307zM118.466 184.672h22.307v.733h-22.307zM118.466 185.405h22.307v.733h-22.307zM165.176 159.743h22.309v23.464h-22.309z"/><path d="M169.36 182.475s0-1.468-2.789-1.468v-19.063s2.789 0 2.789-1.467h13.941s0 1.467 2.789 1.467v19.063s-2.789 0-2.789 1.468H169.36z"/><ellipse cx="176.331" cy="171.474" rx="8.133" ry="5.132"/><ellipse cx="176.331" cy="171.475" rx="7.204" ry="4.545"/><ellipse cx="176.331" cy="178.807" rx="1.394" ry=".733"/><ellipse cx="176.331" cy="164.143" rx="1.394" ry=".734"/><path d="M165.176 183.207h22.309v.73h-22.309zM165.176 183.938h22.309v.733h-22.309zM165.176 184.672h22.309v.733h-22.309zM165.176 185.405h22.309v.733h-22.309zM188.878 159.743h22.309v23.464h-22.309z"/><path d="M193.062 182.475s0-1.468-2.788-1.468v-19.063s2.788 0 2.788-1.467h13.941s0 1.467 2.788 1.467v19.063s-2.788 0-2.788 1.468h-13.941z"/><ellipse cx="200.032" cy="171.474" rx="8.132" ry="5.132"/><ellipse cx="200.032" cy="171.475" rx="7.202" ry="4.545"/><ellipse cx="200.032" cy="178.807" rx="1.394" ry=".733"/><ellipse cx="200.032" cy="164.143" rx="1.394" ry=".734"/><path d="M188.878 183.207h22.309v.73h-22.309zM188.878 183.938h22.309v.733h-22.309zM188.878 184.672h22.309v.733h-22.309zM188.878 185.405h22.309v.733h-22.309z"/><g><path d="M223.089 177.848c-.538-1.103-2.441-1.914-4.704-1.914s-4.166.813-4.705 1.914h-.153v.642c0 1.409 2.177 2.553 4.858 2.553s4.858-1.144 4.858-2.553v-.642h-.154z"/><ellipse cx="218.385" cy="177.848" rx="4.858" ry="2.556"/><ellipse cx="218.385" cy="177.848" rx="3.644" ry="1.916"/></g><g><path d="M227.947 175.295c-.538-1.105-2.44-1.917-4.703-1.917-2.265 0-4.165.812-4.705 1.917h-.153v.639c0 1.408 2.175 2.556 4.858 2.556 2.682 0 4.856-1.146 4.856-2.556v-.639h-.153z"/><ellipse cx="223.243" cy="175.295" rx="4.857" ry="2.553"/><ellipse cx="223.243" cy="175.295" rx="3.644" ry="1.915"/></g><g><path d="M234.02 182.639c-.539-1.103-2.44-1.916-4.704-1.916s-4.167.813-4.704 1.916h-.154v.639c0 1.412 2.177 2.554 4.858 2.554 2.683 0 4.856-1.142 4.856-2.554v-.639h-.152z"/><ellipse cx="229.314" cy="182.638" rx="4.858" ry="2.555"/><ellipse cx="229.315" cy="182.638" rx="3.645" ry="1.917"/></g><g><path d="M238.878 171.46c-.539-1.101-2.441-1.913-4.704-1.913-2.264 0-4.167.813-4.705 1.913h-.154v.642c0 1.41 2.178 2.555 4.859 2.555s4.855-1.145 4.855-2.555v-.642h-.151z"/><path d="M239.03 171.46c0 1.412-2.175 2.558-4.855 2.558-2.683 0-4.859-1.146-4.859-2.558 0-1.409 2.178-2.555 4.859-2.555 2.68 0 4.855 1.146 4.855 2.555z"/><ellipse cx="234.174" cy="171.46" rx="3.644" ry="1.918"/></g><g><path d="M223.089 166.992c-.538-1.104-2.441-1.918-4.704-1.918s-4.166.814-4.705 1.918h-.153v.638c0 1.411 2.177 2.556 4.858 2.556s4.858-1.145 4.858-2.556v-.638h-.154z"/><path d="M223.243 166.992c0 1.408-2.177 2.555-4.858 2.555s-4.858-1.146-4.858-2.555c0-1.414 2.177-2.557 4.858-2.557s4.858 1.143 4.858 2.557z"/><ellipse cx="218.385" cy="166.992" rx="3.644" ry="1.913"/></g><g><path d="M240.092 174.975c-.539-1.102-2.44-1.918-4.704-1.918-2.265 0-4.166.816-4.704 1.918h-.154v.639c0 1.41 2.176 2.555 4.858 2.555s4.858-1.145 4.858-2.555v-.639h-.154z"/><ellipse cx="235.388" cy="174.975" rx="4.858" ry="2.555"/><ellipse cx="235.388" cy="174.976" rx="3.645" ry="1.915"/></g><g><path d="M227.947 182.318c-.538-1.102-2.44-1.916-4.703-1.916-2.265 0-4.165.814-4.705 1.916h-.153v.64c0 1.412 2.175 2.554 4.858 2.554 2.682 0 4.856-1.142 4.856-2.554v-.64h-.153z"/><ellipse cx="223.243" cy="182.318" rx="4.857" ry="2.556"/><ellipse cx="223.243" cy="182.317" rx="3.644" ry="1.915"/></g><g><path d="M235.234 176.57c-.539-1.102-2.44-1.915-4.704-1.915s-4.167.813-4.705 1.915h-.153v.64c0 1.41 2.176 2.554 4.858 2.554 2.684 0 4.857-1.144 4.857-2.554v-.64h-.153z"/><ellipse cx="230.529" cy="176.57" rx="4.858" ry="2.556"/><ellipse cx="230.53" cy="176.57" rx="3.645" ry="1.918"/></g><g><path d="M235.234 168.27c-.539-1.104-2.44-1.916-4.704-1.916s-4.167.813-4.705 1.916h-.153v.637c0 1.41 2.176 2.555 4.858 2.555 2.684 0 4.857-1.145 4.857-2.555v-.637h-.153z"/><ellipse cx="230.529" cy="168.27" rx="4.858" ry="2.553"/><ellipse cx="230.53" cy="168.271" rx="3.645" ry="1.915"/></g><g><path d="M247.38 180.082c-.54-1.102-2.441-1.915-4.705-1.915-2.265 0-4.166.813-4.706 1.915h-.151v.641c0 1.409 2.176 2.555 4.857 2.555s4.855-1.146 4.855-2.555v-.641h-.15z"/><ellipse cx="242.674" cy="180.082" rx="4.856" ry="2.557"/><ellipse cx="242.674" cy="180.082" rx="3.643" ry="1.918"/></g><g><path d="M140.035 161.535l13.289 17.349-20.904 3.783-13.289-17.349z"/><path d="M135.923 181.415s-.83-1.084-3.443-.61l-10.798-14.096s2.614-.475 1.783-1.557l13.064-2.367s.831 1.086 3.444.611l10.798 14.097s-2.612.472-1.784 1.556l-13.064 2.366z"/><path d="M133.32 168.307c4.208-.762 8.923.318 10.529 2.414 1.605 2.096-.505 4.413-4.715 5.176-4.209.762-8.923-.319-10.529-2.414-1.605-2.099.506-4.417 4.715-5.176z"/><path d="M133.653 168.739c3.729-.677 7.902.282 9.324 2.139s-.447 3.909-4.175 4.583c-3.729.676-7.902-.279-9.326-2.139-1.421-1.855.448-3.907 4.177-4.583zM139.965 176.98c.722-.129 1.492.004 1.722.305.229.302-.17.648-.892.779-.724.129-1.492-.006-1.723-.307-.228-.298.171-.648.893-.777zM131.658 166.139c.723-.133 1.491.006 1.723.305.229.301-.17.646-.89.779-.725.131-1.494-.008-1.725-.307-.227-.3.171-.648.892-.777z"/></g></g><path fill="#F1F1F2" stroke="#58595B" stroke-width=".5" stroke-miterlimit="10" d="M101.308 180.861h159.303v17.236H101.308zM260.61 180.861H101.308l1.584-2.099h156.133z"/><path fill="#F1F1F2" stroke="#58595B" stroke-width=".5" stroke-miterlimit="10" d="M168.062 187.28h29.479v3.686h-29.479z"/><g stroke="#58595B" stroke-width=".5" stroke-miterlimit="10"><path fill="#F1F1F2" d="M125.879 141.66h117.978v.748H125.879zM243.856 143.184H125.879l-2.016 5.238h122.009z"/><path fill="#F1F1F2" d="M153.104 146.925h63.525v1.497h-63.525zM245.286 146.925H124.449l.567-1.495h119.705zM244.721 145.43H125.016l.576-1.496 118.472-.138zM170.782 149.889s0-.562 3.402-.562h20.418s3.403 0 3.403.562l.505 1.685s0 .559-3.403.559h-21.426s-3.404 0-3.404-.559l.505-1.685z"/><g fill="none"><path d="M175.793 146.925v-1.495M189.406 145.43v1.495M162.181 146.925v-1.495M203.02 146.925v-1.495"/></g><path fill="none" d="M148.567 145.43v1.495M134.955 145.43v1.495M216.63 145.43v1.495M230.244 145.43v1.495M139.492 145.43v-1.496M153.104 145.43v-1.496M166.718 145.43v-1.496M180.331 145.43v-1.496M193.944 145.43v-1.496M207.556 145.43v-1.496M221.169 145.43v-1.496M234.781 145.43v-1.496M134.955 143.934v-.75M148.567 143.934v-.75M162.181 143.934v-.75M175.793 143.934v-.75M189.406 143.934v-.75M203.02 143.934v-.75M216.63 143.934v-.75M230.244 143.934v-.75M134.955 146.925v1.497M144.03 146.925v1.497M225.706 146.925v1.497M234.781 146.925v1.497"/></g><g stroke="#58595B" stroke-width=".5" stroke-miterlimit="10"><path fill="#F1F1F2" d="M129.393 80.626h11.869v1.979h-11.869zM129.393 84.582h9.892v1.978h-9.892zM129.393 88.538h13.848v1.979h-13.848zM129.393 92.495h11.869v1.978h-11.869zM129.393 96.451h7.913v1.978h-7.913zM129.393 106.341h11.869v1.979h-11.869zM129.393 110.297h11.869v1.979h-11.869zM129.393 114.253h7.913v1.979h-7.913z"/><path fill="#D0D2D3" d="M161.042 80.626h15.825v15.825h-15.825z"/><path fill="#F1F1F2" d="M161.042 98.429h11.87v1.978h-11.87z"/><path fill="#D0D2D3" d="M180.824 80.626h15.823v15.825h-15.823z"/><path fill="#F1F1F2" d="M180.824 98.429h5.934v1.978h-5.934zM188.736 98.429h5.934v1.978h-5.934z"/><path fill="#D0D2D3" d="M200.604 80.626h15.825v15.825h-15.825z"/><path fill="#F1F1F2" d="M200.604 98.429h9.892v1.978h-9.892z"/><path fill="#D0D2D3" d="M161.042 104.363h15.825v15.827h-15.825z"/><path fill="#F1F1F2" d="M161.042 122.165h13.848v1.979h-13.848z"/><path fill="#D0D2D3" d="M180.824 104.363h15.823v15.827h-15.823z"/><path fill="#F1F1F2" d="M180.824 122.165h11.867v1.979h-11.867z"/><path fill="#D0D2D3" d="M200.604 104.363h15.825v15.827h-15.825z"/><path fill="#F1F1F2" d="M200.604 122.165h7.913v1.979h-7.913z"/><path fill="#D0D2D3" d="M161.042 128.1h15.825v8.526h-15.825zM180.824 128.1h15.823v8.526h-15.823zM200.604 128.1h15.825v8.526h-15.825zM220.386 80.626h15.825v15.825h-15.825z"/><path fill="#F1F1F2" d="M220.386 98.429h15.825v1.978h-15.825z"/><path fill="#D0D2D3" d="M220.386 104.363h15.825v15.827h-15.825z"/><path fill="#F1F1F2" d="M220.386 122.165h13.847v1.979h-13.847z"/><path fill="#D0D2D3" d="M220.386 128.1h15.825v8.526h-15.825z"/></g><path fill="none" d="M119.257 57.048h125.518v79.874H119.257z"/><g stroke="#58595B" stroke-width=".5" stroke-miterlimit="10"><g fill="#D85039"><path d="M67.187 110.795l-5.841.43-.47-6.366 5.842-.43z"/><path d="M94.452 108.771l-27.264 2.023-.473-6.37L93.98 102.4z" stroke-width=".50002"/><path d="M69.01 129.871l-5.619.416-1.414-19.108 5.619-.416zM95.24 127.926l-26.225 1.943-1.416-19.108 26.226-1.944z" stroke-width=".500015"/><path d="M69.828 88.373l-5.243.388-.193-2.622 5.243-.387z" stroke-width=".50001"/><path d="M94.304 86.562l-24.478 1.814-.195-2.622 24.48-1.814z" stroke-width=".500015"/><path d="M71.502 104.072l-4.967.368-1.165-15.736 4.968-.367z" stroke-width=".500015"/><path d="M94.685 102.354l-23.183 1.718-1.166-15.735 23.183-1.718zM63.807 74.715l-3.802.282-.14-1.9 3.802-.282z" stroke-width=".500015"/><path d="M81.548 73.402l-17.743 1.315-.14-1.902L81.406 71.5z" stroke-width=".500015"/><path d="M65.023 86.092l-3.6.267-.846-11.407 3.6-.267z" stroke-width=".50002"/><path d="M81.828 84.847l-16.806 1.245-.845-11.407 16.806-1.245z" stroke-width=".500015"/></g><path fill="#F1F1F2" d="M58.091 151.146a3.818 3.818 0 1 1-7.637.001 3.818 3.818 0 0 1 7.637-.001z"/><path fill="#F1F1F2" d="M52.364 143.512v7.634h1.909l3.818-7.634z"/><circle fill="#F1F1F2" cx="54.273" cy="151.146" r="1.909"/><path fill="none" d="M52.511 150.411l3.524 1.474"/><path fill="#F1F1F2" d="M102.194 151.146a3.818 3.818 0 1 1-7.635.003 3.818 3.818 0 0 1 7.635-.003z"/><path fill="#F1F1F2" d="M96.466 143.512v7.634h1.91l3.818-7.634z"/><circle fill="#F1F1F2" cx="98.376" cy="151.146" r="1.909"/><path fill="none" d="M97.037 149.771l2.754 2.752"/><path fill="none" stroke-linecap="round" stroke-linejoin="round" d="M104.612 143.512H49.018s-7.444 0 2.417-9.854M51.435 133.656L46.6 107.068h58.012v21.752zM47.561 112.148h57.051M49.018 120.207h55.594M50.455 128.264h54.157M52.688 107.068v26.474M60.747 107.068v25.743M68.805 107.068v25.009M76.861 107.068v24.276M84.92 107.068v23.543M92.979 107.068v22.811M101.036 107.068v22.065M46.6 107.068l-2.611-7.251H31.905"/><g fill="#F1F1F2"><path d="M29.487 98.515h.93v2.789h-.93zM30.417 98.515h10.227v2.789H30.417z"/><path d="M40.643 97.586h.931v4.646h-.931z"/></g></g></svg>