<svg width="84" height="91" viewBox="0 0 84 91" version="1.1" xmlns="http://www.w3.org/2000/svg" xmlns:xlink="http://www.w3.org/1999/xlink">
<title>Group 2</title>
<desc>Created using Figma</desc>
<g id="Canvas" transform="translate(-23095 -1294)">
<g id="Group 2">
<g id="Ellipse">
<mask id="mask0_outline_ins">
<use xlink:href="#path0_fill" fill="white" transform="translate(23100 1305)"/>
</mask>
<g mask="url(#mask0_outline_ins)">
<use xlink:href="#path1_stroke_2x" transform="translate(23100 1305)" fill="#BDBDBD"/>
</g>
</g>
<g id="lantern">
<g id="Group">
<g id="Group">
<g id="Vector">
<use xlink:href="#path2_fill" transform="translate(23156.6 1311.86)" fill="#C7E4EA"/>
</g>
<g id="Vector">
<use xlink:href="#path3_fill" transform="translate(23170.6 1317.43)" fill="#C7E4EA"/>
</g>
<g id="Vector">
<use xlink:href="#path4_fill" transform="translate(23151 1314.64)" fill="#C7E4EA"/>
</g>
</g>
<g id="Group">
<g id="Group">
<g id="Vector">
<use xlink:href="#path5_fill" transform="translate(23142.1 1319.12)" fill="#DAD7C5"/>
</g>
<g id="Vector">
<use xlink:href="#path6_fill" transform="translate(23145.8 1319.12)" fill="#D85039"/>
</g>
<g id="Vector">
<use xlink:href="#path7_fill" transform="translate(23143.3 1345.06)" fill="#D85039"/>
</g>
<g id="Vector">
<use xlink:href="#path8_fill" transform="translate(23147 1306.16)" fill="#DAD7C5"/>
</g>
</g>
<g id="Vector">
<use xlink:href="#path9_fill" transform="translate(23147.9 1298.05)" fill="#7895A4"/>
</g>
<g id="Vector">
<use xlink:href="#path10_fill" transform="translate(23145.5 1294)" fill="#754C28"/>
</g>
<g id="Vector">
<use xlink:href="#path11_fill" transform="translate(23147.6 1362.89)" fill="#754C28"/>
</g>
<g id="Vector">
<use xlink:href="#path12_fill" transform="translate(23148.5 1363.68)" fill="#A4623D"/>
</g>
<g id="Group">
<g id="Vector">
<use xlink:href="#path13_fill" transform="translate(23151 1336.82)" fill="#0A3542"/>
<use xlink:href="#path14_stroke" transform="translate(23151 1336.82)" fill="#58595B"/>
</g>
<g id="Vector">
<use xlink:href="#path15_fill" transform="translate(23151 1349.68)" fill="#0A3542"/>
<use xlink:href="#path16_stroke" transform="translate(23151 1349.68)" fill="#58595B"/>
</g>
<g id="Vector">
<use xlink:href="#path17_fill" transform="translate(23151 1323.96)" fill="#0A3542"/>
<use xlink:href="#path18_stroke" transform="translate(23151 1323.96)" fill="#58595B"/>
</g>
<g id="Vector">
<use xlink:href="#path19_fill" transform="translate(23151 1311.11)" fill="#0A3542"/>
<use xlink:href="#path20_stroke" transform="translate(23151 1311.11)" fill="#58595B"/>
</g>
<g id="Vector">
<use xlink:href="#path21_fill" transform="translate(23150.1 1315.16)" fill="#B0A690"/>
</g>
<g id="Vector">
<use xlink:href="#path22_fill" transform="translate(23150.1 1340.88)" fill="#B0A690"/>
</g>
<g id="Vector">
<use xlink:href="#path23_fill" transform="translate(23150.1 1328.02)" fill="#B25538"/>
</g>
<g id="Vector">
<use xlink:href="#path24_fill" transform="translate(23150.1 1353.73)" fill="#B25538"/>
</g>
</g>
<g id="Group">
<g id="Vector">
<use xlink:href="#path25_fill" transform="translate(23149.9 1300.11)" fill="#F1F1F2"/>
<use xlink:href="#path26_stroke" transform="translate(23149.9 1300.11)" fill="#58595B"/>
</g>
<g id="Vector">
<use xlink:href="#path27_fill" transform="translate(23154.5 1300.11)" fill="#F1F1F2"/>
<use xlink:href="#path28_stroke" transform="translate(23154.5 1300.11)" fill="#58595B"/>
</g>
<g id="Vector">
<use xlink:href="#path29_fill" transform="translate(23148.8 1300.11)" fill="#F1F1F2"/>
<use xlink:href="#path30_stroke" transform="translate(23148.8 1300.11)" fill="#58595B"/>
</g>
</g>
<g id="Vector">
<use xlink:href="#path31_fill" transform="translate(23145.5 1302.1)" fill="#754C28"/>
</g>
<g id="Vector">
<use xlink:href="#path32_fill" transform="translate(23147.9 1298.05)" fill="#593B23"/>
</g>
</g>
<g id="Vector">
<use xlink:href="#path33_fill" transform="translate(23106.2 1367.27)" fill="#39C67F"/>
</g>
<g id="Group">
<g id="Vector">
<use xlink:href="#path34_fill" transform="translate(23103.4 1320.22)" fill="#C7E4EA"/>
</g>
<g id="Vector">
<use xlink:href="#path35_fill" transform="translate(23109 1323)" fill="#C7E4EA"/>
</g>
<g id="Vector">
<use xlink:href="#path36_fill" transform="translate(23123 1327.18)" fill="#C7E4EA"/>
</g>
<g id="Vector">
<use xlink:href="#path37_fill" transform="translate(23095 1323)" fill="#C7E4EA"/>
</g>
</g>
<g id="Vector">
<use xlink:href="#path38_fill" transform="translate(23111.9 1367.27)" fill="#88D8AA"/>
</g>
<g id="Vector">
<use xlink:href="#path39_fill" transform="translate(23147.9 1376.89)" fill="#39C67F"/>
</g>
</g>
</g>
</g>
</g>
<defs>
<path id="path0_fill" d="M 77 38.5C 77 59.763 59.763 77 38.5 77C 17.237 77 0 59.763 0 38.5C 0 17.237 17.237 0 38.5 0C 59.763 0 77 17.237 77 38.5Z"/>
<path id="path1_stroke_2x" d="M 76 38.5C 76 59.2107 59.2107 76 38.5 76L 38.5 78C 60.3152 78 78 60.3152 78 38.5L 76 38.5ZM 38.5 76C 17.7893 76 1 59.2107 1 38.5L -1 38.5C -1 60.3152 16.6848 78 38.5 78L 38.5 76ZM 1 38.5C 1 17.7893 17.7893 1 38.5 1L 38.5 -1C 16.6848 -1 -1 16.6848 -1 38.5L 1 38.5ZM 38.5 1C 59.2107 1 76 17.7893 76 38.5L 78 38.5C 78 16.6848 60.3152 -1 38.5 -1L 38.5 1Z"/>
<path id="path2_fill" d="M 19.601 9.75239C 19.601 9.75239 19.601 -9.28063e-07 9.8005 -9.28063e-07C 1.91105e-06 -9.28063e-07 3.05768e-07 9.75239 3.05768e-07 9.75239L 19.601 9.75239Z"/>
<path id="path3_fill" d="M 8.40229 4.17924C 8.40229 4.17924 8.40228 -5.02067e-07 4.20114 -5.02067e-07C -2.38882e-06 -5.02067e-07 -3.11884e-06 4.17924 -3.11884e-06 4.17924L 8.40229 4.17924Z"/>
<path id="path4_fill" d="M 13.9996 6.96606C 13.9996 6.96606 13.9996 -5.78138e-07 7.00057 -5.78138e-07C -4.77763e-07 -5.78138e-07 -1.22307e-07 6.96606 -1.22307e-07 6.96606L 13.9996 6.96606Z"/>
<path id="path5_fill" d="M 19.9066 51.8683L 14.9294 8.21564e-07L 4.97515 8.21564e-07L 1.74288e-06 51.8683L 19.9066 51.8683Z"/>
<path id="path6_fill" d="M 11.1977 8.21564e-07L 12.4426 12.9675L 4.8923e-07 12.9675L 1.24341 8.21564e-07L 11.1977 8.21564e-07Z"/>
<path id="path7_fill" d="M 16.1749 -5.78138e-07L 17.4178 12.9675L -9.47882e-07 12.9675L 1.24491 -5.78138e-07L 16.1749 -5.78138e-07Z"/>
<path id="path8_fill" d="M 9.9543 12.9665L 8.71088 -5.17281e-07L 1.24491 -5.17281e-07L 1.62057e-06 12.9665L 9.9543 12.9665Z"/>
<path id="path9_fill" d="M 8.14379 0L 0 0L 0 8.10422L 8.14379 8.10422L 8.14379 0Z"/>
<path id="path10_fill" d="M 12.918 4.05161L 6.46003 -2.28212e-07L 9.78459e-07 4.05161L 12.918 4.05161Z"/>
<path id="path11_fill" d="M 4.77876 0L 0 0L 0 8.10422L 4.77876 8.10422L 4.77876 0Z"/>
<path id="path12_fill" d="M 2.9883 0L 0 0L 0 7.31105L 2.9883 7.31105L 2.9883 0Z"/>
<path id="path13_fill" d="M 2.03745 0L -2.26269e-06 0L -2.26269e-06 4.05161L 2.03745 4.05161L 2.03745 0Z"/>
<path id="path14_stroke" d="M -2.26269e-06 0L -2.26269e-06 -0.3105L -0.310502 -0.3105L -0.310502 0L -2.26269e-06 0ZM 2.03745 0L 2.34795 0L 2.34795 -0.3105L 2.03745 -0.3105L 2.03745 0ZM 2.03745 4.05161L 2.03745 4.36211L 2.34795 4.36211L 2.34795 4.05161L 2.03745 4.05161ZM -2.26269e-06 4.05161L -0.310502 4.05161L -0.310502 4.36211L -2.26269e-06 4.36211L -2.26269e-06 4.05161ZM -2.26269e-06 0.3105L 2.03745 0.3105L 2.03745 -0.3105L -2.26269e-06 -0.3105L -2.26269e-06 0.3105ZM 1.72695 0L 1.72695 4.05161L 2.34795 4.05161L 2.34795 0L 1.72695 0ZM 2.03745 3.74111L -2.26269e-06 3.74111L -2.26269e-06 4.36211L 2.03745 4.36211L 2.03745 3.74111ZM 0.310498 4.05161L 0.310498 0L -0.310502 0L -0.310502 4.05161L 0.310498 4.05161Z"/>
<path id="path15_fill" d="M 2.03745 0L -2.26269e-06 0L -2.26269e-06 4.05211L 2.03745 4.05211L 2.03745 0Z"/>
<path id="path16_stroke" d="M -2.26269e-06 0L -2.26269e-06 -0.3105L -0.310502 -0.3105L -0.310502 0L -2.26269e-06 0ZM 2.03745 0L 2.34795 0L 2.34795 -0.3105L 2.03745 -0.3105L 2.03745 0ZM 2.03745 4.05211L 2.03745 4.36261L 2.34795 4.36261L 2.34795 4.05211L 2.03745 4.05211ZM -2.26269e-06 4.05211L -0.310502 4.05211L -0.310502 4.36261L -2.26269e-06 4.36261L -2.26269e-06 4.05211ZM -2.26269e-06 0.3105L 2.03745 0.3105L 2.03745 -0.3105L -2.26269e-06 -0.3105L -2.26269e-06 0.3105ZM 1.72695 0L 1.72695 4.05211L 2.34795 4.05211L 2.34795 0L 1.72695 0ZM 2.03745 3.74161L -2.26269e-06 3.74161L -2.26269e-06 4.36261L 2.03745 4.36261L 2.03745 3.74161ZM 0.310498 4.05211L 0.310498 0L -0.310502 0L -0.310502 4.05211L 0.310498 4.05211Z"/>
<path id="path17_fill" d="M 2.03745 0L -2.26269e-06 0L -2.26269e-06 4.05211L 2.03745 4.05211L 2.03745 0Z"/>
<path id="path18_stroke" d="M -2.26269e-06 0L -2.26269e-06 -0.3105L -0.310502 -0.3105L -0.310502 0L -2.26269e-06 0ZM 2.03745 0L 2.34795 0L 2.34795 -0.3105L 2.03745 -0.3105L 2.03745 0ZM 2.03745 4.05211L 2.03745 4.36261L 2.34795 4.36261L 2.34795 4.05211L 2.03745 4.05211ZM -2.26269e-06 4.05211L -0.310502 4.05211L -0.310502 4.36261L -2.26269e-06 4.36261L -2.26269e-06 4.05211ZM -2.26269e-06 0.3105L 2.03745 0.3105L 2.03745 -0.3105L -2.26269e-06 -0.3105L -2.26269e-06 0.3105ZM 1.72695 0L 1.72695 4.05211L 2.34795 4.05211L 2.34795 0L 1.72695 0ZM 2.03745 3.74161L -2.26269e-06 3.74161L -2.26269e-06 4.36261L 2.03745 4.36261L 2.03745 3.74161ZM 0.310498 4.05211L 0.310498 0L -0.310502 0L -0.310502 4.05211L 0.310498 4.05211Z"/>
<path id="path19_fill" d="M 2.03745 0L -2.26269e-06 0L -2.26269e-06 4.05111L 2.03745 4.05111L 2.03745 0Z"/>
<path id="path20_stroke" d="M -2.26269e-06 0L -2.26269e-06 -0.3105L -0.310502 -0.3105L -0.310502 0L -2.26269e-06 0ZM 2.03745 0L 2.34795 0L 2.34795 -0.3105L 2.03745 -0.3105L 2.03745 0ZM 2.03745 4.05111L 2.03745 4.36161L 2.34795 4.36161L 2.34795 4.05111L 2.03745 4.05111ZM -2.26269e-06 4.05111L -0.310502 4.05111L -0.310502 4.36161L -2.26269e-06 4.36161L -2.26269e-06 4.05111ZM -2.26269e-06 0.3105L 2.03745 0.3105L 2.03745 -0.3105L -2.26269e-06 -0.3105L -2.26269e-06 0.3105ZM 1.72695 0L 1.72695 4.05111L 2.34795 4.05111L 2.34795 0L 1.72695 0ZM 2.03745 3.74061L -2.26269e-06 3.74061L -2.26269e-06 4.36161L 2.03745 4.36161L 2.03745 3.74061ZM 0.310498 4.05111L 0.310498 0L -0.310502 0L -0.310502 4.05111L 0.310498 4.05111Z"/>
<path id="path21_fill" d="M 3.74025 0L 0 0L 0 0.955696L 3.74025 0.955696L 3.74025 0Z"/>
<path id="path22_fill" d="M 3.74025 0L 0 0L 0 0.953701L 3.74025 0.953701L 3.74025 0Z"/>
<path id="path23_fill" d="M 3.74025 0L 0 0L 0 0.955695L 3.74025 0.955695L 3.74025 0Z"/>
<path id="path24_fill" d="M 3.74025 2.61683e-06L 0 2.61683e-06L 0 0.953702L 3.74025 0.953702L 3.74025 2.61683e-06Z"/>
<path id="path25_fill" d="M -4.28076e-07 2.03353C -4.28076e-07 3.15524 0.915776 4.06557 2.04396 4.06557C 3.17265 4.06557 4.08842 3.15524 4.08842 2.03353C 4.08842 0.909332 3.17265 2.89069e-07 2.04396 2.89069e-07C 0.915776 0.000498826 -4.28076e-07 0.909332 -4.28076e-07 2.03353Z"/>
<path id="path26_stroke" d="M 2.04396 2.89069e-07L 2.04396 -0.3105L 2.04383 -0.3105L 2.04396 2.89069e-07ZM -0.3105 2.03353C -0.3105 3.32845 0.746017 4.37607 2.04396 4.37607L 2.04396 3.75507C 1.08553 3.75507 0.3105 2.98204 0.3105 2.03353L -0.3105 2.03353ZM 2.04396 4.37607C 3.34236 4.37607 4.39892 3.3285 4.39892 2.03353L 3.77792 2.03353C 3.77792 2.98199 3.00294 3.75507 2.04396 3.75507L 2.04396 4.37607ZM 4.39892 2.03353C 4.39892 0.736127 3.34241 -0.3105 2.04396 -0.3105L 2.04396 0.3105C 3.00289 0.3105 3.77792 1.08254 3.77792 2.03353L 4.39892 2.03353ZM 2.04383 -0.3105C 0.746063 -0.309926 -0.3105 0.736051 -0.3105 2.03353L 0.3105 2.03353C 0.3105 1.08261 1.08549 0.310924 2.0441 0.3105L 2.04383 -0.3105Z"/>
<path id="path27_fill" d="M 8.56152e-07 2.03353C 8.56152e-07 3.15524 0.180349 4.06557 0.405786 4.06557C 0.629219 4.06557 0.809569 3.15524 0.809569 2.03353C 0.809569 0.909332 0.62972 2.89069e-07 0.405786 2.89069e-07C 0.18085 0.000498826 8.56152e-07 0.909332 8.56152e-07 2.03353Z"/>
<path id="path28_stroke" d="M 0.405786 2.89069e-07L 0.405786 -0.3105L 0.405098 -0.310499L 0.405786 2.89069e-07ZM -0.310499 2.03353C -0.310499 2.6083 -0.264497 3.13761 -0.186162 3.53085C -0.147507 3.7249 -0.0978517 3.90219 -0.0334592 4.03846C -0.00162946 4.10582 0.0414955 4.17991 0.10172 4.24145C 0.162559 4.30361 0.26502 4.37607 0.405786 4.37607L 0.405786 3.75507C 0.490193 3.75507 0.537704 3.79909 0.54553 3.80708C 0.552742 3.81445 0.544791 3.80866 0.528011 3.77315C 0.495184 3.70368 0.457483 3.58328 0.422871 3.40953C 0.354673 3.06718 0.310501 2.58048 0.310501 2.03353L -0.310499 2.03353ZM 0.405786 4.37607C 0.547266 4.37607 0.649722 4.30266 0.709977 4.24064C 0.769784 4.17909 0.812585 4.10506 0.84417 4.03783C 0.908102 3.90175 0.957509 3.72465 0.996021 3.53066C 1.07406 3.13755 1.12007 2.60832 1.12007 2.03353L 0.499069 2.03353C 0.499069 2.58045 0.4549 3.06725 0.386909 3.40973C 0.352404 3.58354 0.31483 3.70412 0.282106 3.77378C 0.265363 3.80942 0.257418 3.81528 0.264595 3.80789C 0.272221 3.80004 0.320165 3.75507 0.405786 3.75507L 0.405786 4.37607ZM 1.12007 2.03353C 1.12007 1.45759 1.0742 0.92799 0.996221 0.534789C 0.957741 0.340757 0.90834 0.163624 0.84433 0.0275111C 0.8127 -0.0397458 0.769824 -0.113793 0.709891 -0.175345C 0.649433 -0.237434 0.546992 -0.3105 0.405786 -0.3105L 0.405786 0.3105C 0.320564 0.3105 0.272728 0.265851 0.264969 0.257882C 0.257733 0.250451 0.265647 0.256228 0.282369 0.291787C 0.315062 0.361305 0.352611 0.481767 0.387085 0.655593C 0.455012 0.998109 0.499069 1.48527 0.499069 2.03353L 1.12007 2.03353ZM 0.405098 -0.310499C 0.264497 -0.310187 0.162297 -0.237624 0.101677 -0.17558C 0.0416059 -0.114097 -0.0014496 -0.040103 -0.0332571 0.0272215C -0.0976011 0.163414 -0.147272 0.340598 -0.185964 0.534667C -0.26437 0.927923 -0.310499 1.45751 -0.310499 2.03353L 0.310501 2.03353C 0.310501 1.48536 0.354796 0.998425 0.423049 0.656089C 0.457686 0.482362 0.495403 0.361983 0.528232 0.292497C 0.545011 0.256983 0.552988 0.25111 0.545861 0.258404C 0.538186 0.266259 0.490841 0.310313 0.406474 0.3105L 0.405098 -0.310499Z"/>
<path id="path29_fill" d="M -3.97499e-07 2.03353C -3.97499e-07 3.15524 0.179848 4.06557 0.403782 4.06557C 0.626714 4.06557 0.807064 3.15524 0.807064 2.03353C 0.807064 0.909332 0.627215 2.89069e-07 0.403782 2.89069e-07C 0.179848 0.000498826 -3.97499e-07 0.909332 -3.97499e-07 2.03353Z"/>
<path id="path30_stroke" d="M 0.403782 2.89069e-07L 0.403782 -0.3105L 0.403091 -0.310499L 0.403782 2.89069e-07ZM -0.3105 2.03353C -0.3105 2.60827 -0.264627 3.13749 -0.186651 3.53061C -0.148172 3.7246 -0.0987763 3.90175 -0.0347882 4.03789C -0.00317202 4.10515 0.0396847 4.17922 0.0995879 4.24079C 0.159994 4.30287 0.262459 4.37607 0.403782 4.37607L 0.403782 3.75507C 0.489122 3.75507 0.536981 3.79982 0.544689 3.80774C 0.551895 3.81515 0.543962 3.80933 0.527226 3.77373C 0.494511 3.70412 0.456957 3.58359 0.422482 3.40978C 0.354551 3.06731 0.3105 2.58051 0.3105 2.03353L -0.3105 2.03353ZM 0.403782 4.37607C 0.545443 4.37607 0.647897 4.30241 0.708005 4.24044C 0.767706 4.17888 0.810427 4.10487 0.84195 4.03768C 0.905767 3.90164 0.955113 3.72458 0.993589 3.53061C 1.07156 3.13753 1.11756 2.60833 1.11756 2.03353L 0.496564 2.03353C 0.496564 2.58045 0.452397 3.06726 0.384456 3.40978C 0.349978 3.5836 0.312437 3.70423 0.279739 3.77394C 0.263004 3.80961 0.25506 3.81548 0.262228 3.80809C 0.269803 3.80028 0.317855 3.75507 0.403782 3.75507L 0.403782 4.37607ZM 1.11756 2.03353C 1.11756 1.45758 1.07169 0.928006 0.993789 0.534839C 0.955344 0.340822 0.906005 0.163735 0.84211 0.0276688C 0.810542 -0.0395556 0.767747 -0.113586 0.707919 -0.175142C 0.647608 -0.237194 0.545168 -0.3105 0.403782 -0.3105L 0.403782 0.3105C 0.318255 0.3105 0.270311 0.265611 0.262602 0.25768C 0.255376 0.250245 0.263288 0.256038 0.280002 0.291629C 0.312669 0.361194 0.350186 0.481702 0.384632 0.655544C 0.452509 0.998093 0.496564 1.48528 0.496564 2.03353L 1.11756 2.03353ZM 0.403091 -0.310499C 0.26209 -0.310185 0.159877 -0.237104 0.0995414 -0.175061C 0.0396953 -0.113522 -0.00314707 -0.0395185 -0.0347727 0.027746C -0.0987685 0.163859 -0.148168 0.340955 -0.186651 0.534966C -0.264632 0.928109 -0.3105 1.45759 -0.3105 2.03353L 0.3105 2.03353C 0.3105 1.48528 0.354556 0.998239 0.422482 0.65579C 0.456953 0.482005 0.494503 0.361538 0.527211 0.291973C 0.543937 0.256398 0.551884 0.250535 0.544736 0.257885C 0.537098 0.265739 0.489491 0.31031 0.404473 0.3105L 0.403091 -0.310499Z"/>
<path id="path31_fill" d="M 12.918 0L 0 0L 0 4.05211L 12.918 4.05211L 12.918 0Z"/>
<path id="path32_fill" d="M 8.14379 0L 0 0L 0 1.06188L 8.14379 1.06188L 8.14379 0Z"/>
<path id="path33_fill" d="M 69.2237 16.2084L 61.0799 -3.16454e-06L 4.07189 8.10423L 8.10287e-07 16.2084L 69.2237 16.2084Z"/>
<path id="path34_fill" d="M 13.9996 6.96656C 13.9996 6.96656 13.9996 -1.52142e-07 6.99907 -1.52142e-07C 9.55527e-07 -1.52142e-07 4.58653e-07 6.96656 4.58653e-07 6.96656L 13.9996 6.96656Z"/>
<path id="path35_fill" d="M 19.599 9.75289C 19.599 9.75289 19.599 -1.70399e-06 9.79849 -1.70399e-06C 0 -1.70399e-06 8.86729e-07 9.75289 8.86729e-07 9.75289L 19.599 9.75289Z"/>
<path id="path36_fill" d="M 11.1997 5.57265C 11.1997 5.57265 11.1997 -6.38994e-07 5.59986 -6.38994e-07C 1.43329e-06 -6.38994e-07 7.33844e-07 5.57265 7.33844e-07 5.57265L 11.1997 5.57265Z"/>
<path id="path37_fill" d="M 19.599 9.75289C 19.599 9.75289 19.599 -1.70399e-06 9.79849 -1.70399e-06C 0 -1.70399e-06 8.40863e-08 9.75289 8.40863e-08 9.75289L 19.599 9.75289Z"/>
<path id="path38_fill" d="M 55.3753 -3.16454e-06L -5.8096e-07 16.2084L 63.5191 16.2084L 55.3753 -3.16454e-06Z"/>
<path id="path39_fill" d="M 16.2901 8.10672L 12.2182 2.98197e-06L 1.49827e-06 8.10672L 16.2901 8.10672Z"/>
</defs>
</svg>
