<svg width="441" height="498" viewBox="0 0 441 498" xmlns="http://www.w3.org/2000/svg" fill="none"><path opacity=".8" d="M363.725 272.812l-167.346 167.394h58.056l167.396-167.394h-58.106z" fill="url(#a)"/><path opacity=".7" d="M92.566 338.674l132.394 132.071 48.247-48.424-132.941-132.52-47.7 48.873z" fill="url(#b)"/><path opacity=".8" d="M140.312 290.1l132.942 132.52v-171.379l-132.693-132.271-.249 171.13z" fill="url(#c)"/><path opacity=".8" d="M114.224 361.242l-12.497-12.504v-75.079l12.497-12.504v100.087z" fill="url(#d)"/><path opacity=".8" d="M225.805 410.215l14.937-14.946v-109.553l-14.937 14.946v109.553z" fill="url(#e)"/><path opacity=".6" d="M394.594 220.552h-16.879l-50.637 50.616h16.879l50.637-50.616z" fill="url(#f)"/><path opacity=".6" d="M93.064 340.966v-11.06l-33.111 33.13v11.06l33.111-33.13z" fill="url(#g)"/><path opacity=".6" d="M237.808 24.014l-88.378 88.33h5.526l88.379-88.33h-5.527z" fill="url(#h)"/><path opacity=".3" d="M429.745 93.96l-180.292 180.247h11.303l180.242-180.247h-11.253z" fill="url(#i)"/><path opacity=".8" d="M95.055 125.098l-44.164 44.19h5.527l44.165-44.19h-5.527z" fill="url(#j)"/><path opacity=".6" d="M234.469 154.093v14.447l71.997-72.088v-14.398l-71.997 72.039z" fill="url(#k)"/><path opacity=".6" d="M122.938 439.458v20.128l60.296-60.382v-20.077l-60.296 60.331z" fill="url(#l)"/><path opacity=".6" d="M378.715 287.509v18.683l55.865-55.948v-18.682l-55.865 55.947z" fill="url(#m)"/><path d="M83.402 352.025l144.891 144.975v-214.722l-144.592-144.676-.299 214.423zM228.297 282.278l52.828-52.858v214.722l-52.828 52.859v-214.723zM83.703 137.602l144.592 144.676 52.828-52.859-145.14-145.224-52.28 53.407zM83.602 352.474l144.841 144.427 52.728-52.958-145.389-144.975-52.18 53.506zM135.785 298.968v-214.872" stroke="#00B09E" stroke-width=".634" stroke-miterlimit="10" stroke-linecap="round" stroke-linejoin="round"/><path d="M101.574 135.161l34.107-34.176 13.244 13.302-35.003 35.023-12.348-12.355v-1.794zM219.18 253.233l34.156-34.176 13.244 13.252-35.052 35.073-12.348-12.355v-1.794zM111.734 123.753l14.29 14.298 16.332-16.341-14.689-14.697-15.933 16.74z" stroke="#00B09E" stroke-width=".634" stroke-miterlimit="10" stroke-linecap="round" stroke-linejoin="round"/><path opacity=".8" d="M92.117 338.275l132.941 132.52v-171.379l-132.692-132.271-.249 171.13z" fill="url(#n)"/><path opacity=".6" d="M224.809 299.416l48.297-48.325v171.379l-48.297 48.325v-171.379z" stroke="#E18032" stroke-width=".277" stroke-miterlimit="10"/><path opacity=".6" d="M92.613 167.145l132.194 132.271 48.297-48.325-132.692-132.769-47.799 48.823z" fill="url(#o)"/><path d="M140.266 289.801v-171.579" stroke="#E18032" stroke-width=".277" stroke-miterlimit="10"/><path d="M108.945 164.904l31.219-31.237 12.099 12.156-32.015 32.034-11.303-11.309v-1.644zM216.492 272.863l31.219-31.237 12.099 12.106-32.015 32.084-11.303-11.309v-1.644zM118.258 154.491l13.095 13.053 14.937-14.946-13.444-13.452-14.588 15.345z" stroke="#E18032" stroke-width=".277" stroke-miterlimit="10"/><path opacity=".8" d="M224.013 468.305l-45.509-45.585 45.509-45.585v91.17z" fill="url(#p)"/><path opacity=".8" d="M235.367 273.112l13.294-13.302v-119.716l-13.294 13.302v119.716z" fill="url(#q)"/><path opacity=".8" d="M222.719 261.852l13.294-13.302v-119.716l-13.294 13.302v119.716z" fill="url(#r)"/><path opacity=".8" d="M235.117 175.615l-11.801-11.807v96.998l11.801 11.808v-96.999z" fill="url(#s)"/><path opacity=".8" d="M131.797 169.188l13.294-13.302v-119.716l-13.294 13.302v119.716z" fill="url(#t)"/><path opacity=".8" d="M119.152 157.879l13.294-13.302v-119.716l-13.294 13.302v119.716z" fill="url(#u)"/><path opacity=".8" d="M131.55 71.691l-11.8-11.807v96.998l11.8 11.808v-96.999z" fill="url(#v)"/><path opacity=".8" d="M120.797 59.336l115.415 115.531 12.945-12.953-115.016-115.083c.05 0-12.199 11.359-13.344 12.505z" fill="url(#w)"/><path d="M119.305 38.063l115.464 115.531 12.946-12.953-115.017-115.083s-12.248 11.359-13.393 12.505z" fill="#66BAA1"/><path opacity=".8" d="M235.313 172.725v-18.932l-116.211-116.278v21.672l116.36 116.428-.149-2.889z" fill="url(#x)"/><path opacity=".8" d="M144.395 335.336l16.082 16.042v-63.37l-15.883-15.893-.199 63.221z" fill="url(#y)"/><path d="M1 307.686l73.192-73.234v26.155l113.871-113.987M48.051 428.001l106.801-106.863 4.879 4.832 19.369-19.429-10.805-10.811 144.493-144.626" stroke="#00B09E" stroke-width=".634" stroke-miterlimit="10" stroke-linecap="round" stroke-linejoin="round"/><path opacity=".5" d="M216.692 186.973l-63.583-64.417v264.691l63.533 64.417v-264.691h.05z" fill="url(#z)"/><path opacity=".8" d="M151.118 331.798l13.942 13.95-126.469 126.541-12.448-12.454-2.988-2.99 121.987-122.057 5.975-2.99z" fill="url(#A)"/><path opacity=".8" d="M335.144 0l8.614 8.619-78.072 78.067-7.668-7.672-1.842-1.843 75.283-75.327 3.685-1.843z" fill="url(#B)"/><path opacity=".8" d="M272.754 273.011l-8.613-8.619 78.022-78.067 7.717 7.672 1.842 1.844-75.283 75.327-3.685 1.843z" fill="url(#C)"/><path d="M77.13 275.851l-15.634-34.974v-50.566l35.849 35.87v38.61l-20.215 11.06z" fill="#1886B5"/><path opacity=".6" d="M86.591 267.381l-15.634-34.973v-50.567l35.849 35.87v38.611l-20.215 11.059z" fill="#1886B5"/><defs><linearGradient id="a" x1="196.371" y1="356.502" x2="421.817" y2="356.502" gradientUnits="userSpaceOnUse"><stop stop-color="#FB5A0E"/><stop offset="1" stop-color="#EA1B11"/></linearGradient><linearGradient id="b" x1="92.546" y1="380.249" x2="273.186" y2="380.249" gradientUnits="userSpaceOnUse"><stop stop-color="#255487"/><stop offset="1" stop-color="#66BAA1"/></linearGradient><linearGradient id="c" x1="140.289" y1="270.772" x2="273.23" y2="270.772" gradientUnits="userSpaceOnUse"><stop stop-color="#B2190C"/><stop offset="1" stop-color="#E66D12"/></linearGradient><linearGradient id="d" x1="107.974" y1="361.253" x2="107.974" y2="261.12" gradientUnits="userSpaceOnUse"><stop stop-color="#E40233"/><stop offset="1" stop-color="#E66D12"/></linearGradient><linearGradient id="e" x1="233.279" y1="410.23" x2="233.279" y2="285.715" gradientUnits="userSpaceOnUse"><stop stop-color="#255487"/><stop offset="1" stop-color="#66BAA1"/></linearGradient><linearGradient id="f" x1="327.096" y1="245.844" x2="394.583" y2="245.844" gradientUnits="userSpaceOnUse"><stop stop-color="#12BCB9"/><stop offset="1" stop-color="#156C84"/></linearGradient><linearGradient id="g" x1="76.491" y1="329.91" x2="76.491" y2="374.1" gradientUnits="userSpaceOnUse"><stop stop-color="#12BCB9"/><stop offset="1" stop-color="#156C84"/></linearGradient><linearGradient id="h" x1="149.446" y1="68.174" x2="243.32" y2="68.174" gradientUnits="userSpaceOnUse"><stop stop-color="#FB5A0E"/><stop offset="1" stop-color="#EA1B11"/></linearGradient><linearGradient id="i" x1="249.466" y1="184.09" x2="441.007" y2="184.09" gradientUnits="userSpaceOnUse"><stop stop-color="#FB5A0E"/><stop offset="1" stop-color="#EA1B11"/></linearGradient><linearGradient id="j" x1="50.862" y1="147.188" x2="100.557" y2="147.188" gradientUnits="userSpaceOnUse"><stop stop-color="#FB5A0E"/><stop offset="1" stop-color="#EA1B11"/></linearGradient><linearGradient id="k" x1="270.466" y1="168.537" x2="270.466" y2="82.049" gradientUnits="userSpaceOnUse"><stop stop-color="#12BCB9"/><stop offset="1" stop-color="#156C84"/></linearGradient><linearGradient id="l" x1="153.09" y1="459.569" x2="153.09" y2="379.107" gradientUnits="userSpaceOnUse"><stop stop-color="#12BCB9"/><stop offset="1" stop-color="#156C84"/></linearGradient><linearGradient id="m" x1="406.644" y1="306.183" x2="406.644" y2="231.559" gradientUnits="userSpaceOnUse"><stop stop-color="#12BCB9"/><stop offset="1" stop-color="#156C84"/></linearGradient><linearGradient id="n" x1="92.121" y1="318.97" x2="225.062" y2="318.97" gradientUnits="userSpaceOnUse"><stop offset=".003" stop-color="#E30D13"/><stop offset="1" stop-color="#EC9200"/></linearGradient><linearGradient id="o" x1="92.617" y1="208.869" x2="273.108" y2="208.869" gradientUnits="userSpaceOnUse"><stop stop-color="#B2190C"/><stop offset="1" stop-color="#E66D12"/></linearGradient><linearGradient id="p" x1="201.265" y1="468.304" x2="201.265" y2="377.124" gradientUnits="userSpaceOnUse"><stop stop-color="#B2190C"/><stop offset="1" stop-color="#E66D12"/></linearGradient><linearGradient id="q" x1="241.984" y1="186.673" x2="241.984" y2="125.915" gradientUnits="userSpaceOnUse"><stop stop-color="#255487"/><stop offset="1" stop-color="#66BAA1"/></linearGradient><linearGradient id="r" x1="229.369" y1="175.38" x2="229.369" y2="114.622" gradientUnits="userSpaceOnUse"><stop stop-color="#255487"/><stop offset="1" stop-color="#66BAA1"/></linearGradient><linearGradient id="s" x1="229.202" y1="272.613" x2="229.202" y2="163.831" gradientUnits="userSpaceOnUse"><stop stop-color="#255487"/><stop offset="1" stop-color="#66BAA1"/></linearGradient><linearGradient id="t" x1="138.414" y1="82.716" x2="138.414" y2="21.957" gradientUnits="userSpaceOnUse"><stop stop-color="#255487"/><stop offset="1" stop-color="#66BAA1"/></linearGradient><linearGradient id="u" x1="125.803" y1="71.423" x2="125.803" y2="10.665" gradientUnits="userSpaceOnUse"><stop stop-color="#255487"/><stop offset="1" stop-color="#66BAA1"/></linearGradient><linearGradient id="v" x1="125.636" y1="168.656" x2="125.636" y2="59.874" gradientUnits="userSpaceOnUse"><stop stop-color="#255487"/><stop offset="1" stop-color="#66BAA1"/></linearGradient><linearGradient id="w" x1="120.779" y1="110.849" x2="249.197" y2="110.849" gradientUnits="userSpaceOnUse"><stop stop-color="#255487"/><stop offset="1" stop-color="#66BAA1"/></linearGradient><linearGradient id="x" x1="235.486" y1="106.556" x2="119.109" y2="106.556" gradientUnits="userSpaceOnUse"><stop stop-color="#255487"/><stop offset="1" stop-color="#66BAA1"/></linearGradient><linearGradient id="y" x1="136.678" y1="327.605" x2="168.375" y2="295.927" gradientUnits="userSpaceOnUse"><stop stop-color="#12BCB9" stop-opacity=".3"/><stop offset=".043" stop-color="#12BBB8" stop-opacity=".359"/><stop offset=".503" stop-color="#12B9B7"/><stop offset="1" stop-color="#156C84"/></linearGradient><linearGradient id="z" x1="184.893" y1="164.964" x2="184.893" y2="429.006" gradientUnits="userSpaceOnUse"><stop stop-color="#E535AB" stop-opacity="0"/><stop offset="1" stop-color="#fff"/></linearGradient><linearGradient id="A" x1="47.172" y1="448.268" x2="148.699" y2="346.8" gradientUnits="userSpaceOnUse"><stop stop-color="#E40A34"/><stop offset="1" stop-color="#FBE900"/></linearGradient><linearGradient id="B" x1="270.998" y1="71.864" x2="333.641" y2="9.257" gradientUnits="userSpaceOnUse"><stop stop-color="#E40A34"/><stop offset=".999" stop-color="#E57627"/></linearGradient><linearGradient id="C" x1="336.893" y1="201.147" x2="274.249" y2="263.755" gradientUnits="userSpaceOnUse"><stop stop-color="#E40A34"/><stop offset=".999" stop-color="#E57627"/></linearGradient></defs></svg>