<svg xmlns="http://www.w3.org/2000/svg" width="124.265" height="81.154"><path d="M55.46 54.35s-3.986 7.103 3.119 11.088c7.104 3.984 14.108-5.167 14.108-5.167zm30.857 8.771s22.64 15.128 27.445 12.374c4.642-3.31-27.445-12.374-27.445-12.374zm-6.621-5.674s30.804 17.618 36.369 13.797c4.11-3.899-36.37-13.797-36.37-13.797zm-1.057 5.585s25.494 20.838 32.157 17.824c5.543-3.078-32.157-17.824-32.157-17.824zm-5.165-2.134s22.767 20.41 27.029 20.04c4.139-.359-27.03-20.04-27.03-20.04z" fill="#d85039"/><path d="M72.128 56.771s27.102 18.277 33.31 15.977c5.384-2.214-33.31-15.977-33.31-15.977zm-1.97-1.987s31.42 16.104 36.62 13.174c4.14-2.815-36.62-13.174-36.62-13.174zm-1.627.438S92.274 74.657 97.996 73.68c4.978-.992-29.465-18.458-29.465-18.458zm-2.749.076s17.77 20.827 25.312 19.774c6.722-.949-25.312-19.774-25.312-19.774z" fill="#ea9658"/><path d="M61.613 52.274S88.977 69.895 95.087 67.84c5.22-2-33.474-15.566-33.474-15.566zm.145-.091S93.56 67.72 98.596 65.024c4.244-2.69-36.838-12.84-36.838-12.84zm-1.492.951s24.006 18.693 30.71 17.088c6.152-1.785-30.71-17.088-30.71-17.088z" fill="#1f8299"/><path d="M115.11 18.251l-5.122-.536c5.66-4.589 6.996-17.402 6.996-17.402C79.77 33.771 42.738 23.644 42.738 23.644L20.99 26.552a105.47 105.47 0 0 0 3.402 2.503l-1.106.326c42.109 43.252 85.093 3.708 85.093 3.708l-5.123-.537c10.787-4.054 11.854-14.3 11.854-14.3zm-99.764 9.492s26.48 60.701 55.557 25.594L25.748 20.873zm31.108-1.151s-5.846-7.19-19.918-19.32C8.022-8.685 4.533 6.593 4.533 6.593l10.813 21.15z" fill="#d85039"/><path d="M30.749 17.36s-21.021-3.064-18.213 3.66L6.916 7.572S17.557-4.77 30.75 17.36z" fill="#fff"/><circle cx="16.727" cy="7.423" r="1.287" fill="#404041"/><path d="M13.148 23.443S5.537 15.056 3.58 19.82l3.915-9.532s3.395-1.695 5.652 13.155z" fill="#58595b"/><path d="M46.454 26.592s52.938 11.627 77.81-1.47c0 0-4.893 11.915-11.617 14.722l4.768 1.96s-3.913 9.531-15.403 10.383l4.768 1.957S54.393 79.98 26.175 26.618z" fill="#26a5d4"/><path d="M46.454 26.592s27.937 11.47 55.259 5.977c0 0-2.938 7.151-9.662 9.96l4.769 1.956s-5.32 6.17-11.066 6.598l7.15 2.934S50.627 71.42 26.174 26.618z" fill="#ea9658"/><path d="M44.783 26.715s20.252 13.683 46.274 11.052c0 0-3.267 5.754-9.28 7.414l3.839 2.176s-5.185 4.665-10.11 4.406l5.755 3.266s-39.94 3.732-55.088-28.41z" fill="#ffe6c6"/><path d="M45.909 25.95s13.776 10.965 31.843 10.707c0 0-3.914 9.533-14.426 8 0 0 4.768 1.956 6.172 5.32 0 0-20.852 7.76-44.005-24.027z" fill="#d85039"/><path d="M9.169 10.015s.44-2.538-4.634-3.422c0 0-9.823 11.364-.554 18.208 0 .001-2.093-2.979 5.188-14.786z" fill="#bbbbbc"/></svg>