<svg xmlns="http://www.w3.org/2000/svg" xmlns:xlink="http://www.w3.org/1999/xlink" width="416.076" height="333.332" viewBox="0 0 416.076 333.332"><path fill="none" stroke="#5B2D1D" stroke-width="2.713" stroke-miterlimit="10" d="M56.697 215.054c.131-.385-12.59-37.121-16.712-87.028"/><path fill="#2AB573" d="M42.193 127.425S11.578 111.583 4.89 139.589c0 0 4.462-4.244 5.84-7.817 0 0-.778 2.103-.469 4.275 0 0 2.87-1.714 3.67-5.51 0 0-.136 1.737.786 3.317 0 0 2.426-1.653 3.62-7.542 0 0-.613 4.093-.07 5.633 0 0 3.016-.053 4.97-4.875 0 0-.623 1.685.1 3.569 0 0 3.588-.263 4.696-3.371 0 0 .026 2.246.989 3.446 0 0 2.013-.38 3.799-4.179 0 0-.598 2.453.077 3.784 0 0 2.571-.483 3.393-2.473 0 0-.114 1.026.464 1.747 0 0 4.398-.174 5.412-1.925"/><path fill="#2AB573" d="M39.063 126.965c-.167-.029 10.728-20.74 26.72-14.974 0 0-2.574 1.238-4.604.547 0 0 1.114.775.966 2.651 0 0-2.142.856-6.388-1.59 0 0 2.94 1.454 3.19 2.993 0 0-1.242 1.541-5.966-.277 0 0 1.477.768 1.589 2.487 0 0-2.099 1.174-5.388-.476 0 0 1.53.809 1.955 2.48 0 0-1.313 1.344-4.213.49 0 0 1.058.661 1.026 2.198 0 0-1.614 1.188-4.24-.027 0 0 1.341.666 1.413 1.785-.001.002-3.824 2.135-6.06 1.713z"/><path fill="#2AB573" d="M39.614 126.342c-.007-.168 22.637 5.734 20.656 22.618 0 0-1.792-2.223-1.579-4.357 0 0-.502 1.26-2.363 1.541 0 0-1.321-1.891.097-6.582 0 0-.748 3.194-2.189 3.79 0 0-1.784-.86-1.088-5.874 0 0-.411 1.61-2.059 2.113 0 0-1.62-1.779-.762-5.356 0 0-.439 1.672-1.971 2.467 0 0-1.608-.974-1.435-3.991 0 0-.404 1.18-1.909 1.497 0 0-1.524-1.3-.936-4.135 0 0-.343 1.458-1.416 1.784 0-.002-2.948-3.24-3.046-5.515z"/><path fill="#2AB573" d="M40.233 127.96c.188.046 3.9-17.637-15.894-20.413 0 0 1.673 1.836 4.157 2.213 0 0-1.64.047-2.803 1.309 0 0 1.514 1.416 7.408 1.566 0 0-3.915-.258-5.236.627 0 0 .15 1.491 6.077 2.238 0 0-1.991-.105-3.302.951 0 0 1.25 1.602 5.646 1.877 0 0-2.074-.102-3.659.798 0 0 .357 1.393 3.813 2.019 0 0-1.506-.003-2.546.996 0 0 .762 1.412 4.199 1.696 0 0-1.786-.117-2.638.573 0 0 2.28 2.915 4.778 3.55z"/><path fill="#2AB573" d="M41.168 127.725c.082-.226-21.514-7.097-27.483 17.25 0 0 2.502-1.854 3.289-4.906 0 0-.15 2.053 1.278 3.663 0 0 1.958-1.712 2.892-9.045 0 0-.817 4.852.121 6.61 0 0 1.878.002 3.562-7.298 0 0-.383 2.471.768 4.242 0 0 2.156-1.359 3.056-6.81 0 0-.389 2.574.534 4.668 0 0 1.783-.269 3.001-4.502 0 0-.195 1.878.918 3.304 0 0 1.862-.772 2.651-5.026 0 0-.372 2.214.379 3.365-.002-.001 3.925-2.478 5.034-5.515z"/><path fill="#2AB573" d="M40.653 127.168s18.594-13.198 26.219 8.403c0 0-2.662-.988-5.66-5.222 0 0 .444 1.228-.583 3.079 0 0-2.126-1.83-2.797-6.332 0 0 .789 4.061-.115 5.062 0 0-3.086-1.926-3.916-5.917 0 0 .881 2.865-.132 4.772 0 0-2.585-1.783-3.349-4.665 0 0 .655 1.582-.117 3.073 0 0-1.464.33-3.105-2.215 0 0 .273.804-.546 1.902-.001.001-4.148-.416-5.899-1.94zM38.622 125.911s-10.936-23.182-27.835-2.908c0 0 3.152-1.027 5.878-4.091 0 0-1.139 1.755-1.107 3.761 0 0 3.587-1.316 5.255-4.801 0 0-.895 1.572-.718 3.666 0 0 1.726-.003 4.485-4.842 0 0-1.398 3.152-.793 4.979 0 0 2.286.272 5.133-2.326 0 0-2.124 1.849-2.464 3.164 0 0 3.892.862 5.646-1.219 0 0-1.081 1.227-1.141 2.517 0 0 1.841.679 3.572-.533 0 0-1.043 4.199 4.3 2.828"/><path fill="#2AB573" d="M41.186 125.014s-26.275 13.496-7.35 32.081c0 0-.606-3.579-3.439-6.585 0 0 1.688 1.237 3.823 1.119 0 0-.849-4.065-4.292-5.838 0 0 1.532.961 3.783.675 0 0 .258-1.979-4.453-4.955 0 0 3.131 1.479 5.163.711 0 0 .638-2.635-1.683-5.8 0 0 1.636 2.363 2.98 2.702 0 0 1.511-4.507-.429-6.438 0 0 1.137 1.192 2.496 1.209 0 0 1.003-2.143-.018-4.082 0 0 4.295 1.028 3.659-5.049"/><g fill="#C7E4EA"><path d="M75.85 105.77s0-17.661 17.664-17.661c17.663 0 17.663 17.661 17.663 17.661H75.85z"/><path d="M70.805 105.77s0-7.569 7.569-7.569c7.571 0 7.571 7.569 7.571 7.569h-15.14zM96.038 105.77s0-12.615 12.615-12.615c12.617 0 12.617 12.615 12.617 12.615H96.038z"/></g><path fill="none" stroke="#5B2D1D" stroke-width="2.666" stroke-miterlimit="10" d="M17.537 234.987c.167-.262-.156-24.288 3.79-57.286"/><path fill="#2AB573" d="M21.957 176.372s-20.492-.311-15.166 17.888c0 0 .944-3.759.532-6.232 0 0 .259 1.447 1.092 2.616 0 0 .927-1.825.149-4.264 0 0 .472 1.047 1.433 1.698 0 0 .719-1.662-.51-5.43 0 0 .965 2.556 1.719 3.291 0 0 1.516-.905 1.007-4.271 0 0 .208 1.157 1.163 2.041 0 0 1.741-1.192 1.335-3.318 0 0 .713 1.296 1.578 1.714 0 0 .902-.807.627-3.532 0 0 .459 1.6 1.217 2.178 0 0 1.156-1.027.954-2.421 0 0 .262.629.781.879 0 0 2.18-1.377 2.15-2.688"/><path fill="#2AB573" d="M21.411 176.953c-.079-.079 13.565-7.302 20.126 1.795 0 0-1.862-.285-2.71-1.418 0 0 .316.837-.463 1.804 0 0-1.484-.331-2.885-3.245 0 0 1.06 1.889.622 2.819 0 0-1.25.376-3.146-2.372 0 0 .518.968-.06 1.945 0 0-1.581-.143-2.758-2.265 0 0 .533 1.009.141 2.079 0 0-1.216.243-2.475-1.304 0 0 .33.755-.262 1.58 0 0-1.32.046-2.297-1.595 0 0 .482.861.105 1.498-.001.001-2.879-.261-3.938-1.321z"/><path fill="#2AB573" d="M21.41 176.891c-.032-.109 15.403.188 16.733 11.325 0 0-1.491-1.151-1.685-2.554 0 0-.127.886-1.277 1.353 0 0-1.138-1.008-.953-4.234 0 0 .012 2.164-.821 2.766 0 0-1.276-.277-1.602-3.601 0 0-.017 1.099-.996 1.672 0 0-1.313-.889-1.313-3.316 0 0-.024 1.14-.884 1.888 0 0-1.182-.377-1.537-2.34 0 0-.077.818-.993 1.255 0 0-1.178-.599-1.238-2.507 0 0 .005.986-.633 1.358.001 0-2.388-1.623-2.801-3.065z"/><path fill="#2AB573" d="M19.884 178.557c.007-.131 14.091 2.756 11.665 15.838 0 0-.994-1.576-.711-3.229 0 0-.408 1.005-1.618 1.355 0 0-.716-1.354.513-5.052 0 0-.698 2.504-1.661 3.063 0 0-1.082-.532-.294-4.422 0 0-.373 1.262-1.46 1.766 0 0-.915-1.245-.122-4.051 0 0-.396 1.314-1.429 2.033 0 0-.962-.628-.646-2.954 0 0-.338.935-1.324 1.286 0 0-.886-.888-.314-3.099 0 0-.318 1.14-1.028 1.466 0 .002-1.664-2.267-1.571-4z"/><path fill="#2AB573" d="M21.988 177.256s-16.796-4.969-17.95 10.116c0 0 1.793-1.112 3.153-4.343 0 0-.075.858 1.092 1.845 0 0 1.21-1.549.762-4.523 0 0 .268 2.717 1.16 3.187 0 0 1.915-1.785 1.691-4.466 0 0-.054 1.978 1.112 3.001 0 0 1.567-1.604 1.53-3.569 0 0-.158 1.122.741 1.926 0 0 1.171-.059 1.867-1.97 0 0-.035.559.815 1.104-.001-.001 3.032-1.022 4.027-2.308z"/><path fill="#2AB573" d="M21.984 177.042s-12.287-12.482-20.606.157c0 0 2.107-.105 4.863-2.271 0 0-.48.714.061 2.142 0 0 1.812-.769 2.86-3.59 0 0-1.082 2.507-.528 3.352 0 0 2.539-.637 3.643-3.09 0 0-1.006 1.704-.482 3.165 0 0 2.148-.645 3.068-2.382 0 0-.681.904-.285 2.044 0 0 1.053.517 2.589-.819 0 0-.302.471.177 1.359-.001 0 3.148.575 4.64-.067zM22.6 177.455s-17.847 7.83-6.129 20.829c0 0-.257-2.381-2-4.475 0 0 1.061.881 2.471.89 0 0-.396-2.71-2.592-4.017 0 0 .971.696 2.464.599 0 0 .251-1.296-2.734-3.442 0 0 2.003 1.101 3.372.675 0 0 .527-1.71-.875-3.887 0 0 .984 1.621 1.854 1.898 0 0 1.175-2.907-.024-4.255 0 0 .702.83 1.595.896 0 0 .748-1.37.152-2.688 0 0 2.789.849 2.613-3.18"/><path fill="#2AB573" d="M23.372 178.821s1.061-17.482-13.898-15.211c0 0 1.488 1.495 4.941 2.093 0 0-.854.12-1.553 1.478 0 0 1.781.833 4.58-.273 0 0-2.588.872-2.845 1.847 0 0 2.171 1.464 4.734.643 0 0-1.94.393-2.676 1.76 0 0 1.916 1.167 3.823.688 0 0-1.128.098-1.71 1.154 0 0 .321 1.127 2.341 1.375 0 0-.553.091-.893 1.042 0-.001 1.68 2.723 3.156 3.404z"/><path fill="none" stroke="#5B2D1D" stroke-width="2.684" stroke-miterlimit="10" d="M130.015 209.375c.255-.384-3.385-55.992 10.899-111.466"/><path fill="#2AB573" d="M143.501 97.894s-28.843-26.22-44.301 2.437c0 0 6.111-3.34 8.656-6.842 0 0-1.463 2.073-1.756 4.533 0 0 3.633-1.034 5.613-4.952 0 0-.654 1.859-.106 3.853 0 0 3.13-1.098 6.15-7.187 0 0-1.861 4.294-1.716 6.133 0 0 3.312.821 6.849-3.88 0 0-1.17 1.658-.929 3.93 0 0 3.996.756 6.111-2.318 0 0-.625 2.463.078 4.056 0 0 2.311.168 5.368-3.464 0 0-1.367 2.506-1.018 4.16 0 0 2.951.22 4.427-1.716 0 0-.422 1.089 0 2.045 0 0 4.857 1.091 6.474-.527"/><path fill="#2AB573" d="M140.914 96.628c-.133-.139 23.464-12.114 34.441 3.668 0 0-3.185-.542-4.605-2.508 0 0 .521 1.445-.843 3.078 0 0-2.536-.61-4.852-5.646 0 0 1.761 3.266.984 4.849 0 0-2.154.608-5.323-4.158 0 0 .859 1.673-.161 3.333 0 0-2.704-.291-4.66-3.964 0 0 .883 1.747.181 3.567 0 0-2.091.381-4.206-2.305 0 0 .543 1.303-.493 2.7 0 0-2.265.04-3.892-2.799 0 0 .802 1.49.136 2.57.002-.001-4.921-.534-6.707-2.385z"/><path fill="#2AB573" d="M139.775 99.019c-.217-.019 2.345-20.291 24.526-15.946 0 0-2.466 1.343-5.262.83 0 0 1.735.655 2.513 2.434 0 0-2.141.954-8.496-1.063 0 0 4.279 1.171 5.363 2.605 0 0-.71 1.538-7.32.147 0 0 2.167.623 3.178 2.235 0 0-1.929 1.25-6.728-.08 0 0 2.254.657 3.616 2.206 0 0-.895 1.357-4.821.749 0 0 1.611.553 2.355 2.005 0 0-1.337 1.229-5.116.263 0 0 1.953.535 2.609 1.585.002 0-3.513 2.274-6.417 2.03z"/><path fill="#2AB573" d="M141.893 97.167s24.159-9.013 26.205 16.809c0 0-2.621-1.853-4.666-7.35 0 0 .128 1.47-1.534 3.196 0 0-1.79-2.62-1.214-7.733 0 0-.32 4.666-1.598 5.496 0 0-2.812-3.003-2.556-7.606 0 0 .128 3.388-1.534 5.178 0 0-2.304-2.701-2.301-6.072 0 0 .256 1.917-1.022 3.324 0 0-1.696-.066-2.749-3.324 0 0 .064.959-1.15 1.917-.002-.001-4.412-1.663-5.881-3.835z"/><path fill="#2AB573" d="M143.437 97.709s-24.224-15.915-28.569 13.614c0 0 2.436-2.851 3.259-7.415 0 0-.064 2.365 1.151 4.283 0 0 2.684-3.387 2.237-7.734 0 0 .064 2.045 1.47 3.962 0 0 1.662-1.023 1.47-7.318 0 0 .512 3.867 2.174 5.273 0 0 2.365-1.087 3.58-5.273 0 0-.959 3.036-.512 4.506 0 0 4.264-1.465 4.729-4.506 0 0-.319 1.822.383 3.1 0 0 2.177-.429 3.132-2.62 0 0 1.47 4.666 5.816.192"/><path fill="#2AB573" d="M143.23 96.948s-13.93-30.361-35.874-9.912c0 0 4.074-.506 7.612-3.556 0 0-1.481 1.845-1.456 4.262 0 0 4.636-.755 6.812-4.556 0 0-1.166 1.682-.954 4.239 0 0 2.226.392 5.819-4.783 0 0-1.826 3.465-1.059 5.799 0 0 2.945.853 6.636-1.61 0 0-2.752 1.729-3.202 3.231 0 0 5.014 1.933 7.292-.161 0 0-1.403 1.224-1.49 2.758 0 0 2.369 1.242 4.61.185 0 0-1.377 4.801 5.523 4.388"/><g><path fill="none" stroke="#5B2D1D" stroke-width="4.127" stroke-miterlimit="10" d="M32.652 189.018c.445-.551 5.646-54.948 22.717-128.571"/><path fill="#2AB573" d="M57.147 57.121s-53.601-6.68-44.852 42.524c0 0 3.551-9.579 3.178-16.176 0 0 .267 3.865 2.114 7.169 0 0 2.949-4.519 1.61-11.126 0 0 .937 2.88 3.267 4.856 0 0 2.358-4.148.219-14.367 0 0 1.792 6.967 3.56 9.11 0 0 4.232-1.939 3.859-10.903 0 0 .214 3.092 2.464 5.684 0 0 4.901-2.629 4.448-8.315 0 0 1.499 3.6 3.642 4.943 0 0 2.598-1.852 2.654-9.071 0 0 .749 4.317 2.57 6.049 0 0 3.323-2.36 3.189-6.069 0 0 .508 1.725 1.793 2.529 0 0 6.109-2.986 6.404-6.427"/><path fill="#2AB573" d="M55.55 58.489c-.185-.231 37.628-15.247 52.216 10.461 0 0-4.798-1.279-6.697-4.49 0 0 .593 2.286-1.724 4.596 0 0-3.797-1.292-6.634-9.328 0 0 2.236 5.249.825 7.563 0 0-3.383.627-7.565-7.115 0 0 1.081 2.683-.715 5.08 0 0-4.099-.826-6.576-6.725 0 0 1.106 2.799-.225 5.488 0 0-3.255.288-6.115-4.122 0 0 .647 2.07-1.135 4.063 0 0-3.474-.256-5.565-4.833 0 0 1.019 2.396-.153 3.956 0 0-7.463-1.511-9.937-4.594z"/><path fill="#2AB573" d="M55.565 58.327c-.049-.292 40.304 4.902 40.602 34.458 0 0-3.578-3.442-3.682-7.17 0 0-.589 2.285-3.734 3.181 0 0-2.694-2.971-1.282-11.372 0 0-.588 5.672-2.944 7.014 0 0-3.264-1.091-3.168-9.889 0 0-.355 2.868-3.087 4.096 0 0-3.185-2.708-2.492-9.069 0 0-.39 2.983-2.857 4.69 0 0-2.987-1.324-3.352-6.568 0 0-.438 2.125-2.962 3.006 0 0-2.915-1.908-2.525-6.924 0 0-.27 2.588-2.05 3.382-.002-.002-5.798-4.937-6.467-8.835z"/><path fill="#2AB573" d="M53.469 61.988c-.339-.039 9.502-36.625 43.528-28.158 0 0-4.303 2.361-8.602 1.356 0 0 2.573 1.233 3.303 4.471 0 0-3.676 1.667-13.206-2.157 0 0 6.471 2.235 7.787 4.858 0 0-1.567 2.761-11.68.065 0 0 3.268 1.184 4.417 4.13 0 0-3.42 2.206-10.672-.331 0 0 3.396 1.251 5.122 4.087 0 0-1.81 2.43-7.876 1.222 0 0 2.403 1.042 3.172 3.688 0 0-2.475 2.189-8.207.337 0 0 2.951 1.019 3.697 2.937-.001.002-6.235 4.018-10.783 3.495z"/><path fill="#2AB573" d="M56.975 59.45S14.395 41.624 7.052 80.815c0 0 5.017-2.401 9.502-10.474 0 0-.439 2.229 2.334 5.147 0 0 3.616-3.714 3.292-11.637 0 0-.076 7.197 2.126 8.682 0 0 5.527-4.131 5.71-11.218 0 0-.709 5.165 2.056 8.182 0 0 4.562-3.75 5.03-8.912 0 0-.734 2.892 1.389 5.258 0 0 3.086.183 5.456-4.629 0 0-.25 1.458 1.818 3.126-.001.001 8.236-1.808 11.21-4.89z"/><path fill="#2AB573" d="M57.026 58.887S28.407 22.669 3 53.402c0 0 5.551.329 13.386-4.563 0 0-1.463 1.738-.451 5.635 0 0 4.962-1.499 8.516-8.588 0 0-3.551 6.26-2.344 8.626 0 0 6.835-.937 10.429-7.05 0 0-3.121 4.175-2.165 8.154 0 0 5.809-1.072 8.718-5.362 0 0-2.043 2.176-1.332 5.274 0 0 2.612 1.654 7.015-1.407 0 0-.925 1.151.076 3.615.001-.001 8.085 2.409 12.178 1.151zM58.52 60.145S9.527 75.551 36.502 112.958c0 0 .012-6.309-3.96-12.294 0 0 2.528 2.616 6.221 3.04 0 0-.258-7.217-5.639-11.268 0 0 2.342 2.101 6.282 2.27 0 0 1.026-3.317-6.176-9.796 0 0 4.935 3.453 8.642 2.729 0 0 1.867-4.327-1.182-10.43 0 0 2.11 4.53 4.314 5.504 0 0 3.912-7.276 1.157-11.152 0 0 1.597 2.376 3.92 2.802 0 0 2.35-3.374 1.168-6.996 0 0 7.06 3.021 7.755-7.582"/></g><path fill="#38BDE0" d="M416.479 223.315L0 223.202v110.011l215.994.119 200.485-.114z"/><g><defs><path id="a" d="M357.994 177.495h54.797v48.444h-54.797z"/></defs><clipPath id="b"><use xlink:href="#a" overflow="visible"/></clipPath><g clip-path="url(#b)"><path fill="#D85039" d="M378.926 207.568l6.379-1.125 1.688 9.57-6.379 1.125z"/><path fill="#E55C4A" d="M390.158 215.454l-3.19.562-1.685-9.57 3.19-.562z"/><path fill="none" stroke="#841F1A" stroke-width=".12" stroke-miterlimit="10" d="M379.111 208.639l6.379-1.124"/><path fill="none" stroke="#9E2214" stroke-width=".12" stroke-miterlimit="10" d="M388.68 206.954l-3.19.561"/><path fill="#E4DBCA" d="M369.152 212.592l4.252-.749 1.123 6.379-4.252.749z"/><path fill="#D2C9BB" d="M369.169 212.567l9.568-1.686 1.124 6.379-9.569 1.686z"/><path fill="#E4DBCA" d="M378.723 210.898l4.253-.75 1.124 6.38-4.254.75z"/><path fill="#E4DBCA" d="M378.723 210.898l4.253-.75 1.124 6.38-4.254.75zM368.993 211.516l4.253-.75.187 1.062-4.252.75z"/><path fill="#D2C9BB" d="M368.653 211.574l9.893-1.743.187 1.063-9.893 1.743z"/><path fill="#E4DBCA" d="M378.562 209.829l4.253-.75.187 1.062-4.252.75z"/><path fill="#E4DBCA" d="M378.566 209.839l4.549-.803.187 1.063-4.548.803z"/><path fill="#B6ADA3" d="M369.178 212.583l.374 2.125 9.383-2.749-.188-1.063z"/><path fill="#D2C9BB" d="M378.747 210.896l.188 1.063 4.065-1.812z"/><path fill="#D85039" d="M369.1 206.022l6.379-1.123.936 5.317-6.378 1.123zM379.62 209.653l-3.189.562-.938-5.315 3.19-.563z"/><path fill="#507281" d="M376.94 206.857l3.19-.563.564 3.192-3.19.563z"/><path fill="#7894A2" d="M382.796 209.09l-2.126.374-.562-3.191 2.127-.375z"/><path fill="none" stroke="#093542" stroke-width=".12" stroke-miterlimit="10" d="M377.122 207.894l3.19-.562"/><path fill="none" stroke="#507281" stroke-width=".12" stroke-miterlimit="10" d="M380.312 207.332l2.126-.374"/><path fill="none" stroke="#841F1A" stroke-width=".12" stroke-miterlimit="10" d="M369.305 207.079l6.38-1.124"/><path fill="none" stroke="#9E2214" stroke-width=".12" stroke-miterlimit="10" d="M378.874 205.393l-3.189.562"/><path fill="#2BA367" d="M370.291 200.329l6.38-1.124.936 5.315-6.38 1.124z"/><path fill="#2BA367" d="M369.791 199.333l6.704-1.183.187 1.062-6.704 1.182z"/><path fill="#2AB573" d="M380.824 203.946l-3.191.562-.937-5.315 3.19-.562z"/><path fill="#2AB573" d="M380.12 198.594l-3.456.608-.187-1.063 3.456-.609z"/><path fill="#67643E" d="M370.308 200.326l.187 1.061 6.192-2.186z"/><path fill="#A4623D" d="M365.784 215.185l6.984-1.232.782 4.43-6.984 1.233z"/><path fill="#A4623D" d="M365.254 214.367l7.341-1.294.156.886-7.34 1.294z"/><path fill="#BC7444" d="M377.023 217.779l-3.493.614-.78-4.43 3.494-.615zM376.535 213.273l-3.784.666-.156-.884 3.784-.666z"/><path fill="#895336" d="M365.772 215.193l.156.886 6.83-2.118z"/><path fill="#754C28" d="M397.734 214.224l13.75-9.069.402.555-13.35 9.626z"/><g><path fill="#754C28" d="M364.563 216.43l12.873-2.268.206 1.17-12.873 2.268z"/><circle fill="#593B23" cx="366.646" cy="217.868" r=".594"/><path fill="#754C28" d="M366.543 220.1c.374.737.787 3.078.787 3.078l.236-.041.236-.041s-.412-2.343-.313-3.164c.098-.822-.276-1.561-.276-1.561l-.472.082-.472.085c0 .001-.098.822.274 1.562z"/><circle fill="#754C28" cx="368.987" cy="217.456" r=".594"/><path fill="#754C28" d="M368.885 219.686c.373.738.786 3.08.786 3.08l.237-.043.236-.041s-.413-2.34-.314-3.163c.099-.821-.275-1.56-.275-1.56l-.473.083-.472.082c0 .001-.098.824.275 1.562z"/><circle fill="#593B23" cx="368.987" cy="217.456" r=".594"/><path fill="#754C28" d="M368.885 219.686c.373.738.786 3.08.786 3.08l.237-.043.236-.041s-.413-2.34-.314-3.163c.099-.821-.275-1.56-.275-1.56l-.473.083-.472.082c0 .001-.098.824.275 1.562z"/><circle fill="#593B23" cx="371.328" cy="217.043" r=".594"/><path fill="#754C28" d="M371.226 219.274c.374.738.786 3.079.786 3.079l.235-.042.236-.04s-.412-2.343-.313-3.164c.099-.822-.275-1.56-.275-1.56l-.473.081-.472.084s-.097.822.276 1.562z"/><circle fill="#593B23" cx="373.668" cy="216.63" r=".594"/><path fill="#754C28" d="M373.566 218.861c.374.738.786 3.08.786 3.08l.236-.042.237-.041s-.413-2.342-.314-3.164c.099-.821-.275-1.56-.275-1.56l-.472.083-.472.083s-.099.823.274 1.561z"/><circle fill="#593B23" cx="376.009" cy="216.218" r=".594"/><path fill="#754C28" d="M375.907 218.449c.374.738.786 3.08.786 3.08l.237-.042.235-.041s-.413-2.342-.313-3.164c.098-.822-.275-1.561-.275-1.561l-.472.084-.473.083s-.098.822.275 1.561z"/></g><path fill="#E5D9BA" d="M376.431 181.752s19.507 17.644 5.205 29.535c0 .001 42.723-14.557-5.205-29.535z"/><path fill="none" stroke="#754C28" stroke-width=".256" stroke-miterlimit="10" d="M376.052 181.819l33.604 24.53"/><path fill="#8B5E38" d="M375.484 181.92l5.838 36.451 2.272-.401-6.974-36.251z"/><path fill="#774F31" d="M375.397 181.936l6.124 36.398 1.126-.198-6.688-36.3z"/><path fill="#754C28" d="M365.018 218.9s11.761.271 36.351-6.404c0 0-.271 11.759-9.358 13.36l-20.447 3.604-6.546-10.56z"/><path fill="#593B23" d="M365.018 218.9l2.002 11.361 4.543-.801z"/><path fill="none" stroke="#593B23" stroke-width=".256" stroke-miterlimit="10" d="M400.522 217.328l-34.703 6.116M401.1 214.885l-35.682 6.287M397.859 222.483l-31.24 5.506M399.549 219.843l-33.33 5.873"/><path fill="none" stroke="#593B23" stroke-width=".513" stroke-miterlimit="10" d="M374.916 182.02l2.272-.4"/><path fill="#593B23" stroke="#C1B49A" stroke-width=".513" stroke-miterlimit="10" d="M397.425 216.703a1.157 1.157 0 0 1-.936 1.338 1.155 1.155 0 0 1-1.336-.938 1.153 1.153 0 0 1 2.272-.4z"/><path fill="#404041" d="M375.525 182.914s-.994 2.231.703 3.991c0 0-4.213-.287-8.075 1.424 0 0 2.516-1.473-.351-1.998 0 0 2.164-3.467 7.723-3.417z"/></g><path fill="#C9DFE1" d="M364.915 225.939s40.144-8.307 32.498 0h-32.498z"/><path fill="#DFEEEF" d="M377.387 225.939s23.053-4.771 18.661 0h-18.661z"/><path fill="#507282" d="M397.412 225.939l-30.275 3.23-20.78-3.282z"/></g><path fill="#EFCCA3" d="M361.983 225.046l34.092 12.038-53.633 14.602-21.709-21.47z"/><path fill="#88D8AA" d="M340.688 251.446l41.124-15.945-29.184-17.384L0 232.246v100.955z"/><g fill="#2BA367"><path d="M349.129 243.878s0-6.491 5.317-6.491 5.317 6.491 5.317 6.491h-10.634z"/><path d="M354.447 243.878s-2.659-9.735 7.976-9.735 7.976 9.735 7.976 9.735h-15.952z"/><path d="M367.741 243.878s0-3.246 2.658-3.246c2.659 0 2.659 3.246 2.659 3.246h-5.317z"/></g><g fill="#2BA367"><path d="M233.5 242.786s0-10.54 8.633-10.54 8.633 10.54 8.633 10.54H233.5z"/><path d="M242.133 242.786s-4.317-15.808 12.951-15.808 12.95 15.808 12.95 15.808h-25.901z"/><path d="M263.718 242.786s0-5.27 4.316-5.27c4.317 0 4.317 5.27 4.317 5.27h-8.633z"/></g><g fill="#2AB573"><path d="M78.089 241.597s0-8.137 8.135-8.137 8.135 8.137 8.135 8.137h-16.27z"/><path d="M86.224 241.597s0-12.2 8.135-12.2 8.135 12.2 8.135 12.2h-16.27z"/><path d="M94.359 241.597s0-15.252 10.168-15.252 10.168 15.252 10.168 15.252H94.359z"/></g><g fill="#2AB573"><path d="M123.19 242.917s0-8.182 8.182-8.182c8.181 0 8.181 8.182 8.181 8.182H123.19z"/><path d="M131.372 242.917s0-12.272 8.181-12.272c8.182 0 8.182 12.272 8.182 12.272h-16.363z"/><path d="M143.642 242.917s0-6.75 6.137-6.75c6.135 0 6.135 6.75 6.135 6.75h-12.272z"/></g><g><path fill="#D85039" d="M302.515 150.309s1.409 1.99-.582 3.401c-1.99 1.409-4.363-1.096-4.363-1.096l4.945-2.305zM292.567 154.794s-7.017 8.445-9.051 7.482c-1.13-1.709 9.051-7.482 9.051-7.482z"/><path fill="#D85039" d="M294.506 151.75s-9.818 10.119-12.231 8.717c-1.191-2.276 12.231-8.717 12.231-8.717zM295.408 154.257s-7.553 11.264-10.302 10.304c-1.717-1.99 10.302-10.304 10.302-10.304z"/><path fill="#D85039" d="M297.129 152.941s-6.583 10.887-8.197 10.992c-.793-.995 8.197-10.992 8.197-10.992z"/><path fill="#EA9658" d="M297.25 150.949s-8.383 10.185-10.896 9.523c-1.423-1.614 10.896-9.523 10.896-9.523z"/><path fill="#EA9658" d="M297.8 149.904s-10.184 9.463-12.381 8.446c-.959-1.86 12.381-8.446 12.381-8.446zM298.444 150.001s-7.033 10.501-9.246 10.419c-1.286-1.121 9.246-10.419 9.246-10.419z"/><path fill="#EA9658" d="M299.471 149.857s-4.691 10.762-7.584 10.762c-2.136-1.076 7.584-10.762 7.584-10.762z"/><path fill="#1F8299" d="M300.742 148.194s-8.542 9.899-10.996 9.347c-1.354-1.492 10.996-9.347 10.996-9.347z"/><path fill="#204D80" d="M300.679 148.161s-10.379 9.224-12.493 8.307c-.865-1.751 12.493-8.307 12.493-8.307z"/><path fill="#1F8299" d="M301.32 148.502s-7.199 10.179-9.834 9.871c-1.651-1.294 9.834-9.871 9.834-9.871z"/><g fill="#D85039"><path d="M302.661 139.961s-13.9 8.379-22.212 7.049c0 0 2.531 2.911 4.707 3.063l-1.164 1.012s2.025 2.328 5.365 1.467l-1.164 1.013s17.336 2.304 20.222-15.54l-5.754 1.936z"/><path d="M302.661 139.961s-6.242 5.429-14.518 6.492c0 0 .937 2.253 3.113 2.405l-1.164 1.012s2.101 1.24 3.771.809l-1.747 1.521s11.971.833 15.716-13.668l-5.171 1.429z"/><path d="M302.661 139.961s-3.99 4.492-7.913 5.859c0 0 2.025 2.328 4.861.886 0 0-1.166 1.012-1.241 2.099 0 0 6.606-.631 10.124-11.868l-5.831 3.024z"/></g><path fill="#D85039" d="M309.466 138.572s.543 17.297-12.087 13.762l8.404-14.376 3.683.614z"/><path fill="#D85039" d="M300.814 142.041s.725-2.677 3.099-7.708c3.124-6.617 5.937-2.861 5.937-2.861l-.384 7.101-8.652 3.468z"/><path fill="#FFF" d="M303.987 137.605s5.38-3.396 5.429-1.214l-.099-4.361s-4.412-2.084-5.33 5.575z"/><circle fill="#404041" cx="306.616" cy="133.18" r=".386"/><path fill="#58595B" d="M309.589 137.204s1.017-3.297 2.132-2.23l-2.232-2.133c0-.001-1.09.025.1 4.363z"/><g><path fill="#26A5D4" d="M301.104 142.542s-13.694 8.706-22.037 7.575c0 0 2.601 2.85 4.78 2.948l-1.139 1.04s2.08 2.28 5.399 1.341l-1.14 1.039s17.388 1.889 19.845-16.018l-5.708 2.075z"/><path fill="#EA9658" d="M301.104 142.542s-6.679 6.093-14.928 7.354c0 0 1.56 1.709 3.74 1.809l-1.14 1.041s2.129 1.189 3.79.718l-1.709 1.56s11.987.551 15.386-14.036l-5.139 1.554z"/><path fill="#FFE6C6" d="M301.721 142.357s-5.014 5.897-11.88 7.858c0 0 1.509 1.284 3.37 1.133l-.856 1.005s1.938.781 3.297.202l-1.284 1.51s10.239-.83 11.548-13.584l-4.195 1.876z"/><path fill="#D85039" d="M301.104 142.542s-3.88 4.584-7.77 6.045c0 0 2.081 2.279 4.88.771 0 0-1.14 1.038-1.189 2.128 0 0 6.588-.791 9.837-12.108l-5.758 3.164z"/></g><path fill="#BBBBBC" d="M308.999 132.971s-.429-.643.852-1.5c0 0 4.07 1.915 2.367 4.914-.001 0 .21-1.069-3.219-3.414z"/><path fill="none" stroke="#6D6E70" stroke-width=".691" stroke-miterlimit="10" d="M301.431 153.412l2.035 3.049"/><g fill="#6D6E70"><path d="M302.637 156.126s-.49 1.191.796.788c1.287-.403 3.915-.117 2.744 1.552 0 0 2.58-1.817-1.264-2.393 0 .001-1.6-.769-2.276.053z"/><path d="M302.533 158.44s-2.206-1.41.288-2.447l.189.818.023.104s-1.291-.02-.5 1.525z"/></g><g><path fill="#AF7A2E" d="M298.083 192.608l-7.889.382-.441-8.103 7.889-.381z"/><path fill="#EDAB4C" d="M334.904 190.827l-36.821 1.781-.441-8.102 36.82-1.781z"/><path fill="#9B6B2C" d="M299.958 216.884l-7.588.366-1.326-24.302 7.589-.367z"/><path fill="#EDAB4C" d="M334.055 190.866l-35.422 1.715 1.325 24.303 35.422-1.715z"/><path fill="#9F2214" d="M295.726 168.498l4.758-.242.12 2.376-4.757.242z"/><path fill="#D85039" d="M300.494 168.25l22.2-1.14.122 2.379-22.2 1.14z"/><path fill="#892018" d="M296.576 170.817l4.506-.23.727 14.273-4.506.23z"/><path fill="#D85039" d="M301.074 170.614l21.028-1.082.734 14.273-21.027 1.082z"/><path fill="#507281" d="M298.228 156.74l3.318-.17.085 1.66-3.318.169z"/><path fill="#26A5D4" d="M301.548 156.588l15.486-.798.086 1.658-15.486.797z"/><path fill="#507281" d="M298.805 158.383l3.142-.16.504 9.953-3.142.16z"/><path fill="#26A5D4" d="M301.957 158.221l14.666-.753.511 9.954-14.666.753z"/><path fill="#AF7A2E" d="M298.633 192.581l.278 6.211 34.844-7.912z"/><g><circle fill="#404041" cx="288.082" cy="236.712" r="4.75"/><path fill="#A6A8AB" d="M286.294 228.804l-.177 7.864 1.965.047 4.111-7.777z"/><circle fill="#F1F1F2" cx="288.082" cy="236.713" r="1.966"/><path fill="none" stroke="#58595B" stroke-width=".204" stroke-miterlimit="10" d="M286.286 235.915l3.592 1.599"/></g><g><circle fill="#404041" cx="333.496" cy="237.742" r="4.644"/><path fill="#A6A8AB" d="M331.708 229.833l-.177 7.863 1.965.046 4.11-7.775z"/><circle fill="#F1F1F2" cx="333.496" cy="237.741" r="1.966"/><path fill="none" stroke="#58595B" stroke-width=".204" stroke-miterlimit="10" d="M332.148 236.292l2.773 2.901"/></g><g fill="none" stroke-width="1.485" stroke-linecap="round" stroke-linejoin="round" stroke-miterlimit="10"><path stroke="#808184" d="M282.079 196.399l58.748 1.329M283.392 204.73l57.247 1.296M284.682 213.06l55.769 1.263"/><path stroke="#58595B" d="M340.096 230.023l-57.247-1.296s-7.667-.174 2.719-10.09M285.567 218.637l-4.358-27.491 59.736 1.35-.507 22.401zM287.478 191.285l-.617 27.261M295.775 191.474l-.6 26.507M304.072 191.663l-.582 25.751M312.37 191.849l-.566 25M320.667 192.038l-.548 24.244M328.965 192.224l-.531 23.49M337.263 192.414l-.514 22.719M281.209 191.146l-2.52-7.529-12.444-.282"/></g><g><path fill="#767769" d="M263.793 181.943l.958.02-.062 2.873-.958-.02z"/><path fill="#754C28" d="M264.737 181.945l10.528.238-.064 2.87-10.53-.237z"/><path fill="#767769" d="M275.287 181.225l.958.022-.107 4.783-.958-.021z"/></g></g><path fill="#507281" d="M301.948 158.227l14.665-.753-16.381 4.268"/><path fill="#9F2214" d="M301.074 170.599l21.027-1.083-20.843 4.584z"/></g><g><path fill="#754C28" d="M66.458 167.833l29.848-1.123.233 6.202-29.848 1.123z"/><path fill="#875632" d="M66.761 173.64l29.712-.814.106 3.877-29.712.814z"/><ellipse transform="rotate(-2.144 70.724 176.279)" fill="#754C28" cx="70.581" cy="176.08" rx="1.462" ry=".491"/><ellipse transform="rotate(-2.144 90.609 169.513)" fill="#875632" cx="90.472" cy="169.381" rx="2.433" ry="1.134"/><path fill="none" stroke="#593B23" stroke-width=".477" stroke-miterlimit="10" d="M68.406 168.644l-.193-15.553M94.928 167.928l-.811-15.525"/><path fill="#593B23" d="M32.447 154.976h9.952v93.84h-9.952zM136.435 154.964h6.816v93.765h-6.816z"/><path fill="#DAD7C5" d="M119.332 182.753h5.422v3.388h-5.422z"/><path fill="#B0A690" d="M121.704 183.092h.677v9.149h-.677z"/><path fill="#DAD7C5" d="M109.488 181.399h5.422v3.389h-5.422z"/><path fill="#B0A690" d="M111.86 181.737h.677v9.15h-.677z"/><path fill="#9F2214" d="M83.402 197.122s0-1.355-.678-2.033c-.678-.679-1.355-.923-1.355-3.635H80.012c0 2.712-.677 2.956-1.355 3.635-.678.678-.678 2.033-.678 2.033v9.49c0 .373 1.213.677 2.711.677 1.498 0 2.711-.304 2.711-.677v-9.49z"/><path fill="#767769" stroke="#767769" stroke-width=".075" stroke-miterlimit="10" d="M79.862 190.665v.827c0 .113.371.207.828.207.458 0 .828-.094.828-.207v-.827h-1.656z"/><ellipse fill="#C6CDC7" cx="80.69" cy="190.665" rx=".828" ry=".207"/><path fill="#DAD7C5" d="M82.724 203.452v-4.526c-.497.141-1.224.229-2.034.229-.81 0-1.536-.088-2.033-.229v5.422c.497.141 1.224.229 2.033.229.81 0 1.537-.088 2.034-.229v-.896z"/><circle fill="#6E2405" cx="80.691" cy="201.018" r=".339"/><path fill="#6E2405" d="M79.335 201.698h2.711v.339h-2.711zM80.012 202.373h1.356v.172h-1.356z"/><path fill="#808184" d="M39.482 166.187l-.215-.385 4.778-2.669 5.249 1.546-.125.422-5.071-1.491z"/><path fill="#808184" d="M43.852 163.396l-.245-2.191.219-.023c.077-.01.763-.115.681-.853-.083-.738-.775-.688-.853-.681-.077.009-.763.114-.681.854l-.438.049c-.106-.952.653-1.293 1.069-1.341a1.47 1.47 0 0 1 .607.08c.296.109.663.368.733.989.069.622-.231.957-.496 1.129a1.476 1.476 0 0 1-.358.164l.2 1.774-.438.05z"/><path fill="#D85039" d="M49.27 164.383c.155 1.387-2.013 2.345-4.787 2.654-2.773.313-5.102-.143-5.257-1.529l-3.532 2.515 3.095 27.619 17.575-1.97-3.093-27.618-4.001-1.671z"/><path fill="#F1F1F2" stroke="#58595B" stroke-width=".07" stroke-miterlimit="10" d="M35.694 168.023l-2.923 7.953 3.907.834z"/><path fill="#9F2214" d="M54.254 174.842l3.627-1.677-4.61-7.111zM44.412 166.412c-2.08.232-3.86-.422-3.977-1.462l-1.209.559c.155 1.387 2.483 1.842 5.257 1.529 2.774-.31 4.942-1.268 4.787-2.654l-1.302-.277c.115 1.039-1.476 2.071-3.556 2.305z"/><path fill="#A6A8AB" d="M43.778 164.18l-4.945-1.873-4.798 2.221-.185-.401 4.966-2.296 5.118 1.938z"/><path fill="#A6A8AB" d="M39.045 162.06l-.441.018-.078-2.203.22-.009c.077-.002.77-.057.743-.799-.026-.75-.719-.746-.798-.742-.078.003-.77.056-.744.799l-.441.015c-.034-.958.75-1.239 1.168-1.254.419-.017 1.22.21 1.254 1.168.029.809-.524 1.136-.949 1.227l.066 1.78z"/><path fill="#26A5D4" d="M43.931 163.473c.05 1.394-2.186 2.184-4.975 2.283-2.789.1-5.075-.529-5.125-1.924l-3.712 2.238.989 27.774 17.675-.629-.989-27.775-3.863-1.967z"/><path fill="#507282" d="M30.118 166.071l-3.517 7.71 3.832 1.128zM48.108 174.278l3.743-1.398-4.058-7.439zM38.934 165.125c-2.092.074-3.818-.713-3.854-1.758l-1.249.465c.05 1.395 2.337 2.023 5.125 1.924 2.79-.1 5.025-.89 4.975-2.283l-1.277-.377c.037 1.045-1.628 1.955-3.72 2.029zM40.767 169.854l.104 2.947 2 .911 1.93-1.051-.105-2.947z"/><path fill="#7895A4" d="M43.169 170.497a.414.414 0 0 1-.397.428.414.414 0 0 1-.426-.399.411.411 0 0 1 .823-.029z"/><path fill="#D85039" d="M79.749 197.291s0-1.355-.679-2.033c-.678-.679-1.354-.924-1.354-3.634h-1.355c0 2.71-.678 2.955-1.356 3.634-.678.678-.678 2.033-.678 2.033v9.489c0 .374 1.214.679 2.711.679 1.498 0 2.712-.305 2.712-.679v-9.489z"/><path fill="#767769" stroke="#767769" stroke-width=".075" stroke-miterlimit="10" d="M76.208 190.833v.827c0 .114.371.207.828.207.458 0 .829-.093.829-.207v-.827h-1.657z"/><ellipse fill="#C6CDC7" cx="77.037" cy="190.833" rx=".828" ry=".205"/><path fill="#DAD7C5" d="M79.069 203.777v-4.526c-.496.14-1.223.229-2.033.229s-1.537-.089-2.033-.229v5.422c.497.142 1.223.229 2.033.229s1.537-.088 2.033-.229v-.896z"/><circle fill="#6E2405" cx="77.036" cy="201.188" r=".339"/><path fill="#6E2405" d="M75.682 201.866h2.71v.34h-2.71zM76.359 202.543h1.355v.17h-1.355z"/><path fill="#593B23" d="M34.267 209.865h106.754v1.356H34.267z"/><path fill="#754C28" d="M134.995 207.577H40.292l-6.025 2.288h106.754z"/><g><path fill="#9B917C" d="M104.827 194.47h23.639v2.287h-23.639z"/><ellipse fill="#F2B153" cx="121.702" cy="194.881" rx="2.697" ry="2.539"/><g fill="#F1F1F2" stroke="#58595B" stroke-width=".075" stroke-miterlimit="10"><path d="M121.435 192.807s.673-1.571-1.794-1.797l1.794 1.797z"/><path d="M119.641 191.01l1.794 1.797s-1.571.673-1.794-1.797"/></g><path fill="none" stroke="#58595B" stroke-width=".075" stroke-miterlimit="10" d="M121.543 193.232s-.317-.634.317-1.269"/><ellipse fill="#F2B153" cx="114.895" cy="192.545" rx="2.697" ry="2.537"/><path fill="#837722" d="M114.82 190.647s-1.612.567-1.669-1.911l1.669 1.911z"/><path fill="#2AB573" d="M113.15 188.736l1.669 1.911c.001 0 .779-1.522-1.669-1.911"/><g fill="#837722"><path d="M114.815 190.667s.224-1.693 2.46-.625l-2.46.625zM117.275 190.042l-2.46.625s1.006 1.381 2.46-.625"/></g><path fill="none" stroke="#58595B" stroke-width=".075" stroke-miterlimit="10" d="M114.737 191.022s.316-.636-.317-1.271"/><ellipse fill="#E0993B" cx="118.991" cy="193.106" rx="2.697" ry="2.538"/><path fill="#837722" d="M119.258 191.029s-.673-1.57 1.795-1.794l-1.795 1.794z"/><path fill="#2AB573" d="M121.053 189.235l-1.795 1.794s1.57.673 1.795-1.794"/><path fill="none" stroke="#58595B" stroke-width=".075" stroke-miterlimit="10" d="M119.149 191.455s.318-.635-.317-1.269"/><ellipse transform="rotate(-27.459 110.992 192.167)" fill="#E0993B" cx="110.981" cy="192.152" rx="2.697" ry="2.539"/><path fill="#837722" d="M109.883 190.318s-.353 1.129-1.751.136l1.751-.136z"/><path fill="#2AB573" d="M108.132 190.454l1.751-.136s-.523-1.062-1.751.136"/><g fill="#2AB573"><path d="M109.957 190.359s-.703-.951.925-1.492l-.925 1.492z"/><path d="M110.882 188.867l-.925 1.492s1.165.204.925-1.492"/></g><path fill="none" stroke="#58595B" stroke-width=".075" stroke-miterlimit="10" d="M109.962 190.536s-.011-.707-.867-.979"/><ellipse transform="rotate(-52.562 108.024 195.574)" fill="#F2B153" cx="108.019" cy="195.567" rx="2.697" ry="2.538"/><path fill="#837722" d="M106.533 194.092s-1.657-.42-.333-2.517l.333 2.517z"/><path fill="#2AB573" d="M106.2 191.576l.333 2.517c0-.001 1.489-.837-.333-2.517"/><path fill="none" stroke="#58595B" stroke-width=".075" stroke-miterlimit="10" d="M106.805 194.439s-.311-.638-1.201-.52"/><ellipse fill="#EFBE43" cx="112.184" cy="196.104" rx="2.697" ry="2.538"/><path fill="#837722" d="M112.057 193.972s-.833.839-1.617-.688l1.617.688z"/><path fill="#2AB573" d="M110.439 193.285l1.617.688c.001-.001.026-1.183-1.617-.688"/><path fill="#837722" d="M112.103 194.042s-.185-1.167 1.51-.901l-1.51.901z"/><path fill="#2AB573" d="M113.612 193.141l-1.51.901c.001 0 .94.72 1.51-.901"/><path fill="none" stroke="#58595B" stroke-width=".075" stroke-miterlimit="10" d="M112.025 194.202s.317-.636-.317-1.269"/><g><ellipse transform="rotate(45.324 117.222 196.169)" fill="#F2B153" cx="117.222" cy="196.157" rx="2.697" ry="2.538"/><path fill="#2AB573" d="M118.649 194.565s-1.183-.002-.648-1.632l.648 1.632z"/><path fill="#837722" d="M118.001 192.933l.648 1.632s.859-.814-.648-1.632"/><path fill="#2AB573" d="M118.631 194.648s.701-.952 1.701.441l-1.701-.441z"/><path fill="#837722" d="M120.332 195.089l-1.701-.441s.15 1.174 1.701.441"/><path fill="none" stroke="#58595B" stroke-width=".075" stroke-miterlimit="10" d="M118.464 194.706s.675-.223.68-1.118"/></g><g stroke="#58595B" stroke-width=".075" stroke-miterlimit="10"><ellipse transform="rotate(-127.459 124.513 198.698)" fill="#F1F1F2" cx="124.513" cy="198.7" rx="2.697" ry="2.539"/><g fill="#F1F1F2"><path d="M125.998 197.225s1.656-.42.333-2.516l-.333 2.516z"/><path d="M126.332 194.709l-.333 2.516c-.001 0-1.49-.838.333-2.516"/></g><path fill="none" d="M125.726 197.571s.311-.638 1.2-.521"/></g><g><ellipse fill="#E0993B" cx="120.346" cy="199.237" rx="2.697" ry="2.539"/><g fill="#F1F1F2" stroke="#58595B" stroke-width=".075" stroke-miterlimit="10"><path d="M120.474 197.104s.834.838 1.618-.687l-1.618.687z"/><path d="M122.092 196.417l-1.618.687s-.025-1.183 1.618-.687"/></g><path fill="#2AB573" d="M120.429 197.175s.185-1.168-1.509-.9l1.509.9z"/><path fill="#837722" d="M118.919 196.275l1.509.9c.001 0-.939.719-1.509-.9"/><path fill="none" stroke="#58595B" stroke-width=".075" stroke-miterlimit="10" d="M120.505 197.334s-.317-.636.318-1.27"/></g><g><ellipse transform="rotate(134.668 115.31 199.285)" fill="#E0993B" cx="115.309" cy="199.289" rx="2.697" ry="2.538"/><path fill="#837722" d="M113.881 197.698s1.183-.003.648-1.633l-.648 1.633z"/><path fill="#2AB573" d="M114.53 196.065l-.648 1.633c-.001 0-.859-.814.648-1.633"/><g fill="#F1F1F2" stroke="#58595B" stroke-width=".075" stroke-miterlimit="10"><path d="M113.9 197.779s-.701-.95-1.701.443l1.701-.443z"/><path d="M112.199 198.222l1.701-.443s-.15 1.176-1.701.443"/></g><path fill="none" stroke="#58595B" stroke-width=".075" stroke-miterlimit="10" d="M114.067 197.836s-.674-.221-.68-1.117"/></g><g><ellipse fill="#F2B153" cx="112.213" cy="199.237" rx="2.697" ry="2.539"/><path fill="#837722" d="M112.341 197.104s.833.838 1.617-.687l-1.617.687z"/><path fill="#2AB573" d="M113.958 196.417l-1.617.687s-.026-1.183 1.617-.687"/><path fill="#2AB573" d="M112.294 197.175s.185-1.168-1.509-.9l1.509.9z"/><path fill="#837722" d="M110.785 196.275l1.509.9s-.939.719-1.509-.9"/><path fill="none" stroke="#58595B" stroke-width=".075" stroke-miterlimit="10" d="M112.372 197.334s-.317-.636.317-1.27"/></g><g><ellipse transform="rotate(134.676 108.228 199.284)" fill="#F2B153" cx="108.225" cy="199.289" rx="2.697" ry="2.538"/><path fill="#837722" d="M106.797 197.698s1.184-.003.649-1.633l-.649 1.633z"/><path fill="#2AB573" d="M107.446 196.065l-.649 1.633s-.858-.814.649-1.633"/><path fill="#2AB573" d="M106.817 197.779s-.702-.95-1.701.443l1.701-.443z"/><path fill="#F1F1F2" stroke="#58595B" stroke-width=".075" stroke-miterlimit="10" d="M105.116 198.222l1.701-.443s-.15 1.176-1.701.443"/><path fill="none" stroke="#58595B" stroke-width=".075" stroke-miterlimit="10" d="M106.983 197.836s-.675-.221-.68-1.117"/></g><circle fill="#F2B153" cx="108.132" cy="204.654" r="2.711"/><circle fill="#E0993B" cx="110.166" cy="202.62" r="2.033"/><circle fill="#E0993B" cx="112.876" cy="205.333" r="2.033"/><circle fill="#F2B153" cx="112.876" cy="202.62" r="2.033"/><circle fill="#E0993B" cx="117.621" cy="203.299" r="2.711"/><circle fill="#F2B153" cx="121.688" cy="203.299" r="2.711"/><circle fill="#E0993B" cx="118.977" cy="206.01" r="1.355"/><circle fill="#EFBE43" cx="115.588" cy="202.62" r="2.033"/><circle fill="#F2B153" cx="118.299" cy="201.266" r="2.033"/><circle fill="#EFBE43" cx="123.721" cy="201.266" r="2.034"/><path fill="#DAD7C5" d="M104.065 197.522h24.4v2.286h-24.4zM104.065 201.333h24.4v2.288h-24.4zM104.065 205.146h24.4v2.288h-24.4z"/><path fill="#B0A690" d="M104.065 199.045h.762v3.051h-.762zM104.065 202.858h.762v3.051h-.762z"/><path fill="#F1F1F2" stroke="#58595B" stroke-width=".075" stroke-miterlimit="10" d="M127.703 199.045h.763v3.051h-.763zM127.703 202.858h.763v3.051h-.763z"/><path fill="#B0A690" d="M104.065 207.434h24.4v.764h-24.4zM104.065 194.47h.762v3.052h-.762z"/><path fill="#F1F1F2" stroke="#58595B" stroke-width=".075" stroke-miterlimit="10" d="M127.703 194.47h.763v3.052h-.763z"/></g><g><circle fill="#BCC7C9" cx="42.357" cy="201.625" r="6.778"/><ellipse fill="#CBD5D8" cx="42.357" cy="195.601" rx="3.012" ry=".752"/><path fill="#C9AC68" d="M45.37 207.65h-6.024l-.754.754c0 .521 1.687.939 3.767.939 2.079 0 3.765-.419 3.765-.939l-.754-.754z"/><ellipse fill="#9C8F57" cx="42.357" cy="207.65" rx="3.012" ry=".754"/><ellipse fill="#335C64" cx="40.108" cy="203.278" rx="1.162" ry=".774"/><path fill="#0A3542" d="M38.946 203.278l-.774-.774v1.548zM41.271 203.278l.774-.774v1.548z"/><ellipse transform="rotate(-26.504 44.023 202.786)" fill="#7895A4" cx="44.018" cy="202.792" rx="1.162" ry=".774"/><path fill="#335C64" d="M42.978 203.31l-1.039-.347.691 1.386zM45.058 202.273l.346-1.039.692 1.386z"/><ellipse transform="rotate(16.739 42.728 200.147)" fill="#335C64" cx="42.729" cy="200.173" rx="1.162" ry=".775"/><path fill="#0A3542" d="M41.617 199.838l-.518-.965-.447 1.484zM43.841 200.507l.966-.518-.447 1.484z"/><ellipse transform="rotate(16.757 44.161 204.708)" fill="#B25538" cx="44.16" cy="204.714" rx="1.162" ry=".773"/><path fill="#9F2214" d="M43.048 204.379l-.519-.965-.446 1.484z"/><path fill="#335C64" d="M45.273 205.049l.965-.518-.446 1.482z"/><g fill="#335C64"><ellipse transform="rotate(-42.845 45.665 205.176)" cx="45.659" cy="205.163" rx="1.162" ry=".775"/><path d="M44.807 205.954l-1.094-.042 1.053 1.136zM46.512 204.373l.041-1.095 1.053 1.136z"/></g><g><path fill="#B25538" d="M37.88 203.713s.063-.382.445-.318l2.292.38s.383.063.32.445l-.127.765s-.063.382-.445.318l-2.292-.379s-.382-.065-.319-.447l.126-.764z"/><path fill="#9F2214" d="M37.815 204.095l-1.019-.952.171.55-.297.213.212.298-.338.466zM40.874 204.602l1.019.954-.17-.552.297-.211-.213-.298.339-.467z"/></g><g><path fill="#335C64" d="M39.63 205.67s.112-.372.483-.259l2.225.672s.37.114.258.484l-.224.74s-.112.371-.483.26l-2.224-.674s-.371-.112-.259-.482l.224-.741z"/><path fill="#0A3542" d="M39.519 206.042l-.889-1.079.098.569-.322.174.173.32-.396.421zM42.484 206.939l.889 1.076-.099-.568.322-.173-.172-.321.396-.419z"/></g><g><path fill="#335C64" d="M37.575 200.697s.112-.37.483-.259l2.225.674s.37.111.258.481l-.224.742s-.113.371-.483.258l-2.225-.673s-.371-.111-.259-.482l.225-.741z"/><path fill="#0A3542" d="M37.464 201.069l-.889-1.079.098.57-.322.171.173.323-.396.419zM40.429 201.963l.888 1.079-.097-.569.322-.172-.173-.321.397-.421z"/></g><g><path fill="#B25538" d="M47.248 201.268s.315.227.089.54l-1.354 1.889s-.226.314-.54.089l-.629-.45s-.315-.228-.089-.542l1.354-1.888s.225-.315.541-.089l.628.451z"/><path fill="#6E2405" d="M46.934 201.042l1.306-.493-.57-.091-.059-.361-.361.061-.269-.512zM45.128 203.56l-1.308.492.571.092.059.36.36-.058.27.51z"/></g><g fill="#335C64"><ellipse transform="rotate(-17.38 42.084 205.403)" cx="42.081" cy="205.391" rx="1.162" ry=".776"/><path d="M40.972 205.738l-.971-.508.462 1.478zM43.19 205.043l.508-.97.463 1.479z"/></g></g><path fill="#754C28" d="M141.021 145.401h2.71v105.254h-2.71z"/><g><path fill="#5E5B33" d="M127.116 187.081s5.082-2.143 7.229 2.953c2.147 5.093-2.935 7.234-2.935 7.234s-5.081 2.144-7.229-2.951c-2.147-5.095 2.935-7.236 2.935-7.236z"/><path fill="#837722" d="M127.653 188.353s5.081-2.141 6.692 1.681c1.611 3.819-3.472 5.961-3.472 5.961s-5.082 2.143-6.692-1.678c-1.61-3.821 3.472-5.964 3.472-5.964z"/><path fill="#5E5B33" d="M128.458 190.263s5.081-2.142 5.887-.229c.805 1.91-4.277 4.05-4.277 4.05s-5.081 2.144-5.887.233c-.805-1.911 4.277-4.054 4.277-4.054z"/><path fill="#9B917C" d="M116.027 195.428h23.638v2.288h-23.638z"/><path fill="#837722" d="M127.188 195.152s4.852-4.854 9.166-.539c4.314 4.313-.54 9.166-.54 9.166s-4.852 4.852-9.166.538c-4.313-4.314.54-9.165.54-9.165z"/><path fill="#5E5B33" d="M128.266 196.23s4.853-4.853 8.088-1.617c3.235 3.233-1.618 8.087-1.618 8.087s-4.852 4.852-8.088 1.617c-3.234-3.235 1.618-8.087 1.618-8.087z"/><path fill="#837722" d="M129.884 197.846s4.852-4.852 6.469-3.233c1.617 1.617-3.235 6.469-3.235 6.469s-4.853 4.854-6.47 3.235c-1.617-1.617 3.236-6.471 3.236-6.471z"/><path fill="#837722" d="M118.687 204.368s-2.144-5.082 2.373-6.987c4.517-1.904 6.66 3.177 6.66 3.177s2.144 5.081-2.373 6.986c-4.517 1.906-6.66-3.176-6.66-3.176z"/><path fill="#5E5B33" d="M119.816 203.89s-2.144-5.081 1.243-6.51c3.388-1.428 5.531 3.653 5.531 3.653s2.143 5.08-1.244 6.51c-3.387 1.429-5.53-3.653-5.53-3.653z"/><path fill="#837722" d="M121.509 203.176s-2.144-5.081-.45-5.796c1.694-.714 3.837 4.367 3.837 4.367s2.144 5.082.45 5.796c-1.693.714-3.837-4.367-3.837-4.367z"/><path fill="#5E5B33" d="M120.536 191.081s5.082-2.141 6.985 2.375c1.905 4.518-3.177 6.661-3.177 6.661s-5.082 2.142-6.986-2.375c-1.903-4.517 3.178-6.661 3.178-6.661z"/><path fill="#837722" d="M121.013 192.211s5.081-2.142 6.509 1.244c1.429 3.39-3.653 5.531-3.653 5.531s-5.082 2.144-6.51-1.245c-1.428-3.386 3.654-5.53 3.654-5.53z"/><path fill="#5E5B33" d="M121.702 194.001s5.083-2.142 5.796-.447c.714 1.693-4.367 3.836-4.367 3.836s-5.081 2.142-5.795.448c-.715-1.694 4.366-3.837 4.366-3.837z"/><path fill="#DAD7C5" d="M115.265 198.479h24.4v2.287h-24.4zM115.265 202.291h24.4v2.287h-24.4zM115.265 206.105h24.4v2.286h-24.4z"/><path fill="#B0A690" d="M115.265 200.003h.762v3.05h-.762zM115.265 203.816h.762v3.051h-.762zM138.902 200.003h.763v3.05h-.763zM138.902 203.816h.763v3.051h-.763zM115.265 208.391h24.4v.762h-24.4zM115.265 195.428h.762v3.051h-.762zM138.902 195.428h.763v3.051h-.763z"/></g><g><circle fill="#335C64" cx="82.159" cy="206.447" r="2.202"/><ellipse transform="rotate(-32.881 82.666 206.104)" fill="#F1F1F2" cx="82.667" cy="206.107" rx="1.016" ry="1.188"/><circle fill="#404041" cx="75.296" cy="206.496" r="2.203"/><circle fill="#F1F1F2" cx="74.618" cy="207.174" r="1.186"/><g><circle fill="#2AB573" cx="78.638" cy="207.225" r="2.203"/></g><circle fill="#F1F1F2" cx="78.977" cy="206.886" r="1.186"/></g><g><path fill="#F1F1F2" stroke="#58595B" stroke-width=".075" stroke-miterlimit="10" d="M59.545 199.253v8.794c0 .442-1.432.8-3.198.8s-3.198-.357-3.198-.8v-8.794h6.396z"/><ellipse fill="#BBBDBF" cx="56.347" cy="199.253" rx="3.198" ry=".799"/><defs><path id="c" d="M55.889 205.675a.53.53 0 0 0 .488-.573l-.97-11.952c-.014-.189-.082-1.865 1.708-2.012.784-.063 1.337.188 1.689.772.274.45.32.933.32.937a.534.534 0 0 0 1.063-.086c-.082-1.011-.848-2.872-3.159-2.685-2.312.187-2.767 2.148-2.685 3.158l.971 11.954a.532.532 0 0 0 .575.487z"/></defs><use xlink:href="#c" overflow="visible" fill="#F1F1F2"/><clipPath id="d"><use xlink:href="#c" overflow="visible"/></clipPath><path clip-path="url(#d)" fill="#1FBAB3" stroke="#58595B" stroke-width=".075" stroke-miterlimit="10" d="M56.383 201.892l-1.464 1.725-.129-1.595 1.464-1.722zM56.578 204.283l-1.464 1.724-.13-1.593 1.465-1.723z"/><path clip-path="url(#d)" fill="#B25538" d="M56.189 199.503l-1.464 1.722-.129-1.595 1.464-1.721zM55.995 197.113l-1.464 1.721-.129-1.593 1.465-1.722zM55.801 194.722l-1.465 1.723-.129-1.595 1.464-1.724zM55.607 192.331s-.861-.731-1.528.927l-.13-1.593s.732-.861 2.391-.196l-.733.862zM57.259 191.454s-.788-1.658-2.199-.92l2.351-.874s1.07.745.586 1.734l-.738.06zM58.455 191.921s1.207-.869.049-1.966l1.559 1.271s-.202 1.176-1.198 1.346l-.41-.651z"/><g><defs><path id="e" d="M56.07 206.648a.534.534 0 0 0 .366-.659l-3.287-11.533c-.05-.182-.444-1.813 1.283-2.306.756-.216 1.348-.075 1.807.426.358.392.497.852.498.858a.535.535 0 0 0 .658.367.536.536 0 0 0 .367-.66c-.278-.976-1.394-2.651-3.623-2.017-2.23.637-2.293 2.647-2.016 3.623l3.288 11.534a.534.534 0 0 0 .659.367z"/></defs><clipPath id="f"><use xlink:href="#e" overflow="visible"/></clipPath><g clip-path="url(#f)"><path fill="#F1F1F2" d="M56.07 206.648a.534.534 0 0 0 .366-.659l-3.287-11.533c-.05-.182-.444-1.813 1.283-2.306.756-.216 1.348-.075 1.807.426.358.392.497.852.498.858a.535.535 0 0 0 .658.367.536.536 0 0 0 .367-.66c-.278-.976-1.394-2.651-3.623-2.017-2.23.637-2.293 2.647-2.016 3.623l3.288 11.534a.534.534 0 0 0 .659.367z"/></g><path clip-path="url(#f)" fill="#1FBAB3" stroke="#58595B" stroke-width=".075" stroke-miterlimit="10" d="M55.816 202.839l-1.099 1.977-.438-1.538 1.098-1.977zM56.474 205.147l-1.099 1.975-.439-1.536 1.099-1.976z"/><path clip-path="url(#f)" fill="#B25538" d="M55.158 200.534l-1.099 1.976-.437-1.538 1.099-1.975zM54.501 198.228l-1.099 1.975-.438-1.536 1.099-1.977zM53.844 195.92l-1.099 1.977-.439-1.538 1.099-1.977zM53.186 193.615s-.987-.55-1.318 1.207l-.438-1.538s.55-.988 2.307-.657l-.551.988zM54.635 192.432s-1.097-1.473-2.336-.475l2.134-1.316s1.195.522.914 1.588l-.712.203zM55.9 192.657s1.013-1.091-.337-1.937l1.777.94s.031 1.19-.912 1.553l-.528-.556z"/></g><g><defs><path id="g" d="M54.791 208.041c.282.085.58-.07.667-.354l3.523-11.461c.057-.18.616-1.763 2.332-1.235.752.231 1.172.67 1.284 1.342.088.522-.048.985-.049.99a.532.532 0 1 0 1.019.314c.298-.971.276-2.983-1.94-3.664-2.217-.683-3.366.971-3.664 1.938l-3.524 11.465a.532.532 0 0 0 .352.665z"/></defs><clipPath id="h"><use xlink:href="#g" overflow="visible"/></clipPath><g clip-path="url(#h)"><path fill="#F1F1F2" d="M54.791 208.041c.282.085.58-.07.667-.354l3.523-11.461c.057-.18.616-1.763 2.332-1.235.752.231 1.172.67 1.284 1.342.088.522-.048.985-.049.99a.532.532 0 1 0 1.019.314c.298-.971.276-2.983-1.94-3.664-2.217-.683-3.366.971-3.664 1.938l-3.524 11.465a.532.532 0 0 0 .352.665z"/></g><path clip-path="url(#h)" fill="#1FBAB3" stroke="#58595B" stroke-width=".075" stroke-miterlimit="10" d="M56.651 204.708l-1.998 1.059.47-1.527 1.999-1.059zM55.946 207l-1.997 1.061.469-1.529 1.998-1.058zM57.356 202.417l-1.998 1.059.47-1.529 1.998-1.058z"/><path clip-path="url(#h)" fill="#B25538" d="M58.062 200.124l-1.999 1.057.47-1.526 1.998-1.058zM58.766 197.831l-1.999 1.058.471-1.528 1.998-1.058zM59.471 195.539s-.529-.998-1.763.295l.469-1.529s.999-.527 2.292.706l-.998.528zM61.33 195.335s-.118-1.832-1.702-1.668l2.507.058s.719 1.087-.098 1.829l-.707-.219zM62.268 196.214s1.443-.362.772-1.808l.978 1.756s-.623 1.018-1.61.806l-.14-.754z"/></g><path fill="#9F2214" d="M56.347 200.077c1.767 0 3.198-.359 3.198-.8v8.794c0 .44-1.432.8-3.198.8s-3.197-.359-3.197-.8v-8.794c0 .44 1.431.8 3.197.8z"/></g><g><path fill="#335C64" d="M63.35 201.179h-.493c-.493 0-.493.305-.493.305v6.416h9.858v-6.72H63.35z"/><path fill="#F1F1F2" stroke="#58595B" stroke-width=".075" stroke-miterlimit="10" d="M72.223 208.508h-9.366s-.493 0-.493-.306v-.61s0-.306.493-.306h9.366v1.222z"/><path fill="none" stroke="#58595B" stroke-width=".075" stroke-miterlimit="10" d="M62.364 207.592h9.859M72.223 207.899h-9.859M62.364 208.203h9.859M62.857 201.179v6.108"/><path fill="#528389" d="M71.237 201.179l.986.612v-.612zM71.237 207.287l.986-.61v.61z"/><path fill="#335C64" d="M72.223 207.287s-.493 0-.493.612c0 .609.493.609.493.609v-1.221z"/><path fill="#F1F1F2" stroke="#58595B" stroke-width=".075" stroke-miterlimit="10" d="M62.364 207.592s0-.306.493-.306c0 0-.986.612 0 1.222 0 0-.493 0-.493-.306v-.61z"/><g><path fill="#2AB573" d="M62.857 199.042h-.493c-.493 0-.493.305-.493.305v6.415h9.859v-6.718h-8.873z"/><path fill="#F1F1F2" stroke="#58595B" stroke-width=".075" stroke-miterlimit="10" d="M71.73 206.371h-9.366s-.493 0-.493-.305v-.611s0-.306.493-.306h9.366v1.222z"/><path fill="none" stroke="#58595B" stroke-width=".075" stroke-miterlimit="10" d="M61.871 205.455h9.859M71.73 205.76h-9.859M61.871 206.066h9.859M62.364 199.042v6.107"/><path fill="#9B9667" d="M70.745 199.042l.985.611v-.611zM70.745 205.149l.985-.61v.61z"/><path fill="#2AB573" d="M71.73 205.149s-.493 0-.493.611c0 .61.493.61.493.61v-1.221z"/><path fill="#F1F1F2" stroke="#58595B" stroke-width=".075" stroke-miterlimit="10" d="M61.871 205.455s0-.306.493-.306c0 0-.986.611 0 1.222 0 0-.493 0-.493-.305v-.611z"/></g><g><path fill="#C1BFB2" d="M61.378 196.903h8.38v7.025h-8.38z"/><path fill="#8C231B" d="M61.378 196.903h.986v7.025h-.986z"/><path fill="#F1F1F2" stroke="#58595B" stroke-width=".075" stroke-miterlimit="10" d="M61.378 203.928h8.38v.61h-8.38z"/><path fill="#F1F1F2" stroke="#58595B" stroke-width=".075" stroke-miterlimit="10" d="M61.378 204.131h8.38v.204h-8.38zM63.35 197.819h5.422v1.834H63.35zM65.321 198.429h1.48M65.321 199.042h1.48M63.843 198.737h4.436"/></g><g><path fill="#DAD7C5" d="M61.871 195.681h8.38v7.025h-8.38z"/><path fill="#9F2214" d="M61.871 195.681h.986v7.025h-.986z"/><path fill="#F1F1F2" stroke="#58595B" stroke-width=".075" stroke-miterlimit="10" d="M61.871 202.707h8.38v.611h-8.38z"/><path fill="#F1F1F2" stroke="#58595B" stroke-width=".075" stroke-miterlimit="10" d="M61.871 202.909h8.38v.205h-8.38z"/><path fill="#DAD7C5" stroke="#58595B" stroke-width=".075" stroke-miterlimit="10" d="M63.843 196.597h5.423v1.832h-5.423z"/><path fill="#F1F1F2" stroke="#58595B" stroke-width=".075" stroke-miterlimit="10" d="M65.814 197.208h1.48M65.814 197.819h1.48M64.336 197.514h4.436"/></g></g><g><path fill="#7895A4" d="M89.26 198.707h13.556v10.167H89.26z"/><path fill="#507282" d="M89.26 195.318h13.556v3.389H89.26z"/><path fill="#5B808E" d="M89.26 195.318l7.624.846v1.695l-7.624.848z"/><path fill="#7895A4" d="M102.815 195.318l-6.777.846v1.695l6.777.848z"/><ellipse fill="#DAD7C5" cx="96.037" cy="203.791" rx="4.236" ry="2.54"/><path fill="#B25538" d="M90.954 202.52l.635 1.271-.635 1.27h10.167l-.636-1.27.636-1.271z"/></g><g><path fill="#B0A690" d="M92.212 187.103v7.603c0 .467 1.513.845 3.38.845 1.866 0 3.379-.378 3.379-.845v-7.603h-6.759z"/><path fill="#5E5B36" d="M92.212 186.821v7.604c0 .466 1.513.846 3.38.846 1.866 0 3.379-.38 3.379-.846v-7.604h-6.759z"/><ellipse fill="#C1BFB2" cx="95.592" cy="186.821" rx="3.38" ry=".845"/><ellipse fill="#B0A690" cx="95.592" cy="186.821" rx="2.534" ry=".633"/><ellipse fill="#F1F1F2" stroke="#58595B" stroke-width=".075" stroke-miterlimit="10" cx="95.591" cy="186.821" rx="1.69" ry=".422"/><path fill="#DAD7C5" d="M95.592 188.795c-1.01 0-1.916-.11-2.535-.286v5.07c.619.175 1.524.285 2.535.285 1.009 0 1.916-.11 2.534-.285v-5.07c-.619.176-1.525.286-2.534.286z"/><path fill="#B25538" d="M95.59 189.642l.188.326.269-.262.093.364.331-.181-.01.377.368-.086-.11.362.376.016-.203.317.358.119-.282.251.313.209-.338.166.245.286-.371.067.158.343-.375-.033.06.372-.352-.135-.043.374-.303-.225-.142.348-.23-.297-.231.297-.143-.348-.302.225-.042-.374-.352.135.06-.372-.376.033.159-.343-.371-.067.244-.286-.339-.166.314-.209-.282-.251.358-.119-.203-.317.377-.016-.111-.362.367.086-.009-.377.331.181.093-.364.269.262z"/><g><path fill="#2AB573" d="M88.918 188.596v7.603c0 .467 1.514.845 3.38.845 1.866 0 3.379-.378 3.379-.845v-7.603h-6.759z"/><ellipse fill="#C1BFB2" cx="92.311" cy="188.688" rx="3.38" ry=".845"/><ellipse fill="#B0A690" cx="92.212" cy="188.594" rx="2.535" ry=".634"/><ellipse fill="#DAD7C5" cx="92.212" cy="188.594" rx="1.69" ry=".422"/><path fill="#DAD7C5" d="M92.212 190.571c-1.01 0-1.915-.11-2.535-.286v5.07c.62.174 1.525.286 2.535.286s1.916-.112 2.535-.286v-5.07c-.62.175-1.525.286-2.535.286z"/><path fill="#D85039" d="M92.21 191.416l.188.327.269-.265.093.366.331-.179-.009.376.368-.086-.111.36.377.017-.204.317.358.119-.282.249.314.212-.339.165.245.286-.371.068.158.342-.376-.034.061.371-.352-.133-.042.374-.303-.225-.142.349-.231-.298-.231.298-.142-.349-.303.225-.042-.374-.352.133.06-.371-.375.034.157-.342-.37-.068.245-.286-.339-.165.314-.212-.282-.249.358-.119-.203-.317.376-.017-.11-.36.367.086-.01-.376.332.179.092-.366.269.265z"/></g><g><path fill="#C1BFB2" d="M96.396 188.458v7.604c0 .466 1.514.844 3.38.844 1.866 0 3.379-.378 3.379-.844v-7.604h-6.759z"/><path fill="#2AB573" d="M96.396 188.175v7.604c0 .467 1.514.845 3.38.845 1.866 0 3.379-.378 3.379-.845v-7.604h-6.759z"/><ellipse fill="#C1BFB2" cx="99.776" cy="188.175" rx="3.38" ry=".846"/><ellipse fill="#B0A690" cx="99.777" cy="188.175" rx="2.535" ry=".634"/><ellipse fill="#DAD7C5" cx="99.776" cy="188.175" rx="1.69" ry=".423"/><path fill="#DAD7C5" d="M99.777 190.152c-1.011 0-1.916-.111-2.535-.286v5.069c.62.176 1.524.286 2.535.286 1.009 0 1.915-.11 2.535-.286v-5.069c-.62.175-1.526.286-2.535.286z"/><path fill="#D85039" d="M99.774 190.998l.188.327.27-.263.093.364.331-.18-.009.376.367-.085-.11.36.376.016-.203.319.358.118-.282.249.313.21-.338.165.245.287-.371.069.158.341-.375-.034.06.372-.352-.134-.042.374-.303-.225-.143.349-.231-.297-.231.297-.142-.349-.302.225-.042-.374-.352.134.06-.372-.375.034.157-.341-.37-.069.244-.287-.338-.165.313-.21-.281-.249.357-.118-.203-.319.377-.016-.11-.36.366.085-.009-.376.331.18.093-.364.269.263z"/></g><g><path fill="#6D5217" d="M93.862 180.24v7.604c0 .468 1.513.845 3.379.845 1.867 0 3.379-.377 3.379-.845v-7.604h-6.758z"/><path fill="#2AB573" d="M93.862 179.958v7.605c0 .466 1.513.844 3.379.844 1.867 0 3.379-.378 3.379-.844v-7.605h-6.758z"/><ellipse fill="#C1BFB2" cx="97.242" cy="179.958" rx="3.379" ry=".846"/><ellipse fill="#B0A690" cx="97.242" cy="179.958" rx="2.535" ry=".634"/><ellipse fill="#DAD7C5" cx="97.241" cy="179.958" rx="1.69" ry=".423"/><path fill="#DAD7C5" d="M97.242 181.933c-1.01 0-1.916-.109-2.534-.287v5.069c.619.178 1.524.288 2.534.288 1.01 0 1.915-.11 2.535-.288v-5.069c-.62.178-1.525.287-2.535.287z"/><path fill="#D85039" d="M97.24 182.78l.188.327.269-.263.094.364.33-.182-.009.378.367-.085-.11.36.376.017-.203.317.358.118-.281.251.312.209-.338.165.245.286-.371.068.158.344-.375-.036.061.374-.353-.134-.042.373-.303-.225-.142.349-.231-.297-.231.297-.142-.349-.302.225-.044-.373-.351.134.06-.374-.376.036.159-.344-.371-.068.245-.286-.339-.165.313-.209-.281-.251.358-.118-.204-.317.376-.017-.11-.36.368.085-.009-.378.33.182.094-.364.269.263z"/></g></g><g><ellipse fill="#D6B999" cx="53.907" cy="208.673" rx="7.839" ry="1.96"/><path fill="#F1F1F2" stroke="#58595B" stroke-width=".062" stroke-miterlimit="10" d="M49.428 205.314v3.359c0 .618 2.005 1.12 4.479 1.12s4.479-.502 4.479-1.12v-3.359h-8.958z"/><ellipse fill="#F1F1F2" stroke="#58595B" stroke-width=".062" stroke-miterlimit="10" cx="53.907" cy="205.314" rx="4.479" ry="1.12"/><path fill="#B0A690" d="M53.907 208.673c-2.474 0-4.479-.501-4.479-1.119v1.119c0 .618 2.005 1.12 4.479 1.12s4.479-.502 4.479-1.12v-1.119c.001.618-2.005 1.119-4.479 1.119z"/><g><ellipse fill="#D6B999" cx="53.907" cy="207.469" rx="7.839" ry="1.959"/><path fill="#F1F1F2" stroke="#58595B" stroke-width=".062" stroke-miterlimit="10" d="M49.428 204.11v3.359c0 .619 2.005 1.119 4.479 1.119s4.479-.5 4.479-1.119v-3.359h-8.958z"/><ellipse fill="#F1F1F2" stroke="#58595B" stroke-width=".062" stroke-miterlimit="10" cx="53.907" cy="204.11" rx="4.479" ry="1.12"/><path fill="#B0A690" d="M53.907 207.469c-2.474 0-4.479-.502-4.479-1.118v1.118c0 .619 2.005 1.119 4.479 1.119s4.479-.5 4.479-1.119v-1.118c.001.616-2.005 1.118-4.479 1.118z"/></g><g><ellipse fill="#EDD2B2" cx="53.907" cy="206.26" rx="7.839" ry="1.959"/><path fill="#D6B999" d="M49.428 202.902v3.358c0 .618 2.005 1.12 4.479 1.12s4.479-.502 4.479-1.12v-3.358h-8.958z"/><ellipse fill="#EDD2B2" cx="53.907" cy="202.902" rx="4.479" ry="1.119"/><path fill="#B0A690" d="M53.907 206.26c-2.474 0-4.479-.501-4.479-1.12v1.12c0 .618 2.005 1.12 4.479 1.12s4.479-.502 4.479-1.12v-1.12c.001.619-2.005 1.12-4.479 1.12z"/></g></g><g><path fill="#B25538" d="M104.425 204.972l.084.013c1.725-.082 3.685.559 3.685.559l-.006.039c.186-.012.425.002.672.093a.29.29 0 0 1 .004-.031s2.06-.031 3.684.558l.084.013-.152 1.004-.155-.022c-.103.348-.24.715-.416.965 0 0-.436.619-1.441.467-1.252-.189-1.831-.875-1.653-2.606a1.635 1.635 0 0 0-.686-.11c-.34 1.712-1.096 2.198-2.351 2.008-1.005-.151-1.238-.873-1.238-.873-.095-.291-.117-.68-.112-1.046l-.155-.022.152-1.009z"/><path fill="#0A3542" d="M112.327 206.309s-.181 1.194-.569 1.745c0 0-.389.551-1.284.415-1.193-.18-1.7-.866-1.429-2.657-.001 0 1.835-.027 3.282.497zM104.69 205.154s-.181 1.194.027 1.834c0 0 .208.644 1.104.779 1.193.18 1.88-.328 2.151-2.117-.001 0-1.746-.568-3.282-.496z"/><path fill="#B25538" d="M112.701 206.453l-.101.67-6.594-.958-1.374.781-.459-.621 1.557-.603z"/><path fill="#C1654C" d="M104.345 205.189l-.101.67 6.582 1.033 1.082 1.153.621-.457-1.308-1.036z"/><g><path fill="#B25538" d="M97.176 206.885l.084-.002c1.679-.406 3.725-.146 3.725-.146l.001.04c.18-.046.418-.079.677-.036l-.001-.03s2.018-.418 3.724-.146l.084-.002.04 1.014-.157.009c-.034.361-.101.746-.227 1.024 0 0-.312.691-1.328.73-1.266.051-1.963-.518-2.113-2.25a1.602 1.602 0 0 0-.694.02c-.013 1.746-.665 2.365-1.932 2.414-1.016.039-1.38-.624-1.38-.624-.147-.269-.244-.646-.306-1.005l-.157.006-.04-1.016z"/><path fill="#0A3542" d="M105.188 206.713s.047 1.207-.231 1.82c0 0-.278.616-1.183.651-1.206.046-1.833-.532-1.903-2.342-.001.001 1.797-.37 3.317-.129zM97.469 207.013s.047 1.206.372 1.797c0 0 .326.591 1.23.557 1.206-.045 1.785-.672 1.715-2.481 0-.001-1.821-.232-3.317.127z"/></g></g><path fill="#D3CBBC" d="M34.267 211.221h106.754v39.434H34.267z"/><path fill="#B0A690" d="M141.021 215.882l-106.754 5.845v-10.506h106.754z"/><path fill="#D3CBBC" d="M20.755 142.692h11.263v107.963H20.755zM143.88 142.692h11.263v107.963H143.88z"/><path fill="#754C28" d="M31.555 145.401h2.711v105.254h-2.711zM20.686 145.401h2.712v105.254h-2.712zM152.336 145.401h2.711v105.254h-2.711z"/><path fill="#593B23" d="M22.672 208.588h8.896v2.145h-8.896zM143.291 208.588h9.645v2.145h-9.645z"/><path fill="#754C28" d="M20.686 142.692H155.29v2.709H20.686z"/><path fill="#593B23" d="M21.004 122.451l-5.584 21.594 144.163-.13-9.107-22.726z"/><path fill="#754C28" d="M122.381 121.462l3.497 22.583 12.004-.13-4.02-22.453zM106.11 121.622l2.022 22.423h-6.261l-2.097-22.362zM43.82 122.229l-3.888 21.686 9.89.13 4.512-21.816zM59.258 122.078l-2.911 21.837h7.496l4.136-21.837z"/><path fill="#593B23" d="M33.795 224.179l12.744-12.958h3.289l-16.033 16.23zM141.276 224.179l-12.744-12.958h-3.289l16.033 16.23z"/><path fill="#DBD5CC" d="M66.801 227.679s-2.96 2.197-1.953 8.571c1.006 6.374 32.414 5.549 37.023 4.354 4.607-1.194 7.625-12.68 1.66-13.44-5.966-.76-31.984-1.862-36.73.515zM46.613 238.497s-2.287 3.847 1.721 4.896c4.006 1.051 12.075.267 9.61-5.188-2.465-5.452-11.215-1.213-11.331.292z"/><g><path fill="#F1F1F2" d="M150.575 154.537l-7.088-11.34h-9.924l5.67 11.34z"/><path fill="#ED5C3F" d="M139.233 154.537l-5.67-11.34h-9.924l4.254 11.34z"/><path fill="#F1F1F2" d="M127.893 154.537l-4.254-11.34h-9.923l1.417 11.34z"/><path fill="#ED5C3F" d="M116.551 154.537l-2.835-11.34h-9.924l1.418 11.34z"/><path fill="#F1F1F2" d="M105.21 154.537l-1.418-11.34H93.87v11.34z"/><path fill="#DDD" d="M25.762 154.537s0 6.597 5.702 6.597c5.703 0 5.703-6.597 5.703-6.597H25.762z"/><path fill="#D85039" d="M36.989 154.537s0 6.597 5.774 6.597c5.773 0 5.773-6.597 5.773-6.597H36.989z"/><path fill="#DDD" d="M48.359 154.537s0 6.597 5.774 6.597 5.774-6.597 5.774-6.597H48.359z"/><path fill="#D85039" d="M59.73 154.537s0 6.597 5.774 6.597 5.774-6.597 5.774-6.597H59.73z"/><path fill="#DDD" d="M71.101 154.537s0 6.597 5.656 6.597 5.656-6.597 5.656-6.597H71.101z"/><path fill="#D85039" d="M82.458 154.537s0 6.597 5.774 6.597 5.774-6.597 5.774-6.597H82.458z"/><path fill="#DDD" d="M93.87 154.537s0 6.597 5.773 6.597c5.774 0 5.774-6.597 5.774-6.597H93.87z"/><path fill="#D85039" d="M105.239 154.537s0 6.597 5.774 6.597c5.773 0 5.773-6.597 5.773-6.597h-11.547z"/><path fill="#DDD" d="M116.61 154.537s0 6.597 5.773 6.597c5.775 0 5.775-6.597 5.775-6.597H116.61z"/><path fill="#D85039" d="M127.981 154.537s0 6.597 5.774 6.597 5.774-6.597 5.774-6.597h-11.548z"/><path fill="#DDD" d="M139.352 154.537s0 6.597 5.635 6.597c5.634 0 5.634-6.597 5.634-6.597h-11.269z"/><path fill="#F1F1F2" d="M25.766 154.537l7.089-11.34h9.923l-5.671 11.34z"/><path fill="#ED5C3F" d="M37.107 154.537l5.671-11.34H52.7l-4.252 11.34z"/><path fill="#F1F1F2" d="M48.448 154.537l4.252-11.34h9.925l-1.418 11.34z"/><path fill="#ED5C3F" d="M59.789 154.537l2.836-11.34h9.923l-1.418 11.34z"/><path fill="#F1F1F2" d="M71.13 154.537l1.418-11.34h9.923v11.34z"/><path fill="#ED5C3F" d="M82.458 143.163h11.366v11.374H82.458z"/></g></g><path fill="#2AB573" d="M416.479 242.958v90.249L0 333.201v-93.384z"/><g><path fill="#207278" d="M174.386 236.587c-5.301-13.394-.544-33.217-.34-34.053l3.172.777c-.048.195-4.71 19.655.205 32.074l-3.037 1.202zM201.502 236.425l-3.146-.877c3.446-12.374 1.229-23.745.283-28.601-.416-2.131-.527-2.706-.094-3.397l2.765 1.736a1.34 1.34 0 0 0 .225-.719c.009.213.168 1.031.31 1.756.99 5.082 3.31 16.984-.343 30.102z"/><path fill="#207278" d="M168.853 213.01l.568 3.491s1.138 6.983 19.222 4.038c18.086-2.943 16.95-9.929 16.95-9.929l-.569-3.491-36.171 5.891z"/><path fill="#207278" d="M163.733 181.51l36.172-5.893 5.634 34.583-36.172 5.893z"/><path fill="#445A5E" d="M201.872 159.74c-6.15.339 1.141-25.362-23.461-23.03l-6.404 1.043c-18.176 4.946-9.002 27.655-14.943 29.285-5.939 1.629-11.705-11.355-9.6 1.563 2.103 12.918 14.456 12.562 14.456 12.562l19.916-3.242 19.914-3.242s9.063-3.134 6.958-16.052c-2.103-12.918-.685.773-6.836 1.113"/><ellipse transform="rotate(-9.249 163.312 179)" fill="#EFD3BF" cx="163.315" cy="178.996" rx="3.351" ry="4.208"/><path fill="#EFD3BF" d="M203.001 172.534c.375 2.293-.804 4.395-2.631 4.692-1.828.295-3.61-1.32-3.985-3.614-.374-2.294.805-4.393 2.632-4.69s3.61 1.32 3.984 3.612z"/><path fill="#754C28" d="M166.93 201.24l36.17-5.89 1.84 11.305-36.17 5.89z"/><path fill="#EFD3BF" d="M183.917 191.506c16.371-2.667 16.34-12.898 16-15.76l-.123-.75-.737-4.521s-2.092-11.263-19.925-8.358c-17.835 2.905-16.244 14.249-16.244 14.249l.737 4.521.12.75c.585 2.822 3.803 12.535 20.172 9.869"/><path fill="#333" d="M195.977 172.138a5.724 5.724 0 0 1-4.731 6.571 5.726 5.726 0 1 1 4.731-6.571"/><path fill="#333" d="M181 167.105l17.952 13.047-.748 1.029-17.951-13.047z"/><path fill="#404041" d="M162.553 174.325l-.035-.22.035.22M198.689 168.213l.035.221a5.222 5.222 0 0 0-.035-.221"/><path fill="#57ACCD" d="M162.723 175.358s6.948-3.244 17.751-5.004c10.801-1.758 18.419-.887 18.419-.887s-1.174-10.377-19.762-7.35-16.408 13.241-16.408 13.241"/><path fill="#333" d="M177.474 175.692a1.757 1.757 0 1 1-3.47.564 1.759 1.759 0 0 1 3.47-.564M187.541 166.313l5.344-.084.032 2.018-5.344.084zM178.214 151.297c.212.037.459.077.712.119a.54.54 0 0 0 .613-.617l-.386-2.367a.534.534 0 0 0-.404-.436l-.123-.028c-.436-.109-.606-.301-.669-.688-.05-.311.127-.6.513-.809a.534.534 0 0 0 .273-.555l-.052-.32a.535.535 0 0 1 .444-.614l.153-.024a.533.533 0 0 1 .613.442l.056.343c.038.234.23.409.466.444a2.85 2.85 0 0 1 1.124.417c.224.141.518.09.687-.111l1.416-1.676a.533.533 0 0 0-.077-.766c-1.284-.98-2.926-1.306-4.928-.98-1.335.218-2.421.753-3.256 1.624-.831.871-1.137 1.937-.927 3.215.295 1.819 1.553 2.949 3.752 3.387"/><path fill="#333" d="M181.844 148.418a16.727 16.727 0 0 0-.761-.13.537.537 0 0 0-.612.615l.397 2.425a.53.53 0 0 0 .424.438l.002.003c.557.126.832.341.892.708.067.41-.135.73-.603.961a.532.532 0 0 0-.282.561l.059.356a.534.534 0 0 1-.443.613l-.153.024a.533.533 0 0 1-.614-.442l-.049-.313a.535.535 0 0 0-.506-.445 4.216 4.216 0 0 1-2.34-.859.53.53 0 0 0-.708.067l-1.559 1.661a.532.532 0 0 0 .023.759c.592.532 1.313.963 2.178 1.293 1.08.4 2.363.47 3.875.223 3.584-.583 5.116-2.542 4.688-5.158-.301-1.841-1.449-2.905-3.908-3.36"/><path fill="#E4F1DE" d="M178.091 150.545c.214.042.459.081.715.122.36.054.67-.259.611-.617l-.386-2.369a.531.531 0 0 0-.404-.435 1.979 1.979 0 0 1-.123-.029c-.437-.107-.606-.3-.667-.686-.051-.313.125-.6.51-.809a.528.528 0 0 0 .273-.556l-.05-.32a.533.533 0 0 1 .442-.613l.153-.025c.29-.048.566.15.615.443l.055.343a.544.544 0 0 0 .464.443c.407.06.781.199 1.124.417a.53.53 0 0 0 .688-.112l1.415-1.675a.536.536 0 0 0-.076-.768c-1.282-.977-2.925-1.305-4.926-.979-1.338.221-2.424.752-3.256 1.625s-1.137 1.936-.929 3.214c.295 1.822 1.553 2.95 3.752 3.386"/><path fill="#E4F1DE" d="M181.72 147.667c-.244-.046-.502-.09-.76-.129a.538.538 0 0 0-.611.615l.396 2.425a.537.537 0 0 0 .424.438c.001 0 .001.002.003.002.559.129.833.342.892.71.066.408-.135.731-.603.96a.534.534 0 0 0-.28.562l.056.355a.533.533 0 0 1-.441.615l-.153.024a.534.534 0 0 1-.614-.442l-.051-.314a.534.534 0 0 0-.507-.446 4.204 4.204 0 0 1-2.34-.86.526.526 0 0 0-.704.068l-1.562 1.662a.534.534 0 0 0 .023.758c.591.532 1.313.964 2.178 1.293 1.08.402 2.364.471 3.876.225 3.583-.584 5.114-2.543 4.689-5.16-.301-1.839-1.451-2.905-3.911-3.361"/><circle fill="#593B23" cx="186.291" cy="203.947" r="1.614"/><circle fill="#593B23" cx="194.35" cy="202.635" r="1.614"/><circle fill="#593B23" cx="199.99" cy="201.718" r="1.615"/><circle fill="#593B23" cx="175.815" cy="205.654" r="1.615"/><path fill="#F79542" d="M184.114 211.528a4.566 4.566 0 0 1-4.524-3.847l-.858-5.273a4.557 4.557 0 0 1 .806-3.412 4.553 4.553 0 0 1 2.98-1.846l5.272-.861c.244-.039.492-.057.737-.057a4.564 4.564 0 0 1 4.523 3.846l.859 5.273a4.554 4.554 0 0 1-.807 3.412 4.572 4.572 0 0 1-2.978 1.847l-5.275.858c-.243.038-.491.06-.735.06zm4.413-12.243c-.08 0-.162.005-.245.021l-5.274.858a1.517 1.517 0 0 0-.991.616 1.518 1.518 0 0 0-.272 1.137l.86 5.274c.13.81.916 1.398 1.752 1.262l5.275-.86c.397-.063.75-.282.99-.617a1.51 1.51 0 0 0 .271-1.133l-.858-5.274a1.54 1.54 0 0 0-1.508-1.284z"/><path fill="#333" d="M194.306 182.466s-4.79-5.667-9.657-2.295c-5.683-1.653-8.429 5.238-8.429 5.238-8.583 1.399-13.369-9.372-13.667-11.085l2.114 12.966c1.499 9.213 13.087 7.54 13.087 7.54l9.78 3.049 8.305-5.995s6.496-1.271 4.998-10.483l-2.113-12.967c.264 1.719 4.167 12.634-4.418 14.032m-8.735 3.357c-6.246 1.229-7.089-.78-7.089-.78 3.65.267 6.468-2.98 6.475-2.988.009.005 3.712 2.188 7.088.779-.001-.001-.161 2.174-6.474 2.989"/><path fill="#E6E7E8" d="M186.12 205.058l-6.782 1.106-.369-2.26 6.783-1.106z"/><ellipse transform="rotate(-9.25 184.22 179.354)" fill="#E1AF8D" cx="184.192" cy="179.424" rx="3.485" ry="1.223"/><path fill="#593B23" d="M170.91 229.184l1.978 11.87-5.934 1.98v1.977h9.891l1.98-15.827z"/><path fill="#754C28" d="M170.997 227.143l-3.675 7.348h14.696l-3.674-7.348z"/><path fill="#593B23" d="M205.333 229.184l-1.98 11.87 5.938 1.98v1.977h-9.894l-1.978-15.827z"/><path fill="#754C28" d="M198.066 227.143l-3.674 7.348h14.695l-3.674-7.348z"/><path fill="#333" d="M172.474 171.022l-1.45-.753c.701-1.363 3.102-3.531 7.177-1.96l-.587 1.522c-3.632-1.397-4.997.921-5.14 1.191z"/><path fill="#E4DBCA" d="M194.432 175.277l17.438-2.885 4.326 26.155-17.438 2.885z"/><path fill="#C1B9AE" d="M194.44 175.27l39.232-6.494 4.33 26.155-39.233 6.493z"/><path fill="#E4DBCA" d="M233.667 168.78l17.435-2.885 4.326 26.152-17.435 2.884z"/><path fill="#EDD3B4" d="M233.667 168.78l17.435-2.885 4.326 26.152-17.435 2.884z"/><path fill="#E4DBCA" d="M193.717 170.917l17.436-2.886.722 4.358-17.436 2.886z"/><path fill="#D2C9BB" d="M192.38 171.14l40.56-6.71.722 4.359-40.561 6.71z"/><path fill="#E4DBCA" d="M232.942 164.437l17.437-2.886.722 4.359-17.437 2.886z"/><path fill="#EDD3B4" d="M232.948 164.424l18.647-3.086.721 4.359-18.646 3.086z"/><path fill="#B6ADA3" d="M194.432 175.273l1.444 8.72 38.508-10.851-.721-4.358z"/><path fill="#D2C9BB" d="M233.663 168.784l.721 4.358 16.715-7.244z"/><path fill="#D85039" d="M194.47 148.396l26.154-4.328 3.607 21.795-26.153 4.328z"/><path fill="#E55C4A" d="M237.303 163.7l-13.078 2.162-3.603-21.795 13.078-2.162z"/><path fill="#2B9DBC" d="M226.421 152.069l13.076-2.163 2.163 13.076-13.076 2.163z"/><path fill="#26A5D4" d="M250.362 161.546l-8.717 1.444-2.166-13.076 8.718-1.444z"/><path fill="#093542" d="M240.163 154.027l.08.483-13.077 2.166-.08-.484z"/><path fill="#507281" d="M248.88 152.587l.08.484-8.719 1.433-.08-.485z"/><path fill="#841F1A" d="M221.299 148.188l.08.484-26.154 4.324-.08-.484z"/><path fill="#9E2214" d="M234.374 146.023l.08.485-13.076 2.161-.08-.484z"/><path fill="#2BA367" d="M186.506 127.324l26.155-4.329 3.607 21.794-26.155 4.33z"/><path fill="#2BA367" d="M184.447 123.19l27.487-4.546.72 4.359-27.486 4.547z"/><path fill="#2AB573" d="M229.332 142.631l-13.077 2.163L212.65 123l13.077-2.163z"/><path fill="#2AB573" d="M226.811 120.662l-14.165 2.344-.722-4.359 14.166-2.344z"/><path fill="#298C58" d="M186.5 127.328l.72 4.358L212.653 123z"/><g><path fill="#EFD3BF" d="M217.637 186.149s-.955-2.299-3.253-1.345l-2.297.953s-4.596 1.907-2.69 6.503c1.907 4.596 6.503 2.688 6.503 2.688l2.298-.953s2.298-.953 1.345-3.252l-1.906-4.594z"/><path fill="#EFD3BF" d="M211.532 181.25s2.468.313 2.157 2.781l-.313 2.469s-.313 2.468-2.781 2.156l.937-7.406zM216.566 186.565a1.271 1.271 0 1 1-1.42-2.11l4.215-2.84a1.272 1.272 0 0 1 1.766.343 1.273 1.273 0 0 1-.344 1.765l-4.217 2.842zM217.872 185.811a1.27 1.27 0 1 0 .973 2.349l4.698-1.948a1.273 1.273 0 0 0 .687-1.662 1.275 1.275 0 0 0-1.662-.688l-4.696 1.949zM217.985 188.846a1.27 1.27 0 0 0 .972 2.347l4.698-1.948a1.27 1.27 0 0 0 .685-1.661 1.267 1.267 0 0 0-1.66-.687l-4.695 1.949z"/><path fill="#EFD3BF" d="M217.372 191.639a1.273 1.273 0 0 0-.905 1.554c.179.68.875 1.084 1.555.903l4.917-1.301a1.269 1.269 0 0 0 .901-1.555 1.264 1.264 0 0 0-1.551-.901l-4.917 1.3z"/></g><g><path fill="#207278" d="M187.4 205.45c-10.683 0-18.592-6.115-18.727-6.223l3.047-3.839-1.524 1.922 1.519-1.923c.774.608 19.143 14.646 36.577-6.07l3.749 3.156c-8.429 10.014-17.207 12.977-24.641 12.977z"/><path fill="#1F6163" d="M204.644 190.286l3.715-3.073 5.813 7.025-3.715 3.074z"/><path fill="#F79542" d="M207.401 188l.96-.793 5.807 7.029-.96.793z"/></g><g><path fill="#70ADC1" d="M233.934 116.017s-.229 1.338-1.568 1.108l-30.774-5.264s-2.676-.458-4.893-3.591c-2.219-3.134-7.571-4.051-7.571-4.051l-2.674-.457.686-4.014 48.169 8.242-1.375 8.027z"/><path fill="#7EC1D2" d="M236.222 102.638s.229-1.338-1.108-1.566l-30.773-5.264s-2.677-.459-5.81 1.758c-3.134 2.219-8.486 1.303-8.486 1.303l-2.676-.457-.686 4.013 48.167 8.24 1.372-8.027z"/><path fill="#FCB913" d="M186.45 103.76l-2.677-.458.915-5.35 2.678.457z"/><path fill="#CC962B" d="M186.45 103.759l-1.338-.229.915-5.35 1.339.229z"/><path fill="#093858" d="M207.886 108.327s.507 3.32 3.651 3.858l14.659 2.508 1.586-2.961-19.896-3.405z"/><path fill="#093858" d="M227.761 111.848l-19.896-3.404-4.036-1.773.095-.216 4.008 1.764 19.87 3.395z"/><path fill="#093858" d="M219.99 99.62l.35.06-1.81 10.468-.35-.06zM222.759 102.239l.348.06-1.44 8.375-.349-.06zM214.137 100.764l.349.06-1.441 8.377-.349-.06zM227.768 111.736l-5.237-.897.359-2.094 5.237.896z"/><path fill="#105072" d="M223.086 107.695l5.235.896-.179 1.046-5.235-.895zM212.263 107.989l3.143.537-.18 1.048-3.142-.537zM220.633 109.432l2.096.36-.18 1.046-2.095-.36z"/><path fill="#FFF" d="M219.789 101.742s-7.507-.207-4.214 5.745c0 0 .359-2.094 3.141.538-.001 0-2.605-3.679 1.073-6.283zM222.752 103.327s-4.018.21-2.553 4.952c0 0 .297-1.745 1.658.283 0 0-1.21-2.902.895-5.235zM214.375 101.894s-4.019.21-2.556 4.951c0 0 .3-1.744 1.659.284.001-.001-1.208-2.902.897-5.235z"/><path fill="#093858" d="M214.553 107.136l5.236.896-.06.35-5.236-.896z"/></g></g><circle fill="#EFBF54" cx="337.524" cy="98.738" r="18.748"/><path fill="#929B6D" d="M416.479 242.958l-11.924 13.83-57.209 4.218 69.133 1.03"/><path fill="#2BA367" d="M1.158 250.221l416.479 11.415v71.171l-416.479-.006z"/><g><path fill="#754C28" d="M34.002 205.28H12.773c-10.615 18.576 0 37.153 0 37.153h21.229c10.615-18.577 0-37.153 0-37.153z"/><path fill="#593B23" d="M32.165 205.28H14.61c-8.778 18.576 0 37.153 0 37.153h17.555c8.778-18.577 0-37.153 0-37.153z"/><path fill="#754C28" d="M28.491 205.28H18.284c-5.103 18.576 0 37.153 0 37.153h10.207c5.103-18.577 0-37.153 0-37.153z"/><path fill="#593B23" d="M24.816 205.28h-2.857c-1.429 18.576 0 37.153 0 37.153h2.857c1.43-18.577 0-37.153 0-37.153z"/><path fill="#B0B4B5" d="M37.592 212.806H8.952l1.069-2.857h26.686zM9.247 233.833h28.64l-1.069 2.858H10.132z"/><ellipse fill="#825330" cx="27.884" cy="216.116" rx="1.032" ry="1.807"/><ellipse transform="rotate(-6.636 9.447 227.185)" fill="#593B23" cx="9.469" cy="227.248" rx=".516" ry="1.805"/></g><g><path fill="#754C28" d="M37.185 244.011l8.259.454 8.258.455c9.054-13.997 1.592-28.904 1.592-28.904l-8.259-.454-8.258-.455c-9.055 13.998-1.592 28.904-1.592 28.904z"/><path fill="#593B23" d="M38.614 244.09l6.829.375 6.829.376c7.625-14.075 1.591-28.904 1.591-28.904l-6.83-.375-6.829-.377c-7.623 14.076-1.59 28.905-1.59 28.905z"/><path fill="#754C28" d="M41.473 244.248l3.971.218 3.97.22c4.767-14.234 1.592-28.904 1.592-28.904l-3.971-.219-3.97-.22c-4.767 14.234-1.592 28.905-1.592 28.905z"/><path fill="#593B23" d="M44.331 244.404l1.112.062 1.112.062c1.907-14.391 1.591-28.904 1.591-28.904l-1.112-.061-1.111-.063c-1.907 14.391-1.592 28.904-1.592 28.904z"/><path fill="#B0B4B5" d="M34.715 238.002l22.281 1.227-.954 2.178-20.761-1.144zM57.668 222.858l-22.282-1.228.954-2.176 20.762 1.142z"/><ellipse transform="scale(-1) rotate(3.17 8523.02 -1532.804)" fill="#825330" cx="42.409" cy="235.843" rx=".804" ry="1.406"/><ellipse transform="rotate(176.467 57.209 227.97)" fill="#593B23" cx="57.214" cy="227.972" rx=".402" ry="1.407"/></g><g fill="#C7E4EA"><path d="M354.764 106.022s0-7.284 7.284-7.284c7.283 0 7.283 7.284 7.283 7.284h-14.567z"/><path d="M343.111 111.848s0-10.197 10.198-10.197c10.195 0 10.195 10.197 10.195 10.197h-20.393z"/><path d="M337.284 111.848s0-5.826 5.827-5.826 5.827 5.826 5.827 5.826h-11.654zM357.677 111.848s0-10.197 10.198-10.197c10.196 0 10.196 10.197 10.196 10.197h-20.394z"/></g><g><path fill="#593B23" d="M0 333.201v-56.76L126.1 284l103.316-12.122 135.619 18.985 51.444-3.638v45.982z"/><path fill="#845434" d="M29.437 309.445s4.975 4.141 6.48-1.881c1.505-6.021-11.833-2.174-6.48 1.881zM35.393 297.718s1.299 6.663 7.318 2.518c6.02-4.148-9.408-11.38-7.318-2.518zM74.155 322.538s-1.506 6.856 2.508 1.84c4.014-5.018-1.631-7.861-2.508-1.84zM91.528 298.592s-.785 11.064 6.958 5.448c7.743-5.614-5.604-13.934-6.958-5.448zM51.253 296.901s-1.379 3.703 2.383 1.746c3.764-1.955-.375-5.425-2.383-1.746zM52.809 315.648s-.843 5.255 3.655 2.87c4.498-2.382-3.07-6.745-3.655-2.87zM18.898 291.307s-3.078 7.88 2.842 3.595c5.921-4.285-.836-7.569-2.842-3.595zM241.044 300.75s-4.013-3.34-5.227 1.517c-1.214 4.858 9.544 1.754 5.227-1.517zM257.29 315.318s-1.048-5.374-5.903-2.03c-4.856 3.345 7.589 9.179 5.903 2.03zM160.426 295.813s1.215-5.531-2.023-1.484c-3.238 4.047 1.315 6.339 2.023 1.484zM140.917 322.901s.633-8.925-5.613-4.396c-6.245 4.53 4.52 11.242 5.613 4.396zM247.383 293.757s1.112-2.986-1.922-1.408c-3.036 1.577.303 4.375 1.922 1.408zM112.184 301.083s.68-4.238-2.949-2.314c-3.628 1.92 2.477 5.439 2.949 2.314zM181.53 299.629s2.483-6.355-2.292-2.898c-4.776 3.456.675 6.104 2.292 2.898zM317.893 313.167s4.788-2.083.996-5.351c-3.794-3.269-5.859 7.737-.996 5.351zM406.77 306.965s-3.702-3.08-4.822 1.399c-1.12 4.481 8.804 1.619 4.822-1.399zM395.271 318.592s-.966-4.958-5.445-1.874c-4.479 3.086 7 8.468 5.445 1.874zM227.965 324.656s-4.848 1.944-.082 2.313c4.767.367 4.152-4.295.082-2.313zM360.497 324.607s1.026-2.756-1.773-1.3c-2.801 1.455.279 4.037 1.773 1.3zM377.37 309.173s2.29-5.863-2.115-2.675c-4.405 3.189.623 5.631 2.115 2.675zM345.2 313.188s-.505 3.153 2.194 1.722c2.7-1.429-1.842-4.048-2.194-1.722zM267.776 290.408s-1.913 4.858 3.079 4.487c4.994-.371-1.329-9.613-3.079-4.487zM308.945 324.092s5.223-.054.916-2.126c-4.309-2.073-5.428 2.495-.916 2.126zM281.764 297.35s1.223 2.675 2.173-.335c.952-3.009-3.052-2.656-2.173.335zM276.344 324.192s2.526 5.765 3.387.396-4.422-3.542-3.387-.396zM300.655 294.608s-1.873-2.587-2.769.334c-.898 2.919 4.165 1.559 2.769-.334zM3.726 322.708s-2.378 4.106 2.16 4.45c4.537.344.109-8.819-2.16-4.45zM137.54 294.189s-3.901.04-1.623 2.996c2.277 2.956 4.496-3.052 1.623-2.996z"/><path fill="#442D1D" d="M84.62 333.332s8.012-21.863 26.688-18.598 15.516 18.598 15.516 18.598H84.62z"/><g><path fill="#865A35" d="M223.185 280.46l-3.583.684.091.474c-6.767 3.444-5.2 11.646-5.2 11.646l7.166-1.37 3.583-.687 10.749-2.057c0 .001-2.057-10.748-12.806-8.69z"/><path fill="#754C28" d="M210.911 293.95s-2.057-10.748 8.692-12.806c10.749-2.056 12.805 8.693 12.805 8.693l-21.497 4.113z"/><path fill="#754C28" d="M221.654 291.894l-35.828 6.854-2.057-10.75 35.828-6.854z"/><path fill="#865A35" d="M187.358 287.315l-3.583.685.091.474c-6.768 3.445-5.2 11.646-5.2 11.646l7.166-1.371 3.582-.686 10.749-2.057c0-.001-2.057-10.748-12.805-8.691z"/><path fill="#754C28" d="M175.087 300.807l21.496-4.113 5.484 28.663-21.497 4.112z"/><path fill="#593B23" d="M179.341 303.717l14.33-2.741 4.113 21.497-14.33 2.742z"/><path fill="#93633E" d="M196.573 296.703l39.411-7.54 5.484 28.664-39.412 7.54z"/><path fill="#754C28" d="M200.841 299.601l32.246-6.169 4.113 21.499-32.246 6.169z"/><path fill="none" stroke="#593B23" stroke-width=".405" stroke-miterlimit="10" d="M202.219 306.754l32.245-6.169M203.59 313.919l32.246-6.169"/><path fill="none" stroke="#472F1F" stroke-width=".405" stroke-miterlimit="10" d="M195.054 308.125l-14.331 2.744M196.425 315.292l-14.331 2.741"/><path fill="#593B23" d="M237.193 314.915l-1.792.343-4.115-21.498 1.792-.343z"/><path fill="#472F1F" d="M179.364 303.705l1.791-.343 4.115 21.497-1.791.343z"/><path fill="#724D32" d="M175.083 300.804s-2.057-10.749 8.692-12.805c10.748-2.056 12.804 8.691 12.804 8.691l-21.496 4.114z"/><path fill="#593B23" d="M178.324 298.329s-1.371-7.167 5.794-8.537c7.166-1.372 8.538 5.795 8.538 5.795l-14.332 2.742z"/><path fill="#929497" d="M210.907 293.96l10.75-2.057 1.37 7.166-10.749 2.056z"/><path fill="#727477" d="M212.285 301.098l-.796.152-1.363-7.168.795-.151z"/><path fill="#231F20" d="M217.923 295.727a1.081 1.081 0 1 0-1.468 1.204l-.114 2.034 2.124-.406-.857-1.849c.254-.246.386-.61.315-.983z"/></g><g><path fill="#2BA367" d="M310.135 305.636c-1.108-3.324 4.435-8.867 4.435-8.867l-1.108-1.108-1.109-1.108-1.108-1.108s-5.543 5.543-8.868 4.433c-3.326-1.107-5.542 1.11-5.542 1.11l-15.519 15.519 5.542 5.543 1.108 1.109 5.542 5.541 15.519-15.519c-.001-.001 2.217-2.217 1.108-5.545z"/><path fill="#474426" d="M297.953 300.09l9.976 9.976-14.41 14.411-9.977-9.976z"/><path fill="#2AB573" d="M311.924 291.88l4.23 4.229-1.108 1.107-4.23-4.229z"/><path fill="#B28267" d="M312.831 292.825l2.34 2.339-1.108 1.109-2.34-2.34z"/><path fill="#966953" d="M311.722 293.933l2.34 2.34-1.271 1.272-2.34-2.34z"/><path fill="#C1947E" d="M316.499 294.348l-2.833-2.834-.822 1.315 2.341 2.338z"/><path fill="#C9AC68" d="M294.482 302.525s8.561 1.223 11.006 11.005l-11.006 8.561-8.56-8.561 8.56-11.005z"/><path fill="#6E2405" d="M294.195 306.063l7.796 7.795-.541.542-7.797-7.795zM293.31 307.394l-.974 4.873-.752-.15.974-4.873z"/><path fill="#6E2405" d="M294.782 308.888l.15.753-4.874.977-.15-.752zM296.226 310.321l-.975 4.874-.75-.15.975-4.874z"/><path fill="#6E2405" d="M297.699 311.81l.15.75-4.874.973-.15-.751zM299.149 313.246l-.975 4.873-.75-.15.975-4.873z"/><path fill="#6E2405" d="M300.66 314.737l.152.751-4.874.98-.15-.752zM289.28 310.935l7.797 7.799-.541.54-7.796-7.798z"/><circle fill="#6E2405" cx="299.751" cy="308.287" r="1.378"/></g><g><path fill="#AEB3B5" d="M153.509 313.44s-34.237-10.33-34.747-23.808c0 0 11.796 9.936 36.295 20.843l-1.548 2.965z"/><path fill="#767769" d="M166.053 319.08l-13.736-6.164 1.37-3.052 13.736 6.164z"/><path fill="#9C9FA0" d="M152.313 312.931s-4.951 6.946 2.681 10.37c7.631 3.425 11.055-4.207 11.055-4.207l-1.526-.685s-6.32 10-10.684-4.794l2.054-4.578-1.526-.686-2.054 4.58z"/><ellipse transform="rotate(-65.827 167.511 317.923)" fill="#9C9FA0" cx="167.497" cy="317.911" rx="1.673" ry=".836"/><path fill="#9C9FA0" d="M164.519 318.396l2.055-4.578 1.525.685-2.055 4.578z"/><path fill="#606055" d="M153.836 313.635l1.37-3.052 1.526.685-1.37 3.051z"/></g><path fill="#442D1D" d="M10.063 311.542s-1.738 13.109 12.971 12.243 20.661-11.362 14.312-18.916c-6.35-7.554-27.459-3.2-27.283 6.673z"/><path fill="#845434" d="M323.536 323.377s-.954 7.192 7.117 6.718c8.071-.476 11.336-6.234 7.853-10.38-3.484-4.144-15.066-1.755-14.97 3.662z"/></g></svg>