<svg xmlns="http://www.w3.org/2000/svg" width="348.401" height="91.423" viewBox="0 0 348.401 91.423"><path fill="#333" d="M312.62 60.435l-6.163-7.361c-.172-.343-.343-.686-.343-1.027v-11.3l1.198-1.198c.171-.172.343-.514.343-.685v-2.911c0-.514-.514-1.027-1.027-1.027h-8.902c-.514 0-1.027.514-1.027 1.027v2.911c0 .171.171.514.171.685l1.027 1.198v11.471c0 .343-.171.685-.343 1.027l-5.992 7.361c-.171.343-.342.686-.342 1.027v8.731c0 .856.685 1.541 1.54 1.541h18.662c.855 0 1.54-.685 1.54-1.541v-8.731c0-.684-.171-1.027-.342-1.198zm-8.389-24.482c0-.342.172-.685.343-.685h1.541c.171 0 .343.343.343.685v1.37c0 .342-.172.685-.343.685l-1.541-.514c-.171 0-.343-.343-.343-.685v-.856zm6.848 31.502c0 .685-.514 1.37-1.027 1.712-.171.856-.514 1.541-1.198 1.541h-1.37c.514-.343.686-.685.686-1.37h-13.012a1.9 1.9 0 0 1-1.884-1.883v-6.163h14.724c0-.514-.171-1.027-.342-1.541l-2.397-6.163c-.171-.514-.342-1.37-.342-2.055v-9.759c0-1.027 0-1.37.685-1.712h.171-7.19c-.171 0-.171 0-.171-.172l-.685-.685c-.172-.171 0-.514.171-.514h8.731c.342 0 .342.343.171.514l-.685.685-.685 1.027v10.615c0 .855.171 1.541.514 2.226l3.938 6.334c.171.343.342.686.342 1.199h1.027v6.163h-.172zm-10.443-10.957c.342 0 .855.343.855.855v1.713c0 .342-.342.855-.855.855h-1.712c-.343 0-.856-.342-.856-.855v-1.713c0-.342.343-.855.856-.855h1.712zm-.856-5.993v-.856c0-.171.172-.342.343-.342h.855c.172 0 .343.171.343.342v.856a.369.369 0 0 1-.343.343h-.855a.369.369 0 0 1-.343-.343zm2.568 2.226h1.37c.342 0 .513.171.513.514v1.369c0 .343-.171.514-.513.514h-1.37c-.343 0-.514-.171-.514-.514v-1.369c0-.171.343-.514.514-.514zm0-7.875v-.686c0-.171.171-.342.343-.342h.685c.171 0 .342.171.342.342v.686a.368.368 0 0 1-.342.342h-.685c-.172-.171-.343-.171-.343-.342zM303.032 24.311h-2.396s-.514 0-.856-.343l-.855-.855c-.343-.343-.343-.856-.343-.856V19.86a1.17 1.17 0 0 0-1.198-1.199h-2.568a1.17 1.17 0 0 0-1.198 1.199v2.567a1.17 1.17 0 0 0 1.198 1.199h2.397s.514 0 1.027.342l.855.856c.343.342.343 1.027.343 1.027v2.396a1.17 1.17 0 0 0 1.198 1.198h2.568a1.17 1.17 0 0 0 1.198-1.198V25.68c-.171-.855-.684-1.369-1.37-1.369zM281.632 23.455h2.396s.514 0 .856.343l.856.855c.342.343.342.856.342.856v2.396a1.17 1.17 0 0 0 1.198 1.199h2.568a1.17 1.17 0 0 0 1.198-1.199v-2.567a1.17 1.17 0 0 0-1.198-1.198h-2.396s-.514 0-1.027-.343l-.856-.856c-.342-.342-.342-1.026-.342-1.026v-2.397a1.17 1.17 0 0 0-1.199-1.198h-2.567a1.17 1.17 0 0 0-1.198 1.198v2.568c.171.855.685 1.369 1.369 1.369z"/><path fill="#333" d="M292.76 26.023v2.396s0 .514-.342.856l-.856.856c-.342.342-.855.342-.855.342h-2.397a1.17 1.17 0 0 0-1.198 1.198v2.568a1.17 1.17 0 0 0 1.198 1.198h2.568a1.17 1.17 0 0 0 1.198-1.198v-2.396s0-.514.343-1.027l.855-.856c.343-.342 1.027-.342 1.027-.342h2.397a1.17 1.17 0 0 0 1.198-1.199v-2.567a1.17 1.17 0 0 0-1.198-1.199h-2.568c-.856.343-1.37.856-1.37 1.37z"/><g><path fill="#333" d="M221.367 19.517h6.164v1.198h-2.568v9.93h-1.198v-9.93h-2.568v-1.198h.17zM228.901 30.645V19.517h1.198v1.37h1.199v1.369h-1.199v8.389h-1.198zm2.568-5.82v-2.568h1.198v2.568h1.198v1.369h-1.198v-1.369h-1.198zm2.396 0v-2.568h1.199v2.568h-1.199zm2.569 5.82v-8.389h-1.198v-1.369h1.198v-1.37h1.198v11.128h-1.198zM66.77 30.988H37.323v29.447h6.849V37.836h6.848v22.599h6.849V37.836h6.848v22.599h6.849V35.439h-4.623v-4.451h-.173zm24.996 0v4.451h-4.623v24.996h6.849V37.836h7.875v-6.849H91.766zM75.844 60.435h6.848V30.988h-6.848v29.447zM165.384 30.988H135.937v29.447h6.677V37.836h6.848v22.599h6.848V37.836h6.848v22.599h6.677V35.439h-4.451zM192.434 30.988H178.91v4.623h-4.451v20.373h4.451v4.451h17.634v-6.848h-15.408v-4.452h15.751V35.439h-4.623v-4.451h.17zm-11.128 6.677h8.902v4.623h-8.902v-4.623zM219.656 30.988H206.13v4.623h-4.451v20.373h4.451v4.451h17.635v-6.848h-15.408v-4.452h15.75V35.439h-4.622v-4.451h.171zm-11.299 6.677h8.902v4.623h-8.902v-4.623zM75.844 19.517h6.848v6.849h-6.848z"/><g><path fill="#333" d="M124.466 53.929h-11.3V30.988h-6.676v24.996h4.451v4.451h20.373V30.988h-6.848z"/></g></g><path fill="#333" d="M260.745 0H0v91.423h348.401V0h-87.656zm-4.109 87.143H4.28V4.109h252.356v83.034zm87.486 0h-83.377V4.109h83.377v83.034z"/></svg>