<svg xmlns="http://www.w3.org/2000/svg" width="360" height="210" viewBox="0 0 360 210"><g fill="none" stroke="#595A5C" stroke-width=".5" stroke-miterlimit="10"><path d="M259.245 75.783l-76.724-42.39M184.233 30.292l76.724 42.391M180.808 36.492l76.724 42.39M182.521 33.393l11.303 2.198M192.114 38.691l-7.881-8.399M180.808 36.492l11.306 2.199M190.398 41.792l-7.877-8.399M190.398 41.792l3.426-6.201M192.114 38.691l11.301 2.2M201.702 43.99l-7.878-8.399M190.398 41.792l11.304 2.198M199.99 47.089l-7.876-8.398M199.99 47.089l3.425-6.198M201.702 43.99l11.304 2.198M211.292 49.289l-7.877-8.398M199.99 47.089l11.302 2.2M209.581 52.388l-7.879-8.398M209.581 52.388l3.425-6.2M211.292 49.289l11.305 2.198M220.883 54.587l-7.877-8.399M209.581 52.388l11.302 2.199M219.17 57.688l-7.878-8.399M219.17 57.688l3.427-6.201M220.883 54.587l11.303 2.2M230.474 59.887l-7.877-8.4M219.17 57.688l11.304 2.199M228.76 62.986l-7.877-8.399M228.76 62.986l3.426-6.199M230.474 59.887l11.302 2.199M240.063 65.185l-7.877-8.398M228.76 62.986l11.303 2.199M238.351 68.285l-7.877-8.398M238.351 68.285l3.425-6.199M240.063 65.185l11.303 2.2M249.653 70.484l-7.877-8.398M238.351 68.285l11.302 2.199M247.941 73.583l-7.878-8.398M247.941 73.583l3.425-6.198M249.653 70.484l11.304 2.199M259.245 75.783l-7.879-8.398M247.941 73.583l11.304 2.2M257.532 78.882l-7.879-8.398M180.808 36.492l3.425-6.2"/></g><g stroke-width=".5" stroke-miterlimit="10"><path fill="#26A5D4" stroke="#595A5C" d="M154.238 84.995h8.677v17.346h-8.677z"/><path fill="#26A5D4" stroke="#595A5C" d="M162.914 84.995h43.37v17.346h-43.37z"/><path fill="#26A5D4" stroke="#595A5C" d="M154.238 102.341h8.677v2.169h-8.677z"/><path fill="#26A5D4" stroke="#595A5C" d="M162.914 102.341h43.37v2.169h-43.37z"/><path fill="none" stroke="#595A5C" d="M158.576 84.995v17.346"/><g stroke="#1B8BA5"><path fill="#26A5D4" d="M165.081 87.163h39.032v13.01h-39.032z"/><path fill="none" d="M169.419 87.163v13.01M173.755 100.173v-13.01M178.092 100.173v-13.01M182.43 87.163v13.01M186.766 100.173v-13.01M191.104 100.173v-13.01M195.441 100.173v-13.01M199.777 100.173v-13.01"/></g></g><g stroke-width=".5" stroke-miterlimit="10"><path fill="#26A5D4" stroke="#595A5C" d="M147.273 108.932h8.677v17.348h-8.677z"/><path fill="#26A5D4" stroke="#595A5C" d="M155.949 108.932h43.37v17.348h-43.37z"/><path fill="#26A5D4" stroke="#595A5C" d="M147.273 126.277h8.677v2.168h-8.677z"/><path fill="#26A5D4" stroke="#595A5C" d="M155.949 126.277h43.37v2.168h-43.37z"/><path fill="none" stroke="#595A5C" d="M151.611 108.932v17.345"/><g stroke="#1B8BA5"><path fill="#26A5D4" d="M158.117 111.1h39.033v13.012h-39.033z"/><path fill="none" d="M162.454 111.1v13.009M166.791 124.109V111.1M171.128 124.109V111.1M175.465 111.1v13.009M179.802 124.109V111.1M184.139 124.109V111.1M188.476 124.109V111.1M192.813 124.109V111.1"/></g></g><g stroke-width=".5" stroke-miterlimit="10"><path fill="#26A5D4" stroke="#595A5C" d="M103.608 108.92h8.677v17.346h-8.677z"/><path fill="#26A5D4" stroke="#595A5C" d="M112.284 108.92h43.368v17.346h-43.368zM103.608 126.266h8.677v2.168h-8.677z"/><path fill="#26A5D4" stroke="#595A5C" d="M112.284 126.266h43.368v2.168h-43.368z"/><path fill="none" stroke="#595A5C" d="M107.945 108.92v17.346"/><g stroke="#1B8BA5"><path fill="#26A5D4" d="M114.452 111.088h39.031V124.1h-39.031z"/><path fill="none" d="M118.789 111.088V124.1M123.125 124.1v-13.012M127.462 124.1v-13.012M131.799 111.088V124.1M136.135 124.1v-13.012M140.474 124.1v-13.012M144.811 124.1v-13.012M149.148 124.1v-13.012"/></g></g><g stroke-width=".5" stroke-miterlimit="10"><path fill="#26A5D4" stroke="#595A5C" d="M103.607 89.578h8.676v17.345h-8.676zM112.283 89.578h43.368v17.345h-43.368zM103.607 106.923h8.676v2.17h-8.676zM112.283 106.923h43.368v2.17h-43.368z"/><path fill="none" stroke="#595A5C" d="M107.945 89.578v17.345"/><g stroke="#1B8BA5"><path fill="#26A5D4" d="M114.451 91.746h39.032v13.01h-39.032z"/><path fill="none" d="M118.788 91.746v13.01M123.124 104.756v-13.01M127.462 104.756v-13.01M131.799 91.746v13.01M136.135 104.756v-13.01M140.473 104.756v-13.01M144.811 104.756v-13.01M149.147 104.756v-13.01"/></g></g><path fill="none" stroke="#595A5C" stroke-width=".5" stroke-miterlimit="10" d="M181.63 76.776l-27.392 8.219M162.457 84.995l19.173-8.219M181.63 76.776l24.654 8.219M198.064 84.995l-16.434-8.219M181.63 76.776V29.25"/><g stroke="#595A5C" stroke-width=".5" stroke-miterlimit="10"><path fill="#F2F2F2" d="M238.371 68.681h44.454v21.168h-44.454z"/><path fill="#F2F2F2" d="M238.371 68.681h16.934v21.168h-16.934z"/><path fill="none" d="M259.539 68.681h8.469"/><path fill="#F2F2F2" d="M242.604 68.681l2.117-2.118h8.468l-2.118 2.118z"/><path fill="#F2F2F2" d="M253.189 66.563h14.819l2.115 2.118h-19.052zM227.786 75.031l-2.116 4.234h8.466l2.118-4.234z"/><path fill="#D1D2D3" d="M225.67 79.265h8.466v4.233h-8.466z"/><path fill="#F2F2F2" d="M225.67 83.498h8.466v6.351h-8.466zM236.254 75.031h12.702l2.115 4.234v10.584h-16.935V79.265z"/><path fill="#D1D2D3" d="M234.136 79.265h6.352v4.233h-6.352zM255.305 75.031h27.521v4.234h-27.521z"/><path fill="#F2F2F2" d="M229.903 89.849h12.701v2.117h-12.701zM242.604 89.849h33.869v2.117h-33.869z"/><path fill="#F2F2F2" d="M240.487 91.965l2.117 4.234h4.235l-2.118-4.234z"/><path fill="#F2F2F2" d="M244.721 91.965l2.118 4.234h23.284l2.116-4.234zM242.604 96.199h4.234v2.117h-4.234zM246.839 96.199h23.284v2.117h-23.284zM257.422 75.031h2.117v4.234h-2.117zM263.771 75.031h2.117v4.234h-2.117zM272.239 75.031h2.118v4.234h-2.118zM278.591 75.031h2.115v4.234h-2.115z"/><path fill="#F2F2F2" d="M248.956 98.315h4.232v8.468h-4.232zM253.189 98.315h12.699v8.468h-12.699zM238.371 111.018l-10.585 6.349h4.235l10.583-6.349zM227.786 117.367h4.233v2.115h-4.233z"/><path fill="#F2F2F2" d="M242.604 111.018l-10.583 6.349v2.115h52.919v-2.115l-10.583-6.349zM246.839 106.783h4.231v4.232h-4.231zM251.071 106.783h16.938v4.232h-16.938z"/></g><circle fill="#F2F2F2" stroke="#595A5C" stroke-width=".5" stroke-miterlimit="10" cx="182.139" cy="36.597" r="2.739"/><path fill="#F2F2F2" stroke="#595A5C" stroke-width=".500005" stroke-miterlimit="10" d="M185.885 29.814l-3.746 6.782-6.781-3.746 3.747-6.782z"/><circle fill="#F2F2F2" stroke="#595A5C" stroke-width=".5" stroke-miterlimit="10" cx="181.631" cy="76.776" r="1.37"/><g stroke-width=".5" stroke-miterlimit="10"><g stroke="#595A5C"><path fill="#D1D2D3" d="M279.138 138.473l-2.51 5.017h-2.511l2.511-5.017z"/><circle fill="#D1D2D3" cx="309.248" cy="143.49" r="5.019"/><path fill="#D1D2D3" d="M297.956 137.218h13.801v5.019h-13.801z"/><circle fill="#D1D2D3" cx="305.485" cy="143.49" r="5.019"/><circle fill="#F2F2F2" cx="305.484" cy="143.49" r="2.508"/><circle fill="#D1D2D3" cx="305.484" cy="143.49" r="1.254"/><circle fill="#D1D2D3" cx="285.411" cy="143.49" r="5.018"/><circle fill="#D1D2D3" cx="281.647" cy="143.49" r="5.019"/><circle fill="#F2F2F2" cx="281.647" cy="143.49" r="2.509"/><circle fill="#D1D2D3" cx="281.647" cy="143.49" r="1.254"/><path fill="#F2F2F2" d="M316.775 143.49h-5.018l-2.51-6.272h-7.527l-2.509 6.272h-5.019v-25.092h25.091v25.092z"/><path fill="#D1D2D3" d="M318.029 118.398l1.254 10.038h3.766l-1.254-10.038z"/><path fill="#F2F2F2" d="M319.283 128.436h3.766v15.056h-3.766z"/><path fill="#F2F2F2" d="M318.029 139.727h5.021v2.51h-5.021z"/><path fill="#F2F2F2" d="M318.029 139.727h1.255v2.51h-1.255zM319.283 128.436h3.766v1.254h-3.766zM318.029 117.145h3.767v1.256h-3.767zM294.192 117.145h23.837v1.256h-23.837z"/><path fill="#D1D2D3" d="M319.283 128.436h-10.036v-10.038h8.782z"/><path fill="#F2F2F2" d="M295.447 119.652h7.528v3.764h-7.528z"/><path fill="#D1D2D3" d="M284.156 138.473l2.51 5.017h2.509l-2.509-5.017zM287.919 138.473l2.51 5.017h2.509l-2.509-5.017zM244.637 138.473l-2.509 5.017h-2.511l2.511-5.017z"/><circle fill="#D1D2D3" cx="250.909" cy="143.49" r="5.019"/><circle fill="#D1D2D3" cx="247.146" cy="143.49" r="5.018"/><circle fill="#F2F2F2" cx="247.146" cy="143.49" r="2.51"/><circle fill="#D1D2D3" cx="247.146" cy="143.49" r="1.255"/><path fill="#D1D2D3" d="M249.656 138.473l2.508 5.017h2.509l-2.509-5.017zM253.419 138.473l2.509 5.017h2.51l-2.51-5.017zM290.429 137.218h3.764v1.255h-3.764zM238.363 137.218h52.065v1.255h-52.065zM290.429 134.708h3.764v2.51h-3.764z"/><path fill="#F2F2F2" d="M238.363 134.708h52.065v2.51h-52.065zM320.538 129.689h1.257v10.037h-1.257z"/><ellipse fill="#F2F2F2" cx="322.422" cy="132.198" rx=".627" ry="1.255"/><ellipse fill="#F2F2F2" cx="319.911" cy="132.198" rx=".627" ry="1.255"/><path fill="#F2F2F2" d="M315.521 118.398h1.254v10.035h-1.254z"/></g><path fill="#26A5D4" stroke="#595A5C" d="M283.745 114.926h8.674v17.346h-8.674zM240.375 114.926h43.37v17.346h-43.37z"/><path fill="#26A5D4" stroke="#595A5C" d="M283.745 132.271h8.674v2.17h-8.674zM240.375 132.271h43.37v2.17h-43.37z"/><path fill="#26A5D4" stroke="#1B8BA5" d="M242.543 117.094h39.035v13.01h-39.035z"/><path fill="none" stroke="#595A5C" d="M288.083 114.926v17.345"/><path fill="#26A5D4" stroke="#1B8BA5" d="M277.24 117.094v13.01M272.903 130.104v-13.01M268.564 130.104v-13.01M264.229 117.094v13.01M259.892 130.104v-13.01M255.554 130.104v-13.01M251.218 130.104v-13.01M246.88 130.104v-13.01"/></g><g stroke="#595A5C" stroke-width=".5" stroke-miterlimit="10"><path fill="#F2F2F2" d="M78.784 111.37h20.382v16.782H78.784zM204.951 128.445s-1.888 14.726-7.551 17.558H78.938l-1.887-17.558h127.9z"/><path fill="none" d="M204.374 131.717l-126.935-.352"/><path fill="#F2F2F2" d="M77.051 126.559h24.118v1.889H77.051zM195.624 126.559h9.327v1.889h-9.327z"/><path fill="#F2F2F2" d="M77.051 128.445l-4.175 17.558h6.062z"/><circle fill="#F2F2F2" cx="197.275" cy="136.063" r="1.456"/><path fill="#F2F2F2" d="M95.451 101.091h2.045v3.603h-2.045zM80.326 102.893h12.059v1.801H80.326zM99.167 111.37l2.287-6.676h-22.67v6.676z"/><path fill="#F2F2F2" d="M100.784 106.652H90.12v2.38h9.848zM87.579 106.652h1.396v2.38h-1.396zM79.789 106.652h1.396v2.38h-1.396zM78.784 114.54h20.382v2.283H78.784z"/><path fill="#F2F2F2" d="M94.962 114.54h1.088v2.283h-1.088zM81.9 114.54h1.087v2.283H81.9z"/></g><g stroke="#595A5C" stroke-width=".5" stroke-miterlimit="10"><path fill="#D1D2D3" d="M42.798 176.686s0 5.612 5.872 5.612h176.157s5.872.519 5.872-5.612H42.798z"/><path fill="#F2F2F2" d="M213.084 66.588H59.802c-5.872 0-5.872 5.872-5.872 5.872l.612 82.206h164.413V72.46c0-5.872-5.871-5.872-5.871-5.872zm.612 82.435H61.026l-.61-76.333h153.281l-.001 76.333z"/><g fill="#F2F2F2"><path d="M54.542 154.666l-11.744 22.02s0 1.47 5.872 1.47h176.157s5.872 0 5.872-1.47l-11.744-22.02H54.542z"/><path d="M61.026 156.134h152.67v1.468H61.026zM213.696 159.127H61.026l-2.609 10.275h157.888z"/><path d="M96.257 166.467h82.207v2.938H96.257zM215.545 166.467H59.176l.732-2.936h154.906zM214.814 163.531H59.908l.746-2.935 153.311-.27z"/></g><path fill="#F2F2F2" d="M119.133 172.281s0-1.102 4.404-1.102h26.423s4.403 0 4.403 1.102l.653 3.304s0 1.101-4.404 1.101h-27.728s-4.404 0-4.404-1.101l.653-3.304z"/><g fill="none"><path d="M125.618 166.467v-2.936M143.233 163.531v2.936M108.001 166.467v-2.936M160.849 166.467v-2.936"/></g><path fill="none" d="M90.386 163.531v2.936M72.77 163.531v2.936M178.464 163.531v2.936M196.08 163.531v2.936M78.642 163.531v-2.935M96.257 163.531v-2.935M113.874 163.531v-2.935M131.49 163.531v-2.935M149.105 163.531v-2.935M166.721 163.531v-2.935M184.336 163.531v-2.935M201.952 163.531v-2.935M72.77 160.596v-1.469M90.386 160.596v-1.469M108.001 160.596v-1.469M125.618 160.596v-1.469M143.233 160.596v-1.469M160.849 160.596v-1.469M178.464 160.596v-1.469M196.08 160.596v-1.469M72.77 166.467v2.935M84.514 166.467v2.935M190.209 166.467v2.935M201.952 166.467v2.935"/></g><g fill="#FFF"><path d="M171.544 92.498l2.58 1.175 2.599-2.28c.04-.189.054-.373.054-.572a2.911 2.911 0 0 0-2.906-2.908c-.961 0-1.854.473-2.396 1.266l-.433 2.245.502 1.074zM168.875 95.227c-.04.189-.055.383-.055.583a2.918 2.918 0 0 0 5.327 1.639l.43-2.235-.573-1.096-2.589-1.18-2.54 2.289zM168.861 90.765l1.769.419.388-2.006a1.396 1.396 0 0 0-2.157 1.587M168.707 91.189a1.965 1.965 0 0 0-1.339 1.847c0 .812.503 1.533 1.254 1.822l2.479-2.241-.453-.971-1.941-.457zM174.596 97.447c.245.184.538.289.842.289a1.395 1.395 0 0 0 1.31-1.878l-1.763-.412-.389 2.001zM174.955 94.982l1.941.453a1.96 1.96 0 0 0 1.339-1.852c0-.807-.502-1.534-1.254-1.817l-2.539 2.225.513.991zM183.384 95.685l.234-.025.015.478c-.617.084-1.146.129-1.583.129-.582 0-.996-.169-1.24-.507-.244-.339-.364-.867-.364-1.579 0-1.424.569-2.136 1.699-2.136.548 0 .956.154 1.226.458.269.304.402.786.402 1.438l-.035.463h-2.679c0 .449.08.782.244.997.165.213.442.322.847.322.407.011.816-.003 1.234-.038zm-.219-1.758c0-.498-.08-.851-.239-1.056-.159-.204-.418-.309-.776-.309s-.633.11-.813.324c-.179.214-.273.563-.278 1.041h2.106zM184.619 96.192v-5.825h.606v5.825h-.606zM189.064 93.359v1.997c0 .204.503.244.503.244l-.028.538c-.43 0-.782.035-.996-.169a3.575 3.575 0 0 1-1.459.304c-.373 0-.657-.104-.853-.319-.193-.209-.293-.513-.293-.911 0-.393.1-.687.299-.871.199-.185.514-.304.94-.344l1.274-.119v-.35c0-.274-.061-.473-.18-.591a.66.66 0 0 0-.487-.18h-1.599v-.538h1.559c.458 0 .792.104 1.001.319.215.209.319.543.319.99zm-2.5 1.654c0 .498.205.747.618.747.368 0 .731-.06 1.086-.185l.185-.064v-1.339l-1.199.115c-.245.02-.419.089-.528.209-.11.12-.162.293-.162.517zM191.439 92.593c-.588 0-.887.204-.887.617 0 .189.07.324.204.403.135.079.444.16.927.244.483.084.821.199 1.021.354.197.149.298.432.298.851 0 .418-.135.722-.403.916s-.657.293-1.175.293c-.333 0-1.454-.125-1.454-.125l.035-.527c.642.059 1.11.109 1.424.109.314 0 .553-.05.717-.149.165-.1.249-.269.249-.503 0-.234-.068-.393-.209-.478-.14-.084-.448-.164-.926-.239-.479-.075-.817-.184-1.017-.334-.199-.144-.3-.418-.3-.811s.142-.688.418-.876c.279-.189.629-.284 1.042-.284.328 0 1.474.085 1.474.085v.533c-.602-.035-1.094-.079-1.438-.079zM195.94 92.662h-1.289v1.942c0 .462.033.771.101.917.068.144.229.219.481.219l.723-.05.04.502c-.364.06-.638.09-.826.09-.424 0-.712-.105-.876-.309-.165-.205-.245-.598-.245-1.175v-2.136h-.577v-.527h.577v-1.244h.604v1.239h1.289l-.002.532zM196.786 91.213v-.701h.607v.706l-.607-.005zm0 4.979v-4.057h.607v4.057h-.607zM200.032 92.05c.18 0 .482.036.911.1l.194.025-.026.493a9.259 9.259 0 0 0-.954-.075c-.458 0-.771.109-.937.328-.164.22-.249.628-.249 1.22 0 .593.074 1.006.229 1.241.153.233.473.348.962.348l.955-.075.024.503c-.504.075-.882.115-1.13.115-.633 0-1.07-.165-1.311-.488-.238-.324-.363-.872-.363-1.644 0-.771.13-1.313.389-1.623.267-.309.7-.468 1.306-.468z"/></g><path fill="#FFF" d="M129.101 101.599l-.47-.271 5.217-9.042.47.27z"/><path fill="#FFF" d="M128.521 100.601h10.438v.54h-10.438z"/><path fill="#FFF" d="M133.952 103.918l-5.22-3.014.27-.469 5.22 3.014zM138.48 96.055l-5.22-3.014.271-.468 5.22 3.014z"/><path fill="#FFF" d="M129.002 96.061l-.27-.468 5.222-3.013.27.468z"/><path fill="#FFF" d="M138.384 101.594l-5.219-9.039.469-.27 5.218 9.038zM128.935 95.233h.541v6.029h-.541z"/><path fill="#FFF" d="M138.007 95.233h.541v6.029h-.541z"/><path fill="#FFF" d="M133.861 103.68l-.235-.411 4.548-2.61.235.41z"/><path fill="#FFF" d="M139.265 101.438a1.139 1.139 0 1 1-1.972-1.139 1.139 1.139 0 0 1 1.972 1.139M130.186 96.194a1.14 1.14 0 0 1-1.555.417 1.138 1.138 0 1 1 1.555-.417M128.217 101.438a1.139 1.139 0 0 1 1.972-1.137 1.14 1.14 0 0 1-1.972 1.137M137.296 96.194a1.14 1.14 0 0 1 .417-1.554 1.142 1.142 0 0 1 1.555.417 1.14 1.14 0 0 1-1.972 1.137M133.741 104.628a1.137 1.137 0 1 1 0-2.275 1.137 1.137 0 1 1 0 2.275M133.741 94.141a1.137 1.137 0 1 1 0-2.275 1.138 1.138 0 1 1 0 2.275"/><g fill="#FFF"><path d="M174.161 117.721c0-1.211-.347-1.832-1.035-1.867a1.958 1.958 0 0 0-.805.133c-.208.076-.349.148-.422.224v2.89c.442.277.833.405 1.177.387.723-.052 1.085-.638 1.085-1.767zm.852.05c0 .614-.145 1.125-.435 1.53-.323.46-.771.696-1.345.71-.433.014-.876-.123-1.334-.406v2.625l-.74-.263v-5.829c.121-.147.276-.277.467-.386.44-.257.977-.389 1.606-.396l.01.011c.576-.009 1.021.229 1.333.709.292.442.438 1.005.438 1.695zM179.539 119.494c0 .824-.083 1.396-.248 1.714-.166.317-.482.569-.949.76a3.666 3.666 0 0 1-1.228.243l-.121-.467c.445-.061.761-.121.943-.184.359-.119.604-.308.739-.557.109-.204.163-.591.163-1.166v-.193a3.825 3.825 0 0 1-1.592.346 1.46 1.46 0 0 1-.964-.346 1.165 1.165 0 0 1-.467-.951v-3.082l.74-.254v3.103c0 .332.106.587.321.767.214.178.491.265.831.258.34-.008.703-.139 1.09-.396v-3.618h.74v4.023h.002zM182.43 119.97c-.09.009-.17.011-.245.011-.418 0-.745-.1-.979-.299-.232-.201-.35-.478-.35-.83v-2.916h-.508v-.466h.508v-1.237l.74-.264v1.501h.832v.466h-.832v2.896c0 .275.074.475.224.59.129.096.332.148.608.162l.002.386zM186.913 119.909h-.74v-2.859c0-.289-.069-.54-.203-.749a.744.744 0 0 0-.653-.355c-.339 0-.764.181-1.271.537v3.428h-.741v-6.833l.741-.232v3.111c.473-.345.99-.517 1.551-.517.392 0 .71.133.952.396.245.263.366.591.366.983l-.002 3.09zM190.85 117.604c0-.467-.089-.85-.266-1.153-.208-.37-.533-.565-.974-.585-.812.046-1.217.628-1.217 1.742 0 .513.085.938.254 1.281.219.438.544.652.979.646.815-.008 1.224-.65 1.224-1.931zm.81.003c0 .662-.17 1.215-.509 1.652-.372.492-.885.74-1.541.74-.648 0-1.155-.248-1.521-.74-.331-.438-.496-.99-.496-1.652 0-.621.179-1.146.536-1.572.38-.451.876-.678 1.492-.678.613 0 1.113.227 1.501.678.358.428.538.951.538 1.572zM195.904 119.909h-.739v-3.021c0-.332-.1-.591-.299-.775-.198-.188-.465-.276-.796-.27-.353.006-.688.12-1.004.346v3.72h-.74v-3.813c.426-.31.816-.513 1.176-.606.339-.089.637-.132.894-.132.176 0 .341.018.496.051.291.066.528.191.71.375a.993.993 0 0 1 .304.73l-.002 3.395zM163.845 113.104c-.38.002-.745.035-1.065.092-.941.166-1.113.515-1.113 1.158v.85h2.229v.283h-3.065c-.647 0-1.215.389-1.394 1.13-.205.849-.214 1.379 0 2.265.159.66.537 1.131 1.186 1.131h.766v-1.02c0-.735.637-1.385 1.393-1.385h2.228c.62 0 1.114-.51 1.114-1.133v-2.121c0-.604-.512-1.059-1.114-1.158a7.182 7.182 0 0 0-1.165-.092zm-1.205.684c.23 0 .419.19.419.425a.421.421 0 0 1-.419.424.42.42 0 0 1-.418-.424c0-.234.187-.425.418-.425z"/><path d="M166.399 115.486v.988c0 .768-.649 1.414-1.393 1.414h-2.228c-.609 0-1.113.521-1.113 1.133v2.121c0 .604.524.961 1.113 1.133a3.73 3.73 0 0 0 2.228 0c.561-.161 1.114-.489 1.114-1.133v-.85h-2.228v-.282h3.341c.647 0 .89-.452 1.114-1.131.232-.698.223-1.369 0-2.265-.16-.646-.466-1.131-1.114-1.131h-.835v.003zm-1.252 5.373c.23 0 .418.189.418.424s-.188.428-.418.428a.425.425 0 0 1-.419-.428c0-.233.189-.424.419-.424z"/></g><g fill="#FFF"><path d="M122.944 115.122h1.471v1.489h.744c.343 0 .695-.061 1.021-.17.16-.053.339-.129.497-.223-.208-.269-.313-.607-.344-.941-.043-.454.05-1.047.359-1.402l.155-.177.183.146c.465.369.854.885.924 1.475.558-.163 1.213-.125 1.706.156l.2.115-.105.205c-.416.807-1.286 1.057-2.137 1.012-1.272 3.144-4.043 4.631-7.403 4.631-1.735 0-3.327-.644-4.233-2.17l-.016-.024-.131-.267a4.173 4.173 0 0 1-.339-2.146l.021-.22h1.257v-1.49h1.471v-1.458h2.938v-1.458h1.764v2.917h-.003z"/><path d="M127.707 115.674c.099-.761-.475-1.355-.83-1.64-.41.469-.474 1.7.169 2.219-.358.315-1.115.603-1.888.603h-9.422c-.073.802.067 1.537.392 2.172l.106.192c.067.114.143.226.223.331.388.024.745.032 1.07.025.644-.014 1.167-.09 1.564-.227a.113.113 0 1 1 .074.213c-.054.019-.107.033-.164.052a4.965 4.965 0 0 1-1.081.174c.024.001-.027.005-.027.005l-.047.003a11.662 11.662 0 0 1-1.176-.003l-.006.003c.785.875 2.012 1.399 3.55 1.399 3.256 0 6.018-1.432 7.241-4.646.867.089 1.7-.13 2.081-.864-.605-.345-1.382-.234-1.829-.011z"/><path d="M127.707 115.674c.099-.761-.475-1.355-.83-1.64-.41.469-.474 1.7.169 2.219-.358.315-1.115.603-1.888.603h-8.862c-.039 1.228.42 2.158 1.231 2.722.644-.015 1.167-.089 1.564-.228a.114.114 0 0 1 .143.071.112.112 0 0 1-.069.142c-.054.02-.107.035-.164.053a5.286 5.286 0 0 1-1.109.182l-.011-.01c1.107.563 2.714.563 4.557-.139 2.065-.789 3.987-2.287 5.328-4.002-.02.008-.04.016-.059.027z"/><path d="M115.756 117.829c.057.429.184.83.372 1.196l.106.193c.067.114.143.225.223.331.388.024.745.032 1.07.025.644-.015 1.167-.089 1.564-.228a.114.114 0 0 1 .143.071.112.112 0 0 1-.069.142c-.054.02-.107.034-.164.053a5.214 5.214 0 0 1-1.108.179l-.055.001a10.25 10.25 0 0 1-1.183 0c.785.875 2.021 1.4 3.559 1.4 2.788 0 5.212-1.049 6.62-3.365l-11.078.002z"/><path d="M116.379 117.829c.167.753.567 1.344 1.147 1.747.644-.014 1.167-.09 1.564-.227a.113.113 0 1 1 .074.213c-.054.019-.107.033-.164.052a5.372 5.372 0 0 1-1.116.179c1.108.563 2.71.555 4.553-.146a12.137 12.137 0 0 0 3.148-1.817h-9.206zM118.083 115.471h.101v1.053h-.101v-1.053zm-.193 0h.104v1.053h-.104v-1.053zm-.193 0h.104v1.053h-.104v-1.053zm-.193 0h.104v1.053h-.104v-1.053zm-.193 0h.105v1.053h-.105v-1.053zm-.188 0h.1v1.053h-.1v-1.053zm-.106-.106h1.273v1.263h-1.273v-1.263zM119.553 114.014h.101v1.053h-.101v-1.053zm-.193 0h.104v1.053h-.104v-1.053zm-.193 0h.104v1.053h-.104v-1.053zm-.193 0h.105v1.053h-.105v-1.053zm-.193 0h.105v1.053h-.105v-1.053zm-.188 0h.1v1.053h-.1v-1.053zm-.108-.107h1.274v1.264h-1.274v-1.264zM119.553 115.471h.101v1.053h-.101v-1.053zm-.193 0h.104v1.053h-.104v-1.053zm-.193 0h.104v1.053h-.104v-1.053zm-.193 0h.105v1.053h-.105v-1.053zm-.193 0h.105v1.053h-.105v-1.053zm-.188 0h.1v1.053h-.1v-1.053zm-.108-.106h1.274v1.263h-1.274v-1.263zM121.023 115.471h.102v1.053h-.102v-1.053zm-.193 0h.104v1.053h-.104v-1.053zm-.193 0h.104v1.053h-.104v-1.053zm-.192 0h.104v1.053h-.104v-1.053zm-.194 0h.104v1.053h-.104v-1.053zm-.189 0h.102v1.053h-.102v-1.053zm-.106-.106h1.274v1.263h-1.274v-1.263zM121.023 114.014h.102v1.053h-.102v-1.053zm-.193 0h.104v1.053h-.104v-1.053zm-.193 0h.104v1.053h-.104v-1.053zm-.192 0h.104v1.053h-.104v-1.053zm-.194 0h.104v1.053h-.104v-1.053zm-.189 0h.102v1.053h-.102v-1.053zm-.106-.107h1.274v1.264h-1.274v-1.264zM122.493 115.471h.101v1.053h-.101v-1.053zm-.193 0h.104v1.053h-.104v-1.053zm-.194 0h.105v1.053h-.105v-1.053zm-.192 0h.104v1.053h-.104v-1.053zm-.193 0h.104v1.053h-.104v-1.053zm-.189 0h.101v1.053h-.101v-1.053zm-.106-.106h1.274v1.263h-1.274v-1.263zM122.493 114.014h.101v1.053h-.101v-1.053zm-.193 0h.104v1.053h-.104v-1.053zm-.194 0h.105v1.053h-.105v-1.053zm-.192 0h.104v1.053h-.104v-1.053zm-.193 0h.104v1.053h-.104v-1.053zm-.189 0h.101v1.053h-.101v-1.053zm-.106-.107h1.274v1.264h-1.274v-1.264zM122.493 112.555h.101v1.053h-.101v-1.053zm-.193 0h.104v1.053h-.104v-1.053zm-.194 0h.105v1.053h-.105v-1.053zm-.192 0h.104v1.053h-.104v-1.053zm-.193 0h.104v1.053h-.104v-1.053zm-.189 0h.101v1.053h-.101v-1.053zm-.106-.106h1.274v1.264h-1.274v-1.264zM123.962 115.471h.101v1.053h-.101v-1.053zm-.192 0h.104v1.053h-.104v-1.053zm-.193 0h.104v1.053h-.104v-1.053zm-.193 0h.104v1.053h-.104v-1.053zm-.194 0h.105v1.053h-.105v-1.053zm-.188 0h.101v1.053h-.101v-1.053zm-.106-.106h1.274v1.263h-1.274v-1.263z"/><path d="M119.68 118.677c.194 0 .353.155.353.351 0 .19-.158.348-.353.348a.35.35 0 1 1 0-.699"/><path d="M119.68 118.775c.033 0 .063.007.091.018a.105.105 0 0 0-.052.088c0 .057.046.104.103.104a.102.102 0 0 0 .091-.055.25.25 0 0 1-.232.346.25.25 0 1 1-.001-.501M120.614 121.188c-.87-.408-1.348-.965-1.612-1.572-.324.092-.712.15-1.164.175-.17.01-.35.015-.537.015-.216 0-.444-.007-.684-.019.798.79 1.779 1.399 3.598 1.41.134-.002.266-.004.399-.009z"/><path d="M119.323 120.175a3.01 3.01 0 0 1-.321-.561 5.464 5.464 0 0 1-1.164.175c.309.167.752.32 1.485.386zM146.991 118.626c.502-.428 1.005-.854 1.507-1.285.172-.146.358-.298.529-.452-.138-.171-.364-.294-.559-.367-.391-.147-.776-.099-1.135.106-.469.269-.669.697-.652 1.229a1.18 1.18 0 0 0 .31.769m.581.405c.246.085.528.072.781.029.129-.056.46-.199.582-.179l.021.005.018.008a.394.394 0 0 1 .185.162c.088.176.045.354-.129.451l-.058.033c-.643.368-1.327.316-1.967-.025a1.8 1.8 0 0 1-.714-.705l-.041-.068c-.412-.709-.357-1.456.108-2.131.161-.23.371-.411.616-.553l.093-.053c.606-.348 1.255-.324 1.876-.02.334.164.605.406.792.728l.033.058c.136.233-.04.438-.221.576-.211.16-.423.354-.625.526l-1.35 1.158zm4.817-3.222h.067c.203 0 .339.135.339.336 0 .277-.269.35-.5.35-.305 0-.595.183-.805.388-.263.257-.377.583-.377.942v1.627c0 .188-.116.337-.313.337h-.053c-.195 0-.313-.149-.313-.337v-1.721c0-.66.324-1.198.865-1.578a1.88 1.88 0 0 1 1.09-.344zm-8.446 1.153c.264-.263.528-.522.795-.778.074-.072.356-.375.468-.375h.122l.013.002c.155.031.271.129.271.293v.067c0 .111-.133.242-.206.318-.156.163-.319.321-.479.481l-.819.824c.354.352.705.701 1.056 1.055l.289.295c.032.035.083.08.11.127.03.047.049.098.049.152v.069l-.005.015c-.038.154-.135.278-.307.278h-.054c-.112 0-.238-.126-.315-.198-.157-.146-.311-.304-.466-.455l-.521-.506v.811c0 .187-.117.336-.312.336h-.053c-.194 0-.313-.149-.313-.336v-4.563c0-.188.118-.336.313-.336h.053c.194 0 .312.148.312.336l-.001 2.088zm-2.198-.455c-.103-.048-.294-.063-.405-.067-.566-.021-.976.295-1.215.791a1.22 1.22 0 0 0-.121.541c0 .574.305.979.822 1.224.189.09.434.106.641.106.182 0 .438-.109.6-.187l.029-.013h.139c.154.033.271.131.271.295v.066c0 .408-.754.502-1.042.521-1.016.07-1.775-.482-2.064-1.443a1.734 1.734 0 0 1-.072-.506v-.134c0-.729.364-1.306.994-1.677.294-.174.617-.26.958-.26h.135c.36 0 .693.102.992.305l.024.016.015.025a.355.355 0 0 1 .061.178v.066c0 .172-.129.264-.286.293l-.013.002h-.04c-.103.003-.332-.1-.423-.142zm-6.179 1.276c0 .511.253.887.688 1.15.204.125.428.182.668.182.508 0 .884-.256 1.146-.682.125-.205.183-.429.183-.664 0-.476-.231-.838-.625-1.101a1.259 1.259 0 0 0-.717-.218c-.567 0-.977.283-1.223.79a1.25 1.25 0 0 0-.12.543zm1.275-2.003h.094c.786 0 1.382.378 1.761 1.058.151.271.232.568.232.88v.134c0 .729-.362 1.309-.995 1.678-.293.17-.618.259-.958.259h-.134c-.735 0-1.318-.36-1.691-.987a1.835 1.835 0 0 1-.261-.949v-.133c0-.729.365-1.307.995-1.679.292-.174.617-.261.957-.261zm-5.713 2.003c0 .527.257.922.723 1.175.188.103.393.157.606.157.521 0 .908-.244 1.174-.682a1.26 1.26 0 0 0 .181-.664c0-.455-.217-.813-.589-1.076a1.27 1.27 0 0 0-.753-.241c-.568 0-.977.284-1.222.79-.082.171-.12.352-.12.541zm2.685-1.501v-1.421c0-.186.117-.336.313-.336h.054c.194 0 .312.15.312.336v2.988c0 .729-.363 1.309-.995 1.678-.293.172-.617.26-.957.26h-.135c-.733 0-1.317-.36-1.69-.987a1.832 1.832 0 0 1-.262-.948v-.134c0-.729.363-1.309.995-1.679.294-.171.617-.259.957-.259h.135c.495 0 .917.191 1.273.502z"/></g></svg>