<svg xmlns="http://www.w3.org/2000/svg" xmlns:xlink="http://www.w3.org/1999/xlink" width="360" height="210" viewBox="0 0 360 210"><pattern x="-117.5" y="525.5" width="144.388" height="144.775" patternUnits="userSpaceOnUse" id="a" viewBox="0 -144.776 144.388 144.775" overflow="visible"><g fill="none"><path d="M0-.001h144.388v-144.774H0z"/><path d="M0-144.775h144.388V-.001H0z"/><path stroke="#595A5C" stroke-width=".548" stroke-miterlimit="10" d="M.194-6.388l6 6 6-6 6 6 6-6 6 6 6-6 6 6 6-6 6 6 6-6 6 6 6-6 6 6 6-6 6 6 6-6 6 6 6-6 6 6 6-6 6 6 6-6 6 6 6-6M.194-12.388l6 6 6-6 6 6 6-6 6 6 6-6 6 6 6-6 6 6 6-6 6 6 6-6 6 6 6-6 6 6 6-6 6 6 6-6 6 6 6-6 6 6 6-6 6 6 6-6M.194-18.388l6 6 6-6 6 6 6-6 6 6 6-6 6 6 6-6 6 6 6-6 6 6 6-6 6 6 6-6 6 6 6-6 6 6 6-6 6 6 6-6 6 6 6-6 6 6 6-6M.194-24.388l6 6 6-6 6 6 6-6 6 6 6-6 6 6 6-6 6 6 6-6 6 6 6-6 6 6 6-6 6 6 6-6 6 6 6-6 6 6 6-6 6 6 6-6 6 6 6-6M.194-30.388l6 6 6-6 6 6 6-6 6 6 6-6 6 6 6-6 6 6 6-6 6 6 6-6 6 6 6-6 6 6 6-6 6 6 6-6 6 6 6-6 6 6 6-6 6 6 6-6"/><path stroke="#595A5C" stroke-width=".548" stroke-miterlimit="10" d="M.194-36.388l6 6 6-6 6 6 6-6 6 6 6-6 6 6 6-6 6 6 6-6 6 6 6-6 6 6 6-6 6 6 6-6 6 6 6-6 6 6 6-6 6 6 6-6 6 6 6-6M.194-42.388l6 6 6-6 6 6 6-6 6 6 6-6 6 6 6-6 6 6 6-6 6 6 6-6 6 6 6-6 6 6 6-6 6 6 6-6 6 6 6-6 6 6 6-6 6 6 6-6M.194-48.388l6 6 6-6 6 6 6-6 6 6 6-6 6 6 6-6 6 6 6-6 6 6 6-6 6 6 6-6 6 6 6-6 6 6 6-6 6 6 6-6 6 6 6-6 6 6 6-6M.194-54.388l6 6 6-6 6 6 6-6 6 6 6-6 6 6 6-6 6 6 6-6 6 6 6-6 6 6 6-6 6 6 6-6 6 6 6-6 6 6 6-6 6 6 6-6 6 6 6-6M.194-60.388l6 6 6-6 6 6 6-6 6 6 6-6 6 6 6-6 6 6 6-6 6 6 6-6 6 6 6-6 6 6 6-6 6 6 6-6 6 6 6-6 6 6 6-6 6 6 6-6M.194-66.388l6 6 6-6 6 6 6-6 6 6 6-6 6 6 6-6 6 6 6-6 6 6 6-6 6 6 6-6 6 6 6-6 6 6 6-6 6 6 6-6 6 6 6-6 6 6 6-6M.194-72.388l6 6 6-6 6 6 6-6 6 6 6-6 6 6 6-6 6 6 6-6 6 6 6-6 6 6 6-6 6 6 6-6 6 6 6-6 6 6 6-6 6 6 6-6 6 6 6-6M.194-78.388l6 6 6-6 6 6 6-6 6 6 6-6 6 6 6-6 6 6 6-6 6 6 6-6 6 6 6-6 6 6 6-6 6 6 6-6 6 6 6-6 6 6 6-6 6 6 6-6M.194-84.388l6 6 6-6 6 6 6-6 6 6 6-6 6 6 6-6 6 6 6-6 6 6 6-6 6 6 6-6 6 6 6-6 6 6 6-6 6 6 6-6 6 6 6-6 6 6 6-6M.194-90.388l6 6 6-6 6 6 6-6 6 6 6-6 6 6 6-6 6 6 6-6 6 6 6-6 6 6 6-6 6 6 6-6 6 6 6-6 6 6 6-6 6 6 6-6 6 6 6-6M.194-96.388l6 6 6-6 6 6 6-6 6 6 6-6 6 6 6-6 6 6 6-6 6 6 6-6 6 6 6-6 6 6 6-6 6 6 6-6 6 6 6-6 6 6 6-6 6 6 6-6M.194-102.388l6 6 6-6 6 6 6-6 6 6 6-6 6 6 6-6 6 6 6-6 6 6 6-6 6 6 6-6 6 6 6-6 6 6 6-6 6 6 6-6 6 6 6-6 6 6 6-6M.194-108.388l6 6 6-6 6 6 6-6 6 6 6-6 6 6 6-6 6 6 6-6 6 6 6-6 6 6 6-6 6 6 6-6 6 6 6-6 6 6 6-6 6 6 6-6 6 6 6-6M.194-114.388l6 6 6-6 6 6 6-6 6 6 6-6 6 6 6-6 6 6 6-6 6 6 6-6 6 6 6-6 6 6 6-6 6 6 6-6 6 6 6-6 6 6 6-6 6 6 6-6M.194-120.388l6 6 6-6 6 6 6-6 6 6 6-6 6 6 6-6 6 6 6-6 6 6 6-6 6 6 6-6 6 6 6-6 6 6 6-6 6 6 6-6 6 6 6-6 6 6 6-6M.194-126.388l6 6 6-6 6 6 6-6 6 6 6-6 6 6 6-6 6 6 6-6 6 6 6-6 6 6 6-6 6 6 6-6 6 6 6-6 6 6 6-6 6 6 6-6 6 6 6-6M.194-132.388l6 6 6-6 6 6 6-6 6 6 6-6 6 6 6-6 6 6 6-6 6 6 6-6 6 6 6-6 6 6 6-6 6 6 6-6 6 6 6-6 6 6 6-6 6 6 6-6M.194-138.388l6 6 6-6 6 6 6-6 6 6 6-6 6 6 6-6 6 6 6-6 6 6 6-6 6 6 6-6 6 6 6-6 6 6 6-6 6 6 6-6 6 6 6-6 6 6 6-6M.194-144.388l6 6 6-6 6 6 6-6 6 6 6-6 6 6 6-6 6 6 6-6 6 6 6-6 6 6 6-6 6 6 6-6 6 6 6-6 6 6 6-6 6 6 6-6 6 6 6-6"/></g></pattern><g stroke="#595A5C" stroke-width=".5" stroke-miterlimit="10"><path fill="#D1D2D3" d="M316.295 169.497l-41.792-6.609 9.913-62.685 41.793 6.609z" stroke-width=".499985"/><path fill="#F2F2F2" d="M284.432 100.176l2.614.414-9.927 62.688-2.614-.414z" stroke-width=".500005"/><path fill="#F2F2F2" d="M314.25 131.677l-23.507-3.715 2.476-15.67 23.508 3.716z" stroke-width=".49998"/><path fill="none" d="M295.007 117.926l18.283 2.89M294.181 123.15l18.285 2.89"/><path fill="#26A5D4" d="M303.246 167.419l-1.239 7.836 3.025-2.196 2.198 3.024 1.239-7.837z"/></g><g fill="#F2F2F2" stroke="#595A5C" stroke-width=".5" stroke-miterlimit="10"><path d="M275.058 123.652h1.154v41.541h-1.154zM277.365 116.729l-1.153 3.46h2.309zM276.212 120.189l-1.154 3.463h4.616l-1.153-3.463zM276.212 123.652h2.309v41.541h-2.309zM278.521 123.652h1.153v41.541h-1.153zM275.058 165.193h4.616v1.154h-4.616zM275.058 166.348h4.616v2.31h-4.616z"/><path d="M275.058 168.656v2.308s0 1.153 1.154 1.153h2.309s1.153 0 1.153-1.153v-2.308h-4.616z"/></g><g fill="#F2F2F2" stroke="#595A5C" stroke-width=".5" stroke-miterlimit="10"><path d="M270.764 130.345l-4.594-.437 1.422-14.936 4.594.438z"/><path d="M270.638 131.496l-4.596-.441.11-1.148 4.596.441z" stroke-width=".49999"/><path d="M267.458 164.808l-4.594-.44 3.193-33.312 4.594.44z" stroke-width=".49998"/><path d="M267.589 114.973s.22-2.296 2.518-2.076c2.298.222 2.076 2.519 2.076 2.519l-4.594-.443z"/><path d="M268.737 115.085l-1.759 18.378s-.11 1.148 1.038 1.26c1.148.109 1.26-1.039 1.26-1.039l1.76-18.381-2.299-.218z"/><path d="M267.346 165.959l-4.596-.442.11-1.15 4.596.441z" stroke-width=".49999"/><path d="M262.75 165.518s-.109 1.146 1.04 1.258l2.297.221s1.148.107 1.259-1.037l-4.596-.442z"/></g><g stroke-width=".5" stroke-miterlimit="10"><circle fill="#F2F2F2" stroke="#595A5C" cx="282.947" cy="64.315" r="23.497"/><path fill="#F2F2F2" stroke="#595A5C" d="M285.456 69.51l14.769 14.768s1.343 1.342 2.686 0c0 0 1.343-1.343 0-2.685l-14.768-14.769-2.687 2.686z"/><circle fill="#F2F2F2" stroke="#595A5C" cx="282.947" cy="64.315" r="14.685"/><circle fill="#595A5C" stroke="#595A5C" cx="282.946" cy="64.315" r="11.748"/><g fill="#595A5C" stroke="#F2F2F2"><circle cx="280.01" cy="64.315" r="2.937"/><circle cx="278.542" cy="59.91" r="1.468"/><circle cx="275.605" cy="68.721" r="1.468"/></g></g><pattern id="b" xlink:href="#a" patternTransform="scale(.207 -.207) rotate(55.55 -43787.7 -59054.557)"/><path fill="url(#b)" stroke="#595A5C" stroke-width=".5" stroke-miterlimit="10" d="M52.743 107.667s-1.536-1.054-.482-2.59l18.974-27.655s1.055-1.536 2.591-.482l15.362 10.54s1.536 1.054.482 2.59l-18.974 27.655s-1.054 1.536-2.59.481l-15.363-10.539z"/><path fill="#F2F2F2" stroke="#595A5C" stroke-width=".5" stroke-miterlimit="10" d="M58.845 103.264s-1.318-1.318-.001-2.636l23.715-23.713s1.317-1.319 2.635 0L98.37 90.089s1.317 1.317 0 2.635l-23.715 23.713s-1.316 1.317-2.635 0l-13.175-13.173z"/><path fill="#595A5C" stroke="#595A5C" stroke-width=".499995" stroke-miterlimit="10" d="M90.464 82.185l-26.35 26.35-2.634-2.636L87.83 79.551z"/><g fill="#595A5C" stroke="#595A5C" stroke-width=".5" stroke-miterlimit="10"><path d="M73.767 105.897l-3.513 3.513-.88-.879 3.514-3.513z" stroke-width=".50003"/><path d="M79.046 100.628l-4.392 4.392-.878-.878 4.391-4.392zM78.167 105.02l-6.148 6.149-.878-.878 6.149-6.148z" stroke-width=".499995"/></g><path fill="#D1D2D3" stroke="#595A5C" stroke-width=".5" stroke-miterlimit="10" d="M103.569 83.243l-5.222-73.099s0-5.221 5.222-5.221h146.199s5.221 0 5.221 5.221l-5.221 73.099H103.569z"/><path fill="#FFF" stroke="#595A5C" stroke-width=".5" stroke-miterlimit="10" d="M104.114 10.349l5.221 67.878h135.756l5.221-67.878z"/><g stroke="#595A5C" stroke-width=".5" stroke-miterlimit="10"><path fill="#D1D2D3" d="M103.569 83.243v78.319s0 5.224 5.222 5.224h135.755s5.223 0 5.223-5.224V83.243h-146.2z"/><path fill="#F2F2F2" d="M109.335 88.465H245.09v5.221H109.335zM109.335 99.112H245.09v36.55H109.335z"/><path fill="#F2F2F2" d="M140.664 125.22h73.099v10.442h-73.099zM109.335 114.775H245.09v10.443H109.335zM109.335 104.333H245.09v10.442H109.335zM161.004 145.9s0-3.918 3.916-3.918h23.497s3.916 0 3.916 3.918v11.748s0 3.914-3.916 3.914H164.92s-3.916 0-3.916-3.914V145.9z"/><g fill="none"><path d="M166.771 125.22v-10.445M182.434 114.775v10.445M151.106 125.22v-10.445M198.098 125.22v-10.445"/></g><path fill="none" d="M135.442 114.775v10.445M119.778 114.775v10.445M213.763 114.775v10.445M229.427 114.775v10.445M124.999 114.775v-10.442M140.664 114.775v-10.442M156.328 114.775v-10.442M171.991 114.775v-10.442M187.655 114.775v-10.442M203.32 114.775v-10.442M218.984 114.775v-10.442M234.648 114.775v-10.442M119.778 104.333v-5.221M135.442 104.333v-5.221M151.106 104.333v-5.221M166.771 104.333v-5.221M182.434 104.333v-5.221M198.098 104.333v-5.221M213.763 104.333v-5.221M229.427 104.333v-5.221M119.778 125.22v10.442M130.221 125.22v10.442M224.205 125.22v10.442M234.648 125.22v10.442"/></g><g stroke="#595A5C" stroke-width=".5" stroke-miterlimit="10"><path fill="#F2F2F2" d="M155.167 158.613l.014-2.981-6.951-1.861-11.025 2.652 3.382-11.553 8.073-20.004 7.123-15.514-2.728-2.202-10.548 15.234-10.056 18.45-.611-.302 7.059-13.775-6.378-.859-7.373 11.161 5.18-10.318-5.686-1.35-4.142 5.661 2.86-5.236-4.787-.989-4.533 6.874-.001.001-1.935 2.932-11.939 21.116.907 10.109-19.046 32.459 22.088 8.286 14.05-29.916 13.266-9.125z"/><g fill="#26A5D4"><path d="M112.19 190.959L91.6 178.186l5.083-8.194 20.591 12.772z"/><path d="M112.2 190.953l-3.318-2.059 5.085-8.194 3.318 2.059z" stroke-width=".50001"/></g><path fill="#26A5D4" d="M96.5 183.611l-.682-2.591 4.777-8.187 2.593-.681 8.187 4.778.682 2.591-4.777 8.187-2.592.681z"/><path fill="#595A5C" d="M107.126 176.646l-4.776 8.187-3.274-1.91 4.776-8.187z" stroke-width=".500015"/><circle fill="#26A5D4" cx="105.301" cy="185.456" r=".949"/><circle fill="#26A5D4" cx="107.212" cy="182.182" r=".948"/><circle fill="#26A5D4" cx="109.123" cy="178.907" r=".948"/><path fill="#F2F2F2" d="M149.49 160.753l-.639-4.923 6.326.697-.01 2.086zM150.631 110.71l2.67 1.078 1.354-3.356-1.568-1.268z"/></g><g fill="#F2F2F2" stroke="#595A5C" stroke-width=".5" stroke-miterlimit="10"><path d="M200.602 153.307l1.077-3.953 4.797 1.16 6.222 4.519-2.061-7.038-8.072-19.425-7.124-15.513 3.308-1.041 9.968 14.071 10.057 18.452.611-.303-16.545-31.569 4.746-1.076 18.49 29.173-14.075-24.52 3.674-1.327 15.05 19.839-9.155-15.317 3.243-.317 12.372 16.283.001.001 1.934 2.932 11.94 21.115-.907 10.111 15.823 23.534-22.087 8.284-10.828-20.989-13.266-9.125z"/><path d="M205.216 157.495l.638-4.923-4.372-2.498-.88 3.233zM201.459 116.011l-2.67 1.077-2.682-4.24 2.642-.832zM209.688 115.779l-2.925.58-2.925-3.918 3.385-.851zM218.09 118.633l-2.406.918-2.946-3.576 2.937-1.058zM226.851 121.968l-2.25.581-2.249-3.186 2.461-.241z"/></g><defs><path id="c" d="M104.114 10.349l5.221 67.878h135.756l5.221-67.878z"/></defs><clipPath id="d"><use xlink:href="#c" overflow="visible"/></clipPath><g clip-path="url(#d)" stroke="#595A5C" stroke-width=".5" stroke-miterlimit="10"><path fill="#F2F2F2" d="M173.933 54.2s-4.436-21.551 2.061-40.657c0 0 3.893 30.384 17.374 41.853L173.933 54.2z"/><path fill="none" d="M143.25 62.95l-1.657-1.875 12.365.762 1.548 3.641M150.425 61.62l1.549 3.64M146.893 61.402l1.548 3.641M143.359 61.184l1.549 3.642"/><path fill="#F2F2F2" d="M155.398 67.245l7.501-6.631 26.497 1.631 1.333 7.174z"/><path fill="#F2F2F2" d="M201.29 70.66l-19.43-1.195.218-3.534 19.43 1.195z" stroke-width=".499995"/><path fill="#F2F2F2" d="M143.25 62.95l59.952 5.463-3.943 6.456-44.162-2.718c0 .001-10.624-.259-11.847-9.201z"/><path fill="#F2F2F2" d="M201.327 70.071l-2.068 4.799 3.533.217 2.068-4.798zM161.024 62.271l-1.875 1.658 5.299.326.109-1.766z"/><path fill="#F2F2F2" d="M175.044 64.915l-8.834-.544.109-1.766 8.834.545z" stroke-width=".499995"/><path fill="none" d="M185.65 65.55l-8.833-.543.109-1.766 8.832.543z" stroke-width=".499995"/><path fill="#F2F2F2" d="M171.732 61.158l3.377-47.669.883.054-2.494 47.723zM175.109 13.489S127.978 23 141.593 61.075c0 0 4.512-15.681 30.575-6.984-.001 0-21.654-15.518 2.941-40.602z"/></g><defs><path id="e" d="M104.114 10.349l5.221 67.878h135.756l5.221-67.878z"/></defs><clipPath id="f"><use xlink:href="#e" overflow="visible"/></clipPath><path clip-path="url(#f)" fill="#FFF" stroke="#595A5C" stroke-width=".5" stroke-miterlimit="10" d="M108.899 72.422s6.531-3.267 13.062 0c6.53 3.265 13.061 0 13.061 0s6.53-3.267 13.062 0c6.529 3.265 13.061 0 13.061 0s6.529-3.267 13.061 0c6.53 3.265 13.062 0 13.062 0s6.53-3.267 13.062 0c6.529 3.265 13.062 0 13.062 0s6.53-3.267 13.06 0c6.531 3.265 13.062 0 13.062 0s6.53-3.267 13.062 0c6.531 3.265 13.063 0 13.063 0v13.061h-156.74V72.422z"/><g><path fill="none" stroke="#595A5C" stroke-width=".5" stroke-miterlimit="10" d="M104.114 10.349l5.221 67.878h135.756l5.221-67.878z"/></g><path fill="none" stroke="#595A5C" stroke-width=".5" stroke-miterlimit="10" d="M192.333 30.837h30.071M187.656 37.413h15.664M195.442 42.44h39.206"/><g stroke="#595A5C" stroke-width=".5" stroke-miterlimit="10"><path fill="#F2F2F2" d="M45.106 109.707s-.341-1.917 1.578-2.258l26.849-4.767s1.919-.341 2.259 1.577l8.853 49.862s.34 1.918-1.578 2.259l-26.849 4.767s-1.917.34-2.257-1.576l-8.855-49.864z"/><path fill="#26A5D4" d="M83.96 150.284l-30.684 5.447-7.83-44.107 30.684-5.447z"/><circle fill="#F2F2F2" cx="69.11" cy="155.779" r="1.948"/><g fill="#F2F2F2"><circle cx="50.777" cy="108.841" r=".974"/><circle cx="50.777" cy="108.841" r=".487"/><path d="M54.454 108.195s-.103-.569.469-.672l10.845-1.926s.57-.101.671.471c0 0 .103.57-.469.673l-10.844 1.925s-.57.102-.672-.471z"/></g></g></svg>