<svg width="98" height="77" viewBox="0 0 98 77" version="1.1" xmlns="http://www.w3.org/2000/svg" xmlns:xlink="http://www.w3.org/1999/xlink">
<title>Group</title>
<desc>Created using Figma</desc>
<g id="Canvas" transform="translate(-23092 -857)">
<g id="Group">
<g id="Ellipse">
<mask id="mask0_outline_ins">
<use xlink:href="#path0_fill" fill="white" transform="translate(23100 857)"/>
</mask>
<g mask="url(#mask0_outline_ins)">
<use xlink:href="#path1_stroke_2x" transform="translate(23100 857)" fill="#BDBDBD"/>
</g>
</g>
<g id="papuga_01">
<g id="Group">
<g id="Group">
<g id="Vector">
<use xlink:href="#path2_fill" transform="translate(23159.4 915.002)" fill="#D85138"/>
</g>
<g id="Vector">
<use xlink:href="#path3_fill" transform="translate(23154.2 910.596)" fill="#D85138"/>
</g>
<g id="Vector">
<use xlink:href="#path4_fill" transform="translate(23153.4 914.931)" fill="#D85138"/>
</g>
<g id="Vector">
<use xlink:href="#path5_fill" transform="translate(23149.4 913.276)" fill="#D85138"/>
</g>
<g id="Vector">
<use xlink:href="#path6_fill" transform="translate(23148.3 910.072)" fill="#EB9759"/>
</g>
<g id="Vector">
<use xlink:href="#path7_fill" transform="translate(23146.8 908.529)" fill="#EB9759"/>
</g>
<g id="Vector">
<use xlink:href="#path8_fill" transform="translate(23145.5 908.869)" fill="#EB9759"/>
</g>
<g id="Vector">
<use xlink:href="#path9_fill" transform="translate(23143.3 908.928)" fill="#EB9759"/>
</g>
<g id="Vector">
<use xlink:href="#path10_fill" transform="translate(23140.1 906.58)" fill="#228299"/>
</g>
<g id="Vector">
<use xlink:href="#path11_fill" transform="translate(23140.2 906.511)" fill="#228299"/>
</g>
<g id="Vector">
<use xlink:href="#path12_fill" transform="translate(23139 907.248)" fill="#228299"/>
</g>
</g>
<g id="Vector">
<use xlink:href="#path13_fill" transform="translate(23108.4 866.243)" fill="#D85138"/>
</g>
<g id="Vector">
<use xlink:href="#path14_fill" transform="translate(23095.5 866)" fill="#D85138"/>
</g>
<g id="Vector">
<use xlink:href="#path15_fill" transform="translate(23097.4 869.214)" fill="#FFFFFF"/>
</g>
<g id="Vector">
<use xlink:href="#path16_fill" transform="translate(23104.1 870.763)" fill="#414142"/>
</g>
<g id="Vector">
<use xlink:href="#path17_fill" transform="translate(23094.8 873.941)" fill="#595A5C"/>
</g>
<g id="Group">
<g id="Vector">
<use xlink:href="#path18_fill" transform="translate(23112.4 885.503)" fill="#28A5D3"/>
</g>
<g id="Vector">
<use xlink:href="#path19_fill" transform="translate(23112.4 886.643)" fill="#EB9759"/>
</g>
<g id="Vector">
<use xlink:href="#path20_fill" transform="translate(23112.4 886.665)" fill="#FFE6C6"/>
</g>
<g id="Vector">
<use xlink:href="#path21_fill" transform="translate(23111.9 886.145)" fill="#D85138"/>
</g>
</g>
<g id="Vector">
<use xlink:href="#path22_fill" transform="translate(23092 871.119)" fill="#BBBCBC"/>
</g>
</g>
</g>
</g>
</g>
<defs>
<path id="path0_fill" d="M 77 38.5C 77 59.763 59.763 77 38.5 77C 17.237 77 0 59.763 0 38.5C 0 17.237 17.237 0 38.5 0C 59.763 0 77 17.237 77 38.5Z"/>
<path id="path1_stroke_2x" d="M 76 38.5C 76 59.2107 59.2107 76 38.5 76L 38.5 78C 60.3152 78 78 60.3152 78 38.5L 76 38.5ZM 38.5 76C 17.7893 76 1 59.2107 1 38.5L -1 38.5C -1 60.3152 16.6848 78 38.5 78L 38.5 76ZM 1 38.5C 1 17.7893 17.7893 1 38.5 1L 38.5 -1C 16.6848 -1 -1 16.6848 -1 38.5L 1 38.5ZM 38.5 1C 59.2107 1 76 17.7893 76 38.5L 78 38.5C 78 16.6848 60.3152 -1 38.5 -1L 38.5 1Z"/>
<path id="path2_fill" d="M -2.2491e-06 1.78939e-06C -2.2491e-06 1.78939e-06 17.6719 11.7437 21.4237 9.60512C 25.047 7.03566 -2.2491e-06 1.78939e-06 -2.2491e-06 1.78939e-06Z"/>
<path id="path3_fill" d="M 1.34946e-06 1.31009e-06C 1.34946e-06 1.31009e-06 24.0452 13.6771 28.3897 10.7103C 31.5977 7.6843 1.34946e-06 1.31009e-06 1.34946e-06 1.31009e-06Z"/>
<path id="path4_fill" d="M 9.31771e-07 3.83441e-07C 9.31771e-07 3.83441e-07 19.9007 16.1764 25.1023 13.8373C 29.4284 11.4474 9.31771e-07 3.83441e-07 9.31771e-07 3.83441e-07Z"/>
<path id="path5_fill" d="M -1.86354e-06 -9.58603e-07C -1.86354e-06 -9.58603e-07 17.7714 15.844 21.0989 15.5566C 24.329 15.278 -1.86354e-06 -9.58603e-07 -1.86354e-06 -9.58603e-07Z"/>
<path id="path6_fill" d="M 1.57437e-06 1.88525e-06C 1.57437e-06 1.88525e-06 21.1557 14.1891 26.0014 12.4023C 30.2048 10.6846 1.57437e-06 1.88525e-06 1.57437e-06 1.88525e-06Z"/>
<path id="path7_fill" d="M -1.47798e-06 -1.374e-06C -1.47798e-06 -1.374e-06 24.5264 12.5023 28.5856 10.2276C 31.8173 8.04187 -1.47798e-06 -1.374e-06 -1.47798e-06 -1.374e-06Z"/>
<path id="path8_fill" d="M 1.47798e-06 -5.75162e-07C 1.47798e-06 -5.75162e-07 18.5336 15.0869 22.9997 14.3289C 26.8868 13.5588 1.47798e-06 -5.75162e-07 1.47798e-06 -5.75162e-07Z"/>
<path id="path9_fill" d="M -3.5343e-07 -1.11837e-06C -3.5343e-07 -1.11837e-06 13.8722 16.168 19.7581 15.3508C 25.0059 14.6137 -3.5343e-07 -1.11837e-06 -3.5343e-07 -1.11837e-06Z"/>
<path id="path10_fill" d="M -2.2491e-07 -1.43791e-06C -2.2491e-07 -1.43791e-06 21.3605 13.6797 26.1298 12.0845C 30.2038 10.5318 -2.2491e-07 -1.43791e-06 -2.2491e-07 -1.43791e-06Z"/>
<path id="path11_fill" d="M 1.86354e-06 8.62743e-07C 1.86354e-06 8.62743e-07 24.8248 12.0604 28.7551 9.96844C 32.0678 7.87853 1.86354e-06 8.62743e-07 1.86354e-06 8.62743e-07Z"/>
<path id="path12_fill" d="M -8.03251e-07 -9.2665e-07C -8.03251e-07 -9.2665e-07 18.7389 14.5116 23.9726 13.2651C 28.7746 11.8798 -8.03251e-07 -9.2665e-07 -8.03251e-07 -9.2665e-07Z"/>
<path id="path13_fill" d="M 73.4701 13.9252L 69.4709 13.5096C 73.8897 9.9475 74.932 6.71022e-07 74.932 6.71022e-07C 45.8832 25.9731 16.9759 18.1114 16.9759 18.1114L 3.213e-08 20.3693C 0.900176 21.0567 1.78245 21.6991 2.65578 22.3121L 1.79193 22.5655C 34.6625 56.1423 68.2149 25.4444 68.2149 25.4444L 64.2157 25.0276C 72.6373 21.8802 73.4701 13.9252 73.4701 13.9252Z"/>
<path id="path14_fill" d="M 48.2457 45.0956C 49.4254 44.0559 50.6136 42.8392 51.8075 41.4058L 23.2566 20.992L 32.7232 20.6433C 32.7232 20.6433 28.1602 15.0615 17.1755 5.64533C 2.72369 -6.7418 3.8556e-07 5.11867 3.8556e-07 5.11867L 8.44007 21.5369C 8.44007 21.5369 22.6407 53.907 40.4247 49.4707C 40.8817 49.9429 41.4581 50.3931 42.1877 50.7999C 47.7325 53.8929 53.2009 46.7892 53.2009 46.7892L 48.2457 45.0956Z"/>
<path id="path15_fill" d="M 18.6031 10.261C 18.6031 10.261 2.19411 7.88319 4.38612 13.1033L 3.05235e-07 2.66417C 3.05235e-07 2.66417 8.3053 -6.91739 18.6031 10.261Z"/>
<path id="path16_fill" d="M 1.00493 1.99882C 1.55994 1.99882 2.00987 1.55137 2.00987 0.99941C 2.00987 0.447452 1.55994 0 1.00493 0C 0.449924 0 0 0.447452 0 0.99941C 0 1.55137 0.449924 1.99882 1.00493 1.99882Z"/>
<path id="path17_fill" d="M 7.4683 10.2572C 7.4683 10.2572 1.52714 3.74609 4.01625e-08 7.44479L 3.05586 0.0452877C 3.05639 0.0458112 5.7069 -1.27086 7.4683 10.2572Z"/>
<path id="path18_fill" d="M 15.832 1.14076C 15.832 1.14076 57.1548 10.1669 76.5707 1.72549e-06C 76.5707 1.72549e-06 72.7505 9.24912 67.5016 11.4291L 71.2228 12.9494C 71.2228 12.9494 68.168 20.3505 59.1989 21.0112L 62.9202 22.5299C 62.9202 22.5299 22.0275 42.5862 -6.74731e-07 1.16065L 15.832 1.14076Z"/>
<path id="path19_fill" d="M 15.8315 -1.82135e-06C 15.8315 -1.82135e-06 37.6389 8.90307 58.9662 4.64001C 58.9662 4.64001 56.6732 10.1915 51.4237 12.3725L 55.146 13.8902C 55.146 13.8902 50.9931 18.6804 46.508 19.0118L 52.0896 21.2902C 52.0896 21.2902 19.0885 34.7998 -9.63901e-07 0.0204164L 15.8315 -1.82135e-06Z"/>
<path id="path20_fill" d="M 14.5276 0.0738188C 14.5276 0.0738188 30.3359 10.6956 50.6488 8.65387C 50.6488 8.65387 48.0988 13.1216 43.4053 14.4095L 46.4012 16.0989C 46.4012 16.0989 42.354 19.7207 38.5091 19.5186L 43.0015 22.0546C 43.0015 22.0546 11.8239 24.9523 -9.63901e-07 -1.62963e-06L 14.5276 0.0738188Z"/>
<path id="path21_fill" d="M 15.9368 3.51488e-07C 15.9368 3.51488e-07 26.6905 8.51252 40.7932 8.31201C 40.7932 8.31201 37.7374 15.712 29.5321 14.5221C 29.5321 14.5221 33.2533 16.0413 34.3499 18.6516C 34.3499 18.6516 18.073 24.6758 -6.58666e-07 0.000523589L 15.9368 0.000523589L 15.9368 3.51488e-07Z"/>
<path id="path22_fill" d="M 7.15669 2.65637C 7.15669 2.65637 7.50045 0.685819 3.53967 5.27232e-07C 3.53967 5.27232e-07 -4.12814 8.82245 3.10748 14.1352C 3.10748 14.1347 1.47295 11.8217 7.15669 2.65637Z"/>
</defs>
</svg>
