<svg xmlns="http://www.w3.org/2000/svg" width="360" height="210" viewBox="0 0 360 210"><g stroke="#58595B" stroke-width=".5" stroke-miterlimit="10"><path fill="none" d="M234.583 107.548l-26.802 26.802M234.583 107.548V80.236M234.583 107.548l15.711-15.712M234.583 107.548v24.778M234.583 107.548l20.303 20.302M234.583 107.548h-25.972M234.583 107.548L217.9 90.866M234.583 107.548h49.229"/><circle fill="#FFF" cx="234.583" cy="107.547" r="14.823"/><g fill="#F1F1F2"><path d="M243.228 113.723c3.707 0 3.707 3.707 3.707 3.707h-7.411c-.001 0-.001-3.707 3.704-3.707zM264.227 112.486c4.939 0 4.939 4.94 4.939 4.94h-9.881c0 .004 0-4.94 4.942-4.94z"/><path d="M256.815 105.077c7.411 0 7.411 12.353 7.411 12.353h-14.822s0-12.353 7.411-12.353z"/><path d="M250.64 111.252c6.176 0 6.176 6.178 6.176 6.178h-12.354s0-6.178 6.178-6.178z"/></g></g><g stroke="#58595B" stroke-width=".5" stroke-miterlimit="10"><path fill="#F1F1F2" d="M223.402 127.087h6.619l3.309 34.654h-13.235z"/><path fill="#2AB573" d="M223.402 127.087h6.619l.828 8.663h-8.273zM221.749 144.414h9.927l.827 8.664h-11.582z"/><path fill="#F1F1F2" d="M224.23 118.424h4.963l.828 8.663h-6.619zM224.005 113.008h5.415v5.416h-5.415zM222.418 113.008l4.294-2.706 4.294 2.706zM226.479 156.326h3.175v5.415h-3.175z"/><path fill="#F1F1F2" d="M227.072 156.855h1.986v4.886h-1.986zM226.035 138.913h1.353v2.707h-1.353zM226.035 147.502h1.353v2.708h-1.353zM226.035 130.322h1.353v2.707h-1.353zM226.035 121.73h1.353v2.709h-1.353z"/><path fill="#F1F1F2" d="M225.469 124.439h2.485v.638h-2.485zM225.469 141.62h2.485v.639h-2.485z"/><path fill="#2AB573" d="M225.469 133.029h2.485v.639h-2.485zM225.469 150.21h2.485v.64h-2.485z"/><g fill="#F1F1F2"><circle cx="226.727" cy="115.745" r="1.358"/><ellipse cx="224.764" cy="115.745" rx=".271" ry="1.356"/><ellipse cx="228.571" cy="115.745" rx=".27" ry="1.356"/></g><path fill="#F1F1F2" d="M222.418 115.716h8.588v2.708h-8.588zM224.005 113.008h5.413v.71h-5.413z"/></g><path fill="#F1F1F2" stroke="#58595B" stroke-width=".5" stroke-miterlimit="10" d="M211.621 160.244l32.847 1.689c-1.398 2.073-6.873 7.217-8.46 9.141l-31.271 9.426 6.884-20.256z"/><path fill="#F1F1F2" d="M204.5 180.42l6.885-20.256.279-.166 30.05 5.199.156.396c-.355.468-1.762 1.813-3.118 3.115-1.156 1.108-2.249 2.157-2.551 2.522l-.121.08-31.271 9.426-.309-.316z"/><path fill="#58595B" d="M211.621 160.244l30.05 5.199c-.642.841-4.992 4.815-5.663 5.631l-31.271 9.426 6.884-20.256m.085-.493l-.561.332-6.885 20.256.618.64 31.271-9.426.241-.16c.293-.354 1.431-1.444 2.532-2.502 1.428-1.369 2.776-2.662 3.143-3.145l-.313-.796-30.046-5.199z"/><g fill="#F1F1F2" stroke="#58595B" stroke-width=".5" stroke-miterlimit="10"><path d="M102.575 60.861s0-5.212-5.215-5.212c-5.211 0-5.211 5.212-5.211 5.212h10.426z"/><path d="M97.362 60.861s0-7.818-7.816-7.818c-7.817 0-7.817 7.818-7.817 7.818h15.633z"/></g><path fill="none" stroke="#58595B" stroke-width=".5" stroke-miterlimit="10" d="M113.923 48.829s-5.212 0-5.212 2.606c0 0 0-2.606-5.212-2.606M86.937 35.354s-5.212 0-5.212 2.606c0 0 0-2.606-5.211-2.606M262.363 85.693s-8.071 0-8.071 4.038c0 0 0-4.038-8.076-4.038M199.416 118.77s-5.212 0-5.212 5.211c0 0 0-5.211-5.212-5.211"/><path fill="#F1F1F2" stroke="#58595B" stroke-width=".5" stroke-miterlimit="10" d="M204.714 177.18a58.234 58.234 0 0 1-15.243-2.021l-66.03-5.056s36.72 32.746 86.475 17.681c21.52-8.175 38.967-25.351 48.431-45.513l-.367.183c-9.027 20.451-29.477 34.726-53.266 34.726z"/><path fill="#F1F1F2" stroke="#58595B" stroke-width=".5" stroke-miterlimit="10" d="M258.311 142.346c.009-.02.02-.037.026-.059-.006.013-.015.031-.026.059zM258.152 142.691l.158-.348c-.058.13-.111.247-.158.348zM258.04 142.938c.016-.031.028-.064.046-.1-.016.035-.03.068-.046.1zM258.086 142.839c.021-.046.043-.094.064-.146-.019.046-.042.096-.064.146zM257.918 143.208c-.121.267-.178.388 0 0zM257.956 142.502c.129-.077.265-.161.388-.229-.104.017-.205.031-.31.049a16.13 16.13 0 0 0-.078.18zM257.92 143.203l.12-.266-.12.266zM257.918 143.208l.002-.005-.002.005zM151.305 142.117c-8.904-18.299-7.851-43.228 9.169-60.928a58.592 58.592 0 0 1 8.015-7.74c38.666-34.822 62.98-20.36 62.98-20.36-7.781-37.944-116.458-41.106-134.547 41.559-18.089 82.665 77.836 116.861 120.612 81.245.068-.059.143-.119.213-.179a58.373 58.373 0 0 1-13.034 1.466c-23.917 0-44.462-14.433-53.408-35.063zM258.337 142.287l.007-.016-.007.016z"/><path fill="#F1F1F2" stroke="#58595B" stroke-width=".5" stroke-miterlimit="10" d="M160.474 81.189c.089-.092.175-.186.265-.278a168.546 168.546 0 0 1 7.75-7.462 58.592 58.592 0 0 0-8.015 7.74z"/><path fill="none" stroke="#58595B" stroke-width=".5" stroke-miterlimit="10" d="M200.862 177.055c-43.602 33.741-109.02-15.679-102.773-87.153"/><path fill="none" stroke="#58595B" stroke-width=".5" stroke-linecap="square" stroke-linejoin="bevel" stroke-miterlimit="10" d="M128.729 117.063s-23.747-54.729 31.521-77.399"/><path fill="none" stroke="#58595B" stroke-width=".5" stroke-miterlimit="10" d="M176.962 170.148c-35.369-8.814-65.246-64.943-3.424-130.049M165.329 161.936S90.816 116.637 195.884 36.66"/><path fill="#F1F1F2" stroke="#58595B" stroke-width=".5" stroke-miterlimit="10" d="M173.327 46.94s14.372 16.283 20.326-2.451c0 0 10.921 19.26 21.575 2.256 0 0 10.79 17.738 20.735 4.892 13.875-17.922-79.801-70.57-129.755 18.669 0 0 28.549-37.12 45.431-23.208 11.474 9.455 14.18 8.879 21.688-.158z"/><g stroke="#58595B" stroke-width=".5" stroke-miterlimit="10"><path fill="#FFF" d="M125.974 121.616s-14.887-11.56-13.292-29.532c1.687-19.044 21.991-7.632 13.176 3.2-8.337 10.245.116 26.332.116 26.332z"/><path fill="#2AB573" d="M115.13 116.646l6.546-3.348c68.908 27.787 83.183 40.811 83.183 40.811-29.548 5.923-89.729-37.463-89.729-37.463z"/><path fill="none" d="M204.859 154.109l-86.141-39.296"/><path fill="#F1F1F2" d="M168.708 139.582l-.64.625-5.558-2.478-4.082-1.862-.776-1.431 1.934-3.332-.288-10.47 1.73-2.114-3.096-5.547 5.748-2.205 2.965 6.993-.837 2.725-3.089 13.345 3.522 3.28z"/><path fill="#2AB573" d="M156.532 110.239l-.369 1.475-3.211 2.08-6.589-3.423 1.6-13.587 6.671-3.423 1.58 5.266 5.02 5.186 3.071 8.423-6.766 1.327z"/><path fill="#F1F1F2" d="M152.612 120.613l-13.906 1.056.04 2.636 2.532 2.616-.433 1.229-5.542-2.166-.831-5.046.855-2.334 3.617-.168 7.755-3.79h2.31l-.03-4.71 3.105-1.386 4.079 3.164-1.255 6.677zM178.666 146.926c-.937-1.259-1.264-2.602-.728-3.005.539-.397 1.737.293 2.674 1.552.938 1.256 1.262 2.604.728 3.002-.538.402-1.735-.291-2.674-1.549z"/><path fill="#F1F1F2" d="M174.88 141.841l-1.19 5.258-1.395-.315 1.19-5.258z" stroke-width=".49999"/><path fill="#F1F1F2" d="M149.2 126.064l-.56 1.466-1.336-.51.56-1.466z" stroke-width=".499985"/><path fill="#2AB573" d="M140.946 121.84l-1.271.21-.716-4.311 1.27-.211z" stroke-width=".500005"/><path fill="#F1F1F2" d="M170.473 86.1l2.146 4.502 1.113 6.008 9.518 1.824 1.995-2.725 3.747 1.141-.112 3.161-5.097 1.191s-12.515-.642-12.702-1.038c-.189-.395-4.483-10.383-4.483-10.383"/><path fill="#2AB573" d="M181.414 101.738l.008-4.371 1.287.002-.008 4.371z"/><path fill="#F1F1F2" d="M168.568 82.198l-7.902 1.058-12.703 13.528 5.091 2.765 6.779 2.821 10.108-12.701 1.596-4.853z"/><path fill="#F1F1F2" d="M167.15 83.155l2.622-3.218 3.193-6.535 4.946.314L180 78.034l-1.499 3.065-.077 2.617-1.323.251-2.121 2.503-3.597-1.246M164.076 82.913l-3.823-.402-12.93.085-6.114 9.722-1.749 1.192-1.531 3.612 2.527 1.807 3.026-2.399.164-3.123 5.634-6.996 9.106 1.13 5.256-.116"/><path fill="#2AB573" d="M167.688 79.264l-1.073-.72 3.057-.842-2.62-1.114 1.774-.977 3.401-3.058 3.254.053-1.536-1.042 2.17.261 4.928 2.638.283 2.085L180 78.034l-3.547 1.299 2.329-2.978-2.839 1.319-.163.102-1.697 3.432-1.375-.12 1.352-3.177-1.191-.586-.052.04-1.784 2.491-1.261.081-.892 1.094-2.391-1.114z"/><g fill="#2AB573"><circle cx="172.374" cy="86.915" r=".45"/><circle cx="171.656" cy="87.578" r=".449"/><path d="M169.854 87.362a.45.45 0 0 0 .84.319.444.444 0 0 0-.258-.577.448.448 0 0 0-.582.258z"/><circle cx="168.796" cy="86.493" r=".45"/><path d="M167.05 84.895a.45.45 0 0 0 .841.319.448.448 0 0 0-.259-.578.452.452 0 0 0-.582.259z"/><circle cx="166.301" cy="83.209" r=".448"/><circle cx="165.386" cy="81.927" r=".449"/><path d="M164.615 80.231a.445.445 0 0 0 .259.578.447.447 0 1 0 .317-.837.444.444 0 0 0-.576.259z"/><circle cx="166.668" cy="81.01" r=".449"/></g><path fill="#FFF" d="M109.711 102.369c-1.365-14.355 15.26-8.679 10.21.563-4.775 8.742 3.702 19.511 3.702 19.511s-12.627-6.529-13.912-20.074z"/><circle fill="#FFF" cx="116.628" cy="70.83" r="2.089"/><circle fill="#FFF" cx="125.178" cy="76.664" r="1.394"/><circle fill="#FFF" cx="140.372" cy="56.952" r="2.973"/><circle fill="#FFF" cx="125.178" cy="103.749" r="1.555"/><circle fill="#FFF" cx="108.453" cy="107.949" r="2.203"/><circle fill="#FFF" cx="152.103" cy="42.741" r="1.776"/><circle fill="#FFF" cx="116.627" cy="132.601" r="2.312"/><circle fill="#FFF" cx="114.192" cy="118.46" r="4.457"/><circle fill="#FFF" cx="122.907" cy="128.545" r="1.742"/><circle fill="#FFF" cx="129.064" cy="127.243" r="2.239"/><circle fill="#FFF" cx="102.575" cy="86.916" r="3.976"/></g></svg>