<svg xmlns="http://www.w3.org/2000/svg" width="360" height="210" viewBox="0 0 360 210"><path fill="#F1F1F2" stroke="#58595B" stroke-width=".5" stroke-miterlimit="10" d="M233.297 33.519h5.995v4.497h-5.995zM240.792 17.029c0-4.497-4.498-4.497-4.498-4.497s-4.496 0-4.496 4.497 2.998 4.497 1.499 16.489h5.995c-1.499-11.992 1.5-11.992 1.5-16.489z"/><ellipse fill="#F1F1F2" stroke="#58595B" stroke-width=".5" stroke-miterlimit="10" cx="236.295" cy="33.519" rx="4.497" ry="1.382"/><path fill="#F1F1F2" stroke="#58595B" stroke-width=".5" stroke-miterlimit="10" d="M233.297 116.081h5.995v4.497h-5.995zM231.798 137.066c0 4.496 4.496 4.496 4.496 4.496s4.498 0 4.498-4.496c0-4.498-2.999-4.498-1.5-16.488h-5.995c1.499 11.99-1.499 11.99-1.499 16.488z"/><ellipse fill="#F1F1F2" stroke="#58595B" stroke-width=".5" stroke-miterlimit="10" cx="236.295" cy="120.578" rx="4.497" ry="1.383"/><path fill="#F1F1F2" stroke="#58595B" stroke-width=".5" stroke-miterlimit="10" d="M275.325 74.051h4.497v5.996h-4.497zM296.312 81.545c4.497 0 4.497-4.497 4.497-4.497s0-4.497-4.497-4.497-4.497 2.999-16.487 1.5v5.996c11.989-1.5 11.989 1.498 16.487 1.498z"/><ellipse fill="#F1F1F2" stroke="#58595B" stroke-width=".5" stroke-miterlimit="10" cx="279.823" cy="77.048" rx="1.384" ry="4.497"/><path fill="#F1F1F2" stroke="#58595B" stroke-width=".5" stroke-miterlimit="10" d="M192.765 74.05h4.497v5.996h-4.497zM176.275 72.551c-4.497 0-4.497 4.497-4.497 4.497s0 4.497 4.497 4.497c4.498 0 4.498-2.998 16.489-1.499V74.05c-11.991 1.499-11.991-1.499-16.489-1.499z"/><ellipse fill="#F1F1F2" stroke="#58595B" stroke-width=".5" stroke-miterlimit="10" cx="192.765" cy="77.048" rx="1.383" ry="4.497"/><g><path fill="#F1F1F2" stroke="#58595B" stroke-width=".499995" stroke-miterlimit="10" d="M261.77 106.762l4.24-4.242 3.182 3.18-4.24 4.242z"/><path fill="#F1F1F2" stroke="#58595B" stroke-width=".5" stroke-miterlimit="10" d="M275.554 122.668c3.18 3.18 6.359 0 6.359 0s3.18-3.18 0-6.359c-3.181-3.181-5.302-1.061-12.721-10.6l-2.121 2.119-2.117 2.12c9.539 7.42 7.419 9.54 10.6 12.72z"/><ellipse transform="rotate(44.984 267.068 107.84)" fill="#F1F1F2" stroke="#58595B" stroke-width=".5" stroke-miterlimit="10" cx="267.057" cy="107.833" rx="1.382" ry="4.496"/><g><path fill="#F1F1F2" stroke="#58595B" stroke-width=".499995" stroke-miterlimit="10" d="M210.808 47.317l-4.239 4.24-3.18-3.18 4.239-4.24z"/><path fill="#F1F1F2" stroke="#58595B" stroke-width=".5" stroke-miterlimit="10" d="M197.034 31.429c-3.181-3.18-6.359 0-6.359 0s-3.18 3.18 0 6.36 5.301 1.06 12.721 10.599l2.119-2.12 2.12-2.119c-9.54-7.42-7.42-9.541-10.601-12.72z"/><ellipse transform="rotate(-135.008 205.526 46.264)" fill="#F1F1F2" stroke="#58595B" stroke-width=".5" stroke-miterlimit="10" cx="205.527" cy="46.262" rx="1.382" ry="4.497"/></g></g><g><path fill="#F1F1F2" stroke="#58595B" stroke-width=".499995" stroke-miterlimit="10" d="M266.013 51.567l-4.239-4.24 3.18-3.18 4.239 4.24z"/><path fill="#F1F1F2" stroke="#58595B" stroke-width=".5" stroke-miterlimit="10" d="M281.913 37.789c3.18-3.18 0-6.359 0-6.359s-3.181-3.181-6.359 0c-3.181 3.179-1.061 5.299-10.6 12.719l2.119 2.119 2.119 2.12c7.42-9.539 9.541-7.42 12.721-10.599z"/><ellipse transform="rotate(-44.984 267.088 46.265)" fill="#F1F1F2" stroke="#58595B" stroke-width=".5" stroke-miterlimit="10" cx="267.075" cy="46.264" rx="1.382" ry="4.496"/><g><path fill="#F1F1F2" stroke="#58595B" stroke-width=".499995" stroke-miterlimit="10" d="M206.577 102.528l4.239 4.24-3.18 3.18-4.24-4.24z"/><path fill="#F1F1F2" stroke="#58595B" stroke-width=".5" stroke-miterlimit="10" d="M190.675 116.309c-3.18 3.181 0 6.358 0 6.358s3.18 3.181 6.359 0c3.18-3.179 1.061-5.299 10.601-12.719l-2.12-2.121-2.119-2.119c-7.42 9.54-9.542 7.42-12.721 10.601z"/><ellipse transform="scale(-1) rotate(-44.972 -260.493 496.474)" fill="#F1F1F2" stroke="#58595B" stroke-width=".5" stroke-miterlimit="10" cx="205.515" cy="107.83" rx="1.382" ry="4.497"/></g></g><g><path fill="#F1F1F2" stroke="#58595B" stroke-width=".5" stroke-miterlimit="10" d="M233.172 44.148h6.246v3.079h-6.246zM233.172 59.547h6.246v3.08h-6.246zM234.212 48.254l-1.04 5.133 1.04 5.134h4.165l1.041-5.134-1.041-5.133zM239.418 59.034c0 .283-.466.513-1.041.513h-4.165c-.574 0-1.04-.23-1.04-.513 0-.284.466-.513 1.04-.513h4.165c.575 0 1.041.229 1.041.513z"/><path fill="#F1F1F2" stroke="#58595B" stroke-width=".5" stroke-miterlimit="10" d="M239.418 47.742c0-.284-.466-.514-1.041-.514h-4.165c-.574 0-1.04.23-1.04.514 0 .283.466.513 1.04.513h4.165c.575-.001 1.041-.23 1.041-.513z"/><g><path fill="#F1F1F2" stroke="#58595B" stroke-width=".5" stroke-miterlimit="10" d="M233.172 91.678h6.246v3.08h-6.246zM233.172 107.077h6.246v3.079h-6.246zM234.212 95.785l-1.04 5.133 1.04 5.133h4.165l1.041-5.133-1.041-5.133z"/><path fill="#F1F1F2" stroke="#58595B" stroke-width=".5" stroke-miterlimit="10" d="M239.418 106.564c0 .283-.466.513-1.041.513h-4.165c-.574 0-1.04-.229-1.04-.513 0-.284.466-.515 1.04-.515h4.165c.575.002 1.041.231 1.041.515zM239.418 95.271c0-.283-.466-.513-1.041-.513h-4.165c-.574 0-1.04.23-1.04.513 0 .284.466.514 1.04.514h4.165c.575 0 1.041-.23 1.041-.514z"/></g></g><g><path fill="#F1F1F2" stroke="#58595B" stroke-width=".5" stroke-miterlimit="10" d="M266.218 74.029h3.08v6.246h-3.08zM250.819 74.029h3.079v6.246h-3.079zM265.191 75.071l-5.132-1.042-5.134 1.042v4.163l5.134 1.041 5.132-1.041z"/><path fill="#F1F1F2" stroke="#58595B" stroke-width=".5" stroke-miterlimit="10" d="M254.412 80.275c-.283 0-.515-.466-.515-1.041V75.07c0-.575.23-1.042.515-1.042.283 0 .513.467.513 1.042v4.164c0 .575-.229 1.041-.513 1.041zM265.704 80.275c.282 0 .514-.466.514-1.041V75.07c0-.575-.23-1.042-.514-1.042-.282 0-.514.467-.514 1.042v4.164c.001.575.232 1.041.514 1.041z"/><g><path fill="#F1F1F2" stroke="#58595B" stroke-width=".5" stroke-miterlimit="10" d="M218.689 74.029h3.079v6.246h-3.079zM203.29 74.029h3.081v6.246h-3.081zM217.662 75.071l-5.133-1.042-5.133 1.042v4.163l5.133 1.041 5.133-1.041z"/><path fill="#F1F1F2" stroke="#58595B" stroke-width=".5" stroke-miterlimit="10" d="M206.884 80.275c-.284 0-.513-.466-.513-1.041V75.07c0-.575.229-1.042.513-1.042.282 0 .513.467.513 1.042v4.164c-.001.575-.231 1.041-.513 1.041zM218.175 80.275c.285 0 .515-.466.515-1.041V75.07c0-.575-.229-1.042-.515-1.042-.282 0-.513.467-.513 1.042v4.164c0 .575.231 1.041.513 1.041z"/></g></g><g><path fill="#F1F1F2" stroke="#58595B" stroke-width=".499995" stroke-miterlimit="10" d="M255.233 100.493l4.417-4.416 2.178 2.178-4.417 4.416zM244.352 89.62l4.416-4.416 2.177 2.176-4.416 4.416z"/><path fill="#F1F1F2" stroke="#58595B" stroke-width=".5" stroke-miterlimit="10" d="M258.2 96.115l-2.893-4.366-4.367-2.895-2.943 2.946 2.894 4.365 4.365 2.894z"/><path fill="#F1F1F2" stroke="#58595B" stroke-width=".5" stroke-miterlimit="10" d="M246.899 92.173c-.202-.201-.035-.693.372-1.099l2.943-2.944c.406-.407.897-.573 1.1-.374.2.201.033.693-.374 1.099l-2.942 2.945c-.408.406-.899.574-1.099.373zM254.883 100.157c.2.202.693.035 1.099-.372l2.945-2.944c.405-.407.572-.899.372-1.1-.2-.2-.693-.032-1.099.374l-2.944 2.944c-.407.406-.573.898-.373 1.098z"/><g><path fill="#F1F1F2" stroke="#58595B" stroke-width=".499995" stroke-miterlimit="10" d="M221.64 66.916l4.415-4.415 2.178 2.178-4.414 4.416zM210.744 56.012l4.416-4.416 2.177 2.178-4.415 4.416z"/><path fill="#F1F1F2" stroke="#58595B" stroke-width=".5" stroke-miterlimit="10" d="M224.592 62.506l-2.894-4.366-4.365-2.894-2.944 2.944 2.893 4.366 4.365 2.894z"/><path fill="#F1F1F2" stroke="#58595B" stroke-width=".5" stroke-miterlimit="10" d="M213.29 58.564c-.201-.201-.035-.693.372-1.099l2.943-2.944c.406-.407.898-.574 1.101-.373.199.2.032.692-.373 1.099l-2.944 2.944c-.408.406-.899.573-1.099.373zM221.274 66.548c.2.202.692.034 1.1-.372l2.943-2.945c.406-.406.574-.898.373-1.1-.199-.2-.691-.033-1.099.374l-2.944 2.944c-.406.407-.573.899-.373 1.099z"/></g></g><g><path fill="#F1F1F2" stroke="#58595B" stroke-width=".499995" stroke-miterlimit="10" d="M212.926 96.104l4.417 4.416-2.177 2.179-4.417-4.416zM223.815 85.216l4.416 4.417-2.178 2.177-4.415-4.418z"/><path fill="#F1F1F2" stroke="#58595B" stroke-width=".5" stroke-miterlimit="10" d="M217.333 99.059l4.365-2.894 2.895-4.366-2.946-2.945-4.365 2.895-2.893 4.365z"/><path fill="#F1F1F2" stroke="#58595B" stroke-width=".5" stroke-miterlimit="10" d="M221.274 87.756c.2-.2.692-.034 1.1.373l2.943 2.945c.406.406.573.898.373 1.099-.199.201-.691.032-1.098-.374l-2.945-2.944c-.406-.407-.573-.898-.373-1.099zM213.29 95.741c-.202.201-.035.693.372 1.1l2.943 2.943c.406.407.898.574 1.101.373.199-.2.032-.692-.373-1.098l-2.944-2.945c-.408-.406-.899-.573-1.099-.373z"/><g><path fill="#F1F1F2" stroke="#58595B" stroke-width=".499995" stroke-miterlimit="10" d="M246.549 62.489l4.414 4.415-2.178 2.177-4.414-4.415zM257.422 51.606l4.417 4.416-2.178 2.179-4.417-4.416z"/><path fill="#F1F1F2" stroke="#58595B" stroke-width=".5" stroke-miterlimit="10" d="M250.94 65.449l4.367-2.893 2.893-4.366-2.944-2.944-4.365 2.894-2.894 4.365zM254.883 54.147c.2-.201.692-.034 1.099.373l2.945 2.944c.405.406.572.899.372 1.1-.2.2-.693.032-1.099-.374l-2.944-2.944c-.407-.407-.573-.898-.373-1.099z"/><path fill="#F1F1F2" stroke="#58595B" stroke-width=".5" stroke-miterlimit="10" d="M246.899 62.132c-.202.201-.035.693.372 1.099l2.943 2.944c.406.407.897.574 1.1.373.2-.2.033-.692-.374-1.099l-2.942-2.944c-.408-.406-.899-.573-1.099-.373z"/></g></g><g><path fill="#F1F1F2" stroke="#58595B" stroke-width=".5" stroke-miterlimit="10" d="M236.294 118.021c-22.591 0-40.974-18.38-40.974-40.973 0-22.592 18.383-40.973 40.974-40.973 22.592 0 40.973 18.38 40.973 40.973 0 22.594-18.381 40.973-40.973 40.973zm0-71.952c-17.08 0-30.979 13.897-30.979 30.979s13.898 30.979 30.979 30.979 30.978-13.897 30.978-30.979-13.897-30.979-30.978-30.979z"/></g><g><path fill="#F1F1F2" stroke="#58595B" stroke-width=".5" stroke-miterlimit="10" d="M236.294 93.537c-9.093 0-16.488-7.396-16.488-16.489s7.396-16.489 16.488-16.489 16.489 7.396 16.489 16.489-7.396 16.489-16.489 16.489zm0-26.981c-5.785 0-10.492 4.707-10.492 10.493 0 5.786 4.707 10.493 10.492 10.493 5.787 0 10.494-4.707 10.494-10.493 0-5.786-4.707-10.493-10.494-10.493z"/></g><g stroke="#58595B" stroke-width=".5" stroke-miterlimit="10"><path fill="#F1F1F2" d="M57.611 151.244s-.344-1.932 1.591-2.275l27.055-4.802s1.934-.344 2.276 1.587l8.921 50.247s.343 1.933-1.591 2.276l-27.055 4.803s-1.933.343-2.275-1.589l-8.922-50.247z"/><path fill="#FFF" d="M96.76 192.138l-30.921 5.49-7.89-44.447 30.92-5.49z"/><circle fill="#F1F1F2" cx="81.801" cy="197.672" r="1.963"/><g fill="#F1F1F2"><circle cx="63.325" cy="150.372" r=".981"/><circle cx="63.325" cy="150.371" r=".491"/><path d="M67.031 149.723s-.102-.574.473-.678l10.928-1.939s.575-.101.677.475c0 0 .103.574-.474.677l-10.927 1.94c0-.003-.575.1-.677-.475z"/></g></g><g stroke="#58595B" stroke-width=".5" stroke-miterlimit="10"><path fill="#F1F1F2" d="M111.034 92.408s0-5.445 5.444-5.445h119.815s5.444 0 5.444 5.445v81.695H111.034V92.408z"/><path fill="#FFF" d="M116.479 92.408h119.815v76.247H116.479z"/><path fill="#D0D2D3" d="M100.143 174.104s0 5.443 5.443 5.443h141.603s5.444 0 5.444-5.443h-152.49z"/><path fill="#F1F1F2" d="M165.495 174.104s0 3.627 3.632 3.627h14.521s3.632 0 3.632-3.627h-21.785z"/></g><g stroke="#58595B" stroke-width=".5" stroke-miterlimit="10"><g fill="#F1F1F2"><path d="M138.182 141.614h12.9v5.549h-12.9zM137.775 140.523h13.715v1.091h-13.715zM137.775 137.623h13.715v1.089h-13.715z"/><path d="M148.51 142.49h1.204v2.027h-1.204zM143.983 142.49h1.206v2.027h-1.206zM139.458 142.49h1.205v2.027h-1.205zM138.182 138.712h.593v1.813h-.593zM150.278 138.712h.593v1.813h-.593zM147.253 138.712h.593v1.813h-.593zM144.229 138.712h.592v1.813h-.592zM141.206 138.712h.592v1.813h-.592z"/></g><path fill="#D85039" d="M177.338 119.553l.001.002a77.32 77.32 0 0 0-1.261-1.008s11.547 14.994.894 25.895c0 0 8.394 2.291 12.558-7.279 4.166-9.57-12.192-17.61-12.192-17.61z"/><path fill="#D85039" d="M176.428 103.959s18.993 6.077-.145 14.802c0 .001 8.164-5.902.145-14.802z"/><path fill="#F1F1F2" d="M176.071 95.314l.902 56.735h-2.706l.903-56.735z"/><path fill="#F1F1F2" d="M178.255 99.745l-1.054 4.214h-3.16l-1.054-4.214z"/><path fill="#F1F1F2" d="M173.608 103.401h3.875v.558h-3.875zM174.267 118.547h2.706v.451h-2.706zM173.85 143.941h3.488v.576h-3.488z"/><path fill="#D85039" d="M195.236 122.602s22.119 10.231 0 17.789c0 0 7.741-7.703 0-17.789z"/><path fill="#D85039" d="M195.256 109.764s14.165 6.645.876 13.819c0 0 4.544-7.476-.876-13.819z"/><path fill="#D85039" d="M195.236 110.004s24.195 7.535 24.195 27.157c0 0-5.464-4.179-12.497-.545.001 0 6.62-14.526-11.698-26.612z"/><path fill="#F1F1F2" d="M195.21 108.484l.901 43.565h-2.705l.902-43.565z"/><path fill="#F1F1F2" d="M193.709 122.389h2.006v.445h-2.006zM193.903 109.764h1.633v.34h-1.633z"/><path fill="#D85039" d="M158.935 125.795a74.538 74.538 0 0 0-2.455-1.718s.333.372.834 1.032c-.028-.012-.056-.021-.085-.031l.088.033c2.449 3.236 8.897 13.406.059 21.16 0 0 5.183-.883 8.48-3.473 11.879-7.507-1.877-14.75-6.921-17.003z"/><path fill="#D85039" d="M157.374 110.3s18.992 6.068-.146 14.778c.001 0 8.164-5.89.146-14.778z"/><path fill="#F1F1F2" d="M157.018 108.484l.901 43.565h-2.705l.902-43.565z"/><path fill="#F1F1F2" d="M155.443 124.824h2.477v.422h-2.477zM155.214 145.798h2.705v.476h-2.705zM155.637 109.934h1.737v.366h-1.737zM223.487 139.542l-.42-.878-22.963 4.693.989 2.441zM142.75 151.636h-4.905l-4.906 14.716h14.716z"/><path fill="#F1F1F2" d="M206.521 141.824l-29.433 4.906v4.904h-19.621v-4.904l-19.482-1.265s-.141 20.886 9.669 20.886h44.149c.001.001 14.718.001 14.718-24.527z"/><path fill="none" d="M206.521 146.73h-29.433M157.468 147.275h-19.436M205.456 152.049H138.3M203.833 156.912h-64.446M200.868 161.619h-59.744"/><g fill="#F1F1F2"><path d="M145.047 166.352s72.043-16.151 58.322 0h-58.322z"/><path d="M167.431 166.352s41.372-9.274 33.491 0h-33.491z"/></g><path fill="#F1F1F2" d="M146.047 153.339h1.703v2.325h-1.703zM155.44 153.339h1.703v2.325h-1.703zM164.833 153.339h1.702v2.325h-1.702zM174.226 153.339h1.703v2.325h-1.703zM183.619 153.339h1.701v2.325h-1.701zM193.012 153.339h1.703v2.325h-1.703zM157.468 149.465h6.259v.774h-6.259zM171.096 149.465h6.26v.774h-6.26zM162.242 150.239h.646v1.396h-.646zM171.93 150.239h.646v1.396h-.646z"/></g><g stroke="#58595B" stroke-width=".5" stroke-miterlimit="10"><g fill="#F1F1F2"><path d="M66.31 181.235l5.344-1.047.45 2.3-5.344 1.047z" stroke-width=".50002"/><path d="M66.05 180.805l5.682-1.114.09.454-5.684 1.113z" stroke-width=".49998"/><path d="M65.809 179.624l5.684-1.113.088.45-5.684 1.114zM70.659 180.762l.5-.1.167.84-.5.1z" stroke-width=".50002"/><path d="M68.782 181.13l.5-.1.167.838-.5.1z" stroke-width=".49999"/><path d="M66.909 181.48l.499-.098.163.842-.5.096z" stroke-width=".49998"/><path d="M66.466 180.737l-.245.048-.147-.753.245-.048zM71.471 179.745l-.247.047-.142-.753.246-.046zM70.235 179.985l-.247.048-.146-.753.247-.048z" stroke-width=".500015"/><path d="M68.974 180.246l-.246.049-.149-.752.246-.048z" stroke-width=".50001"/><path d="M67.714 180.508l-.246.05-.152-.75.246-.05z" stroke-width=".49999"/></g><path fill="#D85039" d="M83.84 173.018c-.909-3.828-7.843-3.438-8.376-3.401l-.137-.07s5.674 4.989 2.739 10.215c-.173.229-.286.356-.286.356.023 0 .048 0 .071.002-.019.027-.035.058-.054.085 0 0 .526.037 1.229-.147 3.196-.488 5.654-3.507 4.814-7.04z"/><path fill="#D85039" d="M75.698 169.473s4.149-.883 3.781-3.832c-.369-2.947-5.189-2.168-5.189-2.168 4.045 3.037 1.141 6.146 1.141 6.146"/><path fill="#F1F1F2" d="M73.439 159.917l4.976 23.438-1.121.22-4.228-23.584z"/><path fill="#F1F1F2" d="M74.705 161.578l-.096 1.832-1.31.255-.778-1.662z"/><path fill="#F1F1F2" d="M74.727 163.386l-1.607.314-.045-.23 1.606-.315z" stroke-width=".50001"/><path fill="#F1F1F2" d="M75.717 169.653l-1.12.219-.036-.187 1.12-.219z" stroke-width=".500025"/><path fill="#F1F1F2" d="M77.965 180.199l-1.445.283-.047-.238 1.445-.283z" stroke-width=".49999"/><path fill="#F1F1F2" d="M92.426 175.589l-.245-.329-4.885 2.618.609.931zM69.015 185.02l-2.033.396-.838 6.497 6.097-1.195z"/><path fill="#F1F1F2" d="M89.833 176.723l-6.985 3.479.398 2.031-8.131 1.593-.398-2.033-8.176 1.056s1.636 8.668 5.701 7.871l13.481-2.637c0-.002 6.098-1.196 4.11-11.36z"/><path fill="none" d="M90.23 178.757l-7.383 1.443M74.761 182.018l-8.054 1.577M90.22 181.045l-23.015 4.505M89.942 183.191l-21.893 4.286M89.095 185.382l-19.944 3.905"/><g fill="#F1F1F2"><path d="M67.283 191.688s28.543-12.535 24.168-4.729l-24.168 4.729z"/><path d="M76.557 189.874s16.394-7.2 13.878-2.717l-13.878 2.717z"/></g><path fill="#F1F1F2" d="M71.417 186.275l-.705.139-.19-.965.705-.138zM75.322 185.517l-.706.14-.19-.964.706-.14z"/><path fill="#F1F1F2" d="M79.206 184.738l-.706.139-.19-.963.707-.139z" stroke-width=".50002"/><path fill="#F1F1F2" d="M83.081 184.004l-.705.14-.19-.963.706-.14z"/><path fill="#F1F1F2" d="M86.98 183.242l-.706.136-.185-.963.706-.136z" stroke-width=".49999"/><path fill="#F1F1F2" d="M77.595 182.737l-2.593.508-.063-.32 2.593-.508z" stroke-width=".50002"/><path fill="#F1F1F2" d="M83.25 181.637l-2.594.51-.063-.321 2.594-.51zM76.968 182.86l.268-.055.115.577-.267.054z" stroke-width=".49998"/><path fill="#F1F1F2" d="M80.999 182.073l.268-.051.11.58-.268.051z" stroke-width=".500005"/></g><g stroke="#58595B" stroke-width=".5" stroke-miterlimit="10"><path fill="#F1F1F2" d="M292.926 144.41s2.881-.465 3.345 2.417l6.508 40.333s.465 2.881-2.417 3.346l-63.381 10.227s-2.88.465-3.346-2.418l-6.506-40.332s-.467-2.881 2.414-3.347l63.383-10.226z"/><path fill="#FFF" d="M239.409 197.39l-6.508-40.331 60.495-9.762 6.508 40.33z" stroke-width=".499985"/><circle fill="#F1F1F2" cx="233.263" cy="177.684" r="1.892"/></g><g stroke="#58595B" stroke-width=".5" stroke-miterlimit="10"><path fill="#D85039" d="M270.404 171.551c-1.004-4.789-9.634-4.531-10.297-4.505-.057-.028-.109-.06-.168-.09 0 0 6.888 6.388 3.068 12.78-.223.281-.367.436-.367.436.028.003.058.003.087.004-.021.036-.046.07-.068.105 0 0 .651.063 1.532-.143 3.986-.497 7.139-4.167 6.213-8.587z"/><path fill="#D85039" d="M260.404 166.877s5.188-.962 4.824-4.636c-.359-3.677-6.377-2.868-6.377-2.868 4.925 3.91 1.213 7.676 1.213 7.676"/><path fill="#F1F1F2" d="M257.912 154.93l5.409 29.29-1.401.235-4.474-29.447z"/><path fill="#F1F1F2" d="M259.429 157.032l-.177 2.275-1.638.275-.912-2.09z"/><path fill="#F1F1F2" d="M259.397 159.28l-2.005.339-.049-.29 2.005-.337zM260.435 167.132l-1.402.234-.039-.233 1.402-.235z" stroke-width=".500005"/><path fill="#F1F1F2" d="M262.853 180.287l-1.805.305-.05-.297 1.805-.304z" stroke-width=".50002"/><g fill="#F1F1F2"><path d="M247.478 181.331l6.679-1.123.482 2.873-6.678 1.123z" stroke-width=".50002"/><path d="M247.17 180.807l7.097-1.194.095.565-7.097 1.194z" stroke-width=".49998"/><path d="M246.943 179.311l7.1-1.193.094.562-7.1 1.194zM252.9 180.884l.625-.106.177 1.05-.625.105z" stroke-width=".50002"/><path d="M250.557 181.28l.624-.106.177 1.05-.624.105z" stroke-width=".499995"/><path d="M248.22 181.696l.625-.105.177 1.047-.626.105zM247.689 180.716l-.306.052-.159-.94.306-.052z" stroke-width=".50002"/><path d="M253.945 179.66l-.309.05-.154-.939.309-.05z" stroke-width=".49999"/><path d="M252.386 179.925l-.307.052-.158-.94.307-.052zM250.822 180.19l-.308.051-.158-.94.307-.052z" stroke-width=".49998"/><path d="M249.254 180.452l-.307.051-.156-.94.307-.05z" stroke-width=".50002"/></g><path fill="#D85039" d="M273.026 166.911s12.342 3.371 1.55 9.207c-.001 0 3.336-4.66-1.55-9.207z"/><path fill="#D85039" d="M271.919 160.264s7.91 2.205 1.655 7.078c0 0 1.703-4.265-1.655-7.078z"/><path fill="#D85039" d="M271.93 160.391s13.181 1.793 14.89 11.95c0 0-3.192-1.687-6.517.808 0-.003 2.16-8.098-8.373-12.758z"/><path fill="#F1F1F2" d="M271.782 159.607l4.263 22.471-1.402.235-3.325-22.627z"/><path fill="#F1F1F2" d="M273.294 166.991l-1.038.174-.038-.23 1.037-.175z" stroke-width=".49998"/><path fill="#F1F1F2" d="M272.093 160.415l-.845.143-.03-.178.845-.142z" stroke-width=".50002"/><path fill="#F1F1F2" d="M291.455 172.829l-.294-.419-11.478 4.431.724 1.177zM250.716 186.12l-2.541.428-1.256 8.046 7.616-1.283z"/><path fill="#F1F1F2" d="M282.872 175.486l-14.81 5.104.428 2.538-10.156 1.708-.427-2.538-10.195 1.042s1.746 10.823 6.823 9.97l22.854-3.845c.001.002 7.62-1.281 5.483-13.979z"/><path fill="none" d="M283.299 178.027l-15.236 2.565M257.954 182.582l-10.059 1.691M283.21 180.872l-34.763 5.851M282.795 183.532l-33.361 5.613M281.669 186.227l-30.926 5.203"/><g fill="#F1F1F2"><path d="M253.187 193.538s35.886-14.636 30.189-5.079l-30.189 5.079z"/><path d="M264.773 191.589s20.605-8.405 17.336-2.917l-17.336 2.917z"/></g><path fill="#F1F1F2" d="M253.642 187.77l-.88.149-.203-1.204.88-.148z" stroke-width=".500005"/><path fill="#F1F1F2" d="M258.516 186.952l-.882.149-.202-1.203.881-.149z" stroke-width=".499985"/><path fill="#F1F1F2" d="M263.367 186.134l-.88.148-.204-1.205.88-.148z" stroke-width=".500005"/><path fill="#F1F1F2" d="M268.241 185.314l-.881.15-.204-1.204.881-.149z" stroke-width=".49998"/><path fill="#F1F1F2" d="M273.103 184.498l-.882.149-.202-1.204.881-.149z" stroke-width=".499985"/><path fill="#F1F1F2" d="M277.964 183.68l-.88.148-.202-1.203.88-.148zM261.452 183.57l-3.24.544-.068-.4 3.24-.545z" stroke-width=".50002"/><path fill="#F1F1F2" d="M268.508 182.382l-3.242.546-.067-.4 3.241-.547z" stroke-width=".499995"/><path fill="#F1F1F2" d="M260.684 183.71l.334-.057.122.722-.334.057z" stroke-width=".49999"/><path fill="#F1F1F2" d="M265.683 182.843l.335-.055.118.724-.334.055z" stroke-width=".49998"/></g></svg>