<?xml version="1.0" encoding="utf-8"?>
<!-- Generator: Adobe Illustrator 16.0.0, SVG Export Plug-In . SVG Version: 6.00 Build 0)  -->
<!DOCTYPE svg PUBLIC "-//W3C//DTD SVG 1.1//EN" "http://www.w3.org/Graphics/SVG/1.1/DTD/svg11.dtd">
<svg version="1.1" id="Layer_1" xmlns="http://www.w3.org/2000/svg" xmlns:xlink="http://www.w3.org/1999/xlink" x="0px" y="0px"
	 width="1980px" height="700px" viewBox="0 200 1980 700" enable-background="new 0 0 1980 700" xml:space="preserve">
<g>
	<path fill="#FFFFFF" stroke="#A3A6AC" stroke-miterlimit="10" d="M1132.144,725.516c1.5,0.14,52.356-30.879,52.356-30.879
		l36.286-24.076l102.204,23.43l288.259-17.191l165.937,26.328l-4.713,15.279l-588.532,14.936L1132.144,725.516z"/>
	<g>
		
			<rect x="1782.209" y="677.314" transform="matrix(-0.9997 0.0226 -0.0226 -0.9997 3587.2529 1324.9731)" fill="#FFFFFF" stroke="#A3A6AC" stroke-miterlimit="10" width="7.869" height="10.861"/>
		
			<rect x="1782.209" y="682.428" transform="matrix(-0.9997 0.0226 -0.0226 -0.9997 3587.252 1324.9722)" fill="#FFFFFF" stroke="#A3A6AC" stroke-miterlimit="10" width="7.869" height="0.633"/>
		<polygon fill="#FFFFFF" stroke="#A3A6AC" stroke-miterlimit="10" points="1790.068,679.248 1782.216,679.988 1782.2,679.355 
			1790.066,679.176 		"/>
		
			<rect x="1781.648" y="673.421" transform="matrix(-0.9997 0.0227 -0.0227 -0.9997 3586.8784 1311.9423)" fill="#FFFFFF" stroke="#A3A6AC" stroke-miterlimit="10" width="8.69" height="5.818"/>
		
			<rect x="1787.115" y="684.688" transform="matrix(-0.9998 0.0223 -0.0223 -0.9998 3590.8262 1332.8737)" fill="#FFFFFF" stroke="#A3A6AC" stroke-miterlimit="10" width="1.754" height="3.479"/>
		
			<rect x="1783.885" y="683.984" transform="matrix(-0.9997 0.0232 -0.0232 -0.9997 3584.8682 1328.8707)" fill="#FFFFFF" stroke="#A3A6AC" stroke-miterlimit="10" width="1.684" height="2.485"/>
		
			<rect x="1784.215" y="684.144" transform="matrix(-0.9997 0.0227 -0.0227 -0.9997 3584.582 1329.562)" fill="#FFFFFF" stroke="#A3A6AC" stroke-miterlimit="10" width="1.031" height="2.041"/>
		
			<rect x="1783.776" y="679.582" transform="matrix(-0.9997 0.0232 -0.0232 -0.9997 3584.5376 1319.2339)" fill="#FFFFFF" stroke="#A3A6AC" stroke-miterlimit="10" width="1.684" height="1.649"/>
		
			<rect x="1784.106" y="679.842" transform="matrix(-0.9997 0.0227 -0.0227 -0.9997 3584.2537 1319.9261)" fill="#FFFFFF" stroke="#A3A6AC" stroke-miterlimit="10" width="1.031" height="1.006"/>
		
			<rect x="1787.145" y="679.506" transform="matrix(-0.9997 0.0232 -0.0232 -0.9997 3591.2734 1319.0044)" fill="#FFFFFF" stroke="#A3A6AC" stroke-miterlimit="10" width="1.684" height="1.65"/>
		
			<rect x="1787.475" y="679.766" transform="matrix(-0.9997 0.0227 -0.0227 -0.9997 3590.9893 1319.6952)" fill="#FFFFFF" stroke="#A3A6AC" stroke-miterlimit="10" width="1.031" height="1.004"/>
	</g>
	<g>
		
			<rect x="1788.201" y="675.753" transform="matrix(-0.9997 0.0226 -0.0226 -0.9997 3599.1987 1321.7183)" fill="#FFFFFF" stroke="#A3A6AC" stroke-miterlimit="10" width="7.869" height="10.864"/>
		
			<rect x="1788.202" y="680.867" transform="matrix(-0.9997 0.0226 -0.0226 -0.9997 3599.2014 1321.713)" fill="#FFFFFF" stroke="#A3A6AC" stroke-miterlimit="10" width="7.868" height="0.635"/>
		<polygon fill="#FFFFFF" stroke="#A3A6AC" stroke-miterlimit="10" points="1796.063,677.689 1788.208,678.428 1788.191,677.795 
			1796.061,677.617 		"/>
		
			<rect x="1787.647" y="671.814" transform="matrix(-0.9997 0.0225 -0.0225 -0.9997 3598.6978 1308.9951)" fill="#FFFFFF" stroke="#A3A6AC" stroke-miterlimit="10" width="8.689" height="5.82"/>
		
			<rect x="1792.966" y="683.101" transform="matrix(-0.9997 0.0234 -0.0234 -0.9997 3603.2144 1327.53)" fill="#FFFFFF" stroke="#A3A6AC" stroke-miterlimit="10" width="1.753" height="3.477"/>
		
			<rect x="1789.981" y="682.549" transform="matrix(-0.9998 0.022 -0.022 -0.9998 3596.2788 1327.9529)" fill="#FFFFFF" stroke="#A3A6AC" stroke-miterlimit="10" width="1.684" height="2.485"/>
		
			<rect x="1790.206" y="682.585" transform="matrix(-0.9997 0.0227 -0.0227 -0.9997 3596.5273 1326.308)" fill="#FFFFFF" stroke="#A3A6AC" stroke-miterlimit="10" width="1.031" height="2.042"/>
		
			<rect x="1789.872" y="678.146" transform="matrix(-0.9998 0.022 -0.022 -0.9998 3595.9551 1318.3176)" fill="#FFFFFF" stroke="#A3A6AC" stroke-miterlimit="10" width="1.684" height="1.651"/>
		
			<rect x="1790.057" y="678.383" transform="matrix(-0.9997 0.0227 -0.0227 -0.9997 3596.0957 1316.9507)" fill="#FFFFFF" stroke="#A3A6AC" stroke-miterlimit="10" width="1.032" height="1.006"/>
		
			<rect x="1793.241" y="678.069" transform="matrix(-0.9998 0.022 -0.022 -0.9998 3602.6907 1318.0901)" fill="#FFFFFF" stroke="#A3A6AC" stroke-miterlimit="10" width="1.684" height="1.652"/>
		
			<rect x="1793.426" y="678.307" transform="matrix(-0.9997 0.0227 -0.0227 -0.9997 3602.8315 1316.7228)" fill="#FFFFFF" stroke="#A3A6AC" stroke-miterlimit="10" width="1.032" height="1.005"/>
	</g>
	<g>
		
			<rect x="1538.359" y="671.375" transform="matrix(-0.9997 0.0225 -0.0225 -0.9997 3092.6719 1311.6829)" fill="#FFFFFF" stroke="#A3A6AC" stroke-miterlimit="10" width="1.217" height="3.679"/>
		
			<rect x="1537.659" y="676.944" transform="matrix(-0.9997 0.0226 -0.0226 -0.9997 3098.2063 1329.7521)" fill="#FFFFFF" stroke="#A3A6AC" stroke-miterlimit="10" width="7.868" height="10.861"/>
		
			<rect x="1537.658" y="682.058" transform="matrix(-0.9997 0.0226 -0.0226 -0.9997 3098.2043 1329.7556)" fill="#FFFFFF" stroke="#A3A6AC" stroke-miterlimit="10" width="7.869" height="0.633"/>
		<polygon fill="#FFFFFF" stroke="#A3A6AC" stroke-miterlimit="10" points="1545.507,678.875 1537.652,679.615 1537.638,678.982 
			1545.505,678.803 		"/>
		
			<rect x="1537.095" y="673.047" transform="matrix(-0.9997 0.0227 -0.0227 -0.9997 3097.8276 1316.7458)" fill="#FFFFFF" stroke="#A3A6AC" stroke-miterlimit="10" width="8.69" height="5.818"/>
		
			<rect x="1542.541" y="684.324" transform="matrix(-0.9998 0.0223 -0.0223 -0.9998 3101.7295 1337.5909)" fill="#FFFFFF" stroke="#A3A6AC" stroke-miterlimit="10" width="1.754" height="3.479"/>
		
			<rect x="1539.33" y="683.612" transform="matrix(-0.9997 0.0232 -0.0232 -0.9997 3095.8159 1333.7993)" fill="#FFFFFF" stroke="#A3A6AC" stroke-miterlimit="10" width="1.684" height="2.485"/>
		
			<rect x="1539.662" y="683.78" transform="matrix(-0.9997 0.0227 -0.0227 -0.9997 3095.5305 1334.3955)" fill="#FFFFFF" stroke="#A3A6AC" stroke-miterlimit="10" width="1.031" height="2.041"/>
		
			<rect x="1539.22" y="679.211" transform="matrix(-0.9997 0.0232 -0.0232 -0.9997 3095.4846 1324.1646)" fill="#FFFFFF" stroke="#A3A6AC" stroke-miterlimit="10" width="1.684" height="1.649"/>
		
			<rect x="1539.555" y="679.477" transform="matrix(-0.9997 0.0228 -0.0228 -0.9997 3095.219 1324.7258)" fill="#FFFFFF" stroke="#A3A6AC" stroke-miterlimit="10" width="1.03" height="1.006"/>
		
			<rect x="1542.59" y="679.135" transform="matrix(-0.9997 0.0232 -0.0232 -0.9997 3102.2212 1323.9341)" fill="#FFFFFF" stroke="#A3A6AC" stroke-miterlimit="10" width="1.684" height="1.649"/>
		
			<rect x="1542.924" y="679.401" transform="matrix(-0.9997 0.0228 -0.0228 -0.9997 3101.9546 1324.4948)" fill="#FFFFFF" stroke="#A3A6AC" stroke-miterlimit="10" width="1.03" height="1.004"/>
	</g>
	<polygon fill="#FFFFFF" stroke="#A3A6AC" stroke-miterlimit="10" points="1834.093,713.328 1791.655,681.514 1730.655,692.629 
		1521.659,681.584 1107.543,729.453 1119.144,752.758 1815.97,725.725 	"/>
	<g>
		<rect x="1730.223" y="674.775" fill="#FFFFFF" stroke="#A3A6AC" stroke-miterlimit="10" width="14.01" height="19.344"/>
		<rect x="1730.223" y="683.883" fill="#FFFFFF" stroke="#A3A6AC" stroke-miterlimit="10" width="14.01" height="1.129"/>
		<polygon fill="#FFFFFF" stroke="#A3A6AC" stroke-miterlimit="10" points="1744.23,678.281 1730.223,679.281 1730.223,678.152 
			1744.23,678.152 		"/>
		<rect x="1729.489" y="667.791" fill="#FFFFFF" stroke="#A3A6AC" stroke-miterlimit="10" width="15.475" height="10.361"/>
		<rect x="1731.823" y="664.813" fill="#FFFFFF" stroke="#A3A6AC" stroke-miterlimit="10" width="2.166" height="6.554"/>
		<rect x="1738.489" y="687.926" fill="#FFFFFF" stroke="#A3A6AC" stroke-miterlimit="10" width="3.125" height="6.193"/>
		<rect x="1733.073" y="686.549" fill="#FFFFFF" stroke="#A3A6AC" stroke-miterlimit="10" width="3" height="4.426"/>
		<rect x="1733.655" y="686.945" fill="#FFFFFF" stroke="#A3A6AC" stroke-miterlimit="10" width="1.834" height="3.633"/>
		<rect x="1733.073" y="678.709" fill="#FFFFFF" stroke="#A3A6AC" stroke-miterlimit="10" width="3" height="2.938"/>
		<rect x="1733.655" y="679.281" fill="#FFFFFF" stroke="#A3A6AC" stroke-miterlimit="10" width="1.834" height="1.791"/>
		<rect x="1739.073" y="678.709" fill="#FFFFFF" stroke="#A3A6AC" stroke-miterlimit="10" width="3" height="2.938"/>
		<rect x="1739.657" y="679.281" fill="#FFFFFF" stroke="#A3A6AC" stroke-miterlimit="10" width="1.834" height="1.791"/>
	</g>
	<g>
		
			<rect x="1585.059" y="670.422" transform="matrix(0.9997 0.0226 -0.0226 0.9997 15.765 -35.7812)" fill="#FFFFFF" stroke="#A3A6AC" stroke-miterlimit="10" width="14.01" height="19.344"/>
		
			<rect x="1585.06" y="679.531" transform="matrix(0.9997 0.0227 -0.0227 0.9997 15.816 -35.8935)" fill="#FFFFFF" stroke="#A3A6AC" stroke-miterlimit="10" width="14.009" height="1.128"/>
		<polygon fill="#FFFFFF" stroke="#A3A6AC" stroke-miterlimit="10" points="1585.116,673.77 1599.102,675.086 1599.126,673.957 
			1585.12,673.641 		"/>
		
			<rect x="1584.579" y="663.456" transform="matrix(0.9997 0.0226 -0.0226 0.9997 15.5135 -35.8058)" fill="#FFFFFF" stroke="#A3A6AC" stroke-miterlimit="10" width="15.474" height="10.361"/>
		
			<rect x="1595.635" y="660.649" transform="matrix(0.9997 0.0225 -0.0225 0.9997 15.3684 -35.8168)" fill="#FFFFFF" stroke="#A3A6AC" stroke-miterlimit="10" width="2.167" height="6.552"/>
		
			<rect x="1587.484" y="683.557" transform="matrix(0.9997 0.0231 -0.0231 0.9997 16.2993 -36.5533)" fill="#FFFFFF" stroke="#A3A6AC" stroke-miterlimit="10" width="3.126" height="6.192"/>
		
			<rect x="1593.113" y="682.249" transform="matrix(0.9997 0.0228 -0.0228 0.9997 16.0062 -36.1486)" fill="#FFFFFF" stroke="#A3A6AC" stroke-miterlimit="10" width="3.001" height="4.425"/>
		
			<rect x="1593.646" y="682.702" transform="matrix(0.9997 0.0234 -0.0234 0.9997 16.4799 -37.181)" fill="#FFFFFF" stroke="#A3A6AC" stroke-miterlimit="10" width="1.834" height="3.634"/>
		
			<rect x="1593.129" y="674.454" transform="matrix(0.9998 0.0221 -0.0221 0.9998 15.3538 -35.1349)" fill="#FFFFFF" stroke="#A3A6AC" stroke-miterlimit="10" width="3" height="2.938"/>
		
			<rect x="1593.906" y="674.993" transform="matrix(0.9997 0.0224 -0.0224 0.9997 15.5276 -35.5267)" fill="#FFFFFF" stroke="#A3A6AC" stroke-miterlimit="10" width="1.832" height="1.791"/>
		
			<rect x="1587.308" y="674.275" transform="matrix(0.9997 0.0228 -0.0228 0.9997 15.8062 -36.0186)" fill="#FFFFFF" stroke="#A3A6AC" stroke-miterlimit="10" width="3.001" height="2.937"/>
		
			<rect x="1587.841" y="674.904" transform="matrix(0.9997 0.0234 -0.0234 0.9997 16.2739 -37.0473)" fill="#FFFFFF" stroke="#A3A6AC" stroke-miterlimit="10" width="1.834" height="1.791"/>
	</g>
	<polyline fill="#FFFFFF" stroke="#A3A6AC" stroke-miterlimit="10" points="1668.72,713.328 1710.275,704.967 1703.747,713.328 
		1668.72,713.328 	"/>
	<g>
		<rect x="1755.964" y="671.975" fill="#FFFFFF" stroke="#A3A6AC" stroke-miterlimit="10" width="21.859" height="19.345"/>
		<rect x="1755.964" y="680.5" fill="#FFFFFF" stroke="#A3A6AC" stroke-miterlimit="10" width="21.859" height="1.146"/>
		<rect x="1764.905" y="685.012" fill="#FFFFFF" stroke="#A3A6AC" stroke-miterlimit="10" width="3.977" height="6.308"/>
		<polygon fill="#FFFFFF" stroke="#A3A6AC" stroke-miterlimit="10" points="1777.823,672.924 1755.964,673.924 1755.964,671.975 
			1777.823,671.975 		"/>
		<rect x="1754.823" y="664.988" fill="#FFFFFF" stroke="#A3A6AC" stroke-miterlimit="10" width="24.141" height="6.985"/>
		<rect x="1759.198" y="683.74" fill="#FFFFFF" stroke="#A3A6AC" stroke-miterlimit="10" width="3" height="4.426"/>
		<rect x="1759.78" y="684.137" fill="#FFFFFF" stroke="#A3A6AC" stroke-miterlimit="10" width="1.834" height="3.633"/>
		<rect x="1771.198" y="683.74" fill="#FFFFFF" stroke="#A3A6AC" stroke-miterlimit="10" width="3" height="4.426"/>
		<rect x="1771.782" y="684.137" fill="#FFFFFF" stroke="#A3A6AC" stroke-miterlimit="10" width="1.834" height="3.633"/>
		<rect x="1759.198" y="675.9" fill="#FFFFFF" stroke="#A3A6AC" stroke-miterlimit="10" width="3" height="2.938"/>
		<rect x="1759.78" y="676.473" fill="#FFFFFF" stroke="#A3A6AC" stroke-miterlimit="10" width="1.834" height="1.791"/>
		<rect x="1765.198" y="675.9" fill="#FFFFFF" stroke="#A3A6AC" stroke-miterlimit="10" width="3" height="2.938"/>
		<rect x="1765.782" y="676.473" fill="#FFFFFF" stroke="#A3A6AC" stroke-miterlimit="10" width="1.834" height="1.791"/>
		<rect x="1771.2" y="675.9" fill="#FFFFFF" stroke="#A3A6AC" stroke-miterlimit="10" width="3" height="2.938"/>
		<rect x="1771.782" y="676.473" fill="#FFFFFF" stroke="#A3A6AC" stroke-miterlimit="10" width="1.834" height="1.791"/>
		<rect x="1773.614" y="663.842" fill="#FFFFFF" stroke="#A3A6AC" stroke-miterlimit="10" width="2.375" height="2.875"/>
	</g>
	<path fill="#FFFFFF" stroke="#A3A6AC" stroke-miterlimit="10" d="M1791.655,681.514l19.875,26.076c0,0-14.875,5.738-14.5,5.738
		s37.063,0,37.063,0L1791.655,681.514z"/>
	<polyline fill="#FFFFFF" stroke="#A3A6AC" stroke-miterlimit="10" points="1703.747,713.328 1710.275,704.967 1721.729,713.328 	
		"/>
	<g>
		<path fill="#FFFFFF" stroke="#A3A6AC" stroke-width="1.1192" stroke-miterlimit="10" d="M1582.157,687.693
			c0.092-0.168-3.304-23.154,0.756-46.691"/>
		<path fill="#FFFFFF" stroke="#A3A6AC" stroke-miterlimit="10" d="M1583.987,640.908c0,0-12.873-9.92-18.326,2.512
			c0,0,2.426-1.594,3.364-3.137c0,0-0.536,0.912-0.575,1.942c0,0,1.475-0.553,2.166-2.247c0,0-0.209,0.795,0.086,1.604
			c0,0,1.264-0.563,2.313-3.195c0,0-0.63,1.849-0.507,2.607c0,0,1.404,0.229,2.716-1.844c0,0-0.431,0.727-0.255,1.664
			c0,0,1.688,0.178,2.464-1.171c0,0-0.179,1.046,0.17,1.683c0,0,0.965-0.008,2.11-1.619c0,0-0.481,1.086-0.28,1.762
			c0,0,1.233-0.008,1.78-0.862c0,0-0.139,0.467,0.068,0.85c0,0,2.057,0.289,2.674-0.438"/>
		<path fill="#FFFFFF" stroke="#A3A6AC" stroke-miterlimit="10" d="M1582.87,640.471c-0.062-0.055,9.34-5.83,14.437,0.357
			c0,0-1.341-0.117-1.998-0.887c0,0,0.266,0.584-0.244,1.309c0,0-1.076-0.168-2.209-2.182c0,0,0.842,1.297,0.573,1.981
			c0,0-0.875,0.324-2.354-1.549c0,0,0.413,0.666,0.047,1.391c0,0-1.134-0.028-2.07-1.489c0,0,0.427,0.694,0.195,1.477
			c0,0-0.854,0.229-1.826-0.816c0,0,0.271,0.525-0.113,1.14c0,0-0.938,0.094-1.713-1.031c0,0,0.386,0.592,0.146,1.064
			C1585.739,641.234,1583.675,641.18,1582.87,640.471z"/>
		<path fill="#FFFFFF" stroke="#A3A6AC" stroke-miterlimit="10" d="M1582.479,641.502c-0.09,0,0.289-8.512,9.651-7.457
			c0,0-0.979,0.644-2.157,0.523c0,0,0.743,0.213,1.127,0.926c0,0-0.857,0.471-3.566-0.154c0,0,1.818,0.342,2.316,0.902
			c0,0-0.242,0.662-3.037,0.309c0,0,0.922,0.187,1.396,0.82c0,0-0.758,0.586-2.799,0.195c0,0,0.959,0.196,1.578,0.795
			c0,0-0.326,0.594-1.979,0.475c0,0,0.688,0.174,1.047,0.752c0,0-0.514,0.558-2.117,0.283c0,0,0.83,0.156,1.14,0.57
			C1585.077,640.441,1583.693,641.506,1582.479,641.502z"/>
		<path fill="#FFFFFF" stroke="#A3A6AC" stroke-miterlimit="10" d="M1583.296,640.662c0,0,9.734-4.564,11.457,6.098
			c0,0-1.149-0.682-2.188-2.896c0,0,0.104,0.604-0.528,1.379c0,0-0.832-1.027-0.767-3.172c0,0,0.025,1.948-0.479,2.338
			c0,0-1.27-1.154-1.32-3.074c0,0,0.168,1.404-0.461,2.203c0,0-1.049-1.045-1.162-2.445c0,0,0.172,0.787-0.313,1.416
			c0,0-0.707,0.029-1.254-1.287c0,0,0.059,0.396-0.414,0.834C1585.868,642.055,1583.979,641.514,1583.296,640.662z"/>
		<path fill="#FFFFFF" stroke="#A3A6AC" stroke-miterlimit="10" d="M1583.956,640.834c0,0-10.604-5.795-11.412,6.625
			c0,0,0.916-1.268,1.104-3.191c0,0,0.053,0.984,0.623,1.74c0,0,1-1.5,0.668-3.289c0,0,0.096,0.849,0.744,1.597
			c0,0,0.655-0.48,0.362-3.091c0,0,0.345,1.588,1.082,2.117c0,0,0.945-0.531,1.31-2.313c0,0-0.295,1.293-0.062,1.891
			c0,0,1.724-0.754,1.813-2.033c0,0-0.071,0.769,0.265,1.275c0,0,0.892-0.252,1.213-1.195c0,0,0.771,1.889,2.424-0.117"/>
		<path fill="#FFFFFF" stroke="#A3A6AC" stroke-miterlimit="10" d="M1583.845,640.525c0,0-6.815-12.146-15.243-2.906
			c0,0,1.676-0.348,3.043-1.734c0,0-0.554,0.816-0.462,1.82c0,0,1.902-0.471,2.679-2.125c0,0-0.429,0.74-0.254,1.795
			c0,0,0.938,0.088,2.256-2.186c0,0-0.642,1.502-0.244,2.444c0,0,1.254,0.256,2.705-0.893c0,0-1.086,0.813-1.224,1.451
			c0,0,2.15,0.633,3.025-0.314c0,0-0.541,0.557-0.525,1.197c0,0,1.025,0.436,1.922-0.078c0,0-0.409,2.041,2.443,1.635"/>
	</g>
	<g>
		<path fill="#FFFFFF" stroke="#A3A6AC" stroke-width="0.8911" stroke-miterlimit="10" d="M1785.307,682.654
			c0.084-0.127,0.127-11.927,2.344-28.092"/>
		<path fill="#FFFFFF" stroke="#A3A6AC" stroke-miterlimit="10" d="M1787.966,653.813c0,0-11.655-0.379-8.803,10.027
			c0,0,0.573-2.129,0.362-3.539c0,0,0.134,0.824,0.597,1.498c0,0,0.545-1.029,0.127-2.424c0,0,0.258,0.6,0.799,0.979
			c0,0,0.424-0.938-0.238-3.094c0,0,0.523,1.463,0.947,1.89c0,0,0.871-0.5,0.613-2.423c0,0,0.106,0.662,0.643,1.175
			c0,0,1.002-0.662,0.791-1.875c0,0,0.396,0.743,0.881,0.989c0,0,0.521-0.448,0.394-2.002c0,0,0.246,0.914,0.67,1.25
			c0,0,0.668-0.573,0.566-1.369c0,0,0.145,0.361,0.436,0.509c0,0,1.256-0.763,1.25-1.509"/>
		<path fill="#FFFFFF" stroke="#A3A6AC" stroke-miterlimit="10" d="M1787.648,654.137c-0.043-0.045,7.789-4.021,11.435,1.22
			c0,0-1.058-0.183-1.529-0.834c0,0,0.173,0.479-0.278,1.021c0,0-0.843-0.203-1.611-1.873c0,0,0.586,1.084,0.326,1.609
			c0,0-0.715,0.201-1.766-1.381c0,0,0.284,0.557-0.054,1.106c0,0-0.897-0.098-1.547-1.315c0,0,0.293,0.58,0.06,1.184
			c0,0-0.693,0.127-1.396-0.766c0,0,0.18,0.434-0.164,0.896c0,0-0.752,0.015-1.293-0.93c0,0,0.267,0.496,0.045,0.854
			C1789.876,654.928,1788.241,654.75,1787.648,654.137z"/>
		<path fill="#FFFFFF" stroke="#A3A6AC" stroke-miterlimit="10" d="M1787.648,654.102c-0.016-0.063,8.763,0.259,9.41,6.607
			c0,0-0.838-0.67-0.934-1.469c0,0-0.082,0.502-0.74,0.756c0,0-0.637-0.584-0.5-2.418c0,0-0.014,1.229-0.494,1.563
			c0,0-0.723-0.168-0.877-2.063c0,0-0.02,0.625-0.582,0.94c0,0-0.737-0.52-0.715-1.899c0,0-0.024,0.647-0.521,1.063
			c0,0-0.668-0.225-0.853-1.346c0,0-0.053,0.465-0.576,0.705c0,0-0.666-0.352-0.682-1.439c0,0-0.006,0.563-0.373,0.769
			C1789.214,655.873,1787.87,654.926,1787.648,654.102z"/>
		<path fill="#FFFFFF" stroke="#A3A6AC" stroke-miterlimit="10" d="M1787.271,654.93c-0.072,0,1.319-8.063,8.803-6.914
			c0,0-0.879,0.595-1.822,0.463c0,0,0.578,0.216,0.799,0.896c0,0-0.758,0.432-2.883-0.201c0,0,1.436,0.353,1.771,0.892
			c0,0-0.283,0.625-2.511,0.243c0,0,0.726,0.189,1.029,0.802c0,0-0.691,0.543-2.302,0.141c0,0,0.757,0.201,1.183,0.775
			c0,0-0.34,0.559-1.668,0.42c0,0,0.537,0.176,0.754,0.729c0,0-0.487,0.521-1.758,0.234c0,0,0.655,0.16,0.854,0.559
			C1789.521,653.967,1788.259,654.953,1787.271,654.93z"/>
		<path fill="#FFFFFF" stroke="#A3A6AC" stroke-miterlimit="10" d="M1787.977,654.314c0,0-9.509-2.99-10.313,5.58
			c0,0,1.03-0.615,1.836-2.439c0,0-0.051,0.488,0.604,1.061c0,0,0.703-0.869,0.479-2.565c0,0,0.125,1.549,0.629,1.824
			c0,0,1.105-0.996,1.006-2.523c0,0-0.051,1.123,0.604,1.719c0,0,0.905-0.897,0.903-2.016c0,0-0.1,0.635,0.404,1.102
			c0,0,0.666-0.021,1.08-1.102c0,0-0.025,0.315,0.453,0.635C1785.661,655.588,1787.396,655.037,1787.977,654.314z"/>
		<path fill="#FFFFFF" stroke="#A3A6AC" stroke-miterlimit="10" d="M1787.977,654.193c0,0-6.869-7.222-11.726-0.111
			c0,0,1.199-0.039,2.787-1.246c0,0-0.279,0.402,0.014,1.221c0,0,1.039-0.42,1.662-2.016c0,0-0.639,1.416-0.332,1.902
			c0,0,1.451-0.338,2.103-1.724c0,0-0.588,0.959-0.306,1.797c0,0,1.229-0.346,1.771-1.325c0,0-0.396,0.508-0.184,1.159
			c0,0,0.596,0.306,1.481-0.44c0,0-0.178,0.266,0.086,0.774C1785.333,654.186,1787.12,654.545,1787.977,654.193z"/>
		<path fill="#FFFFFF" stroke="#A3A6AC" stroke-miterlimit="10" d="M1788.321,654.436c0,0-10.23,4.279-3.691,11.789
			c0,0-0.123-1.356-1.094-2.563c0,0,0.594,0.512,1.396,0.528c0,0-0.197-1.545-1.434-2.311c0,0,0.545,0.406,1.395,0.365
			c0,0,0.156-0.734-1.521-1.984c0,0,1.129,0.646,1.912,0.416c0,0,0.315-0.969-0.461-2.221c0,0,0.545,0.934,1.036,1.1
			c0,0,0.697-1.643,0.027-2.422c0,0,0.393,0.48,0.898,0.525c0,0,0.438-0.771,0.113-1.527c0,0,1.578,0.51,1.518-1.783"/>
	</g>
	<g>
		<path fill="#FFFFFF" stroke="#A3A6AC" stroke-width="2" stroke-miterlimit="10" d="M1749.729,692.021
			c-0.129-0.193-0.195-18.22-3.582-42.921"/>
		<path fill="#FFFFFF" stroke="#A3A6AC" stroke-miterlimit="10" d="M1745.655,648.113c0,0,15.366-0.498,11.606,13.221
			c0,0-0.758-2.807-0.479-4.668c0,0-0.177,1.09-0.785,1.977c0,0-0.719-1.356-0.166-3.194c0,0-0.342,0.791-1.053,1.291
			c0,0-0.562-1.236,0.313-4.078c0,0-0.69,1.93-1.248,2.49c0,0-1.147-0.66-0.811-3.191c0,0-0.142,0.871-0.847,1.547
			c0,0-1.319-0.873-1.043-2.473c0,0-0.52,0.981-1.162,1.307c0,0-0.688-0.594-0.516-2.641c0,0-0.324,1.205-0.885,1.647
			c0,0-0.881-0.756-0.748-1.805c0,0-0.188,0.477-0.574,0.67c0,0-1.652-1.004-1.646-1.988"/>
		<path fill="#FFFFFF" stroke="#A3A6AC" stroke-miterlimit="10" d="M1746.073,648.541c0.059-0.061-10.271-5.301-15.072,1.605
			c0,0,1.394-0.236,2.015-1.099c0,0-0.228,0.633,0.37,1.349c0,0,1.109-0.269,2.121-2.472c0,0-0.771,1.431-0.43,2.121
			c0,0,0.942,0.269,2.329-1.82c0,0-0.377,0.734,0.07,1.459c0,0,1.184-0.127,2.039-1.733c0,0-0.387,0.764-0.08,1.563
			c0,0,0.916,0.166,1.84-1.01c0,0-0.235,0.57,0.217,1.182c0,0,0.992,0.019,1.703-1.227c0,0-0.35,0.652-0.059,1.125
			C1743.138,649.584,1745.292,649.352,1746.073,648.541z"/>
		<path fill="#FFFFFF" stroke="#A3A6AC" stroke-miterlimit="10" d="M1746.073,648.496c0.021-0.082-11.552,0.34-12.406,8.709
			c0,0,1.104-0.883,1.229-1.937c0,0,0.107,0.662,0.978,0.998c0,0,0.84-0.771,0.66-3.188c0,0,0.018,1.623,0.649,2.063
			c0,0,0.953-0.225,1.156-2.721c0,0,0.025,0.822,0.768,1.24c0,0,0.976-0.685,0.943-2.504c0,0,0.031,0.854,0.688,1.403
			c0,0,0.881-0.299,1.12-1.774c0,0,0.068,0.612,0.763,0.928c0,0,0.875-0.463,0.896-1.896c0,0,0.008,0.739,0.492,1.012
			C1744.011,650.83,1745.782,649.582,1746.073,648.496z"/>
		<path fill="#FFFFFF" stroke="#A3A6AC" stroke-miterlimit="10" d="M1747.239,649.725c-0.009-0.098-10.533,2.25-8.546,12.031
			c0,0,0.726-1.195,0.492-2.43c0,0,0.318,0.746,1.23,0.994c0,0,0.52-1.023-0.451-3.781c0,0,0.557,1.867,1.285,2.275
			c0,0,0.805-0.412,0.164-3.32c0,0,0.297,0.94,1.119,1.305c0,0,0.67-0.945,0.039-3.039c0,0,0.313,0.98,1.098,1.506
			c0,0,0.713-0.481,0.445-2.223c0,0,0.266,0.695,1.01,0.947c0,0,0.654-0.678,0.197-2.33c0,0,0.252,0.852,0.789,1.088
			C1746.112,652.748,1747.331,651.023,1747.239,649.725z"/>
		<path fill="#FFFFFF" stroke="#A3A6AC" stroke-miterlimit="10" d="M1745.645,648.777c0,0,12.535-3.945,13.596,7.354
			c0,0-1.359-0.811-2.422-3.217c0,0,0.067,0.645-0.795,1.397c0,0-0.929-1.146-0.629-3.383c0,0-0.166,2.041-0.83,2.404
			c0,0-1.459-1.314-1.326-3.328c0,0,0.065,1.482-0.795,2.266c0,0-1.197-1.182-1.193-2.655c0,0,0.133,0.838-0.531,1.453
			c0,0-0.879-0.029-1.426-1.453c0,0,0.033,0.418-0.598,0.838C1748.693,650.455,1746.407,649.729,1745.645,648.777z"/>
		<path fill="#FFFFFF" stroke="#A3A6AC" stroke-miterlimit="10" d="M1745.645,648.617c0,0,9.057-9.521,15.459-0.148
			c0,0-1.582-0.053-3.679-1.643c0,0,0.369,0.531-0.018,1.608c0,0-1.369-0.555-2.191-2.655c0,0,0.845,1.867,0.439,2.506
			c0,0-1.912-0.443-2.771-2.271c0,0,0.775,1.267,0.402,2.367c0,0-1.619-0.455-2.332-1.746c0,0,0.521,0.67,0.239,1.529
			c0,0-0.782,0.4-1.952-0.582c0,0,0.231,0.35-0.115,1.023C1749.126,648.607,1746.771,649.078,1745.645,648.617z"/>
		<path fill="#FFFFFF" stroke="#A3A6AC" stroke-miterlimit="10" d="M1745.188,648.934c0,0,13.486,5.644,4.865,15.545
			c0,0,0.162-1.788,1.443-3.383c0,0-0.785,0.677-1.842,0.699c0,0,0.262-2.037,1.891-3.047c0,0-0.719,0.535-1.84,0.479
			c0,0-0.205-0.967,2.006-2.614c0,0-1.488,0.85-2.52,0.549c0,0-0.418-1.275,0.604-2.928c0,0-0.717,1.229-1.365,1.448
			c0,0-0.92-2.166-0.036-3.19c0,0-0.517,0.631-1.187,0.69c0,0-0.578-1.018-0.147-2.014c0,0-2.08,0.674-2-2.35"/>
		<path fill="#FFFFFF" stroke="#A3A6AC" stroke-miterlimit="10" d="M1744.626,649.969c0,0-1.021-13.102,10.229-11.59
			c0,0-1.097,1.141-3.681,1.635c0,0,0.644,0.078,1.185,1.088c0,0-1.324,0.646-3.438-0.146c0,0,1.951,0.621,2.156,1.348
			c0,0-1.609,1.127-3.541,0.543c0,0,1.459,0.271,2.028,1.287c0,0-1.422,0.898-2.858,0.564c0,0,0.848,0.059,1.299,0.844
			c0,0-0.228,0.85-1.738,1.063c0,0,0.416,0.061,0.685,0.77C1746.95,647.373,1745.727,649.439,1744.626,649.969z"/>
	</g>
	<g>
		<path fill="#FFFFFF" stroke="#A3A6AC" stroke-miterlimit="10" d="M1595.605,690.227c0,0,0-3.856,3.857-3.856
			s3.857,3.856,3.857,3.856H1595.605z"/>
		<path fill="#FFFFFF" stroke="#A3A6AC" stroke-miterlimit="10" d="M1599.464,690.227c0,0-1.93-5.784,5.785-5.784
			s5.785,5.784,5.785,5.784H1599.464z"/>
		<path fill="#FFFFFF" stroke="#A3A6AC" stroke-miterlimit="10" d="M1609.105,690.227c0,0,0-1.93,1.929-1.93
			c1.93,0,1.93,1.93,1.93,1.93H1609.105z"/>
	</g>
	<g>
		<path fill="#FFFFFF" stroke="#A3A6AC" stroke-miterlimit="10" d="M1688.807,694.725c0,0,0-3.856,3.856-3.856
			s3.856,3.856,3.856,3.856H1688.807z"/>
		<path fill="#FFFFFF" stroke="#A3A6AC" stroke-miterlimit="10" d="M1692.663,694.725c0,0,0-5.784,3.856-5.784
			c3.857,0,3.857,5.784,3.857,5.784H1692.663z"/>
		<path fill="#FFFFFF" stroke="#A3A6AC" stroke-miterlimit="10" d="M1696.521,694.725c0,0,0-7.231,4.821-7.231
			c4.82,0,4.82,7.231,4.82,7.231H1696.521z"/>
	</g>
	<g>
		<path fill="#FFFFFF" stroke="#A3A6AC" stroke-miterlimit="10" d="M1716.548,694.637c0,0,0-3.856,3.857-3.856
			c3.856,0,3.856,3.856,3.856,3.856H1716.548z"/>
		<path fill="#FFFFFF" stroke="#A3A6AC" stroke-miterlimit="10" d="M1720.405,694.637c0,0,0-5.785,3.856-5.785
			c3.857,0,3.857,5.785,3.857,5.785H1720.405z"/>
		<path fill="#FFFFFF" stroke="#A3A6AC" stroke-miterlimit="10" d="M1726.189,694.637c0,0,0-3.182,2.896-3.182
			c2.894,0,2.894,3.182,2.894,3.182H1726.189z"/>
	</g>
	<g>
		<path fill="#FFFFFF" stroke="#A3A6AC" stroke-miterlimit="10" d="M1774.802,692.098c0,0,0-3.856,3.855-3.856
			c3.856,0,3.856,3.856,3.856,3.856H1774.802z"/>
		<path fill="#FFFFFF" stroke="#A3A6AC" stroke-miterlimit="10" d="M1776.729,692.098c0,0,0-5.784,3.857-5.784
			s3.857,5.784,3.857,5.784H1776.729z"/>
		<path fill="#FFFFFF" stroke="#A3A6AC" stroke-miterlimit="10" d="M1780.587,692.098c0,0,0-3.182,2.894-3.182
			c2.893,0,2.893,3.182,2.893,3.182H1780.587z"/>
	</g>
	<g>
		<path fill="#FFFFFF" stroke="#A3A6AC" stroke-miterlimit="10" d="M1528.348,684.789c0,0,0-2.586,2.584-2.586
			s2.584,2.586,2.584,2.586H1528.348z"/>
		<path fill="#FFFFFF" stroke="#A3A6AC" stroke-miterlimit="10" d="M1530.932,684.789c0,0,0-3.877,2.584-3.877
			c2.586,0,2.586,3.877,2.586,3.877H1530.932z"/>
		<path fill="#FFFFFF" stroke="#A3A6AC" stroke-miterlimit="10" d="M1533.516,684.789c0,0,0-4.846,3.229-4.846
			s3.229,4.846,3.229,4.846H1533.516z"/>
	</g>
	<g>
		<path fill="#FFFFFF" stroke="#A3A6AC" stroke-miterlimit="10" d="M1537.792,699.193c0,0,0-3.857,3.856-3.857
			c3.857,0,3.857,3.857,3.857,3.857H1537.792z"/>
		<path fill="#FFFFFF" stroke="#A3A6AC" stroke-miterlimit="10" d="M1541.648,699.193c0,0,0-5.787,3.857-5.787
			s3.857,5.787,3.857,5.787H1541.648z"/>
		<path fill="#FFFFFF" stroke="#A3A6AC" stroke-miterlimit="10" d="M1547.436,699.193c0,0,0-3.185,2.893-3.185
			s2.893,3.185,2.893,3.185H1547.436z"/>
	</g>
	<g>
		<path fill="#FFFFFF" stroke="#A3A6AC" stroke-miterlimit="10" d="M1516.225,694.781c0,0,0-5.855,5.854-5.855
			c5.857,0,5.857,5.855,5.857,5.855H1516.225z"/>
		<path fill="#FFFFFF" stroke="#A3A6AC" stroke-miterlimit="10" d="M1519.15,694.781c0,0,0-8.785,5.857-8.785
			c5.854,0,5.854,8.785,5.854,8.785H1519.15z"/>
		<path fill="#FFFFFF" stroke="#A3A6AC" stroke-miterlimit="10" d="M1525.009,694.781c0,0,0-4.83,4.392-4.83
			c4.393,0,4.393,4.83,4.393,4.83H1525.009z"/>
	</g>
	<g>
		<path fill="#FFFFFF" stroke="#A3A6AC" stroke-miterlimit="10" d="M1504.511,699.729c0,0,0-5.856,5.855-5.856
			c5.856,0,5.856,5.856,5.856,5.856H1504.511z"/>
		<path fill="#FFFFFF" stroke="#A3A6AC" stroke-miterlimit="10" d="M1510.366,699.729c0,0,0-8.784,5.856-8.784
			c5.857,0,5.857,8.784,5.857,8.784H1510.366z"/>
		<path fill="#FFFFFF" stroke="#A3A6AC" stroke-miterlimit="10" d="M1519.15,699.729c0,0,0-4.831,4.394-4.831
			s4.394,4.831,4.394,4.831H1519.15z"/>
	</g>
</g>
<circle fill="#FFFFFF" stroke="#A3A6AC" stroke-miterlimit="10" cx="349.837" cy="454.05" r="46.853"/>
<g>
	<polygon fill="#FFFFFF" stroke="#A3A6AC" stroke-miterlimit="10" points="293.776,717.422 364.084,686.133 421.823,671.952 
		520.739,718.4 	"/>
	<polygon fill="#FFFFFF" stroke="#A3A6AC" stroke-miterlimit="10" points="359.847,718.4 411.714,705.198 421.823,671.952 
		484.141,718.241 	"/>
	<polygon fill="#FFFFFF" stroke="#A3A6AC" stroke-miterlimit="10" points="493.73,718.4 547.949,689.554 676.866,718.513 	"/>
	<polygon fill="#FFFFFF" stroke="#A3A6AC" stroke-miterlimit="10" points="338.741,718.4 308.97,689.554 295.876,692.487 
		241.106,662.174 148.798,718.4 	"/>
	<polygon fill="#FFFFFF" stroke="#A3A6AC" stroke-miterlimit="10" points="241.106,662.174 266.549,693.466 246.218,684.356 
		241.106,706.177 295.876,692.487 	"/>
	<polygon fill="#FFFFFF" stroke="#A3A6AC" stroke-miterlimit="10" points="547.949,689.554 595.373,709.355 676.866,718.513 	"/>
	<polygon fill="#FFFFFF" stroke="#A3A6AC" stroke-miterlimit="10" points="556.878,699.819 565.583,710.331 589.499,710.331 	"/>
	<polygon fill="#FFFFFF" stroke="#A3A6AC" stroke-miterlimit="10" points="230.775,718.4 203.056,697.905 205.53,711.093 
		200.058,718.4 	"/>
</g>
<g>
	<path fill="#FFFFFF" stroke="#A3A6AC" stroke-miterlimit="10" d="M1798.469,568.251c0,0,0-21.671,21.67-21.671
		s21.67,21.671,21.67,21.671H1798.469z"/>
	<path fill="#FFFFFF" stroke="#A3A6AC" stroke-miterlimit="10" d="M1763.8,585.584c0,0,0-30.337,30.339-30.337
		c30.332,0,30.332,30.337,30.332,30.337H1763.8z"/>
	<path fill="#FFFFFF" stroke="#A3A6AC" stroke-miterlimit="10" d="M1746.465,585.584c0,0,0-17.333,17.335-17.333
		s17.335,17.333,17.335,17.333H1746.465z"/>
	<path fill="#FFFFFF" stroke="#A3A6AC" stroke-miterlimit="10" d="M1807.135,585.584c0,0,0-30.337,30.34-30.337
		c30.336,0,30.336,30.337,30.336,30.337H1807.135z"/>
</g>
<g>
	<path fill="#FFFFFF" stroke="#A3A6AC" stroke-miterlimit="10" d="M329.684,487.091c0,0,0-29.58-29.584-29.58
		c-29.579,0-29.579,29.58-29.579,29.58H329.684z"/>
	<path fill="#FFFFFF" stroke="#A3A6AC" stroke-miterlimit="10" d="M338.136,487.091c0,0,0-12.679-12.679-12.679
		c-12.679,0-12.679,12.679-12.679,12.679H338.136z"/>
	<path fill="#FFFFFF" stroke="#A3A6AC" stroke-miterlimit="10" d="M295.875,487.091c0,0,0-21.129-21.128-21.129
		c-21.131,0-21.131,21.129-21.131,21.129H295.875z"/>
</g>
<g>
	<polygon fill="#FFFFFF" stroke="#A3A6AC" stroke-miterlimit="10" points="1858.116,713.754 134.299,713.359 84.293,756.224 
		1908.122,756.224 	"/>
</g>
<g>
	<g>
		<g>
			<g>
				<g>
					
						<rect x="1453.801" y="552.663" transform="matrix(-0.9848 0.1735 -0.1735 -0.9848 3039.6948 917.4454)" fill="#FFFFFF" stroke="#A3A6AC" stroke-miterlimit="10" width="51.894" height="77.84"/>
				</g>
				<g>
					
						<rect x="1505.229" y="545.832" transform="matrix(0.9848 -0.1735 0.1735 0.9848 -78.4305 272.2832)" fill="#FFFFFF" stroke="#A3A6AC" stroke-miterlimit="10" width="25.947" height="77.84"/>
				</g>
				<g>
					<polygon fill="#FFFFFF" stroke="#A3A6AC" stroke-miterlimit="10" points="1449.089,566.701 1448.919,565.756 1500.024,556.752 
						1500.194,557.698 					"/>
				</g>
				<g>
					
						<rect x="1512.492" y="541.972" transform="matrix(-0.1748 -0.9846 0.9846 -0.1748 1230.9906 2141.6213)" fill="#FFFFFF" stroke="#A3A6AC" stroke-miterlimit="10" width="0.961" height="25.949"/>
				</g>
				<g>
					
						<rect x="1373.66" y="594.351" transform="matrix(-0.9848 0.1736 -0.1736 -0.9848 2868.479 989.7214)" fill="#FFFFFF" stroke="#A3A6AC" stroke-miterlimit="10" width="34.598" height="51.896"/>
				</g>
				<g>
					
						<rect x="1373.334" y="590.588" transform="matrix(-0.9848 0.1736 -0.1736 -0.9848 2910.0947 978.5523)" fill="#FFFFFF" stroke="#A3A6AC" stroke-miterlimit="10" width="77.841" height="51.895"/>
				</g>
				<g>
					
						<rect x="1450.272" y="580.927" transform="matrix(-0.9848 0.1735 -0.1735 -0.9848 3018.1875 949.878)" fill="#FFFFFF" stroke="#A3A6AC" stroke-miterlimit="10" width="34.599" height="51.895"/>
				</g>
				<g>
					
						<rect x="1450.272" y="580.927" transform="matrix(-0.9848 0.1735 -0.1735 -0.9848 3018.1875 949.878)" fill="#FFFFFF" stroke="#A3A6AC" stroke-miterlimit="10" width="34.599" height="51.895"/>
				</g>
				<g>
					
						<rect x="1368.405" y="586.164" transform="matrix(-0.9848 0.1736 -0.1736 -0.9848 2852.874 931.4631)" fill="#FFFFFF" stroke="#A3A6AC" stroke-miterlimit="10" width="34.598" height="8.648"/>
				</g>
				<g>
					
						<rect x="1365.402" y="582.762" transform="matrix(-0.9848 0.1735 -0.1735 -0.9848 2891.8284 921.3774)" fill="#FFFFFF" stroke="#A3A6AC" stroke-miterlimit="10" width="80.48" height="8.646"/>
				</g>
				<g>
					
						<rect x="1445.029" y="572.698" transform="matrix(-0.9848 0.1735 -0.1735 -0.9848 3002.5918 891.5763)" fill="#FFFFFF" stroke="#A3A6AC" stroke-miterlimit="10" width="34.599" height="8.647"/>
				</g>
				<g>
					
						<rect x="1445.001" y="572.534" transform="matrix(-0.9848 0.1735 -0.1735 -0.9848 3004.8943 891.0425)" fill="#FFFFFF" stroke="#A3A6AC" stroke-miterlimit="10" width="37.002" height="8.647"/>
				</g>
				<g>
					<polygon fill="#FFFFFF" stroke="#A3A6AC" stroke-miterlimit="10" points="1369.426,597.816 1372.429,614.854 1447.589,592.828 
						1446.088,584.307 					"/>
				</g>
				<g>
					<polygon fill="#FFFFFF" stroke="#A3A6AC" stroke-miterlimit="10" points="1446.088,584.307 1447.589,592.828 1480.162,578.301 
											"/>
				</g>
				<g>
					
						<rect x="1372.292" y="540.303" transform="matrix(-0.9848 0.1736 -0.1736 -0.9848 2872.7979 872.5902)" fill="#FFFFFF" stroke="#A3A6AC" stroke-miterlimit="10" width="51.894" height="43.249"/>
				</g>
				<g>
					
						<rect x="1423.64" y="533.566" transform="matrix(0.9848 -0.1736 0.1736 0.9848 -74.5698 257.837)" fill="#FFFFFF" stroke="#A3A6AC" stroke-miterlimit="10" width="25.949" height="43.247"/>
				</g>
				<g>
					
						<rect x="1433.577" y="549.268" transform="matrix(-0.9848 0.1735 -0.1735 -0.9848 2968.7131 864.9628)" fill="#FFFFFF" stroke="#A3A6AC" stroke-miterlimit="10" width="25.946" height="25.946"/>
				</g>
				<g>
					
						<rect x="1459.288" y="545.581" transform="matrix(0.9848 -0.1736 0.1736 0.9848 -74.6635 263.2468)" fill="#FFFFFF" stroke="#A3A6AC" stroke-miterlimit="10" width="17.297" height="25.95"/>
				</g>
				<g>
					
						<rect x="1445.357" y="545.032" transform="matrix(-0.1754 -0.9845 0.9845 -0.1754 1150.0895 2079.3066)" fill="#FFFFFF" stroke="#A3A6AC" stroke-miterlimit="10" width="0.963" height="25.949"/>
				</g>
				<g>
					
						<rect x="1466.688" y="545.548" transform="matrix(-0.1746 -0.9846 0.9846 -0.1746 1177.6467 2095.5903)" fill="#FFFFFF" stroke="#A3A6AC" stroke-miterlimit="10" width="0.962" height="17.297"/>
				</g>
				<g>
					
						<rect x="1395.475" y="523.255" transform="matrix(-0.1771 -0.9842 0.9842 -0.1771 1102.6476 2020.3531)" fill="#FFFFFF" stroke="#A3A6AC" stroke-miterlimit="10" width="0.96" height="51.896"/>
				</g>
				<g>
					
						<rect x="1433.891" y="529.499" transform="matrix(-0.1748 -0.9846 0.9846 -0.1748 1150.9351 2049.5762)" fill="#FFFFFF" stroke="#A3A6AC" stroke-miterlimit="10" width="0.961" height="25.946"/>
				</g>
				<g>
					
						<rect x="1381.823" y="494.704" transform="matrix(-0.9848 0.1736 -0.1736 -0.9848 2883.7932 780.4343)" fill="#FFFFFF" stroke="#A3A6AC" stroke-miterlimit="10" width="51.89" height="43.245"/>
				</g>
				<g>
					
						<rect x="1374.653" y="486.785" transform="matrix(-0.9848 0.1735 -0.1735 -0.9848 2867.7871 731.5379)" fill="#FFFFFF" stroke="#A3A6AC" stroke-miterlimit="10" width="54.536" height="8.648"/>
				</g>
				<g>
					
						<rect x="1433.188" y="488.008" transform="matrix(0.9848 -0.1735 0.1735 0.9848 -66.4875 258.6347)" fill="#FFFFFF" stroke="#A3A6AC" stroke-miterlimit="10" width="25.948" height="43.244"/>
				</g>
				<g>
					
						<rect x="1428.636" y="479.612" transform="matrix(0.9848 -0.1736 0.1736 0.9848 -62.1051 257.7947)" fill="#FFFFFF" stroke="#A3A6AC" stroke-miterlimit="10" width="28.11" height="8.648"/>
				</g>
				<g>
					<polygon fill="#FFFFFF" stroke="#A3A6AC" stroke-miterlimit="10" points="1378.473,499.616 1379.973,508.135 1429.577,490.61 
											"/>
				</g>
				<g>
					
						<rect x="1344.784" y="613.534" transform="matrix(-0.9848 0.1735 -0.1735 -0.9848 2835.1431 1015.261)" fill="#FFFFFF" stroke="#A3A6AC" stroke-miterlimit="10" width="56.823" height="36.036"/>
				</g>
				<g>
					
						<rect x="1338.154" y="606.93" transform="matrix(-0.9848 0.1735 -0.1735 -0.9848 2821.208 974.447)" fill="#FFFFFF" stroke="#A3A6AC" stroke-miterlimit="10" width="59.716" height="7.211"/>
				</g>
				<g>
					
						<rect x="1401.071" y="606.114" transform="matrix(0.9848 -0.1735 0.1735 0.9848 -86.821 255.0085)" fill="#FFFFFF" stroke="#A3A6AC" stroke-miterlimit="10" width="28.408" height="36.039"/>
				</g>
				<g>
					
						<rect x="1397.301" y="599.025" transform="matrix(0.9848 -0.1735 0.1735 0.9848 -83.1309 254.2401)" fill="#FFFFFF" stroke="#A3A6AC" stroke-miterlimit="10" width="30.777" height="7.206"/>
				</g>
				<g>
					<polygon fill="#FFFFFF" stroke="#A3A6AC" stroke-miterlimit="10" points="1342.141,618.729 1343.391,625.826 1398.102,608.867 
											"/>
				</g>
			</g>
			<polygon fill="#FFFFFF" stroke="#A3A6AC" stroke-miterlimit="10" points="1634.305,602.313 1775.101,509.445 1779.208,515.137 
				1642.517,613.701 			"/>
			<g>
				
					<rect x="1294.88" y="613.037" transform="matrix(-0.9848 0.1736 -0.1736 -0.9848 2810.4131 992.4374)" fill="#FFFFFF" stroke="#A3A6AC" stroke-miterlimit="10" width="133.853" height="12.167"/>
				<path fill="#FFFFFF" stroke="#A3A6AC" stroke-miterlimit="10" d="M1321.978,638.57c0.582,3.311-1.628,6.463-4.937,7.045
					c-3.312,0.582-6.463-1.623-7.045-4.934c-0.585-3.312,1.623-6.467,4.937-7.049C1318.24,633.05,1321.397,635.263,1321.978,638.57z
					"/>
				<path fill="#FFFFFF" stroke="#A3A6AC" stroke-miterlimit="10" d="M1314.938,662.464c3.826,7.563,8.052,31.526,8.052,31.526
					l2.417-0.423l2.416-0.426c0,0-4.224-23.969-3.211-32.385c1.01-8.413-2.817-15.979-2.817-15.979l-4.835,0.852l-4.839,0.854
					C1312.12,646.484,1311.117,654.899,1314.938,662.464z"/>
				<path fill="#FFFFFF" stroke="#A3A6AC" stroke-miterlimit="10" d="M1345.942,634.348c0.586,3.31-1.625,6.459-4.936,7.047
					c-3.309,0.58-6.462-1.625-7.046-4.935c-0.582-3.312,1.628-6.469,4.933-7.05C1342.209,628.827,1345.361,631.037,1345.942,634.348
					z"/>
				<path fill="#FFFFFF" stroke="#A3A6AC" stroke-miterlimit="10" d="M1338.908,658.238c3.823,7.563,8.048,31.533,8.048,31.533
					l2.421-0.431l2.416-0.424c0,0-4.225-23.969-3.216-32.382c1.012-8.416-2.813-15.983-2.813-15.983l-4.838,0.853l-4.836,0.854
					C1336.092,642.26,1335.082,650.678,1338.908,658.238z"/>
				<path fill="#FFFFFF" stroke="#A3A6AC" stroke-miterlimit="10" d="M1345.942,634.348c0.586,3.31-1.625,6.459-4.936,7.047
					c-3.309,0.58-6.462-1.625-7.046-4.935c-0.582-3.312,1.628-6.469,4.933-7.05C1342.209,628.827,1345.361,631.037,1345.942,634.348
					z"/>
				<path fill="#FFFFFF" stroke="#A3A6AC" stroke-miterlimit="10" d="M1338.908,658.238c3.823,7.563,8.048,31.533,8.048,31.533
					l2.421-0.431l2.416-0.424c0,0-4.225-23.969-3.216-32.382c1.012-8.416-2.813-15.983-2.813-15.983l-4.838,0.853l-4.836,0.854
					C1336.092,642.26,1335.082,650.678,1338.908,658.238z"/>
				<path fill="#FFFFFF" stroke="#A3A6AC" stroke-miterlimit="10" d="M1369.914,630.123c0.586,3.307-1.628,6.461-4.938,7.047
					c-3.309,0.58-6.464-1.627-7.049-4.936c-0.582-3.311,1.629-6.468,4.938-7.047
					C1366.175,624.602,1369.333,626.815,1369.914,630.123z"/>
				<path fill="#FFFFFF" stroke="#A3A6AC" stroke-miterlimit="10" d="M1362.871,654.018c3.83,7.563,8.055,31.529,8.055,31.529
					l2.415-0.426l2.415-0.429c0,0-4.223-23.967-3.209-32.383c1.009-8.414-2.815-15.979-2.815-15.979l-4.834,0.854l-4.84,0.849
					C1360.058,638.033,1359.051,646.451,1362.871,654.018z"/>
				<path fill="#FFFFFF" stroke="#A3A6AC" stroke-miterlimit="10" d="M1393.88,625.896c0.585,3.312-1.628,6.467-4.936,7.05
					c-3.309,0.581-6.461-1.626-7.047-4.937c-0.581-3.309,1.625-6.464,4.934-7.049C1390.143,620.379,1393.299,622.59,1393.88,625.896
					z"/>
				<path fill="#FFFFFF" stroke="#A3A6AC" stroke-miterlimit="10" d="M1386.841,649.791c3.827,7.564,8.051,31.531,8.051,31.531
					l2.417-0.426l2.419-0.427c0,0-4.226-23.969-3.214-32.385c1.011-8.413-2.816-15.979-2.816-15.979l-4.837,0.854l-4.834,0.851
					C1384.024,633.813,1383.022,642.229,1386.841,649.791z"/>
				<path fill="#FFFFFF" stroke="#A3A6AC" stroke-miterlimit="10" d="M1417.849,621.676c0.584,3.308-1.624,6.463-4.936,7.045
					c-3.309,0.585-6.466-1.625-7.049-4.932c-0.581-3.313,1.629-6.467,4.937-7.05C1414.11,616.158,1417.266,618.365,1417.849,621.676
					z"/>
				<path fill="#FFFFFF" stroke="#A3A6AC" stroke-miterlimit="10" d="M1410.81,645.566c3.825,7.563,8.052,31.531,8.052,31.531
					l2.417-0.427l2.419-0.424c0,0-4.226-23.969-3.214-32.384c1.007-8.416-2.816-15.979-2.816-15.979l-4.833,0.852l-4.836,0.851
					C1407.997,629.586,1406.985,638.008,1410.81,645.566z"/>
			</g>
			<path fill="#FFFFFF" stroke="#A3A6AC" stroke-miterlimit="10" d="M1416.175,269.825c0,0,199.734,180.669,53.291,302.414
				C1469.466,572.239,1943.843,380.547,1416.175,269.825z"/>
			<polygon fill="#FFFFFF" stroke="#A3A6AC" stroke-miterlimit="10" points="1406.481,271.531 1466.256,644.764 1489.517,640.662 
				1418.112,269.479 			"/>
			<polygon fill="#FFFFFF" stroke="#A3A6AC" stroke-miterlimit="10" points="1405.584,271.691 1468.292,644.402 1479.817,642.371 
				1411.344,270.676 			"/>
			<path fill="#FFFFFF" stroke="#A3A6AC" stroke-miterlimit="10" d="M1299.313,650.192c0,0,120.416,2.766,372.207-65.589
				c0,0-2.766,120.413-95.814,136.813l-229.667,4.146L1299.313,650.192z"/>
			<polygon fill="#FFFFFF" stroke="#A3A6AC" stroke-miterlimit="10" points="1299.313,650.192 1312.696,726.144 1346.038,725.563 
							"/>
			<line fill="#FFFFFF" stroke="#A3A6AC" stroke-miterlimit="10" x1="1662.858" y1="634.104" x2="1307.514" y2="696.72"/>
			<line fill="#FFFFFF" stroke="#A3A6AC" stroke-miterlimit="10" x1="1668.767" y1="609.075" x2="1303.415" y2="673.457"/>
			<line fill="#FFFFFF" stroke="#A3A6AC" stroke-miterlimit="10" x1="1635.58" y1="686.879" x2="1447.045" y2="720.104"/>
			<line fill="#FFFFFF" stroke="#A3A6AC" stroke-miterlimit="10" x1="1652.89" y1="659.844" x2="1311.613" y2="719.986"/>
			<line fill="#FFFFFF" stroke="#A3A6AC" stroke-miterlimit="10" x1="1400.665" y1="272.556" x2="1423.928" y2="268.459"/>
			<path fill="#FFFFFF" stroke="#A3A6AC" stroke-miterlimit="10" d="M1631.147,627.698c1.129,6.423-3.16,12.547-9.588,13.68
				c-6.42,1.133-12.547-3.154-13.676-9.581c-1.133-6.424,3.158-12.551,9.58-13.678
				C1623.886,616.983,1630.014,621.274,1631.147,627.698z"/>
			<path fill="#FFFFFF" stroke="#A3A6AC" stroke-miterlimit="10" d="M1407.768,279.572c0,0-12.169,30.508,7.671,57.261
				c0,0-66.979-7.698-108.399,14.725c0,0,13.36-42.32-18.561-51.82C1288.479,299.737,1346.512,275.242,1407.768,279.572z"/>
			<g>
				<path fill="none" stroke="#2C7278" stroke-width="6.6745" stroke-miterlimit="10" d="M1679.987,535.524
					c-0.486,1.221,31.385-31.997,28.871-4.612"/>
				<g>
					<polygon fill="#593D27" points="1713.958,529.983 1714.251,549.672 1724.382,551.117 1724.963,554.3 1709.035,557.197 
						1701.217,532.303 					"/>
					<polygon fill="#754D2A" points="1701.664,528.832 1697.899,541.732 1721.554,537.43 1713.487,526.678 					"/>
				</g>
				<path fill="none" stroke="#2C7278" stroke-width="6.6745" stroke-miterlimit="10" d="M1646.586,528.012
					c0.89,0.969-18.627,15.045-6.621,39.785"/>
				<g>
					<polygon fill="#593D27" points="1634.031,567.69 1640.689,586.221 1631.715,591.143 1632.294,594.323 1648.217,591.427 
						1646.764,565.374 					"/>
					<polygon fill="#754D2A" points="1645.126,562.278 1653.192,573.029 1629.539,577.336 1633.305,564.431 					"/>
				</g>
				<g>
					<g>
						<path fill="#EED2BE" d="M1720.963,447.255c0,0-4.01-0.682-4.701,3.331l-0.685,4.009c0,0-1.37,8.024,6.652,9.396
							c8.022,1.373,9.396-6.652,9.396-6.652l0.688-4.014c0,0,0.682-4.011-3.331-4.695L1720.963,447.255z"/>
						<path fill="#EED2BE" d="M1708.858,451.431c0,0,2.588-3.141,5.729-0.555l3.144,2.58c0,0,3.143,2.593,0.561,5.73
							L1708.858,451.431z"/>
						<path fill="#EED2BE" d="M1720.603,452.963c0.034,1.153-0.863,2.11-2.016,2.147l0,0c-1.146,0.034-2.109-0.869-2.143-2.015
							l-0.25-8.317c-0.038-1.146,0.867-2.106,2.015-2.14l0,0c1.146-0.038,2.106,0.864,2.142,2.018L1720.603,452.963z"/>
						<path fill="#EED2BE" d="M1720.7,450.51c-0.19,1.124,0.568,2.199,1.699,2.392l0,0c1.135,0.195,2.205-0.566,2.403-1.699
							l1.396-8.199c0.189-1.126-0.567-2.203-1.696-2.399l0,0c-1.138-0.194-2.209,0.571-2.402,1.698L1720.7,450.51z"/>
						<path fill="#EED2BE" d="M1724.993,452.994c-0.195,1.134,0.564,2.211,1.703,2.408l0,0c1.132,0.184,2.209-0.576,2.397-1.709
							l1.402-8.19c0.192-1.134-0.574-2.212-1.697-2.407l0,0c-1.135-0.196-2.21,0.569-2.405,1.699L1724.993,452.994z"/>
						<path fill="#EED2BE" d="M1728.33,456.285c-0.351,1.093,0.263,2.256,1.36,2.605l0,0c1.097,0.34,2.266-0.271,2.605-1.367
							l2.493-7.938c0.342-1.097-0.275-2.259-1.367-2.607l0,0c-1.091-0.341-2.259,0.269-2.604,1.364L1728.33,456.285z"/>
					</g>
					<path fill="none" stroke="#2C7278" stroke-width="10.0117" stroke-miterlimit="10" d="M1681.588,493.992
						c0,0,43.081,12.365,40.81-32.37"/>
					<g>
						
							<rect x="1719.466" y="456.531" transform="matrix(0.0068 1 -1 0.0068 2175.6436 -1262.5389)" fill="#2B6264" width="7.883" height="14.917"/>
						<polygon fill="#F29345" points="1730.764,460.02 1730.772,462.055 1715.86,462.161 1715.844,460.124 						"/>
					</g>
				</g>
				<path fill="#2C7278" d="M1630.483,532.876l0.496,5.767c0,0,0.994,11.531,30.861,8.964c29.867-2.568,28.876-14.1,28.876-14.1
					l-0.496-5.768L1630.483,532.876z"/>
				<polygon fill="#2C7278" points="1690.659,532.836 1630.919,537.979 1626.011,480.869 1685.744,475.73 				"/>
				<polygon fill="#754D2A" points="1688.549,508.293 1628.812,513.431 1630.42,532.098 1690.151,526.957 				"/>
				<path fill="#414142" d="M1624.992,468.992l-0.034-0.363C1624.958,468.629,1624.966,468.759,1624.992,468.992"/>
				<path fill="#414142" d="M1684.692,463.49l0.03,0.36C1684.704,463.622,1684.692,463.49,1684.692,463.49"/>
				<path fill="#593D27" d="M1662.681,520.02c0.131,1.456-0.951,2.735-2.406,2.861c-1.455,0.125-2.73-0.952-2.854-2.408
					c-0.124-1.448,0.952-2.736,2.401-2.856C1661.276,517.492,1662.56,518.57,1662.681,520.02z"/>
				<path fill="#593D27" d="M1675.99,518.877c0.124,1.449-0.951,2.733-2.405,2.857c-1.455,0.123-2.732-0.949-2.857-2.402
					c-0.127-1.455,0.952-2.737,2.404-2.861C1674.588,516.344,1675.866,517.427,1675.99,518.877z"/>
				<path fill="#593D27" d="M1685.306,518.074c0.125,1.457-0.951,2.733-2.41,2.856c-1.449,0.123-2.729-0.947-2.854-2.403
					c-0.127-1.451,0.951-2.729,2.409-2.858C1683.901,515.543,1685.183,516.624,1685.306,518.074z"/>
				<path fill="#593D27" d="M1645.383,521.511c0.125,1.451-0.954,2.733-2.407,2.858c-1.453,0.126-2.73-0.951-2.856-2.405
					c-0.128-1.453,0.95-2.733,2.403-2.86C1643.976,518.979,1645.257,520.057,1645.383,521.511z"/>
				<path fill="none" stroke="#F29345" stroke-width="6.2419" stroke-miterlimit="10" d="M1665.269,529.101l-8.719,0.749
					c-2.734,0.232-5.165-1.813-5.402-4.55l-0.75-8.711c-0.231-2.74,1.812-5.173,4.547-5.408l8.716-0.745
					c2.735-0.239,5.168,1.81,5.405,4.549l0.75,8.712C1670.051,526.433,1667.999,528.862,1665.269,529.101z"/>
				
					<rect x="1648.29" y="518.893" transform="matrix(0.9963 -0.0856 0.0856 0.9963 -38.5251 143.567)" fill="#E6E6E8" width="11.242" height="3.749"/>
				<g>
					<path fill="#455B5F" d="M1685.601,442.442c-9.377,1.396-1.865-39.044-39.248-31.967l-9.664,2.513
						c-27.162,10.178-9.861,43.68-18.732,47.028c-8.877,3.347-19.565-15.739-14.495,3.768c5.063,19.504,23.955,17.198,23.955,17.198
						l30.067-7.812l30.064-7.811c0,0,13.441-6.097,8.378-25.603C1690.858,420.254,1694.985,441.044,1685.601,442.442"/>
					<path fill="#EED2BE" d="M1634.231,476.163c0.9,3.462-0.605,6.849-3.363,7.563c-2.758,0.718-5.729-1.506-6.625-4.969
						c-0.895-3.462,0.607-6.851,3.369-7.564C1630.369,470.477,1633.333,472.703,1634.231,476.163z"/>
					<path fill="#EED2BE" d="M1662.608,493.703c24.715-6.424,23.207-22.107,22.275-26.446l-0.294-1.128l-1.772-6.826
						c0,0-4.811-16.969-31.736-9.973c-26.93,6.994-22.872,24.162-22.872,24.162l1.772,6.822l0.293,1.129
						C1631.569,485.689,1637.892,500.124,1662.608,493.703"/>
					<path fill="#323232" d="M1678.335,462.289c1.221,4.712-1.611,9.527-6.316,10.749c-4.713,1.224-9.529-1.604-10.75-6.316
						c-1.227-4.712,1.604-9.523,6.315-10.749C1672.295,454.751,1677.106,457.576,1678.335,462.289"/>
					
						<line fill="none" stroke="#323232" stroke-width="2.4476" stroke-miterlimit="10" x1="1654.14" y1="457.567" x2="1683.522" y2="475.006"/>
					<path fill="#414142" d="M1627.405,470.404l-0.086-0.328C1627.319,470.076,1627.345,470.192,1627.405,470.404"/>
					<path fill="#58ACCD" d="M1627.813,471.968c0,0,10.189-5.963,26.5-10.204c16.304-4.234,28.114-3.982,28.114-3.982
						s-3.284-15.743-31.347-8.45C1623.019,456.619,1627.813,471.968,1627.813,471.968"/>
					<path fill="#323232" d="M1654.074,469.44c0.375,1.444-0.493,2.921-1.941,3.299c-1.446,0.374-2.923-0.492-3.302-1.938
						c-0.373-1.449,0.493-2.928,1.939-3.304C1652.223,467.123,1653.696,467.994,1654.074,469.44"/>
					<polygon fill="#323232" points="1673.081,456.75 1664.899,457.639 1664.562,454.554 1672.743,453.663 					"/>
					<path fill="#323232" d="M1648.133,432.867c0.329,0.032,0.713,0.063,1.104,0.086c0.565,0.031,0.996-0.488,0.854-1.033
						l-0.933-3.578c-0.083-0.319-0.35-0.561-0.684-0.605c-0.062-0.01-0.127-0.019-0.188-0.028c-0.685-0.104-0.97-0.371-1.127-0.957
						c-0.122-0.468,0.11-0.938,0.672-1.312c0.291-0.196,0.427-0.554,0.343-0.893l-0.131-0.479c-0.111-0.444,0.154-0.892,0.594-1.009
						l0.231-0.06c0.438-0.112,0.89,0.15,1.003,0.591l0.139,0.519c0.092,0.354,0.406,0.596,0.776,0.616
						c0.631,0.032,1.221,0.189,1.783,0.479c0.354,0.186,0.8,0.063,1.034-0.271l1.933-2.771c0.267-0.382,0.163-0.917-0.228-1.163
						c-2.109-1.318-4.672-1.582-7.692-0.8c-2.021,0.525-3.61,1.501-4.761,2.954c-1.151,1.454-1.465,3.13-0.965,5.062
						C1642.606,430.961,1644.694,432.509,1648.133,432.867"/>
					<path fill="#323232" d="M1653.28,427.941c-0.379-0.038-0.779-0.068-1.183-0.09c-0.559-0.035-0.989,0.487-0.846,1.027
						l0.947,3.662c0.088,0.333,0.372,0.572,0.713,0.613c0.003,0,0.005-0.001,0.005-0.001c0.875,0.119,1.325,0.404,1.465,0.962
						c0.167,0.616-0.1,1.139-0.781,1.56c-0.304,0.186-0.44,0.557-0.351,0.898l0.14,0.537c0.112,0.438-0.149,0.892-0.591,1.005
						l-0.233,0.059c-0.44,0.115-0.89-0.149-1-0.59l-0.129-0.472c-0.099-0.379-0.446-0.629-0.834-0.614
						c-1.364,0.051-2.66-0.313-3.719-0.979c-0.349-0.226-0.816-0.129-1.068,0.199l-2.152,2.771c-0.284,0.36-0.225,0.887,0.141,1.162
						c0.983,0.729,2.152,1.29,3.526,1.674c1.712,0.458,3.688,0.381,5.968-0.212c5.416-1.404,7.484-4.631,6.457-8.578
						C1659.03,429.754,1657.118,428.281,1653.28,427.941"/>
					<path fill="#E4F1DE" d="M1647.834,431.736c0.335,0.029,0.713,0.063,1.112,0.086c0.559,0.029,0.992-0.49,0.853-1.034
						l-0.934-3.574c-0.082-0.323-0.353-0.566-0.681-0.61c-0.063-0.004-0.127-0.016-0.193-0.026c-0.68-0.104-0.975-0.372-1.121-0.959
						c-0.122-0.469,0.111-0.938,0.669-1.313c0.291-0.193,0.427-0.549,0.343-0.89l-0.129-0.48c-0.113-0.441,0.154-0.895,0.594-1.009
						l0.229-0.059c0.44-0.115,0.891,0.151,1.006,0.594l0.134,0.516c0.09,0.356,0.41,0.597,0.774,0.613
						c0.638,0.037,1.229,0.196,1.782,0.482c0.365,0.184,0.808,0.061,1.041-0.271l1.924-2.767c0.267-0.385,0.173-0.922-0.223-1.166
						c-2.104-1.32-4.671-1.586-7.694-0.802c-2.015,0.525-3.604,1.499-4.755,2.955c-1.152,1.451-1.471,3.129-0.969,5.058
						C1642.315,429.832,1644.403,431.379,1647.834,431.736"/>
					<path fill="#E4F1DE" d="M1652.987,426.81c-0.377-0.038-0.787-0.068-1.185-0.092c-0.557-0.036-0.985,0.49-0.846,1.028
						l0.952,3.663c0.083,0.334,0.37,0.576,0.708,0.61c0,0.004,0,0.004,0.005,0.002c0.875,0.119,1.328,0.407,1.469,0.964
						c0.16,0.618-0.101,1.142-0.785,1.558c-0.306,0.185-0.438,0.556-0.35,0.898l0.141,0.539c0.116,0.438-0.149,0.892-0.595,1.005
						l-0.226,0.062c-0.444,0.11-0.899-0.15-1.008-0.594l-0.125-0.472c-0.098-0.381-0.45-0.63-0.834-0.612
						c-1.364,0.051-2.662-0.314-3.719-0.983c-0.35-0.222-0.813-0.126-1.072,0.2l-2.157,2.771c-0.278,0.36-0.215,0.888,0.149,1.157
						c0.982,0.734,2.148,1.293,3.52,1.673c1.711,0.464,3.691,0.385,5.975-0.208c5.413-1.405,7.479-4.624,6.457-8.577
						C1658.74,428.623,1656.827,427.151,1652.987,426.81"/>
					<path fill="#323232" d="M1677.245,478.363c0,0-8.151-8.003-15.135-2.146c-8.948-1.722-12.168,9.233-12.168,9.233
						c-12.967,3.372-21.836-12.46-22.537-15.048l5.088,19.581c3.615,13.906,21.143,9.688,21.143,9.688l15.424,3.281h0.004
						l11.875-10.369c0,0,9.776-2.881,6.168-16.787l-5.084-19.58C1682.663,458.815,1690.208,474.994,1677.245,478.363
						 M1664.333,484.755L1664.333,484.755h-0.003l0,0c-9.399,2.777-10.976-0.189-10.976-0.189c5.629-0.11,9.488-5.489,9.498-5.503
						c0.016,0.007,6.006,2.824,10.979,0.187C1673.831,479.248,1673.892,482.602,1664.333,484.755"/>
					<path fill="#E0AE8C" d="M1666.497,473.79c0.261,1.008-1.85,2.429-4.719,3.175c-2.869,0.742-5.404,0.531-5.67-0.479
						c-0.258-1.008,1.854-2.428,4.722-3.171C1663.703,472.569,1666.231,472.781,1666.497,473.79z"/>
					<path fill="none" stroke="#323232" stroke-width="4.7111" stroke-miterlimit="10" d="M1643.038,460.454
						c0,0,3.352-5.898,9.041-3.591"/>
				</g>
				<g>
					<path fill="none" stroke="#2C7278" stroke-width="10.0117" stroke-miterlimit="10" d="M1628.636,494.631
						c0,0-28.65-3.722-12.005-63.171"/>
					<g>
						<polygon fill="#2B6264" points="1610.313,425.873 1608.455,433.532 1622.954,437.052 1624.805,429.387 						"/>
						<polygon fill="#F29345" points="1610.313,425.873 1609.834,427.85 1624.33,431.368 1624.805,429.387 						"/>
					</g>
				</g>
			</g>
			<g>
				<g>
					<path fill="#845934" d="M1520.824,549.932l-6.354,1.21l0.16,0.84c-12.007,6.091-9.252,20.64-9.252,20.64l12.713-2.412
						l6.354-1.207l19.069-3.618C1543.514,565.383,1539.894,546.311,1520.824,549.932z"/>
					<path fill="#8F623D" d="M1499.026,573.826c0,0-3.623-19.068,15.442-22.686c19.069-3.627,22.69,15.448,22.69,15.448
						L1499.026,573.826z"/>
					
						<rect x="1452.248" y="556.981" transform="matrix(0.9825 -0.1865 0.1865 0.9825 -79.6394 286.8193)" fill="#8F623D" width="64.689" height="19.406"/>
					<path fill="#845934" d="M1457.269,561.996l-6.354,1.21l0.16,0.843c-12.014,6.092-9.249,20.642-9.249,20.642l12.709-2.414
						l6.354-1.207l19.068-3.617C1479.958,577.451,1476.336,558.378,1457.269,561.996z"/>
					
						<rect x="1440.031" y="581.793" transform="matrix(-0.9825 0.1865 -0.1865 -0.9825 3006.6035 932.4885)" fill="#764D2B" width="38.816" height="51.755"/>
					
						<rect x="1446.334" y="588.301" transform="matrix(-0.9824 0.1865 -0.1865 -0.9824 3006.292 932.5438)" fill="#593D28" width="25.878" height="38.814"/>
					<polygon fill="#91633D" points="1553.171,616.227 1483.255,629.502 1473.604,578.658 1543.514,565.383 					"/>
					
						<rect x="1484.226" y="577.994" transform="matrix(-0.9824 0.1866 -0.1866 -0.9824 3111.5747 901.9042)" fill="#764D2B" width="58.225" height="38.811"/>
					
						<line fill="none" stroke="#593D28" stroke-width="0.898" stroke-miterlimit="10" x1="1483.575" y1="596.52" x2="1540.78" y2="585.658"/>
					
						<line fill="none" stroke="#593D28" stroke-width="0.898" stroke-miterlimit="10" x1="1485.992" y1="609.226" x2="1543.192" y2="598.361"/>
					
						<line fill="none" stroke="#452E20" stroke-width="0.898" stroke-miterlimit="10" x1="1470.864" y1="598.932" x2="1445.445" y2="603.76"/>
					
						<line fill="none" stroke="#452E20" stroke-width="0.898" stroke-miterlimit="10" x1="1473.28" y1="611.635" x2="1447.856" y2="616.469"/>
					
						<rect x="1538.76" y="572.843" transform="matrix(0.9824 -0.1869 0.1869 0.9824 -83.558 298.3849)" fill="#593D28" width="3.234" height="38.814"/>
					
						<rect x="1446.544" y="590.4" transform="matrix(-0.9826 0.1857 -0.1857 -0.9826 2984.3875 940.0414)" fill="#452E20" width="3.239" height="38.814"/>
					<path fill="#744F34" d="M1435.468,585.896c0,0-3.62-19.067,15.446-22.689c19.069-3.621,22.688,15.452,22.688,15.452
						L1435.468,585.896z"/>
					<path fill="#593D28" d="M1441.218,581.516c0,0-2.411-12.715,10.298-15.13c12.712-2.411,15.127,10.298,15.127,10.298
						L1441.218,581.516z"/>
					
						<rect x="1500.093" y="571.952" transform="matrix(-0.9825 0.1864 -0.1864 -0.9825 3100.9419 865.3381)" fill="#CFD2D2" width="19.409" height="12.938"/>
					<g>
						<path fill="#414142" d="M1511.761,576.42c0.242,1.257-0.588,2.477-1.849,2.714c-1.263,0.242-2.478-0.59-2.72-1.85
							c-0.237-1.261,0.594-2.478,1.852-2.716C1510.305,574.328,1511.524,575.152,1511.761,576.42z"/>
						<polygon fill="#414142" points="1508.206,582.619 1508.86,577.754 1510.388,577.467 1512.774,581.748 						"/>
					</g>
				</g>
				<g>
					<path fill="none" stroke="#EFD3BF" stroke-width="11.5448" stroke-miterlimit="10" d="M1453.925,515.922
						c0,0-25.854,11.07-18.663,21.253c9.578,13.565,24.576,9.241,24.576,9.241"/>
					<g>
						<g>
							<path fill="#EFD3BF" d="M1542.401,475.938c0,0-3.601-1.28-4.89,2.316l-1.284,3.604c0,0-2.566,7.2,4.637,9.77
								c7.199,2.569,9.772-4.632,9.772-4.632l1.285-3.604c0,0,1.278-3.602-2.323-4.886L1542.401,475.938z"/>
							<path fill="#EFD3BF" d="M1530.526,477.84c0,0,2.9-2.487,5.394,0.412l2.488,2.9c0,0,2.489,2.905-0.41,5.393L1530.526,477.84z"
								/>
							<path fill="#EFD3BF" d="M1541.772,477.585c-0.156,1.069-1.144,1.812-2.215,1.655l0,0c-1.064-0.154-1.809-1.146-1.654-2.211
								l1.113-7.737c0.15-1.066,1.146-1.807,2.211-1.651l0,0c1.068,0.152,1.81,1.143,1.657,2.211L1541.772,477.585z"/>
							<path fill="#EFD3BF" d="M1542.26,475.322c-0.36,1.015,0.168,2.133,1.183,2.494l0,0c1.021,0.364,2.134-0.168,2.5-1.185
								l2.623-7.36c0.357-1.015-0.17-2.132-1.186-2.495l0,0c-1.021-0.364-2.136,0.169-2.495,1.185L1542.26,475.322z"/>
							<path fill="#EFD3BF" d="M1545.826,478.324c-0.362,1.016,0.168,2.133,1.189,2.496l0,0c1.015,0.356,2.136-0.168,2.495-1.188
								l2.624-7.355c0.361-1.019-0.172-2.137-1.183-2.499l0,0c-1.018-0.362-2.137,0.172-2.504,1.183L1545.826,478.324z"/>
							<path fill="#EFD3BF" d="M1548.384,481.904c-0.499,0.956-0.123,2.136,0.837,2.633l0,0c0.958,0.494,2.138,0.116,2.634-0.841
								l3.588-6.938c0.494-0.96,0.115-2.139-0.842-2.636l0,0c-0.955-0.494-2.133-0.118-2.631,0.838L1548.384,481.904z"/>
						</g>
						<path fill="none" stroke="#EFD3BF" stroke-width="11.5448" stroke-miterlimit="10" d="M1502.368,503.653
							c0,0,33.285,26.763,38.429-14.993"/>
						<g>
							<g>
								<polygon fill="#764D2A" points="1548.372,491.546 1544.841,502.118 1531.461,497.959 1534.991,487.382 								"/>
							</g>
							<g>
								<polygon fill="#5A3D28" points="1544.274,490.271 1541.207,500.99 1538.001,499.991 1542.467,489.708 								"/>
							</g>
						</g>
					</g>
					<path fill="#2C7277" d="M1459.921,548.774l1.505,7.286c0,0,2.611,10.558,29.946,3.795
						c27.336-6.759,24.727-17.314,24.727-17.314l-1.839-7.221L1459.921,548.774z"/>
					<polygon fill="#00A79D" points="1514.618,536.553 1459.946,550.072 1448.349,503.188 1503.021,489.668 					"/>
					<path fill="#E4C9B7" d="M1509.293,515.029c0,0-11.415-6.72-14.454-21.962l8.229-3.219L1509.293,515.029z"/>
					<path fill="#E4C9B7" d="M1454.786,529.21l-6.408-25.829l6.449-1.587C1454.827,501.794,1461.604,522.71,1454.786,529.21z"/>
					
						<rect x="1457.09" y="525.944" transform="matrix(-0.9708 0.2401 -0.2401 -0.9708 3055.4473 697.2526)" fill="#764D2A" width="56.322" height="17.601"/>
					<path fill="#5A3D28" d="M1488.11,534.138c0.332,1.334-0.479,2.679-1.814,3.009c-1.329,0.328-2.673-0.483-3.001-1.815
						c-0.328-1.328,0.48-2.678,1.81-3.003C1486.438,531.999,1487.784,532.811,1488.11,534.138z"/>
					<circle fill="#5A3D28" cx="1497.882" cy="531.725" r="2.481"/>
					<path fill="#5A3D28" d="M1508.817,529.02c0.328,1.331-0.482,2.675-1.815,3.007c-1.329,0.324-2.673-0.484-3.001-1.814
						c-0.332-1.328,0.479-2.673,1.814-3.008C1507.146,526.877,1508.49,527.689,1508.817,529.02z"/>
					<path fill="#5A3D28" d="M1472.281,538.055c0.325,1.33-0.484,2.681-1.818,3.006c-1.326,0.33-2.673-0.48-3.003-1.813
						c-0.33-1.328,0.48-2.676,1.813-3.003C1470.602,535.912,1471.949,536.727,1472.281,538.055z"/>
					<path fill="none" stroke="#F39545" stroke-width="5.8631" stroke-miterlimit="10" d="M1491.841,542.184l-7.979,1.976
						c-2.504,0.612-5.058-0.925-5.68-3.433l-1.975-7.972c-0.616-2.51,0.925-5.064,3.43-5.685l7.973-1.972
						c2.508-0.622,5.063,0.925,5.687,3.433l1.974,7.972C1495.888,539.007,1494.342,541.563,1491.841,542.184z"/>
					
						<rect x="1474.75" y="534.337" transform="matrix(0.9708 -0.2399 0.2399 0.9708 -85.3827 370.648)" fill="#E7E7E8" width="10.561" height="3.524"/>
					<g>
						
							<rect x="1448.629" y="538.677" transform="matrix(-0.9901 -0.1407 0.1407 -0.9901 2812.7769 1292.3518)" fill="#764D2A" width="6.866" height="16.18"/>
						
							<rect x="1447.8" y="550.628" transform="matrix(-0.99 -0.1408 0.1408 -0.99 2810.3149 1302.4047)" fill="#5A3D28" width="6.866" height="2.306"/>
					</g>
					<g>
						<path fill="#59ADCE" d="M1440.149,473.993c0,0-11.261,5.223-14.168-5.704c-2.904-10.919-18.215,5.392-18.215,5.392
							s17.106-44.95,32.236,1.192"/>
						<circle fill="#59ADCE" cx="1439.116" cy="474.85" r="4.799"/>
						<path fill="#59ADCE" d="M1416.28,484.678c0,0,18.468,8.61,18.98-11.522c0,0-10.879-1.444-18.018,10.306"/>
					</g>
					<g>
						<circle fill="none" stroke="#F39545" stroke-width="2.1192" stroke-miterlimit="10" cx="1506.67" cy="486.386" r="4.951"/>
						<path fill="#EFD3BF" d="M1496.292,478.949c0.784,3.694,3.806,6.188,6.756,5.563c2.943-0.624,4.697-4.128,3.918-7.825
							c-0.785-3.699-3.809-6.192-6.755-5.568C1497.261,471.746,1495.51,475.248,1496.292,478.949z"/>
						<path fill="#EFD3BF" d="M1437.608,491.374c0.785,3.696,3.809,6.191,6.756,5.567c2.946-0.625,4.703-4.129,3.918-7.825
							c-0.782-3.705-3.807-6.194-6.751-5.571C1438.583,484.171,1436.829,487.673,1437.608,491.374z"/>
						<path fill="#EFD3BF" d="M1477.731,508.924c-26.402,5.59-32.379-9.95-33.55-14.492l-0.256-1.213l-1.544-7.291
							c0,0-3.457-18.317,25.313-24.409c28.767-6.095,33.034,12.057,33.034,12.057l1.549,7.291l0.248,1.209
							C1503.301,486.7,1504.14,503.33,1477.731,508.924"/>
						<path fill="#414142" d="M1441.611,482.28l0.075,0.353C1441.637,482.408,1441.611,482.28,1441.611,482.28"/>
						<path fill="#323232" d="M1489.257,478.983c0.319,1.548-0.678,3.063-2.224,3.382c-1.548,0.315-3.063-0.679-3.379-2.227
							c-0.323-1.546,0.675-3.062,2.219-3.377C1487.423,476.44,1488.938,477.439,1489.257,478.983"/>
						<path fill="#323232" d="M1464.598,483.979c0.321,1.55-0.676,3.063-2.223,3.383c-1.548,0.317-3.063-0.678-3.379-2.224
							c-0.322-1.546,0.674-3.063,2.222-3.379C1462.767,481.438,1464.279,482.436,1464.598,483.979"/>
						<path fill="none" stroke="#323232" stroke-width="3.3197" stroke-miterlimit="10" d="M1485.69,497.962
							c0,0-7.527,6.069-16.168,2.486"/>
						<path fill="#E1AF8D" d="M1473.87,488.059c-0.273-1.15,1.953-1.686,1.953-1.686s2.23-0.534,2.506,0.617
							c0.274,1.151,4.734,0.082,5.012,1.233c0,0,0.828,3.454-5.86,5.059c-6.688,1.603-7.516-1.853-7.516-1.853
							C1469.688,490.279,1474.147,489.21,1473.87,488.059z"/>
						<path fill="#D15231" d="M1444.861,480.484c0,0,0.945,9.979,4.042,12.653C1448.903,493.139,1434.608,492.276,1444.861,480.484z
							"/>
						<path fill="#D15231" d="M1445.7,487.789c0,0,1.951,5.337,6.629,7.956C1452.329,495.745,1439.393,500.205,1445.7,487.789z"/>
						<path fill="#D15231" d="M1498.624,470.53c0,0,3.572,9.367,1.98,13.136C1500.606,483.666,1513.039,476.564,1498.624,470.53z"/>
						<path fill="#D15231" d="M1501.108,477.453c0,0,0.611,5.648-2.42,10.068C1498.688,487.521,1512.263,485.792,1501.108,477.453z"
							/>
						<path fill="#59ADCE" d="M1500.453,472.548c0,0-12.908-2.978-30.332,0.711c-17.425,3.691-28.016,11.647-28.016,11.647
							s-6.601-27.164,23.387-33.512C1495.476,445.046,1500.453,472.548,1500.453,472.548"/>
						
							<rect x="1455.956" y="470.467" transform="matrix(-0.9983 0.0576 -0.0576 -0.9983 2945.3809 859.3043)" fill="#323232" width="8.696" height="3.283"/>
						<path fill="none" stroke="#323232" stroke-width="3.3197" stroke-miterlimit="10" d="M1481.399,470.007
							c0,0,3.896-4.597,10.34-0.225"/>
						
							<ellipse transform="matrix(0.303 0.953 -0.953 0.303 1498.157 -1081.3192)" fill="#EFD3BF" cx="1488.271" cy="483.485" rx="2.666" ry="5.772"/>
					</g>
					<path fill="none" stroke="#2C7277" stroke-width="6.2695" stroke-miterlimit="10" d="M1507.151,549.948
						c0,0,46.619-14.627,39.438,3.522"/>
					<g>
						<path fill="#C6BFB5" d="M1586.198,485.909c0,0,10.479,3.244,7.231,13.726l-62.864-19.479c0,0,3.248-10.477,13.725-7.229
							L1586.198,485.909z"/>
						<path fill="#ECE2D6" d="M1530.565,480.154c0,0,3.248-10.477,13.725-7.229l41.908,12.984c0,0-10.476-3.247-13.725,7.229
							l-14.605,47.147c0,0-3.248,10.476-13.725,7.229l-41.908-12.983c0,0,10.475,3.247,13.722-7.229L1530.565,480.154z"/>
						<path fill="#C3BBB0" d="M1544.146,547.515c0,0-5.244-1.622-3.619-6.857l-41.908-12.988c0,0-1.621,5.24,3.617,6.862
							L1544.146,547.515z"/>
						<g>
							<g>
								<path fill="#B79D8A" d="M1557.744,512.34c0,0,0.522-3.68-4.216-5.608c-4.729-1.922-8.411-2.443-11.049-10.337
									c-2.629-7.889-11.922-4.202-13.146,4.392c-1.221,8.592,1.231,8.94-1.041,16.128c-2.276,7.187,9.125,15.074,17.358,9.985
									C1553.891,521.806,1558.45,524.961,1557.744,512.34z"/>
								<path fill="#B79D8A" d="M1542.979,491.125c0,0,3.443,3.974,7.334,1.765c3.885-2.212,0.525-7.421-4.334-9.007
									C1541.116,482.294,1539.622,485.916,1542.979,491.125z"/>
								<path fill="#B79D8A" d="M1532.312,531.535c0,0-0.438-1.774-3.936-2.988c-3.501-1.205-3.25,1.365-0.723,3.189
									C1530.17,533.569,1533.053,533.802,1532.312,531.535z"/>
								<path fill="#A2836F" d="M1542.492,486.308c0,0,1.845,8.096,6.332,5.368C1553.305,488.956,1543.371,482.701,1542.492,486.308
									z"/>
								<path fill="#B79D8A" d="M1534.56,482.537c0,0-4.4,3.822-1.139,4.916C1536.69,488.563,1537.112,481.634,1534.56,482.537z"/>
								<path fill="#95D1E4" d="M1540.302,519.35c0,0,5.07-5.015-3.305-7.696C1528.617,508.965,1531.914,526.619,1540.302,519.35z"
									/>
								<path fill="#7ABBCA" d="M1539.84,517.904c0,0,2.786-4.568-3.803-5.004C1529.46,512.465,1535.046,524.717,1539.84,517.904z"
									/>
							</g>
							<g>
								
									<line fill="none" stroke="#3A2316" stroke-width="1.3489" stroke-miterlimit="10" x1="1540.043" y1="506.082" x2="1535.554" y2="497.365"/>
								
									<line fill="none" stroke="#3A2316" stroke-width="1.3489" stroke-miterlimit="10" x1="1533.435" y1="503.963" x2="1542.159" y2="499.477"/>
							</g>
							<g>
								<path fill="#95D1E4" d="M1566.881,491.553c-0.514,1.586-2.208,2.455-3.798,1.951c-1.584-0.512-2.449-2.207-1.946-3.787
									c0.509-1.59,2.206-2.459,3.788-1.957C1566.509,488.271,1567.386,489.968,1566.881,491.553z"/>
								<polygon fill="#B79D8A" points="1567.837,491.859 1564.312,489.678 1563.696,491.588 								"/>
								<polygon fill="#B79D8A" points="1560.183,489.405 1563.696,491.588 1564.312,489.678 								"/>
								<path fill="none" stroke="#754D2A" stroke-width="0.7443" stroke-miterlimit="10" d="M1568.793,492.166
									c-0.849,2.642-3.673,4.099-6.317,3.25c-2.642-0.848-4.1-3.673-3.257-6.313c0.854-2.646,3.683-4.099,6.319-3.252
									C1568.18,486.694,1569.636,489.525,1568.793,492.166z"/>
								<polygon fill="#CE4631" points="1565.231,486.798 1563.046,490.325 1564.962,490.939 								"/>
								<polygon fill="#F4E8DE" points="1562.78,494.463 1564.962,490.939 1563.046,490.325 								"/>
							</g>
							<g>
								<path fill="#A2836F" d="M1545.961,534.203c0,0-0.483,1.512,1.026,1.993c1.506,0.48,3.015,0.968,3.015,0.968l0.987-1.352
									L1545.961,534.203z"/>
								<path fill="#B79D8A" d="M1550.772,531.311c0,0-2.334,0.355-3.146,2.873l2.521,0.804
									C1550.149,534.986,1549.626,533.16,1550.772,531.311z"/>
								<polygon fill="#A2836F" points="1545.961,534.203 1545.276,532.875 1546.465,534.358 								"/>
							</g>
							<path fill="#A2836F" d="M1550.677,509.678c0,0-2.118-2.096-3.339,1.979c-1.217,4.071-0.296,2.023-1.067,2.808
								c-0.768,0.781-0.166,2.311,3.676,0.547C1553.787,513.245,1558.312,513.926,1550.677,509.678z"/>
							<g>
								<g>
									<path fill="none" stroke="#3A2316" stroke-width="0.8773" stroke-miterlimit="10" d="M1546.438,529.975
										c0,0-0.014-0.503-0.119-1.227"/>
									<path fill="none" stroke="#3A2316" stroke-width="0.8773" stroke-miterlimit="10" stroke-dasharray="2.6207,2.6207" d="
										M1545.651,526.22c-0.859-2.068-2.657-3.808-6.407-1.575c-6.935,4.131-12.526-8.508-6.859-15.476
										c1.375-1.69,2.332-2.882,2.993-3.716"/>
									<path fill="none" stroke="#3A2316" stroke-width="0.8773" stroke-miterlimit="10" d="M1536.19,504.414
										c0.994-1.293,0.43-0.695,0.43-0.695"/>
								</g>
							</g>
							<path fill="none" stroke="#70AFBE" stroke-width="0.2805" stroke-miterlimit="10" d="M1549.249,499.29
								c0,0,1.968-2.017,3.605,1.157c1.637,3.175,3.61,1.154,3.61,1.154"/>
							<path fill="none" stroke="#70AFBE" stroke-width="0.2805" stroke-miterlimit="10" d="M1535.429,530.676
								c0,0,1.971-2.015,3.604,1.16c1.635,3.17,3.61,1.151,3.61,1.151"/>
							<path fill="none" stroke="#70AFBE" stroke-width="0.2805" stroke-miterlimit="10" d="M1537.752,535.193
								c0,0,1.972-2.021,3.61,1.152c1.632,3.176,3.603,1.155,3.603,1.155"/>
							<path fill="none" stroke="#70AFBE" stroke-width="0.2805" stroke-miterlimit="10" d="M1519.426,521.787
								c0,0,1.972-2.023,3.606,1.15c1.635,3.173,3.605,1.152,3.605,1.152"/>
							<path fill="none" stroke="#70AFBE" stroke-width="0.2805" stroke-miterlimit="10" d="M1551.298,528.221
								c0,0,1.971-2.021,3.604,1.154c1.637,3.174,3.606,1.154,3.606,1.154"/>
							<path fill="none" stroke="#70AFBE" stroke-width="0.2805" stroke-miterlimit="10" d="M1554.994,504.899
								c0,0,1.97-2.018,3.605,1.154c1.634,3.178,3.607,1.155,3.607,1.155"/>
							<path fill="none" stroke="#70AFBE" stroke-width="0.2805" stroke-miterlimit="10" d="M1553.771,496.966
								c0,0,1.965-2.017,3.604,1.155c1.628,3.175,3.605,1.152,3.605,1.152"/>
						</g>
					</g>
					<g>
						<polygon fill="#5A3D28" points="1551.212,557.204 1542.009,573.247 1549.5,579.271 1548.442,582.121 1532.837,576.324 
							1541.165,553.472 						"/>
						<polygon fill="#764D2A" points="1541.837,550.376 1535.315,559.998 1549.721,565.351 1552.419,554.307 						"/>
					</g>
					<path fill="none" stroke="#2C7277" stroke-width="6.2695" stroke-miterlimit="10" d="M1487.351,555.279
						c0,0,30.791-15.821,23.14,14.223"/>
					<g>
						<polygon fill="#5A3D28" points="1515.226,573.06 1508.606,589.972 1516.638,595.98 1516.015,598.968 1499.774,593.289 
							1505.05,569.502 						"/>
						<polygon fill="#764D2A" points="1505.272,566.271 1500.616,576.547 1515.013,581.582 1515.985,570.02 						"/>
					</g>
				</g>
			</g>
			<line fill="#FFFFFF" stroke="#A3A6AC" stroke-miterlimit="10" x1="1412.297" y1="270.507" x2="1756.374" y2="521.682"/>
			<path fill="#EED2BE" d="M1631.292,426.092c-1.751,4.655-6.941,7.014-11.598,5.265l-8.347-3.136
				c-4.659-1.75-7.013-6.939-5.267-11.598l0,0c1.748-4.656,6.941-7.014,11.601-5.264l8.345,3.136
				C1630.685,416.243,1633.04,421.436,1631.292,426.092L1631.292,426.092z"/>
		</g>
		<path fill="#FFFFFF" stroke="#A3A6AC" stroke-miterlimit="10" d="M1220.787,727.825c0,0,500.827-107.992,405.429,0H1220.787z"/>
	</g>
	<g>
		<polygon fill="#774E30" points="1691.071,458.4 1691.831,461.48 1712.341,458.069 1710.833,451.917 		"/>
		<polygon fill="#895D37" points="1710.453,450.375 1712.72,459.604 1740.788,454.339 1737.765,442.033 		"/>
		<polygon fill="#9C6B44" points="1737.389,440.493 1741.169,455.879 1774.774,449.252 1770.237,430.791 		"/>
		
			<rect x="1772.351" y="429.559" transform="matrix(-0.9711 0.2385 -0.2385 -0.9711 3606.7017 441.6739)" fill="#F29345" width="8.553" height="19.009"/>
		<path fill="#C8DEE0" d="M1778.544,428.752c0,0,2.77-0.683,5.036,8.55c2.267,9.231-0.5,9.909-0.5,9.909L1778.544,428.752z"/>
		<polygon fill="#F29345" points="1691.831,461.48 1689.815,461.973 1689.055,458.894 1691.071,458.4 		"/>
	</g>
</g>
<g>
	<g>
		<path fill="#FFFFFF" stroke="#A3A6AC" stroke-miterlimit="10" d="M814.501,608.208c0,0,0-17.283-17.284-17.283
			s-17.284,17.283-17.284,17.283H814.501z"/>
		<path fill="#FFFFFF" stroke="#A3A6AC" stroke-miterlimit="10" d="M819.438,608.208c0,0,0-7.408-7.408-7.408
			c-7.409,0-7.409,7.408-7.409,7.408H819.438z"/>
		<path fill="#FFFFFF" stroke="#A3A6AC" stroke-miterlimit="10" d="M794.746,608.208c0,0,0-12.346-12.343-12.346
			c-12.347,0-12.347,12.346-12.347,12.346H794.746z"/>
	</g>
	<g>
		<g>
			<polygon fill="#FFFFFF" stroke="#A3A6AC" stroke-miterlimit="10" points="789.389,695.716 780.611,603.798 763.057,603.798 
				754.282,695.716 			"/>
			<polygon fill="#FFFFFF" stroke="#A3A6AC" stroke-miterlimit="10" points="780.611,603.798 782.808,626.778 760.864,626.778 
				763.057,603.798 			"/>
			<polygon fill="#FFFFFF" stroke="#A3A6AC" stroke-miterlimit="10" points="785,649.755 787.192,672.735 756.476,672.735 
				758.671,649.755 			"/>
			<polygon fill="#FFFFFF" stroke="#A3A6AC" stroke-miterlimit="10" points="780.611,603.798 778.419,580.817 765.253,580.817 
				763.057,603.798 			"/>
		</g>
		<rect x="764.653" y="566.456" fill="#FFFFFF" stroke="#A3A6AC" stroke-miterlimit="10" width="14.361" height="14.361"/>
		<polygon fill="#FFFFFF" stroke="#A3A6AC" stroke-miterlimit="10" points="783.227,566.456 771.838,559.276 760.444,566.456 		"/>
		<rect x="764.032" y="681.354" fill="#FFFFFF" stroke="#A3A6AC" stroke-miterlimit="10" width="8.428" height="14.361"/>
		<rect x="765.61" y="682.76" fill="#FFFFFF" stroke="#A3A6AC" stroke-miterlimit="10" width="5.271" height="12.956"/>
		<g>
			
				<rect x="770.039" y="635.166" fill="#FFFFFF" stroke="#A3A6AC" stroke-width="0.5487" stroke-miterlimit="10" width="3.594" height="7.181"/>
			
				<rect x="770.039" y="657.951" fill="#FFFFFF" stroke="#A3A6AC" stroke-width="0.5487" stroke-miterlimit="10" width="3.594" height="7.181"/>
			
				<rect x="770.039" y="612.38" fill="#FFFFFF" stroke="#A3A6AC" stroke-width="0.5487" stroke-miterlimit="10" width="3.594" height="7.183"/>
			
				<rect x="770.039" y="589.595" fill="#FFFFFF" stroke="#A3A6AC" stroke-width="0.5487" stroke-miterlimit="10" width="3.594" height="7.183"/>
			<rect x="768.539" y="596.776" fill="#FFFFFF" stroke="#A3A6AC" stroke-miterlimit="10" width="6.597" height="1.692"/>
			<rect x="768.539" y="642.347" fill="#FFFFFF" stroke="#A3A6AC" stroke-miterlimit="10" width="6.597" height="1.69"/>
			<rect x="768.539" y="619.563" fill="#FFFFFF" stroke="#A3A6AC" stroke-miterlimit="10" width="6.597" height="1.693"/>
			<rect x="768.539" y="665.132" fill="#FFFFFF" stroke="#A3A6AC" stroke-miterlimit="10" width="6.597" height="1.69"/>
		</g>
		<g>
			<circle fill="#FFFFFF" stroke="#A3A6AC" stroke-width="0.5487" stroke-miterlimit="10" cx="771.798" cy="573.712" r="3.605"/>
			<path fill="#FFFFFF" stroke="#A3A6AC" stroke-width="0.5487" stroke-miterlimit="10" d="M776.287,573.712
				c0,1.991,0.317,3.603,0.716,3.603c0.394,0,0.712-1.61,0.712-3.603c0-1.99-0.318-3.601-0.712-3.601
				C776.605,570.111,776.287,571.722,776.287,573.712z"/>
			
				<ellipse fill="#FFFFFF" stroke="#A3A6AC" stroke-width="0.5487" stroke-miterlimit="10" cx="766.903" cy="573.712" rx="0.712" ry="3.602"/>
		</g>
		<rect x="760.444" y="573.637" fill="#FFFFFF" stroke="#A3A6AC" stroke-miterlimit="10" width="22.782" height="7.182"/>
		<rect x="764.653" y="566.456" fill="#FFFFFF" stroke="#A3A6AC" stroke-miterlimit="10" width="14.361" height="1.882"/>
	</g>
	<polygon fill="#FFFFFF" stroke="#A3A6AC" stroke-miterlimit="10" points="813.128,717.852 798.767,689.128 698.229,703.489 
		691.048,717.852 	"/>
	<g>
		<path fill="#FFFFFF" stroke="#A3A6AC" stroke-miterlimit="10" d="M547.308,618.084c0,0,0-12.347-12.347-12.347
			c-12.344,0-12.344,12.347-12.344,12.347H547.308z"/>
		<path fill="#FFFFFF" stroke="#A3A6AC" stroke-miterlimit="10" d="M567.059,627.96c0,0,0-17.284-17.284-17.284
			c-17.28,0-17.28,17.284-17.28,17.284H567.059z"/>
		<path fill="#FFFFFF" stroke="#A3A6AC" stroke-miterlimit="10" d="M576.935,627.96c0,0,0-9.876-9.876-9.876
			s-9.876,9.876-9.876,9.876H576.935z"/>
		<path fill="#FFFFFF" stroke="#A3A6AC" stroke-miterlimit="10" d="M542.371,627.96c0,0,0-17.284-17.285-17.284
			c-17.28,0-17.28,17.284-17.28,17.284H542.371z"/>
	</g>
	<path fill="#FFFFFF" stroke="#A3A6AC" stroke-width="0.5487" stroke-miterlimit="10" d="M798.767,689.128"/>
	<polygon fill="#FFFFFF" stroke="#A3A6AC" stroke-miterlimit="10" points="798.767,689.128 701.108,717.852 813.128,717.852 	"/>
	<polygon fill="#FFFFFF" stroke="#A3A6AC" stroke-miterlimit="10" points="793.38,720.542 786.199,706.177 764.653,720.542 	"/>
</g>
</svg>
