<svg width="186" height="44" viewBox="0 0 186 44" fill="none" xmlns="http://www.w3.org/2000/svg">
<path fill-rule="evenodd" clip-rule="evenodd" d="M51.6981 22.1892C53.0189 22.1892 54.0755 21.9405 54.7358 21.3189C55.3962 20.6973 55.7925 19.9514 55.7925 18.9568V18.8324C55.7925 17.7135 55.3962 16.9676 54.7358 16.3459C53.9434 15.8486 53.0189 15.4757 51.6981 15.4757H46.4151V22.0649H51.6981V22.1892ZM41 11H52.0943C55.1321 11 57.5094 11.7459 59.0943 13.3622C60.4151 14.7297 61.2075 16.4703 61.2075 18.5838V18.7081C61.2075 20.573 60.6792 22.0649 59.7547 23.1838C58.8302 24.3027 57.5094 25.173 56.0566 25.7946L62 34H55.7925L50.6415 26.6649H46.4151V34H41.1321V11H41Z" fill="white"/>
<path fill-rule="evenodd" clip-rule="evenodd" d="M70.7236 30.641C71.4913 30.641 72.131 30.5128 72.6428 30.2564C73.1546 30 73.6663 29.6154 74.0502 29.2308C74.434 28.7179 74.8178 28.2051 74.9458 27.6923C75.2016 27.0513 75.2016 26.4103 75.2016 25.7692V25.641C75.2016 25 75.0737 24.359 74.8178 23.718C74.434 22.5641 73.5384 21.5385 72.3869 21.0256C71.7472 20.7692 71.1075 20.641 70.4678 20.641C69.7001 20.641 69.0604 20.7692 68.5486 21.0256C68.0368 21.2821 67.5251 21.6667 67.1412 22.0513C66.7574 22.5641 66.3736 23.0769 66.2457 23.5897C65.9898 24.2308 65.9898 24.8718 65.9898 25.5128V25.641C65.9898 26.2821 66.1177 26.9231 66.3736 27.5641C66.6295 28.2051 66.8854 28.7179 67.3971 29.1026C67.781 29.6154 68.2927 29.8718 68.9324 30.2564C69.3163 30.5128 70.0839 30.641 70.7236 30.641ZM70.7236 35C69.3163 35 68.0369 34.7436 66.8854 34.2308C65.7339 33.7179 64.7103 33.0769 63.8147 32.3077C62.9191 31.4103 62.2794 30.5128 61.7677 29.359C61.2559 28.2051 61 26.9231 61 25.641V25.5128C61 24.2308 61.2559 22.9487 61.7677 21.7949C62.2794 20.641 62.9191 19.6154 63.8147 18.8462C64.7103 17.9487 65.7339 17.3077 66.8854 16.7949C68.0369 16.2821 69.3163 16.0256 70.7236 16.0256C72.131 16.0256 73.4104 16.2821 74.5619 16.7949C75.7134 17.3077 76.7369 17.9487 77.6325 18.8462C78.5281 19.7436 79.1679 20.641 79.6796 21.7949C80.1914 22.9487 80.4473 24.1026 80.4473 25.5128V25.641C80.4473 26.9231 80.1914 28.2051 79.6796 29.359C79.1679 30.5128 78.5281 31.5385 77.6325 32.3077C76.7369 33.2051 75.7134 33.8462 74.5619 34.359C73.4104 34.7436 72.131 35 70.7236 35ZM91.3224 30.641C92.0901 30.641 92.7298 30.5128 93.2416 30.2564C93.7533 30 94.2651 29.6154 94.6489 29.2308C95.0328 28.7179 95.4166 28.2051 95.5445 27.6923C95.8004 27.0513 95.8004 26.4103 95.8004 25.7692V25.641C95.8004 25 95.6725 24.359 95.4166 23.718C95.0328 22.5641 94.1372 21.5385 92.9857 21.0256C92.346 20.7692 91.7062 20.641 91.0665 20.641C90.2989 20.641 89.6592 20.7692 89.1474 21.0256C88.6356 21.2821 88.1238 21.6667 87.74 22.0513C87.3562 22.5641 86.9724 23.0769 86.8444 23.5897C86.5885 24.2308 86.5885 24.8718 86.5885 25.5128V25.641C86.5885 26.2821 86.7165 26.9231 86.9724 27.5641C87.2282 28.2051 87.4841 28.7179 87.9959 29.1026C88.3797 29.6154 88.8915 29.8718 89.5312 30.2564C89.915 30.5128 90.5548 30.641 91.3224 30.641ZM91.3224 35C89.915 35 88.6356 34.7436 87.4841 34.2308C86.3327 33.7179 85.3091 33.0769 84.4135 32.3077C83.5179 31.4103 82.8782 30.5128 82.3664 29.359C81.8547 28.2051 81.5988 26.9231 81.5988 25.641V25.5128C81.5988 24.2308 81.8547 22.9487 82.3664 21.7949C82.8782 20.641 83.5179 19.6154 84.4135 18.8462C85.3091 17.9487 86.3327 17.3077 87.4841 16.7949C88.6356 16.2821 89.915 16.0256 91.3224 16.0256C92.7298 16.0256 94.0092 16.2821 95.1607 16.7949C96.3122 17.3077 97.3357 17.9487 98.2313 18.8462C99.1269 19.7436 99.7666 20.641 100.278 21.7949C100.79 22.9487 101.046 24.1026 101.046 25.5128V25.641C101.046 26.9231 100.79 28.2051 100.278 29.359C99.7666 30.5128 99.1269 31.5385 98.2313 32.3077C97.3357 33.2051 96.3122 33.8462 95.1607 34.359C94.0092 34.7436 92.7298 35 91.3224 35ZM102.198 16.5385H107.315V19.1026C107.571 18.7179 107.955 18.3333 108.339 17.9487C108.723 17.5641 109.106 17.3077 109.49 17.0513C109.874 16.7949 110.386 16.5385 110.898 16.4103C111.409 16.2821 112.049 16.1538 112.689 16.1538C113.84 16.1538 114.864 16.4103 115.759 16.9231C116.655 17.4359 117.295 18.2051 117.807 19.1026C118.574 18.2051 119.47 17.4359 120.365 16.9231C121.389 16.4103 122.412 16.1538 123.692 16.1538C125.611 16.1538 127.018 16.6667 128.17 17.8205C129.193 18.9744 129.833 20.641 129.833 22.8205V34.6154H124.715V24.6154C124.715 23.4615 124.46 22.4359 123.948 21.9231C123.436 21.2821 122.668 21.0256 121.773 21.0256C120.749 21.0256 120.11 21.2821 119.47 21.9231C118.958 22.5641 118.702 23.4615 118.702 24.6154V34.6154H113.584V24.6154C113.584 23.4615 113.329 22.4359 112.817 21.9231C112.305 21.2821 111.537 21.0256 110.642 21.0256C109.746 21.0256 108.979 21.2821 108.339 21.9231C107.827 22.5641 107.571 23.4615 107.571 24.6154V34.6154H102.453L102.198 16.5385ZM131.241 11.0256H136.358V29.8718H148.129V34.6154H131.241V11.0256ZM156.701 31.4103C157.853 31.4103 158.876 31.1538 159.644 30.5128C160.411 29.8718 160.795 29.2308 160.795 28.2051V27.3077C160.284 27.0513 159.772 26.9231 159.26 26.7949C158.62 26.6667 158.108 26.6667 157.469 26.6667C156.317 26.6667 155.55 26.9231 154.91 27.3077C154.27 27.6923 154.014 28.3333 154.014 29.1026V29.2308C154.014 29.8718 154.27 30.5128 154.782 30.8974C155.294 31.2821 155.933 31.4103 156.701 31.4103ZM155.166 35C154.27 35 153.503 34.8718 152.735 34.6154C151.967 34.359 151.328 33.9744 150.816 33.5897C150.304 33.0769 149.792 32.5641 149.536 31.7949C149.153 31.1538 149.025 30.3846 149.025 29.359C149.025 28.3333 149.153 27.5641 149.536 26.7949C149.92 26.0256 150.432 25.5128 151.072 25C151.711 24.4872 152.479 24.2308 153.375 23.9744C154.27 23.7179 155.294 23.5897 156.317 23.5897C157.085 23.5897 157.981 23.5897 158.748 23.8462C159.388 23.9744 160.156 24.1026 160.795 24.359V24.1026C160.795 23.0769 160.411 22.1795 159.772 21.6667C159.132 21.1538 158.108 20.7692 156.829 20.7692C155.806 20.7692 155.038 20.8974 154.27 21.0256C153.503 21.1538 152.735 21.4103 151.967 21.7949L150.688 17.9487C151.711 17.5641 152.735 17.1795 153.758 16.9231C154.782 16.6667 156.189 16.5385 157.597 16.5385C159.004 16.5385 160.156 16.6667 161.179 17.0513C162.203 17.4359 162.97 17.9487 163.61 18.5897C164.25 19.2308 164.762 20.1282 165.145 21.0256C165.401 22.0513 165.657 23.0769 165.657 24.359V34.8718H160.667V32.9487C160.028 33.5897 159.26 34.2308 158.364 34.6154C157.597 34.7436 156.445 35 155.166 35ZM176.532 30.641C177.684 30.641 178.835 30.1282 179.603 29.2308C179.987 28.8462 180.371 28.2051 180.498 27.6923C180.754 27.0513 180.882 26.4103 180.882 25.641V25.5128C180.882 24.7436 180.754 24.1026 180.498 23.4615C180.243 22.8205 179.987 22.3077 179.603 21.9231C178.835 21.0256 177.684 20.5128 176.532 20.5128C175.381 20.5128 174.229 21.0256 173.462 21.9231C173.078 22.3077 172.694 22.9487 172.566 23.4615C172.31 24.1026 172.182 24.7436 172.182 25.5128V25.641C172.182 26.4103 172.31 27.0513 172.566 27.6923C172.822 28.3333 173.078 28.8462 173.462 29.2308C174.229 30.1282 175.381 30.641 176.532 30.641ZM177.812 35C176.404 35 175.381 34.7436 174.485 34.2308C173.59 33.7179 172.822 33.0769 172.31 32.3077V34.6154H167.192V10H172.31V19.1026C172.95 18.2051 173.718 17.5641 174.613 17.0513C175.509 16.5385 176.66 16.2821 177.94 16.2821C178.963 16.2821 179.987 16.5385 181.01 16.9231C182.034 17.3077 182.929 17.9487 183.569 18.7179C184.337 19.4872 184.976 20.5128 185.36 21.6667C185.872 22.8205 186 24.1026 186 25.641V25.7692C186 27.3077 185.744 28.5897 185.36 29.7436C184.849 30.8974 184.337 31.9231 183.569 32.6923C182.801 33.4615 181.906 34.1026 181.01 34.4872C179.987 34.7436 178.835 35 177.812 35Z" fill="white"/>
<mask id="mask0" mask-type="alpha" maskUnits="userSpaceOnUse" x="0" y="0" width="30" height="42">
<path fill-rule="evenodd" clip-rule="evenodd" d="M0 0H30V42H0V0Z" fill="white"/>
</mask>
<g mask="url(#mask0)">
<path fill-rule="evenodd" clip-rule="evenodd" d="M2.5974 0.807072C2.33766 0.807072 1.94805 0.936203 1.68831 1.06533C1.16883 1.3236 0.909091 1.96925 0.909091 2.48578V40.4504L7.53247 36.7056C7.66234 36.5765 7.79221 36.3182 7.79221 36.1891V11.3959L29.0909 23.6633V16.1737C29.0909 15.9155 28.961 15.7863 28.8312 15.6572L3.50649 1.06533C3.24675 0.936203 2.85714 0.807072 2.5974 0.807072ZM0 42V2.48578C0 1.58186 0.51948 0.67794 1.2987 0.290546C2.07792 -0.0968486 3.11688 -0.0968486 3.8961 0.290546L29.2208 14.8824C29.7403 15.1407 30 15.6572 30 16.1737V25.2129L8.7013 12.9454V36.06C8.7013 36.5765 8.44156 37.093 7.92208 37.3513L0 42Z" fill="white"/>
</g>
<path fill-rule="evenodd" clip-rule="evenodd" d="M10.0701 26.8528V34.7117L29.0637 24.0184V16.1595L10.0701 26.8528ZM9.53503 36L9.26752 35.6135C9.13376 35.3558 9 35.0982 9 34.8405V26.3374L29.465 15L29.7325 15.3865C29.8662 15.6442 30 15.9018 30 16.1595V24.6626L9.53503 36Z" fill="white"/>
<path fill-rule="evenodd" clip-rule="evenodd" d="M10.8829 27.4043V34.9362C10.8829 35.0638 10.8829 35.0638 10.8829 35.1915C10.8829 35.3191 11.009 35.4468 11.1351 35.4468L23.1171 42.4681V35.5745C23.1171 34.9362 22.7387 34.4255 22.2342 34.1702C22.3604 34.1702 10.8829 27.4043 10.8829 27.4043ZM24 44L10.7568 36.2128C10.5045 36.0851 10.2523 35.7021 10.1261 35.4468C10.1261 35.3191 10 35.1915 10 34.9362V26L22.7387 33.5319C23.4955 34.0426 24 34.8085 24 35.7021V44Z" fill="white"/>
</svg>
