<svg xmlns="http://www.w3.org/2000/svg" width="293.5" height="110.5" viewBox="0 0 293.5 110.5"><path fill="#D85039" d="M220.84 56.379s-3.986 7.104 3.119 11.089c7.104 3.984 14.108-5.167 14.108-5.167l-17.227-5.922zM251.697 65.151s22.64 15.128 27.445 12.374c4.642-3.31-27.445-12.374-27.445-12.374z"/><path fill="#D85039" d="M245.076 59.477s30.804 17.618 36.369 13.797c4.11-3.899-36.369-13.797-36.369-13.797zM244.019 65.062s25.494 20.838 32.157 17.824c5.543-3.078-32.157-17.824-32.157-17.824z"/><path fill="#D85039" d="M238.854 62.928s22.767 20.41 27.029 20.04c4.139-.359-27.029-20.04-27.029-20.04z"/><path fill="#EA9658" d="M237.508 58.801s27.102 18.277 33.31 15.977c5.384-2.214-33.31-15.977-33.31-15.977z"/><path fill="#EA9658" d="M235.538 56.814s31.42 16.104 36.62 13.174c4.141-2.815-36.62-13.174-36.62-13.174zM233.911 57.252s23.743 19.435 29.465 18.458c4.978-.992-29.465-18.458-29.465-18.458z"/><path fill="#EA9658" d="M231.162 57.328s17.771 20.827 25.312 19.774c6.722-.949-25.312-19.774-25.312-19.774z"/><path fill="#1F8299" d="M226.993 54.304s27.364 17.621 33.474 15.566c5.22-2-33.474-15.566-33.474-15.566z"/><path fill="#1F8299" d="M227.138 54.213s31.803 15.537 36.838 12.841c4.244-2.691-36.838-12.841-36.838-12.841zM225.646 55.164s24.006 18.693 30.711 17.088c6.151-1.785-30.711-17.088-30.711-17.088z"/><path fill="#D85039" d="M280.491 20.281l-5.123-.536c5.66-4.589 6.996-17.402 6.996-17.402-37.214 33.458-74.246 23.331-74.246 23.331l-21.747 2.908a105.47 105.47 0 0 0 3.402 2.503l-1.106.326c42.109 43.252 85.093 3.708 85.093 3.708l-5.123-.537c10.787-4.054 11.854-14.301 11.854-14.301z"/><path fill="#D85039" d="M180.726 29.773s26.48 60.701 55.557 25.594l-45.155-32.464-10.402 6.87z"/><path fill="#D85039" d="M211.834 28.622s-5.846-7.19-19.918-19.32c-18.514-15.957-22.003-.679-22.003-.679l10.813 21.149 31.108-1.15z"/><path fill="#FFF" d="M196.129 19.389s-21.021-3.063-18.213 3.661l-5.619-13.448s10.64-12.342 23.832 9.787z"/><circle fill="#404041" cx="182.107" cy="9.453" r="1.287"/><path fill="#58595B" d="M178.528 25.473s-7.611-8.387-9.567-3.623l3.915-9.532s3.395-1.695 5.652 13.155z"/><g><path fill="#26A5D4" d="M211.834 28.622s52.938 11.627 77.811-1.47c0 0-4.894 11.915-11.618 14.722l4.768 1.959s-3.913 9.532-15.403 10.384l4.768 1.957s-52.387 25.835-80.605-27.526l20.279-.026z"/><path fill="#EA9658" d="M211.834 28.622s27.937 11.469 55.259 5.977c0 0-2.938 7.151-9.662 9.96l4.769 1.956s-5.32 6.17-11.066 6.598l7.15 2.934s-42.277 17.402-66.73-27.399l20.28-.026z"/><path fill="#FFE6C6" d="M210.163 28.745s20.252 13.683 46.274 11.052c0 0-3.267 5.754-9.279 7.414l3.838 2.176s-5.185 4.665-10.11 4.406l5.755 3.266s-39.94 3.732-55.088-28.41l18.61.096z"/><path fill="#D85039" d="M211.289 27.98s13.776 10.965 31.843 10.707c0 0-3.914 9.533-14.426 8 0 0 4.768 1.956 6.172 5.319 0 0-20.852 7.76-44.005-24.026h20.416z"/></g><path fill="#BBBBBC" d="M174.549 12.045s.44-2.538-4.634-3.422c0 0-9.823 11.364-.554 18.208 0 .001-2.093-2.979 5.188-14.786z"/><path d="M199.076 90.646c4.426-2.033 7.258-6.677 7.258-12.118 0-4.137-1.451-7.326-4.5-10.229-2.975-2.902-6.602-4.138-10.811-4.138h-19.734v11.537c-.727-2.104-2.541-4.136-4.426-5.948-4.572-4.282-10.013-6.459-16.614-6.459-6.604 0-11.973 2.178-16.614 6.459-.872.797-1.525 1.668-2.249 2.538v-8.126h-31.198v31.923H86.401V64.161H74.792v34.245L60.935 64.161H50.268L39.965 89.266c-1.305-3.411-4.353-5.952-9.577-7.836-2.684-1.017-6.094-2.031-7.545-2.322-.726-.219-1.45-.436-2.176-.727-1.307-.58-1.742-1.233-1.742-2.468 0-1.523 1.669-2.611 4.644-2.611 3.265 0 5.804 1.088 7.691 3.338l7.691-6.53c-3.411-4.571-8.708-6.82-15.745-6.82-4.209 0-7.836 1.088-10.811 3.335-2.974 2.251-4.499 5.369-4.499 9.432 0 5.732 3.338 9.869 9.867 12.336 2.032.725 5.079 1.668 6.748 2.176.871.219 1.742.582 2.54.871 1.668.653 2.394 1.451 2.394 2.611 0 2.031-1.886 3.049-5.732 3.049-4.498 0-8.417-2.178-10.665-5.297l-8.199 6.313c1.669 2.539 3.99 4.644 7.037 6.458 3.121 1.743 7.039 2.61 11.827 2.61 3.846 0 7.038-.798 9.65-1.959l-.435 1.017H45.19l2.249-5.078h16.397l2.177 5.078h66.097v-7.185c0 .655 1.017 1.307 1.669 1.959 4.572 4.284 10.015 6.46 16.615 6.46 6.604 0 11.898-2.176 16.471-6.46 1.959-1.813 3.698-3.843 4.425-5.949v11.248h11.607V93.254H187.688l8.708 13.061h13.349l-10.669-15.669zM50.413 91.733l5.151-13.206 5.151 13.206H50.413zm61.382-17.415h18.066c-1.161 2.176-1.959 3.63-2.468 5.806h-15.598v-5.806zm0 21.767v-6.529h15.454c.437 2.902 1.306 4.354 2.539 6.529h-17.993zm46.798-2.466c-2.25 2.248-5.007 3.408-8.199 3.408-3.266 0-6.021-1.088-8.271-3.335-2.248-2.249-3.338-5.009-3.338-8.272 0-3.193 1.161-5.949 3.41-8.199 2.249-2.322 5.007-3.481 8.199-3.481 3.193 0 5.949 1.159 8.199 3.481 2.321 2.323 3.48 5.079 3.48 8.199 0 3.121-1.161 5.879-3.48 8.199zm31.125-9.868h-6.821v-9.433h7.764c2.25 0 4.064 1.741 4.064 4.499 0 3.195-1.887 4.934-5.007 4.934z"/></svg>