<svg xmlns="http://www.w3.org/2000/svg" viewBox="-1380.3 1699.7 186.4 186.4"><path stroke="#13BEBB" stroke-width="4.252" stroke-linecap="round" stroke-linejoin="round" stroke-miterlimit="10" fill="none" d="M-1307.8 1817.2h-45v-90.1h124.5v34.3m-77.7 3.5h-35v-20.7h98v3.3m-89.6 26.3h20.6m-20.6 10.2h18.9m-18.9 10.3h18.5m-18.5 10.2h20.2"/><path d="M-1229.9 1828.2c-19.2 19.2-50.4 19.2-69.6 0-11.6-11.6-16.2-27.5-13.8-42.5.5-3.5 1.5-6.9 2.7-10.2 2.4-6.2 6.1-12 11.1-17 19.2-19.2 50.4-19.2 69.6 0s19.3 50.5 0 69.7zm-103.8 41.5l-7.3-7.3 32.6-33.4 7.3 7.3zm36.1-39.6l-3.7-3.8-5.3 4.5 3.7 3.7zM-1352.8 1737.8h124.5" stroke="#13BEBB" stroke-width="4.252" stroke-linecap="round" stroke-linejoin="round" stroke-miterlimit="10" fill="none"/><path fill="#13BEBB" d="M-1349.5 1730.6h3.4v3.4h-3.4zm5.1 0h3.4v3.4h-3.4zm5 0h3.4v3.4h-3.4z"/></svg>