<svg xmlns="http://www.w3.org/2000/svg" width="141.732" height="141.732" viewBox="75.884 -5.366 141.732 141.732"><path fill="#F1F1F2" stroke="#58595B" stroke-width=".5" stroke-miterlimit="10" d="M144.939 25.769h5.504v4.129h-5.504zM151.821 10.631c0-4.127-4.131-4.127-4.131-4.127s-4.127 0-4.127 4.127c0 4.129 2.751 4.129 1.375 15.138h5.504c-1.374-11.009 1.379-11.009 1.379-15.138z"/><ellipse fill="#F1F1F2" stroke="#58595B" stroke-width=".5" stroke-miterlimit="10" cx="147.692" cy="25.769" rx="4.129" ry="1.269"/><path fill="#F1F1F2" stroke="#58595B" stroke-width=".5" stroke-miterlimit="10" d="M144.939 101.566h5.504v4.129h-5.504zM143.563 120.834c0 4.127 4.127 4.127 4.127 4.127s4.131 0 4.131-4.127c0-4.13-2.753-4.13-1.378-15.139h-5.504c1.376 11.009-1.376 11.009-1.376 15.139z"/><ellipse fill="#F1F1F2" stroke="#58595B" stroke-width=".5" stroke-miterlimit="10" cx="147.692" cy="105.695" rx="4.129" ry="1.269"/><path fill="#F1F1F2" stroke="#58595B" stroke-width=".5" stroke-miterlimit="10" d="M183.525 62.98h4.129v5.504h-4.129zM202.792 69.86c4.127 0 4.127-4.127 4.127-4.127s0-4.129-4.127-4.129c-4.13 0-4.13 2.752-15.138 1.376v5.503c11.008-1.374 11.008 1.377 15.138 1.377z"/><ellipse fill="#F1F1F2" stroke="#58595B" stroke-width=".5" stroke-miterlimit="10" cx="187.654" cy="65.732" rx="1.27" ry="4.128"/><path fill="#F1F1F2" stroke="#58595B" stroke-width=".5" stroke-miterlimit="10" d="M107.729 62.98h4.129v5.504h-4.129zM92.591 61.604c-4.128 0-4.128 4.128-4.128 4.128s0 4.128 4.128 4.128 4.128-2.753 15.137-1.376V62.98c-11.009 1.376-11.009-1.376-15.137-1.376z"/><ellipse fill="#F1F1F2" stroke="#58595B" stroke-width=".5" stroke-miterlimit="10" cx="107.729" cy="65.732" rx="1.27" ry="4.128"/><g><path fill="#F1F1F2" stroke="#58595B" stroke-width=".499995" stroke-miterlimit="10" d="M177.896 92.043l-3.893 3.892-2.92-2.92 3.893-3.892z"/><path fill="#F1F1F2" stroke="#58595B" stroke-width=".5" stroke-miterlimit="10" d="M183.732 107.614c2.919 2.918 5.839 0 5.839 0s2.921-2.921 0-5.84c-2.92-2.919-4.865-.972-11.678-9.73l-1.945 1.947-1.946 1.944c8.758 6.814 6.811 8.758 9.73 11.679z"/><ellipse transform="rotate(135.008 175.95 93.985)" fill="#F1F1F2" stroke="#58595B" stroke-width=".5" stroke-miterlimit="10" cx="175.948" cy="93.991" rx="4.128" ry="1.268"/><g><path fill="#F1F1F2" stroke="#58595B" stroke-width=".499995" stroke-miterlimit="10" d="M117.488 39.423l3.893-3.892 2.918 2.92-3.893 3.891z"/><path fill="#F1F1F2" stroke="#58595B" stroke-width=".5" stroke-miterlimit="10" d="M111.648 23.851c-2.918-2.919-5.838 0-5.838 0s-2.919 2.919 0 5.838c2.92 2.919 4.866.973 11.678 9.731l1.946-1.946 1.945-1.946c-8.758-6.811-6.81-8.758-9.731-11.677z"/><ellipse transform="rotate(-45.001 119.433 37.476)" fill="#F1F1F2" stroke="#58595B" stroke-width=".5" stroke-miterlimit="10" cx="119.433" cy="37.474" rx="4.128" ry="1.27"/></g></g><g><path fill="#F1F1F2" stroke="#58595B" stroke-width=".50003" stroke-miterlimit="10" d="M174.01 35.536l3.893 3.893-2.92 2.92-3.893-3.892z"/><path fill="#F1F1F2" stroke="#58595B" stroke-width=".5" stroke-miterlimit="10" d="M189.573 29.689c2.919-2.919 0-5.838 0-5.838s-2.922-2.919-5.838 0c-2.922 2.918-.976 4.865-9.731 11.677l1.944 1.946 1.945 1.946c6.815-8.757 8.758-6.811 11.68-9.731z"/><ellipse transform="rotate(45.001 175.958 37.478)" fill="#F1F1F2" stroke="#58595B" stroke-width=".5" stroke-miterlimit="10" cx="175.948" cy="37.474" rx="4.128" ry="1.268"/><g><path fill="#F1F1F2" stroke="#58595B" stroke-width=".50003" stroke-miterlimit="10" d="M121.377 95.927l-3.893-3.892 2.92-2.92 3.893 3.892z"/><path fill="#F1F1F2" stroke="#58595B" stroke-width=".5" stroke-miterlimit="10" d="M105.81 101.774c-2.919 2.919 0 5.84 0 5.84s2.92 2.918 5.838 0c2.92-2.921.973-4.867 9.731-11.679l-1.945-1.946-1.946-1.945c-6.812 8.759-8.758 6.811-11.678 9.73z"/><ellipse transform="rotate(-135.008 119.432 93.992)" fill="#F1F1F2" stroke="#58595B" stroke-width=".5" stroke-miterlimit="10" cx="119.433" cy="93.991" rx="4.128" ry="1.269"/></g></g><g><path fill="#F1F1F2" stroke="#58595B" stroke-width=".5" stroke-miterlimit="10" d="M144.825 35.528h5.735v2.827h-5.735zM144.825 49.665h5.735v2.827h-5.735zM145.779 39.298l-.954 4.712.954 4.714h3.824l.957-4.714-.957-4.712zM150.56 49.194c0 .26-.429.471-.957.471h-3.823c-.526 0-.955-.211-.955-.471s.428-.47.955-.47h3.823c.528 0 .957.21.957.47zM150.56 38.827c0-.261-.429-.472-.957-.472h-3.823c-.526 0-.955.211-.955.472 0 .26.428.471.955.471h3.823c.528 0 .957-.211.957-.471z"/><g><path fill="#F1F1F2" stroke="#58595B" stroke-width=".5" stroke-miterlimit="10" d="M144.825 79.164h5.735v2.825h-5.735zM144.825 93.302h5.735v2.826h-5.735zM145.779 82.934l-.954 4.712.954 4.713h3.824l.957-4.713-.957-4.712zM150.56 92.829c0 .261-.429.473-.957.473h-3.823c-.526 0-.955-.212-.955-.473 0-.26.428-.47.955-.47h3.823c.528 0 .957.21.957.47zM150.56 82.462c0-.26-.429-.473-.957-.473h-3.823c-.526 0-.955.213-.955.473 0 .262.428.472.955.472h3.823c.528 0 .957-.21.957-.472z"/></g></g><g><path fill="#F1F1F2" stroke="#58595B" stroke-width=".5" stroke-miterlimit="10" d="M175.164 62.961h2.827v5.734h-2.827zM161.028 62.961h2.826v5.734h-2.826zM174.22 63.917l-4.712-.956-4.711.956v3.822l4.711.956 4.712-.956zM164.326 68.695c-.261 0-.472-.428-.472-.956v-3.822c0-.527.211-.956.472-.956.26 0 .471.429.471.956v3.822c0 .529-.211.956-.471.956z"/><path fill="#F1F1F2" stroke="#58595B" stroke-width=".5" stroke-miterlimit="10" d="M174.691 68.695c.262 0 .473-.428.473-.956v-3.822c0-.527-.211-.956-.473-.956-.259 0-.472.429-.472.956v3.822c.001.529.214.956.472.956z"/><g><path fill="#F1F1F2" stroke="#58595B" stroke-width=".5" stroke-miterlimit="10" d="M131.528 62.961h2.828v5.734h-2.828zM117.391 62.961h2.827v5.734h-2.827zM130.585 63.917l-4.712-.956-4.712.956v3.822l4.712.956 4.712-.956z"/><path fill="#F1F1F2" stroke="#58595B" stroke-width=".5" stroke-miterlimit="10" d="M120.689 68.695c-.26 0-.471-.428-.471-.956v-3.822c0-.527.211-.956.471-.956.261 0 .472.429.472.956v3.822c0 .529-.211.956-.472.956zM131.057 68.695c.261 0 .472-.428.472-.956v-3.822c0-.527-.211-.956-.472-.956-.26 0-.471.429-.471.956v3.822c-.001.529.211.956.471.956z"/></g></g><g><path fill="#F1F1F2" stroke="#58595B" stroke-width=".499995" stroke-miterlimit="10" d="M171.148 85.234l-4.053 4.055-2-1.999 4.052-4.055zM161.149 75.229l-4.055 4.054-1.998-1.998 4.055-4.054z"/><path fill="#F1F1F2" stroke="#58595B" stroke-width=".5" stroke-miterlimit="10" d="M167.803 83.236l-2.657-4.007-4.006-2.658-2.704 2.703 2.656 4.01 4.008 2.655z"/><path fill="#F1F1F2" stroke="#58595B" stroke-width=".5" stroke-miterlimit="10" d="M157.426 79.617c-.184-.184-.031-.636.343-1.008l2.702-2.704c.374-.373.826-.526 1.01-.343.184.186.03.636-.341 1.009l-2.704 2.703c-.374.374-.827.528-1.01.343zM164.757 86.947c.185.186.637.032 1.01-.342l2.702-2.702c.372-.374.525-.826.341-1.01-.184-.184-.636-.03-1.007.343l-2.703 2.703c-.374.374-.528.826-.343 1.008z"/><g><path fill="#F1F1F2" stroke="#58595B" stroke-width=".499995" stroke-miterlimit="10" d="M140.29 54.368l-4.055 4.054-1.999-2 4.055-4.053zM130.294 44.374l-4.055 4.055-2-2 4.055-4.054z"/><path fill="#F1F1F2" stroke="#58595B" stroke-width=".5" stroke-miterlimit="10" d="M136.948 52.381l-2.657-4.007-4.008-2.658-2.704 2.704 2.658 4.008 4.007 2.656z"/><path fill="#F1F1F2" stroke="#58595B" stroke-width=".5" stroke-miterlimit="10" d="M126.571 48.763c-.185-.184-.031-.636.343-1.009l2.702-2.703c.374-.374.826-.527 1.011-.343.183.184.028.636-.344 1.008l-2.704 2.704c-.373.373-.824.527-1.008.343zM133.902 56.093c.183.185.635.031 1.009-.342l2.702-2.703c.375-.374.528-.825.344-1.01-.185-.184-.636-.03-1.009.343l-2.704 2.703c-.372.374-.525.825-.342 1.009z"/></g></g><g><path fill="#F1F1F2" stroke="#58595B" stroke-width=".499995" stroke-miterlimit="10" d="M128.283 89.284l-4.055-4.055 2-1.999 4.054 4.055zM138.293 79.285l-4.055-4.056 1.999-1.998 4.055 4.056z"/><path fill="#F1F1F2" stroke="#58595B" stroke-width=".5" stroke-miterlimit="10" d="M130.283 85.939l4.008-2.655 2.658-4.01-2.705-2.703-4.007 2.658-2.658 4.007z"/><path fill="#F1F1F2" stroke="#58595B" stroke-width=".5" stroke-miterlimit="10" d="M133.902 75.563c.183-.184.635-.03 1.009.342l2.702 2.705c.375.372.527.824.344 1.008-.185.185-.636.031-1.007-.343l-2.706-2.703c-.372-.374-.525-.824-.342-1.009zM126.571 82.894c-.186.184-.031.636.343 1.01l2.702 2.702c.374.374.826.527 1.011.342.183-.183.028-.635-.344-1.008l-2.704-2.703c-.373-.374-.824-.527-1.008-.343z"/><g><path fill="#F1F1F2" stroke="#58595B" stroke-width=".499995" stroke-miterlimit="10" d="M159.141 58.43l-4.053-4.052 1.999-2 4.053 4.054zM169.153 48.427l-4.054-4.055 2-2 4.054 4.055z"/><path fill="#F1F1F2" stroke="#58595B" stroke-width=".5" stroke-miterlimit="10" d="M161.14 55.083l4.006-2.655 2.657-4.009-2.703-2.703-4.008 2.658-2.656 4.007z"/><path fill="#F1F1F2" stroke="#58595B" stroke-width=".5" stroke-miterlimit="10" d="M164.757 44.708c.185-.184.637-.031 1.008.342l2.704 2.703c.372.374.525.826.341 1.01-.184.184-.636.03-1.007-.343l-2.703-2.703c-.374-.373-.528-.825-.343-1.009zM157.426 52.038c-.184.185-.031.637.343 1.009l2.702 2.703c.374.374.826.527 1.01.343.184-.185.03-.636-.341-1.01l-2.704-2.702c-.374-.373-.827-.527-1.01-.343z"/></g></g><g><path fill="#F1F1F2" stroke="#58595B" stroke-width=".5" stroke-miterlimit="10" d="M147.69 103.348c-20.74 0-37.614-16.874-37.614-37.615 0-20.741 16.874-37.615 37.614-37.615 20.741 0 37.614 16.874 37.614 37.615.001 20.741-16.872 37.615-37.614 37.615zm0-66.056c-15.681 0-28.44 12.759-28.44 28.441 0 15.683 12.759 28.441 28.44 28.441 15.683 0 28.44-12.758 28.44-28.441.001-15.682-12.757-28.441-28.44-28.441z"/></g><g><path fill="#F1F1F2" stroke="#58595B" stroke-width=".5" stroke-miterlimit="10" d="M147.69 80.87c-8.347 0-15.138-6.791-15.138-15.137 0-8.348 6.791-15.138 15.138-15.138 8.349 0 15.138 6.79 15.138 15.138 0 8.346-6.789 15.137-15.138 15.137zm0-24.77c-5.311 0-9.631 4.321-9.631 9.633 0 5.311 4.32 9.632 9.631 9.632 5.313 0 9.636-4.321 9.636-9.632 0-5.312-4.323-9.633-9.636-9.633z"/></g></svg>