<svg xmlns="http://www.w3.org/2000/svg" width="274.473" height="395.074" viewBox="244.789 -22.898 274.473 395.074"><g stroke="#595A5C" stroke-width=".5" stroke-miterlimit="10"><path fill="#F2F2F2" d="M290.535 31.684s0-11.437 11.437-11.437h160.11s11.436 0 11.436 11.437v297.347s0 11.437-11.436 11.437h-160.11s-11.437 0-11.437-11.437V31.684z"/><path fill="#FFF" d="M290.535 43.121h182.982v263.037H290.535z"/><circle fill="#F2F2F2" cx="382.026" cy="322.677" r="11.436"/><g fill="#F2F2F2"><circle cx="324.209" cy="32.498" r="5.718"/><circle cx="324.209" cy="32.498" r="2.859"/></g><path fill="#D1D2D3" d="M346.129 32.546s0-3.403 3.403-3.403h64.67s3.404 0 3.404 3.403c0 0 0 3.405-3.404 3.405h-64.67c0-.001-3.403-.001-3.403-3.405z"/></g><g stroke="#595A5C" stroke-width=".53" stroke-miterlimit="10"><path fill="#D1D2D3" d="M501.763 39.616l-4.516 11.943 8.069.321z"/><path fill="#F2F2F2" d="M497.247 51.559l-4.516 11.944 16.139.642-3.554-12.265z"/><path fill="#F2F2F2" d="M492.782 63.485l4.035.162-8.888 221.466-4.035-.162z"/><path fill="#F2F2F2" d="M496.042 285.442l-8.067-.32 8.8-221.468 8.067.32z" stroke-width=".5299947"/><path fill="#F2F2F2" d="M500.142 285.605l-4.034-.159 8.688-221.464 4.035.158z" stroke-width=".5299841000000001"/><path fill="#F2F2F2" d="M483.91 284.983l16.136.64-.16 4.036-16.136-.641z" stroke-width=".5299947"/><path fill="#F2F2F2" d="M483.757 289.01l16.137.644-.321 8.066-16.137-.643z" stroke-width=".5299947"/><path fill="#F2F2F2" d="M483.444 297.073l-.321 8.07s-.161 4.035 3.874 4.197l8.068.32s4.034.16 4.196-3.873l.32-8.072-16.137-.642z"/></g><g stroke="#595A5C" stroke-width=".53" stroke-miterlimit="10"><path fill="#D1D2D3" d="M251.134 109.787l16.125-.919 2.986 52.405-16.125.92z" stroke-width=".5300106"/><path fill="#F2F2F2" d="M254.133 162.176l16.124-.92.23 4.031-16.124.92z" stroke-width=".5300159"/><path fill="#D1D2D3" d="M254.35 166.222l16.125-.92 9.284 162.605-16.125.92z" stroke-width=".5300159"/><path fill="#D1D2D3" d="M251.13 109.778s-.461-8.062 7.604-8.521c8.06-.461 8.521 7.602 8.521 7.602l-16.125.919z"/><path fill="#F2F2F2" d="M255.16 109.549l3.682 64.497s.229 4.03 4.261 3.802c4.029-.23 3.801-4.262 3.801-4.262l-3.682-64.498-8.062.461z"/><path fill="#F2F2F2" d="M263.624 328.835l16.126-.922.23 4.03-16.125.922z" stroke-width=".5300159"/><path fill="#D1D2D3" d="M263.859 332.844s.23 4.029 4.261 3.803l8.062-.461s4.032-.231 3.803-4.265l-16.126.923z"/></g></svg>