<svg xmlns="http://www.w3.org/2000/svg" width="864" height="340.38" viewBox="-49.807 0 864 340.38"><g stroke="#595A5C" stroke-width=".5" stroke-miterlimit="10"><path fill="#F2F2F2" d="M111.863 296.797l-2.8-.48 17.256-100.767 2.8.48z" stroke-width=".500025"/><path fill="#D1D2D3" d="M134.792 179.719l-4.238 7.919 5.599.959z"/><path fill="#F2F2F2" d="M130.554 187.638l-4.236 7.917 11.195 1.916-1.36-8.874z"/><path fill="#F2F2F2" d="M129.132 196.036l5.596.96-17.265 100.75-5.596-.96z" stroke-width=".499985"/><path fill="#F2F2F2" d="M134.706 196.99l2.797.478-17.235 100.765-2.797-.479z" stroke-width=".50001"/><path fill="#F2F2F2" d="M119.796 301.05l-11.195-1.918.48-2.797 11.194 1.919z" stroke-width=".499985"/><path fill="#F2F2F2" d="M118.829 306.626l-11.197-1.917.959-5.6 11.196 1.917z" stroke-width=".500015"/><path fill="#F2F2F2" d="M107.628 304.71l-.959 5.597s-.479 2.799 2.319 3.278l5.599.959s2.799.479 3.276-2.32l.959-5.598-11.194-1.916z"/><g><path fill="#F2F2F2" d="M88.687 288.845l-2.8-.479 17.225-100.762 2.8.479z"/><path fill="#D1D2D3" d="M111.599 171.771l-4.237 7.918 5.598.96z"/><path fill="#F2F2F2" d="M107.362 179.689l-4.237 7.917 11.196 1.917-1.361-8.874z"/><path fill="#F2F2F2" d="M105.932 188.089l5.597.96-17.266 100.75-5.597-.96z" stroke-width=".499985"/><path fill="#F2F2F2" d="M111.529 189.048l2.798.48-17.265 100.75-2.799-.48z" stroke-width=".499985"/><path fill="#F2F2F2" d="M96.593 293.08l-11.196-1.918.479-2.798 11.196 1.917z" stroke-width=".500025"/><path fill="#F2F2F2" d="M95.631 298.676l-11.195-1.916.958-5.597 11.195 1.916z" stroke-width=".500015"/><path fill="#F2F2F2" d="M84.435 296.76l-.958 5.598s-.479 2.799 2.319 3.277l5.599.959s2.798.479 3.277-2.32l.958-5.598-11.195-1.916z"/></g><g><path fill="#F2F2F2" d="M59.188 194.231l2.785-.55 19.83 100.28-2.784.55zM79.523 311.778l1.134-8.909-5.573 1.101z"/><path fill="#F2F2F2" d="M80.657 302.869l1.134-8.908-11.143 2.205 4.436 7.804zM79.006 294.501l-5.57 1.102-19.832-100.28 5.571-1.102z"/><path fill="#F2F2F2" d="M73.443 295.614l-2.784.551-19.843-100.284 2.784-.551z" stroke-width=".50001"/><path fill="#D1D2D3" d="M50.277 193.094l11.143-2.201.55 2.784-11.143 2.201z" stroke-width=".49998"/><path fill="#D1D2D3" d="M49.175 187.525l11.142-2.203 1.102 5.572-11.142 2.203z"/><path fill="#F2F2F2" d="M60.317 185.321l-1.101-5.571s-.551-2.784-3.337-2.233l-5.571 1.101s-2.786.551-2.233 3.338l1.101 5.57 11.141-2.205z"/></g><g><path fill="#D1D2D3" d="M121.193 203.62l-10.961-2.974 9.667-35.626 10.962 2.975z"/><path fill="#F2F2F2" d="M120.45 206.36l-10.96-2.976.744-2.739 10.96 2.977z" stroke-width=".49998"/><path fill="#D1D2D3" d="M98.887 285.838l-10.966-2.977 21.576-79.478 10.967 2.977z" stroke-width=".500015"/><path fill="#D1D2D3" d="M119.9 165.02s1.489-5.48 6.971-3.992c5.479 1.487 3.991 6.968 3.991 6.968L119.9 165.02z"/><path fill="#F2F2F2" d="M122.641 165.765l-11.899 43.847s-.742 2.74 1.997 3.484c2.74.742 3.483-1.999 3.483-1.999l11.9-43.847-5.481-1.485zM98.138 288.574L87.176 285.6l.744-2.74 10.961 2.974z"/><path fill="#F2F2F2" d="M87.177 285.6s-.743 2.738 1.998 3.482l5.479 1.487s2.741.742 3.484-1.996L87.177 285.6z"/></g><g><path fill="#F2F2F2" d="M68.515 338.38l-15.07-120.56h90.42l-15.071 120.56z"/><path fill="none" d="M55.329 232.889h86.652M57.212 247.959h82.885"/></g></g><path fill="#F2F2F2" stroke="#595A5C" stroke-width=".5" stroke-miterlimit="10" d="M114.061 278.837c-5.382.595-.003-24.47-21.49-21.155l-5.572 1.281c-15.746 5.556-6.804 27.019-11.947 28.847-5.146 1.828-10.717-10.424-8.359 1.922C69.047 302.078 79.87 301.2 79.87 301.2l17.337-3.987 17.341-3.986s7.823-3.412 5.467-15.758c-2.359-12.346-.572.775-5.954 1.368"/><g fill="#F2F2F2" stroke="#595A5C" stroke-width=".5" stroke-miterlimit="10"><path d="M116.734 286.761s-9.204 7.898-20.955 8.876c0 0 1.156 3.564 4.213 3.977l-1.717 1.472s2.871 2.089 5.263 1.558l-2.577 2.214s16.82 2.258 23.174-19.891l-7.401 1.794z"/><path d="M116.734 286.761s-5.96 6.632-11.592 8.433c0 0 2.685 3.768 6.79 1.764 0 0-1.72 1.473-1.907 3.15 0 0 9.364-.444 15.153-17.559l-8.444 4.212z"/><path d="M118.916 278.148c-3.72 7.597-4.939 11.683-4.939 11.683l4.857-1.819-10.461 17.479c17.552 6.495 18.061-20.327 18.061-20.327L127.5 274.2s-3.691-6.041-8.584 3.948z"/><path d="M118.778 283.219s7.837-4.82 7.745-1.438c-.09 3.381.184-6.764.184-6.764s-6.07-3.579-7.929 8.202z"/><path d="M123.208 276.173a.646.646 0 0 1-.023.847.513.513 0 0 1-.771-.025.642.642 0 0 1 .021-.846.515.515 0 0 1 .773.024zM126.708 283.054s1.678-5.021 3.171-3.281l-2.989-3.482s-1.54-.05-.182 6.763zM114.347 290.633s-19.956 12.371-31.639 9.944c0 0 3.457 4.62 6.522 4.949l-1.684 1.52s2.766 3.695 7.516 2.513l-1.684 1.515s24.384 4.332 29.17-23.191l-8.201 2.75z"/><path d="M114.347 290.633s-9.869 8.892-21.597 10.178c0 0 2.075 2.771 5.142 3.102l-1.685 1.521s2.915 2.012 5.293 1.419l-2.526 2.274s16.867 1.822 22.734-20.484l-7.361 1.99z"/><path d="M115.232 290.394s-7.506 8.726-17.336 11.206c0 0 2.033 2.108 4.671 2.024l-1.282 1.487s2.677 1.364 4.637.579L104 307.924s14.501-.458 17.288-20.098l-6.056 2.568z"/><path d="M112.07 291.533s-3.532 5.882-9.127 7.829c0 0 2.768 3.696 6.826 1.586 0 0-1.685 1.516-1.834 3.2 0 0 9.351-.692 14.766-17.949l-10.631 5.334zM126.187 276.452s-.558-1.027 1.313-2.252c0 0 5.598 3.293 2.975 7.797 0 0 .375-1.637-4.288-5.545z"/></g><path fill="#F2F2F2" stroke="#595A5C" stroke-width=".5" stroke-miterlimit="10" d="M83.885 298.389c.417 2.19-.533 4.265-2.124 4.631-1.589.365-3.219-1.113-3.637-3.307-.418-2.189.531-4.263 2.122-4.63 1.592-.364 3.22 1.115 3.639 3.306zM115.557 291.105c.419 2.19-.531 4.265-2.122 4.63-1.59.366-3.219-1.113-3.637-3.305-.418-2.192.531-4.265 2.121-4.631 1.592-.365 3.221 1.115 3.638 3.306z"/><path fill="#F2F2F2" stroke="#595A5C" stroke-width=".5" stroke-miterlimit="10" d="M99.57 310.201c14.253-3.276 13.821-13.128 13.408-15.869l-.136-.716-.825-4.32s-2.281-10.754-17.808-7.182c-15.527 3.571-13.686 14.425-13.686 14.425l.825 4.319.136.717c.627 2.692 3.834 11.904 18.086 8.626"/><path fill="#F2F2F2" stroke="#595A5C" stroke-width=".5" stroke-miterlimit="10" d="M112.335 298.664l-4.475-3.241a5.3 5.3 0 0 0 1.036-4.28c-.514-2.69-2.918-4.415-5.368-3.853-1.433.329-2.548 1.377-3.139 2.722l-4.316-3.129-.688.947 4.629 3.354a5.436 5.436 0 0 0 .008 1.998c.514 2.689 2.916 4.414 5.366 3.851a4.326 4.326 0 0 0 1.637-.77l4.622 3.349.688-.948zM80.153 294.586l-.04-.209s.012.075.04.209M111.604 287.135l.041.209c-.025-.136-.041-.209-.041-.209"/><path fill="#F2F2F2" stroke="#595A5C" stroke-width=".5" stroke-miterlimit="10" d="M80.342 295.575s5.966-3.426 15.369-5.589c9.402-2.162 16.122-1.653 16.122-1.653s-1.441-9.939-17.624-6.219c-16.184 3.722-13.867 13.461-13.867 13.461"/><path fill="#F2F2F2" stroke="#595A5C" stroke-width=".5" stroke-miterlimit="10" d="M106.541 287.409l-4.686.312-.105-1.939 4.681-.313zM92.838 271.018c.188.028.407.059.631.084.317.039.577-.276.513-.619l-.433-2.264a.493.493 0 0 0-.371-.4l-.109-.023c-.386-.086-.542-.262-.612-.633-.059-.297.087-.581.416-.8a.534.534 0 0 0 .219-.547l-.059-.305c-.054-.28.108-.554.363-.611l.132-.03c.258-.059.506.12.559.398l.063.327a.49.49 0 0 0 .425.408c.359.041.692.157 1.003.354.2.128.457.063.599-.138l1.174-1.675c.162-.231.121-.568-.096-.733-1.166-.889-2.617-1.131-4.361-.729-1.164.269-2.095.829-2.791 1.705-.696.875-.921 1.912-.688 3.134.331 1.741 1.478 2.771 3.423 3.097"/><path fill="#F2F2F2" stroke="#595A5C" stroke-width=".5" stroke-miterlimit="10" d="M95.907 268.089a26.776 26.776 0 0 0-.672-.092c-.316-.037-.575.276-.51.619l.44 2.318a.493.493 0 0 0 .393.404c.494.099.743.293.811.645.074.392-.089.71-.49.951-.178.105-.266.335-.224.552l.063.34c.055.279-.109.553-.364.611l-.132.03c-.256.059-.504-.12-.557-.398l-.06-.3a.48.48 0 0 0-.461-.408 3.482 3.482 0 0 1-2.087-.727.437.437 0 0 0-.616.096l-1.304 1.668a.55.55 0 0 0 .052.729c.539.487 1.189.871 1.96 1.15.963.339 2.095.35 3.408.047 3.122-.718 4.387-2.671 3.91-5.17-.334-1.758-1.384-2.734-3.56-3.065M108.324 301.045s-4.426-5.247-8.562-1.791c-5.05-1.343-7.185 5.412-7.185 5.412-7.478 1.722-12.098-8.443-12.427-10.08l2.366 12.396c1.682 8.803 11.777 6.688 11.777 6.688l8.697 2.511 7.048-6.133s5.647-1.507 3.968-10.31l-2.364-12.395c-.136 3.224 4.155 11.984-3.318 13.702m-7.53 3.612c-5.431 1.458-6.248-.442-6.248-.442 3.211.098 5.556-3.15 5.562-3.158.008.005 3.343 1.945 6.247.442 0 0-.056 2.101-5.561 3.158"/><path fill="#F2F2F2" stroke="#595A5C" stroke-width=".5" stroke-miterlimit="10" d="M102.327 297.867c.122.639-1.121 1.465-2.773 1.845-1.655.38-3.094.172-3.216-.467-.121-.638 1.121-1.463 2.774-1.844 1.652-.381 3.092-.173 3.215.466zM90.301 289.396l-1.949-1.131c.9-1.562 3.463-4.073 6.731-2.414l-1.021 2.008c-2.136-1.083-3.602 1.265-3.761 1.537zM92.715 296.253a5.81 5.81 0 0 1 1.188-.378 5.38 5.38 0 0 1 1.381-.105c.113-.305.149-.646.084-.993-.176-.914-.991-1.502-1.826-1.311-.834.192-1.368 1.091-1.193 2.006.056.303.19.567.366.781z"/><g fill="#F2F2F2" stroke="#595A5C" stroke-width=".5" stroke-miterlimit="10"><ellipse transform="rotate(4.211 170.916 324.768)" cx="170.96" cy="324.636" rx="5.405" ry="15.134"/><path d="M170.145 311.235l-89.675-8.853-2.289 30.96 90.001 4.43c2.443.181 4.863-5.613 5.405-12.941s-1-13.415-3.442-13.596z"/><path d="M80.919 296.302l-85.979-9.969-3.719 50.309 86.51 2.782c3.969.294 7.901-9.121 8.782-21.03.879-11.909-1.625-21.799-5.594-22.092z"/><path d="M-8.388 282.473l-14.375-1.063-4.25 57.496 14.374 1.063c7.938.587 15.326-11.808 16.5-27.686 1.173-15.876-4.31-29.223-12.249-29.81z"/><ellipse transform="rotate(4.211 -24.975 310.197)" cx="-24.888" cy="310.158" rx="12.354" ry="28.827"/><ellipse transform="rotate(4.211 -24.98 310.234)" cx="-24.888" cy="310.159" rx="10.81" ry="25.224"/><ellipse transform="rotate(4.211 -23.182 310.364)" cx="-23.091" cy="310.292" rx="9.008" ry="25.223"/><ellipse transform="rotate(7.022 -24.442 299.8)" cx="-24.41" cy="299.902" rx="3.603" ry="10.09"/></g><path fill="#FFF" stroke="#595A5C" stroke-width=".5" stroke-miterlimit="10" d="M715.866 226.379a19.1 19.1 0 0 0-3.825.368c-2.604-1.989-6.199-3.368-11.175-3.368-7.295 0-11.632 2.956-14.213 6.475-1.105-.3-2.358-.476-3.786-.476-12.001 0-12.001 12.001-12.001 12.001h60s0-15-15-15z"/><g><path fill="#F2F2F2" stroke="#595A5C" stroke-width=".41" stroke-miterlimit="10" d="M757.006 312.08h-22.141v-8.2h22.141c10.359 0 10.659-9.567 10.659-10.659V271.08c0-10.359-9.567-10.66-10.659-10.66h-22.141v-8.199h22.141c7.581 0 18.859 5.021 18.859 18.859v22.141c.001 7.579-5.021 18.859-18.859 18.859z"/><path fill="#F2F2F2" stroke="#595A5C" stroke-width=".5" stroke-miterlimit="10" d="M666.366 334.08s-7.5 0-7.5-7.5v-90h90v90s0 7.5-7.5 7.5h-75z"/></g><g stroke="#595A5C" stroke-width=".5" stroke-miterlimit="10"><path fill="#F2F2F2" d="M157.193 25.379s0-9 9-9h432s9 0 9 9V322.38h-450V25.379z"/><path fill="#FFF" d="M166.193 34.379h432v270h-432z"/><path fill="#D1D2D3" d="M366.8 25.379s0-5.131 5.131-5.131h20.524s5.131 0 5.131 5.131c0 0 0 5.132-5.131 5.132H371.93c0-.001-5.13-.001-5.13-5.132z"/><circle fill="#F2F2F2" cx="382.192" cy="25.379" r="5.131"/><circle fill="#F2F2F2" cx="382.192" cy="25.379" r="3.305"/><path fill="#D1D2D3" d="M157.193 322.38h-36s0 18 18 18h486s18 0 18-18h-486z"/><path fill="#F2F2F2" d="M346.192 322.38s0 9 9 9h54s9 0 9-9h-72zM166.193 313.38h36v9h-36zM562.193 313.38h36v9h-36z"/></g><g stroke="#595A5C" stroke-width=".5" stroke-miterlimit="10"><path fill="#F2F2F2" d="M690.226 279.845s18.929 9.194 2.788 15.146c0 .002 4.715-11.074-2.788-15.146zM702.357 275.48s12.501 6.145 9.318 13.458c-3.185 7.313-7.283 3.874-7.283 3.874s3.171-8.537 3.474-8.205c.303.334-2.289-5.098-2.289-5.098l-3.22-4.029z"/><path fill="#F2F2F2" d="M702.077 294.501s19.618-3.894-.684-19.79c.001 0 8.826 11.46.684 19.79z"/><path fill="#F2F2F2" d="M701.661 263.562s14.517 4.646-.111 11.313c-.001 0 6.239-4.508.111-11.313z"/><path fill="#F2F2F2" d="M701.388 256.956l.689 43.36h-2.068l.69-43.36zM689.58 295.901s19.618-3.338-.684-16.963c.001 0 8.825 9.821.684 16.963z"/><path fill="#F2F2F2" d="M689.58 268.409s14.515 4.638-.111 11.295c0 0 6.238-4.502.111-11.295zM713.073 277.81s16.905 7.819 0 13.594c0 0 5.916-5.885 0-13.594z"/><path fill="#F2F2F2" d="M713.089 267.998s10.823 5.079.668 10.563c0 0 3.474-5.714-.668-10.563z"/><path fill="#F2F2F2" d="M713.073 268.182s18.492 5.76 18.492 20.756c0 0-4.177-3.193-9.552-.416.001 0 5.06-11.103-8.94-20.34z"/><path fill="#F2F2F2" d="M713.053 267.022l.69 33.294h-2.068l.69-33.294zM689.307 267.022l.69 33.294h-2.069l.69-33.294zM737.034 290.757l-.321-.672-17.55 3.589.755 1.865zM675.329 300h-3.748l-3.75 11.248h11.247zM671.926 291.156h12.636v5.426h-12.636zM671.528 290.325h13.435v.831h-13.435zM671.528 288.106h13.435v.832h-13.435z"/><path fill="#F2F2F2" d="M724.068 292.502l-22.495 3.749V300h-14.995v-3.749l-14.889-.966s-.107 15.962 7.39 15.962h33.74c0 .001 11.249.001 11.249-18.745z"/><path fill="none" d="M724.068 296.251h-22.495M686.577 296.668h-14.854M723.252 300.316h-51.323M722.014 304.034h-49.255M719.746 307.631h-45.66"/><path fill="#F2F2F2" d="M682.043 291.826h1.18v2.734h-1.18zM677.608 291.826h1.181v2.734h-1.181zM673.176 291.826h1.18v2.734h-1.18z"/><path fill="none" d="M736.094 291.021l-23.751-23.023M701.043 263.562l5.272 31.977M701.043 263.562l-6.969 36.754"/><path fill="#F2F2F2" d="M703.057 260.342l-.807 3.22h-2.414l-.805-3.22z"/><g fill="#F2F2F2"><path d="M677.06 311.248s55.06-12.345 44.572 0H677.06z"/><path d="M694.166 311.248s31.619-7.09 25.597 0h-25.597z"/></g><path fill="#F2F2F2" d="M671.926 288.938h.58v1.388h-.58zM683.773 288.938h.581v1.388h-.581zM680.812 288.938h.579v1.388h-.579zM677.85 288.938h.58v1.388h-.58zM674.888 288.938h.58v1.388h-.58zM677.85 301.302h1.301v1.776h-1.301zM685.028 301.302h1.301v1.776h-1.301zM692.207 301.302h1.302v1.776h-1.302zM699.385 301.302h1.301v1.776h-1.301zM706.564 301.302h1.302v1.776h-1.302zM713.743 301.302h1.302v1.776h-1.302zM686.577 298.341h4.784v.593h-4.784zM696.993 298.341h4.784v.593h-4.784z"/><path fill="#F2F2F2" d="M690.226 298.933h.494v1.066h-.494zM697.631 298.933h.492v1.066h-.492zM699.506 263.136h2.961v.426h-2.961zM688.104 279.509h1.894v.322h-1.894zM700.009 274.711h2.067v.346h-2.067zM711.906 277.648h1.532v.34h-1.532zM687.928 295.539h2.068v.362h-2.068zM699.691 294.121h2.666v.439h-2.666zM712.054 267.998h1.249v.26h-1.249zM688.252 268.128h1.327v.28h-1.327z"/></g></svg>