<svg xmlns="http://www.w3.org/2000/svg" viewBox="0 0 912.1 591.1"><style>.st0{fill-opacity:0}</style><path class="st0" d="M94.3 431.1h129.4v55.5H94.3zm0 0h129.4v55.5H94.3z"/><path d="M205.4 453.7c-2.4 0-3.8 2-3.8 5.3 0 3.4 1.4 5.3 3.8 5.3 2.3 0 3.7-2 3.7-5.3 0-3.4-1.3-5.3-3.7-5.3zm-18.7 2.6l-.1-2v-.5h-.6c-1.2-.1-2.6.3-3.5.9-1.5.8-2.2 2.3-2.2 4.5 0 3.1 1.5 4.8 4.2 4.8.8 0 1.5-.2 2.3-.4v-2.1c0-.7-.1-1.5-.1-2.3v-2.9zm-77.1 2.7c0 3.3 1.7 5.1 4.8 5.1.7 0 1.2-.1 2.1-.2V454c-.7-.2-1.3-.3-2.1-.3-3 0-4.8 1.9-4.8 5.3zm106.8-27.9h-115c-4 0-7.2 3.2-7.2 7.2v41.1c0 4 3.2 7.2 7.2 7.2h115c4 0 7.2-3.2 7.2-7.2v-41.1c0-4-3.2-7.2-7.2-7.2zm-113 28c0-6.2 4.1-10.3 10.5-10.3 1 0 1.7.1 2.7.3v-9.3h6.1v28.4c-3.1.6-5.4.8-8 .8-7.4 0-11.3-3.4-11.3-9.9zm29 4.3c0 4.9-.4 7.2-1.4 9.3-1 2-2.3 3.2-5 4.5l-5.7-2.7c2.7-1.3 4-2.4 4.8-4.1.9-1.7 1.2-3.8 1.2-9.1v-12.1h6.1v14.2zm0-17.3h-6.1v-6.3h6.1v6.3zm18.6 22.3c-2.7.4-6.2.7-8.8.7-5.1 0-7.4-1.8-7.4-5.8 0-4.3 3.1-6.3 10.6-6.9V455c0-1.1-.6-1.5-2.1-1.5-2.3 0-4.8.6-7.2 1.9v-4.7c2.7-1.3 5.3-1.8 8.1-1.8 3.1 0 5.2.8 6.1 2.5.5.9.7 2.1.7 4.6v12.4zm21.1.3H166v-11.8c0-2.3-.8-3.2-3-3.2-.8 0-1.6.1-2.8.4v14.6H154v-18.5c3.6-.9 6.6-1.4 9.6-1.4 3.1 0 5.4.7 6.8 2.1 1.3 1.3 1.7 2.7 1.7 5.8v12zm20.4-14.7v.6l.1 2.6.1 3.3c.1.8.1 1.7.1 2.5v1.7c0 5.3-.4 7.7-1.7 9.8-1.9 3-5.2 4.5-9.9 4.5-2.4 0-4.5-.4-6.6-1.2v-5.6c2.2 1.1 4.3 1.6 6.6 1.6 4 0 5.7-1.6 5.7-5.5v-.1c-1.2.6-2.4.8-4 .8-5.4 0-8.8-3.5-8.8-9.2 0-7 5.1-10.9 14-10.9 2.6 0 5.1.3 8 .9l-2.1 4.4c-1.7-.4-.2-.1-1.5-.2zm12.8 15.3c-6.1 0-9.9-3.9-9.9-10.1 0-6.4 3.9-10.5 10.1-10.5 6.1 0 9.9 3.9 9.9 10.1 0 6.4-3.9 10.5-10.1 10.5zm-65-6.3c0 1.2.7 1.7 2.4 1.7.9 0 1.7-.1 3-.3v-4.1c-4 .5-5.4 1.1-5.4 2.7z"/><path class="st0" d="M280.6 419.1h78.2V498h-78.2z"/><path d="M319.2 419.1c-3.2 0-6.3.3-9 .8-7.9 1.4-9.4 4.4-9.4 9.8v7.2h18.8v2.4h-25.9c-5.5 0-10.3 3.3-11.8 9.5-1.8 7.2-1.8 11.7 0 19.1 1.3 5.5 4.6 9.5 10 9.5h6.5v-8.6c0-6.2 5.4-11.7 11.8-11.7H329c5.3 0 9.4-4.3 9.4-9.5v-17.9c0-5.1-4.3-8.9-9.4-9.8-3.2-.6-6.5-.8-9.8-.8zm-10.2 5.8c2 0 3.5 1.6 3.5 3.6s-1.6 3.6-3.5 3.6c-2 0-3.5-1.6-3.5-3.6s1.6-3.6 3.5-3.6zm31.8 14.4v8.4c0 6.5-5.5 11.9-11.8 11.9h-18.8c-5.1 0-9.4 4.4-9.4 9.5V487c0 5.1 4.4 8.1 9.4 9.5 6 1.8 11.7 2 18.8 0 4.8-1.4 9.4-4.1 9.4-9.5v-7.2h-18.8v-2.4h28.2c5.5 0 7.5-3.8 9.4-9.5 2-5.9 1.9-11.6 0-19.1-1.3-5.5-3.9-9.5-9.4-9.5h-7zm-10.5 45.3c2 0 3.5 1.6 3.5 3.6s-1.6 3.6-3.5 3.6c-2 0-3.5-1.6-3.5-3.6-.1-2 1.5-3.6 3.5-3.6zm152.4-338.1c-.6-.4-1.3-.6-2-.8v-19.8c.7-.2 1.3-.4 2-.8 3.6-2.1 4.8-6.6 2.7-10.2-2.1-3.6-6.6-4.8-10.2-2.7-.6.4-1.2.8-1.7 1.3l-17.2-9.9c.2-.7.3-1.4.3-2.1 0-4.1-3.3-7.4-7.5-7.4-4.1 0-7.5 3.3-7.5 7.4 0 .7.1 1.5.3 2.1l-17.2 9.9c-.5-.5-1-1-1.7-1.3-3.6-2-8.1-.8-10.2 2.7-2.1 3.6-.8 8.1 2.7 10.2.6.4 1.3.6 2 .8v19.8c-.7.2-1.3.4-2 .8-3.6 2.1-4.8 6.6-2.7 10.2 2.1 3.6 6.6 4.8 10.2 2.7.6-.4 1.2-.8 1.7-1.3L442 168c-.2.7-.3 1.4-.3 2.1 0 4.1 3.3 7.4 7.5 7.4 4.1 0 7.5-3.3 7.5-7.4 0-.8-.1-1.6-.4-2.3l17.1-9.9c.5.6 1.1 1.1 1.8 1.5 3.6 2 8.1.8 10.2-2.7 2.1-3.6.9-8.2-2.7-10.2zm-56.1 4.7c-.2-.7-.4-1.3-.8-2-.4-.6-.8-1.2-1.3-1.7l22.5-39c.7.2 1.3.3 2.1.3.7 0 1.4-.1 2.1-.3l22.6 39c-.5.5-.9 1-1.3 1.7-.4.6-.6 1.3-.8 2h-45.1zm45.2-34.6c-.5 1.9-.3 3.9.7 5.8 1 1.8 2.8 3 4.7 3.5v19.9c-.1 0-.2 0-.3.1l-22.5-39 .2-.2 17.2 9.9zm-28-10l.2.2-22.6 38.9-.3-.1v-19.9c1.9-.5 3.6-1.7 4.7-3.5 1-1.8 1.2-3.9.7-5.8l17.3-9.8zm10.9 58.5c-1.4-1.5-3.3-2.4-5.5-2.4-2.1 0-4 .9-5.4 2.3l-17.2-9.9c0-.1 0-.2.1-.3h45l.1.5-17.1 9.8z"/><path class="st0" d="M462.4 205.7h83.7v74.4h-83.7zm0 0h83.7v74.4h-83.7z"/><path d="M546 242.9c0-5.5-6.9-10.8-17.6-14 2.5-10.8 1.4-19.5-3.4-22.2-1.1-.6-2.4-1-3.8-1v3.8c.8 0 1.4.2 1.9.4 2.3 1.3 3.3 6.4 2.5 12.9-.2 1.6-.5 3.3-.9 5-3.3-.8-7-1.4-10.8-1.9-2.3-3.2-4.7-6-7.1-8.5 5.6-5.2 10.8-8 14.3-8v-3.8c-4.7 0-10.8 3.3-17 9.1-6.2-5.8-12.3-9.1-17-9.1v3.8c3.5 0 8.8 2.8 14.3 7.9-2.4 2.5-4.8 5.3-7 8.5-3.9.4-7.5 1-10.8 1.9-.4-1.7-.7-3.4-.9-4.9-.8-6.5.2-11.6 2.5-12.9.5-.3 1.2-.4 2-.4v-3.8c-1.4 0-2.7.3-3.9 1-4.8 2.8-5.9 11.4-3.4 22.2-10.6 3.3-17.5 8.5-17.5 14s6.9 10.8 17.6 14c-2.5 10.8-1.4 19.5 3.4 22.2 1.1.6 2.4 1 3.8 1 4.7 0 10.8-3.3 17-9.1 6.2 5.8 12.3 9.1 17 9.1 1.4 0 2.7-.3 3.9-1 4.8-2.8 5.9-11.4 3.4-22.2 10.6-3.2 17.5-8.5 17.5-14zm-22.2-11.3c-.6 2.2-1.4 4.5-2.3 6.7-.7-1.4-1.4-2.7-2.2-4.1-.8-1.4-1.6-2.7-2.5-4 2.5.4 4.8.8 7 1.4zm-7.8 18.1c-1.3 2.3-2.7 4.5-4.1 6.5a99.08 99.08 0 0 1-15.4 0c-1.4-2-2.8-4.2-4.1-6.5-1.3-2.2-2.5-4.5-3.5-6.8 1.1-2.3 2.3-4.6 3.5-6.8 1.3-2.3 2.7-4.5 4.1-6.5a99.08 99.08 0 0 1 15.4 0c1.4 2 2.8 4.2 4.1 6.5 1.3 2.2 2.5 4.5 3.5 6.8-1 2.3-2.2 4.6-3.5 6.8zm5.5-2.2c.9 2.3 1.7 4.6 2.4 6.8-2.2.5-4.6 1-7 1.4l2.5-4c.7-1.5 1.4-2.9 2.1-4.2zm-17.3 18.2c-1.6-1.6-3.2-3.5-4.7-5.4 1.5.1 3.1.1 4.7.1s3.2 0 4.7-.1c-1.5 1.9-3.1 3.7-4.7 5.4zm-12.7-10.1c-2.4-.4-4.8-.8-7-1.3.6-2.2 1.4-4.5 2.3-6.7.7 1.4 1.4 2.7 2.2 4.1.9 1.3 1.7 2.6 2.5 3.9zm12.6-35.4c1.6 1.6 3.2 3.5 4.7 5.5-1.5-.1-3.1-.1-4.7-.1s-3.2 0-4.7.1c1.6-2.1 3.2-3.9 4.7-5.5zm-12.6 10l-2.5 4c-.8 1.4-1.5 2.7-2.2 4.1-.9-2.3-1.7-4.6-2.4-6.8 2.3-.5 4.7-.9 7.1-1.3zm-15.4 21.3c-6-2.6-9.9-5.9-9.9-8.6 0-2.7 3.9-6.1 9.9-8.6 1.5-.6 3.1-1.2 4.7-1.7 1 3.3 2.2 6.8 3.8 10.4-1.6 3.5-2.8 7-3.8 10.3-1.6-.6-3.2-1.1-4.7-1.8zm9.2 24.4c-2.3-1.3-3.3-6.4-2.5-12.9.2-1.6.5-3.3.9-5 3.3.8 7 1.4 10.8 1.9 2.3 3.2 4.7 6 7.1 8.5-5.6 5.2-10.8 8-14.3 8-.9-.1-1.5-.2-2-.5zm40.4-13c.8 6.5-.2 11.6-2.5 12.9-.5.3-1.2.4-2 .4-3.5 0-8.8-2.8-14.3-7.9 2.4-2.5 4.8-5.3 7-8.5 3.9-.4 7.5-1 10.8-1.9.5 1.8.8 3.4 1 5zm6.6-11.4c-1.5.6-3.1 1.2-4.7 1.7-1-3.3-2.3-6.8-3.8-10.4 1.6-3.5 2.8-7 3.8-10.3 1.7.5 3.3 1.1 4.8 1.7 6 2.6 9.9 5.9 9.9 8.6-.1 2.8-4 6.2-10 8.7zm-28.1-.8c4.3 0 7.8-3.5 7.8-7.8s-3.5-7.8-7.8-7.8-7.8 3.5-7.8 7.8 3.5 7.8 7.8 7.8z"/><path class="st0" d="M322.5 207.8h70.3V278h-70.3z"/><path d="M357.6 207.8h-35.1V278h70.2v-70.2h-35.1zm5.1 38.2h-9.2v26h-6.4v-26H338v-5.8h12.3c6.8 0 12.3 0 12.4.1.1 0 .1 1.3.1 2.9l-.1 2.8zm24 20.6c-1.1 2.9-3.9 4.9-7.8 5.6-1.2.2-4.1.2-5.4-.1-2.8-.5-5.5-1.9-7.1-3.7-.7-.7-1.9-2.6-1.8-2.7 0-.1.3-.2.7-.4.3-.2 1.5-.9 2.6-1.5l2-1.2.4.6c.6.9 1.9 2.1 2.7 2.6 2.3 1.2 5.3 1 6.8-.4.7-.6.9-1.2.9-2.1 0-.8-.1-1.2-.5-1.8-.5-.8-1.7-1.4-4.8-2.8-3.6-1.6-5.2-2.5-6.6-4.1-.8-.9-1.6-2.3-1.9-3.5-.3-1-.3-3.5-.1-4.5.7-3.5 3.4-6 7.2-6.7 1.2-.2 4.1-.1 5.3.2 1.8.4 3.2 1.2 4.4 2.5.7.7 1.6 1.9 1.7 2.2 0 .1-3 2.1-4.9 3.3-.1.1-.3-.2-.6-.7-.9-1.3-1.8-1.9-3.3-2-2.1-.1-3.5 1-3.5 2.8 0 .5.1.9.3 1.3.5 1 1.3 1.5 4.1 2.7 5 2.2 7.2 3.6 8.5 5.6 1.4 2.6 1.7 6.1.7 8.8z"/><path class="st0" d="M201.4 307.4h107.2v74.3H201.4z"/><path d="M306.4 335.7c-2.4-1.6-7.9-2.2-12.2-1.4-.6-4-2.8-7.5-6.9-10.7l-2.3-1.5-1.5 2.3c-2 3-3 7.2-2.7 11.2.1 1.4.6 3.9 2 6.2-1.5.8-4.4 1.8-8.1 1.8h-72.8l-.1.8c-.7 4-.7 16.6 7.5 26.3 6.2 7.4 15.5 11.1 27.7 11.1 26.4 0 45.8-12.1 55-34.1 3.6.1 11.3 0 15.3-7.6.1-.1.4-.6 1.1-2l.4-.8-2.4-1.6zm-57.5-18.3h11v-10h-11v10zm0 12.1h11v-10h-11v10zm-13 0h11v-10h-11v10zm-13.1 0h11v-10h-11v10zm-13.1 12.1h11v-10.1h-11v10.1zm13.1 0h11v-10.1h-11v10.1zm13.1 0h11v-10.1h-11v10.1zm13 0h11v-10.1h-11v10.1zm13.1 0h11.1v-10.1H262v10.1z"/><path class="st0" d="M267.8 376.7h2.8v2.8h-2.8z"/><path d="M270.6 378.1c0 .8-.6 1.4-1.4 1.4s-1.4-.6-1.4-1.4.6-1.4 1.4-1.4 1.4.6 1.4 1.4zm-2.5 0c0 .6.4 1.1 1.1 1.1s1.1-.5 1.1-1.1-.4-1.1-1.1-1.1-1.1.5-1.1 1.1zm.9.7h-.4v-1.4c.1 0 .3-.1.6-.1s.4.1.5.1c.1.1.1.1.1.3 0 .1-.1.3-.3.4.1.1.2.1.3.4.1.2.1.3.1.4h-.4c-.1-.1-.1-.2-.1-.4 0-.1-.1-.2-.3-.2h-.1v.5zm0-.8h.1c.2 0 .4-.1.4-.2s-.1-.2-.3-.2h-.2v.4z"/><path class="st0" d="M351.8 308.9h78.6v81.7h-78.6zm0 0h78.6v81.7h-78.6zm0 0h78.6v81.7h-78.6z"/><path d="M430.3 359c-.1-.2-.1-.3-.2-.4-.5-.9-1.6-1.2-3.4-.8-5.6 1.2-7.8.4-8.6-.1 4.6-7 8.3-15.4 10.3-23.2.9-3.6 2.7-12.1.4-16.1l-.5-.8c-4.4-5.6-10.8-8.6-18.6-8.7-5.1-.1-9.4 1.2-10.6 1.6l-1.8-.3c-1.4-.3-2.9-.4-4.5-.4-4-.1-7.5.9-10.3 2.9-1.3-.5-4.5-1.6-8.4-2.2-6.8-1.1-12.2-.3-16.1 2.5-4.6 3.3-6.7 9.1-6.3 17.4.1 2.8 1.7 11.3 4.2 19.5 1.6 5.1 3.2 9.2 4.9 12.2 1.9 3.4 3.8 5.4 5.8 6.1 1.5.5 3.8.5 6.3-2.5 2.7-3.3 5.4-6.2 6.6-7.5 1.5.8 3.1 1.2 4.7 1.3-.3.4-.6.7-.8 1-1.2 1.5-1.4 1.8-5.1 2.5-1.1.2-3.8.8-3.9 2.8 0 .4.1.8.3 1.1.8 1.4 3.1 2.1 3.4 2.1 4.5 1.1 8.5.3 11.4-2.3-.1 7.6.3 15 1.2 17.3.8 1.9 2.6 6.5 8.4 6.5.8 0 1.8-.1 2.8-.3 6-1.3 8.7-4 9.7-9.9.5-3 1.4-9.8 1.8-14 .1-.2.1-.4.2-.4 0 0 .2-.2 1.4.1h.2l.9.1h.1c2.9.1 6.5-.5 8.6-1.5 2.3-.9 6.2-3.4 5.5-5.6zm-71.9-9.6c-2.5-8.3-4-16.6-4.1-19-.4-7.4 1.4-12.5 5.3-15.3 6.2-4.4 16.4-1.8 20.7-.4-6.9 6.9-6.7 18.8-6.7 19.6 0 .3 0 .7.1 1.2.1 2 .3 5.7-.3 9.9-.5 3.9.7 7.7 3.3 10.5l.8.8c-1.2 1.3-3.7 4.1-6.4 7.3-1.9 2.3-3.3 1.9-3.7 1.7-1.3-.4-2.8-2-4.2-4.5-1.6-2.7-3.3-6.8-4.8-11.8zm20.4 17.3c-.6-.2-1.1-.4-1.5-.6.3-.1.8-.3 1.6-.5 4.4-.9 5-1.5 6.5-3.4.3-.4.7-.9 1.3-1.5l.3-.4c.6-.5.9-.4 1.5-.1.5.2 1 .9 1.3 1.6.1.3.2 1-.2 1.5-3.1 4.2-7.6 4.2-10.8 3.4zm7.1-13.6l-.2.5c-.4 1.2-.9 2.3-1.1 3.4-2.3 0-4.5-1-6.1-2.7-2.1-2.2-3.1-5.3-2.7-8.5.6-4.5.4-8.3.3-10.4v-.8c1-.9 5.7-3.4 9-2.6 1.5.3 2.4 1.4 2.8 3.2 2 9.2.3 13-1.1 16.1-.4.6-.7 1.2-.9 1.8zm25 15.6c-.1.6-.1 1.3-.2 2l-.5 1.5c0 .1-.1.2-.1.4 0 1.6-.2 2.2-.4 3-.2.8-.5 1.7-.6 3.6-.4 4.8-3 7.6-8.2 8.7-5.1 1.1-6.1-1.7-6.9-4.2l-.3-.8c-.7-2-.7-4.8-.5-8.7.1-1.9-.1-6.5-1.1-9 0-1 0-2 .1-3 0-.1 0-.3-.1-.4 0-.2-.1-.5-.2-.7-.4-1.5-1.4-2.7-2.6-3.2-.5-.2-1.4-.6-2.4-.3.2-.9.6-2 1-3.2l.2-.5c.2-.5.5-1.1.7-1.7 1.4-3.2 3.4-7.6 1.3-17.6-.8-3.7-3.5-5.6-7.6-5.1-2.5.3-4.7 1.2-5.8 1.8l-.7.3c.3-3.8 1.5-10.8 5.9-15.2l1-.9c.2 0 .3-.1.5-.2 2.5-1.9 5.8-2.9 9.5-2.8 1.4 0 2.7.1 4 .3 6.6 1.2 11 4.9 13.7 8.1 2.8 3.3 4.3 6.6 4.9 8.3-4.5-.5-7.5.4-9.1 2.7-3.4 4.8 1.8 14.2 4.3 18.7.5.8.9 1.5 1 1.8.8 2 1.9 3.3 2.6 4.3.2.3.5.6.6.8-1.4.4-3.8 1.3-3.6 5.8 0 .5-.2 1.5-.3 2.8.1.7 0 1.5-.1 2.6zm3-5.6c-.1-2.8.9-3.1 2-3.4l.5-.1c.1.1.3.2.5.3 1.9 1.3 5.4 1.4 10.2.5-.7.6-1.8 1.4-3.2 2.1-1.4.6-3.7 1.1-5.9 1.2-2.5.1-3.8-.3-4.1-.6zm1.9-31.5c0 1.2-.2 2.3-.4 3.4-.2 1.2-.4 2.5-.4 4s.1 3 .3 4.5c.4 3 .7 6.1-.7 9.2-.2-.4-.4-.8-.6-1.3-.2-.4-.6-1.1-1.1-2.1-2.1-3.8-7-12.6-4.5-16.1.8-1.1 2.7-2.2 7.4-1.6zm.8 23.9c-.1-.1-.2-.2-.3-.4l-.1-.2c2.5-4.1 2-8.1 1.5-11.7-.2-1.5-.3-2.9-.3-4.2 0-1.4.2-2.6.4-3.7.2-1.4.4-2.9.4-4.6 0-.2.1-.4 0-.6-.2-1.6-2-6.6-5.9-11.1-2.1-2.4-5.1-5.1-9.1-6.9 1.8-.4 4.2-.7 6.9-.6 7 .2 12.5 2.8 16.4 7.8.1.1.2.2.2.3 2.5 4.6-.9 21.3-10.1 35.9zm-32-22.3c-.9-.1-1.7 0-2.1.3-.2.2-.3.4-.3.5-.1.4.2.8.4 1 .4.6 1.1 1 1.7 1.1h.3c1.1 0 2-.8 2.1-1.4.1-.8-1-1.3-2.1-1.5zm26.9-.6c-1 .1-2 .6-1.9 1.2.1.5.9 1.3 1.9 1.3h.3c.7-.1 1.2-.5 1.4-.8.3-.4.6-.8.5-1.1-.2-.5-1.2-.7-2.2-.6zM607.4 118h-8.3l-12 31h7.5l1.9-5.3h11.3l-2-5.8h-7.4l4.8-13.4 8.6 24.4h7.5L607.4 118z"/><path class="st0" d="M563 95.5h72v80.9h-72z"/><path d="M633.3 158.9c-.6 0-1.1.3-1.4.7 0 0-1.5 1.7-2.3 2.5-3.4 3.4-7.4 6.1-11.8 7.9-4.6 1.9-9.4 2.9-14.4 2.9s-9.8-1-14.4-2.9c-4.4-1.9-8.4-4.5-11.8-7.9-3.4-3.4-6.1-7.4-7.9-11.8-1.9-4.6-2.9-9.4-2.9-14.4s1-9.8 2.9-14.4c1.8-4.4 4.5-8.4 7.9-11.8s7.4-6.1 11.8-7.9c4.6-1.9 9.4-2.9 14.4-2.9s9.8 1 14.4 2.9c3.2 1.4 6.2 3.1 8.9 5.3-.1.4-.2.9-.2 1.4 0 2.3 1.9 4.2 4.2 4.2s4.2-1.9 4.2-4.2-1.9-4.2-4.2-4.2c-.6 0-1.1.1-1.6.3-7-5.7-15.9-9.1-25.6-9.1-22.3 0-40.4 18.1-40.4 40.4s18.1 40.4 40.4 40.4c12.5 0 23.6-5.7 31.1-14.6.3-.3.5-.7.5-1.2-.1-.8-.9-1.6-1.8-1.6z"/></svg>