<svg xmlns="http://www.w3.org/2000/svg" width="20" height="20" viewBox="0 0 20 20"><path fill="#333" d="M10 .208C4.592.208.208 4.592.208 10c0 5.407 4.384 9.791 9.792 9.791 5.407 0 9.791-4.384 9.791-9.791 0-5.408-4.384-9.792-9.791-9.792zm5.48 8.452l-.033.328c-.436 3.346-3.48 6.874-8.138 6.27a7.227 7.227 0 0 1-3.733-1.643c.195.047.396.086.6.111a5.105 5.105 0 0 0 3.285-.675 2.555 2.555 0 0 1-2.137-2.063 2.529 2.529 0 0 0 1.15.104 2.553 2.553 0 0 1-1.709-2.744l.004-.032a2.56 2.56 0 0 0 1.106.467 2.555 2.555 0 0 1-.346-3.482 7.246 7.246 0 0 0 4.875 3.322 2.554 2.554 0 0 1 4.613-1.748 5.148 5.148 0 0 0 1.688-.406 2.548 2.548 0 0 1-1.294 1.255 5.062 5.062 0 0 0 1.506-.21A5.067 5.067 0 0 1 15.48 8.66z"/></svg>