<?xml version="1.0" encoding="UTF-8"?>
<!DOCTYPE svg PUBLIC "-//W3C//DTD SVG 1.1//EN" "http://www.w3.org/Graphics/SVG/1.1/DTD/svg11.dtd">
<!-- Creator: CorelDRAW X8 -->
<svg xmlns="http://www.w3.org/2000/svg" xml:space="preserve" width="100%" height="100%" version="1.1" style="shape-rendering:geometricPrecision; text-rendering:geometricPrecision; image-rendering:optimizeQuality; fill-rule:evenodd; clip-rule:evenodd"
viewBox="0 0 20670 5287"
 xmlns:xlink="http://www.w3.org/1999/xlink">
 <defs>
  <style type="text/css">
   <![CDATA[
    .fil0 {fill:black}
   ]]>
  </style>
 </defs>
 <g id="Слой_x0020_1">
  <metadata id="CorelCorpID_0Corel-Layer"/>
  <path class="fil0" d="M20043 2131c-239,130 -725,727 -820,1002 -116,362 -111,415 53,585 130,147 141,147 433,76 574,-151 954,-556 961,-1017 0,-160 -18,-352 -48,-429 -75,-257 -327,-351 -579,-217l0 0zm129 510c211,287 181,620 -60,708 -350,135 -555,-275 -333,-655 153,-258 236,-269 393,-53z"/>
  <path class="fil0" d="M16692 2132c-64,12 -181,52 -257,93 -111,53 -146,53 -164,-6 -42,-111 -222,-82 -352,59 -86,93 -146,281 -192,603 -42,257 -88,509 -105,556 -18,46 -41,152 -48,234 -17,259 -211,896 -322,1083 -116,188 -146,380 -51,380 180,0 356,-157 444,-403 287,-801 334,-884 485,-884 136,0 405,-112 780,-322 146,-82 398,-574 398,-785 0,-228 -141,-508 -287,-591 -118,-58 -134,-65 -329,-17l0 0 0 0zm12 661c41,83 76,257 76,393 0,216 -18,251 -141,286 -74,18 -204,24 -274,11 -205,-28 -229,-449 -41,-690 158,-199 280,-199 380,0z"/>
  <path class="fil0" d="M18529 2189c-63,77 -151,194 -192,269 -65,130 -76,130 -169,48 -135,-123 -317,-118 -434,12 -129,146 -122,245 12,245 188,0 251,515 93,726 -111,147 -111,322 0,363 95,35 410,-188 463,-329 12,-46 88,-257 164,-468 75,-210 158,-409 181,-449 23,-37 193,-100 380,-136 398,-82 556,-151 422,-193 -47,-11 -223,-65 -387,-116 -385,-124 -392,-124 -533,28l0 0z"/>
  <path class="fil0" d="M7557 4940c23,-189 48,-448 56,-571 7,-124 54,-303 102,-398 101,-196 44,-272 -133,-179 -61,35 -214,64 -339,69 -239,5 -489,-184 -489,-376 5,-272 -98,-43 -320,56 -253,111 -523,176 -789,252 -101,30 -184,58 -310,78 -247,42 -431,-64 -373,-217 78,-204 -63,-168 -301,76 -403,415 -786,415 -1004,72 -51,-82 -43,-211 178,-681 265,-640 544,-1125 1009,-1286 60,-18 181,-45 269,-59 86,-15 220,-69 297,-118 257,-170 270,31 93,1452 -17,139 10,200 124,292 259,136 568,114 775,-57 81,-66 161,-127 219,-225 65,-108 66,-75 161,-261 38,-58 61,-121 81,-161 24,-58 62,-161 141,-317 113,-245 271,-815 588,-761 104,26 113,59 86,340 -15,171 -93,446 -172,614 -153,328 -186,700 -75,843 99,124 282,166 385,84 75,-59 314,-677 357,-927 48,-266 234,-734 342,-858 165,-191 376,-174 353,28 -10,76 -38,201 -63,277 -266,697 -354,1426 -667,2074 -27,34 -37,166 -22,297 15,132 0,321 -33,420 -68,204 -340,475 -478,475 -80,0 -86,-45 -48,-347l0 0 0 0zm-3000 -1377c386,-203 466,-815 441,-1034 -45,-292 -88,-317 -368,-211 -277,106 -329,198 -425,745 -53,311 -48,365 35,458 111,121 153,128 317,42l0 0zm-4557 627c0,-56 66,-171 121,-310 38,-347 156,-671 208,-974 39,-228 97,-502 131,-609 33,-107 64,-218 71,-249 7,-30 55,-180 106,-331 53,-152 153,-509 224,-793 145,-584 233,-747 467,-868 149,-78 167,-76 214,14 33,63 21,185 -35,360 -92,285 -62,381 88,274 201,-148 544,-286 708,-288 389,-3 581,365 372,707 -315,566 -692,548 -320,968 229,254 264,325 282,582 11,515 -352,1210 -981,1384 -358,103 -630,-1 -805,-312 -171,-302 -166,-420 22,-554 159,-113 345,-78 345,63 2,206 129,493 237,533 185,68 589,-90 652,-254 120,-315 39,-554 -341,-993 -419,-484 -405,-650 61,-789 237,-72 448,-331 425,-531 -20,-161 -271,-362 -458,-362 -216,0 -594,650 -822,1412 -126,405 -368,785 -421,1157 -55,388 -174,677 -324,793 -129,98 -227,84 -227,-30l0 0zm14117 -8c-63,-40 -68,-87 -27,-208 47,-133 90,-157 289,-172 280,-20 299,46 73,270 -176,176 -211,188 -335,110zm-4154 -180c-224,-58 -388,-227 -385,-396 73,-435 262,-871 418,-1253 153,-372 304,-558 540,-665 254,-115 385,-92 479,84 121,228 30,486 -245,682 -143,138 -357,171 -503,264 -108,71 -138,138 -138,309 23,604 729,695 1236,547 140,-46 211,-113 253,-232 78,-222 280,-387 431,-352 183,42 289,-23 405,-244 224,-363 548,-600 805,-946 162,-219 312,-313 406,-255 39,513 143,1171 -93,1613 -144,265 -680,664 -964,718 -220,42 -499,-73 -610,-252 -78,-124 -244,-171 -374,-36 -209,209 -517,282 -758,375 -211,81 -666,101 -903,39l0 0zm3122 -595c74,-77 43,-1064 -39,-1145 -273,166 -409,501 -663,715 -122,46 -49,426 93,486 146,63 524,27 609,-56l0 0zm-2415 -1034c154,-98 189,-388 57,-470 -62,-38 -299,32 -352,158 -10,23 -38,88 -58,141 -73,194 -68,251 -35,284 43,43 225,-10 388,-113z"/>
 </g>
</svg>
