<svg width="24" height="24" viewBox="0 0 24 24" fill="currentColor" xmlns="http://www.w3.org/2000/svg">
<path fill-rule="evenodd" clip-rule="evenodd" d="M17.25 6.75C17.25 7.19325 17.25 7.51025 17.25 7.701C17.6981 7.9605 18 8.44519 18 9C18 9.82781 17.3278 10.5 16.5 10.5C15.6722 10.5 15 9.82781 15 9C15 8.44519 15.3019 7.9605 15.75 7.701V7.5V6.75H8.25002V7.5V7.701C8.69814 7.9605 9.00002 8.44519 9.00002 9C9.00002 9.82781 8.32783 10.5 7.50002 10.5C6.6722 10.5 6.00002 9.82781 6.00002 9C6.00002 8.44519 6.30189 7.9605 6.75002 7.701C6.75002 7.2725 6.75002 6.9555 6.75002 6.75H4.53002C4.38752 6.7575 4.24689 6.795 4.11939 6.86062C3.92627 6.95812 3.75002 7.0875 3.60002 7.245C3.42939 7.41937 3.28689 7.62 3.17627 7.8375C3.08627 8.01375 3.02439 8.20312 2.99439 8.39812L2.24814 21.0881C2.24627 21.1162 2.24439 21.1425 2.24064 21.1706C2.23877 21.1837 2.23877 21.1969 2.23877 21.21C2.24064 21.33 2.27252 21.4462 2.33064 21.5531C2.42627 21.7331 2.55377 21.8944 2.70752 22.0294C2.87627 22.1812 3.06752 22.3031 3.27752 22.3912C3.42939 22.4587 3.59439 22.4962 3.76127 22.5H20.2575H20.2875C20.4506 22.4962 20.61 22.4606 20.7581 22.3931C20.9588 22.305 21.1425 22.1831 21.3038 22.0331C21.4538 21.8962 21.5775 21.735 21.6694 21.5531C21.7275 21.4444 21.7594 21.3244 21.7613 21.2025C21.7613 21.1894 21.7613 21.1762 21.7594 21.165C21.7575 21.1387 21.7538 21.1125 21.7538 21.0881L21.0075 8.4075C20.9981 8.36062 20.985 8.31562 20.9663 8.27062C20.9269 8.17687 20.8781 8.08687 20.82 8.0025C20.6513 7.7625 20.4469 7.55062 20.2144 7.3725C19.965 7.1775 19.6913 7.01625 19.3969 6.89812C19.275 6.84937 19.1494 6.81 19.02 6.78187C18.93 6.76125 18.8381 6.75 18.7444 6.75H17.25ZM17.25 5.24962C17.25 4.79837 17.25 4.04844 17.25 2.99981C17.25 1.05487 16.401 0 14.6631 0C12.925 0 11.1171 0 9.34839 0C7.57952 0 6.75002 1.18219 6.75002 3.09581C6.75002 3.56119 6.75002 4.27912 6.75002 5.24962H4.50039C3.04164 5.28075 1.68152 6.75975 1.50039 8.24962L0.750392 20.9996C0.57583 22.5199 2.25677 23.9996 3.75039 23.9996H20.2504C21.7849 24.0277 23.4163 22.4951 23.2504 20.9996L22.5004 8.24962C22.3129 6.74962 20.2915 5.24962 18.7504 5.24962H17.25ZM8.25002 5.24962V5.01V3.09562C8.25002 3.09375 8.25002 3.09187 8.25002 3.09187C8.25002 2.92312 8.25939 2.75625 8.27814 2.58937C8.29501 2.45437 8.32127 2.32125 8.35689 2.19C8.39627 2.03437 8.46564 1.88812 8.56314 1.76062C8.62314 1.6875 8.70002 1.63125 8.78627 1.59375C8.85377 1.56562 8.92502 1.54312 8.99814 1.53C9.11252 1.50937 9.22689 1.5 9.34127 1.5C9.34314 1.5 9.34501 1.5 9.34876 1.5H14.6625C14.6663 1.5 14.6681 1.5 14.67 1.5C14.79 1.5 14.9081 1.50937 15.0263 1.52812C15.1031 1.54125 15.1781 1.56187 15.2513 1.59187C15.33 1.62187 15.4013 1.67062 15.4594 1.73437C15.5456 1.845 15.6075 1.97062 15.6431 2.1075C15.6788 2.23312 15.705 2.36062 15.72 2.49C15.7406 2.65875 15.75 2.82562 15.75 2.99437C15.75 2.99625 15.75 2.99812 15.75 3V4.94437V5.24962H8.25002Z" fill="currentColor"/>
</svg>
