<?xml version="1.0" encoding="utf-8"?>
<!-- Generator: Adobe Illustrator 20.1.0, SVG Export Plug-In . SVG Version: 6.00 Build 0)  -->
<svg version="1.1" id="Layer_1" xmlns="http://www.w3.org/2000/svg" xmlns:xlink="http://www.w3.org/1999/xlink" x="0px" y="0px"
	 viewBox="0 0 30 30" style="enable-background:new 0 0 30 30;" xml:space="preserve">
<path d="M29.2,10.6L15.8,24c-0.2,0.2-0.5,0.3-0.8,0.3s-0.6-0.1-0.8-0.3L0.8,10.6c-0.2-0.2-0.3-0.5-0.3-0.8S0.6,9.2,0.8,9l3-3
	c0.2-0.2,0.5-0.3,0.8-0.3c0.3,0,0.6,0.1,0.8,0.3l9.6,9.6L24.6,6c0.2-0.2,0.5-0.3,0.8-0.3s0.6,0.1,0.8,0.3l3,3
	c0.2,0.2,0.3,0.5,0.3,0.8S29.4,10.4,29.2,10.6z"/>
</svg>
