<?xml version="1.0" encoding="utf-8"?>
<!-- Generator: Adobe Illustrator 20.1.0, SVG Export Plug-In . SVG Version: 6.00 Build 0)  -->
<svg version="1.1" id="Layer_1" xmlns="http://www.w3.org/2000/svg" xmlns:xlink="http://www.w3.org/1999/xlink" x="0px" y="0px"
	 viewBox="0 0 30 30" style="enable-background:new 0 0 30 30;" xml:space="preserve">
<path d="M29.2,21l-3,3c-0.2,0.2-0.5,0.3-0.8,0.3s-0.6-0.1-0.8-0.3L15,14.4L5.4,24c-0.2,0.2-0.5,0.3-0.8,0.3c-0.3,0-0.6-0.1-0.8-0.3
	l-3-3c-0.2-0.2-0.3-0.5-0.3-0.8c0-0.3,0.1-0.6,0.3-0.8L14.2,6c0.2-0.2,0.5-0.3,0.8-0.3s0.6,0.1,0.8,0.3l13.3,13.3
	c0.2,0.2,0.3,0.5,0.3,0.8C29.5,20.5,29.4,20.8,29.2,21z"/>
</svg>
