<?xml version="1.0" encoding="utf-8"?>
<!-- Generator: Adobe Illustrator 20.1.0, SVG Export Plug-In . SVG Version: 6.00 Build 0)  -->
<svg version="1.1" id="Layer_1" xmlns="http://www.w3.org/2000/svg" xmlns:xlink="http://www.w3.org/1999/xlink" x="0px" y="0px"
	 viewBox="0 0 85 85" style="enable-background:new 0 0 85 85;" xml:space="preserve">
<g>
	<path d="M82.2,66.7c0,1.8-0.6,3.3-1.9,4.5l-9.1,9.1c-1.2,1.2-2.8,1.9-4.5,1.9s-3.3-0.6-4.5-1.9L42.5,60.7L22.9,80.3
		c-1.2,1.2-2.8,1.9-4.5,1.9c-1.8,0-3.3-0.6-4.5-1.9l-9.1-9.1c-1.2-1.2-1.9-2.8-1.9-4.5s0.6-3.3,1.9-4.5l19.6-19.6L4.7,22.9
		c-1.2-1.2-1.9-2.8-1.9-4.5c0-1.8,0.6-3.3,1.9-4.5l9.1-9.1c1.2-1.2,2.8-1.9,4.5-1.9c1.8,0,3.3,0.6,4.5,1.9l19.6,19.6L62.2,4.7
		c1.2-1.2,2.8-1.9,4.5-1.9s3.3,0.6,4.5,1.9l9.1,9.1c1.2,1.2,1.9,2.8,1.9,4.5c0,1.8-0.6,3.3-1.9,4.5L60.7,42.5l19.6,19.6
		C81.6,63.4,82.2,64.9,82.2,66.7z"/>
</g>
</svg>
