<svg xmlns="http://www.w3.org/2000/svg" x="0px" y="0px" height="20px" width="20px" viewBox="0 0 13.2 14.4">
<path fill="#828282" d="M13.2,2.7v0.6c0,0.1,0,0.2-0.1,0.2c-0.1,0.1-0.1,0.1-0.2,0.1H12v8.9c0,0.5-0.1,1-0.4,1.3
	c-0.3,0.4-0.6,0.6-1.1,0.6H2.7c-0.4,0-0.8-0.2-1.1-0.5s-0.4-0.8-0.4-1.3V3.6H0.3c-0.1,0-0.2,0-0.2-0.1C0,3.5,0,3.4,0,3.3V2.7
	c0-0.1,0-0.2,0.1-0.2c0.1-0.1,0.1-0.1,0.2-0.1h2.9l0.7-1.6C4,0.6,4.1,0.4,4.4,0.2C4.6,0.1,4.9,0,5.1,0h3c0.3,0,0.5,0.1,0.7,0.2
	c0.2,0.2,0.4,0.4,0.5,0.6L10,2.4h2.9c0.1,0,0.2,0,0.2,0.1C13.2,2.5,13.2,2.6,13.2,2.7z M10.8,12.5V3.6H2.4v8.9c0,0.1,0,0.3,0.1,0.4
	c0,0.1,0.1,0.2,0.1,0.3c0,0.1,0.1,0.1,0.1,0.1h7.8c0,0,0.1,0,0.1-0.1c0-0.1,0.1-0.1,0.1-0.3C10.8,12.8,10.8,12.6,10.8,12.5z
	 M4.8,5.7v5.4c0,0.1,0,0.2-0.1,0.2c-0.1,0.1-0.1,0.1-0.2,0.1H3.9c-0.1,0-0.2,0-0.2-0.1c-0.1-0.1-0.1-0.1-0.1-0.2V5.7
	c0-0.1,0-0.2,0.1-0.2c0.1-0.1,0.1-0.1,0.2-0.1h0.6c0.1,0,0.2,0,0.2,0.1C4.8,5.6,4.8,5.6,4.8,5.7z M4.5,2.4h4.2L8.3,1.3
	c0-0.1-0.1-0.1-0.2-0.1h-3C5.1,1.2,5,1.2,5,1.3L4.5,2.4z M7.2,5.7v5.4c0,0.1,0,0.2-0.1,0.2c-0.1,0.1-0.1,0.1-0.2,0.1H6.3
	c-0.1,0-0.2,0-0.2-0.1C6,11.3,6,11.2,6,11.1V5.7c0-0.1,0-0.2,0.1-0.2c0.1-0.1,0.1-0.1,0.2-0.1h0.6c0.1,0,0.2,0,0.2,0.1
	C7.2,5.6,7.2,5.6,7.2,5.7z M9.6,5.7v5.4c0,0.1,0,0.2-0.1,0.2c-0.1,0.1-0.1,0.1-0.2,0.1H8.7c-0.1,0-0.2,0-0.2-0.1
	c-0.1-0.1-0.1-0.1-0.1-0.2V5.7c0-0.1,0-0.2,0.1-0.2c0.1-0.1,0.1-0.1,0.2-0.1h0.6c0.1,0,0.2,0,0.2,0.1C9.6,5.6,9.6,5.6,9.6,5.7z"/>
</svg>
