<?xml version="1.0" encoding="UTF-8" standalone="no"?>
<!-- Generator: Adobe Illustrator 20.1.0, SVG Export Plug-In . SVG Version: 6.00 Build 0)  -->

<svg
   xmlns:dc="http://purl.org/dc/elements/1.1/"
   xmlns:cc="http://creativecommons.org/ns#"
   xmlns:rdf="http://www.w3.org/1999/02/22-rdf-syntax-ns#"
   xmlns:svg="http://www.w3.org/2000/svg"
   xmlns="http://www.w3.org/2000/svg"
   xmlns:sodipodi="http://sodipodi.sourceforge.net/DTD/sodipodi-0.dtd"
   xmlns:inkscape="http://www.inkscape.org/namespaces/inkscape"
   version="1.1"
   id="Dribbble"
   x="0px"
   y="0px"
   viewBox="0 0 611.9 611.8"
   style="enable-background:new 0 0 611.9 611.8;"
   xml:space="preserve"
   inkscape:version="0.91 r13725"
   sodipodi:docname="dribbble-logo.svg"><metadata
     id="metadata25"><rdf:RDF><cc:Work
         rdf:about=""><dc:format>image/svg+xml</dc:format><dc:type
           rdf:resource="http://purl.org/dc/dcmitype/StillImage" /></cc:Work></rdf:RDF></metadata><defs
     id="defs23" /><sodipodi:namedview
     pagecolor="#ffffff"
     bordercolor="#666666"
     borderopacity="1"
     objecttolerance="10"
     gridtolerance="10"
     guidetolerance="10"
     inkscape:pageopacity="0"
     inkscape:pageshadow="2"
     inkscape:window-width="1920"
     inkscape:window-height="1027"
     id="namedview21"
     showgrid="false"
     inkscape:zoom="0.38574698"
     inkscape:cx="-322.7004"
     inkscape:cy="305.89999"
     inkscape:window-x="0"
     inkscape:window-y="27"
     inkscape:window-maximized="1"
     inkscape:current-layer="Dribbble" /><style
     type="text/css"
     id="style3">
	.st0{fill:#333333;}
</style><g
     id="g5"><path
       class="st0"
       d="M317.7,301.7c0.3,0,0.5-0.1,0.8-0.2c-3.2-7-6.6-14.2-10.3-21.5c-85.7,24.7-168.2,26.7-192.1,26.7   c0.2,43.9,15.4,86.1,43.2,119.9C175.3,401.9,228.2,330.7,317.7,301.7z"
       id="path7" /><path
       class="st0"
       d="M427.3,160.2c-34.1-28.3-76.9-43.9-121.3-43.9c-11.7,0-23.4,1.1-34.9,3.2c12,16.7,39.3,56,65.1,102.6   C389.9,200.8,417.8,171.7,427.3,160.2z"
       id="path9" /><path
       class="st0"
       d="M220.4,136.8c-48.9,24.6-85,69.8-98.4,122.8c24.5-0.3,89.5-3,163.5-21.6C258.4,190.8,230.1,150.4,220.4,136.8z   "
       id="path11" /><path
       class="st0"
       d="M226.9,416.1c-18.3,18.9-28.6,35.2-33.2,43.1C226.5,483.3,265.2,496,306,496c24,0,47.3-4.4,69.4-13.1   c-3.8-21-14.9-74-38.4-136.6C293.6,362.1,256.6,385.6,226.9,416.1z"
       id="path13" /><path
       class="st0"
       d="M386.3,334.3c19.6,55.5,29.8,102.4,33.9,123.5c37.5-28.4,63.4-69.8,72.2-115.8c-12-3.3-39.5-9.7-74-9.7   C407.5,332.3,396.7,333,386.3,334.3z"
       id="path15" /><path
       class="st0"
       d="M357.2,262.7c3.7,7.7,7.1,15.3,10.2,22.6c0.7,1.9,1.5,3.8,2.4,5.6c13-1.5,26.8-2.2,41.1-2.2   c37.4,0,70,4.9,84.8,7.6c-1.9-37.5-15.1-73.9-37.7-104C445.9,206.2,413.9,238.2,357.2,262.7z"
       id="path17" /><path
       class="st0"
       d="M541.1,0H70.5C31.5,0,0,31.5,0,70.5v470.6c0,39,31.5,70.7,70.5,70.7h470.7c39,0,70.7-31.7,70.7-70.7V70.5   C611.8,31.5,580.3,0,541.1,0z M306,542.3c-130.4,0-236.4-106-236.4-236.4S175.6,69.5,306,69.5s236.4,106,236.4,236.4   S436.4,542.3,306,542.3z"
       id="path19" /></g><path
     style="fill:#ffffff"
     d="M 46.901322,608.44297 C 29.988409,602.56956 14.247533,588.00307 5.9871654,570.58126 L -0.15856971,557.6194 0.01332794,306.15923 C 0.1402627,120.47326 0.981244,52.540006 3.2284693,46.444804 8.9313787,30.976667 21.80567,15.998221 36.241342,8.0363558 l 14.100709,-7.77711852 255.348719,0 255.34873,0 13.27227,7.00157802 c 15.16611,8.0006407 25.35136,18.9908767 33.15236,35.7725737 5.38474,11.583741 5.42283,13.431866 5.42283,263.125841 0,250.84142 -0.013,251.48943 -5.50289,263.35758 -7.02232,15.18241 -21.85712,30.01721 -37.03953,37.03953 -11.83595,5.47445 -13.18302,5.50594 -260.76521,6.09273 -236.301776,0.56003 -249.565102,0.34766 -262.678008,-4.2061 z m 306.748348,-72.5817 c 43.0469,-8.92914 80.70912,-28.72235 113.48519,-59.64163 C 553.59441,394.65807 565.42258,261.97623 494.77472,166.1711 483.13636,150.38839 453.77307,122.04464 437.90179,111.27287 395.21946,82.304579 348.4362,69.679819 293.37612,72.271702 234.46667,75.044789 187.82537,95.042589 144.05688,136.29341 96.684713,180.94061 71.632774,239.73578 71.679011,306.15923 c 0.05244,75.32168 33.349179,142.57693 92.660059,187.16172 53.70462,40.37051 123.81695,56.12555 189.3106,42.54032 z"
     id="path4157"
     inkscape:connector-curvature="0" /><path
     style="fill:#ffffff"
     d="m 122.62823,254.58516 c 10.6064,-42.25926 45.87505,-89.30416 82.84595,-110.50831 7.35466,-4.21816 14.10516,-7.68033 15.00111,-7.69371 1.75133,-0.0262 49.44701,71.94277 59.57039,89.8869 3.36473,5.96413 5.47333,11.48822 4.68578,12.27577 -4.87666,4.87666 -90.44565,18.23471 -135.6073,21.16945 l -28.24416,1.8354 1.74823,-6.9655 z"
     id="path4159"
     inkscape:connector-curvature="0" /><path
     style="fill:#ffffff"
     d="m 326.31479,207.00097 c -4.61286,-8.19838 -18.87347,-30.99044 -31.69024,-50.64903 -12.81677,-19.65859 -22.47432,-36.57382 -21.46122,-37.58941 1.01311,-1.01558 12.71601,-2.24691 26.00646,-2.73628 40.70138,-1.49866 79.6108,9.38712 112.16018,31.37933 8.91128,6.02097 16.20233,11.79252 16.20233,12.82567 0,2.99096 -16.92905,19.11068 -32.09732,30.56282 -14.89984,11.24949 -51.43829,31.11304 -57.23158,31.11304 -1.92588,0 -7.27575,-6.70776 -11.88861,-14.90614 z"
     id="path4163"
     inkscape:connector-curvature="0" /><path
     style="fill:#ffffff"
     d="m 472.89882,293.98796 c -7.12902,-1.36849 -33.65075,-2.68949 -58.93718,-2.93556 l -45.97531,-0.44741 -5.56295,-13.70312 c -3.05962,-7.53671 -5.1188,-14.14077 -4.57595,-14.67569 0.54284,-0.53491 8.69238,-4.98476 18.11009,-9.88856 25.96713,-13.52109 45.81026,-27.41556 65.05341,-45.55143 l 17.41946,-16.4171 8.78749,13.82473 c 14.75388,23.21126 23.10789,47.20212 28.96137,83.17071 1.79924,11.05596 0.99806,11.2839 -23.28043,6.62343 z"
     id="path4165"
     inkscape:connector-curvature="0" /><path
     style="fill:#ffffff"
     d="m 418.59459,454.57258 c -0.54882,-1.78226 -4.14163,-16.58135 -7.98401,-32.88687 -3.84239,-16.30553 -11.01762,-42.37789 -15.94497,-57.93859 -4.92736,-15.5607 -8.20013,-29.05088 -7.27283,-29.97817 0.92729,-0.92729 15.29595,-1.68599 31.93034,-1.68599 34.84046,0 70.17425,5.4005 72.345,11.05738 2.1483,5.59839 -6.27048,30.33244 -18.14512,53.30962 -6.73802,13.03793 -17.39743,27.63999 -29.80552,40.82987 -19.39699,20.61913 -23.2763,23.28936 -25.12289,17.29275 z"
     id="path4167"
     inkscape:connector-curvature="0" /><path
     style="fill:#ffffff"
     d="m 265.64442,492.56928 c -28.24366,-6.29374 -71.42568,-26.53229 -71.42568,-33.47578 0,-5.48107 18.84836,-30.31952 36.09501,-47.56617 9.84241,-9.84241 27.97298,-24.60076 40.29017,-32.79633 20.5133,-13.64908 58.10643,-32.28205 65.2849,-32.35834 6.05593,-0.0644 42.53846,126.47824 39.0699,135.51715 -4.37796,11.40879 -75.05542,18.31363 -109.3143,10.67947 z"
     id="path4169"
     inkscape:connector-curvature="0" /><path
     style="fill:#ffffff"
     d="m 149.82081,415.68698 c -17.90699,-24.24555 -32.34268,-64.96753 -33.77252,-95.2697 l -0.67278,-14.25805 34.88496,-1.83755 c 48.95705,-2.57879 105.06145,-11.38786 154.13412,-24.20092 4.15202,-1.08411 6.07815,0.79469 9.67007,9.43249 4.65474,11.19367 4.16778,15.30979 -1.81126,15.30979 -7.39525,0 -56.85219,26.94368 -76.15378,41.48787 -21.71343,16.36156 -47.66805,42.5572 -65.28682,65.8931 -6.00481,7.95331 -11.35364,14.46056 -11.88629,14.46056 -0.53266,0 -4.63022,-4.95792 -9.1057,-11.01759 z"
     id="path4171"
     inkscape:connector-curvature="0" /></svg>
