<?xml version="1.0" encoding="utf-8"?>
<!-- Generator: Adobe Illustrator 16.0.0, SVG Export Plug-In . SVG Version: 6.00 Build 0)  -->
<!DOCTYPE svg PUBLIC "-//W3C//DTD SVG 1.1//EN" "http://www.w3.org/Graphics/SVG/1.1/DTD/svg11.dtd">
<svg version="1.1" id="Layer_1" xmlns="http://www.w3.org/2000/svg" xmlns:xlink="http://www.w3.org/1999/xlink" x="0px" y="0px"
	 width="200px" height="200px" viewBox="0 0 200 200" enable-background="new 0 0 200 200" xml:space="preserve">
<g>
	<g>
		<path fill="#D85138" d="M138.855,133.841c0,0,33.57,22.432,40.697,18.347C186.435,147.28,138.855,133.841,138.855,133.841z"/>
		<path fill="#D85138" d="M129.037,125.426c0,0,45.677,26.125,53.93,20.458C189.061,140.104,129.037,125.426,129.037,125.426z"/>
		<path fill="#D85138" d="M127.469,133.707c0,0,37.804,30.899,47.685,26.431C183.372,155.573,127.469,133.707,127.469,133.707z"/>
		<path fill="#D85138" d="M119.812,130.545c0,0,33.759,30.264,40.08,29.715C166.028,159.728,119.812,130.545,119.812,130.545z"/>
		<path fill="#EB9759" d="M117.814,124.424c0,0,40.188,27.103,49.393,23.69C175.192,144.833,117.814,124.424,117.814,124.424z"/>
		<path fill="#EB9759" d="M114.894,121.477c0,0,46.591,23.881,54.302,19.536C175.335,136.838,114.894,121.477,114.894,121.477z"/>
		<path fill="#EB9759" d="M112.481,122.127c0,0,35.207,28.818,43.691,27.37C163.556,148.026,112.481,122.127,112.481,122.127z"/>
		<path fill="#EB9759" d="M108.404,122.24c0,0,26.352,30.883,37.533,29.322C155.906,150.154,108.404,122.24,108.404,122.24z"/>
		<path fill="#228299" d="M102.223,117.755c0,0,40.577,26.13,49.637,23.083C159.599,137.872,102.223,117.755,102.223,117.755z"/>
		<path fill="#228299" d="M102.438,117.622c0,0,47.158,23.037,54.624,19.041C163.355,132.671,102.438,117.622,102.438,117.622z"/>
		<path fill="#228299" d="M100.225,119.031c0,0,35.597,27.719,45.539,25.338C154.886,141.723,100.225,119.031,100.225,119.031z"/>
	</g>
	<path fill="#D85138" d="M181.552,67.305l-7.597-0.794c8.394-6.804,10.374-25.805,10.374-25.805
		C129.147,90.318,74.234,75.301,74.234,75.301l-32.248,4.313c1.71,1.313,3.386,2.54,5.045,3.711l-1.641,0.484
		c62.442,64.136,126.179,5.499,126.179,5.499l-7.597-0.796C179.97,82.5,181.552,67.305,181.552,67.305z"/>
	<path fill="#D85138" d="M109.231,126.38c2.241-1.986,4.498-4.31,6.766-7.048L61.761,80.339l17.983-0.666
		c0,0-8.668-10.662-29.535-28.648c-27.453-23.661-32.627-1.006-32.627-1.006L33.615,81.38c0,0,26.976,61.831,60.759,53.357
		c0.868,0.902,1.963,1.762,3.349,2.539c10.533,5.908,20.921-7.661,20.921-7.661L109.231,126.38z"/>
	<path fill="#FFFFFF" d="M56.456,65.981c0,0-31.171-4.542-27.007,5.429L21.117,51.47C21.117,51.47,36.894,33.168,56.456,65.981z"/>
	<circle fill="#414142" cx="35.665" cy="51.248" r="1.909"/>
	<path fill="#595A5C" d="M30.357,75.003c0,0-11.286-12.437-14.187-5.372l5.805-14.134C21.976,55.498,27.011,52.983,30.357,75.003z"
		/>
	<g>
		<path fill="#28A5D3" d="M79.744,79.673c0,0,78.498,17.241,115.381-2.179c0,0-7.257,17.667-17.228,21.831l7.069,2.904
			c0,0-5.803,14.137-22.841,15.399l7.069,2.901c0,0-77.681,38.31-119.525-40.818L79.744,79.673z"/>
		<path fill="#EB9759" d="M79.744,79.673c0,0,41.426,17.006,81.94,8.863c0,0-4.356,10.604-14.328,14.77l7.071,2.899
			c0,0-7.889,9.15-16.409,9.783l10.603,4.352c0,0-62.69,25.805-98.951-40.628L79.744,79.673z"/>
		<path fill="#FFE6C6" d="M77.267,79.855c0,0,30.03,20.289,68.617,16.389c0,0-4.844,8.534-13.76,10.994l5.691,3.227
			c0,0-7.688,6.918-14.992,6.532l8.534,4.844c0,0-59.226,5.535-81.687-42.127L77.267,79.855z"/>
		<path fill="#D85138" d="M78.936,78.721c0,0,20.428,16.26,47.218,15.877c0,0-5.805,14.135-21.392,11.862
			c0,0,7.069,2.902,9.152,7.888c0,0-30.92,11.507-65.252-35.626H78.936z"/>
	</g>
	<path fill="#BBBCBC" d="M24.456,55.093c0,0,0.653-3.764-6.871-5.074c0,0-14.566,16.852-0.821,27
		C16.764,77.018,13.659,72.6,24.456,55.093z"/>
</g>
</svg>
