<svg width="45" height="43" viewBox="0 0 45 43" xmlns="http://www.w3.org/2000/svg">
<path fill="#ffffff" d="M 22.4943 -7.16688e-09C 10.0725 -7.16688e-09 7.85499e-09 9.87083 7.85499e-09 22.044C 7.85499e-09 31.7835 6.44383 40.0444 15.3848 42.9636C 16.5095 43.1662 16.9185 42.4827 16.9185 41.8993C 16.9185 41.376 16.9003 39.9888 16.8889 38.1473C 10.6337 39.4789 9.31356 35.1925 9.31356 35.1925C 8.28882 32.6452 6.81419 31.9683 6.81419 31.9683C 4.77152 30.6011 6.97097 30.6256 6.97097 30.6256C 9.22949 30.7837 10.4156 32.8991 10.4156 32.8991C 12.4219 36.268 15.6824 35.2927 16.9639 34.7316C 17.1661 33.3043 17.7501 32.3335 18.3908 31.7813C 13.3943 31.2268 8.1434 29.3364 8.1434 20.8884C 8.1434 18.4814 9.02045 16.5152 10.4587 14.9721C 10.2292 14.4155 9.45443 12.1732 10.6791 9.13826C 10.6791 9.13826 12.5696 8.54374 16.8685 11.4006C 18.6612 10.9107 20.5857 10.6635 22.5011 10.6568C 24.4097 10.6635 26.3365 10.9107 28.1338 11.4006C 32.4282 8.54596 34.3118 9.13826 34.3118 9.13826C 35.5365 12.1732 34.7685 14.4155 34.539 14.9721C 35.9818 16.513 36.8498 18.4814 36.8498 20.8884C 36.8498 29.3609 31.5897 31.2202 26.5774 31.7657C 27.3885 32.447 28.1088 33.792 28.1088 35.8494C 28.1088 38.7953 28.0793 41.1734 28.0793 41.897C 28.0793 42.4871 28.486 43.1729 29.6266 42.9592C 38.5584 40.0378 45 31.779 45 22.0418C 44.9909 9.86861 34.9162 -7.16688e-09 22.4943 -7.16688e-09Z"/>
</svg>
