<svg id="Layer_1" data-name="Layer 1" xmlns="http://www.w3.org/2000/svg" viewBox="0 0 114.97 114.97"><defs><style>.cls-1{fill:#fff;}</style></defs><title>icon-linkedin</title><path class="cls-1" d="M1185.54,435.91A57.49,57.49,0,1,1,1243,378.42,57.55,57.55,0,0,1,1185.54,435.91Zm0-109A51.49,51.49,0,1,0,1237,378.42,51.55,51.55,0,0,0,1185.54,326.93Z" transform="translate(-1128.05 -320.93)"/><path class="cls-1" d="M1212.63,403.31v-20c0-10.73-5.73-15.73-13.37-15.73a11.52,11.52,0,0,0-10.46,5.77v-5h-11.61c0.15,3.28,0,34.94,0,34.94h11.61V383.8a7.94,7.94,0,0,1,.38-2.83,6.35,6.35,0,0,1,6-4.25c4.2,0,5.88,3.2,5.88,7.9v18.69h11.61Zm-47.68-39.71c4,0,6.57-2.69,6.57-6s-2.52-6-6.5-6-6.57,2.61-6.57,6,2.52,6,6.42,6h0.07Zm5.81,39.71V368.38h-11.61v34.94h11.61Z" transform="translate(-1128.05 -320.93)"/></svg>