<?xml version="1.0" encoding="utf-8"?>
<!-- Generator: Adobe Illustrator 20.1.0, SVG Export Plug-In . SVG Version: 6.00 Build 0)  -->
<svg version="1.1" id="Layer_1" xmlns="http://www.w3.org/2000/svg" xmlns:xlink="http://www.w3.org/1999/xlink" x="0px" y="0px"
	 viewBox="0 0 50.5 50.5" style="enable-background:new 0 0 50.5 50.5;" xml:space="preserve">
<style type="text/css">
	.st0{fill:#9A9999;}
</style>
<path class="st0" d="M48.7,23.5c-1.7,0-1.8,1.1-6,0.6c-0.1-0.4-0.3-0.6-0.4-0.6c-0.2,0-0.3,0.2-0.4,0.6h-0.6
	c-0.3-3.5-1.7-6.8-3.9-9.3l0.5-0.5c0.3,0.2,0.6,0.2,0.7,0.1c0.1-0.1,0-0.4-0.2-0.7c2.7-3.4,3.5-2.6,4.7-3.8c1.2-1.2,0-2.5,0-2.5
	s-1.2-1.2-2.5,0c-1.2,1.2-0.5,2-3.8,4.7c-0.3-0.2-0.6-0.3-0.7-0.2c-0.1,0.1-0.1,0.4,0.1,0.7l-0.5,0.5c-2.5-2.2-5.8-3.6-9.3-3.9V8.6
	C26.8,8.5,27,8.4,27,8.2c0-0.2-0.2-0.3-0.6-0.4c-0.5-4.3,0.6-4.3,0.6-6C27,0,25.3,0,25.3,0s-1.8,0-1.8,1.8c0,1.7,1.1,1.8,0.6,6
	c-0.4,0.1-0.6,0.2-0.6,0.4c0,0.2,0.2,0.3,0.6,0.4v0.6c-3.5,0.3-6.8,1.7-9.3,3.9l-0.5-0.5c0.2-0.3,0.2-0.6,0.1-0.7
	c-0.1-0.1-0.4,0-0.7,0.2c-3.4-2.7-2.6-3.5-3.8-4.7c-1.2-1.2-2.5,0-2.5,0s-1.2,1.2,0,2.5c1.2,1.2,2,0.5,4.7,3.8
	c-0.2,0.3-0.3,0.6-0.2,0.7c0.1,0.1,0.4,0.1,0.7-0.1l0.5,0.5c-2.2,2.5-3.6,5.8-3.9,9.3H8.6c-0.1-0.4-0.2-0.6-0.4-0.6
	c-0.2,0-0.3,0.2-0.4,0.6c-4.3,0.5-4.3-0.6-6-0.6C0,23.5,0,25.3,0,25.3S0,27,1.8,27c1.7,0,1.8-1.1,6-0.6C7.9,26.8,8,27,8.2,27
	c0.2,0,0.3-0.2,0.4-0.6h0.6c0.3,3.5,1.7,6.8,3.9,9.3l-0.5,0.5c-0.3-0.2-0.6-0.2-0.7-0.1c-0.1,0.1,0,0.4,0.2,0.7
	c-2.7,3.4-3.5,2.6-4.7,3.8c-1.2,1.2,0,2.5,0,2.5s1.2,1.2,2.5,0c1.2-1.2,0.5-2,3.8-4.7c0.3,0.2,0.6,0.3,0.7,0.2
	c0.1-0.1,0.1-0.4-0.1-0.7l0.5-0.5c2.5,2.2,5.8,3.6,9.3,3.9v0.6c-0.4,0.1-0.6,0.2-0.6,0.4c0,0.2,0.2,0.3,0.6,0.4
	c0.5,4.3-0.6,4.3-0.6,6c0,1.8,1.8,1.8,1.8,1.8s1.8,0,1.8-1.8c0-1.7-1.1-1.8-0.6-6c0.4-0.1,0.6-0.2,0.6-0.4c0-0.2-0.2-0.3-0.6-0.4
	v-0.6c3.5-0.3,6.8-1.7,9.3-3.9l0.5,0.5c-0.2,0.3-0.2,0.6-0.1,0.7c0.1,0.1,0.4,0,0.7-0.2c3.4,2.7,2.6,3.5,3.8,4.7
	c1.2,1.2,2.5,0,2.5,0s1.2-1.2,0-2.5c-1.2-1.2-2-0.5-4.7-3.8c0.2-0.3,0.3-0.6,0.2-0.7c-0.1-0.1-0.4-0.1-0.7,0.1l-0.5-0.5
	c2.2-2.5,3.6-5.8,3.9-9.3h0.6c0.1,0.4,0.2,0.6,0.4,0.6c0.2,0,0.3-0.2,0.4-0.6c4.3-0.5,4.3,0.6,6,0.6c1.8,0,1.8-1.8,1.8-1.8
	S50.5,23.5,48.7,23.5z M15.8,17.6l0.3,0.3l0.3-0.3c-0.2,0.2-0.2,0.4-0.1,0.4c0.1,0.1,0.3,0,0.4-0.1l1.1,1.7l1.7,1.1
	c-0.2,0.2-0.2,0.4-0.1,0.4c0.1,0.1,0.3,0,0.4-0.1l1.2-1.2c0.2-0.2,0.2-0.4,0.1-0.4c-0.1-0.1-0.3,0-0.4,0.1l-1.1-1.7l-1.7-1.1
	c0.2-0.2,0.2-0.4,0.1-0.4c-0.1-0.1-0.3,0-0.4,0.1l0.3-0.3l-0.3-0.3c1.8-1.5,4-2.4,6.5-2.7v0.4h0.4c-0.2,0-0.4,0.1-0.4,0.2
	c0,0.1,0.2,0.2,0.4,0.2L24,16l0.4,2c-0.2,0-0.4,0.1-0.4,0.2c0,0.1,0.2,0.2,0.4,0.2H24v0.5c-0.9,0.2-1.7,0.5-2.4,1l-0.4-0.4l-1.7,1.7
	l0.4,0.4c-0.5,0.7-0.8,1.5-1,2.4h-0.5v0.4c0-0.2-0.1-0.4-0.2-0.4c-0.1,0-0.2,0.2-0.2,0.4l-2-0.4l-2,0.4c0-0.2-0.1-0.4-0.2-0.4
	c-0.1,0-0.2,0.2-0.2,0.4v-0.4h-0.4C13.4,21.6,14.4,19.4,15.8,17.6z M29.4,25.3c0,2.3-1.8,4.1-4.1,4.1s-4.1-1.8-4.1-4.1
	c0-2.3,1.8-4.1,4.1-4.1S29.4,23,29.4,25.3z M13.5,26.5v-0.4c0,0.2,0.1,0.4,0.2,0.4c0.1,0,0.2-0.2,0.2-0.4l2,0.4l2-0.4
	c0,0.2,0.1,0.4,0.2,0.4c0.1,0,0.2-0.2,0.2-0.4v0.4h0.6c0.2,0.9,0.5,1.7,1,2.4l-0.4,0.4l0.3,0.3c-0.2-0.2-0.4-0.2-0.4-0.1
	c-0.1,0.1,0,0.3,0.1,0.4L17.8,31l-1.1,1.7c-0.2-0.2-0.4-0.2-0.4-0.1c-0.1,0.1,0,0.3,0.1,0.4l-0.3-0.3l-0.2,0.2
	c-1.5-1.8-2.4-4-2.7-6.4H13.5z M17.5,34.2c0.2,0.2,0.4,0.2,0.4,0.1c0.1-0.1,0-0.3-0.1-0.4l1.7-1.1l1.1-1.7c0.2,0.2,0.4,0.2,0.4,0.1
	c0.1-0.1,0-0.3-0.1-0.4l0.3,0.3l0.4-0.4c0.7,0.5,1.5,0.8,2.4,1v0.6h0.4c-0.2,0-0.4,0.1-0.4,0.2c0,0.1,0.2,0.2,0.4,0.2l-0.4,2l0.4,2
	c-0.2,0-0.4,0.1-0.4,0.2c0,0.1,0.2,0.2,0.4,0.2H24v0.3c-2.4-0.2-4.6-1.2-6.4-2.7l0.2-0.2L17.5,34.2z M26.1,37c0.2,0,0.4-0.1,0.4-0.2
	c0-0.1-0.2-0.2-0.4-0.2l0.4-2l-0.4-2c0.2,0,0.4-0.1,0.4-0.2c0-0.1-0.2-0.2-0.4-0.2h0.4v-0.6c0.9-0.2,1.7-0.5,2.4-1l0.4,0.4l0.3-0.3
	c-0.2,0.2-0.2,0.4-0.1,0.4c0.1,0.1,0.3,0,0.4-0.1l1.1,1.7l1.7,1.1c-0.2,0.2-0.2,0.4-0.1,0.4c0.1,0.1,0.3,0,0.4-0.1l-0.3,0.3l0.2,0.2
	c-1.8,1.5-4,2.4-6.4,2.7V37H26.1z M34.6,32.9l-0.2-0.2L34.1,33c0.2-0.2,0.2-0.4,0.1-0.4c-0.1-0.1-0.3,0-0.4,0.1L32.7,31L31,29.9
	c0.2-0.2,0.2-0.4,0.1-0.4c-0.1-0.1-0.3,0-0.4,0.1l0.3-0.3l-0.4-0.4c0.5-0.7,0.8-1.5,1-2.4h0.6v-0.4c0,0.2,0.1,0.4,0.2,0.4
	c0.1,0,0.2-0.2,0.2-0.4l2,0.4l2-0.4c0,0.2,0.1,0.4,0.2,0.4c0.1,0,0.2-0.2,0.2-0.4v0.4h0.3C37.1,28.9,36.1,31.2,34.6,32.9z M37,24.1
	v0.4c0-0.2-0.1-0.4-0.2-0.4c-0.1,0-0.2,0.2-0.2,0.4l-2-0.4l-2,0.4c0-0.2-0.1-0.4-0.2-0.4c-0.1,0-0.2,0.2-0.2,0.4v-0.4h-0.5
	c-0.2-0.9-0.5-1.7-1-2.4l0.4-0.4l-1.7-1.7l-0.4,0.4c-0.7-0.5-1.5-0.8-2.4-1v-0.5h-0.4c0.2,0,0.4-0.1,0.4-0.2c0-0.1-0.2-0.2-0.4-0.2
	l0.4-2l-0.4-2c0.2,0,0.4-0.1,0.4-0.2c0-0.1-0.2-0.2-0.4-0.2h0.4v-0.4c2.4,0.2,4.7,1.2,6.5,2.7l-0.3,0.3l0.3,0.3
	c-0.2-0.2-0.4-0.2-0.4-0.1c-0.1,0.1,0,0.3,0.1,0.4L31,17.9l-1.1,1.7c-0.2-0.2-0.4-0.2-0.4-0.1c-0.1,0.1,0,0.3,0.1,0.4l1.2,1.2
	c0.2,0.2,0.4,0.2,0.4,0.1c0.1-0.1,0-0.3-0.1-0.4l1.7-1.1l1.1-1.7c0.2,0.2,0.4,0.2,0.4,0.1c0.1-0.1,0-0.3-0.1-0.4l0.3,0.3l0.3-0.3
	c1.5,1.8,2.4,4,2.7,6.5H37z"/>
</svg>
