<svg width="520" height="1080" viewBox="0 0 520 1080" fill="none" xmlns="http://www.w3.org/2000/svg">
<path opacity="0.27" d="M-68.594 578.429L511.218 -1.38306V247.737L177.677 581.277L-68.594 578.429Z" fill="url(#paint0_linear)"/>
<path d="M200.595 334.229H131.194L81.7325 383.691H151.004L200.595 334.229Z" fill="#412578"/>
<path opacity="0.3" d="M437.285 1032.9H413.978L355.712 1091.17H379.019L437.285 1032.9Z" fill="#412578"/>
<g opacity="0.8">
<path opacity="0.8" d="M40.6874 535.96H94.0332V615.978H40.6874V535.96Z" fill="url(#paint1_linear)" stroke="#93D7EA" stroke-width="0.75" stroke-miterlimit="10" stroke-linecap="round" stroke-linejoin="round"/>
<path opacity="0.8" d="M94.0332 615.978L147.379 562.633V482.614L94.0332 535.96V615.978Z" fill="url(#paint2_linear)" stroke="#93D7EA" stroke-width="0.75" stroke-miterlimit="10" stroke-linecap="round" stroke-linejoin="round"/>
<path opacity="0.8" d="M40.6874 535.96L94.0332 482.614H147.379L94.0332 535.96H40.6874Z" fill="url(#paint3_linear)" stroke="#93D7EA" stroke-width="0.75" stroke-miterlimit="10" stroke-linecap="round" stroke-linejoin="round"/>
</g>
<path opacity="0.3" d="M443.888 564.186H410.612L327.356 647.442H360.633L443.888 564.186Z" fill="#412578"/>
<path opacity="0.3" d="M385.622 513.301H226.88L-170.106 910.287H-11.3637L385.622 513.301Z" fill="#412578"/>
<g opacity="0.4">
<path opacity="0.65" d="M128.604 644.205L157.09 615.719H232.965L204.48 644.205H128.604Z" fill="url(#paint4_linear)" stroke="#93D7EA" stroke-width="0.75" stroke-miterlimit="10" stroke-linecap="round" stroke-linejoin="round"/>
<path opacity="0.37" d="M156.831 539.844H232.706V615.719H156.831V539.844V539.844Z" fill="url(#paint5_linear)" stroke="#93D7EA" stroke-width="0.75" stroke-miterlimit="10" stroke-linecap="round" stroke-linejoin="round"/>
<path opacity="0.4" d="M203.962 644.464V568.588" stroke="url(#paint6_linear)" stroke-width="0.75" stroke-miterlimit="10" stroke-linecap="round" stroke-linejoin="round"/>
<g opacity="0.4">
<g opacity="0.4">
<path opacity="0.78" d="M128.474 644.205L156.959 615.719V539.844L128.474 568.329V644.205Z" fill="url(#paint7_linear)" stroke="#93D7EA" stroke-width="1.2122" stroke-miterlimit="10" stroke-linecap="round" stroke-linejoin="round"/>
<path opacity="0.4" d="M128.346 568.33H204.221V644.205H128.346V568.33V568.33Z" fill="url(#paint8_linear)" stroke="#93D7EA" stroke-width="1.2122" stroke-miterlimit="10" stroke-linecap="round" stroke-linejoin="round"/>
<path opacity="0.4" d="M204.221 644.205L232.707 615.719V539.844L204.221 568.329V644.205Z" fill="url(#paint9_linear)" stroke="#93D7EA" stroke-width="1.2122" stroke-miterlimit="10" stroke-linecap="round" stroke-linejoin="round"/>
<path opacity="0.4" d="M128.346 568.329L156.831 539.844H232.706L204.221 568.329H128.346Z" fill="url(#paint10_linear)" stroke="#93D7EA" stroke-width="1.2122" stroke-miterlimit="10" stroke-linecap="round" stroke-linejoin="round"/>
</g>
<path opacity="0.4" d="M128.993 567.941H204.48" stroke="url(#paint11_linear)" stroke-width="1.3046" stroke-miterlimit="10" stroke-linecap="round" stroke-linejoin="round"/>
<path opacity="0.4" d="M129.511 568.07C129.511 568.588 128.993 569.106 128.475 569.106C127.957 569.106 127.439 568.588 127.439 568.07C127.439 567.552 127.957 567.034 128.475 567.034C128.993 567.034 129.511 567.552 129.511 568.07Z" fill="white"/>
<path opacity="0.4" d="M205.386 568.07C205.386 568.588 204.868 569.106 204.35 569.106C203.832 569.106 203.314 568.588 203.314 568.07C203.314 567.552 203.832 567.034 204.35 567.034C204.868 567.034 205.386 567.552 205.386 568.07Z" fill="white"/>
<path opacity="0.4" d="M129.511 644.205C129.511 644.723 128.993 645.241 128.475 645.241C127.957 645.241 127.439 644.723 127.439 644.205C127.439 643.687 127.957 643.169 128.475 643.169C128.993 643.169 129.511 643.687 129.511 644.205Z" fill="white"/>
<path opacity="0.4" d="M205.386 644.205C205.386 644.723 204.868 645.241 204.35 645.241C203.832 645.241 203.314 644.723 203.314 644.205C203.314 643.687 203.832 643.169 204.35 643.169C204.868 643.169 205.386 643.687 205.386 644.205Z" fill="white"/>
<path opacity="0.4" d="M157.478 540.103C157.478 540.621 156.961 541.139 156.443 541.139C155.925 541.139 155.407 540.621 155.407 540.103C155.407 539.585 155.925 539.067 156.443 539.067C156.961 539.067 157.478 539.585 157.478 540.103Z" fill="white"/>
<path opacity="0.4" d="M233.224 540.103C233.224 540.621 232.706 541.139 232.189 541.139C231.671 541.139 231.153 540.621 231.153 540.103C231.153 539.585 231.671 539.067 232.189 539.067C232.836 539.067 233.224 539.585 233.224 540.103Z" fill="white"/>
<path opacity="0.4" d="M233.224 616.237C233.224 616.755 232.706 617.273 232.189 617.273C231.671 617.273 231.153 616.755 231.153 616.237C231.153 615.719 231.671 615.201 232.189 615.201C232.836 615.201 233.224 615.719 233.224 616.237Z" fill="white"/>
</g>
</g>
<path d="M367.625 429.138L299.777 496.986V429.138L367.625 361.291V429.138Z" fill="url(#paint12_linear)" stroke="#93D7EA" stroke-width="1.2122" stroke-miterlimit="10" stroke-linecap="round" stroke-linejoin="round"/>
<path d="M299.648 429.138H274.27L342.117 361.291H367.495L299.648 429.138Z" fill="url(#paint13_linear)" stroke="#93D7EA" stroke-width="1.2122" stroke-miterlimit="10" stroke-linecap="round" stroke-linejoin="round"/>
<path opacity="0.8" d="M274.27 429.138H299.648V496.986H274.27V429.138Z" fill="url(#paint14_linear)" stroke="#93D7EA" stroke-width="0.75" stroke-miterlimit="10" stroke-linecap="round" stroke-linejoin="round"/>
<path d="M275.435 429.138C275.435 429.656 275.046 430.045 274.528 430.045C274.01 430.045 273.622 429.656 273.622 429.138C273.622 428.62 274.01 428.232 274.528 428.232C275.046 428.232 275.435 428.62 275.435 429.138Z" fill="white"/>
<path d="M300.554 429.138C300.554 429.656 300.165 430.045 299.648 430.045C299.13 430.045 298.741 429.656 298.741 429.138C298.741 428.62 299.13 428.232 299.648 428.232C300.036 428.232 300.554 428.62 300.554 429.138Z" fill="white"/>
<path d="M275.435 496.856C275.435 497.374 275.046 497.763 274.528 497.763C274.01 497.763 273.622 497.374 273.622 496.856C273.622 496.338 274.01 495.95 274.528 495.95C275.046 495.95 275.435 496.338 275.435 496.856Z" fill="white"/>
<path d="M300.554 496.856C300.554 497.374 300.165 497.763 299.648 497.763C299.13 497.763 298.741 497.374 298.741 496.856C298.741 496.338 299.13 495.95 299.648 495.95C300.036 495.95 300.554 496.338 300.554 496.856Z" fill="white"/>
<path d="M368.919 361.42C368.919 361.938 368.531 362.327 368.013 362.327C367.495 362.327 367.107 361.938 367.107 361.42C367.107 360.902 367.495 360.514 368.013 360.514C368.531 360.514 368.919 360.902 368.919 361.42Z" fill="white"/>
<path d="M343.023 361.42C343.023 361.938 342.635 362.327 342.117 362.327C341.599 362.327 341.211 361.938 341.211 361.42C341.211 360.902 341.599 360.514 342.117 360.514C342.635 360.514 343.023 360.902 343.023 361.42Z" fill="white"/>
<path d="M368.919 429.138C368.919 429.656 368.531 430.045 368.013 430.045C367.495 430.045 367.107 429.656 367.107 429.138C367.107 428.62 367.495 428.232 368.013 428.232C368.531 428.232 368.919 428.62 368.919 429.138Z" fill="white"/>
<path d="M200.984 790.906V879.082L493.35 586.586V486.239L202.149 777.311L200.984 790.906Z" stroke="#95D4E7" stroke-miterlimit="10"/>
<path d="M523.13 591.118V526.119L463.44 585.809V650.42L487.912 625.948L523.13 591.118Z" fill="url(#paint15_linear)"/>
<path opacity="0.61" d="M2.23177 336.56L240.475 98.3167H371.25L441.817 168.883L-8.77405 619.474V345.624L2.23177 336.56Z" fill="url(#paint16_linear)"/>
<path d="M96.1048 571.307L-38.425 707.003V729.532L119.8 571.178L96.1048 571.307Z" fill="url(#paint17_linear)"/>
<path opacity="0.27" d="M499.824 613.518L813.554 299.658H828.703L512.383 615.978L499.824 613.518Z" fill="url(#paint18_linear)"/>
<path opacity="0.27" d="M127.439 912.229L355.713 683.955V782.101L224.42 913.394L127.439 912.229Z" fill="url(#paint19_linear)"/>
<path opacity="0.6" d="M519.116 965.834V910.287H463.44L519.116 965.834Z" fill="url(#paint20_linear)"/>
<path opacity="0.4" d="M327.097 516.019V630.868L442.723 508.639V395.732L327.097 516.019Z" fill="url(#paint21_linear)"/>
<path d="M94.0332 687.322L372.286 409.069H385.622L105.169 689.523L94.0332 687.322Z" fill="url(#paint22_linear)"/>
<path d="M426.409 720.857H402.196L384.845 738.207H409.188L426.409 720.857Z" fill="#E30D13"/>
<defs>
<linearGradient id="paint0_linear" x1="210.919" y1="544.839" x2="252.208" y2="18.3994" gradientUnits="userSpaceOnUse">
<stop stop-color="#9EE0E0" stop-opacity="0.9"/>
<stop offset="0.0690068" stop-color="#87D9D8" stop-opacity="0.9069"/>
<stop offset="0.1999" stop-color="#62CDCC" stop-opacity="0.92"/>
<stop offset="0.3369" stop-color="#43C4C2" stop-opacity="0.9337"/>
<stop offset="0.4797" stop-color="#2BBCBB" stop-opacity="0.948"/>
<stop offset="0.6307" stop-color="#1BB7B5" stop-opacity="0.9631"/>
<stop offset="0.7955" stop-color="#10B4B2" stop-opacity="0.9796"/>
<stop offset="1" stop-color="#0DB3B1"/>
</linearGradient>
<linearGradient id="paint1_linear" x1="86.8793" y1="548.022" x2="-31.5978" y2="717.592" gradientUnits="userSpaceOnUse">
<stop stop-color="#F9B000"/>
<stop offset="0.0455285" stop-color="#F69903"/>
<stop offset="0.1341" stop-color="#F17407"/>
<stop offset="0.23" stop-color="#ED540B"/>
<stop offset="0.3333" stop-color="#E93A0E"/>
<stop offset="0.4468" stop-color="#E72610"/>
<stop offset="0.5756" stop-color="#E51812"/>
<stop offset="0.7329" stop-color="#E41013"/>
<stop offset="1" stop-color="#E30D13"/>
</linearGradient>
<linearGradient id="paint2_linear" x1="8.42613" y1="621.292" x2="192.07" y2="503.552" gradientUnits="userSpaceOnUse">
<stop offset="0.00124199" stop-color="#F9B000" stop-opacity="0.7"/>
<stop offset="0.046714" stop-color="#F69903" stop-opacity="0.7137"/>
<stop offset="0.1351" stop-color="#F17407" stop-opacity="0.7402"/>
<stop offset="0.231" stop-color="#ED540B" stop-opacity="0.769"/>
<stop offset="0.3342" stop-color="#E93A0E" stop-opacity="0.8"/>
<stop offset="0.4475" stop-color="#E72610" stop-opacity="0.834"/>
<stop offset="0.5762" stop-color="#E51812" stop-opacity="0.8727"/>
<stop offset="0.7332" stop-color="#E41013" stop-opacity="0.9199"/>
<stop offset="1" stop-color="#E30D13"/>
</linearGradient>
<linearGradient id="paint3_linear" x1="-90.7801" y1="491.557" x2="132.111" y2="513.032" gradientUnits="userSpaceOnUse">
<stop stop-color="#C86128"/>
<stop offset="1" stop-color="#B83626"/>
</linearGradient>
<linearGradient id="paint4_linear" x1="-4.1855" y1="612.121" x2="218.97" y2="633.621" gradientUnits="userSpaceOnUse">
<stop stop-color="#412D79"/>
<stop offset="1" stop-color="#1988BE"/>
</linearGradient>
<linearGradient id="paint5_linear" x1="43.3468" y1="563.209" x2="226.08" y2="580.815" gradientUnits="userSpaceOnUse">
<stop stop-color="#412D79"/>
<stop offset="1" stop-color="#1988BE"/>
</linearGradient>
<linearGradient id="paint6_linear" x1="-nan" y1="-nan" x2="-nan" y2="-nan" gradientUnits="userSpaceOnUse">
<stop stop-color="white" stop-opacity="0"/>
<stop offset="1" stop-color="white"/>
</linearGradient>
<linearGradient id="paint7_linear" x1="125.822" y1="596.701" x2="165.997" y2="585.55" gradientUnits="userSpaceOnUse">
<stop stop-color="white" stop-opacity="0"/>
<stop offset="1" stop-color="#0DB3B1"/>
</linearGradient>
<linearGradient id="paint8_linear" x1="186.759" y1="584.48" x2="62.9013" y2="716.77" gradientUnits="userSpaceOnUse">
<stop stop-color="white" stop-opacity="0"/>
<stop offset="1" stop-color="#0DB3B1"/>
</linearGradient>
<linearGradient id="paint9_linear" x1="201.587" y1="596.701" x2="241.762" y2="585.55" gradientUnits="userSpaceOnUse">
<stop stop-color="white" stop-opacity="0"/>
<stop offset="1" stop-color="#0DB3B1"/>
</linearGradient>
<linearGradient id="paint10_linear" x1="134.897" y1="578.386" x2="227.683" y2="528.988" gradientUnits="userSpaceOnUse">
<stop stop-color="white" stop-opacity="0"/>
<stop offset="1" stop-color="#0DB3B1"/>
</linearGradient>
<linearGradient id="paint11_linear" x1="-nan" y1="-nan" x2="-nan" y2="-nan" gradientUnits="userSpaceOnUse">
<stop stop-color="white" stop-opacity="0"/>
<stop offset="1" stop-color="white"/>
</linearGradient>
<linearGradient id="paint12_linear" x1="296.265" y1="512.615" x2="364.588" y2="359.948" gradientUnits="userSpaceOnUse">
<stop stop-color="#160F4A" stop-opacity="0"/>
<stop offset="1" stop-color="#0DB3B1"/>
</linearGradient>
<linearGradient id="paint13_linear" x1="249.759" y1="427.379" x2="351.876" y2="381.199" gradientUnits="userSpaceOnUse">
<stop stop-color="white" stop-opacity="0"/>
<stop offset="1" stop-color="#0DB3B1"/>
</linearGradient>
<linearGradient id="paint14_linear" x1="291.639" y1="457.632" x2="239.337" y2="518.417" gradientUnits="userSpaceOnUse">
<stop stop-color="#412D79"/>
<stop offset="1" stop-color="#1988BE"/>
</linearGradient>
<linearGradient id="paint15_linear" x1="501.325" y1="463.542" x2="489.815" y2="643.6" gradientUnits="userSpaceOnUse">
<stop stop-color="#0DB3B1"/>
<stop offset="0.0800204" stop-color="#11A4AA"/>
<stop offset="0.388" stop-color="#1D6E91"/>
<stop offset="0.6549" stop-color="#26487F"/>
<stop offset="0.8678" stop-color="#2B3074"/>
<stop offset="1" stop-color="#2D2870"/>
</linearGradient>
<linearGradient id="paint16_linear" x1="379.168" y1="94.602" x2="3.56627" y2="470.204" gradientUnits="userSpaceOnUse">
<stop stop-color="#49BABB" stop-opacity="0.9"/>
<stop offset="0.2113" stop-color="#4BB7B9" stop-opacity="0.9211"/>
<stop offset="0.3934" stop-color="#51ACB3" stop-opacity="0.9393"/>
<stop offset="0.5647" stop-color="#5B9AA9" stop-opacity="0.9565"/>
<stop offset="0.7295" stop-color="#68819B" stop-opacity="0.9729"/>
<stop offset="0.8881" stop-color="#7A6189" stop-opacity="0.9888"/>
<stop offset="1" stop-color="#89467A"/>
</linearGradient>
<linearGradient id="paint17_linear" x1="-44.393" y1="723.589" x2="113.902" y2="565.294" gradientUnits="userSpaceOnUse">
<stop stop-color="#9EE0E0" stop-opacity="0.9"/>
<stop offset="0.0690068" stop-color="#87D9D8" stop-opacity="0.9069"/>
<stop offset="0.1999" stop-color="#62CDCC" stop-opacity="0.92"/>
<stop offset="0.3369" stop-color="#43C4C2" stop-opacity="0.9337"/>
<stop offset="0.4797" stop-color="#2BBCBB" stop-opacity="0.948"/>
<stop offset="0.6307" stop-color="#1BB7B5" stop-opacity="0.9631"/>
<stop offset="0.7955" stop-color="#10B4B2" stop-opacity="0.9796"/>
<stop offset="1" stop-color="#0DB3B1"/>
</linearGradient>
<linearGradient id="paint18_linear" x1="499.78" y1="457.835" x2="828.66" y2="457.835" gradientUnits="userSpaceOnUse">
<stop stop-color="#9EE0E0" stop-opacity="0.9"/>
<stop offset="0.0690068" stop-color="#87D9D8" stop-opacity="0.9069"/>
<stop offset="0.1999" stop-color="#62CDCC" stop-opacity="0.92"/>
<stop offset="0.3369" stop-color="#43C4C2" stop-opacity="0.9337"/>
<stop offset="0.4797" stop-color="#2BBCBB" stop-opacity="0.948"/>
<stop offset="0.6307" stop-color="#1BB7B5" stop-opacity="0.9631"/>
<stop offset="0.7955" stop-color="#10B4B2" stop-opacity="0.9796"/>
<stop offset="1" stop-color="#0DB3B1"/>
</linearGradient>
<linearGradient id="paint19_linear" x1="237.473" y1="899.056" x2="253.73" y2="691.786" gradientUnits="userSpaceOnUse">
<stop stop-color="#9EE0E0" stop-opacity="0.9"/>
<stop offset="0.0690068" stop-color="#87D9D8" stop-opacity="0.9069"/>
<stop offset="0.1999" stop-color="#62CDCC" stop-opacity="0.92"/>
<stop offset="0.3369" stop-color="#43C4C2" stop-opacity="0.9337"/>
<stop offset="0.4797" stop-color="#2BBCBB" stop-opacity="0.948"/>
<stop offset="0.6307" stop-color="#1BB7B5" stop-opacity="0.9631"/>
<stop offset="0.7955" stop-color="#10B4B2" stop-opacity="0.9796"/>
<stop offset="1" stop-color="#0DB3B1"/>
</linearGradient>
<linearGradient id="paint20_linear" x1="555.91" y1="890.358" x2="441.045" y2="975.174" gradientUnits="userSpaceOnUse">
<stop offset="0.00124199" stop-color="#F2F2F2"/>
<stop offset="0.2791" stop-color="#E3E3E3"/>
<stop offset="0.6619" stop-color="#D6D6D6"/>
<stop offset="1" stop-color="#D1D1D1"/>
</linearGradient>
<linearGradient id="paint21_linear" x1="384.889" y1="395.701" x2="384.889" y2="630.868" gradientUnits="userSpaceOnUse">
<stop offset="0.00124199" stop-color="#F9B000" stop-opacity="0.7"/>
<stop offset="0.2564" stop-color="#F59C05" stop-opacity="0.7766"/>
<stop offset="0.7738" stop-color="#EC6A12" stop-opacity="0.932"/>
<stop offset="1" stop-color="#E85218"/>
</linearGradient>
<linearGradient id="paint22_linear" x1="93.9868" y1="549.345" x2="385.611" y2="549.345" gradientUnits="userSpaceOnUse">
<stop offset="0.00124199" stop-color="#E30D13" stop-opacity="0.7"/>
<stop offset="0.147" stop-color="#E52123" stop-opacity="0.7438"/>
<stop offset="0.4444" stop-color="#E8534D" stop-opacity="0.8331"/>
<stop offset="0.8632" stop-color="#EEA48F" stop-opacity="0.9589"/>
<stop offset="1" stop-color="#F0C0A6"/>
</linearGradient>
</defs>
</svg>
