<svg width="32" height="33" viewBox="0 0 32 33" fill="none" xmlns="http://www.w3.org/2000/svg">
<path d="M26.7216 5.23914L1.90735e-06 5.23914L5.27835 -4.00543e-05L32 -4.00543e-05L26.7216 5.23914Z" fill="#19C3BE"/>
<path d="M15.3359 32.8964C21.9014 32.8964 23.5522 30.3032 23.5522 26.7507C23.5522 22.3812 19.5378 21.5641 16.1988 21.0313C13.6476 20.605 12.4846 20.3918 12.4846 18.8643C12.4846 17.7275 13.4975 17.3012 15.1483 17.3012C17.1742 17.3012 17.737 17.8696 17.9246 19.5392L23.2521 18.7577C22.8019 15.1697 20.7384 13.358 15.2984 13.358C9.33309 13.358 7.23211 15.7026 7.23211 19.4327C7.19459 24.264 11.8468 24.7613 15.2984 25.3297C17.4369 25.7205 18.2622 26.0757 18.2622 27.4612C18.2622 28.598 17.5494 29.0953 15.4109 29.0953C13.0473 29.0953 12.3345 28.7046 12.0343 26.8218L6.85693 27.5678C7.34466 31.3689 9.63322 32.8964 15.3359 32.8964Z" fill="white"/>
</svg>
