<?xml version="1.0" encoding="utf-8"?>
<!-- Generator: Adobe Illustrator 24.1.2, SVG Export Plug-In . SVG Version: 6.00 Build 0)  -->
<svg version="1.1" id="Camada_1" xmlns="http://www.w3.org/2000/svg" xmlns:xlink="http://www.w3.org/1999/xlink" x="0px" y="0px"
	 viewBox="0 0 57.6 19.5" style="enable-background:new 0 0 57.6 19.5;" xml:space="preserve">
<style type="text/css">
	.st0{fill:#E00B17;}
	.st1{fill:#634C94;}
	.st2{fill:#F6F6F6;}
</style>
<g>
	<g>
		<path class="st0" d="M14.5,18.3c2.7-2.3,4.9-4.9,6.3-8.2c0.5-1.2,0.7-2.4,0.3-3.6c-0.6-1.8-2.7-2.6-4.2-1.6
			c-0.1,0.1-0.3,0.2-0.2,0.4c0.8,1.7,0.5,3.8-0.4,5.4C16.2,10.1,16.1,9.6,16,9c-0.2-1.3-0.9-2.5-1.8-3.5C14,5.3,14,5.2,14.2,4.9
			c0.9-1.6,2.2-2.9,4-3.4c3.5-1,6.7,1.2,6.6,5.1c-0.1,1.9-0.8,3.5-1.9,5c-1.6,2.5-3.9,4.2-6.4,5.7C15.8,17.6,15.2,18,14.5,18.3z"/>
		<path class="st1" d="M12.8,18.1c-0.1,0.1-0.2,0-0.2,0c-3-1.5-5.7-3.3-7.6-6.1c-1-1.4-1.8-2.8-2.1-4.5C2.5,5.1,3.2,3.1,5.3,1.9
			C6.7,1.1,8.2,1,9.8,1.3C11.4,1.5,12.8,2,14.1,3c0.2,0.2,0.3,0.3,0.1,0.5c-0.3,0.3-0.4,0.9-0.7,1c-0.3,0.1-0.7-0.4-1-0.6
			c-0.8-0.4-1.6-0.6-2.5-0.5C8.1,3.6,7,4.7,6.6,6.6c-0.3,1.9,0.2,3.5,1,5.1c1.2,2.3,2.9,4.3,4.9,6.1C12.7,17.9,12.8,18,12.8,18.1z"
			/>
	</g>
	<g>
		<path class="st0" d="M47,15.3c-0.2-2.3,0.2-4.3,1.7-6.1c1.1-1.3,2.5-1.8,4.2-1.5c1.8,0.3,2.5,2.5,1.3,4c-0.7,0.9-1.8,1.4-2.8,1.8
			c-0.6,0.2-1.2,0.4-1.8,0.5c-0.3,0.1-0.4,0.2-0.3,0.5c0,0.4,0.1,0.8,0.2,1.1c0.4,1,0.9,1.2,1.8,0.9c0.5-0.1,1-0.4,1.4-0.7
			c0.2-0.2,0.3-0.2,0.5,0.1c0,0.1,0.1,0.1,0.1,0.2c0.7,0.9,0.7,0.9-0.3,1.5c-0.9,0.6-1.8,0.9-2.9,0.9c-1,0-1.9-0.4-2.4-1.3
			c-0.2-0.3-0.3-0.3-0.6-0.1c-0.6,0.6-1.2,1-2,1.3c-1.9,0.6-3.8-0.5-4.2-2.4c-0.1-0.3-0.1-0.7-0.2-1.1c-0.2,0.4-0.4,0.8-0.6,1.2
			c-0.7,1.1-1.6,2-2.9,2.4c-1.9,0.5-3.7-0.6-4.1-2.7c0-0.1,0-0.2-0.1-0.5c-0.2,0.4-0.2,0.6-0.3,0.8c-1,2.2-3.4,3.1-5.4,2.1
			c-1-0.5-1.6-1.4-1.8-2.4c-0.5-2.6,0.1-4.9,2-6.8c0.6-0.7,1.5-1.1,2.4-1.2c0.8-0.1,1.4,0.2,2.1,0.7C32,7.1,32.2,6,32.3,4.9
			c0.1-0.9,0.3-1.7,0.4-2.6c0-0.2,0.1-0.3,0.3-0.3c0.5,0,1,0,1.5,0c0.3,0,0.3,0.1,0.3,0.4c-0.3,1.8-0.6,3.5-0.9,5.3
			c-0.1,0.7-0.2,1.4-0.4,2.1c0,0.1-0.1,0.3,0.1,0.3c0.2,0.1,0.2-0.1,0.3-0.2c0.6-0.9,1.3-1.7,2.4-2.1c2-0.7,3.8,0.2,4.4,2.3
			c0.1,0.4,0.2,0.8,0.2,1.2c0.3-0.2,0.3-0.5,0.4-0.7c0.8-1.6,2-2.7,3.9-3c0.9-0.1,1.8,0.1,2.5,0.7c0.2,0.2,0.3,0.3,0,0.6
			c-0.1,0.1-0.2,0.3-0.4,0.4c-0.2,0.2-0.4,0.5-0.6,0.6c-0.3,0.2-0.5-0.2-0.7-0.3c-0.7-0.2-1.4-0.1-1.9,0.4c-1.2,1.2-1.8,3.8-1.2,5.4
			c0.4,1,1.1,1.3,2.1,0.8c0.5-0.2,0.9-0.5,1.2-0.8c0.2-0.2,0.4-0.1,0.5,0.1c0,0,0.1,0,0.1,0.1C46.9,15.4,46.9,15.4,47,15.3z
			 M34.9,14c0,0.4,0,0.8,0.1,1.1c0.2,1.1,1.3,1.6,2.2,0.9c0.3-0.2,0.5-0.5,0.7-0.8c0.4-0.6,0.6-1.2,0.7-1.9c0.2-1,0.4-2,0.1-3
			c-0.3-0.8-1-1.2-1.8-0.8c-0.5,0.2-0.9,0.6-1.1,1.1C35.3,11.7,35,12.9,34.9,14z M27.4,14.1c0,0.5,0.1,0.9,0.2,1.4
			c0.3,0.8,1.1,1.2,1.8,0.9c0.6-0.2,0.9-0.7,1-1.2c0.6-1.5,0.6-3.2,0.9-4.7c0-0.2-0.1-0.3-0.2-0.4c-1-0.8-1.9-0.6-2.7,0.4
			C27.7,11.5,27.5,12.8,27.4,14.1z M49.4,12.1c0.9-0.2,1.7-0.4,2.4-0.9c0.3-0.2,0.5-0.5,0.6-0.9c0.2-0.6-0.1-0.9-0.7-0.9
			c-0.5,0-0.8,0.3-1.1,0.6C50,10.6,49.6,11.2,49.4,12.1z"/>
		<path class="st1" d="M42.1,3.2c0.2-0.1,0.3-0.2,0.5-0.3c0.6-0.2,1.1,0.1,1.1,0.8c-0.1,0.9-0.2,1.7-0.4,2.5
			c-0.1,0.4-0.4,0.2-0.6,0.2c-0.3,0-0.2-0.2-0.1-0.4c0.1-0.7,0.2-1.4,0.3-2.1c0-0.1,0.1-0.3-0.1-0.4c-0.2-0.1-0.3,0-0.5,0.1
			c-0.3,0.2-0.5,0.6-0.6,1c-0.1,0.2-0.1,0.5-0.1,0.7c-0.2,1.1-0.2,1.1-1.3,1.2c-0.4,0-0.5,0-0.6-0.5c-0.3,0.2-0.5,0.5-0.9,0.5
			c-0.4,0.1-0.7-0.1-0.8-0.5c0,0-0.1,0-0.1,0c-0.5,0.4-1,0.7-1.7,0.3c-0.6-0.4-0.6-1-0.6-1.6C35.7,4,36,3.4,36.7,3
			c0.4-0.2,0.7-0.2,1.1-0.1C38,3,38.3,3.1,38.1,3.3c-0.1,0.2-0.2,0.5-0.5,0.3c-0.4-0.2-0.7,0-0.9,0.3c-0.3,0.5-0.4,1-0.3,1.6
			c0.1,0.4,0.4,0.5,0.7,0.4c0.4-0.2,0.8-0.4,0.8-1c0-0.4,0.2-0.8,0.4-1.2c0.6-0.9,1.1-0.9,2.2-0.7c0.3,0.1,0.2,0.3,0.1,0.4
			c-0.1,0.7-0.2,1.5-0.3,2.2c0,0.1-0.1,0.3,0.1,0.4c0.2,0,0.3-0.2,0.3-0.3c0.1-0.7,0.2-1.5,0.3-2.2c0.1-0.5,0.4-0.6,0.8-0.3
			c0,0.1-0.1,0.1,0,0.2C42,3.3,42,3.3,42.1,3.2z M38.7,5.4c0,0.2-0.1,0.3,0.1,0.4c0.2,0.1,0.3-0.1,0.4-0.2c0.4-0.4,0.6-1,0.7-1.6
			c0-0.2,0.2-0.4,0-0.5c-0.2-0.1-0.4,0-0.6,0.2C38.9,4.3,38.8,4.8,38.7,5.4z"/>
		<path class="st1" d="M51.9,5.6c0,0.2-0.1,0.4-0.1,0.5c0,0.5-0.3,0.4-0.6,0.4c-0.4,0-0.2-0.3-0.2-0.5c0.1-0.7,0.2-1.3,0.3-2
			c0-0.1,0.1-0.3-0.1-0.4c-0.2-0.1-0.3,0-0.5,0.1c-0.3,0.2-0.5,0.5-0.5,0.8C50.2,5,50,5.6,50,6.1c0,0.5-0.4,0.4-0.6,0.4
			c-0.4,0-0.2-0.3-0.1-0.5c0.2-1.4,0.4-2.8,0.6-4.1c0.1-0.3,0.5-0.5,0.7-0.4c0.1,0.1,0.1,0.2,0.1,0.3c-0.1,0.5-0.2,1-0.3,1.6
			c0.4-0.4,0.8-0.7,1.4-0.5c0.4,0.1,0.4,0.5,0.4,0.9c0.2-0.3,0.4-0.5,0.6-0.7c0.8-0.6,1.7-0.3,2,0.7c0.2,0.6,0,1.2-0.3,1.8
			c-0.3,0.5-0.7,0.9-1.4,1C52.5,6.6,52.2,6.2,51.9,5.6z M54,4.3c0-0.3,0-0.7-0.4-0.8c-0.4-0.1-0.6,0.2-0.8,0.6
			c-0.2,0.4-0.3,0.8-0.2,1.3c0,0.2,0.1,0.4,0.4,0.5c0.3,0.1,0.5-0.1,0.6-0.3C53.9,5.3,54,4.8,54,4.3z"/>
		<path class="st1" d="M43.9,5.8c0.1-0.5,0.2-1,0.2-1.5c0-0.3,0.2-0.6-0.2-0.9C43.7,3.3,43.6,3,44,3c0.2,0,0.3-0.1,0.3-0.3
			c0-0.3,0.2-0.4,0.5-0.4c0.4,0,0.2,0.2,0.2,0.4C45,2.9,45.1,3,45.2,3c0.1,0,0.4-0.1,0.3,0.2c0,0.2,0,0.5-0.4,0.4
			c-0.3,0-0.3,0.2-0.3,0.3c-0.1,0.5-0.1,0.9-0.2,1.4c0,0.2-0.2,0.5,0.1,0.6c0.3,0.1,0.6-0.1,0.7-0.5c0.1-0.7,0.2-1.4,0.3-2
			C45.8,3,46,2.9,46.4,3c0.2,0,0.2,0.1,0.2,0.3c-0.2,1-0.3,2-0.5,3.1c0,0.1,0,0.2-0.1,0.2c-0.5-0.2-0.9,0.1-1.3,0.2
			C44.1,6.6,43.8,6.4,43.9,5.8z"/>
		<path class="st1" d="M47.6,3.4c0.2-0.1,0.3-0.2,0.4-0.3c0.3-0.2,0.6-0.3,1-0.1c0.3,0.2,0.4,0.5,0.3,0.9c-0.1,0.8-0.2,1.6-0.3,2.3
			c-0.1,0.4-0.4,0.3-0.6,0.3c-0.4,0-0.2-0.3-0.2-0.4c0.1-0.7,0.2-1.4,0.3-2c0-0.2,0.1-0.4-0.1-0.5c-0.2-0.1-0.4,0-0.5,0.1
			c-0.3,0.3-0.4,0.6-0.5,1c-0.1,0.5-0.2,1-0.2,1.5c0,0.4-0.3,0.3-0.6,0.3c-0.4,0-0.2-0.3-0.2-0.4c0.1-0.9,0.3-1.8,0.4-2.7
			C46.9,3,47,3,47.3,2.9C47.7,2.9,47.6,3.2,47.6,3.4z"/>
		<path class="st1" d="M46.8,2.1c-0.1,0.3-0.2,0.5-0.5,0.5c-0.3,0-0.5-0.2-0.5-0.5c0-0.3,0.2-0.5,0.5-0.5
			C46.6,1.6,46.8,1.8,46.8,2.1z"/>
		<path class="st2" d="M47,15.3c0,0.1,0,0.1,0,0.2c0,0-0.1-0.1-0.1-0.1C46.9,15.4,46.9,15.3,47,15.3z"/>
		<path class="st2" d="M42.1,3.2c0,0-0.1,0.1-0.1,0.1c-0.1-0.1,0-0.1,0-0.2C42,3.2,42.1,3.2,42.1,3.2z"/>
	</g>
</g>
</svg>
