<svg viewBox="0 0 119 40" fill="none" xmlns="http://www.w3.org/2000/svg">
<path d="M6.29798 0L0 6.36371H31.8841L38.1818 0H6.29798Z" fill="#13BEBB"/>
<path d="M18.3033 39.9567C26.1372 39.9567 28.1071 36.8068 28.1071 32.4921C28.1071 27.1847 23.3171 26.1924 19.333 25.545C16.2888 25.0271 14.9011 24.7683 14.9011 22.913C14.9011 21.5323 16.1097 21.0144 18.0795 21.0144C20.4969 21.0144 21.1683 21.7049 21.3923 23.7328L27.749 22.7835C27.2115 18.4255 24.7495 16.2249 18.2585 16.2249C11.141 16.2249 8.63409 19.0727 8.63409 23.6033C8.58946 29.4717 14.1403 30.0756 18.2585 30.7658C20.81 31.2409 21.7952 31.6719 21.7952 33.3549C21.7952 34.7359 20.9447 35.34 18.3928 35.34C15.5726 35.34 14.7221 34.8653 14.364 32.5783L8.18652 33.4844C8.7684 38.1014 11.4991 39.9567 18.3033 39.9567Z" fill="white"/>
<path d="M38.794 35.2108C35.7944 35.2108 34.7204 34.5635 34.7204 32.4061C34.7204 30.4644 35.7944 29.6877 39.0177 29.6877H42.2408V31.9315C42.2408 34.0889 41.1665 35.2108 38.794 35.2108ZM36.0184 39.9571C39.5101 39.9571 41.0771 38.8351 42.1962 37.1954V39.655H48.5078V24.0352C48.5078 18.8141 46.4933 16.1821 39.5101 16.1821C32.7505 16.1821 30.3782 18.0805 29.438 22.7406L35.7052 23.69C36.1079 21.7052 36.69 21.1009 39.2864 21.1009C41.7932 21.1009 42.1962 22.1365 42.1962 23.8626V25.4592H39.2415C31.2287 25.4592 28.4978 27.8755 28.4978 32.7943C28.4978 37.6269 30.9601 39.9571 36.0184 39.9571Z" fill="white"/>
<path d="M50.1196 39.6545H56.566V6.36353L50.1196 12.727V39.6545Z" fill="white"/>
<path d="M64.4442 25.5879V24.4231C64.4442 22.3952 65.3844 21.0143 68.2046 21.0143C70.9352 21.0143 71.8308 22.1793 71.8308 24.4231V25.5879H64.4442ZM68.2046 39.9999C75.6357 39.9999 77.6054 36.548 78.0529 33.0961L71.9203 32.1899C71.6516 34.2609 71.2487 35.3398 68.2046 35.3398C65.116 35.3398 64.4442 33.8294 64.4442 31.8448V29.9462H78.0529V25.8038C78.0529 20.022 75.7698 16.1816 68.2046 16.1816C60.729 16.1816 58.1772 20.0651 58.1772 24.9841V31.1974C58.1772 35.9872 60.7736 39.9999 68.2046 39.9999Z" fill="white"/>
<path d="M90.0053 39.9999C97.3914 39.9999 100.435 36.2459 100.435 31.1974V24.9841C100.435 19.8494 97.3914 16.1816 90.0053 16.1816C82.6188 16.1816 79.6646 19.8494 79.6646 24.9841V31.1974C79.6646 36.2459 82.5742 39.9999 90.0053 39.9999ZM90.0053 34.9947C87.4088 34.9947 86.1107 33.6571 86.1107 31.4997V24.8548C86.1107 22.6542 87.4088 21.3165 90.0053 21.3165C92.6017 21.3165 93.9892 22.6542 93.9892 24.8548V31.4997C93.9892 33.6571 92.6017 34.9947 90.0053 34.9947Z" fill="white"/>
<path fill-rule="evenodd" clip-rule="evenodd" d="M111.948 22.767H108.493V39.5199H102.047V22.767L108.345 16.4033H118.246L111.948 22.767Z" fill="white"/>
</svg>
