<svg xmlns="http://www.w3.org/2000/svg" viewBox="-49.407 475.378 612.001 276.141"
	 enable-background="new -49.407 475.378 612.001 276.141">
<path fill="#13BEBB" d="M97.263,504.714h-146.67l29.334-29.336h146.669L97.263,504.714z"/>
<g enable-background="new    ">
	<path fill="#FFFFFF" d="M-12.5,547.5h22.617c7.144,0,12.556,1.158,16.236,3.476c3.679,2.314,6.65,7.002,8.912,14.06
		c2.262,7.062,3.393,18.434,3.393,34.122c0,10.608-0.8,18.002-2.396,22.187c-1.598,4.183-4.748,7.396-9.451,9.637
		c5.241,2.467,8.795,6.563,10.663,12.283c1.866,5.723,2.8,14.492,2.8,26.311v16.828c0,12.268-0.673,21.355-2.019,27.263
		c-1.347,5.909-3.492,9.947-6.435,12.117c-2.944,2.169-8.976,3.253-18.094,3.253H-12.5V547.5z M10.171,578.561v40.365
		c0.969-0.073,1.723-0.112,2.262-0.112c2.226,0,3.643-1.14,4.254-3.42c0.609-2.279,0.915-8.802,0.915-19.566
		c0-5.68-0.251-9.66-0.754-11.941c-0.503-2.279-1.158-3.718-1.965-4.317C14.075,578.973,12.504,578.635,10.171,578.561z
		 M10.171,647.183v50.794c3.195-0.225,5.231-1.271,6.112-3.141c0.879-1.867,1.319-6.465,1.319-13.791v-16.932
		c0-7.774-0.396-12.482-1.185-14.129C15.627,648.342,13.545,647.406,10.171,647.183z"/>
	<path fill="#FFFFFF" d="M97.57,580.242v148.793H75.437l0.377-12.362c-1.507,5.018-3.366,8.781-5.573,11.289
		c-2.208,2.51-4.749,3.764-7.62,3.764c-3.267,0-5.978-1.196-8.131-3.587c-2.154-2.393-3.743-5.568-4.766-9.531
		c-1.023-3.962-1.661-8.092-1.912-12.391c-0.251-4.298-0.377-12.839-0.377-25.621V580.242H69.19v101.251
		c0,11.588,0.17,18.463,0.512,20.631c0.341,2.17,1.265,3.253,2.773,3.253c1.615,0,2.575-1.122,2.881-3.364
		c0.305-2.242,0.458-9.455,0.458-21.642V580.242H97.57z"/>
	<path fill="#FFFFFF" d="M127.779,547.5v23.66h-22.402V547.5H127.779z M127.779,580.242v148.793h-22.402V580.242H127.779z"/>
	<path fill="#FFFFFF" d="M157.989,547.5v181.535h-22.402V547.5H157.989z"/>
	<path fill="#FFFFFF" d="M215.286,547.5v181.535h-21.755v-10.793c-2.083,4.497-4.273,7.867-6.57,10.113
		c-2.298,2.246-4.704,3.37-7.216,3.37c-3.375,0-6.3-1.85-8.778-5.55c-2.477-3.7-4.065-7.979-4.766-12.839
		c-0.7-4.858-1.05-12.782-1.05-23.771v-69.631c0-11.438,0.35-19.547,1.05-24.331c0.7-4.783,2.307-8.987,4.82-12.615
		c2.512-3.625,5.51-5.438,8.993-5.438c2.693,0,5.161,1.013,7.405,3.034c2.243,2.025,4.281,5.06,6.112,9.105V547.5H215.286z
		 M193.531,617.692c0-5.456-0.225-9.12-0.673-10.989c-0.449-1.867-1.338-2.803-2.665-2.803c-1.292,0-2.164,0.841-2.612,2.523
		c-0.449,1.682-0.673,5.438-0.673,11.269v72.883c0,6.055,0.216,10.036,0.646,11.942s1.256,2.859,2.477,2.859
		c1.4,0,2.333-1.066,2.8-3.196c0.466-2.131,0.7-7.345,0.7-15.642V617.692z"/>
	<path fill="#FFFFFF" d="M272.368,657.273h-28.164v32.18c0,6.729,0.233,11.065,0.7,13.007c0.466,1.945,1.364,2.917,2.692,2.917
		c1.651,0,2.755-1.29,3.312-3.869c0.556-2.579,0.834-7.569,0.834-14.969v-19.623h20.625v10.988c0,9.195-0.278,16.26-0.835,21.193
		c-0.557,4.933-1.857,10.203-3.904,15.81c-2.046,5.606-4.64,9.811-7.781,12.614c-3.142,2.803-7.081,4.204-11.82,4.204
		c-4.596,0-8.652-1.384-12.17-4.148c-3.52-2.765-6.256-6.56-8.212-11.381c-1.958-4.821-3.312-10.129-4.066-15.922
		c-0.754-5.792-1.131-14.222-1.131-25.284v-43.394c0-13.008,0.843-23.268,2.531-30.779c1.688-7.513,4.452-13.268,8.293-17.268
		c3.841-3.998,8.257-6,13.248-6c6.103,0,11.138,2.411,15.104,7.232c3.967,4.822,6.75,11.213,8.347,19.175
		c1.597,7.961,2.396,19.156,2.396,33.583V657.273z M250.558,633.054v-10.876c0-7.699-0.198-12.671-0.592-14.913
		c-0.396-2.242-1.203-3.364-2.423-3.364c-1.508,0-2.441,0.953-2.8,2.859c-0.359,1.905-0.539,7.047-0.539,15.418v10.876H250.558z"/>
	<path fill="#FFFFFF" d="M301.231,580.242l-0.861,19.565c3.158-14.012,7.736-21.432,13.732-22.258v52.364
		c-3.985,0-6.912,1.121-8.778,3.364c-1.867,2.242-3.015,5.363-3.446,9.362c-0.431,4-0.646,13.213-0.646,27.64v58.755h-21.756
		V580.242H301.231z"/>
	<path fill="#FFFFFF" d="M363.375,627.784h-19.279v-8.074c0-6.875-0.188-11.229-0.565-13.063c-0.377-1.83-1.319-2.747-2.827-2.747
		c-1.221,0-2.136,0.841-2.746,2.523c-0.611,1.682-0.915,4.205-0.915,7.568c0,4.562,0.152,7.905,0.457,10.035
		c0.306,2.131,1.221,4.469,2.747,7.008c1.525,2.542,4.657,6.242,9.396,11.101c6.318,6.43,10.465,12.484,12.439,18.166
		c1.975,5.681,2.961,13.941,2.961,24.779c0,12.109-0.753,21.249-2.261,27.415c-1.509,6.168-4.03,10.915-7.565,14.24
		c-3.537,3.325-7.801,4.989-12.79,4.989c-5.529,0-10.259-1.794-14.189-5.382c-3.932-3.588-6.633-8.446-8.104-14.576
		c-1.473-6.129-2.208-15.397-2.208-27.809v-7.177h19.278v9.42c0,8,0.243,13.194,0.728,15.586c0.483,2.393,1.444,3.589,2.881,3.589
		c1.543,0,2.62-0.804,3.231-2.411c0.608-1.606,0.915-4.989,0.915-10.148c0-7.101-0.396-11.549-1.185-13.343
		c-0.827-1.794-5.045-7.101-12.655-15.923c-6.39-7.474-10.285-14.257-11.685-20.351c-1.401-6.092-2.102-13.323-2.102-21.696
		c0-11.887,0.755-20.649,2.262-26.294c1.508-5.643,4.066-9.997,7.674-13.063c3.607-3.064,7.8-4.599,12.574-4.599
		c4.739,0,8.769,1.254,12.09,3.758c3.32,2.505,5.869,5.813,7.646,9.923c1.777,4.111,2.854,7.924,3.23,11.437
		c0.377,3.516,0.566,9.01,0.566,16.483V627.784z"/>
	<path fill="#FFFFFF" d="M443.072,547.5v181.535h-22.671v-76.246h-6.785v76.246h-22.671V547.5h22.671v64.923h6.785V547.5H443.072z"
		/>
	<path fill="#FFFFFF" d="M501.339,580.242v148.793h-22.133l0.377-12.362c-1.508,5.018-3.365,8.781-5.573,11.289
		c-2.209,2.51-4.748,3.764-7.62,3.764c-3.268,0-5.978-1.196-8.132-3.587c-2.153-2.393-3.742-5.568-4.765-9.531
		c-1.024-3.962-1.661-8.092-1.912-12.391c-0.252-4.298-0.377-12.839-0.377-25.621V580.242h21.756v101.251
		c0,11.588,0.169,18.463,0.511,20.631c0.341,2.17,1.266,3.253,2.773,3.253c1.615,0,2.576-1.122,2.881-3.364
		s0.458-9.455,0.458-21.642V580.242H501.339z"/>
	<path fill="#FFFFFF" d="M530.902,547.5v42.974c1.795-4.346,3.797-7.585,6.005-9.72c2.207-2.135,4.604-3.204,7.188-3.204
		c2.98,0,5.564,0.973,7.755,2.917c2.188,1.943,3.858,4.672,5.008,8.185c1.148,3.514,1.84,6.952,2.073,10.315
		c0.233,3.364,0.35,10.54,0.35,21.528v67.052c0,10.915-0.35,19.045-1.05,24.389c-0.7,5.345-2.342,9.979-4.927,13.904
		s-5.654,5.886-9.209,5.886c-2.549,0-4.927-1.161-7.136-3.482c-2.207-2.322-4.227-5.805-6.058-10.448l-1.399,11.24h-20.356V547.5
		H530.902z M537.526,622.514c0-7.698-0.233-12.727-0.7-15.081c-0.467-2.355-1.383-3.532-2.746-3.532
		c-1.329,0-2.191,1.029-2.585,3.084c-0.396,2.058-0.593,7.231-0.593,15.529v64.138c0,7.998,0.224,13.119,0.673,15.361
		c0.448,2.242,1.338,3.364,2.667,3.364c1.363,0,2.251-1.158,2.665-3.477c0.411-2.316,0.619-7.887,0.619-16.707V622.514z"/>
</g>
</svg>
