<svg viewBox="0 0 538 182" xmlns="http://www.w3.org/2000/svg" xmlns:serif="http://www.serif.com/" fill-rule="evenodd" clip-rule="evenodd"><g serif:id="Saleor OS"><path fill="none" d="M0 0h537.903v181.963H0z"/><clipPath id="a"><path d="M0 0h537.903v181.963H0z"/></clipPath><g serif:id="Layer 1" clip-path="url(#a)"><path d="M28.649 0L-.001 28.949l145.042-.001 28.65-28.949L28.649 0z" fill="#fff"/><path d="M83.256 181.766c35.637 0 44.598-14.329 44.598-33.957 0-24.144-21.79-28.658-39.914-31.603-13.848-2.356-20.161-3.533-20.161-11.973 0-6.281 5.498-8.637 14.459-8.637 10.997 0 14.051 3.141 15.07 12.366l28.917-4.318c-2.445-19.825-13.645-29.836-43.173-29.836-32.378 0-43.782 12.955-43.782 33.565-.203 26.696 25.048 29.443 43.782 32.583 11.607 2.161 16.089 4.122 16.089 11.778 0 6.282-3.869 9.03-15.478 9.03-12.829 0-16.698-2.159-18.327-12.563l-28.102 4.122c2.647 21.003 15.069 29.443 46.022 29.443m93.212-21.59c-13.645 0-18.531-2.945-18.531-12.759 0-8.833 4.886-12.366 19.549-12.366h14.662v10.207c0 9.814-4.887 14.918-15.68 14.918m-12.626 21.591c15.884 0 23.012-5.104 28.103-12.563v11.189h28.712v-71.056c0-23.751-9.164-35.724-40.931-35.724-30.75 0-41.542 8.636-45.819 29.835l28.51 4.319c1.832-9.029 4.48-11.778 16.291-11.778 11.404 0 13.237 4.711 13.237 12.563v7.263h-13.441c-36.451 0-48.874 10.992-48.874 33.368 0 21.984 11.201 32.584 34.212 32.584M227.989 180.392h29.325V28.949l-29.325 28.948v122.495zm65.165-63.99v-5.299c0-9.225 4.277-15.507 17.106-15.507 12.422 0 16.496 5.3 16.496 15.507v5.299h-33.602zm17.106 65.561c33.805 0 42.765-15.703 44.801-31.406l-27.898-4.122c-1.222 9.421-3.055 14.329-16.903 14.329-14.05 0-17.106-6.871-17.106-15.899v-8.637h61.907v-18.844c0-26.302-10.386-43.772-44.801-43.772-34.007 0-45.615 17.666-45.615 40.043v28.265c0 21.789 11.811 40.043 45.615 40.043m99.173 0c33.6 0 47.447-17.077 47.447-40.043v-28.265c0-23.358-13.847-40.043-47.447-40.043-33.602 0-47.041 16.685-47.041 40.043v28.265c0 22.966 13.236 40.043 47.041 40.043m0-22.769c-11.812 0-17.717-6.085-17.717-15.899v-30.228c0-10.011 5.905-16.096 17.717-16.096 11.811 0 18.123 6.085 18.123 16.096v30.228c0 9.814-6.312 15.899-18.123 15.899M509.253 103.568h-15.718v76.21h-29.324v-76.21l28.65-28.949h45.042l-28.65 28.949z" fill="#fff"/></g></g></svg>
