<svg id="svg" xmlns="http://www.w3.org/2000/svg" xmlns:xlink="http://www.w3.org/1999/xlink" width="400" height="400" viewBox="0, 0, 400,400"><g id="svgg"><path id="path0" d="M85.067 105.867 C 84.920 106.013,84.800 150.504,84.800 204.735 C 84.800 295.098,84.746 303.397,84.151 304.054 C 82.353 306.041,81.965 306.014,110.489 305.903 L 137.000 305.800 137.124 304.933 C 137.225 304.220,137.070 304.085,136.253 304.174 C 135.706 304.234,135.066 304.164,134.830 304.018 C 134.098 303.566,134.152 201.676,134.885 200.944 C 135.997 199.832,138.482 202.805,137.420 203.978 C 137.036 204.402,136.963 204.817,137.204 205.207 C 137.513 205.706,137.658 205.674,138.154 204.998 C 138.725 204.221,138.752 204.231,139.189 205.376 C 139.436 206.022,139.989 206.797,140.419 207.098 C 140.941 207.464,141.200 208.110,141.200 209.046 C 141.200 209.817,141.356 210.351,141.547 210.233 C 142.086 209.900,143.325 211.497,143.061 212.185 C 142.931 212.523,142.449 212.800,141.989 212.800 C 141.492 212.800,141.261 212.975,141.420 213.232 C 141.567 213.470,142.074 213.568,142.547 213.449 C 143.740 213.150,144.500 213.723,144.500 214.923 C 144.500 215.504,144.692 215.867,144.950 215.772 C 145.839 215.448,146.517 216.278,146.247 217.357 C 145.946 218.554,145.520 218.663,144.629 217.771 C 144.057 217.200,144.000 217.228,144.000 218.075 C 144.000 219.334,145.566 220.362,146.081 219.441 C 146.650 218.424,147.604 218.693,148.060 220.000 C 148.290 220.660,148.731 221.200,149.039 221.200 C 149.406 221.200,149.600 221.653,149.600 222.512 C 149.600 223.604,149.802 223.901,150.803 224.279 C 151.898 224.692,151.970 224.828,151.603 225.792 C 151.073 227.187,151.076 227.200,151.966 227.200 C 152.433 227.200,152.941 227.669,153.264 228.400 C 153.556 229.060,154.011 229.600,154.274 229.600 C 155.094 229.600,155.297 230.399,154.790 231.624 C 154.301 232.804,152.898 233.363,153.345 232.200 C 153.471 231.870,153.401 231.600,153.187 231.600 C 152.974 231.600,152.800 232.050,152.800 232.600 C 152.800 233.333,153.013 233.600,153.600 233.600 C 154.040 233.600,154.400 233.408,154.400 233.173 C 154.400 232.939,154.895 232.804,155.500 232.873 C 156.373 232.974,156.600 233.206,156.600 234.000 C 156.600 235.238,154.821 235.750,154.768 234.528 C 154.749 234.086,154.656 234.002,154.531 234.313 C 154.418 234.595,154.657 235.315,155.062 235.913 C 155.468 236.511,155.922 237.270,156.072 237.600 C 156.313 238.132,156.505 237.182,156.366 236.145 C 156.329 235.868,157.233 235.216,157.668 235.206 C 157.816 235.203,158.057 235.751,158.205 236.424 C 158.381 237.223,158.824 237.781,159.482 238.031 C 160.170 238.293,160.427 238.634,160.294 239.107 C 160.186 239.488,160.031 240.046,159.949 240.347 C 159.867 240.648,160.142 240.951,160.560 241.020 C 161.419 241.163,161.985 241.887,161.994 242.853 C 161.997 243.213,162.360 243.601,162.800 243.716 C 163.374 243.866,163.600 244.262,163.600 245.116 C 163.600 245.969,163.826 246.366,164.398 246.515 C 165.359 246.767,165.798 247.743,165.379 248.700 C 165.211 249.085,165.110 249.561,165.156 249.759 C 165.202 249.956,164.766 249.808,164.188 249.429 C 163.157 248.754,163.139 248.758,163.268 249.634 C 163.434 250.761,164.684 250.975,165.303 249.983 C 165.862 249.088,167.200 249.957,167.200 251.215 C 167.200 251.596,167.560 252.001,168.000 252.116 C 168.578 252.267,168.800 252.662,168.800 253.536 C 168.800 254.375,169.034 254.820,169.563 254.988 C 171.151 255.492,170.985 257.600,169.357 257.600 C 168.270 257.600,168.124 258.073,168.989 258.791 C 169.460 259.182,169.706 259.151,170.217 258.640 C 171.177 257.680,171.873 257.865,172.130 259.148 C 172.276 259.878,172.676 260.379,173.229 260.523 C 173.940 260.710,174.065 260.974,173.917 261.985 C 173.766 263.012,173.889 263.257,174.650 263.448 C 175.238 263.596,175.724 264.164,176.014 265.042 C 176.262 265.793,176.630 266.305,176.832 266.180 C 177.035 266.055,177.203 266.368,177.206 266.876 C 177.214 268.002,177.578 268.576,178.500 268.917 C 179.296 269.210,179.412 270.457,178.757 271.680 C 178.354 272.433,178.404 272.486,179.294 272.262 C 180.071 272.067,180.387 272.228,180.821 273.039 C 181.122 273.602,181.685 274.232,182.073 274.439 C 182.599 274.721,182.717 275.115,182.540 275.999 C 182.338 277.012,182.455 277.241,183.352 277.582 C 184.963 278.194,184.869 280.160,183.241 279.921 C 182.207 279.769,182.116 279.840,182.402 280.575 C 182.579 281.029,182.920 281.355,183.162 281.300 C 183.404 281.245,183.600 281.736,183.600 282.400 C 183.600 283.060,183.783 283.600,184.008 283.600 C 184.239 283.600,184.310 283.181,184.172 282.629 C 183.772 281.038,184.423 280.261,185.515 281.025 C 186.002 281.366,186.400 281.884,186.400 282.176 C 186.400 282.922,187.788 283.109,193.828 283.178 L 199.107 283.237 199.382 269.919 C 199.763 251.557,199.512 218.049,198.992 217.685 C 198.767 217.528,198.366 216.905,198.100 216.300 C 197.835 215.695,197.433 215.200,197.209 215.200 C 196.984 215.200,196.800 214.656,196.800 213.990 C 196.800 213.068,196.562 212.690,195.800 212.400 C 195.104 212.136,194.800 211.718,194.800 211.028 C 194.800 210.126,194.366 209.507,191.952 206.967 C 191.433 206.421,191.224 205.780,191.347 205.105 C 191.486 204.336,191.341 204.026,190.771 203.877 C 190.352 203.767,189.832 203.210,189.615 202.639 C 189.398 202.067,189.042 201.600,188.825 201.600 C 188.608 201.600,188.237 200.880,188.000 200.000 C 187.747 199.060,187.328 198.400,186.985 198.400 C 186.663 198.400,186.386 198.265,186.369 198.100 C 186.245 196.876,185.948 196.211,185.229 195.541 C 184.773 195.116,184.400 194.534,184.400 194.246 C 184.400 193.959,184.040 193.398,183.600 193.000 C 183.160 192.602,182.800 191.875,182.800 191.384 C 182.800 190.874,182.372 190.211,181.800 189.837 C 181.227 189.461,180.800 188.800,180.800 188.287 C 180.800 187.795,180.440 187.168,180.000 186.893 C 179.560 186.618,179.200 186.153,179.200 185.859 C 179.200 185.565,178.840 184.998,178.400 184.600 C 177.960 184.202,177.600 183.475,177.600 182.984 C 177.600 182.474,177.172 181.811,176.600 181.437 C 176.050 181.076,175.600 180.516,175.600 180.191 C 175.600 179.866,175.240 179.240,174.800 178.800 C 174.360 178.360,174.000 177.661,174.000 177.246 C 174.000 176.831,173.536 176.188,172.969 175.816 C 172.352 175.412,172.027 174.907,172.160 174.560 C 172.286 174.232,171.951 173.605,171.391 173.118 C 170.846 172.644,170.400 171.968,170.400 171.617 C 170.400 171.265,170.040 170.670,169.600 170.293 C 169.160 169.916,168.800 169.252,168.800 168.818 C 168.800 168.384,168.459 167.846,168.042 167.623 C 167.625 167.399,167.078 166.718,166.825 166.108 C 165.923 163.930,164.926 162.302,164.268 161.934 C 163.901 161.729,163.600 161.152,163.600 160.652 C 163.600 160.153,163.150 159.353,162.600 158.875 C 162.050 158.397,161.600 157.644,161.600 157.203 C 161.600 156.761,161.411 156.400,161.179 156.400 C 160.948 156.400,160.569 155.856,160.337 155.192 C 160.105 154.527,159.575 153.801,159.158 153.577 C 158.712 153.339,158.400 152.743,158.400 152.132 C 158.400 151.560,157.995 150.670,157.500 150.156 C 155.694 148.277,155.276 147.658,155.016 146.474 C 154.870 145.810,154.498 145.170,154.188 145.051 C 153.879 144.932,153.353 144.242,153.021 143.517 C 152.298 141.942,151.704 140.989,150.500 139.472 C 150.005 138.849,149.600 138.036,149.600 137.666 C 149.600 137.295,149.240 136.768,148.800 136.493 C 148.360 136.218,148.000 135.675,148.000 135.286 C 148.000 134.896,147.640 134.270,147.200 133.893 C 146.760 133.516,146.400 132.962,146.400 132.662 C 146.400 132.362,145.950 131.631,145.400 131.038 C 144.850 130.444,144.400 129.651,144.400 129.276 C 144.400 128.900,144.040 128.368,143.600 128.093 C 143.160 127.818,142.800 127.398,142.800 127.160 C 142.800 126.921,142.440 126.269,142.000 125.709 C 141.560 125.150,141.200 124.422,141.200 124.092 C 141.200 123.762,140.750 123.075,140.200 122.565 C 139.650 122.055,139.200 121.270,139.200 120.819 C 139.200 120.369,139.016 120.000,138.791 120.000 C 138.567 120.000,138.170 119.505,137.910 118.900 C 137.649 118.295,137.113 117.478,136.718 117.084 C 136.323 116.691,136.000 116.048,136.000 115.657 C 136.000 115.265,135.550 114.553,135.000 114.075 C 134.450 113.597,134.000 112.844,134.000 112.403 C 134.000 111.961,133.816 111.600,133.591 111.600 C 133.367 111.600,132.970 111.105,132.710 110.500 C 132.449 109.895,131.913 109.078,131.518 108.684 C 131.123 108.291,130.800 107.547,130.800 107.031 C 130.800 106.397,130.509 106.015,129.900 105.852 C 128.663 105.521,85.399 105.535,85.067 105.867 M182.300 185.865 C 182.575 185.976,182.800 186.322,182.800 186.633 C 182.800 186.945,182.980 187.200,183.200 187.200 C 183.846 187.200,183.658 186.108,182.967 185.843 C 182.619 185.709,182.214 185.614,182.067 185.632 C 181.920 185.649,182.025 185.754,182.300 185.865 M187.400 194.400 C 187.536 194.620,187.917 194.800,188.247 194.800 C 188.577 194.800,188.736 194.620,188.600 194.400 C 188.464 194.180,188.083 194.000,187.753 194.000 C 187.423 194.000,187.264 194.180,187.400 194.400 M192.875 203.048 C 193.247 203.158,193.636 203.643,193.741 204.125 C 193.900 204.858,193.920 204.839,193.866 204.004 C 193.821 203.328,193.543 202.982,193.000 202.927 C 192.424 202.869,192.389 202.902,192.875 203.048 M261.363 210.800 C 261.363 214.430,261.423 215.915,261.498 214.100 C 261.572 212.285,261.572 209.315,261.498 207.500 C 261.423 205.685,261.363 207.170,261.363 210.800 M139.055 210.600 C 139.182 210.930,139.661 211.200,140.119 211.200 C 140.938 211.200,140.939 211.190,140.176 210.613 C 139.172 209.853,138.767 209.848,139.055 210.600 M198.066 211.664 C 198.433 211.959,198.825 212.560,198.938 213.000 C 199.058 213.466,199.114 213.301,199.072 212.603 C 199.021 211.752,198.769 211.367,198.200 211.267 C 197.470 211.140,197.458 211.175,198.066 211.664 M149.419 226.875 C 149.732 227.878,150.383 228.458,150.863 228.161 C 151.325 227.876,150.879 227.042,149.957 226.466 C 149.193 225.989,149.152 226.020,149.419 226.875 M261.351 232.800 C 261.351 235.330,261.416 236.365,261.496 235.100 C 261.575 233.835,261.575 231.765,261.496 230.500 C 261.416 229.235,261.351 230.270,261.351 232.800 M158.012 240.451 C 158.000 241.531,159.001 242.733,159.498 242.235 C 159.651 242.082,159.542 241.811,159.254 241.634 C 158.967 241.456,158.781 241.241,158.842 241.155 C 158.902 241.070,158.743 240.640,158.488 240.200 C 158.051 239.445,158.024 239.460,158.012 240.451 M161.254 246.113 C 161.199 247.249,161.932 247.857,162.887 247.465 C 163.213 247.331,163.081 247.156,162.522 246.986 C 162.040 246.839,161.569 246.332,161.477 245.859 C 161.344 245.180,161.298 245.233,161.254 246.113 M316.983 252.200 C 317.148 252.640,317.435 253.900,317.621 255.000 L 317.958 257.000 317.845 254.686 C 317.783 253.413,317.496 252.153,317.207 251.886 C 316.782 251.493,316.740 251.553,316.983 252.200 M261.324 255.800 C 261.326 257.120,261.401 257.612,261.490 256.893 C 261.579 256.174,261.577 255.094,261.486 254.493 C 261.395 253.892,261.322 254.480,261.324 255.800 M166.406 255.100 C 166.403 255.595,166.580 256.000,166.800 256.000 C 167.301 256.000,167.301 255.576,166.800 254.800 C 166.486 254.315,166.411 254.372,166.406 255.100 M171.600 263.287 C 171.600 263.852,171.855 264.412,172.167 264.532 C 173.051 264.871,173.166 263.885,172.342 263.030 C 171.612 262.273,171.600 262.277,171.600 263.287 M261.693 264.400 C 261.693 265.170,261.775 265.485,261.876 265.100 C 261.976 264.715,261.976 264.085,261.876 263.700 C 261.775 263.315,261.693 263.630,261.693 264.400 M173.206 265.500 C 173.202 266.170,173.430 266.398,174.100 266.394 C 174.763 266.389,174.856 266.296,174.453 266.041 C 174.152 265.850,173.750 265.448,173.559 265.147 C 173.304 264.744,173.211 264.837,173.206 265.500 M261.687 268.200 C 261.691 268.640,261.832 269.540,262.000 270.200 C 262.274 271.278,262.306 271.298,262.313 270.400 C 262.317 269.850,262.176 268.950,262.000 268.400 C 261.749 267.616,261.681 267.573,261.687 268.200 M317.731 270.200 C 317.733 271.740,317.805 272.321,317.892 271.491 C 317.979 270.661,317.977 269.401,317.889 268.691 C 317.800 267.981,317.729 268.660,317.731 270.200 M177.005 271.900 C 177.078 272.285,177.153 272.735,177.169 272.900 C 177.186 273.065,177.421 273.155,177.691 273.100 C 177.960 273.045,178.243 273.405,178.318 273.900 C 178.394 274.395,178.606 274.800,178.790 274.800 C 178.974 274.800,179.022 274.395,178.897 273.900 C 178.421 272.026,176.676 270.180,177.005 271.900 M317.744 283.600 C 317.744 285.690,317.812 286.545,317.894 285.500 C 317.976 284.455,317.976 282.745,317.894 281.700 C 317.812 280.655,317.744 281.510,317.744 283.600 " stroke="none" fill="#2c5c8c" fill-rule="evenodd"></path><path id="path1" d="M82.467 103.642 C 82.178 104.105,82.134 104.364,82.370 104.218 C 82.607 104.072,82.800 104.223,82.800 104.553 C 82.800 104.883,82.620 105.264,82.400 105.400 C 81.807 105.767,81.849 302.660,82.443 303.026 C 82.761 303.223,82.751 303.383,82.409 303.594 C 82.068 303.805,82.117 303.959,82.582 304.138 C 82.938 304.274,83.313 304.165,83.415 303.893 C 83.817 302.821,83.798 102.800,83.396 102.800 C 83.174 102.800,82.756 103.179,82.467 103.642 M267.476 103.724 C 267.077 104.206,266.863 104.375,266.999 104.100 C 267.136 103.825,267.045 103.600,266.798 103.600 C 266.552 103.600,266.382 103.915,266.421 104.300 C 266.572 105.790,266.371 106.355,265.600 106.600 C 265.053 106.774,264.800 107.205,264.800 107.965 C 264.800 108.576,264.440 109.402,264.000 109.800 C 263.560 110.198,263.200 110.834,263.200 111.213 C 263.200 112.045,262.256 112.910,261.799 112.497 C 261.619 112.333,261.594 112.413,261.742 112.672 C 261.891 112.932,261.838 113.253,261.624 113.385 C 261.410 113.517,261.336 113.890,261.460 114.213 C 261.661 114.737,261.441 114.867,260.516 114.770 C 260.109 114.728,259.661 116.013,259.628 117.318 C 259.607 118.152,259.423 118.405,258.900 118.318 C 258.400 118.234,258.164 118.508,258.076 119.278 C 257.994 119.984,257.767 120.285,257.416 120.151 C 257.122 120.038,256.762 120.138,256.617 120.373 C 256.472 120.608,256.578 120.800,256.853 120.800 C 257.135 120.800,257.031 121.035,256.614 121.340 C 256.124 121.699,255.952 122.173,256.103 122.750 C 256.243 123.287,256.152 123.597,255.865 123.562 C 254.715 123.421,254.400 123.677,254.400 124.751 C 254.400 125.384,254.139 126.118,253.820 126.383 C 253.502 126.648,253.037 127.481,252.788 128.235 C 252.540 128.989,251.997 129.788,251.583 130.009 C 251.153 130.239,250.926 130.663,251.054 130.996 C 251.177 131.317,251.003 131.854,250.667 132.190 C 249.930 132.927,249.442 132.992,249.841 132.300 C 250.008 132.010,249.976 131.940,249.764 132.133 C 249.564 132.317,249.378 132.812,249.350 133.233 C 249.322 133.655,249.278 134.339,249.250 134.753 C 249.222 135.168,248.870 135.593,248.467 135.698 C 248.063 135.804,247.703 136.185,247.667 136.545 C 247.630 136.905,247.570 137.445,247.533 137.745 C 247.496 138.049,247.165 138.211,246.785 138.112 C 246.087 137.929,245.336 139.649,245.792 140.386 C 245.910 140.579,245.556 141.091,245.004 141.526 C 244.452 141.960,244.000 142.673,244.000 143.111 C 244.000 143.571,243.662 143.995,243.198 144.116 C 242.667 144.255,242.478 144.539,242.639 144.957 C 242.805 145.391,242.555 145.713,241.841 145.985 C 240.956 146.321,240.800 146.623,240.800 148.003 C 240.800 149.172,240.604 149.706,240.100 149.913 C 239.440 150.183,239.319 150.419,238.991 152.072 C 238.917 152.441,238.484 153.116,238.028 153.572 C 237.573 154.027,237.200 154.750,237.200 155.177 C 237.200 155.739,236.978 155.911,236.400 155.800 C 235.744 155.674,235.600 155.861,235.600 156.840 C 235.600 157.549,235.207 158.459,234.635 159.076 C 234.104 159.648,233.753 160.334,233.855 160.599 C 233.957 160.865,233.566 161.393,232.985 161.773 C 232.405 162.153,232.030 162.563,232.151 162.685 C 232.273 162.806,232.179 163.266,231.943 163.707 C 231.597 164.352,231.446 164.400,231.163 163.954 C 230.882 163.511,230.801 163.540,230.756 164.100 C 230.725 164.485,230.655 164.980,230.600 165.200 C 230.545 165.420,230.478 165.971,230.450 166.424 C 230.423 166.877,230.220 167.136,230.000 167.000 C 229.780 166.864,229.600 167.011,229.600 167.327 C 229.600 167.643,229.328 168.128,228.995 168.404 C 228.662 168.681,228.437 169.194,228.495 169.544 C 228.553 169.895,228.375 170.209,228.100 170.241 C 227.825 170.273,227.399 170.322,227.153 170.350 C 226.908 170.378,226.801 170.760,226.916 171.200 C 227.031 171.639,226.959 172.102,226.756 172.227 C 226.553 172.353,226.503 172.643,226.645 172.872 C 226.786 173.102,226.659 173.440,226.362 173.624 C 226.037 173.825,225.700 173.767,225.517 173.479 C 225.338 173.197,225.207 173.495,225.200 174.200 C 225.186 175.585,224.870 176.159,223.932 176.504 C 223.499 176.664,223.304 177.109,223.377 177.775 C 223.487 178.772,223.238 178.963,222.000 178.831 C 221.542 178.782,221.520 178.848,221.908 179.112 C 222.295 179.375,222.131 179.877,221.215 181.228 C 220.555 182.203,220.011 183.313,220.007 183.697 C 220.003 184.080,219.640 184.618,219.200 184.893 C 218.760 185.168,218.400 185.780,218.400 186.253 C 218.400 186.816,218.083 187.193,217.483 187.344 C 216.758 187.525,216.544 187.887,216.465 189.062 C 216.402 190.001,216.077 190.751,215.582 191.097 C 215.152 191.399,214.800 191.916,214.800 192.246 C 214.800 192.577,214.665 192.765,214.500 192.666 C 214.216 192.494,212.887 193.657,213.100 193.890 C 213.155 193.951,213.197 194.585,213.194 195.300 C 213.190 196.078,213.062 196.403,212.876 196.108 C 212.644 195.745,212.387 195.822,211.886 196.408 C 211.507 196.850,211.405 197.200,211.653 197.200 C 211.956 197.200,211.939 197.391,211.600 197.800 C 211.326 198.130,211.236 198.400,211.400 198.400 C 211.564 198.400,211.476 198.668,211.204 198.996 C 210.932 199.323,210.569 199.504,210.397 199.398 C 210.000 199.153,209.522 200.350,209.822 200.836 C 209.946 201.036,209.731 201.200,209.344 201.200 C 208.796 201.200,208.747 201.307,209.120 201.680 C 209.776 202.336,209.722 202.800,208.990 202.800 C 208.655 202.800,208.205 203.261,207.991 203.824 C 207.777 204.387,207.436 204.746,207.233 204.620 C 206.781 204.341,205.844 207.024,206.195 207.592 C 206.334 207.816,206.244 208.000,205.995 208.000 C 205.746 208.000,205.273 208.270,204.943 208.600 C 204.613 208.930,204.468 209.200,204.620 209.200 C 204.773 209.200,204.680 209.462,204.415 209.782 C 204.149 210.103,204.050 210.557,204.195 210.792 C 204.341 211.027,204.311 211.194,204.130 211.163 C 203.442 211.043,202.802 211.211,202.847 211.500 C 203.036 212.697,202.686 213.668,201.970 213.933 C 201.514 214.101,201.154 214.366,201.170 214.520 C 201.187 214.674,201.186 214.845,201.169 214.900 C 200.760 216.227,200.879 218.368,201.385 218.788 C 202.148 219.421,202.195 231.047,201.538 256.800 C 201.300 266.150,201.081 276.320,201.052 279.400 L 201.000 285.000 207.158 285.070 C 213.753 285.145,214.348 284.987,214.551 283.101 C 214.605 282.606,215.133 281.679,215.724 281.042 C 216.316 280.404,216.803 279.594,216.806 279.242 C 216.811 278.737,216.885 278.714,217.151 279.134 C 217.532 279.735,217.985 278.516,217.995 276.863 C 217.998 276.264,218.289 275.849,218.800 275.716 C 219.539 275.523,219.651 275.278,219.761 273.600 C 219.783 273.270,220.011 273.000,220.267 273.000 C 220.524 273.000,220.883 272.850,221.067 272.667 C 221.405 272.329,221.460 272.129,221.550 270.933 C 221.578 270.567,221.718 270.385,221.863 270.530 C 222.366 271.032,223.200 269.895,223.200 268.708 C 223.200 267.789,223.344 267.570,223.826 267.755 C 224.316 267.942,224.394 267.810,224.183 267.147 C 224.002 266.577,224.059 266.389,224.357 266.574 C 224.645 266.751,224.800 266.412,224.800 265.606 C 224.800 264.845,224.993 264.390,225.300 264.430 C 226.560 264.593,227.033 264.409,226.400 264.000 C 225.937 263.701,225.924 263.611,226.343 263.606 C 226.660 263.603,226.790 263.351,226.655 263.000 C 226.529 262.670,226.594 262.400,226.800 262.400 C 227.006 262.400,227.060 262.100,226.919 261.734 C 226.779 261.368,226.830 261.169,227.032 261.292 C 227.575 261.622,228.400 260.639,228.400 259.661 C 228.400 259.475,228.805 259.114,229.300 258.859 C 230.192 258.400,230.191 258.398,229.200 258.600 C 228.209 258.802,228.208 258.800,229.100 258.341 C 229.703 258.030,230.000 257.515,230.000 256.776 C 230.000 255.872,230.143 255.712,230.800 255.884 C 231.624 256.100,231.754 255.814,231.616 254.100 C 231.576 253.605,231.748 253.200,232.000 253.200 C 232.736 253.200,233.600 252.127,233.600 251.211 C 233.600 250.645,233.818 250.404,234.259 250.482 C 234.621 250.547,235.002 250.356,235.106 250.058 C 235.246 249.656,235.050 249.588,234.347 249.795 L 233.400 250.074 234.300 249.414 C 234.795 249.052,235.200 248.495,235.200 248.177 C 235.200 247.860,235.351 247.600,235.536 247.600 C 235.852 247.600,236.648 246.183,236.728 245.478 C 236.748 245.301,237.138 244.851,237.594 244.478 C 238.050 244.105,238.513 243.260,238.623 242.600 C 238.907 240.897,239.119 240.400,239.564 240.400 C 239.779 240.400,239.884 240.765,239.798 241.211 C 239.712 241.659,239.813 241.916,240.025 241.784 C 240.236 241.654,240.370 241.037,240.322 240.414 C 240.227 239.157,241.059 237.866,241.707 238.266 C 241.949 238.416,242.004 238.330,241.838 238.062 C 241.681 237.808,241.743 237.600,241.976 237.600 C 242.209 237.600,242.379 237.465,242.353 237.300 C 242.167 236.127,242.512 235.218,243.229 234.991 C 243.685 234.846,243.977 234.518,243.879 234.262 C 243.673 233.725,244.593 232.726,244.957 233.091 C 245.205 233.338,245.232 233.252,245.395 231.735 C 245.541 230.371,245.961 229.529,246.370 229.781 C 246.855 230.081,247.306 229.335,247.426 228.032 C 247.573 226.425,247.582 226.397,247.900 226.447 C 248.933 226.611,249.200 226.273,249.200 224.800 C 249.200 223.920,249.391 223.200,249.624 223.200 C 249.857 223.200,249.937 223.378,249.803 223.595 C 249.663 223.822,249.823 223.889,250.179 223.753 C 250.534 223.617,250.800 223.039,250.800 222.406 C 250.800 221.797,251.074 221.070,251.409 220.792 C 251.926 220.364,251.977 220.402,251.745 221.043 C 251.595 221.460,251.616 221.671,251.790 221.513 C 252.082 221.249,252.212 220.591,252.349 218.690 C 252.377 218.300,252.851 217.809,253.403 217.599 C 253.955 217.389,254.363 217.079,254.310 216.909 C 254.257 216.739,254.706 215.620,255.307 214.421 C 255.908 213.223,256.400 212.375,256.400 212.537 C 256.400 212.699,256.653 212.599,256.962 212.316 C 257.271 212.032,257.519 211.710,257.514 211.600 C 257.442 210.008,257.703 209.266,258.400 209.084 C 258.869 208.961,259.200 208.538,259.200 208.061 C 259.200 207.613,259.383 207.134,259.607 206.996 C 259.830 206.858,259.886 206.532,259.730 206.272 C 259.568 206.003,259.738 206.036,260.123 206.349 C 260.731 206.842,260.800 206.773,260.800 205.673 C 260.800 204.999,261.005 204.320,261.256 204.165 C 261.596 203.955,261.637 207.000,261.418 216.142 C 261.256 222.884,261.275 228.400,261.461 228.400 C 261.648 228.401,261.838 230.381,261.884 232.800 C 261.934 235.406,261.812 237.200,261.584 237.200 C 261.065 237.200,261.094 238.687,261.619 239.012 C 261.877 239.171,261.936 239.951,261.773 241.039 C 261.602 242.182,261.676 243.009,261.982 243.378 C 262.326 243.793,262.339 244.167,262.028 244.748 C 261.480 245.772,261.457 248.936,262.000 248.600 C 262.220 248.464,262.400 248.533,262.400 248.753 C 262.400 248.973,262.220 249.264,262.000 249.400 C 261.469 249.728,261.483 255.081,262.016 255.410 C 262.284 255.576,262.353 255.264,262.210 254.534 C 262.032 253.627,262.061 253.560,262.356 254.200 C 262.558 254.640,262.636 255.388,262.528 255.863 C 262.420 256.337,262.542 257.118,262.798 257.597 C 263.295 258.525,262.972 259.325,262.444 258.472 C 261.905 257.599,261.742 262.016,262.204 265.000 C 262.386 266.177,262.341 266.441,262.032 266.000 C 261.696 265.520,261.611 265.624,261.606 266.524 C 261.603 267.172,261.769 267.543,262.000 267.400 C 262.498 267.092,262.501 267.283,262.017 268.555 C 261.707 269.371,261.745 269.519,262.217 269.338 C 262.636 269.177,262.800 269.408,262.800 270.157 C 262.800 270.731,262.616 271.200,262.391 271.200 C 261.964 271.200,262.072 272.464,262.767 275.600 C 262.986 276.590,263.173 283.475,263.183 290.900 L 263.200 304.400 290.000 304.400 C 307.600 304.400,316.800 304.263,316.800 304.000 C 316.800 303.780,317.089 303.600,317.443 303.600 C 317.917 303.600,317.997 303.416,317.748 302.900 C 317.562 302.515,317.369 300.850,317.318 299.200 C 317.268 297.550,317.108 295.030,316.963 293.600 C 316.779 291.779,316.827 291.120,317.124 291.400 C 317.356 291.620,317.618 292.520,317.706 293.400 C 317.794 294.280,317.896 293.245,317.933 291.100 C 317.989 287.831,317.901 287.200,317.386 287.200 C 316.903 287.200,316.860 287.035,317.186 286.426 C 317.846 285.192,317.719 281.600,317.015 281.600 C 316.536 281.600,316.474 281.112,316.671 278.900 C 316.966 275.592,317.200 275.164,317.200 277.933 C 317.200 279.070,317.380 280.000,317.600 280.000 C 317.837 280.000,318.000 278.525,318.000 276.376 C 318.000 274.063,317.855 272.842,317.600 273.000 C 317.380 273.136,317.200 272.967,317.200 272.624 C 317.200 272.281,317.020 272.000,316.800 272.000 C 316.580 272.000,316.400 271.280,316.400 270.400 C 316.400 269.520,316.562 268.845,316.760 268.900 C 317.123 269.001,317.205 268.813,317.194 267.900 C 317.190 267.567,317.058 267.600,316.800 268.000 C 316.484 268.489,316.411 268.440,316.406 267.733 C 316.403 267.257,316.565 266.807,316.766 266.733 C 316.967 266.660,317.226 264.890,317.343 262.800 C 317.485 260.234,317.441 259.454,317.206 260.400 C 316.906 261.605,316.884 261.522,317.050 259.800 C 317.477 255.387,317.420 253.396,316.871 253.510 C 316.526 253.581,316.390 253.303,316.480 252.710 C 316.557 252.209,316.795 251.830,317.009 251.868 C 317.501 251.953,317.279 246.748,316.768 246.220 C 316.272 245.707,316.298 242.110,316.800 241.800 C 317.319 241.479,317.322 234.682,316.804 234.164 C 316.545 233.905,316.403 211.155,316.396 168.727 C 316.388 114.558,316.295 103.611,315.845 103.237 C 315.457 102.916,308.620 102.797,291.752 102.818 L 268.200 102.848 267.476 103.724 M134.000 106.800 C 134.400 107.058,134.433 107.190,134.100 107.194 C 133.825 107.197,133.600 107.380,133.600 107.600 C 133.600 107.820,133.966 108.000,134.414 108.000 C 135.104 108.000,135.163 107.878,134.800 107.200 C 134.565 106.760,134.153 106.403,133.886 106.406 C 133.581 106.410,133.623 106.556,134.000 106.800 M138.806 115.251 C 138.817 116.250,139.455 116.955,139.721 116.263 C 139.848 115.930,139.693 115.443,139.376 115.180 C 138.922 114.803,138.801 114.818,138.806 115.251 M144.000 124.600 C 144.000 124.933,144.356 125.200,144.800 125.200 C 145.754 125.200,145.861 124.586,144.967 124.243 C 144.073 123.900,144.000 123.927,144.000 124.600 M261.876 221.100 C 261.775 221.485,261.693 221.170,261.693 220.400 C 261.693 219.630,261.775 219.315,261.876 219.700 C 261.976 220.085,261.976 220.715,261.876 221.100 M261.876 225.100 C 261.775 225.485,261.693 225.170,261.693 224.400 C 261.693 223.630,261.775 223.315,261.876 223.700 C 261.976 224.085,261.976 224.715,261.876 225.100 M317.194 255.900 C 317.189 257.274,317.080 257.634,316.800 257.200 C 316.289 256.409,316.289 254.000,316.800 254.000 C 317.020 254.000,317.197 254.855,317.194 255.900 M263.172 264.167 C 263.217 265.399,262.757 264.601,262.579 263.138 C 262.451 262.093,262.495 261.975,262.780 262.600 C 262.980 263.040,263.156 263.745,263.172 264.167 " stroke="none" fill="#3c84d4" fill-rule="evenodd"></path><path id="path2" d="M95.900 103.100 C 101.895 103.162,111.705 103.162,117.700 103.100 C 123.695 103.038,118.790 102.987,106.800 102.987 C 94.810 102.987,89.905 103.038,95.900 103.100 M84.138 105.017 C 84.008 105.357,84.013 105.747,84.151 105.884 C 84.288 106.021,84.400 105.923,84.400 105.667 C 84.400 105.316,90.238 105.200,107.800 105.200 C 130.933 105.200,131.200 105.209,131.200 106.000 C 131.200 106.440,131.534 107.134,131.942 107.542 C 132.350 107.950,132.804 108.760,132.950 109.342 C 133.096 109.924,133.463 110.400,133.765 110.400 C 134.376 110.400,134.800 111.247,134.800 112.470 C 134.800 112.931,135.132 113.362,135.577 113.478 C 136.020 113.594,136.460 114.162,136.600 114.800 C 136.736 115.421,137.180 116.006,137.597 116.115 C 138.117 116.251,138.284 116.556,138.140 117.108 C 138.005 117.624,138.278 118.238,138.916 118.852 C 139.457 119.373,140.016 120.295,140.158 120.900 C 140.299 121.505,140.659 122.000,140.958 122.000 C 141.256 122.000,141.605 122.526,141.734 123.168 C 141.862 123.810,142.295 124.440,142.696 124.567 C 143.136 124.707,143.459 125.236,143.509 125.899 C 143.556 126.505,143.955 127.247,144.397 127.549 C 144.838 127.851,145.200 128.437,145.200 128.853 C 145.200 129.268,145.560 129.916,146.000 130.293 C 146.440 130.670,146.800 131.232,146.800 131.543 C 146.800 131.854,147.250 132.525,147.800 133.035 C 148.350 133.545,148.800 134.324,148.800 134.767 C 148.800 135.210,149.139 135.753,149.554 135.975 C 149.969 136.197,150.422 136.834,150.562 137.389 C 150.701 137.945,151.043 138.400,151.320 138.400 C 151.598 138.400,151.865 138.895,151.914 139.500 C 151.965 140.138,152.422 140.908,153.001 141.333 C 153.595 141.769,154.000 142.464,154.000 143.046 C 154.000 143.584,154.257 144.124,154.572 144.245 C 154.887 144.365,155.318 144.964,155.531 145.575 C 155.946 146.764,157.600 147.554,157.600 146.563 C 157.600 146.253,157.240 146.000,156.800 146.000 C 156.267 146.000,156.000 145.733,156.000 145.200 C 156.000 144.213,156.608 144.163,157.210 145.100 C 157.631 145.754,157.645 145.752,157.430 145.067 C 157.304 144.664,157.200 144.259,157.200 144.167 C 157.200 144.075,156.930 144.000,156.600 144.000 C 156.045 144.000,155.813 143.503,155.970 142.649 C 156.005 142.456,155.666 142.394,155.217 142.511 C 154.518 142.694,154.393 142.528,154.350 141.363 C 154.266 139.085,154.224 138.995,153.296 139.125 C 152.561 139.228,152.400 139.059,152.400 138.182 C 152.400 137.408,152.239 137.176,151.813 137.340 C 151.014 137.646,150.822 137.222,150.737 134.952 C 150.696 133.884,150.589 133.233,150.498 133.505 C 150.223 134.331,149.264 134.059,149.128 133.116 C 149.058 132.630,148.631 132.135,148.180 132.016 C 147.526 131.844,147.370 131.497,147.408 130.300 C 147.449 128.972,147.345 128.800,146.499 128.800 C 145.752 128.800,145.559 128.603,145.616 127.900 C 145.768 126.024,145.615 125.509,144.978 125.753 C 144.543 125.920,144.234 125.643,143.953 124.836 C 143.731 124.200,143.198 123.588,142.768 123.476 C 142.160 123.317,142.011 122.976,142.094 121.936 C 142.183 120.817,142.054 120.580,141.300 120.472 C 140.649 120.380,140.400 120.076,140.400 119.372 C 140.400 118.667,140.181 118.400,139.600 118.400 C 138.826 118.400,138.586 117.395,138.741 114.800 C 138.761 114.465,138.685 114.402,138.569 114.658 C 138.057 115.787,136.781 114.718,136.891 113.251 C 136.988 111.958,136.902 111.810,136.100 111.895 C 135.382 111.971,135.200 111.789,135.200 110.995 C 135.200 110.254,134.988 110.000,134.369 110.000 C 133.639 110.000,133.554 109.794,133.664 108.300 C 133.780 106.709,133.718 106.592,132.694 106.473 C 131.950 106.387,131.600 106.114,131.600 105.620 C 131.600 104.447,130.878 104.411,107.087 104.405 C 86.982 104.401,84.348 104.471,84.138 105.017 M140.000 116.967 C 140.000 117.278,139.775 117.624,139.500 117.735 C 139.201 117.856,139.282 117.950,139.700 117.968 C 140.144 117.988,140.400 117.707,140.400 117.200 C 140.400 116.760,140.310 116.400,140.200 116.400 C 140.090 116.400,140.000 116.655,140.000 116.967 M157.889 147.605 C 156.955 148.696,157.021 149.136,158.200 149.673 C 158.929 150.005,159.200 150.440,159.200 151.277 C 159.200 152.074,159.454 152.520,160.030 152.733 C 160.486 152.901,160.846 153.166,160.830 153.320 C 160.715 154.400,160.890 154.858,161.500 155.083 C 161.885 155.225,162.332 155.535,162.494 155.771 C 162.656 156.007,162.791 155.521,162.794 154.690 C 162.799 153.448,162.624 153.113,161.808 152.803 C 161.148 152.552,160.894 152.220,161.050 151.813 C 161.216 151.382,161.035 151.200,160.443 151.200 C 159.778 151.200,159.600 150.953,159.600 150.033 C 159.600 148.470,159.212 147.546,158.690 147.868 C 158.423 148.033,158.359 147.883,158.519 147.466 C 158.852 146.598,158.727 146.626,157.889 147.605 M162.267 153.800 C 162.267 154.130,162.027 154.400,161.733 154.400 C 161.059 154.400,161.035 153.733,161.700 153.465 C 161.975 153.354,162.215 153.249,162.233 153.232 C 162.252 153.214,162.267 153.470,162.267 153.800 M164.000 155.933 C 164.000 156.190,163.730 156.400,163.400 156.400 C 163.027 156.400,162.800 156.778,162.800 157.400 C 162.800 158.133,163.013 158.400,163.600 158.400 C 164.176 158.400,164.400 158.667,164.400 159.351 C 164.400 160.611,165.234 161.300,165.893 160.585 C 166.289 160.154,166.231 160.000,165.593 159.798 C 164.612 159.487,164.554 158.523,165.500 158.276 C 166.167 158.102,166.167 158.091,165.500 158.046 C 165.115 158.021,164.786 157.865,164.769 157.700 C 164.624 156.279,164.000 154.845,164.000 155.933 M166.500 161.465 C 165.728 161.777,165.908 163.041,166.813 163.651 C 167.260 163.953,167.721 164.736,167.837 165.391 C 168.187 167.359,169.630 166.909,169.568 164.851 C 169.551 164.273,169.446 164.025,169.335 164.300 C 168.975 165.192,168.002 164.840,167.950 163.800 C 167.923 163.250,167.855 162.620,167.800 162.400 C 167.745 162.180,167.678 161.820,167.650 161.600 C 167.597 161.174,167.306 161.140,166.500 161.465 M169.376 167.381 C 169.451 168.790,170.830 169.723,171.422 168.764 C 171.546 168.564,171.412 168.397,171.124 168.394 C 170.743 168.389,170.764 168.282,171.200 168.000 C 171.636 167.718,171.657 167.611,171.276 167.606 C 170.988 167.603,170.852 167.439,170.974 167.242 C 171.096 167.045,170.912 166.775,170.565 166.642 C 169.514 166.238,169.321 166.358,169.376 167.381 M171.200 170.837 C 171.200 171.888,171.370 172.066,172.284 171.970 C 172.441 171.954,172.691 172.269,172.841 172.670 C 173.078 173.304,173.148 173.317,173.373 172.769 C 173.762 171.824,172.975 170.139,172.031 169.892 C 171.330 169.709,171.200 169.858,171.200 170.837 M173.664 173.296 C 173.002 173.958,173.090 175.200,173.800 175.200 C 174.139 175.200,174.400 175.558,174.400 176.024 C 174.400 176.477,174.578 176.737,174.795 176.603 C 175.022 176.463,175.089 176.623,174.953 176.979 C 174.681 177.686,176.176 177.886,176.600 177.200 C 176.736 176.980,176.662 176.800,176.436 176.800 C 176.210 176.800,176.141 176.499,176.282 176.131 C 176.479 175.618,176.378 175.523,175.849 175.726 C 175.438 175.884,175.257 175.831,175.403 175.595 C 175.537 175.378,175.363 175.200,175.016 175.200 C 174.550 175.200,174.448 174.950,174.625 174.244 C 174.899 173.149,174.351 172.609,173.664 173.296 M176.924 178.500 C 176.306 179.327,176.527 180.606,177.279 180.548 C 177.716 180.514,178.044 180.891,178.202 181.607 C 178.478 182.865,180.000 183.579,180.000 182.451 C 180.000 182.081,179.640 181.470,179.200 181.093 C 178.760 180.716,178.400 180.155,178.400 179.847 C 178.400 179.538,178.119 179.178,177.775 179.046 C 177.431 178.914,177.261 178.624,177.398 178.403 C 177.755 177.825,177.369 177.905,176.924 178.500 M179.940 184.237 C 179.907 184.547,179.862 184.986,179.840 185.213 C 179.818 185.441,180.243 185.848,180.785 186.118 C 181.491 186.469,181.775 186.943,181.785 187.785 C 181.797 188.691,182.029 189.024,182.800 189.240 C 183.350 189.394,183.643 189.538,183.451 189.560 C 183.259 189.582,183.303 189.842,183.548 190.137 C 183.793 190.432,183.875 190.792,183.730 190.937 C 183.585 191.082,183.879 191.200,184.382 191.200 C 185.192 191.200,185.234 191.122,184.749 190.523 C 184.376 190.063,184.360 189.943,184.700 190.147 C 184.977 190.313,185.200 190.254,185.200 190.014 C 185.200 189.775,184.739 189.405,184.176 189.191 C 183.613 188.977,183.252 188.640,183.374 188.442 C 183.647 188.001,182.622 185.944,182.145 185.977 C 181.813 185.999,181.759 185.856,181.650 184.647 C 181.581 183.884,180.018 183.510,179.940 184.237 M185.280 193.479 C 185.346 193.999,185.490 194.389,185.600 194.345 C 186.166 194.118,187.674 195.307,187.196 195.603 C 186.914 195.777,186.796 196.212,186.933 196.569 C 187.159 197.158,187.250 197.153,187.915 196.509 C 188.626 195.822,188.621 195.774,187.771 194.962 C 187.288 194.502,186.780 193.767,186.641 193.329 C 186.273 192.170,185.130 192.296,185.280 193.479 M188.552 198.181 C 188.242 198.989,188.703 199.600,189.624 199.600 C 190.563 199.600,190.619 199.077,189.771 198.229 C 188.996 197.453,188.834 197.446,188.552 198.181 M190.400 202.000 C 190.400 202.509,190.667 202.800,191.133 202.800 C 192.231 202.800,192.474 202.345,191.694 201.752 C 190.721 201.014,190.400 201.075,190.400 202.000 M135.292 252.600 C 135.335 280.320,135.468 298.830,135.586 293.732 C 135.703 288.635,135.941 284.324,136.114 284.152 C 136.287 283.979,136.377 288.172,136.314 293.469 C 136.224 301.046,136.307 303.058,136.700 302.907 C 137.096 302.754,137.200 292.754,137.200 254.757 C 137.200 209.353,137.237 206.800,137.900 206.794 C 138.498 206.789,138.513 206.731,138.000 206.400 C 136.488 205.423,136.400 205.780,136.394 212.900 C 136.390 217.584,136.261 219.607,135.993 219.200 C 135.301 218.149,135.541 204.253,136.241 204.834 C 136.711 205.224,136.771 205.191,136.566 204.657 C 136.428 204.295,136.143 204.000,135.934 204.000 C 135.724 204.000,135.642 203.856,135.750 203.681 C 135.858 203.505,135.782 203.100,135.580 202.781 C 135.356 202.427,135.243 221.852,135.292 252.600 M192.171 203.963 C 192.171 204.397,192.467 204.829,192.829 204.923 C 193.293 205.045,193.473 204.848,193.443 204.253 C 193.387 203.161,192.171 202.883,192.171 203.963 M193.988 206.823 C 193.475 207.780,193.487 207.805,194.646 208.160 C 195.382 208.386,195.467 208.287,195.299 207.404 C 195.035 206.027,194.533 205.804,193.988 206.823 M195.867 209.067 C 195.375 209.558,195.574 211.276,196.100 211.086 C 196.375 210.986,196.960 211.196,197.400 211.552 L 198.200 212.200 197.400 211.200 C 196.960 210.650,196.442 210.085,196.249 209.945 C 196.056 209.804,196.021 209.489,196.172 209.245 C 196.475 208.755,196.287 208.646,195.867 209.067 M199.200 215.914 C 199.200 216.376,199.409 216.882,199.665 217.040 C 200.016 217.257,200.067 225.656,199.872 251.264 C 199.704 273.401,199.750 285.200,200.007 285.200 C 200.259 285.200,200.414 276.938,200.438 262.100 C 200.460 249.395,200.546 233.940,200.631 227.755 C 200.779 216.950,200.754 216.483,199.993 215.793 C 199.226 215.100,199.200 215.104,199.200 215.914 M136.394 251.900 C 136.390 272.385,136.252 283.190,136.000 282.800 C 135.576 282.144,135.423 222.125,135.843 221.033 C 135.976 220.685,136.156 220.400,136.243 220.400 C 136.329 220.400,136.397 234.575,136.394 251.900 M316.914 255.800 C 316.917 256.900,316.995 257.303,317.087 256.695 C 317.179 256.086,317.177 255.186,317.082 254.695 C 316.987 254.203,316.911 254.700,316.914 255.800 M261.714 259.800 C 261.717 260.900,261.795 261.303,261.887 260.695 C 261.979 260.086,261.977 259.186,261.882 258.695 C 261.787 258.203,261.711 258.700,261.714 259.800 M317.109 265.300 C 317.017 266.455,317.084 267.670,317.258 268.000 C 317.444 268.350,317.581 267.475,317.588 265.900 C 317.602 262.683,317.344 262.360,317.109 265.300 M184.000 282.196 C 184.000 282.211,184.348 282.520,184.773 282.884 C 185.498 283.505,185.543 283.500,185.490 282.804 C 185.451 282.284,184.000 281.692,184.000 282.196 M317.742 298.200 C 317.741 300.180,317.808 301.040,317.892 300.112 C 317.976 299.184,317.977 297.564,317.895 296.512 C 317.812 295.460,317.743 296.220,317.742 298.200 " stroke="none" fill="#2e68a8" fill-rule="evenodd"></path><path id="path3" d="M84.241 105.837 C 84.107 106.187,83.999 150.842,84.002 205.070 C 84.004 259.298,83.880 303.876,83.726 304.133 C 83.572 304.390,83.751 304.353,84.122 304.052 C 84.753 303.540,84.805 296.903,84.899 204.652 L 85.000 105.800 106.600 105.686 C 130.497 105.559,130.800 105.575,130.800 107.003 C 130.800 107.534,131.123 108.291,131.518 108.684 C 131.913 109.078,132.449 109.895,132.710 110.500 C 132.970 111.105,133.367 111.600,133.591 111.600 C 133.816 111.600,134.000 111.961,134.000 112.403 C 134.000 112.844,134.450 113.597,135.000 114.075 C 135.550 114.553,136.000 115.265,136.000 115.657 C 136.000 116.048,136.323 116.691,136.718 117.084 C 137.113 117.478,137.649 118.295,137.910 118.900 C 138.170 119.505,138.567 120.000,138.791 120.000 C 139.016 120.000,139.200 120.369,139.200 120.819 C 139.200 121.270,139.650 122.055,140.200 122.565 C 140.750 123.075,141.200 123.762,141.200 124.092 C 141.200 124.422,141.560 125.150,142.000 125.709 C 142.440 126.269,142.800 126.921,142.800 127.160 C 142.800 127.398,143.160 127.818,143.600 128.093 C 144.040 128.368,144.400 128.900,144.400 129.276 C 144.400 129.651,144.850 130.444,145.400 131.038 C 145.950 131.631,146.400 132.362,146.400 132.662 C 146.400 132.962,146.760 133.516,147.200 133.893 C 147.640 134.270,148.000 134.896,148.000 135.286 C 148.000 135.675,148.360 136.218,148.800 136.493 C 149.240 136.768,149.600 137.295,149.600 137.666 C 149.600 138.036,150.005 138.849,150.500 139.472 C 151.704 140.989,152.298 141.942,153.021 143.517 C 153.353 144.242,153.879 144.932,154.188 145.051 C 154.498 145.170,154.870 145.810,155.016 146.474 C 155.276 147.658,155.694 148.277,157.500 150.156 C 157.995 150.670,158.400 151.560,158.400 152.132 C 158.400 152.743,158.712 153.339,159.158 153.577 C 159.575 153.801,160.105 154.527,160.337 155.192 C 160.569 155.856,160.948 156.400,161.179 156.400 C 161.411 156.400,161.600 156.761,161.600 157.203 C 161.600 157.644,162.050 158.397,162.600 158.875 C 163.150 159.353,163.600 160.155,163.600 160.658 C 163.600 161.161,163.941 161.754,164.358 161.977 C 164.775 162.201,165.322 162.882,165.575 163.492 C 166.477 165.670,167.474 167.298,168.132 167.666 C 168.499 167.871,168.800 168.393,168.800 168.824 C 168.800 169.255,169.160 169.916,169.600 170.293 C 170.040 170.670,170.400 171.265,170.400 171.617 C 170.400 171.968,170.846 172.644,171.391 173.118 C 171.951 173.605,172.286 174.232,172.160 174.560 C 172.027 174.907,172.352 175.412,172.969 175.816 C 173.536 176.188,174.000 176.831,174.000 177.246 C 174.000 177.661,174.360 178.360,174.800 178.800 C 175.240 179.240,175.600 179.866,175.600 180.191 C 175.600 180.516,176.050 181.076,176.600 181.437 C 177.172 181.811,177.600 182.474,177.600 182.984 C 177.600 183.475,177.960 184.202,178.400 184.600 C 178.840 184.998,179.200 185.565,179.200 185.859 C 179.200 186.153,179.560 186.618,180.000 186.893 C 180.440 187.168,180.800 187.795,180.800 188.287 C 180.800 188.800,181.227 189.461,181.800 189.837 C 182.372 190.211,182.800 190.874,182.800 191.384 C 182.800 191.875,183.160 192.602,183.600 193.000 C 184.040 193.398,184.400 193.959,184.400 194.246 C 184.400 194.534,184.773 195.116,185.229 195.541 C 185.948 196.211,186.245 196.876,186.369 198.100 C 186.386 198.265,186.663 198.400,186.985 198.400 C 187.328 198.400,187.747 199.060,188.000 200.000 C 188.237 200.880,188.608 201.600,188.825 201.600 C 189.042 201.600,189.398 202.067,189.615 202.639 C 189.832 203.210,190.352 203.767,190.771 203.877 C 191.341 204.026,191.486 204.336,191.347 205.105 C 191.224 205.780,191.433 206.421,191.952 206.967 C 194.366 209.507,194.800 210.126,194.800 211.028 C 194.800 211.718,195.104 212.136,195.800 212.400 C 196.562 212.690,196.800 213.068,196.800 213.990 C 196.800 214.656,196.984 215.200,197.209 215.200 C 197.433 215.200,197.835 215.695,198.100 216.300 C 198.366 216.905,198.767 217.528,198.992 217.685 C 199.257 217.871,199.473 225.992,199.608 240.885 L 199.816 263.800 199.908 240.524 C 199.968 225.337,199.861 217.161,199.600 217.000 C 199.380 216.864,199.200 216.376,199.200 215.914 C 199.200 215.101,199.224 215.098,200.000 215.800 C 200.440 216.198,200.797 216.361,200.794 216.162 C 200.784 215.571,200.247 214.959,199.496 214.682 C 199.109 214.539,198.816 214.282,198.844 214.111 C 198.872 213.940,198.853 213.620,198.801 213.400 C 198.750 213.180,198.683 212.730,198.654 212.401 C 198.624 212.072,198.375 211.802,198.100 211.801 C 197.825 211.800,197.582 211.620,197.561 211.400 C 197.483 210.613,196.763 209.600,196.286 209.606 C 195.953 209.610,195.974 209.722,196.351 209.961 C 196.654 210.153,196.779 210.511,196.628 210.755 C 196.088 211.628,195.600 211.178,195.600 209.808 C 195.600 208.683,195.421 208.370,194.667 208.181 C 193.869 207.981,193.740 207.706,193.767 206.274 C 193.796 204.789,193.704 204.613,192.951 204.717 C 192.229 204.816,192.121 204.659,192.236 203.675 C 192.357 202.634,192.271 202.536,191.385 202.705 C 190.589 202.857,190.400 202.731,190.400 202.047 C 190.400 201.097,190.805 200.965,191.520 201.680 C 191.862 202.022,192.000 202.029,192.000 201.707 C 192.000 201.458,191.640 201.140,191.200 201.000 C 190.760 200.860,190.400 200.501,190.400 200.201 C 190.400 199.901,189.995 199.598,189.500 199.528 C 188.752 199.421,188.617 199.180,188.702 198.100 C 188.757 197.385,188.612 196.800,188.378 196.800 C 188.144 196.800,188.067 196.575,188.206 196.300 C 188.345 196.025,188.193 196.126,187.868 196.524 C 187.167 197.382,186.620 196.797,187.001 195.596 C 187.143 195.149,187.067 194.778,186.827 194.750 C 186.592 194.722,186.175 194.678,185.900 194.650 C 185.608 194.621,185.349 193.892,185.277 192.900 C 185.178 191.526,185.005 191.200,184.377 191.200 C 183.695 191.200,183.531 190.873,183.624 189.700 C 183.637 189.535,183.232 189.301,182.724 189.180 C 182.022 189.013,181.797 188.677,181.786 187.780 C 181.776 186.902,181.497 186.468,180.699 186.084 C 179.783 185.644,179.662 185.392,179.868 184.361 C 180.067 183.365,179.964 183.116,179.277 182.936 C 178.781 182.806,178.347 182.271,178.202 181.607 C 178.044 180.891,177.716 180.514,177.279 180.548 C 176.726 180.590,176.620 180.293,176.706 178.954 C 176.806 177.408,176.754 177.320,175.846 177.493 C 174.748 177.703,174.185 176.648,174.569 175.100 C 174.692 174.605,174.689 174.425,174.563 174.700 C 174.089 175.732,173.295 175.157,173.047 173.601 C 172.906 172.722,172.658 172.024,172.496 172.049 C 171.317 172.232,171.103 171.940,171.305 170.431 C 171.489 169.056,171.423 168.880,170.766 169.007 C 170.354 169.086,169.883 168.937,169.720 168.675 C 169.299 168.001,169.258 166.400,169.662 166.400 C 169.848 166.400,170.000 166.192,170.000 165.938 C 170.000 165.676,169.652 165.791,169.198 166.202 C 168.256 167.054,168.120 166.974,167.834 165.400 C 167.717 164.750,167.235 163.928,166.764 163.573 C 166.073 163.052,165.962 162.684,166.186 161.664 C 166.364 160.854,166.308 160.400,166.032 160.400 C 165.794 160.400,165.600 160.602,165.600 160.849 C 165.600 161.159,165.415 161.144,165.000 160.800 C 164.670 160.526,164.400 159.874,164.400 159.351 C 164.400 158.667,164.176 158.400,163.600 158.400 C 162.995 158.400,162.799 158.131,162.794 157.300 C 162.787 156.003,162.456 155.436,161.500 155.083 C 160.890 154.858,160.715 154.400,160.830 153.320 C 160.846 153.166,160.486 152.901,160.030 152.733 C 159.454 152.520,159.200 152.074,159.200 151.277 C 159.200 150.428,158.929 150.005,158.159 149.654 C 157.314 149.269,157.165 148.992,157.368 148.184 C 157.572 147.371,157.432 147.116,156.609 146.804 C 156.054 146.592,155.600 146.144,155.600 145.806 C 155.600 145.468,155.240 144.884,154.800 144.507 C 154.360 144.130,154.000 143.427,154.000 142.944 C 154.000 142.462,153.550 141.737,153.001 141.333 C 152.422 140.908,151.965 140.138,151.914 139.500 C 151.865 138.895,151.598 138.400,151.320 138.400 C 151.043 138.400,150.701 137.945,150.562 137.389 C 150.422 136.834,149.969 136.197,149.554 135.975 C 149.139 135.753,148.800 135.210,148.800 134.767 C 148.800 134.324,148.350 133.545,147.800 133.035 C 147.250 132.525,146.800 131.854,146.800 131.543 C 146.800 131.232,146.440 130.670,146.000 130.293 C 145.560 129.916,145.200 129.268,145.200 128.853 C 145.200 128.437,144.838 127.851,144.397 127.549 C 143.955 127.247,143.556 126.505,143.509 125.899 C 143.459 125.236,143.136 124.707,142.696 124.567 C 142.295 124.440,141.862 123.810,141.734 123.168 C 141.605 122.526,141.256 122.000,140.958 122.000 C 140.659 122.000,140.299 121.505,140.158 120.900 C 140.016 120.295,139.457 119.373,138.916 118.852 C 138.278 118.238,138.005 117.624,138.140 117.108 C 138.284 116.556,138.117 116.251,137.597 116.115 C 137.180 116.006,136.736 115.421,136.600 114.800 C 136.460 114.162,136.020 113.594,135.577 113.478 C 135.132 113.362,134.800 112.931,134.800 112.470 C 134.800 111.247,134.376 110.400,133.765 110.400 C 133.463 110.400,133.096 109.924,132.950 109.342 C 132.804 108.760,132.350 107.950,131.942 107.542 C 131.534 107.134,131.200 106.440,131.200 106.000 C 131.200 104.882,84.670 104.720,84.241 105.837 M134.806 200.992 C 134.159 201.773,134.166 303.608,134.814 304.009 C 135.604 304.497,136.999 304.137,137.141 303.409 C 137.233 302.931,137.097 302.754,136.741 302.891 C 136.294 303.063,136.220 301.428,136.314 293.469 C 136.377 288.172,136.287 283.979,136.114 284.152 C 135.941 284.324,135.703 288.635,135.586 293.732 C 135.468 298.830,135.347 280.320,135.317 252.600 C 135.271 209.736,135.340 201.097,135.708 203.490 C 135.848 204.405,136.625 204.703,137.300 204.101 C 138.253 203.250,138.195 202.994,136.741 201.603 C 135.267 200.195,135.426 200.246,134.806 200.992 M135.631 211.478 C 135.612 215.557,135.766 218.856,135.993 219.200 C 136.261 219.607,136.390 217.584,136.394 212.900 C 136.400 205.780,136.488 205.423,138.000 206.400 C 138.533 206.745,138.533 206.790,138.000 206.807 C 137.502 206.822,137.515 206.913,138.073 207.337 C 138.444 207.619,138.863 208.313,139.005 208.879 C 139.206 209.679,139.458 209.866,140.132 209.720 C 140.768 209.581,140.855 209.633,140.457 209.915 C 140.078 210.184,140.048 210.382,140.357 210.574 C 140.601 210.724,140.800 211.287,140.800 211.824 C 140.800 212.964,142.649 213.260,143.061 212.185 C 143.325 211.497,142.086 209.900,141.547 210.233 C 141.356 210.351,141.200 209.817,141.200 209.046 C 141.200 208.110,140.941 207.464,140.419 207.098 C 139.989 206.797,139.436 206.022,139.189 205.376 C 138.752 204.231,138.725 204.221,138.154 204.998 C 137.652 205.682,137.514 205.711,137.190 205.198 C 136.982 204.869,136.809 204.757,136.806 204.949 C 136.803 205.141,136.544 205.086,136.232 204.827 C 135.745 204.423,135.659 205.373,135.631 211.478 M142.543 213.803 C 142.285 214.476,143.388 216.400,144.033 216.400 C 144.261 216.400,144.345 216.565,144.220 216.768 C 143.973 217.167,145.031 218.400,145.621 218.400 C 145.821 218.400,146.103 217.931,146.247 217.357 C 146.517 216.278,145.839 215.448,144.950 215.772 C 144.692 215.867,144.500 215.504,144.500 214.923 C 144.500 213.455,143.005 212.600,142.543 213.803 M146.050 219.506 C 145.790 219.992,145.848 220.450,146.236 220.982 C 146.546 221.406,146.800 221.606,146.800 221.427 C 146.800 221.248,147.045 221.305,147.344 221.554 C 147.666 221.821,147.806 222.436,147.686 223.062 C 147.548 223.786,147.627 224.031,147.937 223.839 C 148.229 223.658,148.306 223.780,148.153 224.179 C 147.998 224.582,148.141 224.800,148.557 224.800 C 148.911 224.800,149.200 225.038,149.200 225.328 C 149.200 225.618,149.657 226.253,150.216 226.739 C 150.775 227.226,151.124 227.800,150.990 228.016 C 150.857 228.232,151.300 228.962,151.976 229.638 C 152.653 230.314,153.104 231.032,152.979 231.234 C 152.855 231.435,152.938 231.600,153.164 231.600 C 153.390 231.600,153.471 231.870,153.345 232.200 C 153.202 232.572,153.347 232.800,153.725 232.800 C 154.082 232.800,154.448 233.310,154.605 234.023 C 154.955 235.617,156.600 235.598,156.600 234.000 C 156.600 233.200,156.374 232.974,155.469 232.870 C 154.588 232.770,154.399 232.592,154.614 232.070 C 155.308 230.389,155.294 229.950,154.540 229.752 C 154.119 229.642,153.540 229.023,153.254 228.376 C 152.939 227.665,152.430 227.200,151.966 227.200 C 151.076 227.200,151.073 227.187,151.603 225.792 C 151.970 224.828,151.898 224.692,150.803 224.279 C 149.802 223.901,149.600 223.604,149.600 222.512 C 149.600 221.653,149.406 221.200,149.039 221.200 C 148.731 221.200,148.290 220.660,148.060 220.000 C 147.594 218.664,146.628 218.426,146.050 219.506 M135.843 221.033 C 135.423 222.125,135.576 282.144,136.000 282.800 C 136.252 283.190,136.390 272.385,136.394 251.900 C 136.397 234.575,136.329 220.400,136.243 220.400 C 136.156 220.400,135.976 220.685,135.843 221.033 M156.991 235.506 C 156.278 236.019,156.252 238.400,156.960 238.400 C 157.550 238.400,159.055 240.670,158.882 241.300 C 158.837 241.465,158.968 241.600,159.173 241.600 C 159.379 241.600,159.604 242.095,159.673 242.700 C 159.743 243.305,160.025 243.822,160.300 243.850 C 160.575 243.878,160.999 243.923,161.243 243.950 C 161.486 243.978,161.583 244.267,161.458 244.594 C 161.207 245.247,162.495 246.152,163.012 245.686 C 163.186 245.529,163.204 245.617,163.051 245.883 C 162.899 246.148,162.510 246.264,162.187 246.140 C 161.864 246.016,161.600 246.093,161.600 246.311 C 161.600 246.528,161.945 246.797,162.366 246.907 C 162.787 247.017,163.192 247.513,163.266 248.008 C 163.340 248.503,163.850 249.197,164.400 249.549 C 165.350 250.158,165.371 250.155,164.832 249.473 C 164.342 248.853,164.342 248.772,164.832 248.877 C 165.822 249.091,165.524 247.054,164.500 246.605 C 163.869 246.328,163.600 245.869,163.600 245.068 C 163.600 244.262,163.364 243.864,162.800 243.716 C 162.360 243.601,161.997 243.213,161.994 242.853 C 161.985 241.887,161.419 241.163,160.560 241.020 C 160.142 240.951,159.867 240.648,159.949 240.347 C 160.031 240.046,160.186 239.488,160.294 239.107 C 160.427 238.634,160.170 238.293,159.482 238.031 C 158.824 237.781,158.381 237.223,158.205 236.424 C 157.929 235.167,157.702 234.995,156.991 235.506 M165.215 250.172 C 164.578 251.363,164.912 252.400,165.932 252.400 C 166.503 252.400,166.663 252.647,166.580 253.400 C 166.520 253.950,166.635 254.400,166.835 254.400 C 167.036 254.400,167.155 254.535,167.100 254.700 C 167.045 254.865,167.412 255.412,167.915 255.915 C 168.418 256.418,168.722 257.003,168.591 257.215 C 168.460 257.427,168.794 257.600,169.334 257.600 C 170.981 257.600,171.166 255.497,169.563 254.988 C 169.034 254.820,168.800 254.375,168.800 253.536 C 168.800 252.662,168.578 252.267,168.000 252.116 C 167.560 252.001,167.200 251.596,167.200 251.215 C 167.200 249.798,165.807 249.066,165.215 250.172 M170.583 258.306 C 169.914 258.777,169.917 260.800,170.586 260.800 C 170.903 260.800,171.461 261.428,171.825 262.196 C 172.190 262.965,172.660 263.486,172.871 263.356 C 173.081 263.226,173.196 263.453,173.127 263.860 C 173.055 264.276,173.212 264.558,173.486 264.505 C 173.753 264.452,173.879 264.651,173.766 264.946 C 173.652 265.240,174.004 265.773,174.547 266.128 C 175.324 266.638,175.495 267.026,175.349 267.953 C 175.247 268.600,175.351 269.246,175.582 269.389 C 175.812 269.531,176.005 269.412,176.012 269.124 C 176.026 268.532,176.648 269.433,176.871 270.366 C 176.942 270.664,177.405 271.360,177.900 271.912 C 178.395 272.465,178.800 273.267,178.800 273.696 C 178.800 274.138,179.145 274.565,179.600 274.684 C 180.040 274.799,180.415 275.097,180.433 275.347 C 180.566 277.157,180.748 277.774,181.262 278.160 C 181.585 278.402,181.968 278.915,182.112 279.300 C 182.267 279.713,182.790 280.000,183.387 280.000 C 184.858 280.000,184.831 278.144,183.352 277.582 C 182.455 277.241,182.338 277.012,182.540 275.999 C 182.717 275.115,182.599 274.721,182.073 274.439 C 181.685 274.232,181.122 273.602,180.821 273.039 C 180.387 272.228,180.071 272.067,179.294 272.262 C 178.404 272.486,178.354 272.433,178.757 271.680 C 179.412 270.457,179.296 269.210,178.500 268.917 C 177.578 268.576,177.214 268.002,177.206 266.876 C 177.203 266.368,177.035 266.055,176.832 266.180 C 176.630 266.305,176.262 265.793,176.014 265.042 C 175.724 264.164,175.238 263.596,174.650 263.448 C 173.889 263.257,173.766 263.012,173.917 261.985 C 174.065 260.974,173.940 260.710,173.229 260.523 C 172.676 260.379,172.276 259.878,172.130 259.148 C 171.903 258.013,171.393 257.735,170.583 258.306 M199.200 276.619 L 199.200 283.238 193.875 283.178 C 187.788 283.109,186.400 282.923,186.400 282.176 C 186.400 281.298,184.696 280.286,184.327 280.946 C 183.785 281.914,184.467 284.090,185.100 283.412 C 185.265 283.235,185.174 283.010,184.898 282.911 C 184.621 282.812,184.497 282.567,184.621 282.366 C 184.893 281.927,185.620 281.875,185.553 282.300 C 185.527 282.465,185.527 283.185,185.553 283.900 L 185.600 285.200 192.600 285.200 L 199.600 285.200 199.600 277.600 C 199.600 273.420,199.510 270.000,199.400 270.000 C 199.290 270.000,199.200 272.979,199.200 276.619 " stroke="none" fill="#2c6499" fill-rule="evenodd"></path><path id="path4" d="M83.772 103.162 C 83.682 103.251,83.606 148.405,83.602 203.504 C 83.599 258.603,83.480 303.890,83.339 304.142 C 83.158 304.466,83.217 304.477,83.541 304.181 C 83.882 303.869,84.024 278.337,84.099 204.181 L 84.200 104.600 106.600 104.486 C 130.701 104.363,131.600 104.403,131.600 105.618 C 131.600 106.185,131.874 106.400,132.600 106.400 C 133.902 106.400,133.923 105.330,132.632 104.742 C 132.071 104.486,131.718 104.028,131.790 103.651 C 131.908 103.043,84.376 102.559,83.772 103.162 M267.000 103.222 C 266.560 103.399,266.436 103.556,266.724 103.572 C 267.022 103.588,267.127 103.815,266.967 104.100 C 266.813 104.375,267.017 104.289,267.420 103.910 C 268.294 103.085,268.106 102.777,267.000 103.222 M133.600 109.000 C 133.600 109.712,133.817 110.000,134.351 110.000 C 135.329 110.000,136.258 111.042,135.517 111.306 C 135.233 111.408,135.121 111.622,135.270 111.782 C 135.418 111.942,135.868 111.882,136.270 111.649 C 136.671 111.415,136.820 111.216,136.600 111.206 C 136.380 111.196,136.470 111.013,136.800 110.800 C 137.236 110.518,137.257 110.411,136.876 110.406 C 136.588 110.403,136.463 110.222,136.597 110.005 C 136.735 109.782,136.583 109.708,136.251 109.836 C 135.636 110.072,134.626 108.707,135.081 108.253 C 135.220 108.114,134.943 108.000,134.467 108.000 C 133.809 108.000,133.600 108.241,133.600 109.000 M263.616 108.581 C 263.351 108.900,263.194 109.460,263.267 109.825 C 263.379 110.384,263.526 110.340,264.200 109.551 C 264.792 108.858,264.818 108.755,264.300 109.156 C 263.872 109.487,263.600 109.531,263.600 109.269 C 263.600 109.033,263.915 108.656,264.300 108.432 C 264.685 108.208,264.797 108.019,264.549 108.012 C 264.301 108.005,263.881 108.261,263.616 108.581 M261.827 111.970 C 261.454 112.383,261.316 112.824,261.520 112.951 C 261.725 113.078,262.199 112.843,262.573 112.430 C 262.946 112.017,263.084 111.576,262.880 111.449 C 262.675 111.322,262.201 111.557,261.827 111.970 M136.803 113.900 C 136.805 114.285,137.222 114.793,137.731 115.028 C 138.493 115.381,138.647 115.345,138.609 114.821 C 138.498 113.312,136.797 112.444,136.803 113.900 M139.732 116.234 C 139.536 116.744,139.423 116.763,139.150 116.334 C 138.926 115.979,138.810 116.236,138.806 117.100 C 138.801 118.135,138.963 118.400,139.600 118.400 C 140.176 118.400,140.400 118.667,140.400 119.353 C 140.400 120.053,140.667 120.358,141.400 120.498 C 141.950 120.603,142.400 120.534,142.400 120.345 C 142.400 120.155,142.198 120.000,141.951 120.000 C 141.621 120.000,141.620 119.858,141.948 119.463 C 142.301 119.037,142.060 118.816,140.784 118.395 C 139.898 118.102,139.331 117.759,139.522 117.632 C 139.893 117.385,140.445 115.600,140.150 115.600 C 140.054 115.600,139.865 115.885,139.732 116.234 M142.186 122.092 C 141.876 122.901,142.249 123.600,142.990 123.600 C 143.289 123.600,143.633 123.825,143.754 124.100 C 143.875 124.375,143.935 124.099,143.887 123.488 C 143.839 122.876,143.640 122.396,143.445 122.422 C 143.249 122.447,142.944 122.233,142.766 121.945 C 142.514 121.537,142.387 121.569,142.186 122.092 M145.600 128.000 C 145.600 128.520,145.867 128.800,146.363 128.800 C 146.928 128.800,147.071 128.593,146.916 128.000 C 146.801 127.560,146.458 127.200,146.153 127.200 C 145.849 127.200,145.600 127.560,145.600 128.000 M147.355 130.934 C 147.381 131.437,147.735 131.891,148.200 132.016 C 148.640 132.135,149.055 132.612,149.122 133.076 C 149.190 133.539,149.594 134.010,150.021 134.121 C 150.548 134.259,150.702 134.174,150.499 133.857 C 148.215 130.282,147.275 129.408,147.355 130.934 M150.800 136.333 C 150.800 137.277,151.136 137.599,151.839 137.330 C 152.724 136.990,152.532 135.600,151.600 135.600 C 151.091 135.600,150.800 135.867,150.800 136.333 M152.403 138.767 C 152.405 138.895,152.835 139.199,153.359 139.442 C 154.146 139.806,154.296 139.777,154.222 139.272 C 154.140 138.714,152.396 138.229,152.403 138.767 M154.500 141.768 C 154.500 142.419,154.678 142.668,155.043 142.528 C 155.445 142.374,155.480 142.123,155.179 141.560 C 154.642 140.558,154.500 140.601,154.500 141.768 M156.000 145.200 C 156.000 145.738,156.267 146.000,156.814 146.000 C 157.504 146.000,157.563 145.878,157.200 145.200 C 156.965 144.760,156.598 144.400,156.386 144.400 C 156.174 144.400,156.000 144.760,156.000 145.200 M157.970 146.100 C 157.648 147.184,157.662 148.103,157.993 147.600 C 158.318 147.106,158.389 147.100,158.394 147.567 C 158.397 147.878,158.516 148.018,158.657 147.876 C 158.798 147.735,158.663 147.311,158.357 146.935 C 157.865 146.330,157.884 146.282,158.521 146.521 C 158.954 146.683,159.144 146.633,158.997 146.395 C 158.781 146.046,158.049 145.835,157.970 146.100 M159.600 150.120 C 159.600 150.783,159.818 151.200,160.165 151.200 C 160.820 151.200,160.768 150.208,160.076 149.516 C 159.708 149.148,159.600 149.285,159.600 150.120 M239.028 149.872 C 238.922 150.148,239.035 150.498,239.279 150.649 C 239.548 150.815,239.611 150.741,239.438 150.462 C 239.271 150.191,239.401 150.000,239.753 150.000 C 240.083 150.000,240.457 149.831,240.585 149.624 C 240.713 149.418,240.458 149.275,240.019 149.309 C 239.580 149.342,239.134 149.595,239.028 149.872 M161.900 153.357 C 161.020 154.025,161.008 154.400,161.867 154.400 C 162.233 154.400,162.415 154.282,162.270 154.137 C 162.125 153.992,162.207 153.632,162.452 153.337 C 163.012 152.662,162.805 152.670,161.900 153.357 M237.294 153.941 C 236.912 154.569,236.465 155.109,236.300 155.141 C 235.763 155.246,235.962 155.748,236.577 155.838 C 236.906 155.886,237.159 155.807,237.140 155.663 C 237.038 154.898,237.279 154.321,238.000 153.600 C 238.440 153.160,238.617 152.800,238.394 152.800 C 238.171 152.800,237.676 153.314,237.294 153.941 M163.796 155.207 C 163.658 155.430,163.377 155.509,163.172 155.383 C 162.968 155.256,162.800 155.433,162.800 155.776 C 162.800 156.684,163.870 156.541,164.116 155.600 C 164.342 154.734,164.198 154.557,163.796 155.207 M234.038 158.555 C 233.710 158.949,233.693 159.211,233.983 159.390 C 234.216 159.533,234.517 159.362,234.652 159.008 C 234.990 158.128,234.619 157.854,234.038 158.555 M164.800 158.957 C 164.800 159.713,165.883 160.082,166.139 159.414 C 166.381 158.783,166.077 158.400,165.333 158.400 C 165.040 158.400,164.800 158.651,164.800 158.957 M168.000 164.100 C 168.000 164.412,168.275 164.667,168.611 164.667 C 169.303 164.667,169.200 163.933,168.475 163.692 C 168.214 163.605,168.000 163.788,168.000 164.100 M229.059 166.713 C 229.133 166.830,229.006 167.152,228.777 167.428 C 228.489 167.775,228.491 168.009,228.783 168.190 C 229.331 168.528,229.829 167.248,229.316 166.823 C 229.101 166.645,228.985 166.596,229.059 166.713 M173.424 172.683 C 173.093 173.543,173.272 173.629,174.112 173.015 C 174.699 172.586,174.722 172.456,174.245 172.273 C 173.926 172.150,173.557 172.334,173.424 172.683 M224.000 175.993 C 223.067 176.716,223.058 176.753,223.872 176.545 C 224.352 176.422,224.841 176.069,224.960 175.761 C 225.232 175.052,225.206 175.058,224.000 175.993 M215.300 190.598 C 214.557 191.442,214.694 191.673,215.600 191.107 C 216.040 190.832,216.400 190.471,216.400 190.304 C 216.400 189.827,215.849 189.975,215.300 190.598 M208.567 201.856 C 208.624 202.241,208.879 202.626,209.135 202.712 C 209.786 202.929,209.716 202.194,209.032 201.627 C 208.576 201.248,208.484 201.293,208.567 201.856 M196.000 208.454 C 196.330 208.754,196.859 209.270,197.175 209.600 C 197.621 210.065,197.614 209.980,197.141 209.222 C 196.806 208.684,196.277 208.168,195.966 208.076 C 195.510 207.941,195.517 208.015,196.000 208.454 M203.067 210.267 C 202.564 210.770,202.800 211.150,203.580 211.092 C 204.169 211.047,204.255 210.907,203.931 210.516 C 203.434 209.918,203.420 209.914,203.067 210.267 M201.119 213.650 C 200.708 213.904,200.716 214.068,201.162 214.483 C 201.577 214.869,201.646 214.874,201.435 214.500 C 201.264 214.197,201.389 214.000,201.753 214.000 C 202.083 214.000,202.445 213.850,202.559 213.667 C 202.820 213.243,201.796 213.231,201.119 213.650 M200.450 251.226 C 200.365 270.493,200.451 285.200,200.650 285.199 C 200.842 285.199,201.022 282.634,201.048 279.499 C 201.074 276.365,201.293 266.150,201.534 256.800 C 202.112 234.335,202.127 219.326,201.572 218.983 C 201.337 218.837,201.022 218.388,200.872 217.985 C 200.722 217.581,200.532 232.540,200.450 251.226 M261.693 220.400 C 261.693 221.170,261.775 221.485,261.876 221.100 C 261.976 220.715,261.976 220.085,261.876 219.700 C 261.775 219.315,261.693 219.630,261.693 220.400 M251.481 220.613 C 251.086 221.156,250.951 221.600,251.181 221.600 C 251.412 221.600,251.603 221.375,251.606 221.100 C 251.611 220.732,251.703 220.743,251.956 221.143 C 252.199 221.526,252.300 221.379,252.300 220.643 C 252.300 220.069,252.278 219.606,252.250 219.613 C 252.222 219.619,251.877 220.069,251.481 220.613 M249.200 223.551 C 249.200 224.072,250.233 224.834,250.533 224.533 C 250.834 224.233,250.072 223.200,249.551 223.200 C 249.358 223.200,249.200 223.358,249.200 223.551 M261.693 224.400 C 261.693 225.170,261.775 225.485,261.876 225.100 C 261.976 224.715,261.976 224.085,261.876 223.700 C 261.775 223.315,261.693 223.630,261.693 224.400 M316.413 233.276 C 316.406 233.648,316.580 234.064,316.800 234.200 C 317.375 234.556,317.311 241.329,316.727 241.913 C 316.466 242.174,316.386 242.519,316.548 242.682 C 317.662 243.795,318.110 234.827,317.013 233.376 C 316.499 232.697,316.424 232.685,316.413 233.276 M261.709 235.600 C 261.709 236.590,261.787 236.995,261.882 236.500 C 261.978 236.005,261.978 235.195,261.882 234.700 C 261.787 234.205,261.709 234.610,261.709 235.600 M261.274 246.276 C 261.340 252.917,261.375 253.283,261.574 249.400 C 261.698 246.980,261.950 244.767,262.134 244.482 C 262.330 244.180,262.269 243.724,261.988 243.386 C 261.675 243.009,261.600 242.192,261.773 241.039 C 261.936 239.951,261.877 239.171,261.619 239.012 C 261.332 238.834,261.223 241.115,261.274 246.276 M238.978 240.835 C 238.831 241.074,238.910 241.470,239.155 241.715 C 239.400 241.960,239.614 242.079,239.631 241.980 C 239.647 241.881,239.722 241.485,239.795 241.100 C 239.943 240.327,239.401 240.151,238.978 240.835 M317.328 249.200 C 317.328 250.630,317.401 251.215,317.489 250.500 C 317.578 249.785,317.578 248.615,317.489 247.900 C 317.401 247.185,317.328 247.770,317.328 249.200 M232.800 252.733 C 232.800 252.990,232.530 253.200,232.200 253.200 C 231.870 253.200,231.600 253.510,231.600 253.889 C 231.600 254.483,231.720 254.457,232.478 253.700 C 232.961 253.217,233.231 252.697,233.078 252.544 C 232.925 252.392,232.800 252.477,232.800 252.733 M262.160 254.534 C 262.338 255.277,262.289 255.579,262.016 255.410 C 261.758 255.250,261.600 255.693,261.600 256.576 C 261.600 257.359,261.799 258.000,262.043 258.000 C 262.286 258.000,262.386 258.261,262.263 258.580 C 262.112 258.974,262.233 259.086,262.643 258.928 C 263.026 258.781,263.142 258.460,262.959 258.048 C 262.802 257.692,262.632 256.626,262.582 255.679 C 262.532 254.732,262.355 253.832,262.189 253.679 C 262.023 253.526,262.010 253.910,262.160 254.534 M316.501 255.400 C 316.505 256.280,316.587 256.593,316.683 256.095 C 316.779 255.598,316.775 254.878,316.675 254.495 C 316.575 254.113,316.496 254.520,316.501 255.400 M317.757 262.000 C 317.757 264.970,317.820 266.185,317.897 264.700 C 317.974 263.215,317.974 260.785,317.897 259.300 C 317.820 257.815,317.757 259.030,317.757 262.000 M316.909 260.000 C 316.909 260.990,316.987 261.395,317.082 260.900 C 317.178 260.405,317.178 259.595,317.082 259.100 C 316.987 258.605,316.909 259.010,316.909 260.000 M262.468 262.600 C 262.498 263.040,262.391 263.702,262.230 264.071 C 262.069 264.440,262.016 265.160,262.114 265.671 C 262.240 266.333,262.308 266.197,262.352 265.200 C 262.398 264.138,262.506 263.945,262.800 264.400 C 263.321 265.207,263.304 263.751,262.778 262.600 L 262.413 261.800 262.468 262.600 M316.400 270.467 C 316.400 271.310,316.567 272.000,316.771 272.000 C 316.975 272.000,317.224 272.315,317.324 272.700 C 317.425 273.085,317.528 272.395,317.554 271.167 C 317.590 269.428,317.467 268.933,317.000 268.933 C 316.571 268.933,316.400 269.370,316.400 270.467 M261.709 271.200 C 261.709 272.190,261.787 272.595,261.882 272.100 C 261.978 271.605,261.978 270.795,261.882 270.300 C 261.787 269.805,261.709 270.210,261.709 271.200 M262.006 274.476 C 262.003 275.068,262.180 275.664,262.400 275.800 C 262.911 276.116,262.911 274.790,262.400 274.000 C 262.097 273.531,262.011 273.634,262.006 274.476 M218.900 275.612 C 218.405 275.811,218.014 276.205,218.032 276.487 C 218.056 276.892,218.106 276.894,218.266 276.498 C 218.377 276.221,218.613 276.084,218.789 276.193 C 218.965 276.302,219.332 276.123,219.604 275.796 C 220.163 275.121,220.139 275.115,218.900 275.612 M316.736 278.600 C 316.592 280.140,316.547 281.475,316.636 281.567 C 317.074 282.013,317.228 281.049,317.119 278.547 L 317.000 275.800 316.736 278.600 M316.840 292.876 C 316.910 295.903,317.515 296.950,317.560 294.124 C 317.582 292.762,317.420 291.536,317.200 291.400 C 316.955 291.249,316.815 291.820,316.840 292.876 M317.206 299.433 C 317.209 300.735,317.371 302.050,317.565 302.356 C 317.777 302.691,317.833 301.816,317.706 300.156 C 317.440 296.689,317.198 296.339,317.206 299.433 " stroke="none" fill="#3474bc" fill-rule="evenodd"></path></g></svg>