<!-- <svg viewBox="0 0 119 40" fill="none" xmlns="http://www.w3.org/2000/svg">
<path d="M6.29798 0L0 6.36371H31.8841L38.1818 0H6.29798Z" fill="#13BEBB"/>
<path d="M18.3033 39.9567C26.1372 39.9567 28.1071 36.8068 28.1071 32.4921C28.1071 27.1847 23.3171 26.1924 19.333 25.545C16.2888 25.0271 14.9011 24.7683 14.9011 22.913C14.9011 21.5323 16.1097 21.0144 18.0795 21.0144C20.4969 21.0144 21.1683 21.7049 21.3923 23.7328L27.749 22.7835C27.2115 18.4255 24.7495 16.2249 18.2585 16.2249C11.141 16.2249 8.63409 19.0727 8.63409 23.6033C8.58946 29.4717 14.1403 30.0756 18.2585 30.7658C20.81 31.2409 21.7952 31.6719 21.7952 33.3549C21.7952 34.7359 20.9447 35.34 18.3928 35.34C15.5726 35.34 14.7221 34.8653 14.364 32.5783L8.18652 33.4844C8.7684 38.1014 11.4991 39.9567 18.3033 39.9567Z" fill="white"/>
<path d="M38.794 35.2108C35.7944 35.2108 34.7204 34.5635 34.7204 32.4061C34.7204 30.4644 35.7944 29.6877 39.0177 29.6877H42.2408V31.9315C42.2408 34.0889 41.1665 35.2108 38.794 35.2108ZM36.0184 39.9571C39.5101 39.9571 41.0771 38.8351 42.1962 37.1954V39.655H48.5078V24.0352C48.5078 18.8141 46.4933 16.1821 39.5101 16.1821C32.7505 16.1821 30.3782 18.0805 29.438 22.7406L35.7052 23.69C36.1079 21.7052 36.69 21.1009 39.2864 21.1009C41.7932 21.1009 42.1962 22.1365 42.1962 23.8626V25.4592H39.2415C31.2287 25.4592 28.4978 27.8755 28.4978 32.7943C28.4978 37.6269 30.9601 39.9571 36.0184 39.9571Z" fill="white"/>
<path d="M50.1196 39.6545H56.566V6.36353L50.1196 12.727V39.6545Z" fill="white"/>
<path d="M64.4442 25.5879V24.4231C64.4442 22.3952 65.3844 21.0143 68.2046 21.0143C70.9352 21.0143 71.8308 22.1793 71.8308 24.4231V25.5879H64.4442ZM68.2046 39.9999C75.6357 39.9999 77.6054 36.548 78.0529 33.0961L71.9203 32.1899C71.6516 34.2609 71.2487 35.3398 68.2046 35.3398C65.116 35.3398 64.4442 33.8294 64.4442 31.8448V29.9462H78.0529V25.8038C78.0529 20.022 75.7698 16.1816 68.2046 16.1816C60.729 16.1816 58.1772 20.0651 58.1772 24.9841V31.1974C58.1772 35.9872 60.7736 39.9999 68.2046 39.9999Z" fill="white"/>
<path d="M90.0053 39.9999C97.3914 39.9999 100.435 36.2459 100.435 31.1974V24.9841C100.435 19.8494 97.3914 16.1816 90.0053 16.1816C82.6188 16.1816 79.6646 19.8494 79.6646 24.9841V31.1974C79.6646 36.2459 82.5742 39.9999 90.0053 39.9999ZM90.0053 34.9947C87.4088 34.9947 86.1107 33.6571 86.1107 31.4997V24.8548C86.1107 22.6542 87.4088 21.3165 90.0053 21.3165C92.6017 21.3165 93.9892 22.6542 93.9892 24.8548V31.4997C93.9892 33.6571 92.6017 34.9947 90.0053 34.9947Z" fill="white"/>
<path fill-rule="evenodd" clip-rule="evenodd" d="M111.948 22.767H108.493V39.5199H102.047V22.767L108.345 16.4033H118.246L111.948 22.767Z" fill="white"/>
</svg> -->
<svg id="svg" xmlns="http://www.w3.org/2000/svg" xmlns:xlink="http://www.w3.org/1999/xlink" width="400" height="299.78586723768734" viewBox="0, 0, 400,299.78586723768734"><g id="svgg"><path id="path0" d="M300.998 2.944 C 300.723 3.224,300.407 3.813,300.297 4.254 C 300.186 4.694,299.906 5.127,299.673 5.216 C 299.441 5.305,299.250 5.585,299.250 5.838 C 299.250 6.090,299.148 6.297,299.024 6.297 C 298.899 6.297,298.604 6.735,298.369 7.271 C 297.932 8.264,295.376 12.621,295.070 12.894 C 294.977 12.976,294.700 13.448,294.453 13.943 C 294.206 14.438,293.932 14.910,293.844 14.993 C 293.534 15.284,291.454 18.937,291.454 19.190 C 291.454 19.332,291.259 19.643,291.021 19.881 C 290.539 20.362,288.938 23.082,288.382 24.363 C 288.186 24.816,287.929 25.187,287.812 25.187 C 287.597 25.187,287.405 25.510,285.814 28.542 C 285.322 29.479,284.838 30.165,284.739 30.066 C 284.639 29.966,284.558 30.100,284.558 30.363 C 284.558 30.626,284.378 31.021,284.159 31.240 C 283.940 31.460,283.569 31.996,283.334 32.432 C 283.100 32.868,282.539 33.921,282.087 34.772 C 281.635 35.622,281.062 36.522,280.813 36.771 C 280.564 37.020,280.360 37.417,280.360 37.653 C 280.360 37.888,280.240 38.081,280.093 38.081 C 279.946 38.081,279.619 38.587,279.367 39.205 C 279.115 39.824,278.560 40.795,278.135 41.363 C 277.709 41.931,277.361 42.572,277.361 42.787 C 277.361 43.002,277.252 43.178,277.117 43.178 C 276.983 43.178,276.688 43.651,276.462 44.228 C 276.235 44.805,275.949 45.277,275.826 45.277 C 275.703 45.277,275.507 45.578,275.390 45.946 C 275.157 46.681,274.044 48.367,273.688 48.526 C 273.564 48.581,273.463 48.760,273.463 48.923 C 273.463 49.307,270.999 53.492,270.695 53.623 C 270.569 53.678,270.465 53.905,270.465 54.127 C 270.465 54.348,270.295 54.708,270.086 54.926 C 269.878 55.144,269.542 55.660,269.339 56.072 C 268.930 56.903,268.507 57.617,267.703 58.833 C 267.408 59.280,267.166 59.854,267.166 60.108 C 267.166 60.362,267.041 60.570,266.887 60.570 C 266.733 60.570,266.512 60.873,266.397 61.244 C 266.281 61.615,266.091 61.987,265.976 62.069 C 265.860 62.151,265.182 63.231,264.468 64.468 C 263.754 65.705,263.065 66.787,262.938 66.873 C 262.810 66.958,262.557 67.363,262.375 67.772 C 261.970 68.681,261.316 69.841,260.824 70.527 C 260.214 71.376,258.785 73.858,258.400 74.738 C 258.202 75.191,257.949 75.562,257.838 75.562 C 257.727 75.562,257.552 75.900,257.448 76.312 C 257.345 76.724,257.128 77.061,256.966 77.061 C 256.804 77.061,256.672 77.199,256.672 77.368 C 256.672 77.684,255.187 80.091,254.824 80.363 C 254.712 80.447,254.530 80.876,254.420 81.316 C 254.309 81.756,254.041 82.184,253.824 82.267 C 253.607 82.350,253.341 82.821,253.233 83.313 C 253.125 83.805,252.843 84.282,252.605 84.373 C 252.368 84.464,252.174 84.813,252.174 85.148 C 252.174 85.483,252.070 85.757,251.943 85.757 C 251.816 85.757,251.270 86.533,250.730 87.481 C 248.737 90.976,248.182 91.907,248.006 92.054 C 247.907 92.136,247.421 93.013,246.927 94.003 C 246.432 94.993,245.958 95.870,245.874 95.952 C 245.568 96.253,244.198 98.531,243.621 99.700 C 243.295 100.360,242.860 101.007,242.654 101.139 C 242.448 101.271,242.279 101.575,242.279 101.814 C 242.279 102.053,242.153 102.249,241.999 102.249 C 241.845 102.249,241.625 102.552,241.509 102.924 C 241.393 103.295,241.204 103.666,241.088 103.748 C 240.973 103.831,240.467 104.640,239.964 105.547 C 238.594 108.017,235.162 113.744,234.813 114.142 C 234.645 114.334,234.422 114.831,234.318 115.245 C 234.214 115.659,233.939 116.072,233.706 116.161 C 233.474 116.250,233.283 116.518,233.283 116.757 C 233.283 116.996,233.182 117.236,233.058 117.291 C 232.935 117.346,232.429 118.201,231.934 119.190 C 231.439 120.180,230.946 121.030,230.837 121.080 C 230.729 121.130,230.268 121.906,229.814 122.804 C 229.359 123.703,228.875 124.438,228.737 124.438 C 228.599 124.438,228.486 124.620,228.486 124.842 C 228.486 125.064,228.216 125.557,227.886 125.937 C 227.556 126.317,227.286 126.801,227.286 127.011 C 227.286 127.221,227.118 127.577,226.912 127.802 C 226.389 128.373,225.842 129.254,225.468 130.129 C 225.293 130.538,225.057 130.943,224.944 131.028 C 224.830 131.114,224.411 131.792,224.012 132.534 C 223.614 133.276,223.040 134.205,222.738 134.598 C 222.436 134.991,222.189 135.497,222.189 135.723 C 222.189 135.948,222.082 136.132,221.952 136.132 C 221.821 136.132,221.339 136.840,220.879 137.706 C 219.380 140.531,219.046 141.076,218.666 141.319 C 218.460 141.451,218.291 141.822,218.291 142.144 C 218.291 142.465,218.165 142.729,218.011 142.729 C 217.857 142.729,217.638 143.025,217.523 143.386 C 217.408 143.748,216.859 144.691,216.303 145.482 C 215.747 146.273,215.292 147.057,215.292 147.223 C 215.292 147.390,215.167 147.526,215.013 147.526 C 214.859 147.526,214.638 147.830,214.523 148.201 C 214.251 149.073,210.155 156.041,209.837 156.172 C 209.704 156.227,209.595 156.446,209.595 156.660 C 209.595 156.873,209.400 157.210,209.161 157.409 C 208.922 157.607,208.565 158.264,208.369 158.870 C 208.172 159.475,207.828 160.078,207.604 160.210 C 207.380 160.342,207.196 160.645,207.196 160.884 C 207.196 161.124,207.084 161.319,206.946 161.319 C 206.808 161.319,206.309 162.095,205.836 163.043 C 205.364 163.992,204.701 165.172,204.362 165.667 C 203.484 166.951,203.086 167.622,202.498 168.816 C 202.213 169.393,201.896 169.933,201.793 170.015 C 201.690 170.097,201.513 170.415,201.400 170.721 C 201.279 171.047,201.015 171.208,200.760 171.110 C 200.287 170.928,200.509 171.796,201.230 172.952 C 201.511 173.402,201.514 178.531,201.240 196.135 C 201.047 208.568,200.891 225.352,200.894 233.433 C 200.896 241.514,200.810 252.476,200.701 257.792 L 200.503 267.458 190.431 267.539 C 183.098 267.598,185.526 267.660,199.364 267.768 C 215.663 267.895,218.391 267.855,218.532 267.487 C 218.622 267.251,219.145 266.377,219.693 265.545 C 220.241 264.713,220.690 263.860,220.690 263.650 C 220.690 263.440,220.808 263.268,220.953 263.268 C 221.098 263.268,221.384 262.864,221.589 262.369 C 221.794 261.874,222.070 261.469,222.201 261.469 C 222.333 261.469,222.530 261.064,222.639 260.570 C 222.747 260.075,222.930 259.670,223.044 259.670 C 223.158 259.670,223.585 259.029,223.994 258.246 C 224.403 257.463,224.906 256.714,225.112 256.582 C 225.319 256.450,225.487 256.156,225.487 255.929 C 225.487 255.701,225.657 255.337,225.866 255.119 C 226.074 254.901,226.412 254.385,226.618 253.973 C 226.824 253.561,227.260 252.819,227.586 252.324 C 227.913 251.829,228.347 251.087,228.551 250.675 C 228.756 250.262,229.003 249.858,229.101 249.775 C 229.199 249.693,229.373 249.423,229.488 249.175 C 229.603 248.928,230.025 248.186,230.425 247.526 C 230.826 246.867,231.304 245.992,231.488 245.583 C 231.671 245.174,231.914 244.770,232.028 244.684 C 232.324 244.460,232.906 243.481,233.414 242.354 C 233.655 241.818,233.980 241.379,234.135 241.379 C 234.291 241.379,234.511 241.010,234.624 240.558 C 234.737 240.106,234.932 239.667,235.057 239.583 C 235.181 239.499,236.149 237.967,237.207 236.180 C 238.265 234.392,239.367 232.570,239.655 232.132 C 239.944 231.693,240.351 230.997,240.558 230.585 C 240.766 230.172,241.306 229.264,241.758 228.567 C 242.209 227.869,242.579 227.161,242.579 226.992 C 242.579 226.824,242.722 226.687,242.896 226.687 C 243.071 226.687,243.150 226.584,243.073 226.458 C 242.995 226.332,243.526 225.354,244.254 224.284 C 244.981 223.214,245.577 222.170,245.577 221.964 C 245.577 221.758,245.696 221.589,245.841 221.589 C 245.986 221.589,246.283 221.151,246.503 220.615 C 246.722 220.079,247.076 219.462,247.289 219.244 C 247.502 219.026,247.676 218.647,247.676 218.402 C 247.676 218.156,247.811 218.039,247.976 218.141 C 248.141 218.243,248.276 218.161,248.276 217.960 C 248.276 217.636,250.210 214.239,251.646 212.042 C 251.933 211.604,252.333 210.907,252.535 210.495 C 252.737 210.082,253.241 209.205,253.655 208.546 C 254.069 207.886,254.559 207.076,254.745 206.747 C 254.930 206.417,255.512 205.405,256.038 204.498 C 256.563 203.591,257.145 202.545,257.330 202.174 C 257.516 201.803,257.770 201.499,257.896 201.499 C 258.022 201.499,258.280 201.027,258.471 200.450 C 258.661 199.873,258.942 199.400,259.094 199.400 C 259.246 199.400,259.370 199.267,259.370 199.104 C 259.370 198.941,260.112 197.614,261.019 196.154 C 261.927 194.695,262.669 193.344,262.669 193.152 C 262.669 192.960,262.793 192.804,262.946 192.804 C 263.098 192.804,263.604 192.028,264.070 191.079 C 264.536 190.131,265.086 189.177,265.292 188.959 C 265.499 188.741,265.667 188.428,265.667 188.263 C 265.667 188.098,265.836 187.775,266.042 187.545 C 266.835 186.661,267.051 186.326,267.439 185.382 C 267.659 184.846,267.957 184.408,268.102 184.408 C 268.247 184.408,268.366 184.222,268.366 183.995 C 268.366 183.768,268.567 183.415,268.812 183.211 C 269.058 183.007,269.185 182.721,269.094 182.575 C 269.004 182.428,269.073 182.309,269.248 182.309 C 269.422 182.309,269.565 182.106,269.565 181.859 C 269.565 181.612,269.708 181.409,269.883 181.409 C 270.057 181.409,270.117 181.274,270.015 181.109 C 269.913 180.945,269.963 180.810,270.127 180.810 C 270.291 180.810,270.519 180.506,270.635 180.135 C 270.751 179.764,270.940 179.393,271.056 179.310 C 271.171 179.228,271.850 178.148,272.565 176.912 C 273.279 175.675,273.976 174.618,274.113 174.563 C 274.251 174.508,274.363 174.225,274.363 173.934 C 274.363 173.643,274.636 173.090,274.971 172.704 C 275.305 172.319,275.657 171.691,275.753 171.309 C 275.849 170.927,276.038 170.615,276.174 170.615 C 276.310 170.615,276.516 170.311,276.632 169.940 C 276.748 169.569,276.939 169.198,277.057 169.115 C 277.175 169.033,277.596 168.400,277.991 167.709 C 278.387 167.018,279.723 164.753,280.960 162.677 C 282.196 160.601,283.343 158.667,283.508 158.380 C 283.673 158.093,284.088 157.457,284.430 156.965 C 284.773 156.474,285.228 155.633,285.441 155.097 C 285.655 154.561,285.946 154.123,286.088 154.123 C 286.229 154.123,286.430 153.786,286.534 153.373 C 286.637 152.961,286.826 152.624,286.954 152.624 C 287.082 152.624,287.264 152.388,287.359 152.099 C 287.696 151.075,288.975 149.045,289.163 149.233 C 289.269 149.339,289.355 149.219,289.355 148.966 C 289.355 148.713,289.625 148.164,289.955 147.744 C 290.285 147.325,290.555 146.777,290.555 146.526 C 290.555 146.275,290.723 145.892,290.930 145.674 C 291.136 145.456,291.479 144.940,291.693 144.528 C 293.276 141.471,293.239 141.256,293.248 153.523 C 293.259 168.904,293.571 245.650,293.676 258.771 C 293.722 264.625,293.872 269.674,294.008 269.989 C 294.164 270.353,294.145 270.495,293.956 270.378 C 293.673 270.204,293.677 271.417,293.966 273.538 C 294.027 273.992,294.095 279.355,294.115 285.457 L 294.153 296.552 332.666 296.552 L 371.179 296.552 371.077 269.040 C 371.021 253.909,370.946 241.462,370.910 241.379 C 370.727 240.956,370.797 240.306,371.045 240.128 C 371.215 240.006,371.195 239.768,370.995 239.527 C 370.756 239.240,370.655 219.413,370.631 168.215 C 370.613 129.213,370.546 93.051,370.483 87.856 C 370.419 82.661,370.353 61.308,370.337 40.405 L 370.306 2.399 335.903 2.417 C 303.943 2.433,301.464 2.471,300.998 2.944 M189.805 153.994 C 189.805 154.089,190.007 154.368,190.255 154.616 C 190.743 155.104,190.804 155.031,190.523 154.297 C 190.352 153.852,189.805 153.621,189.805 153.994 M195.711 163.701 C 195.799 164.040,195.991 164.318,196.137 164.318 C 196.541 164.318,196.453 163.834,195.976 163.438 C 195.626 163.148,195.578 163.195,195.711 163.701 " stroke="none" fill="#3b8bd3" fill-rule="evenodd"></path><path id="path1" d="M28.933 73.763 C 28.933 113.096,28.968 129.187,29.010 109.520 C 29.053 89.854,29.053 57.672,29.010 38.006 C 28.968 18.340,28.933 34.430,28.933 73.763 M29.385 149.475 L 29.385 295.952 67.616 295.952 L 105.846 295.952 105.921 220.765 C 105.963 179.412,106.107 145.847,106.241 146.177 C 106.802 147.554,107.800 149.325,108.015 149.325 C 108.142 149.325,108.246 149.454,108.246 149.612 C 108.246 149.861,109.286 151.590,109.968 152.474 C 110.095 152.639,110.366 153.111,110.570 153.523 C 110.975 154.344,111.608 155.386,111.844 155.622 C 112.022 155.800,112.870 157.265,113.406 158.321 C 113.615 158.733,113.923 159.234,114.089 159.435 C 114.895 160.403,115.042 160.637,115.415 161.544 C 115.635 162.080,115.933 162.519,116.078 162.519 C 116.223 162.519,116.342 162.725,116.342 162.978 C 116.342 163.230,116.532 163.510,116.765 163.599 C 116.997 163.689,117.278 164.121,117.388 164.561 C 117.498 165.001,117.688 165.430,117.810 165.514 C 118.019 165.659,119.748 168.494,120.386 169.738 C 120.549 170.055,120.785 170.315,120.911 170.315 C 121.036 170.315,121.139 170.453,121.139 170.621 C 121.139 170.912,122.588 173.296,122.958 173.613 C 123.054 173.696,123.223 174.008,123.333 174.307 C 123.444 174.606,123.673 174.765,123.843 174.659 C 124.014 174.554,124.122 174.579,124.084 174.715 C 123.964 175.146,124.772 177.211,125.061 177.211 C 125.213 177.211,125.337 177.381,125.337 177.589 C 125.337 177.797,125.651 178.306,126.035 178.720 C 126.419 179.133,126.677 179.638,126.610 179.841 C 126.542 180.044,126.611 180.210,126.763 180.210 C 126.916 180.210,127.197 180.555,127.389 180.976 C 127.582 181.398,127.871 181.661,128.034 181.561 C 128.205 181.455,128.251 181.582,128.144 181.861 C 128.015 182.195,128.164 182.398,128.622 182.518 C 129.124 182.650,129.189 182.755,128.886 182.950 C 128.612 183.127,128.587 183.279,128.807 183.433 C 128.984 183.557,129.216 183.894,129.323 184.183 C 129.429 184.472,129.731 184.708,129.993 184.708 C 130.256 184.708,130.384 184.847,130.279 185.016 C 130.105 185.298,131.448 187.953,131.943 188.306 C 132.058 188.388,132.241 188.738,132.348 189.082 C 132.456 189.427,132.881 189.890,133.294 190.111 C 133.780 190.371,133.923 190.587,133.700 190.725 C 133.511 190.842,133.451 191.090,133.566 191.276 C 133.680 191.462,133.904 191.534,134.061 191.437 C 134.219 191.339,134.328 191.371,134.305 191.507 C 134.191 192.162,134.380 192.504,134.858 192.508 C 135.308 192.512,135.318 192.556,134.933 192.814 C 134.540 193.076,134.550 193.154,135.007 193.424 C 135.296 193.594,135.532 193.929,135.532 194.168 C 135.532 194.407,135.730 194.603,135.973 194.603 C 136.241 194.603,136.346 194.778,136.240 195.052 C 136.145 195.300,136.187 195.502,136.333 195.502 C 136.478 195.502,136.864 196.109,137.189 196.851 C 137.553 197.681,137.930 198.144,138.168 198.055 C 138.381 197.976,138.533 198.077,138.507 198.281 C 138.386 199.222,138.525 199.574,138.831 199.100 C 139.058 198.749,139.122 198.829,139.126 199.466 C 139.129 200.066,139.249 200.236,139.580 200.108 C 139.828 200.014,140.030 200.085,140.030 200.268 C 140.030 200.450,139.899 200.600,139.740 200.600 C 139.580 200.600,139.525 200.798,139.618 201.040 C 139.711 201.282,139.943 201.451,140.133 201.415 C 140.324 201.379,140.444 201.569,140.400 201.838 C 140.354 202.118,140.579 202.394,140.926 202.485 C 141.331 202.591,141.471 202.801,141.348 203.121 C 141.223 203.448,141.340 203.606,141.722 203.622 C 142.038 203.635,142.117 203.711,141.904 203.797 C 141.334 204.027,141.456 204.409,142.159 204.593 C 142.506 204.683,142.702 204.898,142.595 205.071 C 142.314 205.526,142.929 206.525,143.628 206.747 C 143.958 206.851,144.228 207.079,144.228 207.253 C 144.228 207.437,144.019 207.397,143.729 207.158 C 143.276 206.785,143.264 206.810,143.594 207.430 C 143.794 207.805,144.071 208.043,144.209 207.958 C 144.587 207.724,145.211 208.617,144.957 209.029 C 144.806 209.272,144.863 209.309,145.132 209.143 C 145.420 208.964,145.477 209.034,145.338 209.396 C 145.224 209.693,145.294 209.896,145.512 209.897 C 146.048 209.900,146.975 211.625,146.528 211.790 C 146.275 211.883,146.294 212.034,146.596 212.331 C 146.860 212.592,146.937 212.606,146.803 212.369 C 146.687 212.163,146.734 211.994,146.909 211.994 C 147.223 211.994,147.343 212.392,147.249 213.118 C 147.222 213.325,147.442 213.495,147.738 213.498 C 148.195 213.502,148.208 213.546,147.826 213.793 C 147.469 214.024,147.462 214.085,147.791 214.088 C 148.300 214.094,149.238 215.140,149.507 216.003 C 149.616 216.354,149.856 216.743,150.040 216.867 C 150.274 217.024,150.240 217.190,149.925 217.420 C 149.539 217.701,149.547 217.725,149.978 217.587 C 150.686 217.362,151.394 218.237,150.805 218.609 C 150.418 218.854,150.616 219.016,151.194 218.928 C 151.626 218.862,152.488 220.485,152.091 220.617 C 151.887 220.685,151.793 220.858,151.882 221.002 C 151.971 221.146,152.265 221.178,152.535 221.074 C 152.922 220.926,152.981 221.007,152.810 221.453 C 152.690 221.765,152.687 221.926,152.803 221.810 C 152.919 221.694,153.185 221.832,153.393 222.117 C 153.676 222.504,153.684 222.689,153.425 222.849 C 153.171 223.006,153.190 223.167,153.495 223.451 C 153.806 223.740,153.858 223.743,153.699 223.463 C 153.418 222.965,153.763 222.985,154.275 223.498 C 154.580 223.803,154.598 223.993,154.344 224.247 C 154.089 224.501,154.113 224.590,154.438 224.597 C 155.065 224.611,156.152 226.160,155.652 226.327 C 155.408 226.408,155.512 226.579,155.937 226.796 C 156.304 226.983,156.574 227.256,156.537 227.403 C 156.501 227.549,156.651 227.785,156.871 227.927 C 157.199 228.139,157.190 228.239,156.822 228.481 C 156.448 228.727,156.473 228.777,156.972 228.781 C 157.375 228.785,157.841 229.267,158.396 230.254 C 159.309 231.880,159.403 232.224,158.846 231.904 C 158.628 231.778,158.575 231.802,158.721 231.961 C 158.858 232.111,159.126 232.234,159.315 232.234 C 159.504 232.234,160.224 233.178,160.913 234.333 C 161.602 235.487,162.287 236.567,162.434 236.732 C 162.582 236.897,162.896 237.470,163.133 238.006 C 163.371 238.542,163.667 238.981,163.791 238.981 C 163.916 238.981,164.018 239.121,164.018 239.293 C 164.018 239.464,164.322 240.023,164.693 240.535 C 165.175 241.200,165.260 241.503,164.991 241.598 C 164.783 241.671,164.687 241.848,164.775 241.992 C 164.864 242.135,165.101 242.196,165.302 242.127 C 165.651 242.008,167.016 243.817,167.016 244.399 C 167.016 244.552,167.159 244.678,167.334 244.678 C 167.509 244.678,167.568 244.813,167.466 244.978 C 167.364 245.142,167.393 245.277,167.530 245.277 C 167.667 245.277,168.110 245.885,168.516 246.627 C 168.921 247.369,169.342 247.976,169.451 247.976 C 169.561 247.976,169.732 248.304,169.833 248.705 C 169.934 249.105,170.184 249.617,170.390 249.842 C 170.596 250.066,170.926 250.514,171.123 250.837 C 171.319 251.160,172.264 252.706,173.222 254.272 C 174.179 255.838,175.016 257.255,175.082 257.421 C 175.148 257.586,175.295 257.789,175.408 257.871 C 175.521 257.954,176.209 259.011,176.937 260.221 C 178.284 262.458,178.795 263.300,180.313 265.775 L 181.166 267.166 190.733 267.166 L 200.300 267.166 200.309 252.999 C 200.314 245.206,200.442 224.083,200.594 206.057 C 200.866 173.872,200.861 173.267,200.288 172.324 C 199.967 171.796,199.538 171.027,199.334 170.615 C 199.130 170.202,198.889 169.798,198.799 169.715 C 198.709 169.633,197.872 168.275,196.938 166.698 C 196.005 165.120,194.761 163.100,194.173 162.207 C 193.585 161.314,193.103 160.473,193.103 160.339 C 193.103 160.205,192.961 159.932,192.786 159.732 C 192.466 159.367,190.713 156.510,186.153 148.923 C 184.781 146.641,183.456 144.460,183.208 144.078 C 182.961 143.696,181.893 141.920,180.835 140.132 C 179.777 138.344,178.823 136.814,178.714 136.732 C 178.606 136.649,178.428 136.379,178.320 136.132 C 178.212 135.885,177.817 135.189,177.443 134.586 C 177.068 133.984,175.615 131.576,174.213 129.237 C 172.811 126.897,171.429 124.624,171.143 124.186 C 170.856 123.747,170.454 123.051,170.249 122.639 C 170.045 122.226,169.796 121.822,169.696 121.739 C 169.596 121.657,168.649 120.126,167.591 118.337 C 166.533 116.548,165.397 114.653,165.067 114.126 C 164.738 113.598,163.388 111.374,162.069 109.182 C 160.750 106.991,159.468 104.884,159.220 104.500 C 158.539 103.442,155.753 98.828,152.067 92.654 C 150.246 89.603,148.647 86.964,148.516 86.790 C 148.183 86.351,147.891 85.874,145.065 81.156 C 143.698 78.872,142.272 76.511,141.898 75.908 C 141.523 75.306,141.128 74.610,141.020 74.363 C 140.912 74.115,140.741 73.846,140.640 73.763 C 140.539 73.681,139.585 72.155,138.519 70.374 C 137.454 68.592,136.221 66.568,135.781 65.876 C 135.340 65.184,134.969 64.449,134.956 64.243 C 134.943 64.037,134.814 63.868,134.669 63.868 C 134.524 63.868,134.228 63.430,134.011 62.894 C 133.795 62.358,133.531 61.852,133.425 61.769 C 133.319 61.687,132.636 60.622,131.908 59.404 C 131.180 58.185,130.275 56.701,129.897 56.105 C 129.519 55.510,129.132 54.786,129.038 54.498 C 128.943 54.209,128.768 53.973,128.649 53.973 C 128.410 53.973,127.736 52.622,127.736 52.142 C 127.736 51.975,127.871 51.922,128.036 52.024 C 128.201 52.126,128.336 52.057,128.336 51.872 C 128.336 51.686,128.100 51.608,127.811 51.699 C 127.110 51.920,126.125 50.308,126.642 49.787 C 126.902 49.525,126.864 49.486,126.489 49.629 C 126.149 49.759,125.929 49.622,125.794 49.197 C 125.686 48.855,125.471 48.576,125.317 48.576 C 125.163 48.576,125.037 48.394,125.037 48.172 C 125.037 47.950,124.760 47.448,124.420 47.056 C 124.081 46.665,123.864 46.109,123.940 45.821 C 124.015 45.533,123.943 45.327,123.779 45.363 C 123.616 45.398,123.326 45.157,123.136 44.828 C 122.945 44.498,122.721 44.160,122.638 44.078 C 121.966 43.408,121.641 42.223,122.053 41.940 C 122.393 41.706,122.357 41.676,121.889 41.805 C 121.116 42.017,120.095 40.446,120.645 39.892 C 120.905 39.630,120.848 39.598,120.413 39.764 C 119.950 39.941,119.875 39.882,120.034 39.467 C 120.144 39.182,120.127 39.015,119.997 39.095 C 119.867 39.176,119.597 38.980,119.398 38.661 C 119.179 38.311,119.155 38.081,119.338 38.081 C 119.504 38.081,119.640 37.938,119.640 37.763 C 119.640 37.589,119.501 37.532,119.332 37.636 C 119.162 37.741,118.762 37.513,118.442 37.129 C 117.804 36.363,117.634 35.519,118.187 35.861 C 118.403 35.994,118.452 35.943,118.316 35.724 C 118.197 35.531,117.984 35.444,117.843 35.531 C 117.702 35.618,117.298 35.283,116.944 34.786 C 116.354 33.957,116.376 33.740,117.039 33.855 C 117.175 33.879,117.204 33.766,117.104 33.604 C 117.004 33.442,116.730 33.383,116.495 33.474 C 116.215 33.581,116.000 33.370,115.872 32.861 C 115.765 32.434,115.573 32.084,115.446 32.084 C 115.094 32.084,114.459 30.364,114.679 30.007 C 114.801 29.810,114.680 29.766,114.356 29.891 C 113.943 30.049,113.883 29.975,114.057 29.521 C 114.177 29.209,114.180 29.049,114.063 29.165 C 113.684 29.544,113.057 28.381,113.411 27.955 C 113.649 27.668,113.615 27.616,113.275 27.747 C 112.793 27.931,112.315 27.138,112.615 26.652 C 112.710 26.498,112.626 26.409,112.429 26.454 C 112.231 26.500,112.001 26.349,111.918 26.120 C 111.825 25.865,111.898 25.785,112.105 25.913 C 112.291 26.028,112.444 25.965,112.444 25.773 C 112.444 25.580,112.245 25.499,112.002 25.593 C 111.747 25.691,111.367 25.486,111.103 25.108 C 110.564 24.338,110.504 23.866,110.983 24.162 C 111.191 24.290,111.264 24.210,111.171 23.955 C 111.088 23.726,110.875 23.569,110.699 23.608 C 110.522 23.646,110.091 23.275,109.741 22.783 C 109.391 22.291,109.249 21.889,109.425 21.889 C 109.601 21.889,109.745 21.758,109.745 21.599 C 109.745 21.439,109.555 21.381,109.322 21.470 C 109.060 21.571,108.817 21.369,108.682 20.936 C 108.563 20.553,108.379 20.172,108.273 20.090 C 107.657 19.607,107.088 18.325,107.429 18.187 C 107.631 18.105,107.546 18.028,107.239 18.015 C 106.840 17.998,106.738 17.846,106.880 17.475 C 106.989 17.192,106.988 17.050,106.877 17.161 C 106.766 17.272,106.456 17.144,106.189 16.876 C 105.832 16.520,105.802 16.357,106.075 16.266 C 106.279 16.198,106.447 16.004,106.447 15.835 C 106.447 15.666,106.266 15.597,106.045 15.682 C 105.815 15.770,105.424 15.464,105.129 14.965 C 104.814 14.431,104.744 14.093,104.948 14.093 C 105.132 14.093,105.194 13.949,105.085 13.773 C 104.976 13.597,104.817 13.523,104.732 13.609 C 104.646 13.695,104.368 13.556,104.114 13.302 C 103.719 12.907,103.713 12.800,104.074 12.571 C 104.391 12.370,104.309 12.296,103.748 12.275 C 103.336 12.259,103.167 12.178,103.373 12.095 C 103.944 11.865,103.822 11.483,103.118 11.300 C 102.769 11.208,102.577 10.991,102.687 10.813 C 102.797 10.635,102.672 10.408,102.410 10.308 C 102.017 10.157,102.000 10.043,102.316 9.654 C 102.639 9.257,102.621 9.212,102.199 9.370 C 101.678 9.565,101.205 8.872,101.516 8.369 C 101.609 8.219,101.474 8.096,101.217 8.096 C 100.960 8.096,100.750 7.953,100.750 7.778 C 100.750 7.604,100.918 7.546,101.124 7.651 C 101.331 7.755,101.244 7.633,100.932 7.379 C 100.620 7.126,100.215 6.846,100.032 6.757 C 99.797 6.644,99.805 6.547,100.058 6.427 C 100.584 6.179,100.176 5.392,99.359 5.082 C 98.970 4.934,98.651 4.658,98.651 4.468 C 98.651 4.237,98.814 4.259,99.150 4.536 C 99.602 4.910,99.615 4.885,99.284 4.264 C 99.084 3.889,98.806 3.652,98.667 3.738 C 98.528 3.824,98.336 3.693,98.242 3.447 C 98.091 3.053,93.919 2.999,63.728 2.999 L 29.385 2.999 29.385 149.475 M28.923 159.970 C 28.923 167.226,28.963 170.152,29.010 166.471 C 29.058 162.791,29.058 156.854,29.010 153.278 C 28.962 149.702,28.923 152.714,28.923 159.970 M28.933 234.933 C 28.933 268.741,28.968 282.527,29.010 265.568 C 29.053 248.610,29.053 220.949,29.010 204.099 C 28.968 187.249,28.933 201.124,28.933 234.933 M371.004 246.177 C 371.004 247.084,371.061 247.455,371.129 247.001 C 371.198 246.548,371.198 245.806,371.129 245.352 C 371.061 244.899,371.004 245.270,371.004 246.177 " stroke="none" fill="#245c8c" fill-rule="evenodd"></path><path id="path2" d="M129.845 55.697 C 129.840 55.903,129.949 56.072,130.089 56.072 C 130.229 56.072,130.490 56.376,130.669 56.747 C 130.847 57.118,131.003 57.268,131.014 57.080 C 131.025 56.892,130.769 56.420,130.445 56.030 C 130.120 55.641,129.851 55.491,129.845 55.697 M133.644 61.759 C 133.729 62.084,133.982 62.502,134.207 62.689 C 134.517 62.946,134.504 62.802,134.153 62.099 C 133.623 61.036,133.419 60.900,133.644 61.759 M137.353 67.616 C 137.353 67.781,137.545 68.253,137.781 68.666 C 138.017 69.078,138.210 69.280,138.210 69.115 C 138.210 68.951,138.017 68.478,137.781 68.066 C 137.545 67.654,137.353 67.451,137.353 67.616 M139.641 71.654 C 139.726 71.979,140.004 72.417,140.259 72.629 C 140.651 72.954,140.644 72.863,140.219 72.039 C 139.649 70.938,139.412 70.780,139.641 71.654 M140.839 73.367 C 140.754 73.504,140.942 73.934,141.257 74.323 C 141.935 75.160,141.985 75.031,141.411 73.925 C 141.181 73.482,140.923 73.231,140.839 73.367 M145.949 81.743 C 145.757 82.053,146.201 82.994,146.423 82.750 C 146.494 82.672,146.457 82.348,146.341 82.029 C 146.225 81.710,146.049 81.582,145.949 81.743 M157.943 101.533 C 157.751 101.843,158.195 102.784,158.417 102.540 C 158.488 102.462,158.451 102.138,158.335 101.819 C 158.219 101.500,158.043 101.372,157.943 101.533 M158.921 103.512 C 158.921 103.766,159.145 104.160,159.419 104.386 C 159.876 104.763,159.885 104.734,159.529 104.048 C 159.006 103.043,158.921 102.967,158.921 103.512 M164.032 112.170 C 164.216 112.514,164.426 112.735,164.499 112.662 C 164.709 112.452,164.284 111.544,163.975 111.544 C 163.822 111.544,163.848 111.825,164.032 112.170 M170.934 123.388 C 170.934 123.553,171.132 123.950,171.374 124.270 C 171.616 124.590,171.814 124.717,171.814 124.552 C 171.814 124.387,171.616 123.991,171.374 123.671 C 171.132 123.350,170.934 123.223,170.934 123.388 M201.020 184.408 C 201.020 186.964,201.066 188.010,201.122 186.732 C 201.179 185.454,201.179 183.362,201.122 182.084 C 201.066 180.806,201.020 181.852,201.020 184.408 M200.727 225.037 C 200.728 228.666,200.771 230.109,200.824 228.244 C 200.876 226.380,200.876 223.411,200.823 221.648 C 200.770 219.884,200.727 221.409,200.727 225.037 M166.726 244.903 C 166.731 245.026,166.952 245.397,167.216 245.727 C 167.639 246.254,167.674 246.260,167.507 245.778 C 167.402 245.475,167.316 245.104,167.316 244.953 C 167.316 244.802,167.181 244.678,167.016 244.678 C 166.852 244.678,166.721 244.779,166.726 244.903 M200.434 256.222 C 200.435 261.829,200.475 264.081,200.524 261.225 C 200.574 258.370,200.574 253.782,200.524 251.030 C 200.475 248.278,200.434 250.615,200.434 256.222 M173.968 256.523 C 174.156 256.936,174.351 257.234,174.400 257.185 C 174.582 257.002,174.133 255.772,173.884 255.772 C 173.742 255.772,173.780 256.110,173.968 256.523 M178.122 263.182 C 178.127 263.312,178.322 263.756,178.553 264.168 C 178.930 264.838,178.970 264.852,178.933 264.295 C 178.895 263.728,178.097 262.633,178.122 263.182 M180.469 267.246 C 180.595 267.372,185.142 267.439,190.574 267.395 L 200.450 267.316 190.345 267.166 C 184.787 267.084,180.343 267.120,180.469 267.246 " stroke="none" fill="#2c69a7" fill-rule="evenodd"></path><path id="path3" d="M29.081 73.838 C 29.078 113.130,29.044 179.314,29.006 220.915 L 28.936 296.552 67.391 296.552 C 92.829 296.552,105.847 296.450,105.847 296.252 C 105.847 296.054,92.904 295.952,67.616 295.952 L 29.385 295.952 29.385 149.475 L 29.385 2.999 63.703 2.999 C 96.071 2.999,98.039 3.028,98.327 3.523 C 98.729 4.214,98.741 3.728,98.340 2.979 C 98.036 2.411,97.332 2.399,63.558 2.399 L 29.085 2.399 29.081 73.838 M99.850 6.540 C 99.850 6.701,100.064 6.914,100.325 7.015 C 100.617 7.127,100.754 7.060,100.681 6.841 C 100.532 6.392,99.850 6.146,99.850 6.540 M101.354 8.584 C 101.363 9.100,101.872 9.662,102.058 9.361 C 102.159 9.198,102.041 8.897,101.796 8.693 C 101.550 8.489,101.351 8.440,101.354 8.584 M103.748 12.765 C 103.748 12.859,103.951 13.139,104.198 13.386 C 104.686 13.874,104.747 13.802,104.466 13.068 C 104.295 12.622,103.748 12.391,103.748 12.765 M105.140 14.983 C 105.429 15.473,105.710 15.829,105.765 15.774 C 105.972 15.567,105.247 14.093,104.938 14.093 C 104.751 14.093,104.836 14.469,105.140 14.983 M105.847 16.363 C 105.847 16.457,106.037 16.725,106.270 16.958 C 106.503 17.190,106.754 17.552,106.829 17.761 C 106.903 17.970,107.080 18.032,107.222 17.900 C 107.363 17.767,107.338 17.565,107.166 17.450 C 106.994 17.335,106.766 17.005,106.659 16.717 C 106.482 16.237,105.847 15.961,105.847 16.363 M107.557 19.115 C 107.846 19.569,108.168 20.007,108.273 20.090 C 108.379 20.172,108.560 20.543,108.675 20.915 C 108.885 21.587,109.445 21.859,109.445 21.289 C 109.445 21.124,109.310 20.990,109.145 20.990 C 108.981 20.990,108.846 20.797,108.846 20.561 C 108.846 20.326,108.634 19.921,108.374 19.662 C 108.115 19.402,107.997 19.190,108.111 19.190 C 108.226 19.190,108.151 18.988,107.946 18.741 C 107.303 17.966,107.007 18.251,107.557 19.115 M109.745 22.789 C 110.097 23.283,110.440 23.688,110.506 23.688 C 110.714 23.688,110.245 22.655,109.858 22.264 C 109.169 21.566,109.101 21.884,109.745 22.789 M110.645 24.200 C 110.645 24.471,112.828 27.688,113.193 27.956 C 113.358 28.078,113.389 28.179,113.261 28.181 C 113.058 28.185,113.813 29.582,114.237 29.985 C 114.323 30.067,114.629 30.607,114.916 31.184 C 115.363 32.085,115.427 32.127,115.365 31.484 C 115.325 31.072,115.157 30.571,114.993 30.370 C 114.828 30.170,114.519 29.799,114.306 29.546 C 114.093 29.293,113.993 29.085,114.083 29.085 C 114.290 29.085,111.786 25.371,111.493 25.243 C 111.375 25.191,111.346 24.972,111.428 24.757 C 111.511 24.542,111.369 24.285,111.112 24.186 C 110.855 24.087,110.645 24.094,110.645 24.200 M115.742 32.500 C 115.742 32.743,115.938 33.137,116.178 33.376 C 116.417 33.616,116.558 33.867,116.491 33.934 C 116.423 34.001,116.697 34.456,117.099 34.944 L 117.830 35.832 117.513 34.875 C 117.338 34.349,117.004 33.760,116.772 33.567 C 116.539 33.373,116.400 33.129,116.464 33.024 C 116.527 32.919,116.390 32.660,116.160 32.447 C 115.817 32.129,115.742 32.139,115.742 32.500 M117.841 36.245 C 117.841 36.390,118.043 36.676,118.291 36.882 C 118.779 37.287,118.840 37.190,118.559 36.456 C 118.366 35.954,117.841 35.800,117.841 36.245 M119.579 38.979 C 119.860 39.472,120.199 39.877,120.333 39.878 C 120.466 39.879,120.497 40.006,120.403 40.159 C 120.308 40.313,120.367 40.523,120.535 40.627 C 121.022 40.928,120.887 39.992,120.383 39.574 C 120.131 39.366,119.990 39.131,120.068 39.052 C 120.217 38.904,119.503 38.081,119.226 38.081 C 119.139 38.081,119.298 38.485,119.579 38.979 M121.021 41.504 C 121.122 41.765,121.335 41.979,121.496 41.979 C 121.890 41.979,121.644 41.298,121.195 41.148 C 120.976 41.075,120.909 41.212,121.021 41.504 M122.002 42.279 C 121.914 42.526,122.019 43.066,122.236 43.478 C 122.653 44.272,122.719 43.830,122.370 42.579 C 122.222 42.048,122.115 41.961,122.002 42.279 M122.939 44.323 C 122.939 44.643,123.122 45.057,123.347 45.243 C 123.678 45.518,123.728 45.438,123.611 44.826 C 123.433 43.896,122.939 43.526,122.939 44.323 M124.050 46.064 C 123.816 46.298,124.139 47.076,124.470 47.076 C 124.812 47.076,124.820 46.263,124.480 46.053 C 124.338 45.965,124.145 45.970,124.050 46.064 M124.946 47.959 C 125.035 48.298,125.218 48.576,125.352 48.576 C 125.487 48.576,125.682 48.846,125.787 49.175 C 125.892 49.505,126.099 49.775,126.248 49.775 C 126.584 49.775,126.246 48.802,125.809 48.512 C 125.632 48.394,125.487 48.135,125.487 47.937 C 125.487 47.739,125.329 47.524,125.136 47.459 C 124.913 47.385,124.844 47.566,124.946 47.959 M127.075 50.702 C 126.975 50.964,127.007 51.365,127.148 51.593 C 127.512 52.182,127.672 51.855,127.449 50.975 C 127.303 50.400,127.216 50.336,127.075 50.702 M127.747 52.374 C 127.753 52.511,127.955 52.961,128.197 53.373 L 128.637 54.123 128.538 53.241 C 128.454 52.484,127.717 51.677,127.747 52.374 M128.945 54.288 C 128.950 54.527,129.167 54.993,129.426 55.322 C 129.884 55.905,129.891 55.901,129.682 55.172 C 129.420 54.257,128.932 53.671,128.945 54.288 M130.155 56.317 C 130.144 56.534,130.501 57.209,130.947 57.816 C 131.394 58.424,131.799 58.977,131.847 59.045 C 131.895 59.114,132.034 59.070,132.156 58.948 C 132.279 58.826,132.144 58.594,131.857 58.433 C 131.569 58.273,131.334 57.945,131.334 57.706 C 131.334 57.467,131.220 57.271,131.080 57.271 C 130.941 57.271,130.680 56.968,130.501 56.597 C 130.322 56.226,130.166 56.100,130.155 56.317 M132.234 59.970 C 132.410 60.300,132.589 60.570,132.630 60.570 C 132.671 60.570,132.705 60.300,132.705 59.970 C 132.705 59.640,132.527 59.370,132.309 59.370 C 132.006 59.370,131.988 59.511,132.234 59.970 M133.944 62.258 C 133.764 62.438,134.219 63.549,134.603 63.868 C 134.702 63.951,134.975 64.389,135.208 64.842 C 135.442 65.295,135.694 65.605,135.769 65.530 C 135.844 65.456,135.521 64.747,135.052 63.957 C 134.583 63.166,134.230 62.418,134.266 62.294 C 134.348 62.019,134.199 62.003,133.944 62.258 M136.047 66.342 C 136.182 66.548,136.606 67.222,136.991 67.841 C 137.568 68.769,138.231 69.111,138.231 68.480 C 138.231 68.398,138.100 68.411,137.940 68.510 C 137.780 68.609,137.563 68.347,137.458 67.928 C 137.352 67.509,137.155 67.166,137.019 67.166 C 136.883 67.166,136.686 66.897,136.582 66.567 C 136.477 66.237,136.259 65.967,136.097 65.967 C 135.931 65.967,135.909 66.130,136.047 66.342 M138.231 69.865 C 138.407 70.195,138.586 70.465,138.627 70.465 C 138.668 70.465,138.702 70.195,138.702 69.865 C 138.702 69.535,138.524 69.265,138.306 69.265 C 138.003 69.265,137.985 69.406,138.231 69.865 M139.144 71.390 C 139.328 71.734,139.539 71.956,139.612 71.883 C 139.821 71.673,139.396 70.765,139.088 70.765 C 138.935 70.765,138.960 71.046,139.144 71.390 M140.072 72.973 C 140.284 73.445,140.512 73.668,140.578 73.468 C 140.645 73.268,140.472 72.882,140.193 72.609 C 139.720 72.146,139.712 72.169,140.072 72.973 M140.949 74.213 C 140.949 74.378,141.147 74.775,141.389 75.095 C 141.631 75.415,141.829 75.542,141.829 75.377 C 141.829 75.212,141.631 74.815,141.389 74.495 C 141.147 74.175,140.949 74.048,140.949 74.213 M142.236 76.016 C 142.053 76.493,142.602 77.361,143.087 77.361 C 143.243 77.361,143.151 77.142,142.883 76.873 C 142.614 76.604,142.465 76.199,142.552 75.973 C 142.639 75.747,142.642 75.562,142.560 75.562 C 142.477 75.562,142.332 75.766,142.236 76.016 M143.275 78.088 C 143.432 78.406,143.779 78.698,144.046 78.737 C 144.312 78.776,144.449 78.676,144.349 78.514 C 144.249 78.353,144.093 78.295,144.003 78.386 C 143.912 78.477,143.647 78.317,143.413 78.031 C 143.020 77.549,143.010 77.553,143.275 78.088 M144.228 79.760 C 144.404 80.090,144.583 80.360,144.624 80.360 C 144.665 80.360,144.699 80.090,144.699 79.760 C 144.699 79.430,144.521 79.160,144.303 79.160 C 144.000 79.160,143.982 79.301,144.228 79.760 M146.341 83.384 C 146.525 83.728,146.735 83.950,146.808 83.877 C 147.018 83.667,146.592 82.759,146.284 82.759 C 146.131 82.759,146.156 83.040,146.341 83.384 M147.240 84.883 C 147.424 85.227,147.635 85.449,147.708 85.376 C 147.917 85.166,147.492 84.258,147.184 84.258 C 147.031 84.258,147.056 84.539,147.240 84.883 M151.748 92.279 C 152.586 93.682,152.924 94.076,152.924 93.654 C 152.924 93.478,152.654 92.991,152.324 92.572 C 151.994 92.153,151.724 91.662,151.724 91.482 C 151.724 91.302,151.578 91.154,151.400 91.154 C 151.221 91.154,151.378 91.660,151.748 92.279 M153.237 94.778 C 153.421 95.122,153.632 95.344,153.705 95.271 C 153.914 95.061,153.489 94.153,153.181 94.153 C 153.028 94.153,153.053 94.434,153.237 94.778 M154.288 96.497 C 155.306 98.221,155.947 98.791,155.112 97.231 C 154.651 96.367,154.164 95.659,154.031 95.656 C 153.898 95.654,154.014 96.032,154.288 96.497 M156.372 99.850 C 156.628 100.345,156.889 100.750,156.953 100.750 C 157.017 100.750,156.917 100.345,156.730 99.850 C 156.543 99.355,156.281 98.951,156.148 98.951 C 156.015 98.951,156.116 99.355,156.372 99.850 M158.335 103.174 C 158.519 103.518,158.729 103.740,158.802 103.667 C 159.012 103.457,158.586 102.549,158.278 102.549 C 158.125 102.549,158.150 102.830,158.335 103.174 M177.218 134.191 C 177.222 134.352,177.489 134.820,177.811 135.232 C 178.134 135.645,178.400 136.151,178.404 136.357 C 178.408 136.563,178.561 136.732,178.745 136.732 C 179.055 136.732,178.799 136.225,177.615 134.491 C 177.393 134.166,177.214 134.031,177.218 134.191 M105.847 220.804 C 105.847 270.556,105.948 295.979,106.147 296.102 C 106.347 296.225,106.447 271.173,106.447 221.175 C 106.447 171.423,106.346 146.000,106.147 145.877 C 105.947 145.754,105.847 170.806,105.847 220.804 M201.013 176.612 C 201.013 178.508,201.062 179.284,201.121 178.336 C 201.181 177.388,201.181 175.836,201.121 174.888 C 201.062 173.939,201.013 174.715,201.013 176.612 M200.740 202.099 C 200.740 211.252,200.778 214.996,200.824 210.420 C 200.871 205.843,200.871 198.355,200.824 193.778 C 200.778 189.202,200.740 192.946,200.740 202.099 M144.238 207.975 C 144.232 208.156,144.498 208.615,144.828 208.996 C 145.157 209.376,145.427 209.546,145.427 209.374 C 145.427 208.947,144.250 207.563,144.238 207.975 M145.427 210.195 C 145.427 210.360,145.553 210.495,145.707 210.495 C 145.861 210.495,146.072 210.765,146.177 211.094 C 146.282 211.424,146.487 211.694,146.633 211.694 C 146.779 211.694,146.669 211.290,146.388 210.796 C 145.880 209.905,145.427 209.621,145.427 210.195 M148.126 214.329 C 148.126 214.510,148.267 214.744,148.438 214.850 C 148.610 214.957,148.962 215.572,149.221 216.217 C 149.479 216.863,149.801 217.391,149.937 217.391 C 150.073 217.391,150.270 217.661,150.375 217.991 C 150.479 218.321,150.691 218.591,150.845 218.591 C 151.309 218.591,151.163 218.176,150.412 217.366 C 150.020 216.944,149.611 216.320,149.503 215.981 C 149.267 215.235,148.126 213.867,148.126 214.329 M151.134 218.951 C 151.115 219.370,151.826 220.690,152.072 220.690 C 152.211 220.690,152.324 220.570,152.324 220.423 C 152.324 220.103,151.149 218.649,151.134 218.951 M152.324 221.289 C 152.324 221.454,152.481 221.589,152.674 221.589 C 152.866 221.589,152.940 221.673,152.838 221.775 C 152.736 221.877,152.839 222.147,153.066 222.375 C 153.741 223.049,153.830 222.850,153.284 221.891 C 152.777 220.999,152.324 220.715,152.324 221.289 M153.881 223.669 C 154.080 223.988,154.352 224.182,154.485 224.099 C 154.618 224.017,154.533 223.756,154.297 223.519 C 153.682 222.905,153.455 222.987,153.881 223.669 M154.826 225.136 C 155.099 225.438,155.322 225.842,155.322 226.036 C 155.322 226.229,155.457 226.387,155.622 226.387 C 155.787 226.387,155.918 226.286,155.912 226.162 C 155.898 225.838,154.818 224.588,154.553 224.588 C 154.430 224.588,154.553 224.834,154.826 225.136 M156.222 227.551 C 156.222 228.205,156.739 228.678,157.066 228.325 C 157.179 228.203,157.102 228.043,156.895 227.969 C 156.688 227.895,156.589 227.721,156.675 227.581 C 156.761 227.442,156.694 227.243,156.527 227.139 C 156.359 227.036,156.222 227.221,156.222 227.551 M200.434 236.732 C 200.434 242.009,200.475 244.126,200.524 241.435 C 200.574 238.745,200.574 234.427,200.524 231.840 C 200.474 229.253,200.434 231.454,200.434 236.732 M157.128 229.010 C 157.132 229.134,157.399 229.573,157.721 229.985 C 158.044 230.397,158.311 230.841,158.314 230.972 C 158.320 231.184,159.441 232.904,159.820 233.283 C 159.996 233.460,160.526 234.387,161.527 236.270 C 162.464 238.034,162.819 238.383,162.819 237.541 C 162.819 237.144,162.633 236.882,162.351 236.882 C 162.094 236.882,161.949 236.776,162.028 236.647 C 162.108 236.519,161.587 235.473,160.870 234.324 C 160.153 233.174,159.120 231.458,158.575 230.510 C 157.689 228.971,157.109 228.370,157.128 229.010 M163.488 239.580 C 163.694 239.910,163.965 240.180,164.090 240.180 C 164.215 240.180,164.318 240.450,164.318 240.780 C 164.318 241.133,164.518 241.379,164.804 241.379 C 165.249 241.379,165.249 241.322,164.793 240.705 C 164.520 240.334,164.218 239.794,164.122 239.505 C 164.026 239.217,163.760 238.981,163.531 238.981 C 163.188 238.981,163.181 239.088,163.488 239.580 M165.429 242.575 C 165.515 242.903,165.699 243.101,165.838 243.016 C 166.133 242.833,165.866 241.979,165.513 241.979 C 165.381 241.979,165.344 242.247,165.429 242.575 M166.234 243.614 C 166.337 244.316,167.016 244.932,167.016 244.325 C 167.016 244.064,166.825 243.693,166.591 243.498 C 166.253 243.217,166.179 243.241,166.234 243.614 M167.528 245.802 C 167.634 246.091,167.900 246.435,168.118 246.567 C 168.337 246.699,168.516 247.002,168.516 247.241 C 168.516 247.480,168.655 247.676,168.825 247.676 C 168.994 247.676,168.826 247.137,168.450 246.479 C 167.758 245.267,167.174 244.838,167.528 245.802 M169.115 248.258 C 169.115 248.413,169.250 248.624,169.415 248.726 C 169.580 248.828,169.715 249.181,169.715 249.511 C 169.715 249.840,169.838 250.034,169.988 249.941 C 170.297 249.750,169.721 247.976,169.350 247.976 C 169.221 247.976,169.115 248.103,169.115 248.258 M171.245 251.574 C 171.269 252.490,171.690 253.229,171.891 252.706 C 171.991 252.445,171.884 251.983,171.653 251.678 C 171.329 251.251,171.236 251.227,171.245 251.574 M172.114 253.033 C 172.114 253.176,172.361 253.614,172.663 254.008 C 172.964 254.401,173.305 254.978,173.419 255.290 C 173.534 255.603,173.703 255.782,173.797 255.689 C 173.890 255.596,173.604 254.902,173.161 254.146 C 172.369 252.794,172.114 252.523,172.114 253.033 M174.372 256.672 C 174.629 257.567,174.753 257.731,174.993 257.491 C 175.092 257.391,174.945 256.998,174.665 256.616 L 174.157 255.922 174.372 256.672 M175.212 258.321 C 175.212 258.568,175.388 258.771,175.603 258.771 C 175.827 258.771,175.920 258.579,175.821 258.321 C 175.726 258.073,175.550 257.871,175.430 257.871 C 175.310 257.871,175.212 258.073,175.212 258.321 M177.866 262.292 C 178.248 262.991,178.667 263.565,178.796 263.566 C 179.084 263.569,178.644 262.777,177.799 261.769 C 177.227 261.086,177.233 261.133,177.866 262.292 M178.977 264.243 C 179.201 264.531,179.279 264.768,179.151 264.768 C 179.023 264.768,179.190 265.004,179.521 265.292 C 179.853 265.581,180.220 266.121,180.337 266.492 C 180.454 266.863,180.685 267.166,180.849 267.166 C 181.248 267.166,179.953 264.890,179.181 264.236 C 178.602 263.744,178.592 263.745,178.977 264.243 " stroke="none" fill="#2c649c" fill-rule="evenodd"></path><path id="path4" d="M153.895 94.616 C 154.018 94.804,154.065 95.013,154.001 95.080 C 153.936 95.147,154.072 95.376,154.303 95.589 C 154.908 96.147,154.820 95.525,154.198 94.847 C 153.909 94.532,153.773 94.428,153.895 94.616 M158.621 102.720 C 158.621 102.814,158.823 103.094,159.070 103.341 C 159.559 103.829,159.620 103.757,159.338 103.023 C 159.167 102.577,158.621 102.347,158.621 102.720 M160.720 106.447 C 160.720 106.612,160.845 106.747,160.999 106.747 C 161.153 106.747,161.368 107.027,161.476 107.369 C 161.585 107.711,161.733 107.932,161.805 107.860 C 162.028 107.637,161.352 106.147,161.027 106.147 C 160.858 106.147,160.720 106.282,160.720 106.447 M164.146 111.716 C 164.406 111.975,164.618 112.363,164.618 112.578 C 164.618 112.794,164.823 113.141,165.074 113.349 C 165.462 113.671,165.499 113.642,165.322 113.161 C 164.985 112.249,164.272 111.244,163.962 111.244 C 163.804 111.244,163.887 111.456,164.146 111.716 M165.817 114.843 C 165.817 115.007,165.952 115.142,166.117 115.142 C 166.282 115.142,166.417 115.271,166.417 115.429 C 166.417 115.587,166.770 116.227,167.201 116.853 C 167.810 117.736,167.937 117.823,167.771 117.241 C 167.652 116.829,167.386 116.356,167.180 116.191 C 166.973 116.025,166.708 115.587,166.590 115.216 C 166.377 114.544,165.817 114.274,165.817 114.843 M170.615 122.526 C 170.615 122.618,170.885 123.037,171.214 123.456 C 171.544 123.876,171.814 124.074,171.814 123.896 C 171.814 123.719,171.677 123.489,171.509 123.385 C 171.342 123.282,171.274 123.085,171.358 122.949 C 171.442 122.813,171.309 122.624,171.063 122.530 C 170.816 122.435,170.615 122.433,170.615 122.526 M171.814 124.609 C 171.814 124.703,172.016 124.983,172.264 125.230 C 172.752 125.718,172.813 125.646,172.532 124.912 C 172.361 124.466,171.814 124.236,171.814 124.609 M172.925 126.138 C 172.710 126.485,173.211 127.339,173.474 127.075 C 173.581 126.969,173.540 126.652,173.382 126.371 C 173.225 126.090,173.019 125.985,172.925 126.138 M174.264 128.682 C 174.731 129.606,175.062 129.964,175.262 129.762 C 175.462 129.561,175.438 129.415,175.187 129.323 C 174.981 129.247,174.813 129.015,174.813 128.807 C 174.813 128.599,174.532 128.175,174.189 127.865 C 173.596 127.328,173.599 127.367,174.264 128.682 M175.879 131.264 C 176.053 131.385,176.369 131.913,176.581 132.437 C 176.793 132.961,177.155 133.462,177.384 133.551 C 177.789 133.706,177.405 132.683,176.890 132.234 C 176.795 132.151,176.631 131.848,176.524 131.559 C 176.418 131.271,176.158 131.037,175.946 131.039 C 175.695 131.042,175.672 131.120,175.879 131.264 M177.811 134.329 C 177.811 134.492,178.047 134.902,178.336 135.239 C 178.624 135.576,178.877 135.982,178.898 136.142 C 178.919 136.301,178.952 136.567,178.973 136.732 C 178.994 136.897,179.155 137.031,179.331 137.031 C 179.731 137.031,179.388 135.867,178.821 135.300 C 178.595 135.074,178.411 134.697,178.411 134.461 C 178.411 134.226,178.276 134.033,178.111 134.033 C 177.946 134.033,177.811 134.166,177.811 134.329 M179.910 137.931 C 180.087 138.261,180.382 138.531,180.567 138.531 C 180.751 138.531,180.658 138.261,180.360 137.931 C 180.061 137.601,179.766 137.331,179.703 137.331 C 179.640 137.331,179.734 137.601,179.910 137.931 M180.810 139.620 C 180.810 139.724,181.088 140.051,181.429 140.347 C 181.770 140.642,182.034 140.965,182.017 141.063 C 182.000 141.162,182.122 141.475,182.288 141.760 C 182.498 142.120,182.593 142.152,182.600 141.864 C 182.612 141.318,181.437 139.430,181.085 139.430 C 180.934 139.430,180.810 139.516,180.810 139.620 M182.821 142.316 C 182.551 142.587,183.889 144.823,184.323 144.825 C 184.525 144.827,184.612 144.626,184.517 144.380 C 184.422 144.133,184.244 143.994,184.120 144.070 C 183.887 144.214,183.064 142.749,183.156 142.354 C 183.220 142.080,183.074 142.064,182.821 142.316 M185.007 146.477 C 185.007 146.724,185.206 146.927,185.448 146.927 C 185.716 146.927,185.821 146.751,185.716 146.477 C 185.621 146.229,185.423 146.027,185.275 146.027 C 185.128 146.027,185.007 146.229,185.007 146.477 M185.877 147.676 C 186.382 148.654,186.798 149.196,186.795 148.876 C 186.794 148.711,186.517 148.238,186.180 147.826 C 185.773 147.328,185.671 147.278,185.877 147.676 M188.173 151.647 C 188.627 152.432,189.197 153.343,189.439 153.673 L 189.879 154.273 189.656 153.673 C 189.534 153.343,189.427 152.911,189.420 152.712 C 189.412 152.513,189.217 152.277,188.986 152.189 C 188.756 152.101,188.652 151.892,188.754 151.726 C 188.857 151.560,188.798 151.424,188.623 151.424 C 188.449 151.424,188.306 151.236,188.306 151.007 C 188.306 150.777,188.090 150.506,187.826 150.405 C 187.473 150.269,187.565 150.597,188.173 151.647 M190.705 155.885 C 190.705 156.030,190.907 156.316,191.154 156.522 C 191.643 156.927,191.704 156.830,191.422 156.096 C 191.230 155.594,190.705 155.440,190.705 155.885 M192.074 157.974 C 192.375 158.484,192.682 158.842,192.756 158.769 C 192.829 158.695,192.701 158.409,192.472 158.132 C 192.242 157.855,192.098 157.552,192.151 157.458 C 192.205 157.363,192.086 157.232,191.887 157.166 C 191.671 157.094,191.747 157.420,192.074 157.974 M193.928 160.599 C 193.662 161.028,194.161 161.714,194.804 161.804 C 195.292 161.873,195.300 161.842,194.876 161.525 C 194.614 161.330,194.335 160.974,194.256 160.734 C 194.173 160.481,194.035 160.425,193.928 160.599 M195.095 163.109 C 195.716 164.161,195.803 164.150,195.591 163.043 C 195.504 162.590,195.238 162.219,195.001 162.219 C 194.646 162.219,194.663 162.378,195.095 163.109 M196.702 165.780 C 196.702 166.171,197.585 166.833,197.808 166.609 C 197.914 166.503,197.848 166.417,197.661 166.417 C 197.473 166.417,197.398 166.214,197.493 165.967 C 197.602 165.682,197.489 165.517,197.184 165.517 C 196.918 165.517,196.702 165.636,196.702 165.780 M197.816 167.621 C 197.982 168.257,198.354 168.396,198.641 167.931 C 198.738 167.774,198.557 167.507,198.239 167.337 C 197.744 167.072,197.683 167.113,197.816 167.621 M199.100 169.715 C 199.277 170.045,199.560 170.315,199.728 170.315 C 199.897 170.315,199.964 170.430,199.877 170.571 C 199.790 170.711,199.916 171.082,200.156 171.395 C 200.572 171.939,200.588 171.932,200.496 171.247 C 200.443 170.853,200.175 170.365,199.900 170.164 C 199.625 169.963,199.400 169.645,199.400 169.457 C 199.400 169.269,199.261 169.115,199.090 169.115 C 198.879 169.115,198.883 169.309,199.100 169.715 M201.006 190.797 L 200.963 208.846 201.259 191.048 C 201.422 181.259,201.442 173.137,201.303 172.999 C 201.163 172.861,201.030 180.870,201.006 190.797 M200.736 243.028 C 200.736 249.460,200.776 252.049,200.824 248.781 C 200.873 245.513,200.873 240.250,200.824 237.087 C 200.776 233.923,200.736 236.597,200.736 243.028 M370.891 236.057 C 370.741 238.458,370.761 239.336,370.968 239.463 C 371.104 239.547,371.214 238.731,371.214 237.649 C 371.214 236.011,370.969 234.804,370.891 236.057 M371.015 251.574 C 371.015 252.811,371.068 253.317,371.133 252.699 C 371.198 252.080,371.198 251.068,371.133 250.450 C 371.068 249.831,371.015 250.337,371.015 251.574 M371.004 255.772 C 371.004 256.679,371.061 257.050,371.129 256.597 C 371.198 256.143,371.198 255.401,371.129 254.948 C 371.061 254.494,371.004 254.865,371.004 255.772 M190.501 267.991 C 195.584 268.037,203.815 268.037,208.792 267.991 C 213.769 267.945,209.610 267.907,199.550 267.907 C 189.490 267.907,185.418 267.945,190.501 267.991 M293.553 269.048 C 293.553 269.643,293.680 270.208,293.835 270.304 C 294.004 270.408,294.047 270.022,293.943 269.347 C 293.710 267.841,293.553 267.721,293.553 269.048 M371.000 269.715 C 371.003 270.540,371.061 270.841,371.130 270.386 C 371.199 269.930,371.197 269.255,371.126 268.886 C 371.054 268.518,370.998 268.891,371.000 269.715 M293.553 272.978 C 293.553 273.225,293.688 273.511,293.853 273.613 C 294.018 273.715,294.153 273.596,294.153 273.349 C 294.153 273.101,294.018 272.816,293.853 272.714 C 293.688 272.612,293.553 272.731,293.553 272.978 M370.984 283.358 C 370.984 283.936,371.046 284.172,371.121 283.883 C 371.197 283.594,371.197 283.122,371.121 282.834 C 371.046 282.545,370.984 282.781,370.984 283.358 " stroke="none" fill="#2c74b4" fill-rule="evenodd"></path></g></svg>