<?xml version="1.0" encoding="UTF-8" standalone="no"?>
<svg
   xmlns:dc="http://purl.org/dc/elements/1.1/"
   xmlns:cc="http://creativecommons.org/ns#"
   xmlns:rdf="http://www.w3.org/1999/02/22-rdf-syntax-ns#"
   xmlns:svg="http://www.w3.org/2000/svg"
   xmlns="http://www.w3.org/2000/svg"
   xmlns:sodipodi="http://sodipodi.sourceforge.net/DTD/sodipodi-0.dtd"
   xmlns:inkscape="http://www.inkscape.org/namespaces/inkscape"
   width="475px"
   height="475px"
   viewBox="0 0 475 475"
   version="1.1"
   id="svg2"
   inkscape:version="0.91 r13725"
   sodipodi:docname="meetup-logo.svg">
  <metadata
     id="metadata15">
    <rdf:RDF>
      <cc:Work
         rdf:about="">
        <dc:format>image/svg+xml</dc:format>
        <dc:type
           rdf:resource="http://purl.org/dc/dcmitype/StillImage" />
      </cc:Work>
    </rdf:RDF>
  </metadata>
  <sodipodi:namedview
     pagecolor="#ffffff"
     bordercolor="#666666"
     borderopacity="1"
     objecttolerance="10"
     gridtolerance="10"
     guidetolerance="10"
     inkscape:pageopacity="0"
     inkscape:pageshadow="2"
     inkscape:window-width="1920"
     inkscape:window-height="1027"
     id="namedview13"
     showgrid="false"
     inkscape:zoom="0.49684211"
     inkscape:cx="239.51271"
     inkscape:cy="237.5"
     inkscape:window-x="0"
     inkscape:window-y="27"
     inkscape:window-maximized="1"
     inkscape:current-layer="Page-1" />
  <!-- Generator: Sketch 46.2 (44496) - http://www.bohemiancoding.com/sketch -->
  <title
     id="title4">meetup</title>
  <desc
     id="desc6">Created with Sketch.</desc>
  <defs
     id="defs8" />
  <g
     id="Page-1"
     stroke="none"
     stroke-width="1"
     fill="none"
     fill-rule="evenodd">
    <g
       id="meetup"
       fill-rule="nonzero"
       fill="#464646"
       style="fill:#ffffff">
      <path
         d="M474.323548,412.411185 C474.323548,446.611185 446.623548,474.311185 412.423548,474.311185 L62.7235476,474.311185 C28.5235476,474.311185 0.823547593,446.611185 0.823547593,412.411185 L0.823547593,62.6111846 C0.823547593,28.4111846 28.5235476,0.711184597 62.7235476,0.711184597 L412.423548,0.711184597 C446.623548,0.711184597 474.323548,28.4111846 474.323548,62.6111846 L474.323548,412.411185 Z M418.437211,294.466759 C418.437211,279.319643 414.616317,265.26421 406.838068,252.300462 C406.155766,251.072317 405.882845,250.390015 407.110989,249.16187 C421.575803,235.106438 426.351921,218.185335 420.62058,198.944403 C416.117383,183.524366 405.609924,173.016907 390.462807,167.422026 C388.825281,166.876184 388.279439,166.193881 388.4159,164.419895 C388.825281,159.916698 388.55236,155.413501 388.006518,150.910304 C385.686689,130.304768 377.499059,112.291981 362.488403,98.1000878 C337.243209,74.0830384 307.358358,66.987092 273.789073,76.675788 C271.878626,77.2216301 270.37756,77.2216301 268.603574,76.129946 C247.315734,63.5755793 224.526829,58.7994615 200.373319,63.3026583 C165.848811,69.7163021 141.012998,89.0936943 126.275264,120.888993 C124.774198,124.164045 122.863751,125.52865 119.452238,126.210952 C89.5673869,132.624596 68.0066267,158.142711 66.7784821,189.119247 C66.2326401,201.537153 69.2347712,213.272757 75.3754941,224.053137 C76.1942572,225.690663 76.1942572,226.509426 74.8296521,227.874031 C58.7273121,244.385752 51.7678262,264.172526 54.2241154,287.097891 C56.543944,307.157586 65.959719,323.259926 81.789138,335.677832 C90.38615,342.364397 100.074846,346.867594 110.855226,348.914502 C112.765673,349.187423 113.584436,350.006186 113.584436,352.053093 C113.584436,354.372922 113.993818,356.829211 114.403199,359.2855 C119.99808,394.21939 149.746471,421.238571 185.226203,423.421939 C203.375451,424.513623 220.023633,419.873966 234.897828,409.230046 C236.671815,408.001902 237.763499,408.001902 239.537485,409.366507 C252.228313,419.328124 266.693126,423.69486 282.659006,421.375031 C306.676055,417.963519 322.641935,404.181007 330.693105,381.255642 C331.238947,379.618116 331.921249,378.935813 333.695236,378.935813 C338.880735,378.935813 343.929774,378.389971 348.978813,377.571208 C388.961742,370.611722 418.437211,335.404911 418.437211,294.466759 Z M268.467113,287.916655 C268.057731,280.411327 271.469244,273.17892 274.880757,266.492355 C282.795466,249.571252 290.983097,232.650149 299.034267,215.729046 C300.398872,212.726915 301.627016,209.724783 302.855161,206.722652 C303.401003,205.358047 303.946845,203.720521 303.946845,202.219455 C304.083306,199.353785 303.946845,196.488114 301.081174,194.850588 C298.215504,193.213062 295.076912,193.349522 292.211241,195.123509 C289.07265,197.170417 287.025742,200.172548 285.388216,203.4476 C280.748559,212.181073 276.245362,220.914545 271.742165,229.648018 C262.053469,248.616028 252.501234,267.720499 242.812538,286.68851 C240.083327,292.283391 236.398894,297.059509 230.258171,299.242877 C225.072671,301.153324 219.750712,300.743942 214.701673,298.560574 C209.652634,296.377206 207.332805,291.055246 208.288029,284.914523 C208.833871,281.36655 210.198476,278.091498 211.563081,274.816446 C217.976725,258.441185 224.66329,242.202384 231.076934,225.827123 C232.577999,222.006229 234.215525,218.185335 234.488447,213.955059 C234.761368,209.997704 233.942604,206.313271 230.940473,203.584061 C225.891435,199.080864 217.430883,201.400692 214.565212,208.223718 C211.563081,214.910283 208.970332,221.733308 206.241121,228.556334 C196.279504,253.255685 186.863729,278.227958 176.492731,302.79085 C173.354139,310.296178 168.850942,316.846282 160.663312,319.302571 C150.565234,322.304703 140.740077,320.940097 131.870144,315.208756 C120.407462,307.839889 115.631344,294.603219 119.725159,281.093629 C128.731553,250.935857 137.465025,220.641624 148.245405,191.029694 C150.565234,184.61605 153.021523,178.202406 156.023654,172.061683 C162.710219,158.142711 178.812559,148.999857 194.096136,150.364462 C199.008714,150.773844 203.10253,153.230133 207.469266,155.14058 C211.836002,157.051027 216.066278,158.961474 220.160093,161.144843 C224.526829,163.464671 228.347724,162.782369 232.305078,160.326079 C236.671815,157.596869 240.083327,153.639515 244.040682,150.500923 C254.002299,142.722674 266.283745,143.132055 275.563059,151.729067 C277.473507,153.503054 279.383954,155.413501 281.430861,157.187488 C284.160071,159.507316 287.025742,160.053158 290.027873,158.006251 C299.170727,152.001988 309.132344,152.138449 319.230422,154.048896 C330.283723,156.095804 336.697367,163.19175 339.426577,173.83567 C341.337024,180.931616 340.381801,187.618181 338.334893,194.441207 C334.650459,206.722652 329.192039,218.321795 324.00654,230.057399 C318.68458,242.202384 312.953239,254.34737 308.859423,266.901736 C306.539595,273.861222 304.492687,280.820708 304.629148,288.189576 C304.765608,296.513667 308.177121,300.880403 316.501212,302.517929 C321.550251,303.473152 326.599289,304.155455 331.648328,305.110679 C333.422315,305.3836 334.92338,305.929442 336.560907,306.611744 C341.064103,308.522191 343.247471,312.070164 343.383932,316.846282 C343.520392,321.6224 341.609945,325.170373 337.243209,327.353741 C331.784789,330.082952 325.780526,330.492333 319.912725,330.219412 C311.588634,329.810031 303.401003,328.581886 295.486294,325.989136 C279.656875,320.667176 268.467113,305.3836 268.467113,287.916655 Z"
         id="Combined-Shape"
         style="fill:#ffffff" />
    </g>
  </g>
</svg>
