<svg width="126" height="126" viewBox="0 0 126 126" fill="none" xmlns="http://www.w3.org/2000/svg">
<path fill-rule="evenodd" clip-rule="evenodd" d="M0 70.6383L59.0625 126L126 51.9998V14.7656L110.742 0H72.8438L0 70.6383ZM12.8816 66.3739L8.55895 70.5657L58.7154 117.579L62.9906 112.853L12.8816 66.3739ZM66.953 108.473L17.1276 62.2565L75.2372 5.90625H108.352L120.094 17.269V49.7249L66.953 108.473ZM61.5234 89.5781V35.4375H67.4297V89.5781H61.5234ZM105.328 25.1016C105.328 28.0917 102.904 30.5156 99.9141 30.5156C96.924 30.5156 94.5 28.0917 94.5 25.1016C94.5 22.1115 96.924 19.6875 99.9141 19.6875C102.904 19.6875 105.328 22.1115 105.328 25.1016ZM111.234 25.1016C111.234 31.3536 106.166 36.4219 99.9141 36.4219C93.662 36.4219 88.5938 31.3536 88.5938 25.1016C88.5938 18.8495 93.662 13.7812 99.9141 13.7812C106.166 13.7812 111.234 18.8495 111.234 25.1016ZM80.9648 66.9375C83.2754 66.9375 85.1484 65.0644 85.1484 62.7539C85.1484 60.4434 83.2754 58.5703 80.9648 58.5703C78.6543 58.5703 76.7812 60.4434 76.7812 62.7539C76.7812 65.0644 78.6543 66.9375 80.9648 66.9375ZM80.9648 72.8438C86.5373 72.8438 91.0547 68.3264 91.0547 62.7539C91.0547 57.1814 86.5373 52.6641 80.9648 52.6641C75.3924 52.6641 70.875 57.1814 70.875 62.7539C70.875 68.3264 75.3924 72.8438 80.9648 72.8438ZM51.6797 62.7539C51.6797 65.0644 49.8066 66.9375 47.4961 66.9375C45.1856 66.9375 43.3125 65.0644 43.3125 62.7539C43.3125 60.4434 45.1856 58.5703 47.4961 58.5703C49.8066 58.5703 51.6797 60.4434 51.6797 62.7539ZM57.5859 62.7539C57.5859 68.3264 53.0686 72.8438 47.4961 72.8438C41.9236 72.8438 37.4062 68.3264 37.4062 62.7539C37.4062 57.1814 41.9236 52.6641 47.4961 52.6641C53.0686 52.6641 57.5859 57.1814 57.5859 62.7539Z" fill="#3D3D3D"/>
</svg>
