<svg width="126" height="126" viewBox="0 0 126 126" fill="none" xmlns="http://www.w3.org/2000/svg">
<path fill-rule="evenodd" clip-rule="evenodd" d="M98.7844 0.753902L99.6619 7.07711C100.729 7.34954 101.791 7.6912 102.842 8.10443C103.86 8.50455 104.84 8.9605 105.779 9.46737L110.715 5.44274L120.373 14.2001L116.02 19.3371C117.1 21.1696 117.958 23.1261 118.575 25.1616L125.351 26.0798L125.564 38.6676L118.83 39.6673C118.569 40.6477 118.25 41.6234 117.87 42.5903C117.475 43.594 117.026 44.5604 116.528 45.4872L121.033 51.0468L111.801 60.0526L106.282 55.9731C104.556 56.9553 102.724 57.743 100.823 58.32L100.441 64.7179L87.1286 64.2497L86.2257 58.5562C85.2726 58.2994 84.3241 57.9872 83.3838 57.6177C82.3443 57.2091 81.3449 56.7424 80.3879 56.2227L75.3812 60.3047L65.7236 51.5473L70.1622 46.3097C69.1219 44.5317 68.29 42.6379 67.6841 40.6693L61.1518 39.9493L61.3866 27.7362L67.3697 26.1555C67.6352 25.1412 67.9634 24.1318 68.3564 23.1318C68.7333 22.173 69.1596 21.2483 69.6313 20.3595L66.0485 15.8737L75.6346 7.13715L79.5872 9.95554C81.427 8.8708 83.3919 8.00968 85.4362 7.39199L85.7485 0.592766L98.7844 0.753902ZM106.45 16.5412L110.511 13.2301L112.175 14.7388L108.8 18.7206L110.932 22.3364C111.773 23.7641 112.442 25.2889 112.923 26.8749L114.023 30.5049L119.531 31.2514L119.571 33.5863L114.121 34.3954L113.122 38.1491C112.919 38.912 112.67 39.6734 112.373 40.43C112.064 41.2155 111.714 41.9693 111.326 42.6905L109.465 46.1521L113.053 50.5802L111.273 52.3172L106.702 48.9387L103.361 50.8396C102.016 51.605 100.589 52.2188 99.1075 52.6684L95.1728 53.8629L94.8889 58.6127L92.1997 58.5181L91.4593 53.8492L87.7619 52.8532C87.0201 52.6534 86.2799 52.4098 85.5441 52.1207C84.7307 51.801 83.9511 51.4368 83.2066 51.0324L79.7258 49.1421L75.5859 52.5173L73.922 51.0086L77.3723 46.9373L75.26 43.3271C74.4495 41.9418 73.8011 40.4659 73.329 38.932L72.1877 35.2237L67.1607 34.6696L67.2061 32.3076L72.2104 30.9854L73.0833 27.6514C73.2899 26.8622 73.5459 26.0746 73.8534 25.2921C74.1483 24.5418 74.4811 23.8203 74.8482 23.1287L76.6663 19.7036L74.1169 16.5116L76.0884 14.7147L79.282 16.9919L82.5869 15.0433C84.0204 14.1982 85.5516 13.5271 87.1445 13.0458L91.1445 11.8372L91.3865 6.56916L93.6324 6.59692L94.3569 11.8184L98.2007 12.7998C99.0308 13.0117 99.8592 13.2781 100.682 13.6014C101.479 13.9145 102.243 14.2703 102.973 14.6647L106.45 16.5412ZM90.7524 37.7885C93.5353 38.8822 96.6779 37.5128 97.7716 34.7299C98.8653 31.947 97.4958 28.8044 94.7129 27.7107C91.93 26.6171 88.7874 27.9865 87.6938 30.7694C86.6001 33.5523 87.9695 36.6949 90.7524 37.7885ZM88.5921 43.2855C94.4109 45.5723 100.982 42.709 103.269 36.8902C105.555 31.0714 102.692 24.5005 96.8732 22.2137C91.0544 19.927 84.4835 22.7903 82.1968 28.6091C79.91 34.4279 82.7733 40.9988 88.5921 43.2855ZM32.1988 43.3124L36.2395 50.503C37.6504 50.3263 39.0879 50.2353 40.5467 50.2353C41.9592 50.2353 43.3517 50.3206 44.7195 50.4864L48.751 43.3124L64.4926 49.2804L61.6871 57.5168C63.8506 59.2103 65.8062 61.1577 67.5089 63.3143L76.0846 61.2162L82.2858 76.2554L74.6655 80.6408C74.8151 81.9433 74.892 83.2678 74.892 84.6104C74.892 86.0041 74.8092 87.3785 74.6481 88.7289L82.6875 93.2862L75.8461 108.482L67.2876 106.184C65.6769 108.181 63.8474 109.994 61.8356 111.587L64.3975 119.463L48.1789 125.192L44.405 118.771C43.1385 118.913 41.8511 118.985 40.5467 118.985C39.1045 118.985 37.6831 118.897 36.2876 118.724L32.1988 126L16.4571 120.032L19.3176 111.634C17.2277 109.987 15.3336 108.103 13.6758 106.022L5.48577 108.243L0 93.4428L6.44343 88.7135C6.28355 87.3681 6.2013 85.9989 6.2013 84.6104C6.2013 83.279 6.27692 81.9653 6.4241 80.6734L4.90762e-05 76.9715L7.39384 61.9324L13.4748 63.4539C15.1735 61.2796 17.128 59.3151 19.293 57.6059L16.4571 49.2804L32.1988 43.3124ZM47.832 56.6348L51.3269 50.4155L57.2884 52.6756L54.9565 59.5217L58.1608 62.0298C59.9656 63.4425 61.5972 65.0674 63.0177 66.8665L65.2971 69.7533L72.6686 67.9498L75.0785 73.7944L68.5487 77.5522L68.9788 81.2953C69.1035 82.3809 69.1678 83.487 69.1678 84.6104C69.1678 85.7766 69.0985 86.9242 68.9642 88.0496L68.5126 91.8351L75.3239 95.6963L72.6273 101.686L65.1728 99.6841L62.8331 102.586C61.4894 104.252 59.9629 105.765 58.2846 107.093L55.1588 109.568L57.2254 115.921L50.7214 118.218L47.4573 112.665L43.7691 113.077C42.7132 113.195 41.6381 113.256 40.5467 113.256C39.3399 113.256 38.1532 113.182 36.9903 113.038L33.1803 112.566L29.6228 118.897L23.6613 116.637L26.0437 109.643L22.8586 107.133C21.1152 105.759 19.5348 104.187 18.1518 102.45L15.8078 99.5074L9.03428 101.345L6.86982 95.5052L12.5221 91.3565L12.1276 88.0368C11.9943 86.9155 11.9255 85.7722 11.9255 84.6104C11.9255 83.4963 11.9888 82.3993 12.1115 81.3224L12.5372 77.5852L7.50399 74.6847L10.4894 68.6124L15.6938 69.9146L17.9841 66.9829C19.4012 65.1691 21.032 63.53 22.8381 62.1041L26.0178 59.5937L23.6613 52.6756L29.6228 50.4155L33.1351 56.6656L36.9502 56.1878C38.1259 56.0406 39.3261 55.9645 40.5467 55.9645C41.7286 55.9645 42.8913 56.0359 44.0312 56.174L47.832 56.6348ZM53.3805 84.6562C53.3805 91.8476 47.5508 97.6774 40.3594 97.6774C33.168 97.6774 27.3382 91.8476 27.3382 84.6562C27.3382 77.4648 33.168 71.635 40.3594 71.635C47.5508 71.635 53.3805 77.4648 53.3805 84.6562ZM59.0625 84.6562C59.0625 94.9856 50.6888 103.359 40.3594 103.359C30.0299 103.359 21.6562 94.9856 21.6562 84.6562C21.6562 74.3267 30.0299 65.9531 40.3594 65.9531C50.6888 65.9531 59.0625 74.3267 59.0625 84.6562Z" fill="#3D3D3D"/>
</svg>
