<svg width="126" height="126" viewBox="0 0 126 126" fill="none" xmlns="http://www.w3.org/2000/svg">
<path fill-rule="evenodd" clip-rule="evenodd" d="M9.7001 116.365L16.2586 97.9453H35.3012C37.679 103.982 40.6312 110.258 44.1417 116.908C39.855 115.408 35.8027 113.412 32.0522 110.987L29.628 109.42L9.7001 116.365ZM60.0469 120.019V97.9453H41.6706C44.3861 104.516 47.8275 111.48 52.0086 119.038C54.6277 119.548 57.3114 119.88 60.0469 120.019ZM65.9531 97.9453H84.4393C81.7269 104.508 78.2902 111.464 74.1154 119.012C71.4563 119.537 68.7309 119.877 65.9531 120.019V97.9453ZM65.9531 92.0391V65.9531H92.1007C91.7928 74.3536 90.0135 82.8472 86.7212 92.0391H65.9531ZM60.0469 60.0469V33.2227H39.8646C36.3428 42.7476 34.4238 51.4762 34.0351 60.0469H60.0469ZM65.9531 33.2227V60.0469H92.0748C91.6862 51.4762 89.7671 42.7476 86.2453 33.2227H65.9531ZM65.9531 27.3164V5.98131C68.6242 6.1174 71.2468 6.43707 73.8086 6.92794C77.8557 14.2212 81.2134 20.9606 83.9011 27.3164H65.9531ZM60.0469 27.3164V5.98131C57.4185 6.11523 54.8371 6.4269 52.3144 6.90453C48.2615 14.2068 44.8994 20.9538 42.2089 27.3164H60.0469ZM60.0469 92.0391V65.9531H34.0093C34.3172 74.3536 36.0964 82.8472 39.3887 92.0391H60.0469ZM108.153 97.9453C101.496 106.535 92.4421 113.173 81.9944 116.858C85.4934 110.227 88.4369 103.967 90.8088 97.9453H108.153ZM112.168 92.0391H92.9758C96.0234 83.0451 97.7207 74.5074 98.0106 65.9531H120.019C119.535 75.4455 116.733 84.3258 112.168 92.0391ZM120.019 60.0469H97.9867C97.6203 51.3086 95.7869 42.5348 92.5229 33.2227H111.723C116.551 41.1054 119.52 50.2502 120.019 60.0469ZM107.571 27.3164H90.2923C87.9424 21.4966 85.0648 15.4383 81.668 9.02798C91.9513 12.5842 100.902 18.9966 107.571 27.3164ZM33.587 33.2227C30.323 42.5348 28.4897 51.3086 28.1233 60.0469H5.98131C6.48047 50.2502 9.44907 41.1054 14.2769 33.2227H33.587ZM44.4665 8.98166C41.059 15.4091 38.1732 21.4826 35.8176 27.3164H18.4285C25.127 18.9603 34.1267 12.5284 44.4665 8.98166ZM28.0994 65.9531C28.3892 74.5074 30.0865 83.0451 33.1341 92.0391H13.8313C9.26639 84.3283 6.46449 75.4524 5.98119 65.9531H28.0994ZM0 126L10.1935 97.3714C3.7467 87.4871 0 75.6811 0 63C0 28.2061 28.2061 0 63 0C97.7939 0 126 28.2061 126 63C126 97.7939 97.7939 126 63 126C50.4117 126 38.6858 122.308 28.8459 115.948L0 126Z" fill="#3D3D3D"/>
</svg>
