<svg width="111" height="126" viewBox="0 0 111 126" fill="none" xmlns="http://www.w3.org/2000/svg">
<path fill-rule="evenodd" clip-rule="evenodd" d="M104.219 5.90625H6.27344V28.5469H104.219V5.90625ZM6.27344 0H0.367188V5.90625V28.5469V34.4531H6.27344H104.219H110.125V28.5469V5.90625V0H104.219H6.27344ZM45.1562 47.7422H6.27344V120.094H45.1562V47.7422ZM6.27344 41.8359H0.367188V47.7422V120.094V126H6.27344H45.1562H51.0625V120.094V47.7422V41.8359H45.1562H6.27344ZM65.3359 47.7422H104.219V59.0625H65.3359V47.7422ZM59.4297 41.8359H65.3359H104.219H110.125V47.7422V59.0625V64.9688H104.219H65.3359H59.4297V59.0625V47.7422V41.8359ZM104.219 108.773H65.3359V120.094H104.219V108.773ZM65.3359 102.867H59.4297V108.773V120.094V126H65.3359H104.219H110.125V120.094V108.773V102.867H104.219H65.3359ZM65.3359 78.2578H104.219V89.5781H65.3359V78.2578ZM59.4297 72.3516H65.3359H104.219H110.125V78.2578V89.5781V95.4844H104.219H65.3359H59.4297V89.5781V78.2578V72.3516Z" fill="#3D3D3D"/>
</svg>
