<svg width="126" height="126" viewBox="0 0 126 126" fill="none" xmlns="http://www.w3.org/2000/svg">
<path fill-rule="evenodd" clip-rule="evenodd" d="M105.328 0.492188H16.7344V125.508H105.328V107.789H99.4219V119.602H22.6406V6.39844H99.4219V68.9062H105.328V0.492188ZM91.3008 102.86L125.135 69.0257L120.959 64.8493L91.3008 94.5072L79.8538 83.0602L75.6774 87.2366L91.3008 102.86ZM32.4844 54.6328H38.3906V60.5391H32.4844V54.6328ZM89.5781 54.6328H45.2812V60.5391H89.5781V54.6328ZM32.4844 42.8203H38.3906V48.7266H32.4844V42.8203ZM89.5781 42.8203H45.2812V48.7266H89.5781V42.8203ZM32.4844 31.0078H38.3906V36.9141H32.4844V31.0078ZM89.5781 31.0078H45.2812V36.9141H89.5781V31.0078ZM32.4844 19.1953H38.3906V25.1016H32.4844V19.1953ZM89.5781 19.1953H45.2812V25.1016H89.5781V19.1953Z" fill="#3D3D3D"/>
</svg>
