<svg width="126" height="126" viewBox="0 0 126 126" fill="none" xmlns="http://www.w3.org/2000/svg">
<path fill-rule="evenodd" clip-rule="evenodd" d="M54.966 18.0156L60.1699 17.079L62.5078 12.6506L64.8458 17.079L70.0496 18.0156L66.2335 21.8424L67.0007 26.8435L62.5455 24.5459L57.9645 26.8428L58.8477 21.9081L54.966 18.0156ZM42.8203 14.2005L56.2907 11.776L62.5078 0L68.7249 11.776L82.1953 14.2005L72.5243 23.8984L74.5966 37.4062L62.5078 31.1719L50.0736 37.4062L52.4914 23.8984L42.8203 14.2005ZM19.0363 31.3047L24.2402 30.3681L26.5781 25.9397L28.9161 30.3681L34.12 31.3047L30.3038 35.1315L31.0711 40.1326L26.6158 37.835L22.0348 40.1319L22.918 35.1972L19.0363 31.3047ZM6.89062 27.4896L20.361 25.0651L26.5781 13.2891L32.7952 25.0651L46.2656 27.4896L36.5946 37.1875L38.6669 50.6953L26.5781 44.4609L14.1439 50.6953L16.5617 37.1875L6.89062 27.4896ZM15.7227 86.1328H36.4219L34.6279 92.0391H20.2071L10.8281 126H4.42969L15.7227 86.1328ZM110.277 86.1328H89.5781L91.372 92.0391H105.793L115.172 126H121.57L110.277 86.1328ZM94.623 30.3681L89.4191 31.3047L93.3008 35.1972L92.4176 40.1319L96.9986 37.835L101.454 40.1326L100.687 35.1315L104.503 31.3047L99.2989 30.3681L96.9609 25.9397L94.623 30.3681ZM90.7438 25.0651L77.2734 27.4896L86.9445 37.1875L84.5267 50.6953L96.9609 44.4609L109.05 50.6953L106.977 37.1875L116.648 27.4896L103.178 25.0651L96.9609 13.2891L90.7438 25.0651ZM31.0078 126H94.2539L84.1641 81.2109H41.3438L31.0078 126ZM38.4323 120.094H86.8691L79.4403 87.1172H46.0422L38.4323 120.094ZM71.3672 62.0156C71.3672 66.9085 67.4007 70.875 62.5078 70.875C57.6149 70.875 53.6484 66.9085 53.6484 62.0156C53.6484 57.1227 57.6149 53.1562 62.5078 53.1562C67.4007 53.1562 71.3672 57.1227 71.3672 62.0156ZM77.2734 62.0156C77.2734 70.1705 70.6626 76.7812 62.5078 76.7812C54.353 76.7812 47.7422 70.1705 47.7422 62.0156C47.7422 53.8608 54.353 47.25 62.5078 47.25C70.6626 47.25 77.2734 53.8608 77.2734 62.0156ZM96.9609 75.3047C101.854 75.3047 105.82 71.3382 105.82 66.4453C105.82 61.5524 101.854 57.5859 96.9609 57.5859C92.068 57.5859 88.1016 61.5524 88.1016 66.4453C88.1016 71.3382 92.068 75.3047 96.9609 75.3047ZM96.9609 81.2109C105.116 81.2109 111.727 74.6001 111.727 66.4453C111.727 58.2905 105.116 51.6797 96.9609 51.6797C88.8061 51.6797 82.1953 58.2905 82.1953 66.4453C82.1953 74.6001 88.8061 81.2109 96.9609 81.2109ZM36.9141 68.9062C36.9141 73.7991 32.9476 77.7656 28.0547 77.7656C23.1618 77.7656 19.1953 73.7991 19.1953 68.9062C19.1953 64.0134 23.1618 60.0469 28.0547 60.0469C32.9476 60.0469 36.9141 64.0134 36.9141 68.9062ZM42.8203 68.9062C42.8203 77.0611 36.2095 83.6719 28.0547 83.6719C19.8999 83.6719 13.2891 77.0611 13.2891 68.9062C13.2891 60.7514 19.8999 54.1406 28.0547 54.1406C36.2095 54.1406 42.8203 60.7514 42.8203 68.9062Z" fill="#3D3D3D"/>
</svg>
