<svg width="126" height="126" viewBox="0 0 126 126" fill="none" xmlns="http://www.w3.org/2000/svg">
<path fill-rule="evenodd" clip-rule="evenodd" d="M22.1484 88.5938V100.413L5.90625 116.656V5.90625H22.1484V19.6875H15.75V25.5938H22.1484V35.4375H15.75V41.3438H22.1484V51.1875H15.75V57.0938H22.1484V66.9375H15.75V72.8438H22.1484V82.6875H15.75V88.5938H22.1484ZM28.0547 0H0V126H125.754V98.6836H28.0547V0ZM26.3248 104.59L10.8209 120.094H119.848V104.59H107.789V110.988H101.883V104.59H92.0391V110.988H86.1328V104.59H76.2891V110.988H70.3828V104.59H60.5391V110.988H54.6328V104.59H44.7891V110.988H38.8828V104.59H26.3248ZM77.4305 8.20797L117.141 21.4779V74.8355L77.4306 88.7689L37.4062 74.8413V21.4723L77.4305 8.20797ZM43.3125 27.6624V70.6429L74.4735 81.4862V37.7312L43.3125 27.6624ZM80.3797 37.7257V81.4748L111.234 70.6486V27.6728L80.3797 37.7257ZM104.764 23.5692L77.4228 32.4772L49.854 23.5691L77.4227 14.4327L104.764 23.5692Z" fill="#3D3D3D"/>
</svg>
