<svg width="24" height="24" viewBox="0 0 24 24" fill="none" xmlns="http://www.w3.org/2000/svg">
<path d="M1.5 5H22.5C23.328 5 24 5.448 24 6C24 6.552 23.328 7 22.5 7H1.5C0.672 7 0 6.552 0 6C0 5.448 0.672 5 1.5 5Z" fill="#323232"/>
<path d="M1.5 11H22.5C23.328 11 24 11.448 24 12C24 12.552 23.328 13 22.5 13H1.5C0.672 13 0 12.552 0 12C0 11.448 0.672 11 1.5 11Z" fill="#323232"/>
<path d="M1.5 17H22.5C23.328 17 24 17.448 24 18C24 18.552 23.328 19 22.5 19H1.5C0.672 19 0 18.552 0 18C0 17.448 0.672 17 1.5 17Z" fill="#323232"/>
</svg>
