<svg width="39" height="33" viewBox="0 0 44 38" version="1.1" xmlns="http://www.w3.org/2000/svg" xmlns:xlink="http://www.w3.org/1999/xlink" xmlns:figma="http://www.figma.com/figma/ns">
<title>&#239;&#131;&#137;</title>
<desc>Created using Figma</desc>
<g id="Canvas" transform="translate(2276 1342)" figma:type="canvas">
<g id="&#239;&#131;&#137;" style="mix-blend-mode:normal;" figma:type="text">
<use xlink:href="#path0_fill" transform="translate(-2276 -1348)" fill="#333333" style="mix-blend-mode:normal;"/>
</g>
</g>
<defs>
<path id="path0_fill" d="M 38.5714 33.75L 38.5714 36.9643C 38.5714 37.3996 38.4124 37.7762 38.0943 38.0943C 37.7762 38.4124 37.3996 38.5714 36.9643 38.5714L 1.60714 38.5714C 1.17187 38.5714 0.795201 38.4124 0.477121 38.0943C 0.15904 37.7762 0 37.3996 0 36.9643L 0 33.75C 0 33.3147 0.15904 32.9381 0.477121 32.62C 0.795201 32.3019 1.17187 32.1429 1.60714 32.1429L 36.9643 32.1429C 37.3996 32.1429 37.7762 32.3019 38.0943 32.62C 38.4124 32.9381 38.5714 33.3147 38.5714 33.75ZM 38.5714 20.8929L 38.5714 24.1071C 38.5714 24.5424 38.4124 24.9191 38.0943 25.2372C 37.7762 25.5552 37.3996 25.7143 36.9643 25.7143L 1.60714 25.7143C 1.17187 25.7143 0.795201 25.5552 0.477121 25.2372C 0.15904 24.9191 0 24.5424 0 24.1071L 0 20.8929C 0 20.4576 0.15904 20.0809 0.477121 19.7628C 0.795201 19.4448 1.17187 19.2857 1.60714 19.2857L 36.9643 19.2857C 37.3996 19.2857 37.7762 19.4448 38.0943 19.7628C 38.4124 20.0809 38.5714 20.4576 38.5714 20.8929ZM 38.5714 8.03572L 38.5714 11.25C 38.5714 11.6853 38.4124 12.0619 38.0943 12.38C 37.7762 12.6981 37.3996 12.8571 36.9643 12.8571L 1.60714 12.8571C 1.17187 12.8571 0.795201 12.6981 0.477121 12.38C 0.15904 12.0619 0 11.6853 0 11.25L 0 8.03572C 0 7.60045 0.15904 7.22377 0.477121 6.90569C 0.795201 6.58761 1.17187 6.42857 1.60714 6.42857L 36.9643 6.42857C 37.3996 6.42857 37.7762 6.58761 38.0943 6.90569C 38.4124 7.22377 38.5714 7.60045 38.5714 8.03572Z"/>
</defs>
</svg>
