<?xml version="1.0" encoding="utf-8"?>
<!-- Generator: Adobe Illustrator 20.1.0, SVG Export Plug-In . SVG Version: 6.00 Build 0)  -->
<svg version="1.1" id="logos" xmlns="http://www.w3.org/2000/svg" xmlns:xlink="http://www.w3.org/1999/xlink" x="0px" y="0px"
	 viewBox="0 0 125 40" style="enable-background:new 0 0 125 40;" xml:space="preserve">
<style type="text/css">
	.st0{fill:#FFFFFF;}
	.st1{fill:none;}
</style>
<g>
	<path d="M15.52606,36.32556c-0.358,0-0.70004-0.11859-0.98518-0.35248c-0.44053-0.36127-0.64728-0.93155-0.51464-1.41943
		c-2.35184,0.47659-4.97012,0.56726-5.94248-0.16479c-0.33853-0.25473-0.41892-0.55371-0.42696-0.75995
		c-0.03052-0.7959,1.026-1.59882,2.64151-2.73334c0.39066-0.27408,0.89022-0.62506,1.15375-0.85544
		c-0.4507-0.02838-1.65218,0.15125-4.00679,1.34558c-2.8283,1.43475-4.71399,4.25122-4.73271,4.27936
		c-0.10187,0.15402-0.29871,0.21381-0.46891,0.14395c-0.17058-0.07034-0.26756-0.25146-0.23138-0.43234
		c0.1996-0.99838,1.40284-4.15503,2.02714-4.77933c0.15073-0.15073,0.39492-0.15073,0.54566,0
		c0.15074,0.15076,0.15074,0.39493,0,0.54568c-0.24055,0.24066-0.75581,1.34604-1.18201,2.43814
		c0.87339-0.94614,2.13943-2.09573,3.69301-2.88382c2.3011-1.16669,4.12022-1.66037,4.86586-1.32043
		c0.20776,0.09494,0.34958,0.25699,0.39944,0.45621c0.11845,0.47382-0.4262,0.85617-1.61952,1.69427
		c-0.75657,0.5311-2.33062,1.63623-2.31379,2.07184c0.00088,0.02338,0.00327,0.08542,0.11983,0.1731
		c0.63761,0.47958,3.05163,0.57053,5.88847-0.09824c0.90931-1.52292,2.43161-2.10574,3.31856-2.10574
		c0.00842,0,0.0167,0,0.025,0.00024c0.6297,0.00778,0.81912,0.2952,0.8759,0.46576c0.03982,0.1196,0.06092,0.30902-0.06456,0.53336
		c-0.37835,0.67554-2.13165,1.40787-3.64214,1.77692c-0.06532,0.13214-0.12624,0.27307-0.18126,0.42331
		c-0.04472,0.1922,0.06381,0.44568,0.26228,0.60822c0.15287,0.12537,0.48172,0.29947,0.9647,0.05804
		c0.07122-0.03568,7.16495-3.56339,10.73674-3.70633c0.1648-0.0098,0.33275,0.10074,0.39141,0.25674
		c0.11166,0.29745-0.0157,0.409-0.84462,1.13403c-0.4826,0.4223-1.08316,0.94763-1.42834,1.34006
		c-0.1903,0.21628-0.21681,0.48712-0.06909,0.70694c0.16983,0.25223,0.58146,0.44165,1.22837,0.21704
		c0.49504-0.17209,1.28791-0.50394,2.20601-0.88834c1.75694-0.73557,3.94361-1.65079,5.14472-1.89096
		c0.19256-0.03769,0.384,0.07413,0.44353,0.26202c0.05942,0.18768-0.03203,0.38989-0.21216,0.4693
		c-0.51929,0.22913-0.77202,0.69287-0.79224,1.05087c-0.00803,0.1442,0.01382,0.40698,0.25211,0.5459
		c0.17033,0.09976,0.78621,0.06131,1.62241-0.33337c0.74841-0.35373,1.20827-0.77853,1.31743-1.05414
		c-0.18754-0.37961-1.21744-1.41238-2.14874-1.59879c-0.18665-0.0372-0.31818-0.20502-0.30988-0.39517
		c0.00829-0.18994,0.15375-0.3457,0.34293-0.36679c1.85127-0.20526,5.29984,0.07813,7.52959,0.61951
		c1.30286,0.31656,2.11708,0.79514,2.4203,1.4227c0.15526,0.32132,0.16456,0.67831,0.02588,0.97928
		c-0.02186,0.04721-0.05025,0.09848-0.08416,0.1535c2.55722-1.28479,6.06207-2.2417,10.45323-2.85193
		c0.19997-0.02689,0.39091,0.10577,0.43136,0.30576c0.04019,0.19998-0.0819,0.39667-0.27886,0.44919
		c-2.5105,0.66953-3.95956,1.92917-4.23289,2.45197c0.3997-0.06232,1.48474-0.45245,3.67015-1.8327
		c1.55986-0.98505,2.76549-2.05753,3.57896-2.88055c0.37709-0.72653,0.80166-1.27621,1.17498-1.29831
		c0.20927-0.0166,0.39668,0.11127,0.47507,0.31503c0.05,0.12988,0.02587,0.27682-0.06281,0.38412
		c-0.19973,0.24191-0.52155,0.61298-0.95893,1.06042c-0.26806,0.53082-0.55546,1.24155-0.76523,2.06882
		c-0.11155,0.43939-0.17963,1.01874,0.12888,1.28326c0.32534,0.27911,1.03354,0.19672,1.56513-0.02914
		c1.31492-0.55795,5.91937-2.37808,9.95857-2.37808c2.205,0,3.63297,0.42279,4.24445,1.25711
		c0.42332,0.57782,0.3085,1.14862,0.23967,1.36719c-0.09195,0.29141-0.38111,0.53787-0.83633,0.71271
		c-0.99234,0.38138-2.81271,0.43814-4.67907-0.65671c-0.1839-0.10776-0.24545-0.34442-0.13767-0.52808
		c0.10778-0.18414,0.34493-0.24493,0.52808-0.13766c1.48198,0.86951,2.93959,0.91571,3.80908,0.66928
		c0.41402-0.11734,0.56525-0.2663,0.58309-0.29971c0.0304-0.09848,0.08542-0.37784-0.12938-0.67078
		c-0.25776-0.35172-1.07098-0.94159-3.62192-0.94159c-3.89349,0-8.37611,1.77341-9.6571,2.3168
		c-0.69715,0.29568-1.73572,0.44818-2.36906-0.09549c-0.33614-0.28815-0.67379-0.87952-0.37458-2.05902
		c0.051-0.20047,0.1128-0.41379,0.1834-0.6326c-0.69012,0.5929-1.51488,1.22522-2.46527,1.82565
		c-2.45146,1.54855-3.99147,2.18015-4.57909,1.87592c-0.19294-0.10025-0.31001-0.28641-0.32132-0.51074
		c-0.02839-0.56802,0.66324-1.36792,1.80807-2.08569c-2.98984,0.60648-6.23341,1.57193-8.50523,3.09711
		c-0.22309,0.14975-0.34544,0.23239-0.53536,0.18265c-0.10728-0.02838-0.20224-0.1055-0.25198-0.20474
		c-0.05426-0.10852-0.05426-0.23666,0-0.34518c0.05477-0.10928,0.17159-0.2482,0.4914-0.61725
		c0.27207-0.31406,0.72755-0.83984,0.82175-1.0441c0.02462-0.05325,0.05477-0.16556-0.01984-0.31982
		c-0.08969-0.18591-0.45522-0.65594-1.90755-1.00842c-1.61877-0.39316-3.97903-0.65042-5.78296-0.66373
		c0.69276,0.50925,1.24683,1.16342,1.3315,1.55835c0.01005,0.04672,0.01118,0.09521,0.00365,0.14246
		c-0.14082,0.8725-1.39166,1.52618-1.77177,1.70581c-0.37056,0.17511-1.63435,0.71472-2.34092,0.30249
		c-0.42709-0.24924-0.66399-0.71878-0.63372-1.25613c0.01144-0.20148,0.05766-0.3992,0.13416-0.58636
		c-1.10915,0.38715-2.47683,0.95969-3.64955,1.45056c-0.92991,0.38916-1.73295,0.72531-2.25047,0.90543
		c-1.06243,0.36905-1.80706-0.04697-2.12235-0.5155c-0.34179-0.50848-0.28941-1.17047,0.13026-1.64755
		c0.35323-0.40146,0.91835-0.90189,1.3982-1.3222c-3.59705,0.64691-9.26595,3.46643-9.32888,3.49808
		C16.07122,36.25897,15.79412,36.32529,15.52606,36.32556z M42.18232,35.71506h0.00252H42.18232z M17.75481,32.3396
		c-0.18528,0-0.46703,0.03769-0.82226,0.17084c-0.27496,0.103-0.78382,0.34244-1.26906,0.83029
		c1.04485-0.33865,1.81535-0.74512,2.12059-1.00085C17.77465,32.3396,17.76485,32.3396,17.75481,32.3396z"/>
</g>
<g>
	<path d="M15.52606,36.32556c-0.358,0-0.70004-0.11859-0.98518-0.35248c-0.44053-0.36127-0.64728-0.93155-0.51464-1.41943
		c-2.35184,0.47659-4.97012,0.56726-5.94248-0.16479c-0.33853-0.25473-0.41892-0.55371-0.42696-0.75995
		c-0.03052-0.7959,1.026-1.59882,2.64151-2.73334c0.39066-0.27408,0.89022-0.62506,1.15375-0.85544
		c-0.4507-0.02838-1.65218,0.15125-4.00679,1.34558c-2.8283,1.43475-4.71399,4.25122-4.73271,4.27936
		c-0.10187,0.15402-0.29871,0.21381-0.46891,0.14395c-0.17058-0.07034-0.26756-0.25146-0.23138-0.43234
		c0.1996-0.99838,1.40284-4.15503,2.02714-4.77933c0.15073-0.15073,0.39492-0.15073,0.54566,0
		c0.15074,0.15076,0.15074,0.39493,0,0.54568c-0.24055,0.24066-0.75581,1.34604-1.18201,2.43814
		c0.87339-0.94614,2.13943-2.09573,3.69301-2.88382c2.3011-1.16669,4.12022-1.66037,4.86586-1.32043
		c0.20776,0.09494,0.34958,0.25699,0.39944,0.45621c0.11845,0.47382-0.4262,0.85617-1.61952,1.69427
		c-0.75657,0.5311-2.33062,1.63623-2.31379,2.07184c0.00088,0.02338,0.00327,0.08542,0.11983,0.1731
		c0.63761,0.47958,3.05163,0.57053,5.88847-0.09824c0.90931-1.52292,2.43161-2.10574,3.31856-2.10574
		c0.00842,0,0.0167,0,0.025,0.00024c0.6297,0.00778,0.81912,0.2952,0.8759,0.46576c0.03982,0.1196,0.06092,0.30902-0.06456,0.53336
		c-0.37835,0.67554-2.13165,1.40787-3.64214,1.77692c-0.06532,0.13214-0.12624,0.27307-0.18126,0.42331
		c-0.04472,0.1922,0.06381,0.44568,0.26228,0.60822c0.15287,0.12537,0.48172,0.29947,0.9647,0.05804
		c0.07122-0.03568,7.16495-3.56339,10.73674-3.70633c0.1648-0.0098,0.33275,0.10074,0.39141,0.25674
		c0.11166,0.29745-0.0157,0.409-0.84462,1.13403c-0.4826,0.4223-1.08316,0.94763-1.42834,1.34006
		c-0.1903,0.21628-0.21681,0.48712-0.06909,0.70694c0.16983,0.25223,0.58146,0.44165,1.22837,0.21704
		c0.49504-0.17209,1.28791-0.50394,2.20601-0.88834c1.75694-0.73557,3.94361-1.65079,5.14472-1.89096
		c0.19256-0.03769,0.384,0.07413,0.44353,0.26202c0.05942,0.18768-0.03203,0.38989-0.21216,0.4693
		c-0.51929,0.22913-0.77202,0.69287-0.79224,1.05087c-0.00803,0.1442,0.01382,0.40698,0.25211,0.5459
		c0.17033,0.09976,0.78621,0.06131,1.62241-0.33337c0.74841-0.35373,1.20827-0.77853,1.31743-1.05414
		c-0.18754-0.37961-1.21744-1.41238-2.14874-1.59879c-0.18665-0.0372-0.31818-0.20502-0.30988-0.39517
		c0.00829-0.18994,0.15375-0.3457,0.34293-0.36679c1.85127-0.20526,5.29984,0.07813,7.52959,0.61951
		c1.30286,0.31656,2.11708,0.79514,2.4203,1.4227c0.15526,0.32132,0.16456,0.67831,0.02588,0.97928
		c-0.02186,0.04721-0.05025,0.09848-0.08416,0.1535c2.55722-1.28479,6.06207-2.2417,10.45323-2.85193
		c0.19997-0.02689,0.39091,0.10577,0.43136,0.30576c0.04019,0.19998-0.0819,0.39667-0.27886,0.44919
		c-2.5105,0.66953-3.95956,1.92917-4.23289,2.45197c0.3997-0.06232,1.48474-0.45245,3.67015-1.8327
		c1.55986-0.98505,2.76549-2.05753,3.57896-2.88055c0.37709-0.72653,0.80166-1.27621,1.17498-1.29831
		c0.20927-0.0166,0.39668,0.11127,0.47507,0.31503c0.05,0.12988,0.02587,0.27682-0.06281,0.38412
		c-0.19973,0.24191-0.52155,0.61298-0.95893,1.06042c-0.26806,0.53082-0.55546,1.24155-0.76523,2.06882
		c-0.11155,0.43939-0.17963,1.01874,0.12888,1.28326c0.32534,0.27911,1.03354,0.19672,1.56513-0.02914
		c1.31492-0.55795,5.91937-2.37808,9.95857-2.37808c2.205,0,3.63297,0.42279,4.24445,1.25711
		c0.42332,0.57782,0.3085,1.14862,0.23967,1.36719c-0.09195,0.29141-0.38111,0.53787-0.83633,0.71271
		c-0.99234,0.38138-2.81271,0.43814-4.67907-0.65671c-0.1839-0.10776-0.24545-0.34442-0.13767-0.52808
		c0.10778-0.18414,0.34493-0.24493,0.52808-0.13766c1.48198,0.86951,2.93959,0.91571,3.80908,0.66928
		c0.41402-0.11734,0.56525-0.2663,0.58309-0.29971c0.0304-0.09848,0.08542-0.37784-0.12938-0.67078
		c-0.25776-0.35172-1.07098-0.94159-3.62192-0.94159c-3.89349,0-8.37611,1.77341-9.6571,2.3168
		c-0.69715,0.29568-1.73572,0.44818-2.36906-0.09549c-0.33614-0.28815-0.67379-0.87952-0.37458-2.05902
		c0.051-0.20047,0.1128-0.41379,0.1834-0.6326c-0.69012,0.5929-1.51488,1.22522-2.46527,1.82565
		c-2.45146,1.54855-3.99147,2.18015-4.57909,1.87592c-0.19294-0.10025-0.31001-0.28641-0.32132-0.51074
		c-0.02839-0.56802,0.66324-1.36792,1.80807-2.08569c-2.98984,0.60648-6.23341,1.57193-8.50523,3.09711
		c-0.22309,0.14975-0.34544,0.23239-0.53536,0.18265c-0.10728-0.02838-0.20224-0.1055-0.25198-0.20474
		c-0.05426-0.10852-0.05426-0.23666,0-0.34518c0.05477-0.10928,0.17159-0.2482,0.4914-0.61725
		c0.27207-0.31406,0.72755-0.83984,0.82175-1.0441c0.02462-0.05325,0.05477-0.16556-0.01984-0.31982
		c-0.08969-0.18591-0.45522-0.65594-1.90755-1.00842c-1.61877-0.39316-3.97903-0.65042-5.78296-0.66373
		c0.69276,0.50925,1.24683,1.16342,1.3315,1.55835c0.01005,0.04672,0.01118,0.09521,0.00365,0.14246
		c-0.14082,0.8725-1.39166,1.52618-1.77177,1.70581c-0.37056,0.17511-1.63435,0.71472-2.34092,0.30249
		c-0.42709-0.24924-0.66399-0.71878-0.63372-1.25613c0.01144-0.20148,0.05766-0.3992,0.13416-0.58636
		c-1.10915,0.38715-2.47683,0.95969-3.64955,1.45056c-0.92991,0.38916-1.73295,0.72531-2.25047,0.90543
		c-1.06243,0.36905-1.80706-0.04697-2.12235-0.5155c-0.34179-0.50848-0.28941-1.17047,0.13026-1.64755
		c0.35323-0.40146,0.91835-0.90189,1.3982-1.3222c-3.59705,0.64691-9.26595,3.46643-9.32888,3.49808
		C16.07122,36.25897,15.79412,36.32529,15.52606,36.32556z M42.18232,35.71506h0.00252H42.18232z M17.75481,32.3396
		c-0.18528,0-0.46703,0.03769-0.82226,0.17084c-0.27496,0.103-0.78382,0.34244-1.26906,0.83029
		c1.04485-0.33865,1.81535-0.74512,2.12059-1.00085C17.77465,32.3396,17.76485,32.3396,17.75481,32.3396z"/>
</g>
<g>
	<circle cx="11.36208" cy="15.93393" r="11.36209"/>
	<circle cx="37.73069" cy="15.93393" r="11.36209"/>
	<circle cx="64.0993" cy="15.93393" r="11.36209"/>
	<path class="st0" d="M11.4264,10.51013c-2.77051,0-5.01646,2.36111-5.01646,5.27371s2.24595,5.27374,5.01646,5.27374
		c2.77052,0,5.01647-2.36115,5.01647-5.27374S14.19691,10.51013,11.4264,10.51013z M11.44783,18.59222
		c-1.30237,0-2.35816-1.21896-2.35816-2.72263c0-1.50363,1.05579-2.7226,2.35816-2.7226c1.30238,0,2.35817,1.21896,2.35817,2.7226
		C13.806,17.37326,12.75021,18.59222,11.44783,18.59222z"/>
	<path class="st0" d="M67.2989,17.71326c-1.44706,1.10941-2.64221,0.94327-3.24249,0.87897
		c-0.9538-0.1022-1.78474-0.69269-2.15311-1.68698c-0.02455-0.06631-0.02283-0.18884,0.21835-0.18884c0,0,4.91999,0,5.56313,0
		s1.35059-0.24118,1.35059-1.30234c0-1.06119-1.05582-4.90393-5.00039-4.90393c-2.77052,0-5.01647,2.36111-5.01647,5.27371
		s2.24946,5.13437,5.01647,5.27374c2.97986,0.15005,4.43569-1.4631,4.77529-2.04196
		C69.28191,18.2117,68.03851,17.11835,67.2989,17.71326z M61.96854,14.41342c0.36939-0.91736,1.18165-1.52493,2.08788-1.52493
		c1.6507,0,2.29386,1.4483,2.29386,1.6734c0,0.24442-0.08575,0.38589-0.42876,0.38589c-0.343,0-3.06561,0-3.49437,0
		S61.84832,14.71194,61.96854,14.41342z"/>
	<path class="st0" d="M42.47339,11.00583c-0.62213-0.56015-1.58945-0.50943-2.14961,0.1127l-2.53419,2.93607l-2.5342-2.93607
		c-0.56016-0.62213-1.52747-0.67285-2.14961-0.1127c-0.62212,0.56015-0.67284,1.5275-0.11269,2.1496l3.23695,3.75031v3.38007
		c0,0.83716,0.68494,1.52209,1.52208,1.52209c0.83717,0,1.5221-0.68494,1.5221-1.52209v-3.29327l3.31185-3.8371
		C43.14623,12.53333,43.09553,11.56598,42.47339,11.00583z"/>
</g>
<rect class="st1" width="125" height="40"/>
</svg>
