<?xml version="1.0" encoding="utf-8"?>
<!-- Generator: Adobe Illustrator 20.1.0, SVG Export Plug-In . SVG Version: 6.00 Build 0)  -->
<svg version="1.1" id="Layer_1" xmlns="http://www.w3.org/2000/svg" xmlns:xlink="http://www.w3.org/1999/xlink" x="0px" y="0px"
	 viewBox="0 0 16.8 12.6" style="enable-background:new 0 0 16.8 12.6;" xml:space="preserve">
<style type="text/css">
	.st0{fill:#333333;}
</style>
<path class="st0" d="M12.3,0.9C12.3,1,12.3,1,12.3,0.9c-0.7,1.3-1.7,3-3,5.4C8,8.7,7,10.5,6.3,11.6l-0.5,0.8
	c-0.1,0.1-0.2,0.2-0.3,0.2c-0.1,0-0.5-0.2-1.3-0.7c-0.1-0.1-0.2-0.2-0.2-0.3c0-0.1,0.1-0.3,0.4-0.8c-0.9-0.4-1.7-0.9-2.5-1.6
	C1.4,8.6,0.7,7.8,0.2,7C0.1,6.8,0,6.5,0,6.3s0.1-0.5,0.2-0.6c1-1.5,2.1-2.6,3.6-3.5c1.4-0.9,3-1.3,4.7-1.3C9,0.9,9.5,1,10.1,1.1
	l0.5-0.9C10.7,0.1,10.8,0,10.9,0c0,0,0.1,0,0.2,0.1s0.2,0.1,0.3,0.1s0.2,0.1,0.3,0.2c0.1,0.1,0.2,0.1,0.3,0.2
	c0.1,0.1,0.2,0.1,0.2,0.1C12.2,0.7,12.3,0.8,12.3,0.9z M5.2,9.8l0.7-1.3C5.4,8.1,5,7.6,4.7,7C4.4,6.4,4.2,5.8,4.2,5.1
	c0-0.8,0.2-1.5,0.6-2.1C3.3,3.7,2.2,4.8,1.2,6.3C2.2,7.9,3.6,9.1,5.2,9.8z M8.7,3c0.1-0.1,0.1-0.2,0.1-0.3c0-0.1,0-0.2-0.1-0.3
	C8.6,2.3,8.5,2.3,8.4,2.3c-0.8,0-1.5,0.3-2,0.8c-0.6,0.6-0.8,1.2-0.8,2c0,0.1,0,0.2,0.1,0.3C5.8,5.5,5.9,5.6,6,5.6
	c0.1,0,0.2,0,0.3-0.1c0.1-0.1,0.1-0.2,0.1-0.3c0-0.5,0.2-1,0.6-1.4s0.8-0.6,1.4-0.6C8.5,3.2,8.6,3.1,8.7,3z M16.8,6.3
	c0,0.2-0.1,0.4-0.2,0.6c-0.2,0.4-0.6,0.9-1,1.4c-0.9,1.1-2,1.9-3.3,2.5c-1.2,0.6-2.5,0.9-3.9,0.9l0.7-1.2c1.3-0.1,2.6-0.5,3.7-1.3
	c1.1-0.7,2.1-1.7,2.8-2.9c-0.7-1.1-1.6-2-2.6-2.8l0.6-1.1c0.6,0.4,1.2,0.9,1.7,1.4c0.5,0.6,1,1.1,1.4,1.7
	C16.8,5.9,16.8,6.1,16.8,6.3z M12.6,5.1c0,0.9-0.2,1.7-0.7,2.4c-0.5,0.7-1.1,1.2-2,1.5l2.6-4.7C12.6,4.6,12.6,4.9,12.6,5.1z"/>
</svg>
