<?xml version="1.0" encoding="utf-8"?>
<!-- Generator: Adobe Illustrator 20.1.0, SVG Export Plug-In . SVG Version: 6.00 Build 0)  -->
<svg version="1.1" id="Layer_1" xmlns="http://www.w3.org/2000/svg" xmlns:xlink="http://www.w3.org/1999/xlink" x="0px" y="0px"
	 viewBox="0 0 16.8 10.8" style="enable-background:new 0 0 16.8 10.8;" xml:space="preserve">
<style type="text/css">
	.st0{fill:#333333;}
</style>
<path class="st0" d="M16.8,5.4c0,0.2-0.1,0.4-0.2,0.6c-0.9,1.4-2.1,2.6-3.5,3.5s-3,1.3-4.7,1.3c-1.6,0-3.2-0.4-4.7-1.3
	c-1.5-0.9-2.7-2-3.5-3.5C0.1,5.8,0,5.6,0,5.4S0.1,5,0.2,4.8c0.9-1.4,2.1-2.6,3.5-3.5C5.2,0.4,6.8,0,8.4,0c1.6,0,3.2,0.4,4.7,1.3
	c1.5,0.9,2.7,2,3.5,3.5C16.8,5,16.8,5.2,16.8,5.4z M15.6,5.4c-1-1.5-2.1-2.6-3.6-3.3c0.4,0.7,0.6,1.4,0.6,2.1c0,1.2-0.4,2.1-1.2,3
	s-1.8,1.2-3,1.2c-1.2,0-2.1-0.4-3-1.2c-0.8-0.8-1.2-1.8-1.2-3c0-0.8,0.2-1.5,0.6-2.1C3.3,2.8,2.2,3.9,1.2,5.4C2,6.7,3.1,7.7,4.3,8.5
	C5.6,9.2,7,9.6,8.4,9.6s2.8-0.4,4.1-1.1C13.8,7.7,14.8,6.7,15.6,5.4z M8.7,2.1C8.8,2,8.9,1.9,8.9,1.8c0-0.1,0-0.2-0.1-0.3
	C8.6,1.4,8.5,1.4,8.4,1.4c-0.8,0-1.5,0.3-2,0.8c-0.6,0.6-0.8,1.2-0.8,2c0,0.1,0,0.2,0.1,0.3C5.8,4.6,5.9,4.7,6,4.7
	c0.1,0,0.2,0,0.3-0.1c0.1-0.1,0.1-0.2,0.1-0.3c0-0.5,0.2-1,0.6-1.4s0.8-0.6,1.4-0.6C8.5,2.3,8.6,2.2,8.7,2.1z"/>
</svg>
