<svg xmlns="http://www.w3.org/2000/svg" xmlns:xlink="http://www.w3.org/1999/xlink" viewBox="0 0 288 288"><defs><ellipse id="a" transform="rotate(-80.781 144.003 143.998)" cx="144" cy="144" rx="134.3" ry="134.2"/></defs><clipPath id="b"><use xlink:href="#a" overflow="visible"/></clipPath><g clip-path="url(#b)"><path fill="#C7E5EC" d="M.2-1.1h288v189.3H.2z"/><g opacity=".9" fill="#FFF"><path d="M75.2 101.5s0-27.3 27.3-27.3 27.3 27.3 27.3 27.3 13.6 0 13.6 13.6H75.2v-13.6z"/><path d="M47.9 128.8s-13.6 0-13.6-13.6 13.6-13.6 13.6-13.6 13.6 0 13.6 13.6h54.6s0-13.6 13.6-13.6c0 0 13.6 0 13.6 13.6 0 0 0 13.6-13.6 13.6H47.9z"/><path d="M47.9 115.2s0-27.3 27.3-27.3 27.3 27.3 27.3 27.3H47.9z"/><path d="M75.2 128.8s0-27.3 27.3-27.3 27.3 27.3 27.3 27.3H75.2z"/></g><g opacity=".9" fill="#FFF"><path d="M232.4 154.8s0-11.5 11.5-11.5 11.5 11.5 11.5 11.5 5.8 0 5.8 5.8h-28.8v-5.8z"/><path d="M220.9 166.3s-5.8 0-5.8-5.8 5.8-5.8 5.8-5.8 5.8 0 5.8 5.8h23.1s0-5.8 5.8-5.8c0 0 5.8 0 5.8 5.8 0 0 0 5.8-5.8 5.8h-34.7z"/><path d="M220.9 160.5s0-11.5 11.5-11.5 11.5 11.5 11.5 11.5h-23z"/><path d="M232.4 166.3s0-11.5 11.5-11.5 11.5 11.5 11.5 11.5h-23z"/></g><path fill="#57ACCD" d="M.2 188.2h288v98.7H.2z"/><ellipse fill="#3F889F" cx="139.8" cy="233.2" rx="58.5" ry="9"/><path fill="#A6A8AB" d="M80.2 234.3l9-9 63-9 27-9 9 9 9 18z"/><path fill="#929497" d="M188.2 216.3l-45 18h54zM98.2 234.3l-9-9 45 9z"/></g><g><path fill="#EFD3BF" d="M177.1 160c-1.5 3.1-4.4 4.7-6.5 3.7-2.1-1-2.6-4.3-1.2-7.4 1.5-3.1 4.4-4.7 6.5-3.7 2.2 1 2.7 4.3 1.2 7.4z"/><path fill="#207278" d="M159.6 174.8c-.4 0-.8 0-1.2-.1-6.5-1-9.3-9.7-9.6-10.7l4.2-1.2c.6 1.8 2.9 7.2 6.1 7.7 2.7.4 6.3-2.5 10.1-8.3l3.6 2.4c-4.6 6.8-8.9 10.2-13.2 10.2zM126.9 217.5c-5-12.6-1.8-31.4-1.7-32.2l3 .5c0 .2-3.2 18.7 1.5 30.5l-2.8 1.2z"/><path fill="#207278" d="M119.7 191.4v3.4s0 6.7 17.4 6.7 17.4-6.7 17.4-6.7v-3.4h-34.8z"/><path fill="#207278" d="M119.7 168h34.7v24.8h-34.7z"/><path fill="#445A5E" d="M157.6 143.6c-5.8-.2 3.4-23.8-20.1-23.8l-6.1.4c-17.6 3-11 25.3-16.7 26.3-5.7 1-10-11.8-9.2.6.8 12.4 12.5 13.1 12.5 13.1l19.1-1.3 19.1-1.3s8.8-2.1 8-14.5c-.9-12.3-.8.7-6.6.5"/><path fill="#EFD3BF" d="M122.7 158.1c.1 2.2-1.2 4.1-2.9 4.2-1.7.1-3.3-1.6-3.4-3.8-.1-2.2 1.2-4.1 2.9-4.2 1.7-.1 3.2 1.6 3.4 3.8zM157.5 155.7c.1 2.2-1.2 4.1-2.9 4.2-1.7.1-3.3-1.6-3.4-3.8-.1-2.2 1.2-4.1 2.9-4.2 1.7 0 3.2 1.7 3.4 3.8z"/><path fill="#754C28" d="M119.7 178.6h34.7v10.8h-34.7z"/><path fill="#207278" d="M121.9 188c-6.6-3.3-9.8-6.9-9.7-10.9.2-5.9 7.8-9.4 8.7-9.7l1.7 4c-1.6.7-6 3.2-6.1 5.9-.1 2 2.5 4.5 7.3 6.8l-1.9 3.9z"/><path fill="#EFD3BF" d="M137.8 171.9c15.7-1 16.6-10.7 16.5-13.4v-.7l-.3-4.3s-1-10.8-18-9.7c-17.1 1.1-16.6 12-16.6 12l.3 4.3v.7c.3 2.7 2.4 12.2 18.1 11.1"/><path fill="#333" d="M150.9 154.7c.2 3-2.1 5.6-5.1 5.8-3 .2-5.6-2.1-5.8-5.1-.2-3 2.1-5.6 5.1-5.8 3-.1 5.6 2.2 5.8 5.1"/><path fill="#333" d="M136.453 149.593l.794-.9 15.742 13.9-.795.9z"/><path fill="#404041" d="M119.2 153.8v-.2.2M153.8 151.3v0"/><path fill="#57ACCD" d="M119.3 154.8s6.8-2.4 17.2-3.1c10.3-.7 17.4.8 17.4.8s-.2-9.9-18-8.7c-17.8 1.2-16.6 11-16.6 11"/><path fill="#333" d="M135.4 156.3c.1.9-.6 1.7-1.6 1.8-.9.1-1.7-.6-1.8-1.6-.1-.9.6-1.7 1.5-1.8 1.1 0 1.9.7 1.9 1.6M143.31 150.344l.15-1.894 5.085.404-.15 1.894zM136 133.5c.2.1.4.1.7.2.3.1.7-.2.6-.5l-.2-2.3c0-.2-.1-.4-.3-.4h-.1c-.4-.1-.5-.3-.6-.7 0-.3.2-.6.6-.7.2-.1.3-.3.3-.5v-.3c0-.3.2-.5.5-.5h.1c.3 0 .5.2.5.5v.3c0 .2.2.4.4.5.4.1.7.3 1 .5.2.2.5.1.7 0l1.5-1.5c.2-.2.2-.5 0-.7-1.1-1-2.6-1.5-4.6-1.4-1.3.1-2.4.5-3.2 1.2-.9.7-1.2 1.7-1.2 2.9.2 1.6 1.3 2.8 3.3 3.4"/><path fill="#333" d="M139.7 131.1c-.2-.1-.5-.1-.7-.2-.3-.1-.7.2-.6.5l.2 2.3c0 .2.2.4.4.5.5.2.8.4.8.7 0 .4-.2.7-.7.9-.2.1-.3.3-.3.5v.3c0 .3-.2.5-.5.5h-.1c-.3 0-.5-.2-.5-.5v-.3c0-.2-.2-.4-.4-.5-.8-.1-1.6-.5-2.1-1-.2-.2-.5-.2-.7 0l-1.6 1.4c-.2.2-.2.5 0 .7.5.6 1.2 1 1.9 1.4 1 .5 2.2.7 3.6.6 3.4-.2 5.1-1.9 4.9-4.4-.3-1.6-1.3-2.7-3.6-3.4"/><path fill="#E4F1DE" d="M136 132.8c.2.1.4.1.7.2.3.1.7-.2.6-.5l-.2-2.3c0-.2-.1-.4-.3-.4h-.1c-.4-.1-.5-.3-.6-.7 0-.3.2-.6.6-.7.2-.1.3-.3.3-.5v-.3c0-.3.2-.5.5-.5h.1c.3 0 .5.2.5.5v.3c0 .2.2.4.4.5.4.1.7.3 1 .5.2.2.5.1.7 0l1.5-1.5c.2-.2.2-.5 0-.7-1.1-1-2.6-1.5-4.6-1.4-1.3.1-2.4.5-3.2 1.2-.9.7-1.2 1.7-1.2 2.9.2 1.6 1.2 2.8 3.3 3.4"/><path fill="#E4F1DE" d="M139.7 130.4c-.2-.1-.5-.1-.7-.2-.3-.1-.7.2-.6.5l.2 2.3c0 .2.2.4.4.5.5.2.8.4.8.7 0 .4-.2.7-.7.9-.2.1-.3.3-.3.5v.3c0 .3-.2.5-.5.5h-.1c-.3 0-.5-.2-.5-.5v-.3c0-.2-.2-.4-.4-.5-.8-.1-1.6-.5-2.1-1-.2-.2-.5-.2-.7 0l-1.6 1.4c-.2.2-.2.5 0 .7.5.6 1.2 1 1.9 1.4 1 .5 2.2.7 3.6.6 3.4-.2 5.1-1.9 4.9-4.4-.4-1.6-1.4-2.8-3.6-3.4"/><path fill="#593B23" d="M138.9 184c0 .8-.7 1.5-1.5 1.5s-1.5-.7-1.5-1.5.7-1.5 1.5-1.5 1.5.7 1.5 1.5zM146.6 184c0 .8-.7 1.5-1.5 1.5s-1.5-.7-1.5-1.5.7-1.5 1.5-1.5c.9 0 1.5.7 1.5 1.5zM152 184c0 .8-.7 1.5-1.5 1.5s-1.5-.7-1.5-1.5.7-1.5 1.5-1.5c.9 0 1.5.7 1.5 1.5zM128.9 184c0 .8-.7 1.5-1.5 1.5s-1.5-.7-1.5-1.5.7-1.5 1.5-1.5 1.5.7 1.5 1.5z"/><path fill="#F79542" d="M139.9 190.9h-5.1c-2.4 0-4.3-1.9-4.3-4.3v-5.1c0-2.4 1.9-4.3 4.3-4.3h5.1c2.4 0 4.3 1.9 4.3 4.3v5.1c.1 2.3-1.9 4.3-4.3 4.3zm-5-10.9c-.8 0-1.4.6-1.4 1.4v5.1c0 .8.6 1.4 1.4 1.4h5.1c.8 0 1.4-.6 1.4-1.4v-5.1c0-.8-.6-1.4-1.4-1.4h-5.1z"/><path fill="#333" d="M148.4 164.3s-4-5.8-8.9-3c-5.2-2.1-8.4 4.2-8.4 4.2-8.2.5-11.8-10-11.9-11.7l.8 12.4c.6 8.8 11.7 8.3 11.7 8.3l8.9 3.8 8.4-4.9s6.2-.6 5.7-9.4l-.8-12.4c0 1.5 2.7 12.2-5.5 12.7m-8.5 2.4c-6 .6-6.6-1.4-6.6-1.4 3.4.6 6.4-2.2 6.4-2.2s3.3 2.4 6.6 1.4c-.1 0-.4 2-6.4 2.2"/><path fill="#E6E7E8" d="M130.5 182.9h6.5v2.2h-6.5z"/><path fill="#1F6163" d="M164.787 164.16l2.284-3.993 7.465 4.27-2.284 3.993z"/><path fill="#F79542" d="M166.425 161.24l.596-1.042 7.463 4.274-.597 1.041z"/><path fill="#EFD3BF" d="M125.3 190.8c-1.4 1.9-3.8 2.5-5.3 1.3-1.5-1.1-1.6-3.6-.1-5.4 1.4-1.9 3.8-2.5 5.3-1.3 1.5 1.1 1.6 3.5.1 5.4z"/><path fill="#1F6163" d="M117.062 187.8l4.965-7.021 3.756 2.656-4.966 7.021z"/><path fill="#F79542" d="M119.872 189.766l4.967-7.021.98.693-4.967 7.02z"/><path fill="#E1AF8D" d="M142.4 160.3c0 .6-1.4 1.3-3.2 1.4-1.8.1-3.3-.3-3.4-.9 0-.6 1.4-1.3 3.2-1.4 1.9-.1 3.4.3 3.4.9z"/><path fill="#593B23" d="M123 210.5l1.9 11.2-5.6 1.9v1.9h9.3l1.9-15z"/><path fill="#754C28" d="M123.1 208.6l-3.5 6.9h13.9l-3.5-6.9z"/><path fill="#333" d="M130.7 150.3l-1.8-1.5c1.2-1.4 4.2-3.4 7.4-1.4l-1.3 1.9c-2.2-1.3-4.1.8-4.3 1z"/><g><path fill="#A6A8AB" d="M151.7 154.8c0 1.3-.6 2.3-1.4 2.3-.8 0-1.4-1-1.4-2.3 0-1.3.6-2.3 1.4-2.3.8 0 1.4 1 1.4 2.3z"/><path fill="#A6A8AB" d="M150.3 152.5l15.2-1.2v7l-15.2-1.2z"/><path fill="#929497" d="M166.9 154.8c0 2.6-.6 4.6-1.4 4.6-.8 0-1.4-2.1-1.4-4.6 0-2.6.6-4.6 1.4-4.6.8 0 1.4 2 1.4 4.6z"/><path fill="#929497" d="M165.5 150.2l22.2-2.3v13.9l-22.2-2.3z"/><ellipse fill="#A6A8AB" cx="187.7" cy="154.8" rx="4.2" ry="7"/><path fill="#404041" d="M190.4 154.8c0 3.2-1.2 5.8-2.8 5.8-1.5 0-2.8-2.6-2.8-5.8 0-3.2 1.2-5.8 2.8-5.8 1.6 0 2.8 2.6 2.8 5.8z"/><path fill="#E6E7E8" d="M189.1 153.1c0 1.6-.6 2.9-1.4 2.9-.8 0-1.4-1.3-1.4-2.9s.6-2.9 1.4-2.9c.7 0 1.4 1.3 1.4 2.9z"/></g><g><path fill="#207278" d="M162.8 204.5l-2.9-1c1.7-5.1 1.9-8.7.5-9.8-2.1-1.7-8.1.9-10.6 2.5l-1.6-2.7c1-.6 9.9-5.7 14.2-2.2 2.6 2.1 2.7 6.5.4 13.2z"/></g><g><path fill="#593B23" d="M164.8 201.1l-1.9 11.3 5.6 1.8v1.9h-9.4l-1.8-15z"/><path fill="#754C28" d="M157.9 199.2l-3.5 6.9h13.9l-3.5-6.9z"/></g></g></svg>