<?xml version="1.0" encoding="utf-8"?>
<!-- Generator: Adobe Illustrator 16.0.0, SVG Export Plug-In . SVG Version: 6.00 Build 0)  -->
<!DOCTYPE svg PUBLIC "-//W3C//DTD SVG 1.1//EN" "http://www.w3.org/Graphics/SVG/1.1/DTD/svg11.dtd">
<svg version="1.1" id="Layer_1" xmlns="http://www.w3.org/2000/svg" xmlns:xlink="http://www.w3.org/1999/xlink" x="0px" y="0px"
	 width="168.456px" height="158.389px" viewBox="0 0 168.456 158.389" enable-background="new 0 0 168.456 158.389"
	 xml:space="preserve">
<g>
	<g>
		<ellipse fill="#B64533" cx="86.494" cy="138.512" rx="72.426" ry="15.484"/>
		<ellipse fill="#C74736" cx="86.494" cy="131.972" rx="75.321" ry="18.79"/>
		<ellipse fill="#D85138" cx="86.494" cy="121.337" rx="75.321" ry="18.79"/>
		<ellipse fill="#E15B48" cx="86.494" cy="110.702" rx="75.321" ry="18.791"/>
		<ellipse fill="#B64533" cx="86.494" cy="107.942" rx="72.426" ry="15.088"/>
		<ellipse fill="#57ACCD" cx="86.888" cy="110.958" rx="66.391" ry="12.071"/>
		<circle fill="#92C9D6" cx="73.689" cy="115.374" r="1.471"/>
		<circle fill="#4799B2" cx="79.127" cy="117.042" r="2.171"/>
		<circle fill="#4799B2" cx="108.36" cy="115.979" r="1.109"/>
		<circle fill="#92C9D6" cx="96.195" cy="117.984" r="1.322"/>
		<circle fill="#92C9D6" cx="53.669" cy="117.984" r="1.322"/>
	</g>
	<g>
		<g>
			<g>
				<g>
					<path fill="#CEB799" d="M67.189,8.66l-1.243,1.207l-2.487,2.414l14.481,14.918c0,0,2.412,2.486,4.864,2.523
						c2.449,0.037,6.069,3.768,6.069,3.768l39.822,41.025l1.246-1.207L90.118,32.28c0,0-3.62-3.729-3.585-6.18
						c0.037-2.449-2.376-4.936-2.376-4.936L69.675,6.246L67.189,8.66z"/>
					
						<rect x="117.592" y="52.326" transform="matrix(0.7177 -0.6963 0.6963 0.7177 -10.2374 100.1902)" fill="#A8926F" width="1.733" height="20.792"/>
				</g>
				<g>
					<path fill="#F0D4C0" d="M120.044,59.564c0,0-1.301-1.247-2.55,0.052l-1.247,1.301c0,0-2.495,2.599,0.104,5.096
						c2.599,2.497,5.096-0.102,5.096-0.102l1.249-1.302c0,0,1.248-1.301-0.053-2.549L120.044,59.564z"/>
				</g>
				<g>
					<path fill="none" stroke="#237378" stroke-width="3.5482" stroke-miterlimit="10" d="M95.228,66.096c0,0,8.391,17.697,20.863,0
						"/>
					<g>
						
							<rect x="114.345" y="62.795" transform="matrix(0.713 -0.7012 0.7012 0.713 -13.024 100.3764)" fill="#216264" width="3.491" height="6.603"/>
						
							<rect x="116.561" y="61.886" transform="matrix(0.712 -0.7022 0.7022 0.712 -12.0723 100.9457)" fill="#F79643" width="0.903" height="6.606"/>
					</g>
				</g>
			</g>
			<path fill="#237378" d="M69.938,81.99l-0.366,2.537c0,0-0.73,5.072,12.407,6.964c13.14,1.892,13.87-3.182,13.87-3.182
				l0.364-2.537L69.938,81.99z"/>
			
				<rect x="71.287" y="60.874" transform="matrix(0.9898 0.1425 -0.1425 0.9898 11.3435 -11.2971)" fill="#237378" width="26.547" height="25.38"/>
			<path fill="#455B5F" d="M104.322,52.348c-4.324-1.101,6.295-17.279-11.213-21.011l-4.65-0.669
				c-13.636-0.526-12.228,17.157-16.686,16.993c-4.459-0.163-5.623-10.389-6.975-1.005s7.263,11.821,7.263,11.821l14.467,2.083
				l14.467,2.083c0,0,6.941-0.198,8.292-9.581C110.639,43.68,108.647,53.449,104.322,52.348"/>
			
				<ellipse transform="matrix(0.9898 0.1424 -0.1424 0.9898 8.9047 -9.8805)" fill="#F0D4C0" cx="73.495" cy="57.284" rx="2.428" ry="3.048"/>
			
				<ellipse transform="matrix(0.9898 0.1428 -0.1428 0.9898 9.7475 -13.6428)" fill="#F0D4C0" cx="99.921" cy="61.088" rx="2.428" ry="3.047"/>
			
				<rect x="70.443" y="75.285" transform="matrix(0.9898 0.1425 -0.1425 0.9898 12.1752 -11.1202)" fill="#754D29" width="26.545" height="8.296"/>
			<path fill="#F0D4C0" d="M85.017,70.402c11.892,1.711,14.092-5.366,14.479-7.418l0.077-0.545l0.474-3.283
				c0,0,0.999-8.237-11.955-10.103c-12.955-1.866-14.319,6.319-14.319,6.319l-0.474,3.284l-0.078,0.544
				C73.011,61.278,73.125,68.69,85.017,70.402"/>
			<path fill="#333333" d="M97.556,59.635c-0.327,2.268-2.429,3.841-4.696,3.515c-2.269-0.326-3.841-2.429-3.516-4.696
				c0.327-2.268,2.43-3.842,4.698-3.515C96.309,55.265,97.882,57.369,97.556,59.635"/>
			
				<line fill="none" stroke="#333333" stroke-width="0.9217" stroke-miterlimit="10" x1="87.921" y1="53.185" x2="97.492" y2="66.096"/>
			<path fill="#414142" d="M73.983,53.889l0.024-0.158C74.008,53.731,73.998,53.788,73.983,53.889"/>
			<path fill="#414142" d="M100.281,57.513l-0.023,0.158C100.275,57.57,100.281,57.513,100.281,57.513"/>
			<path fill="#57ACCD" d="M73.875,54.641c0,0,5.509-0.733,13.354,0.396c7.847,1.129,12.922,3.386,12.922,3.386
				s1.441-7.427-12.06-9.37C74.588,47.109,73.875,54.641,73.875,54.641"/>
			<path fill="#333333" d="M83.997,58.073c-0.099,0.695-0.745,1.18-1.44,1.079c-0.696-0.101-1.179-0.747-1.079-1.441
				c0.1-0.696,0.746-1.18,1.441-1.079C83.615,56.732,84.098,57.377,83.997,58.073"/>
			
				<rect x="92.703" y="54.295" transform="matrix(0.9586 0.2846 -0.2846 0.9586 19.5769 -24.6614)" fill="#333333" width="3.87" height="1.461"/>
			<path fill="#333333" d="M89.805,41.375c0.139,0.074,0.301,0.156,0.469,0.238c0.236,0.116,0.517-0.033,0.556-0.294l0.248-1.721
				c0.021-0.154-0.051-0.309-0.186-0.388c-0.025-0.015-0.052-0.03-0.078-0.047c-0.276-0.17-0.354-0.338-0.313-0.619
				c0.032-0.227,0.22-0.387,0.529-0.448c0.162-0.031,0.286-0.16,0.31-0.323l0.034-0.233c0.03-0.211,0.227-0.359,0.44-0.328
				l0.11,0.016c0.212,0.03,0.358,0.228,0.328,0.44l-0.036,0.249c-0.024,0.17,0.068,0.332,0.224,0.407
				c0.269,0.13,0.497,0.307,0.688,0.533c0.123,0.146,0.337,0.174,0.498,0.071l1.341-0.852c0.187-0.117,0.24-0.366,0.114-0.546
				c-0.674-0.954-1.737-1.537-3.191-1.747c-0.972-0.139-1.838-0.005-2.604,0.416c-0.763,0.422-1.205,1.091-1.338,2.02
				C87.758,39.544,88.38,40.596,89.805,41.375"/>
			<path fill="#333333" d="M92.938,40.174c-0.157-0.085-0.328-0.171-0.496-0.255c-0.237-0.115-0.518,0.032-0.557,0.294l-0.253,1.761
				c-0.023,0.16,0.058,0.315,0.197,0.396c0.002,0,0.002,0.001,0.002,0.001c0.357,0.21,0.501,0.417,0.464,0.685
				c-0.045,0.297-0.253,0.475-0.626,0.533c-0.165,0.025-0.293,0.16-0.316,0.326l-0.037,0.259c-0.03,0.212-0.228,0.359-0.438,0.327
				l-0.111-0.016c-0.213-0.029-0.359-0.227-0.328-0.438l0.032-0.228c0.026-0.182-0.08-0.354-0.252-0.419
				c-0.601-0.225-1.098-0.62-1.432-1.102c-0.111-0.161-0.333-0.203-0.503-0.107L86.843,43c-0.185,0.105-0.256,0.345-0.147,0.53
				c0.294,0.496,0.7,0.951,1.226,1.367c0.658,0.511,1.529,0.838,2.627,0.995c2.605,0.375,4.089-0.646,4.362-2.546
				C95.103,42.008,94.54,41.023,92.938,40.174"/>
			<path fill="#E4F1DF" d="M89.884,40.831c0.139,0.075,0.301,0.156,0.469,0.239c0.235,0.116,0.518-0.033,0.555-0.294l0.248-1.721
				c0.021-0.155-0.049-0.31-0.185-0.388c-0.026-0.015-0.053-0.031-0.077-0.048c-0.279-0.169-0.354-0.338-0.314-0.619
				c0.032-0.227,0.217-0.387,0.528-0.448c0.162-0.03,0.287-0.16,0.311-0.323l0.033-0.232c0.031-0.211,0.228-0.358,0.439-0.328
				l0.111,0.016c0.211,0.03,0.359,0.228,0.328,0.44l-0.037,0.247c-0.022,0.171,0.071,0.334,0.226,0.408
				c0.267,0.131,0.496,0.308,0.688,0.533c0.122,0.146,0.336,0.174,0.498,0.071l1.342-0.851c0.185-0.117,0.24-0.367,0.113-0.545
				c-0.672-0.956-1.737-1.538-3.191-1.747c-0.971-0.14-1.838-0.006-2.603,0.415s-1.205,1.091-1.34,2.019
				C87.835,38.999,88.459,40.051,89.884,40.831"/>
			<path fill="#E4F1DF" d="M93.018,39.629c-0.16-0.085-0.328-0.171-0.497-0.254c-0.238-0.116-0.519,0.032-0.557,0.293l-0.253,1.761
				c-0.023,0.16,0.057,0.318,0.197,0.396c0.001,0,0,0.001,0.001,0.002c0.359,0.21,0.501,0.417,0.463,0.685
				c-0.042,0.298-0.251,0.477-0.626,0.532c-0.163,0.026-0.291,0.161-0.314,0.327l-0.037,0.258c-0.031,0.212-0.227,0.359-0.439,0.329
				l-0.111-0.017c-0.212-0.03-0.358-0.228-0.328-0.439l0.031-0.228c0.026-0.181-0.079-0.354-0.252-0.418
				c-0.6-0.227-1.095-0.621-1.432-1.102c-0.111-0.161-0.33-0.205-0.501-0.108l-1.438,0.81c-0.188,0.104-0.258,0.345-0.15,0.529
				c0.293,0.496,0.699,0.951,1.225,1.368c0.66,0.51,1.532,0.837,2.63,0.995c2.603,0.374,4.086-0.647,4.36-2.547
				C95.18,41.465,94.618,40.477,93.018,39.629"/>
			<circle fill="#593C24" cx="83.956" cy="79.514" r="1.169"/>
			<circle fill="#593C24" cx="89.81" cy="80.356" r="1.17"/>
			<circle fill="#593C24" cx="93.907" cy="80.947" r="1.169"/>
			<circle fill="#593C24" cx="76.346" cy="78.418" r="1.169"/>
			<path fill="none" stroke="#F79643" stroke-width="2.2121" stroke-miterlimit="10" d="M85.314,83.854l-3.831-0.551
				c-1.203-0.175-2.049-1.301-1.874-2.507l0.55-3.831c0.175-1.204,1.301-2.048,2.506-1.874l3.831,0.552
				c1.206,0.173,2.049,1.301,1.875,2.505l-0.552,3.832C87.646,83.184,86.52,84.028,85.314,83.854z"/>
			
				<rect x="78.764" y="78.25" transform="matrix(-0.9898 -0.1424 0.1424 -0.9898 150.4125 168.9263)" fill="#E7E7E7" width="4.978" height="1.659"/>
			<path fill="none" stroke="#333333" stroke-width="1.1827" stroke-miterlimit="10" d="M81.138,53.341c0,0,1.884-1.909,4.596,0.25"
				/>
			<path fill="#333333" d="M94.159,66.41c0,0-2.08-4.956-6.175-3.683c-3.569-2.377-6.963,1.791-6.963,1.791
				c-6.237-0.897-7.204-9.381-7.038-10.629l-1.355,9.42c-0.964,6.691,7.407,8.052,7.407,8.052l6.096,4.229h0.002l7.039-2.338
				c0,0,4.766,0.531,5.731-6.159l1.354-9.421C100.067,58.917,100.396,67.306,94.159,66.41 M87.394,66.832L87.394,66.832
				L87.394,66.832L87.394,66.832c-4.584-0.503-4.729-2.077-4.729-2.077c2.463,0.976,5.118-0.655,5.123-0.659
				c0.004,0.005,2.091,2.318,4.729,2.077C92.517,66.172,91.933,67.641,87.394,66.832"/>
			
				<ellipse transform="matrix(0.9898 0.1424 -0.1424 0.9898 9.7394 -11.8736)" fill="#E1B08E" cx="87.829" cy="62.111" rx="2.524" ry="0.887"/>
		</g>
		<g>
			<g>
				<path fill="#9C643B" d="M30.479,84.175c0,0,49.973,4.715,112.832-1c0,0-5.715,28.572-28.572,28.572h-76.83L30.479,84.175z"/>
				
					<line fill="none" stroke="#885430" stroke-width="0.7894" stroke-miterlimit="10" x1="139.169" y1="94.604" x2="32.118" y2="94.604"/>
				
					<line fill="none" stroke="#885430" stroke-width="0.7894" stroke-miterlimit="10" x1="141.627" y1="88.89" x2="31.051" y2="88.89"/>
				
					<line fill="none" stroke="#885430" stroke-width="0.7894" stroke-miterlimit="10" x1="130.454" y1="106.033" x2="35.623" y2="106.033"/>
				
					<line fill="none" stroke="#885430" stroke-width="0.7894" stroke-miterlimit="10" x1="135.714" y1="100.318" x2="33.337" y2="100.318"/>
			</g>
			<polygon fill="#885430" points="30.479,84.175 27.826,84.175 35.201,111.748 37.909,111.748 			"/>
			<path fill="#885430" d="M122.826,111.748c0,0,17.5-6.29,23.25-29.758h-2.765c0,0-1.94,17.436-21.762,28.969L122.826,111.748z"/>
			<path fill="#92C9D6" d="M53.218,112.145c0,0,34.628,2.606,72.458,0.002C125.676,112.147,145.776,103.102,53.218,112.145z"/>
			<rect x="45.576" y="94.604" fill="#885430" width="31.938" height="5.714"/>
			<rect x="31.051" y="88.89" fill="#885430" width="14.525" height="5.714"/>
			<ellipse fill="#AF734A" cx="108.36" cy="103.175" rx="2.036" ry="0.97"/>
		</g>
		<g>
			<path fill="#CEB799" d="M15.926,125.72l0.896,1.483l1.795,2.965l17.788-10.764c0,0,2.965-1.794,3.551-4.174
				c0.585-2.379,5.032-5.07,5.032-5.07l48.918-29.6l-0.895-1.482l-48.921,29.6c0,0-4.447,2.69-6.826,2.104
				c-2.38-0.584-5.344,1.21-5.344,1.21l-17.788,10.763L15.926,125.72z"/>
			
				<rect x="79.25" y="77.497" transform="matrix(-0.5183 -0.8552 0.8552 -0.5183 46.4754 201.9638)" fill="#A8926F" width="1.733" height="20.793"/>
		</g>
		<g>
			<g>
				<path fill="#F0D4C0" d="M81.66,89.413c0,0,1.55-0.99,0.559-2.543l-0.992-1.551c0,0-1.984-3.104-5.088-1.12
					c-3.104,1.983-1.12,5.087-1.12,5.087l0.993,1.551c0,0,0.991,1.553,2.543,0.562L81.66,89.413z"/>
				<path fill="#F0D4C0" d="M84.19,83.876c0,0,0.09,1.839-1.748,1.93l-1.84,0.093c0,0-1.84,0.091-1.932-1.747L84.19,83.876z"/>
			</g>
			<path fill="none" stroke="#237378" stroke-width="3.626" stroke-miterlimit="10" d="M72.868,67.772
				c0,0-17.215,4.856,3.867,16.368"/>
			<g>
				
					<rect x="74.003" y="80.501" transform="matrix(0.552 0.8338 -0.8338 0.552 103.8909 -25.6184)" fill="#216264" width="3.567" height="6.75"/>
				
					<rect x="76.056" y="81.605" transform="matrix(0.5527 0.8334 -0.8334 0.5527 105.0411 -25.7582)" fill="#F79643" width="0.922" height="6.749"/>
			</g>
		</g>
		
			<line fill="none" stroke="#885430" stroke-width="0.7894" stroke-miterlimit="10" x1="114.544" y1="94.604" x2="114.544" y2="88.89"/>
		
			<line fill="none" stroke="#885430" stroke-width="0.7894" stroke-miterlimit="10" x1="63.541" y1="94.604" x2="63.541" y2="88.89"/>
	</g>
	<g>
		
			<rect x="9.126" y="104.282" transform="matrix(0.5899 -0.8075 0.8075 0.5899 -81.5874 52.6424)" fill="#E15B48" width="3.816" height="4.727"/>
		<polygon fill="#CEB799" points="9.311,106.901 6.478,105.255 8.58,102.491 10.782,104.886 		"/>
	</g>
	
		<line fill="none" stroke="#885430" stroke-width="0.7894" stroke-miterlimit="10" x1="95.228" y1="100.318" x2="95.228" y2="106.033"/>
	
		<line fill="none" stroke="#885430" stroke-width="0.7894" stroke-miterlimit="10" x1="63.226" y1="100.318" x2="63.226" y2="106.033"/>
</g>
</svg>
