<?xml version="1.0" encoding="utf-8"?>
<!-- Generator: Adobe Illustrator 22.0.1, SVG Export Plug-In . SVG Version: 6.00 Build 0)  -->
<svg version="1.1" id="Layer_2" xmlns="http://www.w3.org/2000/svg" xmlns:xlink="http://www.w3.org/1999/xlink" x="0px" y="0px"
	 viewBox="0 0 288 288" enable-background="new 0 0 288 288" xml:space="preserve">
<g>
	<defs>
		
			<ellipse id="SVGID_3_" transform="matrix(0.1602 -0.9871 0.9871 0.1602 -21.2067 263.0743)" cx="144" cy="144" rx="134.3" ry="134.2"/>
	</defs>
	<clipPath id="SVGID_2_">
		<use xlink:href="#SVGID_3_"  overflow="visible"/>
	</clipPath>
	<g clip-path="url(#SVGID_2_)">
		<rect x="0.2" y="-1.1" fill="#C7E5EC" width="288" height="189.3"/>
		<g opacity="0.9">
			<path fill="#FFFFFF" d="M75.2,101.5c0,0,0-27.3,27.3-27.3s27.3,27.3,27.3,27.3s13.6,0,13.6,13.6H75.2V101.5z"/>
			<path fill="#FFFFFF" d="M47.9,128.8c0,0-13.6,0-13.6-13.6c0-13.6,13.6-13.6,13.6-13.6s13.6,0,13.6,13.6h54.6
				c0,0,0-13.6,13.6-13.6c0,0,13.6,0,13.6,13.6c0,0,0,13.6-13.6,13.6H47.9z"/>
			<path fill="#FFFFFF" d="M47.9,115.2c0,0,0-27.3,27.3-27.3s27.3,27.3,27.3,27.3H47.9z"/>
			<path fill="#FFFFFF" d="M75.2,128.8c0,0,0-27.3,27.3-27.3s27.3,27.3,27.3,27.3H75.2z"/>
		</g>
		<g opacity="0.9">
			<path fill="#FFFFFF" d="M232.4,154.8c0,0,0-11.5,11.5-11.5c11.5,0,11.5,11.5,11.5,11.5s5.8,0,5.8,5.8h-28.8V154.8z"/>
			<path fill="#FFFFFF" d="M220.9,166.3c0,0-5.8,0-5.8-5.8c0-5.8,5.8-5.8,5.8-5.8s5.8,0,5.8,5.8h23.1c0,0,0-5.8,5.8-5.8
				c0,0,5.8,0,5.8,5.8c0,0,0,5.8-5.8,5.8H220.9z"/>
			<path fill="#FFFFFF" d="M220.9,160.5c0,0,0-11.5,11.5-11.5c11.5,0,11.5,11.5,11.5,11.5H220.9z"/>
			<path fill="#FFFFFF" d="M232.4,166.3c0,0,0-11.5,11.5-11.5c11.5,0,11.5,11.5,11.5,11.5H232.4z"/>
		</g>
		<rect x="0.2" y="188.2" fill="#57ACCD" width="288" height="98.7"/>
		<ellipse fill="#3F889F" cx="139.8" cy="233.2" rx="58.5" ry="9"/>
		<polygon fill="#A6A8AB" points="80.2,234.3 89.2,225.3 152.2,216.3 179.2,207.3 188.2,216.3 197.2,234.3 		"/>
		<polygon fill="#929497" points="188.2,216.3 143.2,234.3 197.2,234.3 		"/>
		<polygon fill="#929497" points="98.2,234.3 89.2,225.3 134.2,234.3 		"/>
	</g>
</g>
<g>
	<g>
		<path fill="#EFD3BF" d="M177.1,160c-1.5,3.1-4.4,4.7-6.5,3.7c-2.1-1-2.6-4.3-1.2-7.4c1.5-3.1,4.4-4.7,6.5-3.7
			C178.1,153.6,178.6,156.9,177.1,160z"/>
	</g>
	<g>
		<path fill="#207278" d="M159.6,174.8c-0.4,0-0.8,0-1.2-0.1c-6.5-1-9.3-9.7-9.6-10.7l4.2-1.2c0.6,1.8,2.9,7.2,6.1,7.7
			c2.7,0.4,6.3-2.5,10.1-8.3l3.6,2.4C168.2,171.4,163.9,174.8,159.6,174.8z"/>
	</g>
	<g>
		<path fill="#207278" d="M126.9,217.5c-5-12.6-1.8-31.4-1.7-32.2l3,0.5c0,0.2-3.2,18.7,1.5,30.5L126.9,217.5z"/>
	</g>
	<g>
		<path fill="#207278" d="M119.7,191.4v3.4c0,0,0,6.7,17.4,6.7c17.4,0,17.4-6.7,17.4-6.7v-3.4H119.7z"/>
	</g>
	<g>
		<rect x="119.7" y="168" fill="#207278" width="34.7" height="24.8"/>
	</g>
	<g>
		<path fill="#445A5E" d="M157.6,143.6c-5.8-0.2,3.4-23.8-20.1-23.8l-6.1,0.4c-17.6,3-11,25.3-16.7,26.3c-5.7,1-10-11.8-9.2,0.6
			c0.8,12.4,12.5,13.1,12.5,13.1l19.1-1.3l19.1-1.3c0,0,8.8-2.1,8-14.5C163.3,130.8,163.4,143.8,157.6,143.6"/>
	</g>
	<g>
		<path fill="#EFD3BF" d="M122.7,158.1c0.1,2.2-1.2,4.1-2.9,4.2c-1.7,0.1-3.3-1.6-3.4-3.8c-0.1-2.2,1.2-4.1,2.9-4.2
			C121,154.2,122.5,155.9,122.7,158.1z"/>
	</g>
	<g>
		<path fill="#EFD3BF" d="M157.5,155.7c0.1,2.2-1.2,4.1-2.9,4.2c-1.7,0.1-3.3-1.6-3.4-3.8c-0.1-2.2,1.2-4.1,2.9-4.2
			C155.8,151.9,157.3,153.6,157.5,155.7z"/>
	</g>
	<g>
		<rect x="119.7" y="178.6" fill="#754C28" width="34.7" height="10.8"/>
	</g>
	<g>
		<path fill="#207278" d="M121.9,188c-6.6-3.3-9.8-6.9-9.7-10.9c0.2-5.9,7.8-9.4,8.7-9.7l1.7,4c-1.6,0.7-6,3.2-6.1,5.9
			c-0.1,2,2.5,4.5,7.3,6.8L121.9,188z"/>
	</g>
	<g>
		<path fill="#EFD3BF" d="M137.8,171.9c15.7-1,16.6-10.7,16.5-13.4l0-0.7l-0.3-4.3c0,0-1-10.8-18-9.7c-17.1,1.1-16.6,12-16.6,12
			l0.3,4.3l0,0.7C120,163.5,122.1,173,137.8,171.9"/>
	</g>
	<g>
		<path fill="#333333" d="M150.9,154.7c0.2,3-2.1,5.6-5.1,5.8c-3,0.2-5.6-2.1-5.8-5.1c-0.2-3,2.1-5.6,5.1-5.8
			C148.1,149.5,150.7,151.8,150.9,154.7"/>
	</g>
	<g>
		
			<rect x="144.1" y="145.6" transform="matrix(0.6619 -0.7496 0.7496 0.6619 -68.0689 161.2381)" fill="#333333" width="1.2" height="21"/>
	</g>
	<g>
		<path fill="#404041" d="M119.2,153.8l0-0.2C119.2,153.6,119.2,153.7,119.2,153.8"/>
	</g>
	<g>
		<path fill="#404041" d="M153.8,151.3l0,0.2C153.8,151.4,153.8,151.3,153.8,151.3"/>
	</g>
	<g>
		<path fill="#57ACCD" d="M119.3,154.8c0,0,6.8-2.4,17.2-3.1c10.3-0.7,17.4,0.8,17.4,0.8s-0.2-9.9-18-8.7
			C118.1,145,119.3,154.8,119.3,154.8"/>
	</g>
	<g>
		<path fill="#333333" d="M135.4,156.3c0.1,0.9-0.6,1.7-1.6,1.8c-0.9,0.1-1.7-0.6-1.8-1.6c-0.1-0.9,0.6-1.7,1.5-1.8
			C134.6,154.7,135.4,155.4,135.4,156.3"/>
	</g>
	<g>
		
			<rect x="145" y="147.1" transform="matrix(7.919685e-02 -0.9969 0.9969 7.919685e-02 -14.8176 283.245)" fill="#333333" width="1.9" height="5.1"/>
	</g>
	<g>
		<path fill="#333333" d="M136,133.5c0.2,0.1,0.4,0.1,0.7,0.2c0.3,0.1,0.7-0.2,0.6-0.5l-0.2-2.3c0-0.2-0.1-0.4-0.3-0.4
			c0,0-0.1,0-0.1,0c-0.4-0.1-0.5-0.3-0.6-0.7c0-0.3,0.2-0.6,0.6-0.7c0.2-0.1,0.3-0.3,0.3-0.5l0-0.3c0-0.3,0.2-0.5,0.5-0.5l0.1,0
			c0.3,0,0.5,0.2,0.5,0.5l0,0.3c0,0.2,0.2,0.4,0.4,0.5c0.4,0.1,0.7,0.3,1,0.5c0.2,0.2,0.5,0.1,0.7,0l1.5-1.5c0.2-0.2,0.2-0.5,0-0.7
			c-1.1-1-2.6-1.5-4.6-1.4c-1.3,0.1-2.4,0.5-3.2,1.2c-0.9,0.7-1.2,1.7-1.2,2.9C132.9,131.7,134,132.9,136,133.5"/>
	</g>
	<g>
		<path fill="#333333" d="M139.7,131.1c-0.2-0.1-0.5-0.1-0.7-0.2c-0.3-0.1-0.7,0.2-0.6,0.5l0.2,2.3c0,0.2,0.2,0.4,0.4,0.5
			c0,0,0,0,0,0c0.5,0.2,0.8,0.4,0.8,0.7c0,0.4-0.2,0.7-0.7,0.9c-0.2,0.1-0.3,0.3-0.3,0.5l0,0.3c0,0.3-0.2,0.5-0.5,0.5l-0.1,0
			c-0.3,0-0.5-0.2-0.5-0.5l0-0.3c0-0.2-0.2-0.4-0.4-0.5c-0.8-0.1-1.6-0.5-2.1-1c-0.2-0.2-0.5-0.2-0.7,0l-1.6,1.4
			c-0.2,0.2-0.2,0.5,0,0.7c0.5,0.6,1.2,1,1.9,1.4c1,0.5,2.2,0.7,3.6,0.6c3.4-0.2,5.1-1.9,4.9-4.4C143,132.9,142,131.8,139.7,131.1"
			/>
	</g>
	<g>
		<path fill="#E4F1DE" d="M136,132.8c0.2,0.1,0.4,0.1,0.7,0.2c0.3,0.1,0.7-0.2,0.6-0.5l-0.2-2.3c0-0.2-0.1-0.4-0.3-0.4
			c0,0-0.1,0-0.1,0c-0.4-0.1-0.5-0.3-0.6-0.7c0-0.3,0.2-0.6,0.6-0.7c0.2-0.1,0.3-0.3,0.3-0.5l0-0.3c0-0.3,0.2-0.5,0.5-0.5l0.1,0
			c0.3,0,0.5,0.2,0.5,0.5l0,0.3c0,0.2,0.2,0.4,0.4,0.5c0.4,0.1,0.7,0.3,1,0.5c0.2,0.2,0.5,0.1,0.7,0l1.5-1.5c0.2-0.2,0.2-0.5,0-0.7
			c-1.1-1-2.6-1.5-4.6-1.4c-1.3,0.1-2.4,0.5-3.2,1.2c-0.9,0.7-1.2,1.7-1.2,2.9C132.9,131,133.9,132.2,136,132.8"/>
	</g>
	<g>
		<path fill="#E4F1DE" d="M139.7,130.4c-0.2-0.1-0.5-0.1-0.7-0.2c-0.3-0.1-0.7,0.2-0.6,0.5l0.2,2.3c0,0.2,0.2,0.4,0.4,0.5
			c0,0,0,0,0,0c0.5,0.2,0.8,0.4,0.8,0.7c0,0.4-0.2,0.7-0.7,0.9c-0.2,0.1-0.3,0.3-0.3,0.5l0,0.3c0,0.3-0.2,0.5-0.5,0.5l-0.1,0
			c-0.3,0-0.5-0.2-0.5-0.5l0-0.3c0-0.2-0.2-0.4-0.4-0.5c-0.8-0.1-1.6-0.5-2.1-1c-0.2-0.2-0.5-0.2-0.7,0l-1.6,1.4
			c-0.2,0.2-0.2,0.5,0,0.7c0.5,0.6,1.2,1,1.9,1.4c1,0.5,2.2,0.7,3.6,0.6c3.4-0.2,5.1-1.9,4.9-4.4C142.9,132.2,141.9,131,139.7,130.4
			"/>
	</g>
	<g>
		<path fill="#593B23" d="M138.9,184c0,0.8-0.7,1.5-1.5,1.5s-1.5-0.7-1.5-1.5c0-0.8,0.7-1.5,1.5-1.5S138.9,183.2,138.9,184z"/>
	</g>
	<g>
		<path fill="#593B23" d="M146.6,184c0,0.8-0.7,1.5-1.5,1.5c-0.8,0-1.5-0.7-1.5-1.5c0-0.8,0.7-1.5,1.5-1.5
			C146,182.5,146.6,183.2,146.6,184z"/>
	</g>
	<g>
		<path fill="#593B23" d="M152,184c0,0.8-0.7,1.5-1.5,1.5c-0.8,0-1.5-0.7-1.5-1.5c0-0.8,0.7-1.5,1.5-1.5
			C151.4,182.5,152,183.2,152,184z"/>
	</g>
	<g>
		<path fill="#593B23" d="M128.9,184c0,0.8-0.7,1.5-1.5,1.5c-0.8,0-1.5-0.7-1.5-1.5c0-0.8,0.7-1.5,1.5-1.5
			C128.2,182.5,128.9,183.2,128.9,184z"/>
	</g>
	<g>
		<path fill="#F79542" d="M139.9,190.9h-5.1c-2.4,0-4.3-1.9-4.3-4.3v-5.1c0-2.4,1.9-4.3,4.3-4.3h5.1c2.4,0,4.3,1.9,4.3,4.3v5.1
			C144.3,188.9,142.3,190.9,139.9,190.9z M134.9,180c-0.8,0-1.4,0.6-1.4,1.4v5.1c0,0.8,0.6,1.4,1.4,1.4h5.1c0.8,0,1.4-0.6,1.4-1.4
			v-5.1c0-0.8-0.6-1.4-1.4-1.4H134.9z"/>
	</g>
	<g>
		<path fill="#333333" d="M148.4,164.3c0,0-4-5.8-8.9-3c-5.2-2.1-8.4,4.2-8.4,4.2c-8.2,0.5-11.8-10-11.9-11.7l0.8,12.4
			c0.6,8.8,11.7,8.3,11.7,8.3l8.9,3.8h0l8.4-4.9c0,0,6.2-0.6,5.7-9.4l-0.8-12.4C153.9,153.1,156.6,163.8,148.4,164.3 M139.9,166.7
			L139.9,166.7L139.9,166.7L139.9,166.7c-6,0.6-6.6-1.4-6.6-1.4c3.4,0.6,6.4-2.2,6.4-2.2c0,0,3.3,2.4,6.6,1.4
			C146.2,164.5,145.9,166.5,139.9,166.7"/>
	</g>
	<g>
		<rect x="130.5" y="182.9" fill="#E6E7E8" width="6.5" height="2.2"/>
	</g>
	<g>
		<g>
			
				<rect x="167.4" y="160" transform="matrix(0.4965 -0.868 0.868 0.4965 -57.2071 230.0232)" fill="#1F6163" width="4.6" height="8.6"/>
		</g>
		<g>
			
				<rect x="169.9" y="158.5" transform="matrix(0.497 -0.8677 0.8677 0.497 -55.5458 229.887)" fill="#F79542" width="1.2" height="8.6"/>
		</g>
	</g>
	<g>
		<g>
			<path fill="#EFD3BF" d="M125.3,190.8c-1.4,1.9-3.8,2.5-5.3,1.3c-1.5-1.1-1.6-3.6-0.1-5.4c1.4-1.9,3.8-2.5,5.3-1.3
				C126.7,186.5,126.8,188.9,125.3,190.8z"/>
		</g>
		<g>
			
				<rect x="117.1" y="183.3" transform="matrix(0.5774 -0.8164 0.8164 0.5774 -100.1981 177.563)" fill="#1F6163" width="8.6" height="4.6"/>
		</g>
		<g>
			
				<rect x="118.5" y="186" transform="matrix(0.5775 -0.8164 0.8164 0.5775 -100.4118 179.0941)" fill="#F79542" width="8.6" height="1.2"/>
		</g>
	</g>
	<g>
		<path fill="#E1AF8D" d="M142.4,160.3c0,0.6-1.4,1.3-3.2,1.4c-1.8,0.1-3.3-0.3-3.4-0.9c0-0.6,1.4-1.3,3.2-1.4
			C140.9,159.3,142.4,159.7,142.4,160.3z"/>
	</g>
	<g>
		<polygon fill="#593B23" points="123,210.5 124.9,221.7 119.3,223.6 119.3,225.5 128.6,225.5 130.5,210.5 		"/>
	</g>
	<g>
		<polygon fill="#754C28" points="123.1,208.6 119.6,215.5 133.5,215.5 130,208.6 		"/>
	</g>
	<g>
		<path fill="#333333" d="M130.7,150.3l-1.8-1.5c1.2-1.4,4.2-3.4,7.4-1.4l-1.3,1.9C132.8,148,130.9,150.1,130.7,150.3z"/>
	</g>
	<g>
		<g>
			<path fill="#A6A8AB" d="M151.7,154.8c0,1.3-0.6,2.3-1.4,2.3c-0.8,0-1.4-1-1.4-2.3c0-1.3,0.6-2.3,1.4-2.3
				C151.1,152.5,151.7,153.5,151.7,154.8z"/>
		</g>
		<g>
			<polygon fill="#A6A8AB" points="150.3,152.5 165.5,151.3 165.5,158.3 150.3,157.1 			"/>
		</g>
		<g>
			<path fill="#929497" d="M166.9,154.8c0,2.6-0.6,4.6-1.4,4.6c-0.8,0-1.4-2.1-1.4-4.6c0-2.6,0.6-4.6,1.4-4.6
				C166.3,150.2,166.9,152.2,166.9,154.8z"/>
		</g>
		<g>
			<polygon fill="#929497" points="165.5,150.2 187.7,147.9 187.7,161.8 165.5,159.5 			"/>
		</g>
		<g>
			<ellipse fill="#A6A8AB" cx="187.7" cy="154.8" rx="4.2" ry="7"/>
		</g>
		<g>
			<path fill="#404041" d="M190.4,154.8c0,3.2-1.2,5.8-2.8,5.8c-1.5,0-2.8-2.6-2.8-5.8c0-3.2,1.2-5.8,2.8-5.8
				C189.2,149,190.4,151.6,190.4,154.8z"/>
		</g>
		<g>
			<path fill="#E6E7E8" d="M189.1,153.1c0,1.6-0.6,2.9-1.4,2.9c-0.8,0-1.4-1.3-1.4-2.9s0.6-2.9,1.4-2.9
				C188.4,150.2,189.1,151.5,189.1,153.1z"/>
		</g>
	</g>
	<g>
		<path fill="#207278" d="M162.8,204.5l-2.9-1c1.7-5.1,1.9-8.7,0.5-9.8c-2.1-1.7-8.1,0.9-10.6,2.5l-1.6-2.7c1-0.6,9.9-5.7,14.2-2.2
			C165,193.4,165.1,197.8,162.8,204.5z"/>
	</g>
	<g>
		<g>
			<polygon fill="#593B23" points="164.8,201.1 162.9,212.4 168.5,214.2 168.5,216.1 159.1,216.1 157.3,201.1 			"/>
		</g>
		<g>
			<polygon fill="#754C28" points="157.9,199.2 154.4,206.1 168.3,206.1 164.8,199.2 			"/>
		</g>
	</g>
</g>
</svg>
