<svg xmlns="http://www.w3.org/2000/svg" xmlns:xlink="http://www.w3.org/1999/xlink" viewBox="0 0 288 288"><defs><ellipse id="a" transform="rotate(-80.781 144.003 143.998)" cx="144" cy="144" rx="134.3" ry="134.2"/></defs><clipPath id="b"><use xlink:href="#a" overflow="visible"/></clipPath><g clip-path="url(#b)"><path fill="#C7E5EC" d="M.2-1.1h288v189.3H.2z"/><g opacity=".9" fill="#FFF"><path d="M75.2 101.5s0-27.3 27.3-27.3 27.3 27.3 27.3 27.3 13.6 0 13.6 13.6H75.2v-13.6z"/><path d="M47.9 128.8s-13.6 0-13.6-13.6 13.6-13.6 13.6-13.6 13.6 0 13.6 13.6h54.6s0-13.6 13.6-13.6c0 0 13.6 0 13.6 13.6 0 0 0 13.6-13.6 13.6H47.9z"/><path d="M47.9 115.2s0-27.3 27.3-27.3 27.3 27.3 27.3 27.3H47.9z"/><path d="M75.2 128.8s0-27.3 27.3-27.3 27.3 27.3 27.3 27.3H75.2z"/></g><g opacity=".9" fill="#FFF"><path d="M232.4 154.8s0-11.5 11.5-11.5 11.5 11.5 11.5 11.5 5.8 0 5.8 5.8h-28.8v-5.8z"/><path d="M220.9 166.3s-5.8 0-5.8-5.8 5.8-5.8 5.8-5.8 5.8 0 5.8 5.8h23.1s0-5.8 5.8-5.8c0 0 5.8 0 5.8 5.8 0 0 0 5.8-5.8 5.8h-34.7z"/><path d="M220.9 160.5s0-11.5 11.5-11.5 11.5 11.5 11.5 11.5h-23z"/><path d="M232.4 166.3s0-11.5 11.5-11.5 11.5 11.5 11.5 11.5h-23z"/></g><path fill="#57ACCD" d="M.2 188.2h288v98.7H.2z"/><ellipse fill="#3F889F" cx="139.8" cy="233.2" rx="58.5" ry="9"/><path fill="#A6A8AB" d="M80.2 234.3l9-9 63-9 27-9 9 9 9 18z"/><path fill="#929497" d="M188.2 216.3l-45 18h54zM98.2 234.3l-9-9 45 9z"/></g><g><path fill="#F1F1F2" d="M158.3 144.4s-6.3 4.6.3 7.2c0 0-2.3 7 4.3 6.4 0 0 5.9 7.6 10-.8 0 0 6.3 3 6.1-4.2 0 0 8.1-3.1 1.5-8.1 0 0 1.2-9.4-6.3-4.7 0 0-2.5-7.7-6.4-1.7.1 0-10.4-6.7-9.5 5.9z"/><path fill="#207278" d="M120.4 215.2c-4.1-4.6-5.7-8.8-4.7-12.8 1.6-6.2 9.2-8.8 9.5-8.9l1 2.9c-.1 0-6.3 2.2-7.5 6.8-.7 2.8.6 6.2 4 9.9l-2.3 2.1zM148 212.4l-3-.8c3.3-11.7-1.7-19.5-3.6-22.4-.8-1.2-1.3-2-.7-3l2.6 1.6c.3-.5.2-1 .1-1.2.1.1.3.5.5.9 2.2 3.2 7.8 11.9 4.1 24.9z"/><path fill="#593B23" d="M116.2 210.5l1.9 11.2-5.6 1.9v1.9h9.3l1.9-15z"/><path fill="#754C28" d="M115.3 210l-.8 7.7 13-4.8-5.7-5.4z"/><path fill="#593B23" d="M149.5 210.5l-1.9 11.2 5.6 1.9v1.9h-9.3l-1.9-15z"/><path fill="#754C28" d="M142.6 208.5l-3.5 7h14l-3.5-7z"/><path fill="#EFD3BF" d="M77 162.4s1.6-1.7 3.3-.1l1.7 1.6s3.4 3.2.2 6.7c-3.2 3.4-6.7.2-6.7.2l-1.7-1.6s-1.7-1.6-.1-3.3l3.3-3.5z"/><path fill="#EFD3BF" d="M84 160.1s-2.3-.5-2.8 1.8l-.5 2.3s-.5 2.3 1.7 2.8l1.6-6.9zM77.8 163.1c.4.5 1.1.7 1.7.3.5-.4.7-1.1.3-1.7l-2.8-3.9c-.4-.5-1.1-.7-1.7-.3-.5.4-.7 1.1-.3 1.7l2.8 3.9zM76.9 162c.5.5.5 1.2.1 1.7-.5.5-1.2.5-1.7.1l-3.5-3.3c-.5-.5-.5-1.2-.1-1.7.5-.5 1.2-.5 1.7-.1l3.5 3.3zM75.8 164.7c.5.5.5 1.2.1 1.7-.5.5-1.2.5-1.7.1l-3.5-3.3c-.5-.5-.5-1.2-.1-1.7.5-.5 1.2-.5 1.7-.1l3.5 3.3zM75.4 167.4c.5.4.7 1.1.3 1.7-.4.5-1.1.7-1.7.3l-3.9-2.8c-.5-.4-.7-1.1-.3-1.7.4-.5 1.1-.7 1.7-.3l3.9 2.8zM142.9 126s-2.3.3-2.1 2.6l.3 2.3s.6 4.7 5.3 4.1c4.7-.6 4.1-5.3 4.1-5.3l-.3-2.3s-.3-2.3-2.6-2.1l-4.7.7z"/><path fill="#EFD3BF" d="M136.9 130.3s.9-2.2 3.1-1.3l2.2.9s2.2.9 1.3 3.1l-6.6-2.7zM143 127c.2.6-.1 1.3-.8 1.5-.6.2-1.3-.1-1.5-.8l-1.5-4.6c-.2-.6.1-1.3.8-1.5.6-.2 1.3.1 1.5.8l1.5 4.6zM142.7 125.7c.1.7.7 1.1 1.3 1 .7-.1 1.1-.7 1-1.3l-.6-4.8c-.1-.7-.7-1.1-1.3-1-.7.1-1.1.7-1 1.3l.6 4.8zM145.5 126.3c.1.7.7 1.1 1.3 1 .7-.1 1.1-.7 1-1.3l-.6-4.8c-.1-.7-.7-1.1-1.3-1-.7.1-1.1.7-1.1 1.3l.7 4.8zM147.9 127.6c0 .7.5 1.2 1.2 1.2s1.2-.5 1.2-1.2l.1-4.8c0-.7-.5-1.2-1.2-1.2s-1.2.5-1.2 1.2l-.1 4.8z"/><path fill="#207278" d="M129.4 169.7l-1.3-4.5.6 2.2-.6-2.2c.1 0 13.5-4 17.7-13.7 2.1-4.9 1.5-10.5-1.7-16.8l4.1-2.1c3.9 7.6 4.6 14.6 1.9 20.8-5.1 11.7-20.1 16.1-20.7 16.3z"/><path fill="#1F6163" d="M142.227 133.974l8.22-2.528 1.352 4.397-8.22 2.528z"/><path fill="#F79542" d="M142.198 133.892l8.223-2.516.352 1.147-8.224 2.517z"/><path fill="#207278" d="M115.8 196.7l1.5 3s3 6 18.5-1.9 12.4-13.8 12.4-13.8l-1.5-3-30.9 15.7z"/><path fill="#207278" d="M102.09 169.798l30.925-15.743 15.063 29.587-30.925 15.744z"/><path fill="#445A5E" d="M130.2 139.1c-5.4 2.1-6.3-23.2-27.8-14l-5.5 2.8c-15 9.7-.1 27.5-5 30.7-4.9 3.2-13.8-6.9-8.2 4.2 5.6 11 16.7 7.2 16.7 7.2l17-8.7 17-8.7s7.3-5.4 1.6-16.5c-5.5-11-.3.9-5.8 3"/><path fill="#EFD3BF" d="M103.8 166.1c1 2 .5 4.2-1 5-1.6.8-3.6-.2-4.6-2.1-1-2-.5-4.2 1-5 1.6-.8 3.6.2 4.6 2.1zM134.9 150.3c1 2 .5 4.2-1 5-1.6.8-3.6-.1-4.6-2.1-1-2-.5-4.2 1-5 1.6-.8 3.6.1 4.6 2.1z"/><path fill="#754C28" d="M110.714 186.554l30.925-15.743 4.9 9.625-30.925 15.743z"/><path fill="#EFD3BF" d="M123.2 172.9c14-7.1 11-16.3 9.9-18.8l-.3-.6-2-3.9s-5.1-9.6-20.4-1.8c-15.3 7.8-10.5 17.5-10.5 17.5l2 3.9.3.6c1.3 2.4 7 10.3 21 3.1"/><path fill="#333" d="M128.5 152c1.4 2.7.3 5.9-2.4 7.3-2.7 1.4-5.9.3-7.3-2.4-1.4-2.7-.3-5.9 2.4-7.3 2.7-1.4 5.9-.3 7.3 2.4"/><path fill="#333" d="M113.117 152.912l.376-1.14 19.941 6.584-.376 1.14z"/><path fill="#404041" d="M99 163.6l-.1-.2s0 .1.1.2M129.8 147.7l.1.2-.1-.2"/><path fill="#57ACCD" d="M99.4 164.5s5.3-4.9 14.6-9.6c9.2-4.7 16.4-6.1 16.4-6.1s-4.1-9-19.9-.9c-16 8-11.1 16.6-11.1 16.6"/><path fill="#333" d="M112.8 160.5c.4.8.1 1.8-.7 2.2-.8.4-1.8.1-2.2-.7-.4-.8-.1-1.8.7-2.2.8-.4 1.8-.1 2.2.7M119.222 149.154l4.833-1.63.606 1.801-4.832 1.629zM106.5 138.3c.2 0 .4-.1.7-.1.3-.1.5-.4.4-.7l-1-2c-.1-.2-.3-.3-.5-.3h-.1c-.4 0-.6-.1-.8-.4-.1-.3-.1-.6.2-.9.1-.2.2-.4.1-.6l-.1-.3c-.1-.2 0-.6.2-.7l.1-.1c.2-.1.6 0 .7.2l.1.3c.1.2.3.3.5.3.4-.1.8 0 1.1.1.2.1.5-.1.6-.3l.8-1.9c.1-.3 0-.6-.3-.7-1.4-.5-3-.3-4.7.5-1.1.6-2 1.4-2.5 2.4s-.5 2.1.1 3.2c.8 1.6 2.2 2.2 4.4 2"/><path fill="#333" d="M108.9 134.7c-.2 0-.5.1-.7.1-.3.1-.5.4-.4.7l1.1 2.1c.1.2.3.3.5.3.5 0 .8.1 1 .4.2.4.1.7-.3 1-.2.2-.2.4-.1.6l.2.3c.1.2 0 .6-.2.7l-.1.1c-.2.1-.6 0-.7-.2l-.1-.3c-.1-.2-.4-.3-.6-.3-.8.2-1.6.2-2.4-.1-.2-.1-.5 0-.6.3l-.9 1.9c-.1.3 0 .6.2.7.7.3 1.5.5 2.3.5 1.1.1 2.3-.3 3.6-.9 3.1-1.6 3.9-3.8 2.7-6-.8-1.6-2.1-2.2-4.5-1.9"/><path fill="#E4F1DE" d="M106.1 137.7c.2 0 .4-.1.7-.1.3-.1.5-.4.4-.7l-1-2c-.1-.2-.3-.3-.5-.3h-.1c-.4 0-.6-.1-.8-.4-.1-.3-.1-.6.2-.9.1-.2.2-.4.1-.6l-.1-.3c-.1-.3 0-.6.2-.7l.1-.1c.2-.1.6 0 .7.2l.1.3c.1.2.3.3.5.3.4-.1.8 0 1.1.1.2.1.5-.1.6-.3l.8-1.9c.1-.3 0-.6-.3-.7-1.4-.5-3-.3-4.7.5-1.1.6-2 1.4-2.5 2.4s-.5 2.1.1 3.2c.9 1.5 2.3 2.2 4.4 2"/><path fill="#E4F1DE" d="M108.6 134c-.2 0-.5.1-.7.1-.3.1-.5.4-.4.7l1.1 2.1c.1.2.3.3.5.3.5 0 .8.1 1 .4.2.3.1.7-.3 1-.2.2-.2.4-.1.6l.2.3c.1.3 0 .6-.2.7l-.1.1c-.2.1-.6 0-.7-.2l-.1-.3c-.1-.2-.4-.3-.6-.3-.8.2-1.6.2-2.4-.1-.2-.1-.5 0-.6.3l-.9 1.9c-.1.3 0 .6.2.7.7.3 1.5.5 2.3.5 1.1.1 2.3-.3 3.6-.9 3.1-1.6 3.9-3.8 2.7-6-.8-1.6-2.2-2.2-4.5-1.9"/><g><path fill="#593B23" d="M130.3 182.8c.4.8.1 1.7-.7 2.1-.8.4-1.7.1-2.1-.7-.4-.8-.1-1.7.7-2.1.8-.4 1.7-.1 2.1.7z"/></g><g><path fill="#593B23" d="M137.2 179.3c.4.8.1 1.7-.7 2.1-.8.4-1.7.1-2.1-.7-.4-.8-.1-1.7.7-2.1.8-.4 1.7-.1 2.1.7z"/></g><g><path fill="#593B23" d="M142 176.8c.4.8.1 1.7-.7 2.1-.8.4-1.7.1-2.1-.7-.4-.8-.1-1.7.7-2.1.8-.3 1.7 0 2.1.7z"/></g><g><path fill="#593B23" d="M121.3 187.3c.4.8.1 1.7-.7 2.1-.8.4-1.7.1-2.1-.7-.4-.8-.1-1.7.7-2.1.8-.3 1.8 0 2.1.7z"/></g><g><path fill="#F79542" d="M127.8 191.1c-1.6 0-3.1-.9-3.9-2.4l-2.3-4.5c-.5-1-.6-2.2-.3-3.3.4-1.1 1.1-2 2.2-2.5l4.5-2.3c1-.5 2.2-.6 3.3-.3 1.1.4 2 1.1 2.5 2.2l2.3 4.5c1.1 2.1.2 4.7-1.9 5.8l-4.5 2.3c-.5.4-1.2.5-1.9.5zm2.2-12.5c-.2 0-.4.1-.6.2l-4.5 2.3c-.3.2-.6.5-.7.8-.1.4-.1.8.1 1.1l2.3 4.5c.4.7 1.2 1 1.9.6l4.5-2.3c.7-.4 1-1.2.6-1.9l-2.3-4.5c-.2-.3-.5-.6-.8-.7-.2-.1-.3-.1-.5-.1z"/></g><g><path fill="#333" d="M130 161.8s-6-3.7-9.4.7c-5.6.1-6.1 7.2-6.1 7.2-7.3 3.7-14.8-4.6-15.5-6.1l5.6 11.1c4 7.9 14 3 14 3l9.7-.1 5.8-7.8s5.5-3 1.5-10.9l-5.6-11.1c.6 1.5 7.3 10.2 0 14m-6.9 5.5c-5.3 2.9-6.6 1.3-6.6 1.3 3.4-.8 5-4.6 5-4.6s4 .9 6.6-1.3c-.1.1.4 2.1-5 4.6"/></g><g><path fill="#E6E7E8" d="M122.39 185.571l5.792-2.949.998 1.96-5.793 2.95z"/></g><g><path fill="#E1AF8D" d="M122.9 160.5c.3.6-.8 1.7-2.4 2.5-1.6.8-3.2 1-3.5.5-.3-.6.8-1.7 2.4-2.5 1.7-.9 3.2-1.1 3.5-.5z"/></g><g><path fill="#207278" d="M100.7 185.1c-.8 0-1.6-.1-2.5-.2-6.5-.9-12.7-5.5-18.2-13.6l3.8-2.6c4.8 7 9.9 10.9 15.1 11.7 5.2.7 8.8-2 8.8-2.1l2.9 3.6c-.1.1-4 3.2-9.9 3.2z"/></g><g><path fill="#1F6163" d="M77.602 172.236l6.413-5.73 3.065 3.43-6.413 5.73z"/><path fill="#F79542" d="M77.538 172.251l6.418-5.725.8.896-6.419 5.725z"/></g><g><path fill="#333" d="M107 157.7l-1.5-.3c.2-1.4 1.8-4.1 5.9-3.8l-.1 1.5c-3.8-.1-4.3 2.5-4.3 2.6z"/></g><g><path fill="#865A35" d="M209 133.1l-32.5 12.3-20.8-19.2 32.5-12.3c24.8-6 20.8 19.2 20.8 19.2z"/><path fill="#754C28" d="M128.928 109.178l17.773-6.718 8.946 23.665-17.772 6.719z"/><path fill="#593B23" d="M133.054 111.039l11.88-4.491 6.718 17.772-11.88 4.491z"/><path fill="#865A35" d="M146.646 102.487l32.552-12.305 8.946 23.666-32.552 12.305z"/><path fill="#754C28" d="M150.77 104.352l26.659-10.077 6.718 17.772-26.659 10.078z"/><path fill="#593B23" d="M155.3 116.3l-.1-.3 26.6-10.1.1.4zM153.1 110.4l-.2-.3 26.7-10.1.1.3z"/><path fill="#472F1F" d="M137.6 123l-.2-.3 11.9-4.5.1.4zM135.3 117.1l-.1-.3 11.8-4.5.2.3z"/><path fill="#593B23" d="M175.88 94.81l1.496-.566 6.722 17.77-1.496.567z"/><path fill="#472F1F" d="M132.987 111l1.497-.565 6.72 17.773-1.497.566z"/><path fill="#724D32" d="M209 133.1l-3 1.1s4-25.2-20.8-19.2l3-1.1c24.8-6 20.8 19.2 20.8 19.2z"/><path fill="#724D32" d="M155.6 126.2l8.2 3.6 38.5-14.5-7.4-1.7-6.7.3z"/><path fill="#724D32" d="M179.4 144.2l-3 1.1-20.8-19.2 3-1.1c24.8-5.9 20.8 19.2 20.8 19.2z"/><path fill="#593B23" d="M155.6 126.2l20.8 19.2s4-25.2-20.8-19.2z"/></g><g><path fill="#F1F1F2" d="M180.3 176s-2.4 3.4 2.1 3.6c0 0 1.4 3.8 4.2 1 0 0 3.6 1.6 2.6-2 0 0 4.1-4.7-.9-5.2 0 0-3.2-3.9-5.6-.7 0 .1-4.9-1-2.4 3.3z"/></g><g><path fill="#BBBDBF" d="M171.2 180.6h-.6c0-2.2-2.6-2.4-2.7-2.4l.1-.6c1.1 0 3.2.8 3.2 3z"/></g><g><path fill="#BBBDBF" d="M185.6 161.3l-.3-.5s3.3-2.3 2.5-5l.6-.2c.9 3.2-2.7 5.6-2.8 5.7z"/></g></g></svg>