<?xml version="1.0" encoding="utf-8"?>
<!-- Generator: Adobe Illustrator 22.0.1, SVG Export Plug-In . SVG Version: 6.00 Build 0)  -->
<svg version="1.1" id="Layer_2" xmlns="http://www.w3.org/2000/svg" xmlns:xlink="http://www.w3.org/1999/xlink" x="0px" y="0px"
	 viewBox="0 0 288 288" enable-background="new 0 0 288 288" xml:space="preserve">
<g>
	<defs>
		
			<ellipse id="SVGID_1_" transform="matrix(0.1602 -0.9871 0.9871 0.1602 -21.2067 263.0743)" cx="144" cy="144" rx="134.3" ry="134.2"/>
	</defs>
	<clipPath id="SVGID_2_">
		<use xlink:href="#SVGID_1_"  overflow="visible"/>
	</clipPath>
	<g clip-path="url(#SVGID_2_)">
		<rect x="0.2" y="-1.1" fill="#C7E5EC" width="288" height="189.3"/>
		<g opacity="0.9">
			<path fill="#FFFFFF" d="M75.2,101.5c0,0,0-27.3,27.3-27.3s27.3,27.3,27.3,27.3s13.6,0,13.6,13.6H75.2V101.5z"/>
			<path fill="#FFFFFF" d="M47.9,128.8c0,0-13.6,0-13.6-13.6c0-13.6,13.6-13.6,13.6-13.6s13.6,0,13.6,13.6h54.6
				c0,0,0-13.6,13.6-13.6c0,0,13.6,0,13.6,13.6c0,0,0,13.6-13.6,13.6H47.9z"/>
			<path fill="#FFFFFF" d="M47.9,115.2c0,0,0-27.3,27.3-27.3s27.3,27.3,27.3,27.3H47.9z"/>
			<path fill="#FFFFFF" d="M75.2,128.8c0,0,0-27.3,27.3-27.3s27.3,27.3,27.3,27.3H75.2z"/>
		</g>
		<g opacity="0.9">
			<path fill="#FFFFFF" d="M232.4,154.8c0,0,0-11.5,11.5-11.5c11.5,0,11.5,11.5,11.5,11.5s5.8,0,5.8,5.8h-28.8V154.8z"/>
			<path fill="#FFFFFF" d="M220.9,166.3c0,0-5.8,0-5.8-5.8c0-5.8,5.8-5.8,5.8-5.8s5.8,0,5.8,5.8h23.1c0,0,0-5.8,5.8-5.8
				c0,0,5.8,0,5.8,5.8c0,0,0,5.8-5.8,5.8H220.9z"/>
			<path fill="#FFFFFF" d="M220.9,160.5c0,0,0-11.5,11.5-11.5c11.5,0,11.5,11.5,11.5,11.5H220.9z"/>
			<path fill="#FFFFFF" d="M232.4,166.3c0,0,0-11.5,11.5-11.5c11.5,0,11.5,11.5,11.5,11.5H232.4z"/>
		</g>
		<rect x="0.2" y="188.2" fill="#57ACCD" width="288" height="98.7"/>
		<ellipse fill="#3F889F" cx="139.8" cy="233.2" rx="58.5" ry="9"/>
		<polygon fill="#A6A8AB" points="80.2,234.3 89.2,225.3 152.2,216.3 179.2,207.3 188.2,216.3 197.2,234.3 		"/>
		<polygon fill="#929497" points="188.2,216.3 143.2,234.3 197.2,234.3 		"/>
		<polygon fill="#929497" points="98.2,234.3 89.2,225.3 134.2,234.3 		"/>
	</g>
</g>
<g>
	<g>
		<path fill="#F1F1F2" d="M158.3,144.4c0,0-6.3,4.6,0.3,7.2c0,0-2.3,7,4.3,6.4c0,0,5.9,7.6,10-0.8c0,0,6.3,3,6.1-4.2
			c0,0,8.1-3.1,1.5-8.1c0,0,1.2-9.4-6.3-4.7c0,0-2.5-7.7-6.4-1.7C167.9,138.5,157.4,131.8,158.3,144.4z"/>
	</g>
	<g>
		<path fill="#207278" d="M120.4,215.2c-4.1-4.6-5.7-8.8-4.7-12.8c1.6-6.2,9.2-8.8,9.5-8.9l1,2.9c-0.1,0-6.3,2.2-7.5,6.8
			c-0.7,2.8,0.6,6.2,4,9.9L120.4,215.2z"/>
	</g>
	<g>
		<path fill="#207278" d="M148,212.4l-3-0.8c3.3-11.7-1.7-19.5-3.6-22.4c-0.8-1.2-1.3-2-0.7-3l2.6,1.6c0.3-0.5,0.2-1,0.1-1.2
			c0.1,0.1,0.3,0.5,0.5,0.9C146.1,190.7,151.7,199.4,148,212.4z"/>
	</g>
	<g>
		<g>
			<polygon fill="#593B23" points="116.2,210.5 118.1,221.7 112.5,223.6 112.5,225.5 121.8,225.5 123.7,210.5 			"/>
		</g>
		<g>
			<polygon fill="#754C28" points="115.3,210 114.5,217.7 127.5,212.9 121.8,207.5 			"/>
		</g>
	</g>
	<g>
		<g>
			<polygon fill="#593B23" points="149.5,210.5 147.6,221.7 153.2,223.6 153.2,225.5 143.9,225.5 142,210.5 			"/>
		</g>
		<g>
			<polygon fill="#754C28" points="142.6,208.5 139.1,215.5 153.1,215.5 149.6,208.5 			"/>
		</g>
	</g>
	<g>
		<g>
			<g>
				<path fill="#EFD3BF" d="M77,162.4c0,0,1.6-1.7,3.3-0.1l1.7,1.6c0,0,3.4,3.2,0.2,6.7c-3.2,3.4-6.7,0.2-6.7,0.2l-1.7-1.6
					c0,0-1.7-1.6-0.1-3.3L77,162.4z"/>
			</g>
			<g>
				<path fill="#EFD3BF" d="M84,160.1c0,0-2.3-0.5-2.8,1.8l-0.5,2.3c0,0-0.5,2.3,1.7,2.8L84,160.1z"/>
			</g>
			<g>
				<path fill="#EFD3BF" d="M77.8,163.1c0.4,0.5,1.1,0.7,1.7,0.3l0,0c0.5-0.4,0.7-1.1,0.3-1.7l-2.8-3.9c-0.4-0.5-1.1-0.7-1.7-0.3
					l0,0c-0.5,0.4-0.7,1.1-0.3,1.7L77.8,163.1z"/>
			</g>
			<g>
				<path fill="#EFD3BF" d="M76.9,162c0.5,0.5,0.5,1.2,0.1,1.7l0,0c-0.5,0.5-1.2,0.5-1.7,0.1l-3.5-3.3c-0.5-0.5-0.5-1.2-0.1-1.7l0,0
					c0.5-0.5,1.2-0.5,1.7-0.1L76.9,162z"/>
			</g>
			<g>
				<path fill="#EFD3BF" d="M75.8,164.7c0.5,0.5,0.5,1.2,0.1,1.7l0,0c-0.5,0.5-1.2,0.5-1.7,0.1l-3.5-3.3c-0.5-0.5-0.5-1.2-0.1-1.7
					l0,0c0.5-0.5,1.2-0.5,1.7-0.1L75.8,164.7z"/>
			</g>
			<g>
				<path fill="#EFD3BF" d="M75.4,167.4c0.5,0.4,0.7,1.1,0.3,1.7l0,0c-0.4,0.5-1.1,0.7-1.7,0.3l-3.9-2.8c-0.5-0.4-0.7-1.1-0.3-1.7
					l0,0c0.4-0.5,1.1-0.7,1.7-0.3L75.4,167.4z"/>
			</g>
		</g>
		<g>
			<g>
				<path fill="#EFD3BF" d="M142.9,126c0,0-2.3,0.3-2.1,2.6l0.3,2.3c0,0,0.6,4.7,5.3,4.1c4.7-0.6,4.1-5.3,4.1-5.3l-0.3-2.3
					c0,0-0.3-2.3-2.6-2.1L142.9,126z"/>
			</g>
			<g>
				<path fill="#EFD3BF" d="M136.9,130.3c0,0,0.9-2.2,3.1-1.3l2.2,0.9c0,0,2.2,0.9,1.3,3.1L136.9,130.3z"/>
			</g>
			<g>
				<path fill="#EFD3BF" d="M143,127c0.2,0.6-0.1,1.3-0.8,1.5l0,0c-0.6,0.2-1.3-0.1-1.5-0.8l-1.5-4.6c-0.2-0.6,0.1-1.3,0.8-1.5l0,0
					c0.6-0.2,1.3,0.1,1.5,0.8L143,127z"/>
			</g>
			<g>
				<path fill="#EFD3BF" d="M142.7,125.7c0.1,0.7,0.7,1.1,1.3,1l0,0c0.7-0.1,1.1-0.7,1-1.3l-0.6-4.8c-0.1-0.7-0.7-1.1-1.3-1l0,0
					c-0.7,0.1-1.1,0.7-1,1.3L142.7,125.7z"/>
			</g>
			<g>
				<path fill="#EFD3BF" d="M145.5,126.3c0.1,0.7,0.7,1.1,1.3,1l0,0c0.7-0.1,1.1-0.7,1-1.3l-0.6-4.8c-0.1-0.7-0.7-1.1-1.3-1l0,0
					c-0.7,0.1-1.1,0.7-1.1,1.3L145.5,126.3z"/>
			</g>
			<g>
				<path fill="#EFD3BF" d="M147.9,127.6c0,0.7,0.5,1.2,1.2,1.2l0,0c0.7,0,1.2-0.5,1.2-1.2l0.1-4.8c0-0.7-0.5-1.2-1.2-1.2l0,0
					c-0.7,0-1.2,0.5-1.2,1.2L147.9,127.6z"/>
			</g>
		</g>
		<g>
			<path fill="#207278" d="M129.4,169.7l-1.3-4.5l0.6,2.2l-0.6-2.2c0.1,0,13.5-4,17.7-13.7c2.1-4.9,1.5-10.5-1.7-16.8l4.1-2.1
				c3.9,7.6,4.6,14.6,1.9,20.8C145,165.1,130,169.5,129.4,169.7z"/>
		</g>
		<g>
			<g>
				
					<rect x="142.7" y="132.6" transform="matrix(0.9558 -0.294 0.294 0.9558 -33.1499 49.1892)" fill="#1F6163" width="8.6" height="4.6"/>
			</g>
			<g>
				
					<rect x="142.2" y="132.6" transform="matrix(0.9562 -0.2926 0.2926 0.9562 -32.5723 48.7079)" fill="#F79542" width="8.6" height="1.2"/>
			</g>
		</g>
		<g>
			<path fill="#207278" d="M115.8,196.7l1.5,3c0,0,3,6,18.5-1.9c15.5-7.9,12.4-13.8,12.4-13.8l-1.5-3L115.8,196.7z"/>
		</g>
		<g>
			
				<rect x="107.7" y="160.1" transform="matrix(0.8912 -0.4537 0.4537 0.8912 -66.5293 75.9804)" fill="#207278" width="34.7" height="33.2"/>
		</g>
		<g>
			<path fill="#445A5E" d="M130.2,139.1c-5.4,2.1-6.3-23.2-27.8-14l-5.5,2.8c-15,9.7-0.1,27.5-5,30.7c-4.9,3.2-13.8-6.9-8.2,4.2
				c5.6,11,16.7,7.2,16.7,7.2l17-8.7l17-8.7c0,0,7.3-5.4,1.6-16.5C130.5,125.1,135.7,137,130.2,139.1"/>
		</g>
		<g>
			<path fill="#EFD3BF" d="M103.8,166.1c1,2,0.5,4.2-1,5c-1.6,0.8-3.6-0.2-4.6-2.1c-1-2-0.5-4.2,1-5
				C100.8,163.2,102.8,164.2,103.8,166.1z"/>
		</g>
		<g>
			<path fill="#EFD3BF" d="M134.9,150.3c1,2,0.5,4.2-1,5c-1.6,0.8-3.6-0.1-4.6-2.1c-1-2-0.5-4.2,1-5
				C131.9,147.4,133.9,148.3,134.9,150.3z"/>
		</g>
		<g>
			
				<rect x="111.3" y="178.1" transform="matrix(0.8912 -0.4537 0.4537 0.8912 -69.2805 78.3282)" fill="#754C28" width="34.7" height="10.8"/>
		</g>
		<g>
			<path fill="#EFD3BF" d="M123.2,172.9c14-7.1,11-16.3,9.9-18.8l-0.3-0.6l-2-3.9c0,0-5.1-9.6-20.4-1.8
				c-15.3,7.8-10.5,17.5-10.5,17.5l2,3.9l0.3,0.6C103.5,172.2,109.2,180.1,123.2,172.9"/>
		</g>
		<g>
			<path fill="#333333" d="M128.5,152c1.4,2.7,0.3,5.9-2.4,7.3c-2.7,1.4-5.9,0.3-7.3-2.4c-1.4-2.7-0.3-5.9,2.4-7.3
				C123.9,148.2,127.1,149.3,128.5,152"/>
		</g>
		<g>
			
				<rect x="122.7" y="145.1" transform="matrix(0.3135 -0.9496 0.9496 0.3135 -63.1369 223.9388)" fill="#333333" width="1.2" height="21"/>
		</g>
		<g>
			<path fill="#404041" d="M99,163.6l-0.1-0.2C98.9,163.4,98.9,163.5,99,163.6"/>
		</g>
		<g>
			<path fill="#404041" d="M129.8,147.7l0.1,0.2C129.8,147.7,129.8,147.7,129.8,147.7"/>
		</g>
		<g>
			<path fill="#57ACCD" d="M99.4,164.5c0,0,5.3-4.9,14.6-9.6c9.2-4.7,16.4-6.1,16.4-6.1s-4.1-9-19.9-0.9
				C94.5,155.9,99.4,164.5,99.4,164.5"/>
		</g>
		<g>
			<path fill="#333333" d="M112.8,160.5c0.4,0.8,0.1,1.8-0.7,2.2c-0.8,0.4-1.8,0.1-2.2-0.7c-0.4-0.8-0.1-1.8,0.7-2.2
				C111.4,159.4,112.4,159.7,112.8,160.5"/>
		</g>
		<g>
			
				<rect x="119.4" y="148.3" transform="matrix(0.9476 -0.3194 0.3194 0.9476 -41.2886 46.7608)" fill="#333333" width="5.1" height="1.9"/>
		</g>
		<g>
			<path fill="#333333" d="M106.5,138.3c0.2,0,0.4-0.1,0.7-0.1c0.3-0.1,0.5-0.4,0.4-0.7l-1-2c-0.1-0.2-0.3-0.3-0.5-0.3
				c0,0-0.1,0-0.1,0c-0.4,0-0.6-0.1-0.8-0.4c-0.1-0.3-0.1-0.6,0.2-0.9c0.1-0.2,0.2-0.4,0.1-0.6l-0.1-0.3c-0.1-0.2,0-0.6,0.2-0.7
				l0.1-0.1c0.2-0.1,0.6,0,0.7,0.2l0.1,0.3c0.1,0.2,0.3,0.3,0.5,0.3c0.4-0.1,0.8,0,1.1,0.1c0.2,0.1,0.5-0.1,0.6-0.3l0.8-1.9
				c0.1-0.3,0-0.6-0.3-0.7c-1.4-0.5-3-0.3-4.7,0.5c-1.1,0.6-2,1.4-2.5,2.4c-0.5,1-0.5,2.1,0.1,3.2
				C102.9,137.9,104.3,138.5,106.5,138.3"/>
		</g>
		<g>
			<path fill="#333333" d="M108.9,134.7c-0.2,0-0.5,0.1-0.7,0.1c-0.3,0.1-0.5,0.4-0.4,0.7l1.1,2.1c0.1,0.2,0.3,0.3,0.5,0.3
				c0,0,0,0,0,0c0.5,0,0.8,0.1,1,0.4c0.2,0.4,0.1,0.7-0.3,1c-0.2,0.2-0.2,0.4-0.1,0.6l0.2,0.3c0.1,0.2,0,0.6-0.2,0.7l-0.1,0.1
				c-0.2,0.1-0.6,0-0.7-0.2l-0.1-0.3c-0.1-0.2-0.4-0.3-0.6-0.3c-0.8,0.2-1.6,0.2-2.4-0.1c-0.2-0.1-0.5,0-0.6,0.3l-0.9,1.9
				c-0.1,0.3,0,0.6,0.2,0.7c0.7,0.3,1.5,0.5,2.3,0.5c1.1,0.1,2.3-0.3,3.6-0.9c3.1-1.6,3.9-3.8,2.7-6
				C112.6,135,111.3,134.4,108.9,134.7"/>
		</g>
		<g>
			<path fill="#E4F1DE" d="M106.1,137.7c0.2,0,0.4-0.1,0.7-0.1c0.3-0.1,0.5-0.4,0.4-0.7l-1-2c-0.1-0.2-0.3-0.3-0.5-0.3
				c0,0-0.1,0-0.1,0c-0.4,0-0.6-0.1-0.8-0.4c-0.1-0.3-0.1-0.6,0.2-0.9c0.1-0.2,0.2-0.4,0.1-0.6l-0.1-0.3c-0.1-0.3,0-0.6,0.2-0.7
				l0.1-0.1c0.2-0.1,0.6,0,0.7,0.2l0.1,0.3c0.1,0.2,0.3,0.3,0.5,0.3c0.4-0.1,0.8,0,1.1,0.1c0.2,0.1,0.5-0.1,0.6-0.3l0.8-1.9
				c0.1-0.3,0-0.6-0.3-0.7c-1.4-0.5-3-0.3-4.7,0.5c-1.1,0.6-2,1.4-2.5,2.4c-0.5,1-0.5,2.1,0.1,3.2
				C102.6,137.2,104,137.9,106.1,137.7"/>
		</g>
		<g>
			<path fill="#E4F1DE" d="M108.6,134c-0.2,0-0.5,0.1-0.7,0.1c-0.3,0.1-0.5,0.4-0.4,0.7l1.1,2.1c0.1,0.2,0.3,0.3,0.5,0.3
				c0,0,0,0,0,0c0.5,0,0.8,0.1,1,0.4c0.2,0.3,0.1,0.7-0.3,1c-0.2,0.2-0.2,0.4-0.1,0.6l0.2,0.3c0.1,0.3,0,0.6-0.2,0.7l-0.1,0.1
				c-0.2,0.1-0.6,0-0.7-0.2l-0.1-0.3c-0.1-0.2-0.4-0.3-0.6-0.3c-0.8,0.2-1.6,0.2-2.4-0.1c-0.2-0.1-0.5,0-0.6,0.3l-0.9,1.9
				c-0.1,0.3,0,0.6,0.2,0.7c0.7,0.3,1.5,0.5,2.3,0.5c1.1,0.1,2.3-0.3,3.6-0.9c3.1-1.6,3.9-3.8,2.7-6
				C112.3,134.3,110.9,133.7,108.6,134"/>
		</g>
		<g>
			<path fill="#593B23" d="M130.3,182.8c0.4,0.8,0.1,1.7-0.7,2.1c-0.8,0.4-1.7,0.1-2.1-0.7c-0.4-0.8-0.1-1.7,0.7-2.1
				C129,181.7,129.9,182,130.3,182.8z"/>
		</g>
		<g>
			<path fill="#593B23" d="M137.2,179.3c0.4,0.8,0.1,1.7-0.7,2.1c-0.8,0.4-1.7,0.1-2.1-0.7c-0.4-0.8-0.1-1.7,0.7-2.1
				C135.9,178.2,136.8,178.5,137.2,179.3z"/>
		</g>
		<g>
			<path fill="#593B23" d="M142,176.8c0.4,0.8,0.1,1.7-0.7,2.1c-0.8,0.4-1.7,0.1-2.1-0.7c-0.4-0.8-0.1-1.7,0.7-2.1
				C140.7,175.8,141.6,176.1,142,176.8z"/>
		</g>
		<g>
			<path fill="#593B23" d="M121.3,187.3c0.4,0.8,0.1,1.7-0.7,2.1c-0.8,0.4-1.7,0.1-2.1-0.7c-0.4-0.8-0.1-1.7,0.7-2.1
				C120,186.3,121,186.6,121.3,187.3z"/>
		</g>
		<g>
			<path fill="#F79542" d="M127.8,191.1c-1.6,0-3.1-0.9-3.9-2.4l-2.3-4.5c-0.5-1-0.6-2.2-0.3-3.3c0.4-1.1,1.1-2,2.2-2.5l4.5-2.3
				c1-0.5,2.2-0.6,3.3-0.3c1.1,0.4,2,1.1,2.5,2.2l2.3,4.5c1.1,2.1,0.2,4.7-1.9,5.8v0l-4.5,2.3C129.2,191,128.5,191.1,127.8,191.1z
				 M130,178.6c-0.2,0-0.4,0.1-0.6,0.2l-4.5,2.3c-0.3,0.2-0.6,0.5-0.7,0.8c-0.1,0.4-0.1,0.8,0.1,1.1l2.3,4.5c0.4,0.7,1.2,1,1.9,0.6
				l4.5-2.3c0.7-0.4,1-1.2,0.6-1.9l-2.3-4.5c-0.2-0.3-0.5-0.6-0.8-0.7C130.3,178.6,130.2,178.6,130,178.6z"/>
		</g>
		<g>
			<path fill="#333333" d="M130,161.8c0,0-6-3.7-9.4,0.7c-5.6,0.1-6.1,7.2-6.1,7.2c-7.3,3.7-14.8-4.6-15.5-6.1l5.6,11.1
				c4,7.9,14,3,14,3l9.7-0.1v0l5.8-7.8c0,0,5.5-3,1.5-10.9l-5.6-11.1C130.6,149.3,137.3,158,130,161.8 M123.1,167.3L123.1,167.3
				L123.1,167.3L123.1,167.3c-5.3,2.9-6.6,1.3-6.6,1.3c3.4-0.8,5-4.6,5-4.6c0,0,4,0.9,6.6-1.3C128,162.8,128.5,164.8,123.1,167.3"/>
		</g>
		<g>
			
				<rect x="122.5" y="184" transform="matrix(0.8912 -0.4537 0.4537 0.8912 -70.2636 77.1688)" fill="#E6E7E8" width="6.5" height="2.2"/>
		</g>
		<g>
			<path fill="#E1AF8D" d="M122.9,160.5c0.3,0.6-0.8,1.7-2.4,2.5c-1.6,0.8-3.2,1-3.5,0.5c-0.3-0.6,0.8-1.7,2.4-2.5
				C121.1,160.1,122.6,159.9,122.9,160.5z"/>
		</g>
		<g>
			<path fill="#207278" d="M100.7,185.1c-0.8,0-1.6-0.1-2.5-0.2c-6.5-0.9-12.7-5.5-18.2-13.6l3.8-2.6c4.8,7,9.9,10.9,15.1,11.7
				c5.2,0.7,8.8-2,8.8-2.1l2.9,3.6C110.5,182,106.6,185.1,100.7,185.1z"/>
		</g>
		<g>
			<g>
				
					<rect x="78" y="168.8" transform="matrix(0.7457 -0.6663 0.6663 0.7457 -93.034 98.3334)" fill="#1F6163" width="8.6" height="4.6"/>
			</g>
			<g>
				
					<rect x="76.8" y="169.2" transform="matrix(0.7463 -0.6657 0.6657 0.7463 -92.4141 97.103)" fill="#F79542" width="8.6" height="1.2"/>
			</g>
		</g>
		<g>
			<path fill="#333333" d="M107,157.7l-1.5-0.3c0.2-1.4,1.8-4.1,5.9-3.8l-0.1,1.5C107.5,155,107,157.6,107,157.7z"/>
		</g>
	</g>
	<g>
		<g>
			<path fill="#865A35" d="M209,133.1l-32.5,12.3l-20.8-19.2l32.5-12.3C213,107.9,209,133.1,209,133.1z"/>
		</g>
		<g>
			
				<rect x="132.8" y="105" transform="matrix(0.9354 -0.3536 0.3536 0.9354 -32.4207 57.9193)" fill="#754C28" width="19" height="25.3"/>
		</g>
		<g>
			
				<rect x="136" y="108.2" transform="matrix(0.9354 -0.3536 0.3536 0.9354 -32.4203 57.9179)" fill="#593B23" width="12.7" height="19"/>
		</g>
		<g>
			
				<rect x="150" y="95.5" transform="matrix(0.9354 -0.3536 0.3536 0.9354 -27.4331 66.1965)" fill="#865A35" width="34.8" height="25.3"/>
		</g>
		<g>
			
				<rect x="153.2" y="98.7" transform="matrix(0.9354 -0.3536 0.3536 0.9354 -27.4339 66.1997)" fill="#754C28" width="28.5" height="19"/>
		</g>
		<g>
			<polygon fill="#593B23" points="155.3,116.3 155.2,116 181.8,105.9 181.9,106.3 			"/>
		</g>
		<g>
			<polygon fill="#593B23" points="153.1,110.4 152.9,110.1 179.6,100 179.7,100.3 			"/>
		</g>
		<g>
			<polygon fill="#472F1F" points="137.6,123 137.4,122.7 149.3,118.2 149.4,118.6 			"/>
		</g>
		<g>
			<polygon fill="#472F1F" points="135.3,117.1 135.2,116.8 147,112.3 147.2,112.6 			"/>
		</g>
		<g>
			
				<rect x="179.2" y="93.9" transform="matrix(0.9353 -0.3538 0.3538 0.9353 -24.9479 70.3866)" fill="#593B23" width="1.6" height="19"/>
		</g>
		<g>
			
				<rect x="136.3" y="110.1" transform="matrix(0.9354 -0.3537 0.3537 0.9354 -33.4505 56.2227)" fill="#472F1F" width="1.6" height="19"/>
		</g>
		<g>
			<path fill="#724D32" d="M209,133.1l-3,1.1c0,0,4-25.2-20.8-19.2l3-1.1C213,107.9,209,133.1,209,133.1z"/>
		</g>
		<g>
			<polygon fill="#724D32" points="155.6,126.2 163.8,129.8 202.3,115.3 194.9,113.6 188.2,113.9 			"/>
		</g>
		<g>
			<path fill="#724D32" d="M179.4,144.2l-3,1.1l-20.8-19.2l3-1.1C183.4,119.1,179.4,144.2,179.4,144.2z"/>
		</g>
		<g>
			<path fill="#593B23" d="M155.6,126.2l20.8,19.2C176.4,145.4,180.4,120.2,155.6,126.2z"/>
		</g>
	</g>
	<g>
		<path fill="#F1F1F2" d="M180.3,176c0,0-2.4,3.4,2.1,3.6c0,0,1.4,3.8,4.2,1c0,0,3.6,1.6,2.6-2c0,0,4.1-4.7-0.9-5.2
			c0,0-3.2-3.9-5.6-0.7C182.7,172.8,177.8,171.7,180.3,176z"/>
	</g>
	<g>
		<path fill="#BBBDBF" d="M171.2,180.6l-0.6,0c0-2.2-2.6-2.4-2.7-2.4l0.1-0.6C169.1,177.6,171.2,178.4,171.2,180.6z"/>
	</g>
	<g>
		<path fill="#BBBDBF" d="M185.6,161.3l-0.3-0.5c0,0,3.3-2.3,2.5-5l0.6-0.2C189.3,158.8,185.7,161.2,185.6,161.3z"/>
	</g>
</g>
</svg>
