<?xml version="1.0" encoding="utf-8"?>
<!-- Generator: Adobe Illustrator 22.0.1, SVG Export Plug-In . SVG Version: 6.00 Build 0)  -->
<svg version="1.1" id="Layer_2" xmlns="http://www.w3.org/2000/svg" xmlns:xlink="http://www.w3.org/1999/xlink" x="0px" y="0px"
	 viewBox="0 0 288 288" enable-background="new 0 0 288 288" xml:space="preserve">
<g>
	<defs>
		
			<ellipse id="SVGID_5_" transform="matrix(0.1602 -0.9871 0.9871 0.1602 -21.2067 263.0743)" cx="144" cy="144" rx="134.3" ry="134.2"/>
	</defs>
	<clipPath id="SVGID_2_">
		<use xlink:href="#SVGID_5_"  overflow="visible"/>
	</clipPath>
	<g clip-path="url(#SVGID_2_)">
		<rect x="0.2" y="-1.1" fill="#C7E5EC" width="288" height="189.3"/>
		<g opacity="0.9">
			<path fill="#FFFFFF" d="M75.2,101.5c0,0,0-27.3,27.3-27.3s27.3,27.3,27.3,27.3s13.6,0,13.6,13.6H75.2V101.5z"/>
			<path fill="#FFFFFF" d="M47.9,128.8c0,0-13.6,0-13.6-13.6c0-13.6,13.6-13.6,13.6-13.6s13.6,0,13.6,13.6h54.6
				c0,0,0-13.6,13.6-13.6c0,0,13.6,0,13.6,13.6c0,0,0,13.6-13.6,13.6H47.9z"/>
			<path fill="#FFFFFF" d="M47.9,115.2c0,0,0-27.3,27.3-27.3s27.3,27.3,27.3,27.3H47.9z"/>
			<path fill="#FFFFFF" d="M75.2,128.8c0,0,0-27.3,27.3-27.3s27.3,27.3,27.3,27.3H75.2z"/>
		</g>
		<g opacity="0.9">
			<path fill="#FFFFFF" d="M232.4,154.8c0,0,0-11.5,11.5-11.5c11.5,0,11.5,11.5,11.5,11.5s5.8,0,5.8,5.8h-28.8V154.8z"/>
			<path fill="#FFFFFF" d="M220.9,166.3c0,0-5.8,0-5.8-5.8c0-5.8,5.8-5.8,5.8-5.8s5.8,0,5.8,5.8h23.1c0,0,0-5.8,5.8-5.8
				c0,0,5.8,0,5.8,5.8c0,0,0,5.8-5.8,5.8H220.9z"/>
			<path fill="#FFFFFF" d="M220.9,160.5c0,0,0-11.5,11.5-11.5c11.5,0,11.5,11.5,11.5,11.5H220.9z"/>
			<path fill="#FFFFFF" d="M232.4,166.3c0,0,0-11.5,11.5-11.5c11.5,0,11.5,11.5,11.5,11.5H232.4z"/>
		</g>
		<rect x="0.2" y="188.2" fill="#57ACCD" width="288" height="98.7"/>
		<ellipse fill="#3F889F" cx="139.8" cy="233.2" rx="58.5" ry="9"/>
		<polygon fill="#A6A8AB" points="80.2,234.3 89.2,225.3 152.2,216.3 179.2,207.3 188.2,216.3 197.2,234.3 		"/>
		<polygon fill="#929497" points="188.2,216.3 143.2,234.3 197.2,234.3 		"/>
		<polygon fill="#929497" points="98.2,234.3 89.2,225.3 134.2,234.3 		"/>
	</g>
</g>
<g>
	<g>
		<g>
			<path fill="#207278" d="M124.6,213.5c-4.9-12.4-0.5-30.9-0.3-31.7l2.9,0.7c0,0.2-4.4,18.3,0.2,29.8L124.6,213.5z"/>
		</g>
		<g>
			<path fill="#207278" d="M149.8,213.3l-2.9-0.8c3.2-11.5,1.1-22.1,0.3-26.6c-0.4-2-0.5-2.5-0.1-3.2l2.6,1.6
				c0.2-0.3,0.2-0.7,0.2-0.7c0,0.2,0.2,1,0.3,1.6C151,190.1,153.2,201.1,149.8,213.3z"/>
		</g>
		<g>
			<g>
				<polygon fill="#593B23" points="121.4,206.6 123.2,217.6 117.7,219.5 117.7,221.3 126.9,221.3 128.7,206.6 				"/>
			</g>
			<g>
				<polygon fill="#754C28" points="121.5,204.7 118,211.5 131.7,211.5 128.3,204.7 				"/>
			</g>
		</g>
		<g>
			<g>
				<polygon fill="#593B23" points="153.4,206.6 151.5,217.6 157,219.5 157,221.3 147.9,221.3 146,206.6 				"/>
			</g>
			<g>
				<polygon fill="#754C28" points="146.6,204.7 143.2,211.5 156.9,211.5 153.4,204.7 				"/>
			</g>
		</g>
		<g>
			<g>
				<g>
					<path fill="#EFD3BF" d="M92.4,147.5c0,0,2-1.2,3.2,0.8l1.2,2c0,0,2.3,4-1.7,6.3c-4,2.3-6.3-1.7-6.3-1.7l-1.2-2
						c0,0-1.2-2,0.8-3.2L92.4,147.5z"/>
				</g>
				<g>
					<path fill="#EFD3BF" d="M99.7,147.3c0,0-2-1.2-3.2,0.8l-1.2,2c0,0-1.2,2,0.8,3.2L99.7,147.3z"/>
				</g>
				<g>
					<path fill="#EFD3BF" d="M93,148.4c0.2,0.6,0.9,0.9,1.5,0.7l0,0c0.6-0.2,0.9-0.9,0.7-1.5l-1.5-4.5c-0.2-0.6-0.9-0.9-1.5-0.7l0,0
						c-0.6,0.2-0.9,0.9-0.7,1.5L93,148.4z"/>
				</g>
				<g>
					<path fill="#EFD3BF" d="M92.4,147.1c0.3,0.6,0.1,1.3-0.4,1.6l0,0c-0.6,0.3-1.3,0.1-1.6-0.4l-2.4-4.1c-0.3-0.6-0.1-1.3,0.4-1.6
						l0,0c0.6-0.3,1.3-0.1,1.6,0.4L92.4,147.1z"/>
				</g>
				<g>
					<path fill="#EFD3BF" d="M90.6,149.3c0.3,0.6,0.1,1.3-0.4,1.6l0,0c-0.6,0.3-1.3,0.1-1.6-0.4l-2.4-4.1c-0.3-0.6-0.1-1.3,0.4-1.6
						l0,0c0.6-0.3,1.3-0.1,1.6,0.4L90.6,149.3z"/>
				</g>
				<g>
					<path fill="#EFD3BF" d="M89.5,151.7c0.4,0.5,0.3,1.3-0.2,1.7l0,0c-0.5,0.4-1.3,0.3-1.7-0.2l-2.9-3.7c-0.4-0.5-0.3-1.3,0.2-1.7
						l0,0c0.5-0.4,1.3-0.3,1.7,0.2L89.5,151.7z"/>
				</g>
			</g>
			<g>
				<g>
					<path fill="#EFD3BF" d="M164.7,131.9c0,0-2.3-0.4-2.7,1.9l-0.4,2.3c0,0-0.8,4.6,3.8,5.3c4.6,0.8,5.3-3.8,5.3-3.8l0.4-2.3
						c0,0,0.4-2.3-1.9-2.7L164.7,131.9z"/>
				</g>
				<g>
					<path fill="#EFD3BF" d="M157.8,134.3c0,0,1.5-1.8,3.3-0.3l1.8,1.5c0,0,1.8,1.5,0.3,3.3L157.8,134.3z"/>
				</g>
				<g>
					<path fill="#EFD3BF" d="M164.5,132.9c0,0.7-0.5,1.2-1.1,1.2l0,0c-0.7,0-1.2-0.5-1.2-1.1l-0.1-4.7c0-0.7,0.5-1.2,1.1-1.2l0,0
						c0.7,0,1.2,0.5,1.2,1.1L164.5,132.9z"/>
				</g>
				<g>
					<path fill="#EFD3BF" d="M164.6,131.5c-0.1,0.6,0.3,1.3,1,1.4l0,0c0.6,0.1,1.3-0.3,1.4-1l0.8-4.7c0.1-0.6-0.3-1.3-1-1.4l0,0
						c-0.6-0.1-1.3,0.3-1.4,1L164.6,131.5z"/>
				</g>
				<g>
					<path fill="#EFD3BF" d="M167,133c-0.1,0.6,0.3,1.3,1,1.4l0,0c0.6,0.1,1.3-0.3,1.4-1l0.8-4.7c0.1-0.6-0.3-1.3-1-1.4l0,0
						c-0.6-0.1-1.3,0.3-1.4,1L167,133z"/>
				</g>
				<g>
					<path fill="#EFD3BF" d="M168.9,134.8c-0.2,0.6,0.1,1.3,0.8,1.5l0,0c0.6,0.2,1.3-0.2,1.5-0.8l1.4-4.5c0.2-0.6-0.2-1.3-0.8-1.5
						l0,0c-0.6-0.2-1.3,0.2-1.5,0.8L168.9,134.8z"/>
				</g>
			</g>
			<g>
				<path fill="#207278" d="M139.8,169.2c-0.1,0-0.1,0-0.2,0l0.1-4.6l0,2.3l0-2.3c0.1,0,13.9,0.1,20.5-7.8c3.3-4,4.4-9.5,3.1-16.3
					l4.5-0.8c1.6,8.2,0.2,15-4.1,20.1C155.9,168.9,141.6,169.2,139.8,169.2z"/>
			</g>
			<g>
				<g>
					
						<rect x="161.8" y="139.2" transform="matrix(1 -6.173815e-03 6.173815e-03 1 -0.8699 1.0278)" fill="#1F6163" width="8.5" height="4.5"/>
				</g>
				<g>
					
						<rect x="161.8" y="139.2" transform="matrix(1 -3.817887e-03 3.817887e-03 1 -0.5323 0.6349)" fill="#F79542" width="8.5" height="1.2"/>
				</g>
			</g>
			<g>
				<path fill="#207278" d="M119.2,190.7l0.6,3.2c0,0,1.2,6.5,17.9,3.4c16.8-3,15.6-9.5,15.6-9.5l-0.6-3.2L119.2,190.7z"/>
			</g>
			<g>
				
					<rect x="116.6" y="158.2" transform="matrix(0.9841 -0.1779 0.1779 0.9841 -28.9107 26.5519)" fill="#207278" width="34.1" height="32.6"/>
			</g>
			<g>
				<path fill="#445A5E" d="M149.1,140.7c-5.7,0.4,0.6-23.6-22.2-21l-5.9,1.1c-16.8,4.9-7.9,25.9-13.4,27.5
					c-5.5,1.6-11.1-10.4-8.9,1.6c2.2,12,13.6,11.4,13.6,11.4l18.5-3.3l18.5-3.3c0,0,8.4-3.1,6.2-15
					C153.2,127.5,154.8,140.2,149.1,140.7"/>
			</g>
			<g>
				<path fill="#EFD3BF" d="M116.6,158.6c0.4,2.1-0.7,4.1-2.4,4.4c-1.7,0.3-3.4-1.2-3.8-3.3c-0.4-2.1,0.7-4.1,2.4-4.4
					C114.5,155,116.2,156.5,116.6,158.6z"/>
			</g>
			<g>
				<path fill="#EFD3BF" d="M150.3,152.5c0.4,2.1-0.7,4.1-2.4,4.4c-1.7,0.3-3.4-1.2-3.8-3.3c-0.4-2.1,0.7-4.1,2.4-4.4
					C148.3,148.9,149.9,150.4,150.3,152.5z"/>
			</g>
			<g>
				
					<rect x="117.9" y="176.7" transform="matrix(0.9841 -0.1779 0.1779 0.9841 -30.2217 26.9132)" fill="#754C28" width="34.1" height="10.6"/>
			</g>
			<g>
				<path fill="#EFD3BF" d="M132.9,170.5c15.2-2.7,15-12.3,14.6-14.9l-0.1-0.7l-0.8-4.2c0,0-2.1-10.4-18.7-7.4
					c-16.5,3-14.9,13.5-14.9,13.5l0.8,4.2l0.1,0.7C114.6,164.2,117.7,173.2,132.9,170.5"/>
			</g>
			<g>
				<path fill="#333333" d="M143.8,152.3c0.5,2.9-1.4,5.7-4.3,6.2c-2.9,0.5-5.7-1.4-6.2-4.3c-0.5-2.9,1.4-5.7,4.3-6.2
					C140.5,147.5,143.3,149.4,143.8,152.3"/>
			</g>
			<g>
				
					<rect x="137.3" y="143.9" transform="matrix(0.5737 -0.8191 0.8191 0.5737 -67.5571 178.702)" fill="#333333" width="1.2" height="20.6"/>
			</g>
			<g>
				<path fill="#404041" d="M112.8,154.8l0-0.2C112.7,154.6,112.7,154.7,112.8,154.8"/>
			</g>
			<g>
				<path fill="#404041" d="M146.2,148.6l0,0.2C146.3,148.7,146.2,148.6,146.2,148.6"/>
			</g>
			<g>
				<path fill="#57ACCD" d="M112.9,155.8c0,0,6.4-3.1,16.4-4.9c10-1.8,17.1-1.1,17.1-1.1s-1.3-9.6-18.5-6.5
					C110.7,146.3,112.9,155.8,112.9,155.8"/>
			</g>
			<g>
				<path fill="#333333" d="M126.6,155.9c0.2,0.9-0.4,1.7-1.3,1.9s-1.7-0.4-1.9-1.3c-0.2-0.9,0.4-1.7,1.3-1.9
					C125.6,154.4,126.5,155,126.6,155.9"/>
			</g>
			<g>
				<path fill="#593B23" d="M136.8,181.7c0.1,0.8-0.4,1.6-1.2,1.7c-0.8,0.1-1.6-0.4-1.7-1.2c-0.1-0.8,0.4-1.6,1.2-1.7
					C135.8,180.4,136.6,180.9,136.8,181.7z"/>
			</g>
			<g>
				<path fill="#593B23" d="M144.2,180.4c0.1,0.8-0.4,1.6-1.2,1.7c-0.8,0.1-1.6-0.4-1.7-1.2c-0.1-0.8,0.4-1.6,1.2-1.7
					C143.3,179,144.1,179.6,144.2,180.4z"/>
			</g>
			<g>
				<path fill="#593B23" d="M149.5,179.4c0.1,0.8-0.4,1.6-1.2,1.7c-0.8,0.1-1.6-0.4-1.7-1.2c-0.1-0.8,0.4-1.6,1.2-1.7
					C148.5,178.1,149.3,178.6,149.5,179.4z"/>
			</g>
			<g>
				<path fill="#593B23" d="M127.1,183.5c0.1,0.8-0.4,1.6-1.2,1.7c-0.8,0.1-1.6-0.4-1.7-1.2c-0.1-0.8,0.4-1.6,1.2-1.7
					C126.1,182.1,126.9,182.7,127.1,183.5z"/>
			</g>
			<g>
				<path fill="#F79542" d="M133.3,189.1c-2,0-3.8-1.4-4.2-3.5l-0.9-4.9c-0.4-2.3,1.1-4.5,3.4-4.9l4.9-0.9c1.1-0.2,2.2,0,3.2,0.7
					c0.9,0.6,1.6,1.6,1.8,2.7l0.9,4.9c0.4,2.3-1.1,4.5-3.4,4.9l-4.9,0.9C133.8,189.1,133.6,189.1,133.3,189.1z M137.3,177.6
					c-0.1,0-0.2,0-0.3,0l-4.9,0.9c-0.8,0.1-1.3,0.9-1.1,1.7l0.9,4.9c0.1,0.8,0.9,1.3,1.7,1.1l4.9-0.9c0.8-0.1,1.3-0.9,1.1-1.6
					l-0.9-4.9c-0.1-0.4-0.3-0.7-0.6-0.9C137.9,177.7,137.6,177.6,137.3,177.6z"/>
			</g>
			<g>
				<path fill="#333333" d="M142.4,161.9c0,0-4.5-5.2-9-2c-5.3-1.4-7.7,5-7.7,5c-8,1.4-12.6-8.5-12.9-10.1l2.2,12
					c1.5,8.5,12.3,6.8,12.3,6.8l9.1,2.7l0,0l7.6-5.7c0,0,6-1.3,4.5-9.8l-2.2-12C146.6,150.4,150.4,160.5,142.4,161.9 M134.3,165.2
					L134.3,165.2L134.3,165.2L134.3,165.2c-5.8,1.2-6.6-0.6-6.6-0.6c3.4,0.2,6-2.9,6-2.9c0,0,3.5,2,6.6,0.6
					C140.3,162.3,140.2,164.3,134.3,165.2"/>
			</g>
			<g>
				
					<rect x="128.6" y="181.5" transform="matrix(0.9841 -0.1778 0.1778 0.9841 -30.3651 26.355)" fill="#E6E7E8" width="6.4" height="2.1"/>
			</g>
			<g>
				<path fill="#E1AF8D" d="M136.1,158.7c0.1,0.6-1.2,1.4-3,1.7c-1.8,0.3-3.3,0.1-3.4-0.5c-0.1-0.6,1.2-1.4,3-1.7
					C134.5,157.8,136,158,136.1,158.7z"/>
			</g>
			<g>
				<path fill="#207278" d="M113.2,176.2c-2,0-4.5-0.4-7.1-1.6c-5.9-2.7-10.3-8.8-13.3-18l4.3-1.4c2.5,7.9,6.2,13,10.9,15.2
					c4.7,2.2,8.8,0.6,8.9,0.6l1.7,4.2C118.5,175.4,116.3,176.2,113.2,176.2z"/>
			</g>
			<g>
				<g>
					
						<rect x="90.7" y="154.9" transform="matrix(0.9059 -0.4235 0.4235 0.9059 -57.6096 55.0153)" fill="#1F6163" width="8.5" height="4.5"/>
				</g>
				<g>
					
						<rect x="90" y="155" transform="matrix(0.9063 -0.4226 0.4226 0.9063 -56.9348 54.4207)" fill="#F79542" width="8.5" height="1.2"/>
				</g>
			</g>
			<g>
				<path fill="#333333" d="M121,149.9l-1.4-0.7c0.6-1.3,2.8-3.3,6.6-1.9l-0.5,1.4C122.4,147.5,121.2,149.7,121,149.9z"/>
			</g>
			<g>
				<path fill="#333333" d="M134.7,147.6l-1.4-0.7c0.6-1.3,2.8-3.3,6.6-1.9l-0.5,1.4C136,145.2,134.7,147.5,134.7,147.6z"/>
			</g>
			<g>
				<g>
					<path fill="#333333" d="M130.5,134.3l-0.4-10.9c0-0.2-0.1-0.4-0.3-0.6c-0.2-0.1-0.4-0.2-0.6-0.2l-5.5,0.9
						c-0.2,0-0.4,0.2-0.5,0.3c-0.1,0.2-0.1,0.4-0.1,0.6l3.1,10.5c0.1,0.3,0.4,0.5,0.7,0.5c0,0,0.1,0,0.1,0l2.7-0.4
						C130.2,135,130.5,134.6,130.5,134.3z"/>
				</g>
				<g>
					<path fill="#333333" d="M131.7,138.8c-0.2-1.2-1.4-2.1-2.6-1.9c-1.2,0.2-2.1,1.4-1.9,2.6c0.2,1.1,1.1,1.9,2.3,1.9
						c0.1,0,0.2,0,0.4,0C131,141.2,131.9,140,131.7,138.8z"/>
				</g>
			</g>
			<g>
				<g>
					<path fill="#E4F1DE" d="M130.5,133.5l-0.4-10.9c0-0.2-0.1-0.4-0.3-0.6c-0.2-0.1-0.4-0.2-0.6-0.2l-5.5,0.9
						c-0.2,0-0.4,0.2-0.5,0.3c-0.1,0.2-0.1,0.4-0.1,0.6l3.1,10.5c0.1,0.3,0.4,0.5,0.7,0.5c0,0,0.1,0,0.1,0l2.7-0.4
						C130.2,134.2,130.5,133.9,130.5,133.5z"/>
				</g>
				<g>
					<path fill="#E4F1DE" d="M131.7,138c-0.2-1.2-1.4-2.1-2.6-1.9c-1.2,0.2-2.1,1.4-1.9,2.6c0.2,1.1,1.1,1.9,2.3,1.9
						c0.1,0,0.2,0,0.4,0C131,140.4,131.9,139.3,131.7,138z"/>
				</g>
			</g>
		</g>
	</g>
	<g>
		<g>
			<path fill="#DDD5C9" d="M200.3,167.4c0,0,6.5,3.6,2.9,10.2l-39.2-21.8c0,0,3.6-6.5,10.2-2.9L200.3,167.4z"/>
		</g>
		<g>
			<path fill="#ECE3D6" d="M164.1,155.7c0,0,3.6-6.5,10.2-2.9l26.1,14.5c0,0-6.5-3.6-10.2,2.9l-16.3,29.4c0,0-3.6,6.5-10.2,2.9
				L137.6,188c0,0,6.5,3.6,10.2-2.9L164.1,155.7z"/>
		</g>
		<g>
			<path fill="#DDD5C9" d="M163.7,202.5c0,0-3.3-1.8-1.4-5.1l-26.1-14.5c0,0-1.8,3.3,1.4,5.1L163.7,202.5z"/>
		</g>
		<g>
			<g>
				<path fill="#754C28" d="M171.5,198.9l-22.9-13l16.7-29.4l22.9,13L171.5,198.9z M149.1,185.7l22.2,12.6l16.3-28.7L165.4,157
					L149.1,185.7z"/>
			</g>
			<g>
				<g>
					<path fill="#B79E8A" d="M176.3,180.5c0,0,0.7-2-1.7-3.6c-2.4-1.6-4.4-2.4-5-7.1c-0.5-4.7-6.2-3.8-7.9,0.9
						c-1.7,4.7-0.4,5.2-2.5,8.9c-2.1,3.8,3.3,9.5,8.6,7.7C173,185.3,175.2,187.7,176.3,180.5z"/>
				</g>
				<g>
					<path fill="#B79E8A" d="M170.5,166.8c0,0,1.5,2.6,3.9,1.9c2.4-0.8,1.2-4.1-1.4-5.6C170.5,161.6,169.2,163.5,170.5,166.8z"/>
				</g>
				<g>
					<path fill="#B79E8A" d="M159.7,188.3c0,0,0-1-1.9-2.1c-1.8-1.1-2,0.4-0.8,1.7C158.3,189.2,159.9,189.6,159.7,188.3z"/>
				</g>
				<g>
					<path fill="#A3846F" d="M170.8,164.1c0,0,0.1,4.8,2.9,3.8C176.6,166.8,171.7,162.1,170.8,164.1z"/>
				</g>
				<g>
					<path fill="#B79E8A" d="M166.8,161c0,0-2.9,1.6-1.2,2.6C167.3,164.6,168.3,160.8,166.8,161z"/>
				</g>
				<g>
					<path fill="#95D2E5" d="M165.7,182.4c0,0,3.4-2.2-0.9-4.7C160.3,175.1,160.1,185.5,165.7,182.4z"/>
				</g>
				<g>
					<path fill="#7ABDCC" d="M165.6,181.5c0,0,2.1-2.2-1.5-3.3C160.4,177.2,162.1,184.8,165.6,181.5z"/>
				</g>
			</g>
			<g>
				<g>
					
						<rect x="166.1" y="170.3" transform="matrix(0.9642 -0.265 0.265 0.9642 -39.6788 50.241)" fill="#3B2314" width="0.5" height="3.7"/>
				</g>
				<g>
					
						<rect x="164.5" y="171.9" transform="matrix(0.9644 -0.2645 0.2645 0.9644 -39.6074 50.1212)" fill="#3B2314" width="3.7" height="0.5"/>
				</g>
			</g>
			<g>
				<g>
					<path fill="#95D2E5" d="M183.8,171.6c-0.4,0.7-1.2,0.9-1.9,0.5c-0.7-0.4-0.9-1.2-0.5-1.9c0.4-0.7,1.2-0.9,1.9-0.5
						C183.9,170.1,184.1,170.9,183.8,171.6z"/>
				</g>
				<g>
					<polygon fill="#B79E8A" points="184.2,171.8 182.8,170.5 182.3,171.3 					"/>
				</g>
				<g>
					<polygon fill="#B79E8A" points="181,170 182.3,171.3 182.8,170.5 					"/>
				</g>
				<g>
					<path fill="#754C28" d="M182,173.3c-0.2-0.1-0.5-0.1-0.7-0.3c-1.2-0.7-1.6-2.2-0.9-3.4c0.7-1.2,2.2-1.6,3.4-0.9
						c0.6,0.3,1,0.9,1.2,1.5c0.2,0.6,0.1,1.3-0.2,1.9l0,0C184.2,173.1,183.1,173.5,182,173.3z M183,168.8c-0.9-0.2-1.8,0.2-2.3,1
						c-0.6,1-0.2,2.3,0.8,2.9c1,0.6,2.3,0.2,2.9-0.8l0,0c0.3-0.5,0.4-1.1,0.2-1.6c-0.2-0.5-0.5-1-1-1.3
						C183.4,168.9,183.2,168.9,183,168.8z"/>
				</g>
				<g>
					<polygon fill="#CE4424" points="183.5,169.3 182.2,170.7 182.9,171.1 					"/>
				</g>
				<g>
					<polygon fill="#F4E9DF" points="181.6,172.5 182.9,171.1 182.2,170.7 					"/>
				</g>
			</g>
			<g>
				<g>
					<path fill="#A3846F" d="M167.1,191.4c0,0-0.4,0.8,0.3,1.2c0.8,0.5,1.6,0.9,1.6,0.9l0.7-0.6L167.1,191.4z"/>
				</g>
				<g>
					<path fill="#B79E8A" d="M170.1,190.3c0,0-1.4-0.1-2.1,1.2l1.3,0.7C169.3,192.3,169.3,191.2,170.1,190.3z"/>
				</g>
				<g>
					<polygon fill="#A3846F" points="167.1,191.4 166.9,190.5 167.4,191.5 					"/>
				</g>
			</g>
			<g>
				<path fill="#A3846F" d="M172.6,178.2c0,0-0.9-1.4-2.1,0.7c-1.2,2.1-0.4,1.1-0.9,1.5c-0.5,0.3-0.4,1.3,2,0.7
					C174,180.5,176.4,181.4,172.6,178.2z"/>
			</g>
			<g>
				<g>
					<path fill="#3B2314" d="M167.6,189c0,0,0-0.3,0.1-0.7l0.5,0c0,0.4-0.1,0.7-0.1,0.7L167.6,189z"/>
				</g>
				<g>
					<path fill="#3B2314" d="M167.6,186.9c-0.1-0.5-0.3-0.9-0.5-1.2l0.4-0.3c0.3,0.4,0.6,0.9,0.7,1.5L167.6,186.9z M162.8,185.6
						c-0.5-0.1-0.9-0.3-1.3-0.7l0.3-0.4c0.3,0.3,0.7,0.5,1.1,0.6l0.1,0l-0.1,0.5L162.8,185.6z M164.5,185.5l-0.2-0.5
						c0.6-0.2,1.1-0.3,1.6-0.3l0,0.5C165.5,185.2,165,185.3,164.5,185.5z M160.5,183.6c-0.2-0.4-0.4-0.9-0.5-1.5l0.5-0.1
						c0.1,0.5,0.2,1,0.4,1.4L160.5,183.6z M159.9,180.6c0-0.4,0.1-0.9,0.2-1.3l0-0.2l0.5,0.1l0,0.2c-0.1,0.4-0.1,0.8-0.1,1.2
						L159.9,180.6z M161.1,177.8l-0.5-0.2c0.2-0.5,0.5-0.9,0.9-1.3l0.4,0.3C161.6,177,161.3,177.4,161.1,177.8z M162.9,175.6
						l-0.3-0.4c0.5-0.4,0.8-0.7,1.2-0.9l0.3,0.4C163.8,174.9,163.4,175.2,162.9,175.6z"/>
				</g>
				<g>
					<path fill="#3B2314" d="M165.3,173.7l-0.3-0.4c0.2-0.2,0.3-0.3,0.4-0.3l0,0c0.1-0.1,0.3-0.2,0.4,0
						C165.9,173.1,165.8,173.3,165.3,173.7z"/>
				</g>
			</g>
			<g>
				<path fill="#6FB0BF" d="M175.9,174.6c0,0-0.1,0-0.1,0c-0.4-0.2-0.7-0.6-0.9-1.3c-0.2-0.6-0.5-1-0.8-1.2
					c-0.5-0.2-0.9,0.1-0.9,0.1l-0.1-0.1c0,0,0.5-0.4,1.1-0.2c0.4,0.2,0.7,0.6,0.9,1.3c0.2,0.6,0.5,1,0.8,1.2c0.5,0.2,0.9-0.1,1-0.1
					l0.1,0.1C176.9,174.4,176.4,174.7,175.9,174.6z"/>
			</g>
			<g>
				<path fill="#6FB0BF" d="M164.5,190.6c0,0-0.1,0-0.1,0c-0.4-0.2-0.7-0.6-0.9-1.3c-0.2-0.6-0.5-1-0.8-1.2
					c-0.5-0.2-0.9,0.1-0.9,0.1l-0.1-0.1c0,0,0.6-0.4,1.1-0.2c0.4,0.2,0.7,0.6,0.9,1.3c0.2,0.6,0.4,1,0.8,1.2c0.5,0.2,0.9-0.1,1-0.1
					l0.1,0.1C165.4,190.4,165,190.7,164.5,190.6z"/>
			</g>
			<g>
				<path fill="#6FB0BF" d="M165.2,193.4c0,0-0.1,0-0.1,0c-0.4-0.2-0.7-0.6-0.9-1.3c-0.2-0.6-0.4-1-0.8-1.2c-0.5-0.2-0.9,0.1-1,0.1
					l-0.1-0.1c0,0,0.5-0.4,1.1-0.2c0.4,0.2,0.7,0.6,0.9,1.3c0.2,0.6,0.5,1,0.8,1.2c0.5,0.2,0.9-0.1,0.9-0.1l0.1,0.1
					C166.2,193.2,165.7,193.5,165.2,193.4z"/>
			</g>
			<g>
				<path fill="#6FB0BF" d="M156.5,183.7c0,0-0.1,0-0.1,0c-0.4-0.2-0.7-0.6-0.9-1.3c-0.2-0.6-0.5-1-0.8-1.2
					c-0.5-0.2-0.9,0.1-0.9,0.1l-0.1-0.1c0,0,0.6-0.4,1.1-0.2c0.4,0.2,0.7,0.6,0.9,1.3c0.2,0.6,0.5,1,0.8,1.2
					c0.5,0.2,0.9-0.1,0.9-0.1l0.1,0.1C157.5,183.5,157,183.8,156.5,183.7z"/>
			</g>
			<g>
				<path fill="#6FB0BF" d="M173.7,191.1c0,0-0.1,0-0.1,0c-0.4-0.2-0.7-0.6-0.9-1.3c-0.2-0.6-0.5-1-0.8-1.2
					c-0.5-0.2-0.9,0.1-0.9,0.1l-0.1-0.1c0,0,0.5-0.4,1.1-0.2c0.4,0.2,0.7,0.6,0.9,1.3c0.2,0.6,0.5,1,0.8,1.2
					c0.5,0.2,0.9-0.1,0.9-0.1l0.1,0.1C174.6,190.9,174.2,191.2,173.7,191.1z"/>
			</g>
			<g>
				<path fill="#6FB0BF" d="M178.5,178.4c0,0-0.1,0-0.1,0c-0.4-0.2-0.7-0.6-0.9-1.3c-0.2-0.6-0.4-1-0.8-1.2c-0.5-0.2-0.9,0.1-1,0.1
					l-0.1-0.1c0,0,0.5-0.4,1.1-0.2c0.4,0.2,0.7,0.6,0.9,1.3c0.2,0.6,0.5,1,0.8,1.2c0.5,0.2,0.9-0.1,0.9-0.1l0.1,0.1
					C179.4,178.2,179,178.5,178.5,178.4z"/>
			</g>
			<g>
				<path fill="#6FB0BF" d="M178.8,173.8c0,0-0.1,0-0.1,0c-0.4-0.2-0.7-0.6-0.9-1.3c-0.2-0.6-0.5-1-0.8-1.2
					c-0.5-0.2-0.9,0.1-0.9,0.1l-0.1-0.1c0,0,0.5-0.4,1.1-0.2c0.4,0.2,0.7,0.6,0.9,1.3c0.2,0.6,0.4,1,0.8,1.2c0.5,0.2,0.9-0.1,1-0.1
					l0.1,0.1C179.7,173.6,179.2,173.9,178.8,173.8z"/>
			</g>
		</g>
	</g>
</g>
</svg>
