<svg xmlns="http://www.w3.org/2000/svg" xmlns:xlink="http://www.w3.org/1999/xlink" viewBox="0 0 288 288"><defs><ellipse id="a" transform="rotate(-80.781 144.003 143.998)" cx="144" cy="144" rx="134.3" ry="134.2"/></defs><clipPath id="b"><use xlink:href="#a" overflow="visible"/></clipPath><g clip-path="url(#b)"><path fill="#C7E5EC" d="M.2-1.1h288v189.3H.2z"/><g opacity=".9" fill="#FFF"><path d="M75.2 101.5s0-27.3 27.3-27.3 27.3 27.3 27.3 27.3 13.6 0 13.6 13.6H75.2v-13.6z"/><path d="M47.9 128.8s-13.6 0-13.6-13.6 13.6-13.6 13.6-13.6 13.6 0 13.6 13.6h54.6s0-13.6 13.6-13.6c0 0 13.6 0 13.6 13.6 0 0 0 13.6-13.6 13.6H47.9z"/><path d="M47.9 115.2s0-27.3 27.3-27.3 27.3 27.3 27.3 27.3H47.9z"/><path d="M75.2 128.8s0-27.3 27.3-27.3 27.3 27.3 27.3 27.3H75.2z"/></g><g opacity=".9" fill="#FFF"><path d="M232.4 154.8s0-11.5 11.5-11.5 11.5 11.5 11.5 11.5 5.8 0 5.8 5.8h-28.8v-5.8z"/><path d="M220.9 166.3s-5.8 0-5.8-5.8 5.8-5.8 5.8-5.8 5.8 0 5.8 5.8h23.1s0-5.8 5.8-5.8c0 0 5.8 0 5.8 5.8 0 0 0 5.8-5.8 5.8h-34.7z"/><path d="M220.9 160.5s0-11.5 11.5-11.5 11.5 11.5 11.5 11.5h-23z"/><path d="M232.4 166.3s0-11.5 11.5-11.5 11.5 11.5 11.5 11.5h-23z"/></g><path fill="#57ACCD" d="M.2 188.2h288v98.7H.2z"/><ellipse fill="#3F889F" cx="139.8" cy="233.2" rx="58.5" ry="9"/><path fill="#A6A8AB" d="M80.2 234.3l9-9 63-9 27-9 9 9 9 18z"/><path fill="#929497" d="M188.2 216.3l-45 18h54zM98.2 234.3l-9-9 45 9z"/></g><g><path fill="#207278" d="M124.6 213.5c-4.9-12.4-.5-30.9-.3-31.7l2.9.7c0 .2-4.4 18.3.2 29.8l-2.8 1.2zM149.8 213.3l-2.9-.8c3.2-11.5 1.1-22.1.3-26.6-.4-2-.5-2.5-.1-3.2l2.6 1.6c.2-.3.2-.7.2-.7 0 .2.2 1 .3 1.6.8 4.9 3 15.9-.4 28.1z"/><path fill="#593B23" d="M121.4 206.6l1.8 11-5.5 1.9v1.8h9.2l1.8-14.7z"/><path fill="#754C28" d="M121.5 204.7l-3.5 6.8h13.7l-3.4-6.8z"/><path fill="#593B23" d="M153.4 206.6l-1.9 11 5.5 1.9v1.8h-9.1l-1.9-14.7z"/><path fill="#754C28" d="M146.6 204.7l-3.4 6.8h13.7l-3.5-6.8z"/><g><path fill="#EFD3BF" d="M92.4 147.5s2-1.2 3.2.8l1.2 2s2.3 4-1.7 6.3-6.3-1.7-6.3-1.7l-1.2-2s-1.2-2 .8-3.2l4-2.2z"/><path fill="#EFD3BF" d="M99.7 147.3s-2-1.2-3.2.8l-1.2 2s-1.2 2 .8 3.2l3.6-6zM93 148.4c.2.6.9.9 1.5.7.6-.2.9-.9.7-1.5l-1.5-4.5c-.2-.6-.9-.9-1.5-.7-.6.2-.9.9-.7 1.5l1.5 4.5zM92.4 147.1c.3.6.1 1.3-.4 1.6-.6.3-1.3.1-1.6-.4l-2.4-4.1c-.3-.6-.1-1.3.4-1.6.6-.3 1.3-.1 1.6.4l2.4 4.1zM90.6 149.3c.3.6.1 1.3-.4 1.6-.6.3-1.3.1-1.6-.4l-2.4-4.1c-.3-.6-.1-1.3.4-1.6.6-.3 1.3-.1 1.6.4l2.4 4.1z"/><path fill="#EFD3BF" d="M89.5 151.7c.4.5.3 1.3-.2 1.7-.5.4-1.3.3-1.7-.2l-2.9-3.7c-.4-.5-.3-1.3.2-1.7.5-.4 1.3-.3 1.7.2l2.9 3.7zM164.7 131.9s-2.3-.4-2.7 1.9l-.4 2.3s-.8 4.6 3.8 5.3c4.6.8 5.3-3.8 5.3-3.8l.4-2.3s.4-2.3-1.9-2.7l-4.5-.7z"/><path fill="#EFD3BF" d="M157.8 134.3s1.5-1.8 3.3-.3l1.8 1.5s1.8 1.5.3 3.3l-5.4-4.5zM164.5 132.9c0 .7-.5 1.2-1.1 1.2-.7 0-1.2-.5-1.2-1.1l-.1-4.7c0-.7.5-1.2 1.1-1.2.7 0 1.2.5 1.2 1.1l.1 4.7zM164.6 131.5c-.1.6.3 1.3 1 1.4.6.1 1.3-.3 1.4-1l.8-4.7c.1-.6-.3-1.3-1-1.4-.6-.1-1.3.3-1.4 1l-.8 4.7zM167 133c-.1.6.3 1.3 1 1.4.6.1 1.3-.3 1.4-1l.8-4.7c.1-.6-.3-1.3-1-1.4-.6-.1-1.3.3-1.4 1l-.8 4.7z"/><path fill="#EFD3BF" d="M168.9 134.8c-.2.6.1 1.3.8 1.5.6.2 1.3-.2 1.5-.8l1.4-4.5c.2-.6-.2-1.3-.8-1.5-.6-.2-1.3.2-1.5.8l-1.4 4.5z"/><path fill="#207278" d="M139.8 169.2h-.2l.1-4.6v2.3-2.3c.1 0 13.9.1 20.5-7.8 3.3-4 4.4-9.5 3.1-16.3l4.5-.8c1.6 8.2.2 15-4.1 20.1-7.8 9.1-22.1 9.4-23.9 9.4z"/><path fill="#1F6163" d="M161.79 139.229l8.5-.053.027 4.5-8.5.053z"/><path fill="#F79542" d="M161.8 139.217l8.5-.032.004 1.2-8.5.032z"/><path fill="#207278" d="M119.2 190.7l.6 3.2s1.2 6.5 17.9 3.4c16.8-3 15.6-9.5 15.6-9.5l-.6-3.2-33.5 6.1z"/><path fill="#207278" d="M113.98 161.493l33.557-6.066 5.8 32.082-33.558 6.066z"/><path fill="#445A5E" d="M149.1 140.7c-5.7.4.6-23.6-22.2-21l-5.9 1.1c-16.8 4.9-7.9 25.9-13.4 27.5-5.5 1.6-11.1-10.4-8.9 1.6 2.2 12 13.6 11.4 13.6 11.4l18.5-3.3 18.5-3.3s8.4-3.1 6.2-15c-2.3-12.2-.7.5-6.4 1"/><path fill="#EFD3BF" d="M116.6 158.6c.4 2.1-.7 4.1-2.4 4.4-1.7.3-3.4-1.2-3.8-3.3-.4-2.1.7-4.1 2.4-4.4 1.7-.3 3.4 1.2 3.8 3.3zM150.3 152.5c.4 2.1-.7 4.1-2.4 4.4-1.7.3-3.4-1.2-3.8-3.3-.4-2.1.7-4.1 2.4-4.4 1.8-.3 3.4 1.2 3.8 3.3z"/><path fill="#754C28" d="M117.239 179.83l33.557-6.067 1.886 10.431-33.558 6.067z"/><path fill="#EFD3BF" d="M132.9 170.5c15.2-2.7 15-12.3 14.6-14.9l-.1-.7-.8-4.2s-2.1-10.4-18.7-7.4c-16.5 3-14.9 13.5-14.9 13.5l.8 4.2.1.7c.7 2.5 3.8 11.5 19 8.8"/><path fill="#333" d="M143.8 152.3c.5 2.9-1.4 5.7-4.3 6.2s-5.7-1.4-6.2-4.3 1.4-5.7 4.3-6.2 5.7 1.4 6.2 4.3"/><path fill="#333" d="M129.08 148.795l.689-.983 16.873 11.818-.688.983z"/><path fill="#404041" d="M112.8 154.8v-.2c-.1 0-.1.1 0 .2M146.2 148.6v.2c.1-.1 0-.2 0-.2"/><path fill="#57ACCD" d="M112.9 155.8s6.4-3.1 16.4-4.9c10-1.8 17.1-1.1 17.1-1.1s-1.3-9.6-18.5-6.5c-17.2 3-15 12.5-15 12.5"/><path fill="#333" d="M126.6 155.9c.2.9-.4 1.7-1.3 1.9s-1.7-.4-1.9-1.3c-.2-.9.4-1.7 1.3-1.9.9-.2 1.8.4 1.9 1.3"/><path fill="#593B23" d="M136.8 181.7c.1.8-.4 1.6-1.2 1.7-.8.1-1.6-.4-1.7-1.2-.1-.8.4-1.6 1.2-1.7.7-.1 1.5.4 1.7 1.2zM144.2 180.4c.1.8-.4 1.6-1.2 1.7-.8.1-1.6-.4-1.7-1.2-.1-.8.4-1.6 1.2-1.7.8-.2 1.6.4 1.7 1.2zM149.5 179.4c.1.8-.4 1.6-1.2 1.7-.8.1-1.6-.4-1.7-1.2-.1-.8.4-1.6 1.2-1.7.7-.1 1.5.4 1.7 1.2z"/><g><path fill="#593B23" d="M127.1 183.5c.1.8-.4 1.6-1.2 1.7-.8.1-1.6-.4-1.7-1.2-.1-.8.4-1.6 1.2-1.7.7-.2 1.5.4 1.7 1.2z"/></g><g><path fill="#F79542" d="M133.3 189.1c-2 0-3.8-1.4-4.2-3.5l-.9-4.9c-.4-2.3 1.1-4.5 3.4-4.9l4.9-.9c1.1-.2 2.2 0 3.2.7.9.6 1.6 1.6 1.8 2.7l.9 4.9c.4 2.3-1.1 4.5-3.4 4.9l-4.9.9c-.3.1-.5.1-.8.1zm4-11.5h-.3l-4.9.9c-.8.1-1.3.9-1.1 1.7l.9 4.9c.1.8.9 1.3 1.7 1.1l4.9-.9c.8-.1 1.3-.9 1.1-1.6l-.9-4.9c-.1-.4-.3-.7-.6-.9-.2-.2-.5-.3-.8-.3z"/></g><g><path fill="#333" d="M142.4 161.9s-4.5-5.2-9-2c-5.3-1.4-7.7 5-7.7 5-8 1.4-12.6-8.5-12.9-10.1l2.2 12c1.5 8.5 12.3 6.8 12.3 6.8l9.1 2.7 7.6-5.7s6-1.3 4.5-9.8l-2.2-12c.3 1.6 4.1 11.7-3.9 13.1m-8.1 3.3c-5.8 1.2-6.6-.6-6.6-.6 3.4.2 6-2.9 6-2.9s3.5 2 6.6.6c0 0-.1 2-6 2.9"/></g><g><path fill="#E6E7E8" d="M128.46 182.104l6.3-1.138.372 2.067-6.298 1.138z"/></g><g><path fill="#E1AF8D" d="M136.1 158.7c.1.6-1.2 1.4-3 1.7-1.8.3-3.3.1-3.4-.5-.1-.6 1.2-1.4 3-1.7 1.8-.4 3.3-.2 3.4.5z"/></g><g><path fill="#207278" d="M113.2 176.2c-2 0-4.5-.4-7.1-1.6-5.9-2.7-10.3-8.8-13.3-18l4.3-1.4c2.5 7.9 6.2 13 10.9 15.2 4.7 2.2 8.8.6 8.9.6l1.7 4.2c-.1.2-2.3 1-5.4 1z"/></g><g><path fill="#1F6163" d="M90.156 156.928l7.7-3.6 1.906 4.077-7.7 3.6z"/><path fill="#F79542" d="M90.135 156.863l7.704-3.592.507 1.088-7.704 3.592z"/></g><g><path fill="#333" d="M121 149.9l-1.4-.7c.6-1.3 2.8-3.3 6.6-1.9l-.5 1.4c-3.3-1.2-4.5 1-4.7 1.2z"/></g><g><path fill="#333" d="M134.7 147.6l-1.4-.7c.6-1.3 2.8-3.3 6.6-1.9l-.5 1.4c-3.4-1.2-4.7 1.1-4.7 1.2z"/></g><g><path fill="#333" d="M130.5 134.3l-.4-10.9c0-.2-.1-.4-.3-.6-.2-.1-.4-.2-.6-.2l-5.5.9c-.2 0-.4.2-.5.3-.1.2-.1.4-.1.6l3.1 10.5c.1.3.4.5.7.5h.1l2.7-.4c.5 0 .8-.4.8-.7zM131.7 138.8c-.2-1.2-1.4-2.1-2.6-1.9-1.2.2-2.1 1.4-1.9 2.6.2 1.1 1.1 1.9 2.3 1.9h.4c1.1-.2 2-1.4 1.8-2.6z"/></g><g><path fill="#E4F1DE" d="M130.5 133.5l-.4-10.9c0-.2-.1-.4-.3-.6-.2-.1-.4-.2-.6-.2l-5.5.9c-.2 0-.4.2-.5.3-.1.2-.1.4-.1.6l3.1 10.5c.1.3.4.5.7.5h.1l2.7-.4c.5 0 .8-.3.8-.7zM131.7 138c-.2-1.2-1.4-2.1-2.6-1.9-1.2.2-2.1 1.4-1.9 2.6.2 1.1 1.1 1.9 2.3 1.9h.4c1.1-.2 2-1.3 1.8-2.6z"/></g></g><g><path fill="#DDD5C9" d="M200.3 167.4s6.5 3.6 2.9 10.2L164 155.8s3.6-6.5 10.2-2.9l26.1 14.5z"/><path fill="#ECE3D6" d="M164.1 155.7s3.6-6.5 10.2-2.9l26.1 14.5s-6.5-3.6-10.2 2.9l-16.3 29.4s-3.6 6.5-10.2 2.9L137.6 188s6.5 3.6 10.2-2.9l16.3-29.4z"/><path fill="#DDD5C9" d="M163.7 202.5s-3.3-1.8-1.4-5.1l-26.1-14.5s-1.8 3.3 1.4 5.1l26.1 14.5z"/><path fill="#754C28" d="M171.5 198.9l-22.9-13 16.7-29.4 22.9 13-16.7 29.4zm-22.4-13.2l22.2 12.6 16.3-28.7-22.2-12.6-16.3 28.7z"/><path fill="#B79E8A" d="M176.3 180.5s.7-2-1.7-3.6-4.4-2.4-5-7.1c-.5-4.7-6.2-3.8-7.9.9-1.7 4.7-.4 5.2-2.5 8.9-2.1 3.8 3.3 9.5 8.6 7.7 5.2-2 7.4.4 8.5-6.8zM170.5 166.8s1.5 2.6 3.9 1.9c2.4-.8 1.2-4.1-1.4-5.6-2.5-1.5-3.8.4-2.5 3.7zM159.7 188.3s0-1-1.9-2.1c-1.8-1.1-2 .4-.8 1.7 1.3 1.3 2.9 1.7 2.7.4z"/><path fill="#A3846F" d="M170.8 164.1s.1 4.8 2.9 3.8c2.9-1.1-2-5.8-2.9-3.8z"/><path fill="#B79E8A" d="M166.8 161s-2.9 1.6-1.2 2.6 2.7-2.8 1.2-2.6z"/><path fill="#95D2E5" d="M165.7 182.4s3.4-2.2-.9-4.7c-4.5-2.6-4.7 7.8.9 4.7z"/><path fill="#7ABDCC" d="M165.6 181.5s2.1-2.2-1.5-3.3c-3.7-1-2 6.6 1.5 3.3z"/><path fill="#3B2314" d="M165.604 170.428l.482-.133.98 3.568-.481.132z"/><path fill="#3B2314" d="M164.504 172.391l3.568-.978.132.482-3.568.979z"/><path fill="#95D2E5" d="M183.8 171.6c-.4.7-1.2.9-1.9.5s-.9-1.2-.5-1.9 1.2-.9 1.9-.5c.6.4.8 1.2.5 1.9z"/><path fill="#B79E8A" d="M184.2 171.8l-1.4-1.3-.5.8z"/><path fill="#B79E8A" d="M181 170l1.3 1.3.5-.8z"/><path fill="#754C28" d="M182 173.3c-.2-.1-.5-.1-.7-.3-1.2-.7-1.6-2.2-.9-3.4.7-1.2 2.2-1.6 3.4-.9.6.3 1 .9 1.2 1.5.2.6.1 1.3-.2 1.9-.6 1-1.7 1.4-2.8 1.2zm1-4.5c-.9-.2-1.8.2-2.3 1-.6 1-.2 2.3.8 2.9 1 .6 2.3.2 2.9-.8.3-.5.4-1.1.2-1.6s-.5-1-1-1.3c-.2-.1-.4-.1-.6-.2z"/><path fill="#CE4424" d="M183.5 169.3l-1.3 1.4.7.4z"/><path fill="#F4E9DF" d="M181.6 172.5l1.3-1.4-.7-.4z"/><g><path fill="#A3846F" d="M167.1 191.4s-.4.8.3 1.2c.8.5 1.6.9 1.6.9l.7-.6-2.6-1.5z"/><path fill="#B79E8A" d="M170.1 190.3s-1.4-.1-2.1 1.2l1.3.7c0 .1 0-1 .8-1.9z"/><path fill="#A3846F" d="M167.1 191.4l-.2-.9.5 1z"/></g><g><path fill="#A3846F" d="M172.6 178.2s-.9-1.4-2.1.7c-1.2 2.1-.4 1.1-.9 1.5-.5.3-.4 1.3 2 .7 2.4-.6 4.8.3 1-2.9z"/></g><g><path fill="#3B2314" d="M167.6 189s0-.3.1-.7h.5c0 .4-.1.7-.1.7h-.5zM167.6 186.9c-.1-.5-.3-.9-.5-1.2l.4-.3c.3.4.6.9.7 1.5h-.6zm-4.8-1.3c-.5-.1-.9-.3-1.3-.7l.3-.4c.3.3.7.5 1.1.6h.1l-.1.5h-.1zm1.7-.1l-.2-.5c.6-.2 1.1-.3 1.6-.3v.5c-.4 0-.9.1-1.4.3zm-4-1.9c-.2-.4-.4-.9-.5-1.5l.5-.1c.1.5.2 1 .4 1.4l-.4.2zm-.6-3c0-.4.1-.9.2-1.3v-.2l.5.1v.2c-.1.4-.1.8-.1 1.2h-.6zm1.2-2.8l-.5-.2c.2-.5.5-.9.9-1.3l.4.3c-.3.4-.6.8-.8 1.2zm1.8-2.2l-.3-.4c.5-.4.8-.7 1.2-.9l.3.4c-.3.2-.7.5-1.2.9zM165.3 173.7l-.3-.4c.2-.2.3-.3.4-.3.1-.1.3-.2.4 0 .1.1 0 .3-.5.7z"/></g><g><path fill="#6FB0BF" d="M175.9 174.6h-.1c-.4-.2-.7-.6-.9-1.3-.2-.6-.5-1-.8-1.2-.5-.2-.9.1-.9.1l-.1-.1s.5-.4 1.1-.2c.4.2.7.6.9 1.3.2.6.5 1 .8 1.2.5.2.9-.1 1-.1l.1.1c-.1 0-.6.3-1.1.2z"/></g><g><path fill="#6FB0BF" d="M164.5 190.6h-.1c-.4-.2-.7-.6-.9-1.3-.2-.6-.5-1-.8-1.2-.5-.2-.9.1-.9.1l-.1-.1s.6-.4 1.1-.2c.4.2.7.6.9 1.3.2.6.4 1 .8 1.2.5.2.9-.1 1-.1l.1.1c-.2 0-.6.3-1.1.2z"/></g><g><path fill="#6FB0BF" d="M165.2 193.4h-.1c-.4-.2-.7-.6-.9-1.3-.2-.6-.4-1-.8-1.2-.5-.2-.9.1-1 .1l-.1-.1s.5-.4 1.1-.2c.4.2.7.6.9 1.3.2.6.5 1 .8 1.2.5.2.9-.1.9-.1l.1.1c.1 0-.4.3-.9.2z"/></g><g><path fill="#6FB0BF" d="M156.5 183.7h-.1c-.4-.2-.7-.6-.9-1.3-.2-.6-.5-1-.8-1.2-.5-.2-.9.1-.9.1l-.1-.1s.6-.4 1.1-.2c.4.2.7.6.9 1.3.2.6.5 1 .8 1.2.5.2.9-.1.9-.1l.1.1s-.5.3-1 .2z"/></g><g><path fill="#6FB0BF" d="M173.7 191.1h-.1c-.4-.2-.7-.6-.9-1.3-.2-.6-.5-1-.8-1.2-.5-.2-.9.1-.9.1l-.1-.1s.5-.4 1.1-.2c.4.2.7.6.9 1.3.2.6.5 1 .8 1.2.5.2.9-.1.9-.1l.1.1c-.1 0-.5.3-1 .2z"/></g><g><path fill="#6FB0BF" d="M178.5 178.4h-.1c-.4-.2-.7-.6-.9-1.3-.2-.6-.4-1-.8-1.2-.5-.2-.9.1-1 .1l-.1-.1s.5-.4 1.1-.2c.4.2.7.6.9 1.3.2.6.5 1 .8 1.2.5.2.9-.1.9-.1l.1.1s-.4.3-.9.2z"/></g><g><path fill="#6FB0BF" d="M178.8 173.8h-.1c-.4-.2-.7-.6-.9-1.3-.2-.6-.5-1-.8-1.2-.5-.2-.9.1-.9.1l-.1-.1s.5-.4 1.1-.2c.4.2.7.6.9 1.3.2.6.4 1 .8 1.2.5.2.9-.1 1-.1l.1.1c-.2 0-.7.3-1.1.2z"/></g></g></g></svg>