<svg width="18" height="18" viewBox="0 0 18 18" fill="currentColor" xmlns="http://www.w3.org/2000/svg">
<path fill-rule="evenodd" clip-rule="evenodd" d="M14.6205 13.8251C15.9027 12.3584 16.68 10.4393 16.68 8.34005C16.68 3.73697 12.943 0 8.34005 0C3.73697 0 0 3.73697 0 8.34005C0 12.943 3.73697 16.68 8.34005 16.68C10.439 16.68 12.358 15.9029 13.8246 14.6209L17.0376 17.8327C17.143 17.9381 17.2865 17.9986 17.4355 17.9986C17.5846 17.9986 17.728 17.9381 17.8335 17.8327C17.939 17.7272 17.998 17.5852 17.998 17.4361C17.998 17.287 17.939 17.1436 17.8335 17.0381L14.6205 13.8251ZM13.5634 13.3159C14.164 12.6845 14.6474 11.9499 14.9887 11.1473C15.3627 10.2586 15.5554 9.30516 15.5554 8.34047C15.5554 8.33906 15.5554 8.33906 15.5554 8.33906C15.5554 7.37578 15.3627 6.42094 14.9887 5.53359C14.6244 4.67578 14.0985 3.89672 13.4404 3.24C12.7823 2.58047 12.0032 2.05594 11.1468 1.69172C10.258 1.31625 9.30459 1.12359 8.33991 1.125C7.37522 1.12359 6.42178 1.31625 5.53303 1.69172C4.67663 2.05594 3.89756 2.58047 3.23944 3.24C2.58131 3.89672 2.05538 4.67578 1.69256 5.53219C1.31709 6.42094 1.12444 7.37578 1.12444 8.34047C1.12444 9.30375 1.31709 10.2586 1.69256 11.1473C2.05538 12.0038 2.58131 12.7828 3.23944 13.4409C3.89756 14.0991 4.67663 14.625 5.53303 14.9878C6.42178 15.3633 7.37522 15.5559 8.3385 15.5545H8.33991C8.33991 15.5545 8.33991 15.5545 8.34131 15.5545C9.30459 15.5559 10.2594 15.3633 11.1468 14.9878C11.9495 14.6478 12.6841 14.1646 13.3154 13.564C13.3418 13.5111 13.3768 13.4625 13.4193 13.4198C13.4619 13.3772 13.5107 13.3424 13.5634 13.3159Z" fill="currentColor"/>
</svg>
