<svg width="156" height="38" viewBox="0 0 156 38" version="1.1" xmlns="http://www.w3.org/2000/svg" xmlns:xlink="http://www.w3.org/1999/xlink" xmlns:figma="http://www.figma.com/figma/ns">
<title>Group</title>
<desc>Created using Figma</desc>
<g id="Canvas" transform="translate(1381 -594)" figma:type="canvas">
<g id="Group" style="mix-blend-mode:normal;" figma:type="frame">
<g id="Group" style="mix-blend-mode:normal;" figma:type="frame">
<g id="Vector" style="mix-blend-mode:normal;" figma:type="vector">
<use xlink:href="#path0_fill" transform="translate(-1381 594)" fill="#FFFFFF" style="mix-blend-mode:normal;"/>
</g>
<g id="Vector" style="mix-blend-mode:normal;" figma:type="vector">
<use xlink:href="#path1_fill" transform="translate(-1362.54 603.66)" fill="#FFFFFF" style="mix-blend-mode:normal;"/>
</g>
<g id="Vector" style="mix-blend-mode:normal;" figma:type="vector">
<use xlink:href="#path2_fill" transform="translate(-1337.96 603.5)" fill="#FFFFFF" style="mix-blend-mode:normal;"/>
</g>
<g id="Vector" style="mix-blend-mode:normal;" figma:type="vector">
<use xlink:href="#path3_fill" transform="translate(-1316.28 594)" fill="#FFFFFF" style="mix-blend-mode:normal;"/>
</g>
<g id="Vector" style="mix-blend-mode:normal;" figma:type="vector">
<use xlink:href="#path4_fill" transform="translate(-1299.85 603.66)" fill="#FFFFFF" style="mix-blend-mode:normal;"/>
</g>
<g id="Vector" style="mix-blend-mode:normal;" figma:type="vector">
<use xlink:href="#path5_fill" transform="translate(-1273.9 603.5)" fill="#FFFFFF" style="mix-blend-mode:normal;"/>
</g>
<g id="Vector" style="mix-blend-mode:normal;" figma:type="vector">
<use xlink:href="#path6_fill" transform="translate(-1244.52 603.66)" fill="#FFFFFF" style="mix-blend-mode:normal;"/>
</g>
</g>
</g>
</g>
<defs>
<path id="path0_fill" d="M 9.91615 37.1994L 9.91615 9.17978L 0 9.17978L 0 0L 29.643 0L 29.643 9.17978L 19.9378 9.17978L 19.9378 37.1994L 9.91615 37.1994Z"/>
<path id="path1_fill" d="M 0 13.9298C 0 9.71348 1.42413 6.35112 4.21964 3.8427C 7.01515 1.2809 10.6018 0 14.9797 0C 19.1994 0 22.6278 1.33427 25.3178 4.00281C 28.0078 6.61798 29.3265 9.8736 29.3265 13.7697C 29.3265 14.7837 29.2737 15.7978 29.1682 16.7584L 9.75791 16.7584C 9.91615 18.6798 12.2369 19.9073 15.6654 19.9073C 17.9335 19.9073 19.8323 19.2135 21.3619 17.8258L 26.9002 23.1629C 23.63 26.4719 19.7268 28.1264 15.1379 28.1264C 10.6018 28.1264 6.9624 26.8455 4.16689 24.3371C 1.37138 21.7753 0 18.4129 0 14.1966L 0 13.9298ZM 19.6213 10.7809C 19.6213 9.07303 17.5115 7.57865 14.9797 7.57865C 12.2369 7.57865 9.96889 9.01966 9.81066 10.7809L 19.6213 10.7809Z"/>
<path id="path2_fill" d="M 5.16906 17.8258C 7.06789 19.427 9.70517 20.2275 13.1336 20.2275C 15.0852 20.2275 16.0874 20.014 16.0874 18.9466C 16.0874 18.573 15.7182 18.3062 14.927 18.1461C 14.1885 17.9326 13.0809 17.7191 11.5513 17.5056C 10.0216 17.2388 8.75575 16.9185 7.64809 16.5449C 3.90316 15.2107 2.05707 12.809 2.05707 9.33989C 2.05707 6.29775 3.16473 4.00281 5.43278 2.40169C 7.70084 0.800562 10.3381 0 13.4501 0C 16.9313 0 20.2015 0.960674 23.2608 2.88202L 19.4631 9.5C 17.5115 8.37921 15.4017 7.79213 13.1336 7.79213C 11.5513 7.79213 10.7601 8.16573 10.7601 8.91292C 10.7601 9.39326 10.9711 9.66011 11.393 9.82022L 14.3995 10.3539C 15.9291 10.6208 17.5642 10.9944 19.1994 11.5815C 23.1025 12.9157 25.0541 15.3174 25.0541 18.8399C 25.0541 24.8174 20.94 28.5 12.6589 28.5C 7.75358 28.5 3.53395 27.1657 0 24.4438L 5.16906 17.8258Z"/>
<path id="path3_fill" d="M 3.63944 18.8933L 0 18.8933L 0 10.3006L 3.63944 10.3006L 3.63944 0L 13.3973 0L 13.3973 10.3006L 18.8829 10.3006L 18.8829 18.8933L 13.3973 18.8933L 13.3973 26.2051C 13.3973 28.3399 14.2413 29.2472 16.2983 29.2472C 16.7731 29.2472 17.406 29.1938 18.0917 29.0337L 18.0917 37.4129C 16.8785 37.6798 15.4017 37.8399 13.5556 37.8399C 6.9624 37.8399 3.63944 34.4242 3.63944 27.5927L 3.63944 18.8933Z"/>
<path id="path4_fill" d="M -1.28773e-06 13.9298C -1.28773e-06 9.71348 1.42413 6.35112 4.21964 3.8427C 7.01515 1.2809 10.6018 0 14.9797 0C 19.1993 0 22.6278 1.33427 25.3178 4.00281C 28.0078 6.61798 29.3265 9.8736 29.3265 13.7697C 29.3265 14.7837 29.2737 15.7978 29.1682 16.7584L 9.75791 16.7584C 9.91615 18.6798 12.2369 19.9073 15.6654 19.9073C 17.9335 19.9073 19.8323 19.2135 21.3619 17.8258L 26.9002 23.1629C 23.63 26.4719 19.7268 28.1264 15.1379 28.1264C 10.6018 28.1264 6.9624 26.8455 4.16689 24.3371C 1.37138 21.7753 -1.28773e-06 18.4129 -1.28773e-06 14.1966L -1.28773e-06 13.9298ZM 19.6213 10.7809C 19.6213 9.07303 17.5115 7.57865 14.9797 7.57865C 12.2369 7.57865 9.96889 9.01966 9.81065 10.7809L 19.6213 10.7809Z"/>
<path id="path5_fill" d="M 25.7398 4.21629C 28.6935 6.99157 30.1704 10.3539 30.1704 14.25C 30.1704 18.1461 28.6935 21.5084 25.7398 24.3371C 22.786 27.1124 19.2521 28.5 15.0852 28.5C 10.9183 28.5 7.33163 27.1124 4.37788 24.3371C 1.47688 21.5084 -1.28773e-06 18.1461 -1.28773e-06 14.25C -1.28773e-06 10.3539 1.47688 6.99157 4.37788 4.21629C 7.33163 1.38764 10.9183 0 15.0852 0C 19.2521 0 22.786 1.38764 25.7398 4.21629ZM 18.9356 17.9326C 20.0433 16.9185 20.5707 15.691 20.5707 14.25C 20.5707 12.809 20.0433 11.5815 18.9356 10.5674C 17.828 9.55337 16.5621 9.01966 15.0852 9.01966C 12.0787 9.01966 9.59968 11.4213 9.59968 14.25C 9.59968 17.0787 12.0787 19.4803 15.0852 19.4803C 16.5621 19.4803 17.828 18.9466 18.9356 17.9326Z"/>
<path id="path6_fill" d="M 5.15092e-06 27.5393L 5.15092e-06 0.640449L 9.75792 0.640449L 9.75792 3.94944C 11.2875 1.33427 13.8193 0 17.2478 0C 17.828 0 19.2521 0.160112 19.5158 0.160112L 19.5158 9.1264C 18.6192 8.96629 17.7752 8.85955 16.8786 8.85955C 12.237 8.85955 9.75792 11.3146 9.75792 15.5843L 9.75792 27.5393L 5.15092e-06 27.5393Z"/>
</defs>
</svg>
