<?xml version="1.0" encoding="utf-8"?>
<svg version="1.1" id="Layer_1" xmlns="http://www.w3.org/2000/svg" xmlns:xlink="http://www.w3.org/1999/xlink" x="0px" y="0px"
	 width="28px" height="20px" viewBox="0 0 136.689 110" enable-background="new 0 0 136.689 110" xml:space="preserve">
<g>
	<g>
		<path fill="#333333" d="M9.282,86.005c0,0,0-3.11,3.107-3.11h111.909c0,0,3.11,0,3.11,3.11v12.435c0,0,0,3.106-3.11,3.106H12.39
			c0,0-3.107,0-3.107-3.106V86.005z"/>
	</g>
	<g>
		<path fill="#333333" d="M9.282,48.703c0,0,0-3.11,3.107-3.11h111.909c0,0,3.11,0,3.11,3.11v12.433c0,0,0,3.108-3.11,3.108H12.39
			c0,0-3.107,0-3.107-3.108V48.703z"/>
	</g>
	<g>
		<path fill="#333333" d="M9.282,11.398c0,0,0-3.108,3.107-3.108h111.909c0,0,3.11,0,3.11,3.108v12.435c0,0,0,3.108-3.11,3.108
			H12.39c0,0-3.107,0-3.107-3.108V11.398z"/>
	</g>
</g>
</svg>
