<?xml version="1.0" standalone="no"?>
<!DOCTYPE svg PUBLIC "-//W3C//DTD SVG 20010904//EN"
 "http://www.w3.org/TR/2001/REC-SVG-20010904/DTD/svg10.dtd">
<svg version="1.0" xmlns="http://www.w3.org/2000/svg"
 width="700.000000pt" height="700.000000pt" viewBox="0 0 700.000000 700.000000"
 preserveAspectRatio="xMidYMid meet">
<metadata>
Created by potrace 1.11, written by Peter Selinger 2001-2013
</metadata>
<g transform="translate(0.000000,700.000000) scale(0.100000,-0.100000)"
fill="#000000" stroke="none">
<path d="M905 5576 c-124 -39 -211 -125 -270 -266 -15 -36 -51 -101 -81 -146
-101 -152 -174 -345 -174 -460 0 -117 48 -237 129 -326 29 -32 56 -58 60 -58
3 0 6 30 7 68 1 68 38 227 56 238 22 14 91 4 140 -21 67 -33 177 -118 245
-187 42 -43 69 -88 140 -233 323 -665 594 -1074 943 -1426 201 -202 373 -329
560 -410 204 -88 424 -115 610 -74 23 5 38 -1 76 -30 213 -163 448 -129 691
99 l53 49 126 -119 c402 -380 603 -524 794 -569 63 -16 90 -29 175 -90 257
-186 415 -261 433 -207 9 28 -206 207 -475 396 -46 31 -83 59 -83 61 0 2 60
-36 133 -84 364 -243 655 -384 818 -398 75 -6 110 0 133 23 25 24 19 51 -20
94 -64 70 -189 152 -427 276 -78 41 -133 73 -122 70 11 -3 54 -14 95 -25 41
-10 106 -33 144 -50 82 -38 223 -88 282 -101 117 -26 214 -7 214 42 0 30 -72
96 -155 141 -49 27 -61 36 -40 33 111 -20 171 -26 203 -21 63 11 92 26 98 52
25 99 -387 274 -1184 504 -139 40 -247 76 -240 79 7 4 65 17 128 29 149 29
345 81 490 129 118 40 290 108 302 120 4 4 -42 27 -103 51 -60 25 -109 48
-109 51 0 4 26 10 59 13 120 13 295 82 408 163 80 56 182 164 244 257 32 49
59 94 59 101 0 7 -54 34 -120 61 l-121 48 52 28 c157 86 334 306 484 601 36
70 65 129 65 132 0 4 -22 -5 -49 -19 -151 -76 -394 -155 -620 -200 -69 -14
-137 -28 -150 -31 -19 -4 -7 11 47 61 88 82 152 166 205 270 69 137 108 285
76 285 -21 0 -234 22 -237 25 -1 1 14 19 35 41 87 93 167 248 228 444 35 114
89 368 83 395 -2 13 -22 0 -83 -52 -739 -636 -1553 -1027 -2409 -1158 -410
-62 -814 -68 -1156 -15 l-125 19 -180 181 c-257 260 -609 583 -825 757 -104
83 -264 187 -355 229 -146 67 -310 92 -410 60z m415 -235 c222 -86 437 -295
628 -611 l21 -36 -117 14 c-159 19 -537 21 -622 4 -87 -18 -155 -49 -183 -82
l-23 -27 -24 91 c-39 155 -106 305 -145 328 -8 5 -11 23 -7 53 5 44 3 47 -43
92 l-49 46 40 33 c52 44 138 90 205 109 78 22 246 14 319 -14z m567 -1338
c477 -581 1000 -932 1533 -1030 128 -23 385 -23 489 1 41 9 77 18 79 21 7 6
-39 76 -77 118 -37 42 -98 86 -172 127 l-46 25 96 0 c223 2 419 107 558 302
l45 64 102 -8 c123 -10 434 -10 534 0 l73 7 -18 -32 c-10 -17 -61 -75 -113
-128 -96 -98 -177 -155 -277 -196 -30 -12 -55 -25 -56 -28 -1 -4 40 -31 91
-60 l93 -53 -53 -40 c-151 -113 -301 -176 -438 -186 -33 -2 -25 -8 109 -84
l144 -81 -49 -8 c-27 -4 -128 -4 -224 -1 -1001 35 -1824 405 -2294 1031 -100
132 -228 336 -213 336 2 0 40 -44 84 -97z"/>
<path d="M1223 5269 c-12 -4 -26 -17 -32 -28 -42 -77 60 -140 112 -69 17 23
18 31 8 57 -15 34 -55 52 -88 40z"/>
</g>
</svg>
