<svg viewBox="0 0 256 256" fill="none" xmlns="http://www.w3.org/2000/svg">
<circle cx="128" cy="128" r="127.5" fill="#2E2F31" stroke="#252728"/>
<mask id="mask0" mask-type="alpha" maskUnits="userSpaceOnUse" x="0" y="0" width="256" height="256">
<circle cx="128" cy="128" r="127.5" fill="#2E2F31" stroke="#252728"/>
</mask>
<g mask="url(#mask0)">
<path d="M101 148H7.79123L-59 215H34.7071L101 148Z" fill="#E30D13"/>
<path d="M-187 328.563V406L69 149.126V61L-185.98 316.623L-187 328.563Z" stroke="#95D4E7" stroke-miterlimit="10"/>
<path opacity="0.61" d="M269.013 -52.8L96.1164 120L1.2112 120L-50 68.8174L277 -258L277 -59.3739L269.013 -52.8Z" fill="url(#paint0_linear)"/>
<path opacity="0.3" d="M350 75H226.6L-82 384H41.3998L350 75Z" fill="#412578"/>
<path d="M456.53 -36.7822L222.297 197.451V-36.7822L456.53 -271.016V-36.7822Z" fill="url(#paint1_linear)" stroke="#93D7EA" stroke-width="1.2122" stroke-miterlimit="10" stroke-linecap="round" stroke-linejoin="round"/>
<path opacity="0.8" d="M134.234 -36.7812H221.848V197.452H134.234V-36.7812Z" fill="url(#paint2_linear)" stroke="#93D7EA" stroke-width="0.75" stroke-miterlimit="10" stroke-linecap="round" stroke-linejoin="round"/>
<path d="M138.258 197.004C138.258 198.792 136.917 200.133 135.129 200.133C133.341 200.133 132 198.792 132 197.004C132 195.216 133.341 193.875 135.129 193.875C136.917 193.875 138.258 195.216 138.258 197.004Z" fill="white"/>
<path d="M224.977 197.004C224.977 198.792 223.636 200.133 221.848 200.133C220.06 200.133 218.719 198.792 218.719 197.004C218.719 195.216 220.06 193.875 221.848 193.875C223.189 193.875 224.977 195.216 224.977 197.004Z" fill="white"/>
<path opacity="0.27" d="M110 454.872L330 234V328.964L203.466 456L110 454.872Z" fill="url(#paint3_linear)"/>
</g>
<defs>
<linearGradient id="paint0_linear" x1="-4.53486" y1="122.694" x2="267.892" y2="-149.885" gradientUnits="userSpaceOnUse">
<stop stop-color="#49BABB" stop-opacity="0.9"/>
<stop offset="0.2113" stop-color="#4BB7B9" stop-opacity="0.9211"/>
<stop offset="0.3934" stop-color="#51ACB3" stop-opacity="0.9393"/>
<stop offset="0.5647" stop-color="#5B9AA9" stop-opacity="0.9565"/>
<stop offset="0.7295" stop-color="#68819B" stop-opacity="0.9729"/>
<stop offset="0.8881" stop-color="#7A6189" stop-opacity="0.9888"/>
<stop offset="1" stop-color="#89467A"/>
</linearGradient>
<linearGradient id="paint1_linear" x1="210.172" y1="251.408" x2="446.047" y2="-275.651" gradientUnits="userSpaceOnUse">
<stop stop-color="#160F4A" stop-opacity="0"/>
<stop offset="1" stop-color="#0DB3B1"/>
</linearGradient>
<linearGradient id="paint2_linear" x1="194.202" y1="61.5892" x2="13.6345" y2="271.439" gradientUnits="userSpaceOnUse">
<stop stop-color="#412D79"/>
<stop offset="1" stop-color="#1988BE"/>
</linearGradient>
<linearGradient id="paint3_linear" x1="216.046" y1="442.127" x2="231.837" y2="241.587" gradientUnits="userSpaceOnUse">
<stop stop-color="#9EE0E0" stop-opacity="0.9"/>
<stop offset="0.0690068" stop-color="#87D9D8" stop-opacity="0.9069"/>
<stop offset="0.1999" stop-color="#62CDCC" stop-opacity="0.92"/>
<stop offset="0.3369" stop-color="#43C4C2" stop-opacity="0.9337"/>
<stop offset="0.4797" stop-color="#2BBCBB" stop-opacity="0.948"/>
<stop offset="0.6307" stop-color="#1BB7B5" stop-opacity="0.9631"/>
<stop offset="0.7955" stop-color="#10B4B2" stop-opacity="0.9796"/>
<stop offset="1" stop-color="#0DB3B1"/>
</linearGradient>
</defs>
</svg>
