<svg viewBox="0 0 256 256" fill="none" xmlns="http://www.w3.org/2000/svg">
<circle cx="128" cy="128" r="127.5" fill="#2E2F31" stroke="#252728"/>
<mask id="mask0" mask-type="alpha" maskUnits="userSpaceOnUse" x="0" y="0" width="256" height="256">
<circle cx="128" cy="128" r="127.5" fill="#2E2F31" stroke="#252728"/>
</mask>
<g mask="url(#mask0)">
<path opacity="0.3" d="M289 245.332H241.883L124 363.332H171.117L289 245.332Z" fill="#412578"/>
<path opacity="0.3" d="M256 102H31.1952L-531 664H-306.195L256 102Z" fill="#412578"/>
<path d="M181.065 54.1238L85.0391 150.15V54.1238L181.065 -41.9023V54.1238Z" fill="url(#paint0_linear)" stroke="#93D7EA" stroke-width="1.2122" stroke-miterlimit="10" stroke-linecap="round" stroke-linejoin="round"/>
<path d="M84.8556 54.1238H48.9375L144.964 -41.9023H180.882L84.8556 54.1238Z" fill="url(#paint1_linear)" stroke="#93D7EA" stroke-width="1.2122" stroke-miterlimit="10" stroke-linecap="round" stroke-linejoin="round"/>
<path opacity="0.8" d="M48.9375 54.125H84.8556V150.151H48.9375V54.125Z" fill="url(#paint2_linear)" stroke="#93D7EA" stroke-width="0.75" stroke-miterlimit="10" stroke-linecap="round" stroke-linejoin="round"/>
<path d="M50.5851 54.1266C50.5851 54.8596 50.0353 55.4094 49.3023 55.4094C48.5693 55.4094 48.0195 54.8596 48.0195 54.1266C48.0195 53.3935 48.5693 52.8438 49.3023 52.8438C50.0353 52.8438 50.5851 53.3935 50.5851 54.1266Z" fill="white"/>
<path d="M86.1359 54.1266C86.1359 54.8596 85.5861 55.4094 84.8531 55.4094C84.12 55.4094 83.5703 54.8596 83.5703 54.1266C83.5703 53.3935 84.12 52.8438 84.8531 52.8438C85.4028 52.8438 86.1359 53.3935 86.1359 54.1266Z" fill="white"/>
<path d="M50.5851 149.97C50.5851 150.703 50.0353 151.253 49.3023 151.253C48.5693 151.253 48.0195 150.703 48.0195 149.97C48.0195 149.237 48.5693 148.688 49.3023 148.688C50.0353 148.688 50.5851 149.237 50.5851 149.97Z" fill="white"/>
<path d="M86.1359 149.97C86.1359 150.703 85.5861 151.253 84.8531 151.253C84.12 151.253 83.5703 150.703 83.5703 149.97C83.5703 149.237 84.12 148.688 84.8531 148.688C85.4028 148.688 86.1359 149.237 86.1359 149.97Z" fill="white"/>
<path d="M182.898 54.1266C182.898 54.8596 182.348 55.4094 181.615 55.4094C180.882 55.4094 180.332 54.8596 180.332 54.1266C180.332 53.3935 180.882 52.8438 181.615 52.8438C182.348 52.8438 182.898 53.3935 182.898 54.1266Z" fill="white"/>
<path opacity="0.8" d="M117 177.839V340L280 167.418V8L117 177.839Z" fill="url(#paint3_linear)"/>
<path d="M-246 415.884L148.111 22H167L-230.228 419L-246 415.884Z" fill="url(#paint4_linear)"/>
</g>
<defs>
<linearGradient id="paint0_linear" x1="80.0682" y1="172.27" x2="176.768" y2="-43.8025" gradientUnits="userSpaceOnUse">
<stop stop-color="#160F4A" stop-opacity="0"/>
<stop offset="1" stop-color="#0DB3B1"/>
</linearGradient>
<linearGradient id="paint1_linear" x1="14.2475" y1="51.6337" x2="158.776" y2="-13.7264" gradientUnits="userSpaceOnUse">
<stop stop-color="white" stop-opacity="0"/>
<stop offset="1" stop-color="#0DB3B1"/>
</linearGradient>
<linearGradient id="paint2_linear" x1="73.5216" y1="94.4529" x2="-0.503529" y2="180.483" gradientUnits="userSpaceOnUse">
<stop stop-color="#412D79"/>
<stop offset="1" stop-color="#1988BE"/>
</linearGradient>
<linearGradient id="paint3_linear" x1="198.47" y1="7.95557" x2="198.47" y2="340" gradientUnits="userSpaceOnUse">
<stop offset="0.00124199" stop-color="#F9B000" stop-opacity="0.7"/>
<stop offset="0.2564" stop-color="#F59C05" stop-opacity="0.7766"/>
<stop offset="0.7738" stop-color="#EC6A12" stop-opacity="0.932"/>
<stop offset="1" stop-color="#E85218"/>
</linearGradient>
<linearGradient id="paint4_linear" x1="-246.066" y1="220.57" x2="166.983" y2="220.57" gradientUnits="userSpaceOnUse">
<stop offset="0.00124199" stop-color="#E30D13" stop-opacity="0.7"/>
<stop offset="0.147" stop-color="#E52123" stop-opacity="0.7438"/>
<stop offset="0.4444" stop-color="#E8534D" stop-opacity="0.8331"/>
<stop offset="0.8632" stop-color="#EEA48F" stop-opacity="0.9589"/>
<stop offset="1" stop-color="#F0C0A6"/>
</linearGradient>
</defs>
</svg>
