<svg viewBox="0 0 256 256" fill="none" xmlns="http://www.w3.org/2000/svg">
<circle cx="128" cy="128" r="127.5" fill="#2E2F31" stroke="#252728"/>
<mask id="mask0" mask-type="alpha" maskUnits="userSpaceOnUse" x="0" y="0" width="256" height="256">
<circle cx="128" cy="128" r="127.5" fill="#2E2F31" stroke="#252728"/>
</mask>
<g mask="url(#mask0)">
<path d="M211 74.7834V-80L69 62.1417V216L127.217 157.725L211 74.7834Z" fill="url(#paint0_linear)"/>
<path d="M-192 399.715V540L273 74.649V-85L-190.147 378.085L-192 399.715Z" stroke="#95D4E7" stroke-miterlimit="10"/>
<path opacity="0.27" d="M-41 274.235L318 -85V69.3476L111.483 276L-41 274.235Z" fill="url(#paint1_linear)"/>
<path opacity="0.61" d="M-98.1853 243.657L49.3319 96H130.306L174 139.735L-105 419V249.275L-98.1853 243.657Z" fill="url(#paint2_linear)"/>
<path d="M223 178H106.489L23 262H140.134L223 178Z" fill="#E30D13"/>
</g>
<defs>
<linearGradient id="paint0_linear" x1="159.127" y1="-229.015" x2="131.69" y2="199.756" gradientUnits="userSpaceOnUse">
<stop stop-color="#0DB3B1"/>
<stop offset="0.0800204" stop-color="#11A4AA"/>
<stop offset="0.388" stop-color="#1D6E91"/>
<stop offset="0.6549" stop-color="#26487F"/>
<stop offset="0.8678" stop-color="#2B3074"/>
<stop offset="1" stop-color="#2D2870"/>
</linearGradient>
<linearGradient id="paint1_linear" x1="132.065" y1="253.423" x2="157.663" y2="-72.7407" gradientUnits="userSpaceOnUse">
<stop stop-color="#9EE0E0" stop-opacity="0.9"/>
<stop offset="0.0690068" stop-color="#87D9D8" stop-opacity="0.9069"/>
<stop offset="0.1999" stop-color="#62CDCC" stop-opacity="0.92"/>
<stop offset="0.3369" stop-color="#43C4C2" stop-opacity="0.9337"/>
<stop offset="0.4797" stop-color="#2BBCBB" stop-opacity="0.948"/>
<stop offset="0.6307" stop-color="#1BB7B5" stop-opacity="0.9631"/>
<stop offset="0.7955" stop-color="#10B4B2" stop-opacity="0.9796"/>
<stop offset="1" stop-color="#0DB3B1"/>
</linearGradient>
<linearGradient id="paint2_linear" x1="135.209" y1="93.6977" x2="-97.5795" y2="326.265" gradientUnits="userSpaceOnUse">
<stop stop-color="#49BABB" stop-opacity="0.9"/>
<stop offset="0.2113" stop-color="#4BB7B9" stop-opacity="0.9211"/>
<stop offset="0.3934" stop-color="#51ACB3" stop-opacity="0.9393"/>
<stop offset="0.5647" stop-color="#5B9AA9" stop-opacity="0.9565"/>
<stop offset="0.7295" stop-color="#68819B" stop-opacity="0.9729"/>
<stop offset="0.8881" stop-color="#7A6189" stop-opacity="0.9888"/>
<stop offset="1" stop-color="#89467A"/>
</linearGradient>
</defs>
</svg>
