<svg viewBox="0 0 256 256" fill="none" xmlns="http://www.w3.org/2000/svg">
<circle cx="128" cy="128" r="127.5" fill="#2E2F31" stroke="#252728"/>
<mask id="mask0" mask-type="alpha" maskUnits="userSpaceOnUse" x="0" y="0" width="256" height="256">
<circle cx="128" cy="128" r="127.5" fill="#2E2F31" stroke="#252728"/>
</mask>
<g mask="url(#mask0)">
<path d="M-95 236.667V324.843L197.366 32.3471V-68L-93.8347 223.071L-95 236.667Z" stroke="#95D4E7" stroke-miterlimit="10"/>
<path d="M197.147 36.8779V-28.1211L137.457 31.5692V96.1798L161.929 71.7081L197.147 36.8779Z" fill="url(#paint0_linear)"/>
<g opacity="0.8">
<path opacity="0.8" d="M-10 189.746H77.7458V321.365H-10V189.746Z" fill="url(#paint1_linear)" stroke="#93D7EA" stroke-width="0.75" stroke-miterlimit="10" stroke-linecap="round" stroke-linejoin="round"/>
<path opacity="0.8" d="M77.7461 321.364L165.492 233.619V102L77.7461 189.746V321.364Z" fill="url(#paint2_linear)" stroke="#93D7EA" stroke-width="0.75" stroke-miterlimit="10" stroke-linecap="round" stroke-linejoin="round"/>
<path opacity="0.8" d="M-10 189.746L77.7458 102H165.492L77.7458 189.746H-10Z" fill="url(#paint3_linear)" stroke="#93D7EA" stroke-width="0.75" stroke-miterlimit="10" stroke-linecap="round" stroke-linejoin="round"/>
</g>
<g opacity="0.4">
<path opacity="0.65" d="M130.07 205.723L180.66 155.133H315.413L264.823 205.723H130.07Z" fill="url(#paint4_linear)" stroke="#93D7EA" stroke-width="0.75" stroke-miterlimit="10" stroke-linecap="round" stroke-linejoin="round"/>
<path opacity="0.37" d="M180.199 20.3789H314.952V155.132H180.199V20.3789V20.3789Z" fill="url(#paint5_linear)" stroke="#93D7EA" stroke-width="0.75" stroke-miterlimit="10" stroke-linecap="round" stroke-linejoin="round"/>
<g opacity="0.4">
<g opacity="0.4">
<path opacity="0.78" d="M129.836 205.721L180.426 155.132V20.3789L129.836 70.9686V205.721Z" fill="url(#paint6_linear)" stroke="#93D7EA" stroke-width="1.2122" stroke-miterlimit="10" stroke-linecap="round" stroke-linejoin="round"/>
<path opacity="0.4" d="M129.609 70.9688H264.362V205.721H129.609V70.9688V70.9688Z" fill="url(#paint7_linear)" stroke="#93D7EA" stroke-width="1.2122" stroke-miterlimit="10" stroke-linecap="round" stroke-linejoin="round"/>
<path opacity="0.4" d="M129.609 70.9686L180.199 20.3789H314.952L264.362 70.9686H129.609Z" fill="url(#paint8_linear)" stroke="#93D7EA" stroke-width="1.2122" stroke-miterlimit="10" stroke-linecap="round" stroke-linejoin="round"/>
</g>
<path opacity="0.4" d="M130.758 70.2812H264.821" stroke="url(#paint9_linear)" stroke-width="1.3046" stroke-miterlimit="10" stroke-linecap="round" stroke-linejoin="round"/>
<path opacity="0.4" d="M131.679 70.5076C131.679 71.4274 130.759 72.3472 129.84 72.3472C128.92 72.3472 128 71.4274 128 70.5076C128 69.5878 128.92 68.668 129.84 68.668C130.759 68.668 131.679 69.5878 131.679 70.5076Z" fill="white"/>
<path opacity="0.4" d="M131.679 205.722C131.679 206.642 130.759 207.562 129.84 207.562C128.92 207.562 128 206.642 128 205.722C128 204.803 128.92 203.883 129.84 203.883C130.759 203.883 131.679 204.803 131.679 205.722Z" fill="white"/>
<path opacity="0.4" d="M181.347 20.8397C181.347 21.7595 180.427 22.6793 179.508 22.6793C178.588 22.6793 177.668 21.7595 177.668 20.8397C177.668 19.9199 178.588 19 179.508 19C180.427 19 181.347 19.9199 181.347 20.8397Z" fill="white"/>
</g>
</g>
</g>
<defs>
<linearGradient id="paint0_linear" x1="175.342" y1="-90.6978" x2="163.832" y2="89.3598" gradientUnits="userSpaceOnUse">
<stop stop-color="#0DB3B1"/>
<stop offset="0.0800204" stop-color="#11A4AA"/>
<stop offset="0.388" stop-color="#1D6E91"/>
<stop offset="0.6549" stop-color="#26487F"/>
<stop offset="0.8678" stop-color="#2B3074"/>
<stop offset="1" stop-color="#2D2870"/>
</linearGradient>
<linearGradient id="paint1_linear" x1="65.9787" y1="209.587" x2="-128.898" y2="488.503" gradientUnits="userSpaceOnUse">
<stop stop-color="#F9B000"/>
<stop offset="0.0455285" stop-color="#F69903"/>
<stop offset="0.1341" stop-color="#F17407"/>
<stop offset="0.23" stop-color="#ED540B"/>
<stop offset="0.3333" stop-color="#E93A0E"/>
<stop offset="0.4468" stop-color="#E72610"/>
<stop offset="0.5756" stop-color="#E51812"/>
<stop offset="0.7329" stop-color="#E41013"/>
<stop offset="1" stop-color="#E30D13"/>
</linearGradient>
<linearGradient id="paint2_linear" x1="-63.0646" y1="330.105" x2="239.001" y2="136.441" gradientUnits="userSpaceOnUse">
<stop offset="0.00124199" stop-color="#F9B000" stop-opacity="0.7"/>
<stop offset="0.046714" stop-color="#F69903" stop-opacity="0.7137"/>
<stop offset="0.1351" stop-color="#F17407" stop-opacity="0.7402"/>
<stop offset="0.231" stop-color="#ED540B" stop-opacity="0.769"/>
<stop offset="0.3342" stop-color="#E93A0E" stop-opacity="0.8"/>
<stop offset="0.4475" stop-color="#E72610" stop-opacity="0.834"/>
<stop offset="0.5762" stop-color="#E51812" stop-opacity="0.8727"/>
<stop offset="0.7332" stop-color="#E41013" stop-opacity="0.9199"/>
<stop offset="1" stop-color="#E30D13"/>
</linearGradient>
<linearGradient id="paint3_linear" x1="-226.244" y1="116.711" x2="140.378" y2="152.033" gradientUnits="userSpaceOnUse">
<stop stop-color="#C86128"/>
<stop offset="1" stop-color="#B83626"/>
</linearGradient>
<linearGradient id="paint4_linear" x1="-105.761" y1="148.743" x2="290.557" y2="186.926" gradientUnits="userSpaceOnUse">
<stop stop-color="#412D79"/>
<stop offset="1" stop-color="#1988BE"/>
</linearGradient>
<linearGradient id="paint5_linear" x1="-21.3459" y1="61.8754" x2="303.183" y2="93.1424" gradientUnits="userSpaceOnUse">
<stop stop-color="#412D79"/>
<stop offset="1" stop-color="#1988BE"/>
</linearGradient>
<linearGradient id="paint6_linear" x1="125.126" y1="121.356" x2="196.476" y2="101.552" gradientUnits="userSpaceOnUse">
<stop stop-color="white" stop-opacity="0"/>
<stop offset="1" stop-color="#0DB3B1"/>
</linearGradient>
<linearGradient id="paint7_linear" x1="233.35" y1="99.6511" x2="13.382" y2="334.595" gradientUnits="userSpaceOnUse">
<stop stop-color="white" stop-opacity="0"/>
<stop offset="1" stop-color="#0DB3B1"/>
</linearGradient>
<linearGradient id="paint8_linear" x1="141.244" y1="88.8284" x2="306.031" y2="1.09985" gradientUnits="userSpaceOnUse">
<stop stop-color="white" stop-opacity="0"/>
<stop offset="1" stop-color="#0DB3B1"/>
</linearGradient>
<linearGradient id="paint9_linear" x1="-nan" y1="-nan" x2="-nan" y2="-nan" gradientUnits="userSpaceOnUse">
<stop stop-color="white" stop-opacity="0"/>
<stop offset="1" stop-color="white"/>
</linearGradient>
</defs>
</svg>
