<svg viewBox="0 0 256 256" fill="none" xmlns="http://www.w3.org/2000/svg">
<circle cx="128" cy="128" r="127.5" fill="#2E2F31" stroke="#252728"/>
<mask id="mask0" mask-type="alpha" maskUnits="userSpaceOnUse" x="0" y="0" width="256" height="256">
<circle cx="128" cy="128" r="127.5" fill="#2E2F31" stroke="#252728"/>
</mask>
<g mask="url(#mask0)">
<path opacity="0.27" d="M107 81.492L618 -429V-209.664L324.044 84L107 81.492Z" fill="url(#paint0_linear)"/>
<path d="M356 26H239.489L156 110H273.134L356 26Z" fill="#E30D13"/>
<path d="M207 120.667V208.843L499.366 -83.6529V-184L208.165 107.071L207 120.667Z" stroke="#95D4E7" stroke-miterlimit="10"/>
<path d="M184 76.6667V164.843L476.366 -127.653V-228L185.165 63.0713L184 76.6667Z" stroke="#95D4E7" stroke-miterlimit="10"/>
<path d="M135.896 146.615L25.543 256.968V146.615L135.896 36.2617V146.615Z" fill="url(#paint1_linear)" stroke="#93D7EA" stroke-width="1.2122" stroke-miterlimit="10" stroke-linecap="round" stroke-linejoin="round"/>
<path d="M25.3318 146.615H-15.9453L94.408 36.2617H135.685L25.3318 146.615Z" fill="url(#paint2_linear)" stroke="#93D7EA" stroke-width="1.2122" stroke-miterlimit="10" stroke-linecap="round" stroke-linejoin="round"/>
<path opacity="0.8" d="M-15.9453 146.613H25.3318V256.967H-15.9453V146.613Z" fill="url(#paint3_linear)" stroke="#93D7EA" stroke-width="0.75" stroke-miterlimit="10" stroke-linecap="round" stroke-linejoin="round"/>
<path d="M26.8038 146.615C26.8038 147.457 26.172 148.089 25.3296 148.089C24.4872 148.089 23.8555 147.457 23.8555 146.615C23.8555 145.772 24.4872 145.141 25.3296 145.141C25.9614 145.141 26.8038 145.772 26.8038 146.615Z" fill="white"/>
<path d="M26.8038 256.759C26.8038 257.602 26.172 258.234 25.3296 258.234C24.4872 258.234 23.8555 257.602 23.8555 256.759C23.8555 255.917 24.4872 255.285 25.3296 255.285C25.9614 255.285 26.8038 255.917 26.8038 256.759Z" fill="white"/>
<path d="M137.999 36.4742C137.999 37.3166 137.367 37.9484 136.525 37.9484C135.683 37.9484 135.051 37.3166 135.051 36.4742C135.051 35.6318 135.683 35 136.525 35C137.367 35 137.999 35.6318 137.999 36.4742Z" fill="white"/>
<path d="M95.882 36.4742C95.882 37.3166 95.2502 37.9484 94.4078 37.9484C93.5654 37.9484 92.9336 37.3166 92.9336 36.4742C92.9336 35.6318 93.5654 35 94.4078 35C95.2502 35 95.882 35.6318 95.882 36.4742Z" fill="white"/>
<path d="M137.999 146.615C137.999 147.457 137.367 148.089 136.525 148.089C135.683 148.089 135.051 147.457 135.051 146.615C135.051 145.772 135.683 145.141 136.525 145.141C137.367 145.141 137.999 145.772 137.999 146.615Z" fill="white"/>
<g opacity="0.8">
<path opacity="0.8" d="M-7 213.078H77.0793V339.197H-7V213.078Z" fill="url(#paint4_linear)" stroke="#93D7EA" stroke-width="0.75" stroke-miterlimit="10" stroke-linecap="round" stroke-linejoin="round"/>
<path opacity="0.8" d="M77.0781 339.198L161.157 255.119V129L77.0781 213.079V339.198Z" fill="url(#paint5_linear)" stroke="#93D7EA" stroke-width="0.75" stroke-miterlimit="10" stroke-linecap="round" stroke-linejoin="round"/>
<path opacity="0.8" d="M-7 213.079L77.0793 129H161.159L77.0793 213.079H-7Z" fill="url(#paint6_linear)" stroke="#93D7EA" stroke-width="0.75" stroke-miterlimit="10" stroke-linecap="round" stroke-linejoin="round"/>
</g>
</g>
<defs>
<linearGradient id="paint0_linear" x1="353.34" y1="51.9176" x2="389.658" y2="-411.588" gradientUnits="userSpaceOnUse">
<stop stop-color="#9EE0E0" stop-opacity="0.9"/>
<stop offset="0.0690068" stop-color="#87D9D8" stop-opacity="0.9069"/>
<stop offset="0.1999" stop-color="#62CDCC" stop-opacity="0.92"/>
<stop offset="0.3369" stop-color="#43C4C2" stop-opacity="0.9337"/>
<stop offset="0.4797" stop-color="#2BBCBB" stop-opacity="0.948"/>
<stop offset="0.6307" stop-color="#1BB7B5" stop-opacity="0.9631"/>
<stop offset="0.7955" stop-color="#10B4B2" stop-opacity="0.9796"/>
<stop offset="1" stop-color="#0DB3B1"/>
</linearGradient>
<linearGradient id="paint1_linear" x1="19.8305" y1="282.389" x2="130.958" y2="34.078" gradientUnits="userSpaceOnUse">
<stop stop-color="#160F4A" stop-opacity="0"/>
<stop offset="1" stop-color="#0DB3B1"/>
</linearGradient>
<linearGradient id="paint2_linear" x1="-55.8111" y1="143.753" x2="110.281" y2="68.6416" gradientUnits="userSpaceOnUse">
<stop stop-color="white" stop-opacity="0"/>
<stop offset="1" stop-color="#0DB3B1"/>
</linearGradient>
<linearGradient id="paint3_linear" x1="12.3068" y1="192.958" x2="-72.763" y2="291.824" gradientUnits="userSpaceOnUse">
<stop stop-color="#412D79"/>
<stop offset="1" stop-color="#1988BE"/>
</linearGradient>
<linearGradient id="paint4_linear" x1="65.8039" y1="232.09" x2="-120.93" y2="499.351" gradientUnits="userSpaceOnUse">
<stop stop-color="#F9B000"/>
<stop offset="0.0455285" stop-color="#F69903"/>
<stop offset="0.1341" stop-color="#F17407"/>
<stop offset="0.23" stop-color="#ED540B"/>
<stop offset="0.3333" stop-color="#E93A0E"/>
<stop offset="0.4468" stop-color="#E72610"/>
<stop offset="0.5756" stop-color="#E51812"/>
<stop offset="0.7329" stop-color="#E41013"/>
<stop offset="1" stop-color="#E30D13"/>
</linearGradient>
<linearGradient id="paint5_linear" x1="-57.8488" y1="347.573" x2="231.595" y2="162.002" gradientUnits="userSpaceOnUse">
<stop offset="0.00124199" stop-color="#F9B000" stop-opacity="0.7"/>
<stop offset="0.046714" stop-color="#F69903" stop-opacity="0.7137"/>
<stop offset="0.1351" stop-color="#F17407" stop-opacity="0.7402"/>
<stop offset="0.231" stop-color="#ED540B" stop-opacity="0.769"/>
<stop offset="0.3342" stop-color="#E93A0E" stop-opacity="0.8"/>
<stop offset="0.4475" stop-color="#E72610" stop-opacity="0.834"/>
<stop offset="0.5762" stop-color="#E51812" stop-opacity="0.8727"/>
<stop offset="0.7332" stop-color="#E41013" stop-opacity="0.9199"/>
<stop offset="1" stop-color="#E30D13"/>
</linearGradient>
<linearGradient id="paint6_linear" x1="-214.208" y1="143.096" x2="137.094" y2="176.942" gradientUnits="userSpaceOnUse">
<stop stop-color="#C86128"/>
<stop offset="1" stop-color="#B83626"/>
</linearGradient>
</defs>
</svg>
