<svg viewBox="0 0 256 256" fill="none" xmlns="http://www.w3.org/2000/svg">
<circle cx="128" cy="128" r="127.5" fill="#2E2F31" stroke="#252728"/>
<mask id="mask0" mask-type="alpha" maskUnits="userSpaceOnUse" x="0" y="0" width="256" height="256">
<circle cx="128" cy="128" r="127.5" fill="#2E2F31" stroke="#252728"/>
</mask>
<g mask="url(#mask0)">
<g opacity="0.8">
<path opacity="0.8" d="M34 29.5273H103.528V133.819H34V29.5273Z" fill="url(#paint0_linear)" stroke="#93D7EA" stroke-width="0.75" stroke-miterlimit="10" stroke-linecap="round" stroke-linejoin="round"/>
<path opacity="0.8" d="M103.527 133.819L173.055 64.2914V-40L103.527 29.5276V133.819Z" fill="url(#paint1_linear)" stroke="#93D7EA" stroke-width="0.75" stroke-miterlimit="10" stroke-linecap="round" stroke-linejoin="round"/>
<path opacity="0.8" d="M34 29.5276L103.528 -40H173.055L103.528 29.5276H34Z" fill="url(#paint2_linear)" stroke="#93D7EA" stroke-width="0.75" stroke-miterlimit="10" stroke-linecap="round" stroke-linejoin="round"/>
</g>
<path d="M154 234.506L710.506 -322H737.178L176.271 238.908L154 234.506Z" fill="url(#paint3_linear)"/>
<path opacity="0.27" d="M-340 149.624L819.624 -1010V-511.761L152.542 155.321L-340 149.624Z" fill="url(#paint4_linear)"/>
<path d="M193.969 167L68.4062 292.562V167L193.969 41.4375V167Z" fill="url(#paint5_linear)" stroke="#93D7EA" stroke-width="1.2122" stroke-miterlimit="10" stroke-linecap="round" stroke-linejoin="round"/>
<path d="M68.1653 167H21.1992L146.762 41.4375H193.728L68.1653 167Z" fill="url(#paint6_linear)" stroke="#93D7EA" stroke-width="1.2122" stroke-miterlimit="10" stroke-linecap="round" stroke-linejoin="round"/>
<path opacity="0.8" d="M21.1992 167H68.1653V292.562H21.1992V167Z" fill="url(#paint7_linear)" stroke="#93D7EA" stroke-width="0.75" stroke-miterlimit="10" stroke-linecap="round" stroke-linejoin="round"/>
<path d="M23.3547 167.002C23.3547 167.96 22.6358 168.679 21.6773 168.679C20.7188 168.679 20 167.96 20 167.002C20 166.043 20.7188 165.324 21.6773 165.324C22.6358 165.324 23.3547 166.043 23.3547 167.002Z" fill="white"/>
<path d="M69.843 167.002C69.843 167.96 69.1241 168.679 68.1656 168.679C67.2071 168.679 66.4883 167.96 66.4883 167.002C66.4883 166.043 67.2071 165.324 68.1656 165.324C68.8845 165.324 69.843 166.043 69.843 167.002Z" fill="white"/>
<path d="M195.355 41.6774C195.355 42.6359 194.636 43.3547 193.677 43.3547C192.719 43.3547 192 42.6359 192 41.6774C192 40.7189 192.719 40 193.677 40C194.636 40 195.355 40.7189 195.355 41.6774Z" fill="white"/>
<path d="M148.355 41.6774C148.355 42.6359 147.636 43.3547 146.677 43.3547C145.719 43.3547 145 42.6359 145 41.6774C145 40.7189 145.719 40 146.677 40C147.636 40 148.355 40.7189 148.355 41.6774Z" fill="white"/>
<path d="M195.355 167.002C195.355 167.96 194.636 168.679 193.677 168.679C192.719 168.679 192 167.96 192 167.002C192 166.043 192.719 165.324 193.677 165.324C194.636 165.324 195.355 166.043 195.355 167.002Z" fill="white"/>
</g>
<defs>
<linearGradient id="paint0_linear" x1="94.2036" y1="45.2485" x2="-60.2121" y2="266.255" gradientUnits="userSpaceOnUse">
<stop stop-color="#F9B000"/>
<stop offset="0.0455285" stop-color="#F69903"/>
<stop offset="0.1341" stop-color="#F17407"/>
<stop offset="0.23" stop-color="#ED540B"/>
<stop offset="0.3333" stop-color="#E93A0E"/>
<stop offset="0.4468" stop-color="#E72610"/>
<stop offset="0.5756" stop-color="#E51812"/>
<stop offset="0.7329" stop-color="#E41013"/>
<stop offset="1" stop-color="#E30D13"/>
</linearGradient>
<linearGradient id="paint1_linear" x1="-8.04758" y1="140.745" x2="231.302" y2="-12.7101" gradientUnits="userSpaceOnUse">
<stop offset="0.00124199" stop-color="#F9B000" stop-opacity="0.7"/>
<stop offset="0.046714" stop-color="#F69903" stop-opacity="0.7137"/>
<stop offset="0.1351" stop-color="#F17407" stop-opacity="0.7402"/>
<stop offset="0.231" stop-color="#ED540B" stop-opacity="0.769"/>
<stop offset="0.3342" stop-color="#E93A0E" stop-opacity="0.8"/>
<stop offset="0.4475" stop-color="#E72610" stop-opacity="0.834"/>
<stop offset="0.5762" stop-color="#E51812" stop-opacity="0.8727"/>
<stop offset="0.7332" stop-color="#E41013" stop-opacity="0.9199"/>
<stop offset="1" stop-color="#E30D13"/>
</linearGradient>
<linearGradient id="paint2_linear" x1="-137.347" y1="-28.3435" x2="153.156" y2="-0.355277" gradientUnits="userSpaceOnUse">
<stop stop-color="#C86128"/>
<stop offset="1" stop-color="#B83626"/>
</linearGradient>
<linearGradient id="paint3_linear" x1="153.907" y1="-41.4477" x2="737.155" y2="-41.4477" gradientUnits="userSpaceOnUse">
<stop offset="0.00124199" stop-color="#E30D13" stop-opacity="0.7"/>
<stop offset="0.147" stop-color="#E52123" stop-opacity="0.7438"/>
<stop offset="0.4444" stop-color="#E8534D" stop-opacity="0.8331"/>
<stop offset="0.8632" stop-color="#EEA48F" stop-opacity="0.9589"/>
<stop offset="1" stop-color="#F0C0A6"/>
</linearGradient>
<linearGradient id="paint4_linear" x1="219.026" y1="82.4432" x2="301.605" y2="-970.435" gradientUnits="userSpaceOnUse">
<stop stop-color="#9EE0E0" stop-opacity="0.9"/>
<stop offset="0.0690068" stop-color="#87D9D8" stop-opacity="0.9069"/>
<stop offset="0.1999" stop-color="#62CDCC" stop-opacity="0.92"/>
<stop offset="0.3369" stop-color="#43C4C2" stop-opacity="0.9337"/>
<stop offset="0.4797" stop-color="#2BBCBB" stop-opacity="0.948"/>
<stop offset="0.6307" stop-color="#1BB7B5" stop-opacity="0.9631"/>
<stop offset="0.7955" stop-color="#10B4B2" stop-opacity="0.9796"/>
<stop offset="1" stop-color="#0DB3B1"/>
</linearGradient>
<linearGradient id="paint5_linear" x1="61.9065" y1="321.486" x2="188.349" y2="38.9529" gradientUnits="userSpaceOnUse">
<stop stop-color="#160F4A" stop-opacity="0"/>
<stop offset="1" stop-color="#0DB3B1"/>
</linearGradient>
<linearGradient id="paint6_linear" x1="-24.1609" y1="163.744" x2="164.823" y2="78.28" gradientUnits="userSpaceOnUse">
<stop stop-color="white" stop-opacity="0"/>
<stop offset="1" stop-color="#0DB3B1"/>
</linearGradient>
<linearGradient id="paint7_linear" x1="53.3451" y1="219.732" x2="-43.4492" y2="332.224" gradientUnits="userSpaceOnUse">
<stop stop-color="#412D79"/>
<stop offset="1" stop-color="#1988BE"/>
</linearGradient>
</defs>
</svg>
