<svg viewBox="0 0 256 257" fill="none" xmlns="http://www.w3.org/2000/svg">
<circle cx="128" cy="128.004" r="127.5" fill="#2E2F31" stroke="#252728"/>
<mask id="mask0" mask-type="alpha" maskUnits="userSpaceOnUse" x="0" y="0" width="256" height="257">
<circle cx="128" cy="128.004" r="127.5" fill="#2E2F31" stroke="#252728"/>
</mask>
<g mask="url(#mask0)">
<path d="M96 108.671V196.847L388.366 -95.649V-195.996L97.1653 95.0752L96 108.671Z" stroke="#95D4E7" stroke-miterlimit="10"/>
<path d="M10 244.671V332.847L302.366 40.351V-59.9961L11.1653 231.075L10 244.671Z" stroke="#95D4E7" stroke-miterlimit="10"/>
<path d="M43 79.6706V167.847L335.366 -124.649V-224.996L44.1653 66.0752L43 79.6706Z" stroke="#95D4E7" stroke-miterlimit="10"/>
<path opacity="0.3" d="M307 -68.9961H211.022L-29 171.004H66.9776L307 -68.9961Z" fill="#412578"/>
<path opacity="0.65" d="M-27.5391 303.061L32.6231 242.898H192.873L132.711 303.061H-27.5391Z" fill="url(#paint0_linear)" stroke="#93D7EA" stroke-width="0.75" stroke-miterlimit="10" stroke-linecap="round" stroke-linejoin="round"/>
<path opacity="0.37" d="M32.0781 82.6484H192.328V242.899H32.0781V82.6484V82.6484Z" fill="url(#paint1_linear)" stroke="#93D7EA" stroke-width="0.75" stroke-miterlimit="10" stroke-linecap="round" stroke-linejoin="round"/>
<path opacity="0.4" d="M131.617 303.61V143.359" stroke="url(#paint2_linear)" stroke-width="0.75" stroke-miterlimit="10" stroke-linecap="round" stroke-linejoin="round"/>
<g opacity="0.4">
<g opacity="0.4">
<path opacity="0.78" d="M-27.8164 303.061L32.3458 242.899V82.6484L-27.8164 142.811V303.061Z" fill="url(#paint3_linear)" stroke="#93D7EA" stroke-width="1.2122" stroke-miterlimit="10" stroke-linecap="round" stroke-linejoin="round"/>
<path opacity="0.4" d="M-28.0859 142.812H132.164V303.063H-28.0859V142.812V142.812Z" fill="url(#paint4_linear)" stroke="#93D7EA" stroke-width="1.2122" stroke-miterlimit="10" stroke-linecap="round" stroke-linejoin="round"/>
<path opacity="0.4" d="M132.164 303.061L192.326 242.899V82.6484L132.164 142.811V303.061Z" fill="url(#paint5_linear)" stroke="#93D7EA" stroke-width="1.2122" stroke-miterlimit="10" stroke-linecap="round" stroke-linejoin="round"/>
<path opacity="0.4" d="M-28.0859 142.811L32.0763 82.6484H192.327L132.164 142.811H-28.0859Z" fill="url(#paint6_linear)" stroke="#93D7EA" stroke-width="1.2122" stroke-miterlimit="10" stroke-linecap="round" stroke-linejoin="round"/>
</g>
<path opacity="0.4" d="M-26.7188 141.992H132.711" stroke="url(#paint7_linear)" stroke-width="1.3046" stroke-miterlimit="10" stroke-linecap="round" stroke-linejoin="round"/>
<path opacity="0.4" d="M134.625 142.262C134.625 143.356 133.532 144.45 132.438 144.45C131.344 144.45 130.25 143.356 130.25 142.262C130.25 141.168 131.344 140.074 132.438 140.074C133.532 140.074 134.625 141.168 134.625 142.262Z" fill="white"/>
<path opacity="0.4" d="M33.4419 83.1956C33.4419 84.2894 32.348 85.3833 31.2541 85.3833C30.1603 85.3833 29.0664 84.2894 29.0664 83.1956C29.0664 82.1017 30.1603 81.0078 31.2541 81.0078C32.348 81.0078 33.4419 82.1017 33.4419 83.1956Z" fill="white"/>
<path opacity="0.4" d="M193.422 83.1956C193.422 84.2894 192.329 85.3833 191.235 85.3833C190.141 85.3833 189.047 84.2894 189.047 83.1956C189.047 82.1017 190.141 81.0078 191.235 81.0078C192.602 81.0078 193.422 82.1017 193.422 83.1956Z" fill="white"/>
<path opacity="0.4" d="M193.422 243.992C193.422 245.086 192.329 246.18 191.235 246.18C190.141 246.18 189.047 245.086 189.047 243.992C189.047 242.899 190.141 241.805 191.235 241.805C192.602 241.805 193.422 242.899 193.422 243.992Z" fill="white"/>
</g>
<path d="M92 130.555L402.135 -178.996H417L104.411 133.004L92 130.555Z" fill="url(#paint8_linear)"/>
<path d="M125 175.555L435.135 -133.996H450L137.411 178.004L125 175.555Z" fill="url(#paint9_linear)"/>
<path d="M159 218.555L469.135 -90.9961H484L171.411 221.004L159 218.555Z" fill="url(#paint10_linear)"/>
<path d="M-208 391.555L102.135 82.0039H117L-195.589 394.004L-208 391.555Z" fill="url(#paint11_linear)"/>
<path d="M-175 436.555L135.135 127.004H150L-162.589 439.004L-175 436.555Z" fill="url(#paint12_linear)"/>
<path d="M-141 479.555L169.135 170.004H184L-128.589 482.004L-141 479.555Z" fill="url(#paint13_linear)"/>
</g>
<defs>
<linearGradient id="paint0_linear" x1="-307.994" y1="235.299" x2="163.315" y2="280.708" gradientUnits="userSpaceOnUse">
<stop stop-color="#412D79"/>
<stop offset="1" stop-color="#1988BE"/>
</linearGradient>
<linearGradient id="paint1_linear" x1="-207.603" y1="131.997" x2="178.333" y2="169.18" gradientUnits="userSpaceOnUse">
<stop stop-color="#412D79"/>
<stop offset="1" stop-color="#1988BE"/>
</linearGradient>
<linearGradient id="paint2_linear" x1="-nan" y1="-nan" x2="-nan" y2="-nan" gradientUnits="userSpaceOnUse">
<stop stop-color="white" stop-opacity="0"/>
<stop offset="1" stop-color="white"/>
</linearGradient>
<linearGradient id="paint3_linear" x1="-33.4172" y1="202.732" x2="51.4331" y2="179.181" gradientUnits="userSpaceOnUse">
<stop stop-color="white" stop-opacity="0"/>
<stop offset="1" stop-color="#0DB3B1"/>
</linearGradient>
<linearGradient id="paint4_linear" x1="95.2841" y1="176.922" x2="-166.306" y2="456.322" gradientUnits="userSpaceOnUse">
<stop stop-color="white" stop-opacity="0"/>
<stop offset="1" stop-color="#0DB3B1"/>
</linearGradient>
<linearGradient id="paint5_linear" x1="126.6" y1="202.732" x2="211.451" y2="179.181" gradientUnits="userSpaceOnUse">
<stop stop-color="white" stop-opacity="0"/>
<stop offset="1" stop-color="#0DB3B1"/>
</linearGradient>
<linearGradient id="paint6_linear" x1="-14.2497" y1="164.05" x2="181.718" y2="59.7214" gradientUnits="userSpaceOnUse">
<stop stop-color="white" stop-opacity="0"/>
<stop offset="1" stop-color="#0DB3B1"/>
</linearGradient>
<linearGradient id="paint7_linear" x1="-nan" y1="-nan" x2="-nan" y2="-nan" gradientUnits="userSpaceOnUse">
<stop stop-color="white" stop-opacity="0"/>
<stop offset="1" stop-color="white"/>
</linearGradient>
<linearGradient id="paint8_linear" x1="91.9483" y1="-22.9414" x2="416.987" y2="-22.9414" gradientUnits="userSpaceOnUse">
<stop offset="0.00124199" stop-color="#E30D13" stop-opacity="0.7"/>
<stop offset="0.147" stop-color="#E52123" stop-opacity="0.7438"/>
<stop offset="0.4444" stop-color="#E8534D" stop-opacity="0.8331"/>
<stop offset="0.8632" stop-color="#EEA48F" stop-opacity="0.9589"/>
<stop offset="1" stop-color="#F0C0A6"/>
</linearGradient>
<linearGradient id="paint9_linear" x1="124.948" y1="22.0586" x2="449.987" y2="22.0586" gradientUnits="userSpaceOnUse">
<stop offset="0.00124199" stop-color="#E30D13" stop-opacity="0.7"/>
<stop offset="0.147" stop-color="#E52123" stop-opacity="0.7438"/>
<stop offset="0.4444" stop-color="#E8534D" stop-opacity="0.8331"/>
<stop offset="0.8632" stop-color="#EEA48F" stop-opacity="0.9589"/>
<stop offset="1" stop-color="#F0C0A6"/>
</linearGradient>
<linearGradient id="paint10_linear" x1="158.948" y1="65.0586" x2="483.987" y2="65.0586" gradientUnits="userSpaceOnUse">
<stop offset="0.00124199" stop-color="#E30D13" stop-opacity="0.7"/>
<stop offset="0.147" stop-color="#E52123" stop-opacity="0.7438"/>
<stop offset="0.4444" stop-color="#E8534D" stop-opacity="0.8331"/>
<stop offset="0.8632" stop-color="#EEA48F" stop-opacity="0.9589"/>
<stop offset="1" stop-color="#F0C0A6"/>
</linearGradient>
<linearGradient id="paint11_linear" x1="-208.052" y1="238.059" x2="116.987" y2="238.059" gradientUnits="userSpaceOnUse">
<stop offset="0.00124199" stop-color="#E30D13" stop-opacity="0.7"/>
<stop offset="0.147" stop-color="#E52123" stop-opacity="0.7438"/>
<stop offset="0.4444" stop-color="#E8534D" stop-opacity="0.8331"/>
<stop offset="0.8632" stop-color="#EEA48F" stop-opacity="0.9589"/>
<stop offset="1" stop-color="#F0C0A6"/>
</linearGradient>
<linearGradient id="paint12_linear" x1="-175.052" y1="283.059" x2="149.987" y2="283.059" gradientUnits="userSpaceOnUse">
<stop offset="0.00124199" stop-color="#E30D13" stop-opacity="0.7"/>
<stop offset="0.147" stop-color="#E52123" stop-opacity="0.7438"/>
<stop offset="0.4444" stop-color="#E8534D" stop-opacity="0.8331"/>
<stop offset="0.8632" stop-color="#EEA48F" stop-opacity="0.9589"/>
<stop offset="1" stop-color="#F0C0A6"/>
</linearGradient>
<linearGradient id="paint13_linear" x1="-141.052" y1="326.059" x2="183.987" y2="326.059" gradientUnits="userSpaceOnUse">
<stop offset="0.00124199" stop-color="#E30D13" stop-opacity="0.7"/>
<stop offset="0.147" stop-color="#E52123" stop-opacity="0.7438"/>
<stop offset="0.4444" stop-color="#E8534D" stop-opacity="0.8331"/>
<stop offset="0.8632" stop-color="#EEA48F" stop-opacity="0.9589"/>
<stop offset="1" stop-color="#F0C0A6"/>
</linearGradient>
</defs>
</svg>
