<svg viewBox="0 0 256 256" fill="none" xmlns="http://www.w3.org/2000/svg">
<circle cx="128" cy="128" r="127.5" fill="#2E2F31" stroke="#252728"/>
<mask id="mask0" mask-type="alpha" maskUnits="userSpaceOnUse" x="0" y="0" width="256" height="256">
<circle cx="128" cy="128" r="127.5" fill="#2E2F31" stroke="#252728"/>
</mask>
<g mask="url(#mask0)">
<path opacity="0.61" d="M-222.994 300.243L15.2492 62H146.024L216.591 132.567L-234 583.157V309.307L-222.994 300.243Z" fill="url(#paint0_linear)"/>
<path opacity="0.3" d="M257.993 66.4531H224.717L141.461 149.709H174.737L257.993 66.4531Z" fill="#412578"/>
<path opacity="0.3" d="M199.729 15.5664H40.986L-356 412.552H-197.257L199.729 15.5664Z" fill="#412578"/>
<path d="M15.0898 293.175V381.35L307.456 88.8549V-11.4922L16.2552 279.579L15.0898 293.175Z" stroke="#95D4E7" stroke-miterlimit="10"/>
<path d="M70 67.287V182.136L185.626 59.9066V-53L70 67.287Z" fill="url(#paint1_linear)"/>
</g>
<defs>
<linearGradient id="paint0_linear" x1="153.942" y1="58.2853" x2="-221.66" y2="433.887" gradientUnits="userSpaceOnUse">
<stop stop-color="#49BABB" stop-opacity="0.9"/>
<stop offset="0.2113" stop-color="#4BB7B9" stop-opacity="0.9211"/>
<stop offset="0.3934" stop-color="#51ACB3" stop-opacity="0.9393"/>
<stop offset="0.5647" stop-color="#5B9AA9" stop-opacity="0.9565"/>
<stop offset="0.7295" stop-color="#68819B" stop-opacity="0.9729"/>
<stop offset="0.8881" stop-color="#7A6189" stop-opacity="0.9888"/>
<stop offset="1" stop-color="#89467A"/>
</linearGradient>
<linearGradient id="paint1_linear" x1="127.792" y1="-53.0315" x2="127.792" y2="182.136" gradientUnits="userSpaceOnUse">
<stop offset="0.00124199" stop-color="#F9B000" stop-opacity="0.7"/>
<stop offset="0.2564" stop-color="#F59C05" stop-opacity="0.7766"/>
<stop offset="0.7738" stop-color="#EC6A12" stop-opacity="0.932"/>
<stop offset="1" stop-color="#E85218"/>
</linearGradient>
</defs>
</svg>
