<svg viewBox="0 0 256 256" fill="none" xmlns="http://www.w3.org/2000/svg">
<circle cx="128" cy="128" r="127.5" fill="#2E2F31" stroke="#252728"/>
<mask id="mask0" mask-type="alpha" maskUnits="userSpaceOnUse" x="0" y="0" width="256" height="256">
<circle cx="128" cy="128" r="127.5" fill="#2E2F31" stroke="#252728"/>
</mask>
<g mask="url(#mask0)">
<path d="M294 -21H177.489L94 63H211.134L294 -21Z" fill="#E30D13"/>
<g opacity="0.8">
<path opacity="0.65" d="M-57.9297 272.723L-7.33996 222.133H127.413L76.8229 272.723H-57.9297Z" fill="url(#paint0_linear)" stroke="#93D7EA" stroke-width="0.75" stroke-miterlimit="10" stroke-linecap="round" stroke-linejoin="round"/>
<path opacity="0.37" d="M-7.80078 87.3789H126.952V222.132H-7.80078V87.3789V87.3789Z" fill="url(#paint1_linear)" stroke="#93D7EA" stroke-width="0.75" stroke-miterlimit="10" stroke-linecap="round" stroke-linejoin="round"/>
<path opacity="0.4" d="M75.9023 273.182V138.43" stroke="url(#paint2_linear)" stroke-width="0.75" stroke-miterlimit="10" stroke-linecap="round" stroke-linejoin="round"/>
<g opacity="0.4">
<g opacity="0.8">
<path opacity="0.4" d="M-58.3906 137.969H76.362V272.721H-58.3906V137.969V137.969Z" fill="url(#paint3_linear)" stroke="#93D7EA" stroke-width="1.2122" stroke-miterlimit="10" stroke-linecap="round" stroke-linejoin="round"/>
<path opacity="0.4" d="M76.3633 272.721L126.953 222.132V87.3789L76.3633 137.969V272.721Z" fill="url(#paint4_linear)" stroke="#93D7EA" stroke-width="1.2122" stroke-miterlimit="10" stroke-linecap="round" stroke-linejoin="round"/>
<path opacity="0.4" d="M-58.3906 137.969L-7.8009 87.3789H126.952L76.362 137.969H-58.3906Z" fill="url(#paint5_linear)" stroke="#93D7EA" stroke-width="1.2122" stroke-miterlimit="10" stroke-linecap="round" stroke-linejoin="round"/>
</g>
<path opacity="0.4" d="M-57.2383 137.281H76.8245" stroke="url(#paint6_linear)" stroke-width="1.3046" stroke-miterlimit="10" stroke-linecap="round" stroke-linejoin="round"/>
<path opacity="0.4" d="M78.4332 137.508C78.4332 138.427 77.5134 139.347 76.5936 139.347C75.6738 139.347 74.7539 138.427 74.7539 137.508C74.7539 136.588 75.6738 135.668 76.5936 135.668C77.5134 135.668 78.4332 136.588 78.4332 137.508Z" fill="white"/>
<path opacity="0.4" d="M127.871 87.8397C127.871 88.7595 126.951 89.6793 126.031 89.6793C125.111 89.6793 124.191 88.7595 124.191 87.8397C124.191 86.9199 125.111 86 126.031 86C127.181 86 127.871 86.9199 127.871 87.8397Z" fill="white"/>
<path opacity="0.4" d="M127.871 223.051C127.871 223.97 126.951 224.89 126.031 224.89C125.111 224.89 124.191 223.97 124.191 223.051C124.191 222.131 125.111 221.211 126.031 221.211C127.181 221.211 127.871 222.131 127.871 223.051Z" fill="white"/>
</g>
</g>
<path d="M-26 290.667V378.843L266.366 86.3471V-14L-24.8347 277.071L-26 290.667Z" stroke="#95D4E7" stroke-miterlimit="10"/>
<path d="M197 121.667V209.843L489.366 -82.6529V-183L198.165 108.071L197 121.667Z" stroke="#95D4E7" stroke-miterlimit="10"/>
<path d="M-171 215.667V303.843L121.366 11.3471V-89L-169.835 202.071L-171 215.667Z" stroke="#95D4E7" stroke-miterlimit="10"/>
<path d="M225.69 209.999V145L166 204.69V269.301L190.472 244.829L225.69 209.999Z" fill="url(#paint7_linear)"/>
<path opacity="0.27" d="M-207 238.497L88 -56V70.6185L-81.671 240L-207 238.497Z" fill="url(#paint8_linear)"/>
</g>
<defs>
<linearGradient id="paint0_linear" x1="-293.761" y1="215.743" x2="102.557" y2="253.926" gradientUnits="userSpaceOnUse">
<stop stop-color="#412D79"/>
<stop offset="1" stop-color="#1988BE"/>
</linearGradient>
<linearGradient id="paint1_linear" x1="-209.346" y1="128.875" x2="115.183" y2="160.142" gradientUnits="userSpaceOnUse">
<stop stop-color="#412D79"/>
<stop offset="1" stop-color="#1988BE"/>
</linearGradient>
<linearGradient id="paint2_linear" x1="-nan" y1="-nan" x2="-nan" y2="-nan" gradientUnits="userSpaceOnUse">
<stop stop-color="white" stop-opacity="0"/>
<stop offset="1" stop-color="white"/>
</linearGradient>
<linearGradient id="paint3_linear" x1="45.3498" y1="166.651" x2="-174.618" y2="401.595" gradientUnits="userSpaceOnUse">
<stop stop-color="white" stop-opacity="0"/>
<stop offset="1" stop-color="#0DB3B1"/>
</linearGradient>
<linearGradient id="paint4_linear" x1="71.6849" y1="188.356" x2="143.035" y2="168.552" gradientUnits="userSpaceOnUse">
<stop stop-color="white" stop-opacity="0"/>
<stop offset="1" stop-color="#0DB3B1"/>
</linearGradient>
<linearGradient id="paint5_linear" x1="-46.7559" y1="155.828" x2="118.031" y2="68.0998" gradientUnits="userSpaceOnUse">
<stop stop-color="white" stop-opacity="0"/>
<stop offset="1" stop-color="#0DB3B1"/>
</linearGradient>
<linearGradient id="paint6_linear" x1="-nan" y1="-nan" x2="-nan" y2="-nan" gradientUnits="userSpaceOnUse">
<stop stop-color="white" stop-opacity="0"/>
<stop offset="1" stop-color="white"/>
</linearGradient>
<linearGradient id="paint7_linear" x1="203.885" y1="82.4233" x2="192.375" y2="262.481" gradientUnits="userSpaceOnUse">
<stop stop-color="#0DB3B1"/>
<stop offset="0.0800204" stop-color="#11A4AA"/>
<stop offset="0.388" stop-color="#1D6E91"/>
<stop offset="0.6549" stop-color="#26487F"/>
<stop offset="0.8678" stop-color="#2B3074"/>
<stop offset="1" stop-color="#2D2870"/>
</linearGradient>
<linearGradient id="paint8_linear" x1="-64.8015" y1="221.502" x2="-43.8643" y2="-45.9028" gradientUnits="userSpaceOnUse">
<stop stop-color="#9EE0E0" stop-opacity="0.9"/>
<stop offset="0.0690068" stop-color="#87D9D8" stop-opacity="0.9069"/>
<stop offset="0.1999" stop-color="#62CDCC" stop-opacity="0.92"/>
<stop offset="0.3369" stop-color="#43C4C2" stop-opacity="0.9337"/>
<stop offset="0.4797" stop-color="#2BBCBB" stop-opacity="0.948"/>
<stop offset="0.6307" stop-color="#1BB7B5" stop-opacity="0.9631"/>
<stop offset="0.7955" stop-color="#10B4B2" stop-opacity="0.9796"/>
<stop offset="1" stop-color="#0DB3B1"/>
</linearGradient>
</defs>
</svg>
