<svg viewBox="0 0 256 256" fill="none" xmlns="http://www.w3.org/2000/svg">
<circle cx="128" cy="128" r="127.5" fill="#2E2F31" stroke="#252728"/>
<mask id="mask0" mask-type="alpha" maskUnits="userSpaceOnUse" x="0" y="0" width="256" height="256">
<circle cx="128" cy="128" r="127.5" fill="#2E2F31" stroke="#252728"/>
</mask>
<g mask="url(#mask0)">
<path d="M126.085 174.534L25.6992 274.92V174.534L126.085 74.1484V174.534Z" fill="url(#paint0_linear)" stroke="#93D7EA" stroke-width="1.2122" stroke-miterlimit="10" stroke-linecap="round" stroke-linejoin="round"/>
<path d="M25.5059 174.534H-12.043L88.3429 74.1484H125.892L25.5059 174.534Z" fill="url(#paint1_linear)" stroke="#93D7EA" stroke-width="1.2122" stroke-miterlimit="10" stroke-linecap="round" stroke-linejoin="round"/>
<path opacity="0.8" d="M-12.043 174.535H25.5059V274.921H-12.043V174.535Z" fill="url(#paint2_linear)" stroke="#93D7EA" stroke-width="0.75" stroke-miterlimit="10" stroke-linecap="round" stroke-linejoin="round"/>
<path d="M26.8461 174.536C26.8461 175.303 26.2714 175.877 25.5051 175.877C24.7388 175.877 24.1641 175.303 24.1641 174.536C24.1641 173.77 24.7388 173.195 25.5051 173.195C26.0798 173.195 26.8461 173.77 26.8461 174.536Z" fill="white"/>
<path d="M127.998 74.3411C127.998 75.1074 127.424 75.6821 126.657 75.6821C125.891 75.6821 125.316 75.1074 125.316 74.3411C125.316 73.5748 125.891 73 126.657 73C127.424 73 127.998 73.5748 127.998 74.3411Z" fill="white"/>
<path d="M89.686 74.3411C89.686 75.1074 89.1113 75.6821 88.345 75.6821C87.5787 75.6821 87.0039 75.1074 87.0039 74.3411C87.0039 73.5748 87.5787 73 88.345 73C89.1113 73 89.686 73.5748 89.686 74.3411Z" fill="white"/>
<path d="M127.998 174.536C127.998 175.303 127.424 175.877 126.657 175.877C125.891 175.877 125.316 175.303 125.316 174.536C125.316 173.77 125.891 173.195 126.657 173.195C127.424 173.195 127.998 173.77 127.998 174.536Z" fill="white"/>
<path d="M301 9H251.313L127 133H176.687L301 9Z" fill="#412578"/>
<path d="M13 279.543V359L276 95.4252V5L14.0483 267.291L13 279.543Z" stroke="#95D4E7" stroke-miterlimit="10"/>
<path opacity="0.27" d="M-50 392.629L218 124V239.497L63.8582 394L-50 392.629Z" fill="url(#paint3_linear)"/>
<path opacity="0.4" d="M79 17.4229V162L225 8.13214V-134L79 17.4229Z" fill="url(#paint4_linear)"/>
<path d="M290 169H230.579L188 211H247.738L290 169Z" fill="#E30D13"/>
</g>
<defs>
<linearGradient id="paint0_linear" x1="20.5027" y1="298.045" x2="121.592" y2="72.162" gradientUnits="userSpaceOnUse">
<stop stop-color="#160F4A" stop-opacity="0"/>
<stop offset="1" stop-color="#0DB3B1"/>
</linearGradient>
<linearGradient id="paint1_linear" x1="-48.308" y1="171.931" x2="102.782" y2="103.604" gradientUnits="userSpaceOnUse">
<stop stop-color="white" stop-opacity="0"/>
<stop offset="1" stop-color="#0DB3B1"/>
</linearGradient>
<linearGradient id="paint2_linear" x1="13.6573" y1="216.694" x2="-63.7287" y2="306.63" gradientUnits="userSpaceOnUse">
<stop stop-color="#412D79"/>
<stop offset="1" stop-color="#1988BE"/>
</linearGradient>
<linearGradient id="paint3_linear" x1="79.1837" y1="377.127" x2="98.3585" y2="133.222" gradientUnits="userSpaceOnUse">
<stop stop-color="#9EE0E0" stop-opacity="0.9"/>
<stop offset="0.0690068" stop-color="#87D9D8" stop-opacity="0.9069"/>
<stop offset="0.1999" stop-color="#62CDCC" stop-opacity="0.92"/>
<stop offset="0.3369" stop-color="#43C4C2" stop-opacity="0.9337"/>
<stop offset="0.4797" stop-color="#2BBCBB" stop-opacity="0.948"/>
<stop offset="0.6307" stop-color="#1BB7B5" stop-opacity="0.9631"/>
<stop offset="0.7955" stop-color="#10B4B2" stop-opacity="0.9796"/>
<stop offset="1" stop-color="#0DB3B1"/>
</linearGradient>
<linearGradient id="paint4_linear" x1="151.973" y1="-134.04" x2="151.973" y2="162" gradientUnits="userSpaceOnUse">
<stop offset="0.00124199" stop-color="#F9B000" stop-opacity="0.7"/>
<stop offset="0.2564" stop-color="#F59C05" stop-opacity="0.7766"/>
<stop offset="0.7738" stop-color="#EC6A12" stop-opacity="0.932"/>
<stop offset="1" stop-color="#E85218"/>
</linearGradient>
</defs>
</svg>
