<svg fill="none" xmlns="http://www.w3.org/2000/svg">
<circle cx="128" cy="128" r="127.5" fill="#2E2F31" stroke="#252728"/>
<mask id="mask0" mask-type="alpha" maskUnits="userSpaceOnUse" x="0" y="0" width="256" height="256">
<circle cx="128" cy="128" r="127.5" fill="#2E2F31" stroke="#252728"/>
</mask>
<g mask="url(#mask0)">
<g opacity="0.8">
<path opacity="0.8" d="M54 -3.92188H128.079V107.197H54V-3.92188Z" fill="url(#paint0_linear)" stroke="#93D7EA" stroke-width="0.75" stroke-miterlimit="10" stroke-linecap="round" stroke-linejoin="round"/>
<path opacity="0.8" d="M128.078 107.198L202.157 33.119V-78L128.078 -3.92064V107.198Z" fill="url(#paint1_linear)" stroke="#93D7EA" stroke-width="0.75" stroke-miterlimit="10" stroke-linecap="round" stroke-linejoin="round"/>
</g>
<path opacity="0.3" d="M246 -34H194.6L66 94H117.4L246 -34Z" fill="#412578"/>
<path d="M7 205.667V293.843L299.366 1.34709V-99L8.16531 192.071L7 205.667Z" stroke="#95D4E7" stroke-miterlimit="10"/>
<path opacity="0.27" d="M-50 315.988L178.273 87.7148V185.861L46.9806 317.154L-50 315.988Z" fill="url(#paint2_linear)"/>
<path d="M290.896 186.615L180.543 296.968V186.615L290.896 76.2617V186.615Z" fill="url(#paint3_linear)" stroke="#93D7EA" stroke-width="1.2122" stroke-miterlimit="10" stroke-linecap="round" stroke-linejoin="round"/>
<path d="M180.332 186.615H139.055L249.408 76.2617H290.685L180.332 186.615Z" fill="url(#paint4_linear)" stroke="#93D7EA" stroke-width="1.2122" stroke-miterlimit="10" stroke-linecap="round" stroke-linejoin="round"/>
<path opacity="0.8" d="M139.055 186.613H180.332V296.967H139.055V186.613Z" fill="url(#paint5_linear)" stroke="#93D7EA" stroke-width="0.75" stroke-miterlimit="10" stroke-linecap="round" stroke-linejoin="round"/>
<path d="M140.948 186.615C140.948 187.457 140.317 188.089 139.474 188.089C138.632 188.089 138 187.457 138 186.615C138 185.772 138.632 185.141 139.474 185.141C140.317 185.141 140.948 185.772 140.948 186.615Z" fill="white"/>
<path d="M181.804 186.615C181.804 187.457 181.172 188.089 180.33 188.089C179.487 188.089 178.855 187.457 178.855 186.615C178.855 185.772 179.487 185.141 180.33 185.141C180.961 185.141 181.804 185.772 181.804 186.615Z" fill="white"/>
<path d="M250.882 76.4742C250.882 77.3166 250.25 77.9484 249.408 77.9484C248.565 77.9484 247.934 77.3166 247.934 76.4742C247.934 75.6318 248.565 75 249.408 75C250.25 75 250.882 75.6318 250.882 76.4742Z" fill="white"/>
</g>
<defs>
<linearGradient id="paint0_linear" x1="118.145" y1="12.8285" x2="-46.3798" y2="248.304" gradientUnits="userSpaceOnUse">
<stop stop-color="#F9B000"/>
<stop offset="0.0455285" stop-color="#F69903"/>
<stop offset="0.1341" stop-color="#F17407"/>
<stop offset="0.23" stop-color="#ED540B"/>
<stop offset="0.3333" stop-color="#E93A0E"/>
<stop offset="0.4468" stop-color="#E72610"/>
<stop offset="0.5756" stop-color="#E51812"/>
<stop offset="0.7329" stop-color="#E41013"/>
<stop offset="1" stop-color="#E30D13"/>
</linearGradient>
<linearGradient id="paint1_linear" x1="9.19876" y1="114.577" x2="264.218" y2="-48.9235" gradientUnits="userSpaceOnUse">
<stop offset="0.00124199" stop-color="#F9B000" stop-opacity="0.7"/>
<stop offset="0.046714" stop-color="#F69903" stop-opacity="0.7137"/>
<stop offset="0.1351" stop-color="#F17407" stop-opacity="0.7402"/>
<stop offset="0.231" stop-color="#ED540B" stop-opacity="0.769"/>
<stop offset="0.3342" stop-color="#E93A0E" stop-opacity="0.8"/>
<stop offset="0.4475" stop-color="#E72610" stop-opacity="0.834"/>
<stop offset="0.5762" stop-color="#E51812" stop-opacity="0.8727"/>
<stop offset="0.7332" stop-color="#E41013" stop-opacity="0.9199"/>
<stop offset="1" stop-color="#E30D13"/>
</linearGradient>
<linearGradient id="paint2_linear" x1="60.0344" y1="302.816" x2="76.2909" y2="95.5458" gradientUnits="userSpaceOnUse">
<stop stop-color="#9EE0E0" stop-opacity="0.9"/>
<stop offset="0.0690068" stop-color="#87D9D8" stop-opacity="0.9069"/>
<stop offset="0.1999" stop-color="#62CDCC" stop-opacity="0.92"/>
<stop offset="0.3369" stop-color="#43C4C2" stop-opacity="0.9337"/>
<stop offset="0.4797" stop-color="#2BBCBB" stop-opacity="0.948"/>
<stop offset="0.6307" stop-color="#1BB7B5" stop-opacity="0.9631"/>
<stop offset="0.7955" stop-color="#10B4B2" stop-opacity="0.9796"/>
<stop offset="1" stop-color="#0DB3B1"/>
</linearGradient>
<linearGradient id="paint3_linear" x1="174.83" y1="322.389" x2="285.958" y2="74.078" gradientUnits="userSpaceOnUse">
<stop stop-color="#160F4A" stop-opacity="0"/>
<stop offset="1" stop-color="#0DB3B1"/>
</linearGradient>
<linearGradient id="paint4_linear" x1="99.1889" y1="183.753" x2="265.281" y2="108.642" gradientUnits="userSpaceOnUse">
<stop stop-color="white" stop-opacity="0"/>
<stop offset="1" stop-color="#0DB3B1"/>
</linearGradient>
<linearGradient id="paint5_linear" x1="167.307" y1="232.958" x2="82.237" y2="331.824" gradientUnits="userSpaceOnUse">
<stop stop-color="#412D79"/>
<stop offset="1" stop-color="#1988BE"/>
</linearGradient>
</defs>
</svg>
