<svg viewBox="0 0 256 256" fill="none" xmlns="http://www.w3.org/2000/svg">
<circle cx="128" cy="128" r="127.5" fill="#2E2F31" stroke="#252728"/>
<mask id="mask0" mask-type="alpha" maskUnits="userSpaceOnUse" x="0" y="0" width="256" height="256">
<circle cx="128" cy="128" r="127.5" fill="#2E2F31" stroke="#252728"/>
</mask>
<g mask="url(#mask0)">
<path opacity="0.6" d="M-265 197.778L391 -458V-176.241L13.6315 201L-265 197.778Z" fill="url(#paint0_linear)"/>
<path opacity="0.3" d="M239 124H59.3276L-390 574H-210.328L239 124Z" fill="#412578"/>
<path d="M227.414 39.6836L150.609 116.488V39.6836L227.414 -37.1211V39.6836Z" fill="url(#paint1_linear)" stroke="#93D7EA" stroke-width="1.2122" stroke-miterlimit="10" stroke-linecap="round" stroke-linejoin="round"/>
<path d="M150.463 39.6836H121.734L198.539 -37.1211H227.268L150.463 39.6836Z" fill="url(#paint2_linear)" stroke="#93D7EA" stroke-width="1.2122" stroke-miterlimit="10" stroke-linecap="round" stroke-linejoin="round"/>
<path opacity="0.8" d="M121.734 39.6836H150.463V116.488H121.734V39.6836Z" fill="url(#paint3_linear)" stroke="#93D7EA" stroke-width="0.75" stroke-miterlimit="10" stroke-linecap="round" stroke-linejoin="round"/>
<path d="M123.052 39.6823C123.052 40.2686 122.612 40.7083 122.026 40.7083C121.44 40.7083 121 40.2686 121 39.6823C121 39.096 121.44 38.6562 122.026 38.6562C122.612 38.6562 123.052 39.096 123.052 39.6823Z" fill="white"/>
<path d="M151.486 39.6823C151.486 40.2686 151.046 40.7083 150.46 40.7083C149.873 40.7083 149.434 40.2686 149.434 39.6823C149.434 39.096 149.873 38.6562 150.46 38.6562C150.899 38.6562 151.486 39.096 151.486 39.6823Z" fill="white"/>
<path d="M123.052 116.342C123.052 116.929 122.612 117.368 122.026 117.368C121.44 117.368 121 116.929 121 116.342C121 115.756 121.44 115.316 122.026 115.316C122.612 115.316 123.052 115.756 123.052 116.342Z" fill="white"/>
<path d="M151.486 116.342C151.486 116.929 151.046 117.368 150.46 117.368C149.873 117.368 149.434 116.929 149.434 116.342C149.434 115.756 149.873 115.316 150.46 115.316C150.899 115.316 151.486 115.756 151.486 116.342Z" fill="white"/>
<path d="M228.88 39.6823C228.88 40.2686 228.44 40.7083 227.854 40.7083C227.268 40.7083 226.828 40.2686 226.828 39.6823C226.828 39.096 227.268 38.6562 227.854 38.6562C228.44 38.6562 228.88 39.096 228.88 39.6823Z" fill="white"/>
<path opacity="0.4" d="M173 127.076V257L304 118.727V-9L173 127.076Z" fill="url(#paint4_linear)"/>
<path d="M-91 321.504L223.907 6H239L-78.3979 324L-91 321.504Z" fill="url(#paint5_linear)"/>
</g>
<defs>
<linearGradient id="paint0_linear" x1="51.2412" y1="159.787" x2="97.9247" y2="-435.628" gradientUnits="userSpaceOnUse">
<stop stop-color="#9EE0E0" stop-opacity="0.9"/>
<stop offset="0.0690068" stop-color="#87D9D8" stop-opacity="0.9069"/>
<stop offset="0.1999" stop-color="#62CDCC" stop-opacity="0.92"/>
<stop offset="0.3369" stop-color="#43C4C2" stop-opacity="0.9337"/>
<stop offset="0.4797" stop-color="#2BBCBB" stop-opacity="0.948"/>
<stop offset="0.6307" stop-color="#1BB7B5" stop-opacity="0.9631"/>
<stop offset="0.7955" stop-color="#10B4B2" stop-opacity="0.9796"/>
<stop offset="1" stop-color="#0DB3B1"/>
</linearGradient>
<linearGradient id="paint1_linear" x1="146.634" y1="134.181" x2="223.977" y2="-38.6409" gradientUnits="userSpaceOnUse">
<stop stop-color="#160F4A" stop-opacity="0"/>
<stop offset="1" stop-color="#0DB3B1"/>
</linearGradient>
<linearGradient id="paint2_linear" x1="93.9882" y1="37.6919" x2="209.587" y2="-14.5851" gradientUnits="userSpaceOnUse">
<stop stop-color="white" stop-opacity="0"/>
<stop offset="1" stop-color="#0DB3B1"/>
</linearGradient>
<linearGradient id="paint3_linear" x1="141.398" y1="71.9391" x2="82.1899" y2="140.749" gradientUnits="userSpaceOnUse">
<stop stop-color="#412D79"/>
<stop offset="1" stop-color="#1988BE"/>
</linearGradient>
<linearGradient id="paint4_linear" x1="238.476" y1="-9.03559" x2="238.476" y2="257" gradientUnits="userSpaceOnUse">
<stop offset="0.00124199" stop-color="#F9B000" stop-opacity="0.7"/>
<stop offset="0.2564" stop-color="#F59C05" stop-opacity="0.7766"/>
<stop offset="0.7738" stop-color="#EC6A12" stop-opacity="0.932"/>
<stop offset="1" stop-color="#E85218"/>
</linearGradient>
<linearGradient id="paint5_linear" x1="-91.0525" y1="165.056" x2="238.987" y2="165.056" gradientUnits="userSpaceOnUse">
<stop offset="0.00124199" stop-color="#E30D13" stop-opacity="0.7"/>
<stop offset="0.147" stop-color="#E52123" stop-opacity="0.7438"/>
<stop offset="0.4444" stop-color="#E8534D" stop-opacity="0.8331"/>
<stop offset="0.8632" stop-color="#EEA48F" stop-opacity="0.9589"/>
<stop offset="1" stop-color="#F0C0A6"/>
</linearGradient>
</defs>
</svg>
