<?xml version="1.0" encoding="utf-8"?>
<!-- Generator: Adobe Illustrator 16.0.0, SVG Export Plug-In . SVG Version: 6.00 Build 0)  -->
<!DOCTYPE svg PUBLIC "-//W3C//DTD SVG 1.1//EN" "http://www.w3.org/Graphics/SVG/1.1/DTD/svg11.dtd">
<svg version="1.1" id="Layer_1" xmlns="http://www.w3.org/2000/svg" xmlns:xlink="http://www.w3.org/1999/xlink" x="0px" y="0px"
	 width="200px" height="100px" viewBox="0 0 200 100" enable-background="new 0 0 200 100" xml:space="preserve">
<g>
	<g>
		<path fill="#D85039" d="M160.66,38.126c0,0-2.13,3.795,1.665,5.925c3.794,2.128,7.537-2.761,7.537-2.761L160.66,38.126z"/>
		<g>
			<path fill="#D85039" d="M177.145,42.813c0,0,12.094,8.083,14.663,6.611C194.286,47.656,177.145,42.813,177.145,42.813z"/>
			<path fill="#D85039" d="M173.606,39.782c0,0,16.457,9.412,19.431,7.371C195.232,45.07,173.606,39.782,173.606,39.782z"/>
			<path fill="#D85039" d="M173.042,42.765c0,0,13.619,11.134,17.179,9.522C193.183,50.643,173.042,42.765,173.042,42.765z"/>
			<path fill="#D85039" d="M170.281,41.625c0,0,12.165,10.904,14.441,10.706C186.936,52.141,170.281,41.625,170.281,41.625z"/>
			<path fill="#EA9658" d="M169.563,39.42c0,0,14.479,9.765,17.796,8.536C190.234,46.774,169.563,39.42,169.563,39.42z"/>
			<path fill="#EA9658" d="M168.512,38.36c0,0,16.785,8.602,19.563,7.038C190.287,43.893,168.512,38.36,168.512,38.36z"/>
			<path fill="#EA9658" d="M167.641,38.593c0,0,12.686,10.383,15.742,9.86C186.043,47.924,167.641,38.593,167.641,38.593z"/>
			<path fill="#EA9658" d="M166.174,38.634c0,0,9.493,11.125,13.522,10.564C183.287,48.69,166.174,38.634,166.174,38.634z"/>
			<path fill="#1F8299" d="M163.945,37.018c0,0,14.62,9.413,17.885,8.315C184.618,44.266,163.945,37.018,163.945,37.018z"/>
			<path fill="#1F8299" d="M164.023,36.97c0,0,16.99,8.3,19.681,6.86C185.971,42.393,164.023,36.97,164.023,36.97z"/>
			<path fill="#1F8299" d="M163.226,37.478c0,0,12.826,9.986,16.408,9.129C182.92,45.653,163.226,37.478,163.226,37.478z"/>
		</g>
		<path fill="#D85039" d="M192.527,18.841l-2.737-0.286c3.025-2.452,3.738-9.296,3.738-9.296
			c-19.883,17.873-39.666,12.464-39.666,12.464l-11.618,1.553c0.616,0.473,1.22,0.916,1.816,1.338l-0.59,0.173
			c22.496,23.108,45.46,1.982,45.46,1.982l-2.736-0.287C191.956,24.315,192.527,18.841,192.527,18.841z"/>
		<path fill="#D85039" d="M139.229,23.913c0,0,14.146,32.429,29.68,13.673l-24.124-17.344L139.229,23.913z"/>
		<path fill="#D85039" d="M155.849,23.297c0,0-3.124-3.841-10.643-10.321c-9.89-8.524-11.754-0.363-11.754-0.363l5.776,11.3
			L155.849,23.297z"/>
		<path fill="#FFFFFF" d="M147.457,18.365c0,0-11.231-1.636-9.729,1.956l-3.003-7.184C134.725,13.137,140.41,6.542,147.457,18.365z"
			/>
		<circle fill="#404041" cx="139.966" cy="13.056" r="0.688"/>
		<path fill="#58595B" d="M138.054,21.615c0,0-4.066-4.48-5.11-1.936l2.09-5.092C135.033,14.587,136.85,13.681,138.054,21.615z"/>
		<g>
			<path fill="#26A5D4" d="M155.849,23.297c0,0,28.278,6.212,41.568-0.784c0,0-2.615,6.365-6.206,7.865l2.547,1.046
				c0,0-2.092,5.093-8.229,5.548l2.546,1.045c0,0-27.986,13.803-43.062-14.706L155.849,23.297z"/>
			<path fill="#EA9658" d="M155.849,23.297c0,0,14.924,6.127,29.52,3.193c0,0-1.569,3.821-5.162,5.32l2.548,1.046
				c0,0-2.842,3.296-5.911,3.524l3.818,1.568c0,0-22.586,9.296-35.648-14.639L155.849,23.297z"/>
			<path fill="#FFE6C6" d="M154.954,23.363c0,0,10.821,7.309,24.723,5.905c0,0-1.745,3.074-4.959,3.961l2.051,1.162
				c0,0-2.77,2.492-5.4,2.354l3.073,1.745c0,0-21.337,1.994-29.429-15.179L154.954,23.363z"/>
			<path fill="#D85039" d="M155.557,22.955c0,0,7.361,5.858,17.012,5.72c0,0-2.091,5.093-7.708,4.274c0,0,2.548,1.045,3.299,2.841
				c0,0-11.141,4.146-23.51-12.835H155.557z"/>
		</g>
		<path fill="#BBBBBC" d="M135.928,14.442c0,0,0.235-1.356-2.475-1.829c0,0-5.249,6.072-0.296,9.729
			C133.157,22.342,132.039,20.749,135.928,14.442z"/>
	</g>
	<path id="XMLID_124_" fill="#FFFFFF" d="M149.032,56.434c2.364-1.086,3.876-3.568,3.876-6.475c0-2.209-0.775-3.913-2.401-5.464
		c-1.591-1.55-3.528-2.21-5.778-2.21h-10.542v6.163c-0.388-1.125-1.358-2.209-2.364-3.178c-2.441-2.288-5.351-3.451-8.877-3.451
		c-3.525,0-6.396,1.163-8.874,3.451c-0.467,0.427-0.815,0.891-1.203,1.356v-4.341H96.201V59.34h-7.366V42.284h-6.201v18.294
		l-7.403-18.294h-5.698l-5.505,13.413c-0.698-1.824-2.326-3.182-5.117-4.188c-1.434-0.543-3.255-1.085-4.03-1.24
		c-0.389-0.118-0.775-0.233-1.164-0.389c-0.698-0.311-0.931-0.66-0.931-1.319c0-0.813,0.892-1.396,2.482-1.396
		c1.743,0,3.1,0.583,4.109,1.783l4.108-3.489c-1.821-2.441-4.651-3.643-8.411-3.643c-2.25,0-4.186,0.581-5.776,1.782
		c-1.589,1.203-2.402,2.869-2.402,5.039c0,3.062,1.784,5.272,5.271,6.589c1.085,0.387,2.713,0.893,3.605,1.164
		c0.465,0.115,0.93,0.311,1.356,0.465c0.892,0.35,1.279,0.775,1.279,1.395c0,1.086-1.008,1.629-3.063,1.629
		c-2.403,0-4.497-1.162-5.698-2.83l-4.379,3.373c0.89,1.357,2.131,2.48,3.758,3.449c1.668,0.933,3.76,1.396,6.318,1.396
		c2.055,0,3.761-0.426,5.156-1.046l-0.232,0.543h6.55l1.201-2.714h8.76l1.164,2.714h35.311v-3.84c0,0.35,0.543,0.699,0.892,1.049
		c2.442,2.288,5.349,3.451,8.876,3.451c3.529,0,6.357-1.163,8.799-3.451c1.047-0.971,1.977-2.056,2.364-3.18v6.01h6.201v-6.978
		h2.482h0.076l4.653,6.978h7.132L149.032,56.434z M69.608,57.015l2.753-7.056l2.751,7.056H69.608z M102.402,47.71h9.653
		c-0.622,1.163-1.047,1.939-1.319,3.102h-8.334V47.71z M102.402,59.34v-3.488h8.255c0.233,1.551,0.699,2.325,1.356,3.488H102.402z
		 M127.403,58.021c-1.201,1.203-2.674,1.822-4.38,1.822c-1.744,0-3.216-0.583-4.419-1.783c-1.2-1.201-1.783-2.675-1.783-4.418
		c0-1.707,0.62-3.179,1.823-4.381c1.2-1.241,2.674-1.86,4.379-1.86c1.706,0,3.179,0.619,4.38,1.86
		c1.241,1.24,1.859,2.713,1.859,4.381C129.263,55.309,128.644,56.782,127.403,58.021z M144.032,52.75h-3.645v-5.04h4.147
		c1.202,0,2.173,0.931,2.173,2.404C146.708,51.821,145.699,52.75,144.032,52.75z"/>
</g>
</svg>
