<?xml version="1.0" encoding="utf-8"?>
<!-- Generator: Adobe Illustrator 23.0.1, SVG Export Plug-In . SVG Version: 6.00 Build 0)  -->
<svg version="1.1" id="Layer_1" xmlns="http://www.w3.org/2000/svg" xmlns:xlink="http://www.w3.org/1999/xlink" x="0px" y="0px"
	 width="200px" height="100px" viewBox="0 0 200 100" style="enable-background:new 0 0 200 100;" xml:space="preserve">
<style type="text/css">
	.st0{clip-path:url(#SVGID_2_);}
	.st1{fill:#13BEBB;}
	.st2{fill:#FFFFFF;}
	.st3{fill-rule:evenodd;clip-rule:evenodd;fill:#FFFFFF;}
</style>
<g>
	<g>
		<g>
			<defs>
				<rect id="SVGID_1_" x="4.7" y="17.7" width="191" height="64.5"/>
			</defs>
			<clipPath id="SVGID_2_">
				<use xlink:href="#SVGID_1_"  style="overflow:visible;"/>
			</clipPath>
			<g class="st0">
				<path class="st1" d="M14.9,17.7L4.7,28.1h51.5l10.2-10.3C66.3,17.7,14.9,17.7,14.9,17.7z"/>
				<path class="st2" d="M34.2,82.3c12.6,0,15.8-5.2,15.8-12.1c0-8.5-7.7-10.2-14.2-11.3c-4.8-0.8-7.1-1.3-7.1-4.2
					c0-2.3,1.9-3.1,5.2-3.1c3.9,0,5,1.1,5.3,4.4l10.3-1.5c-0.8-7.1-4.8-10.6-15.3-10.6c-11.5,0-15.5,4.5-15.5,11.9
					c0,9.5,8.9,10.5,15.5,11.6c4.2,0.8,5.6,1.5,5.6,4.2c0,2.3-1.5,3.2-5.5,3.2c-4.5,0-6-0.8-6.5-4.5l-10,1.5
					C18.9,79.2,23.3,82.3,34.2,82.3z"/>
				<path class="st2" d="M67.3,74.5c-4.8,0-6.6-1.1-6.6-4.5c0-3.1,1.8-4.4,6.9-4.4h5.2v3.5C72.9,72.7,71.2,74.5,67.3,74.5z
					 M62.9,82.3c5.6,0,8.2-1.8,10-4.5v4h10.2V56.5c0-8.4-3.2-12.7-14.5-12.7c-11,0-14.7,3.1-16.3,10.6L62.5,56
					c0.6-3.2,1.6-4.2,5.8-4.2c4,0,4.7,1.6,4.7,4.5v2.6h-4.8c-12.9,0-17.4,3.9-17.4,11.8C50.7,78.4,54.7,82.3,62.9,82.3z"/>
				<path class="st2" d="M85.7,81.8h10.5V28.1L85.7,38.4V81.8z"/>
				<path class="st2" d="M108.7,59v-1.9c0-3.2,1.5-5.5,6.1-5.5c4.4,0,5.8,1.9,5.8,5.5V59H108.7z M114.9,82.3
					c11.9,0,15.2-5.6,16-11.1l-9.8-1.5c-0.5,3.4-1.1,5.2-6,5.2c-5,0-6.1-2.4-6.1-5.6v-3.1h21.9v-6.8c0-9.4-3.7-15.5-16-15.5
					c-12.1,0-16.1,6.3-16.1,14.2v10C98.7,75.8,102.9,82.3,114.9,82.3z"/>
				<path class="st2" d="M150,82.3c11.9,0,16.8-6.1,16.8-14.2v-10c0-8.2-4.8-14.2-16.8-14.2s-16.8,6-16.8,14.2v10
					C133.4,76.1,138.1,82.3,150,82.3z M150,74.2c-4.2,0-6.3-2.1-6.3-5.6V57.9c0-3.5,2.1-5.6,6.3-5.6c4.2,0,6.5,2.1,6.5,5.6v10.6
					C156.5,72.1,154.2,74.2,150,74.2z"/>
				<path class="st3" d="M185.5,54.5h-5.6v27.1h-10.5V54.5l10.2-10.3h16L185.5,54.5z"/>
			</g>
		</g>
	</g>
</g>
</svg>
