<?xml version="1.0" encoding="utf-8"?>
<!-- Generator: Adobe Illustrator 23.0.1, SVG Export Plug-In . SVG Version: 6.00 Build 0)  -->
<svg version="1.1" id="Layer_1" xmlns="http://www.w3.org/2000/svg" xmlns:xlink="http://www.w3.org/1999/xlink" x="0px" y="0px"
	 viewBox="0 0 200 100" style="enable-background:new 0 0 200 100;" xml:space="preserve">
<style type="text/css">
	.st0{clip-path:url(#SVGID_2_);}
	.st1{fill:#13BEBB;}
	.st2{fill:#FFFFFF;}
	.st3{fill-rule:evenodd;clip-rule:evenodd;fill:#FFFFFF;}
</style>
<g>
	<g>
		<defs>
			<rect id="SVGID_1_" x="41" y="30" width="118.4" height="40"/>
		</defs>
		<clipPath id="SVGID_2_">
			<use xlink:href="#SVGID_1_"  style="overflow:visible;"/>
		</clipPath>
		<g class="st0">
			<path class="st1" d="M47.3,30L41,36.4h31.9l6.3-6.4H47.3z"/>
			<path class="st2" d="M59.3,70c7.8,0,9.8-3.2,9.8-7.5c0-5.3-4.8-6.3-8.8-7c-3-0.5-4.4-0.8-4.4-2.6c0-1.4,1.2-1.9,3.2-1.9
				c2.4,0,3.1,0.7,3.3,2.7l6.4-0.9c-0.5-4.4-3-6.6-9.5-6.6c-7.1,0-9.6,2.8-9.6,7.4c0,5.9,5.5,6.5,9.6,7.2c2.6,0.5,3.5,0.9,3.5,2.6
				c0,1.4-0.9,2-3.4,2c-2.8,0-3.7-0.5-4-2.8l-6.2,0.9C49.8,68.1,52.5,70,59.3,70z"/>
			<path class="st2" d="M79.8,65.2c-3,0-4.1-0.7-4.1-2.8c0-1.9,1.1-2.7,4.3-2.7h3.2v2.2C83.3,64.1,82.2,65.2,79.8,65.2z M77.1,70
				c3.5,0,5.1-1.1,6.2-2.8v2.5h6.3V54c0-5.2-2-7.9-9-7.9c-6.8,0-9.1,1.9-10.1,6.6l6.3,1c0.4-2,1-2.6,3.6-2.6c2.5,0,2.9,1,2.9,2.8
				v1.6h-3c-8,0-10.8,2.4-10.8,7.3C69.5,67.6,72,70,77.1,70z"/>
			<path class="st2" d="M91.2,69.7h6.5V36.4l-6.5,6.4V69.7z"/>
			<path class="st2" d="M105.5,55.6v-1.2c0-2,0.9-3.4,3.8-3.4c2.7,0,3.6,1.2,3.6,3.4v1.2H105.5z M109.3,70c7.4,0,9.4-3.5,9.9-6.9
				l-6.1-0.9c-0.3,2.1-0.7,3.2-3.7,3.2c-3.1,0-3.8-1.5-3.8-3.5V60h13.6v-4.2c0-5.8-2.3-9.6-9.9-9.6c-7.5,0-10,3.9-10,8.8v6.2
				C99.3,66,101.9,70,109.3,70z"/>
			<path class="st2" d="M131.1,70c7.4,0,10.4-3.8,10.4-8.8V55c0-5.1-3-8.8-10.4-8.8s-10.4,3.7-10.4,8.8v6.2
				C120.8,66.2,123.7,70,131.1,70z M131.1,65c-2.6,0-3.9-1.3-3.9-3.5v-6.6c0-2.2,1.3-3.5,3.9-3.5c2.6,0,4,1.3,4,3.5v6.6
				C135.1,63.7,133.7,65,131.1,65z"/>
			<path class="st3" d="M153.1,52.8h-3.5v16.8h-6.5V52.8l6.3-6.4h9.9L153.1,52.8z"/>
		</g>
	</g>
</g>
</svg>
